<svg width="360" height="489" viewBox="0 0 360 489" fill="none" xmlns="http://www.w3.org/2000/svg">
<mask id="mask0_34804_163444" style="mask-type:alpha" maskUnits="userSpaceOnUse" x="-17" y="0" width="482" height="489">
<rect x="-17" width="482" height="489" fill="#D9D9D9"/>
</mask>
<g mask="url(#mask0_34804_163444)">
<path d="M366.505 181.727C367.266 232.034 354.048 284.706 330.705 328.426C284.847 414.305 172.008 446.853 83.2138 404.419C41.4379 384.452 8.03368 343.739 6.07775 296.704C4.62662 261.896 24.1626 232.873 51.7648 213.977C75.046 198.04 102.707 190.512 127.077 176.614C164.336 155.367 185.41 119.523 217.283 92.532C234.755 77.7343 259.359 64.9908 283.223 67.3845C305.878 69.6546 327.206 82.9642 341.192 100.984C358.846 123.726 366.072 153.098 366.505 181.727Z" fill="#A0B2EC" fill-opacity="0.16"/>
<path d="M-31 148.526C-31 148.526 -0.560234 162.549 26.6415 148.315C54.5769 133.697 50.7718 96.7437 81.0467 87.8559C109.014 79.6455 135.017 100.045 146.477 127.261C154.477 146.261 174.977 141.761 174.977 141.761" stroke="#D81E7E" stroke-width="2" stroke-linecap="round"/>
<g clip-path="url(#clip0_34804_163444)">
<path d="M32.9204 264.701C8.09305 255.992 -19.0936 269.058 -27.8027 293.886C-36.5118 318.713 -23.4453 345.9 1.38203 354.609C26.2094 363.318 53.396 350.251 62.1051 325.424C70.8142 300.597 57.7478 273.41 32.9204 264.701Z" fill="#BDCCF8"/>
<path d="M30.1006 331.513C29.466 328.221 30.0951 324.824 30.902 321.571C31.375 319.667 31.9196 317.765 31.9633 315.804C32.0069 313.843 31.4962 311.788 30.1291 310.379C29.0728 309.287 27.6092 308.701 26.3721 307.804C23.9067 306.028 22.4983 303.177 20.5572 300.832C18.616 298.496 16.0441 296.611 13.1043 295.861C10.1554 295.119 6.83775 295.619 4.47513 297.533C1.13869 300.227 0.318517 305.029 0.747686 309.295C1.17685 313.561 2.60104 317.711 2.78829 321.993C2.95196 325.89 2.06759 329.823 0.247047 333.273C-1.14574 335.92 -3.06415 338.25 -4.56393 340.843C-6.05476 343.437 -7.1372 346.445 -6.6161 349.387C-6.49633 350.042 -6.28663 350.652 -6.03209 351.255C0.768073 355.065 8.59403 357.254 16.9399 357.29C28.8766 357.347 39.7942 352.999 48.1842 345.79C45.913 345.395 43.6791 344.82 41.5283 343.951C36.0846 341.746 31.2064 337.281 30.0916 331.513L30.1006 331.513Z" fill="#A0B2EC"/>
<path d="M4.64818 266.997C8.07846 273.223 17.555 274.03 20.8774 280.309C22.3051 282.998 22.4365 286.483 24.7207 288.5C26.0094 289.648 27.7609 290.084 29.4224 290.564C36.703 292.65 44.12 296.582 47.249 303.477C50.1759 309.923 48.714 317.513 46.2393 324.155C45.1211 327.163 43.8988 330.815 45.9193 333.304C46.5927 334.134 47.5463 334.679 48.5278 335.091C51.2584 336.225 54.3739 336.323 57.1933 335.451C61.9579 328.068 64.7553 319.298 64.8002 309.86C64.9268 283.551 43.6895 262.119 17.3804 261.992C12.5896 261.969 7.95387 262.664 3.58163 263.961C3.7875 265.019 4.11904 266.043 4.63923 266.997L4.64818 266.997Z" fill="#A0B2EC"/>
<path d="M5.68382 287.17C7.89825 287.923 10.9454 287.636 12.7935 286.201C14.6416 284.766 15.4712 281.997 14.3516 279.937C13.6728 278.677 12.4173 277.843 11.224 277.063C8.91747 275.556 6.61098 274.05 4.29561 272.535C3.52974 272.036 2.75499 271.527 1.88855 271.269C0.370123 270.809 -1.37914 271.161 -2.60568 272.171C-3.83229 273.19 -4.49119 274.842 -4.31663 276.419C-4.09178 278.4 -2.69964 280.015 -1.63951 281.708C-0.747212 283.13 -0.0441853 284.694 1.12762 285.895C2.29942 287.097 4.14663 287.856 5.68382 287.17Z" fill="#A0B2EC"/>
<g style="mix-blend-mode:multiply" opacity="0.3">
<path d="M54.6067 292.313C55.4724 296.843 55.036 301.8 52.4957 305.638C49.2839 310.509 43.4261 312.742 39.0235 316.538C35.7487 319.357 33.2629 323.106 31.9201 327.241C30.8992 330.384 30.5027 333.811 28.7327 336.59C25.946 340.972 20.3968 342.715 15.2549 342.913C10.1039 343.12 4.94538 342.117 -0.189358 342.521C-3.96202 342.82 -7.69635 343.872 -11.4822 343.625C-13.7019 343.48 -15.8371 342.889 -17.844 341.958C-9.18399 351.328 3.17733 357.227 16.9408 357.291C43.2499 357.418 64.682 336.181 64.8086 309.872C64.8882 293.243 56.4347 278.574 43.5679 269.992C45.9253 272.878 47.8044 276.189 49.5491 279.509C51.6994 283.575 53.7499 287.783 54.6067 292.313Z" fill="#B5B5B5"/>
</g>
</g>
<path d="M56.126 280.53C56.6757 281.091 57.2088 281.661 57.7253 282.24C77.058 277.232 90.8472 276.871 93.2155 282.326C95.5389 287.698 86.2631 297.525 69.9946 308.363C58.6088 315.952 43.8106 324.033 27.1589 331.442C10.6196 338.801 -5.1836 344.348 -18.3455 347.716C-37.362 352.575 -50.8957 352.873 -53.2326 347.476C-55.5829 342.054 -46.1003 332.094 -29.5489 321.124C-29.6324 320.354 -29.6993 319.576 -29.7451 318.796C-49.9911 331.879 -61.7836 344.213 -58.8633 350.968C-55.925 357.756 -38.8258 357.269 -15.4314 350.946C-2.25894 347.379 12.9111 341.971 28.6719 334.957C44.5745 327.888 58.8774 320.16 70.4442 312.689C90.6856 299.597 102.487 287.258 99.5579 280.508C96.6196 273.72 79.5204 274.207 56.126 280.53Z" fill="#BDCCF8"/>
<path d="M59.9965 284.939C60.5643 285.672 61.1156 286.414 61.6336 287.175C64.0757 286.971 66.1992 286.971 67.9288 287.195C68.3104 287.246 68.667 287.311 69.0154 287.38C71.0641 287.817 72.4283 288.635 72.9618 289.88C73.9504 292.167 72.0317 295.563 67.8823 299.574C67.518 299.932 67.1325 300.29 66.7304 300.658C65.9097 301.401 65.0136 302.164 64.0548 302.95C59.7252 306.469 54.0337 310.306 47.3427 314.178C45.8588 315.044 44.3199 315.908 42.7389 316.773C41.9503 317.199 41.1451 317.634 40.3399 318.069C39.5347 318.504 38.7039 318.931 37.8731 319.359C36.2033 320.218 34.4995 321.074 32.7574 321.919C31.0153 322.764 29.2311 323.61 27.4167 324.44C26.5054 324.857 25.5896 325.266 24.6655 325.68C21.8971 326.907 19.1521 328.079 16.4595 329.169C14.6629 329.893 12.8868 330.596 11.1304 331.255C9.37395 331.914 7.65456 332.543 5.9511 333.142C3.40836 334.033 0.930697 334.846 -1.46911 335.585C-3.86062 336.319 -6.17875 336.971 -8.38134 337.539C-9.85953 337.92 -11.2841 338.26 -12.6633 338.566C-13.3552 338.715 -14.026 338.862 -14.6929 338.998C-16.0186 339.263 -17.2989 339.494 -18.5172 339.68C-20.2902 339.952 -21.9476 340.14 -23.4638 340.251C-29.235 340.645 -33.0494 339.778 -34.0425 337.484C-35.0631 335.118 -32.96 331.547 -28.4959 327.344C-28.7061 326.439 -28.8953 325.533 -29.0551 324.622C-38.5199 331.817 -43.5389 338.089 -41.9265 341.807C-40.3365 345.485 -32.5728 346.02 -21.1939 343.936C-8.7532 341.655 7.99525 336.23 25.7921 328.32C43.6636 320.37 59.0064 311.491 69.0826 303.741C78.2109 296.718 83.0154 290.604 81.4344 286.944C79.8123 283.187 71.7547 282.704 59.9843 284.956L59.9965 284.939Z" fill="url(#paint0_linear_34804_163444)"/>
<path d="M292.182 121.798C293.337 122.89 295.281 121.083 296.518 119.809C297.653 118.641 298.621 117.436 299.542 116.234C300.61 114.843 303.227 110.52 305.476 111.635C306.447 112.115 306.63 113.525 308.727 112.663C311.345 111.59 313.111 108.593 313.651 106.98C316.245 101.981 320.371 97.0431 325.163 92.2426C329.024 88.3709 333.245 84.1942 333.846 80.2791C334.388 76.7557 332.518 73.3018 328.113 72.9205C323.504 72.5232 317.542 74.9146 312.635 78.1152C307.115 81.7175 302.401 86.3024 298.898 90.7234C297.245 92.8116 295.832 94.9233 294.703 97.0147C294.192 97.9576 293.735 98.8975 293.339 99.8266C292.976 100.671 292.255 101.946 292.488 102.634C292.643 103.093 293.15 103.321 294.06 103.058C295.374 102.678 299.893 100.332 297.82 103.974C297.49 104.555 297.224 105.13 296.919 105.71C296.153 107.159 295.358 108.611 294.632 110.054C293.492 112.315 292.495 114.568 291.999 116.718C291.623 118.361 291.086 120.769 292.179 121.803L292.182 121.798Z" fill="#A0B2EC"/>
<path d="M299.871 107.848C301.07 107.143 302.184 106.306 303.116 105.408C303.933 104.623 304.619 103.788 305.515 103.035C306.412 102.282 307.629 101.587 308.652 101.508C309.928 101.409 310.412 102.263 311.536 102.39C312.955 102.549 314.96 101.528 316.536 100.463C317.693 99.682 318.763 98.8433 319.779 97.9746C321.423 96.0217 323.23 94.0851 325.145 92.1678C329.002 88.305 333.219 84.1379 333.824 80.2353C334.368 76.7233 332.506 73.2832 328.111 72.908C323.516 72.5145 317.564 74.9043 312.663 78.0994C307.15 81.6956 302.44 86.2701 298.94 90.68C297.288 92.7629 295.875 94.869 294.746 96.9544C294.235 97.8947 293.778 98.8319 293.382 99.7583C293.019 100.6 292.298 101.871 292.529 102.557C292.684 103.014 293.189 103.241 294.098 102.978C295.409 102.598 299.922 100.255 297.85 103.887C297.519 104.466 297.254 105.039 296.948 105.618C296.424 106.602 295.896 107.588 295.378 108.572C295.588 108.797 295.863 108.962 296.267 109.017C297.267 109.15 298.688 108.547 299.872 107.85L299.871 107.848Z" fill="#BDCCF8"/>
<path d="M300.118 95.6117C301.001 95.0608 301.86 94.4867 302.699 93.8965C303.914 93.0379 305.205 92.0769 306.563 91.6755C307.568 91.3774 308.416 91.463 309.007 91.7236C309.598 91.9842 309.973 92.4034 310.395 92.7877C311.664 93.9566 313.501 94.8637 316.28 94.567C319.633 94.2104 323.676 92.1747 327.079 89.9389C327.387 89.7359 327.696 89.5259 328.003 89.3112C331.214 86.0587 334.458 82.6041 334.942 79.3322C335.413 76.1348 333.709 72.9883 329.735 72.6198C325.567 72.2403 320.202 74.3824 315.792 77.2647C310.832 80.5087 306.603 84.6493 303.466 88.6472C301.986 90.5355 300.722 92.4464 299.714 94.3402C299.349 95.0288 299.017 95.7174 298.715 96.4012C299.193 96.1767 299.662 95.8965 300.114 95.614L300.118 95.6117Z" fill="#E7ECFA"/>
<path d="M328.542 62.3226C327.14 62.4914 326.275 68.7318 326.275 68.7318C326.275 68.7318 319.87 69.3395 319.701 70.5112C319.528 71.6904 325.109 74.6284 325.109 74.6284C325.109 74.6284 323.753 80.9192 324.764 81.4146C325.775 81.91 330.373 77.5526 330.373 77.5526C330.373 77.5526 335.866 80.625 336.737 79.9643C337.602 79.3052 334.799 73.4566 334.799 73.4566C334.793 73.4583 339.478 69.094 339.073 68.1634C338.662 67.2345 332.261 68.0066 332.261 68.0066C332.261 68.0066 329.943 62.1538 328.542 62.3226Z" fill="#F0B323"/>
<g opacity="0.4">
<path d="M299.546 288.854C299.48 288.793 299.396 288.754 299.307 288.743C299.219 288.732 299.13 288.75 299.053 288.793C298.976 288.837 298.915 288.905 298.879 288.986C298.843 289.068 298.834 289.16 298.852 289.248L299.344 291.632C299.562 292.695 299.278 293.787 298.576 294.583L296.998 296.366C296.94 296.433 296.903 296.517 296.895 296.606C296.886 296.696 296.906 296.787 296.951 296.866C296.995 296.945 297.063 297.008 297.145 297.046C297.226 297.085 297.317 297.097 297.404 297.08L299.743 296.638C300.257 296.541 300.79 296.567 301.298 296.714C301.806 296.862 302.277 297.127 302.672 297.488L304.468 299.13C304.535 299.192 304.618 299.231 304.707 299.241C304.795 299.252 304.885 299.235 304.961 299.191C305.038 299.147 305.099 299.08 305.135 298.998C305.171 298.916 305.181 298.825 305.162 298.736L304.67 296.352C304.562 295.828 304.575 295.289 304.709 294.776C304.842 294.264 305.092 293.793 305.439 293.401L307.016 291.618C307.075 291.552 307.111 291.468 307.12 291.378C307.128 291.288 307.109 291.198 307.064 291.119C307.019 291.04 306.951 290.976 306.869 290.938C306.788 290.899 306.697 290.888 306.61 290.904L304.271 291.347C303.757 291.444 303.224 291.417 302.716 291.27C302.208 291.122 301.737 290.858 301.343 290.496L299.546 288.854Z" fill="#A0B2EC"/>
<path d="M54.5464 237.854C54.4796 237.793 54.396 237.754 54.3074 237.743C54.2187 237.732 54.1297 237.75 54.0528 237.793C53.9759 237.837 53.9152 237.905 53.8792 237.986C53.8431 238.068 53.8337 238.16 53.8522 238.248L54.344 240.632C54.5625 241.695 54.2781 242.787 53.5755 243.583L51.9985 245.366C51.9396 245.433 51.9033 245.517 51.8947 245.606C51.8861 245.696 51.9056 245.787 51.9505 245.866C51.9955 245.945 52.0634 246.008 52.1449 246.046C52.2263 246.085 52.317 246.097 52.4041 246.08L54.7431 245.638C55.2574 245.541 55.7898 245.567 56.2981 245.714C56.8065 245.862 57.2767 246.127 57.6717 246.488L59.4678 248.13C59.5346 248.192 59.6182 248.231 59.7069 248.241C59.7955 248.252 59.8845 248.235 59.9614 248.191C60.0383 248.147 60.099 248.08 60.1351 247.998C60.1711 247.916 60.1805 247.825 60.1621 247.736L59.6702 245.352C59.5621 244.828 59.5753 244.289 59.7087 243.776C59.8421 243.264 60.092 242.793 60.4387 242.401L62.0158 240.618C62.0746 240.552 62.1109 240.468 62.1195 240.378C62.1281 240.288 62.1086 240.198 62.0637 240.119C62.0188 240.04 61.9508 239.976 61.8694 239.938C61.7879 239.899 61.6972 239.888 61.6101 239.904L59.2711 240.347C58.7568 240.444 58.2244 240.417 57.7161 240.27C57.2078 240.122 56.7375 239.858 56.3425 239.496L54.5464 237.854Z" fill="#A0B2EC"/>
<path d="M156.401 294.298C156.547 294.216 156.664 294.092 156.735 293.943C156.805 293.793 156.826 293.627 156.794 293.466C156.762 293.306 156.679 293.16 156.556 293.049C156.434 292.939 156.278 292.869 156.112 292.85L151.641 292.327C149.648 292.093 147.896 290.958 146.908 289.262L144.694 285.457C144.612 285.315 144.486 285.203 144.333 285.136C144.181 285.068 144.01 285.05 143.845 285.083C143.681 285.116 143.53 285.198 143.415 285.319C143.3 285.439 143.227 285.592 143.205 285.754L142.622 290.118C142.493 291.077 142.138 291.996 141.583 292.803C141.029 293.609 140.291 294.281 139.427 294.764L135.499 296.963C135.353 297.044 135.236 297.168 135.166 297.318C135.095 297.467 135.074 297.634 135.106 297.794C135.138 297.954 135.221 298.1 135.344 298.211C135.466 298.322 135.622 298.391 135.788 298.411L140.259 298.933C141.242 299.048 142.181 299.385 143.003 299.917C143.824 300.449 144.506 301.161 144.992 301.998L147.206 305.803C147.288 305.945 147.414 306.057 147.567 306.125C147.719 306.192 147.89 306.21 148.055 306.177C148.219 306.145 148.37 306.062 148.485 305.941C148.6 305.821 148.673 305.668 148.695 305.506L149.278 301.143C149.407 300.183 149.762 299.264 150.317 298.457C150.871 297.651 151.61 296.979 152.473 296.496L156.401 294.298Z" fill="#A0B2EC"/>
<path d="M322.875 203.515C322.9 203.349 322.873 203.18 322.798 203.033C322.723 202.886 322.603 202.768 322.457 202.695C322.31 202.623 322.144 202.6 321.981 202.629C321.819 202.658 321.669 202.739 321.552 202.859L318.408 206.08C317.005 207.515 315.037 208.209 313.09 207.956L308.725 207.385C308.563 207.363 308.396 207.395 308.25 207.474C308.104 207.554 307.985 207.678 307.91 207.828C307.836 207.979 307.809 208.149 307.834 208.313C307.86 208.478 307.935 208.629 308.051 208.745L311.15 211.872C311.831 212.56 312.342 213.403 312.642 214.334C312.942 215.266 313.023 216.261 312.878 217.24L312.22 221.692C312.195 221.858 312.222 222.027 312.297 222.174C312.372 222.321 312.491 222.439 312.638 222.511C312.784 222.584 312.951 222.607 313.113 222.578C313.275 222.549 313.426 222.468 313.543 222.348L316.687 219.127C317.378 218.419 318.219 217.881 319.142 217.555C320.065 217.229 321.045 217.125 322.004 217.251L326.369 217.822C326.532 217.844 326.698 217.812 326.844 217.733C326.991 217.653 327.11 217.529 327.184 217.379C327.259 217.228 327.285 217.058 327.26 216.894C327.235 216.729 327.159 216.578 327.043 216.462L323.945 213.335C323.264 212.647 322.753 211.804 322.453 210.873C322.153 209.941 322.072 208.946 322.217 207.967L322.875 203.515Z" fill="#A0B2EC"/>
<path d="M268.875 231.515C268.9 231.349 268.873 231.18 268.798 231.033C268.723 230.886 268.603 230.768 268.457 230.695C268.31 230.623 268.144 230.6 267.981 230.629C267.819 230.658 267.669 230.739 267.552 230.859L264.408 234.08C263.005 235.515 261.037 236.209 259.09 235.956L254.725 235.385C254.563 235.363 254.396 235.395 254.25 235.474C254.104 235.554 253.985 235.678 253.91 235.828C253.836 235.979 253.809 236.149 253.834 236.313C253.86 236.478 253.935 236.629 254.051 236.745L257.15 239.872C257.831 240.56 258.342 241.403 258.642 242.334C258.942 243.266 259.023 244.261 258.878 245.24L258.22 249.692C258.195 249.858 258.222 250.027 258.297 250.174C258.372 250.321 258.491 250.439 258.638 250.511C258.784 250.584 258.951 250.607 259.113 250.578C259.275 250.549 259.426 250.468 259.543 250.348L262.687 247.127C263.378 246.419 264.219 245.881 265.142 245.555C266.065 245.229 267.045 245.125 268.004 245.251L272.369 245.822C272.532 245.844 272.698 245.812 272.844 245.733C272.991 245.653 273.11 245.529 273.184 245.379C273.259 245.228 273.285 245.058 273.26 244.894C273.235 244.729 273.159 244.578 273.043 244.462L269.945 241.335C269.264 240.647 268.753 239.804 268.453 238.873C268.153 237.941 268.072 236.946 268.217 235.967L268.875 231.515Z" fill="#A0B2EC"/>
<path d="M254.046 208.256C254.014 208.158 253.954 208.073 253.872 208.013C253.791 207.952 253.694 207.92 253.593 207.92C253.493 207.92 253.395 207.952 253.314 208.013C253.233 208.073 253.172 208.158 253.141 208.256L252.29 210.881C251.91 212.052 251.018 212.969 249.88 213.36L247.326 214.234C247.231 214.267 247.148 214.329 247.089 214.413C247.031 214.496 246.999 214.596 246.999 214.7C246.999 214.803 247.031 214.903 247.089 214.987C247.148 215.07 247.231 215.133 247.326 215.165L249.88 216.039C250.441 216.232 250.951 216.556 251.369 216.986C251.788 217.416 252.103 217.941 252.29 218.518L253.141 221.143C253.172 221.241 253.233 221.326 253.314 221.386C253.395 221.447 253.493 221.479 253.593 221.479C253.694 221.479 253.791 221.447 253.872 221.386C253.954 221.326 254.014 221.241 254.046 221.143L254.896 218.518C255.083 217.941 255.399 217.416 255.817 216.986C256.236 216.556 256.746 216.232 257.307 216.039L259.861 215.165C259.956 215.133 260.039 215.07 260.097 214.987C260.156 214.903 260.188 214.803 260.188 214.7C260.188 214.596 260.156 214.496 260.097 214.413C260.039 214.329 259.956 214.267 259.861 214.234L257.307 213.36C256.746 213.167 256.236 212.843 255.817 212.413C255.399 211.983 255.083 211.459 254.896 210.881L254.046 208.256Z" fill="#A0B2EC"/>
</g>
<path d="M192.03 254.756L204.067 184.788C204.585 184.833 204.873 184.87 204.873 184.87L204.125 184.489L204.326 183.321C202.492 182.693 200.753 182.251 199.086 181.956L181.49 173.102L181.479 173.096L158.094 161.334C158.094 161.334 158.475 161.733 159.097 162.445L108.853 213.992L127.955 232.88C133.288 227.574 171.489 187.893 171.489 187.893C171.489 187.893 171.519 187.777 171.555 187.576L173.665 188.637L173.677 188.643L176.163 189.896C174.757 197.795 166.598 243.601 165.532 250.388L192.039 254.753L192.03 254.756Z" fill="white"/>
<path d="M218.663 177.797C217.134 180.841 212.428 181.565 208.145 179.409L160.298 155.333C156.022 153.181 153.794 148.971 155.324 145.928L179.144 98.5494C180.673 95.5062 185.385 94.7852 189.662 96.9374L237.506 121.019C241.783 123.172 244.007 127.387 242.478 130.43L218.652 177.806L218.663 177.797Z" fill="#0C419A"/>
<path d="M270.574 167.735C270.574 167.735 273.451 165.548 276.752 164.918C279.507 164.388 281.358 164.943 281.423 166.204C281.489 167.465 279.393 167.845 280.074 169.274C280.755 170.703 286.481 168.39 288.245 172.629C290.004 176.869 288.832 181.132 285.592 182.978C282.353 184.824 271.414 183.118 268.578 180.057L270.581 167.734L270.574 167.735Z" fill="url(#paint1_linear_34804_163444)"/>
<path d="M173.904 63.6736C173.904 63.6736 177.008 61.8244 178.828 58.9993C180.35 56.6431 180.528 54.7186 179.383 54.186C178.238 53.6534 177.101 55.454 176.031 54.2877C174.961 53.1215 179.249 48.6778 175.978 45.4549C172.704 42.2379 168.313 41.7292 165.388 44.0424C162.464 46.3555 159.953 57.1377 161.73 60.9133L173.907 63.6678L173.904 63.6736Z" fill="url(#paint2_linear_34804_163444)"/>
<path d="M272.878 164.368L268.799 164.388C256.371 164.452 245.648 158.971 238.602 148.961C237.213 146.987 235.872 144.735 234.507 142.066C233.797 140.679 233.319 139.631 232.349 137.065C231.487 134.771 230.934 133.017 230.574 131.383C229.459 126.362 224.969 123.506 219.893 124.593C215.035 125.635 210.752 130.309 212.001 136.331L212.034 136.485C213.864 144.728 218.051 153.554 223.823 161.332C234.153 175.245 249.386 183.156 266.718 183.607L269.735 183.687L272.878 164.362L272.878 164.368Z" fill="white"/>
<path d="M178.827 60.7817L177.322 64.578C172.74 76.1294 173.935 88.1073 180.688 98.3192C182.02 100.334 183.633 102.398 185.614 104.642C186.646 105.811 187.451 106.637 189.482 108.469C191.305 110.106 192.739 111.261 194.128 112.188C198.399 115.052 199.423 120.277 196.564 124.609C193.823 128.754 187.911 131.041 182.756 127.689L182.626 127.601C175.614 122.894 168.923 115.781 163.783 107.575C154.583 92.8808 152.765 75.8098 158.662 59.5034L159.685 56.6662L178.827 60.7817Z" fill="white"/>
<path d="M245.326 156.795C240.869 161.437 236.418 166.085 231.961 170.726C230.245 172.516 233.325 174.807 235.017 173.048C239.474 168.407 243.925 163.758 248.383 159.111C250.098 157.322 247.019 155.03 245.327 156.789L245.326 156.795Z" fill="#D81E7E"/>
<path d="M175.801 87.7942C169.467 88.9315 163.134 90.0688 156.797 91.2118C154.362 91.6495 154.156 87.8135 156.56 87.3815C162.893 86.2442 169.227 85.1069 175.563 83.9638C177.999 83.5262 178.21 87.3651 175.807 87.7972L175.801 87.7942Z" fill="#D81E7E"/>
<path d="M194.978 241.583C185.939 240.464 176.897 239.337 167.858 238.219C166.01 237.992 166.593 235.172 168.422 235.396C177.457 236.52 186.502 237.641 195.541 238.759C197.389 238.986 196.806 241.806 194.978 241.583Z" fill="#D81E7E"/>
<path d="M191.184 261.49C182.189 260.271 173.189 259.048 164.195 257.828C159.278 257.161 160.826 249.642 165.697 250.3C173.667 249.525 182.661 250.745 192.683 253.967C197.6 254.634 196.052 262.154 191.181 261.496L191.184 261.49Z" fill="#A0B2EC"/>
<path d="M191.288 264.598L191.091 269.396C190.994 271.691 192.398 273.764 194.547 274.576C196.696 275.387 199.071 276.758 200.695 279.331C203.045 283.056 200.072 287.856 195.691 287.411C187.77 286.607 174.924 285.023 169.719 282.786C161.949 279.452 165.076 264.697 166.237 257.265C166.237 257.265 172.371 254.799 187.522 259.311C189.835 260.001 191.389 262.181 191.283 264.595L191.288 264.598Z" fill="#0C419A"/>
<path d="M117.789 203.875C124.004 210.534 130.227 217.19 136.441 223.848C137.71 225.211 139.65 223.082 138.395 221.734C132.178 215.081 125.958 208.42 119.744 201.761C118.474 200.399 116.535 202.527 117.789 203.875Z" fill="#D81E7E"/>
<path d="M103.915 218.658C110.185 225.221 116.461 231.787 122.731 238.35C126.159 241.938 131.336 236.267 127.942 232.712C123.331 224.803 117.06 218.24 109.123 213.026C105.695 209.438 100.519 215.108 103.912 218.664L103.915 218.658Z" fill="#A0B2EC"/>
<path d="M103.57 220.65L99.8029 223.628C98.0025 225.054 95.4999 225.136 93.581 223.873C91.6621 222.61 89.1573 221.494 86.1215 221.691C81.7263 221.976 79.5878 227.202 82.5207 230.486C87.8242 236.425 96.6521 245.891 101.52 248.789C108.782 253.119 118.886 241.923 124.22 236.617C124.22 236.617 122.612 230.204 110.061 220.593C108.144 219.126 105.467 219.149 103.576 220.652L103.57 220.65Z" fill="#0C419A"/>
<path d="M229.524 133.35L206.083 124.203L184.768 110.831C184.768 110.831 171.787 135.303 162.594 153.018L185.736 164.656L208.875 176.3C217.612 158.36 229.524 133.35 229.524 133.35Z" fill="white"/>
<path d="M224.25 121.715C216.969 121.646 209.773 118.16 209.767 118.157C209.767 118.157 202.671 114.459 198.28 108.649C198.28 108.649 193.579 109.392 192.604 112.006C191.635 114.622 195.222 119.532 206.277 125.088C217.329 130.65 223.412 130.605 224.932 128.269C226.451 125.933 224.244 121.712 224.244 121.712L224.25 121.715Z" fill="#E7ECFA"/>
<path d="M194.448 87.9652C193.018 90.7992 189.75 92.039 187.148 90.7269C184.543 89.4206 183.591 86.0588 185.022 83.2249L188.083 77.1483C189.514 74.3143 192.782 73.0744 195.384 74.3865C197.989 75.6928 198.94 79.0546 197.51 81.8886L194.448 87.9652Z" fill="#A0B2EC"/>
<path d="M251.593 116.672C250.168 119.509 246.894 120.746 244.292 119.434C241.687 118.128 240.736 114.766 242.166 111.932L245.228 105.855C246.658 103.021 249.926 101.781 252.528 103.093C255.131 104.406 256.085 107.762 254.654 110.596L251.593 116.672Z" fill="#A0B2EC"/>
<path d="M234.398 67.9911C217.849 59.6777 194.802 68.5765 188.685 88.8669C182.568 109.157 207.169 122.043 207.18 122.049C207.18 122.049 232.216 134.097 244.876 117.099C257.534 100.092 250.948 76.3045 234.398 67.9911Z" fill="white"/>
<path d="M232.922 70.9365C218.844 63.8614 199.865 70.1681 195.385 85.9998C190.903 101.823 211.854 112.76 211.86 112.763C211.86 112.763 233.144 123.045 243.193 110.024C253.239 96.9936 247.005 78.0145 232.919 70.9423L232.922 70.9365Z" fill="#0C419A"/>
<path d="M229.512 74.3574C217.644 68.3912 201.755 73.4886 198.106 86.5869C194.454 99.678 212.119 108.895 212.123 108.898C212.123 108.898 230.064 117.574 238.408 106.846C246.751 96.1096 241.384 80.326 229.51 74.3622L229.512 74.3574Z" fill="#2B60B9"/>
<path opacity="0.5" d="M206.586 82.4202C210.873 77.6205 218.886 74.3991 228.303 79.3123" stroke="#A0B2EC" stroke-width="3.86403" stroke-linecap="round"/>
<path d="M208.477 147.807C207.387 149.975 204.848 150.915 202.837 149.904L186.867 141.872C184.856 140.861 184.1 138.263 185.191 136.095L188.477 129.564C189.567 127.396 192.1 126.453 194.111 127.464L210.086 135.499C212.097 136.51 212.854 139.108 211.763 141.276L208.477 147.807Z" fill="#F2DCF9"/>
<path fill-rule="evenodd" clip-rule="evenodd" d="M200.22 133.639C200.425 133.737 200.528 133.971 200.461 134.188L198.535 140.43L199.998 139.244C200.144 139.126 200.347 139.109 200.511 139.2C200.675 139.292 200.767 139.475 200.742 139.661L200.368 142.511L201.896 141.677C202.03 141.605 202.19 141.602 202.325 141.671L204.371 142.714C204.597 142.829 204.687 143.106 204.572 143.332C204.456 143.558 204.18 143.648 203.954 143.533L202.124 142.6L200.016 143.749C199.864 143.832 199.678 143.823 199.536 143.725C199.393 143.627 199.318 143.458 199.34 143.286L199.682 140.683L197.94 142.094C197.783 142.222 197.562 142.231 197.394 142.118C197.226 142.005 197.153 141.795 197.212 141.602L198.668 136.884L194.584 142.943C194.458 143.13 194.214 143.198 194.01 143.103C193.805 143.008 193.7 142.778 193.761 142.561L195.347 136.989L193.95 138.019C193.81 138.123 193.624 138.138 193.469 138.059L191.525 137.068C191.299 136.953 191.209 136.676 191.324 136.45C191.44 136.224 191.716 136.135 191.942 136.25L193.633 137.112L195.884 135.451C196.042 135.334 196.257 135.331 196.418 135.443C196.58 135.555 196.652 135.757 196.598 135.946L195.434 140.038L199.641 133.796C199.768 133.607 200.015 133.54 200.22 133.639Z" fill="#D81E7E"/>
<path d="M207.972 183.854C207.396 184.984 206.008 185.445 204.881 184.877L158.113 161.348C156.98 160.777 156.52 159.389 157.09 158.256L159.274 153.915C159.845 152.782 161.233 152.321 162.366 152.892L209.133 176.422C210.263 176.998 210.727 178.381 210.156 179.514L207.972 183.854Z" fill="#A0B2EC"/>
<path d="M187.082 147.602C186.553 148.639 185.284 149.066 184.244 148.543C183.198 148.017 182.78 146.745 183.303 145.705C183.835 144.662 185.101 144.241 186.141 144.764C187.187 145.29 187.605 146.562 187.082 147.602Z" fill="#1E7B6F"/>
<path d="M194.463 151.321C193.931 152.364 192.665 152.784 191.625 152.261C190.579 151.735 190.161 150.464 190.684 149.423C191.216 148.38 192.482 147.96 193.522 148.483C194.565 149.015 194.986 150.28 194.463 151.321Z" fill="#D81E7E"/>
<path d="M201.875 155.043C201.343 156.087 200.077 156.507 199.031 155.981C197.988 155.449 197.567 154.183 198.09 153.143C198.617 152.097 199.888 151.679 200.929 152.202C201.972 152.734 202.392 154 201.869 155.04L201.875 155.043Z" fill="#F0B323"/>
<rect x="178.818" y="206.147" width="15.9767" height="15.6555" rx="3.47899" transform="rotate(10.89 178.818 206.147)" fill="#F2DCF9"/>
<rect x="143.371" y="185.041" width="15.9767" height="15.6555" rx="3.47899" transform="rotate(42.0145 143.371 185.041)" fill="#F2DCF9"/>
<g clip-path="url(#clip1_34804_163444)">
<line x1="40.7059" y1="49.0983" x2="99.7152" y2="27.4535" stroke="#0C419A" stroke-width="1.36752"/>
<line x1="41.7958" y1="54.8786" x2="100.805" y2="33.2338" stroke="#0C419A" stroke-width="1.36752"/>
<path d="M36.9273 44.446L42.3006 59.095C42.5606 59.8041 43.3463 60.1681 44.0554 59.908L49.101 58.0572C49.81 57.7971 50.174 57.0115 49.9139 56.3024L44.5406 41.6534C44.2805 40.9444 43.4949 40.5804 42.7858 40.8405L37.7402 42.6912C37.0311 42.9513 36.6672 43.737 36.9273 44.446Z" fill="#BDCCF8"/>
<path d="M45.0933 41.4529L50.4666 56.1019C50.7267 56.8109 51.5123 57.1749 52.2214 56.9148L57.267 55.0641C57.9761 54.804 58.34 54.0183 58.0799 53.3093L52.7066 38.6603C52.4466 37.9512 51.6609 37.5872 50.9518 37.8473L45.9062 39.6981C45.1972 39.9582 44.8332 40.7438 45.0933 41.4529Z" fill="#BDCCF8"/>
<path d="M53.2632 38.4558L58.6365 53.1048C58.8966 53.8139 59.6822 54.1778 60.3913 53.9177L65.4369 52.067C66.146 51.8069 66.5099 51.0213 66.2499 50.3122L60.8766 35.6632C60.6165 34.9541 59.8308 34.5902 59.1218 34.8503L54.0761 36.701C53.3671 36.9611 53.0031 37.7467 53.2632 38.4558Z" fill="#BDCCF8"/>
<path d="M75.9585 30.1306L81.3318 44.7796C81.5919 45.4887 82.3775 45.8526 83.0866 45.5925L88.1322 43.7418C88.8413 43.4817 89.2053 42.6961 88.9452 41.987L83.5719 27.338C83.3118 26.6289 82.5261 26.265 81.8171 26.5251L76.7715 28.3758C76.0624 28.6359 75.6984 29.4216 75.9585 30.1306Z" fill="#BDCCF8"/>
<path d="M84.1284 27.1335L89.5017 41.7825C89.7618 42.4916 90.5475 42.8556 91.2565 42.5955L96.3022 40.7447C97.0112 40.4846 97.3752 39.699 97.1151 38.9899L91.7418 24.3409C91.4817 23.6319 90.6961 23.2679 89.987 23.528L84.9414 25.3787C84.2323 25.6388 83.8683 26.4245 84.1284 27.1335Z" fill="#BDCCF8"/>
<path d="M92.3003 24.1365L97.6736 38.7855C97.9337 39.4945 98.7193 39.8585 99.4284 39.5984L104.474 37.7477C105.183 37.4876 105.547 36.7019 105.287 35.9929L99.9137 21.3439C99.6536 20.6348 98.8679 20.2708 98.1589 20.5309L93.1132 22.3817C92.4042 22.6418 92.0402 23.4274 92.3003 24.1365Z" fill="#BDCCF8"/>
<path d="M73.0161 56.2072C73.1226 56.4977 74.7826 56.1514 76.7254 55.4388C78.6682 54.7262 80.1612 53.9108 80.0547 53.6203C79.9481 53.3298 78.2881 53.676 76.3453 54.3886C74.4026 55.1012 72.9095 55.9167 73.0161 56.2072Z" fill="url(#paint3_linear_34804_163444)"/>
<path d="M66.8821 28.5848C69.7509 27.5325 72.2484 26.9563 72.9969 27.1298L71.9649 26.4783C71.8055 26.0578 69.3731 26.5587 66.5196 27.6105C63.669 28.6561 61.4806 29.8502 61.6309 30.274L61.2648 31.4383C61.7175 30.819 64.0043 29.6404 66.873 28.5881L66.8821 28.5848Z" fill="url(#paint4_linear_34804_163444)"/>
<path d="M73.2186 27.2724C73.0388 26.7822 70.1989 27.3656 66.8762 28.5843C63.5535 29.8031 61.0066 31.1853 61.1898 31.6847L64.9626 41.9704L76.9915 37.5582L73.2157 27.2786L73.2186 27.2724Z" fill="#A0B2EC"/>
<path d="M70.9645 39.7184C67.8779 40.8506 65.5088 42.1419 65.6724 42.602L69.479 52.9939L80.6635 48.8913L76.8507 38.4966C76.6842 38.0427 74.0449 38.5834 70.9583 39.7156L70.9645 39.7184Z" fill="#A0B2EC"/>
<path d="M76.9762 37.5069C76.7964 37.0167 73.9565 37.6001 70.6338 38.8188C67.3112 40.0376 64.7614 41.4261 64.9474 41.9192C64.9541 41.9373 64.9665 41.9431 64.9822 41.9579L64.9641 41.9645L65.6743 42.595C65.5106 42.1349 67.8707 40.8469 70.9664 39.7114C74.053 38.5792 76.6952 38.0323 76.8588 38.4925L76.9929 37.5523L76.9747 37.559C76.9747 37.559 76.9767 37.5222 76.9762 37.5069Z" fill="url(#paint5_linear_34804_163444)"/>
<path d="M74.7693 50.1103C71.6826 51.2425 69.3135 52.5338 69.4772 52.9939L72.0066 53.4875C71.9 53.197 73.3902 52.3877 75.3358 51.6689C77.2786 50.9563 78.9448 50.6129 79.0451 50.9005L80.6555 48.8885C80.4828 48.4317 77.8497 48.9752 74.7631 50.1074L74.7693 50.1103Z" fill="url(#paint6_linear_34804_163444)"/>
<path d="M75.3474 51.6628C73.4046 52.3754 71.9116 53.1908 72.0182 53.4813L73.0171 56.2048C72.9106 55.9143 74.4008 55.1051 76.3464 54.3863C78.2892 53.6737 79.9554 53.3303 80.0557 53.6179L79.0568 50.8944C78.9502 50.6039 77.2902 50.9501 75.3474 51.6628Z" fill="#A0B2EC"/>
<g style="mix-blend-mode:lighten" opacity="0.5">
<path fill-rule="evenodd" clip-rule="evenodd" d="M41.0783 54.3235L42.5488 58.3326C42.8089 59.0417 43.5945 59.4056 44.3036 59.1455L48.4201 57.6356C48.587 57.5744 48.7347 57.4841 48.8597 57.3725C47.256 57.3864 45.6158 57.0513 44.0533 56.3275C42.9286 55.8064 41.9315 55.1244 41.0783 54.3235Z" fill="#E7ECFA"/>
</g>
<g style="mix-blend-mode:lighten" opacity="0.5">
<path fill-rule="evenodd" clip-rule="evenodd" d="M49.2443 51.3304L50.7148 55.3394C50.9749 56.0485 51.7606 56.4125 52.4696 56.1524L56.5861 54.6424C56.753 54.5812 56.9007 54.4909 57.0257 54.3794C55.4221 54.3932 53.7818 54.0582 52.2193 53.3343C51.0946 52.8132 50.0975 52.1312 49.2443 51.3304Z" fill="#E7ECFA"/>
</g>
<g style="mix-blend-mode:lighten" opacity="0.5">
<path fill-rule="evenodd" clip-rule="evenodd" d="M57.4142 48.3352L58.8847 52.3443C59.1448 53.0534 59.9305 53.4173 60.6395 53.1573L64.7561 51.6473C64.9229 51.5861 65.0706 51.4958 65.1956 51.3842C63.592 51.3981 61.9518 51.063 60.3893 50.3392C59.2645 49.8181 58.2674 49.1361 57.4142 48.3352Z" fill="#E7ECFA"/>
</g>
<g style="mix-blend-mode:lighten" opacity="0.5">
<path fill-rule="evenodd" clip-rule="evenodd" d="M80.1095 40.01L81.5801 44.0191C81.8401 44.7282 82.6258 45.0921 83.3349 44.8321L87.4514 43.3221C87.6182 43.2609 87.766 43.1706 87.891 43.0591C86.2873 43.0729 84.6471 42.7378 83.0846 42.014C81.9598 41.4929 80.9628 40.8109 80.1095 40.01Z" fill="#E7ECFA"/>
</g>
<g style="mix-blend-mode:lighten" opacity="0.5">
<path fill-rule="evenodd" clip-rule="evenodd" d="M88.2814 37.0081L89.7519 41.0172C90.012 41.7262 90.7977 42.0902 91.5067 41.8301L95.6232 40.3202C95.7901 40.259 95.9378 40.1687 96.0628 40.0571C94.4592 40.071 92.819 39.7359 91.2564 39.012C90.1317 38.491 89.1346 37.809 88.2814 37.0081Z" fill="#E7ECFA"/>
</g>
<g style="mix-blend-mode:lighten" opacity="0.5">
<path fill-rule="evenodd" clip-rule="evenodd" d="M96.4513 34.013L97.9218 38.022C98.1819 38.7311 98.9676 39.0951 99.6767 38.835L103.793 37.325C103.96 37.2638 104.108 37.1735 104.233 37.062C102.629 37.0758 100.989 36.7408 99.4264 36.0169C98.3016 35.4959 97.3045 34.8138 96.4513 34.013Z" fill="#E7ECFA"/>
</g>
</g>
</g>
<defs>
<linearGradient id="paint0_linear_34804_163444" x1="-46.2168" y1="333.895" x2="78.199" y2="280.353" gradientUnits="userSpaceOnUse">
<stop stop-color="#0C419A"/>
<stop offset="1" stop-color="#1058D1"/>
</linearGradient>
<linearGradient id="paint1_linear_34804_163444" x1="287.979" y1="163.865" x2="289.327" y2="183.293" gradientUnits="userSpaceOnUse">
<stop stop-color="#0C419A"/>
<stop offset="1" stop-color="#1058D1"/>
</linearGradient>
<linearGradient id="paint2_linear_34804_163444" x1="166.824" y1="40.2227" x2="184.007" y2="49.3894" gradientUnits="userSpaceOnUse">
<stop stop-color="#0C419A"/>
<stop offset="1" stop-color="#1058D1"/>
</linearGradient>
<linearGradient id="paint3_linear_34804_163444" x1="72.9766" y1="56.2217" x2="75.352" y2="51.3522" gradientUnits="userSpaceOnUse">
<stop stop-color="#0C419A"/>
<stop offset="1" stop-color="#1058D1"/>
</linearGradient>
<linearGradient id="paint4_linear_34804_163444" x1="61.084" y1="31.3545" x2="65.0864" y2="23.1496" gradientUnits="userSpaceOnUse">
<stop stop-color="#0C419A"/>
<stop offset="1" stop-color="#1058D1"/>
</linearGradient>
<linearGradient id="paint5_linear_34804_163444" x1="64.7715" y1="42.1768" x2="68.9406" y2="33.6298" gradientUnits="userSpaceOnUse">
<stop stop-color="#0C419A"/>
<stop offset="1" stop-color="#1058D1"/>
</linearGradient>
<linearGradient id="paint6_linear_34804_163444" x1="69.4355" y1="52.9746" x2="73.1854" y2="45.2875" gradientUnits="userSpaceOnUse">
<stop stop-color="#0C419A"/>
<stop offset="1" stop-color="#1058D1"/>
</linearGradient>
<clipPath id="clip0_34804_163444">
<rect width="95.2879" height="95.2879" fill="white" transform="translate(-30.9102 356.876) rotate(-89.5099)"/>
</clipPath>
<clipPath id="clip1_34804_163444">
<rect width="60.54" height="60.54" fill="white" transform="translate(31 54.9316) rotate(-65.1432)"/>
</clipPath>
</defs>
</svg>
