<svg width="65" height="65" viewBox="0 0 65 65" fill="none" xmlns="http://www.w3.org/2000/svg">
<path d="M58.1123 40.5366C55.2866 46.9425 50.5549 52.8348 45.0623 57.0069C34.2724 65.2017 18.106 62.7603 9.33695 52.2342C5.21142 47.2817 3.35004 40.1922 5.83457 34.1308C7.67278 29.6448 11.8301 27.1101 16.4198 26.3246C20.2909 25.6623 24.2277 26.3177 28.1181 25.9764C34.066 25.455 38.8142 22.147 44.4143 20.586C47.4844 19.7302 51.3372 19.5485 54.2175 21.238C56.9518 22.8416 58.8769 25.764 59.5998 28.8554C60.5123 32.7572 59.7205 36.8914 58.1123 40.5366Z" fill="#A0B2EC" fill-opacity="0.16"/>
<path fill-rule="evenodd" clip-rule="evenodd" d="M41.5591 29.6027C41.2739 37.7077 43.3302 47.7783 36.536 52.1787C29.5037 56.7335 19.8251 52.9775 13.0496 48.068C7.54815 44.0816 6.70992 36.7747 5.93482 30.0049C5.31147 24.5606 6.18761 19.2801 9.23198 14.7246C12.6171 9.65924 17.0388 4.50674 23.1083 4.30709C29.26 4.10474 34.2545 8.80157 37.8873 13.782C41.2388 18.3768 41.7595 23.9071 41.5591 29.6027Z" fill="#A0B2EC" fill-opacity="0.16"/>
<path d="M35.6371 19.7918C35.4712 19.9935 35.3695 20.2402 35.3453 20.5003C35.321 20.7603 35.3753 21.0216 35.5011 21.2505C36.484 23.0551 36.9973 25.078 36.9938 27.1329C36.9938 33.9692 31.4208 39.5048 24.5523 39.5048C23.6563 39.5048 22.7842 39.4113 21.946 39.2328C21.6891 39.1771 21.4214 39.1984 21.1765 39.2939C20.9316 39.3895 20.7203 39.5551 20.5689 39.77C20.4091 39.9935 20.3276 40.2635 20.3372 40.5381C20.3467 40.8126 20.4467 41.0764 20.6216 41.2882C21.955 42.9262 23.6372 44.2459 25.5454 45.1512C27.4537 46.0565 29.5399 46.5246 31.652 46.5212C39.4896 46.5212 45.8379 40.2069 45.8379 32.4271C45.8379 26.5719 42.2438 21.5497 37.1264 19.4212C36.8715 19.3134 36.5885 19.2913 36.32 19.3582C36.0514 19.425 35.8118 19.5772 35.6371 19.7918Z" fill="#F0B323"/>
<path fill-rule="evenodd" clip-rule="evenodd" d="M30.0372 46.1226C38.3214 46.1226 45.0372 39.4068 45.0372 31.1226C45.0372 29.0008 44.5966 26.9819 43.802 25.1523C45.0936 27.2766 45.8367 29.7667 45.8367 32.4292C45.8367 40.209 39.4884 46.5232 31.6508 46.5232C30.2385 46.5255 28.8378 46.317 27.4941 45.9079C28.3207 46.049 29.1703 46.1226 30.0372 46.1226Z" fill="#CE9A1E"/>
<path opacity="0.3" fill-rule="evenodd" clip-rule="evenodd" d="M27.0375 40.519C33.444 40.519 38.6375 35.3256 38.6375 28.919C38.6375 27.1252 38.2303 25.4264 37.5033 23.9102C37.9074 25.1438 38.1144 26.4383 38.1121 27.7459C38.1121 34.5821 32.5391 40.1177 25.6706 40.1177C24.8337 40.1177 24.0175 40.0361 23.2305 39.8799C24.423 40.294 25.7039 40.519 27.0375 40.519Z" fill="#FDF0D3"/>
<path d="M20.4887 18.7764C20.4644 18.7028 20.4174 18.6387 20.3545 18.5933C20.2917 18.5479 20.2161 18.5234 20.1385 18.5234C20.061 18.5234 19.9854 18.5479 19.9225 18.5933C19.8596 18.6387 19.8127 18.7028 19.7883 18.7764L19.1303 20.7519C18.8362 21.6326 18.146 22.3229 17.2653 22.617L15.2897 23.2749C15.2161 23.2993 15.1521 23.3463 15.1066 23.4091C15.0612 23.472 15.0368 23.5476 15.0368 23.6252C15.0368 23.7027 15.0612 23.7783 15.1066 23.8412C15.1521 23.904 15.2161 23.951 15.2897 23.9754L17.2653 24.6333C17.6996 24.778 18.0943 25.0219 18.418 25.3456C18.7417 25.6694 18.9856 26.064 19.1303 26.4984L19.7883 28.4739C19.8127 28.5476 19.8596 28.6116 19.9225 28.657C19.9854 28.7024 20.061 28.7269 20.1385 28.7269C20.2161 28.7269 20.2917 28.7024 20.3545 28.657C20.4174 28.6116 20.4644 28.5476 20.4887 28.4739L21.1467 26.4984C21.2914 26.064 21.5353 25.6694 21.859 25.3456C22.1827 25.0219 22.5774 24.778 23.0117 24.6333L24.9873 23.9754C25.0609 23.951 25.125 23.904 25.1704 23.8412C25.2158 23.7783 25.2402 23.7027 25.2402 23.6252C25.2402 23.5476 25.2158 23.472 25.1704 23.4091C25.125 23.3463 25.0609 23.2993 24.9873 23.2749L23.0117 22.617C22.5774 22.4723 22.1827 22.2284 21.859 21.9047C21.5353 21.581 21.2914 21.1863 21.1467 20.7519L20.4887 18.7764Z" fill="#A0B2EC"/>
<path d="M30.7518 13.8764C30.737 13.8317 30.7085 13.7927 30.6702 13.7651C30.632 13.7375 30.5861 13.7227 30.5389 13.7227C30.4917 13.7227 30.4458 13.7375 30.4076 13.7651C30.3693 13.7927 30.3408 13.8317 30.326 13.8764L29.926 15.0775C29.7471 15.613 29.3275 16.0326 28.7921 16.2114L27.591 16.6114C27.5462 16.6263 27.5073 16.6548 27.4796 16.693C27.452 16.7313 27.4372 16.7772 27.4372 16.8244C27.4372 16.8715 27.452 16.9175 27.4796 16.9557C27.5073 16.9939 27.5462 17.0225 27.591 17.0373L28.7921 17.4373C29.0561 17.5253 29.2961 17.6736 29.4929 17.8704C29.6897 18.0672 29.838 18.3072 29.926 18.5712L30.326 19.7723C30.3408 19.8171 30.3693 19.856 30.4076 19.8836C30.4458 19.9112 30.4917 19.9261 30.5389 19.9261C30.5861 19.9261 30.632 19.9112 30.6702 19.8836C30.7085 19.856 30.737 19.8171 30.7518 19.7723L31.1518 18.5712C31.2398 18.3072 31.3881 18.0672 31.5849 17.8704C31.7817 17.6736 32.0217 17.5253 32.2857 17.4373L33.4868 17.0373C33.5316 17.0225 33.5705 16.9939 33.5982 16.9557C33.6258 16.9175 33.6406 16.8715 33.6406 16.8244C33.6406 16.7772 33.6258 16.7313 33.5982 16.693C33.5705 16.6548 33.5316 16.6263 33.4868 16.6114L32.2857 16.2114C32.0217 16.1235 31.7817 15.9752 31.5849 15.7784C31.3881 15.5816 31.2398 15.3416 31.1518 15.0775L30.7518 13.8764Z" fill="#A0B2EC"/>
<path d="M25.5526 25.8764C25.5378 25.8317 25.5092 25.7927 25.471 25.7651C25.4328 25.7375 25.3868 25.7227 25.3397 25.7227C25.2925 25.7227 25.2466 25.7375 25.2084 25.7651C25.1701 25.7927 25.1416 25.8317 25.1268 25.8764L24.7267 27.0775C24.5479 27.613 24.1283 28.0326 23.5928 28.2114L22.3918 28.6114C22.347 28.6263 22.308 28.6548 22.2804 28.693C22.2528 28.7313 22.238 28.7772 22.238 28.8244C22.238 28.8715 22.2528 28.9175 22.2804 28.9557C22.308 28.9939 22.347 29.0225 22.3918 29.0373L23.5928 29.4373C23.8569 29.5253 24.0969 29.6736 24.2937 29.8704C24.4905 30.0672 24.6388 30.3072 24.7267 30.5712L25.1268 31.7723C25.1416 31.8171 25.1701 31.856 25.2084 31.8836C25.2466 31.9112 25.2925 31.9261 25.3397 31.9261C25.3868 31.9261 25.4328 31.9112 25.471 31.8836C25.5092 31.856 25.5378 31.8171 25.5526 31.7723L25.9526 30.5712C26.0406 30.3072 26.1889 30.0672 26.3857 29.8704C26.5825 29.6736 26.8225 29.5253 27.0865 29.4373L28.2876 29.0373C28.3324 29.0225 28.3713 28.9939 28.3989 28.9557C28.4265 28.9175 28.4414 28.8715 28.4414 28.8244C28.4414 28.7772 28.4265 28.7313 28.3989 28.693C28.3713 28.6548 28.3324 28.6263 28.2876 28.6114L27.0865 28.2114C26.8225 28.1235 26.5825 27.9752 26.3857 27.7784C26.1889 27.5816 26.0406 27.3416 25.9526 27.0775L25.5526 25.8764Z" fill="#A0B2EC"/>
<path d="M15.0687 33.0162C15.0596 32.9887 15.0421 32.9648 15.0186 32.9479C14.9952 32.931 14.967 32.9219 14.9381 32.9219C14.9092 32.9219 14.881 32.931 14.8576 32.9479C14.8342 32.9648 14.8167 32.9887 14.8076 33.0162L14.5623 33.7526C14.4527 34.0809 14.1954 34.3382 13.8671 34.4478L13.1307 34.693C13.1032 34.7021 13.0794 34.7196 13.0624 34.7431C13.0455 34.7665 13.0364 34.7947 13.0364 34.8236C13.0364 34.8525 13.0455 34.8807 13.0624 34.9041C13.0794 34.9276 13.1032 34.9451 13.1307 34.9541L13.8671 35.1994C14.029 35.2533 14.1761 35.3443 14.2968 35.4649C14.4175 35.5856 14.5084 35.7327 14.5623 35.8946L14.8076 36.631C14.8167 36.6585 14.8342 36.6824 14.8576 36.6993C14.881 36.7162 14.9092 36.7253 14.9381 36.7253C14.967 36.7253 14.9952 36.7162 15.0186 36.6993C15.0421 36.6824 15.0596 36.6585 15.0687 36.631L15.3139 35.8946C15.3679 35.7327 15.4588 35.5856 15.5795 35.4649C15.7001 35.3443 15.8472 35.2533 16.0091 35.1994L16.7456 34.9541C16.773 34.9451 16.7969 34.9276 16.8138 34.9041C16.8307 34.8807 16.8398 34.8525 16.8398 34.8236C16.8398 34.7947 16.8307 34.7665 16.8138 34.7431C16.7969 34.7196 16.773 34.7021 16.7456 34.693L16.0091 34.4478C15.8472 34.3938 15.7001 34.3029 15.5795 34.1823C15.4588 34.0616 15.3679 33.9145 15.3139 33.7526L15.0687 33.0162Z" fill="#A0B2EC"/>
</svg>
