<svg width="160" height="161" viewBox="0 0 160 161" fill="none" xmlns="http://www.w3.org/2000/svg">
<path fill-rule="evenodd" clip-rule="evenodd" d="M66.2064 73.1173C62.1539 54.8105 51.6951 33.4533 64.4317 19.6879C77.6147 5.44003 101.565 8.27011 119.651 15.3554C134.337 21.1084 140.455 36.9814 146.12 51.6882C150.675 63.5157 151.762 75.8407 147.552 87.7922C142.87 101.081 135.906 115.163 122.367 119.107C108.644 123.105 94.6874 115.47 83.63 106.415C73.4288 98.0611 69.0543 85.9822 66.2064 73.1173Z" fill="#A0B2EC" fill-opacity="0.16"/>
<path d="M106.076 143.877C92.4725 150.312 76.4503 153.022 61.5804 151.716C32.3706 149.149 9.17972 120.743 9.46168 89.981C9.59491 75.5079 16.4408 60.8772 29.0013 54.5031C38.2963 49.7848 48.6803 51.813 57.331 57.4105C64.627 62.1319 70.1893 69.151 77.0683 74.4372C87.585 82.5196 100.022 84.1467 111.419 89.9713C117.668 93.1641 124.262 98.6601 126.64 105.814C128.898 112.605 127.982 120.379 124.85 126.625C120.899 134.509 113.817 140.215 106.076 143.877Z" fill="#A0B2EC" fill-opacity="0.16"/>
<g clip-path="url(#clip0_8477_8419)">
<path fill-rule="evenodd" clip-rule="evenodd" d="M39.6465 51.5427C40.8767 54.4506 76.5962 95.3987 90.3807 108.358C104.165 121.318 116.845 132.894 121.137 132.754C125.429 132.614 127.624 123.792 123.066 116.495C118.509 109.197 113.28 103.661 106.388 86.5632C99.4958 69.4654 99.4958 62.3075 99.0764 59.134C98.657 55.9605 95.078 57.0649 90.2548 54.4506C85.4317 51.8363 74.8766 44.2451 75.5057 35.829C76.1348 27.4129 75.8413 26.3924 74.1077 25.3578C62.2385 18.2279 37.4516 46.44 39.6465 51.5427Z" fill="#778EE5"/>
<path fill-rule="evenodd" clip-rule="evenodd" d="M92.1854 110.05C105.257 122.311 117.042 132.894 121.124 132.754C125.207 132.614 127.611 123.793 123.054 116.495C118.496 109.197 113.268 103.661 106.375 86.5635C99.4831 69.4657 99.4831 62.3078 99.0637 59.1343C98.6443 55.9608 95.0653 57.0652 90.2422 54.4509C87.9337 53.1678 85.7482 51.675 83.7134 49.9912L92.1854 110.106V110.05Z" fill="#A0B2EC"/>
<path fill-rule="evenodd" clip-rule="evenodd" d="M98.655 57.9321C98.655 57.9321 98.7808 51.4173 96.5439 49.9914C94.3071 48.5654 87.1912 49.4042 83.7101 49.9914C85.7449 51.6751 87.9304 53.168 90.2389 54.451C94.3211 56.6599 97.5086 56.2125 98.627 57.9321H98.655Z" fill="#0C419A"/>
<path fill-rule="evenodd" clip-rule="evenodd" d="M107.164 82.9941L101.782 85.175C101.586 85.2569 101.377 85.299 101.165 85.299C100.953 85.2989 100.744 85.2566 100.548 85.1746C100.353 85.0926 100.176 84.9725 100.028 84.8214C99.8796 84.6702 99.7629 84.491 99.6847 84.2943L99.6008 84.1125C99.4431 83.7173 99.4471 83.276 99.6119 82.8837C99.7766 82.4914 100.089 82.1796 100.482 82.0155L105.906 79.8066C106.283 80.7853 106.703 81.8617 107.164 82.9941Z" fill="white"/>
<path fill-rule="evenodd" clip-rule="evenodd" d="M104.579 76.1438L99.7833 78.101C99.3844 78.2583 98.9396 78.2527 98.5448 78.0854C98.15 77.918 97.8367 77.6023 97.6723 77.2062V77.0245C97.5147 76.6293 97.5187 76.188 97.6834 75.7957C97.8482 75.4034 98.1605 75.0916 98.5531 74.9275L103.628 72.8584C103.991 74.0747 104.355 75.2071 104.648 76.1438H104.579Z" fill="white"/>
<path fill-rule="evenodd" clip-rule="evenodd" d="M102.488 69.1388L97.4414 71.1939C97.2459 71.2738 97.0366 71.3145 96.8253 71.3135C96.6141 71.3125 96.4051 71.2698 96.2104 71.188C96.0156 71.1063 95.8389 70.9869 95.6903 70.8368C95.5417 70.6867 95.4242 70.5087 95.3444 70.3131L95.2605 70.1314C95.1809 69.935 95.141 69.7249 95.143 69.513C95.1449 69.3011 95.1887 69.0917 95.2719 68.8969C95.355 68.702 95.4759 68.5255 95.6275 68.3774C95.7791 68.2294 95.9584 68.1128 96.1552 68.0344L101.608 65.8115C101.845 66.7901 102.153 67.9505 102.488 69.1388Z" fill="white"/>
<path fill-rule="evenodd" clip-rule="evenodd" d="M71.764 47.3158L55.4453 30.5586C50.1887 34.529 43.3664 41.8267 40.7381 46.9714L59.3877 65.635C61.1298 67.368 63.4871 68.3408 65.9444 68.3408C65.9649 68.3408 65.9853 68.3408 66.0057 68.3406C66.0082 68.3406 66.0107 68.3406 66.0132 68.3406C68.4705 68.3406 70.8278 67.3678 72.5699 65.6348L74.7648 63.4539C76.4853 61.7023 77.4492 59.3453 77.4492 56.8901C77.4492 54.435 76.4853 52.078 74.7648 50.3264L71.7939 47.2858L71.764 47.3158ZM71.7939 47.2858L71.787 47.2787L71.829 47.2508L71.7939 47.2858Z" fill="#0C419A"/>
<path d="M34.8543 57.5547C37.7762 61.581 48.07 72.8184 60.2048 85.4006L64.5312 80.9196C52.005 66.9394 40.4184 53.1789 39.7194 51.5432C39.6677 51.4416 39.6301 51.3334 39.6076 51.2217C37.9579 52.0885 33.1208 54.9125 34.8543 57.5547Z" fill="#F0B323"/>
<path fill-rule="evenodd" clip-rule="evenodd" d="M122.418 132.419C121.406 134.044 119.827 135.235 117.986 135.76C114.953 136.627 109.598 133.887 88.5299 113.686L92.1788 110.051C105.25 122.297 117.036 132.894 121.118 132.755C121.571 132.743 122.016 132.628 122.418 132.419Z" fill="#D81E7E"/>
<path fill-rule="evenodd" clip-rule="evenodd" d="M88.5285 113.686L87.0326 112.288C78.5047 104.081 68.9405 94.4042 60.2029 85.4009L64.5294 80.9199C74.1897 91.7266 84.3624 102.753 90.3739 108.401L92.2651 110.124L88.8658 113.987L88.5285 113.686Z" fill="#D81E7E"/>
</g>
<defs>
<clipPath id="clip0_8477_8419">
<rect width="91.165" height="111.688" fill="white" transform="matrix(-1 0 0 1 125.566 24.2119)"/>
</clipPath>
</defs>
</svg>
