<svg width="81" height="81" viewBox="0 0 81 81" fill="none" xmlns="http://www.w3.org/2000/svg">
<path d="M65.2581 52.3438C57.6656 57.2208 48.3893 60.1906 39.5183 60.77C22.0923 61.9073 6.44955 47.7877 4.5074 30.237C3.59399 21.9796 6.63395 13.035 13.6148 8.28559C18.7806 4.77026 25.0519 5.00153 30.5443 7.42061C35.1767 9.46111 38.9427 12.965 43.3675 15.3644C50.1323 19.033 57.5886 18.8531 64.7186 21.1571C68.6274 22.42 72.8985 24.9642 74.7933 28.8284C76.5925 32.4965 76.5841 37.007 75.163 40.8442C73.3696 45.6874 69.5788 49.5686 65.2581 52.3438Z" fill="#A0B2EC" fill-opacity="0.16"/>
<path d="M65.2815 33.9295C62.8495 30.9321 58.9535 29.238 54.9539 28.892C52.4149 28.6725 49.7517 28.9764 47.4307 30.1235C43.6256 32.0045 41.2884 35.7932 38.3257 38.7928C34.7834 42.3797 30.2623 44.8894 26.2998 48.0382C22.3378 51.1867 18.7469 55.3863 18.3673 60.2282C18.1411 63.1055 19.1012 65.9463 20.7226 68.2875C23.8815 72.8492 29.4983 75.526 35.2799 75.8394C51.6362 76.7263 66.5668 61.6177 68.1938 46.4989C68.6688 42.0826 68.0655 37.3607 65.2815 33.9295Z" fill="#A0B2EC" fill-opacity="0.16"/>
<path d="M34.2324 54.2695H38.8991L38.7286 57.9362H34.4188L34.2324 54.2695Z" fill="#262939"/>
<rect x="25.8984" y="57.9375" width="21.6667" height="0.666667" rx="0.333333" fill="#262939"/>
<path d="M38.8991 54.2695H34.2324L34.3222 55.6029H38.8164L38.8991 54.2695Z" fill="black" fill-opacity="0.8"/>
<path d="M12.2324 26.9362C12.2324 26.568 12.5309 26.2695 12.8991 26.2695H61.5658C61.9339 26.2695 62.2324 26.568 62.2324 26.9362V53.6029C62.2324 53.9711 61.9339 54.2695 61.5658 54.2695H12.8991C12.5309 54.2695 12.2324 53.9711 12.2324 53.6029L12.2324 26.9362Z" fill="#262939"/>
<path d="M12.8984 27.6042C12.8984 27.236 13.1969 26.9375 13.5651 26.9375H60.8984C61.2666 26.9375 61.5651 27.236 61.5651 27.6042V52.9375C61.5651 53.3057 61.2666 53.6042 60.8984 53.6042H13.5651C13.1969 53.6042 12.8984 53.3057 12.8984 52.9375L12.8984 27.6042Z" fill="#464F8E"/>
<rect x="29.2324" y="35.7188" width="14.6667" height="9.10345" rx="2.66667" fill="#D81E7E"/>
<path d="M38.8981 39.6733C39.3927 39.9181 39.3927 40.6235 38.8981 40.8683L35.7575 42.4225C35.3144 42.6418 34.7951 42.3194 34.7951 41.825L34.7951 38.7166C34.7951 38.2222 35.3144 37.8998 35.7575 38.1191L38.8981 39.6733Z" fill="white"/>
<path d="M39.3994 53.4466C38.6214 52.755 37.6167 52.373 36.5758 52.373C35.5349 52.373 34.5302 52.755 33.7522 53.4466C33.6865 53.5035 33.6327 53.5729 33.594 53.6507C33.5553 53.7285 33.5325 53.8133 33.5268 53.9001C33.5211 53.9868 33.5327 54.0738 33.561 54.156C33.5892 54.2382 33.6335 54.314 33.6913 54.379C33.7491 54.4439 33.8192 54.4968 33.8975 54.5344C33.9759 54.572 34.0609 54.5937 34.1478 54.5982C34.2346 54.6027 34.3214 54.5899 34.4032 54.5606C34.4851 54.5312 34.5603 54.4859 34.6244 54.4272C35.1621 53.9493 35.8565 53.6854 36.5758 53.6854C37.2952 53.6854 37.9895 53.9493 38.5272 54.4272C38.6574 54.5429 38.8281 54.6021 39.0019 54.5919C39.1757 54.5817 39.3383 54.5028 39.4539 54.3727C39.5696 54.2426 39.6288 54.0718 39.6186 53.898C39.6084 53.7242 39.5295 53.5616 39.3994 53.446V53.4466Z" fill="white"/>
<path d="M36.5754 49.6777C34.8135 49.6753 33.1169 50.345 31.8317 51.5502C31.7666 51.6085 31.7138 51.6792 31.6764 51.7582C31.639 51.8371 31.6178 51.9228 31.6139 52.01C31.6101 52.0973 31.6237 52.1845 31.6539 52.2664C31.6842 52.3484 31.7305 52.4235 31.7902 52.4873C31.8499 52.5511 31.9217 52.6023 32.0014 52.638C32.0812 52.6737 32.1672 52.6931 32.2546 52.6951C32.3419 52.6971 32.4288 52.6817 32.51 52.6496C32.5913 52.6176 32.6654 52.5697 32.7279 52.5087C33.7715 51.533 35.1468 50.9903 36.5754 50.9903C38.0041 50.9903 39.3793 51.533 40.4229 52.5087C40.4854 52.5697 40.5595 52.6176 40.6408 52.6496C40.7221 52.6817 40.8089 52.6971 40.8963 52.6951C40.9836 52.6931 41.0697 52.6737 41.1494 52.638C41.2292 52.6023 41.301 52.5511 41.3606 52.4873C41.4203 52.4235 41.4666 52.3484 41.4969 52.2664C41.5272 52.1845 41.5408 52.0973 41.5369 52.01C41.5331 51.9228 41.5118 51.8371 41.4744 51.7582C41.437 51.6792 41.3842 51.6085 41.3192 51.5502C40.0339 50.345 38.3374 49.6753 36.5754 49.6777Z" fill="white"/>
<path d="M43.0035 49.4316C41.2342 47.8529 38.946 46.9805 36.5748 46.9805C34.2036 46.9805 31.9153 47.8529 30.146 49.4316C30.0795 49.4884 30.0251 49.5579 29.9858 49.636C29.9466 49.7142 29.9233 49.7994 29.9175 49.8866C29.9116 49.9739 29.9233 50.0614 29.9517 50.1441C29.9802 50.2268 30.0249 50.303 30.0832 50.3682C30.1415 50.4333 30.2123 50.4862 30.2913 50.5236C30.3704 50.5611 30.4561 50.5823 30.5435 50.5862C30.6308 50.59 30.7181 50.5763 30.8001 50.546C30.8821 50.5156 30.9572 50.4692 31.021 50.4094C32.5497 49.0461 34.5264 48.2926 36.5746 48.2926C38.6229 48.2926 40.5996 49.0461 42.1282 50.4094C42.258 50.5254 42.4285 50.5851 42.6023 50.5754C42.7761 50.5657 42.9389 50.4874 43.0549 50.3577C43.171 50.2279 43.2307 50.0574 43.221 49.8836C43.2113 49.7098 43.133 49.547 43.0032 49.4309L43.0035 49.4316Z" fill="white"/>
<path d="M36.5742 57.2305C37.1265 57.2305 37.5742 56.7828 37.5742 56.2305C37.5742 55.6782 37.1265 55.2305 36.5742 55.2305C36.0219 55.2305 35.5742 55.6782 35.5742 56.2305C35.5742 56.7828 36.0219 57.2305 36.5742 57.2305Z" fill="white"/>
<path d="M38.5658 26.9375H47.2324L33.8991 53.6042H25.2324L38.5658 26.9375Z" fill="#E7ECFA" fill-opacity="0.1"/>
<path d="M48.8997 26.9375H51.5664L38.2331 53.6042H35.5664L48.8997 26.9375Z" fill="#E7ECFA" fill-opacity="0.1"/>
<mask id="path-16-inside-1_26999_124312" fill="white">
<path d="M55.9872 34.7094C54.5656 34.3611 53.1308 35.2311 52.7824 36.6527L51.9546 40.0307L51.7133 39.9715L51.1318 42.3445L51.3731 42.4036L51.2843 42.7658L51.043 42.7066L50.4615 45.0795L50.7028 45.1387L46.3957 62.7146C46.0474 64.1361 46.9174 65.571 48.339 65.9193L58.2894 68.3578C59.711 68.7062 61.1458 67.8361 61.4942 66.4146L66.4617 46.1438L66.6625 46.193L67.244 43.8201L67.0432 43.7709L67.8809 40.3527C68.2293 38.9311 67.3592 37.4963 65.9376 37.1479L55.9872 34.7094Z"/>
</mask>
<g filter="url(#filter0_ii_26999_124312)">
<path d="M55.9872 34.7094C54.5656 34.3611 53.1308 35.2311 52.7824 36.6527L51.9546 40.0307L51.7133 39.9715L51.1318 42.3445L51.3731 42.4036L51.2843 42.7658L51.043 42.7066L50.4615 45.0795L50.7028 45.1387L46.3957 62.7146C46.0474 64.1361 46.9174 65.571 48.339 65.9193L58.2894 68.3578C59.711 68.7062 61.1458 67.8361 61.4942 66.4146L66.4617 46.1438L66.6625 46.193L67.244 43.8201L67.0432 43.7709L67.8809 40.3527C68.2293 38.9311 67.3592 37.4963 65.9376 37.1479L55.9872 34.7094Z" fill="#262939"/>
</g>
<path d="M55.9872 34.7094L56.2329 33.7069L55.9872 34.7094ZM51.9546 40.0307L51.7089 41.0333L52.7115 41.279L52.9572 40.2764L51.9546 40.0307ZM51.7133 39.9715L51.959 38.969L50.9564 38.7233L50.7107 39.7259L51.7133 39.9715ZM51.1318 42.3445L50.1292 42.0988L49.8835 43.1014L50.8861 43.3471L51.1318 42.3445ZM51.3731 42.4036L52.3757 42.6493L52.6214 41.6467L51.6188 41.401L51.3731 42.4036ZM51.2843 42.7658L51.0386 43.7684L52.0412 44.014L52.2869 43.0115L51.2843 42.7658ZM51.043 42.7066L51.2887 41.704L50.2861 41.4583L50.0404 42.4609L51.043 42.7066ZM50.4615 45.0795L49.4589 44.8339L49.2132 45.8364L50.2158 46.0821L50.4615 45.0795ZM50.7028 45.1387L51.7054 45.3844L51.9511 44.3818L50.9485 44.1361L50.7028 45.1387ZM46.3957 62.7146L47.3983 62.9602L46.3957 62.7146ZM48.339 65.9193L48.5846 64.9168L48.339 65.9193ZM58.2894 68.3578L58.0437 69.3604L58.2894 68.3578ZM61.4942 66.4146L62.4968 66.6603L61.4942 66.4146ZM66.4617 46.1438L66.7074 45.1412L65.7048 44.8955L65.4591 45.8981L66.4617 46.1438ZM66.6625 46.193L66.4168 47.1956L67.4194 47.4413L67.6651 46.4387L66.6625 46.193ZM67.244 43.8201L68.2466 44.0658L68.4923 43.0632L67.4897 42.8175L67.244 43.8201ZM67.0432 43.7709L66.0406 43.5252L65.7949 44.5278L66.7975 44.7735L67.0432 43.7709ZM67.8809 40.3527L66.8783 40.107L67.8809 40.3527ZM65.9376 37.1479L65.692 38.1505L65.9376 37.1479ZM53.785 36.8984C53.9977 36.0305 54.8736 35.4994 55.7415 35.712L56.2329 33.7069C54.2576 33.2228 52.2639 34.4317 51.7798 36.407L53.785 36.8984ZM52.9572 40.2764L53.785 36.8984L51.7798 36.407L50.952 39.785L52.9572 40.2764ZM51.4676 40.9741L51.7089 41.0333L52.2003 39.0281L51.959 38.969L51.4676 40.9741ZM52.1344 42.5902L52.7159 40.2172L50.7107 39.7259L50.1292 42.0988L52.1344 42.5902ZM51.6188 41.401L51.3775 41.3419L50.8861 43.3471L51.1274 43.4062L51.6188 41.401ZM52.2869 43.0115L52.3757 42.6493L50.3705 42.1579L50.2817 42.5201L52.2869 43.0115ZM51.53 41.7632L51.2887 41.704L50.7973 43.7092L51.0386 43.7684L51.53 41.7632ZM50.0404 42.4609L49.4589 44.8339L51.4641 45.3252L52.0456 42.9523L50.0404 42.4609ZM50.2158 46.0821L50.4571 46.1413L50.9485 44.1361L50.7072 44.077L50.2158 46.0821ZM47.3983 62.9602L51.7054 45.3844L49.7002 44.893L45.3931 62.4689L47.3983 62.9602ZM48.5846 64.9168C47.7168 64.7041 47.1856 63.8281 47.3983 62.9602L45.3931 62.4689C44.9091 64.4442 46.118 66.4379 48.0933 66.9219L48.5846 64.9168ZM58.5351 67.3552L48.5846 64.9168L48.0933 66.9219L58.0437 69.3604L58.5351 67.3552ZM60.4916 66.1689C60.2789 67.0367 59.403 67.5679 58.5351 67.3552L58.0437 69.3604C60.019 69.8444 62.0127 68.6356 62.4968 66.6603L60.4916 66.1689ZM65.4591 45.8981L60.4916 66.1689L62.4968 66.6603L67.4643 46.3895L65.4591 45.8981ZM66.9082 45.1904L66.7074 45.1412L66.216 47.1464L66.4168 47.1956L66.9082 45.1904ZM66.2414 43.5744L65.6599 45.9473L67.6651 46.4387L68.2466 44.0658L66.2414 43.5744ZM66.7975 44.7735L66.9983 44.8227L67.4897 42.8175L67.2889 42.7683L66.7975 44.7735ZM66.8783 40.107L66.0406 43.5252L68.0458 44.0166L68.8835 40.5984L66.8783 40.107ZM65.692 38.1505C66.5598 38.3632 67.091 39.2391 66.8783 40.107L68.8835 40.5984C69.3675 38.6231 68.1586 36.6294 66.1833 36.1453L65.692 38.1505ZM55.7415 35.712L65.692 38.1505L66.1833 36.1453L56.2329 33.7069L55.7415 35.712Z" fill="#262939" mask="url(#path-16-inside-1_26999_124312)"/>
<g clip-path="url(#clip0_26999_124312)">
<rect x="53.8496" y="34.6191" width="14.524" height="30.96" rx="2.32258" transform="rotate(13.7694 53.8496 34.6191)" fill="#303061"/>
<circle cx="56.5784" cy="63.3172" r="3.83333" transform="rotate(13.7694 56.5784 63.3172)" fill="#F0B323"/>
<g clip-path="url(#clip1_26999_124312)">
<path fill-rule="evenodd" clip-rule="evenodd" d="M55.4885 61.9527C55.5221 61.8155 55.6034 61.696 55.7144 61.6204C55.8255 61.5448 55.9572 61.5193 56.0806 61.5496L58.2525 62.0818C58.3759 62.1121 58.4809 62.1956 58.5444 62.3139C58.608 62.4323 58.6248 62.5758 58.5912 62.713L58.1688 64.4367C58.1351 64.5738 58.0539 64.6933 57.9428 64.7689C57.8318 64.8445 57.7001 64.87 57.5766 64.8397L56.3872 64.5483L55.7646 64.8525C55.6106 64.9277 55.453 64.7816 55.4966 64.6041L55.5599 64.3455L55.4048 64.3075C55.2814 64.2773 55.1763 64.1938 55.1128 64.0754C55.0493 63.957 55.0325 63.8135 55.0661 63.6763L55.4885 61.9527Z" fill="white"/>
</g>
<circle cx="61.7315" cy="49.9926" r="3.66667" transform="rotate(13.7694 61.7315 49.9926)" fill="#D81E7E"/>
<g clip-path="url(#clip2_26999_124312)">
<path d="M63.3774 49.133C63.3089 49.0192 63.2186 48.92 63.1117 48.8412C63.0048 48.7624 62.8833 48.7055 62.7543 48.6738C62.5103 48.614 62.2527 48.6481 62.0325 48.7692C61.8934 48.56 61.6807 48.4107 61.4366 48.3509C61.3074 48.3194 61.1733 48.3137 61.0419 48.3342C60.9105 48.3548 60.7844 48.4011 60.671 48.4705C60.1876 48.765 60.0384 49.3744 60.3315 49.8575L61.353 51.5422L63.0377 50.5207C63.5209 50.2279 63.6704 49.6185 63.3774 49.133Z" fill="white"/>
</g>
<circle cx="51.7631" cy="53.5571" r="2.83333" transform="rotate(13.7694 51.7631 53.5571)" fill="#A05BB6"/>
<g clip-path="url(#clip3_26999_124312)">
<path fill-rule="evenodd" clip-rule="evenodd" d="M52.9705 53.0433L52.6052 54.5339C52.5873 54.6069 52.544 54.6717 52.4817 54.7189C52.4193 54.766 52.3411 54.7932 52.2584 54.7963C52.1756 54.7994 52.0927 54.7784 52.0215 54.7363C51.9502 54.6942 51.8945 54.6332 51.8623 54.5621C51.8301 54.491 51.8231 54.4135 51.8423 54.3409C51.8615 54.2682 51.9059 54.2041 51.9691 54.1578C52.0324 54.1116 52.1111 54.0856 52.1939 54.0837C52.2768 54.0817 52.3594 54.1039 52.43 54.147L52.6595 53.2102L51.6403 52.9604L51.275 54.451C51.2571 54.5241 51.2138 54.5888 51.1514 54.636C51.0891 54.6832 51.0109 54.7103 50.9281 54.7134C50.8454 54.7165 50.7624 54.6956 50.6912 54.6535C50.62 54.6114 50.5643 54.5503 50.5321 54.4792C50.4999 54.4081 50.4929 54.3306 50.5121 54.258C50.5313 54.1853 50.5757 54.1212 50.6389 54.075C50.7021 54.0287 50.7809 54.0028 50.8637 54.0008C50.9465 53.9989 51.0292 54.021 51.0997 54.0641L51.4417 52.6687C51.4566 52.6078 51.4977 52.5561 51.5561 52.5248C51.6144 52.4935 51.6851 52.4852 51.7527 52.5018L52.7719 52.7515C52.8395 52.7681 52.8984 52.8082 52.9356 52.8629C52.9729 52.9176 52.9854 52.9825 52.9705 53.0433Z" fill="white"/>
</g>
<circle cx="60.7876" cy="38.4364" r="3" transform="rotate(13.7694 60.7876 38.4364)" fill="#5E74B8"/>
<g clip-path="url(#clip4_26999_124312)">
<path d="M62.0615 37.7197L59.9895 37.2119C59.847 37.177 59.7037 37.2577 59.671 37.3913L59.3139 38.8481C59.2812 38.9817 59.371 39.1195 59.5134 39.1544L61.5855 39.6622C61.7279 39.6971 61.8712 39.6164 61.904 39.4829L62.261 38.026C62.2937 37.8924 62.2039 37.7546 62.0615 37.7197ZM61.8832 38.223L60.9146 38.512C60.8183 38.5411 60.7121 38.5151 60.6401 38.4447L59.9148 37.7406C59.9035 37.7306 59.8944 37.7185 59.8881 37.7053C59.8817 37.692 59.8782 37.6777 59.8779 37.6632C59.8775 37.6488 59.8802 37.6345 59.8859 37.6213C59.8915 37.6081 59.9 37.5961 59.9108 37.5862C59.9216 37.5763 59.9345 37.5687 59.9487 37.5637C59.9628 37.5587 59.978 37.5565 59.9933 37.5573C60.0086 37.558 60.0236 37.5617 60.0375 37.5681C60.0514 37.5744 60.0639 37.5834 60.0742 37.5943L60.8172 38.3156L61.8095 38.0196C61.8237 38.0146 61.8389 38.0125 61.8542 38.0133C61.8695 38.0141 61.8845 38.0178 61.8984 38.0241C61.9123 38.0305 61.9248 38.0395 61.935 38.0505C61.9453 38.0614 61.9532 38.0742 61.9582 38.088C61.9632 38.1017 61.9652 38.1162 61.9641 38.1306C61.963 38.1449 61.9588 38.1588 61.9518 38.1715C61.9448 38.1841 61.9351 38.1952 61.9233 38.204C61.9115 38.2129 61.8979 38.2193 61.8832 38.223Z" fill="white"/>
</g>
<path d="M64.6194 25.3244L70.6892 27.0231L46.7976 76.4115L40.7278 74.7128L64.6194 25.3244Z" fill="#E7ECFA" fill-opacity="0.1"/>
<path d="M71.7043 27.3077L73.5768 27.8318L49.6608 77.2134L47.7883 76.6894L71.7043 27.3077Z" fill="#E7ECFA" fill-opacity="0.1"/>
</g>
<defs>
<filter id="filter0_ii_26999_124312" x="46.3184" y="34.5914" width="21.6387" height="33.8836" filterUnits="userSpaceOnUse" color-interpolation-filters="sRGB">
<feFlood flood-opacity="0" result="BackgroundImageFix"/>
<feBlend mode="normal" in="SourceGraphic" in2="BackgroundImageFix" result="shape"/>
<feColorMatrix in="SourceAlpha" type="matrix" values="0 0 0 0 0 0 0 0 0 0 0 0 0 0 0 0 0 0 127 0" result="hardAlpha"/>
<feOffset dy="0.041409"/>
<feGaussianBlur stdDeviation="0.082818"/>
<feComposite in2="hardAlpha" operator="arithmetic" k2="-1" k3="1"/>
<feColorMatrix type="matrix" values="0 0 0 0 1 0 0 0 0 1 0 0 0 0 1 0 0 0 0.2 0"/>
<feBlend mode="normal" in2="shape" result="effect1_innerShadow_26999_124312"/>
<feColorMatrix in="SourceAlpha" type="matrix" values="0 0 0 0 0 0 0 0 0 0 0 0 0 0 0 0 0 0 127 0" result="hardAlpha"/>
<feOffset dy="-0.041409"/>
<feGaussianBlur stdDeviation="0.082818"/>
<feComposite in2="hardAlpha" operator="arithmetic" k2="-1" k3="1"/>
<feColorMatrix type="matrix" values="0 0 0 0 1 0 0 0 0 1 0 0 0 0 1 0 0 0 0.6 0"/>
<feBlend mode="normal" in2="effect1_innerShadow_26999_124312" result="effect2_innerShadow_26999_124312"/>
</filter>
<clipPath id="clip0_26999_124312">
<rect x="53.8496" y="34.6191" width="14.524" height="30.96" rx="2.32258" transform="rotate(13.7694 53.8496 34.6191)" fill="white"/>
</clipPath>
<clipPath id="clip1_26999_124312">
<rect width="3.83333" height="4.25926" fill="white" transform="translate(55.4316 60.8438) rotate(13.7694)"/>
</clipPath>
<clipPath id="clip2_26999_124312">
<rect width="4.07407" height="4.07407" fill="white" transform="translate(60.2383 47.5293) rotate(13.7694)"/>
</clipPath>
<clipPath id="clip3_26999_124312">
<rect width="3.14815" height="2.83333" fill="white" transform="translate(50.5352 51.959) rotate(13.7694)"/>
</clipPath>
<clipPath id="clip4_26999_124312">
<rect width="3" height="3.33333" fill="white" transform="translate(59.5645 36.4219) rotate(13.7694)"/>
</clipPath>
</defs>
</svg>
