<svg width="81" height="81" viewBox="0 0 81 81" fill="none" xmlns="http://www.w3.org/2000/svg">
<path d="M19.7497 68.3974C28.5732 71.5455 38.6515 72.3693 47.7584 70.8712C65.6475 67.9273 78.149 49.974 75.9897 31.7697C74.9734 23.2049 69.7979 14.8738 61.6228 11.7111C55.5731 9.36986 49.2855 11.0771 44.2997 14.8137C40.0947 17.9654 37.1095 22.3935 33.1986 25.8594C27.2197 31.1586 19.6373 32.7284 12.9684 36.7333C9.31229 38.9287 5.59099 42.505 4.58263 46.8578C3.62501 50.9898 4.6932 55.549 7.03173 59.0955C9.98311 63.5719 14.7284 66.6061 19.7497 68.3974Z" fill="#A0B2EC" fill-opacity="0.16"/>
<path fill-rule="evenodd" clip-rule="evenodd" d="M39.2867 29.1994C46.1219 33.5966 55.8497 36.9837 56.16 45.09C56.4812 53.4804 48.2884 59.8934 40.5889 63.2148C34.3372 65.9117 27.6139 62.8909 21.3857 60.091C16.3768 57.8392 12.2771 54.3798 9.91258 49.424C7.28336 43.9137 5.11007 37.4657 8.04701 32.1354C11.0237 26.7329 17.6277 24.8366 23.7785 24.2585C29.453 23.7252 34.4833 26.1093 39.2867 29.1994Z" fill="#A0B2EC" fill-opacity="0.16"/>
<path fill-rule="evenodd" clip-rule="evenodd" d="M26.2363 35.3516L42.3772 48.6101V60.4787H38.5063C38.1138 60.4787 37.7955 60.7969 37.7955 61.1895V61.4861C37.7955 61.8787 38.1138 62.1969 38.5063 62.1969H47.3938C47.7864 62.1969 48.1046 61.8787 48.1046 61.4861V61.1895C48.1046 60.7969 47.7864 60.4787 47.3938 60.4787H43.5227V48.6516L60.0272 35.3516L26.2363 35.3516Z" fill="#C8D3F4"/>
<path d="M30.5905 37.2707L42.9758 47.6039C43.0177 47.6388 43.0786 47.6393 43.121 47.6049L55.8705 37.2717C55.9542 37.2039 55.9062 37.0686 55.7986 37.0686L30.6638 37.0686C30.5569 37.0686 30.5085 37.2022 30.5905 37.2707Z" fill="#D81E7E"/>
<rect x="44.1738" y="40.6797" width="17.509" height="0.739818" rx="0.369909" transform="rotate(-44.1873 44.1738 40.6797)" fill="#495574"/>
<circle cx="46.6409" cy="38.7969" r="1.94907" transform="rotate(-44.1873 46.6409 38.7969)" fill="#4AB367"/>
<path fill-rule="evenodd" clip-rule="evenodd" d="M47.757 40.3963C47.0672 40.6299 46.274 40.4658 45.7326 39.9088C44.9823 39.1369 44.9998 37.9029 45.7717 37.1527C45.8483 37.0782 45.9294 37.0114 46.0141 36.952C45.748 37.0422 45.4973 37.1915 45.2824 37.4004C44.5105 38.1507 44.493 39.3847 45.2433 40.1565C45.9192 40.8519 46.9875 40.935 47.757 40.3963Z" fill="#429D5B"/>
<ellipse cx="49.5303" cy="35.8954" rx="1.60294" ry="1.60294" transform="rotate(-44.1873 49.5303 35.8954)" fill="#4AB267"/>
<path fill-rule="evenodd" clip-rule="evenodd" d="M50.4479 37.211C49.8807 37.403 49.2284 37.268 48.7832 36.81C48.1662 36.1751 48.1806 35.1603 48.8154 34.5433C48.8785 34.482 48.9453 34.4269 49.0152 34.378C48.7962 34.4521 48.5899 34.575 48.4131 34.7469C47.7783 35.3639 47.7639 36.3787 48.381 37.0135C48.9367 37.5852 49.8151 37.6537 50.4479 37.211Z" fill="#429D5B"/>
<path opacity="0.4" d="M37.222 41.0746L33.2129 38.2109H37.222V41.0746Z" fill="white"/>
<path opacity="0.4" d="M38.2799 52.9766C38.4151 52.9766 38.5208 53.0933 38.5073 53.2279L37.8969 59.3321L36.9642 68.6597C36.9525 68.7765 36.8541 68.8655 36.7367 68.8655H26.0282C25.9107 68.8655 25.8124 68.7765 25.8007 68.6597L24.868 59.3321L24.2576 53.2279C24.2441 53.0933 24.3498 52.9766 24.485 52.9766H38.2799Z" fill="#A0B2EC"/>
<path fill-rule="evenodd" clip-rule="evenodd" d="M36.4123 67.6949C36.3962 67.8068 36.3002 67.8908 36.1861 67.8908H26.7826C26.6652 67.8908 26.5669 67.8018 26.5552 67.685L25.7344 59.4766H37.2341L36.4123 67.6949Z" fill="#EE9E27"/>
<path d="M30.3115 60.7109C30.1042 60.7109 30.004 60.457 30.1554 60.3154L32.7847 57.8569C32.8725 57.7748 33.009 57.7748 33.0969 57.8569L35.0539 59.6868C35.1505 59.7772 35.1505 59.9304 35.0539 60.0208L34.3817 60.6493C34.3393 60.6889 34.2835 60.7109 34.2256 60.7109H30.3115Z" fill="#E7ECFA"/>
<path opacity="0.4" d="M34.1493 63.0845L31.9335 64.282C31.8225 64.342 31.7811 64.4807 31.8411 64.5917L32.6849 66.153C32.7449 66.2641 32.8836 66.3054 32.9946 66.2454L35.2104 65.0479C35.3214 64.9879 35.3628 64.8492 35.3028 64.7382L34.459 63.1769C34.399 63.0659 34.2603 63.0245 34.1493 63.0845Z" fill="#E7ECFA"/>
<path d="M35.6708 67.2918C35.6499 67.3991 35.5559 67.4766 35.4465 67.4766H27.461C27.3348 67.4766 27.2324 67.3742 27.2324 67.248V67.2051C27.2324 67.0789 27.3348 66.9766 27.461 66.9766H35.4549C35.5987 66.9766 35.7068 67.1078 35.6792 67.249L35.6708 67.2918Z" fill="black" fill-opacity="0.2"/>
<path opacity="0.4" d="M30.7624 62.391L28.0186 61.0754C27.9048 61.0208 27.7683 61.0688 27.7137 61.1827L26.8305 63.0247C26.7759 63.1386 26.8239 63.2751 26.9377 63.3297L29.6815 64.6452C29.7953 64.6998 29.9319 64.6518 29.9864 64.5379L30.8697 62.6959C30.9242 62.5821 30.8762 62.4455 30.7624 62.391Z" fill="#E7ECFA"/>
<path opacity="0.4" d="M28.6831 40.3268C29.1167 35.3909 26.5487 27.3867 26.5487 27.3867H16.5101C16.5101 27.3867 13.742 35.3909 14.309 40.3268C14.8092 44.7624 16.977 48.3309 20.3121 49.0313V60.0704C20.3121 60.0704 19.3783 60.704 18.1777 60.9708C16.977 61.2376 15.9765 61.271 15.9765 61.271V62.0714H26.9822V61.271C26.9822 61.271 25.6816 61.2043 24.6477 60.9375C23.4804 60.6373 22.6466 60.037 22.6466 60.037V49.0313C25.9817 48.2976 28.3163 44.6624 28.6831 40.3268Z" fill="#A0B2EC"/>
<path d="M15.2573 34.752C14.8898 36.5151 14.798 38.6307 15.0123 40.2762C15.5329 44.625 18.0133 48.0629 21.596 48.0629C25.1788 48.0629 27.8123 44.5369 28.1798 40.2762C28.3329 38.6307 28.1798 36.4857 27.8123 34.7227H15.2573V34.752Z" fill="#95120F"/>
<path d="M16.5659 38.3621C16.3658 38.3621 16.2324 38.162 16.2324 37.9953C16.2991 36.2611 16.5326 34.1266 16.9661 31.6587C16.9995 31.4919 17.1662 31.3585 17.3663 31.3919C17.5331 31.4252 17.6665 31.592 17.6331 31.7587C17.1996 34.1933 16.9661 36.2944 16.8994 38.0286C16.8994 38.1954 16.766 38.3621 16.5659 38.3621Z" fill="white"/>
<path d="M22.5103 46.7306C22.3733 46.7306 22.2363 46.581 22.2363 46.4314C22.2363 46.2818 22.3459 46.1023 22.4829 46.1023C22.5377 46.1023 23.88 45.9826 25.0853 44.1876C25.1675 44.0679 25.3592 44.0081 25.4688 44.1277C25.5784 44.2175 25.6058 44.4269 25.5236 44.5765C24.1813 46.6109 22.5925 46.7306 22.5103 46.7306Z" fill="white"/>
<path d="M66.0132 50.6758H61.4824V53.1929H64.503C64.503 53.1929 66.0132 53.1929 66.0132 54.4514V62.0028C66.0132 63.2613 64.503 63.2613 64.503 63.2613H61.4824V65.7784H66.0132C67.679 65.7784 68.4045 64.6495 68.4045 63.2613V53.1929C68.4045 51.8047 67.679 50.6758 66.0132 50.6758Z" fill="#D7DEF7"/>
<path d="M62.962 46.418H44.75V66.1476C44.75 66.9526 45.0698 67.7247 45.639 68.2939C46.2083 68.8632 46.9803 69.1829 47.7853 69.1829H59.9267C60.7317 69.1829 61.5037 68.8632 62.073 68.2939C62.6422 67.7247 62.962 66.9526 62.962 66.1476V46.418Z" fill="#FFCC4D"/>
<path d="M49.0227 62.6298C48.8224 62.6298 48.6304 62.5819 48.4888 62.4967C48.3471 62.4115 48.2676 62.2959 48.2676 62.1753V54.9037C48.2676 54.7832 48.3471 54.6676 48.4888 54.5823C48.6304 54.4971 48.8224 54.4492 49.0227 54.4492C49.223 54.4492 49.4151 54.4971 49.5567 54.5823C49.6983 54.6676 49.7778 54.7832 49.7778 54.9037V62.1753C49.7778 62.2959 49.6983 62.4115 49.5567 62.4967C49.4151 62.5819 49.223 62.6298 49.0227 62.6298ZM53.9311 62.6298C53.7308 62.6298 53.5387 62.5819 53.3971 62.4967C53.2555 62.4115 53.1759 62.2959 53.1759 62.1753V54.9037C53.1759 54.7832 53.2555 54.6676 53.3971 54.5823C53.5387 54.4971 53.7308 54.4492 53.9311 54.4492C54.1313 54.4492 54.3234 54.4971 54.465 54.5823C54.6066 54.6676 54.6862 54.7832 54.6862 54.9037V62.1753C54.6862 62.2959 54.6066 62.4115 54.465 62.4967C54.3234 62.5819 54.1313 62.6298 53.9311 62.6298ZM58.8394 62.6298C58.6392 62.6298 58.4471 62.5819 58.3055 62.4967C58.1639 62.4115 58.0843 62.2959 58.0843 62.1753V54.9037C58.0843 54.7832 58.1639 54.6676 58.3055 54.5823C58.4471 54.4971 58.6392 54.4492 58.8394 54.4492C59.0397 54.4492 59.2318 54.4971 59.3734 54.5823C59.515 54.6676 59.5946 54.7832 59.5946 54.9037V62.1753C59.5946 62.2959 59.515 62.4115 59.3734 62.4967C59.2318 62.5819 59.0397 62.6298 58.8394 62.6298Z" fill="#CE9A1E"/>
<path d="M44.75 44.4023V50.0518C45.1977 50.3129 45.7122 50.473 46.2677 50.473C46.8706 50.4725 47.4597 50.2924 47.9599 49.9558C48.4601 49.6191 48.8487 49.1411 49.0761 48.5828C49.3417 48.8119 49.6839 48.9553 50.0618 48.9553C50.5756 48.9553 51.0278 48.6989 51.3025 48.3081C51.5753 48.7385 51.9524 49.093 52.3988 49.3388C52.8452 49.5846 53.3464 49.7137 53.856 49.7142C54.3239 49.7131 54.7852 49.6034 55.2034 49.3936C55.6216 49.1838 55.9854 48.8798 56.266 48.5053C56.4041 48.861 56.6463 49.1667 56.9609 49.3824C57.2756 49.5981 57.6481 49.7137 58.0296 49.7142C58.7497 49.7142 59.3689 49.3082 59.6899 48.7171L59.8014 48.4431C60.1878 48.6588 60.6224 48.7734 61.0649 48.7763C61.8093 48.7763 62.4801 48.4682 62.962 47.9749V44.4023H44.75Z" fill="#CE9A1E"/>
<path d="M61.6853 41.8633H45.6393C45.001 41.8633 44.3888 42.1001 43.9374 42.5215C43.486 42.943 43.2324 43.5146 43.2324 44.1107V47.1072C43.234 47.8008 43.4932 48.4725 43.9659 49.0076C44.4386 49.5427 45.0955 49.9081 45.8245 50.0415C46.5535 50.1749 47.3095 50.068 47.9636 49.739C48.6176 49.4101 49.1291 48.8794 49.4109 48.2376C49.6917 48.4639 50.0536 48.6055 50.4531 48.6055C50.9963 48.6055 51.4745 48.3522 51.7649 47.9664C52.0533 48.3914 52.452 48.7414 52.924 48.984C53.3959 49.2267 53.9259 49.3542 54.4646 49.3546C54.9593 49.3536 55.447 49.2452 55.8892 49.0381C56.3314 48.831 56.716 48.5308 57.0127 48.1612C57.1587 48.5123 57.4147 48.8141 57.7474 49.027C58.0801 49.24 58.4739 49.3541 58.8773 49.3546C59.6387 49.3546 60.2933 48.9538 60.6327 48.3702C60.952 48.5163 61.3059 48.6055 61.6853 48.6055C62.3237 48.6055 62.9359 48.3687 63.3873 47.9472C63.8387 47.5257 64.0922 46.9541 64.0922 46.3581V44.1107C64.0922 43.5146 63.8387 42.943 63.3873 42.5215C62.9359 42.1001 62.3237 41.8633 61.6853 41.8633Z" fill="white"/>
<path d="M60.6336 46.8984L46.5959 46.8984C46.0374 46.8984 45.5019 46.6994 45.107 46.3451C44.7121 45.9908 44.4902 45.5102 44.4902 45.0092L44.4902 42.4901C44.4916 41.907 44.7184 41.3424 45.1319 40.8925C45.5455 40.4427 46.1201 40.1355 46.7579 40.0234C47.3957 39.9113 48.0571 40.0011 48.6292 40.2777C49.2014 40.5542 49.6489 41.0003 49.8955 41.5398C50.1411 41.3496 50.4577 41.2306 50.8072 41.2306C51.2824 41.2306 51.7007 41.4435 51.9548 41.7678C52.2071 41.4106 52.5559 41.1164 52.9688 40.9124C53.3817 40.7084 53.8453 40.6012 54.3166 40.6009C54.7494 40.6017 55.1761 40.6928 55.5629 40.8669C55.9498 41.041 56.2863 41.2933 56.5458 41.6041C56.6735 41.3089 56.8975 41.0552 57.1886 40.8762C57.4796 40.6972 57.8241 40.6012 58.177 40.6009C58.8431 40.6009 59.4158 40.9378 59.7127 41.4284C59.9921 41.3056 60.3016 41.2306 60.6336 41.2306C61.1921 41.2306 61.7276 41.4297 62.1225 41.784C62.5174 42.1383 62.7393 42.6188 62.7393 43.1199L62.7393 45.0092C62.7393 45.5102 62.5174 45.9908 62.1225 46.3451C61.7276 46.6994 61.1921 46.8984 60.6336 46.8984Z" fill="white"/>
</svg>
