<svg width="80" height="135" viewBox="0 0 80 135" fill="none" xmlns="http://www.w3.org/2000/svg">
<mask id="mask0_15547_135271" style="mask-type:alpha" maskUnits="userSpaceOnUse" x="0" y="0" width="80" height="135">
<rect width="80" height="135" rx="8" fill="white"/>
</mask>
<g mask="url(#mask0_15547_135271)">
<rect x="-68" width="330" height="160" fill="#E7ECFA"/>
<path d="M133.652 103.553C99.838 107.767 63.4039 102.721 32.2515 90.1843C-28.9417 65.5537 -59.1589 -8.20354 -37.1239 -71.2502C-26.7554 -100.912 -1.80367 -126.451 29.719 -131.231C53.047 -134.771 74.024 -123.722 88.7773 -106.484C101.22 -91.9446 108.324 -73.8306 119.475 -58.4065C136.521 -34.8244 162.204 -23.2391 182.721 -3.71465C193.97 6.98846 204.36 22.655 204.504 38.9368C204.643 54.3929 197.252 69.7652 186.15 80.53C172.137 94.1171 152.894 101.155 133.652 103.553Z" fill="#A0B2EC" fill-opacity="0.16"/>
<path d="M181.483 156.409C177.723 197.421 162.352 239.135 139.501 272.677C94.6096 338.563 -0.281864 355.184 -69.0271 312.878C-101.37 292.973 -125.076 256.914 -122.576 218.461C-120.728 190.003 -102.263 168.09 -78.0984 155.125C-57.7172 144.19 -34.4947 140.483 -13.4028 131.303C18.8445 117.27 39.1587 89.9391 67.5121 70.7589C83.0553 60.2433 104.237 52.0235 123.498 56.0594C141.783 59.8889 158.023 72.5873 167.865 88.4771C180.286 108.532 183.624 133.07 181.483 156.409Z" fill="#A0B2EC" fill-opacity="0.16"/>
</g>
</svg>
