<svg width="61" height="112" viewBox="0 0 61 112" fill="none" xmlns="http://www.w3.org/2000/svg">
    <mask id="mask0_16507_173891" style="mask-type:alpha" maskUnits="userSpaceOnUse" x="0" y="0" width="61" height="112">
        <rect width="61" height="111.833" rx="8" fill="white"/>
    </mask>
    <g mask="url(#mask0_16507_173891)">
        <rect width="61" height="111.833" fill="#F2DCF9"/>
        <path d="M101.147 85.7862C75.3638 89.2776 47.5828 85.0976 23.8291 74.712C-22.8307 54.3082 -45.8714 -6.79198 -29.0696 -59.0195C-21.1637 -83.5915 -2.13799 -104.748 21.898 -108.707C39.6856 -111.64 55.6806 -102.487 66.93 -88.207C76.4176 -76.1626 81.8346 -61.1571 90.3367 -48.3799C103.334 -28.8446 122.918 -19.2474 138.562 -3.07341C147.139 5.793 155.062 18.7711 155.172 32.2589C155.278 45.0626 149.642 57.7969 141.176 66.7145C130.492 77.97 115.819 83.7998 101.147 85.7862Z" fill="#A05BB6" fill-opacity="0.16"/>
        <path d="M137.618 129.571C134.751 163.545 123.031 198.1 105.607 225.887C71.3772 280.467 -0.977533 294.235 -53.3958 259.189C-78.0573 242.699 -96.1334 212.829 -94.2267 180.974C-92.8179 157.4 -78.7379 139.247 -60.3127 128.507C-44.7719 119.449 -27.0648 116.377 -10.9822 108.773C13.6063 97.1478 29.0959 74.5074 50.7153 58.6187C62.5671 49.9076 78.7182 43.0984 93.4048 46.4417C107.347 49.614 119.73 60.1333 127.234 73.2963C136.706 89.9093 139.25 110.237 137.618 129.571Z" fill="#A05BB6" fill-opacity="0.16"/>
        <g filter="url(#filter0_d_16507_173891)">
            <circle cx="30.4998" cy="55.9173" r="20.3333" fill="white"/>
        </g>
        <path d="M31.0002 64.2491C30.4089 63.7247 29.7407 63.1793 29.0339 62.5991H29.0248C26.536 60.5641 23.7154 58.2614 22.4697 55.5022C22.0604 54.6238 21.8435 53.6681 21.8335 52.6991C21.8308 51.3694 22.3641 50.0948 23.3128 49.1633C24.2616 48.2317 25.5458 47.7219 26.8752 47.7491C27.9574 47.7508 29.0164 48.0636 29.9258 48.6502C30.3255 48.9095 30.6871 49.2233 31.0002 49.5824C31.315 49.2247 31.6767 48.9111 32.0754 48.6502C32.9845 48.0635 34.0432 47.7507 35.1252 47.7491C36.4545 47.7219 37.7387 48.2317 38.6875 49.1633C39.6363 50.0948 40.1696 51.3694 40.1669 52.6991C40.1575 53.6697 39.9406 54.627 39.5307 55.5068C38.2849 58.266 35.4653 60.5677 32.9765 62.5991L32.9674 62.6064C32.2597 63.183 31.5924 63.7284 31.0011 64.2564L31.0002 64.2491ZM26.8752 49.5824C26.0213 49.5717 25.1977 49.8985 24.5835 50.4917C23.9917 51.0731 23.6609 51.8695 23.6668 52.6991C23.6772 53.4054 23.8372 54.1014 24.1362 54.7414C24.7242 55.9319 25.5177 57.0093 26.4801 57.9241C27.3885 58.8407 28.4335 59.7281 29.3373 60.4742C29.5876 60.6805 29.8424 60.8886 30.0973 61.0967L30.2577 61.2277C30.5024 61.4276 30.7554 61.6347 31.0002 61.8382L31.0121 61.8272L31.0176 61.8227H31.0231L31.0314 61.8162H31.0359H31.0405L31.057 61.8025L31.0946 61.7722L31.101 61.7667L31.1111 61.7594H31.1166L31.1248 61.7521L31.7335 61.2525L31.893 61.1214C32.1506 60.9115 32.4054 60.7034 32.6557 60.4972C33.5595 59.751 34.6054 58.8646 35.5138 57.9433C36.4764 57.029 37.2699 55.9519 37.8578 54.7616C38.1622 54.1161 38.3244 53.4127 38.3335 52.6991C38.3373 51.8721 38.0067 51.0787 37.4169 50.4991C36.8038 49.9032 35.9801 49.5737 35.1252 49.5824C34.0819 49.5735 33.0846 50.0108 32.3843 50.7842L31.0002 52.3792L29.616 50.7842C28.9157 50.0108 27.9184 49.5735 26.8752 49.5824Z" fill="#2E3A59"/>
    </g>
    <defs>
        <filter id="filter0_d_16507_173891" x="-2.29935" y="29.3511" width="65.5982" height="65.5977" filterUnits="userSpaceOnUse" color-interpolation-filters="sRGB">
            <feFlood flood-opacity="0" result="BackgroundImageFix"/>
            <feColorMatrix in="SourceAlpha" type="matrix" values="0 0 0 0 0 0 0 0 0 0 0 0 0 0 0 0 0 0 127 0" result="hardAlpha"/>
            <feOffset dy="6.23293"/>
            <feGaussianBlur stdDeviation="6.23293"/>
            <feColorMatrix type="matrix" values="0 0 0 0 0.0470588 0 0 0 0 0.254902 0 0 0 0 0.603922 0 0 0 0.1 0"/>
            <feBlend mode="normal" in2="BackgroundImageFix" result="effect1_dropShadow_16507_173891"/>
            <feBlend mode="normal" in="SourceGraphic" in2="effect1_dropShadow_16507_173891" result="shape"/>
        </filter>
    </defs>
</svg>
