<svg width="80" height="135" viewBox="0 0 80 135" fill="none" xmlns="http://www.w3.org/2000/svg">
<mask id="mask0_15547_135298" style="mask-type:alpha" maskUnits="userSpaceOnUse" x="0" y="0" width="80" height="135">
<rect width="80" height="135" rx="8" fill="white"/>
</mask>
<g mask="url(#mask0_15547_135298)">
<rect x="-70" width="330" height="160" fill="#BBF4ED"/>
<path d="M132.652 103.553C98.838 107.767 62.4039 102.721 31.2515 90.1843C-29.9417 65.5537 -60.1589 -8.20354 -38.1239 -71.2502C-27.7554 -100.912 -2.80367 -126.451 28.719 -131.231C52.047 -134.771 73.024 -123.722 87.7773 -106.484C100.22 -91.9446 107.324 -73.8306 118.475 -58.4065C135.521 -34.8244 161.204 -23.2391 181.721 -3.71465C192.97 6.98846 203.36 22.655 203.504 38.9368C203.643 54.3929 196.252 69.7652 185.15 80.53C171.137 94.1171 151.894 101.155 132.652 103.553Z" fill="#07CBA2" fill-opacity="0.16"/>
<path d="M180.483 156.409C176.723 197.421 161.352 239.135 138.501 272.677C93.6096 338.563 -1.28186 355.184 -70.0271 312.878C-102.37 292.973 -126.076 256.914 -123.576 218.461C-121.728 190.003 -103.263 168.09 -79.0984 155.125C-58.7172 144.19 -35.4947 140.483 -14.4028 131.303C17.8445 117.27 38.1587 89.9391 66.5121 70.7589C82.0553 60.2433 103.237 52.0235 122.498 56.0594C140.783 59.8889 157.023 72.5873 166.865 88.4771C179.286 108.532 182.624 133.07 180.483 156.409Z" fill="#07CBA2" fill-opacity="0.16"/>
</g>
</svg>
