<svg width="120" height="120" fill="none" xmlns="http://www.w3.org/2000/svg"><path d="M108.521 74.282c-5.299 12.011-14.17 23.06-24.47 30.882-20.23 15.365-50.542 10.787-66.984-8.949C9.33 86.929 5.84 73.636 10.5 62.271c3.447-8.411 11.241-13.164 19.847-14.636 7.258-1.242 14.64-.013 21.935-.653 11.152-.978 20.055-7.18 30.555-10.107 5.756-1.605 12.98-1.946 18.381 1.222 5.127 3.007 8.736 8.486 10.092 14.283 1.711 7.316.226 15.067-2.789 21.902Z" fill="#A0B2EC" fill-opacity=".16"/><path fill-rule="evenodd" clip-rule="evenodd" d="M77.48 53.779c-.534 15.196 3.321 34.079-9.418 42.33-13.185 8.54-31.333 1.497-44.037-7.708-10.315-7.475-11.887-21.175-13.34-33.868-1.169-10.208.474-20.11 6.182-28.65 6.347-9.498 14.638-19.16 26.018-19.534 11.535-.38 20.9 8.427 27.71 17.766 6.285 8.615 7.261 18.984 6.885 29.664Z" fill="#A0B2EC" fill-opacity=".16"/><path fill="#A0B2EC" d="m25.946 29.7 1.787-1.526 1.744 2.043-1.787 1.525z"/><path d="M27.224 29.621a5.554 5.554 0 1 1-7.235-8.427 5.554 5.554 0 0 1 7.235 8.427Z" fill="#A0B2EC"/><path d="M26.283 28.523a4.109 4.109 0 1 1-5.351-6.237 4.109 4.109 0 0 1 5.351 6.238Z" fill="#A0B2EC"/><path fill-rule="evenodd" clip-rule="evenodd" d="M21.197 27.475v.001a3.177 3.177 0 0 0 4.819-4.14 3.177 3.177 0 0 0-4.819 4.14Zm-.707.607a4.109 4.109 0 1 1 6.234-5.354 4.109 4.109 0 0 1-6.234 5.354Z" fill="#262939"/><path d="M23.374 25.138a.354.354 0 1 1 .46.538.354.354 0 0 1-.46-.538Z" fill="#262939" stroke="#262939" stroke-width=".186"/><path d="M28.201 30.9c.9.6 2.7 3.3 2.7 9.3 0 7.5-14.1 34.8 27 39.9 32.88 4.08 39.3-14.1 35.1-26.7" stroke="#0C419A" stroke-width="2.4"/><g filter="url(#a)"><path d="M83.205 33.011h-45.81a6.196 6.196 0 0 0-6.195 6.196v43.58a6.195 6.195 0 0 0 6.196 6.195h45.809a6.195 6.195 0 0 0 6.195-6.195v-43.58a6.196 6.196 0 0 0-6.195-6.196Z" fill="#fff"/></g><rect x="36.437" y="55.662" width="5.819" height="5.819" rx="1.164" fill="#07CBA2"/><rect x="36.437" y="66.138" width="5.819" height="5.819" rx="1.164" fill="#BDCCF8"/><rect x="36.437" y="76.613" width="5.819" height="5.819" rx="1.164" fill="#BDCCF8"/><rect x="46.915" y="55.662" width="5.819" height="5.819" rx="1.164" fill="#BDCCF8"/><rect x="46.915" y="66.138" width="5.819" height="5.819" rx="1.164" fill="#BDCCF8"/><rect x="46.915" y="76.613" width="5.819" height="5.819" rx="1.164" fill="#BDCCF8"/><rect x="57.389" y="55.662" width="5.819" height="5.819" rx="1.164" fill="#BDCCF8"/><rect x="57.389" y="66.138" width="5.819" height="5.819" rx="1.164" fill="#BDCCF8"/><rect x="57.389" y="76.613" width="5.819" height="5.819" rx="1.164" fill="#BDCCF8"/><rect x="67.866" y="55.662" width="5.819" height="5.819" rx="1.164" fill="#BDCCF8"/><rect x="67.866" y="66.138" width="5.819" height="5.819" rx="1.164" fill="#BDCCF8"/><rect x="78.342" y="55.662" width="5.819" height="5.819" rx="1.164" fill="#BDCCF8"/><rect x="78.342" y="76.613" width="5.819" height="5.819" rx="1.164" fill="#BDCCF8"/><g filter="url(#b)"><path d="M89.4 39.207v10.045H31.2V39.207a6.197 6.197 0 0 1 6.196-6.196H83.21a6.195 6.195 0 0 1 6.19 6.196Z" fill="#07CBA2"/></g><path d="M89.4 49.25H31.2v.975h58.2v-.975Z" fill="#E7ECFA" style="mix-blend-mode:multiply"/><path d="M42.3 42a2.1 2.1 0 1 0 0-4.2 2.1 2.1 0 0 0 0 4.2Z" fill="#262939"/><g filter="url(#c)"><rect x="41.4" y="30.6" width="1.8" height="9.6" rx=".9" fill="#fff"/></g><path d="M54.3 42a2.1 2.1 0 1 0 0-4.2 2.1 2.1 0 0 0 0 4.2Z" fill="#262939"/><g filter="url(#d)"><rect x="53.4" y="30.6" width="1.8" height="9.6" rx=".9" fill="#fff"/></g><path d="M66.3 42a2.1 2.1 0 1 0 0-4.2 2.1 2.1 0 0 0 0 4.2Z" fill="#262939"/><g filter="url(#e)"><rect x="65.4" y="30.6" width="1.8" height="9.6" rx=".9" fill="#fff"/></g><path d="M78.3 42a2.1 2.1 0 1 0 0-4.2 2.1 2.1 0 0 0 0 4.2Z" fill="#262939"/><g filter="url(#f)"><rect x="77.4" y="30.6" width="1.8" height="9.6" rx=".9" fill="#fff"/></g><path d="M85.05 40.534c-.925-4.408-2.378-8.69-2.742-13.205-.132-1.632-.134-3.438.738-4.882.997-1.649 3.503-1.975 5.19-1.422.933.306 1.335-1.159.41-1.463-2.018-.663-4.464-.248-6.089 1.13-1.476 1.253-1.8 3.414-1.823 5.234-.058 5.114 1.813 10.064 2.849 15.007.202.958 1.668.557 1.467-.399Z" fill="#A0B2EC"/><path d="M90.116 18.454a1.174 1.174 0 0 0-.618.172 1.4 1.4 0 0 0-.227-.02l-1.159-.004a1.497 1.497 0 0 0-.01 2.993l1.159.004c.078 0 .153-.007.228-.019a1.19 1.19 0 0 0 1.81-1.01l.004-.92a1.194 1.194 0 0 0-1.187-1.196Z" fill="#262939"/><path d="M101.599 40.862c1.065-4.904 2.836-9.719 2.953-14.785.043-1.893-.298-3.905-1.65-5.32-1.492-1.562-4.228-1.936-6.213-1.3-.928.298-.537 1.767.398 1.466 1.673-.536 3.995-.201 5.08 1.308.974 1.355.928 3.254.819 4.84-.315 4.578-1.884 8.928-2.851 13.383-.207.953 1.256 1.364 1.464.408Z" fill="#A0B2EC"/><path d="M95.227 18.339c.227 0 .436.065.616.175.074-.011.15-.02.228-.019l1.159.004a1.497 1.497 0 1 1-.011 2.993l-1.16-.003c-.078-.001-.153-.008-.226-.02a1.191 1.191 0 0 1-1.803-1.023l.003-.92a1.19 1.19 0 0 1 1.194-1.187Z" fill="#262939"/><path d="M99.686 40.485c-.73 2.354-1.209 4.776-2.116 7.075-.772 1.954-2.12 4.176-4.398 4.423-6.01.651-6.102-7.326-7.492-11.244-.488-1.373-2.692-.79-2.2.599.937 2.637 1.21 5.452 2.303 8.045 1.194 2.837 3.41 4.722 6.552 4.9 6.26.352 7.908-7.21 9.161-11.846.122-.448.248-.894.386-1.338.435-1.408-1.763-2.014-2.196-.614Z" fill="#0C419A"/><g filter="url(#g)"><circle cx="84.566" cy="84.565" transform="rotate(45 84.566 84.565)" fill="#fff" r="16.97"/></g><g filter="url(#h)"><circle cx="84.566" cy="84.564" transform="rotate(45 84.566 84.564)" fill="#0C419A" r="14.4"/></g><circle cx="84.543" cy="84.967" r="6.665" stroke="#fff" stroke-width="2.1"/><rect x="76.142" y="77.255" width="4.492" height="2.246" rx="1.123" transform="rotate(-40.045 76.142 77.255)" fill="#fff"/><rect x="83.365" y="86.365" width="4.2" height="1.8" rx=".9" transform="rotate(-90 83.365 86.365)" fill="#fff"/><rect x="83.365" y="84.565" width="4.2" height="1.8" rx=".9" fill="#fff"/><rect width="4.492" height="2.246" rx="1.123" transform="scale(-1 1) rotate(-39.15 62.095 169.327)" fill="#fff"/><defs><filter id="a" x="20.963" y="27.893" width="78.674" height="76.444" filterUnits="userSpaceOnUse" color-interpolation-filters="sRGB"><feFlood flood-opacity="0" result="BackgroundImageFix"/><feColorMatrix in="SourceAlpha" values="0 0 0 0 0 0 0 0 0 0 0 0 0 0 0 0 0 0 127 0" result="hardAlpha"/><feOffset dy="5.118"/><feGaussianBlur stdDeviation="5.118"/><feColorMatrix values="0 0 0 0 0.0470588 0 0 0 0 0.254902 0 0 0 0 0.603922 0 0 0 0.1 0"/><feBlend in2="BackgroundImageFix" result="effect1_dropShadow_39166_44661"/><feBlend in="SourceGraphic" in2="effect1_dropShadow_39166_44661" result="shape"/></filter><filter id="b" x="20.963" y="27.893" width="78.674" height="36.714" filterUnits="userSpaceOnUse" color-interpolation-filters="sRGB"><feFlood flood-opacity="0" result="BackgroundImageFix"/><feColorMatrix in="SourceAlpha" values="0 0 0 0 0 0 0 0 0 0 0 0 0 0 0 0 0 0 127 0" result="hardAlpha"/><feOffset dy="5.118"/><feGaussianBlur stdDeviation="5.118"/><feColorMatrix values="0 0 0 0 0.0470588 0 0 0 0 0.254902 0 0 0 0 0.603922 0 0 0 0.1 0"/><feBlend in2="BackgroundImageFix" result="effect1_dropShadow_39166_44661"/><feBlend in="SourceGraphic" in2="effect1_dropShadow_39166_44661" result="shape"/></filter><filter id="c" x="31.163" y="25.481" width="22.273" height="30.074" filterUnits="userSpaceOnUse" color-interpolation-filters="sRGB"><feFlood flood-opacity="0" result="BackgroundImageFix"/><feColorMatrix in="SourceAlpha" values="0 0 0 0 0 0 0 0 0 0 0 0 0 0 0 0 0 0 127 0" result="hardAlpha"/><feOffset dy="5.118"/><feGaussianBlur stdDeviation="5.118"/><feColorMatrix values="0 0 0 0 0.0470588 0 0 0 0 0.254902 0 0 0 0 0.603922 0 0 0 0.1 0"/><feBlend in2="BackgroundImageFix" result="effect1_dropShadow_39166_44661"/><feBlend in="SourceGraphic" in2="effect1_dropShadow_39166_44661" result="shape"/></filter><filter id="d" x="43.163" y="25.481" width="22.273" height="30.074" filterUnits="userSpaceOnUse" color-interpolation-filters="sRGB"><feFlood flood-opacity="0" result="BackgroundImageFix"/><feColorMatrix in="SourceAlpha" values="0 0 0 0 0 0 0 0 0 0 0 0 0 0 0 0 0 0 127 0" result="hardAlpha"/><feOffset dy="5.118"/><feGaussianBlur stdDeviation="5.118"/><feColorMatrix values="0 0 0 0 0.0470588 0 0 0 0 0.254902 0 0 0 0 0.603922 0 0 0 0.1 0"/><feBlend in2="BackgroundImageFix" result="effect1_dropShadow_39166_44661"/><feBlend in="SourceGraphic" in2="effect1_dropShadow_39166_44661" result="shape"/></filter><filter id="e" x="55.163" y="25.481" width="22.273" height="30.074" filterUnits="userSpaceOnUse" color-interpolation-filters="sRGB"><feFlood flood-opacity="0" result="BackgroundImageFix"/><feColorMatrix in="SourceAlpha" values="0 0 0 0 0 0 0 0 0 0 0 0 0 0 0 0 0 0 127 0" result="hardAlpha"/><feOffset dy="5.118"/><feGaussianBlur stdDeviation="5.118"/><feColorMatrix values="0 0 0 0 0.0470588 0 0 0 0 0.254902 0 0 0 0 0.603922 0 0 0 0.1 0"/><feBlend in2="BackgroundImageFix" result="effect1_dropShadow_39166_44661"/><feBlend in="SourceGraphic" in2="effect1_dropShadow_39166_44661" result="shape"/></filter><filter id="f" x="67.163" y="25.481" width="22.273" height="30.074" filterUnits="userSpaceOnUse" color-interpolation-filters="sRGB"><feFlood flood-opacity="0" result="BackgroundImageFix"/><feColorMatrix in="SourceAlpha" values="0 0 0 0 0 0 0 0 0 0 0 0 0 0 0 0 0 0 127 0" result="hardAlpha"/><feOffset dy="5.118"/><feGaussianBlur stdDeviation="5.118"/><feColorMatrix values="0 0 0 0 0.0470588 0 0 0 0 0.254902 0 0 0 0 0.603922 0 0 0 0.1 0"/><feBlend in2="BackgroundImageFix" result="effect1_dropShadow_39166_44661"/><feBlend in="SourceGraphic" in2="effect1_dropShadow_39166_44661" result="shape"/></filter><filter id="g" x="57.36" y="62.476" width="54.413" height="54.413" filterUnits="userSpaceOnUse" color-interpolation-filters="sRGB"><feFlood flood-opacity="0" result="BackgroundImageFix"/><feColorMatrix in="SourceAlpha" values="0 0 0 0 0 0 0 0 0 0 0 0 0 0 0 0 0 0 127 0" result="hardAlpha"/><feOffset dy="5.118"/><feGaussianBlur stdDeviation="5.118"/><feColorMatrix values="0 0 0 0 0.0470588 0 0 0 0 0.254902 0 0 0 0 0.603922 0 0 0 0.1 0"/><feBlend in2="BackgroundImageFix" result="effect1_dropShadow_39166_44661"/><feBlend in="SourceGraphic" in2="effect1_dropShadow_39166_44661" result="shape"/></filter><filter id="h" x="59.929" y="65.046" width="49.275" height="49.273" filterUnits="userSpaceOnUse" color-interpolation-filters="sRGB"><feFlood flood-opacity="0" result="BackgroundImageFix"/><feColorMatrix in="SourceAlpha" values="0 0 0 0 0 0 0 0 0 0 0 0 0 0 0 0 0 0 127 0" result="hardAlpha"/><feOffset dy="5.118"/><feGaussianBlur stdDeviation="5.118"/><feColorMatrix values="0 0 0 0 0.0470588 0 0 0 0 0.254902 0 0 0 0 0.603922 0 0 0 0.1 0"/><feBlend in2="BackgroundImageFix" result="effect1_dropShadow_39166_44661"/><feBlend in="SourceGraphic" in2="effect1_dropShadow_39166_44661" result="shape"/></filter></defs></svg>
