<svg width="53" height="53" viewBox="0 0 53 53" fill="none" xmlns="http://www.w3.org/2000/svg">
<path d="M4.8614 34.8466C6.85152 39.3376 10.1783 43.4661 14.0368 46.3868C21.6168 52.1235 32.9562 50.3915 39.0962 42.996C41.9848 39.5164 43.2824 34.5402 41.5321 30.2904C40.2371 27.1452 37.3173 25.3718 34.0962 24.8261C31.3795 24.366 28.6181 24.8305 25.8882 24.5956C21.7145 24.2368 18.3793 21.9215 14.4484 20.833C12.2934 20.2362 9.59002 20.1132 7.57124 21.302C5.65474 22.4303 4.30749 24.483 3.80397 26.6528C3.16836 29.3914 3.7288 32.291 4.8614 34.8466Z" fill="#A0B2EC" fill-opacity="0.16"/>
<path fill-rule="evenodd" clip-rule="evenodd" d="M24.8458 7.6289C31.6596 5.43415 39.4026 0.705917 45.0939 5.0258C50.9847 9.49711 50.7704 18.6584 48.7275 25.7559C47.0687 31.5188 41.2544 34.4068 35.8672 37.0812C31.5347 39.232 26.8883 40.0888 22.1933 38.9283C16.9728 37.6378 11.369 35.513 9.38238 30.5344C7.36885 25.4883 9.76947 19.9331 12.8141 15.4233C15.6229 11.2626 20.0575 9.17123 24.8458 7.6289Z" fill="#A0B2EC" fill-opacity="0.16"/>
<rect x="12" y="13.2363" width="1.01632" height="1.16243" transform="rotate(-40.492 12 13.2363)" fill="#A0B2EC"/>
<path d="M12.5546 13.2029C11.5469 14.0675 10.0298 13.9521 9.16557 12.9452C8.30096 11.9375 8.41632 10.4204 9.42326 9.55614C10.4302 8.69189 11.9481 8.80688 12.8123 9.81383C13.6773 10.8204 13.562 12.3375 12.5546 13.2029Z" fill="#A0B2EC"/>
<path d="M12.1453 12.7289C11.4002 13.3689 10.2777 13.2835 9.63858 12.538C8.99857 11.7929 9.08391 10.6704 9.82901 10.0304C10.5741 9.39035 11.6966 9.47569 12.3357 10.2212C12.9757 10.9663 12.8904 12.0889 12.1453 12.7289Z" fill="#A0B2EC"/>
<path fill-rule="evenodd" clip-rule="evenodd" d="M9.94439 12.2753L9.94466 12.2756C10.4386 12.8519 11.3064 12.918 11.8826 12.4231C12.4589 11.9281 12.5248 11.0601 12.0299 10.4839L12.0296 10.4836C11.5357 9.90739 10.6679 9.84121 10.0917 10.3362C9.51544 10.8312 9.44951 11.6992 9.94439 12.2753ZM9.63858 12.538C8.99857 11.7929 9.08391 10.6704 9.82901 10.0304C10.5741 9.39035 11.6966 9.47569 12.3357 10.2212C12.9757 10.9663 12.8904 12.0889 12.1453 12.7289C11.4002 13.3689 10.2777 13.2835 9.63858 12.538Z" fill="#262939"/>
<path d="M11.1339 11.2529L11.1048 11.2777C11.1603 11.3428 11.1529 11.4409 11.0882 11.4964C11.0235 11.5521 10.9253 11.5446 10.8696 11.4798C10.8139 11.4149 10.8211 11.317 10.8862 11.2612L10.8863 11.2612C10.951 11.2055 11.0492 11.213 11.1049 11.2778L11.1339 11.2529ZM11.1339 11.2529C11.2029 11.3339 11.194 11.456 11.1131 11.5254C11.0323 11.5948 10.91 11.5855 10.8406 11.5047C10.7712 11.4239 10.7801 11.3018 10.8613 11.2322L11.1339 11.2529Z" fill="#262939" stroke="#262939" stroke-width="0.0764479"/>
<path fill-rule="evenodd" clip-rule="evenodd" d="M13.2187 15.0726C12.9936 14.4724 12.7528 14.2306 12.6865 14.1864L13.2626 13.3223C13.5859 13.5378 13.9294 14.0099 14.1911 14.7079C14.4601 15.4252 14.6624 16.4298 14.6623 17.7789C14.6623 18.2459 14.5548 18.836 14.424 19.4675C14.382 19.6702 14.3372 19.8792 14.2909 20.0948C14.1882 20.573 14.0787 21.0835 13.9782 21.6297C13.6878 23.2077 13.4947 24.9817 13.8253 26.7038C14.1526 28.4086 14.9952 30.0762 16.8126 31.4597C18.6435 32.8536 21.4981 33.985 25.8911 34.5302C32.9229 35.4027 36.9726 33.8767 39.058 31.6225C41.1444 29.3673 41.3888 26.2498 40.5239 23.6554L41.5092 23.3269C42.462 26.1851 42.226 29.7276 39.8204 32.3278C37.4139 34.9291 32.9602 36.4539 25.7632 35.5608C21.2633 35.0025 18.2109 33.8295 16.1835 32.2861C14.1427 30.7324 13.1759 28.8298 12.8053 26.8996C12.4381 24.9866 12.6588 23.0606 12.9567 21.4417C13.06 20.8803 13.1752 20.3434 13.2793 19.8586C13.3246 19.6474 13.3678 19.446 13.407 19.2568C13.5405 18.6123 13.6237 18.1233 13.6237 17.7789C13.6238 16.5314 13.4365 15.6536 13.2187 15.0726Z" fill="#07CBA2"/>
<g filter="url(#filter0_d_35098_27467)">
<path d="M36.7782 14.6699H16.9545C15.4738 14.6699 14.2734 15.8703 14.2734 17.351V36.21C14.2734 37.6908 15.4738 38.8911 16.9545 38.8911H36.7782C38.2589 38.8911 39.4593 37.6908 39.4593 36.21V17.351C39.4593 15.8703 38.2589 14.6699 36.7782 14.6699Z" fill="white"/>
</g>
<rect x="16.5391" y="24.4707" width="2.51834" height="2.51834" rx="0.477599" fill="#07CBA2"/>
<rect x="16.5391" y="29.0039" width="2.51834" height="2.51834" rx="0.477599" fill="#BDCCF8"/>
<rect x="16.5391" y="33.5371" width="2.51834" height="2.51834" rx="0.477599" fill="#BDCCF8"/>
<rect x="21.0742" y="24.4707" width="2.51834" height="2.51834" rx="0.477599" fill="#BDCCF8"/>
<rect x="21.0742" y="29.0039" width="2.51834" height="2.51834" rx="0.477599" fill="#BDCCF8"/>
<rect x="21.0742" y="33.5371" width="2.51834" height="2.51834" rx="0.477599" fill="#BDCCF8"/>
<rect x="25.6055" y="24.4707" width="2.51834" height="2.51834" rx="0.477599" fill="#BDCCF8"/>
<rect x="25.6055" y="29.0039" width="2.51834" height="2.51834" rx="0.477599" fill="#BDCCF8"/>
<rect x="25.6055" y="33.5371" width="2.51834" height="2.51834" rx="0.477599" fill="#BDCCF8"/>
<rect x="30.1406" y="24.4707" width="2.51834" height="2.51834" rx="0.477599" fill="#BDCCF8"/>
<rect x="30.1406" y="29.0039" width="2.51834" height="2.51834" rx="0.477599" fill="#BDCCF8"/>
<rect x="30.1406" y="33.4883" width="2.51834" height="2.51834" rx="0.477599" fill="#BDCCF8"/>
<rect x="34.5234" y="29.0039" width="2.51834" height="2.51834" rx="0.477599" fill="#BDCCF8"/>
<rect x="34.6719" y="24.4707" width="2.51834" height="2.51834" rx="0.477599" fill="#BDCCF8"/>
<rect x="34.6719" y="33.5371" width="2.51834" height="2.51834" rx="0.477599" fill="#BDCCF8"/>
<g filter="url(#filter1_d_35098_27467)">
<path d="M39.4593 17.351V21.698H14.2734V17.351C14.2736 16.64 14.5561 15.9581 15.0588 15.4553C15.5616 14.9526 16.2435 14.67 16.9545 14.6699H36.7805C37.4912 14.6705 38.1725 14.9533 38.6749 15.456C39.1772 15.9587 39.4593 16.6403 39.4593 17.351V17.351Z" fill="url(#paint0_linear_35098_27467)"/>
</g>
<g style="mix-blend-mode:multiply">
<path d="M39.4593 21.6973H14.2734V22.119H39.4593V21.6973Z" fill="#E7ECFA"/>
</g>
<path d="M19.0767 18.5578C19.5786 18.5578 19.9855 18.1509 19.9855 17.649C19.9855 17.1471 19.5786 16.7402 19.0767 16.7402C18.5748 16.7402 18.168 17.1471 18.168 17.649C18.168 18.1509 18.5748 18.5578 19.0767 18.5578Z" fill="#262939"/>
<g filter="url(#filter2_d_35098_27467)">
<rect x="18.6875" y="13.625" width="0.778945" height="4.15437" rx="0.389472" fill="white"/>
</g>
<path d="M24.272 18.5578C24.7739 18.5578 25.1808 18.1509 25.1808 17.649C25.1808 17.1471 24.7739 16.7402 24.272 16.7402C23.7702 16.7402 23.3633 17.1471 23.3633 17.649C23.3633 18.1509 23.7702 18.5578 24.272 18.5578Z" fill="#262939"/>
<g filter="url(#filter3_d_35098_27467)">
<rect x="23.8828" y="13.625" width="0.778945" height="4.15437" rx="0.389472" fill="white"/>
</g>
<path d="M29.4595 18.5578C29.9614 18.5578 30.3683 18.1509 30.3683 17.649C30.3683 17.1471 29.9614 16.7402 29.4595 16.7402C28.9577 16.7402 28.5508 17.1471 28.5508 17.649C28.5508 18.1509 28.9577 18.5578 29.4595 18.5578Z" fill="#262939"/>
<g filter="url(#filter4_d_35098_27467)">
<rect x="29.0703" y="13.625" width="0.778945" height="4.15437" rx="0.389472" fill="white"/>
</g>
<path d="M34.6549 18.5578C35.1568 18.5578 35.5636 18.1509 35.5636 17.649C35.5636 17.1471 35.1568 16.7402 34.6549 16.7402C34.153 16.7402 33.7461 17.1471 33.7461 17.649C33.7461 18.1509 34.153 18.5578 34.6549 18.5578Z" fill="#262939"/>
<g filter="url(#filter5_d_35098_27467)">
<rect x="34.2656" y="13.625" width="0.778945" height="4.15437" rx="0.389472" fill="white"/>
</g>
<path d="M37.5786 17.9264C37.1781 16.0186 36.5493 14.1654 36.3919 12.2118C36.3349 11.5054 36.3341 10.7239 36.7116 10.099C37.1428 9.38558 38.2275 9.24429 38.9572 9.48369C39.3611 9.61602 39.5351 8.98223 39.1344 8.85045C38.2616 8.56391 37.2031 8.74323 36.4998 9.3397C35.8611 9.88178 35.7204 10.8171 35.711 11.6045C35.6857 13.8177 36.4955 15.96 36.9437 18.0987C37.0313 18.5135 37.6656 18.34 37.5786 17.9264Z" fill="#A0B2EC"/>
<path d="M39.7682 8.37014C39.6703 8.36962 39.5794 8.39708 39.5009 8.44459C39.469 8.43963 39.4363 8.43586 39.4027 8.43618L38.9012 8.43454C38.5437 8.43327 38.2528 8.72245 38.2515 9.07988C38.2503 9.43731 38.5389 9.72855 38.8969 9.72952L39.3984 9.73116C39.4323 9.73142 39.4644 9.72819 39.4971 9.7232C39.575 9.77068 39.6658 9.79904 39.7638 9.79956C40.0484 9.80064 40.2794 9.57078 40.2805 9.28612L40.282 8.88748C40.2825 8.60312 40.0523 8.37152 39.7682 8.37014Z" fill="#262939"/>
<path d="M44.7401 18.0684C45.2011 15.9463 45.9674 13.8626 46.0181 11.6703C46.0368 10.8509 45.8891 9.98029 45.304 9.36807C44.6584 8.69213 43.4745 8.53043 42.6156 8.80574C42.2138 8.93437 42.3829 9.57014 42.7876 9.44003C43.5116 9.20808 44.5166 9.35279 44.986 10.0059C45.4075 10.5925 45.3876 11.4139 45.3403 12.1002C45.2044 14.0815 44.5253 15.9642 44.1066 17.892C44.0173 18.3041 44.6502 18.4822 44.7401 18.0684Z" fill="#A0B2EC"/>
<path d="M41.9828 8.32081C42.0807 8.32133 42.1713 8.34911 42.2492 8.39659C42.2813 8.3919 42.314 8.38837 42.3479 8.38863L42.8494 8.39027C43.2068 8.39153 43.496 8.68248 43.4947 9.03991C43.4935 9.39734 43.2025 9.68652 42.8445 9.68555L42.343 9.68391C42.3091 9.68365 42.2766 9.68045 42.2447 9.6755C42.1669 9.72271 42.0751 9.74989 41.978 9.74964C41.6934 9.74856 41.4641 9.51725 41.4646 9.23289L41.4661 8.83425C41.4671 8.54959 41.6982 8.31973 41.9828 8.32081Z" fill="#262939"/>
<path d="M43.911 17.9043C43.5949 18.9229 43.3881 19.9714 42.9957 20.9658C42.6616 21.8116 42.0784 22.7731 41.0922 22.8801C38.4916 23.1618 38.4516 19.7099 37.85 18.0145C37.6389 17.42 36.6854 17.6726 36.8983 18.2734C37.3034 19.4146 37.422 20.6327 37.8945 21.7548C38.4115 22.9825 39.3703 23.7984 40.7302 23.8751C43.4394 24.0275 44.1522 20.7555 44.6944 18.749C44.7472 18.5553 44.8018 18.3622 44.8613 18.1702C45.0498 17.5605 44.0987 17.2987 43.911 17.9043Z" fill="#07CBA2"/>
<defs>
<filter id="filter0_d_35098_27467" x="10.0732" y="12.5698" width="33.588" height="32.6212" filterUnits="userSpaceOnUse" color-interpolation-filters="sRGB">
<feFlood flood-opacity="0" result="BackgroundImageFix"/>
<feColorMatrix in="SourceAlpha" type="matrix" values="0 0 0 0 0 0 0 0 0 0 0 0 0 0 0 0 0 0 127 0" result="hardAlpha"/>
<feOffset dy="2.10013"/>
<feGaussianBlur stdDeviation="2.10013"/>
<feColorMatrix type="matrix" values="0 0 0 0 0.0470588 0 0 0 0 0.254902 0 0 0 0 0.603922 0 0 0 0.1 0"/>
<feBlend mode="normal" in2="BackgroundImageFix" result="effect1_dropShadow_35098_27467"/>
<feBlend mode="normal" in="SourceGraphic" in2="effect1_dropShadow_35098_27467" result="shape"/>
</filter>
<filter id="filter1_d_35098_27467" x="10.0732" y="12.5698" width="33.588" height="15.4279" filterUnits="userSpaceOnUse" color-interpolation-filters="sRGB">
<feFlood flood-opacity="0" result="BackgroundImageFix"/>
<feColorMatrix in="SourceAlpha" type="matrix" values="0 0 0 0 0 0 0 0 0 0 0 0 0 0 0 0 0 0 127 0" result="hardAlpha"/>
<feOffset dy="2.10013"/>
<feGaussianBlur stdDeviation="2.10013"/>
<feColorMatrix type="matrix" values="0 0 0 0 0.0470588 0 0 0 0 0.254902 0 0 0 0 0.603922 0 0 0 0.1 0"/>
<feBlend mode="normal" in2="BackgroundImageFix" result="effect1_dropShadow_35098_27467"/>
<feBlend mode="normal" in="SourceGraphic" in2="effect1_dropShadow_35098_27467" result="shape"/>
</filter>
<filter id="filter2_d_35098_27467" x="14.4872" y="11.5249" width="9.17787" height="12.5548" filterUnits="userSpaceOnUse" color-interpolation-filters="sRGB">
<feFlood flood-opacity="0" result="BackgroundImageFix"/>
<feColorMatrix in="SourceAlpha" type="matrix" values="0 0 0 0 0 0 0 0 0 0 0 0 0 0 0 0 0 0 127 0" result="hardAlpha"/>
<feOffset dy="2.10013"/>
<feGaussianBlur stdDeviation="2.10013"/>
<feColorMatrix type="matrix" values="0 0 0 0 0.0470588 0 0 0 0 0.254902 0 0 0 0 0.603922 0 0 0 0.1 0"/>
<feBlend mode="normal" in2="BackgroundImageFix" result="effect1_dropShadow_35098_27467"/>
<feBlend mode="normal" in="SourceGraphic" in2="effect1_dropShadow_35098_27467" result="shape"/>
</filter>
<filter id="filter3_d_35098_27467" x="19.6825" y="11.5249" width="9.17787" height="12.5548" filterUnits="userSpaceOnUse" color-interpolation-filters="sRGB">
<feFlood flood-opacity="0" result="BackgroundImageFix"/>
<feColorMatrix in="SourceAlpha" type="matrix" values="0 0 0 0 0 0 0 0 0 0 0 0 0 0 0 0 0 0 127 0" result="hardAlpha"/>
<feOffset dy="2.10013"/>
<feGaussianBlur stdDeviation="2.10013"/>
<feColorMatrix type="matrix" values="0 0 0 0 0.0470588 0 0 0 0 0.254902 0 0 0 0 0.603922 0 0 0 0.1 0"/>
<feBlend mode="normal" in2="BackgroundImageFix" result="effect1_dropShadow_35098_27467"/>
<feBlend mode="normal" in="SourceGraphic" in2="effect1_dropShadow_35098_27467" result="shape"/>
</filter>
<filter id="filter4_d_35098_27467" x="24.87" y="11.5249" width="9.17787" height="12.5548" filterUnits="userSpaceOnUse" color-interpolation-filters="sRGB">
<feFlood flood-opacity="0" result="BackgroundImageFix"/>
<feColorMatrix in="SourceAlpha" type="matrix" values="0 0 0 0 0 0 0 0 0 0 0 0 0 0 0 0 0 0 127 0" result="hardAlpha"/>
<feOffset dy="2.10013"/>
<feGaussianBlur stdDeviation="2.10013"/>
<feColorMatrix type="matrix" values="0 0 0 0 0.0470588 0 0 0 0 0.254902 0 0 0 0 0.603922 0 0 0 0.1 0"/>
<feBlend mode="normal" in2="BackgroundImageFix" result="effect1_dropShadow_35098_27467"/>
<feBlend mode="normal" in="SourceGraphic" in2="effect1_dropShadow_35098_27467" result="shape"/>
</filter>
<filter id="filter5_d_35098_27467" x="30.0654" y="11.5249" width="9.17787" height="12.5548" filterUnits="userSpaceOnUse" color-interpolation-filters="sRGB">
<feFlood flood-opacity="0" result="BackgroundImageFix"/>
<feColorMatrix in="SourceAlpha" type="matrix" values="0 0 0 0 0 0 0 0 0 0 0 0 0 0 0 0 0 0 127 0" result="hardAlpha"/>
<feOffset dy="2.10013"/>
<feGaussianBlur stdDeviation="2.10013"/>
<feColorMatrix type="matrix" values="0 0 0 0 0.0470588 0 0 0 0 0.254902 0 0 0 0 0.603922 0 0 0 0.1 0"/>
<feBlend mode="normal" in2="BackgroundImageFix" result="effect1_dropShadow_35098_27467"/>
<feBlend mode="normal" in="SourceGraphic" in2="effect1_dropShadow_35098_27467" result="shape"/>
</filter>
<linearGradient id="paint0_linear_35098_27467" x1="14.2734" y1="14.6699" x2="39.5812" y2="16.4838" gradientUnits="userSpaceOnUse">
<stop stop-color="#0C419A"/>
<stop offset="1" stop-color="#1058D1"/>
</linearGradient>
</defs>
</svg>
