<svg xmlns="http://www.w3.org/2000/svg" width="240" height="134" fill="none"><path fill="#A0B2EC" fill-opacity=".16" d="M23.277 115.056a56.987 56.987 0 0 1-2.553-1.965C10.394 104.667 3.17 92.498.712 79.378c-.855-4.56-1.136-9.352.277-13.77 1.626-5.077 5.36-9.23 9.545-12.52 8.628-6.785 19.325-10.442 30.083-12.555 6.642-1.305 13.395-2.069 19.944-3.782 21.264-5.554 30.882-27.713 51.062-34.806 13.536-4.756 28.249.366 42.329 3.106 17.714 3.448 36.791 3.297 52.3 12.543 9.779 5.832 17.16 14.877 24.296 23.76 4.588 5.714 9.388 12.043 9.451 19.377.088 10.083-8.234 19.157-14.253 26.47-19.001 23.085 4.567 46.806-38.457 46.118-21.48-.347-42.927-4.236-63.999-8.116-33.155-6.103-70.49 11.25-100.013-10.147Z"/><path fill="#BBBFE1" d="M200.205 11.253h-27.396v16.722h27.396V11.253Z"/><path fill="#F7F8FF" d="M198.066 12.998h-23.117v13.233h23.117V12.998Z"/><path fill="#BBBFE1" d="M174.852 26.257s5.015-.867 6.23-1.099c1.215-.231 2.928-.463 4.088-.376 1.16.087 2.762.463 2.762.463s5.966-1.36 7.236-1.375c1.271-.014 3.156.631 3.156.631v1.756h-23.472ZM179.152 17.346c.826 0 1.496-.671 1.496-1.5 0-.828-.67-1.499-1.496-1.499s-1.496.671-1.496 1.5c0 .828.67 1.5 1.496 1.5Z"/><path fill="#BBBFE1" d="m193.676 18.755 2.687 2.693-2.687 2.693-2.687-2.693zM188.574 21.518l1.82 1.823-1.82 1.824-1.82-1.824zM202.18 5.115v27.463h16.682V5.115H202.18Z"/><path fill="#F7F8FF" d="M203.922 7.26v23.173h13.201V7.261h-13.201Z"/><path fill="#BBBFE1" d="m210.738 9.548 2.687 2.693-2.687 2.693-2.687-2.693zM210.738 15.094l3.912 3.921-3.912 3.922-3.912-3.922zM210.738 23.017l2.45 2.456-2.45 2.457-2.45-2.457zM188.383 29.553v19.892h12.083V29.553h-12.083Z"/><path fill="#F7F8FF" d="M189.645 31.107V47.89h9.561V31.107h-9.561Z"/><path fill="#BBBFE1" d="M193.136 34.385a1.085 1.085 0 1 0-2.167 0 1.085 1.085 0 1 0 2.167 0ZM198.156 38.34a2.446 2.446 0 0 0-2.443-2.448 2.446 2.446 0 0 0-2.443 2.449 2.446 2.446 0 0 0 2.443 2.449 2.446 2.446 0 0 0 2.443-2.45ZM194.419 43.96a2.015 2.015 0 0 0-2.012-2.018 2.014 2.014 0 0 0-2.012 2.017c0 1.114.9 2.017 2.012 2.017a2.015 2.015 0 0 0 2.012-2.017ZM204.444 108.371c.029 7.598-33.855 13.887-75.68 14.044-41.825.158-75.755-5.876-75.784-13.472-.028-7.597 33.623-12.965 75.45-13.12 41.826-.153 75.985 4.952 76.014 12.548Z"/><path fill="#BBBFE1" fill-rule="evenodd" d="M201.441 102.498a.34.34 0 0 1 .341-.341h8.164a.34.34 0 0 1 0 .682h-8.164a.341.341 0 0 1-.341-.341ZM55.871 114.633a.34.34 0 0 1-.34.341h-8.164a.34.34 0 0 1 0-.682h8.164a.34.34 0 0 1 .34.341ZM204.758 105.085a.34.34 0 0 1 .34-.341h8.164a.34.34 0 0 1 0 .682h-8.164a.34.34 0 0 1-.34-.341ZM52.555 112.046a.34.34 0 0 1-.34.341H44.05a.34.34 0 0 1 0-.682h8.165a.34.34 0 0 1 .34.341ZM206.969 107.67a.34.34 0 0 1 .34-.341h8.164a.34.34 0 0 1 0 .682h-8.164a.34.34 0 0 1-.34-.341ZM50.344 109.46a.34.34 0 0 1-.34.341h-8.165a.34.34 0 1 1 0-.682h8.165a.34.34 0 0 1 .34.341ZM206.23 110.256a.34.34 0 0 1 .341-.341h7.058a.34.34 0 0 1 0 .682h-7.058a.341.341 0 0 1-.341-.341ZM51.082 106.875a.34.34 0 0 1-.34.341h-7.059a.34.34 0 0 1 0-.682h7.059a.34.34 0 0 1 .34.341ZM203.652 112.842c0-.188.153-.341.341-.341h7.058a.34.34 0 0 1 0 .682h-7.058a.34.34 0 0 1-.341-.341ZM53.66 104.288a.34.34 0 0 1-.34.341h-7.059a.34.34 0 0 1 0-.682h7.059a.34.34 0 0 1 .34.341Z" clip-rule="evenodd"/><path fill="#6F89C7" d="M73.19 113.14a2.21 2.21 0 0 1-1.39-.956 2.22 2.22 0 0 1-.313-1.66l1.54-18.06c.25-1.189 3.583-1.501 4.769-1.25 1.186.25 4.14 1.89 3.89 3.078l-5.888 17.143a2.205 2.205 0 0 1-2.608 1.705ZM182.082 113.14a2.205 2.205 0 0 0 1.389-.956c.319-.49.431-1.087.313-1.66l-1.54-18.06c-.25-1.189-3.583-1.501-4.769-1.25-1.186.25-4.14 1.89-3.89 3.078l5.888 17.143c.122.572.465 1.072.954 1.392a2.204 2.204 0 0 0 1.655.313ZM171.455 102.113a2.214 2.214 0 0 0 1.703-2.62l-1.539-18.06c-.25-1.189-3.583-1.5-4.768-1.25-1.187.25-4.14 1.89-3.891 3.079l5.888 17.142a2.209 2.209 0 0 0 2.607 1.709ZM85.928 102.051a2.208 2.208 0 0 0 2.656-1.632l6.33-16.98c.283-1.18-2.595-2.894-3.773-3.178-1.178-.283-4.548-.07-4.83 1.111L84.3 99.39a2.22 2.22 0 0 0 .266 1.668c.305.498.794.856 1.36.994Z"/><path fill="#5E78B5" d="M186.659 64.046H75.524c-6.971 0-12.622 5.665-12.622 12.652v10.054c0 6.987 5.651 12.651 12.621 12.651H186.66c6.97 0 12.621-5.664 12.621-12.651V76.698c0-6.987-5.651-12.652-12.621-12.652Z"/><path fill="#5E78B5" d="M91.36 41.103s-19.7 3.819-14.007 23.808c5.285 18.556-10.51 24.365-10.51 24.365l132.432-4.86-14.978-19.658s8.621-18.725-10.508-22.67c-19.129-3.946-82.43-.985-82.43-.985Z"/><path fill="#3F4F75" fill-opacity=".3" d="M131.473 86.366c27.275 0 49.386-2.617 49.386-5.846 0-3.228-22.111-5.845-49.386-5.845-27.276 0-49.387 2.617-49.387 5.845 0 3.229 22.111 5.846 49.387 5.846Z"/><path fill="#F5F8FF" d="M125.336 78.055c.592-9.082-6.372-14.656-13.045-20.366-5.933-2.251-15.672 1.012-25.075 2.072a1.43 1.43 0 0 0-1.236 1.89c2.511 7.4 4.697 17.935 12.325 18.488l27.031-2.084Z"/><path fill="#E6ECFF" d="M85.98 61.651a1.466 1.466 0 0 1-.072-.338c12.025 12.915 39.428 16.742 39.428 16.742l-27.03 2.084c-7.63-.553-9.816-11.087-12.327-18.487Z"/><path stroke="#6F89C7" stroke-linecap="round" stroke-linejoin="round" stroke-width="2.356" d="M186.276 64.91s-10.856.859-11.022 9.68M76.332 64.91s10.856.859 11.023 9.68"/><path fill="#F5F8FF" d="M149.2 78.114c-.6-9.223 6.461-14.884 13.228-20.682 6.016-2.286 15.892 1.027 25.427 2.104a1.452 1.452 0 0 1 1.254 1.92c-2.547 7.515-4.764 18.212-12.498 18.775L149.2 78.114Z"/><path fill="#E6ECFF" d="M189.109 61.456c.038-.112.062-.227.072-.344-12.194 13.115-39.982 17.002-39.982 17.002l27.41 2.116c7.736-.562 9.954-11.26 12.5-18.774Z"/><path fill="#172E78" d="M134.328 105.001c3.004-5.649 3.82-13.625 7.492-22.056.851-3.108.96-3.755 4.903-1.996 1.414.965 1.998 3.387 1.346 4.898-4.122 9.55-8.655 15.767-11.188 20.948-.508 1.039-3.034-.63-2.553-1.794Z"/><path fill="#213378" d="m134.885 104.353-7.063 5.925s-2.598 1.72 2.866 2.017c2.589.141 7.217-1.995 7.217-1.995 2.482-.812 2.211-2.626.657-4.907.003.001-2.552 1.147-3.677-1.04Z"/><path fill="#FB9E81" d="m134.772 104.482-.876.912a.837.837 0 0 0 .112 1.21 1.687 1.687 0 0 0 2.129-.049l1.245-.867-2.61-1.206Z"/><path fill="#172E78" d="M143.501 78.392c-.908 1.189-.831 2.166-.96 3.137 1.458 2.028 4.497 5.615 4.984 3.744.608-2.339 11.638-6.748 15.523-9.35 3.108-2.082 4.27-6.78 3.009-8.373-1.261-1.593-10.611 1.898-10.611 1.898-4.588 3.395-11.646 8.552-11.945 8.944Z"/><path fill="#FB9E81" d="m157.53 51.553-1.302 14.415c-.059.654.376 1.291 1.024 1.5l.39.126c1.042.335 2.087-.244 2.295-1.27l3.271-16.17-5.678 1.4Z"/><path fill="#FAAA91" d="M168.122 73.105a.42.42 0 0 1-.256.383.416.416 0 1 1 .256-.383ZM166.431 49.029l-.332.009c-1.019.025-3.121-.285-3.149-1.4 1.741-1.161.739-4.834.388-8.443-.028-1.117 1.441-2.1 2.458-2.127l.332-.008c1.019-.026 2.432 1.156 2.46 2.27.356 2.797 1.071 5.05 1.201 7.739.029 1.114-2.341 1.933-3.358 1.96Z"/><path fill="#E37B66" d="M163.968 45.17v-1.162l3.916-1.053c-1.731.547-1.573 2.456-3.916 2.215Z"/><path fill="#869AC0" d="M167.781 41.884s4.566-2.033 3.959-4.839c-.608-2.805-1.414-3.015-1.414-3.015l-1.076.798-1.469 7.056Z"/><path fill="#0F1F59" d="m160.925 38.557-.094-.21a.186.186 0 0 1 .148-.26l1.405-.162c.228-.026.292.302.072.364l-1.311.37a.185.185 0 0 1-.22-.102Z"/><path fill="#FAAA91" d="m161.533 39.984.047-4.41c.169-2.644 2.073-3.8 4.392-3.65l.211.144c2.323.148 4.242 1.417 4.074 4.06l-1.254 4.455c-.128 2.073-7.431 7.073-7.47-.599Z"/><path fill="#FAAA91" d="M170.652 38.983c.198-.783-.042-1.519-.537-1.644-.494-.126-1.055.407-1.253 1.19-.198.783.042 1.52.537 1.645.494.125 1.055-.408 1.253-1.19Z"/><path fill="#869AC0" d="M166.109 33.462s.886 1.67 1.703 2.27c.541.395.827 1.668.979 2.858.09.707 1.06.847 1.34.191.837-1.943 1.526-4.801-.296-6.9-1.605-1.846-3.543-.974-3.543-.974l-.183 2.555Z"/><path fill="#8EA3CB" d="M159.76 36.274a.633.633 0 0 0 .362.632.628.628 0 0 0 .714-.136c.647-.687 1.551-1.378 2.639-1.472 2.254-.19 3.63-.737 3.73-1.76 0 0 .748-1.552.507-1.974-.241-.422-1.831-2.288-4.914-.515-2.209 1.27-2.869 3.568-3.038 5.225Z"/><path fill="#E37B66" d="m167.22 38.997-.588-.142.566.214a.037.037 0 0 0 .05-.027.037.037 0 0 0-.028-.045ZM167.128 39.336l-.48-.368.431.425a.037.037 0 0 0 .056-.004.037.037 0 0 0-.007-.053ZM167.244 38.619l-.576.185.595-.112a.038.038 0 0 0 .029-.049.039.039 0 0 0-.048-.024ZM161.557 38.8l.264-.006-.266-.074.002.08ZM161.567 38.604l.206.085-.175-.16-.031.075ZM161.614 38.971l.185-.12-.229.052.044.068Z"/><path stroke="#E37B66" stroke-linecap="round" stroke-opacity=".7" stroke-width=".186" d="M162.062 36.54c.452-.017.897.036 1.34.142.093.023.194.019.29.03.15.018.301.042.452.032.246-.016.521-.075.747-.173.194-.084.413-.115.614-.18a.832.832 0 0 1 .452-.025"/><path stroke="#E37B66" stroke-linecap="round" stroke-opacity=".7" stroke-width=".139" d="M162.43 36.348c.338-.013.671.028 1.001.107.07.017.146.014.217.022.113.014.225.032.338.024a1.76 1.76 0 0 0 .559-.13c.145-.062.309-.086.459-.134a.623.623 0 0 1 .338-.019"/><path fill="#E8E2E2" fill-opacity=".5" stroke="#0F1F59" stroke-width=".558" d="M163.215 38.874a.966.966 0 1 1-1.848-.567.967.967 0 1 1 1.848.567ZM166.42 39.04a1.121 1.121 0 1 1-2.145-.658 1.121 1.121 0 1 1 2.145.657Z"/><path stroke="#0F1F59" stroke-linecap="round" stroke-width=".586" d="M163.352 38.59c.067-.223.613-.254.738-.02"/><path fill="#0F1F59" d="m166.362 38.575-.094-.209a.187.187 0 0 1 .149-.26l1.405-.162c.227-.026.292.302.072.364l-1.311.37a.187.187 0 0 1-.221-.103Z"/><path fill="#122870" d="m174.577 66.03-.261-2.672-13.083 1.033-6.63 6.1c-1.017 1.27 1.551 2.356 1.188 3.899-1.167 4.955 1.331 6.957 6.517 6.957s11.167-1.515 12.246-6.96c.312-1.563.459-7.076.023-8.356Z"/><path fill="#AF67C7" d="M174.598 55.716c-.976-1.857-1.289-4.456-2.196-5.776-.334-.486-.962-.538-1.35-.107l-4.246 3.54c-.668.742-1.313.742-1.981 0l-1.944-3.54c-.388-.43-1.014-.381-1.349.108-.908 1.319-1.318 2.596-1.602 4.004-.12.6-.131 1.173 0 1.77.132.598.106 1.013.467 1.506l.798 1.818 5.473-.215 6.89.085s1.62-2.09 1.04-3.193Z"/><path fill="#AF67C7" d="m162.153 49.817.507-4.708s-4.598-.836-5.687 9.149c1.409 1.368 1.867 1.404 3.112 1.404l2.068-5.845Z"/><path fill="#E38A78" d="M165.159 69.847c.147 0 .265-.258.265-.575 0-.318-.118-.575-.265-.575-.146 0-.264.257-.264.575 0 .317.118.575.264.575Z"/><path fill="#122870" d="M149.811 81.09c-.498.124-1.557 1.403-1.401 3.12.156 1.715 3.922 6.396 4.669 4.523.934-2.34 12.917-5.46 17.275-7.644 3.486-1.747 4.513-6.552 4.202-8.268-.311-1.716-11.517.312-11.517.312-5.187 2.912-12.73 7.831-13.228 7.956Z"/><path fill="#122870" d="M136.759 105.968c3.971-5.576 6.309-14 11.461-22.455 1.421-3.196 1.271-2.866 4.863-.171 0 0 1.654 2.033.524 4.287-5.019 10.014-11.339 15.522-14.766 20.673-.691 1.033-2.77-1.163-2.082-2.334Z"/><path fill="#FAAA91" d="m137.044 105.608-2.63 2.712a.413.413 0 0 0 .054.602l1.171.912a.413.413 0 0 0 .519-.011c2.049-1.087 3.232-2.169 3.922-3.247l-3.036-.968Z"/><path fill="#122870" d="m135.953 106.543-7.164 5.725s-2.592 1.752 2.851 2.068c1.217.071 2.888-.376 4.313-.867 1.595-.549 2.882-1.154 2.882-1.154 2.475-.823 2.648-3.234 1.109-5.567 0 0-2.876 2.033-3.991-.205Z"/><path fill="#FB9E81" d="m157.029 61.965-4.377 8.903 2.693 1.292s5.348-5.654 4.788-8.704l-3.104-1.49Z"/><path fill="#AF67C7" d="M169.266 43.493c-4.823 6.285-5.446 2.984-5.301.66l-2.572 1.12s-.534 4.226-1.381 6.83c-.352 1.085 1.414.445 1.618 1.998.212 1.607-.562 3.12-.562 4.405 0 0 .189 2.516-.518 3.551-.707 1.036-1.089 3.277-.622 3.9.467.625 3.735 1.405 13.54.157 0 0 2.999-9.397 3.215-10.735.669-4.138-7.417-11.886-7.417-11.886Z"/><path fill="#FAAA91" d="M177.315 55.76 174.4 66.21c-.124.458-.731.697-1.428.566l-.419-.08c-1.121-.212-1.99-1.03-1.907-1.797l1.093-11.623s-.05-4.122 4.674-2.239c.564.53.902 4.724.902 4.724Z"/><path fill="#AF67C7" d="M169.266 43.493c.78 1.021 2.013 2.538 1.852 4.334l.607 3.035-.436 4.487c2.368.581 4.29 1.033 6.225.312 0 0 0-6.782-2.334-9.048-1.816-1.763-5.914-3.12-5.914-3.12Z"/><path fill="#FAAA91" d="m161.746 70.11-3.877 1.5a.795.795 0 0 0-.321.23c-.36.432-1.415 1.702-2.517 3.073-.135.168-.086.912.507.391 0 0-.376.489.006 1.101.045.074.092.146.137.216.275.424.809.543 1.162.254 1.083-.874 3.224-2.558 3.736-2.627 1.542-.209 2.629-1.432 2.828-1.652 0 0 .605-1.024.034-1.876l-.038-.057c-.388-.573-1.091-.81-1.657-.553Z"/><path fill="#E37B66" d="M149.617 75.668s.918-2.295 1.585-2.457c.666-.163-1.051 2.778-1.585 2.457Z"/><path fill="#E37B66" d="M149.887 73.899s3.335-2.742 3.299-.718c0 0-2.953 1.472-3.299.718Z"/><path fill="#E37B66" d="M148.648 76.16s1.003-2.332 1.687-2.386c.684-.054-1.196 2.63-1.687 2.386Z"/><path fill="#FAAA91" d="m153.758 70.404-3.232 1.722s-1.826 1.787-2.551 3.002c-.232.388-.344.923-.187 1.052.354.29 2.321-2.179 2.321-2.179s1.841-.726 1.897-.928c.028.022.04.041.135.202.077.135.172.137.145.29-.027.154-.317.336-.435.436l-.436.581s-1.123 1.348-.595 1.671c.081.05 1.13-.953 1.13-.953l1.566-1.11c.328-.233.631-.5.903-.798l.556-.608a1.598 1.598 0 0 0 .121-2.008l-.03-.041a1.042 1.042 0 0 0-1.308-.331ZM174.222 66.453c-2.058 3.166-12.008 6.297-12.008 6.297l-2.741-.898 12.206-8.97 2.543 3.571Z"/><g clip-path="url(#a)"><path fill="#4A9A91" fill-rule="evenodd" d="M63.31 63.46c-10.831-10.03-17.166 1.732-17.166 1.732h.001c9.13 5.299 17.165-1.733 17.165-1.733ZM42.32 53.841l-.002.016c13.8-2.41 25.195-15.723 26.17-16.863l.068-.078-.02-.005.006-.008-.008.007C45.848 30.47 42.428 53.088 42.32 53.838l-.016.006.015-.003ZM29 16.067c-8.007 14.234 5.22 35.035 5.22 35.035v-.003.003C41.702 30.332 29 16.067 29 16.067v.001ZM54.969 5.115C35.514 14.69 40.449 41.38 40.449 41.38c7.082-4.255 10.72-12.285 12.585-19.709 1.62-6.45 1.901-12.445 1.938-15.107.013-.926-.003-1.45-.003-1.45ZM32.885 63.974s-.14-16.8-13.154-16.96c0 0 1.435 15.19 13.154 16.96Z" clip-rule="evenodd"/><path fill="#457158" fill-rule="evenodd" d="M53.145 8.776a7.04 7.04 0 0 1 .4-.439l.007.024c.167-.167.62-.017.453.15-.01.014-.035.034-.035.034-.227.29-.469.57-.724.836a32.85 32.85 0 0 0-1.781 2.45c.26-.134.539-.234.829-.295a5.97 5.97 0 0 1 1.275-.168.316.316 0 0 1 .317.317.318.318 0 0 1-.317.318 4.5 4.5 0 0 0-1.075.136l-.037.009c-.606.138-1.214.277-1.648.709-.401.65-.781 1.305-1.145 1.963a56.749 56.749 0 0 0-1.325 2.55.376.376 0 0 1-.061.126 66.376 66.376 0 0 0-1.685 3.764l.166-.194a15.447 15.447 0 0 1 5.17-3.89v.02c.368-.167.691.379.32.546-.207.095-.408.2-.608.31-2.443 1.32-4.834 3.257-6.056 5.797l-.005.01a91.512 91.512 0 0 0-2.394 7.52c.146-.206.3-.406.46-.6a18.273 18.273 0 0 1 4.874-4.181.316.316 0 0 1 .45.353.317.317 0 0 1-.13.192 10.45 10.45 0 0 0-.582.372c-2.144 1.427-4.397 3.283-5.538 5.644a116.921 116.921 0 0 0-2.186 10.908 147.743 147.743 0 0 0-1.31 11.816c-.33 4.586-.466 9.18-.45 13.773.021 5.323.25 10.646.644 15.965.017.191-.507.191-.524 0a224.546 224.546 0 0 1-.609-19.54c.054-4.463.272-8.923.68-13.377.347-3.781.834-7.57 1.494-11.32.278-1.611.591-3.22.94-4.827a.37.37 0 0 1-.022-.162 20.846 20.846 0 0 0-.71-6.888.318.318 0 0 1 .226-.37.315.315 0 0 1 .382.203c.408 1.587.631 3.213.668 4.846.075-.312.152-.623.23-.935a.416.416 0 0 1 .037-.191l.024-.05c.087-.345.175-.688.266-1.031.374-1.386.77-2.77 1.201-4.15a.263.263 0 0 1-.018-.13c.07-2.218.002-4.44-.204-6.65-.048-.65-.149-1.295-.302-1.93v-.01a.318.318 0 0 1 .457-.343c.071.037.125.1.151.176.16.665.267 1.341.32 2.023.184 1.72.171 3.461.134 5.196a80.75 80.75 0 0 1 .86-2.449.378.378 0 0 1 .037-.204c.049-.099.098-.197.15-.295a70.187 70.187 0 0 1 2.573-5.982c.307-1.301.38-2.647.212-3.973a6.32 6.32 0 0 0-.31-1.487l-.006.004c-.143-.386.47-.55.609-.17.18.536.293 1.092.34 1.656.072.787.063 1.578-.026 2.36a46.77 46.77 0 0 1 3.003-4.941c.415-.6.864-1.197 1.36-1.784l.105-.12Z" clip-rule="evenodd"/><path fill="#457158" fill-rule="evenodd" d="M58.186 36.711v-.02a.587.587 0 0 0 0 .075c-.014.082-.03.164-.051.245-.07.287-.168.567-.29.836a5.24 5.24 0 0 1-1.853 2.175 29.919 29.919 0 0 0-4.96 3.108c.35-.646.597-1.346.732-2.074.143-.618.23-1.248.258-1.882 0-.246-.37-.246-.377 0v-.007a9.836 9.836 0 0 1-.235 1.725 6.683 6.683 0 0 1-1.34 3.013 29.976 29.976 0 0 0-3.626 3.62c.27-.674.505-1.362.704-2.06.235-.754.456-1.511.65-2.275a.19.19 0 0 0-.364-.102l-.014.007c-.187.74-.401 1.473-.63 2.202a21.172 21.172 0 0 1-1.293 3.41 30.02 30.02 0 0 0-3.632 6.193c-2.307 5.16-3.242 10.51-3.5 15.822a59.18 59.18 0 0 0-.072 2.456c0 .194.52.194.524 0 .054-5.555.769-11.144 2.878-16.576a30.827 30.827 0 0 1 2.802-5.622.206.206 0 0 0 .035-.029c1.657-1.68 3.868-2.728 6.075-3.498a22.315 22.315 0 0 1 3.48-.938c.242-.041.14-.41-.098-.368v-.01c-1.259.239-2.495.581-3.698 1.023-1.748.62-3.491 1.427-4.964 2.578a30.784 30.784 0 0 1 3.008-3.646 29.585 29.585 0 0 1 3.218-2.856l.01-.005c1.585-.855 3.514-.995 5.283-1.002.72 0 1.44.027 2.16.082l.643.061.19.024.05.005c.034.003.06.006-.006-.005.242.034.34-.341.102-.365v-.01a22.408 22.408 0 0 0-3.241-.184c-1.283 0-2.63.09-3.887.456a29.555 29.555 0 0 1 3.186-1.892.154.154 0 0 0 .119-.024c.069-.045.137-.092.203-.14a31.47 31.47 0 0 1 2.715-1.204.194.194 0 0 0 .052 0 8.087 8.087 0 0 1 2.871.266c.503.12 1 .267 1.486.44.228.086.34-.28.1-.365a12.673 12.673 0 0 0-1.542-.453 8.343 8.343 0 0 0-1.87-.29c.96-.332 1.936-.618 2.925-.856a28.183 28.183 0 0 1 3.324-.573h-.02c.34-.02.34-.324 0-.3l.01.004c-.956.076-1.904.224-2.838.443a32.006 32.006 0 0 0-4.442 1.306h-.004a.196.196 0 0 0-.097.037c-.594.225-1.181.468-1.762.727a5.555 5.555 0 0 0 1.243-2.363c.024-.113.044-.222.058-.341.027-.242-.34-.242-.378 0l-.01-.004ZM56.739 60.142a.223.223 0 0 0-.07.058c-.023.03-.1.077-.167.117l-.041.026a9.775 9.775 0 0 1-3.596 1.46.225.225 0 0 0-.064.02c-.704.095-1.396.252-2.07.471.625-.485 1.197-1.036 1.647-1.672.05-.064.094-.133.133-.204a.196.196 0 0 0-.291-.25.197.197 0 0 0-.05.059l.014-.014a3.19 3.19 0 0 1-.401.542 9.536 9.536 0 0 1-1.507 1.385c-.484.359-.99.688-1.514.985a.197.197 0 0 0-.051.042c-.17.093-.338.19-.503.292-2.3 1.474-3.504 3.441-4.297 5.334-1.449 3.478-1.673 7.092-1.592 10.639 0 .506.03 1.011.06 1.517l.015.253c0 .194.534.194.524 0-.224-3.751-.157-7.577 1.099-11.277.648-1.931 1.637-3.946 3.633-5.578a.2.2 0 0 0 .105-.011c1.415-.638 3.061-.372 4.487.095a11.6 11.6 0 0 1 2.276 1.023.195.195 0 0 0 .282-.223.195.195 0 0 0-.092-.118v-.024a11.955 11.955 0 0 0-2.527-1.094c-1.142-.358-2.386-.568-3.563-.34.091-.057.182-.112.275-.166a.196.196 0 0 0 .063-.023c.12-.069.239-.139.358-.211a10.61 10.61 0 0 1 3.663-1.142c.423-.053.848-.089 1.274-.106.92.085 1.816.715 2.567 1.244l.065.045c.5.347.97.734 1.408 1.156.174.17.442-.099.266-.27a11.384 11.384 0 0 0-1.528-1.244c-.514-.359-1.09-.713-1.7-.938.693.02 1.385.087 2.07.201.487.079 1.055.195 1.44.294.1.026.2.057.301.089a4.5 4.5 0 0 0 .413.115h.03c.29.099.555-.16.266-.26v.011a13.163 13.163 0 0 0-1.912-.47 16.927 16.927 0 0 0-3.373-.28c.441-.155.871-.34 1.288-.556.395-.203.77-.442 1.122-.712.184-.143-.05-.392-.235-.29ZM37.133 84.09c-.252-7.227-.68-14.45-1.286-21.667a426.324 426.324 0 0 0-1.892-17.9c-.122-.95-.247-1.9-.377-2.85a13.265 13.265 0 0 1 .63-4.379c.13-.377.295-.741.493-1.087.054-.093.112-.181.17-.27 0-.01.016-.036.027-.05v.013c.017-.03.01-.027 0-.013v-.008c.157-.187-.112-.457-.269-.27h.017c-.347.462-.613.98-.785 1.532-.268.82-.456 1.662-.563 2.514a373.195 373.195 0 0 0-.638-4.314c.015-1.881.227-3.756.633-5.593.16-.772.376-1.532.643-2.274.088-.229-.28-.341-.364-.103l.017-.013a16.375 16.375 0 0 0-.68 2.387 27.182 27.182 0 0 0-.547 3.687 297.718 297.718 0 0 0-1.3-7.59 12.173 12.173 0 0 1 .207-3.47c.076-.4.208-.788.394-1.152a.196.196 0 0 0-.075-.266.195.195 0 0 0-.265.075h.014a4.47 4.47 0 0 0-.432 1.245 12.393 12.393 0 0 0-.225 1.557 214.05 214.05 0 0 0-.909-4.439 4.384 4.384 0 0 0-.252-1.111.318.318 0 0 1 0-.048c-.047-.191-.55-.11-.506.082.008.032.01.045.01.056.003.016.005.029.027.1.036.154.07.307.104.459l.022.1c.163.724.316 1.443.462 2.166a240.148 240.148 0 0 1 1.485 7.853 13.455 13.455 0 0 0-1.688-2.68 12.303 12.303 0 0 0-1.677-1.794c-.187-.153-.456.113-.269.27.583.507 1.115 1.07 1.589 1.68a13.138 13.138 0 0 1 2.352 4.325c.386 2.301.747 4.603 1.084 6.905a18.999 18.999 0 0 0-2.545-3.915 15.325 15.325 0 0 0-2.058-2.12c-.187-.154-.46.115-.269.268a15.313 15.313 0 0 1 1.946 1.985 18.611 18.611 0 0 1 3.124 5.152 335.167 335.167 0 0 1 .642 4.745c-.329-.72-.74-1.403-1.229-2.033a11.932 11.932 0 0 0-1.7-1.89c-.184-.156-.453.11-.27.27h-.006c.61.543 1.16 1.15 1.64 1.81a10.136 10.136 0 0 1 1.788 3.586 418.37 418.37 0 0 1 2.916 35.626c.04.955.075 1.906.109 2.858 0 .194.53.194.524 0l.007-.007Z" clip-rule="evenodd"/><path fill="#457158" fill-rule="evenodd" d="M22.406 49.69a13.342 13.342 0 0 0-1.561-1.132l-.014.034c-.231-.137.14-.351.37-.212h.031c.224.12.435.264.63.427.486.337.932.688 1.36 1.046.687.58 1.346 1.19 1.977 1.829a32.222 32.222 0 0 1-1.575-3.018h-.017c-.088-.222.238-.413.34-.195a31.736 31.736 0 0 0 2.535 4.522.154.154 0 0 1 .028.11c.214.248.425.5.631.756a34.502 34.502 0 0 1 1.957 2.648 160.18 160.18 0 0 1-.995-4.084h-.017c-.054-.239.31-.337.364-.099.404 1.74.83 3.48 1.303 5.202a34.547 34.547 0 0 1 1.729 3.153 39.168 39.168 0 0 1 3.238 9.977c.796 4.437.996 8.96.596 13.45-.017.194-.541.194-.524 0 .047-.61.088-1.225.122-1.838.25-4.335-.08-8.684-.983-12.931a38.322 38.322 0 0 0-2.543-7.72 5.953 5.953 0 0 0-2.958-2.104 6.662 6.662 0 0 0-1.844-.393l.014.004c-.242-.01-.242-.379 0-.379.17.007.34.031.51.055 1.36.199 2.689.745 3.722 1.642a33.781 33.781 0 0 0-2.564-4.36 5.079 5.079 0 0 0-3.222-1.756 6.77 6.77 0 0 0-1.874-.02h.01c-.238.04-.34-.324-.099-.369a6.138 6.138 0 0 1 4.199.795c-.366-.475-.744-.94-1.134-1.395a28.333 28.333 0 0 0-1.667-1.792 6.875 6.875 0 0 0-2.296-1.202 8.174 8.174 0 0 0-.85-.218l-.25-.044h-.05l.017-.007c-.242-.041-.242-.41 0-.382a7.39 7.39 0 0 1 2.035.568 28.408 28.408 0 0 0-.681-.568Z" clip-rule="evenodd"/><path fill="#BBBFE1" d="m25.727 76.268 1.592 13.022a7.252 7.252 0 0 0 2.116 5.098 7.217 7.217 0 0 0 5.085 2.121h7.943a7.213 7.213 0 0 0 5.084-2.121 7.247 7.247 0 0 0 2.114-5.098l1.994-13.022H25.727Z"/><path fill="#fff" fill-rule="evenodd" d="m50.803 81.849-1.793 2.016-2.156-2.41a.601.601 0 0 0-.85 0l-2.157 2.41-2.154-2.41a.601.601 0 0 0-.85 0l-2.157 2.41-2.15-2.421a.601.601 0 0 0-.85 0l-2.16 2.42-2.154-2.41a.601.601 0 0 0-.85 0l-2.15 2.41-1.985-2.222.255 2.088 1.305 1.461a.608.608 0 0 0 .85 0l2.154-2.414 2.156 2.414a.601.601 0 0 0 .847 0l2.157-2.414 2.157 2.414a.602.602 0 0 0 .847 0l2.156-2.414 2.154 2.414a.608.608 0 0 0 .85 0l2.157-2.414 2.16 2.414a.601.601 0 0 0 .847 0l1.029-1.148.335-2.194Z" clip-rule="evenodd"/><path fill="#482C80" d="M45.93 76.268 43.935 89.29a7.252 7.252 0 0 1-2.116 5.098 7.217 7.217 0 0 1-5.086 2.121h5.729a7.213 7.213 0 0 0 5.084-2.121 7.248 7.248 0 0 0 2.114-5.098l1.993-13.022H45.93Z" opacity=".1"/></g><path fill="#DA937D" d="M141.283 107.976c-3.821-5.985-5.848-14.87-10.753-23.906-1.314-3.394-1.521-4.109-5.129-1.627-1.243 1.267-1.445 4.07-.572 5.69 5.519 10.24 10.932 16.671 14.218 22.188.659 1.107 2.888-1.094 2.236-2.345Z"/><path fill="#1C2E6E" d="M127.984 77.586c.987 1.29.904 2.352 1.044 3.407-1.586 2.202-4.89 6.097-5.42 4.065-.662-2.54-12.657-7.328-16.882-10.153-3.38-2.26-4.644-7.362-3.272-9.093 1.371-1.73 11.54 2.061 11.54 2.061 4.989 3.687 12.665 9.287 12.99 9.713Z"/><path fill="#E0876B" d="m115.023 48.087 1.417 15.653c.064.71-.409 1.402-1.114 1.628l-.424.138c-1.134.364-2.27-.266-2.496-1.38l-3.557-17.559 6.174 1.52Z"/><path fill="#FAAA91" d="M103.505 71.49a.447.447 0 0 0 .278.417.453.453 0 0 0 .615-.33.456.456 0 0 0-.192-.462.449.449 0 0 0-.701.375Z"/><path fill="#E0876B" d="M96.794 49.224h14.074c1.747 0 3.163-1.714 3.163-3.828s-1.416-3.828-3.163-3.828l-6.667-2.256-7.41 2.256c-1.746 0-3.163 1.714-3.163 3.828s1.417 3.828 3.166 3.828Z"/><path fill="#0F1F59" d="M104.732 36.269s-3.483-2.357-2.298-5.915c1.185-3.025 1.591-3.025 1.591-3.025l.937 1.115-.23 7.825Z"/><path fill="#E0876B" d="m103.957 44.871.348.093c1.071.285 3.66-.064 3.971-1.234-1.92-1.092-.53-4.961.753-8.685.311-1.172-.31-2.36-1.379-2.646l-.348-.093c-1.071-.286-2.71.733-3.02 1.903-1.084 2.864-2.347 5.18-3.165 7.988-.311 1.17 1.771 2.389 2.84 2.674Z"/><path fill="#C4735A" d="m107.699 39.229-.257 1.207a6.584 6.584 0 0 1-2.766-3.587l-.482-.934 3.505 3.314Z"/><path fill="#0F1F59" d="m113.654 33.301.005-.024a.233.233 0 0 0-.177-.27l-3.798-.88 3.66 1.35a.233.233 0 0 0 .31-.176Z"/><path fill="#E0876B" d="m111.608 35.824 1.316-4.605c.643-2.804-.983-4.598-3.447-5.162l-.264.084c-2.466-.567-4.859.16-5.502 2.964l-.073 5.025c-.508 2.198 5.555 9.669 7.97 1.694Z"/><path fill="#E0876B" d="M102.383 32.27c-.012-.876.428-1.593.982-1.6.554-.008 1.013.697 1.024 1.575.012.877-.428 1.593-.982 1.6-.554.008-1.013-.697-1.024-1.574Z"/><path fill="#0F1F59" d="M105.864 31.186a.292.292 0 0 1 .124-.154c.078-.042-.436-.153-1.095-.274-.279-.05-.375.326-.108.42l.695.243c.159.056.322-.077.384-.235Z"/><path fill="#D9D9D9" fill-opacity=".5" d="m112.08 32.557.677.508.169.509-.508.847-.677.677-.846.17-.508-.34-.508-.846-.169-.678.339-.678 1.354-.338.677.17ZM108.682 32.03l.351.697-.196.594-.651.592-1.015.339-.677-.34-.306-.591-.159-.941.159-.68.644-.498 1.325.367.525.46Z"/><path fill="#0F1F59" d="M105.689 30.925a2.396 2.396 0 0 0-.12.478c.01.022.03.031.049.04.073.032.136.08.203.123.045.03.086.067.12.113.035.044.06.1.07.16a.683.683 0 0 1 .002.207c-.061.439-.017.867.102 1.287a2 2 0 0 0 .106.28c.12.262.312.448.561.575.285.14.607.175.925.1a2.122 2.122 0 0 0 1.131-.708c.04-.048.078-.099.118-.147.047-.058.095-.116.145-.172a1.06 1.06 0 0 1 .102-.097.189.189 0 0 1 .171-.044c.055.011.106.03.14.078a.22.22 0 0 1 .031.057c.017.05.032.1.044.152.015.07.027.142.038.214.018.131.043.26.076.387.058.21.15.402.266.583.089.141.193.268.309.377.108.099.226.18.353.244.125.063.26.104.398.123a1.208 1.208 0 0 0 .919-.236c.122-.093.237-.2.343-.317.198-.22.366-.462.497-.73.03-.063.056-.127.084-.191a.7.7 0 0 1 .1-.17.35.35 0 0 1 .141-.105.506.506 0 0 1 .178-.04c.079 0 .158-.012.238-.003.01 0 .021-.001.032-.004a.053.053 0 0 0 .019-.015 5.524 5.524 0 0 0 .124-.444.065.065 0 0 0-.001-.024c-.012-.023-.031-.025-.048-.03l-.335-.088c-.076-.02-.153-.037-.23-.057a.953.953 0 0 1-.282-.124 4.887 4.887 0 0 0-.372-.215 3.1 3.1 0 0 0-.331-.15.819.819 0 0 0-.088-.028 3.291 3.291 0 0 0-.384-.072 3.58 3.58 0 0 0-.747 0c-.13.015-.259.042-.386.08-.156.045-.312.092-.468.14-.094.03-.19.05-.287.06a.464.464 0 0 1-.377-.101 1.34 1.34 0 0 1-.213-.188 38.366 38.366 0 0 0-.336-.355 2.26 2.26 0 0 0-.368-.315 3.45 3.45 0 0 0-.49-.283 2.133 2.133 0 0 0-.22-.09 3.003 3.003 0 0 1-.103-.035 1.443 1.443 0 0 0-.373-.083 4.23 4.23 0 0 0-.592-.014c-.033.002-.067.002-.1.003a.844.844 0 0 1-.226-.025 8.044 8.044 0 0 1-.168-.046l-.422-.115c-.02-.004-.04-.014-.068 0Zm6.132 1.655c.052.016.105.031.156.048.099.033.19.082.282.128a1.077 1.077 0 0 1 .355.285.413.413 0 0 1 .094.259c.004.158-.012.314-.064.466l-.036.097a1.911 1.911 0 0 1-.182.373 6.5 6.5 0 0 1-.168.25c-.07.101-.156.187-.24.275-.096.1-.205.18-.323.233-.155.071-.315.123-.485.128-.043 0-.085 0-.128-.002a.85.85 0 0 1-.332-.086 1.199 1.199 0 0 1-.38-.298 1.696 1.696 0 0 1-.318-.54 1.423 1.423 0 0 1-.09-.383c-.022-.272.02-.533.134-.783a.65.65 0 0 1 .267-.305c.125-.074.257-.127.392-.156.114-.024.229-.042.343-.053.15-.015.3-.011.446.011.093.014.185.033.277.053Zm-5.545-.583c.027-.115.079-.219.133-.323a.467.467 0 0 1 .275-.237c.068-.022.137-.038.206-.046.165-.022.328-.007.491.016.138.02.271.065.402.114.083.029.163.064.241.106.179.101.346.225.499.369.099.092.183.204.248.331a.572.572 0 0 1 .068.27v.038a1.485 1.485 0 0 1-.038.28 1.687 1.687 0 0 1-.082.242 1.411 1.411 0 0 1-.278.434c-.106.11-.222.205-.346.282-.183.117-.38.193-.581.225a.96.96 0 0 1-.291.007.89.89 0 0 1-.31-.1c-.079-.046-.159-.091-.225-.156a1.969 1.969 0 0 1-.157-.167.974.974 0 0 1-.176-.294 2.167 2.167 0 0 1-.117-.491 4.772 4.772 0 0 1-.023-.338c-.007-.19.018-.377.061-.562Z"/><path fill="#0F1F59" fill-rule="evenodd" d="M103.039 27.363c-.209.046-.178.22.445.647-.55.738-.04 1.575.176 2.653.047.23.423.58.445 2.642.554-.257.303-1.538.916-2.441.311-.459.563-.999 1.208-1.46.009.127-.371.48-.225.547.56.254 2.115-.055 2.831-.257-.202.222-.41.385-.329.462.253.242 1.814-.179 2.768-.862.252.783.553 1.287.93 1.503 1.378.412.965 2.453 1.218 2.076 1.164-1.723.527-2.94.527-2.94.121.185.257.345.352.537.173.347.217-2.879-1.298-3.264 0 0 .236-.09.85.014.225.038-.454-.576-1.174-.642-.028-.317-.194-1.588-1.119-1.979-.43-.181-1.129-.296-1.039-.243.442.26.575.63.575.63-.538-.392-.538-.43-1.215-.63 0 0-.979-.368-1.58-.368.339.17.564.437 0 .41-1.214.106-1.883.466-2.651 1.043-.677.508-.508.17-1.523.847 1.015.17-.412 1.006-1.088 1.075Z" clip-rule="evenodd"/><path fill="#0F1F59" d="m96.486 63.808.284-2.903 14.228 1.123 7.21 6.623c1.106 1.38-1.687 2.56-1.292 4.234 1.269 5.381-1.447 7.556-7.087 7.556s-12.145-1.646-13.319-7.558c-.339-1.698-.499-7.685-.024-9.075Z"/><path fill="#F0B323" d="M101.193 40.227c5.245 6.825 7.556 3.436 6.685.33l2.945.709s.581 4.59 1.502 7.418c.383 1.178-1.538.483-1.76 2.17-.23 1.744 1.501 4.039.611 4.783l-.611 6.393c-1.913 2.627-8.363.552-13.48-.443 0 0-2.654-7.893-2.89-9.346-.727-4.493 6.998-12.014 6.998-12.014Z"/><path fill="#F0B323" d="M96.466 52.608c1.06-2.017 1.401-4.84 2.388-6.272.363-.529 1.046-.585 1.467-.117l4.618 3.844c.727.806 1.429.806 2.155 0l2.114-3.844c.422-.468 1.103-.414 1.467.117.987 1.433 1.433 2.82 1.742 4.348.13.652.143 1.275 0 1.924-.143.648-.115 1.098-.507 1.634l-.869 1.974-5.951-.234-7.493.093s-1.762-2.27-1.131-3.468Z"/><path fill="#F0B323" d="m109.999 46.201-.552-5.112s6.134-.457 7.041 9.803c-1.532 1.487-2.886 1.656-4.24 1.656l-2.249-6.347Z"/><path fill="#E38A78" d="M106.731 67.953c-.159 0-.288-.28-.288-.625 0-.344.129-.624.288-.624.16 0 .289.28.289.624 0 .345-.129.625-.289.625Z"/><path fill="#0F1F59" d="M123.421 80.162c.541.135 1.692 1.524 1.523 3.388-.169 1.864-4.265 6.946-5.077 4.913-1.016-2.541-14.048-5.93-18.787-8.301-3.791-1.898-4.908-7.116-4.57-8.98.339-1.863 12.525.34 12.525.34 5.641 3.162 13.844 8.504 14.386 8.64Z"/><path fill="#E0876B" d="m115.572 59.395 4.76 9.668-2.928 1.402s-5.816-6.14-5.207-9.451l3.375-1.62ZM94.195 52.24l2.356 11.537c.124.499.732.759 1.43.617l.42-.087c1.123-.233 1.993-1.125 1.91-1.961l-1.654-12.637s.61-4.537-4.122-2.484c-2.02.872-.34 5.014-.34 5.014Z"/><path fill="#F0B323" d="M101.195 40.227c-.848 1.11-1.121 1.863-.946 3.813l-.66 3.296-.463 4.95c-2.575.631-3.392 1.104-5.497.321 0 0-1.447-7.772.729-9.878 1.974-1.914 6.837-2.502 6.837-2.502Z"/><path fill="#7E95C2" d="m117.39 79.372 15.327-2.452c1.027-.165 1.224-.69.438-1.173l-7.443-4.544c-.786-.48-2.268-.737-3.295-.573l-15.331 2.453c-1.026.164-1.224.69-.438 1.172l7.444 4.544c.788.48 2.271.737 3.298.573Z"/><path fill="#E0876B" d="m111.399 68.827 4.216 1.63a.853.853 0 0 1 .349.249c.392.47 1.539 1.849 2.738 3.337.147.182.093.99-.551.425 0 0 .408.53-.007 1.195-.049.08-.1.16-.149.235-.299.46-.88.59-1.264.276-1.177-.95-3.506-2.778-4.063-2.854-1.676-.226-2.858-1.554-3.075-1.793 0 0-.659-1.112-.037-2.037l.041-.062c.422-.623 1.187-.88 1.802-.6Z"/><path fill="#E37B66" d="M127.371 72.715s-.998-2.492-1.723-2.669c-.725-.177 1.142 3.018 1.723 2.669Z"/><path fill="#E37B66" d="M127.074 70.793s-3.627-2.978-3.588-.779c0 0 3.211 1.598 3.588.779Z"/><path fill="#E37B66" d="M128.422 73.25s-1.09-2.533-1.834-2.591c-.744-.06 1.3 2.856 1.834 2.591Z"/><path fill="#FAAA91" d="m122.707 66.918 3.515 1.87s1.985 1.94 2.774 3.26c.251.42.803.959.632 1.1-.251.206-2.371-1.85-2.371-1.85s-2.573-1.538-2.645-1.481c-.031.024-.315-.037-.418.138a.724.724 0 0 0 .16.91l.808.697s1.313 1.357.739 1.708c-.088.054-1.228-1.035-1.228-1.035l-1.703-1.205a6.175 6.175 0 0 1-.982-.867l-.605-.66a1.739 1.739 0 0 1-.131-2.181l.032-.044a1.135 1.135 0 0 1 1.423-.36Z"/><path fill="#D3D8FF" d="m115.807 79.487 17.006-1.426c1.14-.096 2.429-1.18 2.866-2.41l4.136-11.66c.437-1.23-.138-2.158-1.278-2.062l-17.002 1.426c-1.139.096-2.429 1.18-2.866 2.41l-4.135 11.66c-.442 1.23.134 2.158 1.273 2.063Z"/><path fill="#E0876B" d="M138.28 109.013c-4.319-6.055-6.862-15.202-12.464-24.384-1.546-3.47-1.382-3.112-5.289-.186 0 0-1.799 2.207-.57 4.655 5.459 10.875 12.331 16.856 16.059 22.45.751 1.121 3.012-1.263 2.264-2.535Z"/><path fill="#213378" d="m140.677 107.486 7.682 6.434s2.825 1.868-3.118 2.191c-2.815.153-7.847-2.167-7.847-2.167-2.7-.881-2.405-2.852-.716-5.328-.002.001 2.776 1.245 3.999-1.13Z"/><path fill="#DA937D" d="m140.321 107.016.952.991a.911.911 0 0 1 .224.683.902.902 0 0 1-.346.631 1.84 1.84 0 0 1-2.315-.054l-1.103-.462 2.588-1.789Z"/><path fill="#E0876B" d="m137.458 107.79 3.377 3.779a.443.443 0 0 1 .112.34.43.43 0 0 1-.053.175.43.43 0 0 1-.119.139l-1.273.99a.448.448 0 0 1-.564-.011c-2.228-1.181-3.515-2.356-4.265-3.527l2.785-1.885ZM96.874 64.267c2.239 3.438 13.059 6.837 13.059 6.837l2.981-.974-13.274-9.74-2.766 3.877Z"/><ellipse cx="4.884" cy="4.889" fill="#E11A81" rx="4.884" ry="4.889" transform="matrix(-1 0 0 1 137.75 42.701)"/><path stroke="#fff" stroke-opacity=".6" stroke-width="2.805" d="M132.866 53.881a6.29 6.29 0 0 1-6.287-6.291 6.29 6.29 0 0 1 6.287-6.291 6.289 6.289 0 0 1 6.286 6.29 6.289 6.289 0 0 1-6.286 6.292Z"/><path fill="#fff" d="M130.801 44.874a.455.455 0 0 0-.409.257.688.688 0 0 0-.509.656v2.138l.057.065s.541.629 1.32.741v.478a1.377 1.377 0 0 0 2.755 0v-1.141c0-.255.203-.456.46-.456.256 0 .459.201.459.456v.043a.686.686 0 0 0-.459.641.69.69 0 0 0 .688.685.69.69 0 0 0 .689-.685.688.688 0 0 0-.459-.641v-.043a.918.918 0 0 0-1.837 0v1.14a.913.913 0 0 1-.918.913.912.912 0 0 1-.918-.912v-.478c.779-.112 1.32-.742 1.32-.742l.057-.064v-2.138a.688.688 0 0 0-.509-.656.45.45 0 0 0-.409-.257.46.46 0 0 0-.459.456.455.455 0 0 0 .459.457c.15 0 .282-.073.366-.186a.226.226 0 0 1 .093.186v1.953c-.083.083-.571.556-1.148.556s-1.065-.473-1.148-.556v-1.953c0-.078.036-.145.093-.186a.455.455 0 0 0 .691.052.455.455 0 0 0-.325-.779Zm4.362 3.65c.13 0 .23.1.23.228a.226.226 0 0 1-.23.229.226.226 0 0 1-.229-.229c0-.128.1-.228.229-.228Z"/><ellipse cx="4.884" cy="4.889" fill="#1E7B6F" rx="4.884" ry="4.889" transform="matrix(-1 0 0 1 152.637 46.66)"/><path stroke="#fff" stroke-opacity=".6" stroke-width="2.805" d="M147.753 57.84a6.289 6.289 0 0 1-6.287-6.292 6.289 6.289 0 0 1 6.287-6.291 6.289 6.289 0 0 1 6.286 6.29 6.289 6.289 0 0 1-6.286 6.292Z"/><g fill="#fff" clip-path="url(#b)"><path d="M147.487 51.026a.159.159 0 0 0-.139-.121.153.153 0 0 0-.15.102l-.435 1.085h-.121a.172.172 0 1 0 0 .343h.221c.061 0 .117-.04.141-.102l.309-.769.354 1.278a.16.16 0 0 0 .139.12.155.155 0 0 0 .151-.1l.327-.817.102.282c.023.066.08.108.143.108h.34a.172.172 0 1 0 0-.343h-.235l-.199-.552a.157.157 0 0 0-.141-.108.154.154 0 0 0-.144.102l-.308.77-.355-1.278Z"/><path fill-rule="evenodd" d="M145.699 53.349c0 .284.23.514.514.514h3.085c.284 0 .514-.23.514-.514V50.51l-.002-.007a.25.25 0 0 0-.013-.066l-.002-.007-.002-.004a.237.237 0 0 0-.056-.089l-1.542-1.544a.26.26 0 0 0-.093-.058l-.007-.002a.253.253 0 0 0-.074-.015.028.028 0 0 0-.008-.002h-1.8a.514.514 0 0 0-.514.515v4.117Zm.514 0v-4.117h1.543v1.286c0 .142.115.258.257.258h1.285v2.573h-3.085Zm2.057-3.088v-.665l.665.665h-.665Z" clip-rule="evenodd"/></g><ellipse cx="4.884" cy="4.889" fill="#5E74B8" rx="4.884" ry="4.889" transform="matrix(-1 0 0 1 158.453 60.398)"/><path stroke="#fff" stroke-opacity=".6" stroke-width="2.805" d="M153.569 71.577a6.289 6.289 0 0 1-6.286-6.29 6.289 6.289 0 0 1 6.286-6.292 6.29 6.29 0 0 1 6.287 6.291 6.29 6.29 0 0 1-6.287 6.291Z"/><g clip-path="url(#c)"><path fill="#fff" d="M151.75 67.104h3.635a.455.455 0 0 0 .455-.455v-2.75a.455.455 0 0 0-.455-.434h-3.635a.455.455 0 0 0-.455.455v2.729c0 .251.204.455.455.455Zm3.635-2.76v2.305h-3.635v-2.304l1.818 1.212 1.817-1.212Zm-.181-.424-1.636 1.091-1.636-1.091h3.272Z"/></g><path stroke="url(#d)" stroke-dasharray="1.87 1.87" stroke-width="1.87" d="m133.914 54.535.814 13.58"/><path stroke="url(#e)" stroke-dasharray="1.87 1.87" stroke-width="1.87" d="m135.067 68.437 8.476-11.457"/><path stroke="url(#f)" stroke-dasharray="1.87 1.87" stroke-width="1.87" d="m134.624 68.452 12.72-2.103"/><path fill="#7E95C2" d="m116.652 79.417 17.006-1.427c1.139-.095 2.429-1.18 2.865-2.41l4.136-11.659c.436-1.23-.138-2.158-1.279-2.063l-17.003 1.428c-1.14.096-2.429 1.18-2.866 2.41l-4.135 11.66c-.439 1.229.137 2.157 1.276 2.061Z"/><path stroke="#DCDEFF" stroke-linecap="round" stroke-linejoin="round" stroke-width="1.108" d="M128.348 71.196c.241.225.706.118 1.038-.239.333-.357.406-.829.165-1.054-.242-.225-.707-.118-1.039.24-.332.356-.406.828-.164 1.053Z"/><path fill="#122870" d="m139.159 109.64 7.791 6.217s2.819 1.902-3.1 2.245c-1.324.077-3.141-.407-4.691-.941-1.734-.596-3.134-1.253-3.134-1.253-2.692-.894-2.88-3.512-1.206-6.046 0 0 3.128 2.208 4.34-.222Z"/><defs><linearGradient id="d" x1="133.415" x2="134.231" y1="54.565" y2="68.145" gradientUnits="userSpaceOnUse"><stop stop-color="#fff"/><stop offset=".527" stop-color="#fff" stop-opacity="0"/></linearGradient><linearGradient id="e" x1="143.951" x2="133.978" y1="57.538" y2="67.019" gradientUnits="userSpaceOnUse"><stop stop-color="#fff"/><stop offset=".337" stop-color="#fff" stop-opacity="0"/></linearGradient><linearGradient id="f" x1="147.615" x2="134.455" y1="66.892" y2="68.112" gradientUnits="userSpaceOnUse"><stop stop-color="#fff"/><stop offset=".398" stop-color="#fff" stop-opacity="0"/></linearGradient><clipPath id="a"><path fill="#fff" d="M19.73 5.115h48.812V96.51H19.73z"/></clipPath><clipPath id="b"><path fill="#fff" d="M150.293 48.475h-6.169v6.175h6.169z"/></clipPath><clipPath id="c"><path fill="#fff" d="M156.16 63.226h-4.884v4.89h4.884z"/></clipPath></defs></svg>