<svg width="200" height="200" viewBox="0 0 200 200" fill="none" xmlns="http://www.w3.org/2000/svg">
<path fill-rule="evenodd" clip-rule="evenodd" d="M18.6115 126.716C14.3402 103.971 2.28718 77.209 18.5465 60.7343C35.3757 43.682 64.808 48.1255 86.8383 57.5851C104.726 65.266 111.642 85.0903 118.045 103.458C123.195 118.23 124.046 133.477 118.377 148.053C112.073 164.261 102.922 181.355 86.0633 185.683C68.9758 190.069 52.0621 180.095 38.7816 168.485C26.5294 157.774 21.6131 142.7 18.6115 126.716Z" fill="#A0B2EC" fill-opacity="0.16"/>
<path d="M167.525 32.6974C179.02 47.2864 186.702 65.8133 189.235 84.0623C194.208 119.91 166.435 155.648 129.351 163.799C111.903 167.633 92.4127 163.435 81.2781 150.084C73.0368 140.204 72.6109 127.152 76.9573 115.201C80.6236 105.121 87.5326 96.4919 91.9935 86.7575C98.8142 71.8754 97.3393 56.4645 101.201 41.1461C103.317 32.7482 108.109 23.2985 116.059 18.4631C123.606 13.8722 133.211 12.8295 141.589 14.8726C152.164 17.4509 160.983 24.3951 167.525 32.6974Z" fill="#A0B2EC" fill-opacity="0.16"/>
<path d="M163 91.0453L163 163.856C163 167.832 159.777 171.056 155.8 171.056L44.2 171.056C40.2235 171.056 37 167.832 37 163.856L37 76.6453C37 72.6689 40.2235 69.4453 44.2 69.4453L72.9543 69.4453C76.9307 69.4453 80.1543 72.6689 80.1543 76.6453L80.1543 80.2453C80.1543 82.2335 81.7661 83.8453 83.7543 83.8453L155.8 83.8453C159.777 83.8453 163 87.0689 163 91.0453Z" fill="#F0B323"/>
<path d="M163 91.0453L163 163.856C163 167.832 159.777 171.056 155.8 171.056L44.2 171.056C40.2235 171.056 37 167.832 37 163.856L37 76.6453C37 72.6689 40.2235 69.4453 44.2 69.4453L72.9543 69.4453C76.9307 69.4453 80.1543 72.6689 80.1543 76.6453L80.1543 80.2453C80.1543 82.2335 81.7661 83.8453 83.7543 83.8453L155.8 83.8453C159.777 83.8453 163 87.0689 163 91.0453Z" fill="black" fill-opacity="0.2"/>
<g filter="url(#filter0_d_1171_37439)">
<path d="M60.0082 171H140.992C145.415 171 149 167.418 149 163V39C149 34.5817 145.415 31 140.992 31H60.0082C55.5854 31 52 34.5817 52 39V163C52 167.418 55.5854 171 60.0082 171Z" fill="white"/>
</g>
<rect x="108" y="41" width="31" height="8" rx="4" fill="#F0B323"/>
<rect x="108" y="58" width="31" height="6" rx="3" fill="#BDCCF8"/>
<rect x="108" y="73" width="11" height="6" rx="3" fill="#BDCCF8"/>
<circle cx="82" cy="61" r="20" fill="#F9FAFF"/>
<path d="M81.2333 65.4H84.1667C84.7501 65.4 85.3097 65.1682 85.7223 64.7556C86.1349 64.3431 86.3667 63.7835 86.3667 63.2C86.3667 62.6165 86.1349 62.0569 85.7223 61.6444C85.3097 61.2318 84.7501 61 84.1667 61H79.0333C78.8388 61 78.6523 61.0773 78.5148 61.2148C78.3773 61.3523 78.3 61.5388 78.3 61.7333C78.3 61.9278 78.3773 62.1144 78.5148 62.2519C78.6523 62.3894 78.8388 62.4667 79.0333 62.4667H84.1667C84.3612 62.4667 84.5477 62.5439 84.6852 62.6815C84.8227 62.819 84.9 63.0055 84.9 63.2C84.9 63.3945 84.8227 63.581 84.6852 63.7185C84.5477 63.8561 84.3612 63.9333 84.1667 63.9333H81.2333C80.6499 63.9333 80.0903 64.1651 79.6777 64.5777C79.2651 64.9903 79.0333 65.5499 79.0333 66.1333C79.0333 66.7168 79.2651 67.2764 79.6777 67.689C80.0903 68.1015 80.6499 68.3333 81.2333 68.3333H84.1667C84.3612 68.3333 84.5477 68.2561 84.6852 68.1185C84.8227 67.981 84.9 67.7945 84.9 67.6C84.9 67.4055 84.8227 67.219 84.6852 67.0815C84.5477 66.9439 84.3612 66.8667 84.1667 66.8667H81.2333C81.0388 66.8667 80.8523 66.7894 80.7148 66.6519C80.5773 66.5144 80.5 66.3278 80.5 66.1333C80.5 65.9388 80.5773 65.7523 80.7148 65.6148C80.8523 65.4773 81.0388 65.4 81.2333 65.4Z" fill="#F0B323"/>
<path d="M83.0667 59.5333C83.6868 59.5331 84.2909 59.3364 84.7922 58.9715C85.2935 58.6065 85.6663 58.0921 85.857 57.502C85.9432 57.2402 86.1097 57.0121 86.3328 56.8502C86.5559 56.6883 86.8243 56.6008 87.1 56.6H93.6487C93.4723 57.822 92.8614 58.9394 91.928 59.7475C90.9947 60.5557 89.8013 61.0003 88.5667 61C88.3722 61 88.1856 61.0773 88.0481 61.2148C87.9106 61.3523 87.8333 61.5388 87.8333 61.7333C87.8333 61.9278 87.9106 62.1144 88.0481 62.2519C88.1856 62.3894 88.3722 62.4667 88.5667 62.4667C90.3171 62.4667 91.9958 61.7713 93.2336 60.5336C94.4713 59.2958 95.1667 57.6171 95.1667 55.8667C95.1667 55.6722 95.0894 55.4856 94.9519 55.3481C94.8144 55.2106 94.6278 55.1333 94.4333 55.1333H87.1C86.4799 55.1335 85.8758 55.3302 85.3745 55.6952C84.8731 56.0601 84.5003 56.5746 84.3097 57.1647C84.2234 57.4265 84.057 57.6545 83.8338 57.8164C83.6107 57.9783 83.3423 58.0659 83.0667 58.0667H81.6C81.3243 58.0659 81.0559 57.9783 80.8328 57.8164C80.6097 57.6545 80.4432 57.4265 80.357 57.1647C80.1663 56.5746 79.7935 56.0601 79.2922 55.6952C78.7909 55.3302 78.1868 55.1335 77.5667 55.1333H70.2333C70.0388 55.1333 69.8523 55.2106 69.7148 55.3481C69.5773 55.4856 69.5 55.6722 69.5 55.8667C69.5 57.6171 70.1954 59.2958 71.4331 60.5336C72.6708 61.7713 74.3496 62.4667 76.1 62.4667C76.2945 62.4667 76.481 62.3894 76.6185 62.2519C76.7561 62.1144 76.8333 61.9278 76.8333 61.7333C76.8333 61.5388 76.7561 61.3523 76.6185 61.2148C76.481 61.0773 76.2945 61 76.1 61C74.8654 61.0003 73.672 60.5557 72.7386 59.7475C71.8052 58.9394 71.1944 57.822 71.018 56.6H77.5667C77.8423 56.6008 78.1107 56.6883 78.3338 56.8502C78.557 57.0121 78.7234 57.2402 78.8097 57.502C79.0003 58.0921 79.3731 58.6065 79.8745 58.9715C80.3758 59.3364 80.9799 59.5331 81.6 59.5333H83.0667Z" fill="#F0B323"/>
<path d="M82.3333 72C82.1388 72 81.9523 71.9227 81.8148 71.7852C81.6773 71.6477 81.6 71.4612 81.6 71.2667V53.6667C81.6 53.4722 81.6773 53.2856 81.8148 53.1481C81.9523 53.0106 82.1388 52.9333 82.3333 52.9333C82.5278 52.9333 82.7144 53.0106 82.8519 53.1481C82.9894 53.2856 83.0667 53.4722 83.0667 53.6667V71.2667C83.0667 71.4612 82.9894 71.6477 82.8519 71.7852C82.7144 71.9227 82.5278 72 82.3333 72Z" fill="#F0B323"/>
<path d="M82.3333 53.6667C81.9707 53.6667 81.6163 53.5591 81.3148 53.3577C81.0133 53.1562 80.7783 52.8699 80.6396 52.5349C80.5008 52.1999 80.4645 51.8313 80.5352 51.4757C80.606 51.12 80.7806 50.7934 81.037 50.537C81.2934 50.2806 81.62 50.106 81.9757 50.0352C82.3313 49.9645 82.6999 50.0008 83.0349 50.1396C83.3699 50.2783 83.6562 50.5133 83.8577 50.8148C84.0591 51.1163 84.1667 51.4707 84.1667 51.8333C84.1667 52.3196 83.9735 52.7859 83.6297 53.1297C83.2859 53.4735 82.8196 53.6667 82.3333 53.6667ZM82.3333 51.0476C82.1779 51.0476 82.026 51.0937 81.8968 51.18C81.7676 51.2664 81.6669 51.3891 81.6074 51.5327C81.548 51.6762 81.5324 51.8342 81.5627 51.9866C81.593 52.139 81.6679 52.279 81.7777 52.3889C81.8876 52.4988 82.0276 52.5736 82.18 52.6039C82.3325 52.6343 82.4904 52.6187 82.634 52.5592C82.7776 52.4998 82.9003 52.3991 82.9866 52.2699C83.073 52.1406 83.119 51.9887 83.119 51.8333C83.119 51.6249 83.0363 51.4251 82.8889 51.2777C82.7416 51.1304 82.5417 51.0476 82.3333 51.0476Z" fill="#F0B323"/>
<rect x="62" y="91" width="12" height="8" rx="4" fill="#A05BB6"/>
<rect x="62" y="107" width="12" height="8" rx="4" fill="#A05BB6"/>
<rect x="79" y="92" width="60" height="6" rx="3" fill="#BDCCF8"/>
<rect x="79" y="108" width="31" height="6" rx="3" fill="#BDCCF8"/>
<rect x="62" y="125" width="77" height="29" rx="2.54129" fill="#F9FAFF"/>
<path d="M70 143H77.5982C77.9909 143 78.3473 142.77 78.5092 142.412L81.1588 136.558C81.5166 135.767 82.6427 135.776 82.9875 136.573L88.209 148.632C88.5718 149.47 89.7758 149.423 90.0724 148.56L91.7501 143.675C91.8888 143.271 92.2688 143 92.6959 143H95.7643C96.141 143 96.4858 142.788 96.6562 142.452L101.945 132.027C102.339 131.251 103.467 131.313 103.773 132.127L109.272 146.752C109.585 147.584 110.747 147.625 111.117 146.816L112.598 143.584C112.76 143.228 113.116 143 113.507 143H117.746C118.123 143 118.468 142.788 118.638 142.452L120.766 138.258C121.136 137.528 122.179 137.528 122.549 138.258L124.677 142.452C124.848 142.788 125.192 143 125.569 143H131" stroke="#A05BB6" stroke-width="2.5" stroke-linecap="round"/>
<path d="M36.9997 91.0453L36.9997 163.856C36.9997 167.832 40.2233 171.056 44.1997 171.056L155.8 171.056C159.776 171.056 163 167.832 163 163.856L163 76.6453C163 72.6689 159.776 69.4453 155.8 69.4453L137.228 69.4453C135.318 69.4453 133.487 70.2039 132.137 71.5541L120.9 82.7909C120.225 83.466 119.309 83.8453 118.355 83.8453L44.1997 83.8453C40.2233 83.8453 36.9997 87.0689 36.9997 91.0453Z" fill="#F0B323"/>
<path d="M124.8 126.801C124.8 140.056 114.055 150.801 100.8 150.801C87.545 150.801 76.7998 140.056 76.7998 126.801C76.7998 113.546 87.545 102.801 100.8 102.801C114.055 102.801 124.8 113.546 124.8 126.801Z" fill="#F0B323"/>
<path fill-rule="evenodd" clip-rule="evenodd" d="M129.6 126.8C129.6 142.706 116.706 155.6 100.8 155.6C84.8942 155.6 72 142.706 72 126.8C72 110.894 84.8942 98 100.8 98C116.706 98 129.6 110.894 129.6 126.8ZM100.8 150.8C114.055 150.8 124.8 140.055 124.8 126.8C124.8 113.545 114.055 102.8 100.8 102.8C87.5452 102.8 76.8 113.545 76.8 126.8C76.8 140.055 87.5452 150.8 100.8 150.8Z" fill="#FDF0D3"/>
<rect x="98.7998" y="114.801" width="4" height="24" rx="2" fill="#FDF0D3"/>
<rect x="112.8" y="124.801" width="4" height="24" rx="2" transform="rotate(90 112.8 124.801)" fill="#FDF0D3"/>
<defs>
<filter id="filter0_d_1171_37439" x="37.041" y="23.5205" width="126.918" height="169.918" filterUnits="userSpaceOnUse" color-interpolation-filters="sRGB">
<feFlood flood-opacity="0" result="BackgroundImageFix"/>
<feColorMatrix in="SourceAlpha" type="matrix" values="0 0 0 0 0 0 0 0 0 0 0 0 0 0 0 0 0 0 127 0" result="hardAlpha"/>
<feOffset dy="7.47951"/>
<feGaussianBlur stdDeviation="7.47951"/>
<feColorMatrix type="matrix" values="0 0 0 0 0.0470588 0 0 0 0 0.254902 0 0 0 0 0.603922 0 0 0 0.1 0"/>
<feBlend mode="normal" in2="BackgroundImageFix" result="effect1_dropShadow_1171_37439"/>
<feBlend mode="normal" in="SourceGraphic" in2="effect1_dropShadow_1171_37439" result="shape"/>
</filter>
</defs>
</svg>
