<svg width="65" height="64" viewBox="0 0 65 64" fill="none" xmlns="http://www.w3.org/2000/svg">
    <path
        d="M52.2444 41.3883C46.1704 45.2899 38.7494 47.6657 31.6525 48.1293C17.7117 49.0391 5.19753 37.7435 3.64381 23.7029C2.91308 17.097 5.34505 9.94126 10.9297 6.14175C15.0623 3.32949 20.0794 3.51451 24.4733 5.44977C28.1792 7.08217 31.1921 9.88527 34.7319 11.8048C40.1437 14.7397 46.1088 14.5958 51.8128 16.439C54.9398 17.4493 58.3567 19.4847 59.8726 22.576C61.3119 25.5105 61.3051 29.1188 60.1683 32.1887C58.7336 36.0632 55.7009 39.1682 52.2444 41.3883Z"
        fill="#A0B2EC" fill-opacity="0.16" />
    <path
        d="M52.2631 26.6553C50.3175 24.2574 47.2007 22.9022 44.001 22.6253C41.9698 22.4497 39.8393 22.6929 37.9824 23.6105C34.9383 25.1153 33.0686 28.1463 30.6985 30.546C27.8646 33.4155 24.2477 35.4232 21.0777 37.9423C17.9082 40.4611 15.0354 43.8208 14.7317 47.6943C14.5507 49.9961 15.3188 52.2688 16.6159 54.1417C19.1431 57.7911 23.6365 59.9325 28.2618 60.1833C41.3468 60.8927 53.2913 48.8059 54.5929 36.7108C54.9729 33.1778 54.4903 29.4003 52.2631 26.6553Z"
        fill="#A0B2EC" fill-opacity="0.16" />
    <path
        d="M49.7682 39.538C49.7682 39.538 50.7076 13.9863 32.2953 13.9863C13.8831 13.9863 14.8225 39.538 14.8225 39.538"
        stroke="#F0B323" stroke-width="2.88245" stroke-linecap="round" />
    <ellipse cx="14.6872" cy="38.5986" rx="1.50304" ry="2.8182"
        transform="rotate(5 14.6872 38.5986)" fill="#F0B323" />
    <ellipse cx="49.8211" cy="38.5984" rx="1.50304" ry="2.8182"
        transform="rotate(-4.99999 49.8211 38.5984)" fill="#F0B323" />
    <path
        d="M26.8788 18.9065C26.7022 18.8173 26.5518 18.6839 26.442 18.5193C26.3323 18.3547 26.267 18.1645 26.2525 17.9672L26.2506 17.9372L23.9787 18.0843L23.9806 18.1143C23.9917 18.3118 23.9515 18.5088 23.8639 18.6862C23.7763 18.8636 23.6443 19.0152 23.4807 19.1265C22.8361 19.5755 22.2501 20.3949 21.7319 21.6417C21.6263 21.8979 21.5811 22.175 21.5997 22.4515L21.6822 23.7253L29.2552 23.235L29.1728 21.9613C29.1556 21.6847 29.0751 21.4157 28.9373 21.1752C28.2627 20.0057 27.5759 19.2686 26.8788 18.9065Z"
        fill="#CCECFF" />
    <path
        d="M29.2516 28.0992C29.2277 28.1855 29.2372 28.2776 29.2781 28.3573C29.2969 28.3933 29.3222 28.4254 29.3527 28.4522C29.412 28.508 29.4565 28.5778 29.482 28.6551C29.5075 28.7325 29.5133 28.815 29.4988 28.8952L29.4616 29.1304C29.4366 29.3044 29.3611 29.4672 29.2444 29.5987L29.4989 33.5312C29.7603 33.6862 29.9525 34.0113 29.9775 34.3984L30.0992 36.2782C30.1489 37.0452 29.7007 37.6986 29.0978 37.7376L23.7075 38.0866C23.1046 38.1256 22.5759 37.5354 22.5262 36.7684L22.4045 34.8886C22.3795 34.5016 22.5281 34.1544 22.7673 33.9669L22.5128 30.0344C22.3801 29.9191 22.2842 29.7674 22.2369 29.5981L22.1698 29.3697C22.1451 29.292 22.1401 29.2094 22.1555 29.1294C22.1708 29.0494 22.2059 28.9745 22.2576 28.9115C22.2845 28.881 22.3054 28.8457 22.3193 28.8074C22.3496 28.7232 22.347 28.6308 22.3122 28.5484C22.2889 28.4886 22.2455 28.4389 22.1895 28.4076C22.0644 28.3422 21.971 28.192 21.9593 28.0106L21.902 27.1258C21.8752 26.7123 22.1169 26.3599 22.4421 26.3389L28.838 25.9248C29.1632 25.9038 29.4483 26.222 29.475 26.6356L29.5323 27.5204C29.544 27.7017 29.4708 27.8628 29.3552 27.9438C29.3037 27.982 29.267 28.0369 29.2516 28.0992Z"
        fill="#CCECFF" />
    <path
        d="M29.4111 23.0587L29.618 26.2537C29.6237 26.391 29.5748 26.5251 29.4818 26.6264C29.3888 26.7277 29.2595 26.788 29.1221 26.794L22.2698 27.2376C22.1328 27.2493 21.9967 27.2062 21.8914 27.1177C21.7862 27.0293 21.7203 26.9027 21.7083 26.7657L21.5015 23.5707C21.4958 23.4333 21.5447 23.2993 21.6377 23.198C21.7307 23.0967 21.86 23.0364 21.9974 23.0303L28.8497 22.5868C28.9867 22.575 29.1228 22.6181 29.228 22.7066C29.3333 22.7951 29.3991 22.9217 29.4111 23.0587Z"
        fill="#A0B2EC" />
    <path
        d="M23.9537 16.4397L26.0617 16.3032C26.1727 16.2961 26.282 16.3333 26.3656 16.4067C26.4491 16.4801 26.5001 16.5837 26.5073 16.6946L26.5579 17.4761C26.5619 17.5372 26.5414 17.5974 26.5009 17.6435C26.4605 17.6895 26.4034 17.7176 26.3423 17.7215L23.8583 17.8823C23.7971 17.8863 23.7369 17.8658 23.6909 17.8254C23.6449 17.7849 23.6168 17.7279 23.6128 17.6667L23.5622 16.8853C23.5551 16.7743 23.5923 16.665 23.6657 16.5814C23.7391 16.4979 23.8427 16.4469 23.9537 16.4397Z"
        fill="#24498B" />
    <path d="M26.2368 17.7279L23.9648 17.875L23.9785 18.0854L26.2504 17.9383L26.2368 17.7279Z"
        fill="#19355E" />
    <path
        d="M19.8548 47.2352C17.8074 48.0862 16.2496 47.0892 16.3439 45.17C16.4347 43.2882 17.5813 41.7339 18.7332 40.0461C21.3307 36.2433 30.2717 23.9303 33.3802 20.3945C34.1974 19.4651 35.319 18.5233 36.7931 18.4023C37.8435 18.3168 38.853 18.9471 39.0613 19.9138C39.2465 20.7666 39.0809 22.1838 38.5254 23.0241C35.7659 27.1937 27.0261 39.1488 24.0458 43.1885C22.9918 44.5825 21.5176 46.4341 19.8548 47.2352Z"
        fill="#F0B323" />
    <path
        d="M20.9471 42.2829C21.5435 43.5968 21.1109 45.4715 20.7673 45.6994C20.4237 45.9273 20.3008 44.4175 19.7044 43.1036C19.108 41.7897 19.5406 39.915 19.8842 39.6871C20.2278 39.4592 20.3507 40.969 20.9471 42.2829ZM23.8117 38.4426C24.4081 39.7565 23.9755 41.6313 23.6319 41.8592C23.2883 42.087 23.1654 40.5773 22.569 39.2634C21.9726 37.9495 22.4052 36.0748 22.7488 35.8469C23.0907 35.6208 23.2135 37.1287 23.8117 38.4426ZM26.6745 34.6042C27.2709 35.9181 26.8383 37.7928 26.4947 38.0207C26.1511 38.2468 26.0283 36.7388 25.4318 35.4249C24.8354 34.111 25.268 32.2363 25.6116 32.0084C25.9553 31.7823 26.0781 33.2903 26.6745 34.6042ZM29.5391 30.7639C30.1355 32.0778 29.7029 33.9526 29.3593 34.1805C29.0157 34.4066 28.8929 32.8986 28.2964 31.5847C27.7 30.2708 28.1326 28.3961 28.4762 28.1682C28.8181 27.9421 28.9427 29.45 29.5391 30.7639ZM32.4019 26.9255C32.9984 28.2394 32.5657 30.1141 32.2221 30.342C31.8785 30.5681 31.7557 29.0601 31.1593 27.7462C30.5628 26.4323 30.9955 24.5576 31.3391 24.3297C31.6827 24.1036 31.8055 25.6116 32.4019 26.9255ZM35.2665 23.0852C35.863 24.3991 35.4303 26.2739 35.0867 26.5018C34.7431 26.7279 34.6203 25.2199 34.0239 23.906C33.4274 22.5921 33.8601 20.7174 34.2037 20.4895C34.5455 20.2634 34.6701 21.7713 35.2665 23.0852Z"
        fill="#FBC21A" />
    <g clip-path="url(#clip0_24825_4173)">
        <path
            d="M45.8032 21.7821L47.7027 24.4233C47.7027 24.4233 48.4235 24.2339 49.119 24.8202C49.8114 25.4046 52.4603 29.8487 50.8788 34.1504C48.8131 39.7647 45.8017 38.5008 45.8017 38.5008L45.0568 37.7987C45.0568 37.7987 45.4091 36.5418 46.0868 35.4912C46.767 34.4399 48.3369 32.8292 47.2799 29.4085C46.2229 25.9877 46.5184 26.2784 46.3371 25.8089C46.0839 25.1586 46.5559 24.8623 46.5559 24.8623L45.0793 21.9463L45.8057 21.7816L45.8032 21.7821Z"
            fill="#E8BE17" />
        <path
            d="M50.2333 33.9108C51.8764 29.8803 49.3082 25.7809 48.6245 25.2464C47.9407 24.7119 47.2194 24.8988 47.2194 24.8988L45.7886 21.7754L45.0589 21.9487L46.5479 24.8618C46.5479 24.8618 46.0752 25.1557 46.329 25.8084C46.5134 26.2799 46.2172 25.9867 47.2718 29.408C48.3264 32.8293 46.7564 34.4401 46.0787 35.4907C45.3985 36.542 45.0487 37.7982 45.0487 37.7982L45.3799 38.1094C46.166 38.2422 48.479 38.2128 50.2328 33.9084L50.2333 33.9108Z"
            fill="#FFE342" />
        <path
            d="M43.8031 25.9999C42.4635 26.6122 43.3627 29.2236 40.1739 31.4555C36.4175 34.0858 34.7337 34.6595 34.3665 35.282C33.9988 35.902 33.3313 36.6678 33.3313 36.6678L33.6539 37.9764C33.6539 37.9764 34.227 37.6934 34.6506 37.8774C35.0748 38.0637 35.3815 38.4038 37.0829 38.0439C38.7842 37.6839 44.1405 35.93 45.8265 31.6565C47.3473 27.8041 46.3653 26.0566 45.8948 25.7796C45.4243 25.5026 45.3725 25.6155 45.2761 25.4066C45.1772 25.1983 44.2696 21.64 44.2696 21.64L43.3389 22.03C43.3389 22.03 44.4345 25.6208 43.8044 25.9944L43.8031 25.9999Z"
            fill="#E8BE17" />
        <path
            d="M47.9255 26.2008C47.6621 25.8017 47.3226 25.3628 46.807 25.2283C46.2386 24.201 45.0474 21.8839 45.0714 21.8189L44.2546 21.9264L45.2372 25.6336C44.9152 25.9088 44.9492 26.2407 44.9382 26.7383C44.9237 27.4597 45.3777 28.7903 43.3303 31.8911C40.8372 35.6659 38.9641 36.2358 38.1666 37.4407C37.8153 37.974 37.1777 38.6215 37.2802 39.1531C37.4324 39.9378 37.3345 40.0637 39.6729 40.044C40.8626 40.0335 43.6091 39.071 46.8897 34.8999C50.1722 30.7258 48.3131 26.7948 47.9236 26.2039L47.9255 26.2008Z"
            fill="#E8BE17" />
        <path
            d="M46.3095 33.9036C48.1719 31.5343 48.0715 29.2032 47.8794 27.7872C47.7465 26.8141 47.4342 25.4488 46.4829 25.3042C46.0356 24.1172 45.3074 22.294 45.1099 21.8099L44.2991 21.9212L45.2395 25.6354C44.9174 25.9107 44.9514 26.2426 44.9404 26.7402C44.926 27.4616 45.38 28.7922 43.3326 31.893C40.8394 35.6677 37.3866 38.0555 37.1546 38.4658C37.6833 39.1133 38.6032 38.9824 39.4126 38.8766C40.5925 38.7205 43.0325 38.0791 46.3131 33.9079L46.3095 33.9036Z"
            fill="#FFE342" />
        <path
            d="M44.2658 21.6369L43.3367 22.0342C43.3367 22.0342 43.6418 23.072 43.7329 23.5309C43.8241 23.9899 43.9259 24.5526 43.9259 24.5526C44.0298 25.2498 44.041 25.8564 43.8023 25.9987C42.4627 26.611 43.362 29.2224 40.1732 31.4543C36.4167 34.0846 35.6483 34.0074 34.8324 34.6876C34.0165 35.3678 33.3117 36.6294 33.3117 36.6294L33.4024 36.881C33.7465 36.9533 34.1039 36.9138 34.9975 36.7241C36.6989 36.3641 41.9297 34.1254 43.6611 29.8701C44.2321 28.4625 45.0828 27.1393 44.666 25.8703C45.3306 24.9781 44.2653 21.6344 44.2653 21.6344L44.2658 21.6369Z"
            fill="#FFE342" />
        <path
            d="M44.8255 31.5092C44.583 31.4528 45.3332 30.676 45.6767 29.403C46.042 28.1355 45.8027 27.0802 46.0398 27.1586C46.258 27.2103 46.8664 28.3685 46.501 29.636C46.1576 30.909 45.0402 31.5798 44.8255 31.5092Z"
            fill="#FFEF94" />
        <path
            d="M41.8086 30.8402C41.71 30.7693 42.2699 30.2457 42.6648 29.5184C43.0777 28.7559 43.2746 27.8609 43.412 27.8635C43.6378 27.8693 43.5693 29.1603 43.1161 29.9267C42.6629 30.6931 41.9809 30.9852 41.8105 30.8372L41.8086 30.8402Z"
            fill="#FFEF94" />
        <path
            d="M33.6934 37.9949C33.8073 37.9691 33.8255 37.6214 33.734 37.2183C33.6426 36.8153 33.4762 36.5095 33.3624 36.5353C33.2485 36.5611 33.2304 36.9088 33.3218 37.3118C33.4132 37.7149 33.5796 38.0207 33.6934 37.9949Z"
            fill="#4B3925" />
        <path
            d="M37.5745 39.8275C37.7155 39.7956 37.7556 39.4429 37.6642 39.0398C37.5728 38.6368 37.3845 38.3359 37.2435 38.3679C37.1025 38.3999 37.0624 38.7525 37.1538 39.1556C37.2452 39.5587 37.4336 39.8595 37.5745 39.8275Z"
            fill="#4B3925" />
        <path
            d="M45.6758 37.9002C45.8652 38.1321 45.9275 38.3953 45.8168 38.4878C45.7062 38.5803 45.4607 38.4649 45.2714 38.233C45.0821 38.0012 45.0198 37.7379 45.1304 37.6454C45.241 37.5529 45.4865 37.6684 45.6758 37.9002Z"
            fill="#4B3925" />
        <path
            d="M43.3984 22.0422L44.2345 21.6621L44.3106 21.8901L44.2345 21.9028L45.0706 21.8901L45.2227 22.1182L44.3106 22.1942L44.2345 21.9028L43.3984 22.0422Z"
            fill="#512700" />
        <path d="M45.8307 21.8141L45.2227 21.9028L45.2987 22.1182L45.9068 21.9028L45.8307 21.8141Z"
            fill="#512700" />
        <path
            d="M44.2345 21.9028L44.3106 21.8901L44.2345 21.6621L43.3984 22.0422L44.2345 21.9028ZM44.2345 21.9028L44.3106 22.1942L45.2227 22.1182L45.0706 21.8901L44.2345 21.9028ZM45.2227 21.9028L45.8307 21.8141L45.9068 21.9028L45.2987 22.1182L45.2227 21.9028Z"
            stroke="#512700" stroke-width="0.401425" />
    </g>
    <path
        d="M45.9452 33.8423C46.8409 32.6697 48.5698 32.5683 49.5965 33.628C50.6232 34.6878 50.4671 36.4125 49.2667 37.2707L38.6991 44.8257C38.5119 44.9595 38.255 44.9363 38.0949 44.771C37.9347 44.6057 37.9196 44.3482 38.0593 44.1653L45.9452 33.8423Z"
        fill="#FF9800" />
    <mask id="mask0_24825_4173" style="mask-type:alpha" x="37" y="32" width="14" height="13">
        <path
            d="M45.9452 33.8423C46.8409 32.6697 48.5698 32.5683 49.5965 33.628C50.6232 34.6878 50.4671 36.4125 49.2667 37.2707L38.6991 44.8257C38.5119 44.9595 38.255 44.9363 38.0949 44.771C37.9347 44.6057 37.9196 44.3482 38.0593 44.1653L45.9452 33.8423Z"
            fill="#FF9800" />
    </mask>
    <g mask="url(#mask0_24825_4173)">
        <path
            d="M49.0556 36.4945C48.9308 36.4 48.1578 35.4374 47.7118 34.6929C47.2657 33.9485 46.6942 33.1375 46.8182 33.2311C46.9431 33.3256 47.716 34.2882 48.1621 35.0327C48.6082 35.7771 49.1798 36.588 49.0556 36.4945Z"
            fill="#FBC21A" />
        <path
            d="M47.3845 37.5842C47.2668 37.4997 46.5536 36.6189 46.1494 35.9318C45.7452 35.2447 45.2217 34.4995 45.3385 34.5833C45.4561 34.6678 46.1694 35.5486 46.5736 36.2357C46.9778 36.9228 47.5015 37.6679 47.3845 37.5842Z"
            fill="#FBC21A" />
        <path
            d="M45.5994 38.5186C45.4933 38.4499 44.8751 37.6993 44.5374 37.1034C44.1998 36.5075 43.7528 35.8671 43.8581 35.9351C43.9642 36.0038 44.5824 36.7544 44.9201 37.3503C45.2577 37.9462 45.7049 38.5865 45.5994 38.5186Z"
            fill="#FBC21A" />
        <path
            d="M43.9053 39.5776C43.8073 39.52 43.2558 38.8608 42.965 38.3291C42.6741 37.7973 42.2808 37.2304 42.3781 37.2875C42.476 37.345 43.0275 38.0042 43.3184 38.536C43.6092 39.0677 44.0028 39.6345 43.9053 39.5776Z"
            fill="#FBC21A" />
        <path
            d="M42.4264 40.9308C42.3284 40.8732 41.7769 40.214 41.486 39.6823C41.1952 39.1505 40.8018 38.5836 40.8991 38.6407C40.9971 38.6982 41.5486 39.3574 41.8394 39.8892C42.1303 40.4209 42.5238 40.9877 42.4264 40.9308Z"
            fill="#FBC21A" />
        <path
            d="M39.468 43.6373C39.3701 43.5797 38.8186 42.9205 38.5277 42.3888C38.2369 41.857 37.8435 41.2901 37.9408 41.3471C38.0388 41.4047 38.5903 42.0639 38.8811 42.5956C39.172 43.1274 39.5655 43.6942 39.468 43.6373Z"
            fill="#FBC21A" />
        <path
            d="M40.947 42.2841C40.8491 42.2266 40.2976 41.5674 40.0067 41.0356C39.7159 40.5039 39.3225 39.937 39.4198 39.994C39.5178 40.0516 40.0693 40.7108 40.3601 41.2425C40.651 41.7743 41.0445 42.341 40.947 42.2841Z"
            fill="#FBC21A" />
    </g>
    <path
        d="M51.0709 30.56C51.2859 29.2628 51.7622 27.3806 51.7622 27.3806C51.7622 27.3806 51.8972 27.4326 52.099 28.0583C52.3662 28.8858 52.4054 30.2923 51.9415 31.2614C51.4381 32.313 50.9129 32.6037 50.9129 32.6037C50.9129 32.6037 50.902 31.5822 51.0709 30.56Z"
        fill="#1E7B6F" />
    <path
        d="M49.4155 31.7506C49.1924 30.7179 48.9915 29.1708 48.9915 29.1708C48.9915 29.1708 49.1078 29.1697 49.4436 29.5775C49.888 30.1167 50.3333 31.1559 50.2734 32.0172C50.2084 32.9517 49.9019 33.3243 49.9019 33.3243C49.9019 33.3243 49.5917 32.5643 49.4155 31.7506Z"
        fill="#1E7B6F" />
    <path
        d="M50.5689 31.2559C50.446 30.2312 50.3915 28.7082 50.3915 28.7082C50.3915 28.7082 50.5047 28.7178 50.7941 29.1449C51.1773 29.7098 51.5157 30.761 51.379 31.5932C51.2307 32.4962 50.8987 32.8306 50.8987 32.8306C50.8987 32.8306 50.6662 32.0633 50.5689 31.2559Z"
        fill="#1E7B6F" />
    <path
        d="M49.2464 32.4201C48.8515 31.691 48.3603 30.5692 48.3603 30.5692C48.3603 30.5692 48.4477 30.5429 48.7903 30.7764C49.2436 31.0851 49.8074 31.7704 49.9514 32.4325C50.1077 33.151 49.9586 33.4991 49.9586 33.4991C49.9586 33.4991 49.5579 32.9946 49.2464 32.4201Z"
        fill="#1E7B6F" />
    <path
        d="M51.3563 33.3732C52.4682 33.4171 54.1236 33.3501 54.1236 33.3501C54.1236 33.3501 54.1156 33.2342 53.6572 32.9703C53.0509 32.621 51.9147 32.3571 51.0066 32.5654C50.0213 32.7913 49.6504 33.1606 49.6504 33.1606C49.6504 33.1606 50.4801 33.3382 51.3563 33.3732Z"
        fill="#1E7B6F" />
    <path
        d="M52.7795 31.5749C54.0095 31.1104 55.7623 30.2751 55.7623 30.2751C55.7623 30.2751 55.6848 30.1529 55.0318 30.0773C54.168 29.9771 52.781 30.2138 51.9213 30.8583C50.9885 31.5576 50.8061 32.1296 50.8061 32.1296C50.8061 32.1296 51.81 31.9404 52.7795 31.5749Z"
        fill="#1E7B6F" />
    <path
        d="M50.7678 33.6534C51.4809 34.1106 52.5974 34.6993 52.5974 34.6993C52.5974 34.6993 52.6404 34.6159 52.4487 34.2568C52.1953 33.7818 51.5579 33.1627 50.8741 32.9587C50.132 32.7374 49.7345 32.8513 49.7345 32.8513C49.7345 32.8513 50.2062 33.293 50.7678 33.6534Z"
        fill="#1E7B6F" />
    <path
        d="M52.1942 32.2039C53.2231 32.124 54.7273 31.8796 54.7273 31.8796C54.7273 31.8796 54.6958 31.7705 54.2203 31.5702C53.5914 31.3049 52.4943 31.1786 51.7049 31.4754C50.8484 31.7975 50.5853 32.1885 50.5853 32.1885C50.5853 32.1885 51.3834 32.2664 52.1942 32.2039Z"
        fill="#1E7B6F" />
    <path
        d="M51.9043 30.7422L52.3632 31.2159L49.4078 34.0792C49.277 34.206 49.0682 34.2026 48.9414 34.0718C48.8147 33.941 48.818 33.7322 48.9488 33.6055L51.9043 30.7422Z"
        fill="#1E7B6F" />
    <path
        d="M41.262 33.179C41.6876 32.0215 43.043 31.5134 44.1246 32.106C45.2062 32.6986 45.5076 34.1145 44.7611 35.0962L38.189 43.7394C38.0725 43.8925 37.8616 43.9374 37.6929 43.845C37.5242 43.7526 37.4486 43.5507 37.5149 43.3701L41.262 33.179Z"
        fill="#FF9800" />
    <mask id="mask1_24825_4173" style="mask-type:alpha" x="37" y="31" width="9" height="13">
        <path
            d="M41.262 33.179C41.6876 32.0215 43.043 31.5134 44.1246 32.106C45.2062 32.6986 45.5076 34.1145 44.7611 35.0962L38.189 43.7394C38.0725 43.8925 37.8616 43.9374 37.6929 43.845C37.5242 43.7526 37.4486 43.5507 37.5149 43.3701L41.262 33.179Z"
            fill="#FF9800" />
    </mask>
    <g mask="url(#mask1_24825_4173)">
        <path
            d="M44.3999 34.528C44.2769 34.4834 43.4219 33.9057 42.8818 33.4214C42.3417 32.9371 41.6851 32.4307 41.8072 32.4748C41.9303 32.5194 42.7853 33.0972 43.3253 33.5814C43.8654 34.0657 44.5222 34.572 44.3999 34.528Z"
            fill="#FBC21A" />
        <path
            d="M43.3347 35.811C43.2199 35.7726 42.4328 35.2454 41.9403 34.7966C41.4477 34.3478 40.8457 33.882 40.9596 33.9201C41.0744 33.9585 41.8616 34.4857 42.3541 34.9345C42.8466 35.3833 43.4488 35.8489 43.3347 35.811Z"
            fill="#FBC21A" />
        <path
            d="M42.1401 36.998C42.0384 36.9694 41.3593 36.5227 40.9425 36.1303C40.5257 35.7379 40.0105 35.3369 40.1115 35.3652C40.2131 35.3939 40.8922 35.8405 41.309 36.233C41.7258 36.6254 42.2411 37.0262 42.1401 36.998Z"
            fill="#FBC21A" />
        <path
            d="M41.0489 38.2621C40.9564 38.2404 40.3533 37.8502 39.9896 37.4975C39.626 37.1447 39.1719 36.7892 39.2637 36.8107C39.3561 36.8325 39.9593 37.2226 40.3229 37.5754C40.6866 37.9281 41.1408 38.2835 41.0489 38.2621Z"
            fill="#FBC21A" />
        <path
            d="M40.2022 39.708C40.1098 39.6863 39.5066 39.2961 39.1429 38.9433C38.7793 38.5906 38.3252 38.2351 38.417 38.2566C38.5094 38.2783 39.1126 38.6685 39.4762 39.0212C39.8399 39.374 40.2941 39.7294 40.2022 39.708Z"
            fill="#FBC21A" />
        <path
            d="M38.5085 42.5999C38.4161 42.5782 37.8129 42.1881 37.4492 41.8353C37.0856 41.4825 36.6315 41.127 36.7233 41.1485C36.8157 41.1703 37.4189 41.5604 37.7825 41.9132C38.1462 42.266 38.6004 42.6213 38.5085 42.5999Z"
            fill="#FBC21A" />
        <path
            d="M39.3553 41.1541C39.2628 41.1324 38.6596 40.7422 38.296 40.3894C37.9324 40.0367 37.4782 39.6812 37.57 39.7027C37.6625 39.7244 38.2657 40.1146 38.6293 40.4673C38.9929 40.8201 39.4472 41.1755 39.3553 41.1541Z"
            fill="#FBC21A" />
    </g>
    <path
        d="M44.5432 29.291C44.3944 28.2021 44.3098 26.5814 44.3098 26.5814C44.3098 26.5814 44.4305 26.5896 44.7462 27.0394C45.164 27.6341 45.5427 28.7476 45.4117 29.636C45.2695 30.6001 44.9219 30.962 44.9219 30.962C44.9219 30.962 44.6609 30.149 44.5432 29.291Z"
        fill="#1E7B6F" />
    <path
        d="M43.5152 30.6522C43.082 29.8826 42.5394 28.6968 42.5394 28.6968C42.5394 28.6968 42.6319 28.6673 43.0008 28.9099C43.4889 29.2307 44.1012 29.9505 44.2661 30.6531C44.445 31.4154 44.2923 31.7886 44.2923 31.7886C44.2923 31.7886 43.8569 31.2584 43.5152 30.6522Z"
        fill="#1E7B6F" />
    <path
        d="M44.3159 29.9739C43.9646 29.186 43.5449 27.9834 43.5449 27.9834C43.5449 27.9834 43.6376 27.9631 43.9742 28.2326C44.4197 28.589 44.9497 29.3449 45.0461 30.0431C45.1507 30.8008 44.9682 31.1499 44.9682 31.1499C44.9682 31.1499 44.593 30.5945 44.3159 29.9739Z"
        fill="#1E7B6F" />
    <path
        d="M43.5466 31.2293C43.0512 30.7445 42.3819 29.9702 42.3819 29.9702C42.3819 29.9702 42.4451 29.9276 42.7764 30.0294C43.2146 30.1639 43.8341 30.5718 44.1127 31.065C44.4149 31.6001 44.3819 31.9149 44.3819 31.9149C44.3819 31.9149 43.9373 31.611 43.5466 31.2293Z"
        fill="#1E7B6F" />
    <path
        d="M45.4657 31.4691C46.3644 31.2294 47.6697 30.767 47.6697 30.767C47.6697 30.767 47.6347 30.6765 47.2034 30.579C46.6331 30.4499 45.6606 30.5198 44.9869 30.9104C44.2559 31.3342 44.051 31.7207 44.051 31.7207C44.051 31.7207 44.7574 31.6576 45.4657 31.4691Z"
        fill="#1E7B6F" />
    <path
        d="M46.159 29.6791C47.0265 29.0043 48.2197 27.9043 48.2197 27.9043C48.2197 27.9043 48.1277 27.8259 47.5876 27.9269C46.8731 28.0602 45.824 28.5918 45.2967 29.3188C44.7246 30.1077 44.7203 30.6095 44.7203 30.6095C44.7203 30.6095 45.4752 30.2105 46.159 29.6791Z"
        fill="#1E7B6F" />
    <path
        d="M45.067 31.8361C45.7493 32.025 46.7863 32.2193 46.7863 32.2193C46.7863 32.2193 46.8 32.1421 46.5582 31.9027C46.2386 31.586 45.5766 31.2491 44.9802 31.2551C44.333 31.2617 44.0436 31.4508 44.0436 31.4508C44.0436 31.4508 44.5294 31.687 45.067 31.8361Z"
        fill="#1E7B6F" />
    <path
        d="M45.8477 30.327C46.6495 30.009 47.7903 29.4423 47.7903 29.4423C47.7903 29.4423 47.7382 29.3629 47.309 29.3204C46.7413 29.264 45.834 29.4341 45.277 29.8661C44.6727 30.3349 44.5592 30.7121 44.5592 30.7121C44.5592 30.7121 45.2157 30.5772 45.8477 30.327Z"
        fill="#1E7B6F" />
    <path
        d="M45.2539 29.2305L45.7374 29.4954L44.0847 32.5118C44.0116 32.6454 43.844 32.6943 43.7105 32.6211C43.577 32.548 43.5281 32.3804 43.6012 32.2469L45.2539 29.2305Z"
        fill="#1E7B6F" />
    <path
        d="M36.734 33.5942C36.7188 32.361 37.8039 31.4029 39.0257 31.5708C40.2476 31.7387 41.0341 32.954 40.6868 34.1374L37.6293 44.5562C37.5752 44.7407 37.3941 44.8579 37.2036 44.8317C37.013 44.8055 36.8703 44.6439 36.8679 44.4515L36.734 33.5942Z"
        fill="#FF9800" />
    <mask id="mask2_24825_4173" style="mask-type:alpha" x="36" y="31" width="5" height="14">
        <path
            d="M36.734 33.5942C36.7188 32.361 37.8039 31.4029 39.0257 31.5708C40.2476 31.7387 41.0341 32.954 40.6868 34.1374L37.6293 44.5562C37.5752 44.7407 37.3941 44.8579 37.2036 44.8317C37.013 44.8055 36.8703 44.6439 36.8679 44.4515L36.734 33.5942Z"
            fill="#FF9800" />
    </mask>
    <g mask="url(#mask2_24825_4173)">
        <path
            d="M40.1472 33.7362C40.0163 33.7384 39.0115 33.5036 38.3342 33.2438C37.6569 32.984 36.8628 32.7451 36.9927 32.7427C37.1235 32.7405 38.1284 32.9753 38.8056 33.2351C39.4829 33.4949 40.2771 33.7337 40.1472 33.7362Z"
            fill="#FBC21A" />
        <path
            d="M39.6095 35.3148C39.4886 35.3198 38.5652 35.108 37.945 34.8644C37.3248 34.6207 36.5962 34.4003 36.7163 34.3952C36.8372 34.3901 37.7606 34.6019 38.3808 34.8456C39.001 35.0893 39.7296 35.3094 39.6095 35.3148Z"
            fill="#FBC21A" />
        <path
            d="M38.9168 36.8498C38.8116 36.8593 38.0179 36.6842 37.4885 36.4662C36.9592 36.2483 36.3349 36.0574 36.4393 36.0478C36.5445 36.0383 37.3382 36.2135 37.8676 36.4314C38.3969 36.6494 39.0213 36.84 38.9168 36.8498Z"
            fill="#FBC21A" />
        <path
            d="M38.3482 38.4199C38.2541 38.4326 37.5514 38.2832 37.0859 38.0833C36.6204 37.8834 36.0693 37.7133 36.1627 37.7006C36.2569 37.688 36.9595 37.8373 37.4251 38.0372C37.8906 38.2371 38.4417 38.4071 38.3482 38.4199Z"
            fill="#FBC21A" />
        <path
            d="M38.0729 40.0727C37.9787 40.0853 37.2761 39.936 36.8106 39.7361C36.345 39.5362 35.794 39.366 35.8874 39.3534C35.9815 39.3407 36.6842 39.4901 37.1497 39.69C37.6152 39.8899 38.1663 40.0598 38.0729 40.0727Z"
            fill="#FBC21A" />
        <path
            d="M37.5219 43.3785C37.4278 43.3911 36.7251 43.2418 36.2596 43.0419C35.7941 42.842 35.243 42.6718 35.3365 42.6592C35.4306 42.6465 36.1333 42.7959 36.5988 42.9958C37.0643 43.1957 37.6154 43.3657 37.5219 43.3785Z"
            fill="#FBC21A" />
        <path
            d="M37.7974 41.7257C37.7032 41.7384 37.0006 41.589 36.535 41.3891C36.0695 41.1892 35.5185 41.0191 35.6119 41.0064C35.706 40.9938 36.4087 41.1432 36.8742 41.343C37.3397 41.5429 37.8908 41.7129 37.7974 41.7257Z"
            fill="#FBC21A" />
    </g>
    <path
        d="M38.4136 28.793C37.8863 27.8288 37.2292 26.3449 37.2292 26.3449C37.2292 26.3449 37.3449 26.3095 37.8002 26.6171C38.4027 27.0238 39.1536 27.9289 39.348 28.8056C39.559 29.757 39.3633 30.2191 39.3633 30.2191C39.3633 30.2191 38.8296 29.5526 38.4136 28.793Z"
        fill="#1E7B6F" />
    <path
        d="M37.9382 30.4297C37.259 29.8653 36.3292 28.951 36.3292 28.951C36.3292 28.951 36.4051 28.8904 36.8363 28.9855C37.4067 29.1111 38.2354 29.5652 38.64 30.1628C39.079 30.8111 39.0695 31.2142 39.0695 31.2142C39.0695 31.2142 38.4736 30.8742 37.9382 30.4297Z"
        fill="#1E7B6F" />
    <path
        d="M38.4421 29.5095C37.8329 28.8988 37.0118 27.9249 37.0118 27.9249C37.0118 27.9249 37.0912 27.8729 37.5019 28.0046C38.0452 28.1787 38.8098 28.6958 39.1489 29.3138C39.5169 29.9843 39.4709 30.3755 39.4709 30.3755C39.4709 30.3755 38.9223 29.9906 38.4421 29.5095Z"
        fill="#1E7B6F" />
    <path
        d="M38.172 30.9572C37.5362 30.6811 36.6348 30.1963 36.6348 30.1963C36.6348 30.1963 36.6787 30.134 37.0245 30.1109C37.4819 30.0803 38.2061 30.2405 38.6422 30.6019C39.1154 30.994 39.1968 31.2999 39.1968 31.2999C39.1968 31.2999 38.6731 31.1745 38.172 30.9572Z"
        fill="#1E7B6F" />
    <path
        d="M40.051 30.4956C40.8051 29.9512 41.8597 29.0536 41.8597 29.0536C41.8597 29.0536 41.7947 28.9815 41.357 29.0443C40.7781 29.127 39.8945 29.5392 39.4044 30.1444C38.8727 30.801 38.8191 31.2352 38.8191 31.2352C38.8191 31.2352 39.4565 30.9243 40.051 30.4956Z"
        fill="#1E7B6F" />
    <path
        d="M40.0621 28.5779C40.6318 27.6381 41.3543 26.1849 41.3543 26.1849C41.3543 26.1849 41.2404 26.1445 40.7718 26.4315C40.1518 26.8109 39.3613 27.6817 39.128 28.5489C38.8749 29.4899 39.0498 29.9603 39.0498 29.9603C39.0498 29.9603 39.6127 29.3182 40.0621 28.5779Z"
        fill="#1E7B6F" />
    <path
        d="M39.8106 30.984C40.5154 30.9172 41.5535 30.7289 41.5535 30.7289C41.5535 30.7289 41.5387 30.6518 41.2275 30.5144C40.8159 30.3325 40.0773 30.2538 39.5222 30.4722C38.92 30.7091 38.7171 30.989 38.7171 30.989C38.7171 30.989 39.2552 31.0364 39.8106 30.984Z"
        fill="#1E7B6F" />
    <path
        d="M40 29.2933C40.6357 28.7103 41.4994 27.7739 41.4994 27.7739C41.4994 27.7739 41.4224 27.7184 41.0062 27.8317C40.4557 27.9815 39.6688 28.464 39.3025 29.0663C38.9051 29.7197 38.9336 30.1126 38.9336 30.1126C38.9336 30.1126 39.4988 29.7524 40 29.2933Z"
        fill="#1E7B6F" />
    <path
        d="M39.0547 28.4805L39.6009 28.5555L39.1326 31.963C39.1119 32.1139 38.9729 32.2193 38.822 32.1986C38.6712 32.1779 38.5657 32.0388 38.5865 31.888L39.0547 28.4805Z"
        fill="#1E7B6F" />
    <g clip-path="url(#clip1_24825_4173)">
        <path
            d="M29.9734 38.0819C30.2181 38.4776 30.0728 38.9967 29.6597 39.2106C24.5413 41.8598 18.166 40.1567 15.0839 35.1737C12.0019 30.1906 13.3252 23.7258 17.9814 20.3293C18.3573 20.0552 18.8867 20.157 19.1314 20.5527L29.9734 38.0819Z"
            fill="#6EA517" />
        <path
            d="M29.7479 37.7171C25.1093 40.5861 19.0232 39.1516 16.1542 34.5131C13.2852 29.8745 14.7198 23.7884 19.3583 20.9194L29.7479 37.7171Z"
            fill="#F4C3C3" />
        <path
            d="M29.2548 36.9199C25.0563 39.5167 19.5477 38.2183 16.9509 34.0198C14.3541 29.8213 15.6525 24.3127 19.851 21.7159L29.2548 36.9199Z"
            fill="#F44D61" />
        <path
            d="M20.6876 25.3367C20.6876 25.3367 20.682 25.3427 20.6719 25.3524C20.6618 25.3612 20.6467 25.3773 20.6282 25.3918C20.6096 25.4069 20.5868 25.4269 20.5612 25.4451C20.5031 25.4877 20.4413 25.5251 20.3765 25.5568C20.3415 25.5737 20.3048 25.5902 20.2673 25.6034C20.2296 25.6182 20.1911 25.6294 20.1522 25.6394C20.1132 25.6492 20.074 25.6569 20.0351 25.662C19.9571 25.6729 19.8804 25.6735 19.8097 25.6643C19.7441 25.6562 19.6801 25.6386 19.6196 25.612C19.5733 25.5915 19.5298 25.5652 19.4903 25.5336C19.4749 25.5217 19.4633 25.5092 19.4552 25.502C19.4471 25.4943 19.443 25.4891 19.443 25.4891C19.2743 25.2802 19.3069 24.9742 19.5157 24.8054C19.5189 24.8029 19.5239 24.799 19.5271 24.7966C19.5271 24.7966 19.5324 24.7926 19.542 24.787C19.5516 24.7819 19.5659 24.7726 19.5836 24.7647C19.6296 24.7435 19.6781 24.7283 19.728 24.7195C19.7931 24.7082 19.8594 24.7064 19.925 24.7142C19.9959 24.7222 20.0702 24.7412 20.1433 24.7704C20.1803 24.7849 20.2165 24.8016 20.2516 24.8204C20.287 24.8393 20.3217 24.8594 20.3548 24.8829C20.388 24.9047 20.4198 24.9294 20.4497 24.9543C20.4796 24.9791 20.5076 25.0052 20.5332 25.031C20.5588 25.0568 20.582 25.0825 20.6024 25.1069C20.6228 25.1307 20.6401 25.1556 20.6546 25.1747C20.6691 25.1932 20.6799 25.2125 20.6876 25.2234C20.6951 25.2352 20.699 25.2424 20.699 25.2424C20.7162 25.2738 20.7104 25.3116 20.6876 25.3367ZM21.3943 33.8085C21.3943 33.8085 21.3993 33.815 21.4086 33.8255C21.4179 33.835 21.4316 33.8524 21.4488 33.8683C21.4661 33.885 21.4871 33.9068 21.511 33.9271C21.5654 33.9744 21.6239 34.0169 21.6858 34.0539C21.7193 34.0737 21.7545 34.0932 21.7908 34.1095C21.8271 34.1275 21.8646 34.1418 21.9025 34.155C21.9404 34.168 21.9789 34.179 22.0173 34.1873C22.0941 34.2047 22.1704 34.2117 22.2417 34.2085C22.3077 34.2059 22.373 34.1937 22.4354 34.1723C22.4833 34.1558 22.5289 34.1332 22.5709 34.105C22.5872 34.0945 22.5999 34.0831 22.6085 34.0765C22.6172 34.0695 22.6218 34.0647 22.6218 34.0647C22.6246 34.0617 22.6289 34.0571 22.6316 34.0541C22.8114 33.8547 22.7955 33.5473 22.596 33.3675C22.596 33.3675 22.5911 33.3631 22.5819 33.3567C22.5728 33.3508 22.5593 33.3403 22.5423 33.331C22.4983 33.306 22.4512 33.2868 22.4022 33.2739C22.3383 33.2572 22.2724 33.2498 22.2063 33.2521C22.135 33.2542 22.0594 33.2668 21.9841 33.2899C21.946 33.3013 21.9086 33.3148 21.872 33.3306C21.8352 33.3465 21.7989 33.3636 21.764 33.3842C21.7293 33.4034 21.6958 33.4245 21.6634 33.4474C21.6325 33.4691 21.6026 33.4922 21.5738 33.5168C21.5477 33.539 21.5226 33.5623 21.4985 33.5867C21.4761 33.6086 21.4568 33.632 21.4408 33.6499C21.4248 33.6671 21.4124 33.6854 21.4038 33.6956C21.3953 33.7067 21.3908 33.7136 21.3908 33.7136C21.3814 33.7278 21.3767 33.7446 21.3773 33.7616C21.3779 33.7786 21.3839 33.795 21.3943 33.8085ZM18.0728 32.3773C18.0728 32.3773 18.0673 32.3833 18.0585 32.3943C18.0506 32.405 18.0358 32.4215 18.023 32.4411C18.0096 32.4609 17.9915 32.4854 17.9756 32.5124C17.9578 32.5416 17.9412 32.5716 17.9259 32.6023C17.909 32.6362 17.8937 32.6708 17.8801 32.706C17.8656 32.7429 17.8532 32.7806 17.8429 32.8188C17.8314 32.8577 17.8235 32.897 17.8169 32.9366C17.8104 32.9759 17.8062 33.0155 17.8044 33.0552C17.8001 33.1338 17.8061 33.2103 17.8213 33.28C17.8349 33.3446 17.8579 33.4069 17.8896 33.4649C17.9139 33.5093 17.9439 33.5504 17.9788 33.5871C17.9919 33.6013 18.0053 33.6119 18.0132 33.6194C18.0216 33.6267 18.0271 33.6304 18.0271 33.6304C18.0305 33.6327 18.0357 33.6361 18.0392 33.6383C18.266 33.7819 18.5664 33.7144 18.71 33.4876C18.71 33.4876 18.7135 33.482 18.7182 33.4719C18.7225 33.4619 18.7306 33.4468 18.7369 33.4285C18.7505 33.3916 18.7642 33.3402 18.7696 33.2808C18.7754 33.215 18.7715 33.1487 18.7581 33.0841C18.7441 33.0141 18.7188 32.9417 18.6835 32.8714C18.6658 32.8357 18.6461 32.8011 18.6245 32.7677C18.6025 32.7341 18.5796 32.7012 18.5534 32.6702C18.5287 32.6393 18.5022 32.6098 18.4741 32.5818C18.4233 32.5306 18.3681 32.4841 18.309 32.4427C18.2836 32.4243 18.2574 32.4091 18.2371 32.3964C18.2174 32.3835 18.1973 32.3744 18.1858 32.3677C18.1792 32.3642 18.1726 32.361 18.1658 32.3579C18.1503 32.3511 18.1329 32.3493 18.1162 32.3527C18.0996 32.3562 18.0844 32.3648 18.0728 32.3773ZM18.7148 28.4658C18.7148 28.4658 18.7066 28.4663 18.6927 28.4681C18.6796 28.4703 18.6576 28.472 18.6347 28.4772C18.6112 28.4821 18.5813 28.4872 18.5511 28.4956C18.4814 28.5139 18.4134 28.5384 18.348 28.5688C18.3119 28.5853 18.2769 28.6038 18.2429 28.6242C18.2077 28.6442 18.1747 28.667 18.1425 28.691C18.1106 28.7148 18.0801 28.7404 18.0512 28.7677C17.9936 28.8214 17.9448 28.8805 17.9074 28.9413C17.8724 28.9973 17.8458 29.0581 17.8283 29.1218C17.8128 29.1794 17.8077 29.2324 17.8078 29.2717C17.8073 29.2911 17.8097 29.308 17.8102 29.3188C17.8111 29.3299 17.8125 29.3364 17.8125 29.3364C17.8134 29.3404 17.8147 29.3465 17.8157 29.3505C17.8794 29.6114 18.1426 29.7711 18.4034 29.7074C18.4034 29.7074 18.4098 29.7058 18.4202 29.7019C18.4302 29.6976 18.4464 29.6924 18.4637 29.6836C18.5092 29.6612 18.5515 29.6331 18.5898 29.5999C18.6395 29.5565 18.6827 29.5061 18.718 29.4502C18.7564 29.3902 18.7885 29.3205 18.8118 29.2453C18.8238 29.2079 18.8335 29.1691 18.8412 29.1297C18.8488 29.0903 18.8551 29.0507 18.8577 29.0102C18.8613 28.9708 18.8628 28.9312 18.862 28.8915C18.8609 28.8194 18.8535 28.7476 18.8396 28.6768C18.8341 28.646 18.8257 28.6168 18.8199 28.5936C18.8147 28.5706 18.8065 28.5501 18.8029 28.5373C18.8006 28.5303 18.7981 28.5233 18.7953 28.5164C18.7889 28.5006 18.7776 28.4873 18.7632 28.4782C18.7487 28.4691 18.7318 28.4648 18.7148 28.4658ZM23.0634 30.4084C23.0634 30.4084 23.0635 30.4002 23.0626 30.3862C23.0613 30.373 23.0612 30.3508 23.0575 30.3276C23.0543 30.3039 23.0513 30.2737 23.045 30.243C23.0386 30.2093 23.0308 30.1759 23.0216 30.1429C23.0115 30.1065 22.9996 30.0705 22.9861 30.0352C22.9721 29.9989 22.9565 29.9619 22.9381 29.9266C22.9206 29.89 22.9001 29.8556 22.8785 29.8217C22.857 29.7882 22.8335 29.7561 22.8083 29.7253C22.7587 29.6642 22.7031 29.6113 22.6451 29.5698C22.5917 29.531 22.5329 29.5002 22.4706 29.4783C22.4227 29.4617 22.373 29.4513 22.3225 29.4474C22.3032 29.4456 22.2861 29.4467 22.2753 29.4465C22.2694 29.4466 22.2635 29.4469 22.2576 29.4476C22.2536 29.4482 22.2474 29.4491 22.2434 29.4499C21.9787 29.4953 21.801 29.7466 21.8464 30.0113C21.8464 30.0113 21.8475 30.0178 21.8508 30.0285C21.8543 30.0387 21.8584 30.0553 21.866 30.0731C21.8851 30.12 21.9102 30.1642 21.9407 30.2047C21.9805 30.2574 22.0278 30.304 22.0811 30.343C22.1384 30.3855 22.2056 30.4224 22.279 30.4509C22.3155 30.4654 22.3535 30.4778 22.3923 30.4883C22.4311 30.4986 22.4701 30.5076 22.5103 30.513C22.5494 30.5194 22.5889 30.5236 22.6284 30.5255C22.6662 30.5276 22.704 30.5279 22.7418 30.5264C22.7782 30.525 22.8127 30.5221 22.8442 30.5181C22.8754 30.5148 22.9051 30.5084 22.9286 30.5042C22.9519 30.5006 22.9729 30.4939 22.986 30.4912C22.9996 30.4877 23.0073 30.4851 23.0073 30.4851C23.0235 30.4798 23.0376 30.4695 23.0476 30.4557C23.0577 30.442 23.0632 30.4254 23.0634 30.4084ZM25.3096 34.7865C25.3096 34.7865 25.3158 34.7918 25.3271 34.8002C25.3382 34.8076 25.3552 34.8217 25.3754 34.8337C25.3958 34.8464 25.4209 34.8634 25.4485 34.8783C25.4763 34.8938 25.5072 34.9094 25.5404 34.9243C25.5735 34.9392 25.609 34.9535 25.6458 34.9659C25.6826 34.9784 25.7211 34.9901 25.76 34.9986C25.7993 35.0086 25.8389 35.0149 25.8788 35.0199C25.9182 35.0248 25.958 35.0274 25.9977 35.0276C26.0764 35.0287 26.1526 35.0198 26.2217 35.0018C26.2857 34.9856 26.347 34.9601 26.4036 34.9262C26.447 34.9001 26.4869 34.8685 26.5222 34.8321C26.5359 34.8185 26.5459 34.8047 26.553 34.7964C26.56 34.7878 26.5635 34.7821 26.5635 34.7821C26.5656 34.7787 26.5689 34.7733 26.5709 34.7698C26.7054 34.5374 26.626 34.2399 26.3936 34.1055C26.3936 34.1055 26.3878 34.1022 26.3776 34.0979C26.3674 34.094 26.352 34.0866 26.3335 34.081C26.2852 34.0657 26.2352 34.0567 26.1846 34.0542C26.1186 34.0511 26.0526 34.0576 25.9885 34.0735C25.9192 34.0904 25.8478 34.1185 25.7789 34.1566C25.744 34.1757 25.7102 34.1967 25.6777 34.2197C25.645 34.2429 25.6131 34.2672 25.5832 34.2946C25.5533 34.3206 25.5248 34.3482 25.498 34.3773C25.4489 34.4301 25.4046 34.4872 25.3656 34.5478C25.3482 34.574 25.3342 34.6008 25.3222 34.6216C25.3101 34.6417 25.3018 34.6623 25.2955 34.674C25.2895 34.6867 25.2865 34.6943 25.2865 34.6943C25.2803 34.7102 25.2792 34.7276 25.2833 34.7441C25.2875 34.7606 25.2966 34.7755 25.3096 34.7865ZM23.2585 36.2401C23.2585 36.2401 23.2581 36.2483 23.2582 36.2623C23.2589 36.2756 23.2578 36.2977 23.2603 36.321C23.2624 36.3449 23.2639 36.3752 23.2687 36.4062C23.273 36.4377 23.2791 36.4718 23.287 36.5073C23.2951 36.5427 23.3049 36.5797 23.3171 36.6166C23.3293 36.6543 23.3435 36.6913 23.3597 36.7275C23.3753 36.7649 23.3941 36.8003 23.414 36.8352C23.4341 36.8699 23.4559 36.9035 23.4794 36.9349C23.5258 36.9985 23.5788 37.054 23.6346 37.0984C23.686 37.1398 23.7433 37.1734 23.8044 37.1983C23.8598 37.2206 23.9118 37.2319 23.9508 37.2366C23.9699 37.2393 23.987 37.239 23.9979 37.2398C24.0038 37.24 24.0097 37.24 24.0156 37.2396C24.0197 37.2392 24.0259 37.2385 24.0299 37.2381C24.2965 37.2058 24.4864 36.9636 24.4542 36.697C24.4542 36.697 24.4534 36.6905 24.4506 36.6796C24.4476 36.6692 24.4443 36.6524 24.4377 36.6342C24.4209 36.5865 24.398 36.541 24.3696 36.4991C24.3324 36.4446 24.2875 36.3957 24.2362 36.354C24.1811 36.3087 24.1158 36.2686 24.0438 36.2365C24.0076 36.22 23.9705 36.2057 23.9326 36.1936C23.8943 36.1813 23.8558 36.1704 23.8159 36.163C23.7771 36.1543 23.7373 36.1488 23.6986 36.1446C23.6269 36.1371 23.5546 36.136 23.4827 36.1413C23.4514 36.1432 23.4215 36.1481 23.3977 36.151C23.3744 36.1535 23.353 36.1591 23.3398 36.1612C23.3261 36.164 23.3182 36.1662 23.3182 36.1662C23.3018 36.1708 23.2872 36.1804 23.2766 36.1936C23.2659 36.2069 23.2596 36.2231 23.2585 36.2401Z"
            fill="#442A34" />
    </g>
    <g clip-path="url(#clip2_24825_4173)">
        <path
            d="M14.343 34.0321C14.343 34.0321 14.4621 32.9986 14.1225 32.1018C13.7829 31.205 13.1007 30.9562 13.1007 30.9562L13.0402 31.9762C13.0402 31.9762 12.7197 31.5367 11.6221 31.3087C10.5256 31.079 9.32728 31.1787 9.32728 31.1787L10.4708 32.7683C10.4708 32.7683 9.87866 32.7136 9.22244 33.053C8.63336 33.3582 8.22978 33.8158 8.22978 33.8158C8.22978 33.8158 8.55355 34.56 9.47244 35.1898C10.4751 35.8781 11.1937 35.8801 11.1937 35.8801C11.1937 35.8801 10.7794 36.483 10.6785 36.6974C10.5794 36.913 10.5897 37.0856 10.5897 37.0856C10.5897 37.0856 10.9084 37.3239 11.6338 37.4567C12.361 37.5907 13.2345 37.2775 13.2345 37.2775L14.5174 36.0082L14.3381 34.0316L14.343 34.0321Z"
            fill="#50A822" />
        <path
            d="M15.3204 32.2193C15.2715 32.1869 15.2355 32.1392 15.2187 32.0781C15.2152 32.0678 14.9051 30.9933 14.3657 30.4791C13.53 29.6811 13.0447 29.8106 13.0399 29.81C12.9081 29.8592 12.7688 29.7902 12.7209 29.6583C12.673 29.5265 12.7447 29.3795 12.8765 29.3304C12.9527 29.3022 13.6442 29.0862 14.717 30.1079C15.3552 30.7167 15.6915 31.8849 15.7059 31.9339C15.7447 32.0677 15.6658 32.2098 15.5304 32.2486C15.4561 32.2702 15.3794 32.256 15.3198 32.2163L15.3204 32.2193Z"
            fill="#7A663A" />
        <path
            d="M21.9796 43.6533C21.3735 44.1839 20.3097 43.9521 19.6045 43.1383C18.8993 42.3244 18.8206 41.2355 19.4267 40.7049C20.0327 40.1742 21.0966 40.406 21.8018 41.2198C22.5069 42.0337 22.5857 43.1226 21.9796 43.6533Z"
            fill="#A2C83A" />
        <path
            d="M19.4271 40.7052C19.2043 40.8989 19.0761 41.1661 19.0353 41.4704C19.1114 41.8342 19.2933 42.2077 19.5766 42.5383C20.2818 43.3522 21.3438 43.5827 21.9517 43.0533C22.1745 42.8596 22.3028 42.5924 22.3436 42.2881C22.2674 41.9243 22.0856 41.5508 21.8022 41.2202C21.0971 40.4063 20.035 40.1758 19.4271 40.7052Z"
            fill="#AEDE2F" />
        <path
            d="M19.9253 38.3002C19.4788 38.9712 18.3905 39.031 17.4957 38.4355C16.6008 37.8401 16.2357 36.8131 16.6822 36.1421C17.1287 35.4711 18.217 35.4113 19.1118 36.0068C20.0067 36.6022 20.3718 37.6292 19.9253 38.3002Z"
            fill="#AEDE2F" />
        <path
            d="M19.0679 32.5931C18.6214 33.2642 17.5331 33.3239 16.6382 32.7285C15.7434 32.133 15.3782 31.1061 15.8247 30.4351C16.2712 29.7641 17.3577 29.7031 18.2526 30.2985C19.1474 30.894 19.5126 31.9209 19.0661 32.5919L19.0679 32.5931Z"
            fill="#AEDE2F" />
        <path
            d="M17.0796 34.1537C16.6331 34.8247 15.5448 34.8845 14.65 34.289C13.7551 33.6936 13.39 32.6666 13.8365 31.9956C14.283 31.3246 15.3713 31.2648 16.2661 31.8603C17.161 32.4557 17.5261 33.4827 17.0796 34.1537Z"
            fill="#AEDE2F" />
        <path
            d="M21.1627 42.1162C21.0457 42.2646 20.7518 42.2321 20.5048 42.0389C20.2578 41.8456 20.153 41.568 20.2682 41.4184C20.3834 41.2688 20.6792 41.3025 20.9261 41.4958C21.1731 41.6891 21.2779 41.9667 21.1627 42.1162Z"
            fill="#D4FF63" />
        <path
            d="M15.7476 38.2474C15.3011 38.9185 14.2128 38.9782 13.3179 38.3828C12.4231 37.7873 12.0579 36.7604 12.5044 36.0894C12.9509 35.4184 14.0392 35.3586 14.9341 35.954C15.8289 36.5495 16.1941 37.5764 15.7476 38.2474Z"
            fill="#A2C83A" />
        <path
            d="M12.5044 36.0894C12.3418 36.3337 12.2878 36.6266 12.3267 36.9287C12.4966 37.2575 12.7703 37.5712 13.1319 37.8118C14.0286 38.4084 15.1151 38.3474 15.5616 37.6764C15.7241 37.4321 15.7782 37.1392 15.7393 36.8371C15.5694 36.5083 15.2956 36.1946 14.9341 35.954C14.0374 35.3574 12.9509 35.4184 12.5044 36.0894Z"
            fill="#AEDE2F" />
        <path
            d="M22.8452 41.2279C22.3987 41.8989 21.3104 41.9587 20.4156 41.3633C19.5207 40.7678 19.1556 39.7409 19.6021 39.0698C20.0486 38.3988 21.1369 38.339 22.0317 38.9345C22.9266 39.53 23.2917 40.5569 22.8452 41.2279Z"
            fill="#A2C83A" />
        <path
            d="M19.6021 39.0698C19.4395 39.3142 19.3854 39.6071 19.4244 39.9092C19.5942 40.2379 19.868 40.5517 20.2296 40.7922C21.1262 41.3889 22.2127 41.3279 22.6592 40.6569C22.8218 40.4126 22.8758 40.1197 22.8369 39.8176C22.6671 39.4888 22.3933 39.1751 22.0317 38.9345C21.1351 38.3378 20.0486 38.3988 19.6021 39.0698Z"
            fill="#AEDE2F" />
        <path
            d="M21.9323 40.1846C21.8153 40.333 21.5213 40.3005 21.2743 40.1072C21.0274 39.9139 20.9225 39.6364 21.0377 39.4868C21.1529 39.3372 21.4487 39.3709 21.6957 39.5642C21.9427 39.7574 22.0475 40.035 21.9323 40.1846Z"
            fill="#D4FF63" />
        <path
            d="M19.6156 41.811C18.9656 42.2861 17.9275 41.9609 17.2986 41.0873C16.6697 40.2137 16.6857 39.1195 17.3363 38.6474C17.9863 38.1723 19.0245 38.4975 19.6534 39.3711C20.2823 40.2447 20.2662 41.3389 19.6156 41.811Z"
            fill="#A2C83A" />
        <path
            d="M17.3357 38.6451C17.0979 38.8183 16.9455 39.0747 16.8782 39.3719C16.9223 39.7406 17.0697 40.1307 17.3246 40.4845C17.9535 41.3581 18.9917 41.6832 19.6417 41.2081C19.8795 41.0349 20.0319 40.7785 20.0992 40.4813C20.0551 40.1126 19.9077 39.7225 19.6528 39.3687C19.0239 38.4951 17.9857 38.17 17.3357 38.6451Z"
            fill="#AEDE2F" />
        <path
            d="M21.5795 39.4528C22.0929 38.8321 21.8382 37.7718 21.0104 37.0846C20.1827 36.3974 19.0955 36.3434 18.582 36.9641C18.0686 37.5847 18.3233 38.645 19.1511 39.3322C19.9788 40.0195 21.066 40.0734 21.5795 39.4528Z"
            fill="#A2C83A" />
        <path
            d="M18.581 36.9633C18.3931 37.1908 18.3107 37.4754 18.317 37.7795C18.4512 38.1266 18.6905 38.4647 19.0247 38.7424C19.8529 39.4302 20.9414 39.4837 21.453 38.8639C21.6409 38.6364 21.7233 38.3519 21.717 38.0478C21.5828 37.7006 21.3435 37.3625 21.0092 37.0849C20.1811 36.397 19.0926 36.3435 18.581 36.9633Z"
            fill="#AEDE2F" />
        <path
            d="M17.812 39.4584C17.3655 40.1294 16.2772 40.1892 15.3824 39.5937C14.4875 38.9983 14.1224 37.9713 14.5689 37.3003C15.0154 36.6293 16.1037 36.5695 16.9985 37.165C17.8934 37.7604 18.2585 38.7874 17.812 39.4584Z"
            fill="#A2C83A" />
        <path
            d="M14.5669 37.2984C14.4043 37.5427 14.3503 37.8356 14.3892 38.1377C14.5591 38.4665 14.8328 38.7802 15.1944 39.0208C16.0911 39.6174 17.1776 39.5564 17.6241 38.8854C17.7866 38.6411 17.8407 38.3482 17.8018 38.0461C17.6319 37.7173 17.3581 37.4036 16.9966 37.163C16.0999 36.5664 15.0134 36.6274 14.5669 37.2984Z"
            fill="#AEDE2F" />
        <path
            d="M20.1373 37.8311C20.0203 37.9795 19.7264 37.947 19.4794 37.7537C19.2324 37.5604 19.1276 37.2828 19.2428 37.1333C19.358 36.9837 19.6538 37.0174 19.9008 37.2106C20.1477 37.4039 20.2525 37.6815 20.1373 37.8311Z"
            fill="#D4FF63" />
        <path
            d="M14.2545 36.7881C14.1375 36.9365 13.8436 36.904 13.5966 36.7107C13.3496 36.5175 13.2448 36.2399 13.36 36.0903C13.4752 35.9407 13.771 35.9744 14.0179 36.1677C14.2649 36.361 14.3697 36.6385 14.2545 36.7881Z"
            fill="#D4FF63" />
        <path
            d="M13.0191 35.9648C13.9147 36.5608 15.0025 36.5002 15.4487 35.8295C15.895 35.1588 15.5308 34.132 14.6352 33.5361C13.7397 32.9401 12.6519 33.0007 12.2056 33.6714C11.7593 34.3421 12.1235 35.3689 13.0191 35.9648Z"
            fill="#A2C83A" />
        <path
            d="M12.2056 33.6714C12.043 33.9157 11.989 34.2086 12.0279 34.5108C12.1977 34.8395 12.4715 35.1532 12.8331 35.3938C13.7297 35.9905 14.8162 35.9295 15.2627 35.2585C15.4253 35.0141 15.4794 34.7212 15.4404 34.4191C15.2706 34.0904 14.9968 33.7767 14.6352 33.5361C13.7386 32.9394 12.6521 33.0004 12.2056 33.6714Z"
            fill="#AEDE2F" />
        <path
            d="M21.3263 36.959C20.7575 37.5276 19.6802 37.371 18.9217 36.6059C18.1632 35.8408 18.0108 34.7607 18.5796 34.1921C19.1483 33.6235 20.2257 33.78 20.9841 34.5451C21.7426 35.3103 21.895 36.3904 21.3263 36.959Z"
            fill="#A2C83A" />
        <path
            d="M18.5798 34.1942C18.3708 34.4024 18.2601 34.6786 18.2398 34.9834C18.3413 35.3404 18.5461 35.7029 18.8531 36.0098C19.6116 36.7749 20.689 36.9315 21.2577 36.3628C21.4667 36.1546 21.5774 35.8784 21.5977 35.5736C21.4962 35.2167 21.2914 34.8541 20.9844 34.5473C20.2259 33.7821 19.1486 33.6256 18.5798 34.1942Z"
            fill="#AEDE2F" />
        <path
            d="M18.7652 34.3887C19.6608 34.9846 20.7486 34.924 21.1948 34.2533C21.6411 33.5826 21.2769 32.5558 20.3813 31.9599C19.4858 31.364 18.398 31.4246 17.9517 32.0952C17.5054 32.7659 17.8696 33.7927 18.7652 34.3887Z"
            fill="#AEDE2F" />
        <path
            d="M16.6002 37.9522C16.4832 38.1006 16.1893 38.0681 15.9423 37.8748C15.6953 37.6815 15.5905 37.4039 15.7057 37.2543C15.8209 37.1047 16.1167 37.1385 16.3636 37.3317C16.6106 37.525 16.7154 37.8026 16.6002 37.9522Z"
            fill="#D4FF63" />
        <path
            d="M17.9787 37.3783C17.3786 37.9156 16.3141 37.6965 15.598 36.8912C14.885 36.0853 14.7923 34.9976 15.3924 34.4604C15.9925 33.9231 17.057 34.1421 17.773 34.9474C18.4861 35.7534 18.5787 36.841 17.9787 37.3783Z"
            fill="#A2C83A" />
        <path
            d="M15.3917 34.4589C15.1725 34.6551 15.0478 34.9247 15.0083 35.2272C15.0892 35.5915 15.2735 35.9614 15.5623 36.2878C16.2754 37.0937 17.3429 37.3121 17.9429 36.7748C18.1621 36.5787 18.2867 36.3091 18.3263 36.0066C18.2453 35.6423 18.0611 35.2724 17.7723 34.946C17.0592 34.1401 15.9917 33.9217 15.3917 34.4589Z"
            fill="#AEDE2F" />
        <path
            d="M16.8541 35.4307C16.7371 35.5791 16.4432 35.5466 16.1962 35.3533C15.9492 35.16 15.8444 34.8825 15.9596 34.7329C16.0748 34.5833 16.3706 34.617 16.6176 34.8103C16.8645 35.0035 16.9693 35.2811 16.8541 35.4307Z"
            fill="#D4FF63" />
        <path
            d="M19.0138 35.5482C18.4137 36.0855 17.3493 35.8665 16.6332 35.0611C15.9201 34.2552 15.8275 33.1675 16.4276 32.6303C17.0276 32.093 18.0921 32.312 18.8082 33.1174C19.5212 33.9233 19.6139 35.011 19.0138 35.5482Z"
            fill="#A2C83A" />
        <path
            d="M16.4249 32.6328C16.2057 32.8289 16.081 33.0985 16.0415 33.401C16.1225 33.7653 16.3067 34.1352 16.5955 34.4616C17.3086 35.2675 18.3761 35.4859 18.9761 34.9487C19.1953 34.7525 19.32 34.4829 19.3595 34.1804C19.2785 33.8161 19.0943 33.4462 18.8055 33.1199C18.0924 32.3139 17.0249 32.0955 16.4249 32.6328Z"
            fill="#AEDE2F" />
        <path
            d="M17.8854 33.6104C17.7684 33.7588 17.4744 33.7263 17.2275 33.533C16.9805 33.3397 16.8757 33.0621 16.9909 32.9125C17.1061 32.763 17.4018 32.7967 17.6488 32.9899C17.8958 33.1832 18.0006 33.4608 17.8854 33.6104Z"
            fill="#D4FF63" />
        <path
            d="M14.0436 34.6006C13.9266 34.749 13.6326 34.7165 13.3857 34.5232C13.1387 34.33 13.0339 34.0524 13.1491 33.9028C13.2661 33.7544 13.56 33.7869 13.807 33.9802C14.054 34.1735 14.1588 34.451 14.0436 34.6006Z"
            fill="#D4FF63" />
        <path
            d="M20.4479 35.4502C20.3309 35.5986 20.0369 35.5661 19.79 35.3728C19.543 35.1796 19.4382 34.902 19.5534 34.7524C19.6686 34.6028 19.9643 34.6365 20.2113 34.8298C20.4583 35.0231 20.5631 35.3006 20.4479 35.4502Z"
            fill="#D4FF63" />
        <path
            d="M19.0924 40.0362C18.9754 40.1846 18.6815 40.1521 18.4345 39.9588C18.1875 39.7655 18.0827 39.4879 18.1979 39.3383C18.3149 39.1899 18.6089 39.2224 18.8558 39.4157C19.1028 39.609 19.2076 39.8866 19.0924 40.0362Z"
            fill="#D4FF63" />
    </g>
    <g clip-path="url(#clip3_24825_4173)">
        <path
            d="M23.7344 34.2236L24.7857 32.6324L24.1634 32.3935C24.1634 32.3935 22.434 31.9744 21.2903 33.3826C20.1663 34.7658 21.1229 37.6763 22.5843 38.7209C24.0457 39.7656 24.8212 39.6345 25.2267 39.5065C25.6329 39.3783 25.6436 39.1616 26.0512 39.0905C26.4588 39.0193 26.6538 39.2069 27.366 38.951C28.0119 38.7185 28.484 38.3104 28.667 37.9458C28.8398 37.5995 23.7344 34.2236 23.7344 34.2236Z"
            fill="#6EA517" />
        <path
            d="M21.7325 33.29C21.7325 33.29 22.3999 33.3803 23.0077 33.2605C23.6162 33.1405 24.6551 32.7616 24.6551 32.7616C24.6551 32.7616 24.5984 32.1103 24.6337 32.1004C24.669 32.0905 26.0797 31.1097 27.4644 31.6487C28.9236 32.2162 29.5338 33.9403 29.5761 34.8329C29.673 36.8843 28.5084 38.189 28.5084 38.189C28.5084 38.189 27.2809 38.6838 25.4976 38.4279C23.7143 38.1721 21.9973 37.3309 21.5693 35.6766C21.1148 33.9155 21.7325 33.29 21.7325 33.29Z"
            fill="#87C244" />
        <path
            d="M22.5174 33.1437C22.2726 32.9332 21.7067 33.0722 21.3554 33.7762C20.9893 34.5083 21.1486 35.7271 21.5361 35.7036C21.854 35.6841 21.8555 35.1407 21.9926 34.7357C22.2505 33.9755 23.0776 33.6259 22.5174 33.1437Z"
            fill="white" />
        <path
            d="M25.954 32.1856C26.0954 32.3469 25.9292 32.8873 24.8392 33.2286C23.6926 33.5874 23.1332 33.0491 23.2233 32.862C23.3135 32.6748 23.8152 32.8009 24.6336 32.563C25.4521 32.3252 25.7131 31.9121 25.954 32.1856Z"
            fill="#59702C" />
        <path
            d="M25.0326 31.0901C25.1161 31.0473 25.4601 30.8846 25.4567 30.7334C25.4545 30.6619 25.3071 30.4708 25.0328 30.3758C24.7585 30.2809 24.5172 30.3014 24.4984 30.4395C24.4797 30.5783 24.5198 30.6521 24.5273 30.6792C24.5347 30.7055 24.4124 30.9688 24.362 31.2776C24.2916 31.7062 24.2984 32.1043 24.422 32.4795C24.5117 32.7507 24.6253 33.1368 24.7762 33.0654C24.9336 32.9914 24.7907 32.6136 24.7953 32.3175C24.8065 31.6108 24.9824 31.1162 25.0326 31.0901Z"
            fill="#262939" />
        <path
            d="M22.8447 32.166C22.8193 32.1448 20.6713 31.5084 20.6433 31.4401C20.6153 31.3718 21.5204 30.9372 22.1822 30.9902C22.844 31.0431 23.5651 31.2244 24.034 31.7572C24.4102 32.1848 24.5041 32.5204 24.4648 32.6173C24.446 32.663 22.8447 32.166 22.8447 32.166Z"
            fill="#1E7B6F" />
        <path
            d="M23.0284 32.0378C22.0778 31.7482 20.6432 31.4394 20.6432 31.4394C20.6432 31.4394 20.6332 31.5482 20.9892 31.8948C21.46 32.3534 22.3994 32.8518 23.2113 32.8627C24.0924 32.8746 24.4655 32.6163 24.4655 32.6163C24.4655 32.6163 23.7773 32.2663 23.0284 32.0378Z"
            fill="#1E7B6F" />
    </g>
    <g clip-path="url(#clip4_24825_4173)">
        <path
            d="M34.4707 35.874L33.4194 34.2828L34.0417 34.0439C34.0417 34.0439 35.7711 33.6248 36.9148 35.033C38.0388 36.4162 37.0822 39.3267 35.6208 40.3713C34.1594 41.416 33.3839 41.2849 32.9784 41.1569C32.5722 41.0287 32.5615 40.812 32.1539 40.7408C31.7463 40.6697 31.5513 40.8573 30.8391 40.6014C30.1932 40.3689 29.7211 39.9608 29.5381 39.5962C29.3653 39.2499 34.4707 35.874 34.4707 35.874Z"
            fill="#6EA517" />
        <g filter="url(#filter0_d_24825_4173)">
            <path
                d="M36.4725 34.9404C36.4725 34.9404 35.8052 35.0307 35.1974 34.9109C34.5889 34.7909 33.5499 34.412 33.5499 34.412C33.5499 34.412 33.6066 33.7607 33.5713 33.7508C33.536 33.7409 32.1254 32.7601 30.7406 33.2991C29.2815 33.8666 28.6713 35.5907 28.6289 36.4833C28.532 38.5347 29.6966 39.8394 29.6966 39.8394C29.6966 39.8394 30.9242 40.3342 32.7075 40.0783C34.4908 39.8225 36.2078 38.9813 36.6358 37.327C37.0903 35.5659 36.4725 34.9404 36.4725 34.9404Z"
                fill="#87C244" />
        </g>
        <path
            d="M31.6831 33.965C31.5453 33.673 30.9719 33.5693 30.3641 34.0689C29.7314 34.5883 29.3801 35.7661 29.7435 35.9026C30.0418 36.0144 30.2646 35.5188 30.5549 35.2049C31.1002 34.6157 31.998 34.6336 31.6831 33.965Z"
            fill="white" />
        <path
            d="M32.2511 33.836C32.1097 33.9972 32.2759 34.5377 33.3658 34.879C34.5124 35.2377 35.0719 34.6995 34.9817 34.5123C34.8916 34.3252 34.3899 34.4513 33.5714 34.2134C32.753 33.9756 32.492 33.5625 32.2511 33.836Z"
            fill="#59702C" />
        <path
            d="M33.1725 32.7405C33.089 32.6977 32.745 32.535 32.7484 32.3838C32.7506 32.3123 32.898 32.1212 33.1723 32.0262C33.4466 31.9313 33.6879 31.9518 33.7067 32.0899C33.7254 32.2287 33.6853 32.3025 33.6777 32.3296C33.6704 32.3558 33.7927 32.6192 33.8431 32.928C33.9135 33.3566 33.9066 33.7547 33.7831 34.1298C33.6934 34.4011 33.5798 34.7871 33.4289 34.7158C33.2715 34.6418 33.4144 34.264 33.4097 33.9679C33.3985 33.2612 33.2227 32.7666 33.1725 32.7405Z"
            fill="#262939" />
        <path
            d="M35.3604 33.8164C35.3858 33.7951 37.5338 33.1587 37.5618 33.0905C37.5898 33.0222 36.6846 32.5876 36.0229 32.6406C35.3611 32.6935 34.64 32.8748 34.1711 33.4076C33.7948 33.8351 33.7009 34.1708 33.7403 34.2677C33.759 34.3134 35.3604 33.8164 35.3604 33.8164Z"
            fill="#1E7B6F" />
        <path
            d="M35.1767 33.6882C36.1273 33.3986 37.5619 33.0898 37.5619 33.0898C37.5619 33.0898 37.5719 33.1986 37.2159 33.5452C36.7451 34.0038 35.8057 34.5021 34.9937 34.5131C34.1127 34.5249 33.7396 34.2667 33.7396 34.2667C33.7396 34.2667 34.4278 33.9167 35.1767 33.6882Z"
            fill="#1E7B6F" />
    </g>
    <path
        d="M14.4727 42.186C13.986 40.3762 15.3495 38.5977 17.2237 38.5977H47.3679C49.2421 38.5977 50.6055 40.3762 50.1189 42.186C48.7807 47.1629 44.2686 50.622 39.115 50.622H25.4766C20.323 50.622 15.8109 47.1629 14.4727 42.186Z"
        fill="#F0B323" />
    <path fill-rule="evenodd" clip-rule="evenodd"
        d="M14.4483 40.7985L15.0212 41.3714L16.6203 39.7724L15.816 38.9681C15.9546 38.8891 16.1008 38.8213 16.2536 38.7661L16.9401 39.4526L17.795 38.5977H18.4346L17.2599 39.7724L18.8587 41.3712L20.4577 39.7722L19.2832 38.5977H19.9228L20.7775 39.4524L21.6322 38.5977H22.2718L21.0973 39.7722L22.6964 41.3713L24.2958 39.7719L23.1215 38.5977H23.7611L24.6156 39.4521L25.47 38.5977H26.1096L24.9354 39.7719L26.5346 41.3711L28.1336 39.7721L26.9592 38.5977H27.5988L28.4534 39.4523L29.308 38.5977H29.9476L28.7732 39.7721L30.3724 41.3713L31.9707 39.7729L30.7955 38.5977H31.4351L32.2905 39.4531L33.146 38.5977H33.7856L32.6103 39.7729L34.2091 41.3717L35.8089 39.7719L34.6347 38.5977H35.2743L36.1287 39.4521L36.9831 38.5977H37.6227L36.4485 39.7719L38.0471 41.3704L39.6457 39.7719L38.4715 38.5977H39.1111L39.9655 39.4521L40.8199 38.5977H41.4595L40.2853 39.7719L41.8846 41.3711L43.4835 39.7722L42.309 38.5977H42.9486L43.8033 39.4524L44.658 38.5977H45.2976L44.1231 39.7722L45.7223 41.3714L47.3216 39.772L46.1472 38.5977H46.7868L47.6414 39.4522L48.3306 38.763C48.4838 38.8178 48.6304 38.8852 48.7693 38.9639L47.9612 39.772L49.5602 41.371L50.1422 40.7891C50.1858 40.9721 50.2114 41.1609 50.2174 41.3534L49.88 41.6908L50.1674 41.9782C50.1541 42.0473 50.1381 42.1167 50.1195 42.186C50.0925 42.2864 50.0642 42.3861 50.0347 42.4851L49.5602 42.0106L47.9609 43.61L49.0898 44.7389C49.0142 44.8757 48.936 45.0107 48.8551 45.1438L47.6411 43.9298L46.0422 45.5287L47.4797 46.9662C47.3771 47.0769 47.2725 47.1855 47.1658 47.292L45.7223 45.8485L44.1238 47.4471L45.4055 48.7288C45.2767 48.8141 45.1461 48.8968 45.0139 48.9768L43.804 47.7669L42.2041 49.3667L42.836 49.9986C42.676 50.0538 42.5145 50.1056 42.3517 50.1539L41.8843 49.6865L41.127 50.4438C40.88 50.488 40.6306 50.5242 40.3791 50.5522L41.5645 49.3667L39.9655 47.7677L38.3672 49.3661L39.6124 50.6112C39.4475 50.6184 39.2819 50.622 39.1156 50.622H38.9835L38.0474 49.6859L37.1113 50.622H36.4717L37.7276 49.3661L36.1284 47.7669L34.5294 49.3659L35.7855 50.622H35.1459L34.2096 49.6857L33.2733 50.622H32.6337L33.8898 49.3659L32.2905 47.7667L30.6911 49.366L31.9471 50.622H31.3075L30.3713 49.6858L29.4352 50.622H28.7956L30.0515 49.366L28.4529 47.7675L26.8539 49.3665L28.1095 50.622H27.4699L26.5341 49.6863L25.5984 50.622H25.4772C25.3074 50.622 25.1383 50.6182 24.97 50.6108L26.2143 49.3665L24.6156 47.7677L23.0165 49.3667L24.2005 50.5507C23.9486 50.5224 23.6988 50.4859 23.4515 50.4413L22.6967 49.6865L22.2321 50.1512C22.0693 50.1028 21.908 50.0509 21.7481 49.9955L22.3769 49.3667L20.7777 47.7675L19.5723 48.9729C19.4402 48.8928 19.3097 48.81 19.181 48.7246L20.4579 47.4477L18.8587 45.8485L17.4211 47.2862C17.3145 47.1797 17.2099 47.071 17.1075 46.9602L18.5389 45.5287L16.9398 43.9296L15.7331 45.1363C15.6524 45.0032 15.5742 44.8681 15.4987 44.7312L16.62 43.6098L15.0212 42.011L14.5555 42.4767C14.5269 42.3804 14.4995 42.2835 14.4733 42.186C14.4538 42.1136 14.4373 42.0412 14.4236 41.969L14.7014 41.6912L14.375 41.3648C14.3802 41.1717 14.4053 40.9822 14.4483 40.7985ZM49.2404 41.6908L47.6414 40.0918L46.0421 41.6912L47.6411 43.2902L49.2404 41.6908ZM47.3213 43.61L45.7223 42.011L44.1234 43.6099L45.7223 45.2089L47.3213 43.61ZM45.4025 41.6912L43.8033 40.092L42.2044 41.6909L43.8035 43.2901L45.4025 41.6912ZM43.8035 43.9297L45.4025 45.5287L43.804 47.1273L42.205 45.5283L43.8035 43.9297ZM41.8852 45.8481L43.4842 47.4471L41.8843 49.0469L40.2853 47.4479L41.8852 45.8481ZM43.4837 43.6099L41.8846 42.0107L40.286 43.6093L41.8852 45.2085L43.4837 43.6099ZM41.5648 41.6909L39.9655 40.0917L38.3669 41.6903L39.9662 43.2895L41.5648 41.6909ZM39.9662 43.9291L41.5654 45.5283L39.9655 47.1281L38.3664 45.5289L39.9662 43.9291ZM38.0466 45.8487L39.6457 47.4479L38.0474 49.0463L36.4482 47.4471L38.0466 45.8487ZM37.7273 41.6903L36.1287 40.0917L34.5289 41.6915L36.1275 43.2901L37.7273 41.6903ZM39.6464 43.6093L38.0471 42.0101L36.4473 43.6099L38.0465 45.2091L39.6464 43.6093ZM36.1275 43.9297L37.7267 45.5289L36.1284 47.1273L34.5292 45.528L36.1275 43.9297ZM34.2093 45.8478L35.8086 47.4471L34.2096 49.0461L32.6103 47.4468L34.2093 45.8478ZM35.8077 43.6099L34.2091 42.0113L32.6108 43.6096L34.2093 45.2082L35.8077 43.6099ZM33.8893 41.6915L32.2905 40.0927L30.6922 41.6911L32.291 43.2898L33.8893 41.6915ZM32.291 43.9294L33.8895 45.528L32.2905 47.127L30.6919 45.5285L32.291 43.9294ZM30.3721 45.8483L31.9707 47.4468L30.3713 49.0462L28.7728 47.4477L30.3721 45.8483ZM31.9712 43.6096L30.3724 42.0109L28.7734 43.6099L30.3721 45.2087L31.9712 43.6096ZM30.0526 41.6911L28.4534 40.0919L26.8544 41.6909L28.4536 43.2901L30.0526 41.6911ZM28.4536 43.9297L30.0523 45.5285L28.4529 47.1278L26.8542 45.5291L28.4536 43.9297ZM26.5344 45.8489L28.1331 47.4476L26.5341 49.0466L24.9354 47.4479L26.5344 45.8489ZM28.1338 43.6099L26.5346 42.0107L24.9352 43.6101L26.5344 45.2093L28.1338 43.6099ZM26.2148 41.6909L24.6156 40.0917L23.0162 41.6911L24.6154 43.2903L26.2148 41.6909ZM24.6154 43.9299L26.2146 45.5291L24.6156 47.1281L23.0164 45.5289L24.6154 43.9299ZM22.6966 45.8487L24.2958 47.4479L22.6967 49.0469L21.0975 47.4477L22.6966 45.8487ZM24.2956 43.6101L22.6964 42.0109L21.0974 43.6099L22.6966 45.2091L24.2956 43.6101ZM22.3766 41.6911L20.7775 40.092L19.1785 41.691L20.7776 43.2901L22.3766 41.6911ZM20.7776 43.9297L22.3768 45.5289L20.7777 47.1279L19.1785 45.5287L20.7776 43.9297ZM20.4578 43.6099L18.8587 42.0108L17.2596 43.6098L18.8587 45.2089L20.4578 43.6099ZM18.5389 41.691L16.9401 40.0922L15.341 41.6912L16.9398 43.29L18.5389 41.691Z"
        fill="#E4A91B" />
    <path fill-rule="evenodd" clip-rule="evenodd"
        d="M36.2637 50.6198H39.2548C44.4084 50.6198 48.9204 47.1608 50.2586 42.1839C50.5791 40.9923 50.0974 39.8142 49.196 39.1484L48.6687 41.1098C47.1601 46.7203 42.0735 50.6198 36.2637 50.6198Z"
        fill="#F0B323" />
    <path fill-rule="evenodd" clip-rule="evenodd"
        d="M36.2637 50.6198H39.2548C44.4084 50.6198 48.9204 47.1608 50.2586 42.1839C50.5791 40.9923 50.0974 39.8142 49.196 39.1484L48.6687 41.1098C47.1601 46.7203 42.0735 50.6198 36.2637 50.6198Z"
        fill="black" fill-opacity="0.2" />
    <rect x="11.8164" y="37.2871" width="41.012" height="4.31705" rx="2.15853" fill="#C7414F" />
    <defs>
        <filter id="filter0_d_24825_4173" x="27.8202" y="33.1367" width="8.98254" height="7.41705"
            color-interpolation-filters="sRGB">
            <feFlood flood-opacity="0" result="BackgroundImageFix" />
            <feColorMatrix in="SourceAlpha" values="0 0 0 0 0 0 0 0 0 0 0 0 0 0 0 0 0 0 127 0"
                result="hardAlpha" />
            <feOffset dx="-0.80285" dy="0.401425" />
            <feComposite in2="hardAlpha" operator="out" />
            <feColorMatrix values="0 0 0 0 0 0 0 0 0 0 0 0 0 0 0 0 0 0 0.25 0" />
            <feBlend in2="BackgroundImageFix" result="effect1_dropShadow_24825_4173" />
            <feBlend in="SourceGraphic" in2="effect1_dropShadow_24825_4173" result="shape" />
        </filter>
        <clipPath id="clip0_24825_4173">
            <rect width="19.1749" height="17.1386" fill="white"
                transform="translate(30.4766 24.7637) rotate(-12.7776)" />
        </clipPath>
        <clipPath id="clip1_24825_4173">
            <rect width="19.5097" height="19.5097" fill="white"
                transform="translate(15.0391 18.9883) rotate(13.2627)" />
        </clipPath>
        <clipPath id="clip2_24825_4173">
            <rect width="17.4822" height="10.0333" fill="white"
                transform="translate(12.4727 26.4531) rotate(33.6407)" />
        </clipPath>
        <clipPath id="clip3_24825_4173">
            <rect width="9.98113" height="9.98113" fill="white"
                transform="matrix(-0.963035 0.269375 0.269375 0.963035 28.5352 28.6016)" />
        </clipPath>
        <clipPath id="clip4_24825_4173">
            <rect width="9.98114" height="9.98113" fill="white"
                transform="translate(29.6699 30.252) rotate(15.6271)" />
        </clipPath>
    </defs>
</svg>
