<svg width="64" height="64" viewBox="0 0 64 64" fill="none" xmlns="http://www.w3.org/2000/svg">
    <defs>
        <linearGradient id="paint0_linear_14450_124272" x1="45.9982" y1="48.9222" x2="43.2848"
            y2="36.34" gradientUnits="userSpaceOnUse">
            <stop stop-color="white" />
            <stop offset="1" stop-color="#F9FAFF" />
        </linearGradient>
    </defs>
    <path
        d="M57.878 39.6167C55.0522 46.0225 50.3205 51.9149 44.8279 56.087C34.038 64.2818 17.8717 61.8404 9.10258 51.3143C4.97705 46.3617 3.11566 39.2723 5.60019 33.2108C7.4384 28.7249 11.5957 26.1902 16.1854 25.4047C20.0565 24.7423 23.9933 25.3978 27.8838 25.0565C33.8317 24.535 38.5798 21.227 44.1799 19.6661C47.25 18.8102 51.1028 18.6285 53.9831 20.3181C56.7174 21.9216 58.6426 24.8441 59.3654 27.9355C60.278 31.8372 59.4861 35.9714 57.878 39.6167Z"
        fill="#A0B2EC" fill-opacity="0.16" />
    <path fill-rule="evenodd" clip-rule="evenodd"
        d="M41.3208 28.6818C41.0356 36.7868 43.0919 46.8574 36.2977 51.2578C29.2654 55.8126 19.5868 52.0566 12.8114 47.1471C7.30987 43.1607 6.47164 35.8538 5.69654 29.084C5.07319 23.6397 5.94933 18.3592 8.9937 13.8037C12.3788 8.73834 16.8005 3.58584 22.87 3.38619C29.0217 3.18384 34.0163 7.88068 37.649 12.8611C41.0005 17.4559 41.5213 22.9862 41.3208 28.6818Z"
        fill="#A0B2EC" fill-opacity="0.16" />
    <path
        d="M17.7761 39.1497C19.3996 38.7999 20.9993 39.8325 21.3491 41.4559C21.6989 43.0794 20.6664 44.6791 19.0429 45.0289C17.4194 45.3787 15.8197 44.3462 15.4699 42.7227C15.1201 41.0992 16.1526 39.4995 17.7761 39.1497Z"
        fill="#A0B2EC" />
    <path
        d="M20.9574 37.991C22.3936 37.6816 23.8087 38.595 24.1181 40.0311C24.4276 41.4673 23.5142 42.8824 22.078 43.1918C20.6419 43.5013 19.2268 42.5879 18.9173 41.1517C18.6079 39.7156 19.5213 38.3005 20.9574 37.991Z"
        fill="#A0B2EC" />
    <path
        d="M23.2418 43.651C24.3657 43.4088 25.4732 44.1236 25.7154 45.2476C25.9575 46.3715 25.2427 47.479 24.1187 47.7212C22.9948 47.9634 21.8873 47.2485 21.6451 46.1246C21.403 45.0006 22.1178 43.8931 23.2418 43.651Z"
        fill="#A0B2EC" />
    <path
        d="M18.097 44.0058C18.9712 43.8174 19.8325 44.3734 20.0209 45.2476C20.2093 46.1218 19.6533 46.9831 18.7791 47.1715C17.9049 47.3598 17.0435 46.8039 16.8552 45.9297C16.6668 45.0555 17.2228 44.1941 18.097 44.0058Z"
        fill="#A0B2EC" />
    <path
        d="M20.2459 39.6083C22.244 39.1777 24.2129 40.4485 24.6434 42.4467C25.0739 44.4448 23.8031 46.4136 21.805 46.8442C19.8069 47.2747 17.838 46.0039 17.4075 44.0058C16.977 42.0076 18.2478 40.0388 20.2459 39.6083Z"
        fill="#A0B2EC" />
    <path
        d="M20.9779 41.7744C22.5127 41.4437 24.0237 42.4143 24.3529 43.9422C24.6822 45.4702 23.7049 46.9769 22.1701 47.3076C20.6354 47.6383 19.1243 46.6677 18.7951 45.1398C18.4659 43.6118 19.4431 42.1051 20.9779 41.7744Z"
        fill="#BDCCF8" />
    <path
        d="M22.7221 40.8722C24.2569 40.5415 25.7558 41.4558 26.0701 42.9143C26.3843 44.3728 25.3949 45.8232 23.8602 46.1539C22.3254 46.4846 20.8265 45.5703 20.5122 44.1118C20.198 42.6533 21.1874 41.2029 22.7221 40.8722Z"
        fill="#BDCCF8" />
    <path
        d="M23.4569 44.9249C24.7724 44.6414 26.0451 45.3688 26.2995 46.5494C26.5538 47.7301 25.6936 48.917 24.3781 49.2005C23.0626 49.4839 21.79 48.7566 21.5356 47.5759C21.2812 46.3952 22.1414 45.2083 23.4569 44.9249Z"
        fill="#BDCCF8" />
    <circle cx="25.0149" cy="40.2158" r="0.518618" transform="rotate(-102.159 25.0149 40.2158)"
        fill="#BDCCF8" />
    <circle cx="20.2088" cy="48.2281" r="0.664452" transform="rotate(-102.159 20.2088 48.2281)"
        fill="#BDCCF8" />
    <circle cx="19.0096" cy="37.4283" r="0.664452" transform="rotate(-102.159 19.0096 37.4283)"
        fill="#A0B2EC" />
    <path d="M30.2233 41.6689C30.0728 43.7906 30.2685 49.1282 32.255 53.5055" stroke="#1E7B6F"
        stroke-width="1.77548" stroke-linecap="round" />
    <path opacity="0.3" fill-rule="evenodd" clip-rule="evenodd"
        d="M29.7254 40.9219C29.5858 41.0666 29.4944 41.2593 29.4792 41.4756C29.3232 43.6984 29.5182 49.2478 31.5836 53.848C31.7477 54.2135 32.1286 54.4137 32.5065 54.3651C32.2002 54.3256 31.9232 54.1271 31.7979 53.8208C29.8732 49.1202 29.6125 43.4889 29.7254 40.9219Z"
        fill="#262939" />
    <path
        d="M43.6717 36.3536C43.4899 39.6344 40.9467 47.3382 32.2286 51.9068C31.608 48.3634 33.0279 40.292 43.6717 36.3536Z"
        fill="#1E7B6F" />
    <mask id="mask0_14450_124272" style="mask-type:alpha" maskUnits="userSpaceOnUse" x="32" y="35"
        width="12" height="17">
        <path opacity="0.3"
            d="M32.8816 51.5422C41.336 46.4912 43.8271 38.5719 43.909 35.2001C43.4689 35.3809 42.8458 35.5815 42.4371 35.7751C42.1679 39.5888 40.027 46.507 32.8816 51.5422Z"
            fill="#262939" />
    </mask>
    <g mask="url(#mask0_14450_124272)">
        <path
            d="M43.6756 36.3546C43.4938 39.6354 40.9506 47.3392 32.2325 51.9078C31.6119 48.3644 33.0318 40.293 43.6756 36.3546Z"
            fill="#262939" />
    </g>
    <path
        d="M22.8999 43.1143C24.8556 43.4879 29.277 45.6361 31.318 51.2399C29.1401 51.327 24.4073 49.8238 22.8999 43.1143Z"
        fill="#1E7B6F" />
    <path
        d="M37.5817 34.2699C37.5817 38.8459 34.6008 42.5555 30.9237 42.5555C27.2465 42.5555 24.2656 38.8459 24.2656 34.2699C24.2656 29.694 27.2465 25.9844 30.9237 25.9844C34.6008 25.9844 37.5817 29.694 37.5817 34.2699Z"
        fill="#1E7B6F" />
    <path
        d="M28.4755 28.2873C28.1627 30.5595 26.9401 32.2681 25.7448 32.1035C24.5494 31.9389 23.834 29.9635 24.1468 27.6913C24.4597 25.4191 25.6823 23.7106 26.8776 23.8751C28.0729 24.0397 28.7883 26.0151 28.4755 28.2873Z"
        fill="#C7414F" />
    <path
        d="M28.4755 28.2873C28.1627 30.5595 26.9401 32.2681 25.7448 32.1035C24.5494 31.9389 23.834 29.9635 24.1468 27.6913C24.4597 25.4191 25.6823 23.7106 26.8776 23.8751C28.0729 24.0397 28.7883 26.0151 28.4755 28.2873Z"
        fill="black" fill-opacity="0.2" />
    <path
        d="M25.6092 27.427C27.0785 29.2664 27.4947 31.3145 26.5389 32.0014C25.583 32.6884 23.6171 31.7542 22.1479 29.9147C20.6786 28.0753 20.2624 26.0273 21.2182 25.3403C22.1741 24.6533 24.14 25.5876 25.6092 27.427Z"
        fill="#C7414F" />
    <path
        d="M25.6092 27.427C27.0785 29.2664 27.4947 31.3145 26.5389 32.0014C25.583 32.6884 23.6171 31.7542 22.1479 29.9147C20.6786 28.0753 20.2624 26.0273 21.2182 25.3403C22.1741 24.6533 24.14 25.5876 25.6092 27.427Z"
        fill="black" fill-opacity="0.2" />
    <path
        d="M39.5868 33.257C37.36 34.1081 35.1802 33.9337 34.718 32.8675C34.2558 31.8013 35.6862 30.2471 37.913 29.396C40.1398 28.545 42.3197 28.7194 42.7819 29.7856C43.2441 30.8517 41.8136 32.4059 39.5868 33.257Z"
        fill="#C7414F" />
    <path
        d="M39.5868 33.257C37.36 34.1081 35.1802 33.9337 34.718 32.8675C34.2558 31.8013 35.6862 30.2471 37.913 29.396C40.1398 28.545 42.3197 28.7194 42.7819 29.7856C43.2441 30.8517 41.8136 32.4059 39.5868 33.257Z"
        fill="black" fill-opacity="0.2" />
    <path
        d="M31.6821 29.6709C30.7612 31.7805 29.1115 33.1234 27.9973 32.6704C26.8832 32.2174 26.7266 30.14 27.6475 28.0304C28.5684 25.9209 30.2181 24.5779 31.3323 25.0309C32.4464 25.4839 32.603 27.5613 31.6821 29.6709Z"
        fill="#C7414F" />
    <path
        d="M31.6821 29.6709C30.7612 31.7805 29.1115 33.1234 27.9973 32.6704C26.8832 32.2174 26.7266 30.14 27.6475 28.0304C28.5684 25.9209 30.2181 24.5779 31.3323 25.0309C32.4464 25.4839 32.603 27.5613 31.6821 29.6709Z"
        fill="black" fill-opacity="0.2" />
    <path
        d="M36.0038 28.9426C35.691 31.2148 34.4684 32.9234 33.2731 32.7588C32.0777 32.5943 31.3623 30.6189 31.6751 28.3467C31.988 26.0745 33.2106 24.3659 34.4059 24.5305C35.6012 24.6951 36.3166 26.6704 36.0038 28.9426Z"
        fill="#C7414F" />
    <path
        d="M36.0038 28.9426C35.691 31.2148 34.4684 32.9234 33.2731 32.7588C32.0777 32.5943 31.3623 30.6189 31.6751 28.3467C31.988 26.0745 33.2106 24.3659 34.4059 24.5305C35.6012 24.6951 36.3166 26.6704 36.0038 28.9426Z"
        fill="black" fill-opacity="0.2" />
    <path
        d="M38.8194 30.2538C37.8985 32.3634 36.2488 33.7063 35.1346 33.2533C34.0205 32.8003 33.8639 30.723 34.7848 28.6134C35.7057 26.5038 37.3555 25.1609 38.4696 25.6139C39.5837 26.0669 39.7403 28.1443 38.8194 30.2538Z"
        fill="#C7414F" />
    <path
        d="M38.8194 30.2538C37.8985 32.3634 36.2488 33.7063 35.1346 33.2533C34.0205 32.8003 33.8639 30.723 34.7848 28.6134C35.7057 26.5038 37.3555 25.1609 38.4696 25.6139C39.5837 26.0669 39.7403 28.1443 38.8194 30.2538Z"
        fill="black" fill-opacity="0.2" />
    <path
        d="M41.8245 33.174C41.5685 35.033 36.6922 35.8973 30.9329 35.1044C25.1735 34.3115 20.7122 32.1616 20.9681 30.3026C21.2241 28.4435 25.3814 28.433 31.1407 29.2259C36.9001 30.0188 42.0804 31.3149 41.8245 33.174Z"
        fill="#C7414F" />
    <path
        d="M41.8245 33.174C41.5685 35.033 36.6922 35.8973 30.9329 35.1044C25.1735 34.3115 20.7122 32.1616 20.9681 30.3026C21.2241 28.4435 25.3814 28.433 31.1407 29.2259C36.9001 30.0188 42.0804 31.3149 41.8245 33.174Z"
        fill="black" fill-opacity="0.2" />
    <path
        d="M26.3994 21.9337C26.2657 22.9051 25.3698 23.5841 24.3984 23.4504C23.427 23.3167 22.7479 22.4208 22.8817 21.4494C23.0154 20.478 23.9113 19.7989 24.8827 19.9326C25.8541 20.0664 26.5332 20.9623 26.3994 21.9337Z"
        fill="#F0B323" />
    <path
        d="M34.495 17.3728C34.2944 18.83 32.9505 19.8485 31.4934 19.6479C30.0363 19.4473 29.0177 18.1035 29.2183 16.6464C29.4189 15.1893 30.7628 14.1707 32.2199 14.3713C33.677 14.5719 34.6956 15.9157 34.495 17.3728Z"
        fill="#F0B323" />
    <path
        d="M37.9427 20.5358C37.8089 21.5073 36.913 22.1863 35.9416 22.0526C34.9702 21.9188 34.2911 21.0229 34.4249 20.0515C34.5586 19.0801 35.4545 18.4011 36.4259 18.5348C37.3973 18.6685 38.0764 19.5644 37.9427 20.5358Z"
        fill="#F0B323" />
    <path
        d="M42.735 24.7801C42.6458 25.4277 42.0486 25.8804 41.401 25.7912C40.7534 25.7021 40.3007 25.1048 40.3898 24.4572C40.479 23.8096 41.0762 23.3569 41.7239 23.4461C42.3715 23.5352 42.8242 24.1325 42.735 24.7801Z"
        fill="#F0B323" />
    <path
        d="M25.2322 22.8184C25.9618 23.6657 27.4922 26.1465 27.776 29.2921M31.1546 18.8545C30.3481 20.7349 28.8738 25.4406 29.4287 29.2209M36.2093 21.1933C36.7453 22.3624 37.4668 25.7275 36.0649 29.8359M41.2087 25.018C40.621 26.0324 39.3982 28.622 39.2088 30.8661M26.3994 21.9337C26.2657 22.9051 25.3698 23.5841 24.3984 23.4504C23.427 23.3167 22.7479 22.4208 22.8817 21.4494C23.0154 20.478 23.9113 19.7989 24.8827 19.9326C25.8541 20.0664 26.5332 20.9623 26.3994 21.9337ZM34.495 17.3728C34.2944 18.83 32.9505 19.8485 31.4934 19.6479C30.0363 19.4473 29.0177 18.1035 29.2183 16.6464C29.4189 15.1893 30.7628 14.1707 32.2199 14.3713C33.677 14.5719 34.6956 15.9157 34.495 17.3728ZM37.9427 20.5358C37.8089 21.5073 36.913 22.1863 35.9416 22.0526C34.9702 21.9188 34.2911 21.0229 34.4249 20.0515C34.5586 19.0801 35.4545 18.4011 36.4259 18.5348C37.3973 18.6685 38.0764 19.5644 37.9427 20.5358ZM42.735 24.7801C42.6458 25.4277 42.0486 25.8804 41.401 25.7912C40.7534 25.7021 40.3007 25.1048 40.3898 24.4572C40.479 23.8096 41.0762 23.3569 41.7239 23.4461C42.3715 23.5352 42.8242 24.1325 42.735 24.7801Z"
        stroke="#F0B323" stroke-width="0.295913" />
    <path
        d="M34.7997 30.5791C34.5122 32.6671 35.2482 34.4931 36.4435 34.6577C37.6389 34.8222 38.8409 33.263 39.1284 31.175C39.4158 29.0871 38.6799 27.261 37.4845 27.0965C36.2892 26.9319 35.0872 28.4911 34.7997 30.5791Z"
        fill="#C7414F" />
    <path
        d="M37.7867 30.5624C35.893 31.8061 34.9606 33.5071 35.7042 34.3616C36.4478 35.2162 38.5858 34.9008 40.4795 33.6571C42.3732 32.4134 43.3056 30.7124 42.562 29.8579C41.8184 29.0033 39.6804 29.3187 37.7867 30.5624Z"
        fill="#C7414F" />
    <path
        d="M22.7965 32.0876C24.7231 33.4166 26.8704 33.8278 27.5925 33.0059C28.3147 32.1841 27.3382 30.4405 25.4116 29.1115C23.4849 27.7825 21.3377 27.3713 20.6155 28.1931C19.8934 29.015 20.8698 30.7586 22.7965 32.0876Z"
        fill="#C7414F" />
    <path
        d="M31.3488 30.9698C31.6899 33.0718 32.9326 34.6856 34.1244 34.5744C35.3162 34.4631 36.0058 32.6689 35.6647 30.5669C35.3237 28.4649 34.081 26.8511 32.8892 26.9623C31.6974 27.0736 31.0078 28.8678 31.3488 30.9698Z"
        fill="#C7414F" />
    <path
        d="M27.3702 29.206C27.0827 31.294 27.8187 33.12 29.014 33.2846C30.2094 33.4492 31.4114 31.8899 31.6989 29.802C31.9863 27.714 31.2504 25.888 30.055 25.7234C28.8597 25.5588 27.6577 27.1181 27.3702 29.206Z"
        fill="#C7414F" />
    <path
        d="M24.3152 29.6341C24.6563 31.7361 25.8989 33.3499 27.0907 33.2387C28.2825 33.1275 28.9721 31.3333 28.6311 29.2313C28.29 27.1293 27.0473 25.5154 25.8555 25.6267C24.6637 25.7379 23.9741 27.5321 24.3152 29.6341Z"
        fill="#C7414F" />
    <path
        d="M20.6602 31.4341C20.425 33.1424 24.9032 35.1701 30.6626 35.963C36.4219 36.7559 41.2814 36.0138 41.5166 34.3055C41.7518 32.5972 37.7456 31.51 31.9863 30.7171C26.2269 29.9241 20.8954 29.7258 20.6602 31.4341Z"
        fill="#C7414F" />
    <path opacity="0.3" fill-rule="evenodd" clip-rule="evenodd"
        d="M24.2979 34.3234C26.1301 35.0093 28.4642 35.5791 31.0348 35.9134C33.296 36.2075 35.4269 36.2785 37.2322 36.159C36.9039 37.2681 33.9581 37.8002 30.495 37.3499C26.915 36.8843 24.138 35.5452 24.2922 34.3589C24.2938 34.3469 24.2957 34.3351 24.2979 34.3234Z"
        fill="#262939" />
    <circle cx="42.6961" cy="17.1004" r="1.33161" transform="rotate(7.83896 42.6961 17.1004)"
        fill="#F0B323" />
    <circle cx="44.5014" cy="9.30111" r="2.21935" transform="rotate(7.83896 44.5014 9.30111)"
        fill="#F0B323" />
    <circle cx="24.7118" cy="11.3963" r="1.33161" transform="rotate(7.83896 24.7118 11.3963)"
        fill="#F0B323" />
    <path opacity="0.2" fill-rule="evenodd" clip-rule="evenodd"
        d="M23.6855 45.5888C24.4339 47.225 25.7428 49.103 27.8457 50.3284C24.9292 48.2883 23.72 45.0765 23.3855 43.2575C23.3292 43.2326 23.2723 43.2081 23.2147 43.1841C23.1034 43.1558 22.9977 43.1322 22.8984 43.1133C23.1051 44.0332 23.3724 44.8553 23.6855 45.5888Z"
        fill="#262939" />
    <path fill-rule="evenodd" clip-rule="evenodd"
        d="M39.9636 46.0979C39.9463 45.9587 39.9363 45.8192 39.9335 45.68L39.2062 45.4851C38.9121 45.4063 38.703 45.1685 38.6467 44.8889L38.0056 44.7171C37.8127 44.6654 37.6982 44.4671 37.7499 44.2742C37.7756 44.1781 37.8377 44.1015 37.9173 44.0552L38.6876 42.8531C38.7513 42.7537 38.905 42.8216 38.8744 42.9356L38.558 44.1163L38.8521 44.1951C39.0415 44.0014 39.3271 43.9128 39.6074 43.9879L40.1981 44.1462C40.2262 44.0721 40.2564 43.9987 40.2888 43.9262C40.2016 43.8214 40.1222 43.7078 40.0517 43.5857C39.5942 42.7933 39.6341 41.8502 40.0744 41.118C40.0424 41.0811 40.0135 41.0406 39.9882 40.9968C39.8337 40.7292 39.8569 40.4077 40.0213 40.1691L39.6311 38.5185L40.406 39.8607L40.8544 39.6018L40.0798 38.2601L41.2802 39.3914C41.6065 39.3113 41.9595 39.4513 42.1359 39.7568C42.1706 39.8169 42.1963 39.8796 42.2135 39.9436C43.0311 39.9642 43.8188 40.3973 44.2577 41.1574C44.3281 41.2793 44.3867 41.4048 44.4339 41.5326C44.5233 41.5419 44.6123 41.5541 44.7007 41.5692L44.866 40.9526C44.9387 40.681 45.1471 40.4819 45.3986 40.4087L45.4753 40.1228L44.2945 39.8064C44.1805 39.7759 44.1986 39.6088 44.3165 39.6034L45.7427 39.5374C45.8226 39.4916 45.92 39.4761 46.0161 39.5019C46.209 39.5536 46.3235 39.7519 46.2718 39.9448L46.1082 40.5554C46.3346 40.7427 46.4442 41.0513 46.3631 41.3537L46.1582 42.1184C46.2674 42.1856 46.3736 42.2581 46.4766 42.3359L47.0049 41.8076C47.2094 41.6031 47.4997 41.5368 47.7598 41.6086L47.9946 41.3738L47.1303 40.5095C47.0468 40.426 47.146 40.2904 47.2508 40.3446L48.5189 41.0005C48.6111 41.0008 48.7032 41.0362 48.7735 41.1065C48.9147 41.2477 48.9147 41.4767 48.7735 41.6179L48.2864 42.105C48.3788 42.3758 48.3169 42.6876 48.1009 42.9036L47.5137 43.4908C47.5259 43.5111 47.5379 43.5316 47.5498 43.5521C48.6769 45.5044 48.008 48.0007 46.0558 49.1278C44.1035 50.2549 41.6072 49.586 40.4801 47.6338C40.4685 47.6137 40.4571 47.5935 40.4459 47.5733L39.6374 47.79C39.3345 47.8711 39.0254 47.7611 38.8382 47.5338L38.2567 47.6896C38.0637 47.7413 37.8654 47.6268 37.8137 47.4339C37.788 47.3378 37.8034 47.2405 37.8492 47.1605L37.9152 45.7343C37.9207 45.6164 38.0877 45.5984 38.1183 45.7124L38.4346 46.8931L38.6929 46.8239C38.7665 46.573 38.9653 46.3654 39.2363 46.2928L39.9636 46.0979Z"
        fill="#F0B323" />
    <path fill-rule="evenodd" clip-rule="evenodd"
        d="M39.9636 46.0979C39.9463 45.9587 39.9363 45.8192 39.9335 45.68L39.2062 45.4851C38.9121 45.4063 38.703 45.1685 38.6467 44.8889L38.0056 44.7171C37.8127 44.6654 37.6982 44.4671 37.7499 44.2742C37.7756 44.1781 37.8377 44.1015 37.9173 44.0552L38.6876 42.8531C38.7513 42.7537 38.905 42.8216 38.8744 42.9356L38.558 44.1163L38.8521 44.1951C39.0415 44.0014 39.3271 43.9128 39.6074 43.9879L40.1981 44.1462C40.2262 44.0721 40.2564 43.9987 40.2888 43.9262C40.2016 43.8214 40.1222 43.7078 40.0517 43.5857C39.5942 42.7933 39.6341 41.8502 40.0744 41.118C40.0424 41.0811 40.0135 41.0406 39.9882 40.9968C39.8337 40.7292 39.8569 40.4077 40.0213 40.1691L39.6311 38.5185L40.406 39.8607L40.8544 39.6018L40.0798 38.2601L41.2802 39.3914C41.6065 39.3113 41.9595 39.4513 42.1359 39.7568C42.1706 39.8169 42.1963 39.8796 42.2135 39.9436C43.0311 39.9642 43.8188 40.3973 44.2577 41.1574C44.3281 41.2793 44.3867 41.4048 44.4339 41.5326C44.5233 41.5419 44.6123 41.5541 44.7007 41.5692L44.866 40.9526C44.9387 40.681 45.1471 40.4819 45.3986 40.4087L45.4753 40.1228L44.2945 39.8064C44.1805 39.7759 44.1986 39.6088 44.3165 39.6034L45.7427 39.5374C45.8226 39.4916 45.92 39.4761 46.0161 39.5019C46.209 39.5536 46.3235 39.7519 46.2718 39.9448L46.1082 40.5554C46.3346 40.7427 46.4442 41.0513 46.3631 41.3537L46.1582 42.1184C46.2674 42.1856 46.3736 42.2581 46.4766 42.3359L47.0049 41.8076C47.2094 41.6031 47.4997 41.5368 47.7598 41.6086L47.9946 41.3738L47.1303 40.5095C47.0468 40.426 47.146 40.2904 47.2508 40.3446L48.5189 41.0005C48.6111 41.0008 48.7032 41.0362 48.7735 41.1065C48.9147 41.2477 48.9147 41.4767 48.7735 41.6179L48.2864 42.105C48.3788 42.3758 48.3169 42.6876 48.1009 42.9036L47.5137 43.4908C47.5259 43.5111 47.5379 43.5316 47.5498 43.5521C48.6769 45.5044 48.008 48.0007 46.0558 49.1278C44.1035 50.2549 41.6072 49.586 40.4801 47.6338C40.4685 47.6137 40.4571 47.5935 40.4459 47.5733L39.6374 47.79C39.3345 47.8711 39.0254 47.7611 38.8382 47.5338L38.2567 47.6896C38.0637 47.7413 37.8654 47.6268 37.8137 47.4339C37.788 47.3378 37.8034 47.2405 37.8492 47.1605L37.9152 45.7343C37.9207 45.6164 38.0877 45.5984 38.1183 45.7124L38.4346 46.8931L38.6929 46.8239C38.7665 46.573 38.9653 46.3654 39.2363 46.2928L39.9636 46.0979Z"
        fill="black" fill-opacity="0.2" />
    <path opacity="0.3" fill-rule="evenodd" clip-rule="evenodd"
        d="M45.998 48.9223C47.9021 47.7789 48.5597 45.3415 47.4633 43.4425C47.4516 43.4222 47.4398 43.4022 47.4278 43.3822L48.0249 42.7902C48.2385 42.5783 48.2996 42.2725 48.2082 42.007L48.6955 41.5237C48.8372 41.3832 48.8388 41.1571 48.6992 41.0186C48.6297 40.9497 48.5383 40.9155 48.4465 40.9158L47.1884 40.2773C47.0844 40.2245 46.9847 40.3591 47.0672 40.4409L47.9217 41.2882L47.6874 41.5206C47.4303 41.4503 47.1434 41.5154 46.9413 41.7158L46.4034 42.2492C46.3016 42.1732 46.1964 42.1024 46.0883 42.0369L46.298 41.2799C46.3809 40.9807 46.2741 40.6767 46.0499 40.4934L46.2172 39.8892C46.2701 39.6983 46.1575 39.5033 45.9658 39.4537C45.8703 39.4289 45.7732 39.4449 45.6933 39.4907L44.2726 39.5662C44.1551 39.5724 44.1359 39.7375 44.2492 39.7668L45.4227 40.0707L45.3444 40.3536C45.0933 40.4278 44.8844 40.6258 44.81 40.8945L44.6409 41.505C44.553 41.4907 44.4645 41.4792 44.3756 41.4707C44.3295 41.3448 44.272 41.2212 44.2028 41.1012C43.7713 40.3539 42.9901 39.9319 42.1763 39.9173C42.1594 39.8545 42.1341 39.7928 42.1 39.7338C41.9246 39.43 41.5717 39.2926 41.2479 39.3772L40.0626 38.2705L40.8245 39.5902L40.6637 39.683L45.998 48.9223Z"
        fill="url(#paint0_linear_14450_124272)" />
    <path opacity="0.3" fill-rule="evenodd" clip-rule="evenodd"
        d="M40.9673 44.6418C40.6145 45.5896 40.6715 46.6817 41.2167 47.626C42.1868 49.3064 44.3356 49.8821 46.016 48.9119C47.6964 47.9418 48.2721 45.793 47.3019 44.1126C46.7567 43.1684 45.8394 42.5729 44.8422 42.4046C45.0151 43.3634 44.5833 44.3698 43.691 44.885C42.7987 45.4002 41.7112 45.271 40.9673 44.6418Z"
        fill="black" />
</svg>
