<svg width="56" height="56" viewBox="0 0 56 56" fill="none" xmlns="http://www.w3.org/2000/svg">
<path fill-rule="evenodd" clip-rule="evenodd" d="M5.63807 25.3044C4.20356 18.8241 0.501311 11.264 5.00984 6.39127C9.6764 1.34775 18.1543 2.34955 24.5567 4.85762C29.7552 6.89409 31.9208 12.5129 33.926 17.7188C35.5386 21.9056 35.9235 26.2684 34.433 30.4991C32.7756 35.2032 30.3106 40.1878 25.518 41.5841C20.6603 42.9993 15.7199 40.2965 11.8057 37.0912C8.19468 34.1341 6.64616 29.8583 5.63807 25.3044Z" fill="#A0B2EC" fill-opacity="0.16"/>
<path d="M53.0525 25.5487C53.706 30.8354 52.8389 36.5218 50.7498 41.3753C46.6455 50.909 34.5234 55.5521 24.2144 52.0436C19.3642 50.3927 15.206 46.468 14.4572 41.5385C13.9027 37.8905 15.7368 34.6251 18.5783 32.3384C20.975 30.4099 23.9517 29.3191 26.4919 27.5934C30.3758 24.9552 32.3029 20.9552 35.5255 17.7705C37.2921 16.0245 39.8713 14.4178 42.54 14.4123C45.0734 14.4069 47.5848 15.5776 49.3369 17.3233C51.5484 19.5266 52.6807 22.5401 53.0525 25.5487Z" fill="#A0B2EC" fill-opacity="0.16"/>
<path d="M10.6641 26.3867C10.6641 25.2843 11.5577 24.3906 12.6602 24.3906H14.5742C15.6766 24.3906 16.5703 25.2843 16.5703 26.3867C16.5703 27.4891 15.6766 28.3828 14.5742 28.3828H12.6602C11.5577 28.3828 10.6641 27.4891 10.6641 26.3867Z" fill="#262939"/>
<rect x="8.80469" y="25.6992" width="38.4403" height="23.1845" rx="2.69298" fill="#262939" stroke="#495574" stroke-width="0.546875"/>
<path d="M25.9914 24.1742C26.4438 22.4163 28.0288 21.1875 29.844 21.1875H36.3774C38.1926 21.1875 39.7776 22.4163 40.2299 24.1742L40.6253 25.7109C41.2731 28.2281 39.3721 30.6802 36.7728 30.6802H29.4486C26.8493 30.6802 24.9483 28.2281 25.596 25.7109L25.9914 24.1742Z" fill="#495574"/>
<path d="M26.6108 24.2511C26.9377 22.798 28.2281 21.7656 29.7175 21.7656H36.4971C38.0068 21.7656 39.3246 22.7886 39.699 24.2511L39.9771 25.3379C40.0733 25.7137 40.412 25.9766 40.7999 25.9766C41.2981 25.9766 41.6893 26.4033 41.646 26.8996L41.3498 30.2967H24.8828L24.6074 26.9493C24.5643 26.4255 24.9778 25.9766 25.5034 25.9766C25.9239 25.9766 26.2882 25.6851 26.3805 25.2748L26.6108 24.2511Z" fill="#262939"/>
<circle cx="33.1635" cy="37.3442" r="10.1176" fill="#495574"/>
<circle cx="33.1637" cy="37.3434" r="8.21062" fill="#E7ECFA"/>
<circle cx="33.1626" cy="37.3443" r="5.35015" fill="#BDCCF8"/>
<circle cx="33.1636" cy="37.3432" r="2.0659" fill="#A0B2EC"/>
<circle cx="34.1698" cy="36.3368" r="1.05944" fill="#F9FAFF"/>
<circle cx="21.4569" cy="28.286" r="1.33287" fill="#BDCCF8" stroke="#495574" stroke-width="0.546875"/>
<circle cx="36.7656" cy="33.5293" r="1.74807" fill="#F9FAFF"/>
<rect x="9.24219" y="26.1953" width="8.85938" height="22.1484" rx="2.11703" fill="#495574" stroke="#495574" stroke-width="0.546875"/>
<path d="M28.3428 24.0472C28.3428 23.5206 28.7697 23.0938 29.2963 23.0938H36.9242C37.4508 23.0938 37.8777 23.5206 37.8777 24.0472C37.8777 24.5738 37.4508 25.0007 36.9242 25.0007H29.2963C28.7697 25.0007 28.3428 24.5738 28.3428 24.0472Z" fill="#E7ECFA"/>
<path d="M28.5696 20.2762C28.9942 16.8407 31.0559 15.3523 33.7292 15.1654C31.0559 14.9786 29.0027 13.4859 28.5696 10.0547C28.1449 13.4859 26.0832 14.9786 23.4121 15.1654C26.0832 15.3523 28.1449 16.8407 28.5696 20.2762Z" fill="#BDCCF8"/>
<path d="M38.2896 19.311C38.5444 17.279 39.7589 16.3978 41.3408 16.2874C39.7589 16.1749 38.5444 15.2937 38.2896 13.2617C38.0327 15.2937 36.8161 16.1749 35.2363 16.2874C36.8161 16.4021 38.0327 17.279 38.2896 19.311Z" fill="#BDCCF8"/>
<path d="M34.7273 10.0542C34.8632 8.97553 35.5087 8.50841 36.3474 8.44895C35.4981 8.3895 34.8611 7.92238 34.7273 6.84375C34.5914 7.92238 33.9481 8.3895 33.1094 8.44895C33.9375 8.50841 34.5808 8.97128 34.7273 10.0542Z" fill="#BDCCF8"/>
</svg>
