<svg width="208" height="40" viewBox="0 0 208 40" fill="none" xmlns="http://www.w3.org/2000/svg">
    <g id="Group 628">
        <g id="banalise-court-3422-couleur-aplat 2">
            <path id="Vector" d="M207.5 1.00195H0V38.9984H207.5V1.00195Z" fill="white"/>
            <path id="Vector_2" d="M1.06087 2.06015H206.439V37.9402H1.06087V2.06015ZM0 38.9984H207.5V1.00195H0V38.9984Z"
                  fill="#91919B"/>
            <path id="Vector_3" d="M80.5488 0V9.91182L90.6554 20L80.5488 30.0882V40H197.379V0H80.5488Z" fill="#91919B"/>
            <g id="text">
                <path id="Vector_4"
                      d="M96.127 8.23146C96.127 5.98102 97.3293 5.32493 98.8994 5.29671C100.37 5.26144 102.054 5.48014 102.86 5.74821V7.45545C101.962 7.37079 99.9461 7.30024 99.4369 7.30024C98.5811 7.27908 98.086 7.34257 98.086 8.40077V8.95809C98.086 9.86109 98.3972 10.0516 99.1893 10.0516H100.809C102.818 10.0516 103.235 11.8082 103.235 13.0639V13.8188C103.235 16.4008 101.785 16.8734 100.399 16.8734C98.6518 16.8734 97.499 16.7535 96.4452 16.4078V14.7006C97.0039 14.7641 98.7155 14.8699 100.017 14.8699C100.604 14.8699 101.276 14.7641 101.276 13.8893V13.2756C101.276 12.6265 101.099 12.2173 100.349 12.2173H98.7721C96.2967 12.2173 96.127 10.1927 96.127 9.205V8.23146Z"
                      fill="white"/>
                <path id="Vector_5"
                      d="M107.479 8.44336C109.629 8.44336 110.633 8.71849 110.633 11.4487C110.633 12.916 109.905 13.5157 108.561 13.5157H106.191C106.191 15.0042 106.701 15.0959 107.762 15.0959C108.893 15.0959 109.445 15.103 110.492 14.9337V16.401C109.445 16.8314 107.846 16.8384 106.68 16.8384C104.791 16.8384 104.232 15.625 104.232 12.5986C104.232 9.05006 105.116 8.44336 107.479 8.44336ZM108.052 11.9566C108.462 11.9566 108.674 11.7308 108.674 11.3428C108.674 10.2987 108.54 10.1083 107.599 10.1083C106.566 10.1083 106.177 10.1788 106.199 11.9566H108.052Z"
                      fill="white"/>
                <path id="Vector_6"
                      d="M111.686 8.50729H113.341L113.645 9.55138C114.161 9.00112 114.854 8.42969 115.781 8.42969C116.106 8.42969 116.41 8.4438 116.608 8.52845V10.6237C116.41 10.6025 115.957 10.5814 115.533 10.5814C114.72 10.5814 114.133 10.7295 113.645 11.4985V16.7542H111.686V8.50729Z"
                      fill="white"/>
                <path id="Vector_7"
                      d="M119.198 8.50586L120.825 14.206L122.494 8.50586H124.587L121.886 16.7528H119.693L117.098 8.50586H119.198Z"
                      fill="white"/>
                <path id="Vector_8"
                      d="M125.315 5.91144C125.315 5.67864 125.429 5.52344 125.655 5.52344H127.126C127.338 5.52344 127.437 5.69275 127.437 5.91144V7.28711C127.437 7.51991 127.317 7.64689 127.126 7.64689H125.655C125.457 7.64689 125.315 7.5058 125.315 7.28711V5.91144ZM125.386 8.50756H127.345V16.7474H125.386V8.50756Z"
                      fill="white"/>
                <path id="Vector_9"
                      d="M130.946 8.42969C131.674 8.42969 133.145 8.47907 134.369 8.91646V10.2639C134.369 10.2639 133.032 10.1722 131.78 10.1722C130.875 10.1722 130.451 10.2357 130.451 12.6625C130.451 14.7718 130.769 15.0752 131.78 15.0752C133.067 15.0752 134.461 14.927 134.461 14.927V16.2886C133.371 16.9024 132.098 16.7965 130.939 16.8177C129.552 16.8177 128.484 16.0135 128.484 12.6131C128.499 9.22687 129.517 8.42969 130.946 8.42969Z"
                      fill="white"/>
                <path id="Vector_10"
                      d="M138.385 8.44336C140.535 8.44336 141.539 8.71849 141.539 11.4487C141.539 12.916 140.811 13.5157 139.467 13.5157H137.098C137.098 15.0042 137.607 15.0959 138.668 15.0959C139.799 15.0959 140.351 15.103 141.398 14.9337V16.401C140.351 16.8314 138.753 16.8384 137.586 16.8384C135.697 16.8384 135.139 15.625 135.139 12.5986C135.132 9.05006 136.023 8.44336 138.385 8.44336ZM138.951 11.9566C139.361 11.9566 139.573 11.7308 139.573 11.3428C139.573 10.2987 139.439 10.1083 138.498 10.1083C137.466 10.1083 137.084 10.1788 137.098 11.9566H138.951Z"
                      fill="white"/>
                <path id="Vector_11"
                      d="M146.815 13.6912C146.2 13.2538 145.995 12.2308 145.995 11.4054C145.995 9.43719 146.893 8.4707 148.576 8.4707H153.102V9.76876L152.275 10.0509C152.402 10.3966 152.558 10.6788 152.558 11.6665C152.558 12.8517 152.112 14.439 150.012 14.439H148.293C148.067 14.439 147.727 14.439 147.727 14.7987C147.727 15.1585 147.982 15.215 148.293 15.215H150.578C151.921 15.215 152.777 15.991 152.777 17.6559V18.5518C152.777 19.737 152.282 20.9434 150.443 20.9434H148.343C147.027 20.9434 146.023 20.1815 146.023 18.5518V17.5077L146.674 16.7529C146.285 16.513 145.952 15.9487 145.952 15.1656C145.952 14.5095 146.207 13.9028 146.815 13.6912ZM148.859 12.6894H149.644C150.387 12.6894 150.599 12.1532 150.585 11.4125C150.563 10.5589 150.316 10.2273 149.63 10.2273H148.88C148.088 10.2273 147.954 10.7987 147.954 11.4125C147.954 12.1674 148.166 12.6894 148.859 12.6894ZM148.866 19.1938H150.026C150.726 19.1938 150.811 18.8129 150.811 18.3261V17.7264C150.811 17.2608 150.634 16.9786 150.082 16.9716H148.576C148.3 16.9716 147.982 16.9151 147.982 16.9151V18.2838C147.982 19.1021 148.378 19.1938 148.866 19.1938Z"
                      fill="white"/>
                <path id="Vector_12"
                      d="M153.938 8.50729H155.592L155.904 9.55138C156.42 9.00112 157.113 8.42969 158.04 8.42969C158.365 8.42969 158.669 8.4438 158.867 8.52845V10.6237C158.669 10.6025 158.216 10.5814 157.792 10.5814C156.979 10.5814 156.392 10.7295 155.904 11.4985V16.7542H153.945V8.50729H153.938Z"
                      fill="white"/>
                <path id="Vector_13"
                      d="M159.561 13.8754C159.561 12.6761 160.148 11.6109 161.739 11.6109C161.739 11.6109 163.925 11.625 163.925 11.6109C163.925 11.6109 163.939 11.0959 163.925 11.0818C163.925 10.207 163.557 10.0659 162.927 10.0659C162.284 10.0659 160.417 10.1929 159.801 10.2423V8.90189C160.784 8.47861 161.803 8.35868 163.189 8.35162C164.787 8.34457 165.877 8.95832 165.877 10.9971V16.7467H164.328L163.917 15.8366C163.833 16.013 162.793 16.8666 161.654 16.8384C160.226 16.7961 159.554 15.7167 159.554 14.6444V13.8754H159.561ZM162.213 15.0959C163.033 15.0959 163.917 14.461 163.917 14.461V12.9513L162.121 13.1065C161.605 13.1629 161.52 13.5862 161.52 13.946V14.3481C161.52 15.0253 161.852 15.0959 162.213 15.0959Z"
                      fill="white"/>
                <path id="Vector_14"
                      d="M166.619 8.94468L167.821 8.49318L168.154 6.19336H169.788V8.49318H171.45V10.151H169.788V13.4597C169.788 14.6731 170.042 14.9341 170.424 15.0893C170.424 15.0893 171.266 15.4138 171.365 15.4138V16.7472H169.653C168.55 16.7472 167.829 15.9852 167.829 13.7983V10.151H166.626V8.94468H166.619Z"
                      fill="white"/>
                <path id="Vector_15"
                      d="M172.27 8.50586H174.229V14.0297C174.229 14.848 174.561 15.1443 175.049 15.1443C175.834 15.1443 176.266 14.9186 176.846 14.4318V8.50586H178.805V16.7457H177.228L176.846 15.8709C176.11 16.3648 175.622 16.8868 174.483 16.8868C172.751 16.8868 172.263 15.5605 172.263 13.9873V8.50586H172.27Z"
                      fill="white"/>
                <path id="Vector_16"
                      d="M179.973 5.91144C179.973 5.67864 180.086 5.52344 180.305 5.52344H181.776C181.988 5.52344 182.094 5.69275 182.094 5.91144V7.28711C182.094 7.51991 181.974 7.64689 181.776 7.64689H180.305C180.107 7.64689 179.973 7.5058 179.973 7.28711V5.91144ZM180.043 8.50756H182.002V16.7474H180.043V8.50756Z"
                      fill="white"/>
                <path id="Vector_17"
                      d="M182.829 8.94468L184.031 8.49318L184.364 6.19336H185.998V8.49318H187.66V10.151H185.998V13.4597C185.998 14.6731 186.252 14.9341 186.634 15.0893C186.634 15.0893 187.476 15.4138 187.575 15.4138V16.7472H185.863C184.76 16.7472 184.038 15.9852 184.038 13.7983V10.151H182.836V8.94468H182.829Z"
                      fill="white"/>
                <path id="Vector_18"
                      d="M95.9082 26.1069H97.9804V23.793H99.6283V26.1069H101.729V27.9341H99.6283V30.248H97.9804V27.9341H95.9082V26.1069Z"
                      fill="white"/>
                <path id="Vector_19"
                      d="M106.339 24.3026H107.952L108.291 25.1351C108.758 24.7189 109.656 24.2109 110.54 24.2109C112.372 24.2109 112.966 25.9111 112.966 28.3873C112.966 30.7718 112.598 32.6695 110.54 32.6695C109.911 32.6695 108.963 32.479 108.284 32.1333V36.733H106.332V24.3026H106.339ZM110.038 30.9693C110.66 30.9693 111.014 30.5743 111.014 28.472C111.014 26.6307 110.675 26.0663 110.038 26.0663C109.302 26.0663 108.715 26.278 108.291 26.5743V30.6519C108.807 30.8776 109.359 30.9693 110.038 30.9693Z"
                      fill="white"/>
                <path id="Vector_20"
                      d="M114.127 24.3003H115.782L116.086 25.3443C116.602 24.7941 117.295 24.2227 118.222 24.2227C118.54 24.2227 118.851 24.2368 119.049 24.3214V26.4167C118.851 26.3955 118.399 26.3743 117.974 26.3743C117.161 26.3743 116.574 26.5225 116.086 27.2914V32.5472H114.127V24.3003Z"
                      fill="white"/>
                <path id="Vector_21"
                      d="M119.855 21.7064C119.855 21.4736 119.969 21.3184 120.188 21.3184H121.659C121.871 21.3184 121.97 21.4877 121.97 21.7064V23.082C121.97 23.3148 121.85 23.4418 121.659 23.4418H120.188C119.99 23.4418 119.855 23.3007 119.855 23.082V21.7064ZM119.926 24.3025H121.885V32.5423H119.926V24.3025Z"
                      fill="white"/>
                <path id="Vector_22"
                      d="M125.33 28.4137L122.763 24.3008H125.132L126.49 26.7699L127.897 24.3008H130.267L127.664 28.463L130.153 32.5477H127.897L126.511 30.0997L125.132 32.5477H122.763L125.33 28.4137Z"
                      fill="white"/>
                <path id="Vector_23"
                      d="M134.439 29.6723C134.439 28.473 135.026 27.4078 136.617 27.4078C136.617 27.4078 138.802 27.4219 138.802 27.4078C138.802 27.4078 138.817 26.8928 138.802 26.8787C138.802 26.0039 138.435 25.8628 137.805 25.8628C137.162 25.8628 135.294 25.9898 134.679 26.0391V24.6988C135.662 24.2755 136.681 24.1556 138.067 24.1485C139.665 24.1414 140.754 24.7552 140.754 26.794V32.5436H139.206L138.795 31.6335C138.71 31.8099 137.671 32.6635 136.532 32.6353C135.104 32.5929 134.432 31.5136 134.432 30.4413V29.6723H134.439ZM137.091 30.8928C137.911 30.8928 138.795 30.2578 138.795 30.2578V28.7481L136.999 28.9033C136.483 28.9598 136.398 29.3831 136.398 29.7429V30.145C136.398 30.8222 136.73 30.8928 137.091 30.8928Z"
                      fill="white"/>
                <path id="Vector_24"
                      d="M141.921 24.3026H143.533L143.88 25.1351C144.347 24.7189 145.245 24.2109 146.129 24.2109C147.961 24.2109 148.555 25.9111 148.555 28.3873C148.555 30.7718 148.187 32.6695 146.129 32.6695C145.5 32.6695 144.552 32.479 143.873 32.1333V36.733H141.928V24.3026H141.921ZM145.62 30.9693C146.242 30.9693 146.596 30.5743 146.596 28.472C146.596 26.6307 146.256 26.0663 145.62 26.0663C144.884 26.0663 144.297 26.278 143.88 26.5743V30.6519C144.389 30.8776 144.941 30.9693 145.62 30.9693Z"
                      fill="white"/>
                <path id="Vector_25"
                      d="M149.708 24.3026H151.321L151.667 25.1351C152.134 24.7189 153.032 24.2109 153.916 24.2109C155.748 24.2109 156.342 25.9111 156.342 28.3873C156.342 30.7718 155.974 32.6695 153.916 32.6695C153.287 32.6695 152.339 32.479 151.66 32.1333V36.733H149.708V24.3026ZM153.407 30.9693C154.029 30.9693 154.383 30.5743 154.383 28.472C154.383 26.6307 154.036 26.0663 153.407 26.0663C152.671 26.0663 152.084 26.278 151.667 26.5743V30.6519C152.176 30.8776 152.728 30.9693 153.407 30.9693Z"
                      fill="white"/>
                <path id="Vector_26"
                      d="M160.635 24.2461C162.785 24.2461 163.789 24.5142 163.789 27.2514C163.789 28.7188 163.061 29.3184 161.717 29.3184H159.348C159.348 30.8069 159.857 30.8987 160.918 30.8987C162.049 30.8987 162.601 30.9057 163.648 30.7364V32.2038C162.601 32.6341 161.003 32.6412 159.836 32.6412C157.947 32.6412 157.389 31.4278 157.389 28.4013C157.389 24.8457 158.273 24.2461 160.635 24.2461ZM161.208 27.7523C161.618 27.7523 161.83 27.5265 161.83 27.1385C161.83 26.0944 161.696 25.9039 160.755 25.9039C159.723 25.9039 159.341 25.9745 159.355 27.7523H161.208Z"
                      fill="white"/>
                <path id="Vector_27"
                      d="M164.845 20.3945H166.804V29.2764C166.804 30.4757 167.065 30.7296 167.447 30.8919C167.447 30.8919 168.289 31.2164 168.388 31.2164V32.5497H166.768C165.552 32.5497 164.845 31.8019 164.845 29.615V20.3945Z"
                      fill="white"/>
            </g>
            <g id="3422">
                <path d="M9.70215 24.9223L13.4594 24.4676C13.5791 25.4229 13.9014 26.1532 14.4264 26.6584C14.9513 27.1636 15.5867 27.4162 16.3326 27.4162C17.1338 27.4162 17.8061 27.1131 18.3494 26.5068C18.9019 25.9006 19.1782 25.083 19.1782 24.0542C19.1782 23.0805 18.9157 22.3089 18.3908 21.7394C17.8659 21.1699 17.2259 20.8851 16.4708 20.8851C15.9735 20.8851 15.3795 20.9816 14.6888 21.1745L15.117 18.0192C16.1669 18.0467 16.968 17.8217 17.5206 17.344C18.0731 16.8572 18.3494 16.2142 18.3494 15.415C18.3494 14.7353 18.1468 14.1933 17.7416 13.7891C17.3364 13.385 16.7977 13.1829 16.1254 13.1829C15.4624 13.1829 14.896 13.4125 14.4264 13.8718C13.9567 14.3311 13.6712 15.0017 13.5699 15.8835L9.99223 15.2772C10.2409 14.0555 10.6138 13.0818 11.1111 12.3562C11.6176 11.6213 12.3175 11.0472 13.2108 10.6338C14.1133 10.2113 15.1216 10 16.2359 10C18.1422 10 19.6709 10.6063 20.822 11.8188C21.7705 12.8108 22.2448 13.9315 22.2448 15.1808C22.2448 16.9536 21.2732 18.3682 19.3301 19.4246C20.4905 19.6726 21.416 20.2284 22.1066 21.0918C22.8065 21.9553 23.1565 22.9979 23.1565 24.2196C23.1565 25.9924 22.5072 27.5035 21.2088 28.7528C19.9103 30.002 18.2941 30.6267 16.3602 30.6267C14.5277 30.6267 13.0082 30.1031 11.8018 29.0559C10.5954 27.9995 9.89554 26.6217 9.70215 24.9223Z"
                      fill="#91919B"/>
                <path d="M33.1989 30.2822V26.2175H24.9108V22.8279L33.6962 10H36.9561V22.8142H39.4702V26.2175H36.9561V30.2822H33.1989ZM33.1989 22.8142V15.911L28.5437 22.8142H33.1989Z"
                      fill="#91919B"/>
                <path d="M54.444 26.686V30.2822H40.8377C40.9851 28.9227 41.4271 27.6367 42.1638 26.4242C42.9005 25.2025 44.3555 23.5858 46.5289 21.5741C48.2786 19.9482 49.3514 18.8459 49.7474 18.2672C50.2815 17.468 50.5486 16.6781 50.5486 15.8973C50.5486 15.0338 50.3138 14.3724 49.8441 13.9131C49.3837 13.4447 48.7436 13.2104 47.924 13.2104C47.1136 13.2104 46.469 13.4539 45.9901 13.9407C45.5113 14.4275 45.235 15.2359 45.1613 16.3657L41.2936 15.9799C41.5238 13.8488 42.2467 12.3194 43.4623 11.3916C44.6779 10.4639 46.1973 10 48.0207 10C50.0191 10 51.5892 10.5374 52.7311 11.6121C53.873 12.6868 54.444 14.0234 54.444 15.6217C54.444 16.5311 54.2782 17.3991 53.9467 18.2259C53.6244 19.0434 53.1087 19.9023 52.3996 20.8025C51.9299 21.3995 51.0827 22.2584 49.8579 23.3791C48.6331 24.4997 47.855 25.2438 47.5234 25.6112C47.2011 25.9787 46.9387 26.3369 46.7361 26.686H54.444Z"
                      fill="#91919B"/>
                <path d="M70.1913 26.686V30.2822H56.5851C56.7324 28.9227 57.1744 27.6367 57.9112 26.4242C58.6479 25.2025 60.1029 23.5858 62.2762 21.5741C64.0259 19.9482 65.0988 18.8459 65.4948 18.2672C66.0289 17.468 66.2959 16.6781 66.2959 15.8973C66.2959 15.0338 66.0611 14.3724 65.5915 13.9131C65.131 13.4447 64.491 13.2104 63.6714 13.2104C62.861 13.2104 62.2164 13.4539 61.7375 13.9407C61.2586 14.4275 60.9824 15.2359 60.9087 16.3657L57.0409 15.9799C57.2711 13.8488 57.994 12.3194 59.2096 11.3916C60.4252 10.4639 61.9447 10 63.7681 10C65.7664 10 67.3366 10.5374 68.4785 11.6121C69.6204 12.6868 70.1913 14.0234 70.1913 15.6217C70.1913 16.5311 70.0256 17.3991 69.6941 18.2259C69.3717 19.0434 68.856 19.9023 68.147 20.8025C67.6773 21.3995 66.8301 22.2584 65.6053 23.3791C64.3805 24.4997 63.6023 25.2438 63.2708 25.6112C62.9485 25.9787 62.686 26.3369 62.4834 26.686H70.1913Z"
                      fill="#91919B"/>
            </g>
        </g>
    </g>
</svg>
