<svg width="56" height="56" viewBox="0 0 56 56" fill="none" xmlns="http://www.w3.org/2000/svg">
<path d="M9.13677 27.7415C13.3516 23.397 18.9574 20.0413 24.6633 18.3088C35.872 14.9061 48.2446 21.741 52.1921 32.9083C54.0491 38.1624 53.4287 44.4689 49.594 48.6366C46.7563 51.7212 42.6247 52.5274 38.668 51.7857C35.3308 51.1599 32.3361 49.4461 29.0796 48.5543C24.1011 47.1905 19.2582 48.4462 14.2494 48.0296C11.5035 47.8013 8.32539 46.7914 6.49786 44.5566C4.76283 42.4353 4.07988 39.4879 4.42236 36.7646C4.85451 33.3274 6.73817 30.2137 9.13677 27.7415Z" fill="#A0B2EC" fill-opacity="0.16"/>
<path fill-rule="evenodd" clip-rule="evenodd" d="M32.843 32.7351C28.738 38.4193 25.369 46.642 18.3716 46.5333C11.1289 46.4208 5.98458 39.0658 3.48056 32.2791C1.44736 26.7685 4.36138 21.117 7.06224 15.8817C9.23433 11.6713 12.4046 8.30017 16.7833 6.49313C21.6521 4.48384 27.3074 2.91079 31.7629 5.68803C36.2787 8.50288 37.6059 14.2798 37.8186 19.605C38.0148 24.518 35.7277 28.7407 32.843 32.7351Z" fill="#A0B2EC" fill-opacity="0.16"/>
<g filter="url(#filter0_d_2191_50594)">
<path d="M28.0005 44.5205C37.1242 44.5205 44.5205 37.1242 44.5205 28.0005C44.5205 18.8767 37.1242 11.4805 28.0005 11.4805C18.8767 11.4805 11.4805 18.8767 11.4805 28.0005C11.4805 37.1242 18.8767 44.5205 28.0005 44.5205Z" fill="white"/>
</g>
<path d="M27.9876 42.2546C35.867 42.2546 42.2546 35.867 42.2546 27.9876C42.2546 20.1082 35.867 13.7207 27.9876 13.7207C20.1082 13.7207 13.7207 20.1082 13.7207 27.9876C13.7207 35.867 20.1082 42.2546 27.9876 42.2546Z" fill="#F0B323"/>
<path fill-rule="evenodd" clip-rule="evenodd" d="M28.0602 23.2402C27.5631 23.2402 27.1602 23.6432 27.1602 24.1402V28.6402C27.1602 29.1373 27.5631 29.5402 28.0602 29.5402C28.5572 29.5402 28.9602 29.1373 28.9602 28.6402V24.1402C28.9602 23.6432 28.5572 23.2402 28.0602 23.2402ZM28.0602 30.8902C27.5631 30.8902 27.1602 31.2931 27.1602 31.7902C27.1602 32.2873 27.5631 32.6902 28.0602 32.6902C28.5572 32.6902 28.9602 32.2873 28.9602 31.7902C28.9602 31.2931 28.5572 30.8902 28.0602 30.8902Z" fill="white"/>
<defs>
<filter id="filter0_d_2191_50594" x="11.4805" y="11.4805" width="33.04" height="35.0391" filterUnits="userSpaceOnUse" color-interpolation-filters="sRGB">
<feFlood flood-opacity="0" result="BackgroundImageFix"/>
<feColorMatrix in="SourceAlpha" type="matrix" values="0 0 0 0 0 0 0 0 0 0 0 0 0 0 0 0 0 0 127 0" result="hardAlpha"/>
<feOffset dy="2"/>
<feComposite in2="hardAlpha" operator="out"/>
<feColorMatrix type="matrix" values="0 0 0 0 0 0 0 0 0 0 0 0 0 0 0 0 0 0 0.1 0"/>
<feBlend mode="normal" in2="BackgroundImageFix" result="effect1_dropShadow_2191_50594"/>
<feBlend mode="normal" in="SourceGraphic" in2="effect1_dropShadow_2191_50594" result="shape"/>
</filter>
</defs>
</svg>
