<svg width="64" height="64" viewBox="0 0 64 64" fill="none" xmlns="http://www.w3.org/2000/svg">
<path d="M49.2629 17.9938C49.3602 24.4214 47.6714 31.151 44.689 36.7369C38.8299 47.7093 24.413 51.8678 13.0681 46.4461C7.73062 43.8951 3.46271 38.6934 3.21281 32.6839C3.0274 28.2366 5.52343 24.5286 9.05004 22.1143C12.0246 20.0781 15.5587 19.1162 18.6723 17.3405C23.4328 14.626 26.1253 10.0463 30.1975 6.59779C32.4299 4.70715 35.5734 3.07897 38.6225 3.3848C41.517 3.67485 44.2419 5.37535 46.0289 7.67761C48.2844 10.5833 49.2077 14.3361 49.2629 17.9938Z" fill="#A0B2EC" fill-opacity="0.16"/>
<path fill-rule="evenodd" clip-rule="evenodd" d="M45.1752 28.6307C51.4467 32.6402 60.364 35.7161 60.6709 43.142C60.9885 50.8281 53.5041 56.7263 46.4628 59.7908C40.7455 62.2791 34.5804 59.5304 28.8692 56.9826C24.2762 54.9336 20.5124 51.7756 18.3332 47.242C15.9102 42.2009 13.902 36.2996 16.5766 31.4079C19.2873 26.45 25.3294 24.6942 30.9602 24.1474C36.155 23.6429 40.768 25.8131 45.1752 28.6307Z" fill="#A0B2EC" fill-opacity="0.16"/>
<path fill-rule="evenodd" clip-rule="evenodd" d="M48.5735 42.3978C51.4677 41.4701 53.2016 40.2884 53.2016 39.0016C53.2016 36.0192 43.8891 33.6016 32.4016 33.6016C20.914 33.6016 11.6016 36.0192 11.6016 39.0016C11.6016 41.9839 20.914 44.4016 32.4016 44.4016C37.5525 44.4016 42.2661 43.9155 45.899 43.1104L42.0016 41.0171L48.5735 42.3978Z" fill="#35B1A1"/>
<path d="M32.5649 30.7057C30.147 30.7057 28.1875 27.6579 28.1875 23.1185C28.1875 18.1066 31.3635 15.2093 32.3051 14.4622C32.3836 14.4 32.4733 14.3672 32.5649 14.3672C32.6564 14.3672 32.7462 14.4 32.8246 14.4622C33.7653 15.2106 36.9402 18.1066 36.9402 23.1198C36.9402 27.6579 34.9807 30.7057 32.5649 30.7057Z" fill="#EB6276"/>
<path d="M29.4257 32.7621C27.0902 33.3879 24.4086 30.9511 23.2338 26.5664C21.9366 21.7253 24.2545 18.1047 24.9707 17.1393C25.0303 17.059 25.1086 17.004 25.197 16.9803C25.2854 16.9566 25.3806 16.9651 25.4724 17.0049C26.5748 17.4843 30.3911 19.4599 31.6886 24.3023C32.8631 28.6857 31.7592 32.1368 29.4257 32.7621Z" fill="#D73A51"/>
<path d="M29.2674 38.0443C28.0585 40.1382 24.0196 40.069 19.4634 37.4385C14.433 34.5341 13.1129 30.1047 12.8339 28.8563C12.8107 28.7523 12.8226 28.6555 12.8684 28.5763C12.9141 28.497 12.992 28.4383 13.0936 28.4064C14.3151 28.0254 16.8994 30.2066 23.8411 29.8592C30.7829 29.5117 30.4753 35.9521 29.2674 38.0443Z" fill="#D73A51"/>
<path d="M35.0842 38.0443C36.2931 40.1382 40.3319 40.069 44.8881 37.4385C49.9186 34.5341 51.2387 30.1047 51.5177 28.8563C51.5409 28.7523 51.529 28.6555 51.4832 28.5763C51.4374 28.497 51.3596 28.4383 51.258 28.4064C50.0364 28.0254 47.4522 30.2066 40.5104 29.8592C33.5687 29.5117 33.8762 35.9521 35.0842 38.0443Z" fill="#D73A51"/>
<path d="M26.4714 35.5932C24.2552 36.8728 20.8461 35.1161 18.4438 30.9553C15.7914 26.3612 17.1693 22.0247 17.6371 20.8416C17.6761 20.7431 17.741 20.6655 17.8249 20.617C17.9088 20.5686 18.0085 20.5512 18.1133 20.5667C19.3716 20.7549 23.8144 21.7292 26.4675 26.3244C28.8691 30.4841 28.6858 34.3148 26.4714 35.5932Z" fill="#FE8C9C"/>
<path d="M39.2018 35.5936C36.9856 34.314 36.8023 30.4833 39.2046 26.3224C41.857 21.7284 46.3015 20.7534 47.56 20.567C47.6648 20.5515 47.7644 20.5689 47.8483 20.6173C47.9322 20.6658 47.9972 20.7434 48.0361 20.8419C48.5023 22.0257 49.88 26.3605 47.2269 30.9557C44.8253 35.1154 41.4162 36.8721 39.2018 35.5936Z" fill="#FE8C9C"/>
<path d="M35.3355 32.7623C33 32.1366 31.8961 28.6855 33.0709 24.3008C34.3681 19.4597 38.1857 17.4831 39.2887 17.0051C39.3805 16.9654 39.4757 16.9569 39.5642 16.9806C39.6526 17.0043 39.7308 17.0593 39.7905 17.1396C40.5054 18.106 42.8226 21.725 41.5251 26.5674C40.3506 30.9508 37.669 33.3876 35.3355 32.7623Z" fill="#D73A51"/>
<path d="M29.7661 33.9992L27.1953 25.1992H37.9953L35.4245 33.9992H29.7661Z" fill="#F0B323"/>
<path d="M32.5953 26.7992C35.5777 26.7992 37.9953 25.9933 37.9953 24.9992C37.9953 24.0051 35.5777 23.1992 32.5953 23.1992C29.613 23.1992 27.1953 24.0051 27.1953 24.9992C27.1953 25.9933 29.613 26.7992 32.5953 26.7992Z" fill="#FDF0D3"/>
<path d="M32.5965 35.9984C29.6132 35.9984 27.1953 33.4615 27.1953 29.683C27.1953 25.5111 31.1141 23.0994 32.2761 22.4775C32.3728 22.4258 32.4836 22.3984 32.5965 22.3984C32.7095 22.3984 32.8203 22.4258 32.917 22.4775C34.0777 23.1005 37.9953 25.5111 37.9953 29.6841C37.9953 33.4615 35.5774 35.9984 32.5965 35.9984Z" fill="#FE8C9C"/>
<path d="M32.5976 38.6173C30.4422 40.7727 26.0969 39.9211 22.2268 36.051C17.9538 31.778 18.3148 26.4765 18.5173 25.0001C18.5342 24.8772 18.5863 24.7692 18.6679 24.6876C18.7495 24.606 18.8575 24.554 18.9804 24.5371C20.4571 24.3366 25.7565 23.9753 30.0306 28.2494C33.8996 32.1184 34.7512 36.4637 32.5976 38.6173Z" fill="#EB6276"/>
<path d="M32.668 38.6173C34.8234 40.7727 39.1687 39.9211 43.0389 36.051C47.3119 31.778 46.9508 26.4765 46.7483 25.0001C46.7314 24.8772 46.6793 24.7692 46.5978 24.6876C46.5162 24.606 46.4081 24.554 46.2852 24.5371C44.8086 24.3366 39.5092 23.9753 35.235 28.2494C31.366 32.1184 30.5144 36.4637 32.668 38.6173Z" fill="#EB6276"/>
<path d="M32.6407 39.4134C31.9814 41.2951 27.8995 41.577 22.6159 39.7256C16.7822 37.6814 14.276 34.028 13.6632 32.9905C13.6122 32.9041 13.5985 32.8208 13.6234 32.7496C13.6484 32.6783 13.7111 32.6219 13.8048 32.5862C14.9325 32.1594 18.1127 33.7952 25.0043 32.9143C31.896 32.0335 33.2995 37.5333 32.6407 39.4134Z" fill="#FE8C9C"/>
<path d="M32.6405 39.4134C33.2999 41.2951 37.3818 41.577 42.6654 39.7256C48.499 37.6814 51.0053 34.028 51.6181 32.9905C51.669 32.9041 51.6828 32.8208 51.6578 32.7496C51.6329 32.6783 51.5702 32.6219 51.4764 32.5862C50.3488 32.1594 47.1686 33.7952 40.2769 32.9143C33.3853 32.0335 31.9817 37.5333 32.6405 39.4134Z" fill="#FE8C9C"/>
</svg>
