<svg width="80" height="80" viewBox="0 0 80 80" fill="none" xmlns="http://www.w3.org/2000/svg">
<mask id="mask0_14752_118111" style="mask-type:alpha" maskUnits="userSpaceOnUse" x="0" y="0" width="80" height="80">
<rect width="80" height="80" rx="8" fill="#E7ECFA"/>
</mask>
<g mask="url(#mask0_14752_118111)">
<rect x="-15.832" y="-5" width="115" height="89.5455" fill="#E7ECFA"/>
<path d="M64.2793 14.654C66.9835 26.7785 63.7459 39.8427 55.7018 51.0129C39.8981 72.9549 -7.42675 83.7898 -47.8794 75.8888C-66.9115 72.171 -83.2978 63.224 -86.3649 51.921C-88.6363 43.5563 -81.5467 36.0346 -70.4864 30.7445C-61.1575 26.283 -49.535 23.7356 -39.6385 19.7375C-24.5075 13.6253 -17.0741 4.41616 -4.54655 -2.94073C2.32089 -6.97407 12.373 -10.6996 22.8199 -10.7515C32.737 -10.8013 42.6003 -8.15102 49.5074 -4.17006C58.2253 0.854266 62.7408 7.75433 64.2793 14.654Z" fill="#A0B2EC" fill-opacity="0.16"/>
<path d="M45.3481 29.0814C71.6628 30.4297 98.4275 35.9412 119.949 44.1349C162.224 60.2315 172.888 94.2566 145.743 118.906C132.971 130.504 109.835 139.004 85.1623 138.107C66.9029 137.445 52.8432 130.824 44.5242 122.159C37.5083 114.851 35.1292 106.524 29.2391 98.9614C20.235 87.3985 2.699 80.1145 -9.60755 69.9479C-16.3547 64.3745 -21.6287 56.7794 -19.0392 49.873C-16.5821 43.3167 -8.4344 37.4934 1.76092 33.9646C14.6285 29.5105 30.3733 28.3139 45.3481 29.0814Z" fill="#A0B2EC" fill-opacity="0.16"/>
</g>
<path d="M10.4229 44.5048C13.9407 49.8607 18.2701 53.9106 23.6331 56.9242C24.0444 57.1554 23.8643 57.7745 23.393 57.7616C18.3663 57.6228 10.4539 50.9892 9.60231 44.805C9.53775 44.3344 10.1614 44.1078 10.4229 44.5048Z" fill="#0C419A"/>
<path d="M56.0723 27.7198C54.2252 22.0231 51.3084 17.1656 47.3134 12.8962C46.9151 12.4708 47.3812 11.8174 47.9164 12.0479C52.7068 14.1112 57.7399 22.249 57.1046 27.6295C57.0375 28.1931 56.2473 28.2596 56.0723 27.7198Z" fill="#0C419A"/>
<path d="M46.8048 16.1576C50.0076 17.9653 52.9431 23.0029 53.0348 26.7112C53.0497 27.3052 52.2091 27.4491 52.0057 26.8907C51.344 25.0727 50.5932 23.3373 49.5847 21.7059C48.5782 20.0783 47.5124 18.5056 46.143 16.973C45.7363 16.5185 46.2728 15.8574 46.8048 16.1576Z" fill="#0C419A"/>
<path d="M23.2621 53.6018C19.4388 52.7787 14.6459 48.3144 13.6833 44.5505C13.5613 44.0741 14.1979 43.7907 14.4864 44.1896C17.0017 47.6656 19.9431 50.4875 23.5984 52.7826C24.0297 53.0531 23.7605 53.709 23.2621 53.6018Z" fill="#0C419A"/>
<path d="M26.6527 43.1206C27.7547 44.3511 30.6554 46.5564 31.2894 47.1568C31.9233 47.7572 32.6238 48.4577 32.9576 48.1575C33.2914 47.8573 32.8575 47.3906 32.4908 46.9567C32.1241 46.5229 24.1626 38.6285 22.5615 36.671C20.9604 34.7142 17.1352 31.3338 19.7596 28.3983C22.384 25.4627 26.9651 30.4442 27.1872 30.7108C27.4093 30.9775 34.8821 38.6278 35.5045 39.3393C36.1275 40.0507 37.9952 42.1857 38.3509 41.8745C38.7067 41.5634 38.2173 40.8074 36.9274 39.2056C35.6375 37.6045 28.2544 28.3531 27.0536 26.4408C25.8528 24.5286 24.6519 21.8151 26.4306 20.2586C28.2098 18.702 30.3448 19.1914 31.9014 20.7925C33.4579 22.3936 39.6402 30.3106 40.708 31.7787C41.7752 33.2461 44.0438 36.9383 44.4441 36.8492C44.8444 36.7601 45.111 36.6271 44.6662 35.6038C44.2214 34.5806 39.8184 27.1529 38.706 25.3743C37.5943 23.595 34.9699 19.5213 37.0604 17.3108C39.1508 15.1002 42.6203 18.0797 43.4208 19.4587C44.2214 20.8377 48.1356 27.109 49.2474 29.2879C50.3591 31.4675 52.0493 34.7587 52.6277 35.6484C53.2062 36.538 55.2075 38.8506 55.919 39.6511C56.6304 40.4516 57.1644 40.8965 58.054 40.7183C58.9436 40.5401 59.2994 39.4284 59.3439 38.3612C59.3885 37.294 59.1218 33.5579 59.3439 31.2893C59.566 29.0206 61.1677 24.0837 65.4816 24.351C69.7962 24.6177 67.4384 31.1466 67.3054 32.3745C67.1718 33.6025 66.8161 37.7388 66.9943 39.6517C67.1724 41.564 67.7503 50.6379 65.082 54.4186C62.4131 58.1992 56.7202 64.2478 52.0499 65.7159C47.3796 67.184 43.466 67.1395 41.1974 65.7159C38.9287 64.2924 35.2372 60.2451 33.2804 57.4877C31.3236 54.7304 29.2331 53.3068 28.2098 52.5063C27.1866 51.7057 23.3175 48.3699 21.0489 46.1904C18.7802 44.0108 16.6898 41.9113 18.3354 39.848C19.981 37.7834 23.2278 39.2954 26.6527 43.1206Z" fill="#F0B323"/>
<path fill-rule="evenodd" clip-rule="evenodd" d="M30.0487 46.1152C28.9197 45.1926 27.385 43.9385 26.6501 43.1179C24.5234 40.7427 22.4654 39.2594 20.8168 38.9705C20.6972 38.9691 20.5961 38.9728 20.5195 38.9777C23.1817 39.4816 30.6917 47.0785 31.0751 47.5304C31.3818 47.8918 32.2049 48.3051 32.6891 48.2405L32.6293 48.2059C32.4845 48.1636 32.318 48.0601 32.1405 47.9229L32.0758 47.8854L32.0257 47.8309C31.8193 47.6602 31.6018 47.4535 31.3891 47.2513C31.3548 47.2188 31.3207 47.1864 31.2868 47.1542C31.0755 46.9542 30.6128 46.5761 30.0487 46.1152ZM66.5747 50.574C66.2557 52.0689 65.7792 53.4245 65.0794 54.416C62.4105 58.1966 56.7176 64.2452 52.0473 65.7133C47.377 67.1814 43.4634 67.1369 41.1948 65.7133C40.1312 65.0459 38.7548 63.8018 37.3911 62.3843C41.9294 65.1718 46.7561 64.8705 46.7561 64.8705C51.4928 64.6704 58.098 59.3332 60.0328 56.9981C61.9677 54.6629 64.1692 51.3394 64.5695 47.9306C64.8005 45.9627 64.9204 43.708 65.0446 41.3705C65.1356 39.6589 65.2289 37.903 65.37 36.1826C65.7031 32.1128 66.2371 28.3096 66.6373 27.4425C66.9872 26.6846 67.219 25.323 66.6548 24.8698C68.434 25.8071 68.1081 28.5848 67.6928 30.5822C67.6257 30.892 67.5582 31.1796 67.4984 31.4344C67.4335 31.7108 67.3776 31.9486 67.3413 32.1341C67.3011 32.317 67.2721 32.4666 67.2603 32.575C67.1273 33.8036 66.771 37.94 66.9492 39.8522C67.0785 41.2408 67.4188 46.4026 66.5747 50.574ZM39.9403 16.7025C41.4786 17.2074 42.9349 18.6234 43.4182 19.4561C43.6586 19.8701 44.1797 20.7252 44.8213 21.7782C46.3167 24.2321 48.4668 27.7607 49.2448 29.2853C50.3565 31.4649 52.0467 34.7561 52.6251 35.6458C53.2036 36.5354 55.2049 38.8479 55.9164 39.6485C56.1371 39.8969 56.3408 40.111 56.5433 40.2829C56.0544 40.1457 54.9341 39.419 52.9932 37.2008C50.6432 34.5151 46.053 25.4939 44.0517 21.319C43.4168 20.0063 41.65 17.2453 39.6616 16.703C39.743 16.6932 39.8362 16.6925 39.9403 16.7025ZM40.3369 31.2812C40.4916 31.4861 40.6163 31.6535 40.7054 31.776C41.028 32.2197 41.4604 32.8666 41.9178 33.5509C42.8945 35.0122 43.9852 36.6439 44.364 36.8305L44.4067 36.878C44.1485 36.8995 43.5739 36.8392 43.3415 36.426C43.051 35.9096 32.1403 20.4152 29.6225 19.4145C29.6356 19.4162 29.6492 19.4181 29.6635 19.4203C30.4655 19.6262 31.2348 20.1069 31.8988 20.7899C33.1243 22.0504 37.217 27.2259 39.4237 30.0869C39.6713 30.4328 39.9951 30.8523 40.3369 31.2812ZM25.6498 29.2611C24.7274 28.5117 23.505 27.7148 22.3065 27.5184C22.2789 27.5174 22.2534 27.5168 22.2304 27.5168C24.8527 28.1982 36.7761 41.1204 37.1283 41.597C37.41 41.9783 37.9877 41.9669 38.2413 41.9136L38.2262 41.9006C37.6852 41.8299 36.0821 39.9993 35.5074 39.3429L35.5019 39.3367C35.143 38.9264 32.5061 36.2088 30.2953 33.9302C28.6722 32.2573 27.2786 30.8211 27.1846 30.7082C27.1616 30.6806 27.092 30.6026 26.9827 30.4881C26.4846 30.0272 26.028 29.6072 25.6498 29.2611Z" fill="#D0A235"/>
</svg>
