<svg width="80" height="81" viewBox="0 0 80 81" fill="none" xmlns="http://www.w3.org/2000/svg">
<path fill-rule="evenodd" clip-rule="evenodd" d="M8.00221 36.7764C5.95563 27.5142 0.673729 16.7087 7.10593 9.74425C13.7636 2.53567 25.8587 3.96752 34.9929 7.55225C42.4095 10.4629 45.4991 18.4937 48.3599 25.9345C50.6605 31.9185 51.2096 38.1542 49.0831 44.201C46.7187 50.9245 43.2019 58.0489 36.3643 60.0446C29.4341 62.0673 22.3857 58.2043 16.8015 53.623C11.6497 49.3965 9.44042 43.2852 8.00221 36.7764Z" fill="#A0B2EC" fill-opacity="0.16"/>
<path d="M75.7126 36.9526C76.6465 44.5288 75.4073 52.6776 72.422 59.6328C66.5568 73.2949 49.2342 79.9487 34.5024 74.9209C27.5714 72.5551 21.6292 66.9308 20.5592 59.8667C19.7668 54.639 22.3877 49.9595 26.4483 46.6826C29.8732 43.919 34.1269 42.3558 37.757 39.8828C43.3071 36.1022 46.061 30.37 50.6662 25.8062C53.1907 23.3041 56.8764 21.0017 60.6901 20.9938C64.3103 20.986 67.8991 22.6637 70.403 25.1654C73.5632 28.3227 75.1812 32.6413 75.7126 36.9526Z" fill="#A0B2EC" fill-opacity="0.16"/>
<path d="M10.4229 45.0048C13.9407 50.3607 18.2701 54.4106 23.6331 57.4242C24.0444 57.6554 23.8643 58.2745 23.393 58.2616C18.3663 58.1228 10.4539 51.4892 9.60231 45.305C9.53775 44.8344 10.1614 44.6078 10.4229 45.0048Z" fill="#0C419A"/>
<path d="M56.0723 28.2198C54.2252 22.5231 51.3084 17.6656 47.3134 13.3962C46.9151 12.9708 47.3812 12.3174 47.9164 12.5479C52.7068 14.6112 57.7399 22.749 57.1046 28.1295C57.0375 28.6931 56.2473 28.7596 56.0723 28.2198Z" fill="#0C419A"/>
<path d="M46.8009 16.6576C50.0037 18.4653 52.9392 23.5029 53.0309 27.2112C53.0458 27.8052 52.2052 27.9491 52.0018 27.3907C51.3401 25.5727 50.5893 23.8373 49.5808 22.2059C48.5743 20.5783 47.5084 19.0056 46.1391 17.473C45.7324 17.0185 46.2689 16.3574 46.8009 16.6576Z" fill="#0C419A"/>
<path d="M23.2621 54.1018C19.4388 53.2787 14.6459 48.8144 13.6833 45.0505C13.5613 44.5741 14.1979 44.2907 14.4864 44.6896C17.0017 48.1656 19.9431 50.9875 23.5984 53.2826C24.0297 53.5531 23.7605 54.209 23.2621 54.1018Z" fill="#0C419A"/>
<path d="M26.6488 43.6206C27.7508 44.8511 30.6515 47.0564 31.2855 47.6568C31.9194 48.2572 32.6199 48.9577 32.9537 48.6575C33.2875 48.3573 32.8536 47.8906 32.4869 47.4567C32.1202 47.0229 24.1587 39.1285 22.5576 37.171C20.9565 35.2142 17.1313 31.8338 19.7557 28.8983C22.38 25.9627 26.9612 30.9442 27.1833 31.2108C27.4054 31.4775 34.8782 39.1278 35.5006 39.8393C36.1236 40.5507 37.9913 42.6857 38.347 42.3745C38.7028 42.0634 38.2134 41.3074 36.9235 39.7056C35.6336 38.1045 28.2505 28.8531 27.0497 26.9408C25.8489 25.0286 24.648 22.3151 26.4267 20.7586C28.2059 19.202 30.3409 19.6914 31.8975 21.2925C33.454 22.8936 39.6363 30.8106 40.7041 32.2787C41.7713 33.7461 44.0399 37.4383 44.4402 37.3492C44.8405 37.2601 45.1071 37.1271 44.6623 36.1038C44.2175 35.0806 39.8145 27.6529 38.7021 25.8743C37.5904 24.095 34.966 20.0213 37.0565 17.8108C39.1469 15.6002 42.6164 18.5797 43.4169 19.9587C44.2175 21.3377 48.1317 27.609 49.2435 29.7879C50.3552 31.9675 52.0454 35.2587 52.6238 36.1484C53.2023 37.038 55.2036 39.3506 55.9151 40.1511C56.6265 40.9516 57.1605 41.3965 58.0501 41.2183C58.9397 41.0401 59.2955 39.9284 59.34 38.8612C59.3845 37.794 59.1179 34.0579 59.34 31.7893C59.5621 29.5206 61.1638 24.5837 65.4777 24.851C69.7923 25.1177 67.4345 31.6466 67.3015 32.8745C67.1679 34.1025 66.8122 38.2388 66.9904 40.1517C67.1685 42.064 67.7464 51.1379 65.0781 54.9186C62.4092 58.6992 56.7163 64.7478 52.046 66.2159C47.3757 67.684 43.4621 67.6395 41.1935 66.2159C38.9248 64.7924 35.2333 60.7451 33.2765 57.9877C31.3197 55.2304 29.2292 53.8068 28.2059 53.0063C27.1827 52.2057 23.3136 48.8699 21.0449 46.6904C18.7763 44.5108 16.6859 42.4113 18.3315 40.348C19.9771 38.2834 23.2238 39.7954 26.6488 43.6206Z" fill="#F0B323"/>
<path fill-rule="evenodd" clip-rule="evenodd" d="M30.0474 46.6165C28.9184 45.6939 27.3836 44.4398 26.6488 43.6192C24.5239 41.246 22.4676 39.7632 20.8197 39.4725C20.6972 39.4709 20.5937 39.4747 20.5156 39.4797C23.1778 39.9836 30.6878 47.5805 31.0712 48.0323C31.3779 48.3938 32.201 48.807 32.6852 48.7425L32.6203 48.7049C32.4804 48.6622 32.3206 48.5634 32.1505 48.4329L32.0719 48.3874L32.0109 48.321C31.8086 48.1525 31.5959 47.9504 31.3878 47.7526C31.3535 47.7201 31.3194 47.6877 31.2854 47.6555C31.0742 47.4555 30.6115 47.0774 30.0474 46.6165ZM66.5257 51.2925C66.2075 52.7013 65.7438 53.974 65.0781 54.9172C62.4092 58.6979 56.7163 64.7465 52.046 66.2146C47.3757 67.6827 43.4621 67.6381 41.1935 66.2146C40.1312 65.5481 38.7571 64.3063 37.3951 62.8911C41.9311 65.6734 46.7522 65.3725 46.7522 65.3725C51.4889 65.1723 58.0941 59.8352 60.0289 57.5C61.9638 55.1649 64.1653 51.8414 64.5656 48.4326C64.7966 46.4647 64.9165 44.2101 65.0407 41.8725V41.8725V41.8725V41.8725V41.8725C65.1317 40.1609 65.225 38.4049 65.3661 36.6846C65.6992 32.6147 66.2331 28.8115 66.6334 27.9445C66.9833 27.1865 67.2151 25.825 66.6508 25.3718C68.5287 26.3611 68.0616 29.4004 67.6193 31.4087C67.5768 31.596 67.5354 31.7726 67.4971 31.9357C67.4466 32.1504 67.4017 32.3418 67.3671 32.5035C67.3116 32.7474 67.2709 32.9435 67.2564 33.077C67.1234 34.3056 66.7671 38.4419 66.9452 40.3542C67.0768 41.7669 67.4267 47.0851 66.5257 51.2925ZM39.9429 17.2051C41.4797 17.7111 42.934 19.1255 43.4169 19.9574C43.6573 20.3714 44.1784 21.2266 44.82 22.2795C46.3154 24.7335 48.4655 28.262 49.2435 29.7866C50.3552 31.9662 52.0454 35.2574 52.6238 36.1471C53.2023 37.0367 55.2036 39.3493 55.9151 40.1498C56.1367 40.3992 56.3411 40.614 56.5444 40.7863C56.0582 40.6526 54.9369 39.9285 52.9893 37.7027C50.6393 35.017 46.0491 25.9958 44.0477 21.8209C43.4129 20.5082 41.6461 17.7472 39.6577 17.2049C39.7408 17.195 39.8362 17.1944 39.9429 17.2051ZM40.3887 31.8529C40.519 32.026 40.6254 32.1692 40.7041 32.2773C41.0267 32.721 41.4591 33.3679 41.9165 34.0522C42.8882 35.506 43.9727 37.1285 44.3569 37.3288L44.4028 37.3799C44.1446 37.4014 43.57 37.3412 43.3376 36.928C43.0471 36.4115 32.1364 20.9171 29.6186 19.9164C29.6357 19.9186 29.6538 19.9213 29.6728 19.9244C30.471 20.1317 31.2364 20.6112 31.8975 21.2912C33.1156 22.5441 37.1664 27.6649 39.3822 30.5362C39.6472 30.91 40.0088 31.3778 40.3887 31.8529ZM25.6195 29.7389C24.7021 28.9977 23.4953 28.2167 22.3112 28.0207C22.2802 28.0194 22.2519 28.0188 22.2265 28.0187C24.8488 28.7001 36.7722 41.6224 37.1244 42.099C37.4061 42.4802 37.9838 42.4689 38.2373 42.4156L38.2209 42.4014C37.676 42.3223 36.0794 40.4989 35.5061 39.8442L35.5006 39.838C35.1417 39.4277 32.5048 36.7101 30.294 34.4315C28.6709 32.7586 27.2773 31.3224 27.1833 31.2095C27.1621 31.184 27.101 31.1155 27.0057 31.0149C26.4854 30.5335 26.0096 30.0957 25.6195 29.7389Z" fill="#D0A235"/>
</svg>
