<svg width="127" height="53" viewBox="0 0 127 53" fill="none" xmlns="http://www.w3.org/2000/svg">
<g clip-path="url(#clip0_33290_130918)">
<path d="M74.7714 43.0171H71.4272V42.3178H72.7079V39.0785L71.4902 39.464V38.7348L73.0798 38.1641H73.5657V42.3178H74.7684V43.0171H74.7714Z" fill="#EBBC00"/>
<path d="M78.9615 41.6565C78.9615 42.5202 78.2297 43.1268 77.057 43.1268C75.8843 43.1268 75.1675 42.5202 75.1675 41.6565C75.1675 41.1216 75.4614 40.7003 75.9773 40.4582C75.5904 40.2431 75.3624 39.8934 75.3624 39.4302C75.3624 38.6324 76.0643 38.0586 77.06 38.0586C78.0558 38.0586 78.7636 38.6294 78.7636 39.4302C78.7636 39.8934 78.5356 40.2431 78.1547 40.4642C78.6706 40.7003 78.9645 41.1216 78.9645 41.6565H78.9615ZM78.0228 41.5998C78.0228 41.1575 77.6209 40.8138 77.057 40.8138C76.4932 40.8138 76.1033 41.1485 76.1033 41.5998C76.1033 42.051 76.4902 42.4216 77.057 42.4216C77.6239 42.4216 78.0228 42.057 78.0228 41.5998ZM76.1962 39.481C76.1962 39.9084 76.5471 40.2311 77.057 40.2311C77.5669 40.2311 77.9238 39.9024 77.9238 39.481C77.9238 39.0597 77.5729 38.731 77.057 38.731C76.5411 38.731 76.1962 39.0597 76.1962 39.481Z" fill="#EBBC00"/>
<path d="M82.4708 41.5562H80.0054V40.7344H82.4708V41.5562Z" fill="#EBBC00"/>
<path d="M86.4807 43.0192H83.2146V42.577L84.7472 40.7989C85.2421 40.2431 85.563 39.8994 85.563 39.499C85.563 39.1553 85.335 38.7937 84.7832 38.7937C84.2883 38.7937 83.9824 39.1075 83.9314 39.6006H83.0796C83.1096 38.6861 83.7814 38.0586 84.8132 38.0586C85.8449 38.0586 86.4238 38.728 86.4238 39.5079C86.4238 40.0369 86.0998 40.4283 85.464 41.1575L84.4532 42.32H86.4807V43.0192Z" fill="#EBBC00"/>
<path d="M88.7989 39.9272C89.8097 39.9272 90.4905 40.5697 90.4905 41.4692C90.4905 42.3686 89.7827 43.1247 88.7419 43.1247C87.7012 43.1247 87.0654 42.5599 86.9214 41.6903H87.7582C87.8812 42.1176 88.1811 42.3955 88.7389 42.3955C89.2968 42.3955 89.6837 42.0041 89.6837 41.4961C89.6837 40.988 89.3028 40.6533 88.688 40.6533H87.2903V38.1641H90.2686V38.9261H88.0851L88.0791 39.9242H88.7959L88.7989 39.9272Z" fill="#EBBC00"/>
<path d="M96.6418 39.6402V43.017H95.817V42.7809C95.5381 42.9812 95.1872 43.0947 94.7793 43.0947C93.8345 43.0947 93.0757 42.3088 93.0757 41.3316C93.0757 40.3544 93.8345 39.5625 94.7793 39.5625C95.1872 39.5625 95.5381 39.6761 95.817 39.8763V39.6402H96.6418ZM95.817 41.9024V40.7519C95.5801 40.4022 95.2501 40.2737 94.8992 40.2737C94.3204 40.2737 93.8975 40.7668 93.8975 41.3286C93.8975 41.8904 94.3204 42.3775 94.8992 42.3775C95.2501 42.3775 95.5801 42.249 95.817 41.8994V41.9024Z" fill="#EBBC00"/>
<path d="M100.973 41.153V43.0147H100.148V41.2008C100.148 40.6091 99.8332 40.2804 99.3174 40.2804C99.0234 40.2804 98.7025 40.4507 98.4446 40.7645V43.0117H97.6138V39.6349H98.4446V39.9128C98.7385 39.6708 99.0834 39.5273 99.4913 39.5273C100.379 39.5273 100.973 40.1698 100.973 41.147V41.153Z" fill="#EBBC00"/>
<path d="M102.398 41.8847C102.47 42.2851 102.769 42.4554 103.228 42.4554C103.63 42.4554 103.909 42.312 103.909 42.0849C103.909 41.9056 103.765 41.7771 103.501 41.7293L102.763 41.6068C102.248 41.5141 101.762 41.2511 101.762 40.6355C101.762 39.9572 102.341 39.5508 103.186 39.5508C103.765 39.5508 104.605 39.751 104.683 40.6714L103.915 40.6774C103.885 40.3337 103.57 40.1843 103.183 40.1843C102.796 40.1843 102.575 40.3487 102.575 40.5489C102.575 40.7132 102.688 40.8716 103.054 40.9344L103.684 41.033C104.2 41.1256 104.695 41.3527 104.695 42.0102C104.695 42.7304 104.059 43.1248 103.204 43.1248C102.431 43.1248 101.714 42.8051 101.636 41.8757L102.395 41.8817L102.398 41.8847Z" fill="#EBBC00"/>
<path d="M102.793 14.186C103.792 14.186 104.602 13.3792 104.602 12.384C104.602 11.3888 103.792 10.582 102.793 10.582C101.795 10.582 100.985 11.3888 100.985 12.384C100.985 13.3792 101.795 14.186 102.793 14.186Z" fill="#FFCA00"/>
<path d="M98.0335 14.0965C98.9827 14.0965 99.7521 13.3299 99.7521 12.3842C99.7521 11.4385 98.9827 10.6719 98.0335 10.6719C97.0844 10.6719 96.3149 11.4385 96.3149 12.3842C96.3149 13.3299 97.0844 14.0965 98.0335 14.0965Z" fill="#FFCA00"/>
<path d="M93.2766 14.0091C94.1777 14.0091 94.9082 13.2813 94.9082 12.3835C94.9082 11.4856 94.1777 10.7578 93.2766 10.7578C92.3755 10.7578 91.645 11.4856 91.645 12.3835C91.645 13.2813 92.3755 14.0091 93.2766 14.0091Z" fill="#FFCA00"/>
<path d="M88.5172 13.9197C89.3686 13.9197 90.0588 13.232 90.0588 12.3837C90.0588 11.5353 89.3686 10.8477 88.5172 10.8477C87.6658 10.8477 86.9756 11.5353 86.9756 12.3837C86.9756 13.232 87.6658 13.9197 88.5172 13.9197Z" fill="#FFCA00"/>
<path d="M83.7602 13.8302C84.5619 13.8302 85.2119 13.1827 85.2119 12.3839C85.2119 11.5851 84.5619 10.9375 83.7602 10.9375C82.9585 10.9375 82.3086 11.5851 82.3086 12.3839C82.3086 13.1827 82.9585 13.8302 83.7602 13.8302Z" fill="#FFCA00"/>
<path d="M79.0033 13.7428C79.757 13.7428 80.368 13.1341 80.368 12.3831C80.368 11.6322 79.757 11.0234 79.0033 11.0234C78.2497 11.0234 77.6387 11.6322 77.6387 12.3831C77.6387 13.1341 78.2497 13.7428 79.0033 13.7428Z" fill="#FFCA00"/>
<path d="M74.2434 13.6534C74.9474 13.6534 75.5181 13.0847 75.5181 12.3833C75.5181 11.6819 74.9474 11.1133 74.2434 11.1133C73.5394 11.1133 72.9688 11.6819 72.9688 12.3833C72.9688 13.0847 73.5394 13.6534 74.2434 13.6534Z" fill="#FFCA00"/>
<path d="M69.4865 13.566C70.1425 13.566 70.6742 13.0362 70.6742 12.3826C70.6742 11.729 70.1425 11.1992 69.4865 11.1992C68.8306 11.1992 68.2988 11.729 68.2988 12.3826C68.2988 13.0362 68.8306 13.566 69.4865 13.566Z" fill="#FFCA00"/>
<path d="M64.7271 13.4765C65.3334 13.4765 65.8249 12.9868 65.8249 12.3828C65.8249 11.7787 65.3334 11.2891 64.7271 11.2891C64.1209 11.2891 63.6294 11.7787 63.6294 12.3828C63.6294 12.9868 64.1209 13.4765 64.7271 13.4765Z" fill="#FFCA00"/>
<path d="M59.9702 13.3871C60.5267 13.3871 60.9779 12.9375 60.9779 12.383C60.9779 11.8284 60.5267 11.3789 59.9702 11.3789C59.4136 11.3789 58.9624 11.8284 58.9624 12.383C58.9624 12.9375 59.4136 13.3871 59.9702 13.3871Z" fill="#FFCA00"/>
<path d="M55.2103 13.2997C55.7189 13.2997 56.1311 12.8889 56.1311 12.3823C56.1311 11.8756 55.7189 11.4648 55.2103 11.4648C54.7018 11.4648 54.2896 11.8756 54.2896 12.3823C54.2896 12.8889 54.7018 13.2997 55.2103 13.2997Z" fill="#FFCA00"/>
<path d="M50.4534 13.2102C50.9122 13.2102 51.2841 12.8396 51.2841 12.3825C51.2841 11.9253 50.9122 11.5547 50.4534 11.5547C49.9945 11.5547 49.6226 11.9253 49.6226 12.3825C49.6226 12.8396 49.9945 13.2102 50.4534 13.2102Z" fill="#FFCA00"/>
<path d="M45.6935 13.1169C46.1026 13.1169 46.4343 12.7864 46.4343 12.3787C46.4343 11.9711 46.1026 11.6406 45.6935 11.6406C45.2843 11.6406 44.9526 11.9711 44.9526 12.3787C44.9526 12.7864 45.2843 13.1169 45.6935 13.1169Z" fill="#FFCA00"/>
<path d="M40.937 13.0295C41.2981 13.0295 41.5909 12.7378 41.5909 12.378C41.5909 12.0182 41.2981 11.7266 40.937 11.7266C40.5759 11.7266 40.2832 12.0182 40.2832 12.378C40.2832 12.7378 40.5759 13.0295 40.937 13.0295Z" fill="#FFCA00"/>
<path d="M102.793 14.186C103.792 14.186 104.602 13.3792 104.602 12.384C104.602 11.3888 103.792 10.582 102.793 10.582C101.795 10.582 100.985 11.3888 100.985 12.384C100.985 13.3792 101.795 14.186 102.793 14.186Z" fill="#EBBC00"/>
<path d="M98.0335 14.0965C98.9827 14.0965 99.7521 13.3299 99.7521 12.3842C99.7521 11.4385 98.9827 10.6719 98.0335 10.6719C97.0844 10.6719 96.3149 11.4385 96.3149 12.3842C96.3149 13.3299 97.0844 14.0965 98.0335 14.0965Z" fill="#EBBC00"/>
<path d="M93.2766 14.0091C94.1777 14.0091 94.9082 13.2813 94.9082 12.3835C94.9082 11.4856 94.1777 10.7578 93.2766 10.7578C92.3755 10.7578 91.645 11.4856 91.645 12.3835C91.645 13.2813 92.3755 14.0091 93.2766 14.0091Z" fill="#EBBC00"/>
<path d="M88.5172 13.9197C89.3686 13.9197 90.0588 13.232 90.0588 12.3837C90.0588 11.5353 89.3686 10.8477 88.5172 10.8477C87.6658 10.8477 86.9756 11.5353 86.9756 12.3837C86.9756 13.232 87.6658 13.9197 88.5172 13.9197Z" fill="#EBBC00"/>
<path d="M83.7602 13.8302C84.5619 13.8302 85.2119 13.1827 85.2119 12.3839C85.2119 11.5851 84.5619 10.9375 83.7602 10.9375C82.9585 10.9375 82.3086 11.5851 82.3086 12.3839C82.3086 13.1827 82.9585 13.8302 83.7602 13.8302Z" fill="#EBBC00"/>
<path d="M79.0033 13.7428C79.757 13.7428 80.368 13.1341 80.368 12.3831C80.368 11.6322 79.757 11.0234 79.0033 11.0234C78.2497 11.0234 77.6387 11.6322 77.6387 12.3831C77.6387 13.1341 78.2497 13.7428 79.0033 13.7428Z" fill="#EBBC00"/>
<path d="M74.2434 13.6534C74.9474 13.6534 75.5181 13.0847 75.5181 12.3833C75.5181 11.6819 74.9474 11.1133 74.2434 11.1133C73.5394 11.1133 72.9688 11.6819 72.9688 12.3833C72.9688 13.0847 73.5394 13.6534 74.2434 13.6534Z" fill="#EBBC00"/>
<path d="M69.4865 13.566C70.1425 13.566 70.6742 13.0362 70.6742 12.3826C70.6742 11.729 70.1425 11.1992 69.4865 11.1992C68.8306 11.1992 68.2988 11.729 68.2988 12.3826C68.2988 13.0362 68.8306 13.566 69.4865 13.566Z" fill="#EBBC00"/>
<path d="M64.7271 13.4765C65.3334 13.4765 65.8249 12.9868 65.8249 12.3828C65.8249 11.7787 65.3334 11.2891 64.7271 11.2891C64.1209 11.2891 63.6294 11.7787 63.6294 12.3828C63.6294 12.9868 64.1209 13.4765 64.7271 13.4765Z" fill="#EBBC00"/>
<path d="M59.9702 13.3871C60.5267 13.3871 60.9779 12.9375 60.9779 12.383C60.9779 11.8284 60.5267 11.3789 59.9702 11.3789C59.4136 11.3789 58.9624 11.8284 58.9624 12.383C58.9624 12.9375 59.4136 13.3871 59.9702 13.3871Z" fill="#EBBC00"/>
<path d="M55.2103 13.2997C55.7189 13.2997 56.1311 12.8889 56.1311 12.3823C56.1311 11.8756 55.7189 11.4648 55.2103 11.4648C54.7018 11.4648 54.2896 11.8756 54.2896 12.3823C54.2896 12.8889 54.7018 13.2997 55.2103 13.2997Z" fill="#EBBC00"/>
<path d="M50.4534 13.2102C50.9122 13.2102 51.2841 12.8396 51.2841 12.3825C51.2841 11.9253 50.9122 11.5547 50.4534 11.5547C49.9945 11.5547 49.6226 11.9253 49.6226 12.3825C49.6226 12.8396 49.9945 13.2102 50.4534 13.2102Z" fill="#EBBC00"/>
<path d="M45.6935 13.1169C46.1026 13.1169 46.4343 12.7864 46.4343 12.3787C46.4343 11.9711 46.1026 11.6406 45.6935 11.6406C45.2843 11.6406 44.9526 11.9711 44.9526 12.3787C44.9526 12.7864 45.2843 13.1169 45.6935 13.1169Z" fill="#EBBC00"/>
<path d="M40.937 13.0295C41.2981 13.0295 41.5909 12.7378 41.5909 12.378C41.5909 12.0182 41.2981 11.7266 40.937 11.7266C40.5759 11.7266 40.2832 12.0182 40.2832 12.378C40.2832 12.7378 40.5759 13.0295 40.937 13.0295Z" fill="#EBBC00"/>
<path d="M13.3045 27.9337L10.4522 23.1613L10.4462 23.1523H9.84033V30.2825H10.6201L10.5991 24.8348L13.0375 28.875L13.0405 28.887H13.5654L15.9858 24.8437L15.9768 30.2646V30.2825H16.7566V23.1523H16.1628L13.3045 27.9337Z" fill="#293277"/>
<path d="M20.527 25.3008C19.8191 25.3008 19.1623 25.5638 18.6794 26.0389C18.1966 26.514 17.9326 27.1595 17.9326 27.8558C17.9326 28.5521 18.1966 29.2155 18.6794 29.6966C19.1623 30.1777 19.8162 30.4407 20.527 30.4407C21.9756 30.4407 23.1093 29.3052 23.1093 27.8558C23.1093 26.4065 21.9756 25.3008 20.527 25.3008ZM22.3505 27.8558C22.3505 28.9226 21.5497 29.7564 20.527 29.7564C19.5042 29.7564 18.6914 28.9226 18.6914 27.8558C18.6914 26.789 19.4982 25.9971 20.527 25.9971C21.5557 25.9971 22.3505 26.8129 22.3505 27.8558Z" fill="#293277"/>
<path d="M26.5795 25.2725C25.8867 25.2725 25.2748 25.5146 24.8069 25.9748V25.4279H24.0571V30.284H24.8069V26.8504C25.2148 26.2975 25.8297 25.9658 26.4535 25.9658C27.3473 25.9658 27.8992 26.5635 27.8992 27.5227V30.284H28.658V27.4899C28.658 26.163 27.8212 25.2695 26.5765 25.2695L26.5795 25.2725Z" fill="#293277"/>
<path d="M37.4967 26.5889C38.1655 26.3439 38.5764 25.7373 38.5764 24.9872C38.5764 23.8546 37.6706 23.1523 36.213 23.1523H33.0308V30.2825H36.3149C37.8986 30.2825 38.9213 29.5145 38.9213 28.3222C38.9213 27.4107 38.4024 26.7832 37.4967 26.5859V26.5889ZM37.8986 28.2116C37.8986 28.9168 37.2597 29.3711 36.273 29.3711H34.0625V27.1657H36.3059C37.3197 27.1657 37.8986 27.5452 37.8986 28.2116ZM34.0625 26.2423V24.0668H36.105C37.0318 24.0668 37.5836 24.4582 37.5836 25.1127C37.5836 25.8299 37.0168 26.2423 36.033 26.2423H34.0625Z" fill="#293277"/>
<path d="M40.8588 24.2022C41.2166 24.2022 41.5066 23.9226 41.5066 23.5777C41.5066 23.2328 41.2166 22.9531 40.8588 22.9531C40.501 22.9531 40.2109 23.2328 40.2109 23.5777C40.2109 23.9226 40.501 24.2022 40.8588 24.2022Z" fill="#293277"/>
<path d="M41.3599 25.3711H40.3701V30.2809H41.3599V25.3711Z" fill="#293277"/>
<path d="M43.8519 22.8281H42.8262V30.296H43.8519V22.8281Z" fill="#293277"/>
<path d="M49.1306 25.6139C48.7137 25.333 48.2008 25.1836 47.643 25.1836C46.2513 25.1836 45.1206 26.358 45.1206 27.8014C45.1206 29.2447 46.2513 30.4102 47.643 30.4102C48.2008 30.4102 48.7137 30.2608 49.1306 29.9799V30.2966H50.3963V25.3001H49.1306V25.6169V25.6139ZM49.1306 28.6262C48.8247 29.0744 48.3838 29.3045 47.8199 29.3045C47.0281 29.3045 46.3863 28.6291 46.3863 27.8014C46.3863 26.9736 47.0161 26.2893 47.8199 26.2893C48.3808 26.2893 48.8217 26.5164 49.1306 26.9676V28.6291V28.6262Z" fill="#293277"/>
<path d="M54.5325 25.1436C53.9837 25.1436 53.4798 25.3229 53.0359 25.6726V25.299H51.7612V30.2955H53.0359V26.9904C53.3988 26.5511 53.8517 26.3001 54.2836 26.3001C55.0364 26.3001 55.4683 26.7782 55.4683 27.615V30.2955H56.734V27.5403C56.734 26.1059 55.8492 25.1406 54.5355 25.1406L54.5325 25.1436Z" fill="#293277"/>
<path d="M63.536 23.1406H60.8247V30.2977H62.1444V28.2208H63.3591C65.1676 28.2208 66.3853 27.1779 66.3853 25.6239C66.3853 24.07 65.2396 23.1406 63.539 23.1406H63.536ZM62.1444 24.3599H63.497C64.4418 24.3599 65.0776 24.8679 65.0776 25.6209C65.0776 26.4517 64.4418 27.0075 63.497 27.0075H62.1444V24.3569V24.3599Z" fill="#293277"/>
<path d="M68.5482 25.8824V25.2997H67.2705V30.2962H68.5482V27.2092C68.9711 26.6982 69.5529 26.4352 70.3208 26.4054H70.3507V25.207H70.3208C69.6129 25.207 69.0191 25.4341 68.5512 25.8824H68.5482Z" fill="#293277"/>
<path d="M75.2964 22.9023H73.8807L73.0649 24.516H74.2317L75.2964 22.9023Z" fill="#293277"/>
<path d="M73.7009 25.1406C72.1473 25.1406 71.0615 26.2344 71.0615 27.8002C71.0615 29.3661 72.1832 30.4509 73.7309 30.4509C74.8676 30.4509 75.7913 29.8443 76.0853 28.9059L76.0973 28.8671H74.7506L74.7416 28.882C74.5707 29.1719 74.2317 29.3273 73.7639 29.3273C72.978 29.3273 72.4382 28.888 72.3122 28.1469H76.1453V28.12C76.1723 27.9885 76.1813 27.8959 76.1813 27.7196C76.1723 26.2015 75.1495 25.1436 73.7009 25.1436V25.1406ZM72.3362 27.343C72.4922 26.6318 72.987 26.2254 73.7009 26.2254C74.3637 26.2254 74.7986 26.6318 74.8916 27.343H72.3362Z" fill="#293277"/>
<path d="M79.69 28.6558L78.1874 25.3178L78.1814 25.2969H76.8228L79.1262 30.2754L79.1352 30.2934H80.2419L82.5543 25.2969H81.2077L79.69 28.6558Z" fill="#293277"/>
<path d="M85.6139 25.0186C84.0123 25.0186 82.8936 26.1333 82.8936 27.732C82.8936 29.3308 84.0483 30.4454 85.6979 30.4454C86.9665 30.4454 87.9533 29.7551 88.2082 28.6883L88.2172 28.6494H86.4747L86.4657 28.6644C86.3217 28.8915 86.0548 29.014 85.7159 29.014C84.987 29.014 84.7141 28.5688 84.6151 28.1773H88.2142V28.1504C88.2382 27.989 88.2502 27.8217 88.2502 27.6244C88.2502 26.0884 87.1645 25.0156 85.6109 25.0156L85.6139 25.0186ZM84.6271 27.1792C84.7651 26.6592 85.116 26.3843 85.6439 26.3843C86.1717 26.3843 86.4627 26.6502 86.5586 27.1792H84.6241H84.6271Z" fill="#293277"/>
<path d="M92.764 25.0156C92.2632 25.0156 91.8283 25.1621 91.4024 25.4758V25.174H89.6328V30.296H91.4024V27.0955C91.6783 26.7847 91.9932 26.6144 92.2931 26.6144C92.875 26.6144 93.1929 26.9819 93.1929 27.6483V30.299H94.9505V27.3794C94.9505 25.948 94.0927 25.0216 92.764 25.0216V25.0156Z" fill="#293277"/>
<path d="M100.223 28.7096C99.833 28.7843 99.5601 28.8351 99.3292 28.8351C98.8283 28.8351 98.5643 28.5811 98.5643 28.106V26.6865H100.292V25.1744H98.5643V23.4531H96.8068V25.1744H95.811V26.6865H96.8068V28.1568C96.8068 29.5284 97.6406 30.4518 98.8793 30.4518C99.3771 30.4518 99.7551 30.413 100.427 30.2008L100.451 30.1918L100.256 28.7036L100.223 28.7096Z" fill="#293277"/>
<path d="M102.772 22.4727C102.187 22.4727 101.747 22.9 101.747 23.4648C101.747 24.0296 102.196 24.445 102.772 24.445C103.348 24.445 103.798 24.0146 103.798 23.4648C103.798 22.9149 103.348 22.4727 102.772 22.4727Z" fill="#293277"/>
<path d="M103.663 25.1758H101.906V30.2978H103.663V25.1758Z" fill="#293277"/>
<path d="M107.547 25.0586C105.928 25.0586 104.752 26.1822 104.752 27.7302C104.752 29.2781 105.928 30.4525 107.547 30.4525C109.167 30.4525 110.322 29.308 110.322 27.7302C110.322 26.1523 109.155 25.0586 107.547 25.0586ZM108.657 27.7391C108.657 28.4294 108.189 28.9285 107.547 28.9285C106.905 28.9285 106.426 28.4294 106.426 27.7391C106.426 27.0488 106.896 26.5797 107.547 26.5797C108.198 26.5797 108.657 27.0668 108.657 27.7391Z" fill="#293277"/>
<path d="M114.646 25.0156C114.145 25.0156 113.711 25.1621 113.285 25.4758V25.174H111.515V30.296H113.285V27.0955C113.561 26.7847 113.876 26.6144 114.175 26.6144C114.757 26.6144 115.075 26.9819 115.075 27.6483V30.299H116.833V27.3794C116.833 25.948 115.975 25.0216 114.646 25.0216V25.0156Z" fill="#293277"/>
</g>
<defs>
<clipPath id="clip0_33290_130918">
<rect width="126.455" height="52" fill="white" transform="translate(0 0.820312)"/>
</clipPath>
</defs>
</svg>
