<svg width="127" height="53" viewBox="0 0 127 53" fill="none" xmlns="http://www.w3.org/2000/svg">
<g clip-path="url(#clip0_33290_131178)">
<path d="M72.7454 42.1953V43.1844H71.9147V42.1953H69.3955V41.6663L70.7911 38.3164H71.6577L70.3846 41.4661H71.9177V40.0138H72.7484V41.4661H73.4208V42.1953H72.7484H72.7454Z" fill="#009F79"/>
<path d="M75.7425 40.0855C76.7525 40.0855 77.4309 40.731 77.4309 41.6335C77.4309 42.5359 76.7226 43.295 75.6827 43.295C74.6428 43.295 74.0062 42.7302 73.8628 41.8546H74.6995C74.822 42.2849 75.1209 42.5628 75.6797 42.5628C76.2385 42.5628 76.624 42.1684 76.624 41.6604C76.624 41.1523 76.2445 40.8147 75.6289 40.8147H74.2333V38.3164H77.2127V39.0814H75.0282L75.0223 40.0825H75.7395L75.7425 40.0855Z" fill="#009F79"/>
<path d="M81.02 41.7154H78.5576V40.8906H81.02V41.7154Z" fill="#009F79"/>
<path d="M83.9246 40.0855C84.9346 40.0855 85.613 40.731 85.613 41.6335C85.613 42.5359 84.9048 43.295 83.8648 43.295C82.8249 43.295 82.1884 42.7302 82.0449 41.8546H82.8817C83.0042 42.2849 83.303 42.5628 83.8618 42.5628C84.4206 42.5628 84.8061 42.1684 84.8061 41.6604C84.8061 41.1523 84.4266 40.8147 83.811 40.8147H82.4155V38.3164H85.3948V39.0814H83.2104L83.2044 40.0825H83.9216L83.9246 40.0855Z" fill="#009F79"/>
<path d="M90.7351 40.7501C90.7351 42.2114 89.9402 43.2932 88.5715 43.2932C87.2028 43.2932 86.396 42.2114 86.396 40.7501C86.396 39.2888 87.1969 38.207 88.5715 38.207C89.9461 38.207 90.7351 39.2888 90.7351 40.7501ZM89.8744 40.7501C89.8744 39.755 89.4381 38.981 88.5715 38.981C87.7049 38.981 87.2596 39.755 87.2596 40.7501C87.2596 41.7452 87.6959 42.5192 88.5715 42.5192C89.4471 42.5192 89.8744 41.7452 89.8744 40.7501Z" fill="#009F79"/>
<path d="M96.9118 39.7955V43.1813H96.087V42.9452C95.8091 43.1455 95.4564 43.259 95.05 43.259C94.1057 43.259 93.3467 42.4701 93.3467 41.4899C93.3467 40.5097 94.1057 39.7148 95.05 39.7148C95.4594 39.7148 95.8091 39.8284 96.087 40.0286V39.7925H96.9118V39.7955ZM96.087 42.0667V40.9132C95.8509 40.5635 95.5222 40.432 95.1696 40.432C94.5898 40.432 94.1685 40.9251 94.1685 41.4929C94.1685 42.0607 94.5898 42.5448 95.1696 42.5448C95.5192 42.5448 95.8509 42.4163 96.087 42.0637V42.0667Z" fill="#009F79"/>
<path d="M101.242 41.3171V43.1848H100.417V41.3649C100.417 40.7702 100.104 40.4415 99.5867 40.4415C99.2938 40.4415 98.9711 40.6118 98.7141 40.9286V43.1848H97.8833V39.799H98.7141V40.0769C99.0069 39.8348 99.3506 39.6914 99.76 39.6914C100.648 39.6914 101.242 40.3369 101.242 41.3171Z" fill="#009F79"/>
<path d="M102.667 42.046C102.739 42.4464 103.041 42.6197 103.498 42.6197C103.898 42.6197 104.179 42.4763 104.179 42.2462C104.179 42.0669 104.036 41.9384 103.77 41.8876L103.032 41.7651C102.515 41.6724 102.031 41.4065 102.031 40.7909C102.031 40.1095 102.61 39.7031 103.456 39.7031C104.036 39.7031 104.873 39.9033 104.953 40.8267L104.188 40.8327C104.158 40.4891 103.845 40.3396 103.459 40.3396C103.074 40.3396 102.849 40.504 102.849 40.7042C102.849 40.8686 102.963 41.027 103.328 41.0897L103.958 41.1883C104.472 41.281 104.968 41.5111 104.968 42.1685C104.968 42.8917 104.332 43.2861 103.48 43.2861C102.706 43.2861 101.992 42.9634 101.911 42.034L102.67 42.04L102.667 42.046Z" fill="#009F79"/>
<path d="M103.062 13.9948C104.06 13.9948 104.87 13.1853 104.87 12.1868C104.87 11.1883 104.06 10.3789 103.062 10.3789C102.063 10.3789 101.254 11.1883 101.254 12.1868C101.254 13.1853 102.063 13.9948 103.062 13.9948Z" fill="#009F79"/>
<path d="M98.3076 13.9053C99.2566 13.9053 100.026 13.136 100.026 12.187C100.026 11.2381 99.2566 10.4688 98.3076 10.4688C97.3587 10.4688 96.5894 11.2381 96.5894 12.187C96.5894 13.136 97.3587 13.9053 98.3076 13.9053Z" fill="#009F79"/>
<path d="M93.5501 13.8179C94.4512 13.8179 95.1817 13.0874 95.1817 12.1863C95.1817 11.2852 94.4512 10.5547 93.5501 10.5547C92.649 10.5547 91.9185 11.2852 91.9185 12.1863C91.9185 13.0874 92.649 13.8179 93.5501 13.8179Z" fill="#009F79"/>
<path d="M88.7925 13.7285C89.6441 13.7285 90.3344 13.0381 90.3344 12.1865C90.3344 11.3349 89.6441 10.6445 88.7925 10.6445C87.9408 10.6445 87.2505 11.3349 87.2505 12.1865C87.2505 13.0381 87.9408 13.7285 88.7925 13.7285Z" fill="#009F79"/>
<path d="M84.0353 13.639C84.8374 13.639 85.4877 12.9888 85.4877 12.1867C85.4877 11.3846 84.8374 10.7344 84.0353 10.7344C83.2332 10.7344 82.583 11.3846 82.583 12.1867C82.583 12.9888 83.2332 13.639 84.0353 13.639Z" fill="#009F79"/>
<path d="M79.2777 13.5496C80.0303 13.5496 80.6404 12.9395 80.6404 12.1869C80.6404 11.4343 80.0303 10.8242 79.2777 10.8242C78.5251 10.8242 77.915 11.4343 77.915 12.1869C77.915 12.9395 78.5251 13.5496 79.2777 13.5496Z" fill="#009F79"/>
<path d="M74.5202 13.4622C75.2249 13.4622 75.7962 12.8909 75.7962 12.1862C75.7962 11.4814 75.2249 10.9102 74.5202 10.9102C73.8154 10.9102 73.2441 11.4814 73.2441 12.1862C73.2441 12.8909 73.8154 13.4622 74.5202 13.4622Z" fill="#009F79"/>
<path d="M69.763 13.3727C70.4182 13.3727 70.9494 12.8416 70.9494 12.1864C70.9494 11.5312 70.4182 11 69.763 11C69.1078 11 68.5767 11.5312 68.5767 12.1864C68.5767 12.8416 69.1078 13.3727 69.763 13.3727Z" fill="#009F79"/>
<path d="M65.0054 13.2833C65.6111 13.2833 66.1021 12.7923 66.1021 12.1866C66.1021 11.5809 65.6111 11.0898 65.0054 11.0898C64.3997 11.0898 63.9087 11.5809 63.9087 12.1866C63.9087 12.7923 64.3997 13.2833 65.0054 13.2833Z" fill="#009F79"/>
<path d="M60.2512 13.1938C60.8074 13.1938 61.2583 12.7429 61.2583 12.1868C61.2583 11.6306 60.8074 11.1797 60.2512 11.1797C59.695 11.1797 59.2441 11.6306 59.2441 12.1868C59.2441 12.7429 59.695 13.1938 60.2512 13.1938Z" fill="#009F79"/>
<path d="M55.4936 13.1064C56.002 13.1064 56.4141 12.6944 56.4141 12.186C56.4141 11.6777 56.002 11.2656 55.4936 11.2656C54.9853 11.2656 54.5732 11.6777 54.5732 12.186C54.5732 12.6944 54.9853 13.1064 55.4936 13.1064Z" fill="#009F79"/>
<path d="M50.736 13.017C51.1948 13.017 51.5668 12.645 51.5668 12.1862C51.5668 11.7274 51.1948 11.3555 50.736 11.3555C50.2772 11.3555 49.9053 11.7274 49.9053 12.1862C49.9053 12.645 50.2772 13.017 50.736 13.017Z" fill="#009F79"/>
<path d="M45.9789 12.9275C46.3882 12.9275 46.72 12.5957 46.72 12.1864C46.72 11.7771 46.3882 11.4453 45.9789 11.4453C45.5696 11.4453 45.2378 11.7771 45.2378 12.1864C45.2378 12.5957 45.5696 12.9275 45.9789 12.9275Z" fill="#009F79"/>
<path d="M41.2213 12.8362C41.5828 12.8362 41.8758 12.5432 41.8758 12.1818C41.8758 11.8203 41.5828 11.5273 41.2213 11.5273C40.8599 11.5273 40.5669 11.8203 40.5669 12.1818C40.5669 12.5432 40.8599 12.8362 41.2213 12.8362Z" fill="#009F79"/>
<path d="M13.6509 27.8988L10.803 23.1144L10.7971 23.1055H10.1904V30.2566H10.9704L10.9525 24.7939L13.385 28.8461L13.3909 28.855H13.9139L16.3315 24.8028L16.3225 30.2386V30.2566H17.1024V23.1055H16.5078L13.6509 27.8988Z" fill="#293277"/>
<path d="M20.8707 25.2617C20.1625 25.2617 19.508 25.5247 19.0239 25.9998C18.5428 26.475 18.2769 27.1235 18.2769 27.8227C18.2769 28.522 18.5428 29.1854 19.0239 29.6695C19.5051 30.1506 20.1595 30.4166 20.8707 30.4166C22.3171 30.4166 23.4527 29.278 23.4527 27.8257C23.4527 26.3734 22.3201 25.2647 20.8707 25.2647V25.2617ZM22.6936 27.8227C22.6936 28.8925 21.8927 29.7293 20.8707 29.7293C19.8487 29.7293 19.0389 28.8925 19.0389 27.8227C19.0389 26.7529 19.8427 25.958 20.8707 25.958C21.8987 25.958 22.6936 26.7768 22.6936 27.8227Z" fill="#293277"/>
<path d="M26.9161 25.2335C26.2258 25.2335 25.6132 25.4785 25.147 25.9387V25.3889H24.397V30.2598H25.147V26.8173C25.5535 26.2614 26.1691 25.9297 26.7906 25.9297C27.6812 25.9297 28.237 26.5274 28.237 27.4896V30.2598H28.996V27.4568C28.996 26.124 28.1593 25.2305 26.9161 25.2305V25.2335Z" fill="#293277"/>
<path d="M37.8234 26.5519C38.4898 26.3069 38.9022 25.6973 38.9022 24.9472C38.9022 23.8116 37.9967 23.1094 36.5414 23.1094H33.3618V30.2605H36.643C38.2238 30.2605 39.2458 29.4895 39.2458 28.2971C39.2458 27.3827 38.7289 26.7522 37.8234 26.5549V26.5519ZM38.2268 28.1776C38.2268 28.8858 37.5903 29.3401 36.6042 29.3401H34.3958V27.1287H36.637C37.6501 27.1287 38.2298 27.5112 38.2298 28.1776H38.2268ZM34.3928 26.2023V24.0208H36.4338C37.3602 24.0208 37.9101 24.4123 37.9101 25.0697C37.9101 25.7899 37.3453 26.2023 36.3591 26.2023H34.3898H34.3928Z" fill="#293277"/>
<path d="M41.6845 25.3359H40.6953V30.2577H41.6845V25.3359Z" fill="#293277"/>
<path d="M41.1826 24.1593C41.5391 24.1593 41.8281 23.8797 41.8281 23.5347C41.8281 23.1898 41.5391 22.9102 41.1826 22.9102C40.8261 22.9102 40.5371 23.1898 40.5371 23.5347C40.5371 23.8797 40.8261 24.1593 41.1826 24.1593Z" fill="#293277"/>
<path d="M44.1769 22.7812H43.1519V30.27H44.1769V22.7812Z" fill="#293277"/>
<path d="M49.4482 25.5778C49.0328 25.2939 48.5188 25.1445 47.963 25.1445C46.5734 25.1445 45.4438 26.3219 45.4438 27.7713C45.4438 29.2206 46.5734 30.3861 47.963 30.3861C48.5188 30.3861 49.0328 30.2367 49.4482 29.9528V30.2695H50.7123V25.2581H49.4482V25.5748V25.5778ZM49.4482 28.599C49.1404 29.0503 48.7011 29.2774 48.1393 29.2774C47.3504 29.2774 46.7049 28.602 46.7049 27.7713C46.7049 26.9405 47.3355 26.2532 48.1393 26.2532C48.7011 26.2532 49.1404 26.4803 49.4482 26.9316V28.5961V28.599Z" fill="#293277"/>
<path d="M54.845 25.1016C54.2981 25.1016 53.7931 25.2809 53.3478 25.6335V25.2599H52.0718V30.2714H53.3478V26.9573C53.7094 26.518 54.1636 26.267 54.5939 26.267C55.344 26.267 55.7773 26.7481 55.7773 27.5849V30.2744H57.0414V27.5131C57.0414 26.0728 56.1598 25.1075 54.845 25.1075V25.1016Z" fill="#293277"/>
<path d="M63.8398 23.0967H61.1294V30.2717H62.4473V28.1889H63.6605C65.4685 28.1889 66.6847 27.1429 66.6847 25.583C66.6847 24.0231 65.5402 23.0938 63.8398 23.0938V23.0967ZM65.3788 25.586C65.3788 26.4198 64.7423 26.9786 63.798 26.9786H62.4473V24.322H63.798C64.7423 24.322 65.3788 24.83 65.3788 25.589V25.586Z" fill="#293277"/>
<path d="M68.8483 25.8463V25.2606H67.5723V30.272H68.8483V27.1761C69.2726 26.6651 69.8524 26.3992 70.6174 26.3693H70.6473V25.168H70.6174C69.9091 25.168 69.3145 25.3951 68.8483 25.8463Z" fill="#293277"/>
<path d="M75.5931 22.8516H74.1767L73.3608 24.4742H74.5263L75.5931 22.8516Z" fill="#293277"/>
<path d="M73.9975 25.1016C72.4466 25.1016 71.3618 26.1983 71.3618 27.7701C71.3618 29.342 72.4824 30.4268 74.0304 30.4268C75.166 30.4268 76.0894 29.8172 76.3822 28.8788L76.3942 28.84H75.0464L75.0375 28.8549C74.8671 29.1448 74.5295 29.3002 74.0603 29.3002C73.2773 29.3002 72.7364 28.8579 72.6109 28.1168H76.442V28.0899C76.4659 27.9614 76.4778 27.8658 76.4778 27.6865C76.4689 26.1654 75.4469 25.1016 73.9975 25.1016ZM73.9975 26.1893C74.6609 26.1893 75.0942 26.5957 75.1869 27.3099H72.6348C72.7902 26.5987 73.2863 26.1893 73.9975 26.1893Z" fill="#293277"/>
<path d="M79.98 28.6257L78.4799 25.2787L78.4739 25.2578H77.1172L79.4182 30.2513L79.4272 30.2692H80.5329L82.8428 25.2578H81.4981L79.98 28.6257Z" fill="#293277"/>
<path d="M85.9 24.9766C84.2983 24.9766 83.1807 26.0942 83.1807 27.6959C83.1807 29.2977 84.3342 30.4153 85.9837 30.4153C87.2508 30.4153 88.2369 29.725 88.4939 28.6552L88.5029 28.6164H86.7607L86.7517 28.6313C86.6083 28.8584 86.3423 28.9839 86.0046 28.9839C85.2755 28.9839 85.0036 28.5387 84.9049 28.1472H88.5029V28.1203C88.5268 27.9589 88.5388 27.7916 88.5388 27.5943C88.5388 26.0554 87.454 24.9796 85.903 24.9796L85.9 24.9766ZM84.9139 27.1431C85.0514 26.6231 85.404 26.3482 85.9299 26.3482C86.4559 26.3482 86.7457 26.6172 86.8444 27.1431H84.9139Z" fill="#293277"/>
<path d="M93.0447 24.9766C92.5457 24.9766 92.1094 25.123 91.6851 25.4368V25.1349H89.9189V30.2719H91.6851V27.0624C91.96 26.7516 92.2767 26.5783 92.5756 26.5783C93.1553 26.5783 93.4751 26.9459 93.4751 27.6153V30.2719H95.2322V27.3433C95.2322 25.9059 94.3746 24.9796 93.0477 24.9796L93.0447 24.9766Z" fill="#293277"/>
<path d="M100.498 28.6816C100.109 28.7563 99.8373 28.8071 99.6042 28.8071C99.1051 28.8071 98.8392 28.5531 98.8392 28.0749V26.6525H100.566V25.1374H98.8392V23.4102H97.082V25.1374H96.0869V26.6525H97.082V28.1287C97.082 29.5064 97.9128 30.4298 99.1529 30.4298C99.652 30.4298 100.029 30.3909 100.701 30.1757L100.725 30.1668L100.528 28.6756L100.495 28.6816H100.498Z" fill="#293277"/>
<path d="M103.044 22.4258C102.461 22.4258 102.019 22.8531 102.019 23.4179C102.019 23.9827 102.47 24.4011 103.044 24.4011C103.618 24.4011 104.069 23.9678 104.069 23.4179C104.069 22.8681 103.618 22.4258 103.044 22.4258Z" fill="#293277"/>
<path d="M103.934 25.1367H102.177V30.2737H103.934V25.1367Z" fill="#293277"/>
<path d="M107.813 25.0195C106.193 25.0195 105.019 26.1461 105.019 27.6971C105.019 29.248 106.193 30.4284 107.813 30.4284C109.433 30.4284 110.586 29.2809 110.586 27.6971C110.586 26.1133 109.421 25.0195 107.813 25.0195ZM108.922 27.709C108.922 28.3993 108.456 28.9014 107.813 28.9014C107.171 28.9014 106.693 28.3993 106.693 27.709C106.693 27.0187 107.165 26.5466 107.813 26.5466C108.462 26.5466 108.922 27.0337 108.922 27.709Z" fill="#293277"/>
<path d="M114.908 24.9766C114.408 24.9766 113.972 25.123 113.548 25.4368V25.1349H111.782V30.2719H113.548V27.0624C113.823 26.7516 114.14 26.5783 114.438 26.5783C115.018 26.5783 115.338 26.9459 115.338 27.6153V30.2719H117.095V27.3433C117.095 25.9059 116.237 24.9796 114.911 24.9796L114.908 24.9766Z" fill="#293277"/>
</g>
<defs>
<clipPath id="clip0_33290_131178">
<rect width="125.994" height="52" fill="white" transform="translate(0.6875 0.820312)"/>
</clipPath>
</defs>
</svg>
