<svg width="127" height="53" viewBox="0 0 127 53" fill="none" xmlns="http://www.w3.org/2000/svg">
<g clip-path="url(#clip0_33290_131374)">
<path d="M71.0281 39.8115C72.1099 39.8115 72.8779 40.5227 72.8779 41.491C72.8779 42.4592 72.1099 43.2122 71.0281 43.2122C69.9463 43.2122 69.1724 42.4502 69.1724 41.5119C69.1724 41.0935 69.3278 40.7498 69.6057 40.3165L70.9415 38.2695H71.9306L70.9355 39.8145H71.0281V39.8115ZM72.0531 41.5388C72.0531 40.9979 71.6347 40.5586 71.0281 40.5586C70.7442 40.5586 70.4962 40.6363 70.3109 40.7857L70.3049 40.7917C70.0838 41.0965 69.9912 41.2907 69.9912 41.5447C69.9912 42.0707 70.4245 42.5249 71.0281 42.5249C71.6318 42.5249 72.0531 42.0707 72.0531 41.5358V41.5388Z" fill="#C7559A"/>
<path d="M77.9312 40.6892C77.9312 42.1415 77.1423 43.2143 75.7826 43.2143C74.4229 43.2143 73.6221 42.1415 73.6221 40.6892C73.6221 39.2369 74.417 38.1641 75.7826 38.1641C77.1483 38.1641 77.9312 39.2369 77.9312 40.6892ZM77.0766 40.6892C77.0766 39.7001 76.6433 38.9321 75.7826 38.9321C74.922 38.9321 74.4797 39.7001 74.4797 40.6892C74.4797 41.6783 74.913 42.4463 75.7826 42.4463C76.6522 42.4463 77.0766 41.6783 77.0766 40.6892Z" fill="#C7559A"/>
<path d="M81.5231 41.6469H79.0757V40.8281H81.5231V41.6469Z" fill="#C7559A"/>
<path d="M84.4695 39.8115C85.5513 39.8115 86.3193 40.5227 86.3193 41.491C86.3193 42.4592 85.5513 43.2122 84.4695 43.2122C83.3877 43.2122 82.6138 42.4502 82.6138 41.5119C82.6138 41.0935 82.7692 40.7498 83.0471 40.3165L84.3829 38.2695H85.372L84.3769 39.8145H84.4695V39.8115ZM85.4945 41.5388C85.4945 40.9979 85.0762 40.5586 84.4695 40.5586C84.1856 40.5586 83.9376 40.6363 83.7523 40.7857L83.7463 40.7917C83.5252 41.0965 83.4326 41.2907 83.4326 41.5447C83.4326 42.0707 83.8659 42.5249 84.4695 42.5249C85.0732 42.5249 85.4945 42.0707 85.4945 41.5358V41.5388Z" fill="#C7559A"/>
<path d="M88.8027 40.0228C89.8068 40.0228 90.4821 40.6623 90.4821 41.5588C90.4821 42.4553 89.7769 43.2083 88.7459 43.2083C87.715 43.2083 87.0814 42.6465 86.938 41.7799H87.7687C87.8883 42.2072 88.1871 42.4852 88.7429 42.4852C89.2988 42.4852 89.6813 42.0937 89.6813 41.5887C89.6813 41.0836 89.3047 40.7489 88.6921 40.7489H87.3055V38.2656H90.264V39.0277H88.0945L88.0885 40.0228H88.7997H88.8027Z" fill="#C7559A"/>
<path d="M96.5935 39.7418V43.1066H95.7747V42.8705C95.4968 43.0708 95.1501 43.1843 94.7437 43.1843C93.8054 43.1843 93.0493 42.4014 93.0493 41.4272C93.0493 40.453 93.8024 39.6641 94.7437 39.6641C95.1501 39.6641 95.4968 39.7776 95.7747 39.9778V39.7418H96.5935ZM95.7747 41.998V40.8534C95.5416 40.5038 95.2129 40.3783 94.8632 40.3783C94.2865 40.3783 93.8681 40.8684 93.8681 41.4302C93.8681 41.992 94.2865 42.4761 94.8632 42.4761C95.2129 42.4761 95.5386 42.3476 95.7747 42.0009V41.998Z" fill="#C7559A"/>
<path d="M100.897 41.2495V43.1053H100.078V41.2973C100.078 40.7056 99.7639 40.3799 99.2529 40.3799C98.9601 40.3799 98.6403 40.5502 98.3863 40.864V43.1053H97.5615V39.7404H98.3863V40.0183C98.6792 39.7763 99.0198 39.6328 99.4233 39.6328C100.305 39.6328 100.897 40.2723 100.897 41.2465V41.2495Z" fill="#C7559A"/>
<path d="M102.313 41.9764C102.385 42.3738 102.684 42.5441 103.138 42.5441C103.535 42.5441 103.813 42.4007 103.813 42.1736C103.813 41.9973 103.67 41.8688 103.407 41.818L102.675 41.6984C102.164 41.6058 101.68 41.3428 101.68 40.7302C101.68 40.0549 102.256 39.6484 103.096 39.6484C103.673 39.6484 104.504 39.8487 104.581 40.7661L103.819 40.7721C103.792 40.4314 103.479 40.282 103.093 40.282C102.708 40.282 102.489 40.4463 102.489 40.6436C102.489 40.8079 102.603 40.9633 102.965 41.0291L103.589 41.1277C104.1 41.2203 104.593 41.4474 104.593 42.1019C104.593 42.8191 103.96 43.2105 103.114 43.2105C102.346 43.2105 101.635 42.8908 101.557 41.9644L102.31 41.9704L102.313 41.9764Z" fill="#C7559A"/>
<path d="M102.708 14.1115C103.7 14.1115 104.504 13.3074 104.504 12.3155C104.504 11.3236 103.7 10.5195 102.708 10.5195C101.716 10.5195 100.912 11.3236 100.912 12.3155C100.912 13.3074 101.716 14.1115 102.708 14.1115Z" fill="#C7559A"/>
<path d="M97.9798 14.0241C98.9239 14.0241 99.6892 13.2588 99.6892 12.3148C99.6892 11.3708 98.9239 10.6055 97.9798 10.6055C97.0358 10.6055 96.2705 11.3708 96.2705 12.3148C96.2705 13.2588 97.0358 14.0241 97.9798 14.0241Z" fill="#C7559A"/>
<path d="M93.2525 13.9347C94.147 13.9347 94.8722 13.2095 94.8722 12.315C94.8722 11.4205 94.147 10.6953 93.2525 10.6953C92.358 10.6953 91.6328 11.4205 91.6328 12.315C91.6328 13.2095 92.358 13.9347 93.2525 13.9347Z" fill="#C7559A"/>
<path d="M88.5247 13.8473C89.3714 13.8473 90.0577 13.1609 90.0577 12.3143C90.0577 11.4676 89.3714 10.7812 88.5247 10.7812C87.6781 10.7812 86.9917 11.4676 86.9917 12.3143C86.9917 13.1609 87.6781 13.8473 88.5247 13.8473Z" fill="#C7559A"/>
<path d="M83.7974 13.7578C84.5945 13.7578 85.2407 13.1116 85.2407 12.3145C85.2407 11.5173 84.5945 10.8711 83.7974 10.8711C83.0002 10.8711 82.354 11.5173 82.354 12.3145C82.354 13.1116 83.0002 13.7578 83.7974 13.7578Z" fill="#C7559A"/>
<path d="M79.0696 13.6704C79.8189 13.6704 80.4263 13.063 80.4263 12.3137C80.4263 11.5644 79.8189 10.957 79.0696 10.957C78.3203 10.957 77.7129 11.5644 77.7129 12.3137C77.7129 13.063 78.3203 13.6704 79.0696 13.6704Z" fill="#C7559A"/>
<path d="M74.3423 13.581C75.042 13.581 75.6093 13.0137 75.6093 12.3139C75.6093 11.6142 75.042 11.0469 74.3423 11.0469C73.6425 11.0469 73.0752 11.6142 73.0752 12.3139C73.0752 13.0137 73.6425 13.581 74.3423 13.581Z" fill="#C7559A"/>
<path d="M69.6115 13.4915C70.2617 13.4915 70.7889 12.9644 70.7889 12.3141C70.7889 11.6639 70.2617 11.1367 69.6115 11.1367C68.9612 11.1367 68.4341 11.6639 68.4341 12.3141C68.4341 12.9644 68.9612 13.4915 69.6115 13.4915Z" fill="#C7559A"/>
<path d="M64.8842 13.4041C65.4866 13.4041 65.9749 12.9158 65.9749 12.3134C65.9749 11.711 65.4866 11.2227 64.8842 11.2227C64.2818 11.2227 63.7935 11.711 63.7935 12.3134C63.7935 12.9158 64.2818 13.4041 64.8842 13.4041Z" fill="#C7559A"/>
<path d="M60.1569 13.3108C60.7097 13.3108 61.1579 12.8626 61.1579 12.3097C61.1579 11.7568 60.7097 11.3086 60.1569 11.3086C59.604 11.3086 59.1558 11.7568 59.1558 12.3097C59.1558 12.8626 59.604 13.3108 60.1569 13.3108Z" fill="#C7559A"/>
<path d="M55.4291 13.2234C55.9341 13.2234 56.3435 12.814 56.3435 12.309C56.3435 11.8039 55.9341 11.3945 55.4291 11.3945C54.9241 11.3945 54.5146 11.8039 54.5146 12.309C54.5146 12.814 54.9241 13.2234 55.4291 13.2234Z" fill="#C7559A"/>
<path d="M50.7017 13.1339C51.1572 13.1339 51.5265 12.7647 51.5265 12.3092C51.5265 11.8536 51.1572 11.4844 50.7017 11.4844C50.2462 11.4844 49.877 11.8536 49.877 12.3092C49.877 12.7647 50.2462 13.1339 50.7017 13.1339Z" fill="#C7559A"/>
<path d="M45.974 13.0505C46.3816 13.0505 46.7121 12.72 46.7121 12.3123C46.7121 11.9047 46.3816 11.5742 45.974 11.5742C45.5663 11.5742 45.2358 11.9047 45.2358 12.3123C45.2358 12.72 45.5663 13.0505 45.974 13.0505Z" fill="#C7559A"/>
<path d="M41.2466 12.9571C41.6048 12.9571 41.8951 12.6668 41.8951 12.3086C41.8951 11.9505 41.6048 11.6602 41.2466 11.6602C40.8885 11.6602 40.5981 11.9505 40.5981 12.3086C40.5981 12.6668 40.8885 12.9571 41.2466 12.9571Z" fill="#C7559A"/>
<path d="M16.8319 30.2372H16.0908L16.1028 24.7387L13.6583 28.8357H13.1563L10.6909 24.7267L10.7118 30.2342H9.9707V23.125H10.5445L13.4073 27.9332L16.2701 23.125H16.8349V30.2342L16.8319 30.2372Z" fill="#293277" stroke="#293277" stroke-width="0.12" stroke-miterlimit="10"/>
<path d="M23.176 27.8213C23.176 29.2737 22.0583 30.3943 20.6149 30.3943C19.1716 30.3943 18.042 29.2767 18.042 27.8213C18.042 26.366 19.1596 25.2812 20.6149 25.2812C22.0703 25.2812 23.176 26.3899 23.176 27.8213ZM22.4558 27.8213C22.4558 26.7874 21.6609 25.9387 20.6149 25.9387C19.569 25.9387 18.7652 26.7844 18.7652 27.8213C18.7652 28.8583 19.5601 29.7458 20.6149 29.7458C21.6698 29.7458 22.4558 28.8882 22.4558 27.8213Z" fill="#293277" stroke="#293277" stroke-width="0.12" stroke-miterlimit="10"/>
<path d="M28.7135 27.4584V30.2375H27.9933V27.4883C27.9933 26.4842 27.4076 25.9104 26.529 25.9104C25.9134 25.9104 25.2858 26.2332 24.8675 26.8099V30.2375H24.1562V25.4084H24.8675V25.9821C25.3157 25.5219 25.9343 25.25 26.6545 25.25C27.8678 25.25 28.7135 26.0957 28.7135 27.4554V27.4584Z" fill="#293277" stroke="#293277" stroke-width="0.12" stroke-miterlimit="10"/>
<path d="M38.9574 28.2967C38.9574 29.4561 37.9533 30.2421 36.3755 30.2421H33.1152V23.1328H36.2709C37.7232 23.1328 38.6108 23.8321 38.6108 24.9527C38.6108 25.7058 38.1924 26.3333 37.4812 26.5634C38.4733 26.7517 38.9544 27.442 38.9544 28.2996L38.9574 28.2967ZM34.1074 26.2257H36.0946C37.1076 26.2257 37.6635 25.7865 37.6635 25.0752C37.6635 24.4178 37.1196 24.0084 36.1693 24.0084H34.1104V26.2257H34.1074ZM36.3337 29.3605C37.3886 29.3605 37.9743 28.8465 37.9743 28.1801C37.9743 27.5137 37.3676 27.1133 36.3636 27.1133H34.1074V29.3605H36.3337Z" fill="#293277" stroke="#293277" stroke-width="0.12" stroke-miterlimit="10"/>
<path d="M40.2842 23.5363C40.2842 23.1927 40.5561 22.9297 40.9117 22.9297C41.2673 22.9297 41.5393 23.1927 41.5393 23.5363C41.5393 23.88 41.2554 24.143 40.9117 24.143C40.5681 24.143 40.2842 23.88 40.2842 23.5363ZM41.3928 25.3562V30.2392H40.4426V25.3562H41.3928Z" fill="#293277" stroke="#293277" stroke-width="0.12" stroke-miterlimit="10"/>
<path d="M43.867 30.2364H42.9048V22.8164H43.867V30.2364Z" fill="#293277" stroke="#293277" stroke-width="0.21" stroke-miterlimit="10"/>
<path d="M50.4 25.2932V30.2389H49.1986V29.8923C48.7922 30.1851 48.2782 30.3525 47.6836 30.3525C46.3029 30.3525 45.1973 29.202 45.1973 27.7706C45.1973 26.3392 46.3059 25.1797 47.6836 25.1797C48.2782 25.1797 48.7922 25.347 49.1986 25.6399V25.2932H50.4ZM49.1986 28.6073V26.9249C48.855 26.4139 48.3739 26.2256 47.8599 26.2256C47.0142 26.2256 46.3956 26.9458 46.3956 27.7736C46.3956 28.6013 47.0112 29.3096 47.8599 29.3096C48.3709 29.3096 48.852 29.1213 49.1986 28.6103V28.6073Z" fill="#293277" stroke="#293277" stroke-width="0.21" stroke-miterlimit="10"/>
<path d="M56.7232 27.5085V30.2369H55.5219V27.5803C55.5219 26.7136 55.0617 26.2325 54.3086 26.2325C53.8813 26.2325 53.4091 26.4835 53.0326 26.9437V30.2369H51.8193V25.2912H53.0326V25.6976C53.4629 25.342 53.962 25.1328 54.5596 25.1328C55.8566 25.1328 56.7232 26.0741 56.7232 27.5056V27.5085Z" fill="#293277" stroke="#293277" stroke-width="0.21" stroke-miterlimit="10"/>
<path d="M63.5486 23.1328C65.243 23.1328 66.3606 24.116 66.3606 25.5892C66.3606 27.1372 65.1683 28.1622 63.3723 28.1622H62.1291V30.2421H60.874V23.1328H63.5486ZM63.5067 27.0117C64.469 27.0117 65.1175 26.4469 65.1175 25.5892C65.1175 24.8152 64.469 24.2923 63.5067 24.2923H62.1261V27.0087H63.5067V27.0117Z" fill="#293277" stroke="#293277" stroke-width="0.21" stroke-miterlimit="10"/>
<path d="M68.5238 25.9233C68.9721 25.4631 69.5697 25.2031 70.3228 25.2031V26.3417C69.5398 26.3746 68.9541 26.6435 68.5238 27.1665V30.2385H67.3105V25.2928H68.5238V25.9203V25.9233Z" fill="#293277" stroke="#293277" stroke-width="0.21" stroke-miterlimit="10"/>
<path d="M76.1112 28.0843H72.2741C72.3787 28.7836 72.8599 29.3275 73.7593 29.3275C74.2405 29.3275 74.5841 29.1721 74.7634 28.8673H76.0484C75.7675 29.7757 74.8561 30.3943 73.7295 30.3943C72.1516 30.3943 71.0938 29.2349 71.0938 27.7706C71.0938 26.3063 72.1486 25.1349 73.6966 25.1349C75.0981 25.1349 76.1321 26.1599 76.141 27.6869C76.141 27.8662 76.1291 27.9588 76.1112 28.0843ZM72.2951 27.3432H74.9188C74.8351 26.6111 74.3959 26.1628 73.6966 26.1628C72.8927 26.1628 72.4325 26.6649 72.2951 27.3432ZM74.2076 24.4475H73.1109L73.8938 22.8906H75.2326L74.2076 24.4475Z" fill="#293277" stroke="#293277" stroke-width="0.21" stroke-miterlimit="10"/>
<path d="M80.2082 30.2387H79.1414L76.8643 25.293H78.1492L79.6763 28.6997L81.2123 25.293H82.4883L80.2112 30.2387H80.2082Z" fill="#293277" stroke="#293277" stroke-width="0.21" stroke-miterlimit="10"/>
<path d="M88.1603 28.1175H84.5534C84.667 28.6196 85.0017 29.017 85.692 29.017C86.0476 29.017 86.3195 28.8825 86.466 28.6524H88.1484C87.8974 29.6983 86.9262 30.3887 85.6711 30.3887C84.0095 30.3887 82.9009 29.2501 82.9009 27.7021C82.9009 26.1542 83.9767 25.0156 85.5874 25.0156C87.0726 25.0156 88.1902 26.0287 88.1902 27.5975C88.1902 27.7978 88.1783 27.9621 88.1574 28.1205L88.1603 28.1175ZM84.5654 27.1762H86.5735C86.4779 26.6024 86.1462 26.3185 85.6232 26.3185C85.0375 26.3185 84.6939 26.6532 84.5684 27.1762H84.5654Z" fill="#293277" stroke="#293277" stroke-width="0.21" stroke-miterlimit="10"/>
<path d="M94.8813 27.3435V30.2392H93.1869V27.6155C93.1869 26.8953 92.8223 26.5486 92.2575 26.5486C91.9557 26.5486 91.63 26.716 91.3371 27.0507V30.2392H89.6338V25.171H91.3371V25.5057C91.7436 25.1919 92.1828 25.0156 92.7267 25.0156C94.0027 25.0156 94.8813 25.9032 94.8813 27.3465V27.3435Z" fill="#293277" stroke="#293277" stroke-width="0.21" stroke-miterlimit="10"/>
<path d="M100.371 30.1452C99.7134 30.3543 99.3369 30.3962 98.8349 30.3962C97.6126 30.3962 96.7968 29.4967 96.7968 28.128V26.6219H95.8047V25.1696H96.7968V23.4453H98.4912V25.1696H100.215V26.6219H98.4912V28.0742C98.4912 28.5852 98.7841 28.8363 99.2861 28.8363C99.5252 28.8363 99.8091 28.7825 100.186 28.7108L100.374 30.1422L100.371 30.1452Z" fill="#293277" stroke="#293277" stroke-width="0.21" stroke-miterlimit="10"/>
<path d="M101.728 23.4193C101.728 22.8664 102.167 22.457 102.72 22.457C103.273 22.457 103.712 22.8634 103.712 23.4193C103.712 23.9751 103.264 24.3696 102.72 24.3696C102.176 24.3696 101.728 23.9631 101.728 23.4193ZM103.577 25.1645V30.2327H101.883V25.1645H103.577Z" fill="#293277" stroke="#293277" stroke-width="0.21" stroke-miterlimit="10"/>
<path d="M110.226 27.6955C110.226 29.2434 109.087 30.3909 107.489 30.3909C105.89 30.3909 104.73 29.2404 104.73 27.6955C104.73 26.1505 105.881 25.0508 107.489 25.0508C109.096 25.0508 110.226 26.1684 110.226 27.6955ZM108.627 27.7074C108.627 27.05 108.167 26.5151 107.489 26.5151C106.81 26.5151 106.338 27.047 106.338 27.7074C106.338 28.3678 106.786 28.9296 107.489 28.9296C108.191 28.9296 108.627 28.3858 108.627 27.7074Z" fill="#293277" stroke="#293277" stroke-width="0.21" stroke-miterlimit="10"/>
<path d="M116.726 27.3435V30.2392H115.032V27.6155C115.032 26.8953 114.667 26.5486 114.102 26.5486C113.8 26.5486 113.475 26.716 113.182 27.0507V30.2392H111.479V25.171H113.182V25.5057C113.588 25.1919 114.028 25.0156 114.571 25.0156C115.847 25.0156 116.726 25.9032 116.726 27.3465V27.3435Z" fill="#293277" stroke="#293277" stroke-width="0.21" stroke-miterlimit="10"/>
<path d="M13.4253 27.8997L10.5774 23.1183L10.5714 23.1094H9.96777V30.2545H10.7447L10.7268 24.7948L13.1563 28.847L13.1623 28.8559H13.6853L16.1028 24.8067L16.0909 30.2366V30.2545H16.8708V23.1094H16.2761L13.4253 27.8997Z" fill="#293277"/>
<path d="M20.6358 25.2656C19.9276 25.2656 19.2731 25.5286 18.792 26.0037C18.3109 26.4789 18.0449 27.1274 18.0449 27.8236C18.0449 28.5199 18.3109 29.1863 18.792 29.6674C19.2731 30.1486 19.9276 30.4145 20.6358 30.4145C22.0822 30.4145 23.2147 29.276 23.2147 27.8236C23.2147 26.3713 22.0822 25.2656 20.6358 25.2656ZM22.4557 27.8236C22.4557 28.8905 21.6548 29.7272 20.6358 29.7272C19.6168 29.7272 18.804 28.8905 18.804 27.8236C18.804 26.7568 19.6078 25.9619 20.6358 25.9619C21.6638 25.9619 22.4557 26.7807 22.4557 27.8236Z" fill="#293277"/>
<path d="M26.6754 25.2335C25.9851 25.2335 25.3724 25.4785 24.9063 25.9387V25.3889H24.1592V30.2539H24.9063V26.8143C25.3127 26.2585 25.9253 25.9268 26.5498 25.9268C27.4404 25.9268 27.9932 26.5244 27.9932 27.4867V30.2539H28.7523V27.4538C28.7523 26.124 27.9185 25.2305 26.6754 25.2305V25.2335Z" fill="#293277"/>
<path d="M37.5739 26.5519C38.2403 26.3069 38.6497 25.7003 38.6497 24.9472C38.6497 23.8146 37.7442 23.1094 36.2889 23.1094H33.1123V30.2545H36.3935C37.9743 30.2545 38.9933 29.4835 38.9933 28.2911C38.9933 27.3797 38.4764 26.7492 37.5709 26.5519H37.5739ZM36.1126 26.2023H34.1463V24.0238H36.1873C37.1107 24.0238 37.6635 24.4153 37.6635 25.0697C37.6635 25.7899 37.0987 26.2023 36.1156 26.2023H36.1126ZM37.9743 28.1746C37.9743 28.8798 37.3378 29.3371 36.3517 29.3371H34.1433V27.1257H36.3815C37.3916 27.1257 37.9743 27.5082 37.9743 28.1716V28.1746Z" fill="#293277"/>
<path d="M41.4315 25.3359H40.4424V30.2547H41.4315V25.3359Z" fill="#293277"/>
<path d="M40.9326 22.9141C40.565 22.9141 40.2871 23.183 40.2871 23.5386C40.2871 23.8942 40.565 24.1632 40.9326 24.1632C41.3002 24.1632 41.5781 23.8883 41.5781 23.5386C41.5781 23.189 41.2942 22.9141 40.9326 22.9141Z" fill="#293277"/>
<path d="M43.918 22.7852H42.896V30.2679H43.918V22.7852Z" fill="#293277"/>
<path d="M49.1894 25.5788C48.7741 25.2949 48.2601 25.1484 47.7042 25.1484C46.3147 25.1484 45.1851 26.3258 45.1851 27.7722C45.1851 29.2185 46.3147 30.384 47.7042 30.384C48.2601 30.384 48.7741 30.2346 49.1894 29.9537V30.2704H50.4535V25.265H49.1894V25.5817V25.5788ZM49.1894 26.9325V28.597C48.8816 29.0482 48.4423 29.2753 47.8835 29.2753C47.0946 29.2753 46.4521 28.6 46.4521 27.7692C46.4521 26.9384 47.0827 26.2541 47.8835 26.2541C48.4453 26.2541 48.8846 26.4812 49.1894 26.9325Z" fill="#293277"/>
<path d="M54.5802 25.1055C54.0333 25.1055 53.5313 25.2848 53.086 25.6374V25.2639H51.813V30.2693H53.086V26.9552C53.4476 26.516 53.9018 26.2649 54.3292 26.2649C55.0792 26.2649 55.5096 26.7461 55.5096 27.5828V30.2693H56.7736V27.5111C56.7736 26.0737 55.8921 25.1085 54.5802 25.1085V25.1055Z" fill="#293277"/>
<path d="M63.5692 23.0977H60.8618V30.2667H62.1767V28.1868H63.3899C65.1979 28.1868 66.4112 27.1409 66.4112 25.584C66.4112 24.027 65.2696 23.0977 63.5692 23.0977ZM63.5274 26.9765H62.1797V24.3199H63.5274C64.4717 24.3199 65.1052 24.8279 65.1052 25.584C65.1052 26.4147 64.4717 26.9735 63.5274 26.9735V26.9765Z" fill="#293277"/>
<path d="M68.5748 25.8463V25.2636H67.3018V30.2691H68.5748V27.1761C68.9991 26.6651 69.5759 26.4021 70.3439 26.3693H70.3738V25.168H70.3439C69.6356 25.168 69.044 25.3951 68.5778 25.8463H68.5748Z" fill="#293277"/>
<path d="M75.3133 22.8594H73.8969L73.0811 24.4791H74.2465L75.3133 22.8594Z" fill="#293277"/>
<path d="M73.7177 25.1055C72.1667 25.1055 71.085 26.2022 71.085 27.7711C71.085 29.3399 72.2056 30.4247 73.7506 30.4247C74.8861 30.4247 75.8095 29.8181 76.0994 28.8767L76.1113 28.8379H74.7666L74.7576 28.8528C74.5873 29.1427 74.2496 29.2981 73.7804 29.2981C72.9975 29.2981 72.4566 28.8558 72.3341 28.1177H76.1592V28.0908C76.1831 27.9653 76.195 27.8667 76.195 27.6874C76.186 26.1663 75.167 25.1055 73.7177 25.1055ZM72.355 27.3109C72.5104 26.5996 73.0065 26.1932 73.7177 26.1932C74.3811 26.1932 74.8114 26.5996 74.907 27.3109H72.358H72.355Z" fill="#293277"/>
<path d="M79.6972 28.6266L78.1971 25.2796L78.1911 25.2617H76.8374L79.1354 30.2492L79.1444 30.2702H80.2501L82.5571 25.2617H81.2123L79.6972 28.6266Z" fill="#293277"/>
<path d="M85.6114 24.9805C84.0127 24.9805 82.895 26.0981 82.895 27.6969C82.895 29.2956 84.0455 30.4133 85.6951 30.4133C86.9621 30.4133 87.9453 29.723 88.2023 28.6531L88.2113 28.6143H86.472L86.4631 28.6292C86.3196 28.8563 86.0537 28.9818 85.716 28.9818C84.9868 28.9818 84.7149 28.5366 84.6163 28.1451H88.2113V28.1182C88.2352 27.9568 88.2471 27.7895 88.2471 27.5923C88.2471 26.0533 87.1653 24.9805 85.6144 24.9805H85.6114ZM84.6282 27.144C84.7657 26.6241 85.1183 26.3491 85.6443 26.3491C86.1702 26.3491 86.4601 26.6181 86.5587 27.144H84.6282Z" fill="#293277"/>
<path d="M92.7503 24.9805C92.2513 24.9805 91.818 25.1269 91.3906 25.4407V25.1389H89.6245V30.2698H91.3906V27.0633C91.6655 26.7526 91.9823 26.5792 92.2811 26.5792C92.8609 26.5792 93.1806 26.9468 93.1806 27.6132V30.2668H94.9348V27.3413C94.9348 25.9069 94.0771 24.9805 92.7503 24.9805Z" fill="#293277"/>
<path d="M100.197 28.6825C99.8087 28.7572 99.5368 28.808 99.3037 28.808C98.8047 28.808 98.5417 28.554 98.5417 28.0759V26.6534H100.266V25.1383H98.5417V23.4141H96.7875V25.1383H95.7954V26.6534H96.7875V28.1267C96.7875 29.5013 97.6183 30.4247 98.8555 30.4247C99.3545 30.4247 99.7281 30.3858 100.4 30.1737L100.424 30.1647L100.227 28.6735L100.194 28.6795L100.197 28.6825Z" fill="#293277"/>
<path d="M103.628 25.1367H101.874V30.2677H103.628V25.1367Z" fill="#293277"/>
<path d="M102.74 22.4297C102.158 22.4297 101.715 22.857 101.715 23.4218C101.715 23.9866 102.164 24.405 102.74 24.405C103.317 24.405 103.765 23.9747 103.765 23.4218C103.765 22.869 103.314 22.4297 102.74 22.4297Z" fill="#293277"/>
<path d="M107.507 25.0234C105.89 25.0234 104.716 26.15 104.716 27.698C104.716 29.246 105.89 30.4263 107.507 30.4263C109.124 30.4263 110.277 29.2788 110.277 27.698C110.277 26.1172 109.112 25.0234 107.507 25.0234ZM108.616 27.71C108.616 28.4003 108.149 28.9023 107.507 28.9023C106.864 28.9023 106.389 28.4003 106.389 27.71C106.389 27.0196 106.861 26.5505 107.507 26.5505C108.152 26.5505 108.616 27.0376 108.616 27.71Z" fill="#293277"/>
<path d="M114.592 24.9805C114.093 24.9805 113.66 25.1269 113.232 25.4407V25.1389H111.466V30.2698H113.232V27.0633C113.507 26.7526 113.824 26.5792 114.12 26.5792C114.7 26.5792 115.019 26.9468 115.019 27.6132V30.2668H116.774V27.3413C116.774 25.9069 115.916 24.9805 114.589 24.9805H114.592Z" fill="#293277"/>
</g>
<defs>
<clipPath id="clip0_33290_131374">
<rect width="125.994" height="52" fill="white" transform="translate(0.375 0.820312)"/>
</clipPath>
</defs>
</svg>
