<svg width="127" height="53" viewBox="0 0 127 53" fill="none" xmlns="http://www.w3.org/2000/svg">
<g clip-path="url(#clip0_33290_131606)">
<path d="M74.5289 38.6507L72.5028 42.9748H71.5644L73.465 38.9346H71.167V38.1367H74.5319V38.6477L74.5289 38.6507Z" fill="#F28E69"/>
<path d="M79.2384 40.5564C79.2384 42.0087 78.4495 43.0815 77.0898 43.0815C75.7301 43.0815 74.9263 42.0057 74.9263 40.5564C74.9263 39.1071 75.7242 38.0312 77.0898 38.0312C78.4555 38.0312 79.2384 39.1071 79.2384 40.5564ZM78.3838 40.5564C78.3838 39.5673 77.9505 38.7993 77.0898 38.7993C76.2292 38.7993 75.7869 39.5673 75.7869 40.5564C75.7869 41.5455 76.2202 42.3135 77.0898 42.3135C77.9594 42.3135 78.3838 41.5455 78.3838 40.5564Z" fill="#F28E69"/>
<path d="M82.8273 41.518H80.3799V40.6992H82.8273V41.518Z" fill="#F28E69"/>
<path d="M86.5421 38.6507L84.516 42.9748H83.5776L85.4782 38.9346H83.1802V38.1367H86.545V38.6477L86.5421 38.6507Z" fill="#F28E69"/>
<path d="M88.6396 39.8968C89.6437 39.8968 90.3191 40.5363 90.3191 41.4328C90.3191 42.3293 89.6138 43.0824 88.5828 43.0824C87.5519 43.0824 86.9183 42.5206 86.7749 41.651H87.6086C87.7282 42.0783 88.027 42.3562 88.5828 42.3562C89.1387 42.3562 89.5212 41.9648 89.5212 41.4597C89.5212 40.9547 89.1446 40.62 88.532 40.62H87.1455V38.1367H90.1039V38.8987H87.9344L87.9284 39.8939H88.6396V39.8968Z" fill="#F28E69"/>
<path d="M96.4275 39.6089V42.9738H95.6087V42.7377C95.3308 42.938 94.9811 43.0515 94.5777 43.0515C93.6394 43.0515 92.8833 42.2686 92.8833 41.2944C92.8833 40.3202 93.6364 39.5312 94.5777 39.5312C94.9841 39.5312 95.3308 39.6448 95.6087 39.845V39.6089H96.4275ZM95.6087 41.8651V40.7206C95.3726 40.371 95.0469 40.2455 94.6972 40.2455C94.1205 40.2455 93.7021 40.7355 93.7021 41.2974C93.7021 41.8592 94.1205 42.3433 94.6972 42.3433C95.0469 42.3433 95.3726 42.2148 95.6087 41.8681V41.8651Z" fill="#F28E69"/>
<path d="M100.73 41.1167V42.9724H99.9117V41.1645C99.9117 40.5728 99.5979 40.2471 99.0869 40.2471C98.794 40.2471 98.4743 40.4174 98.2203 40.7312V42.9724H97.3955V39.6076H98.2203V39.8855C98.5131 39.6434 98.8538 39.5 99.2602 39.5C100.142 39.5 100.733 40.1395 100.733 41.1137L100.73 41.1167Z" fill="#F28E69"/>
<path d="M102.144 41.8435C102.216 42.241 102.515 42.4113 102.969 42.4113C103.366 42.4113 103.644 42.2679 103.644 42.0408C103.644 41.8615 103.501 41.736 103.238 41.6852L102.506 41.5656C101.995 41.473 101.511 41.21 101.511 40.5974C101.511 39.922 102.087 39.5156 102.927 39.5156C103.504 39.5156 104.335 39.7158 104.415 40.6333L103.653 40.6392C103.623 40.2986 103.313 40.1492 102.927 40.1492C102.542 40.1492 102.323 40.3135 102.323 40.5107C102.323 40.6751 102.437 40.8305 102.802 40.8962L103.426 40.9948C103.937 41.0875 104.43 41.3146 104.43 41.969C104.43 42.6862 103.797 43.0777 102.951 43.0777C102.183 43.0777 101.472 42.758 101.394 41.8316L102.147 41.8376L102.144 41.8435Z" fill="#F28E69"/>
<path d="M102.535 14.1506C103.527 14.1506 104.331 13.3465 104.331 12.3546C104.331 11.3627 103.527 10.5586 102.535 10.5586C101.543 10.5586 100.739 11.3627 100.739 12.3546C100.739 13.3465 101.543 14.1506 102.535 14.1506Z" fill="#F28F6A"/>
<path d="M97.8108 14.0611C98.7532 14.0611 99.5172 13.2972 99.5172 12.3548C99.5172 11.4124 98.7532 10.6484 97.8108 10.6484C96.8684 10.6484 96.1045 11.4124 96.1045 12.3548C96.1045 13.2972 96.8684 14.0611 97.8108 14.0611Z" fill="#F28F6A"/>
<path d="M93.0865 13.9737C93.981 13.9737 94.7062 13.2486 94.7062 12.3541C94.7062 11.4595 93.981 10.7344 93.0865 10.7344C92.192 10.7344 91.4668 11.4595 91.4668 12.3541C91.4668 13.2486 92.192 13.9737 93.0865 13.9737Z" fill="#F28F6A"/>
<path d="M88.3586 13.8843C89.2036 13.8843 89.8887 13.1993 89.8887 12.3542C89.8887 11.5092 89.2036 10.8242 88.3586 10.8242C87.5136 10.8242 86.8286 11.5092 86.8286 12.3542C86.8286 13.1993 87.5136 13.8843 88.3586 13.8843Z" fill="#F28F6A"/>
<path d="M83.6343 13.7969C84.4314 13.7969 85.0776 13.1507 85.0776 12.3535C85.0776 11.5564 84.4314 10.9102 83.6343 10.9102C82.8371 10.9102 82.1909 11.5564 82.1909 12.3535C82.1909 13.1507 82.8371 13.7969 83.6343 13.7969Z" fill="#F28F6A"/>
<path d="M78.9069 13.7074C79.6546 13.7074 80.2607 13.1014 80.2607 12.3537C80.2607 11.6061 79.6546 11 78.9069 11C78.1593 11 77.5532 11.6061 77.5532 12.3537C77.5532 13.1014 78.1593 13.7074 78.9069 13.7074Z" fill="#F28F6A"/>
<path d="M74.1821 13.62C74.8819 13.62 75.4491 13.0528 75.4491 12.353C75.4491 11.6532 74.8819 11.0859 74.1821 11.0859C73.4823 11.0859 72.915 11.6532 72.915 12.353C72.915 13.0528 73.4823 13.62 74.1821 13.62Z" fill="#F28F6A"/>
<path d="M69.4547 13.5306C70.105 13.5306 70.6321 13.0034 70.6321 12.3532C70.6321 11.7029 70.105 11.1758 69.4547 11.1758C68.8045 11.1758 68.2773 11.7029 68.2773 12.3532C68.2773 13.0034 68.8045 13.5306 69.4547 13.5306Z" fill="#F28F6A"/>
<path d="M64.7299 13.4432C65.3323 13.4432 65.8206 12.9549 65.8206 12.3525C65.8206 11.7501 65.3323 11.2617 64.7299 11.2617C64.1275 11.2617 63.6392 11.7501 63.6392 12.3525C63.6392 12.9549 64.1275 13.4432 64.7299 13.4432Z" fill="#F28F6A"/>
<path d="M60.0026 13.3537C60.5554 13.3537 61.0036 12.9055 61.0036 12.3527C61.0036 11.7998 60.5554 11.3516 60.0026 11.3516C59.4497 11.3516 59.0015 11.7998 59.0015 12.3527C59.0015 12.9055 59.4497 13.3537 60.0026 13.3537Z" fill="#F28F6A"/>
<path d="M55.2777 13.2664C55.7827 13.2664 56.1921 12.857 56.1921 12.3519C56.1921 11.8469 55.7827 11.4375 55.2777 11.4375C54.7727 11.4375 54.3633 11.8469 54.3633 12.3519C54.3633 12.857 54.7727 13.2664 55.2777 13.2664Z" fill="#F28F6A"/>
<path d="M50.5504 13.1769C51.0059 13.1769 51.3751 12.8076 51.3751 12.3521C51.3751 11.8966 51.0059 11.5273 50.5504 11.5273C50.0949 11.5273 49.7256 11.8966 49.7256 12.3521C49.7256 12.8076 50.0949 13.1769 50.5504 13.1769Z" fill="#F28F6A"/>
<path d="M45.826 13.0895C46.2337 13.0895 46.5641 12.7591 46.5641 12.3514C46.5641 11.9437 46.2337 11.6133 45.826 11.6133C45.4184 11.6133 45.0879 11.9437 45.0879 12.3514C45.0879 12.7591 45.4184 13.0895 45.826 13.0895Z" fill="#F28F6A"/>
<path d="M41.1011 13.0001C41.4592 13.0001 41.7496 12.7097 41.7496 12.3516C41.7496 11.9935 41.4592 11.7031 41.1011 11.7031C40.743 11.7031 40.4526 11.9935 40.4526 12.3516C40.4526 12.7097 40.743 13.0001 41.1011 13.0001Z" fill="#F28F6A"/>
<path d="M13.1572 27.9123L10.3093 23.134L10.3034 23.125H9.69971V30.2671H10.4797L10.4587 24.8074L12.8883 28.8566L12.8942 28.8656H13.4172L15.8348 24.8194L15.8228 30.2462V30.2671H16.6028V23.125H16.0081L13.1572 27.9123Z" fill="#293277"/>
<path d="M20.3653 25.2773C19.6571 25.2773 19.0026 25.5403 18.5215 26.0155C18.0404 26.4906 17.7744 27.1361 17.7744 27.8354C17.7744 28.5346 18.0404 29.198 18.5215 29.6792C19.0026 30.1603 19.6571 30.4262 20.3653 30.4262C21.8117 30.4262 22.9442 29.2877 22.9442 27.8383C22.9442 26.389 21.8117 25.2803 20.3653 25.2803V25.2773ZM22.1852 27.8354C22.1852 28.9022 21.3843 29.7389 20.3653 29.7389C19.3463 29.7389 18.5335 28.9022 18.5335 27.8354C18.5335 26.7685 19.3373 25.9736 20.3653 25.9736C21.3933 25.9736 22.1852 26.7924 22.1852 27.8354Z" fill="#293277"/>
<path d="M26.4048 25.2422C25.7145 25.2422 25.1049 25.4842 24.6358 25.9474V25.4006H23.8887V30.2656H24.6358V26.826C25.0422 26.2702 25.6548 25.9385 26.2793 25.9385C27.1699 25.9385 27.7227 26.5361 27.7227 27.4984V30.2656H28.4817V27.4685C28.4817 26.1387 27.648 25.2452 26.4048 25.2452V25.2422Z" fill="#293277"/>
<path d="M37.2969 26.5637C37.9633 26.3186 38.3727 25.712 38.3727 24.9589C38.3727 23.8263 37.4702 23.1211 36.0149 23.1211H32.8413V30.2632H36.1195C37.6974 30.2632 38.7194 29.4922 38.7194 28.2999C38.7194 27.3884 38.2024 26.7579 37.2969 26.5607V26.5637ZM35.8356 26.214H33.8693V24.0355H35.9073C36.8307 24.0355 37.3836 24.427 37.3836 25.0814C37.3836 25.7986 36.8188 26.211 35.8356 26.211V26.214ZM37.6974 28.1863C37.6974 28.8916 37.0608 29.3488 36.0747 29.3488H33.8693V27.1404H36.1076C37.1176 27.1404 37.6974 27.5229 37.6974 28.1863Z" fill="#293277"/>
<path d="M41.1522 25.3477H40.1631V30.2635H41.1522V25.3477Z" fill="#293277"/>
<path d="M40.6528 22.9258C40.2852 22.9258 40.0073 23.1947 40.0073 23.5503C40.0073 23.906 40.2852 24.1749 40.6528 24.1749C41.0204 24.1749 41.2983 23.9 41.2983 23.5503C41.2983 23.2007 41.0144 22.9258 40.6528 22.9258Z" fill="#293277"/>
<path d="M43.6382 22.8008H42.6162V30.2806H43.6382V22.8008Z" fill="#293277"/>
<path d="M48.9067 25.5905C48.4913 25.3096 47.9803 25.1602 47.4215 25.1602C46.0349 25.1602 44.9053 26.3376 44.9053 27.7839C44.9053 29.2303 46.0349 30.3957 47.4215 30.3957C47.9773 30.3957 48.4913 30.2463 48.9067 29.9654V30.2822H50.1707V25.2767H48.9067V25.5935V25.5905ZM48.9067 26.9442V28.6087C48.5989 29.0599 48.1596 29.287 47.6008 29.287C46.8118 29.287 46.1693 28.6117 46.1693 27.7809C46.1693 26.9502 46.7969 26.2658 47.6008 26.2658C48.1626 26.2658 48.6018 26.493 48.9067 26.9442Z" fill="#293277"/>
<path d="M54.298 25.1172C53.7511 25.1172 53.2491 25.2965 52.8038 25.6461V25.2726H51.5308V30.278H52.8038V26.967C53.1654 26.5277 53.6196 26.2767 54.0469 26.2767C54.797 26.2767 55.2273 26.7578 55.2273 27.5945V30.281H56.4914V27.5228C56.4914 26.0854 55.6098 25.1202 54.298 25.1202V25.1172Z" fill="#293277"/>
<path d="M63.2806 23.1085H60.5762V30.2745H61.891V28.1946H63.1043C64.9093 28.1946 66.1225 27.1487 66.1225 25.5918C66.1225 24.0348 64.981 23.1055 63.2806 23.1055V23.1085ZM63.2388 26.9843H61.891V24.3307H63.2388C64.1831 24.3307 64.8166 24.8387 64.8166 25.5948C64.8166 26.4255 64.1831 26.9843 63.2388 26.9843Z" fill="#293277"/>
<path d="M68.2862 25.858V25.2753H67.0132V30.2808H68.2862V27.1878C68.7106 26.6768 69.2873 26.4139 70.0553 26.381H70.0852V25.1797H70.0553C69.3471 25.1797 68.7554 25.4068 68.2892 25.858H68.2862Z" fill="#293277"/>
<path d="M75.0189 22.8711H73.6054L72.7896 24.4908H73.955L75.0189 22.8711Z" fill="#293277"/>
<path d="M73.4262 25.1172C71.8752 25.1172 70.7935 26.2139 70.7935 27.7828C70.7935 29.3517 71.9141 30.4364 73.4591 30.4364C74.5946 30.4364 75.515 29.8298 75.8079 28.8885L75.8198 28.8496H74.4751L74.4661 28.8646C74.2958 29.1544 73.9581 29.3098 73.4889 29.3098C72.706 29.3098 72.1681 28.8705 72.0426 28.1294H75.8676V28.1025C75.8916 27.977 75.9035 27.8784 75.9035 27.6991C75.8945 26.181 74.8755 25.1202 73.4292 25.1202L73.4262 25.1172ZM72.0635 27.3226C72.2189 26.6114 72.715 26.2049 73.4262 26.2049C74.0896 26.2049 74.5199 26.6114 74.6125 27.3226H72.0635Z" fill="#293277"/>
<path d="M79.4028 28.6353L77.9056 25.2914L77.8967 25.2734H76.543L78.841 30.261L78.85 30.2789H79.9557L82.2597 25.2734H80.9179L79.4028 28.6353Z" fill="#293277"/>
<path d="M85.3136 24.9922C83.7148 24.9922 82.5972 26.1098 82.5972 27.7086C82.5972 29.3073 83.7477 30.425 85.3972 30.425C86.6643 30.425 87.6475 29.7347 87.9045 28.6678L87.9134 28.629H86.1742L86.1652 28.6439C86.0218 28.871 85.7558 28.9966 85.4182 28.9966C84.692 28.9966 84.4171 28.5513 84.3185 28.1598H87.9104V28.1329C87.9343 27.9716 87.9463 27.8042 87.9463 27.607C87.9463 26.068 86.8645 24.9952 85.3136 24.9952V24.9922ZM84.3304 27.1557C84.4679 26.6358 84.8205 26.3608 85.3464 26.3608C85.8724 26.3608 86.1623 26.6298 86.2609 27.1557H84.3304Z" fill="#293277"/>
<path d="M92.45 24.9922C91.951 24.9922 91.5176 25.1386 91.0903 25.4524V25.1506H89.3242V30.2815H91.0903V27.0751C91.3652 26.7643 91.682 26.5939 91.9779 26.5939C92.5576 26.5939 92.8773 26.9615 92.8773 27.6279V30.2815H94.6315V27.356C94.6315 25.9216 93.7738 24.9952 92.447 24.9952L92.45 24.9922Z" fill="#293277"/>
<path d="M99.894 28.6942C99.5055 28.7689 99.2336 28.8197 99.0005 28.8197C98.5014 28.8197 98.2385 28.5657 98.2385 28.0876V26.6651H99.9627V25.1501H98.2385V23.4258H96.4843V25.1501H95.4922V26.6651H96.4843V28.1384C96.4843 29.513 97.3151 30.4364 98.5522 30.4364C99.0513 30.4364 99.4248 30.3976 100.097 30.1854L100.121 30.1764L99.9239 28.6852L99.891 28.6912L99.894 28.6942Z" fill="#293277"/>
<path d="M103.324 25.1484H101.57V30.2794H103.324V25.1484Z" fill="#293277"/>
<path d="M102.437 22.4453C101.854 22.4453 101.415 22.8726 101.415 23.4374C101.415 24.0022 101.863 24.4206 102.437 24.4206C103.011 24.4206 103.462 23.9903 103.462 23.4374C103.462 22.8846 103.014 22.4453 102.437 22.4453Z" fill="#293277"/>
<path d="M107.2 25.0352C105.584 25.0352 104.412 26.1588 104.412 27.7097C104.412 29.2607 105.587 30.4351 107.2 30.4351C108.814 30.4351 109.967 29.2876 109.967 27.7097C109.967 26.1319 108.802 25.0352 107.2 25.0352ZM108.309 27.7187C108.309 28.409 107.843 28.911 107.2 28.911C106.558 28.911 106.083 28.409 106.083 27.7187C106.083 27.0284 106.552 26.5592 107.2 26.5592C107.849 26.5592 108.309 27.0463 108.309 27.7187Z" fill="#293277"/>
<path d="M114.285 24.9922C113.786 24.9922 113.353 25.1386 112.926 25.4524V25.1506H111.16V30.2815H112.926V27.0751C113.201 26.7643 113.517 26.5939 113.813 26.5939C114.393 26.5939 114.713 26.9615 114.713 27.6279V30.2815H116.467V27.356C116.467 25.9216 115.609 24.9952 114.282 24.9952L114.285 24.9922Z" fill="#293277"/>
</g>
<defs>
<clipPath id="clip0_33290_131606">
<rect width="125.994" height="52" fill="white" transform="translate(0.0625 0.820312)"/>
</clipPath>
</defs>
</svg>
