<svg width="160" height="160" viewBox="0 0 160 160" fill="none" xmlns="http://www.w3.org/2000/svg">
<path d="M101.856 31.8154C85.0633 28.537 66.6383 29.7981 50.6009 34.9875C19.0981 45.1833 1.41873 81.0148 10.2835 113.301C14.4548 128.491 26.0736 142.124 41.6996 145.606C53.2633 148.184 64.1523 143.386 72.1369 135.278C78.8711 128.439 83.0543 119.628 89.1716 112.303C98.5234 101.102 111.788 96.199 122.739 87.1475C128.743 82.1856 134.488 74.7123 135.121 66.5766C135.724 58.8535 132.551 50.9114 127.361 45.1446C120.81 37.8659 111.413 33.6807 101.856 31.8154Z" fill="#A0B2EC" fill-opacity="0.16"/>
<path fill-rule="evenodd" clip-rule="evenodd" d="M107.28 25.8862C125.387 37.5343 151.155 46.5065 151.977 67.9796C152.828 90.2053 131.125 107.193 110.73 115.991C94.1695 123.135 76.3599 115.133 59.8616 107.716C46.5935 101.752 35.7336 92.5877 29.47 79.4602C22.5053 64.8635 16.7484 47.7833 24.5282 33.6635C32.4133 19.3525 49.907 14.3293 66.2 12.798C81.2314 11.3853 94.5565 17.7008 107.28 25.8862Z" fill="#A0B2EC" fill-opacity="0.16"/>
<path d="M25.4906 68.0108C24.635 63.8897 27.2823 59.8552 31.4034 58.9996L116.444 41.3437C120.566 40.4881 124.6 43.1353 125.456 47.2565L134.68 91.6867C135.536 95.8078 132.888 99.8423 128.767 100.698L43.7263 118.354C39.6052 119.209 35.5707 116.562 34.7151 112.441L25.4906 68.0108Z" fill="#1E7B6F"/>
<mask id="mask0_31035_175090" style="mask-type:alpha" maskUnits="userSpaceOnUse" x="25" y="41" width="110" height="78">
<path d="M25.4887 68.0108C24.6331 63.8897 27.2803 59.8552 31.4015 58.9996L116.442 41.3437C120.564 40.4881 124.598 43.1353 125.454 47.2565L134.678 91.6867C135.534 95.8078 132.886 99.8423 128.765 100.698L43.7244 118.354C39.6032 119.209 35.5687 116.562 34.7131 112.441L25.4887 68.0108Z" fill="#1E7B6F"/>
</mask>
<g mask="url(#mask0_31035_175090)">
<path d="M70.0785 113.758L24.6777 67.0762L35.8452 120.865L70.0785 113.758Z" fill="#F0B323"/>
</g>
<path d="M38.4716 64.4667L40.269 64.0936L39.158 73.0816L37.217 73.4846L32.6257 65.6804L34.4231 65.3072L37.0396 69.9753C37.1888 70.2518 37.3503 70.5777 37.5241 70.9529C37.7008 71.3236 37.8166 71.5831 37.8714 71.7314C37.8404 71.3705 37.8559 70.7243 37.9182 69.7929L38.4716 64.4667Z" fill="white"/>
<path d="M41.1844 64.2329C41.066 63.6625 41.3245 63.3113 41.96 63.1794C42.5955 63.0475 42.9725 63.2667 43.0909 63.8371C43.1474 64.1089 43.1111 64.3381 42.9821 64.5246C42.8561 64.7065 42.6343 64.8304 42.3165 64.8964C41.681 65.0283 41.3037 64.8072 41.1844 64.2329ZM44.688 71.9335L42.9366 72.2971L41.6036 65.877L43.3551 65.5134L44.688 71.9335Z" fill="white"/>
<path d="M48.9702 69.7087C49.2764 69.6451 49.63 69.5018 50.031 69.2788L50.3016 70.5823C49.9057 70.8682 49.39 71.0771 48.7545 71.209C48.054 71.3544 47.5063 71.2845 47.1116 70.999C46.72 70.7089 46.4506 70.2098 46.3036 69.5016L45.6609 66.4064L44.8225 66.5804L44.6687 65.8397L45.5119 65.0536L45.7358 63.5935L46.8556 63.361L47.1394 64.7277L48.9368 64.3545L49.2098 65.6696L47.4124 66.0427L48.055 69.1379C48.1067 69.3868 48.2137 69.5562 48.3762 69.6463C48.5425 69.7356 48.7405 69.7563 48.9702 69.7087Z" fill="white"/>
<path d="M55.7193 69.6432L55.1993 68.8407L55.1533 68.8502C54.9356 69.2828 54.6849 69.6044 54.4012 69.815C54.1205 70.021 53.7294 70.1761 53.2279 70.2802C52.6116 70.4082 52.0888 70.3331 51.6597 70.0548C51.2343 69.7757 50.9541 69.3107 50.819 68.6599C50.6775 67.9785 50.8107 67.4277 51.2187 67.0076C51.6297 66.5828 52.312 66.2534 53.2658 66.0195L54.3727 65.7537L54.3143 65.4724C54.1791 64.8215 53.7785 64.5653 53.1124 64.7036C52.5994 64.8101 52.0286 65.0903 51.4001 65.5443L50.5745 64.4817C51.2331 63.9417 52.0122 63.5783 52.9119 63.3915C53.7732 63.2126 54.4726 63.2631 55.0098 63.5429C55.5471 63.8227 55.8953 64.3454 56.0542 65.1111L56.9424 69.3893L55.7193 69.6432ZM54.5849 66.7759L53.912 66.9396C53.4061 67.0606 53.0461 67.2311 52.8323 67.4513C52.6184 67.6714 52.5472 67.9537 52.6188 68.2982C52.7213 68.7921 53.0559 68.9802 53.6224 68.8626C54.0283 68.7783 54.3275 68.5944 54.5202 68.3108C54.7167 68.0264 54.7749 67.6909 54.6946 67.3042L54.5849 66.7759Z" fill="white"/>
<path d="M60.5028 68.6501L58.7513 69.0137L56.8962 60.0784L58.6477 59.7148L60.5028 68.6501Z" fill="white"/>
<path d="M63.9056 62.4208C63.5343 62.4979 63.268 62.677 63.1067 62.9581C62.9446 63.2353 62.8932 63.5934 62.9524 64.0324L65.4101 63.5221C65.3127 63.0911 65.1306 62.7815 64.8639 62.5932C64.5964 62.4012 64.277 62.3437 63.9056 62.4208ZM65.2756 67.7789C64.242 67.9935 63.375 67.876 62.6747 67.4264C61.9743 66.9768 61.5157 66.2295 61.2987 65.1843C61.0754 64.1086 61.1709 63.2222 61.5852 62.5252C62.0026 61.8236 62.686 61.3742 63.6354 61.1771C64.5427 60.9887 65.3027 61.1005 65.9154 61.5124C66.528 61.9243 66.9289 62.5858 67.1181 63.4969L67.2945 64.3468L63.1542 65.2064C63.2767 65.7001 63.5047 66.0581 63.8384 66.2803C64.172 66.5026 64.5877 66.562 65.0854 66.4587C65.4721 66.3784 65.8293 66.2623 66.1572 66.1104C66.485 65.9585 66.8183 65.7555 67.1569 65.5015L67.4382 66.8567C67.1638 67.0735 66.8599 67.2544 66.5266 67.3994C66.1941 67.5483 65.7771 67.6748 65.2756 67.7789Z" fill="white"/>
<path d="M96.4258 53.0084C96.1561 51.7093 96.9906 50.4376 98.2896 50.1679L112.258 47.2678C113.557 46.9981 114.829 47.8326 115.099 49.1316L118.654 66.2547C118.923 67.5538 118.089 68.8255 116.79 69.0952L102.821 71.9953C101.522 72.265 100.251 71.4305 99.9809 70.1315L96.4258 53.0084Z" fill="white"/>
<path d="M104.298 56.8064C103.986 55.2226 105.016 53.6854 106.6 53.373C108.184 53.0605 109.721 54.0911 110.033 55.6749C110.346 57.2587 109.315 58.7959 107.732 59.1083C106.148 59.4208 104.611 58.3902 104.298 56.8064ZM107.658 58.735C109.035 58.4632 109.932 57.1261 109.66 55.7485C109.388 54.371 108.051 53.4745 106.674 53.7463C105.296 54.0181 104.4 55.3552 104.671 56.7328C104.943 58.1103 106.28 59.0068 107.658 58.735ZM104.057 65.9709C103.98 64.8748 104.269 63.7775 104.887 62.8552C105.621 61.7598 106.761 61.001 108.055 60.7457C109.348 60.4905 110.691 60.7596 111.786 61.494C112.708 62.1124 113.392 63.0179 113.737 64.061C113.747 64.0887 113.744 64.1145 113.726 64.1427C113.706 64.1741 113.667 64.2044 113.613 64.2149C113.526 64.2321 113.379 64.1761 113.312 64.0003C112.977 63.1132 112.372 62.3452 111.574 61.8101C110.563 61.1319 109.323 60.8834 108.128 61.1191C106.933 61.3548 105.881 62.0555 105.203 63.0671C104.668 63.8652 104.4 64.8052 104.427 65.7533C104.432 65.9412 104.317 66.0491 104.23 66.0662C104.176 66.0768 104.129 66.0634 104.099 66.0421C104.071 66.0229 104.059 66 104.057 65.9709Z" stroke="#1E7B6F" stroke-width="0.985806"/>
<rect x="55.6055" y="75.293" width="38.1418" height="3.18469" rx="1.59234" transform="rotate(-11.7289 55.6055 75.293)" fill="white"/>
<rect x="59.1621" y="92.4414" width="27.4542" height="3.18469" rx="1.59234" transform="rotate(-11.7289 59.1621 92.4414)" fill="white"/>
<rect x="123.904" y="73.373" width="27.4542" height="3.18469" rx="1.59234" transform="rotate(-101.945 123.904 73.373)" fill="white"/>
<rect x="60.7852" y="100.238" width="38.6499" height="3.18469" rx="1.59234" transform="rotate(-11.7289 60.7852 100.238)" fill="white"/>
<path d="M34.3106 82.1666C34.0409 80.8675 34.8753 79.5958 36.1744 79.3261L43.9186 77.7183C45.2176 77.4486 46.4894 78.283 46.7591 79.5821L47.7246 84.2324C47.9943 85.5315 47.1598 86.8032 45.8608 87.0729L38.1165 88.6807C36.8175 88.9504 35.5458 88.116 35.2761 86.8169L34.3106 82.1666Z" fill="#F0B323"/>
<path fill-rule="evenodd" clip-rule="evenodd" d="M44.1628 78.8943L36.4186 80.5022C35.769 80.637 35.3518 81.2729 35.4867 81.9224L36.4522 86.5728C36.587 87.2223 37.2229 87.6395 37.8724 87.5046L45.6166 85.8968C46.2661 85.762 46.6833 85.1261 46.5485 84.4766L45.583 79.8262C45.4482 79.1767 44.8123 78.7595 44.1628 78.8943ZM36.1744 79.3261C34.8753 79.5958 34.0409 80.8675 34.3106 82.1666L35.2761 86.8169C35.5458 88.116 36.8175 88.9504 38.1165 88.6807L45.8608 87.0729C47.1598 86.8032 47.9943 85.5315 47.7246 84.2324L46.7591 79.5821C46.4894 78.283 45.2176 77.4486 43.9186 77.7183L36.1744 79.3261Z" fill="white"/>
<path fill-rule="evenodd" clip-rule="evenodd" d="M59.5236 98.7059L61.0472 105.726C61.0598 105.784 61.117 105.821 61.1751 105.809L101.044 97.1564C101.102 97.1438 101.139 97.0866 101.126 97.0285L99.6024 90.0081C99.5898 89.95 99.5325 89.9132 99.4745 89.9258L59.6059 98.5779C59.5478 98.5905 59.511 98.6478 59.5236 98.7059ZM59.4836 106.066C59.6836 106.987 60.5928 107.572 61.5144 107.372L101.383 98.72C102.305 98.52 102.89 97.6108 102.69 96.6892L101.166 89.6687C100.966 88.7471 100.057 88.1622 99.1351 88.3622L59.2666 97.0143C58.345 97.2143 57.76 98.1236 57.96 99.0452L59.4836 106.066Z" fill="#D81E7E"/>
<path d="M45.088 108.496L53.2998 105.41C53.7227 105.251 53.83 104.57 53.4763 104.288L46.6099 98.8282C46.3085 98.5885 45.8843 98.8278 45.8135 99.2775L44.4682 107.824C44.3974 108.274 44.7275 108.632 45.088 108.496Z" fill="#D81E7E"/>
<path d="M45.5923 102.261C45.8683 102.305 46.0485 102.616 45.9949 102.957L45.8006 104.191C45.747 104.532 45.4798 104.773 45.2038 104.729L23.527 101.064C23.251 101.02 23.0708 100.709 23.1244 100.368L23.3187 99.1341C23.3723 98.7933 23.6395 98.5523 23.9155 98.5958L45.5923 102.261Z" fill="#D81E7E"/>
</svg>
