<svg width="38" height="64" viewBox="0 0 38 64" fill="none" xmlns="http://www.w3.org/2000/svg">
<path d="M33.1117 0.00195313C35.7295 0.00195313 37.8516 2.12402 37.8516 4.74173L37.8516 58.7587C37.8516 61.3764 35.7294 63.4985 33.1117 63.4985H4.88961C2.27185 63.4985 0.149738 61.3764 0.149738 58.7587L0.149738 4.74173C0.149738 2.12402 2.27185 0.00195313 4.88961 0.00195313L33.1117 0.00195313Z" fill="#1E7B6F"/>
<mask id="mask0_37237_190294" style="mask-type:alpha" maskUnits="userSpaceOnUse" x="0" y="0" width="38" height="64">
<path d="M33.1117 0C35.7295 0 37.8516 2.12207 37.8516 4.73978L37.8516 58.7567C37.8516 61.3744 35.7294 63.4965 33.1117 63.4965H4.88961C2.27185 63.4965 0.149738 61.3744 0.149738 58.7567L0.149738 4.73978C0.149738 2.12207 2.27185 0 4.88961 0L33.1117 0Z" fill="#1E7B6F"/>
</mask>
<g mask="url(#mask0_37237_190294)">
<path d="M-0.385498 21.3696L33.7812 -0.375L-0.385498 -0.375V21.3696Z" fill="#F0B323"/>
</g>
<path d="M33.6259 8.35383V9.49551L28.293 7.68268V6.44981L33.6259 4.64062V5.78231L30.4524 6.78538C30.2652 6.84131 30.0463 6.89846 29.7959 6.95682C29.5478 7.01761 29.3752 7.0553 29.2779 7.06989C29.5016 7.09664 29.8931 7.18783 30.4524 7.34346L33.6259 8.35383Z" fill="white"/>
<path d="M33.4253 10.0353C33.7876 10.0353 33.9688 10.2372 33.9688 10.6408C33.9688 11.0445 33.7876 11.2463 33.4253 11.2463C33.2526 11.2463 33.1176 11.1953 33.0204 11.0931C32.9255 10.9934 32.8781 10.8427 32.8781 10.6408C32.8781 10.2372 33.0605 10.0353 33.4253 10.0353ZM28.293 11.1953V10.0828H32.3711V11.1953H28.293Z" fill="white"/>
<path d="M29.1065 14.0841C29.1065 14.2787 29.149 14.5121 29.2341 14.7845H28.4061C28.2821 14.5072 28.2201 14.1668 28.2201 13.7631C28.2201 13.3181 28.332 12.9935 28.5557 12.7892C28.7818 12.5874 29.1198 12.4865 29.5697 12.4865H31.5358V11.954H32.0063L32.3784 12.5667L33.2392 12.8877V13.599H32.3711V14.7407H31.5358V13.599H29.5697C29.4117 13.599 29.2949 13.6428 29.2195 13.7303C29.1442 13.8203 29.1065 13.9382 29.1065 14.0841Z" fill="white"/>
<path d="M28.293 18.2022L28.8475 17.987V17.9578C28.6116 17.7706 28.4475 17.5773 28.3551 17.3779C28.2651 17.1809 28.2201 16.9231 28.2201 16.6046C28.2201 16.2131 28.332 15.9043 28.5557 15.6781C28.7794 15.4544 29.098 15.3425 29.5114 15.3425C29.9442 15.3425 30.2628 15.4933 30.467 15.7948C30.6737 16.0988 30.788 16.5559 30.8099 17.1663L30.8318 17.8739H31.0105C31.4239 17.8739 31.6306 17.6624 31.6306 17.2393C31.6306 16.9134 31.5321 16.5304 31.3352 16.0903L32.0866 15.7219C32.3322 16.1912 32.455 16.7116 32.455 17.283C32.455 17.8302 32.3358 18.2496 32.0975 18.5414C31.8592 18.8332 31.4969 18.9791 31.0105 18.9791H28.293V18.2022ZM30.1825 17.8739L30.1679 17.4435C30.1582 17.1201 30.0998 16.8794 29.9928 16.7213C29.8858 16.5632 29.7229 16.4842 29.5041 16.4842C29.1904 16.4842 29.0335 16.6642 29.0335 17.024C29.0335 17.2818 29.1077 17.4873 29.256 17.6405C29.4044 17.7961 29.6013 17.8739 29.8469 17.8739H30.1825Z" fill="white"/>
<path d="M28.293 21.2406V20.1281H33.9688V21.2406H28.293Z" fill="white"/>
<path d="M31.6562 24.1003C31.6562 23.8644 31.5808 23.6796 31.43 23.5459C31.2817 23.4121 31.0701 23.3355 30.7953 23.3161V24.8772C31.0701 24.8724 31.2817 24.8006 31.43 24.662C31.5808 24.5234 31.6562 24.3362 31.6562 24.1003ZM28.2201 24.2571C28.2201 23.6006 28.4013 23.0875 28.7636 22.7179C29.1259 22.3483 29.639 22.1634 30.3029 22.1634C30.9862 22.1634 31.5139 22.3337 31.886 22.6741C32.2604 23.017 32.4477 23.4899 32.4477 24.093C32.4477 24.6693 32.2835 25.118 31.9553 25.4389C31.627 25.7599 31.1735 25.9204 30.5947 25.9204H30.0549V23.2905C29.7387 23.3027 29.4919 23.3963 29.3144 23.5714C29.1369 23.7465 29.0481 23.9921 29.0481 24.3082C29.0481 24.5538 29.0736 24.786 29.1247 25.0049C29.1758 25.2237 29.2572 25.4523 29.3691 25.6906H28.5083C28.411 25.4961 28.3393 25.2882 28.293 25.0669C28.2444 24.8456 28.2201 24.5757 28.2201 24.2571Z" fill="white"/>
<path d="M33.2794 45.0938C34.1045 45.0938 34.7734 45.7627 34.7734 46.5878V55.4604C34.7734 56.2855 34.1045 56.9544 33.2794 56.9544H22.4027C21.5776 56.9544 20.9087 56.2855 20.9087 55.4604V46.5878C20.9087 45.7627 21.5776 45.0938 22.4027 45.0938H33.2794Z" fill="white"/>
<path d="M29.9693 49.4077C30.9733 49.4177 31.7791 50.2396 31.7691 51.2435C31.7592 52.2474 30.9372 53.0532 29.9333 53.0432C28.9293 53.0333 28.1235 52.2114 28.1335 51.2074C28.1435 50.2035 28.9654 49.3977 29.9693 49.4077ZM28.3702 51.2098C28.3615 52.083 29.0624 52.7979 29.9356 52.8066C30.8089 52.8152 31.5238 52.1144 31.5325 51.2412C31.5411 50.3679 30.8402 49.653 29.967 49.6444C29.0938 49.6357 28.3788 50.3366 28.3702 51.2098ZM24.4191 48.1021C25.0963 48.194 25.728 48.5084 26.2115 49.0015C26.7857 49.5872 27.1037 50.377 27.0956 51.1971C27.0874 52.0173 26.7538 52.8006 26.1681 53.3748C25.675 53.8582 25.0371 54.1601 24.3583 54.2385C24.3402 54.2406 24.3248 54.2356 24.31 54.2211C24.2934 54.2048 24.2798 54.1776 24.2802 54.1435C24.2807 54.0884 24.3335 54.0056 24.449 53.9873C25.0316 53.8952 25.5757 53.6242 26.0024 53.2058C26.5433 52.6755 26.8514 51.9522 26.8589 51.1948C26.8664 50.4374 26.5727 49.7081 26.0425 49.1672C25.6241 48.7405 25.0855 48.4586 24.5048 48.355C24.3898 48.3345 24.3386 48.2506 24.3392 48.1955C24.3395 48.1615 24.3536 48.1345 24.3705 48.1186C24.3856 48.1043 24.4011 48.0996 24.4191 48.1021Z" stroke="#1E7B6F" stroke-width="0.613104"/>
<rect x="24.8672" y="17.418" width="23.7213" height="1.98068" rx="0.990339" transform="rotate(90 24.8672 17.418)" fill="white"/>
<rect x="13.9766" y="17.416" width="17.0744" height="1.98068" rx="0.990339" transform="rotate(90 13.9766 17.416)" fill="white"/>
<rect x="17.4062" y="59.252" width="17.0748" height="1.98064" rx="0.990319" transform="rotate(-0.215839 17.4062 59.252)" fill="white"/>
<rect x="9.02344" y="17.418" width="24.0373" height="1.98068" rx="0.990339" transform="rotate(90 9.02344 17.418)" fill="white"/>
<path d="M23.3731 3.58203C24.1983 3.58203 24.8672 4.25093 24.8672 5.07607V9.9951C24.8672 10.8202 24.1983 11.4891 23.3731 11.4891H20.4192C19.5941 11.4891 18.9251 10.8202 18.9251 9.9951V5.07607C18.9251 4.25093 19.5941 3.58203 20.4192 3.58203L23.3731 3.58203Z" fill="#F0B323"/>
<path fill-rule="evenodd" clip-rule="evenodd" d="M24.1202 9.9951V5.07607C24.1202 4.6635 23.7857 4.32905 23.3731 4.32905H20.4192C20.0066 4.32905 19.6722 4.6635 19.6722 5.07607V9.9951C19.6722 10.4077 20.0066 10.7421 20.4192 10.7421H23.3731C23.7857 10.7421 24.1202 10.4077 24.1202 9.9951ZM24.8672 5.07607C24.8672 4.25093 24.1983 3.58203 23.3731 3.58203L20.4192 3.58203C19.5941 3.58203 18.9251 4.25093 18.9251 5.07607V9.9951C18.9251 10.8202 19.5941 11.4891 20.4192 11.4891H23.3731C24.1983 11.4891 24.8672 10.8202 24.8672 9.9951V5.07607Z" fill="white"/>
<path fill-rule="evenodd" clip-rule="evenodd" d="M35.957 62.9582V57.5791L15.372 57.5791V62.9582L35.957 62.9582ZM36.8594 57.5791C36.8594 57.0036 36.4554 56.5371 35.957 56.5371H15.372C14.8736 56.5371 14.4696 57.0036 14.4696 57.5791V62.9582C14.4696 63.5337 14.8736 64.0002 15.372 64.0002H35.957C36.4554 64.0002 36.8594 63.5337 36.8594 62.9582V57.5791Z" fill="#D81E7E"/>
</svg>
