<svg width="160" height="160" viewBox="0 0 160 160" fill="none" xmlns="http://www.w3.org/2000/svg">
<g clip-path="url(#clip0_31035_175160)">
<path d="M101.856 31.8154C85.0633 28.537 66.6383 29.7981 50.6009 34.9875C19.0981 45.1833 1.41873 81.0148 10.2835 113.301C14.4548 128.491 26.0736 142.124 41.6996 145.606C53.2633 148.184 64.1523 143.386 72.1369 135.278C78.8711 128.439 83.0543 119.628 89.1716 112.303C98.5234 101.102 111.788 96.199 122.739 87.1475C128.743 82.1856 134.488 74.7123 135.121 66.5766C135.724 58.8535 132.551 50.9114 127.361 45.1446C120.81 37.8659 111.413 33.6807 101.856 31.8154Z" fill="#A0B2EC" fill-opacity="0.16"/>
<path fill-rule="evenodd" clip-rule="evenodd" d="M107.28 25.8862C125.387 37.5343 151.155 46.5065 151.977 67.9796C152.828 90.2053 131.125 107.193 110.73 115.991C94.1695 123.135 76.3599 115.133 59.8616 107.716C46.5935 101.752 35.7336 92.5877 29.47 79.4602C22.5053 64.8635 16.7484 47.7833 24.5282 33.6635C32.4133 19.3525 49.907 14.3293 66.2 12.798C81.2314 11.3853 94.5565 17.7008 107.28 25.8862Z" fill="#A0B2EC" fill-opacity="0.16"/>
<path d="M25.4906 68.0089C24.635 63.8877 27.2823 59.8533 31.4034 58.9976L116.444 41.3418C120.566 40.4861 124.6 43.1334 125.456 47.2545L134.68 91.6847C135.536 95.8059 132.888 99.8403 128.767 100.696L43.7263 118.352C39.6052 119.207 35.5707 116.56 34.7151 112.439L25.4906 68.0089Z" fill="#1E7B6F"/>
<mask id="mask0_31035_175160" style="mask-type:alpha" maskUnits="userSpaceOnUse" x="25" y="41" width="110" height="78">
<path d="M25.4887 68.0089C24.6331 63.8877 27.2803 59.8533 31.4015 58.9976L116.442 41.3418C120.564 40.4861 124.598 43.1334 125.454 47.2545L134.678 91.6847C135.534 95.8059 132.886 99.8403 128.765 100.696L43.7244 118.352C39.6032 119.207 35.5687 116.56 34.7131 112.439L25.4887 68.0089Z" fill="#1E7B6F"/>
</mask>
<g mask="url(#mask0_31035_175160)">
<path d="M70.0785 113.756L24.6777 67.0742L35.8452 120.863L70.0785 113.756Z" fill="#F0B323"/>
</g>
<path d="M38.4716 64.4648L40.269 64.0916L39.158 73.0796L37.217 73.4826L32.6257 65.6785L34.4231 65.3053L37.0396 69.9734C37.1888 70.2499 37.3503 70.5758 37.5241 70.951C37.7008 71.3216 37.8166 71.5811 37.8714 71.7295C37.8404 71.3685 37.8559 70.7224 37.9182 69.791L38.4716 64.4648Z" fill="white"/>
<path d="M41.1844 64.231C41.066 63.6606 41.3245 63.3094 41.96 63.1775C42.5955 63.0455 42.9725 63.2648 43.0909 63.8352C43.1474 64.107 43.1111 64.3361 42.9821 64.5227C42.8561 64.7046 42.6343 64.8285 42.3165 64.8945C41.681 65.0264 41.3037 64.8052 41.1844 64.231ZM44.688 71.9315L42.9366 72.2952L41.6036 65.8751L43.3551 65.5114L44.688 71.9315Z" fill="white"/>
<path d="M48.9702 69.7067C49.2764 69.6431 49.63 69.4998 50.031 69.2768L50.3016 70.5803C49.9057 70.8662 49.39 71.0751 48.7545 71.207C48.054 71.3525 47.5063 71.2825 47.1116 70.9971C46.72 70.707 46.4506 70.2078 46.3036 69.4996L45.6609 66.4044L44.8225 66.5785L44.6687 65.8377L45.5119 65.0517L45.7358 63.5915L46.8556 63.359L47.1394 64.7258L48.9368 64.3526L49.2098 65.6676L47.4124 66.0408L48.055 69.136C48.1067 69.3848 48.2137 69.5543 48.3762 69.6443C48.5425 69.7336 48.7405 69.7544 48.9702 69.7067Z" fill="white"/>
<path d="M55.7193 69.6412L55.1993 68.8387L55.1533 68.8483C54.9356 69.2808 54.6849 69.6024 54.4012 69.8131C54.1205 70.0191 53.7294 70.1742 53.2279 70.2783C52.6116 70.4063 52.0888 70.3311 51.6597 70.0528C51.2343 69.7737 50.9541 69.3088 50.819 68.658C50.6775 67.9765 50.8107 67.4257 51.2187 67.0056C51.6297 66.5808 52.312 66.2515 53.2658 66.0175L54.3727 65.7518L54.3143 65.4704C54.1791 64.8196 53.7785 64.5633 53.1124 64.7016C52.5994 64.8081 52.0286 65.0884 51.4001 65.5423L50.5745 64.4798C51.2331 63.9397 52.0122 63.5763 52.9119 63.3895C53.7732 63.2107 54.4726 63.2612 55.0098 63.541C55.5471 63.8208 55.8953 64.3435 56.0542 65.1092L56.9424 69.3873L55.7193 69.6412ZM54.5849 66.7739L53.912 66.9376C53.4061 67.0586 53.0461 67.2292 52.8323 67.4493C52.6184 67.6694 52.5472 67.9517 52.6188 68.2963C52.7213 68.7901 53.0559 68.9782 53.6224 68.8606C54.0283 68.7764 54.3275 68.5924 54.5202 68.3088C54.7167 68.0244 54.7749 67.6889 54.6946 67.3023L54.5849 66.7739Z" fill="white"/>
<path d="M60.5028 68.6481L58.7513 69.0117L56.8962 60.0765L58.6477 59.7128L60.5028 68.6481Z" fill="white"/>
<path d="M63.9056 62.4188C63.5343 62.4959 63.268 62.675 63.1067 62.9561C62.9446 63.2333 62.8932 63.5914 62.9524 64.0304L65.4101 63.5201C65.3127 63.0891 65.1306 62.7795 64.8639 62.5913C64.5964 62.3992 64.277 62.3418 63.9056 62.4188ZM65.2756 67.777C64.242 67.9916 63.375 67.8741 62.6747 67.4245C61.9743 66.9749 61.5157 66.2275 61.2987 65.1824C61.0754 64.1066 61.1709 63.2202 61.5852 62.5232C62.0026 61.8216 62.686 61.3722 63.6354 61.1751C64.5427 60.9867 65.3027 61.0985 65.9154 61.5104C66.528 61.9223 66.9289 62.5838 67.1181 63.495L67.2945 64.3449L63.1542 65.2045C63.2767 65.6982 63.5047 66.0562 63.8384 66.2784C64.172 66.5006 64.5877 66.5601 65.0854 66.4568C65.4721 66.3765 65.8293 66.2604 66.1572 66.1085C66.485 65.9565 66.8183 65.7536 67.1569 65.4996L67.4382 66.8548C67.1638 67.0715 66.8599 67.2524 66.5266 67.3975C66.1941 67.5464 65.7771 67.6729 65.2756 67.777Z" fill="white"/>
<path d="M96.4258 53.0064C96.1561 51.7074 96.9906 50.4357 98.2896 50.166L112.258 47.2659C113.557 46.9962 114.829 47.8306 115.099 49.1297L118.654 66.2528C118.923 67.5518 118.089 68.8235 116.79 69.0932L102.821 71.9933C101.522 72.263 100.251 71.4286 99.9809 70.1295L96.4258 53.0064Z" fill="white"/>
<path d="M104.298 56.8045C103.986 55.2207 105.016 53.6835 106.6 53.371C108.184 53.0586 109.721 54.0892 110.033 55.6729C110.346 57.2567 109.315 58.7939 107.732 59.1064C106.148 59.4188 104.611 58.3882 104.298 56.8045ZM107.658 58.733C109.035 58.4612 109.932 57.1242 109.66 55.7466C109.388 54.369 108.051 53.4726 106.674 53.7444C105.296 54.0161 104.4 55.3532 104.671 56.7308C104.943 58.1084 106.28 59.0048 107.658 58.733ZM104.057 65.9689C103.98 64.8728 104.269 63.7755 104.887 62.8532C105.621 61.7578 106.761 60.999 108.055 60.7438C109.348 60.4885 110.691 60.7577 111.786 61.4921C112.708 62.1104 113.392 63.0159 113.737 64.059C113.747 64.0868 113.744 64.1126 113.726 64.1408C113.706 64.1721 113.667 64.2024 113.613 64.213C113.526 64.2302 113.379 64.1741 113.312 63.9983C112.977 63.1112 112.372 62.3432 111.574 61.8081C110.563 61.13 109.323 60.8814 108.128 61.1171C106.933 61.3529 105.881 62.0536 105.203 63.0651C104.668 63.8633 104.4 64.8033 104.427 65.7513C104.432 65.9392 104.317 66.0471 104.23 66.0643C104.176 66.0749 104.129 66.0615 104.099 66.0401C104.071 66.0209 104.059 65.9981 104.057 65.9689Z" stroke="#1E7B6F" stroke-width="0.985806"/>
<rect x="55.6055" y="75.291" width="38.1418" height="3.18469" rx="1.59234" transform="rotate(-11.7289 55.6055 75.291)" fill="white"/>
<rect x="59.1621" y="92.4395" width="27.4542" height="3.18469" rx="1.59234" transform="rotate(-11.7289 59.1621 92.4395)" fill="white"/>
<rect x="123.904" y="73.3711" width="27.4542" height="3.18469" rx="1.59234" transform="rotate(-101.945 123.904 73.3711)" fill="white"/>
<rect x="60.7852" y="100.236" width="38.6499" height="3.18469" rx="1.59234" transform="rotate(-11.7289 60.7852 100.236)" fill="white"/>
<path d="M34.3106 82.1646C34.0409 80.8656 34.8753 79.5939 36.1744 79.3242L43.9186 77.7163C45.2176 77.4466 46.4894 78.2811 46.7591 79.5801L47.7246 84.2305C47.9943 85.5295 47.1598 86.8012 45.8608 87.0709L38.1165 88.6788C36.8175 88.9485 35.5458 88.114 35.2761 86.815L34.3106 82.1646Z" fill="#F0B323"/>
<path fill-rule="evenodd" clip-rule="evenodd" d="M44.1628 78.8924L36.4186 80.5002C35.769 80.6351 35.3518 81.2709 35.4867 81.9204L36.4522 86.5708C36.587 87.2203 37.2229 87.6375 37.8724 87.5027L45.6166 85.8949C46.2661 85.76 46.6833 85.1242 46.5485 84.4746L45.583 79.8243C45.4482 79.1748 44.8123 78.7575 44.1628 78.8924ZM36.1744 79.3242C34.8753 79.5939 34.0409 80.8656 34.3106 82.1646L35.2761 86.815C35.5458 88.114 36.8175 88.9485 38.1165 88.6788L45.8608 87.0709C47.1598 86.8012 47.9943 85.5295 47.7246 84.2305L46.7591 79.5801C46.4894 78.2811 45.2176 77.4466 43.9186 77.7163L36.1744 79.3242Z" fill="white"/>
<path fill-rule="evenodd" clip-rule="evenodd" d="M123.024 39.0378L114.388 40.8004C114.329 40.8123 114.292 40.8691 114.304 40.9273L122.093 79.0933C122.105 79.1515 122.162 79.1891 122.22 79.1772L130.857 77.4145C130.915 77.4026 130.952 77.3458 130.941 77.2876L123.151 39.1216C123.139 39.0634 123.083 39.0259 123.024 39.0378ZM114.068 39.2328C113.144 39.4213 112.547 40.3233 112.736 41.2473L120.525 79.4133C120.714 80.3373 121.616 80.9335 122.54 80.7449L131.177 78.9822C132.101 78.7936 132.697 77.8917 132.508 76.9677L124.719 38.8017C124.53 37.8777 123.629 37.2815 122.704 37.4701L114.068 39.2328Z" fill="#D81E7E"/>
<path d="M133.866 49.0782L131.529 57.5336C131.408 57.9691 131.896 58.4568 132.331 58.3364L140.787 55.9987C141.158 55.8961 141.214 55.4123 140.892 55.0904L134.775 48.9727C134.453 48.6507 133.969 48.7069 133.866 49.0782Z" fill="#D81E7E"/>
<path d="M138.61 53.1556C138.413 53.3531 138.055 53.3155 137.811 53.0716L136.928 52.1883C136.684 51.9443 136.646 51.5865 136.844 51.3889L152.565 36.0213C152.763 35.8237 153.12 35.8613 153.364 36.1053L154.248 36.9886C154.492 37.2325 154.529 37.5904 154.332 37.7879L138.61 53.1556Z" fill="#D81E7E"/>
</g>
<defs>
<clipPath id="clip0_31035_175160">
<rect width="160" height="160" fill="white"/>
</clipPath>
</defs>
</svg>
