<svg width="64" height="39" viewBox="0 0 64 39" fill="none" xmlns="http://www.w3.org/2000/svg">
<path d="M6.96131e-08 5.41798C3.11668e-08 2.77952 2.1389 0.640625 4.77736 0.640625H59.2226C61.8611 0.640625 64 2.77952 64 5.41798L64 33.8633C64 36.5017 61.8611 38.6406 59.2226 38.6406H4.77736C2.1389 38.6406 5.22548e-07 36.5017 4.84102e-07 33.8633L6.96131e-08 5.41798Z" fill="#1E7B6F"/>
<path d="M8.41843 4.89637L9.56916 4.89637L7.74196 10.2714L6.49931 10.2714L4.67578 4.89637L5.82652 4.89637L6.83755 8.0949C6.89392 8.28362 6.95152 8.50421 7.01034 8.75666C7.07161 9.00666 7.1096 9.18068 7.12431 9.27872C7.15127 9.05323 7.24318 8.65862 7.40004 8.0949L8.41843 4.89637Z" fill="white"/>
<path d="M10.1133 5.09857C10.1133 4.73338 10.3167 4.55078 10.7236 4.55078C11.1304 4.55078 11.3339 4.73338 11.3339 5.09857C11.3339 5.27259 11.2824 5.40862 11.1795 5.50666C11.079 5.60225 10.927 5.65005 10.7236 5.65005C10.3167 5.65005 10.1133 5.46622 10.1133 5.09857ZM11.2824 10.2714L10.1611 10.2714L10.1611 6.16108L11.2824 6.16108L11.2824 10.2714Z" fill="white"/>
<path d="M14.1942 9.45152C14.3902 9.45152 14.6255 9.40862 14.9 9.32284L14.9 10.1574C14.6206 10.2824 14.2775 10.3449 13.8706 10.3449C13.4221 10.3449 13.0949 10.2322 12.889 10.0067C12.6856 9.77872 12.5839 9.43804 12.5839 8.9846L12.5839 7.00299L12.0471 7.00299L12.0471 6.52872L12.6647 6.15372L12.9883 5.28607L13.7052 5.28607L13.7052 6.16107L14.8559 6.16107L14.8559 7.00299L13.7052 7.00299L13.7052 8.9846C13.7052 9.14392 13.7493 9.26157 13.8375 9.33755C13.9282 9.41353 14.0471 9.45152 14.1942 9.45152Z" fill="white"/>
<path d="M18.3449 10.2714L18.128 9.71254L18.0986 9.71254C17.9098 9.95029 17.715 10.1157 17.514 10.2089C17.3155 10.2996 17.0557 10.3449 16.7346 10.3449C16.34 10.3449 16.0287 10.2322 15.8008 10.0067C15.5753 9.78117 15.4625 9.46009 15.4625 9.04343C15.4625 8.60715 15.6145 8.28607 15.9184 8.08019C16.2248 7.87186 16.6856 7.75666 17.3008 7.7346L18.014 7.71255L18.014 7.5324C18.014 7.11573 17.8008 6.9074 17.3743 6.9074C17.0459 6.9074 16.6598 7.00666 16.2162 7.20519L15.8449 6.44784C16.3179 6.20029 16.8424 6.07652 17.4184 6.07652C17.9699 6.07652 18.3927 6.19661 18.6868 6.43681C18.9809 6.67701 19.128 7.0422 19.128 7.5324L19.128 10.2714L18.3449 10.2714ZM18.014 8.36696L17.5802 8.38166C17.2542 8.39147 17.0116 8.45029 16.8522 8.55813C16.6929 8.66598 16.6133 8.83019 16.6133 9.05078C16.6133 9.36696 16.7947 9.52505 17.1574 9.52505C17.4172 9.52505 17.6243 9.45029 17.7787 9.30078C17.9356 9.15127 18.014 8.95274 18.014 8.70519L18.014 8.36696Z" fill="white"/>
<path d="M21.4074 10.2714L20.2861 10.2714L20.2861 4.55078L21.4074 4.55078L21.4074 10.2714Z" fill="white"/>
<path d="M24.2897 6.88166C24.052 6.88166 23.8657 6.95764 23.7309 7.1096C23.5961 7.25911 23.5189 7.47235 23.4993 7.74931L25.0728 7.74931C25.0679 7.47235 24.9956 7.25911 24.8559 7.1096C24.7162 6.95764 24.5275 6.88166 24.2897 6.88166ZM24.4478 10.3449C23.7861 10.3449 23.2689 10.1623 22.8964 9.7971C22.5238 9.43191 22.3375 8.91475 22.3375 8.24563C22.3375 7.55691 22.5091 7.02504 22.8522 6.65004C23.1978 6.27259 23.6746 6.08387 24.2824 6.08387C24.8633 6.08387 25.3155 6.24931 25.639 6.58019C25.9625 6.91107 26.1243 7.36818 26.1243 7.95151L26.1243 8.49563L23.4736 8.49563C23.4858 8.81426 23.5802 9.06304 23.7567 9.24196C23.9331 9.42088 24.1807 9.51034 24.4993 9.51034C24.7469 9.51034 24.9809 9.4846 25.2015 9.43313C25.4221 9.38166 25.6525 9.29955 25.8927 9.18681L25.8927 10.0545C25.6966 10.1525 25.4871 10.2248 25.264 10.2714C25.041 10.3204 24.7689 10.3449 24.4478 10.3449Z" fill="white"/>
<rect x="17.5547" y="13.7266" width="36.8633" height="1.99634" rx="0.654662" fill="white"/>
<rect x="17.5547" y="24.7031" width="26.7006" height="1.99634" rx="0.654662" fill="white"/>
<rect x="17.5547" y="29.6953" width="37.652" height="1.99634" rx="0.654662" fill="white"/>
<path d="M3.60938 15.2324C3.60938 14.4008 4.28358 13.7266 5.11526 13.7266L10.0733 13.7266C10.905 13.7266 11.5792 14.4008 11.5792 15.2324L11.5792 18.2097C11.5792 19.0414 10.905 19.7156 10.0733 19.7156L5.11526 19.7156C4.28358 19.7156 3.60938 19.0414 3.60938 18.2097L3.60938 15.2324Z" fill="#F0B323"/>
<path fill-rule="evenodd" clip-rule="evenodd" d="M10.0733 14.4795L5.11526 14.4795C4.69942 14.4795 4.36232 14.8166 4.36232 15.2324L4.36232 18.2097C4.36232 18.6256 4.69942 18.9627 5.11526 18.9627L10.0733 18.9627C10.4891 18.9627 10.8262 18.6256 10.8262 18.2097L10.8262 15.2324C10.8262 14.8166 10.4891 14.4795 10.0733 14.4795ZM5.11526 13.7266C4.28358 13.7266 3.60938 14.4008 3.60938 15.2324L3.60938 18.2097C3.60938 19.0414 4.28358 19.7156 5.11526 19.7156L10.0733 19.7156C10.905 19.7156 11.5792 19.0414 11.5792 18.2097L11.5792 15.2324C11.5792 14.4008 10.905 13.7266 10.0733 13.7266L5.11526 13.7266Z" fill="white"/>
<rect x="16.5" y="23.1992" width="31" height="5" rx="1.5" stroke="#D81E7E"/>
</svg>
