<svg width="160" height="160" viewBox="0 0 160 160" fill="none" xmlns="http://www.w3.org/2000/svg">
<path fill-rule="evenodd" clip-rule="evenodd" d="M66.2064 72.9064C62.1539 54.5996 51.6951 33.2423 64.4317 19.477C77.6147 5.22909 101.565 8.05917 119.651 15.1444C134.337 20.8975 140.455 36.7704 146.12 51.4773C150.675 63.3048 151.762 75.6298 147.552 87.5813C142.87 100.87 135.906 114.952 122.367 118.896C108.644 122.894 94.6874 115.259 83.63 106.204C73.4288 97.8502 69.0543 85.7712 66.2064 72.9064Z" fill="#A0B2EC" fill-opacity="0.16"/>
<path d="M106.074 143.665C92.4705 150.101 76.4483 152.81 61.5784 151.504C32.3687 148.937 9.17777 120.531 9.45972 89.7691C9.59296 75.296 16.4388 60.6653 28.9994 54.2911C38.2944 49.5729 48.6784 51.601 57.329 57.1985C64.625 61.9199 70.1874 68.9391 77.0664 74.2253C87.5831 82.3077 100.02 83.9348 111.417 89.7594C117.666 92.9522 124.26 98.4481 126.638 105.602C128.896 112.394 127.98 120.167 124.849 126.414C120.897 134.297 113.815 140.004 106.074 143.665Z" fill="#A0B2EC" fill-opacity="0.16"/>
<g filter="url(#filter0_d_31035_175105)">
<path d="M24.758 68.3105C23.8971 64.1641 26.5606 60.1049 30.707 59.244L116.269 41.4799C120.416 40.619 124.475 43.2825 125.336 47.4289L134.617 92.1314C135.477 96.2778 132.814 100.337 128.668 101.198L43.1054 118.962C38.959 119.823 34.8998 117.159 34.0389 113.013L24.758 68.3105Z" fill="white"/>
</g>
<rect width="87.8054" height="3.20249" rx="1.05076" transform="matrix(0.978583 -0.205853 0.200739 0.979645 35.4219 81.9414)" fill="#A0B2EC"/>
<rect width="87.8054" height="3.2025" rx="1.05076" transform="matrix(0.978583 -0.205853 0.200739 0.979645 37.1113 88.8438)" fill="#A0B2EC"/>
<rect x="38.8477" y="95.6992" width="40.2967" height="3.20421" rx="1.05076" transform="rotate(-11.7289 38.8477 95.6992)" fill="#A0B2EC"/>
<rect x="31.9922" y="66.752" width="26.6008" height="3.20421" rx="1.05076" transform="rotate(-11.7289 31.9922 66.752)" fill="#495574"/>
<rect x="67.9805" y="59.0391" width="26.6008" height="3.20421" rx="1.05076" transform="rotate(-11.7289 67.9805 59.0391)" fill="#A0B2EC"/>
<rect width="14.8618" height="3.2025" rx="1.05076" transform="matrix(0.978583 -0.205853 0.200739 0.979645 103.111 51.5508)" fill="#A0B2EC"/>
<rect x="56.8398" y="105.334" width="60.433" height="3.20421" rx="1.05076" transform="rotate(-11.7289 56.8398 105.334)" fill="#A0B2EC"/>
<path fill-rule="evenodd" clip-rule="evenodd" d="M29.1252 65.1082L30.6487 72.1287C30.6613 72.1867 30.7186 72.2236 30.7766 72.211L61.2023 65.6081C61.2604 65.5955 61.2972 65.5382 61.2846 65.4801L59.7611 58.4597C59.7485 58.4016 59.6912 58.3648 59.6331 58.3774L29.2075 64.9803C29.1494 64.9929 29.1126 65.0502 29.1252 65.1082ZM29.0851 72.468C29.2851 73.3896 30.1944 73.9746 31.116 73.7746L61.5417 67.1717C62.4633 66.9717 63.0482 66.0624 62.8482 65.1408L61.3247 58.1204C61.1247 57.1987 60.2154 56.6138 59.2938 56.8138L28.8681 63.4167C27.9465 63.6167 27.3616 64.5259 27.5616 65.4475L29.0851 72.468Z" fill="#D81E7E"/>
<path d="M26.6778 53.6004L35.1332 55.9381C35.5687 56.0585 36.0564 55.5708 35.936 55.1353L33.5983 46.6799C33.4957 46.3086 33.012 46.2525 32.69 46.5744L26.5723 52.6921C26.2504 53.0141 26.3065 53.4978 26.6778 53.6004Z" fill="#D81E7E"/>
<path d="M30.7552 48.8564C30.9527 49.0539 30.9151 49.4118 30.6712 49.6557L29.7879 50.539C29.544 50.7829 29.1861 50.8205 28.9886 50.623L13.6209 34.9018C13.4234 34.7042 13.461 34.3464 13.7049 34.1025L14.5882 33.2191C14.8321 32.9752 15.19 32.9376 15.3875 33.1352L30.7552 48.8564Z" fill="#D81E7E"/>
<defs>
<filter id="filter0_d_31035_175105" x="24.5957" y="41.3184" width="110.182" height="78.1525" filterUnits="userSpaceOnUse" color-interpolation-filters="sRGB">
<feFlood flood-opacity="0" result="BackgroundImageFix"/>
<feColorMatrix in="SourceAlpha" type="matrix" values="0 0 0 0 0 0 0 0 0 0 0 0 0 0 0 0 0 0 127 0" result="hardAlpha"/>
<feOffset dy="0.347789"/>
<feComposite in2="hardAlpha" operator="out"/>
<feColorMatrix type="matrix" values="0 0 0 0 0 0 0 0 0 0 0 0 0 0 0 0 0 0 0.1 0"/>
<feBlend mode="normal" in2="BackgroundImageFix" result="effect1_dropShadow_31035_175105"/>
<feBlend mode="normal" in="SourceGraphic" in2="effect1_dropShadow_31035_175105" result="shape"/>
</filter>
</defs>
</svg>
