<svg width="64" height="38" viewBox="0 0 64 38" fill="none" xmlns="http://www.w3.org/2000/svg">
    <path d="M0 4.77915C0 2.14078 2.1389 0.00195312 4.77736 0.00195312H59.2226C61.8611 0.00195312 64 2.14078 64 4.77916V33.2235C64 35.8619 61.8611 38.0007 59.2226 38.0007H4.77736C2.1389 38.0007 0 35.8619 0 33.2235V4.77915Z" fill="#1E7B6F"/>
    <mask id="mask0_45478_6380" style="mask-type:alpha" maskUnits="userSpaceOnUse" x="0" y="0" width="65" height="38">
        <path d="M0.00390625 4.7772C0.00390625 2.13882 2.1428 0 4.78126 0H59.2265C61.865 0 64.0039 2.13883 64.0039 4.7772V33.2216C64.0039 35.8599 61.865 37.9988 59.2265 37.9988H4.78127C2.1428 37.9988 0.00390625 35.8599 0.00390625 33.2216V4.7772Z" fill="#1E7B6F"/>
    </mask>
    <g mask="url(#mask0_45478_6380)">
        <path d="M21.542 38.5354L-0.375 4.09961V38.5354H21.542Z" fill="#F0B323"/>
    </g>
    <path d="M8.41843 4.25573H9.56916L7.74196 9.63056H6.49931L4.67578 4.25573H5.82652L6.83755 7.45416C6.89392 7.64288 6.95152 7.86346 7.01034 8.1159C7.07161 8.36589 7.1096 8.53991 7.12431 8.63794C7.15127 8.41246 7.24318 8.01786 7.40005 7.45416L8.41843 4.25573Z" fill="white"/>
    <path d="M10.1133 4.45793C10.1133 4.09275 10.3167 3.91016 10.7236 3.91016C11.1304 3.91016 11.3339 4.09275 11.3339 4.45793C11.3339 4.63195 11.2824 4.76797 11.1795 4.86601C11.079 4.96159 10.927 5.00939 10.7236 5.00939C10.3167 5.00939 10.1133 4.82557 10.1133 4.45793ZM11.2824 9.63056H10.1611V5.5204H11.2824V9.63056Z" fill="white"/>
    <path d="M14.1942 8.81073C14.3902 8.81073 14.6255 8.76784 14.9 8.68206V9.51659C14.6206 9.64159 14.2775 9.70408 13.8706 9.70408C13.4221 9.70408 13.0949 9.59134 12.889 9.36586C12.6856 9.13793 12.5839 8.79725 12.5839 8.34383V6.36228H12.0471V5.88803L12.6648 5.51305L12.9883 4.64543H13.7052V5.5204H14.8559V6.36228H13.7052V8.34383C13.7052 8.50314 13.7493 8.62079 13.8375 8.69676C13.9282 8.77274 14.0471 8.81073 14.1942 8.81073Z" fill="white"/>
    <path d="M18.3449 9.63056L18.128 9.07175H18.0986C17.9098 9.30949 17.715 9.47493 17.514 9.56806C17.3155 9.65874 17.0557 9.70408 16.7346 9.70408C16.34 9.70408 16.0287 9.59134 15.8008 9.36586C15.5753 9.14038 15.4625 8.81931 15.4625 8.40266C15.4625 7.9664 15.6145 7.64533 15.9184 7.43945C16.2248 7.23113 16.6856 7.11593 17.3008 7.09388L18.014 7.07182V6.89168C18.014 6.47502 17.8008 6.2667 17.3743 6.2667C17.0459 6.2667 16.6598 6.36596 16.2162 6.56448L15.8449 5.80715C16.3179 5.55961 16.8424 5.43584 17.4184 5.43584C17.9699 5.43584 18.3927 5.55594 18.6868 5.79612C18.9809 6.03631 19.128 6.4015 19.128 6.89168V9.63056H18.3449ZM18.014 7.72621L17.5802 7.74091C17.2542 7.75072 17.0116 7.80954 16.8523 7.91738C16.6929 8.02522 16.6133 8.18943 16.6133 8.41001C16.6133 8.72617 16.7947 8.88426 17.1574 8.88426C17.4172 8.88426 17.6243 8.80951 17.7787 8.66C17.9356 8.5105 18.014 8.31197 18.014 8.06443V7.72621Z" fill="white"/>
    <path d="M21.4074 9.63056H20.2861V3.91016H21.4074V9.63056Z" fill="white"/>
    <path d="M24.2898 6.24096C24.052 6.24096 23.8657 6.31694 23.7309 6.4689C23.5961 6.6184 23.5189 6.83163 23.4993 7.10858H25.0728C25.0679 6.83163 24.9956 6.6184 24.8559 6.4689C24.7162 6.31694 24.5275 6.24096 24.2898 6.24096ZM24.4478 9.70408C23.7861 9.70408 23.2689 9.52149 22.8964 9.15631C22.5238 8.79112 22.3375 8.27398 22.3375 7.60489C22.3375 6.91619 22.5091 6.38434 22.8523 6.00935C23.1978 5.63191 23.6746 5.44319 24.2824 5.44319C24.8633 5.44319 25.3155 5.60863 25.639 5.9395C25.9625 6.27037 26.1243 6.72747 26.1243 7.31078V7.85488H23.4736C23.4858 8.1735 23.5802 8.42226 23.7567 8.60118C23.9331 8.7801 24.1807 8.86955 24.4993 8.86955C24.7469 8.86955 24.9809 8.84382 25.2015 8.79235C25.4221 8.74088 25.6525 8.65878 25.8927 8.54603V9.41365C25.6966 9.51169 25.4871 9.58399 25.264 9.63056C25.041 9.67958 24.7689 9.70408 24.4478 9.70408Z" fill="white"/>
    <path d="M45.4531 4.6074C45.4531 3.77575 46.1273 3.10156 46.959 3.10156H55.902C56.7336 3.10156 57.4078 3.77575 57.4078 4.6074V15.5697C57.4078 16.4013 56.7336 17.0755 55.902 17.0755H46.959C46.1273 17.0755 45.4531 16.4013 45.4531 15.5697V4.6074Z" fill="white"/>
    <path d="M49.8029 7.94204C49.8129 6.9302 50.6413 6.11806 51.6532 6.1281C52.6651 6.13813 53.4773 6.96655 53.4673 7.97839C53.4572 8.99023 52.6288 9.80237 51.6169 9.79233C50.605 9.78229 49.7928 8.95388 49.8029 7.94204ZM51.6193 9.55382C52.4994 9.56255 53.22 8.85616 53.2287 7.97602C53.2374 7.09589 52.531 6.37534 51.6509 6.36661C50.7707 6.35788 50.0501 7.06427 50.0414 7.94441C50.0327 8.82454 50.7391 9.54509 51.6193 9.55382ZM48.4869 13.5359C48.5795 12.8535 48.8964 12.2167 49.3935 11.7295C49.9838 11.1508 50.7799 10.8303 51.6065 10.8385C52.4332 10.8467 53.2227 11.1829 53.8014 11.7732C54.2887 12.2702 54.5929 12.9131 54.672 13.5973C54.6741 13.6155 54.6691 13.631 54.6544 13.646C54.638 13.6627 54.6106 13.6763 54.5763 13.676C54.5207 13.6755 54.4372 13.6222 54.4188 13.5059C54.326 12.9187 54.0528 12.3703 53.6311 11.9402C53.0966 11.3951 52.3675 11.0845 51.6041 11.077C50.8408 11.0694 50.1056 11.3654 49.5605 11.8998C49.1304 12.3215 48.8463 12.8643 48.7419 13.4495C48.7212 13.5655 48.6367 13.6171 48.5811 13.6165C48.5468 13.6162 48.5196 13.602 48.5035 13.585C48.4891 13.5697 48.4844 13.5541 48.4869 13.5359Z" stroke="#1E7B6F" stroke-width="0.617949"/>
    <rect x="17.5586" y="13.084" width="23.9094" height="1.99628" rx="0.998139" fill="white"/>
    <rect x="17.5586" y="24.0625" width="17.2098" height="1.99628" rx="0.998139" fill="white"/>
    <rect x="59.7227" y="20.6094" width="17.2093" height="1.99634" rx="0.998172" transform="rotate(-90.2159 59.7227 20.6094)" fill="white"/>
    <rect x="17.5586" y="29.0547" width="24.2279" height="1.99628" rx="0.998139" fill="white"/>
    <path d="M3.60938 14.5898C3.60938 13.7582 4.28358 13.084 5.11526 13.084H10.0733C10.905 13.084 11.5792 13.7582 11.5792 14.5898V17.567C11.5792 18.3986 10.905 19.0728 10.0733 19.0728H5.11526C4.28358 19.0728 3.60938 18.3986 3.60938 17.567V14.5898Z" fill="#F0B323"/>
    <path fill-rule="evenodd" clip-rule="evenodd" d="M10.0733 13.8369H5.11526C4.69942 13.8369 4.36232 14.174 4.36232 14.5898V17.567C4.36232 17.9828 4.69942 18.3199 5.11526 18.3199H10.0733C10.4891 18.3199 10.8262 17.9828 10.8262 17.567V14.5898C10.8262 14.174 10.4891 13.8369 10.0733 13.8369ZM5.11526 13.084C4.28358 13.084 3.60938 13.7582 3.60938 14.5898V17.567C3.60938 18.3986 4.28358 19.0728 5.11526 19.0728H10.0733C10.905 19.0728 11.5792 18.3986 11.5792 17.567V14.5898C11.5792 13.7582 10.905 13.084 10.0733 13.084H5.11526Z" fill="white"/>
</svg>
