<svg width="64" height="38" viewBox="0 0 64 38" fill="none" xmlns="http://www.w3.org/2000/svg">
<path d="M0 4.77915C0 2.14078 2.1389 0.00195312 4.77736 0.00195312H59.2226C61.8611 0.00195312 64 2.14078 64 4.77916V33.2235C64 35.8619 61.8611 38.0007 59.2226 38.0007H4.77736C2.1389 38.0007 0 35.8619 0 33.2235V4.77915Z" fill="#1E7B6F"/>
<mask id="mask0_37237_190310" style="mask-type:alpha" maskUnits="userSpaceOnUse" x="0" y="0" width="64" height="38">
<path d="M0 4.7772C0 2.13882 2.1389 0 4.77736 0H59.2226C61.8611 0 64 2.13883 64 4.7772V33.2216C64 35.8599 61.8611 37.9988 59.2226 37.9988H4.77736C2.1389 37.9988 0 35.8599 0 33.2216V4.7772Z" fill="#1E7B6F"/>
</mask>
<g mask="url(#mask0_37237_190310)">
<path d="M21.542 38.5354L-0.375 4.09961V38.5354H21.542Z" fill="#F0B323"/>
</g>
<path d="M8.42233 4.25573H9.57307L7.74586 9.63056H6.50322L4.67969 4.25573H5.83042L6.84145 7.45416C6.89782 7.64288 6.95542 7.86346 7.01425 8.1159C7.07552 8.36589 7.11351 8.53991 7.12822 8.63794C7.15518 8.41246 7.24709 8.01786 7.40395 7.45416L8.42233 4.25573Z" fill="white"/>
<path d="M10.1172 4.45793C10.1172 4.09275 10.3206 3.91016 10.7275 3.91016C11.1343 3.91016 11.3378 4.09275 11.3378 4.45793C11.3378 4.63195 11.2863 4.76797 11.1834 4.86601C11.0829 4.96159 10.9309 5.00939 10.7275 5.00939C10.3206 5.00939 10.1172 4.82557 10.1172 4.45793ZM11.2863 9.63056H10.165V5.5204H11.2863V9.63056Z" fill="white"/>
<path d="M14.1981 8.81073C14.3941 8.81073 14.6294 8.76784 14.904 8.68206V9.51659C14.6245 9.64159 14.2814 9.70408 13.8745 9.70408C13.426 9.70408 13.0988 9.59134 12.8929 9.36586C12.6895 9.13793 12.5878 8.79725 12.5878 8.34383V6.36228H12.051V5.88803L12.6687 5.51305L12.9922 4.64543H13.7091V5.5204H14.8598V6.36228H13.7091V8.34383C13.7091 8.50314 13.7532 8.62079 13.8415 8.69676C13.9321 8.77274 14.051 8.81073 14.1981 8.81073Z" fill="white"/>
<path d="M18.3488 9.63056L18.1319 9.07175H18.1025C17.9138 9.30949 17.7189 9.47493 17.5179 9.56806C17.3194 9.65874 17.0596 9.70408 16.7385 9.70408C16.3439 9.70408 16.0326 9.59134 15.8047 9.36586C15.5792 9.14038 15.4665 8.81931 15.4665 8.40266C15.4665 7.9664 15.6184 7.64533 15.9223 7.43945C16.2287 7.23113 16.6895 7.11593 17.3047 7.09388L18.0179 7.07182V6.89168C18.0179 6.47502 17.8047 6.2667 17.3782 6.2667C17.0498 6.2667 16.6638 6.36596 16.2201 6.56448L15.8488 5.80715C16.3218 5.55961 16.8464 5.43584 17.4223 5.43584C17.9738 5.43584 18.3966 5.55594 18.6907 5.79612C18.9848 6.03631 19.1319 6.4015 19.1319 6.89168V9.63056H18.3488ZM18.0179 7.72621L17.5841 7.74091C17.2581 7.75072 17.0155 7.80954 16.8562 7.91738C16.6968 8.02522 16.6172 8.18943 16.6172 8.41001C16.6172 8.72617 16.7986 8.88426 17.1613 8.88426C17.4211 8.88426 17.6282 8.80951 17.7826 8.66C17.9395 8.5105 18.0179 8.31197 18.0179 8.06443V7.72621Z" fill="white"/>
<path d="M21.4113 9.63056H20.29V3.91016H21.4113V9.63056Z" fill="white"/>
<path d="M24.2937 6.24096C24.0559 6.24096 23.8696 6.31694 23.7348 6.4689C23.6 6.6184 23.5228 6.83163 23.5032 7.10858H25.0767C25.0718 6.83163 24.9995 6.6184 24.8598 6.4689C24.7201 6.31694 24.5314 6.24096 24.2937 6.24096ZM24.4517 9.70408C23.79 9.70408 23.2728 9.52149 22.9003 9.15631C22.5277 8.79112 22.3415 8.27398 22.3415 7.60489C22.3415 6.91619 22.513 6.38434 22.8562 6.00935C23.2017 5.63191 23.6785 5.44319 24.2863 5.44319C24.8672 5.44319 25.3194 5.60863 25.6429 5.9395C25.9665 6.27037 26.1282 6.72747 26.1282 7.31078V7.85488H23.4775C23.4897 8.1735 23.5841 8.42226 23.7606 8.60118C23.937 8.7801 24.1846 8.86955 24.5032 8.86955C24.7508 8.86955 24.9848 8.84382 25.2054 8.79235C25.426 8.74088 25.6564 8.65878 25.8966 8.54603V9.41365C25.7005 9.51169 25.491 9.58399 25.2679 9.63056C25.0449 9.67958 24.7728 9.70408 24.4517 9.70408Z" fill="white"/>
<path d="M45.4531 4.6074C45.4531 3.77575 46.1273 3.10156 46.959 3.10156H55.902C56.7336 3.10156 57.4078 3.77575 57.4078 4.6074V15.5697C57.4078 16.4013 56.7336 17.0755 55.902 17.0755H46.959C46.1273 17.0755 45.4531 16.4013 45.4531 15.5697V4.6074Z" fill="white"/>
<path d="M50.0375 7.94441C50.0288 8.82454 50.7352 9.54509 51.6154 9.55382C52.4955 9.56255 53.2161 8.85616 53.2248 7.97602C53.2335 7.09589 52.5271 6.37534 51.647 6.36661C50.7668 6.35788 50.0462 7.06427 50.0375 7.94441ZM49.799 7.94204C49.809 6.9302 50.6374 6.11806 51.6493 6.1281C52.6612 6.13813 53.4734 6.96655 53.4633 7.97839C53.4533 8.99023 52.6249 9.80237 51.613 9.79233C50.6011 9.78229 49.7889 8.95388 49.799 7.94204ZM48.483 13.5359C48.5756 12.8535 48.8925 12.2167 49.3896 11.7295C49.9799 11.1508 50.776 10.8303 51.6026 10.8385C52.4293 10.8467 53.2188 11.1829 53.7975 11.7732C54.2848 12.2702 54.589 12.9131 54.6681 13.5973C54.6702 13.6155 54.6652 13.631 54.6505 13.646C54.6341 13.6627 54.6067 13.6763 54.5724 13.676C54.5168 13.6755 54.4333 13.6222 54.4149 13.5059C54.3221 12.9187 54.0488 12.3703 53.6272 11.9402C53.0927 11.3951 52.3636 11.0845 51.6002 11.077C50.8369 11.0694 50.1017 11.3654 49.5566 11.8998C49.1265 12.3215 48.8424 12.8643 48.738 13.4495C48.7173 13.5655 48.6327 13.6171 48.5771 13.6165C48.5428 13.6162 48.5157 13.602 48.4996 13.585C48.4852 13.5697 48.4805 13.5541 48.483 13.5359Z" stroke="#1E7B6F" stroke-width="0.617949"/>
<rect x="17.5547" y="13.084" width="23.9094" height="1.99628" rx="0.998139" fill="white"/>
<rect x="17.5547" y="24.0625" width="17.2098" height="1.99628" rx="0.998139" fill="white"/>
<rect x="59.7266" y="20.6094" width="17.2093" height="1.99634" rx="0.998172" transform="rotate(-90.2159 59.7266 20.6094)" fill="white"/>
<rect x="17.5547" y="29.0547" width="24.2279" height="1.99628" rx="0.998139" fill="white"/>
<path d="M3.60938 14.5898C3.60938 13.7582 4.28358 13.084 5.11526 13.084H10.0733C10.905 13.084 11.5792 13.7582 11.5792 14.5898V17.567C11.5792 18.3986 10.905 19.0728 10.0733 19.0728H5.11526C4.28358 19.0728 3.60938 18.3986 3.60938 17.567V14.5898Z" fill="#F0B323"/>
<path fill-rule="evenodd" clip-rule="evenodd" d="M10.0733 13.8369H5.11526C4.69942 13.8369 4.36232 14.174 4.36232 14.5898V17.567C4.36232 17.9828 4.69942 18.3199 5.11526 18.3199H10.0733C10.4891 18.3199 10.8262 17.9828 10.8262 17.567V14.5898C10.8262 14.174 10.4891 13.8369 10.0733 13.8369ZM5.11526 13.084C4.28358 13.084 3.60938 13.7582 3.60938 14.5898V17.567C3.60938 18.3986 4.28358 19.0728 5.11526 19.0728H10.0733C10.905 19.0728 11.5792 18.3986 11.5792 17.567V14.5898C11.5792 13.7582 10.905 13.084 10.0733 13.084H5.11526Z" fill="white"/>
<path fill-rule="evenodd" clip-rule="evenodd" d="M16.792 28.0437V32.5468C16.792 32.5841 16.8222 32.6142 16.8595 32.6142H42.4331C42.4703 32.6142 42.5005 32.5841 42.5005 32.5468V28.0437C42.5005 28.0065 42.4703 27.9763 42.4331 27.9763H16.8595C16.8222 27.9763 16.792 28.0065 16.792 28.0437ZM15.7891 32.5468C15.7891 33.138 16.2683 33.6172 16.8595 33.6172H42.4331C43.0242 33.6172 43.5035 33.138 43.5035 32.5468V28.0437C43.5035 27.4526 43.0242 26.9734 42.4331 26.9734H16.8595C16.2683 26.9734 15.7891 27.4526 15.7891 28.0437V32.5468Z" fill="#D81E7E"/>
</svg>
