<svg width="80" height="80" viewBox="0 0 80 80" fill="none" xmlns="http://www.w3.org/2000/svg">
<path d="M72.4007 46.6134C68.0334 54.4494 61.2957 61.4036 53.7919 66.0725C39.0513 75.2431 18.7175 70.2045 8.78291 55.7321C4.10911 48.9229 2.57812 39.6569 6.46914 32.2197C9.34812 26.7154 14.9535 23.9765 20.9023 23.5206C25.9197 23.1363 30.8642 24.441 35.868 24.4686C43.5182 24.5111 49.9693 20.856 57.2996 19.5311C61.3181 18.8045 66.255 19.0312 69.7284 21.5294C73.0259 23.9006 75.1342 27.858 75.6885 31.888C76.3883 36.9743 74.8862 42.1543 72.4007 46.6134Z" fill="#A0B2EC" fill-opacity="0.16"/>
<path fill-rule="evenodd" clip-rule="evenodd" d="M17.5693 43.9207C15.3342 33.7726 9.56567 21.9335 16.5904 14.3028C23.8614 6.40475 37.0708 7.97356 47.0464 11.9012C55.1463 15.0903 58.5205 23.8892 61.6448 32.0418C64.1575 38.5982 64.7571 45.4303 62.4347 52.0555C59.8525 59.4221 56.0117 67.228 48.5442 69.4146C40.9756 71.6308 33.2778 67.3982 27.1792 62.3787C21.5527 57.7479 19.14 51.0521 17.5693 43.9207Z" fill="#A0B2EC" fill-opacity="0.16"/>
<path d="M12.7473 34.0064C12.3195 31.9458 13.6431 29.9286 15.7037 29.5008L58.2241 20.6728C60.2847 20.245 62.3019 21.5686 62.7297 23.6292L67.342 45.8443C67.7698 47.9049 66.4462 49.9221 64.3856 50.3499L21.8651 59.1779C19.8045 59.6057 17.7873 58.2821 17.3595 56.2215L12.7473 34.0064Z" fill="#1E7B6F"/>
<mask id="mask0_6900_9662" style="mask-type:alpha" maskUnits="userSpaceOnUse" x="12" y="20" width="56" height="40">
<path d="M12.7434 34.0064C12.3156 31.9458 13.6392 29.9286 15.6998 29.5008L58.2202 20.6728C60.2808 20.245 62.298 21.5686 62.7258 23.6292L67.3381 45.8443C67.7659 47.9049 66.4422 49.9221 64.3817 50.3499L21.8612 59.1779C19.8006 59.6057 17.7834 58.2821 17.3556 56.2215L12.7434 34.0064Z" fill="#1E7B6F"/>
</mask>
<g mask="url(#mask0_6900_9662)">
<path d="M35.0402 56.8798L12.3398 33.5391L17.9236 60.4335L35.0402 56.8798Z" fill="#F0B323"/>
</g>
<path d="M19.2368 32.2334L20.1355 32.0468L19.58 36.5408L18.6095 36.7423L16.3138 32.8402L17.2125 32.6536L18.5208 34.9877C18.5954 35.1259 18.6761 35.2889 18.763 35.4765C18.8514 35.6618 18.9093 35.7915 18.9367 35.8657C18.9212 35.6852 18.929 35.3622 18.9601 34.8965L19.2368 32.2334Z" fill="white"/>
<path d="M20.5932 32.1165C20.534 31.8313 20.6632 31.6557 20.981 31.5897C21.2987 31.5237 21.4872 31.6334 21.5464 31.9186C21.5747 32.0545 21.5565 32.169 21.492 32.2623C21.429 32.3533 21.3181 32.4152 21.1592 32.4482C20.8415 32.5142 20.6528 32.4036 20.5932 32.1165ZM22.345 35.9667L21.4693 36.1486L20.8028 32.9385L21.6785 32.7567L22.345 35.9667Z" fill="white"/>
<path d="M24.4861 34.8543C24.6392 34.8225 24.816 34.7509 25.0165 34.6394L25.1518 35.2912C24.9538 35.4341 24.696 35.5385 24.3783 35.6045C24.028 35.6772 23.7541 35.6422 23.5568 35.4995C23.361 35.3545 23.2263 35.1049 23.1528 34.7508L22.8314 33.2032L22.4122 33.2902L22.3353 32.9198L22.7569 32.5268L22.8689 31.7967L23.4288 31.6805L23.5707 32.3639L24.4694 32.1773L24.6059 32.8348L23.7072 33.0214L24.0285 34.569C24.0543 34.6934 24.1078 34.7781 24.1891 34.8231C24.2722 34.8678 24.3712 34.8782 24.4861 34.8543Z" fill="white"/>
<path d="M27.8606 34.8216L27.6006 34.4203L27.5776 34.4251C27.4688 34.6414 27.3434 34.8022 27.2016 34.9075C27.0612 35.0105 26.8657 35.0881 26.6149 35.1401C26.3068 35.2041 26.0454 35.1665 25.8308 35.0274C25.6181 34.8878 25.478 34.6554 25.4105 34.33C25.3397 33.9892 25.4063 33.7138 25.6103 33.5038C25.8158 33.2914 26.157 33.1267 26.6339 33.0097L27.1873 32.8769L27.1581 32.7362C27.0905 32.4108 26.8902 32.2826 26.5572 32.3518C26.3007 32.405 26.0153 32.5452 25.701 32.7721L25.2882 32.2409C25.6175 31.9708 26.0071 31.7891 26.4569 31.6957C26.8876 31.6063 27.2373 31.6316 27.5059 31.7715C27.7745 31.9114 27.9486 32.1727 28.0281 32.5556L28.4722 34.6946L27.8606 34.8216ZM27.2934 33.3879L26.957 33.4698C26.704 33.5303 26.524 33.6156 26.4171 33.7256C26.3102 33.8357 26.2746 33.9768 26.3104 34.1491C26.3616 34.396 26.5289 34.4901 26.8122 34.4313C27.0151 34.3892 27.1647 34.2972 27.2611 34.1554C27.3593 34.0132 27.3884 33.8454 27.3483 33.6521L27.2934 33.3879Z" fill="white"/>
<path d="M30.2524 34.325L29.3766 34.5069L28.4491 30.0392L29.3248 29.8574L30.2524 34.325Z" fill="white"/>
<path d="M31.9538 31.2104C31.7681 31.249 31.635 31.3385 31.5543 31.479C31.4733 31.6176 31.4476 31.7967 31.4772 32.0162L32.706 31.761C32.6573 31.5455 32.5663 31.3907 32.4329 31.2966C32.2992 31.2006 32.1395 31.1719 31.9538 31.2104ZM32.6388 33.8895C32.122 33.9968 31.6885 33.938 31.3383 33.7132C30.9881 33.4884 30.7588 33.1147 30.6503 32.5922C30.5387 32.0543 30.5864 31.6111 30.7936 31.2626C31.0023 30.9118 31.344 30.6871 31.8187 30.5885C32.2723 30.4943 32.6523 30.5502 32.9587 30.7562C33.265 30.9621 33.4654 31.2929 33.56 31.7485L33.6482 32.1734L31.5781 32.6032C31.6393 32.8501 31.7533 33.0291 31.9202 33.1402C32.087 33.2513 32.2948 33.281 32.5437 33.2294C32.737 33.1892 32.9156 33.1312 33.0796 33.0552C33.2435 32.9792 33.4101 32.8778 33.5794 32.7508L33.7201 33.4284C33.5829 33.5367 33.4309 33.6272 33.2643 33.6997C33.098 33.7742 32.8896 33.8374 32.6388 33.8895Z" fill="white"/>
<path d="M48.2129 26.5042C48.0781 25.8547 48.4953 25.2188 49.1448 25.084L56.129 23.6339C56.7786 23.4991 57.4144 23.9163 57.5493 24.5658L59.3268 33.1274C59.4616 33.7769 59.0444 34.4127 58.3949 34.5476L51.4107 35.9976C50.7611 36.1325 50.1253 35.7153 49.9904 35.0657L48.2129 26.5042Z" fill="white"/>
<path d="M52.1481 28.4042C51.9918 27.6123 52.5071 26.8437 53.299 26.6875C54.0909 26.5312 54.8595 27.0465 55.0157 27.8384C55.172 28.6303 54.6567 29.3989 53.8648 29.5551C53.0729 29.7114 52.3043 29.1961 52.1481 28.4042ZM53.828 29.3685C54.5167 29.2326 54.965 28.564 54.8291 27.8752C54.6932 27.1865 54.0246 26.7382 53.3358 26.8741C52.6471 27.01 52.1988 27.6786 52.3347 28.3674C52.4706 29.0561 53.1392 29.5044 53.828 29.3685ZM52.0274 32.9864C51.989 32.4384 52.1333 31.8897 52.4425 31.4286C52.8097 30.8809 53.3794 30.5015 54.0263 30.3738C54.6732 30.2462 55.3444 30.3808 55.892 30.748C56.3532 31.0572 56.695 31.5099 56.8677 32.0315C56.8723 32.0453 56.8709 32.0583 56.8619 32.0723C56.8518 32.088 56.8326 32.1032 56.8057 32.1084C56.7622 32.117 56.6884 32.089 56.6552 32.0011C56.4875 31.5576 56.1852 31.1736 55.7861 30.906C55.2803 30.5669 54.6605 30.4427 54.0631 30.5605C53.4657 30.6784 52.9396 31.0287 52.6005 31.5345C52.333 31.9336 52.1991 32.4036 52.2125 32.8776C52.2151 32.9716 52.1575 33.0255 52.114 33.0341C52.0871 33.0394 52.0636 33.0327 52.0483 33.022C52.0346 33.0124 52.0284 33.001 52.0274 32.9864Z" stroke="#1E7B6F" stroke-width="0.492903"/>
<rect x="27.8047" y="37.6465" width="19.0709" height="1.59234" rx="0.796172" transform="rotate(-11.7289 27.8047 37.6465)" fill="white"/>
<rect x="29.582" y="46.2207" width="13.7271" height="1.59234" rx="0.796172" transform="rotate(-11.7289 29.582 46.2207)" fill="white"/>
<rect x="61.9531" y="36.6875" width="13.7271" height="1.59234" rx="0.796172" transform="rotate(-101.945 61.9531 36.6875)" fill="white"/>
<rect x="30.3945" y="50.1191" width="19.3249" height="1.59234" rx="0.796172" transform="rotate(-11.7289 30.3945 50.1191)" fill="white"/>
<path d="M17.1543 41.0843C17.0195 40.4347 17.4367 39.7989 18.0862 39.664L21.9583 38.8601C22.6078 38.7253 23.2437 39.1425 23.3786 39.792L23.8613 42.1172C23.9961 42.7667 23.5789 43.4026 22.9294 43.5374L19.0573 44.3413C18.4078 44.4762 17.7719 44.059 17.6371 43.4094L17.1543 41.0843Z" fill="#F0B323"/>
<path fill-rule="evenodd" clip-rule="evenodd" d="M22.0804 39.4481L18.2083 40.2521C17.8835 40.3195 17.6749 40.6374 17.7424 40.9622L18.2251 43.2874C18.2925 43.6121 18.6105 43.8207 18.9352 43.7533L22.8073 42.9494C23.1321 42.882 23.3407 42.564 23.2733 42.2393L22.7905 39.9141C22.7231 39.5893 22.4052 39.3807 22.0804 39.4481ZM18.0862 39.664C17.4367 39.7989 17.0195 40.4347 17.1543 41.0843L17.6371 43.4094C17.7719 44.059 18.4078 44.4762 19.0573 44.3413L22.9294 43.5374C23.5789 43.4026 23.9961 42.7667 23.8613 42.1172L23.3786 39.792C23.2437 39.1425 22.6078 38.7253 21.9583 38.8601L18.0862 39.664Z" fill="white"/>
</svg>
