<svg width="64" height="64" viewBox="0 0 64 64" fill="none" xmlns="http://www.w3.org/2000/svg">
<path d="M20.9102 58.5624C27.1463 60.7839 34.2692 61.3653 40.7055 60.3081C53.3487 58.2306 62.1842 45.5615 60.6581 32.7152C59.9398 26.6712 56.282 20.7922 50.5042 18.5603C46.2285 16.9082 41.7848 18.1129 38.261 20.7498C35.2891 22.9739 33.1793 26.0986 30.4153 28.5444C26.1897 32.2839 20.8308 33.3917 16.1175 36.2179C13.5336 37.7671 10.9035 40.2908 10.1908 43.3625C9.51404 46.2783 10.269 49.4956 11.9218 51.9983C14.0076 55.1571 17.3614 57.2983 20.9102 58.5624Z" fill="#A0B2EC" fill-opacity="0.16"/>
<path fill-rule="evenodd" clip-rule="evenodd" d="M38.7482 18.7932C42.1506 26.0969 48.5155 34.0863 44.476 41.0415C40.295 48.2404 30.0196 49.2735 21.7979 47.9781C15.1222 46.9263 11.0837 40.8349 7.34342 35.1908C4.3354 30.6516 2.73079 25.5823 3.3756 20.1785C4.09259 14.1698 5.6894 7.61727 10.9809 4.70744C16.344 1.7582 22.8906 3.66725 28.3577 6.44058C33.4015 8.99917 36.3573 13.6606 38.7482 18.7932Z" fill="#A0B2EC" fill-opacity="0.16"/>
<path d="M10.1903 27.0935C9.83818 25.4476 10.887 23.8278 12.533 23.4757L46.4974 16.2097C48.1433 15.8576 49.7631 16.9065 50.1152 18.5524L53.9113 36.2974C54.2635 37.9433 53.2146 39.563 51.5687 39.9152L17.6043 47.1811C15.9583 47.5332 14.3386 46.4844 13.9864 44.8384L10.1903 27.0935Z" fill="#1E7B6F"/>
<path d="M15.3731 25.6458L16.0909 25.4922L15.6684 29.0891L14.8932 29.255L13.0383 26.1453L13.7562 25.9917L14.8137 27.8521C14.8741 27.9623 14.9395 28.0922 15.0098 28.2419C15.0814 28.3896 15.1284 28.4931 15.1506 28.5523C15.1373 28.4081 15.142 28.1496 15.1646 27.777L15.3731 25.6458Z" fill="white"/>
<path d="M16.4574 25.5458C16.4086 25.3179 16.5112 25.1769 16.765 25.1226C17.0188 25.0683 17.17 25.155 17.2188 25.3829C17.242 25.4914 17.2281 25.5831 17.1769 25.658C17.127 25.7311 17.0386 25.7812 16.9117 25.8083C16.6579 25.8626 16.5064 25.7751 16.4574 25.5458ZM17.877 28.6167L17.1775 28.7663L16.629 26.2022L17.3285 26.0525L17.877 28.6167Z" fill="white"/>
<path d="M19.584 27.7166C19.7064 27.6905 19.8474 27.6323 20.0072 27.5421L20.1186 28.0628C19.961 28.178 19.7552 28.2628 19.5014 28.3171C19.2216 28.377 19.0025 28.3503 18.8439 28.2371C18.6866 28.1221 18.5777 27.9231 18.5172 27.6403L18.2527 26.4041L17.9179 26.4757L17.8546 26.1798L18.1898 25.8635L18.2759 25.279L18.7231 25.1834L18.8399 25.7292L19.5577 25.5756L19.6701 26.1009L18.9522 26.2544L19.2167 27.4906C19.2379 27.59 19.2812 27.6575 19.3464 27.6931C19.4131 27.7284 19.4923 27.7362 19.584 27.7166Z" fill="white"/>
<path d="M22.2828 27.6741L22.0729 27.3545L22.0545 27.3584C21.9685 27.5319 21.8691 27.6611 21.7561 27.746C21.6444 27.8291 21.4884 27.8921 21.2881 27.9349C21.0419 27.9876 20.8327 27.9588 20.6604 27.8485C20.4896 27.738 20.3764 27.5527 20.3208 27.2928C20.2626 27.0206 20.3145 26.8 20.4767 26.631C20.64 26.4602 20.9121 26.3268 21.2929 26.231L21.7349 26.122L21.7108 26.0097C21.6552 25.7497 21.4944 25.6482 21.2284 25.7051C21.0235 25.749 20.7959 25.8624 20.5457 26.0455L20.213 25.6226C20.475 25.405 20.7857 25.2578 21.145 25.1809C21.489 25.1073 21.7688 25.1258 21.9843 25.2364C22.1999 25.347 22.3403 25.5552 22.4058 25.861L22.7713 27.5696L22.2828 27.6741ZM21.8222 26.5303L21.5536 26.5973C21.3515 26.647 21.208 26.716 21.123 26.8046C21.038 26.8931 21.0102 27.0062 21.0397 27.1438C21.0819 27.341 21.2161 27.4154 21.4424 27.367C21.6045 27.3324 21.7237 27.2581 21.8001 27.1442C21.878 27.03 21.9004 26.8957 21.8674 26.7413L21.8222 26.5303Z" fill="white"/>
<path d="M24.1933 27.2654L23.4937 27.4151L22.7303 23.8464L23.4298 23.6968L24.1933 27.2654Z" fill="white"/>
<path d="M25.539 24.7662C25.3907 24.7979 25.2846 24.8702 25.2208 24.983C25.1566 25.0942 25.1369 25.2375 25.1617 25.4129L26.1433 25.2029C26.1033 25.0308 26.0297 24.9074 25.9226 24.8328C25.8152 24.7567 25.6873 24.7345 25.539 24.7662ZM26.0998 26.9055C25.6869 26.9939 25.34 26.949 25.0588 26.7709C24.7777 26.5928 24.5925 26.295 24.5032 25.8776C24.4112 25.4479 24.4473 25.0933 24.6113 24.8135C24.7765 24.5319 25.0487 24.3506 25.4279 24.2695C25.7903 24.192 26.0945 24.2348 26.3404 24.398C26.5864 24.5613 26.7483 24.8249 26.8262 25.1888L26.8988 25.5282L25.2452 25.8819C25.2954 26.0791 25.3874 26.2217 25.5214 26.3097C25.6554 26.3978 25.8217 26.4206 26.0205 26.3781C26.1749 26.345 26.3175 26.2977 26.4483 26.2362C26.579 26.1746 26.7118 26.0927 26.8466 25.9903L26.9624 26.5315C26.8531 26.6189 26.732 26.6919 26.5991 26.7507C26.4665 26.8111 26.3001 26.8627 26.0998 26.9055Z" fill="white"/>
<rect x="22.25" y="29.9316" width="23.5167" height="1.27355" rx="0.636775" transform="rotate(-12.0752 22.25 29.9316)" fill="white"/>
<rect x="23.7148" y="36.7812" width="17.0334" height="1.27355" rx="0.636775" transform="rotate(-12.0752 23.7148 36.7812)" fill="white"/>
<rect x="24.3809" y="39.8945" width="24.0198" height="1.27355" rx="0.636775" transform="rotate(-12.0752 24.3809 39.8945)" fill="white"/>
<path d="M13.7498 32.7343C13.6388 32.2155 13.9694 31.7049 14.4882 31.594L17.5812 30.9323C18.1 30.8213 18.6106 31.1519 18.7216 31.6707L19.1189 33.528C19.2299 34.0468 18.8993 34.5574 18.3805 34.6684L15.2875 35.3301C14.7687 35.4411 14.2581 35.1105 14.1471 34.5916L13.7498 32.7343Z" fill="#F0B323"/>
<path fill-rule="evenodd" clip-rule="evenodd" d="M17.6817 31.402L14.5887 32.0637C14.3293 32.1192 14.164 32.3744 14.2195 32.6338L14.6168 34.4911C14.6723 34.7506 14.9276 34.9159 15.187 34.8604L18.28 34.1987C18.5394 34.1432 18.7047 33.8879 18.6492 33.6285L18.2519 31.7712C18.1964 31.5118 17.9411 31.3465 17.6817 31.402ZM14.4882 31.594C13.9694 31.7049 13.6388 32.2155 13.7498 32.7343L14.1471 34.5916C14.2581 35.1105 14.7687 35.4411 15.2875 35.3301L18.3805 34.6684C18.8993 34.5574 19.2299 34.0468 19.1189 33.528L18.7216 31.6707C18.6106 31.1519 18.1 30.8213 17.5812 30.9323L14.4882 31.594Z" fill="white"/>
</svg>
