<svg width="65" height="38" viewBox="0 0 65 38" fill="none" xmlns="http://www.w3.org/2000/svg">
<path d="M0.851562 4.89026C0.851562 2.2725 2.97363 0.150391 5.59134 0.150391H59.6083C62.226 0.150391 64.3481 2.2725 64.3481 4.89026V33.1123C64.3481 35.7301 62.226 37.8522 59.6083 37.8522H5.59134C2.97363 37.8522 0.851562 35.7301 0.851562 33.1123V4.89026Z" fill="#1E7B6F"/>
<mask id="mask0_37338_179566" style="mask-type:alpha" maskUnits="userSpaceOnUse" x="0" y="0" width="65" height="38">
<path d="M0.851562 4.88831C0.851562 2.27055 2.97363 0.148438 5.59134 0.148438H59.6083C62.226 0.148438 64.3481 2.27055 64.3481 4.88831V33.1104C64.3481 35.7282 62.226 37.8503 59.6083 37.8503H5.59134C2.97363 37.8503 0.851562 35.7281 0.851562 33.1104V4.88831Z" fill="#1E7B6F"/>
</mask>
<g mask="url(#mask0_37338_179566)">
<path d="M22.2211 38.3816L0.476562 4.21484V38.3816H22.2211Z" fill="#F0B323"/>
</g>
<path d="M9.20539 4.37413H10.3471L8.53424 9.70695H7.30137L5.49219 4.37413H6.63387L7.63695 7.54756C7.69287 7.7348 7.75002 7.95366 7.80838 8.20413C7.86917 8.45217 7.90686 8.62482 7.92145 8.72209C7.9482 8.49837 8.03939 8.10686 8.19502 7.54756L9.20539 4.37413Z" fill="white"/>
<path d="M10.8869 4.57475C10.8869 4.21242 11.0887 4.03125 11.4924 4.03125C11.8961 4.03125 12.0979 4.21242 12.0979 4.57475C12.0979 4.7474 12.0468 4.88236 11.9447 4.97963C11.845 5.07447 11.6942 5.12189 11.4924 5.12189C11.0887 5.12189 10.8869 4.93951 10.8869 4.57475ZM12.0468 9.70695H10.9343V5.62891H12.0468V9.70695Z" fill="white"/>
<path d="M14.9357 8.89353C15.1302 8.89353 15.3637 8.85097 15.636 8.76586V9.59387C15.3588 9.71789 15.0184 9.7799 14.6147 9.7799C14.1697 9.7799 13.8451 9.66804 13.6408 9.44432C13.439 9.21817 13.3381 8.88016 13.3381 8.43028V6.46421H12.8055V5.99367L13.4183 5.62161L13.7393 4.76077H14.4506V5.62891H15.5922V6.46421H14.4506V8.43028C14.4506 8.58835 14.4943 8.70507 14.5819 8.78045C14.6718 8.85584 14.7898 8.89353 14.9357 8.89353Z" fill="white"/>
<path d="M19.0538 9.70695L18.8386 9.15251H18.8094C18.6221 9.38839 18.4288 9.55253 18.2294 9.64494C18.0325 9.73492 17.7747 9.7799 17.4561 9.7799C17.0646 9.7799 16.7558 9.66804 16.5297 9.44432C16.3059 9.2206 16.1941 8.90204 16.1941 8.48864C16.1941 8.05579 16.3449 7.73723 16.6464 7.53297C16.9503 7.32627 17.4075 7.21198 18.0179 7.19009L18.7255 7.1682V6.98947C18.7255 6.57607 18.5139 6.36938 18.0908 6.36938C17.765 6.36938 17.382 6.46786 16.9418 6.66483L16.5734 5.91342C17.0428 5.66782 17.5631 5.54501 18.1346 5.54501C18.6817 5.54501 19.1012 5.66417 19.393 5.90248C19.6848 6.14079 19.8307 6.50312 19.8307 6.98947V9.70695H19.0538ZM18.7255 7.81748L18.2951 7.83207C17.9717 7.8418 17.7309 7.90016 17.5729 8.00716C17.4148 8.11416 17.3358 8.27708 17.3358 8.49594C17.3358 8.80963 17.5157 8.96648 17.8756 8.96648C18.1334 8.96648 18.3388 8.89231 18.492 8.74398C18.6477 8.59564 18.7255 8.39867 18.7255 8.15306V7.81748Z" fill="white"/>
<path d="M22.0922 9.70695H20.9797V4.03125H22.0922V9.70695Z" fill="white"/>
<path d="M24.9519 6.34384C24.716 6.34384 24.5312 6.41923 24.3974 6.56999C24.2637 6.71833 24.1871 6.92989 24.1676 7.20468H25.7288C25.7239 6.92989 25.6522 6.71833 25.5136 6.56999C25.375 6.41923 25.1877 6.34384 24.9519 6.34384ZM25.1087 9.7799C24.4521 9.7799 23.9391 9.59874 23.5694 9.23641C23.1998 8.87408 23.015 8.36098 23.015 7.69711C23.015 7.01379 23.1852 6.4861 23.5257 6.11404C23.8685 5.73955 24.3415 5.55231 24.9446 5.55231C25.5209 5.55231 25.9695 5.71645 26.2905 6.04474C26.6115 6.37302 26.772 6.82654 26.772 7.4053V7.94515H24.1421C24.1543 8.26128 24.2479 8.5081 24.423 8.68562C24.598 8.86313 24.8436 8.95189 25.1598 8.95189C25.4054 8.95189 25.6376 8.92636 25.8564 8.87529C26.0753 8.82423 26.3039 8.74276 26.5422 8.6309V9.49174C26.3476 9.58901 26.1397 9.66075 25.9185 9.70695C25.6972 9.75559 25.4273 9.7799 25.1087 9.7799Z" fill="white"/>
<path d="M45.9453 4.72454C45.9453 3.89939 46.6142 3.23047 47.4393 3.23047H56.3119C57.1371 3.23047 57.806 3.89939 57.806 4.72453V15.6012C57.806 16.4263 57.1371 17.0952 56.3119 17.0952H47.4393C46.6142 17.0952 45.9453 16.4263 45.9453 15.6012V4.72454Z" fill="white"/>
<path d="M50.492 8.03105C50.4833 8.90429 51.1842 9.61922 52.0574 9.62788C52.9307 9.63654 53.6456 8.93565 53.6542 8.06242C53.6629 7.18918 52.962 6.47425 52.0888 6.46559C51.2156 6.45693 50.5007 7.15781 50.492 8.03105ZM50.2554 8.0287C50.2653 7.02475 51.0872 6.21897 52.0912 6.22892C53.0951 6.23888 53.9008 7.06081 53.8909 8.06477C53.8809 9.06872 53.059 9.8745 52.0551 9.86454C51.0512 9.85458 50.2454 9.03266 50.2554 8.0287ZM48.9497 13.5789C49.0416 12.9017 49.3561 12.27 49.8492 11.7865C50.4349 11.2124 51.2247 10.8943 52.0448 10.9025C52.8649 10.9106 53.6483 11.2442 54.2224 11.8299C54.7059 12.3231 55.0077 12.9609 55.0862 13.6398C55.0883 13.6578 55.0833 13.6732 55.0687 13.6881C55.0525 13.7046 55.0252 13.7182 54.9912 13.7179C54.936 13.7173 54.8532 13.6645 54.835 13.5491C54.7429 12.9665 54.4718 12.4224 54.0534 11.9956C53.5232 11.4547 52.7998 11.1467 52.0425 11.1392C51.2851 11.1316 50.5557 11.4253 50.0149 11.9556C49.5881 12.3739 49.3063 12.9125 49.2027 13.4932C49.1821 13.6083 49.0983 13.6594 49.0431 13.6589C49.0091 13.6585 48.9821 13.6444 48.9662 13.6275C48.9519 13.6124 48.9473 13.5969 48.9497 13.5789Z" stroke="#1E7B6F" stroke-width="0.613104"/>
<rect x="18.2734" y="13.1328" width="23.7213" height="1.98068" rx="0.990339" fill="white"/>
<rect x="18.2656" y="24.0254" width="17.0744" height="1.98068" rx="0.990339" fill="white"/>
<rect x="60.1016" y="20.5957" width="17.0748" height="1.98064" rx="0.990319" transform="rotate(-90.2158 60.1016 20.5957)" fill="white"/>
<rect x="18.2734" y="28.9766" width="24.0373" height="1.98068" rx="0.990339" fill="white"/>
<path d="M4.4375 14.6269C4.4375 13.8017 5.1064 13.1328 5.93154 13.1328H10.8506C11.6757 13.1328 12.3446 13.8017 12.3446 14.6269V17.5808C12.3446 18.4059 11.6757 19.0749 10.8506 19.0749H5.93154C5.1064 19.0749 4.4375 18.4059 4.4375 17.5808V14.6269Z" fill="#F0B323"/>
<path fill-rule="evenodd" clip-rule="evenodd" d="M10.8506 13.8798H5.93154C5.51897 13.8798 5.18452 14.2143 5.18452 14.6269V17.5808C5.18452 17.9934 5.51897 18.3278 5.93154 18.3278H10.8506C11.2631 18.3278 11.5976 17.9934 11.5976 17.5808V14.6269C11.5976 14.2143 11.2631 13.8798 10.8506 13.8798ZM5.93154 13.1328C5.1064 13.1328 4.4375 13.8017 4.4375 14.6269V17.5808C4.4375 18.4059 5.1064 19.0749 5.93154 19.0749H10.8506C11.6757 19.0749 12.3446 18.4059 12.3446 17.5808V14.6269C12.3446 13.8017 11.6757 13.1328 10.8506 13.1328H5.93154Z" fill="white"/>
<path fill-rule="evenodd" clip-rule="evenodd" d="M63.8117 2.04496H58.4326L58.4326 22.63H63.8117L63.8117 2.04496ZM58.4326 1.14258C57.8571 1.14258 57.3906 1.54659 57.3906 2.04496V22.63C57.3906 23.1283 57.8571 23.5323 58.4326 23.5323H63.8117C64.3872 23.5323 64.8537 23.1283 64.8537 22.63V2.04496C64.8537 1.54659 64.3872 1.14258 63.8117 1.14258H58.4326Z" fill="#D81E7E"/>
</svg>
