<svg width="64" height="38" viewBox="0 0 64 38" fill="none" xmlns="http://www.w3.org/2000/svg">
<path d="M0.00390625 4.99363C0.00390625 2.37595 2.12598 0.253906 4.74368 0.253906H58.7606C61.3784 0.253906 63.5004 2.37595 63.5004 4.99363V33.2148C63.5004 35.8325 61.3784 37.9545 58.7606 37.9545H4.74368C2.12598 37.9545 0.00390625 35.8325 0.00390625 33.2148V4.99363Z" fill="#1E7B6F"/>
<mask id="mask0_37237_190327" style="mask-type:alpha" maskUnits="userSpaceOnUse" x="0" y="0" width="64" height="38">
<path d="M0 4.99167C0 2.374 2.12207 0.251953 4.73978 0.251953H58.7567C61.3744 0.251953 63.4965 2.374 63.4965 4.99167V33.2129C63.4965 35.8305 61.3744 37.9526 58.7567 37.9526H4.73978C2.12207 37.9526 0 35.8305 0 33.2129V4.99167Z" fill="#1E7B6F"/>
</mask>
<g mask="url(#mask0_37237_190327)">
<path d="M21.3696 38.486L-0.375 4.32031V38.486H21.3696Z" fill="#F0B323"/>
</g>
<path d="M8.35383 4.47373H9.49551L7.68268 9.80638H6.44981L4.64062 4.47373H5.78231L6.78538 7.64706C6.84131 7.83429 6.89846 8.05314 6.95682 8.30361C7.01761 8.55164 7.0553 8.72429 7.06989 8.82155C7.09664 8.59784 7.18783 8.20634 7.34346 7.64706L8.35383 4.47373Z" fill="white"/>
<path d="M10.0353 4.67434C10.0353 4.31202 10.2372 4.13086 10.6408 4.13086C11.0445 4.13086 11.2463 4.31202 11.2463 4.67434C11.2463 4.84699 11.1953 4.98194 11.0931 5.07921C10.9934 5.17405 10.8427 5.22146 10.6408 5.22146C10.2372 5.22146 10.0353 5.03909 10.0353 4.67434ZM11.1953 9.80638H10.0828V5.72847H11.1953V9.80638Z" fill="white"/>
<path d="M14.0841 8.99299C14.2787 8.99299 14.5121 8.95043 14.7845 8.86532V9.69331C14.5072 9.81732 14.1668 9.87933 13.7631 9.87933C13.3181 9.87933 12.9935 9.76747 12.7892 9.54376C12.5874 9.31761 12.4865 8.97961 12.4865 8.52975V6.56375H11.954V6.09322L12.5667 5.72117L12.8877 4.86036H13.599V5.72847H14.7407V6.56375H13.599V8.52975C13.599 8.68781 13.6428 8.80453 13.7303 8.87991C13.8203 8.95529 13.9382 8.99299 14.0841 8.99299Z" fill="white"/>
<path d="M18.2022 9.80638L17.987 9.25196H17.9578C17.7706 9.48783 17.5773 9.65197 17.3779 9.74437C17.1809 9.83434 16.9231 9.87933 16.6046 9.87933C16.2131 9.87933 15.9043 9.76747 15.6781 9.54376C15.4544 9.32005 15.3425 9.0015 15.3425 8.58811C15.3425 8.15527 15.4933 7.83673 15.7948 7.63247C16.0988 7.42577 16.5559 7.31149 17.1663 7.2896L17.8739 7.26771V7.08899C17.8739 6.6756 17.6624 6.46891 17.2393 6.46891C16.9134 6.46891 16.5304 6.56739 16.0903 6.76436L15.7219 6.01297C16.1912 5.76737 16.7116 5.64457 17.283 5.64457C17.8302 5.64457 18.2496 5.76373 18.5414 6.00203C18.8332 6.24033 18.9791 6.60265 18.9791 7.08899V9.80638H18.2022ZM17.8739 7.91697L17.4435 7.93156C17.1201 7.94129 16.8794 7.99965 16.7213 8.10664C16.5632 8.21364 16.4842 8.37656 16.4842 8.59541C16.4842 8.90909 16.6642 9.06594 17.024 9.06594C17.2818 9.06594 17.4873 8.99177 17.6405 8.84344C17.7961 8.69511 17.8739 8.49814 17.8739 8.25254V7.91697Z" fill="white"/>
<path d="M21.2406 9.80638H20.1281V4.13086H21.2406V9.80638Z" fill="white"/>
<path d="M24.1003 6.44338C23.8644 6.44338 23.6796 6.51876 23.5459 6.66952C23.4121 6.81786 23.3355 7.02941 23.3161 7.30419H24.8772C24.8724 7.02941 24.8006 6.81786 24.662 6.66952C24.5234 6.51876 24.3362 6.44338 24.1003 6.44338ZM24.2571 9.87933C23.6006 9.87933 23.0875 9.69817 22.7179 9.33585C22.3483 8.97353 22.1634 8.46045 22.1634 7.7966C22.1634 7.1133 22.3337 6.58563 22.6741 6.21359C23.017 5.83911 23.4899 5.65187 24.093 5.65187C24.6693 5.65187 25.118 5.81601 25.4389 6.14428C25.7599 6.47256 25.9204 6.92607 25.9204 7.5048V8.04463H23.2905C23.3027 8.36075 23.3963 8.60757 23.5714 8.78508C23.7465 8.96259 23.9921 9.05135 24.3082 9.05135C24.5538 9.05135 24.786 9.02581 25.0049 8.97475C25.2237 8.92368 25.4523 8.84222 25.6906 8.73037V9.59118C25.4961 9.68844 25.2882 9.76018 25.0669 9.80638C24.8456 9.85501 24.5757 9.87933 24.2571 9.87933Z" fill="white"/>
<path d="M45.0938 4.8241C45.0938 3.99897 45.7627 3.33008 46.5878 3.33008H55.4604C56.2855 3.33008 56.9544 3.99897 56.9544 4.8241V15.7004C56.9544 16.5255 56.2855 17.1944 55.4604 17.1944H46.5878C45.7627 17.1944 45.0938 16.5255 45.0938 15.7004V4.8241Z" fill="white"/>
<path d="M49.6444 8.1345C49.6357 9.00772 50.3366 9.72262 51.2098 9.73128C52.083 9.73994 52.7979 9.03908 52.8066 8.16586C52.8152 7.29264 52.1144 6.57774 51.2412 6.56908C50.3679 6.56042 49.653 7.26128 49.6444 8.1345ZM49.4077 8.13215C49.4177 7.12824 50.2396 6.32248 51.2435 6.33243C52.2474 6.34239 53.0532 7.1643 53.0432 8.16821C53.0333 9.17212 52.2114 9.97789 51.2074 9.96793C50.2035 9.95797 49.3977 9.13606 49.4077 8.13215ZM48.1021 13.6822C48.194 13.005 48.5084 12.3733 49.0015 11.8899C49.5872 11.3157 50.377 10.9977 51.1971 11.0058C52.0173 11.014 52.8006 11.3476 53.3748 11.9333C53.8582 12.4264 54.1601 13.0642 54.2385 13.743C54.2406 13.7611 54.2356 13.7765 54.2211 13.7913C54.2048 13.8079 54.1776 13.8215 54.1435 13.8211C54.0884 13.8206 54.0055 13.7678 53.9873 13.6523C53.8952 13.0697 53.6241 12.5257 53.2058 12.0989C52.6755 11.5581 51.9522 11.25 51.1948 11.2425C50.4374 11.235 49.7081 11.5286 49.1672 12.0589C48.7405 12.4772 48.4587 13.0158 48.355 13.5965C48.3345 13.7115 48.2506 13.7627 48.1955 13.7621C48.1615 13.7618 48.1345 13.7477 48.1186 13.7308C48.1043 13.7157 48.0996 13.7002 48.1021 13.6822Z" stroke="#1E7B6F" stroke-width="0.613094"/>
<rect x="17.418" y="13.2324" width="23.7213" height="1.98062" rx="0.990308" fill="white"/>
<rect x="17.418" y="24.125" width="17.0744" height="1.98062" rx="0.990308" fill="white"/>
<rect x="59.25" y="20.6992" width="17.0743" height="1.98064" rx="0.990319" transform="rotate(-90.2158 59.25 20.6992)" fill="white"/>
<rect x="17.418" y="29.0781" width="24.0373" height="1.98062" rx="0.990308" fill="white"/>
<path d="M3.58203 14.7264C3.58203 13.9013 4.25093 13.2324 5.07607 13.2324H9.9951C10.8202 13.2324 11.4891 13.9013 11.4891 14.7264V17.6803C11.4891 18.5054 10.8202 19.1743 9.9951 19.1743H5.07607C4.25093 19.1743 3.58203 18.5054 3.58203 17.6803V14.7264Z" fill="#F0B323"/>
<path fill-rule="evenodd" clip-rule="evenodd" d="M9.9951 13.9794H5.07607C4.6635 13.9794 4.32905 14.3139 4.32905 14.7264V17.6803C4.32905 18.0928 4.6635 18.4273 5.07607 18.4273H9.9951C10.4077 18.4273 10.7421 18.0928 10.7421 17.6803V14.7264C10.7421 14.3139 10.4077 13.9794 9.9951 13.9794ZM5.07607 13.2324C4.25093 13.2324 3.58203 13.9013 3.58203 14.7264V17.6803C3.58203 18.5054 4.25093 19.1743 5.07607 19.1743H9.9951C10.8202 19.1743 11.4891 18.5054 11.4891 17.6803V14.7264C11.4891 13.9013 10.8202 13.2324 9.9951 13.2324H5.07607Z" fill="white"/>
<path fill-rule="evenodd" clip-rule="evenodd" d="M62.9563 0.91597H57.5772C57.5409 0.91597 57.5115 0.943538 57.5115 0.977544V23.2773C57.5115 23.3113 57.5409 23.3388 57.5772 23.3388H62.9563C62.9925 23.3388 63.0219 23.3113 63.0219 23.2773V0.977545C63.0219 0.943538 62.9925 0.91597 62.9563 0.91597ZM57.5772 0C57.0017 0 56.5352 0.437661 56.5352 0.977544V23.2773C56.5352 23.8171 57.0017 24.2548 57.5772 24.2548H62.9563C63.5317 24.2548 63.9983 23.8171 63.9983 23.2773V0.977545C63.9983 0.437662 63.5317 0 62.9563 0H57.5772Z" fill="#D81E7E"/>
<path fill-rule="evenodd" clip-rule="evenodd" d="M16.6591 28.0738V32.5416C16.6591 32.5785 16.6891 32.6084 16.726 32.6084H42.0985C42.1354 32.6084 42.1654 32.5785 42.1654 32.5416V28.0738C42.1654 28.0368 42.1354 28.0069 42.0985 28.0069H16.726C16.6891 28.0069 16.6591 28.0368 16.6591 28.0738ZM15.6641 32.5416C15.6641 33.1281 16.1395 33.6035 16.726 33.6035H42.0985C42.685 33.6035 43.1605 33.1281 43.1605 32.5416V28.0738C43.1605 27.4873 42.685 27.0118 42.0985 27.0118H16.726C16.1395 27.0118 15.6641 27.4873 15.6641 28.0738V32.5416Z" fill="#D81E7E"/>
</svg>
