<svg width="40" height="40" viewBox="0 0 40 40" fill="none" xmlns="http://www.w3.org/2000/svg">
    <defs>
        <linearGradient id="paint0_linear_6983_83385" x1="8.63432" y1="21.8531" x2="20.0312"
            y2="18.7993" gradientUnits="userSpaceOnUse">
            <stop stop-color="#EFF1F7" />
            <stop offset="1" stop-color="white" />
        </linearGradient>
        <linearGradient id="paint1_linear_6983_83385" x1="31.4585" y1="15.7379" x2="20.0317"
            y2="18.7997" gradientUnits="userSpaceOnUse">
            <stop stop-color="white" />
            <stop offset="1" stop-color="#E8EBF3" />
        </linearGradient>
        <clipPath id="clip0_6983_83385">
            <rect width="40" height="40" fill="white" />
        </clipPath>
        <clipPath id="clip1_6983_83385">
            <rect width="2.37614" height="2.37614" fill="white"
                transform="translate(20.293 11.3906) rotate(-15)" />
        </clipPath>
        <clipPath id="clip2_6983_83385">
            <rect width="1.86724" height="1.86724" fill="white"
                transform="translate(21.7617 19.4473) rotate(-15)" />
        </clipPath>
        <clipPath id="clip3_6983_83385">
            <rect width="1.86724" height="1.86724" fill="white"
                transform="translate(22.6211 22.6523) rotate(-15)" />
        </clipPath>
        <clipPath id="clip4_6983_83385">
            <rect width="1.86724" height="1.86724" fill="white"
                transform="translate(10.3008 22.5566) rotate(-15)" />
        </clipPath>
        <clipPath id="clip5_6983_83385">
            <rect width="1.86724" height="1.86724" fill="white"
                transform="translate(9.24609 19.1641) rotate(-15)" />
        </clipPath>
        <clipPath id="clip6_6983_83385">
            <rect width="1.86724" height="1.86724" fill="white"
                transform="translate(11.1602 25.7637) rotate(-15)" />
        </clipPath>
        <clipPath id="clip7_6983_83385">
            <rect width="3.77717" height="3.77717" fill="white"
                transform="translate(29.3047 17.9453)" />
        </clipPath>
    </defs>
    <g clip-path="url(#clip0_6983_83385)">
        <path
            d="M36.2606 24.995C34.0649 28.9346 30.6774 32.4308 26.9049 34.7782C19.4939 39.3888 9.27088 36.8556 4.2762 29.5795C1.9264 26.1561 1.15668 21.4975 3.11293 17.7584C4.56036 14.9911 7.37852 13.614 10.3693 13.3848C12.8919 13.1916 15.3778 13.8476 17.8935 13.8614C21.7397 13.8828 24.983 12.0452 28.6683 11.3791C30.6887 11.0138 33.1708 11.1278 34.9171 12.3838C36.5749 13.5759 37.6349 15.5655 37.9136 17.5916C38.2654 20.1488 37.5102 22.7531 36.2606 24.995Z"
            fill="#A0B2EC" fill-opacity="0.16" />
        <path fill-rule="evenodd" clip-rule="evenodd"
            d="M12.3636 24.3098C9.00368 20.3092 3.67563 16.3784 5.02774 11.3422C6.42725 6.12954 12.6779 3.75125 18.0373 3.17721C22.3889 2.71111 25.9421 5.84524 29.2332 8.7496C31.88 11.0853 33.7388 13.9896 34.2475 17.4823C34.8132 21.3659 34.9205 25.7384 32.1028 28.4522C29.2471 31.2028 24.8315 31.1103 20.945 30.2947C17.3595 29.5423 14.7247 27.1212 12.3636 24.3098Z"
            fill="#A0B2EC" fill-opacity="0.16" />
        <path
            d="M28.5214 7.25034C29.4481 7.00206 30.4005 7.55195 30.6488 8.47856L34.4933 22.8264C34.7416 23.753 34.1917 24.7055 33.2651 24.9538L28.7195 26.1717L25.9745 26.9072C25.733 26.972 25.5082 27.0881 25.3157 27.2477L24.5356 27.8942C24.3431 28.0538 24.1183 28.1699 23.8768 28.2346L22.6876 28.5533L21.4984 28.8719C21.2568 28.9367 21.0041 28.9485 20.7576 28.9065L19.7588 28.7366C19.5122 28.6947 19.2596 28.7065 19.018 28.7712L16.273 29.5068L11.7275 30.7247C10.8008 30.973 9.8484 30.4231 9.60012 29.4965L5.75562 15.1487C5.50734 14.222 6.05723 13.2696 6.98384 13.0213L28.5214 7.25034Z"
            fill="#A0B2EC" />
        <path
            d="M21.5947 27.9072C21.383 27.1168 20.7904 26.3052 23.1779 25.6655L32.3846 23.1985L32.4875 23.171L32.6702 23.0296L32.7406 22.8259L32.7098 22.7109L29.2036 7.84264L29.858 8.52324C29.9371 8.60552 29.9941 8.70649 30.0236 8.81674L33.9373 23.4228C34.0339 23.7834 33.821 24.1537 33.4605 24.2503L24.4802 26.6565C23.9643 26.7948 23.5129 26.9157 23.6323 27.3612L21.5947 27.9072Z"
            fill="#E7ECFA" />
        <path
            d="M23.0978 27.5047C22.886 26.7143 22.9934 25.7152 20.6059 26.3549L11.3992 28.8218L11.2963 28.8494L11.0674 28.8183L10.9046 28.6771L10.8738 28.5621L6.68196 13.8776L6.29613 14.8059C6.23892 14.9435 6.22881 15.0962 6.26739 15.2402L10.1667 29.7924C10.2633 30.153 10.6328 30.3672 10.9933 30.2706L19.9736 27.8643C20.4895 27.7261 20.9409 27.6052 21.0603 28.0506L23.0978 27.5047Z"
            fill="#E7ECFA" />
        <path
            d="M22.1062 26.9778C22.1217 26.9872 22.1404 26.9902 22.1579 26.9855C22.1923 26.9763 22.2127 26.9409 22.2035 26.9065L18.0389 11.3641C17.8232 10.559 16.7743 10.9178 15.4573 11.2706L7.09857 13.5104C6.73803 13.607 6.52408 13.9776 6.62068 14.3381L10.5127 28.8631C10.6093 29.2237 10.9798 29.4376 11.3404 29.341L19.6991 27.1013C20.7766 26.8126 21.5484 26.6392 22.1062 26.9778Z"
            fill="url(#paint0_linear_6983_83385)" />
        <path
            d="M22.3242 26.9198C22.3155 26.9357 22.3008 26.9477 22.2832 26.9524C22.2487 26.9617 22.2132 26.9412 22.204 26.9067L18.0395 11.3644C17.8237 10.5593 18.9144 10.3448 20.2347 9.99104L28.6172 7.74497C28.9777 7.64836 29.3483 7.86232 29.4449 8.22285L33.3369 22.7479C33.4335 23.1084 33.2195 23.479 32.859 23.5756L24.4765 25.8217C23.3963 26.1111 22.6392 26.3474 22.3242 26.9198Z"
            fill="url(#paint1_linear_6983_83385)" />
        <rect x="23.9258" y="10.3984" width="4.4347" height="0.622414" rx="0.311207"
            transform="rotate(-15 23.9258 10.3984)" fill="#298478" />
        <rect x="21.3359" y="17.8574" width="5.99073" height="0.622414" rx="0.311207"
            transform="rotate(-15 21.3359 17.8574)" fill="#A0B2EC" />
        <rect x="20.9727" y="16.5059" width="8.86939" height="0.622414" rx="0.311207"
            transform="rotate(-15 20.9727 16.5059)" fill="#A0B2EC" />
        <rect x="20.6094" y="15.1523" width="8.86939" height="0.622414" rx="0.311207"
            transform="rotate(-15 20.6094 15.1523)" fill="#A0B2EC" />
        <rect x="24.2305" y="11.5254" width="4.4347" height="0.622414" rx="0.311207"
            transform="rotate(-15 24.2305 11.5254)" fill="#A0B2EC" />
        <rect x="24.5312" y="12.6523" width="4.4347" height="0.622414" rx="0.311207"
            transform="rotate(-15 24.5312 12.6523)" fill="#A0B2EC" />
        <circle cx="21.7985" cy="12.4095" r="1.73641" transform="rotate(-15 21.7985 12.4095)"
            fill="#E7ECFA" />
        <g clip-path="url(#clip1_6983_83385)">
            <path
                d="M21.1689 11.9755C21.0982 11.7114 21.2549 11.44 21.519 11.3692C21.783 11.2985 22.0545 11.4552 22.1252 11.7193C22.196 11.9833 22.0393 12.2548 21.7752 12.3255C21.5111 12.3963 21.2397 12.2396 21.1689 11.9755ZM21.724 12.1343C21.8824 12.0918 21.9764 11.929 21.934 11.7705C21.8915 11.6121 21.7287 11.518 21.5702 11.5605C21.4118 11.6029 21.3177 11.7658 21.3602 11.9243C21.4026 12.0827 21.5655 12.1767 21.724 12.1343Z"
                fill="#0C419A" />
            <path
                d="M21.3199 12.7902C21.2315 12.9434 21.1973 13.1209 21.2212 13.2942C21.2286 13.3484 21.2836 13.3798 21.3364 13.3656C21.3892 13.3515 21.4197 13.2971 21.4145 13.2427C21.4028 13.1205 21.4292 12.9969 21.4914 12.8892C21.5702 12.7528 21.6999 12.6532 21.8521 12.6124C22.0043 12.5717 22.1664 12.593 22.3028 12.6718C22.4105 12.7339 22.4952 12.8278 22.5462 12.9394C22.5689 12.9892 22.6224 13.021 22.6753 13.0069C22.7281 12.9927 22.76 12.9381 22.7394 12.8875C22.6733 12.7254 22.555 12.5887 22.4019 12.5003C22.2199 12.3953 22.0037 12.3668 21.8008 12.4212C21.5979 12.4755 21.4249 12.6083 21.3199 12.7902Z"
                fill="#0C419A" />
        </g>
        <rect x="24.2031" y="18.9434" width="6.37974" height="0.622414" rx="0.311207"
            transform="rotate(-15 24.2031 18.9434)" fill="#A0B2EC" />
        <rect x="25.0703" y="22.1738" width="6.37974" height="0.622414" rx="0.311207"
            transform="rotate(-15 25.0703 22.1738)" fill="#A0B2EC" />
        <rect x="24.5078" y="20.0684" width="4.4347" height="0.622414" rx="0.311207"
            transform="rotate(-15 24.5078 20.0684)" fill="#A0B2EC" />
        <rect x="25.3711" y="23.3008" width="4.4347" height="0.622414" rx="0.311207"
            transform="rotate(-15 25.3711 23.3008)" fill="#A0B2EC" />
        <g clip-path="url(#clip2_6983_83385)">
            <path
                d="M22.8228 20.7559L22.3511 20.4836C22.2767 20.4406 22.2512 20.3455 22.2942 20.271C22.3372 20.1966 22.4325 20.1711 22.5069 20.2142L22.709 20.3313L23.1755 19.5223C23.2185 19.4478 23.3137 19.4223 23.3882 19.4652C23.4627 19.5082 23.4882 19.6034 23.4452 19.6779L22.8228 20.7559Z"
                fill="#298478" />
        </g>
        <g clip-path="url(#clip3_6983_83385)">
            <path
                d="M23.6822 23.9629L23.2105 23.6906C23.1361 23.6476 23.1106 23.5525 23.1535 23.4781C23.1966 23.4036 23.2918 23.3781 23.3663 23.4212L23.5684 23.5383L24.0349 22.7293C24.0779 22.6548 24.1731 22.6293 24.2476 22.6723C24.322 22.7153 24.3475 22.8105 24.3046 22.8849L23.6822 23.9629Z"
                fill="#298478" />
        </g>
        <rect x="12.75" y="21.9805" width="6.441" height="0.6441" rx="0.32205"
            transform="rotate(-15 12.75 21.9805)" fill="#A0B2EC" />
        <rect x="11.6875" y="18.5605" width="6.441" height="0.6441" rx="0.32205"
            transform="rotate(-15 11.6875 18.5605)" fill="#A0B2EC" />
        <rect x="13.6367" y="25.2988" width="6.441" height="0.6441" rx="0.32205"
            transform="rotate(-15 13.6367 25.2988)" fill="#A0B2EC" />
        <rect x="13.0352" y="23.1406" width="4.4347" height="0.622414" rx="0.311207"
            transform="rotate(-15 13.0352 23.1406)" fill="#A0B2EC" />
        <rect x="11.9727" y="19.7227" width="4.4347" height="0.622414" rx="0.311207"
            transform="rotate(-15 11.9727 19.7227)" fill="#A0B2EC" />
        <rect x="13.9023" y="26.373" width="4.4347" height="0.622414" rx="0.311207"
            transform="rotate(-15 13.9023 26.373)" fill="#A0B2EC" />
        <g clip-path="url(#clip4_6983_83385)">
            <path
                d="M11.3619 23.8653L10.8902 23.5929C10.8158 23.55 10.7903 23.4548 10.8332 23.3804C10.8762 23.3059 10.9715 23.2805 11.046 23.3236L11.2481 23.4407L11.7146 22.6317C11.7576 22.5572 11.8528 22.5316 11.9273 22.5746C12.0017 22.6176 12.0272 22.7128 11.9842 22.7872L11.3619 23.8653Z"
                fill="#298478" />
        </g>
        <g clip-path="url(#clip5_6983_83385)">
            <path
                d="M10.3072 20.4727L9.8355 20.2004C9.76108 20.1574 9.73559 20.0622 9.77855 19.9878C9.82155 19.9133 9.91684 19.8879 9.99127 19.931L10.1934 20.0481L10.6599 19.2391C10.7029 19.1646 10.7981 19.139 10.8726 19.182C10.947 19.225 10.9725 19.3202 10.9296 19.3947L10.3072 20.4727Z"
                fill="#298478" />
        </g>
        <g clip-path="url(#clip6_6983_83385)">
            <path
                d="M12.2212 27.0723L11.7496 26.8C11.6751 26.757 11.6497 26.6619 11.6926 26.5874C11.7356 26.513 11.8309 26.4875 11.9053 26.5306L12.1075 26.6477L12.574 25.8387C12.6169 25.7642 12.7122 25.7387 12.7866 25.7817C12.8611 25.8246 12.8866 25.9198 12.8436 25.9943L12.2212 27.0723Z"
                fill="#298478" />
        </g>
        <circle cx="31.1934" cy="19.9903" r="2.99026" fill="#A05BB6" />
        <circle cx="31.1934" cy="19.9903" r="3.22633" stroke="white" stroke-opacity="0.6"
            stroke-width="0.472146" />
        <g clip-path="url(#clip7_6983_83385)">
            <path
                d="M31.0282 19.6737C31.0165 19.6319 30.9827 19.6025 30.9433 19.5998C30.9039 19.5972 30.8671 19.622 30.8511 19.662L30.5846 20.326H30.5107C30.4527 20.326 30.4057 20.373 30.4057 20.431C30.4057 20.4889 30.4527 20.5359 30.5107 20.5359H30.6462C30.6836 20.5359 30.7175 20.5115 30.7327 20.4736L30.9215 20.0032L31.1385 20.7846C31.1502 20.8265 31.184 20.8559 31.2234 20.8585C31.2628 20.8611 31.2996 20.8364 31.3156 20.7964L31.5159 20.2972L31.5783 20.4699C31.5927 20.5098 31.6275 20.5359 31.6663 20.5359H31.8746C31.9326 20.5359 31.9796 20.4889 31.9796 20.431C31.9796 20.373 31.9326 20.326 31.8746 20.326H31.7304L31.6085 19.9884C31.5943 19.9493 31.5604 19.9233 31.5223 19.9225C31.4842 19.9217 31.4494 19.9463 31.434 19.9848L31.2452 20.4552L31.0282 19.6737Z"
                fill="white" />
            <path fill-rule="evenodd" clip-rule="evenodd"
                d="M29.9336 21.0946C29.9336 21.2684 30.0745 21.4094 30.2484 21.4094H32.1369C32.3108 21.4094 32.4517 21.2684 32.4517 21.0946V19.3634C32.4518 19.3619 32.4517 19.3604 32.4514 19.359C32.4509 19.3576 32.4505 19.3562 32.4503 19.3547C32.4496 19.3409 32.447 19.3273 32.4426 19.3141L32.4412 19.31C32.4409 19.3092 32.4406 19.3084 32.4403 19.3075C32.4394 19.3048 32.4384 19.302 32.4372 19.2993C32.4296 19.2822 32.4189 19.2666 32.4058 19.2532L31.4615 18.3089C31.4481 18.2957 31.4325 18.2851 31.4153 18.2775C31.412 18.2757 31.4085 18.2743 31.405 18.2731L31.4006 18.2716C31.3874 18.2672 31.3737 18.2645 31.3598 18.2636C31.3582 18.2635 31.3566 18.2631 31.3551 18.2627C31.3534 18.2621 31.3517 18.2618 31.35 18.2617H30.2484C30.0745 18.2617 29.9336 18.4026 29.9336 18.5765V21.0946ZM30.2484 21.0946V18.5765H31.1926V19.3634C31.1926 19.4503 31.2631 19.5208 31.35 19.5208H32.1369V21.0946H30.2484ZM31.5074 19.206V18.799L31.9144 19.206H31.5074Z"
                fill="white" />
        </g>
        <circle cx="14.0261" cy="11.2234" r="4.823" fill="#E11A81" />
        <circle cx="14.0261" cy="11.2234" r="5.1675" stroke="white" stroke-opacity="0.6"
            stroke-width="0.689" />
        <path
            d="M14.0271 13.521C13.879 13.3896 13.7116 13.253 13.5345 13.1076H13.5322C12.9087 12.5977 12.202 12.0208 11.8899 11.3295C11.7873 11.1094 11.733 10.87 11.7305 10.6272C11.7298 10.294 11.8634 9.97469 12.1011 9.7413C12.3388 9.50791 12.6606 9.38018 12.9936 9.38698C13.2648 9.38741 13.5301 9.46577 13.758 9.61274C13.8581 9.67773 13.9487 9.75634 14.0271 9.84631C14.106 9.75669 14.1966 9.67813 14.2965 9.61274C14.5243 9.46574 14.7896 9.38737 15.0606 9.38698C15.3937 9.38018 15.7155 9.50791 15.9532 9.7413C16.1909 9.97469 16.3245 10.294 16.3238 10.6272C16.3215 10.8704 16.2671 11.1102 16.1644 11.3306C15.8523 12.0219 15.1458 12.5986 14.5223 13.1076L14.52 13.1094C14.3427 13.2539 14.1755 13.3905 14.0274 13.5228L14.0271 13.521ZM12.9936 9.84631C12.7797 9.84363 12.5734 9.92551 12.4195 10.0741C12.2712 10.2198 12.1883 10.4193 12.1898 10.6272C12.1924 10.8041 12.2325 10.9785 12.3074 11.1389C12.4547 11.4371 12.6535 11.7071 12.8947 11.9363C13.1223 12.1659 13.3841 12.3883 13.6105 12.5752C13.6732 12.6269 13.7371 12.679 13.8009 12.7312L13.8411 12.764C13.9024 12.8141 13.9658 12.866 14.0271 12.917L14.0301 12.9142L14.0315 12.913H14.0329L14.0349 12.9114H14.0361H14.0372L14.0414 12.908L14.0508 12.9004L14.0524 12.899L14.0549 12.8972H14.0563L14.0584 12.8954L14.2109 12.7702L14.2508 12.7374C14.3154 12.6848 14.3792 12.6326 14.4419 12.5809C14.6684 12.394 14.9304 12.1719 15.158 11.9411C15.3992 11.712 15.598 11.4422 15.7453 11.1439C15.8215 10.9822 15.8622 10.806 15.8645 10.6272C15.8654 10.42 15.7826 10.2212 15.6348 10.076C15.4812 9.92667 15.2748 9.84412 15.0606 9.84631C14.7993 9.84409 14.5494 9.95365 14.3739 10.1474L14.0271 10.547L13.6803 10.1474C13.5049 9.95365 13.255 9.84409 12.9936 9.84631Z"
            fill="white" />
        <circle cx="8.58552" cy="20.1832" r="3.18318" fill="#298478" />
        <circle cx="8.58552" cy="20.1832" r="3.38213" stroke="white" stroke-opacity="0.6"
            stroke-width="0.397897" />
        <path
            d="M8.35802 20.9792H8.81276C8.90321 20.9792 8.98996 20.9432 9.05392 20.8793C9.11788 20.8153 9.15382 20.7286 9.15382 20.6381C9.15382 20.5477 9.11788 20.4609 9.05392 20.397C8.98996 20.333 8.90321 20.2971 8.81276 20.2971H8.01697C7.98682 20.2971 7.9579 20.309 7.93658 20.3304C7.91526 20.3517 7.90328 20.3806 7.90328 20.4108C7.90328 20.4409 7.91526 20.4698 7.93658 20.4911C7.9579 20.5125 7.98682 20.5244 8.01697 20.5244H8.81276C8.84291 20.5244 8.87183 20.5364 8.89315 20.5577C8.91447 20.5791 8.92645 20.608 8.92645 20.6381C8.92645 20.6683 8.91447 20.6972 8.89315 20.7185C8.87183 20.7398 8.84291 20.7518 8.81276 20.7518H8.35802C8.26757 20.7518 8.18082 20.7877 8.11686 20.8517C8.0529 20.9157 8.01697 21.0024 8.01697 21.0929C8.01697 21.1833 8.0529 21.2701 8.11686 21.334C8.18082 21.398 8.26757 21.4339 8.35802 21.4339H8.81276C8.84291 21.4339 8.87183 21.4219 8.89315 21.4006C8.91447 21.3793 8.92645 21.3504 8.92645 21.3202C8.92645 21.2901 8.91447 21.2612 8.89315 21.2398C8.87183 21.2185 8.84291 21.2065 8.81276 21.2065H8.35802C8.32787 21.2065 8.29895 21.1946 8.27763 21.1733C8.25631 21.1519 8.24434 21.123 8.24434 21.0929C8.24434 21.0627 8.25631 21.0338 8.27763 21.0125C8.29895 20.9912 8.32787 20.9792 8.35802 20.9792Z"
            fill="white" />
        <path
            d="M8.64223 20.0697C8.73837 20.0697 8.83202 20.0392 8.90974 19.9826C8.98745 19.926 9.04524 19.8463 9.0748 19.7548C9.08817 19.7142 9.11398 19.6789 9.14857 19.6538C9.18316 19.6287 9.22477 19.6151 9.2675 19.615H10.2827C10.2554 19.8044 10.1607 19.9776 10.016 20.1029C9.87127 20.2282 9.68627 20.2971 9.49487 20.2971C9.46472 20.2971 9.4358 20.309 9.41448 20.3304C9.39316 20.3517 9.38119 20.3806 9.38119 20.4108C9.38119 20.4409 9.39316 20.4698 9.41448 20.4911C9.4358 20.5125 9.46472 20.5244 9.49487 20.5244C9.76623 20.5244 10.0265 20.4166 10.2184 20.2248C10.4102 20.0329 10.518 19.7726 10.518 19.5013C10.518 19.4711 10.5061 19.4422 10.4847 19.4209C10.4634 19.3996 10.4345 19.3876 10.4044 19.3876H9.2675C9.17137 19.3876 9.07772 19.4181 9 19.4747C8.92228 19.5313 8.86449 19.611 8.83493 19.7025C8.82156 19.7431 8.79575 19.7784 8.76117 19.8035C8.72658 19.8286 8.68497 19.8422 8.64223 19.8423H8.41486C8.37213 19.8422 8.33052 19.8286 8.29593 19.8035C8.26134 19.7784 8.23554 19.7431 8.22217 19.7025C8.19261 19.611 8.13482 19.5313 8.0571 19.4747C7.97938 19.4181 7.88573 19.3876 7.7896 19.3876H6.65275C6.6226 19.3876 6.59368 19.3996 6.57236 19.4209C6.55104 19.4422 6.53906 19.4711 6.53906 19.5013C6.53906 19.7726 6.64686 20.0329 6.83874 20.2248C7.03062 20.4166 7.29087 20.5244 7.56223 20.5244C7.59238 20.5244 7.62129 20.5125 7.64261 20.4911C7.66393 20.4698 7.67591 20.4409 7.67591 20.4108C7.67591 20.3806 7.66393 20.3517 7.64261 20.3304C7.62129 20.309 7.59238 20.2971 7.56223 20.2971C7.37083 20.2971 7.18583 20.2282 7.04113 20.1029C6.89643 19.9776 6.80173 19.8044 6.77439 19.615H7.7896C7.83233 19.6151 7.87394 19.6287 7.90853 19.6538C7.94312 19.6789 7.96892 19.7142 7.98229 19.7548C8.01185 19.8463 8.06964 19.926 8.14736 19.9826C8.22508 20.0392 8.31873 20.0697 8.41486 20.0697H8.64223Z"
            fill="white" />
        <path
            d="M8.52855 22.0023C8.4984 22.0023 8.46948 21.9904 8.44816 21.969C8.42684 21.9477 8.41486 21.9188 8.41486 21.8887V19.1602C8.41486 19.1301 8.42684 19.1012 8.44816 19.0798C8.46948 19.0585 8.4984 19.0465 8.52855 19.0465C8.5587 19.0465 8.58762 19.0585 8.60894 19.0798C8.63026 19.1012 8.64223 19.1301 8.64223 19.1602V21.8887C8.64223 21.9188 8.63026 21.9477 8.60894 21.969C8.58762 21.9904 8.5587 22.0023 8.52855 22.0023Z"
            fill="white" />
        <path
            d="M8.52855 19.1602C8.47234 19.1602 8.41739 19.1436 8.37065 19.1123C8.32391 19.0811 8.28748 19.0367 8.26597 18.9848C8.24446 18.9328 8.23883 18.8757 8.2498 18.8206C8.26076 18.7654 8.28783 18.7148 8.32758 18.675C8.36733 18.6353 8.41797 18.6082 8.4731 18.5973C8.52823 18.5863 8.58538 18.5919 8.63731 18.6134C8.68925 18.6349 8.73363 18.6714 8.76486 18.7181C8.79609 18.7648 8.81276 18.8198 8.81276 18.876C8.81276 18.9514 8.78282 19.0237 8.72952 19.077C8.67622 19.1303 8.60393 19.1602 8.52855 19.1602ZM8.52855 18.7542C8.50446 18.7542 8.48091 18.7613 8.46088 18.7747C8.44085 18.7881 8.42523 18.8071 8.41602 18.8294C8.4068 18.8517 8.40438 18.8761 8.40908 18.8998C8.41378 18.9234 8.42538 18.9451 8.44242 18.9621C8.45945 18.9792 8.48116 18.9908 8.50479 18.9955C8.52841 19.0002 8.5529 18.9978 8.57516 18.9885C8.59742 18.9793 8.61644 18.9637 8.62983 18.9437C8.64321 18.9236 8.65035 18.9001 8.65035 18.876C8.65035 18.8437 8.63752 18.8127 8.61468 18.7899C8.59184 18.767 8.56085 18.7542 8.52855 18.7542Z"
            fill="white" />
        <circle cx="21.7556" cy="29.5564" r="3.95486" fill="#0C419A" />
        <circle cx="21.7556" cy="29.5564" r="4.23735" stroke="white" stroke-opacity="0.6"
            stroke-width="0.56498" />
        <path
            d="M20.321 27.4844C20.1951 27.4844 20.0888 27.5571 20.0372 27.6623C19.8355 27.718 19.6836 27.9003 19.6836 28.1172V29.6002L19.7234 29.6447C19.7234 29.6447 20.0987 30.081 20.6397 30.1588V30.4901C20.6397 31.0121 21.07 31.4392 21.5958 31.4392C22.1217 31.4392 22.552 31.0121 22.552 30.4901V29.6991C22.552 29.5224 22.6927 29.3827 22.8707 29.3827C23.0487 29.3827 23.1894 29.5224 23.1894 29.6991V29.7288C23.0052 29.7948 22.8707 29.9691 22.8707 30.1737C22.8707 30.4339 23.0866 30.6483 23.3487 30.6483C23.6109 30.6483 23.8268 30.4339 23.8268 30.1737C23.8268 29.9691 23.6923 29.7948 23.5081 29.7287V29.6991C23.5081 29.3511 23.2212 29.0663 22.8707 29.0663C22.5201 29.0663 22.2332 29.3511 22.2332 29.6991V30.4901C22.2332 30.8411 21.9494 31.1228 21.5958 31.1228C21.2422 31.1228 20.9584 30.8411 20.9584 30.4901V30.1588C21.4994 30.081 21.8747 29.6447 21.8747 29.6447L21.9145 29.6002V28.1172C21.9145 27.9003 21.7627 27.718 21.5609 27.6623C21.5353 27.6092 21.4951 27.5642 21.4449 27.5328C21.3947 27.5013 21.3365 27.4845 21.2771 27.4844C21.1926 27.4844 21.1115 27.5177 21.0518 27.577C20.992 27.6364 20.9584 27.7169 20.9584 27.8008C20.9584 27.8847 20.992 27.9651 21.0518 28.0245C21.1115 28.0838 21.1926 28.1172 21.2771 28.1172C21.3817 28.1172 21.4731 28.0665 21.5311 27.9885C21.571 28.017 21.5958 28.0634 21.5958 28.1172V29.4718C21.5385 29.5292 21.1994 29.8573 20.7991 29.8573C20.3988 29.8573 20.0597 29.5292 20.0023 29.4716V28.1172C20.0023 28.0634 20.0272 28.017 20.067 27.9885C20.125 28.0665 20.2165 28.1172 20.321 28.1172C20.4055 28.1172 20.4866 28.0838 20.5464 28.0245C20.6061 27.9651 20.6397 27.8847 20.6397 27.8008C20.6397 27.7169 20.6061 27.6364 20.5464 27.577C20.4866 27.5177 20.4055 27.4844 20.321 27.4844ZM23.3487 30.0155C23.4384 30.0155 23.5081 30.0848 23.5081 30.1737C23.5081 30.2627 23.4383 30.3319 23.3487 30.3319C23.259 30.3319 23.1894 30.2626 23.1894 30.1737C23.1894 30.0846 23.2592 30.0155 23.3487 30.0155Z"
            fill="white" />
    </g>
</svg>
