<svg width="54" height="54" viewBox="0 0 54 54" fill="none" xmlns="http://www.w3.org/2000/svg">
    <path d="M46.5225 6.42665C43.8536 3.82997 39.9295 2.64744 36.0584 2.76814C33.6011 2.84491 31.084 3.43722 28.99 4.79866C25.5571 7.03098 23.7463 10.9251 21.2471 14.1339C18.259 17.9708 14.2112 20.8864 10.7709 24.3512C7.33114 27.8157 4.36563 32.2452 4.54944 36.9269C4.65801 39.7091 5.89904 42.3222 7.71717 44.3819C11.2594 48.3951 16.9433 50.3246 22.5178 49.9711C38.2884 48.9714 50.8845 32.8083 50.7338 18.1396C50.6896 13.8549 49.5777 9.39913 46.5225 6.42665Z"
          fill="#A0B2EC" fill-opacity="0.16"/>
    <path d="M44.0749 46.9291C46.3077 44.38 47.1956 40.7575 46.9016 37.2453C46.7149 35.0157 46.0567 32.7564 44.7198 30.9182C42.5277 27.9047 38.9025 26.4444 35.8674 24.3259C32.2382 21.7929 29.3958 18.2532 26.0833 15.2916C22.771 12.3305 18.6044 9.84628 14.3584 10.2362C11.8351 10.4673 9.51943 11.7195 7.73418 13.4699C4.25565 16.8801 2.77268 22.1374 3.35929 27.1867C5.01857 41.4713 20.3071 52.1491 33.6307 51.3139C37.5226 51.0697 41.519 49.8471 44.0749 46.9291Z"
          fill="#A0B2EC" fill-opacity="0.16"/>
    <path d="M27.3967 45.2625C36.1931 45.1005 43.1927 37.8383 43.0307 29.0419C42.8687 20.2455 35.6065 13.2459 26.8101 13.4079C18.0137 13.5699 11.0141 20.8321 11.1761 29.6285C11.3381 38.4249 18.6003 45.4245 27.3967 45.2625Z"
          fill="#0C419A"/>
    <path d="M27.3593 43.0869C34.956 42.947 41.001 36.6753 40.8611 29.0786C40.7212 21.4819 34.4494 15.4369 26.8527 15.5768C19.256 15.7167 13.2111 21.9884 13.3509 29.5851C13.4908 37.1819 19.7626 43.2268 27.3593 43.0869Z"
          fill="white"/>
    <path d="M16.9905 29.4312V29.6547C16.9905 29.7891 16.8814 29.8982 16.747 29.8982H14.6692C14.5348 29.8982 14.4258 29.7891 14.4258 29.6547V29.4312C14.4258 29.2968 14.5348 29.1875 14.6692 29.1875H16.747C16.8814 29.1877 16.9905 29.2968 16.9905 29.4312Z"
          fill="#BDCCF8"/>
    <path d="M27.2044 39.4473H27.4279C27.5623 39.4473 27.6716 39.5563 27.6716 39.691V41.7687C27.6716 41.9031 27.5626 42.0124 27.4279 42.0124H27.2044C27.07 42.0124 26.9609 41.9034 26.9609 41.7687V39.691C26.9609 39.5563 27.07 39.4473 27.2044 39.4473Z"
          fill="#BDCCF8"/>
    <path d="M37.2188 29.2348V29.0113C37.2188 28.8769 37.3278 28.7676 37.4624 28.7676H39.5402C39.6746 28.7676 39.7837 28.8766 39.7837 29.0113V29.2348C39.7837 29.3692 39.6746 29.4783 39.5402 29.4783H37.4624C37.3278 29.4783 37.2188 29.3692 37.2188 29.2348Z"
          fill="#BDCCF8"/>
    <path d="M21.6071 20.1994C21.5049 20.2611 21.372 20.2279 21.3103 20.1257L20.7732 19.2339C20.7116 19.1317 20.7447 18.9988 20.847 18.9372C20.9492 18.8755 21.0821 18.9086 21.1437 19.0109L21.6808 19.9027C21.7425 20.0049 21.7096 20.1378 21.6071 20.1994Z"
          fill="#BDCCF8"/>
    <path d="M17.7774 24.1723C17.7196 24.2768 17.588 24.3147 17.4836 24.2569L16.5726 23.753C16.4682 23.6952 16.4302 23.5636 16.488 23.4592C16.5458 23.3547 16.6774 23.3168 16.7819 23.3746L17.6928 23.8785C17.7975 23.9363 17.8352 24.0679 17.7774 24.1723Z"
          fill="#BDCCF8"/>
    <path d="M36.4804 24.1723C36.5382 24.2768 36.6698 24.3147 36.7743 24.2569L37.6852 23.753C37.7896 23.6952 37.8276 23.5636 37.7698 23.4592C37.712 23.3547 37.5804 23.3168 37.4759 23.3746L36.565 23.8785C36.4603 23.9363 36.4226 24.0679 36.4804 24.1723Z"
          fill="#BDCCF8"/>
    <path d="M17.9748 34.8303C18.0364 34.9325 18.0033 35.0654 17.9011 35.127L17.0093 35.6641C16.9071 35.7257 16.7741 35.6926 16.7125 35.5904C16.6509 35.4882 16.684 35.3552 16.7862 35.2936L17.678 34.7565C17.7803 34.6949 17.9132 34.7278 17.9748 34.8303Z"
          fill="#BDCCF8"/>
    <path d="M21.943 38.6639C22.0474 38.7217 22.0854 38.8533 22.0276 38.9577L21.5237 39.8687C21.4659 39.9731 21.3343 40.0111 21.2298 39.9533C21.1254 39.8955 21.0874 39.7639 21.1452 39.6594L21.6491 38.7485C21.7069 38.6438 21.8385 38.6061 21.943 38.6639Z"
          fill="#BDCCF8"/>
    <path d="M32.6048 38.4665C32.7071 38.4048 32.84 38.4379 32.9016 38.5402L33.4387 39.432C33.5003 39.5342 33.4672 39.6671 33.365 39.7287C33.2627 39.7904 33.1298 39.7573 33.0682 39.655L32.5311 38.7632C32.4695 38.661 32.5024 38.5281 32.6048 38.4665Z"
          fill="#BDCCF8"/>
    <path d="M36.4334 34.4924C36.4912 34.3879 36.6228 34.35 36.7272 34.4078L37.6382 34.9117C37.7426 34.9695 37.7806 35.1011 37.7228 35.2055C37.665 35.31 37.5334 35.3479 37.4289 35.2901L36.518 34.7862C36.4133 34.7284 36.3756 34.5968 36.4334 34.4924Z"
          fill="#BDCCF8"/>
    <path d="M32.6386 18.1321C31.2306 17.1081 29.1826 15.8281 25.7266 15.8281L25.7266 28.0811L32.6386 18.1321Z"
          fill="#E11A81"/>
    <path fill-rule="evenodd" clip-rule="evenodd"
          d="M15.2911 14.035C15.0462 14.1764 14.9623 14.4895 15.1037 14.7344C15.245 14.9793 15.5582 15.0632 15.8031 14.9218L19.1286 13.0018C19.3735 12.8604 19.4574 12.5473 19.316 12.3024C19.1746 12.0575 18.8615 11.9736 18.6166 12.115L15.2911 14.035ZM18.2612 13.906L17.1527 14.546L17.9207 15.8762L19.0292 15.2362L18.2612 13.906Z"
          fill="#0C419A"/>
    <path fill-rule="evenodd" clip-rule="evenodd"
          d="M35.7636 14.035C36.0085 14.1764 36.0924 14.4895 35.951 14.7344C35.8096 14.9793 35.4965 15.0632 35.2516 14.9218L31.9261 13.0018C31.6812 12.8604 31.5973 12.5473 31.7387 12.3024C31.8801 12.0575 32.1932 11.9736 32.4381 12.115L35.7636 14.035ZM32.7635 13.906L33.872 14.546L33.104 15.8762L31.9955 15.2362L32.7635 13.906Z"
          fill="#0C419A"/>
    <path fill-rule="evenodd" clip-rule="evenodd"
          d="M23.4197 8.53125C22.6421 8.53125 22.0117 9.16163 22.0117 9.93925C22.0117 10.7169 22.6421 11.3472 23.4197 11.3472L27.7717 11.3472C28.5493 11.3472 29.1797 10.7169 29.1797 9.93925C29.1797 9.16163 28.5493 8.53125 27.7717 8.53125L23.4197 8.53125ZM26.6197 11.86L24.5717 11.86L24.5717 12.884L26.6197 12.884L26.6197 11.86Z"
          fill="#0C419A"/>
    <path d="M27.3344 31.1385C28.324 31.1203 29.1114 30.3033 29.0932 29.3137C29.075 28.3241 28.258 27.5367 27.2684 27.5549C26.2788 27.5731 25.4913 28.3901 25.5096 29.3797C25.5278 30.3693 26.3448 31.1568 27.3344 31.1385Z"
          fill="#26293A"/>
    <path d="M28.2983 29.3258C28.3084 29.8758 27.871 30.3296 27.3212 30.3398C27.147 30.343 26.9824 30.3012 26.8384 30.2253C26.5283 30.0614 26.3143 29.7382 26.3074 29.3628C26.2973 28.8129 26.7347 28.359 27.2845 28.3489C27.8344 28.3387 28.2882 28.7759 28.2983 29.3258Z"
          fill="#E11A81"/>
    <path d="M27.5391 27.7246L33.6694 19.3024C33.8636 19.0356 34.2372 18.9768 34.504 19.171V19.171C34.7707 19.3651 34.8295 19.7387 34.6354 20.0055L28.505 28.4277L27.5391 27.7246Z"
          fill="#26293A"/>
    <path d="M27.3107 29.9414C27.6405 29.9353 27.903 29.663 27.897 29.3331C27.8909 29.0032 27.6185 28.7407 27.2887 28.7468C26.9588 28.7529 26.6963 29.0252 26.7024 29.3551C26.7085 29.685 26.9808 29.9474 27.3107 29.9414Z"
          fill="white"/>
</svg>
