<svg xmlns="http://www.w3.org/2000/svg" width="120" height="120" fill="none"><path fill="#A0B2EC" fill-opacity=".16" d="M19.578 59.413C28.61 50.108 40.623 42.92 52.85 39.21c24.018-7.288 50.531 7.35 58.99 31.267 3.979 11.253 2.65 24.76-5.568 33.686-6.08 6.606-14.934 8.333-23.413 6.744-7.15-1.34-13.568-5.011-20.546-6.921-10.668-2.92-21.046-.231-31.779-1.123-5.884-.489-12.694-2.652-16.61-7.439-3.718-4.543-5.182-10.855-4.448-16.688.926-7.361 4.962-14.03 10.102-19.324Z"/><path fill="#A0B2EC" fill-opacity=".16" fill-rule="evenodd" d="M70.378 70.109c-8.796 12.173-16.016 29.784-31.01 29.55-15.52-.24-26.544-15.992-31.91-30.527-4.356-11.802 1.888-23.906 7.676-35.119 4.654-9.017 11.448-16.237 20.83-20.107 10.434-4.303 22.552-7.672 32.1-1.724 9.677 6.028 12.52 18.4 12.976 29.806.42 10.522-4.48 19.566-10.662 28.12Z" clip-rule="evenodd"/><rect width="62.59" height="38.482" x="26.852" y="58.34" fill="#F0B323" rx="3.777"/><rect width="62.59" height="38.482" x="26.852" y="58.34" fill="#000" fill-opacity=".2" rx="3.777"/><g filter="url(#a)"><path fill="#fff" d="M29.398 31.408a2.625 2.625 0 0 1 2.625-2.625h43.59v6.778a2.625 2.625 0 0 0 2.625 2.624h9.36v53.938a2.625 2.625 0 0 1-2.624 2.624h-52.95a2.625 2.625 0 0 1-2.626-2.624V31.408Z"/></g><g filter="url(#b)"><path fill="#fff" d="M34.198 97.146h48.6c2.651 0 4.8-2.148 4.8-4.797V33.58a4.799 4.799 0 0 0-4.8-4.798h-48.6c-2.65 0-4.8 2.148-4.8 4.798v58.768c0 2.65 2.15 4.797 4.8 4.797Z"/></g><rect width="22.8" height="4.797" x="35.402" y="37.18" fill="#C7414F" rx="2.399"/><rect width="46.2" height="3.598" x="35.402" y="64.766" fill="#BDCCF8" rx="1.799"/><rect width="21" height="3.598" x="35.402" y="91.15" fill="#BDCCF8" rx="1.799"/><path fill="#BDCCF8" d="M40.152 47.373a.3.3 0 0 1 .299.333l-.248 2.22a.3.3 0 0 0 .379.322l2.276-.634a.3.3 0 0 1 .378.25l.182 1.392a.3.3 0 0 1-.276.338l-1.901.134a.3.3 0 0 0-.219.48l1.275 1.696a.3.3 0 0 1-.1.445l-1.266.675a.3.3 0 0 1-.41-.131l-.847-1.7a.3.3 0 0 0-.543.014l-.73 1.657a.3.3 0 0 1-.41.146l-1.32-.665a.3.3 0 0 1-.106-.447l1.261-1.694a.3.3 0 0 0-.218-.478l-1.886-.145a.3.3 0 0 1-.273-.346l.215-1.379a.3.3 0 0 1 .379-.242l2.215.631a.3.3 0 0 0 .38-.321l-.246-2.218a.3.3 0 0 1 .298-.333h1.462ZM52.754 47.373a.3.3 0 0 1 .298.333l-.247 2.22a.3.3 0 0 0 .378.322l2.276-.634a.3.3 0 0 1 .378.25l.183 1.392a.3.3 0 0 1-.277.338l-1.9.134a.3.3 0 0 0-.22.48l1.275 1.696a.3.3 0 0 1-.099.445l-1.267.675a.3.3 0 0 1-.41-.131l-.847-1.7a.3.3 0 0 0-.543.014l-.73 1.657a.3.3 0 0 1-.41.146l-1.32-.665a.3.3 0 0 1-.106-.447l1.262-1.694a.3.3 0 0 0-.218-.478l-1.886-.145a.3.3 0 0 1-.273-.346l.215-1.379a.3.3 0 0 1 .378-.242l2.216.631a.3.3 0 0 0 .38-.321l-.247-2.218a.3.3 0 0 1 .298-.333h1.463ZM65.352 47.373a.3.3 0 0 1 .298.333l-.248 2.22a.3.3 0 0 0 .379.322l2.276-.634a.3.3 0 0 1 .378.25l.182 1.392a.3.3 0 0 1-.276.338l-1.901.134a.3.3 0 0 0-.219.48l1.275 1.696a.3.3 0 0 1-.099.445l-1.267.675a.3.3 0 0 1-.41-.131l-.847-1.7a.3.3 0 0 0-.543.014l-.73 1.657a.3.3 0 0 1-.41.146l-1.32-.665a.3.3 0 0 1-.106-.447l1.261-1.694a.3.3 0 0 0-.217-.478l-1.886-.145a.3.3 0 0 1-.274-.346l.215-1.379a.3.3 0 0 1 .379-.242l2.216.631a.3.3 0 0 0 .38-.321l-.247-2.218a.3.3 0 0 1 .298-.333h1.463ZM77.953 47.373a.3.3 0 0 1 .298.333l-.247 2.22a.3.3 0 0 0 .379.322l2.276-.634a.3.3 0 0 1 .377.25l.183 1.392a.3.3 0 0 1-.276.338l-1.901.134a.3.3 0 0 0-.22.48l1.275 1.696a.3.3 0 0 1-.098.445l-1.267.675a.3.3 0 0 1-.41-.131l-.847-1.7a.3.3 0 0 0-.543.014l-.73 1.657a.3.3 0 0 1-.41.146l-1.321-.665a.3.3 0 0 1-.106-.447l1.262-1.694a.3.3 0 0 0-.218-.478l-1.886-.145a.3.3 0 0 1-.273-.346l.215-1.379a.3.3 0 0 1 .379-.242l2.215.631a.3.3 0 0 0 .38-.321l-.247-2.218a.3.3 0 0 1 .299-.333h1.462Z"/><path fill="#F0B323" d="M82.487 97.136 26.852 65.068v25.164a6.906 6.906 0 0 0 6.908 6.904h48.727Z"/><path fill="#000" fill-opacity=".05" d="M82.487 97.136 26.852 65.068v25.164a6.906 6.906 0 0 0 6.908 6.904h48.727Z"/><path fill="#F0B323" d="m33.81 97.136 55.635-32.068v25.164a6.906 6.906 0 0 1-6.908 6.904H33.81Z"/><path fill="#000" fill-opacity=".05" d="m33.81 97.136 55.635-32.068v25.164a6.906 6.906 0 0 1-6.908 6.904H33.81Z"/><path fill="#F0B323" d="M83.262 97.136 62.754 78.805a6.91 6.91 0 0 0-9.21 0L33.034 97.136h50.227Z"/><path fill="#C7414F" d="M70.018 83.9c-5.623 5.62-14.74 5.62-20.364 0-5.624-5.62-5.624-14.734 0-20.354 5.623-5.62 14.74-5.62 20.364 0 5.624 5.62 5.624 14.733 0 20.354Z"/><path fill="#fff" fill-rule="evenodd" d="M72.055 85.935c-6.749 6.745-17.69 6.745-24.438 0-6.748-6.744-6.748-17.68 0-24.424 6.748-6.745 17.69-6.745 24.438 0 6.748 6.745 6.748 17.68 0 24.424ZM49.654 83.9c5.623 5.62 14.74 5.62 20.364 0 5.624-5.62 5.624-14.733 0-20.354-5.623-5.62-14.74-5.62-20.364 0-5.624 5.62-5.624 14.733 0 20.354Z" clip-rule="evenodd"/><path fill="#fff" fill-rule="evenodd" d="M67.532 74.125a7.713 7.713 0 0 1-7.715 7.71 7.713 7.713 0 0 1-7.715-7.71 7.713 7.713 0 0 1 7.715-7.71 7.713 7.713 0 0 1 7.715 7.71Zm-7.715 5.612a5.614 5.614 0 0 0 5.615-5.612c0-3.1-2.514-5.612-5.615-5.612a5.614 5.614 0 0 0-5.615 5.612c0 3.1 2.514 5.612 5.615 5.612Z" clip-rule="evenodd"/><rect width="4.491" height="2.245" fill="#fff" rx="1.123" transform="rotate(-40.029 116.872 -37.365) skewX(.031)"/><rect width="4.198" height="1.8" x="58.637" y="75.522" fill="#fff" rx=".9" transform="rotate(-90 58.637 75.522)"/><rect width="4.2" height="1.799" x="58.637" y="73.723" fill="#fff" rx=".9"/><rect width="4.491" height="2.245" fill="#fff" rx="1.123" transform="matrix(-.77566 -.63115 -.63156 .77533 68.238 66.38)"/><defs><filter id="a" width="68.015" height="75.781" x="24.491" y="26.329" color-interpolation-filters="sRGB" filterUnits="userSpaceOnUse"><feFlood flood-opacity="0" result="BackgroundImageFix"/><feColorMatrix in="SourceAlpha" result="hardAlpha" values="0 0 0 0 0 0 0 0 0 0 0 0 0 0 0 0 0 0 127 0"/><feOffset dy="2.454"/><feGaussianBlur stdDeviation="2.454"/><feColorMatrix values="0 0 0 0 0.0470588 0 0 0 0 0.254902 0 0 0 0 0.603922 0 0 0 0.1 0"/><feBlend in2="BackgroundImageFix" result="effect1_dropShadow_31229_151755"/><feBlend in="SourceGraphic" in2="effect1_dropShadow_31229_151755" result="shape"/></filter><filter id="b" width="68.015" height="78.179" x="24.491" y="26.329" color-interpolation-filters="sRGB" filterUnits="userSpaceOnUse"><feFlood flood-opacity="0" result="BackgroundImageFix"/><feColorMatrix in="SourceAlpha" result="hardAlpha" values="0 0 0 0 0 0 0 0 0 0 0 0 0 0 0 0 0 0 127 0"/><feOffset dy="2.454"/><feGaussianBlur stdDeviation="2.454"/><feColorMatrix values="0 0 0 0 0.0470588 0 0 0 0 0.254902 0 0 0 0 0.603922 0 0 0 0.1 0"/><feBlend in2="BackgroundImageFix" result="effect1_dropShadow_31229_151755"/><feBlend in="SourceGraphic" in2="effect1_dropShadow_31229_151755" result="shape"/></filter></defs></svg>