<svg xmlns="http://www.w3.org/2000/svg" width="64" height="64" fill="none"><path fill="#A0B2EC" fill-opacity=".16" d="M10.443 31.703c4.816-4.965 11.223-8.8 17.744-10.78 12.81-3.889 26.95 3.923 31.462 16.685 2.122 6.005 1.413 13.213-2.97 17.976-3.243 3.525-7.965 4.446-12.486 3.598-3.814-.715-7.237-2.673-10.959-3.693-5.69-1.558-11.224-.123-16.948-.6-3.139-.26-6.77-1.414-8.86-3.968-1.982-2.425-2.763-5.793-2.371-8.905.494-3.929 2.646-7.487 5.388-10.313Z"/><path fill="#A0B2EC" fill-opacity=".16" fill-rule="evenodd" d="M37.534 37.41c-4.691 6.497-8.541 15.894-16.538 15.77-8.278-.129-14.157-8.535-17.019-16.29-2.323-6.299 1.007-12.757 4.094-18.74 2.482-4.812 6.105-8.665 11.11-10.73C24.744 5.123 31.207 3.325 36.3 6.5c5.16 3.216 6.678 9.819 6.92 15.905.225 5.614-2.389 10.44-5.686 15.005Z" clip-rule="evenodd"/><path fill="#F0B323" d="M14.316 34.817a3.684 3.684 0 0 1 3.685-3.684h26.013a3.684 3.684 0 0 1 3.684 3.684v13.166a3.684 3.684 0 0 1-3.684 3.684H18a3.684 3.684 0 0 1-3.685-3.684V34.817Z"/><path fill="#000" fill-opacity=".2" d="M14.316 34.817a3.684 3.684 0 0 1 3.685-3.684h26.013a3.684 3.684 0 0 1 3.684 3.684v13.166a3.684 3.684 0 0 1-3.684 3.684H18a3.684 3.684 0 0 1-3.685-3.684V34.817Z"/><g filter="url(#a)"><path fill="#fff" d="M15.684 18.775a3.413 3.413 0 0 1 3.413-3.414H40.33v1.604a3.413 3.413 0 0 0 3.414 3.413h2.979v26.77a3.413 3.413 0 0 1-3.414 3.413H19.097a3.413 3.413 0 0 1-3.413-3.413V18.775Z"/></g><g filter="url(#b)"><path fill="#fff" d="M18.24 51.841h25.92a2.56 2.56 0 0 0 2.56-2.56v-31.36a2.56 2.56 0 0 0-2.56-2.56H18.24a2.56 2.56 0 0 0-2.56 2.56v31.36a2.56 2.56 0 0 0 2.56 2.56Z"/></g><rect width="12.16" height="2.56" x="18.883" y="19.842" fill="#0C419A" rx="1.28"/><rect width="24.64" height="1.92" x="18.883" y="34.563" fill="#BDCCF8" rx=".96"/><rect width="11.2" height="1.92" x="18.883" y="48.643" fill="#BDCCF8" rx=".96"/><path fill="#BDCCF8" d="M21.417 25.281a.16.16 0 0 1 .159.178l-.132 1.185a.16.16 0 0 0 .202.172l1.213-.339a.16.16 0 0 1 .202.133l.097.744a.16.16 0 0 1-.147.18l-1.014.071a.16.16 0 0 0-.116.256l.68.905a.16.16 0 0 1-.053.238l-.676.36a.16.16 0 0 1-.219-.07l-.452-.907a.16.16 0 0 0-.29.007l-.389.884a.16.16 0 0 1-.218.079l-.704-.355a.16.16 0 0 1-.057-.239l.673-.904a.16.16 0 0 0-.116-.255l-1.006-.078a.16.16 0 0 1-.146-.184l.115-.736a.16.16 0 0 1 .202-.129l1.182.337a.16.16 0 0 0 .203-.172l-.132-1.183a.16.16 0 0 1 .159-.178h.78ZM28.135 25.281a.16.16 0 0 1 .16.178l-.133 1.185a.16.16 0 0 0 .202.172l1.214-.339a.16.16 0 0 1 .202.133l.097.744a.16.16 0 0 1-.147.18l-1.014.071a.16.16 0 0 0-.117.256l.68.905a.16.16 0 0 1-.053.238l-.675.36a.16.16 0 0 1-.219-.07l-.452-.907a.16.16 0 0 0-.29.007l-.389.884a.16.16 0 0 1-.218.079l-.705-.355a.16.16 0 0 1-.056-.239l.673-.904a.16.16 0 0 0-.116-.255l-1.006-.078a.16.16 0 0 1-.146-.184l.115-.736a.16.16 0 0 1 .202-.129l1.181.337a.16.16 0 0 0 .203-.172l-.132-1.183a.16.16 0 0 1 .16-.178h.78ZM34.858 25.281a.16.16 0 0 1 .16.178l-.133 1.185a.16.16 0 0 0 .202.172l1.214-.339a.16.16 0 0 1 .201.133l.098.744a.16.16 0 0 1-.148.18l-1.013.071a.16.16 0 0 0-.117.256l.68.905a.16.16 0 0 1-.053.238l-.676.36a.16.16 0 0 1-.218-.07l-.452-.907a.16.16 0 0 0-.29.007l-.39.884a.16.16 0 0 1-.218.079l-.704-.355a.16.16 0 0 1-.056-.239l.672-.904a.16.16 0 0 0-.116-.255l-1.006-.078a.16.16 0 0 1-.145-.184l.114-.736a.16.16 0 0 1 .202-.129l1.182.337a.16.16 0 0 0 .203-.172l-.132-1.183a.16.16 0 0 1 .159-.178h.78ZM41.577 25.281a.16.16 0 0 1 .159.178l-.132 1.185a.16.16 0 0 0 .202.172l1.214-.339a.16.16 0 0 1 .201.133l.098.744a.16.16 0 0 1-.148.18l-1.014.071a.16.16 0 0 0-.116.256l.68.905a.16.16 0 0 1-.053.238l-.676.36a.16.16 0 0 1-.218-.07l-.452-.907a.16.16 0 0 0-.29.007l-.39.884a.16.16 0 0 1-.218.079l-.704-.355a.16.16 0 0 1-.057-.239l.673-.904a.16.16 0 0 0-.116-.255l-1.006-.078a.16.16 0 0 1-.146-.184l.115-.736a.16.16 0 0 1 .202-.129l1.182.337a.16.16 0 0 0 .203-.172l-.132-1.183a.16.16 0 0 1 .159-.178h.78Z"/><path fill="#F0B323" d="M43.989 51.837 14.316 34.725v13.428a3.684 3.684 0 0 0 3.685 3.684h25.988Z"/><path fill="#000" fill-opacity=".05" d="M43.989 51.837 14.316 34.725v13.428a3.684 3.684 0 0 0 3.685 3.684h25.988Z"/><path fill="#F0B323" d="m18.027 51.835 29.672-17.112V48.15a3.684 3.684 0 0 1-3.684 3.684H18.027Z"/><path fill="#000" fill-opacity=".05" d="m18.027 51.835 29.672-17.112V48.15a3.684 3.684 0 0 1-3.684 3.684H18.027Z"/><path fill="#F0B323" d="m44.4 51.835-10.937-9.782a3.684 3.684 0 0 0-4.912 0l-10.938 9.782h26.788Z"/><defs><filter id="a" width="43.804" height="47.964" x="9.301" y="12.17" color-interpolation-filters="sRGB" filterUnits="userSpaceOnUse"><feFlood flood-opacity="0" result="BackgroundImageFix"/><feColorMatrix in="SourceAlpha" result="hardAlpha" values="0 0 0 0 0 0 0 0 0 0 0 0 0 0 0 0 0 0 127 0"/><feOffset dy="3.191"/><feGaussianBlur stdDeviation="3.191"/><feColorMatrix values="0 0 0 0 0.0470588 0 0 0 0 0.254902 0 0 0 0 0.603922 0 0 0 0.1 0"/><feBlend in2="BackgroundImageFix" result="effect1_dropShadow_31229_151417"/><feBlend in="SourceGraphic" in2="effect1_dropShadow_31229_151417" result="shape"/></filter><filter id="b" width="43.804" height="49.245" x="9.297" y="12.17" color-interpolation-filters="sRGB" filterUnits="userSpaceOnUse"><feFlood flood-opacity="0" result="BackgroundImageFix"/><feColorMatrix in="SourceAlpha" result="hardAlpha" values="0 0 0 0 0 0 0 0 0 0 0 0 0 0 0 0 0 0 127 0"/><feOffset dy="3.191"/><feGaussianBlur stdDeviation="3.191"/><feColorMatrix values="0 0 0 0 0.0470588 0 0 0 0 0.254902 0 0 0 0 0.603922 0 0 0 0.1 0"/><feBlend in2="BackgroundImageFix" result="effect1_dropShadow_31229_151417"/><feBlend in="SourceGraphic" in2="effect1_dropShadow_31229_151417" result="shape"/></filter></defs></svg>