<svg width="160" height="161" viewBox="0 0 160 161" fill="none" xmlns="http://www.w3.org/2000/svg">
<path d="M144.801 93.4388C136.067 109.111 122.591 123.019 107.584 132.357C78.1027 150.698 37.435 140.621 17.5658 111.676C8.21822 98.0577 5.15625 79.5257 12.9383 64.6512C18.6962 53.6427 29.907 48.1649 41.8046 47.2531C51.8394 46.4844 61.7284 49.0938 71.7361 49.149C87.0364 49.2342 99.9387 41.9239 114.599 39.2741C122.636 37.821 132.51 38.2744 139.457 43.2708C146.052 48.0132 150.268 55.928 151.377 63.9879C152.777 74.1605 149.772 84.5205 144.801 93.4388Z" fill="#A0B2EC" fill-opacity="0.16"/>
<path fill-rule="evenodd" clip-rule="evenodd" d="M35.1386 88.0533C30.6683 67.7571 19.1313 44.0789 33.1809 28.8176C47.7229 13.0214 74.1416 16.159 94.0929 24.0143C110.293 30.3925 117.041 47.9904 123.29 64.2954C128.315 77.4083 129.514 91.0726 124.869 104.323C119.705 119.056 112.023 134.668 97.0884 139.041C81.9511 143.474 66.5556 135.008 54.3583 124.969C43.1055 115.708 38.28 102.316 35.1386 88.0533Z" fill="#A0B2EC" fill-opacity="0.16"/>
<path d="M130.402 73.0486L130.402 131.297C130.402 134.478 127.823 137.057 124.642 137.057L35.3616 137.057C32.1804 137.057 29.6016 134.478 29.6016 131.297L29.6016 61.5286C29.6016 58.3474 32.1804 55.7686 35.3616 55.7686L58.365 55.7686C61.5462 55.7686 64.125 58.3474 64.125 61.5286L64.125 64.4086C64.125 65.9991 65.4144 67.2886 67.005 67.2886L124.642 67.2886C127.823 67.2886 130.402 69.8674 130.402 73.0486Z" fill="#0C419A"/>
<path d="M130.402 73.0486L130.402 131.297C130.402 134.478 127.823 137.057 124.642 137.057L35.3616 137.057C32.1804 137.057 29.6016 134.478 29.6016 131.297L29.6016 61.5286C29.6016 58.3474 32.1804 55.7686 35.3616 55.7686L58.365 55.7686C61.5462 55.7686 64.125 58.3474 64.125 61.5286L64.125 64.4086C64.125 65.9991 65.4144 67.2886 67.005 67.2886L124.642 67.2886C127.823 67.2886 130.402 69.8674 130.402 73.0486Z" fill="black" fill-opacity="0.3"/>
<g filter="url(#filter0_d_13738_82634)">
<path d="M26.5966 64.1614C25.1625 61.6776 26.0135 58.5015 28.4974 57.0675L67.2568 34.6897L71.137 41.4104C72.571 43.8942 75.7471 44.7452 78.2309 43.3112L84.9516 39.431L121.318 102.42C122.752 104.904 121.901 108.08 119.417 109.514L73.9373 135.772C71.4535 137.206 68.2774 136.355 66.8434 133.871L26.5966 64.1614Z" fill="white"/>
</g>
<path d="M76.231 44.4671L84.9526 39.4317L67.2578 34.6904L72.2932 43.412C73.0892 44.7907 74.8523 45.2631 76.231 44.4671Z" fill="#BDCCF8"/>
<rect x="36.1133" y="67.6621" width="24.6673" height="5.19312" rx="2.59656" transform="rotate(-30 36.1133 67.6621)" fill="#0C419A"/>
<rect x="41.957" y="77.7812" width="49.9838" height="3.89484" rx="1.94742" transform="rotate(-30 41.957 77.7812)" fill="#BDCCF8"/>
<rect x="47.1484" y="86.7754" width="49.9838" height="3.89484" rx="1.94742" transform="rotate(-30 47.1484 86.7754)" fill="#BDCCF8"/>
<rect x="61.8984" y="90.2529" width="38.9484" height="3.89484" rx="1.94742" transform="rotate(-30 61.8984 90.2529)" fill="#BDCCF8"/>
<rect x="52.0195" y="95.208" width="7.78969" height="5.19312" rx="2.59656" transform="rotate(-30 52.0195 95.208)" fill="#0C419A"/>
<rect x="57.2109" y="104.203" width="7.78969" height="5.19312" rx="2.59656" transform="rotate(-30 57.2109 104.203)" fill="#0C419A"/>
<rect x="62.4023" y="113.197" width="7.78969" height="5.19312" rx="2.59656" transform="rotate(-30 62.4023 113.197)" fill="#0C419A"/>
<rect x="67.0938" y="99.2471" width="38.9484" height="3.89484" rx="1.94742" transform="rotate(-30 67.0938 99.2471)" fill="#BDCCF8"/>
<rect x="72.2852" y="108.242" width="20.1234" height="3.89484" rx="1.94742" transform="rotate(-30 72.2852 108.242)" fill="#BDCCF8"/>
<g filter="url(#filter1_d_13738_82634)">
<path d="M38.1449 47.1099C37.4025 44.3396 39.0466 41.492 41.817 40.7497L85.0475 29.1661L92.5434 27.1576C95.3137 26.4152 98.1613 28.0593 98.9036 30.8297L100.912 38.3256L119.737 108.581C120.479 111.351 118.835 114.198 116.065 114.941L65.3384 128.533C62.568 129.275 59.7205 127.631 58.9781 124.861L38.1449 47.1099Z" fill="white"/>
</g>
<rect x="55.4922" y="86.7793" width="49.9838" height="3.89484" rx="1.94742" transform="rotate(-15 55.4922 86.7793)" fill="#BDCCF8"/>
<rect x="91.5703" y="79.5977" width="13.6" height="4" rx="2" transform="rotate(-15 91.5703 79.5977)" fill="#BDCCF8"/>
<rect x="77.8086" y="102.344" width="32.457" height="3.89484" rx="1.94742" transform="rotate(-15 77.8086 102.344)" fill="#BDCCF8"/>
<rect x="75.2891" y="92.9375" width="22.0708" height="3.89484" rx="1.94742" transform="rotate(-15 75.2891 92.9375)" fill="#BDCCF8"/>
<rect x="79.9922" y="110.494" width="22.0708" height="3.89484" rx="1.94742" transform="rotate(-15 79.9922 110.494)" fill="#BDCCF8"/>
<rect x="60.8789" y="106.879" width="12.3337" height="12.3337" rx="1.64965" transform="rotate(-15 60.8789 106.879)" fill="#F9FAFF"/>
<rect x="73.4922" y="102.828" width="2.33691" height="12.4662" rx="1.16845" transform="rotate(30 73.4922 102.828)" fill="#0C419A"/>
<rect width="2.33691" height="6.7152" rx="1.16845" transform="matrix(-0.5 0.866025 0.866025 0.5 64.6172 109.433)" fill="#0C419A"/>
<rect width="2.33691" height="6.7152" rx="1.16845" transform="matrix(-0.5 0.866025 0.866025 0.5 60.082 92.5029)" fill="#0C419A"/>
<path d="M75.1408 54.0214C74.4482 54.207 73.7363 53.796 73.5507 53.1034L73.2627 52.0285C73.0771 51.3359 73.4881 50.624 74.1807 50.4384L75.2556 50.1504C75.9482 49.9648 76.6601 50.3758 76.8457 51.0684L77.1337 52.1433C77.3193 52.8359 76.9082 53.5478 76.2157 53.7334L75.1408 54.0214Z" fill="#0C419A"/>
<path d="M73.2228 46.8544C72.5302 47.04 71.8183 46.629 71.6327 45.9364L71.3447 44.8615C71.1591 44.1689 71.5701 43.457 72.2627 43.2714L73.3376 42.9834C74.0302 42.7978 74.7421 43.2088 74.9277 43.9014L75.2157 44.9763C75.4013 45.6689 74.9903 46.3808 74.2977 46.5664L73.2228 46.8544Z" fill="#0C419A"/>
<path d="M67.9767 55.9413C67.2841 56.1269 66.5722 55.7159 66.3866 55.0233L66.0986 53.9484C65.913 53.2558 66.3241 52.5439 67.0166 52.3583L68.0915 52.0703C68.7841 51.8847 69.496 52.2958 69.6816 52.9883L69.9696 54.0632C70.1552 54.7558 69.7442 55.4677 69.0516 55.6533L67.9767 55.9413Z" fill="#0C419A"/>
<path d="M70.5978 51.3993C69.9052 51.5849 69.1933 51.1739 69.0077 50.4813L68.7197 49.4064C68.5341 48.7138 68.9451 48.0019 69.6377 47.8164L70.7126 47.5283C71.4052 47.3428 72.1171 47.7538 72.3027 48.4464L72.5907 49.5213C72.7763 50.2138 72.3653 50.9257 71.6727 51.1113L70.5978 51.3993Z" fill="#0C419A"/>
<path d="M66.0548 48.7753C65.3622 48.9609 64.6503 48.5499 64.4648 47.8573L64.1767 46.7824C63.9912 46.0898 64.4022 45.3779 65.0948 45.1923L66.1697 44.9043C66.8623 44.7187 67.5741 45.1297 67.7597 45.8223L68.0477 46.8972C68.2333 47.5898 67.8223 48.3017 67.1297 48.4873L66.0548 48.7753Z" fill="#0C419A"/>
<path d="M59.8134 73.4892C58.8632 73.7438 57.8507 73.6105 56.9987 73.1186C56.1467 72.6267 55.525 71.8165 55.2704 70.8662L54.3104 67.2833C54.0557 66.333 54.189 65.3205 54.6809 64.4685C55.1728 63.6165 55.983 62.9948 56.9333 62.7402L60.5163 61.7802C61.4665 61.5255 62.479 61.6588 63.331 62.1507C64.183 62.6426 64.8047 63.4528 65.0593 64.4031L66.0194 67.9861C66.274 68.9363 66.1407 69.9488 65.6488 70.8008C65.1569 71.6528 64.3467 72.2745 63.3964 72.5291L59.8134 73.4892ZM57.0619 70.3862C57.1892 70.8613 57.5001 71.2664 57.926 71.5124C58.352 71.7583 58.8583 71.825 59.3334 71.6977L62.9164 70.7376C63.3915 70.6103 63.7966 70.2995 64.0426 69.8735C64.2885 69.4475 64.3552 68.9412 64.2279 68.4661L63.2678 64.8831C63.1405 64.408 62.8297 64.0029 62.4037 63.7569C61.9777 63.511 61.4714 63.4443 60.9963 63.5717L57.4133 64.5317C56.9382 64.659 56.5331 64.9699 56.2871 65.3959C56.0412 65.8219 55.9745 66.3281 56.1018 66.8032L57.0619 70.3862Z" fill="#0C419A"/>
<path d="M58.8516 69.9072L57.8915 66.3242L61.4745 65.3642L62.4345 68.9472L58.8516 69.9072Z" fill="#0C419A"/>
<path d="M74.1455 69.6503C73.1952 69.9049 72.1827 69.7716 71.3307 69.2797C70.4788 68.7878 69.8571 67.9776 69.6024 67.0274L68.6424 63.4444C68.3878 62.4941 68.5211 61.4816 69.013 60.6296C69.5048 59.7777 70.315 59.156 71.2653 58.9014L74.8483 57.9413C75.7986 57.6867 76.811 57.82 77.663 58.3119C78.515 58.8038 79.1367 59.614 79.3913 60.5642L80.3514 64.1472C80.606 65.0975 80.4727 66.11 79.9808 66.9619C79.4889 67.8139 78.6787 68.4356 77.7285 68.6902L74.1455 69.6503ZM71.3939 66.5473C71.5212 67.0225 71.8321 67.4276 72.2581 67.6735C72.6841 67.9195 73.1903 67.9861 73.6655 67.8588L77.2484 66.8987C77.7236 66.7714 78.1287 66.4606 78.3746 66.0346C78.6206 65.6086 78.6872 65.1024 78.5599 64.6272L77.5998 61.0442C77.4725 60.5691 77.1617 60.164 76.7357 59.9181C76.3097 59.6721 75.8035 59.6055 75.3283 59.7328L71.7453 60.6928C71.2702 60.8202 70.8651 61.131 70.6192 61.557C70.3732 61.983 70.3066 62.4892 70.4339 62.9644L71.3939 66.5473Z" fill="#0C419A"/>
<path d="M73.1836 66.0654L72.2235 62.4824L75.8065 61.5224L76.7666 65.1054L73.1836 66.0654Z" fill="#0C419A"/>
<path d="M55.9736 59.1571C55.0233 59.4118 54.0108 59.2785 53.1589 58.7866C52.3069 58.2947 51.6852 57.4845 51.4306 56.5342L50.4705 52.9512C50.2159 52.001 50.3492 50.9885 50.8411 50.1365C51.333 49.2845 52.1432 48.6628 53.0934 48.4082L56.6764 47.4481C57.6267 47.1935 58.6392 47.3268 59.4912 47.8187C60.3431 48.3106 60.9648 49.1208 61.2195 50.0711L62.1795 53.654C62.4341 54.6043 62.3008 55.6168 61.8089 56.4688C61.317 57.3208 60.5069 57.9425 59.5566 58.1971L55.9736 59.1571ZM53.2221 56.0542C53.3494 56.5293 53.6602 56.9344 54.0862 57.1804C54.5122 57.4263 55.0184 57.493 55.4936 57.3656L59.0766 56.4056C59.5517 56.2783 59.9568 55.9674 60.2027 55.5414C60.4487 55.1154 60.5153 54.6092 60.388 54.1341L59.428 50.5511C59.3007 50.076 58.9898 49.6709 58.5638 49.4249C58.1378 49.179 57.6316 49.1123 57.1564 49.2396L53.5735 50.1997C53.0983 50.327 52.6932 50.6378 52.4473 51.0638C52.2013 51.4898 52.1347 51.9961 52.262 52.4712L53.2221 56.0542Z" fill="#0C419A"/>
<path d="M55.0117 55.5742L54.0517 51.9912L57.6346 51.0312L58.5947 54.6142L55.0117 55.5742Z" fill="#0C419A"/>
<g filter="url(#filter2_d_13738_82634)">
<path d="M65.1931 119.092H117.709C120.577 119.092 122.902 116.767 122.902 113.899V33.405C122.902 30.537 120.577 28.2119 117.709 28.2119L65.1931 28.2119C62.325 28.2119 60 30.5369 60 33.405L60 113.899C60 116.767 62.325 119.092 65.1931 119.092Z" fill="white"/>
</g>
<path d="M96.5586 36.5262C96.5586 35.0922 97.7211 33.9297 99.1552 33.9297H114.085C115.519 33.9297 116.682 35.0922 116.682 36.5262C116.682 37.9603 115.519 39.1228 114.085 39.1228H99.1552C97.7211 39.1228 96.5586 37.9603 96.5586 36.5262Z" fill="#0C419A"/>
<path d="M96.5547 46.9132C96.5547 45.8377 97.4266 44.9658 98.5021 44.9658H114.731C115.806 44.9658 116.678 45.8377 116.678 46.9132C116.678 47.9888 115.806 48.8607 114.731 48.8607H98.5021C97.4266 48.8607 96.5547 47.9888 96.5547 46.9132Z" fill="#BDCCF8"/>
<path d="M96.5547 56.6505C96.5547 55.575 97.4266 54.7031 98.5021 54.7031H101.748C102.823 54.7031 103.695 55.575 103.695 56.6505C103.695 57.7261 102.823 58.598 101.748 58.598H98.5021C97.4266 58.598 96.5547 57.7261 96.5547 56.6505Z" fill="#BDCCF8"/>
<path d="M92.6609 46.9135C92.6609 54.0837 86.8483 59.8963 79.6781 59.8963C72.5079 59.8963 66.6953 54.0837 66.6953 46.9135C66.6953 39.7433 72.5079 33.9307 79.6781 33.9307C86.8483 33.9307 92.6609 39.7433 92.6609 46.9135Z" fill="#F9FAFF"/>
<path d="M75.5022 42.8812C75.5022 40.8056 77.2278 39.123 79.3565 39.123C81.4852 39.123 83.2108 40.8056 83.2108 42.8812C83.2108 44.9568 81.4852 46.6394 79.3565 46.6394C77.2278 46.6394 75.5022 44.9568 75.5022 42.8812ZM79.3565 45.1361C80.6337 45.1361 81.6691 44.1266 81.6691 42.8812C81.6691 41.6359 80.6337 40.6263 79.3565 40.6263C78.0793 40.6263 77.0439 41.6359 77.0439 42.8812C77.0439 44.1266 78.0793 45.1361 79.3565 45.1361Z" fill="#0C419A"/>
<path d="M74.9959 49.1522C74.0268 50.0972 73.4135 51.3243 73.2402 52.6355C73.1845 53.0575 73.5348 53.4041 73.9605 53.4041C74.3862 53.4041 74.7245 53.0564 74.7987 52.6372C74.96 51.7258 75.4063 50.878 76.086 50.2152C76.9534 49.3695 78.1298 48.8943 79.3565 48.8943C80.5832 48.8943 81.7596 49.3695 82.627 50.2152C83.3067 50.878 83.753 51.7258 83.9143 52.6372C83.9885 53.0564 84.3267 53.4041 84.7525 53.4041C85.1782 53.4041 85.5285 53.0575 85.4728 52.6355C85.2995 51.3243 84.6862 50.0972 83.7171 49.1522C82.5606 48.0246 80.992 47.391 79.3565 47.391C77.721 47.391 76.1524 48.0246 74.9959 49.1522Z" fill="#0C419A"/>
<path d="M66.6953 68.9833C66.6953 67.5492 67.8578 66.3867 69.2919 66.3867H71.8884C73.3225 66.3867 74.485 67.5492 74.485 68.9833C74.485 70.4173 73.3225 71.5798 71.8884 71.5798H69.2919C67.8578 71.5798 66.6953 70.4173 66.6953 68.9833Z" fill="#0C419A"/>
<path d="M66.6953 79.37C66.6953 77.936 67.8578 76.7734 69.2919 76.7734H71.8884C73.3225 76.7734 74.485 77.936 74.485 79.37C74.485 80.804 73.3225 81.9666 71.8884 81.9666H69.2919C67.8578 81.9666 66.6953 80.804 66.6953 79.37Z" fill="#A05BB6"/>
<path d="M77.7344 68.9836C77.7344 67.908 78.6063 67.0361 79.6818 67.0361H114.735C115.811 67.0361 116.683 67.908 116.683 68.9836C116.683 70.0591 115.811 70.931 114.735 70.931H79.6818C78.6063 70.931 77.7344 70.0591 77.7344 68.9836Z" fill="#BDCCF8"/>
<path d="M77.7305 79.3703C77.7305 78.2947 78.6024 77.4229 79.6779 77.4229H95.9064C96.9819 77.4229 97.8538 78.2947 97.8538 79.3703C97.8538 80.4458 96.9819 81.3177 95.9064 81.3177H79.6779C78.6024 81.3177 77.7305 80.4458 77.7305 79.3703Z" fill="#BDCCF8"/>
<path d="M66.6953 90.1077C66.6953 89.1966 67.4339 88.458 68.345 88.458H115.029C115.941 88.458 116.679 89.1966 116.679 90.1077V105.633C116.679 106.545 115.941 107.283 115.029 107.283H68.345C67.4339 107.283 66.6953 106.545 66.6953 105.633V90.1077Z" fill="#F9FAFF"/>
<path fill-rule="evenodd" clip-rule="evenodd" d="M93.1831 93.7155L89.9168 100.154C89.6679 100.645 89.1644 100.954 88.6142 100.954H86.7382L85.6868 104.015C85.2535 105.277 83.4951 105.345 82.9651 104.121L79.7213 96.6294L78.1525 100.096C77.916 100.618 77.3954 100.954 76.8218 100.954H71.8896C71.4414 100.954 71.0781 100.591 71.0781 100.143C71.0781 99.6946 71.4414 99.3314 71.8896 99.3314H76.7171L78.3939 95.6263C78.9166 94.4715 80.5613 94.485 81.0649 95.6482L84.288 103.092L85.241 100.317C85.4436 99.7275 85.9986 99.3314 86.6223 99.3314H88.5146L91.9027 92.6524C92.4775 91.5192 94.1251 91.6098 94.5723 92.7991L98.0049 101.928L98.8036 100.184C99.0415 99.6644 99.5603 99.3314 100.132 99.3314H102.784L104.12 96.6975C104.661 95.6311 106.184 95.6311 106.725 96.6975L108.061 99.3314H111.487C111.935 99.3314 112.299 99.6946 112.299 100.143C112.299 100.591 111.935 100.954 111.487 100.954H107.962C107.411 100.954 106.908 100.645 106.659 100.154L105.423 97.717L104.186 100.154C103.937 100.645 103.434 100.954 102.884 100.954H100.236L99.3181 102.958C98.7773 104.139 97.08 104.079 96.623 102.864L93.1831 93.7155Z" fill="#A05BB6"/>
<path d="M29.6021 79.9177L29.6021 138.166C29.6021 141.347 32.181 143.926 35.3621 143.926L124.642 143.926C127.824 143.926 130.402 141.347 130.402 138.166L130.402 68.3977C130.402 65.2165 127.824 62.6377 124.642 62.6377L109.785 62.6377C108.257 62.6377 106.792 63.2446 105.712 64.3248L96.7224 73.3142C96.1823 73.8543 95.4498 74.1577 94.686 74.1577L35.3621 74.1577C32.181 74.1577 29.6021 76.7365 29.6021 79.9177Z" fill="#0C419A"/>
<path d="M100.642 107.252C100.642 117.856 92.0461 126.452 81.4422 126.452C70.8383 126.452 62.2422 117.856 62.2422 107.252C62.2422 96.6479 70.8383 88.0518 81.4422 88.0518C92.0461 88.0518 100.642 96.6479 100.642 107.252Z" fill="#0C419A"/>
<path d="M81.6016 115.411C79.6334 115.435 77.6856 115.011 75.9064 114.169C74.5272 113.496 73.2887 112.567 72.2572 111.431C71.1645 110.256 70.3041 108.886 69.7216 107.391L69.6016 107.012L69.7276 106.633C70.3105 105.14 71.169 103.769 72.2584 102.593C73.2896 101.457 74.5276 100.528 75.9064 99.8551C77.6856 99.0135 79.6334 98.5888 81.6016 98.6133C83.5697 98.5889 85.5175 99.0136 87.2968 99.8551C88.676 100.528 89.9144 101.457 90.946 102.593C92.0407 103.766 92.9013 105.137 93.4816 106.633L93.6016 107.012L93.4756 107.391C91.593 112.291 86.8506 115.494 81.6016 115.411ZM81.6016 101.013C77.5166 100.885 73.7673 103.263 72.142 107.012C73.767 110.762 77.5165 113.139 81.6016 113.011C85.6864 113.139 89.4356 110.761 91.0612 107.012C89.438 103.261 85.6873 100.882 81.6016 101.013ZM81.6016 110.611C79.8704 110.623 78.3728 109.408 78.0267 107.712C77.6806 106.016 78.5827 104.312 80.18 103.645C81.7774 102.977 83.6238 103.533 84.5878 104.971C85.5518 106.408 85.364 108.327 84.1396 109.551C83.4691 110.229 82.5553 110.611 81.6016 110.611Z" fill="#E7ECFA"/>
<path fill-rule="evenodd" clip-rule="evenodd" d="M104.482 107.252C104.482 119.977 94.167 130.292 81.4423 130.292C68.7177 130.292 58.4023 119.977 58.4023 107.252C58.4023 94.5273 68.7177 84.2119 81.4423 84.2119C94.167 84.2119 104.482 94.5273 104.482 107.252ZM81.4423 126.452C92.0462 126.452 100.642 117.856 100.642 107.252C100.642 96.648 92.0462 88.0519 81.4423 88.0519C70.8385 88.0519 62.2423 96.648 62.2423 107.252C62.2423 117.856 70.8385 126.452 81.4423 126.452Z" fill="#E7ECFA"/>
<defs>
<filter id="filter0_d_13738_82634" x="16.1879" y="29.8342" width="115.538" height="121.2" filterUnits="userSpaceOnUse" color-interpolation-filters="sRGB">
<feFlood flood-opacity="0" result="BackgroundImageFix"/>
<feColorMatrix in="SourceAlpha" type="matrix" values="0 0 0 0 0 0 0 0 0 0 0 0 0 0 0 0 0 0 127 0" result="hardAlpha"/>
<feOffset dy="4.85526"/>
<feGaussianBlur stdDeviation="4.85526"/>
<feColorMatrix type="matrix" values="0 0 0 0 0.0470588 0 0 0 0 0.254902 0 0 0 0 0.603922 0 0 0 0.1 0"/>
<feBlend mode="normal" in2="BackgroundImageFix" result="effect1_dropShadow_13738_82634"/>
<feBlend mode="normal" in="SourceGraphic" in2="effect1_dropShadow_13738_82634" result="shape"/>
</filter>
<filter id="filter1_d_13738_82634" x="28.2543" y="22.1242" width="101.37" height="121.152" filterUnits="userSpaceOnUse" color-interpolation-filters="sRGB">
<feFlood flood-opacity="0" result="BackgroundImageFix"/>
<feColorMatrix in="SourceAlpha" type="matrix" values="0 0 0 0 0 0 0 0 0 0 0 0 0 0 0 0 0 0 127 0" result="hardAlpha"/>
<feOffset dy="4.85526"/>
<feGaussianBlur stdDeviation="4.85526"/>
<feColorMatrix type="matrix" values="0 0 0 0 0.0470588 0 0 0 0 0.254902 0 0 0 0 0.603922 0 0 0 0.1 0"/>
<feBlend mode="normal" in2="BackgroundImageFix" result="effect1_dropShadow_13738_82634"/>
<feBlend mode="normal" in="SourceGraphic" in2="effect1_dropShadow_13738_82634" result="shape"/>
</filter>
<filter id="filter2_d_13738_82634" x="50.2895" y="23.3567" width="82.3234" height="110.301" filterUnits="userSpaceOnUse" color-interpolation-filters="sRGB">
<feFlood flood-opacity="0" result="BackgroundImageFix"/>
<feColorMatrix in="SourceAlpha" type="matrix" values="0 0 0 0 0 0 0 0 0 0 0 0 0 0 0 0 0 0 127 0" result="hardAlpha"/>
<feOffset dy="4.85526"/>
<feGaussianBlur stdDeviation="4.85526"/>
<feColorMatrix type="matrix" values="0 0 0 0 0.0470588 0 0 0 0 0.254902 0 0 0 0 0.603922 0 0 0 0.1 0"/>
<feBlend mode="normal" in2="BackgroundImageFix" result="effect1_dropShadow_13738_82634"/>
<feBlend mode="normal" in="SourceGraphic" in2="effect1_dropShadow_13738_82634" result="shape"/>
</filter>
</defs>
</svg>
