<svg width="64" height="64" viewBox="0 0 64 64" fill="none" xmlns="http://www.w3.org/2000/svg">
    <path fill-rule="evenodd" clip-rule="evenodd"
        d="M5.95537 40.549C4.58854 33.2707 0.731585 24.7067 5.93456 19.4348C11.3199 13.9781 20.7382 15.4 27.7879 18.4271C33.5121 20.885 35.7252 27.2287 37.7742 33.1064C39.4221 37.8334 39.6945 42.7126 37.8802 47.3769C35.8629 52.5633 32.9348 58.0335 27.5399 59.4184C22.072 60.822 16.6596 57.6303 12.4098 53.9151C8.4891 50.4876 6.91589 45.6637 5.95537 40.549Z"
        fill="#A0B2EC" fill-opacity="0.16" />
    <path
        d="M53.6087 10.4628C57.2873 15.1313 59.7455 21.0599 60.5559 26.8995C62.1473 38.3709 53.2601 49.8071 41.393 52.4153C35.8097 53.6421 29.5728 52.2988 26.0098 48.0264C23.3726 44.8649 23.2363 40.6883 24.6271 36.8638C25.8003 33.6382 28.0112 30.877 29.4387 27.762C31.6213 22.9997 31.1493 18.0682 32.3851 13.1664C33.0624 10.479 34.5957 7.45514 37.1398 5.90779C39.5547 4.43871 42.6283 4.10504 45.3094 4.75884C48.6933 5.58391 51.5153 7.80604 53.6087 10.4628Z"
        fill="#A0B2EC" fill-opacity="0.16" />
    <path
        d="M52.1599 29.1347L52.1599 52.434C52.1599 53.7065 51.1284 54.738 49.8559 54.738L14.1438 54.738C12.8714 54.738 11.8398 53.7065 11.8398 52.434L11.8398 24.5267C11.8398 23.2542 12.8714 22.2227 14.1438 22.2227L23.3452 22.2227C24.6177 22.2227 25.6492 23.2542 25.6492 24.5267L25.6492 25.6787C25.6492 26.3149 26.165 26.8307 26.8012 26.8307L49.8559 26.8307C51.1284 26.8307 52.1599 27.8622 52.1599 29.1347Z"
        fill="#F0B323" />
    <path
        d="M52.1599 29.1347L52.1599 52.434C52.1599 53.7065 51.1284 54.738 49.8559 54.738L14.1438 54.738C12.8714 54.738 11.8398 53.7065 11.8398 52.434L11.8398 24.5267C11.8398 23.2542 12.8714 22.2227 14.1438 22.2227L23.3452 22.2227C24.6177 22.2227 25.6492 23.2542 25.6492 24.5267L25.6492 25.6787C25.6492 26.3149 26.165 26.8307 26.8012 26.8307L49.8559 26.8307C51.1284 26.8307 52.1599 27.8622 52.1599 29.1347Z"
        fill="black" fill-opacity="0.2" />
    <g filter="url(#filter0_d_14450_123546)">
        <path
            d="M19.2006 54.4017H45.0888C46.5027 54.4017 47.6488 53.2555 47.6488 51.8417V12.1616C47.6488 10.7477 46.5027 9.60156 45.0888 9.60156H19.2006C17.7868 9.60156 16.6406 10.7477 16.6406 12.1616V51.8417C16.6406 53.2555 17.7868 54.4017 19.2006 54.4017Z"
            fill="white" />
    </g>
    <rect x="34.5586" y="12.8008" width="9.92" height="2.56" rx="1.28" fill="#F0B323" />
    <rect x="34.5586" y="18.2402" width="9.92" height="1.92" rx="0.96" fill="#BDCCF8" />
    <rect x="34.5586" y="23.041" width="3.52" height="1.92" rx="0.96" fill="#BDCCF8" />
    <circle cx="26.2398" cy="19.2008" r="6.4" fill="#F9FAFF" />
    <path
        d="M28.8572 18.0013C28.8572 17.9219 28.8285 17.8531 28.7709 17.7951C28.7133 17.737 28.6451 17.708 28.5663 17.708C28.4875 17.708 28.4194 17.737 28.3618 17.7951C28.3042 17.8531 28.2754 17.9219 28.2754 18.0013C28.2754 18.0808 28.3042 18.1495 28.3618 18.2076C28.4194 18.2656 28.4875 18.2947 28.5663 18.2947C28.6451 18.2947 28.7133 18.2656 28.7709 18.2076C28.8285 18.1495 28.8572 18.0808 28.8572 18.0013ZM29.4391 18.0013C29.4391 18.1908 29.3853 18.3604 29.2777 18.5101C29.1701 18.6598 29.03 18.7667 28.8572 18.8309V20.6413C28.8572 21.1272 28.658 21.542 28.2595 21.8857C27.861 22.2295 27.3815 22.4013 26.8209 22.4013C26.2603 22.4013 25.7807 22.2295 25.3822 21.8857C24.9838 21.542 24.7845 21.1272 24.7845 20.6413V20.0363C24.2875 19.9752 23.8724 19.7797 23.5391 19.4497C23.2057 19.1197 23.0391 18.7347 23.0391 18.2947V15.948C23.0391 15.8686 23.0679 15.7998 23.1254 15.7417C23.183 15.6837 23.2512 15.6547 23.33 15.6547C23.3482 15.6547 23.3724 15.6577 23.4027 15.6638C23.4542 15.5722 23.5254 15.4988 23.6163 15.4438C23.7072 15.3888 23.8057 15.3613 23.9118 15.3613C24.0724 15.3613 24.2095 15.4186 24.3232 15.5332C24.4368 15.6478 24.4936 15.7861 24.4936 15.948C24.4936 16.1099 24.4368 16.2482 24.3232 16.3628C24.2095 16.4774 24.0724 16.5347 23.9118 16.5347C23.8118 16.5347 23.7148 16.5072 23.6209 16.4522V18.2947C23.6209 18.6186 23.7633 18.8951 24.0482 19.1242C24.333 19.3534 24.6754 19.468 25.0754 19.468C25.4754 19.468 25.8179 19.3534 26.1027 19.1242C26.3875 18.8951 26.53 18.6186 26.53 18.2947V16.4522C26.436 16.5072 26.3391 16.5347 26.2391 16.5347C26.0785 16.5347 25.9413 16.4774 25.8277 16.3628C25.7141 16.2482 25.6572 16.1099 25.6572 15.948C25.6572 15.7861 25.7141 15.6478 25.8277 15.5332C25.9413 15.4186 26.0785 15.3613 26.2391 15.3613C26.3451 15.3613 26.4436 15.3888 26.5345 15.4438C26.6254 15.4988 26.6966 15.5722 26.7482 15.6638C26.7785 15.6577 26.8027 15.6547 26.8209 15.6547C26.8997 15.6547 26.9679 15.6837 27.0254 15.7417C27.083 15.7998 27.1118 15.8686 27.1118 15.948V18.2947C27.1118 18.7347 26.9451 19.1197 26.6118 19.4497C26.2785 19.7797 25.8633 19.9752 25.3663 20.0363V20.6413C25.3663 20.9652 25.5088 21.2417 25.7936 21.4709C26.0785 21.7001 26.4209 21.8147 26.8209 21.8147C27.2209 21.8147 27.5633 21.7001 27.8482 21.4709C28.133 21.2417 28.2754 20.9652 28.2754 20.6413V18.8309C28.1027 18.7667 27.9625 18.6598 27.855 18.5101C27.7474 18.3604 27.6936 18.1908 27.6936 18.0013C27.6936 17.7569 27.7785 17.5491 27.9482 17.378C28.1179 17.2069 28.3239 17.1213 28.5663 17.1213C28.8088 17.1213 29.0148 17.2069 29.1845 17.378C29.3542 17.5491 29.4391 17.7569 29.4391 18.0013Z"
        fill="#F0B323" />
    <rect x="19.8398" y="28.8008" width="3.84" height="2.56" rx="1.28" fill="#A05BB6" />
    <rect x="19.8398" y="33.9219" width="3.84" height="2.56" rx="1.28" fill="#A05BB6" />
    <rect x="25.2812" y="29.1211" width="19.2" height="1.92" rx="0.96" fill="#BDCCF8" />
    <rect x="25.2812" y="34.2402" width="9.92" height="1.92" rx="0.96" fill="#BDCCF8" />
    <rect x="19.8398" y="39.6797" width="24.64" height="9.28" rx="0.813212" fill="#F9FAFF" />
    <path
        d="M22.3984 45.4412H24.8299C24.9555 45.4412 25.0696 45.3677 25.1214 45.2532L25.9693 43.3797C26.0838 43.1267 26.4441 43.1297 26.5544 43.3845L28.2253 47.2435C28.3414 47.5117 28.7267 47.4967 28.8216 47.2203L29.3585 45.6573C29.4029 45.528 29.5244 45.4412 29.6611 45.4412H30.643C30.7636 45.4412 30.8739 45.3735 30.9284 45.266L32.6208 41.9298C32.7468 41.6815 33.1077 41.7013 33.2057 41.9619L34.9654 46.6419C35.0656 46.9082 35.4374 46.9212 35.5559 46.6625L36.0297 45.628C36.0818 45.5142 36.1954 45.4412 36.3206 45.4412H37.6773C37.7978 45.4412 37.9081 45.3735 37.9626 45.266L38.6435 43.9238C38.762 43.6902 39.0957 43.6902 39.2143 43.9238L39.8951 45.266C39.9497 45.3735 40.06 45.4412 40.1805 45.4412H41.9184"
        stroke="#A05BB6" stroke-width="0.8" stroke-linecap="round" />
    <path
        d="M11.8401 29.1366L11.8401 52.436C11.8401 53.7085 12.8716 54.74 14.1441 54.74L49.8562 54.74C51.1286 54.74 52.1602 53.7085 52.1602 52.436L52.1602 24.5286C52.1602 23.2561 51.1286 22.2246 49.8562 22.2246L43.9131 22.2246C43.3021 22.2246 42.716 22.4674 42.284 22.8994L38.6882 26.4952C38.4722 26.7112 38.1791 26.8326 37.8736 26.8326L14.1441 26.8326C12.8716 26.8326 11.8401 27.8642 11.8401 29.1366Z"
        fill="#F0B323" />
    <path
        d="M32.3213 31.3613C29.8951 31.3613 27.9213 33.2634 27.9213 35.6013V38.1453H27.0413C26.0706 38.1453 25.2812 38.906 25.2812 39.8413V46.6253C25.2812 47.5607 26.0706 48.3213 27.0413 48.3213H37.6012C38.5719 48.3213 39.3613 47.5607 39.3613 46.6253V39.8413C39.3613 38.906 38.5719 38.1453 37.6012 38.1453H36.7212V35.6013C36.7212 33.2634 34.7474 31.3613 32.3213 31.3613ZM37.7595 39.6813L37.7612 46.7213H26.8813V39.6813H37.7595ZM29.6012 38.1453V35.6013C29.6012 34.1987 30.5578 32.9613 32.3213 32.9613C34.0778 32.9613 35.0412 34.1987 35.0412 35.6013V38.1453H29.6012Z"
        fill="#FDF0D3" />
    <defs>
        <filter id="filter0_d_14450_123546" x="11.8537" y="7.20812" width="40.5816" height="54.3746"
            color-interpolation-filters="sRGB">
            <feFlood flood-opacity="0" result="BackgroundImageFix" />
            <feColorMatrix in="SourceAlpha" values="0 0 0 0 0 0 0 0 0 0 0 0 0 0 0 0 0 0 127 0" result="hardAlpha" />
            <feOffset dy="2.39344" />
            <feGaussianBlur stdDeviation="2.39344" />
            <feColorMatrix values="0 0 0 0 0.0470588 0 0 0 0 0.254902 0 0 0 0 0.603922 0 0 0 0.1 0" />
            <feBlend in2="BackgroundImageFix"
                result="effect1_dropShadow_14450_123546" />
            <feBlend in="SourceGraphic" in2="effect1_dropShadow_14450_123546"
                result="shape" />
        </filter>
    </defs>
</svg>
