<svg width="160" height="160" viewBox="0 0 160 160" fill="none" xmlns="http://www.w3.org/2000/svg">
<path d="M26.1045 79.2605C38.1468 66.8479 54.1633 57.2601 70.4659 52.31C102.491 42.5881 137.841 62.1164 149.12 94.0229C154.425 109.035 152.653 127.053 141.696 138.961C133.589 147.774 121.784 150.077 110.479 147.958C100.945 146.17 92.3882 141.274 83.0841 138.726C68.8597 134.829 55.023 138.417 40.712 137.227C32.8665 136.574 23.7863 133.689 18.5648 127.304C13.6075 121.243 11.6562 112.822 12.6347 105.041C13.8694 95.2203 19.2513 86.3239 26.1045 79.2605Z" fill="#A0B2EC" fill-opacity="0.16"/>
<path fill-rule="evenodd" clip-rule="evenodd" d="M93.8376 93.5281C82.1091 109.769 72.4834 133.262 52.4907 132.951C31.7973 132.63 17.0994 111.616 9.945 92.2251C4.13589 76.4807 12.4617 60.3334 20.1784 45.3754C26.3844 33.3458 35.4423 23.7139 47.9529 18.551C61.8637 12.8101 78.0217 8.31571 90.7517 16.2507C103.654 24.2931 107.446 40.7985 108.054 56.0136C108.614 70.0505 102.08 82.1154 93.8376 93.5281Z" fill="#A0B2EC" fill-opacity="0.16"/>
<path fill-rule="evenodd" clip-rule="evenodd" d="M63.9416 20.6917C59.6503 19.5418 55.2394 22.0885 54.0896 26.3797L51.4822 36.1105C51.0117 36.0776 50.5686 36.381 50.4419 36.8536L48.4901 44.138C48.3634 44.6106 48.5955 45.0949 49.0194 45.3017L48.6195 46.7943C48.149 46.7614 47.7059 47.0648 47.5792 47.5374L45.6274 54.8218C45.5007 55.2944 45.7328 55.7787 46.1567 55.9855L29.2658 119.023C28.1159 123.315 30.6626 127.726 34.9538 128.875L71.9377 138.785C76.229 139.935 80.6399 137.388 81.7897 133.097L101.544 59.3746C102.013 59.4064 102.455 59.1033 102.582 58.6314L104.534 51.347C104.66 50.875 104.429 50.3915 104.006 50.1842L106.614 40.4535C107.763 36.1622 105.217 31.7513 100.925 30.6015L63.9416 20.6917Z" fill="#262939"/>
<path d="M55.4529 27.5523C56.4821 23.7114 60.4301 21.432 64.2711 22.4612L99.75 31.9677C103.591 32.9969 105.87 36.9449 104.841 40.7859L80.6307 131.141C79.6015 134.981 75.6535 137.261 71.8125 136.232L36.3336 126.725C32.4927 125.696 30.2133 121.748 31.2425 117.907L55.4529 27.5523Z" fill="#0C419A"/>
<path fill-rule="evenodd" clip-rule="evenodd" d="M99.5429 32.7404L64.064 23.2339C60.6498 22.3191 57.1405 24.3452 56.2257 27.7594L32.0152 118.114C31.1004 121.528 33.1265 125.038 36.5407 125.952L72.0196 135.459C75.4337 136.374 78.9431 134.348 79.8579 130.933L104.068 40.5788C104.983 37.1646 102.957 33.6553 99.5429 32.7404ZM64.2711 22.4612C60.4301 21.432 56.4821 23.7114 55.4529 27.5523L31.2425 117.907C30.2133 121.748 32.4927 125.696 36.3336 126.725L71.8125 136.232C75.6535 137.261 79.6015 134.981 80.6307 131.141L104.841 40.7859C105.87 36.9449 103.591 32.9969 99.75 31.9677L64.2711 22.4612Z" fill="black"/>
<path d="M85.5936 72.6077C85.9 71.4641 85.2214 70.2887 84.0778 69.9823L58.8486 63.2221C57.7051 62.9157 56.5296 63.5944 56.2232 64.7379L51.7366 81.4824C51.4302 82.6259 52.1088 83.8013 53.2524 84.1078L78.4816 90.8679C79.6251 91.1743 80.8006 90.4957 81.107 89.3521L85.5936 72.6077Z" fill="white"/>
<path d="M54.6957 84.1448L63.9964 86.6368L55.4448 89.4135C54.4253 89.7445 53.4447 88.8138 53.7221 87.7784L54.6957 84.1448Z" fill="white"/>
<g clip-path="url(#clip0_7994_10640)">
<path d="M61.3025 73.7591L62.993 74.2121L63.1102 73.775L60.9688 73.2012L60.0478 76.6384L62.1892 77.2122L62.3063 76.775L60.6157 76.322L60.999 74.8918L62.6987 75.3473L62.8158 74.9101L61.1161 74.4547L61.3025 73.7591Z" fill="#D81E7E"/>
<path d="M65.0528 76.8605C65.1874 76.3581 65.0035 75.9116 64.5067 75.5344C63.9494 75.0983 63.9213 74.9915 63.9794 74.7749C64.0212 74.619 64.1347 74.4508 64.4388 74.5323C64.6848 74.5982 64.7656 74.7219 64.7362 74.9882L64.7216 75.1185L65.1835 75.1563L65.1943 75.0298C65.2363 74.5495 65.006 74.2059 64.5623 74.087C64.0808 73.958 63.6534 74.2064 63.5236 74.6906C63.4621 74.9202 63.4901 75.155 63.6049 75.3529C63.7007 75.5121 63.8091 75.6244 64.0874 75.8542C64.3342 76.0525 64.4392 76.1569 64.5179 76.2808C64.6103 76.4419 64.6322 76.6058 64.585 76.782C64.4848 77.1558 64.1165 77.3586 63.7276 77.2544C63.3466 77.1523 63.1246 76.8298 63.212 76.5036L63.3125 76.1284L62.8708 76.0101L62.7702 76.3852C62.6225 76.9366 63.002 77.5376 63.5991 77.6975C64.2316 77.8684 64.8833 77.4927 65.0528 76.8605Z" fill="#D81E7E"/>
<path d="M65.9574 77.1362L66.7587 77.3509C67.3883 77.5196 68.1389 77.1011 68.3029 76.4891C68.3798 76.202 68.3178 75.8176 68.1483 75.5316C68.0652 75.3953 67.9547 75.2727 67.8188 75.1664C67.6642 75.0389 67.5127 74.9543 67.3679 74.9155L66.1562 74.5908L65.2351 78.0287L65.6859 78.1495L65.9574 77.1362ZM66.4898 75.1494L67.2427 75.3512C67.7099 75.4764 67.9703 75.9112 67.8492 76.3633C67.7334 76.7953 67.3117 77.0305 66.8673 76.9115L66.0746 76.6991L66.4898 75.1494Z" fill="#D81E7E"/>
<path d="M76.9938 80.7115L75.3032 80.2586L75.6865 78.8283L77.3855 79.2836L77.5026 78.8464L75.8036 78.3912L75.99 77.6957L77.6805 78.1486L77.7977 77.7115L75.6562 77.1377L74.7353 80.5749L76.8767 81.1487L76.9938 80.7115Z" fill="#D81E7E"/>
<path d="M74.1867 79.6413C73.7044 79.8233 73.4497 79.8551 73.1379 79.7715C72.55 79.614 72.1618 79.1156 72.122 78.5412C72.121 78.5214 72.1184 78.5025 72.1174 78.4827C72.1171 78.4812 72.1175 78.4799 72.1176 78.4792C72.1144 78.3427 72.1308 78.203 72.1678 78.0626C72.2053 77.9223 72.2618 77.7927 72.3327 77.6767C72.3337 77.6756 72.3339 77.6749 72.3342 77.6736C72.3443 77.6567 72.3562 77.641 72.3675 77.6252C72.6896 77.1485 73.2745 76.9101 73.8623 77.0677C74.1742 77.1512 74.3789 77.3061 74.7056 77.7048L74.7888 77.8068L75.136 77.5054L75.0581 77.4097C74.6807 76.9443 74.3889 76.7311 73.9817 76.622C73.9804 76.6217 73.9791 76.6213 73.9772 76.6208C73.51 76.4956 73.0158 76.5653 72.5869 76.8168C72.1588 77.0678 71.8534 77.4664 71.727 77.9382C71.7264 77.9401 71.7257 77.9427 71.7252 77.9447C71.7247 77.9466 71.724 77.9493 71.7235 77.9512C71.5971 78.423 71.6624 78.9202 71.9075 79.3523C72.153 79.7852 72.5457 80.0919 73.0135 80.2172C73.0148 80.2176 73.0168 80.2181 73.0181 80.2184C73.4252 80.3275 73.7847 80.2882 74.3441 80.0744L74.4594 80.0305L74.3094 79.5959L74.1867 79.6413Z" fill="#D81E7E"/>
<path d="M70.4153 75.6362C69.6141 75.4215 68.7518 75.9332 68.5321 76.7533L67.9927 78.7662L68.4436 78.887L68.7917 77.5879L70.8195 78.1313L70.4715 79.4304L70.9262 79.5522L71.4549 77.5791C71.6843 76.7231 71.2179 75.8513 70.4153 75.6362ZM68.9085 77.1521L68.9829 76.8741C69.1432 76.2758 69.7196 75.9281 70.2958 76.0825C70.8758 76.2379 71.1713 76.8157 70.9995 77.4571L70.9357 77.6953L68.9085 77.1521Z" fill="#D81E7E"/>
<path d="M77.1027 81.9274L77.3481 81.7211L76.7648 81.5648L76.5298 81.7739L75.5765 81.5185L74.6553 84.9563L76.7968 85.5301L76.9141 85.0923L75.2235 84.6393L75.6067 83.2091L77.3051 83.6642L77.4223 83.227L75.7239 82.772L75.9102 82.0764L77.6086 82.5315L77.7258 82.0943L77.1027 81.9274Z" fill="#D81E7E"/>
<path d="M71.0677 80.2143C70.2665 79.9997 69.4042 80.5113 69.1844 81.3314L68.6451 83.3443L69.0959 83.4651L69.6353 81.4522C69.7956 80.8539 70.372 80.5063 70.9481 80.6606C71.5282 80.8161 71.8237 81.3939 71.6518 82.0352L71.1232 84.0083L71.5779 84.1302L72.1066 82.1571C72.336 81.3011 71.8702 80.4294 71.0677 80.2143Z" fill="#D81E7E"/>
<path d="M72.4063 81.1374L73.539 81.4409L72.735 84.4416L73.1949 84.5648L73.999 81.5641L75.1584 81.8748L75.2756 81.4376L72.5234 80.7002L72.4063 81.1374Z" fill="#D81E7E"/>
<path d="M67.595 79.2847C66.7938 79.07 65.9315 79.5816 65.7118 80.4017L65.1724 82.4146L65.6233 82.5354L65.9714 81.2364L67.9992 81.7797L67.6511 83.0788L68.1059 83.2007L68.6346 81.2276C68.864 80.3715 68.3976 79.4997 67.595 79.2847ZM68.116 81.3439L66.0881 80.8005L66.1626 80.5226C66.3229 79.9242 66.8993 79.5766 67.4754 79.7309C68.0555 79.8864 68.351 80.4642 68.1792 81.1056L68.1154 81.3437L68.116 81.3439Z" fill="#D81E7E"/>
<path d="M64.9929 81.2478C65.1275 80.7454 64.9436 80.2989 64.4468 79.9217C63.8895 79.4857 63.8614 79.3789 63.9195 79.1623C63.9613 79.0063 64.0749 78.8381 64.3789 78.9196C64.6249 78.9855 64.7057 79.1093 64.6763 79.3755L64.6617 79.5059L65.1236 79.5436L65.1344 79.4172C65.1764 78.9368 64.9461 78.5933 64.5024 78.4744C64.0209 78.3454 63.5935 78.5938 63.4637 79.0779C63.4022 79.3076 63.4302 79.5424 63.545 79.7403C63.6408 79.8995 63.7492 80.0118 64.0275 80.2416C64.2744 80.4399 64.3793 80.5442 64.458 80.6681C64.5504 80.8293 64.5723 80.9931 64.5251 81.1693C64.4249 81.5432 64.0566 81.7459 63.6677 81.6417C63.2867 81.5396 63.0647 81.2172 63.1521 80.8909L63.2526 80.5158L62.8122 80.3978L62.7117 80.7729C62.5639 81.3243 62.9435 81.9253 63.5405 82.0852C64.1717 82.2558 64.8234 81.8801 64.9929 81.2478Z" fill="#D81E7E"/>
<path d="M66.5274 74.1783C67.001 74.3052 67.5002 74.2355 67.9324 73.9821C68.3638 73.7291 68.6718 73.3263 68.7999 72.848C68.9267 72.375 68.8587 71.8771 68.6082 71.4442C68.3573 71.0105 67.9561 70.7016 67.4792 70.5738C66.5077 70.3135 65.4655 70.9224 65.2027 71.903C64.9426 72.8739 65.5493 73.9162 66.5274 74.1783ZM67.3643 71.0207C68.1238 71.2242 68.56 71.9767 68.3571 72.7336C68.1522 73.4983 67.4006 73.9389 66.6457 73.7366C65.8836 73.5324 65.4455 72.7793 65.6483 72.0225C65.8539 71.2579 66.6075 70.8179 67.3643 71.0207Z" fill="#0C419A"/>
<path d="M78.8483 77.8996C78.9846 77.3906 78.6818 76.8661 78.1729 76.7298L72.0377 75.0754L72.4515 73.531C72.6809 72.6749 71.9679 71.737 71.1653 71.522C70.3641 71.3073 69.5018 71.8189 69.2821 72.6391L68.7427 74.6519L69.1936 74.7727L69.7329 72.7599C69.8932 72.1615 70.4696 71.8139 71.0458 71.9683C71.6258 72.1237 72.1686 72.7677 71.9968 73.4091L71.4653 75.3926L78.0593 77.1539C78.3229 77.2245 78.4685 77.516 78.3981 77.7789L77.4536 81.3036L77.9039 81.4242L78.8483 77.8996Z" fill="#0C419A"/>
<path d="M58.8733 80.2598C58.6097 80.1891 58.4606 79.9107 58.5312 79.6471L61.097 70.0714C61.2094 69.6519 61.5719 69.4343 61.979 69.5434C62.4331 69.6651 62.686 70.0916 62.5669 70.536L61.9516 72.8326L62.4063 72.9545L63.0228 70.6539C63.0978 70.374 63.1801 70.2548 63.3734 70.1464C63.5633 70.0435 63.7847 70.0182 63.9987 70.0755C64.4202 70.1885 64.6478 70.6103 64.528 71.0572L63.9116 73.3578L64.3624 73.4786L64.9895 71.1382C65.1608 70.5016 64.7564 69.7953 64.1248 69.6261C63.8148 69.543 63.4555 69.5922 63.164 69.7561C63.0886 69.7974 63.0321 69.8361 62.9732 69.8888C62.9523 69.8336 62.9294 69.7834 62.8956 69.7219L62.8927 69.7169C62.8096 69.5807 62.7082 69.4556 62.5986 69.3556L62.5934 69.3514C62.4541 69.2372 62.2903 69.1541 62.107 69.105C61.4508 68.9285 60.815 69.3231 60.6279 70.0213L59.1342 75.596L58.081 79.5265C57.9446 80.0354 58.2474 80.5599 58.7564 80.6963L62.1825 81.6143L62.2996 81.1771L58.8733 80.2598Z" fill="#0C419A"/>
</g>
<path d="M82.9838 32.0399C82.6931 33.1246 81.5782 33.7683 80.4935 33.4777C79.4088 33.187 78.7651 32.0721 79.0558 30.9874C79.3464 29.9027 80.4613 29.259 81.546 29.5497C82.6307 29.8403 83.2744 30.9552 82.9838 32.0399Z" fill="#E7ECFA"/>
<rect x="84" y="109.442" width="47.1251" height="28.9891" rx="5.20116" fill="#0C419A"/>
<g filter="url(#filter0_d_7994_10640)">
<path d="M89.4734 136.262H125.613C127.609 136.262 129.227 134.644 129.227 132.648V91.4213C129.227 90.4827 128.862 89.581 128.209 88.9068L122.197 82.7001C121.516 81.9973 120.58 81.6006 119.601 81.6006H89.4734C87.4774 81.6006 85.8594 83.2186 85.8594 85.2146V132.648C85.8594 134.644 87.4774 136.262 89.4734 136.262Z" fill="white"/>
</g>
<g filter="url(#filter1_d_7994_10640)">
<path d="M89.5359 138.225H126.128C128.124 138.225 129.742 136.607 129.742 134.611V85.3708C129.742 83.3749 128.124 81.7568 126.128 81.7568H89.5359C87.5399 81.7568 85.9219 83.3749 85.9219 85.3708V134.611C85.9219 136.607 87.5399 138.225 89.5359 138.225Z" fill="white"/>
</g>
<rect x="111.219" y="88.5332" width="14.0042" height="3.61399" rx="1.807" fill="#A05BB6"/>
<rect x="111.219" y="96.665" width="14.0042" height="2.71049" rx="1.35525" fill="#BDCCF8"/>
<rect x="111.219" y="103.893" width="7.22799" height="2.71049" rx="1.35525" fill="#BDCCF8"/>
<circle cx="99.4725" cy="97.5682" r="9.03498" fill="#F9FAFF"/>
<path d="M96.5625 94.7629C96.5625 93.3184 97.7634 92.1475 99.2447 92.1475C100.726 92.1475 101.927 93.3184 101.927 94.7629C101.927 96.2073 100.726 97.3782 99.2447 97.3782C97.7634 97.3782 96.5625 96.2073 96.5625 94.7629ZM99.2447 96.3321C100.134 96.3321 100.854 95.6295 100.854 94.7629C100.854 93.8962 100.134 93.1936 99.2447 93.1936C98.3559 93.1936 97.6354 93.8962 97.6354 94.7629C97.6354 95.6295 98.3559 96.3321 99.2447 96.3321Z" fill="#A05BB6"/>
<path d="M96.2101 99.127C95.5357 99.7846 95.1089 100.639 94.9883 101.551C94.9495 101.845 95.1933 102.086 95.4896 102.086C95.7859 102.086 96.0213 101.844 96.0729 101.552C96.1852 100.918 96.4957 100.328 96.9688 99.8667C97.5724 99.2781 98.3911 98.9475 99.2447 98.9475C100.098 98.9475 100.917 99.2781 101.521 99.8667C101.994 100.328 102.304 100.918 102.417 101.552C102.468 101.844 102.704 102.086 103 102.086C103.296 102.086 103.54 101.845 103.501 101.551C103.381 100.639 102.954 99.7846 102.279 99.127C101.475 98.3422 100.383 97.9013 99.2447 97.9013C98.1065 97.9013 97.0149 98.3422 96.2101 99.127Z" fill="#A05BB6"/>
<rect x="90.4375" y="111.121" width="5.42099" height="3.61399" rx="1.807" fill="#A05BB6"/>
<rect x="90.4375" y="118.349" width="5.42099" height="3.61399" rx="1.807" fill="#A05BB6"/>
<rect x="98.1172" y="111.573" width="27.1049" height="2.71049" rx="1.35525" fill="#BDCCF8"/>
<rect x="98.1172" y="118.801" width="14.0042" height="2.71049" rx="1.35525" fill="#BDCCF8"/>
<rect x="90.4375" y="126.48" width="34.7847" height="12.1972" rx="1.14802" fill="#F9FAFF"/>
<path d="M94.0508 134.612H97.4832C97.6607 134.612 97.8217 134.508 97.8948 134.347L99.0918 131.702C99.2534 131.345 99.7621 131.349 99.9179 131.708L102.277 137.156C102.441 137.535 102.984 137.514 103.118 137.124L103.876 134.917C103.939 134.735 104.111 134.612 104.304 134.612H105.69C105.86 134.612 106.016 134.516 106.093 134.365L108.482 129.655C108.66 129.304 109.169 129.332 109.308 129.7L111.792 136.307C111.933 136.683 112.458 136.701 112.625 136.336L113.294 134.876C113.368 134.715 113.528 134.612 113.705 134.612H115.62C115.79 134.612 115.946 134.516 116.023 134.365L116.984 132.47C117.152 132.14 117.623 132.14 117.79 132.47L118.751 134.365C118.828 134.516 118.984 134.612 119.154 134.612H121.607" stroke="#A05BB6" stroke-width="1.12937" stroke-linecap="round"/>
<path d="M125.889 138.67L84 114.513V133.469C84 136.342 86.3286 138.67 89.2012 138.67H125.889Z" fill="#F0B323"/>
<path d="M125.889 138.67L84 114.513V133.469C84 136.342 86.3286 138.67 89.2012 138.67H125.889Z" fill="black" fill-opacity="0.05"/>
<path d="M89.236 138.669L131.125 114.512V133.468C131.125 136.341 128.796 138.669 125.924 138.669H89.236Z" fill="#F0B323"/>
<path d="M89.236 138.669L131.125 114.512V133.468C131.125 136.341 128.796 138.669 125.924 138.669H89.236Z" fill="black" fill-opacity="0.05"/>
<path d="M126.473 138.67L111.032 124.86C109.057 123.095 106.072 123.095 104.097 124.86L88.6562 138.67H126.473Z" fill="#F0B323"/>
<defs>
<filter id="filter0_d_7994_10640" x="79.1016" y="78.2217" width="56.8826" height="68.1776" filterUnits="userSpaceOnUse" color-interpolation-filters="sRGB">
<feFlood flood-opacity="0" result="BackgroundImageFix"/>
<feColorMatrix in="SourceAlpha" type="matrix" values="0 0 0 0 0 0 0 0 0 0 0 0 0 0 0 0 0 0 127 0" result="hardAlpha"/>
<feOffset dy="3.37886"/>
<feGaussianBlur stdDeviation="3.37886"/>
<feColorMatrix type="matrix" values="0 0 0 0 0.0470588 0 0 0 0 0.254902 0 0 0 0 0.603922 0 0 0 0.1 0"/>
<feBlend mode="normal" in2="BackgroundImageFix" result="effect1_dropShadow_7994_10640"/>
<feBlend mode="normal" in="SourceGraphic" in2="effect1_dropShadow_7994_10640" result="shape"/>
</filter>
<filter id="filter1_d_7994_10640" x="79.1641" y="78.378" width="57.3358" height="69.9842" filterUnits="userSpaceOnUse" color-interpolation-filters="sRGB">
<feFlood flood-opacity="0" result="BackgroundImageFix"/>
<feColorMatrix in="SourceAlpha" type="matrix" values="0 0 0 0 0 0 0 0 0 0 0 0 0 0 0 0 0 0 127 0" result="hardAlpha"/>
<feOffset dy="3.37886"/>
<feGaussianBlur stdDeviation="3.37886"/>
<feColorMatrix type="matrix" values="0 0 0 0 0.0470588 0 0 0 0 0.254902 0 0 0 0 0.603922 0 0 0 0.1 0"/>
<feBlend mode="normal" in2="BackgroundImageFix" result="effect1_dropShadow_7994_10640"/>
<feBlend mode="normal" in="SourceGraphic" in2="effect1_dropShadow_7994_10640" result="shape"/>
</filter>
<clipPath id="clip0_7994_10640">
<rect x="59.8125" y="66.793" width="22.5613" height="15.1985" rx="1.08078" transform="rotate(15 59.8125 66.793)" fill="white"/>
</clipPath>
</defs>
</svg>
