<svg width="200" height="200" viewBox="0 0 200 200" fill="none" xmlns="http://www.w3.org/2000/svg">
<path d="M180.867 123.804C172.037 143.823 157.25 162.236 140.086 175.274C106.367 200.883 55.8475 193.253 28.4441 160.359C15.5518 144.883 9.73498 122.728 17.4991 103.786C23.2435 89.7674 36.2352 81.8465 50.5779 79.3918C62.6751 77.322 74.9778 79.3702 87.1353 78.3037C105.722 76.6742 120.56 66.3367 138.061 61.4588C147.655 58.7842 159.695 58.2163 168.696 63.4961C177.24 68.5073 183.257 77.6399 185.516 87.3006C188.367 99.4936 185.893 112.413 180.867 123.804Z" fill="#A0B2EC" fill-opacity="0.16"/>
<path fill-rule="evenodd" clip-rule="evenodd" d="M129.134 89.6311C128.243 114.959 134.669 146.43 113.437 160.181C91.4613 174.415 61.2157 162.677 40.0423 147.335C22.8502 134.877 20.2307 112.043 17.8085 90.888C15.8605 73.8745 18.5985 57.3728 28.1121 43.1369C38.6906 27.3077 52.5085 11.2061 71.4757 10.5822C90.6997 9.94986 106.308 24.6275 117.66 40.1913C128.133 54.5501 129.761 71.8321 129.134 89.6311Z" fill="#A0B2EC" fill-opacity="0.16"/>
<rect x="49.5645" y="60.4844" width="4.71446" height="5.39223" transform="rotate(-40.492 49.5645 60.4844)" fill="#A0B2EC"/>
<path d="M52.1322 60.3287C47.4576 64.3394 40.4202 63.8043 36.4111 59.1333C32.4004 54.4587 32.9355 47.4213 37.6065 43.4122C42.2775 39.4032 49.3185 39.9366 53.3276 44.6076C57.3402 49.2769 56.8051 56.3143 52.1322 60.3287Z" fill="#A0B2EC"/>
<path d="M50.2394 58.1244C46.7831 61.0933 41.5759 60.6974 38.6113 57.239C35.6425 53.7827 36.0383 48.5755 39.4947 45.6066C42.951 42.6378 48.1582 43.0337 51.1228 46.4921C54.0916 49.9484 53.6958 55.1556 50.2394 58.1244Z" fill="#A0B2EC"/>
<path fill-rule="evenodd" clip-rule="evenodd" d="M40.0299 56.0205L40.0312 56.0219C42.3224 58.6949 46.3478 59.0019 49.0209 56.7058C51.694 54.4097 51.9998 50.3832 49.7042 47.7106L49.7029 47.7092C47.4117 45.0362 43.3862 44.7292 40.7132 47.0253C38.0401 49.3213 37.7343 53.3479 40.0299 56.0205ZM51.1228 46.4921C48.1582 43.0337 42.951 42.6378 39.4947 45.6066C36.0383 48.5755 35.6425 53.7827 38.6113 57.239C41.5759 60.6974 46.7831 61.0933 50.2394 58.1244C53.6958 55.1556 54.0916 49.9484 51.1228 46.4921Z" fill="#262939"/>
<path d="M44.4052 51.3291L44.4053 51.3289C44.7016 51.0744 45.1508 51.1085 45.4056 51.4048C45.6593 51.7028 45.6256 52.1514 45.3297 52.4056C45.0333 52.6603 44.5839 52.6261 44.3291 52.3295C44.0742 52.0327 44.1073 51.5844 44.4052 51.3291Z" fill="#262939" stroke="#262939" stroke-width="0.374018"/>
<path fill-rule="evenodd" clip-rule="evenodd" d="M55.1726 71.0797C54.6444 66.9171 52.6365 64.3789 52.0699 63.8862L55.3509 60.1133C56.8824 61.4451 59.4565 65.1201 60.1329 70.4503C60.8269 75.9194 59.5087 82.9527 53.4497 90.8869C47.2172 99.0484 45.3621 108.461 50.5259 118.834C55.8163 129.462 68.6226 141.402 92.6442 153.777C108.448 161.919 125.883 161.16 137.751 155.61C143.685 152.835 148.04 148.955 150.226 144.61C152.362 140.366 152.547 135.463 149.782 130.154L154.217 127.845C157.701 134.536 157.572 141.134 154.692 146.858C151.862 152.482 146.498 157.039 139.869 160.139C126.612 166.339 107.548 167.08 90.3543 158.222C65.9907 145.67 52.0471 133.11 46.0498 121.062C39.9258 108.76 42.2452 97.3209 49.4759 87.8523C54.8286 80.8429 55.6832 75.1035 55.1726 71.0797Z" fill="#0C419A"/>
<path fill-rule="evenodd" clip-rule="evenodd" d="M94.6935 25.8653C89.3295 24.428 83.8159 27.6113 82.3786 32.9754L79.1194 45.1389C78.5312 45.0978 77.9773 45.4769 77.819 46.0677L75.3792 55.1732C75.2209 55.764 75.511 56.3693 76.0409 56.6278L75.541 58.4936C74.9528 58.4525 74.3989 58.8317 74.2406 59.4225L71.8008 68.528C71.6425 69.1188 71.9326 69.7241 72.4625 69.9826L51.3488 148.78C49.9115 154.144 53.0948 159.658 58.4589 161.095L104.689 173.482C110.053 174.92 115.566 171.736 117.004 166.372L141.696 74.219C142.283 74.2588 142.836 73.8799 142.994 73.2899L145.434 64.1844C145.592 63.5945 145.303 62.9901 144.774 62.731L148.034 50.5676C149.471 45.2035 146.288 39.6899 140.923 38.2526L94.6935 25.8653Z" fill="#262939"/>
<path d="M84.0847 34.4394C85.3712 29.6382 90.3062 26.789 95.1074 28.0755L139.456 39.9586C144.257 41.2451 147.106 46.1801 145.82 50.9813L115.557 163.925C114.27 168.726 109.335 171.575 104.534 170.289L60.1856 158.405C55.3844 157.119 52.5351 152.184 53.8216 147.383L84.0847 34.4394Z" fill="#0C419A"/>
<path fill-rule="evenodd" clip-rule="evenodd" d="M139.197 40.9246L94.8486 29.0414C90.5808 27.8979 86.1942 30.4305 85.0506 34.6982L54.7875 147.642C53.644 151.909 56.1767 156.296 60.4444 157.44L104.793 169.323C109.061 170.466 113.447 167.934 114.591 163.666L144.854 50.7225C145.998 46.4548 143.465 42.0681 139.197 40.9246ZM95.1074 28.0755C90.3062 26.789 85.3712 29.6382 84.0847 34.4394L53.8216 147.383C52.5351 152.184 55.3844 157.119 60.1856 158.405L104.534 170.289C109.335 171.575 114.27 168.726 115.557 163.925L145.82 50.9813C147.106 46.1801 144.257 41.2451 139.456 39.9586L95.1074 28.0755Z" fill="black"/>
<path d="M121.756 90.7601C122.139 89.3307 121.29 87.8614 119.861 87.4784L88.3245 79.0282C86.895 78.6452 85.4257 79.4935 85.0427 80.9229L79.4344 101.853C79.0514 103.283 79.8997 104.752 81.3291 105.135L112.866 113.585C114.295 113.968 115.764 113.12 116.147 111.691L121.756 90.7601Z" fill="white"/>
<path d="M83.1334 105.181L94.7591 108.297L84.0697 111.767C82.7953 112.181 81.5695 111.018 81.9163 109.724L83.1334 105.181Z" fill="white"/>
<g clip-path="url(#clip0_3194_66322)">
<path d="M91.3918 92.2014L93.5049 92.7676L93.6514 92.2211L90.9746 91.5039L89.8234 95.8004L92.5001 96.5177L92.6465 95.9712L90.5334 95.405L91.0124 93.6172L93.137 94.1865L93.2834 93.6401L91.1588 93.0708L91.3918 92.2014Z" fill="#E11A81"/>
<path d="M96.0806 96.0766C96.2489 95.4486 96.019 94.8905 95.398 94.419C94.7013 93.8739 94.6663 93.7404 94.7389 93.4696C94.7911 93.2747 94.9331 93.0645 95.3131 93.1663C95.6206 93.2487 95.7217 93.4034 95.6849 93.7362L95.6666 93.8992L96.244 93.9463L96.2575 93.7883C96.31 93.1878 96.0221 92.7584 95.4675 92.6098C94.8656 92.4485 94.3314 92.759 94.1692 93.3642C94.0923 93.6513 94.1273 93.9447 94.2708 94.1921C94.3905 94.3912 94.526 94.5315 94.8739 94.8188C95.1825 95.0667 95.3136 95.1971 95.412 95.3519C95.5276 95.5534 95.5549 95.7582 95.4959 95.9784C95.3706 96.4458 94.9102 96.6992 94.4242 96.5689C93.9478 96.4413 93.6703 96.0383 93.7796 95.6305L93.9053 95.1615L93.3531 95.0136L93.2275 95.4825C93.0428 96.1717 93.5172 96.9229 94.2635 97.1229C95.0542 97.3365 95.8688 96.8669 96.0806 96.0766Z" fill="#E11A81"/>
<path d="M97.2144 96.42L98.2159 96.6884C99.003 96.8993 99.9412 96.3762 100.146 95.6112C100.242 95.2523 100.165 94.7717 99.9529 94.4142C99.8491 94.2439 99.7109 94.0907 99.5411 93.9577C99.3478 93.7984 99.1585 93.6926 98.9774 93.6441L97.4629 93.2383L96.3114 97.5356L96.875 97.6866L97.2144 96.42ZM97.8798 93.9365L98.821 94.1887C99.405 94.3452 99.7305 94.8887 99.5791 95.4539C99.4344 95.9939 98.9072 96.2879 98.3517 96.1391L97.3608 95.8736L97.8798 93.9365Z" fill="#E11A81"/>
<path d="M111.006 100.889L108.893 100.323L109.372 98.5352L111.496 99.1043L111.642 98.5578L109.518 97.9887L109.751 97.1193L111.864 97.6856L112.011 97.1391L109.334 96.4219L108.183 100.718L110.859 101.436L111.006 100.889Z" fill="#E11A81"/>
<path d="M107.5 99.5522C106.897 99.7796 106.579 99.8193 106.189 99.7149C105.454 99.518 104.969 98.8949 104.919 98.177C104.918 98.1522 104.915 98.1286 104.913 98.1038C104.913 98.102 104.913 98.1003 104.914 98.0995C104.91 97.9288 104.93 97.7543 104.976 97.5787C105.023 97.4034 105.094 97.2413 105.182 97.0963C105.184 97.0949 105.184 97.0941 105.184 97.0925C105.197 97.0714 105.212 97.0518 105.226 97.0319C105.629 96.4362 106.36 96.1382 107.095 96.3351C107.484 96.4395 107.74 96.6331 108.149 97.1315L108.253 97.259L108.687 96.8823L108.589 96.7627C108.118 96.1808 107.753 95.9144 107.244 95.778C107.242 95.7776 107.241 95.7771 107.238 95.7765C106.654 95.62 106.036 95.7071 105.5 96.0215C104.965 96.3353 104.583 96.8335 104.425 97.4232C104.425 97.4256 104.424 97.4289 104.423 97.4314C104.422 97.4338 104.422 97.4371 104.421 97.4395C104.263 98.0292 104.345 98.6507 104.651 99.1909C104.958 99.732 105.449 100.115 106.034 100.272C106.035 100.272 106.038 100.273 106.039 100.274C106.548 100.41 106.998 100.361 107.697 100.094L107.841 100.039L107.653 99.4953L107.5 99.5522Z" fill="#E11A81"/>
<path d="M102.785 94.5458C101.783 94.2774 100.705 94.9169 100.431 95.9421L99.7565 98.4582L100.32 98.6092L100.755 96.9854L103.29 97.6646L102.855 99.2884L103.423 99.4408L104.084 96.9744C104.371 95.9044 103.788 94.8146 102.785 94.5458ZM100.901 96.4406L100.994 96.0931C101.195 95.3452 101.915 94.9107 102.635 95.1036C103.36 95.2979 103.73 96.0202 103.515 96.8219L103.435 97.1196L100.901 96.4406Z" fill="#E11A81"/>
<path d="M111.145 102.41L111.452 102.153L110.723 101.957L110.429 102.219L109.237 101.899L108.086 106.197L110.763 106.914L110.909 106.367L108.796 105.8L109.275 104.013L111.398 104.581L111.544 104.035L109.421 103.466L109.654 102.597L111.777 103.166L111.924 102.619L111.145 102.41Z" fill="#E11A81"/>
<path d="M103.599 100.268C102.598 100 101.52 100.64 101.245 101.665L100.571 104.181L101.135 104.332L101.809 101.816C102.009 101.068 102.73 100.633 103.45 100.826C104.175 101.021 104.544 101.743 104.329 102.545L103.669 105.011L104.237 105.163L104.898 102.697C105.185 101.627 104.602 100.537 103.599 100.268Z" fill="#E11A81"/>
<path d="M105.272 101.421L106.687 101.801L105.682 105.552L106.257 105.706L107.262 101.955L108.712 102.343L108.858 101.797L105.418 100.875L105.272 101.421Z" fill="#E11A81"/>
<path d="M99.2575 99.1083C98.2559 98.8399 97.1781 99.4794 96.9034 100.505L96.2292 103.021L96.7928 103.172L97.2279 101.548L99.7627 102.227L99.3276 103.851L99.8961 104.003L100.557 101.537C100.844 100.467 100.261 99.3771 99.2575 99.1083ZM99.9087 101.682L97.3738 101.003L97.4669 100.656C97.6673 99.9077 98.3878 99.4732 99.108 99.6661C99.833 99.8604 100.202 100.583 99.9876 101.384L99.9079 101.682L99.9087 101.682Z" fill="#E11A81"/>
<path d="M96.0067 101.56C96.175 100.932 95.9451 100.374 95.3241 99.9029C94.6274 99.3578 94.5924 99.2243 94.665 98.9536C94.7172 98.7586 94.8592 98.5484 95.2393 98.6503C95.5467 98.7326 95.6478 98.8873 95.611 99.2202L95.5927 99.3831L96.1701 99.4303L96.1836 99.2722C96.2361 98.6717 95.9482 98.2423 95.3936 98.0937C94.7917 97.9324 94.2575 98.2429 94.0953 98.8481C94.0184 99.1352 94.0534 99.4287 94.1969 99.6761C94.3166 99.8751 94.4521 100.015 94.8 100.303C95.1086 100.551 95.2397 100.681 95.3381 100.836C95.4537 101.037 95.481 101.242 95.422 101.462C95.2967 101.93 94.8363 102.183 94.3503 102.053C93.874 101.925 93.5964 101.522 93.7057 101.114L93.8314 100.645L93.2809 100.498L93.1552 100.967C92.9705 101.656 93.4449 102.407 94.1912 102.607C94.9803 102.82 95.7949 102.351 96.0067 101.56Z" fill="#E11A81"/>
<path d="M97.9229 92.7229C98.515 92.8815 99.1389 92.7943 99.6792 92.4776C100.218 92.1614 100.603 91.6579 100.764 91.0601C100.922 90.4687 100.837 89.8463 100.524 89.3053C100.21 88.7632 99.7088 88.377 99.1127 88.2173C97.8982 87.8919 96.5955 88.653 96.267 89.8788C95.9419 91.0924 96.7003 92.3953 97.9229 92.7229ZM98.9691 88.7759C99.9184 89.0302 100.464 89.9709 100.21 90.917C99.954 91.8729 99.0144 92.4236 98.0708 92.1707C97.1182 91.9155 96.5706 90.9742 96.8241 90.0281C97.081 89.0724 98.023 88.5224 98.9691 88.7759Z" fill="#0C419A"/>
<path d="M113.326 97.3771C113.496 96.741 113.118 96.0854 112.482 95.9149L104.813 93.8469L105.33 91.9164C105.617 90.8463 104.725 89.6739 103.722 89.4051C102.721 89.1368 101.643 89.7763 101.368 90.8015L100.694 93.3176L101.258 93.4686L101.932 90.9525C102.132 90.2046 102.853 89.77 103.573 89.963C104.298 90.1573 104.976 90.9624 104.762 91.7641L104.097 94.2435L112.34 96.445C112.669 96.5333 112.851 96.8977 112.763 97.2264L111.583 101.632L112.145 101.783L113.326 97.3771Z" fill="#0C419A"/>
<path d="M88.3553 100.324C88.0258 100.236 87.8394 99.8881 87.9277 99.5586L91.1349 87.5891C91.2754 87.0646 91.7285 86.7927 92.2375 86.929C92.8051 87.0812 93.1212 87.6143 92.9724 88.1697L92.2031 91.0406L92.7716 91.1929L93.5421 88.3171C93.6359 87.9672 93.7388 87.8182 93.9805 87.6828C94.2178 87.5541 94.4946 87.5225 94.7621 87.5942C95.289 87.7353 95.5734 88.2626 95.4237 88.8213L94.6531 91.697L95.2167 91.8481L96.0006 88.9225C96.2147 88.1267 95.7091 87.2439 94.9196 87.0323C94.5322 86.9285 94.0831 86.99 93.7187 87.1948C93.6245 87.2465 93.5538 87.2949 93.4802 87.3608C93.4541 87.2918 93.4255 87.229 93.3831 87.1521L93.3795 87.1459C93.2757 86.9756 93.1489 86.8192 93.0119 86.6943L93.0055 86.689C92.8313 86.5462 92.6266 86.4424 92.3974 86.381C91.5772 86.1603 90.7824 86.6537 90.5485 87.5264L88.6814 94.4947L87.3649 99.4078C87.1944 100.044 87.573 100.7 88.2091 100.87L92.4918 102.018L92.6382 101.471L88.3553 100.324Z" fill="#0C419A"/>
</g>
<path d="M118.498 40.0519C118.135 41.4077 116.741 42.2123 115.385 41.849C114.03 41.4857 113.225 40.0921 113.588 38.7362C113.952 37.3804 115.345 36.5758 116.701 36.9391C118.057 37.3024 118.862 38.696 118.498 40.0519Z" fill="#E7ECFA"/>
<path d="M131.326 108.207C127.708 99.9198 123.104 92.0958 120.545 83.3713C119.62 80.2167 118.879 76.6682 120.004 73.4738C121.29 69.8268 126.083 68.1619 129.623 68.5609C131.582 68.7808 131.775 65.7381 129.83 65.5177C125.596 65.0396 120.957 66.8526 118.326 70.2251C115.937 73.2896 116.18 77.6706 116.88 81.2558C118.853 91.3313 124.552 100.297 128.605 109.588C129.394 111.39 132.111 110.003 131.326 108.207Z" fill="#A0B2EC"/>
<path d="M132.268 62.7417C131.823 62.8316 131.436 63.0421 131.124 63.3319C130.975 63.3395 130.822 63.3533 130.67 63.3864L128.391 63.8521C126.766 64.1835 125.718 65.7714 126.049 67.396C126.381 69.0206 127.966 70.0711 129.593 69.7377L131.872 69.2721C132.027 69.2413 132.169 69.1963 132.313 69.1428C132.712 69.285 133.151 69.328 133.596 69.2381C134.89 68.9744 135.723 67.7125 135.459 66.4186L135.089 64.6067C134.823 63.3147 133.56 62.4799 132.268 62.7417Z" fill="#262939"/>
<path d="M163.987 102.095C164.079 92.0222 165.594 81.8354 163.756 71.8304C163.068 68.0914 161.576 64.2764 158.341 62.0477C154.771 59.5868 149.241 59.9693 145.6 62.03C143.896 62.9932 145.264 65.7212 146.979 64.7485C150.049 63.012 154.75 62.7212 157.498 65.2445C159.966 67.5111 160.65 71.2606 161.083 74.4224C162.335 83.5493 161.027 92.7408 160.943 101.892C160.926 103.848 163.969 104.059 163.987 102.095Z" fill="#A0B2EC"/>
<path d="M142.267 60.4273C142.713 60.3374 143.15 60.3781 143.549 60.5202C143.69 60.4686 143.835 60.4218 143.989 60.391L146.269 59.9253C147.893 59.5939 149.481 60.6425 149.813 62.267C150.144 63.8916 149.096 65.4795 147.469 65.8128L145.189 66.2785C145.035 66.3093 144.885 66.3254 144.735 66.333C144.426 66.6209 144.035 66.8309 143.594 66.9214C142.3 67.185 141.04 66.3507 140.774 65.0587L140.405 63.2468C140.141 61.9529 140.973 60.691 142.267 60.4273Z" fill="#262939"/>
<path d="M160.068 102.137C159.593 107.062 159.643 112.019 158.799 116.906C158.079 121.062 156.337 125.979 151.959 127.396C140.413 131.129 136.975 115.488 132.644 108.355C131.124 105.855 127.032 107.901 128.566 110.429C131.482 115.23 133.17 120.651 136.374 125.301C139.881 130.39 145.005 133.191 151.254 132.256C163.702 130.393 163.853 114.859 164.423 105.235C164.48 104.305 164.546 103.377 164.635 102.448C164.916 99.5016 160.349 99.2097 160.068 102.137Z" fill="#0C419A"/>
<defs>
<clipPath id="clip0_3194_66322">
<rect x="89.5312" y="83.4922" width="28.2016" height="18.9981" rx="1.35097" transform="rotate(15 89.5312 83.4922)" fill="white"/>
</clipPath>
</defs>
</svg>
