<svg width="200" height="200" viewBox="0 0 200 200" fill="none" xmlns="http://www.w3.org/2000/svg">
<path d="M180.867 123.804C172.037 143.823 157.25 162.236 140.086 175.274C106.367 200.883 55.8475 193.253 28.4441 160.359C15.5518 144.883 9.73498 122.728 17.4991 103.786C23.2435 89.7674 36.2352 81.8465 50.5779 79.3918C62.6751 77.322 74.9778 79.3702 87.1353 78.3037C105.722 76.6742 120.56 66.3367 138.061 61.4588C147.655 58.7842 159.695 58.2163 168.696 63.4961C177.24 68.5073 183.257 77.6399 185.516 87.3006C188.367 99.4936 185.893 112.413 180.867 123.804Z" fill="#A0B2EC" fill-opacity="0.16"/>
<path fill-rule="evenodd" clip-rule="evenodd" d="M129.134 89.6311C128.243 114.959 134.669 146.43 113.437 160.181C91.4613 174.415 61.2157 162.677 40.0423 147.335C22.8502 134.877 20.2307 112.043 17.8085 90.888C15.8605 73.8745 18.5985 57.3728 28.1121 43.1369C38.6906 27.3077 52.5085 11.2061 71.4757 10.5822C90.6997 9.94986 106.308 24.6275 117.66 40.1913C128.133 54.5501 129.761 71.8321 129.134 89.6311Z" fill="#A0B2EC" fill-opacity="0.16"/>
<path d="M157.84 106.015C151.567 106.598 145.806 103.51 142.658 98.526C142.085 98.6416 141.502 98.734 140.911 98.7895C132.006 99.6171 124.119 93.0707 123.292 84.1712C123.273 83.977 123.278 83.7828 123.269 83.5887C116.246 82.3681 110.62 76.5939 109.926 69.1552C109.617 65.8266 110.338 62.6366 111.831 59.909C107.342 57.394 104.12 52.7894 103.607 47.2786C103.408 45.1381 103.639 43.053 104.226 41.1113C85.0724 39.937 65.7153 48.0738 53.2884 64.5414C33.5938 90.6389 38.7856 127.763 64.8832 147.453C90.9808 167.147 128.105 161.955 147.794 135.858C154.655 126.769 158.492 116.339 159.482 105.775C158.945 105.881 158.4 105.965 157.84 106.015Z" fill="#D39B50"/>
<path d="M158.001 101.1C151.787 102.223 145.772 99.6387 142.199 94.9416C141.639 95.108 141.066 95.2467 140.474 95.353C131.658 96.9434 123.706 93.7442 122.111 84.9418C122.093 84.8447 122.102 84.8955 122.107 84.9418C114.992 84.3269 107.743 78.1226 106.411 70.7719C105.815 67.4802 106.383 63.1252 107.636 60.2773C102.935 58.16 99.7723 52.6815 98.7876 47.2309C98.4039 45.1135 98.4547 43.0192 98.8754 41.0312C79.6524 41.5121 61.0258 51.29 50.0413 68.77C40.0322 84.7014 38.5482 103.554 44.3733 120.008C45.714 117.942 48.0487 116.661 50.5961 116.869C54.3454 117.179 57.1239 120.595 56.8003 124.507C56.4813 128.353 53.2821 131.233 49.6067 131.03C54.2437 138.653 60.6791 145.338 68.7603 150.401C78.4273 156.457 89.1715 159.379 99.8 159.457C99.4394 158.57 99.1667 157.604 99.0234 156.577C98.316 151.487 100.873 146.929 104.733 146.392C108.593 145.856 112.296 149.545 113.004 154.635C113.17 155.828 113.152 156.989 112.981 158.075C127.992 154.788 141.723 145.722 150.539 131.7C156.604 122.047 159.536 111.326 159.614 100.711C159.092 100.868 158.551 100.998 158.001 101.1ZM67.5167 74.5952C63.5038 72.2143 62.7965 65.9915 65.9402 60.7027C69.0793 55.4138 74.8814 53.056 78.8896 55.4416C82.9025 57.8225 83.6098 64.0452 80.4661 69.3341C77.327 74.6229 71.5296 76.9807 67.5167 74.5952ZM97.1602 116.291C96.7164 121.71 92.1395 125.755 86.9431 125.329C81.7467 124.899 77.8956 120.161 78.3395 114.742C78.7879 109.324 83.3602 105.279 88.5566 105.704C93.753 106.134 97.6041 110.873 97.1602 116.291ZM144.08 122.556C140.146 123.101 136.369 119.338 135.648 114.151C134.927 108.964 137.534 104.313 141.468 103.767C145.403 103.222 149.18 106.985 149.901 112.172C150.622 117.359 148.019 122.005 144.08 122.556Z" fill="#F0B323"/>
<path d="M134.155 56.2087L127.749 60.5416L127.682 64.1986L127.075 65.3307L128.395 66.6738L132.555 68.1566L134.279 67.6604C135.775 66.5914 138.969 64.2424 139.772 63.3987C140.574 62.5551 140.665 61.0993 140.611 60.4769L139.644 57.1176L134.155 56.2087Z" fill="#D39B50"/>
<path d="M128.658 60.9684L129.141 60.0184L130.363 59.6665C130.713 59.566 131.564 59.2397 132.177 58.7391C132.942 58.1133 134.111 57.5741 134.353 57.0991C134.594 56.6242 135.925 56.6466 136.274 56.5461C136.623 56.4455 138.303 56.3674 138.652 56.2668C138.932 56.1864 139.226 56.5072 139.338 56.6776L140.858 58.6727C140.939 59.3926 141.072 61.1247 140.955 62.2937C140.808 63.7549 140.297 63.2939 139.881 63.8191C139.464 64.3444 138.35 65.0707 137.584 65.6965C136.818 66.3223 134.884 67.4873 134.71 67.5376L133.487 67.8895L132.963 68.0404L132.734 67.9034L131.995 67.3055L131.135 66.9449L130.503 66.7214C130.22 66.3973 129.575 65.7317 129.252 65.6623C128.93 65.593 128.867 64.7599 128.875 64.3519L128.914 62.5163L128.658 60.9684Z" fill="#E8B96E"/>
<path d="M156.968 63.9808L154.201 63.2234C154.201 63.2234 152.913 63.2234 152.545 63.5914C152.177 63.9594 152.729 65.0632 152.545 65.4312C152.361 65.7992 151.809 66.3511 151.809 66.3511C151.809 66.3511 151.657 66.8357 151.625 67.271C151.593 67.7064 152.177 68.0069 152.177 68.0069L153.869 68.8071L154.623 68.5901C155.277 68.1227 156.674 67.0958 157.024 66.7269C157.375 66.3581 157.415 65.7216 157.391 65.4495L156.968 63.9808Z" fill="#D39B50"/>
<path d="M152.42 65.9817L152.724 65.6137L152.906 65.0933C152.906 65.0933 152.719 63.9476 152.93 63.6467C152.82 63.7326 152.731 63.7716 153.243 63.2219C154.271 62.118 155.331 63.2658 155.483 63.2219C155.636 63.1779 156.377 63.6509 156.53 63.6069C156.652 63.5718 156.78 63.712 156.829 63.7865L157.494 64.6588C157.53 64.9735 157.588 65.7308 157.536 66.2419C157.472 66.8808 157.249 66.6792 157.067 66.9088C156.885 67.1385 156.397 67.456 156.063 67.7296C155.728 68.0032 154.882 68.5125 154.806 68.5345L154.271 68.6884L154.042 68.7543L153.942 68.6945L153.619 68.433L153.243 68.2754L152.967 68.1777C152.843 68.036 152.561 67.745 152.42 67.7147C152.279 67.6844 152.251 67.3201 152.255 67.1418L152.272 66.3392L152.42 65.9817Z" fill="#E8B96E"/>
<path d="M149.012 56.4495L146.983 55.8943C146.983 55.8943 146.039 55.8943 145.769 56.164C145.499 56.4338 145.904 57.243 145.769 57.5127C145.634 57.7825 145.23 58.1871 145.23 58.1871C145.23 58.1871 145.119 58.5423 145.095 58.8614C145.072 59.1806 145.5 59.4009 145.5 59.4009L146.74 59.9875L147.293 59.8284C147.772 59.4858 148.796 58.733 149.053 58.4626C149.31 58.1922 149.34 57.7256 149.322 57.5261L149.012 56.4495Z" fill="#D39B50"/>
<path d="M145.68 57.9182L145.903 57.6485L146.036 57.267C146.036 57.267 145.899 56.4271 146.054 56.2065C145.973 56.2695 145.909 56.2981 146.284 55.8951C147.037 55.0859 147.814 55.9273 147.926 55.8951C148.038 55.8629 148.581 56.2096 148.693 56.1774C148.783 56.1516 148.877 56.2544 148.913 56.309L149.4 56.9484C149.426 57.1792 149.469 57.7343 149.431 58.109C149.384 58.5773 149.22 58.4295 149.087 58.5979C148.953 58.7662 148.596 58.999 148.351 59.1996C148.105 59.4001 147.485 59.7735 147.429 59.7896L147.038 59.9024L146.87 59.9508L146.796 59.9069L146.559 59.7152L146.284 59.5997L146.081 59.528C145.991 59.4242 145.784 59.2108 145.68 59.1886C145.577 59.1664 145.557 58.8994 145.559 58.7686L145.572 58.1803L145.68 57.9182Z" fill="#E8B96E"/>
<path d="M79.5472 68.3788C82.6879 63.0903 81.9806 56.8711 77.9676 54.4879C73.9546 52.1048 68.1554 54.46 65.0147 59.7485C61.8741 65.037 62.5813 71.2562 66.5944 73.6393C70.6074 76.0225 76.4066 73.6673 79.5472 68.3788Z" fill="#67380F"/>
<path d="M78.08 64.3259C79.6171 64.3259 80.8631 62.6824 80.8631 60.6551C80.8631 58.6278 79.6171 56.9844 78.08 56.9844C76.5429 56.9844 75.2969 58.6278 75.2969 60.6551C75.2969 62.6824 76.5429 64.3259 78.08 64.3259Z" fill="#8A4F14"/>
<path d="M55.8842 123.551C55.5605 127.462 51.6124 132.201 48.5149 130.069C46.3559 128.585 45.3342 127.397 44.2986 122.991C43.4017 119.173 45.9306 115.604 49.6799 115.913C53.4293 116.223 56.2078 119.644 55.8842 123.551Z" fill="#67380F"/>
<path d="M53.7715 124.642C54.9793 124.358 55.6543 122.837 55.2793 121.247C54.9043 119.656 53.6212 118.598 52.4134 118.883C51.2056 119.168 50.5306 120.688 50.9056 122.278C51.2806 123.869 52.5637 124.927 53.7715 124.642Z" fill="#8A4F14"/>
<path d="M96.2433 115.339C96.6896 109.922 92.8371 105.183 87.6385 104.755C82.4399 104.326 77.8637 108.371 77.4175 113.788C76.9712 119.206 80.8237 123.945 86.0223 124.373C91.2209 124.801 95.7971 120.757 96.2433 115.339Z" fill="#67380F"/>
<path d="M93.7985 116.853C95.0249 116.663 95.7498 114.767 95.4176 112.617C95.0854 110.467 93.8219 108.878 92.5956 109.067C91.3692 109.257 90.6443 111.153 90.9765 113.303C91.3087 115.453 92.5721 117.042 93.7985 116.853Z" fill="#8A4F14"/>
<path d="M143.154 121.604C147.089 121.057 149.695 116.407 148.974 111.218C148.253 106.028 144.478 102.264 140.543 102.811C136.608 103.358 134.002 108.008 134.723 113.197C135.444 118.387 139.219 122.151 143.154 121.604Z" fill="#67380F"/>
<path d="M146.322 114.596C147.628 114.496 148.559 112.743 148.402 110.681C148.244 108.619 147.058 107.028 145.752 107.128C144.445 107.228 143.514 108.98 143.672 111.042C143.83 113.105 145.016 114.695 146.322 114.596Z" fill="#8A4F14"/>
<path d="M112.086 153.677C112.793 158.767 112.76 158.531 106.538 159.456C100.417 160.366 98.8171 160.709 98.1098 155.619C97.4024 150.528 99.959 145.97 103.819 145.434C107.675 144.902 111.378 148.591 112.086 153.677Z" fill="#67380F"/>
<path d="M109.467 155.787C110.739 155.61 111.582 154.108 111.349 152.431C111.116 150.754 109.896 149.538 108.624 149.715C107.352 149.892 106.509 151.394 106.742 153.071C106.975 154.748 108.195 155.964 109.467 155.787Z" fill="#8A4F14"/>
<path d="M90.2112 65.1901L93.6554 62.4023L96.138 63.142C96.8546 64.1268 97.3447 66.8313 97.3447 66.8313V68.3061L95.2134 69.4526L92.0974 70.7656L90.2112 69.2076L89.5547 68.0611L90.2112 65.1901Z" fill="#D39B50"/>
<path d="M103.951 111.138L107.017 114.384L106.466 116.931C105.532 117.726 102.856 118.424 102.856 118.424L101.372 118.54L100.054 116.487L98.4961 113.459L99.9154 111.448L101.016 110.699L103.951 111.138Z" fill="#D39B50"/>
<path d="M69.5497 132.574L73.6089 132.819L74.834 134.858C74.7092 135.968 73.3638 138.103 73.3638 138.103L72.4484 139.102L70.2941 138.561L67.3722 137.521L67.0625 135.297L67.3306 134.114L69.5497 132.574Z" fill="#D39B50"/>
<path d="M57.0503 95.4376L58.9781 93.875L60.3697 94.2865C60.7719 94.8366 61.0446 96.353 61.0446 96.353V97.1805L59.8519 97.8232L58.1043 98.5582L57.0456 97.6845L56.6758 97.0418L57.0503 95.4376Z" fill="#D39B50"/>
<path d="M143.304 122.82L146.101 120.555L148.117 121.156C148.7 121.955 149.097 124.151 149.097 124.151V125.349L147.368 126.283L144.839 127.346L143.309 126.079L142.777 125.145L143.304 122.82Z" fill="#D39B50"/>
<path d="M90.0823 64.6862L93.5265 61.8984L96.0091 62.6381C96.7257 63.6229 97.2158 66.3274 97.2158 66.3274V67.8022L95.0845 68.9487L91.9685 70.2617L90.0823 68.7037L89.4258 67.5571L90.0823 64.6862Z" fill="#F1C874"/>
<path d="M103.819 110.631L106.884 113.876L106.334 116.423C105.4 117.219 102.723 117.917 102.723 117.917L101.239 118.032L99.9213 115.98L98.3633 112.951L99.7826 110.94L100.883 110.191L103.819 110.631Z" fill="#F1C874"/>
<path d="M69.4208 132.07L73.4799 132.315L74.7051 134.354C74.5803 135.464 73.2349 137.6 73.2349 137.6L72.3195 138.598L70.1652 138.057L67.2433 137.017L66.9336 134.793L67.2017 133.61L69.4208 132.07Z" fill="#F1C874"/>
<path d="M56.9174 94.9337L58.8453 93.3711L60.2369 93.7826C60.6391 94.3327 60.9118 95.8491 60.9118 95.8491V96.6766L59.7191 97.3192L57.9715 98.0543L56.9128 97.1806L56.543 96.5379L56.9174 94.9337Z" fill="#F1C874"/>
<path d="M143.175 122.312L145.972 120.047L147.988 120.648C148.571 121.448 148.968 123.644 148.968 123.644V124.841L147.239 125.775L144.71 126.838L143.18 125.572L142.648 124.638L143.175 122.312Z" fill="#F1C874"/>
</svg>
