<svg width="160" height="160" viewBox="0 0 160 160" fill="none" xmlns="http://www.w3.org/2000/svg">
<path d="M130.49 139.856C116.417 147.656 99.571 151.864 83.7237 151.862C52.5939 151.857 26.4118 124.891 24.9996 93.4113C24.3359 78.6005 30.7844 63.0266 43.7546 55.3825C53.3527 49.7244 64.4813 50.8669 73.9697 55.8146C81.9723 59.9879 88.2635 66.6662 95.8552 71.4544C107.461 78.7756 120.746 79.3239 133.16 84.2574C139.966 86.9617 147.268 91.9899 150.189 99.0919C152.962 105.833 152.422 113.864 149.448 120.532C145.694 128.948 138.499 135.417 130.49 139.856Z" fill="#A0B2EC" fill-opacity="0.16"/>
<path fill-rule="evenodd" clip-rule="evenodd" d="M38.743 28.9262C54.717 19.3227 71.5481 2.74 88.5295 10.3327C106.106 18.1916 110.981 41.5664 110 60.7866C109.203 76.3927 96.173 87.1636 84.0988 97.1397C74.3885 105.163 63.1173 110.088 50.5298 109.923C36.5335 109.739 21.072 107.664 13.0919 96.2067C5.00362 84.5939 7.80347 69.0756 12.8539 55.8288C17.5133 43.6077 27.5175 35.675 38.743 28.9262Z" fill="#A0B2EC" fill-opacity="0.16"/>
<path d="M35.7969 87.0388C35.7969 81.9519 39.9206 77.8281 45.0076 77.8281H110.04C115.127 77.8281 119.25 81.9519 119.25 87.0388V119.954C119.25 125.041 115.127 129.165 110.04 129.165H45.0076C39.9207 129.165 35.7969 125.041 35.7969 119.954V87.0388Z" fill="#F0B323"/>
<path d="M35.7969 87.0388C35.7969 81.9519 39.9206 77.8281 45.0076 77.8281H110.04C115.127 77.8281 119.25 81.9519 119.25 87.0388V119.954C119.25 125.041 115.127 129.165 110.04 129.165H45.0076C39.9207 129.165 35.7969 125.041 35.7969 119.954V87.0388Z" fill="black" fill-opacity="0.2"/>
<g filter="url(#filter0_d_31035_175962)">
<path d="M45.6031 126.398H110.403C113.938 126.398 116.803 123.533 116.803 119.998V44.7984C116.803 41.2638 113.938 38.3984 110.403 38.3984H100.823H45.6031C42.0685 38.3984 39.2031 41.2638 39.2031 44.7984V119.998C39.2031 123.533 42.0685 126.398 45.6031 126.398Z" fill="white"/>
</g>
<rect x="84" y="49.5996" width="24.8" height="6.4" rx="3.2" fill="#0C419A"/>
<rect x="84" y="64" width="24.8" height="4.8" rx="2.4" fill="#BDCCF8"/>
<rect x="84" y="76.8008" width="12.8" height="4.8" rx="2.4" fill="#BDCCF8"/>
<rect x="47.1992" y="86.4004" width="61.6" height="4.8" rx="2.4" fill="#BDCCF8"/>
<rect x="47.2031" y="121.6" width="28" height="4.80001" rx="2.40001" fill="#BDCCF8"/>
<path d="M109.978 129.585L35.7969 86.8047V120.374C35.7969 125.461 39.9207 129.585 45.0076 129.585H109.978Z" fill="#F0B323"/>
<path d="M109.978 129.585L35.7969 86.8047V120.374C35.7969 125.461 39.9207 129.585 45.0076 129.585H109.978Z" fill="black" fill-opacity="0.05"/>
<path d="M45.073 129.585L119.254 86.8047V120.374C119.254 125.461 115.13 129.585 110.043 129.585H45.073Z" fill="#F0B323"/>
<path d="M45.073 129.585L119.254 86.8047V120.374C119.254 125.461 115.13 129.585 110.043 129.585H45.073Z" fill="black" fill-opacity="0.05"/>
<path d="M111.012 129.587L83.6675 105.132C80.1713 102.005 74.8836 102.005 71.3873 105.132L44.043 129.587H111.012Z" fill="#F0B323"/>
<ellipse cx="63.1953" cy="66.4004" rx="16" ry="16" fill="#F9FAFF"/>
<path d="M58.0453 61.4304C58.0453 58.8725 60.172 56.7988 62.7953 56.7988C65.4187 56.7988 67.5453 58.8725 67.5453 61.4304C67.5453 63.9884 65.4187 66.062 62.7953 66.062C60.172 66.062 58.0453 63.9884 58.0453 61.4304ZM62.7953 64.2094C64.3693 64.2094 65.6453 62.9652 65.6453 61.4304C65.6453 59.8956 64.3693 58.6515 62.7953 58.6515C61.2213 58.6515 59.9453 59.8956 59.9453 61.4304C59.9453 62.9652 61.2213 64.2094 62.7953 64.2094Z" fill="#BDCCF8"/>
<path d="M57.4213 69.1588C56.227 70.3233 55.4712 71.8356 55.2576 73.4515C55.1889 73.9717 55.6206 74.3988 56.1453 74.3988V74.3988C56.67 74.3988 57.0869 73.9703 57.1783 73.4536C57.3771 72.3304 57.9271 71.2856 58.7648 70.4688C59.8338 69.4265 61.2836 68.8409 62.7953 68.8409C64.307 68.8409 65.7569 69.4265 66.8258 70.4688C67.6635 71.2856 68.2135 72.3304 68.4123 73.4536C68.5037 73.9703 68.9206 74.3988 69.4453 74.3988V74.3988C69.97 74.3988 70.4017 73.9717 70.333 73.4515C70.1194 71.8356 69.3636 70.3233 68.1693 69.1588C66.744 67.7691 64.811 66.9883 62.7953 66.9883C60.7797 66.9883 58.8466 67.7691 57.4213 69.1588Z" fill="#BDCCF8"/>
<path fill-rule="evenodd" clip-rule="evenodd" d="M114.931 84.355C112.767 83.7753 110.543 85.0593 109.963 87.2231L108.648 92.1297C108.411 92.1131 108.188 92.266 108.124 92.5043L107.14 96.1774C107.076 96.4157 107.193 96.6598 107.407 96.7641L107.205 97.5168C106.968 97.5002 106.744 97.6531 106.68 97.8914L105.696 101.564C105.632 101.803 105.749 102.047 105.963 102.151L97.4463 133.937C96.8665 136.1 98.1506 138.325 100.314 138.904L118.963 143.901C121.126 144.481 123.351 143.197 123.93 141.033L133.891 103.86C134.128 103.876 134.351 103.723 134.414 103.485L135.398 99.8123C135.462 99.5744 135.346 99.3306 135.133 99.226L136.447 94.3195C137.027 92.1557 135.743 89.9316 133.579 89.3519L114.931 84.355Z" fill="#262939"/>
<path d="M110.65 87.8153C111.169 85.8786 113.16 84.7293 115.097 85.2482L132.986 90.0417C134.923 90.5606 136.072 92.5513 135.553 94.4881L123.346 140.047C122.827 141.984 120.836 143.134 118.899 142.615L101.01 137.821C99.073 137.302 97.9237 135.311 98.4426 133.375L110.65 87.8153Z" fill="#0C419A"/>
<path fill-rule="evenodd" clip-rule="evenodd" d="M132.882 90.4313L114.992 85.6379C113.271 85.1766 111.501 86.1982 111.04 87.9197L98.8322 133.479C98.371 135.201 99.3926 136.97 101.114 137.431L119.004 142.225C120.725 142.686 122.495 141.665 122.956 139.943L135.164 94.3837C135.625 92.6621 134.603 90.8926 132.882 90.4313ZM115.097 85.2482C113.16 84.7293 111.169 85.8786 110.65 87.8153L98.4426 133.375C97.9237 135.311 99.073 137.302 101.01 137.821L118.899 142.615C120.836 143.134 122.827 141.984 123.346 140.047L135.553 94.4881C136.072 92.5513 134.923 90.5606 132.986 90.0417L115.097 85.2482Z" fill="black"/>
<path d="M125.849 110.532C126.004 109.956 125.661 109.363 125.085 109.209L112.364 105.8C111.787 105.645 111.194 105.988 111.04 106.564L108.777 115.007C108.623 115.584 108.965 116.176 109.542 116.331L122.263 119.74C122.84 119.894 123.432 119.552 123.587 118.975L125.849 110.532Z" fill="white"/>
<path d="M110.27 116.35L114.959 117.606L110.647 119.006C110.133 119.173 109.639 118.704 109.779 118.182L110.27 116.35Z" fill="white"/>
<g clip-path="url(#clip0_31035_175962)">
<path d="M113.602 111.113L114.454 111.342L114.513 111.121L113.434 110.832L112.969 112.565L114.049 112.854L114.108 112.634L113.256 112.406L113.449 111.685L114.306 111.914L114.365 111.694L113.508 111.464L113.602 111.113Z" fill="#D81E7E"/>
<path d="M115.496 112.678C115.564 112.424 115.471 112.199 115.221 112.009C114.94 111.789 114.925 111.735 114.955 111.626C114.976 111.547 115.033 111.463 115.186 111.504C115.31 111.537 115.351 111.599 115.336 111.734L115.329 111.799L115.562 111.818L115.567 111.755C115.589 111.512 115.472 111.339 115.249 111.279C115.006 111.214 114.79 111.339 114.725 111.583C114.694 111.699 114.708 111.818 114.766 111.917C114.814 111.998 114.869 112.054 115.009 112.17C115.134 112.27 115.187 112.323 115.226 112.385C115.273 112.467 115.284 112.549 115.26 112.638C115.21 112.827 115.024 112.929 114.828 112.876C114.636 112.825 114.524 112.662 114.568 112.498L114.618 112.308L114.396 112.249L114.345 112.438C114.271 112.716 114.462 113.019 114.763 113.1C115.082 113.186 115.411 112.996 115.496 112.678Z" fill="#262939"/>
<path d="M115.951 112.817L116.355 112.925C116.672 113.01 117.05 112.799 117.133 112.49C117.172 112.346 117.141 112.152 117.055 112.008C117.013 111.939 116.958 111.877 116.889 111.823C116.811 111.759 116.735 111.716 116.662 111.697L116.051 111.533L115.586 113.267L115.814 113.328L115.951 112.817ZM116.219 111.815L116.599 111.917C116.834 111.98 116.965 112.199 116.904 112.427C116.846 112.645 116.633 112.763 116.409 112.703L116.01 112.596L116.219 111.815Z" fill="#262939"/>
<path d="M121.514 114.618L120.662 114.39L120.855 113.669L121.712 113.898L121.771 113.678L120.914 113.448L121.008 113.098L121.861 113.326L121.92 113.106L120.84 112.816L120.375 114.55L121.455 114.839L121.514 114.618Z" fill="#262939"/>
<path d="M120.1 114.081C119.857 114.172 119.728 114.188 119.571 114.146C119.274 114.067 119.079 113.815 119.059 113.526C119.058 113.516 119.057 113.506 119.056 113.496C119.056 113.496 119.056 113.495 119.056 113.495C119.055 113.426 119.063 113.355 119.082 113.285C119.101 113.214 119.129 113.148 119.165 113.09C119.165 113.089 119.166 113.089 119.166 113.088C119.171 113.08 119.177 113.072 119.182 113.064C119.345 112.824 119.64 112.703 119.936 112.783C120.093 112.825 120.197 112.903 120.361 113.104L120.403 113.156L120.578 113.004L120.539 112.955C120.349 112.721 120.202 112.613 119.996 112.558C119.996 112.558 119.995 112.558 119.994 112.558C119.759 112.494 119.509 112.53 119.293 112.656C119.077 112.783 118.923 112.984 118.859 113.222C118.859 113.223 118.859 113.224 118.859 113.225C118.858 113.226 118.858 113.227 118.858 113.228C118.794 113.466 118.827 113.717 118.951 113.935C119.074 114.153 119.272 114.308 119.508 114.371C119.509 114.371 119.51 114.371 119.511 114.372C119.716 114.427 119.897 114.407 120.179 114.299L120.237 114.277L120.162 114.058L120.1 114.081Z" fill="#262939"/>
<path d="M118.198 112.059C117.794 111.951 117.36 112.209 117.249 112.622L116.977 113.637L117.204 113.698L117.38 113.043L118.402 113.317L118.227 113.972L118.456 114.034L118.722 113.039C118.838 112.607 118.603 112.167 118.198 112.059ZM117.438 112.823L117.476 112.683C117.557 112.382 117.847 112.206 118.138 112.284C118.43 112.362 118.579 112.654 118.493 112.977L118.461 113.097L117.438 112.823Z" fill="#F0B323"/>
<path d="M121.571 115.233L121.695 115.129L121.401 115.05L121.282 115.155L120.802 115.026L120.337 116.76L121.417 117.049L121.476 116.828L120.624 116.6L120.817 115.879L121.673 116.108L121.732 115.888L120.876 115.658L120.97 115.308L121.826 115.537L121.885 115.317L121.571 115.233Z" fill="#D81E7E"/>
<path d="M118.526 114.368C118.122 114.259 117.688 114.517 117.577 114.931L117.305 115.946L117.532 116.007L117.804 114.992C117.885 114.69 118.176 114.515 118.466 114.593C118.759 114.671 118.908 114.962 118.821 115.286L118.554 116.281L118.784 116.342L119.05 115.347C119.166 114.916 118.931 114.476 118.526 114.368Z" fill="#D81E7E"/>
<path d="M119.203 114.834L119.774 114.987L119.368 116.5L119.6 116.562L120.006 115.049L120.59 115.206L120.649 114.985L119.262 114.613L119.203 114.834Z" fill="#D81E7E"/>
<path d="M116.776 113.899C116.372 113.791 115.938 114.049 115.827 114.462L115.555 115.477L115.782 115.538L115.958 114.883L116.98 115.157L116.805 115.812L117.034 115.873L117.301 114.879C117.416 114.447 117.181 114.007 116.776 113.899ZM117.039 114.937L116.017 114.663L116.054 114.523C116.135 114.221 116.426 114.046 116.716 114.124C117.009 114.202 117.158 114.494 117.071 114.817L117.039 114.937L117.039 114.937Z" fill="#D81E7E"/>
<path d="M115.464 114.89C115.532 114.637 115.439 114.412 115.189 114.222C114.908 114.002 114.894 113.948 114.923 113.839C114.944 113.76 115.001 113.675 115.155 113.716C115.279 113.75 115.319 113.812 115.304 113.946L115.297 114.012L115.53 114.031L115.535 113.967C115.557 113.725 115.44 113.552 115.217 113.492C114.974 113.427 114.758 113.552 114.693 113.796C114.662 113.912 114.676 114.03 114.734 114.13C114.782 114.21 114.837 114.267 114.977 114.383C115.102 114.483 115.155 114.536 115.194 114.598C115.241 114.679 115.252 114.762 115.228 114.851C115.178 115.039 114.992 115.141 114.796 115.089C114.604 115.037 114.492 114.875 114.536 114.71L114.587 114.521L114.365 114.462L114.314 114.651C114.239 114.929 114.431 115.232 114.732 115.313C115.05 115.399 115.379 115.209 115.464 114.89Z" fill="#D81E7E"/>
<path d="M116.236 111.325C116.475 111.389 116.726 111.354 116.944 111.226C117.162 111.099 117.317 110.896 117.382 110.654C117.446 110.416 117.412 110.165 117.285 109.947C117.159 109.728 116.956 109.572 116.716 109.508C116.226 109.376 115.701 109.683 115.568 110.178C115.437 110.667 115.743 111.193 116.236 111.325ZM116.658 109.733C117.041 109.836 117.261 110.215 117.159 110.597C117.055 110.982 116.676 111.204 116.296 111.102C115.911 110.999 115.69 110.62 115.793 110.238C115.896 109.853 116.276 109.631 116.658 109.733Z" fill="#0C419A"/>
<path d="M122.451 113.203C122.52 112.946 122.367 112.681 122.111 112.613L119.017 111.779L119.226 111C119.341 110.568 118.982 110.095 118.577 109.987C118.173 109.879 117.738 110.137 117.628 110.55L117.356 111.565L117.583 111.626L117.855 110.611C117.936 110.309 118.226 110.134 118.517 110.212C118.809 110.29 119.083 110.615 118.996 110.938L118.728 111.938L122.053 112.827C122.186 112.862 122.26 113.009 122.224 113.142L121.748 114.919L121.975 114.98L122.451 113.203Z" fill="#0C419A"/>
<path d="M112.377 114.393C112.244 114.357 112.169 114.217 112.205 114.084L113.498 109.256C113.555 109.044 113.738 108.934 113.943 108.989C114.172 109.051 114.3 109.266 114.239 109.49L113.929 110.648L114.158 110.709L114.469 109.549C114.507 109.408 114.549 109.348 114.646 109.293C114.742 109.241 114.854 109.229 114.961 109.258C115.174 109.315 115.289 109.527 115.228 109.753L114.917 110.913L115.145 110.974L115.461 109.793C115.547 109.472 115.343 109.116 115.025 109.031C114.869 108.989 114.688 109.014 114.541 109.097C114.503 109.117 114.474 109.137 114.444 109.163C114.434 109.136 114.422 109.11 114.405 109.079L114.404 109.077C114.362 109.008 114.311 108.945 114.255 108.895L114.253 108.892C114.183 108.835 114.1 108.793 114.008 108.768C113.677 108.679 113.356 108.878 113.262 109.23L112.509 112.041L111.978 114.023C111.909 114.28 112.061 114.544 112.318 114.613L114.046 115.076L114.105 114.855L112.377 114.393Z" fill="#0C419A"/>
</g>
<ellipse cx="1.02524" cy="1.02523" rx="1.02524" ry="1.02523" transform="matrix(0.965926 0.258818 -0.25882 0.965926 122.816 88.5566)" fill="#E7ECFA"/>
<defs>
<filter id="filter0_d_31035_175962" x="34.0005" y="35.7971" width="88.0067" height="98.4052" filterUnits="userSpaceOnUse" color-interpolation-filters="sRGB">
<feFlood flood-opacity="0" result="BackgroundImageFix"/>
<feColorMatrix in="SourceAlpha" type="matrix" values="0 0 0 0 0 0 0 0 0 0 0 0 0 0 0 0 0 0 127 0" result="hardAlpha"/>
<feOffset dy="2.60129"/>
<feGaussianBlur stdDeviation="2.60129"/>
<feColorMatrix type="matrix" values="0 0 0 0 0.0470588 0 0 0 0 0.254902 0 0 0 0 0.603922 0 0 0 0.1 0"/>
<feBlend mode="normal" in2="BackgroundImageFix" result="effect1_dropShadow_31035_175962"/>
<feBlend mode="normal" in="SourceGraphic" in2="effect1_dropShadow_31035_175962" result="shape"/>
</filter>
<clipPath id="clip0_31035_175962">
<rect x="112.852" y="107.602" width="11.376" height="7.6635" rx="0.236914" transform="rotate(15 112.852 107.602)" fill="white"/>
</clipPath>
</defs>
</svg>
