<svg width="161" height="161" viewBox="0 0 161 161" fill="none" xmlns="http://www.w3.org/2000/svg">
<path d="M52.7735 147.04C68.3638 152.594 86.171 154.047 102.262 151.404C133.87 146.21 155.958 114.537 152.143 82.4217C150.348 67.3117 141.203 52.6142 126.759 47.0346C116.069 42.9042 104.96 45.9161 96.1507 52.5082C88.7208 58.0684 83.4463 65.8803 76.5363 71.9948C65.9723 81.3436 52.575 84.113 40.7918 91.1785C34.3319 95.0516 27.7568 101.361 25.9751 109.04C24.2831 116.33 26.1705 124.373 30.3024 130.63C35.5172 138.527 43.9015 143.88 52.7735 147.04Z" fill="#A0B2EC" fill-opacity="0.16"/>
<path fill-rule="evenodd" clip-rule="evenodd" d="M97.3686 47.6167C105.874 65.876 121.787 85.8497 111.688 103.237C101.235 121.235 75.547 123.818 54.9929 120.579C38.3037 117.949 28.2073 102.721 18.8566 88.6107C11.3366 77.2629 7.32501 64.5895 8.93706 51.08C10.7295 36.0584 14.7215 19.677 27.9502 12.4024C41.3581 5.02929 57.7246 9.80193 71.3923 16.7352C84.0018 23.1317 91.3913 34.7852 97.3686 47.6167Z" fill="#A0B2EC" fill-opacity="0.16"/>
<rect x="33.834" y="33.9668" width="93.3333" height="93.3333" fill="white"/>
<path d="M25.8815 33.9668C25.1185 33.9668 24.5 33.3483 24.5 32.5853L24.5 24.6335C26.0259 24.6335 27.263 25.8705 27.263 27.3964L27.263 32.5853C27.263 33.3483 26.6445 33.9668 25.8815 33.9668Z" fill="#0C419A"/>
<path d="M33.8333 26.015C33.8333 26.7779 33.2148 27.3964 32.4519 27.3964L27.263 27.3964C25.737 27.3964 24.5 26.1594 24.5 24.6335L32.4519 24.6335C33.2148 24.6335 33.8333 25.252 33.8333 26.015Z" fill="#0C419A"/>
<path d="M135.119 127.301C135.881 127.301 136.5 127.919 136.5 128.682L136.5 136.634C134.974 136.634 133.737 135.397 133.737 133.871L133.737 128.682C133.737 127.919 134.356 127.301 135.119 127.301Z" fill="#0C419A"/>
<path d="M127.167 135.253C127.167 134.49 127.785 133.871 128.548 133.871L133.737 133.871C135.263 133.871 136.5 135.108 136.5 136.634L128.548 136.634C127.785 136.634 127.167 136.016 127.167 135.253Z" fill="#0C419A"/>
<path d="M127.168 26.0143C127.168 25.2513 127.786 24.6328 128.549 24.6328H136.501C136.501 26.1588 135.264 27.3958 133.738 27.3958H128.549C127.786 27.3958 127.168 26.7773 127.168 26.0143Z" fill="#0C419A"/>
<path d="M135.12 33.9661C134.357 33.9661 133.738 33.3476 133.738 32.5847L133.738 27.3958C133.738 25.8698 134.975 24.6328 136.501 24.6328V32.5847C136.501 33.3476 135.883 33.9661 135.12 33.9661Z" fill="#0C419A"/>
<path d="M33.834 135.251C33.834 136.014 33.2155 136.633 32.4525 136.633L24.5007 136.633C24.5007 135.107 25.7377 133.87 27.2636 133.87L32.4525 133.87C33.2155 133.87 33.834 134.488 33.834 135.251Z" fill="#0C419A"/>
<path d="M25.8821 127.299C26.6451 127.299 27.2636 127.918 27.2636 128.681L27.2636 133.87C27.2636 135.396 26.0266 136.633 24.5007 136.633L24.5007 128.681C24.5007 127.918 25.1192 127.299 25.8821 127.299Z" fill="#0C419A"/>
<mask id="mask0_17999_187505" style="mask-type:alpha" maskUnits="userSpaceOnUse" x="40" y="75" width="82" height="47">
<rect x="40.9512" y="75.7871" width="80.9631" height="45.5193" fill="#D9D9D9"/>
</mask>
<g mask="url(#mask0_17999_187505)">
<path fill-rule="evenodd" clip-rule="evenodd" d="M52.4993 43.2988H43.166V117.965H43.1665V117.967H117.833V108.633H52.4993V43.2988ZM71.166 43.2988V52.6322H61.8327V43.2988H71.166ZM71.166 71.2988V61.966H61.8332V52.6332H52.4999L52.4999 61.9665H61.8327V71.2988H52.5004V80.6322H80.5004V71.2988H71.166ZM71.166 99.2994V108.632H61.8327V99.2999H52.4999L52.4999 80.6332H61.8332V99.2988H61.8337V89.966H80.4993V80.6332H99.166V89.9665H80.5004V99.2994H71.166ZM117.833 99.2994V89.966H99.1665V99.2994H117.833ZM99.166 99.2988V108.632H89.8327V99.2988H99.166ZM99.166 52.6332V61.9665H89.8327V61.9655H80.4999V43.2988H89.8332V52.6332H99.166ZM117.833 61.9665V52.6332H108.5V61.966H99.1671V71.2988H99.1665V80.6322H117.833V71.2988H108.5V61.9665H117.833ZM108.5 52.6322V43.2988H99.1671V52.6322H108.5Z" fill="#0C419A"/>
</g>
<mask id="mask1_17999_187505" style="mask-type:alpha" maskUnits="userSpaceOnUse" x="42" y="43" width="77" height="36">
<rect x="42.8125" y="43.3281" width="75.6" height="35.4667" fill="#08CBA2"/>
</mask>
<g mask="url(#mask1_17999_187505)">
<path fill-rule="evenodd" clip-rule="evenodd" d="M52.4994 43.2988H43.166V117.965H43.1665V117.967L117.833 117.967V108.633H52.4994V43.2988ZM71.166 43.2988V52.6322H61.8327V43.2988H71.166ZM71.166 71.2988V61.966H61.8332V52.6332H52.4999V61.9665H61.8327V71.2988H52.5004V80.6322H80.5004V71.2988H71.166ZM71.166 99.2993V108.632H61.8327V99.2999H52.4999V80.6332H61.8332V99.2988H61.8337V89.966H80.4994V80.6332H99.166V89.9665H80.5004V99.2993H71.166ZM117.833 99.2993V89.966H99.1665V99.2993H117.833ZM99.166 99.2988V108.632H89.8327V99.2988H99.166ZM99.166 52.6332V61.9665H89.8327V61.9655H80.4999V43.2988H89.8332V52.6332H99.166ZM117.833 61.9665V52.6332H108.5L108.5 61.966H99.1671V71.2988H99.1665V80.6322H117.833V71.2988H108.5V61.9665H117.833ZM108.5 52.6322V43.2988H99.1671V52.6322H108.5Z" fill="#07CBA2"/>
</g>
<rect x="24.5" y="61.9355" width="112" height="18.6667" fill="url(#paint0_linear_17999_187505)"/>
<defs>
<linearGradient id="paint0_linear_17999_187505" x1="80.5" y1="61.9355" x2="80.5" y2="87.3901" gradientUnits="userSpaceOnUse">
<stop stop-color="#07CBA2" stop-opacity="0"/>
<stop offset="0.229005" stop-color="#07CBA2" stop-opacity="0.1"/>
<stop offset="0.65635" stop-color="#07CBA2"/>
<stop offset="1" stop-color="#07CBA2"/>
</linearGradient>
</defs>
</svg>
