<svg width="200" height="200" viewBox="0 0 200 200" fill="none" xmlns="http://www.w3.org/2000/svg">
<path d="M36.5533 55.407C54.7974 43.688 77.0876 36.5518 98.404 35.1595C140.277 32.4267 177.866 66.3549 182.532 108.528C184.727 128.37 177.423 149.863 160.648 161.275C148.235 169.723 133.166 169.167 119.968 163.354C108.837 158.451 99.7871 150.031 89.1546 144.266C72.8995 135.45 54.9825 135.883 37.8497 130.346C28.457 127.312 18.1941 121.198 13.6408 111.913C9.31762 103.099 9.33791 92.2603 12.7526 83.0396C17.0619 71.4018 26.171 62.0756 36.5533 55.407Z" fill="#A0B2EC" fill-opacity="0.16"/>
<path d="M180.87 49.6364C174.196 41.4111 163.505 36.7622 152.529 35.8125C145.562 35.2101 138.253 36.0442 131.884 39.1921C121.442 44.3538 115.028 54.7508 106.898 62.9823C97.1775 72.8253 84.7706 79.7124 73.8967 88.3534C63.0244 96.9936 53.1701 108.518 52.1285 121.805C51.5076 129.701 54.1423 137.497 58.5917 143.921C67.2605 156.439 82.6739 163.785 98.5398 164.645C143.425 167.079 184.397 125.618 188.862 84.1292C190.165 72.0102 188.51 59.0522 180.87 49.6364Z" fill="#A0B2EC" fill-opacity="0.16"/>
<g filter="url(#filter0_d_3194_65941)">
<path d="M46 42.9961C46 38.5778 49.5817 34.9961 54 34.9961H122.946V46.9509C122.946 51.3692 126.528 54.9509 130.946 54.9509H142.901V166.996C142.901 171.415 139.319 174.996 134.901 174.996H54C49.5817 174.996 46 171.415 46 166.996V42.9961Z" fill="white"/>
</g>
<path d="M126.77 54.9509H142.9L122.945 34.9961V51.1258C122.945 53.2383 124.658 54.9509 126.77 54.9509Z" fill="#BDCCF8"/>
<rect x="56" y="54.9961" width="38" height="8" rx="4" fill="#C74E5A"/>
<rect x="56" y="72.9922" width="77" height="5.99999" rx="3" fill="#BDCCF8"/>
<rect x="56" y="94.9961" width="77" height="6" rx="3" fill="#BDCCF8"/>
<rect x="56" y="116.996" width="77" height="6" rx="3" fill="#BDCCF8"/>
<rect x="56" y="138.992" width="35" height="6" rx="3" fill="#BDCCF8"/>
<g filter="url(#filter1_d_3194_65941)">
<path d="M61 28C61 23.5817 64.5817 20 69 20H137.946V31.9548C137.946 36.3731 141.528 39.9548 145.946 39.9548H157.901V152C157.901 156.419 154.319 160 149.901 160H69C64.5817 160 61 156.419 61 152V28Z" fill="white"/>
</g>
<path d="M142.384 39.9548H157.898L137.943 20V35.514C137.943 37.9666 139.932 39.9548 142.384 39.9548Z" fill="#BDCCF8"/>
<rect x="70.998" y="40" width="32" height="8" rx="4" fill="#C74E5A"/>
<rect x="70.998" y="58" width="77" height="6" rx="3" fill="#BDCCF8"/>
<rect x="70.998" y="78" width="77" height="6" rx="3" fill="#BDCCF8"/>
<rect x="70.998" y="98.0039" width="77" height="6" rx="3" fill="#BDCCF8"/>
<path d="M70.998 120.545C70.998 119.142 72.1358 118.004 73.5393 118.004L145.457 118.004C146.86 118.004 147.998 119.142 147.998 120.545L147.998 144.463C147.998 145.866 146.86 147.004 145.457 147.004L73.5393 147.004C72.1358 147.004 70.998 145.866 70.998 144.463L70.998 120.545Z" fill="#F9FAFF"/>
<path fill-rule="evenodd" clip-rule="evenodd" d="M111.801 126.1L106.769 136.019C106.386 136.775 105.61 137.252 104.762 137.252H101.872L100.253 141.967C99.5852 143.911 96.8764 144.016 96.0599 142.13L91.0628 130.589L88.6461 135.929C88.2817 136.734 87.4799 137.252 86.5962 137.252H78.998C78.3077 137.252 77.748 136.692 77.748 136.002C77.748 135.311 78.3077 134.752 78.998 134.752H86.4349L89.0181 129.044C89.8232 127.265 92.3568 127.286 93.1327 129.078L98.0978 140.545L99.5659 136.271C99.8781 135.362 100.733 134.752 101.694 134.752H104.609L109.828 124.463C110.714 122.717 113.252 122.856 113.941 124.689L119.229 138.752L120.459 136.065C120.826 135.265 121.625 134.752 122.505 134.752H126.591L128.649 130.694C129.482 129.051 131.829 129.051 132.662 130.694L134.721 134.752H139.998C140.688 134.752 141.248 135.311 141.248 136.002C141.248 136.692 140.688 137.252 139.998 137.252H134.567C133.719 137.252 132.944 136.775 132.56 136.019L130.656 132.265L128.751 136.019C128.368 136.775 127.592 137.252 126.744 137.252H122.665L121.252 140.339C120.419 142.157 117.804 142.066 117.1 140.194L111.801 126.1Z" fill="#BDCCF8"/>
<path d="M125.912 106.912C116.539 116.284 101.343 116.284 91.9709 106.912C82.5983 97.5391 82.5983 82.3431 91.9708 72.9706C101.343 63.598 116.539 63.598 125.912 72.9706C135.285 82.3432 135.285 97.5391 125.912 106.912Z" fill="#C74E5A"/>
<path fill-rule="evenodd" clip-rule="evenodd" d="M129.306 110.305C118.059 121.552 99.8238 121.552 88.5767 110.305C77.3296 99.0579 77.3296 80.8227 88.5767 69.5756C99.8238 58.3285 118.059 58.3285 129.306 69.5756C140.553 80.8227 140.553 99.0579 129.306 110.305ZM91.9709 106.911C101.343 116.283 116.539 116.283 125.912 106.911C135.285 97.5383 135.285 82.3423 125.912 72.9697C116.539 63.5971 101.343 63.5971 91.9708 72.9697C82.5983 82.3423 82.5983 97.5383 91.9709 106.911Z" fill="white"/>
<rect x="115.939" y="79.9414" width="4" height="24" rx="2" transform="rotate(45 115.939 79.9414)" fill="white"/>
<rect x="118.939" y="96.9414" width="4" height="24" rx="2" transform="rotate(135 118.939 96.9414)" fill="white"/>
<defs>
<filter id="filter0_d_3194_65941" x="33.1151" y="28.5537" width="122.67" height="165.77" filterUnits="userSpaceOnUse" color-interpolation-filters="sRGB">
<feFlood flood-opacity="0" result="BackgroundImageFix"/>
<feColorMatrix in="SourceAlpha" type="matrix" values="0 0 0 0 0 0 0 0 0 0 0 0 0 0 0 0 0 0 127 0" result="hardAlpha"/>
<feOffset dy="6.44244"/>
<feGaussianBlur stdDeviation="6.44244"/>
<feColorMatrix type="matrix" values="0 0 0 0 0.0470588 0 0 0 0 0.254902 0 0 0 0 0.603922 0 0 0 0.1 0"/>
<feBlend mode="normal" in2="BackgroundImageFix" result="effect1_dropShadow_3194_65941"/>
<feBlend mode="normal" in="SourceGraphic" in2="effect1_dropShadow_3194_65941" result="shape"/>
</filter>
<filter id="filter1_d_3194_65941" x="48.1151" y="13.5576" width="122.67" height="165.77" filterUnits="userSpaceOnUse" color-interpolation-filters="sRGB">
<feFlood flood-opacity="0" result="BackgroundImageFix"/>
<feColorMatrix in="SourceAlpha" type="matrix" values="0 0 0 0 0 0 0 0 0 0 0 0 0 0 0 0 0 0 127 0" result="hardAlpha"/>
<feOffset dy="6.44244"/>
<feGaussianBlur stdDeviation="6.44244"/>
<feColorMatrix type="matrix" values="0 0 0 0 0.0470588 0 0 0 0 0.254902 0 0 0 0 0.603922 0 0 0 0.1 0"/>
<feBlend mode="normal" in2="BackgroundImageFix" result="effect1_dropShadow_3194_65941"/>
<feBlend mode="normal" in="SourceGraphic" in2="effect1_dropShadow_3194_65941" result="shape"/>
</filter>
</defs>
</svg>
