<svg width="200" height="200" viewBox="0 0 200 200" fill="none" xmlns="http://www.w3.org/2000/svg">
<path d="M36.5533 55.409C54.7974 43.69 77.0876 36.5538 98.404 35.1614C140.277 32.4287 177.866 66.3569 182.532 108.53C184.727 128.372 177.423 149.865 160.648 161.277C148.235 169.724 133.166 169.169 119.968 163.356C108.837 158.453 99.7871 150.033 89.1546 144.268C72.8995 135.452 54.9825 135.884 37.8497 130.348C28.457 127.314 18.1941 121.2 13.6408 111.915C9.31762 103.1 9.33791 92.2622 12.7526 83.0416C17.0619 71.4037 26.171 62.0775 36.5533 55.409Z" fill="#A0B2EC" fill-opacity="0.16"/>
<path d="M180.87 49.6384C174.196 41.413 163.505 36.7641 152.529 35.8145C145.562 35.2121 138.253 36.0462 131.884 39.194C121.442 44.3558 115.028 54.7527 106.898 62.9843C97.1775 72.8273 84.7706 79.7144 73.8967 88.3553C63.0244 96.9956 53.1701 108.52 52.1285 121.807C51.5076 129.703 54.1423 137.499 58.5917 143.923C67.2605 156.441 82.6739 163.787 98.5398 164.647C143.425 167.081 184.397 125.62 188.862 84.1312C190.165 72.0122 188.51 59.0542 180.87 49.6384Z" fill="#A0B2EC" fill-opacity="0.16"/>
<g filter="url(#filter0_d_8477_7719)">
<path d="M46 43C46 38.5817 49.5817 35 54 35H122.946V46.9548C122.946 51.3731 126.528 54.9548 130.946 54.9548H142.901V167C142.901 171.419 139.319 175 134.901 175H54C49.5817 175 46 171.419 46 167V43Z" fill="white"/>
</g>
<path d="M127.386 54.9548H142.9L122.945 35V50.514C122.945 52.9666 124.934 54.9548 127.386 54.9548Z" fill="#BDCCF8"/>
<rect x="56" y="55" width="38" height="8" rx="4" fill="#298478"/>
<rect x="56" y="73" width="77" height="6" rx="3" fill="#BDCCF8"/>
<rect x="56" y="95" width="77" height="6" rx="3" fill="#BDCCF8"/>
<rect x="56" y="117" width="77" height="6" rx="3" fill="#BDCCF8"/>
<rect x="56" y="139" width="35" height="6" rx="3" fill="#BDCCF8"/>
<g filter="url(#filter1_d_8477_7719)">
<path d="M61 28C61 23.5817 64.5817 20 69 20H137.946V31.9548C137.946 36.3731 141.528 39.9548 145.946 39.9548H157.901V152C157.901 156.419 154.319 160 149.901 160H69C64.5817 160 61 156.419 61 152V28Z" fill="white"/>
</g>
<path d="M142.386 39.9548H157.9L137.945 20V35.514C137.945 37.9666 139.934 39.9548 142.386 39.9548Z" fill="#BDCCF8"/>
<rect x="71" y="40" width="32" height="8" rx="4" fill="#298478"/>
<rect x="71" y="58" width="77" height="6" rx="3" fill="#BDCCF8"/>
<rect x="71" y="78" width="77" height="6" rx="3" fill="#BDCCF8"/>
<rect x="71" y="98" width="77" height="6" rx="3" fill="#BDCCF8"/>
<path d="M71 120.541C71 119.138 72.1378 118 73.5413 118L145.459 118C146.862 118 148 119.138 148 120.541L148 144.459C148 145.862 146.862 147 145.459 147L73.5413 147C72.1378 147 71 145.862 71 144.459L71 120.541Z" fill="#F9FAFF"/>
<path fill-rule="evenodd" clip-rule="evenodd" d="M111.803 126.098L106.771 136.018C106.388 136.773 105.612 137.25 104.764 137.25H101.874L100.255 141.965C99.5872 143.909 96.8783 144.014 96.0619 142.128L91.0648 130.587L88.648 135.927C88.2837 136.732 87.4818 137.25 86.5982 137.25H79C78.3096 137.25 77.75 136.69 77.75 136C77.75 135.309 78.3096 134.75 79 134.75H86.4369L89.02 129.042C89.8251 127.263 92.3588 127.284 93.1346 129.076L98.0998 140.543L99.5679 136.269C99.88 135.36 100.735 134.75 101.696 134.75H104.611L109.83 124.461C110.716 122.715 113.254 122.855 113.943 124.687L119.231 138.75L120.461 136.063C120.828 135.263 121.627 134.75 122.507 134.75H126.593L128.651 130.692C129.484 129.049 131.831 129.049 132.664 130.692L134.722 134.75H140C140.69 134.75 141.25 135.309 141.25 136C141.25 136.69 140.69 137.25 140 137.25H134.569C133.721 137.25 132.946 136.773 132.562 136.018L130.658 132.263L128.753 136.018C128.369 136.773 127.594 137.25 126.746 137.25H122.667L121.254 140.337C120.421 142.155 117.806 142.064 117.102 140.192L111.803 126.098Z" fill="#BDCCF8"/>
<path d="M133 90C133 103.255 122.255 114 109 114C95.7452 114 85 103.255 85 90C85 76.7452 95.7452 66 109 66C122.255 66 133 76.7452 133 90Z" fill="#298478"/>
<path fill-rule="evenodd" clip-rule="evenodd" d="M137.799 90.0002C137.799 105.906 124.905 118.8 108.999 118.8C93.0934 118.8 80.1992 105.906 80.1992 90.0002C80.1992 74.0944 93.0934 61.2002 108.999 61.2002C124.905 61.2002 137.799 74.0944 137.799 90.0002ZM108.999 114C122.254 114 132.999 103.255 132.999 90.0002C132.999 76.7454 122.254 66.0002 108.999 66.0002C95.7444 66.0002 84.9992 76.7454 84.9992 90.0002C84.9992 103.255 95.7444 114 108.999 114Z" fill="white"/>
<path fill-rule="evenodd" clip-rule="evenodd" d="M117.909 83.5282C117.206 82.8252 116.066 82.8252 115.363 83.5282L105.572 93.3189L102.073 89.8192C101.37 89.1163 100.23 89.1163 99.5272 89.8192C98.8243 90.5221 98.8243 91.6618 99.5272 92.3648L104.296 97.134C104.958 97.7955 106.006 97.8345 106.713 97.2512C106.769 97.2071 106.823 97.1592 106.875 97.1075L117.909 86.0738C118.612 85.3708 118.612 84.2311 117.909 83.5282Z" fill="white"/>
<defs>
<filter id="filter0_d_8477_7719" x="31.041" y="27.5205" width="126.818" height="169.918" filterUnits="userSpaceOnUse" color-interpolation-filters="sRGB">
<feFlood flood-opacity="0" result="BackgroundImageFix"/>
<feColorMatrix in="SourceAlpha" type="matrix" values="0 0 0 0 0 0 0 0 0 0 0 0 0 0 0 0 0 0 127 0" result="hardAlpha"/>
<feOffset dy="7.47951"/>
<feGaussianBlur stdDeviation="7.47951"/>
<feColorMatrix type="matrix" values="0 0 0 0 0.0470588 0 0 0 0 0.254902 0 0 0 0 0.603922 0 0 0 0.1 0"/>
<feBlend mode="normal" in2="BackgroundImageFix" result="effect1_dropShadow_8477_7719"/>
<feBlend mode="normal" in="SourceGraphic" in2="effect1_dropShadow_8477_7719" result="shape"/>
</filter>
<filter id="filter1_d_8477_7719" x="46.041" y="12.5205" width="126.818" height="169.918" filterUnits="userSpaceOnUse" color-interpolation-filters="sRGB">
<feFlood flood-opacity="0" result="BackgroundImageFix"/>
<feColorMatrix in="SourceAlpha" type="matrix" values="0 0 0 0 0 0 0 0 0 0 0 0 0 0 0 0 0 0 127 0" result="hardAlpha"/>
<feOffset dy="7.47951"/>
<feGaussianBlur stdDeviation="7.47951"/>
<feColorMatrix type="matrix" values="0 0 0 0 0.0470588 0 0 0 0 0.254902 0 0 0 0 0.603922 0 0 0 0.1 0"/>
<feBlend mode="normal" in2="BackgroundImageFix" result="effect1_dropShadow_8477_7719"/>
<feBlend mode="normal" in="SourceGraphic" in2="effect1_dropShadow_8477_7719" result="shape"/>
</filter>
</defs>
</svg>
