<svg width="64" height="64" viewBox="0 0 64 64" fill="none" xmlns="http://www.w3.org/2000/svg">
    <g clip-path="url(#clip0_38780_24486)">
        <path d="M11.6957 17.731C17.5338 13.981 24.6666 11.6974 31.4879 11.2518C44.8874 10.3774 56.9156 21.2344 58.409 34.7297C59.1113 41.0791 56.7738 47.957 51.406 51.6089C47.4339 54.312 42.6116 54.1342 38.3883 52.2741C34.8263 50.7051 31.9305 48.0108 28.5281 46.1658C23.3264 43.3449 17.593 43.4832 12.1105 41.7116C9.10483 40.7405 5.8207 38.7842 4.36365 35.8128C2.98023 32.9923 2.98672 29.5241 4.07941 26.5735C5.45841 22.8494 8.3733 19.865 11.6957 17.731Z" fill="#A0B2EC" fill-opacity="0.16"/>
        <path d="M57.8762 15.8845C55.7406 13.2524 52.3194 11.7648 48.8071 11.4609C46.5775 11.2681 44.2389 11.535 42.2006 12.5424C38.8592 14.1941 36.8068 17.5212 34.2052 20.1552C31.0946 23.305 27.1244 25.5089 23.6448 28.274C20.1656 31.0388 17.0122 34.7267 16.6789 38.9785C16.4802 41.5052 17.3233 43.9998 18.7472 46.0557C21.5212 50.0615 26.4535 52.4122 31.5306 52.6874C45.8937 53.4662 59.0048 40.1987 60.4336 26.9222C60.8507 23.0442 60.3209 18.8976 57.8762 15.8845Z" fill="#A0B2EC" fill-opacity="0.16"/>
        <g filter="url(#filter0_d_38780_24486)">
            <path d="M14.7188 13.7602C14.7188 12.3463 15.8649 11.2002 17.2787 11.2002H39.3414V15.0257C39.3414 16.4396 40.4876 17.5857 41.9014 17.5857H45.7269V53.4403C45.7269 54.8541 44.5808 56.0003 43.167 56.0003H17.2788C15.8649 56.0003 14.7188 54.8541 14.7188 53.4403V13.7602Z" fill="white"/>
        </g>
        <path d="M42.8925 17.5857H45.7254L39.3398 11.2002V14.0331C39.3398 15.9952 40.9304 17.5857 42.8925 17.5857Z" fill="#BDCCF8"/>
        <rect x="17.918" y="17.6001" width="12.16" height="2.56" rx="1.28" fill="#0C419A"/>
        <rect x="17.918" y="23.3599" width="24.64" height="1.92" rx="0.96" fill="#BDCCF8"/>
        <rect x="17.918" y="30.3999" width="24.64" height="1.92" rx="0.96" fill="#BDCCF8"/>
        <rect x="17.918" y="37.4399" width="24.64" height="1.92" rx="0.960001" fill="#BDCCF8"/>
        <rect x="17.918" y="44.48" width="11.2" height="1.92" rx="0.959999" fill="#BDCCF8"/>
        <g filter="url(#filter1_d_38780_24486)">
            <path d="M19.5195 8.9599C19.5195 7.54605 20.6657 6.3999 22.0795 6.3999H44.1422V10.2254C44.1422 11.6393 45.2884 12.7854 46.7022 12.7854H50.5277V48.64C50.5277 50.0538 49.3816 51.2 47.9677 51.2H22.0795C20.6657 51.2 19.5195 50.0538 19.5195 48.64V8.9599Z" fill="white"/>
        </g>
        <path d="M45.5617 12.7854H50.5261L44.1406 6.3999V11.3644C44.1406 12.1492 44.7769 12.7854 45.5617 12.7854Z" fill="#BDCCF8"/>
        <rect x="22.7188" y="12.7998" width="10.24" height="2.56" rx="1.28" fill="#0C419A"/>
        <rect x="22.7188" y="18.5596" width="24.64" height="1.92" rx="0.96" fill="#BDCCF8"/>
        <rect x="22.7188" y="24.96" width="24.64" height="1.92" rx="0.96" fill="#BDCCF8"/>
        <rect x="22.7188" y="31.3599" width="24.64" height="1.92" rx="0.96" fill="#BDCCF8"/>
        <path d="M22.7188 38.573C22.7188 38.1239 23.0828 37.7598 23.532 37.7598L46.5455 37.7598C46.9947 37.7598 47.3588 38.1239 47.3588 38.573L47.3588 46.2266C47.3588 46.6757 46.9947 47.0398 46.5455 47.0398L23.532 47.0398C23.0828 47.0398 22.7188 46.6757 22.7188 46.2266L22.7188 38.573Z" fill="#F9FAFF"/>
        <path fill-rule="evenodd" clip-rule="evenodd" d="M35.7758 40.3515L34.1656 43.5256C34.0429 43.7675 33.7947 43.9199 33.5235 43.9199H32.5987L32.0804 45.4289C31.8668 46.0507 31 46.0845 30.7387 45.4811L29.1396 41.7879L28.3663 43.4967C28.2497 43.7543 27.9931 43.9199 27.7103 43.9199H25.2789C25.058 43.9199 24.8789 43.7408 24.8789 43.5199C24.8789 43.2989 25.058 43.1199 25.2789 43.1199H27.6587L28.4853 41.2934C28.7429 40.7241 29.5537 40.7308 29.802 41.3042L31.3908 44.9738L31.8606 43.606C31.9605 43.3151 32.2341 43.1199 32.5416 43.1199H33.4744L35.1446 39.8274C35.4279 39.2688 36.2401 39.3134 36.4606 39.8997L38.1527 44.3999L38.5465 43.5401C38.6637 43.284 38.9195 43.1199 39.2011 43.1199H40.5086L41.1672 41.8215C41.4339 41.2958 42.1848 41.2958 42.4515 41.8215L43.1101 43.1199H44.7989C45.0198 43.1199 45.1989 43.2989 45.1989 43.5199C45.1989 43.7408 45.0198 43.9199 44.7989 43.9199H43.061C42.7898 43.9199 42.5416 43.7675 42.4189 43.5256L41.8094 42.324L41.1998 43.5256C41.0771 43.7675 40.8289 43.9199 40.5577 43.9199H39.2524L38.8001 44.9077C38.5335 45.4897 37.6968 45.4605 37.4715 44.8613L35.7758 40.3515Z" fill="#BDCCF8"/>
        <path d="M42.5592 28.8001C42.5592 33.0417 39.1208 36.4801 34.8792 36.4801C30.6377 36.4801 27.1992 33.0417 27.1992 28.8001C27.1992 24.5586 30.6377 21.1201 34.8792 21.1201C39.1208 21.1201 42.5592 24.5586 42.5592 28.8001Z" fill="#0C419A"/>
        <path fill-rule="evenodd" clip-rule="evenodd" d="M44.0961 28.8C44.0961 33.8898 39.9699 38.016 34.8801 38.016C29.7902 38.016 25.6641 33.8898 25.6641 28.8C25.6641 23.7101 29.7902 19.584 34.8801 19.584C39.9699 19.584 44.0961 23.7101 44.0961 28.8ZM34.8801 36.48C39.1216 36.48 42.5601 33.0415 42.5601 28.8C42.5601 24.5584 39.1216 21.12 34.8801 21.12C30.6385 21.12 27.2001 24.5584 27.2001 28.8C27.2001 33.0415 30.6385 36.48 34.8801 36.48Z" fill="white"/>
        <g clip-path="url(#clip1_38780_24486)">
            <path fill-rule="evenodd" clip-rule="evenodd" d="M35.7702 24.9686C35.9329 24.806 36.1966 24.806 36.3593 24.9687L39.011 27.6204C39.0891 27.6985 39.133 27.8045 39.133 27.9151C39.133 28.0256 39.089 28.1316 39.0108 28.2097L38.5312 28.689C38.453 28.7671 38.3471 28.8109 38.2367 28.8109H37.5254L36.5909 29.7453V31.9298C36.5909 32.0983 36.4894 32.2502 36.3337 32.3147C36.178 32.3792 35.9988 32.3436 35.8797 32.2244L34.1119 30.4566L31.5238 33.0447C31.3611 33.2075 31.0973 33.2075 30.9345 33.0447C30.7718 32.882 30.7718 32.6182 30.9345 32.4555L33.5226 29.8674L31.7549 28.0996C31.6357 27.9805 31.6 27.8012 31.6645 27.6455C31.729 27.4898 31.881 27.3883 32.0495 27.3883L34.2339 27.3883L35.1684 26.4539V25.7426C35.1684 25.632 35.2123 25.526 35.2905 25.4478L35.7702 24.9686ZM36.0017 25.9153V26.6265C36.0017 26.737 35.9578 26.843 35.8797 26.9211L34.7011 28.0996C34.623 28.1778 34.517 28.2217 34.4065 28.2217H33.0554L35.7576 30.9239L35.7576 29.5728C35.7576 29.4623 35.8015 29.3563 35.8797 29.2781L37.0582 28.0996C37.1363 28.0215 37.2423 27.9776 37.3528 27.9776L38.0642 27.9776L38.127 27.9149L36.0646 25.8525L36.0017 25.9153Z" fill="white"/>
        </g>
    </g>
    <defs>
        <filter id="filter0_d_38780_24486" x="2.75153" y="5.21658" width="54.9423" height="68.7347" filterUnits="userSpaceOnUse" color-interpolation-filters="sRGB">
            <feFlood flood-opacity="0" result="BackgroundImageFix"/>
            <feColorMatrix in="SourceAlpha" type="matrix" values="0 0 0 0 0 0 0 0 0 0 0 0 0 0 0 0 0 0 127 0" result="hardAlpha"/>
            <feOffset dy="5.98361"/>
            <feGaussianBlur stdDeviation="5.98361"/>
            <feColorMatrix type="matrix" values="0 0 0 0 0.0470588 0 0 0 0 0.254902 0 0 0 0 0.603922 0 0 0 0.1 0"/>
            <feBlend mode="normal" in2="BackgroundImageFix" result="effect1_dropShadow_38780_24486"/>
            <feBlend mode="normal" in="SourceGraphic" in2="effect1_dropShadow_38780_24486" result="shape"/>
        </filter>
        <filter id="filter1_d_38780_24486" x="7.55231" y="0.416291" width="54.9423" height="68.7347" filterUnits="userSpaceOnUse" color-interpolation-filters="sRGB">
            <feFlood flood-opacity="0" result="BackgroundImageFix"/>
            <feColorMatrix in="SourceAlpha" type="matrix" values="0 0 0 0 0 0 0 0 0 0 0 0 0 0 0 0 0 0 127 0" result="hardAlpha"/>
            <feOffset dy="5.98361"/>
            <feGaussianBlur stdDeviation="5.98361"/>
            <feColorMatrix type="matrix" values="0 0 0 0 0.0470588 0 0 0 0 0.254902 0 0 0 0 0.603922 0 0 0 0.1 0"/>
            <feBlend mode="normal" in2="BackgroundImageFix" result="effect1_dropShadow_38780_24486"/>
            <feBlend mode="normal" in="SourceGraphic" in2="effect1_dropShadow_38780_24486" result="shape"/>
        </filter>
        <clipPath id="clip0_38780_24486">
            <rect width="64" height="64" fill="white"/>
        </clipPath>
        <clipPath id="clip1_38780_24486">
            <rect width="10" height="10" fill="white" transform="translate(30 24)"/>
        </clipPath>
    </defs>
</svg>
