<svg width="200" height="200" viewBox="0 0 200 200" fill="none" xmlns="http://www.w3.org/2000/svg">
    <defs>
        <filter id="filter0_d_3194_68682" x="37.041" y="22.5205" width="126.818" height="169.918"
            color-interpolation-filters="sRGB">
            <feFlood flood-opacity="0" result="BackgroundImageFix" />
            <feColorMatrix in="SourceAlpha" values="0 0 0 0 0 0 0 0 0 0 0 0 0 0 0 0 0 0 127 0"
                result="hardAlpha" />
            <feOffset dy="7.47951" />
            <feGaussianBlur stdDeviation="7.47951" />
            <feColorMatrix
                values="0 0 0 0 0.0470588 0 0 0 0 0.254902 0 0 0 0 0.603922 0 0 0 0.1 0" />
            <feBlend in2="BackgroundImageFix" result="effect1_dropShadow_3194_68682" />
            <feBlend in="SourceGraphic" in2="effect1_dropShadow_3194_68682" result="shape" />
        </filter>
    </defs>

    <path fill-rule="evenodd" clip-rule="evenodd"
        d="M18.6115 126.716C14.3402 103.971 2.28718 77.209 18.5465 60.7343C35.3757 43.682 64.808 48.1255 86.8383 57.5851C104.726 65.266 111.642 85.0903 118.045 103.458C123.195 118.23 124.046 133.477 118.377 148.053C112.073 164.261 102.922 181.355 86.0633 185.683C68.9758 190.069 52.0621 180.095 38.7816 168.485C26.5294 157.774 21.6131 142.7 18.6115 126.716Z"
        fill="#A0B2EC" fill-opacity="0.16" />
    <path
        d="M167.525 32.6974C179.02 47.2864 186.702 65.8133 189.235 84.0623C194.208 119.91 166.435 155.648 129.351 163.799C111.903 167.633 92.4127 163.435 81.2781 150.084C73.0368 140.204 72.6109 127.152 76.9573 115.201C80.6236 105.121 87.5326 96.4919 91.9935 86.7575C98.8142 71.8754 97.3393 56.4645 101.201 41.1461C103.317 32.7482 108.109 23.2985 116.059 18.4631C123.606 13.8722 133.211 12.8295 141.589 14.8726C152.164 17.4509 160.983 24.3951 167.525 32.6974Z"
        fill="#A0B2EC" fill-opacity="0.16" />
    <path
        d="M163 91.0453L163 163.856C163 167.832 159.777 171.056 155.8 171.056L44.2 171.056C40.2235 171.056 37 167.832 37 163.856L37 76.6453C37 72.6689 40.2235 69.4453 44.2 69.4453L72.9543 69.4453C76.9307 69.4453 80.1543 72.6689 80.1543 76.6453L80.1543 80.2453C80.1543 82.2335 81.7661 83.8453 83.7543 83.8453L155.8 83.8453C159.777 83.8453 163 87.0689 163 91.0453Z"
        fill="#0C419A" />
    <path
        d="M163 91.0453L163 163.856C163 167.832 159.777 171.056 155.8 171.056L44.2 171.056C40.2235 171.056 37 167.832 37 163.856L37 76.6453C37 72.6689 40.2235 69.4453 44.2 69.4453L72.9543 69.4453C76.9307 69.4453 80.1543 72.6689 80.1543 76.6453L80.1543 80.2453C80.1543 82.2335 81.7661 83.8453 83.7543 83.8453L155.8 83.8453C159.777 83.8453 163 87.0689 163 91.0453Z"
        fill="black" fill-opacity="0.3" />
    <g filter="url(#filter0_d_3194_68682)">
        <path
            d="M60 170H140.901C145.319 170 148.901 166.419 148.901 162V38C148.901 33.5817 145.319 30 140.901 30H60C55.5817 30 52 33.5817 52 38V162C52 166.419 55.5817 170 60 170Z"
            fill="white" />
    </g>
    <rect x="108" y="40" width="31" height="8" rx="4" fill="#0C419A" />
    <rect x="108" y="57" width="31" height="6" rx="3" fill="#BDCCF8" />
    <rect x="108" y="72" width="11" height="6" rx="3" fill="#BDCCF8" />
    <circle cx="82" cy="60" r="20" fill="#F9FAFF" />
    <path
        d="M75.5625 53.7895C75.5625 50.592 78.2208 48 81.5 48C84.7792 48 87.4375 50.592 87.4375 53.7895C87.4375 56.9869 84.7792 59.5789 81.5 59.5789C78.2208 59.5789 75.5625 56.9869 75.5625 53.7895ZM81.5 57.2632C83.4675 57.2632 85.0625 55.7079 85.0625 53.7895C85.0625 51.871 83.4675 50.3158 81.5 50.3158C79.5325 50.3158 77.9375 51.871 77.9375 53.7895C77.9375 55.7079 79.5325 57.2632 81.5 57.2632Z"
        fill="#0C419A" />
    <path
        d="M74.7825 63.45C73.2896 64.9056 72.3449 66.7959 72.0779 68.8159C71.992 69.466 72.5317 70 73.1875 70C73.8433 70 74.3645 69.4643 74.4788 68.8185C74.7273 67.4145 75.4148 66.1084 76.4619 65.0875C77.7981 63.7846 79.6103 63.0526 81.5 63.0526C83.3897 63.0526 85.2019 63.7846 86.5381 65.0875C87.5852 66.1084 88.2727 67.4145 88.5212 68.8185C88.6355 69.4643 89.1567 70 89.8125 70C90.4683 70 91.008 69.466 90.9221 68.8159C90.6551 66.7959 89.7104 64.9056 88.2175 63.45C86.4359 61.7128 84.0196 60.7368 81.5 60.7368C78.9804 60.7368 76.5641 61.7128 74.7825 63.45Z"
        fill="#0C419A" />
    <rect x="62" y="90" width="12" height="8" rx="4" fill="#A05BB6" />
    <rect x="62" y="106" width="12" height="8" rx="4" fill="#A05BB6" />
    <rect x="79" y="91" width="60" height="6" rx="3" fill="#BDCCF8" />
    <rect x="79" y="107" width="31" height="6" rx="3" fill="#BDCCF8" />
    <rect x="62" y="124" width="77" height="29" rx="2.54129" fill="#F9FAFF" />
    <path
        d="M70 142H77.5982C77.9909 142 78.3473 141.77 78.5092 141.412L81.1588 135.558C81.5166 134.767 82.6427 134.776 82.9875 135.573L88.209 147.632C88.5718 148.47 89.7758 148.423 90.0724 147.56L91.7501 142.675C91.8888 142.271 92.2688 142 92.6959 142H95.7643C96.141 142 96.4858 141.788 96.6562 141.452L101.945 131.027C102.339 130.251 103.467 130.313 103.773 131.127L109.272 145.752C109.585 146.584 110.747 146.625 111.117 145.816L112.598 142.584C112.76 142.228 113.116 142 113.507 142H117.746C118.123 142 118.468 141.788 118.638 141.452L120.766 137.258C121.136 136.528 122.179 136.528 122.549 137.258L124.677 141.452C124.848 141.788 125.192 142 125.569 142H131"
        stroke="#A05BB6" stroke-width="2.5" stroke-linecap="round" />
    <path
        d="M36.9997 91.0453L36.9997 163.856C36.9997 167.832 40.2233 171.056 44.1997 171.056L155.8 171.056C159.776 171.056 163 167.832 163 163.856L163 76.6453C163 72.6689 159.776 69.4453 155.8 69.4453L137.228 69.4453C135.318 69.4453 133.487 70.2039 132.137 71.5541L120.9 82.7909C120.225 83.466 119.309 83.8453 118.355 83.8453L44.1997 83.8453C40.2233 83.8453 36.9997 87.0689 36.9997 91.0453Z"
        fill="#0C419A" />
    <path
        d="M96.8 137.8H104C105.432 137.8 106.806 137.231 107.818 136.218C108.831 135.206 109.4 133.832 109.4 132.4C109.4 130.968 108.831 129.594 107.818 128.582C106.806 127.569 105.432 127 104 127H91.4C90.9226 127 90.4648 127.19 90.1272 127.527C89.7896 127.865 89.6 128.323 89.6 128.8C89.6 129.277 89.7896 129.735 90.1272 130.073C90.4648 130.41 90.9226 130.6 91.4 130.6H104C104.477 130.6 104.935 130.79 105.273 131.127C105.61 131.465 105.8 131.923 105.8 132.4C105.8 132.877 105.61 133.335 105.273 133.673C104.935 134.01 104.477 134.2 104 134.2H96.8C95.3678 134.2 93.9943 134.769 92.9816 135.782C91.9689 136.794 91.4 138.168 91.4 139.6C91.4 141.032 91.9689 142.406 92.9816 143.418C93.9943 144.431 95.3678 145 96.8 145H104C104.477 145 104.935 144.81 105.273 144.473C105.61 144.135 105.8 143.677 105.8 143.2C105.8 142.723 105.61 142.265 105.273 141.927C104.935 141.59 104.477 141.4 104 141.4H96.8C96.3226 141.4 95.8648 141.21 95.5272 140.873C95.1896 140.535 95 140.077 95 139.6C95 139.123 95.1896 138.665 95.5272 138.327C95.8648 137.99 96.3226 137.8 96.8 137.8Z"
        fill="#BDCCF8" />
    <path
        d="M101.3 123.4C102.822 123.4 104.305 122.917 105.535 122.021C106.766 121.125 107.681 119.862 108.149 118.414C108.361 117.771 108.769 117.212 109.317 116.814C109.865 116.417 110.523 116.202 111.2 116.2H127.274C126.841 119.199 125.342 121.942 123.051 123.926C120.76 125.909 117.83 127.001 114.8 127C114.323 127 113.865 127.19 113.527 127.527C113.19 127.865 113 128.323 113 128.8C113 129.277 113.19 129.735 113.527 130.073C113.865 130.41 114.323 130.6 114.8 130.6C119.097 130.6 123.217 128.893 126.255 125.855C129.293 122.817 131 118.697 131 114.4C131 113.923 130.81 113.465 130.473 113.127C130.135 112.79 129.677 112.6 129.2 112.6H111.2C109.678 112.6 108.195 113.083 106.965 113.979C105.734 114.875 104.819 116.138 104.351 117.586C104.139 118.229 103.731 118.788 103.183 119.186C102.635 119.583 101.977 119.798 101.3 119.8H97.7C97.0234 119.798 96.3645 119.583 95.8169 119.186C95.2693 118.788 94.8607 118.229 94.649 117.586C94.181 116.138 93.266 114.875 92.0354 113.979C90.8049 113.083 89.3221 112.6 87.8 112.6H69.8C69.3226 112.6 68.8648 112.79 68.5272 113.127C68.1896 113.465 68 113.923 68 114.4C68 118.697 69.7068 122.817 72.7449 125.855C75.783 128.893 79.9035 130.6 84.2 130.6C84.6774 130.6 85.1352 130.41 85.4728 130.073C85.8104 129.735 86 129.277 86 128.8C86 128.323 85.8104 127.865 85.4728 127.527C85.1352 127.19 84.6774 127 84.2 127C81.1696 127.001 78.2404 125.909 75.9494 123.926C73.6583 121.942 72.1589 119.199 71.726 116.2H87.8C88.4766 116.202 89.1355 116.417 89.6831 116.814C90.2307 117.212 90.6393 117.771 90.851 118.414C91.319 119.862 92.234 121.125 93.4646 122.021C94.6951 122.917 96.1779 123.4 97.7 123.4H101.3Z"
        fill="#BDCCF8" />
    <path
        d="M99.5 154C99.0226 154 98.5648 153.81 98.2272 153.473C97.8896 153.135 97.7 152.677 97.7 152.2V109C97.7 108.523 97.8896 108.065 98.2272 107.727C98.5648 107.39 99.0226 107.2 99.5 107.2C99.9774 107.2 100.435 107.39 100.773 107.727C101.11 108.065 101.3 108.523 101.3 109V152.2C101.3 152.677 101.11 153.135 100.773 153.473C100.435 153.81 99.9774 154 99.5 154Z"
        fill="#BDCCF8" />
    <path
        d="M99.5 109C98.61 109 97.74 108.736 96.9999 108.242C96.2599 107.747 95.6831 107.044 95.3425 106.222C95.0019 105.4 94.9128 104.495 95.0865 103.622C95.2601 102.749 95.6887 101.947 96.318 101.318C96.9474 100.689 97.7492 100.26 98.6221 100.086C99.495 99.9128 100.4 100.002 101.222 100.343C102.044 100.683 102.747 101.26 103.242 102C103.736 102.74 104 103.61 104 104.5C104 105.693 103.526 106.838 102.682 107.682C101.838 108.526 100.693 109 99.5 109ZM99.5 102.571C99.1186 102.571 98.7457 102.685 98.4285 102.896C98.1114 103.108 97.8642 103.41 97.7182 103.762C97.5723 104.114 97.5341 104.502 97.6085 104.876C97.6829 105.25 97.8666 105.594 98.1363 105.864C98.406 106.133 98.7496 106.317 99.1238 106.392C99.4979 106.466 99.8856 106.428 100.238 106.282C100.59 106.136 100.892 105.889 101.104 105.571C101.315 105.254 101.429 104.881 101.429 104.5C101.429 103.989 101.225 103.498 100.864 103.136C100.502 102.775 100.011 102.571 99.5 102.571Z"
        fill="#BDCCF8" />
</svg>
