<svg width="57" height="57" viewBox="0 0 57 57" fill="none" xmlns="http://www.w3.org/2000/svg">
<path d="M10.3152 15.5933C15.4236 12.312 21.6648 10.3139 27.6334 9.92404C39.358 9.15886 49.8827 18.6588 51.1894 30.4672C51.804 36.0229 49.7586 42.041 45.0618 45.2365C41.5862 47.6017 37.3667 47.4461 33.6713 45.8185C30.5546 44.4456 28.0207 42.0881 25.0436 40.4738C20.4922 38.0054 15.4754 38.1265 10.6782 36.5763C8.04827 35.7266 5.17466 34.0148 3.89974 31.4149C2.68924 28.947 2.69492 25.9122 3.65103 23.3305C4.85765 20.0719 7.40818 17.4605 10.3152 15.5933Z" fill="#A0B2EC" fill-opacity="0.16"/>
<path d="M50.7247 13.976C48.856 11.6729 45.8624 10.3712 42.7892 10.1053C40.8383 9.93665 38.792 10.1702 37.0086 11.0516C34.0848 12.4969 32.289 15.408 30.0126 17.7129C27.2908 20.4689 23.8169 22.3973 20.7722 24.8168C17.7279 27.236 14.9687 30.4629 14.6771 34.1832C14.5032 36.3941 15.2409 38.5769 16.4868 40.3758C18.914 43.8809 23.2298 45.9377 27.6722 46.1785C40.24 46.8599 51.7122 35.2509 52.9624 23.634C53.3274 20.2407 52.8638 16.6124 50.7247 13.976Z" fill="#A0B2EC" fill-opacity="0.16"/>
<g filter="url(#filter0_d_39192_257072)">
<path d="M12.959 12.1189C12.959 10.8818 13.9619 9.87891 15.199 9.87891H34.5038V13.2262C34.5038 14.4634 35.5067 15.4662 36.7438 15.4662H40.0912V46.839C40.0912 48.0761 39.0883 49.079 37.8512 49.079H15.199C13.9619 49.079 12.959 48.0761 12.959 46.839V12.1189Z" fill="white"/>
</g>
<path d="M35.7473 15.4662H40.0912L34.5039 9.87891V14.2228C34.5039 14.9095 35.0606 15.4662 35.7473 15.4662Z" fill="#BDCCF8"/>
<rect x="15.7598" y="15.4805" width="10.64" height="2.24" rx="1.12" fill="#D81E7E"/>
<rect x="15.7598" y="20.5195" width="21.56" height="1.68" rx="0.84" fill="#BDCCF8"/>
<rect x="15.7598" y="26.6797" width="21.56" height="1.68" rx="0.84" fill="#BDCCF8"/>
<rect x="15.7598" y="32.8398" width="21.56" height="1.68" rx="0.84" fill="#BDCCF8"/>
<rect x="15.7598" y="39" width="9.8" height="1.68" rx="0.84" fill="#BDCCF8"/>
<g filter="url(#filter1_d_39192_257072)">
<path d="M17.1621 7.91578C17.1621 6.67866 18.165 5.67578 19.4021 5.67578H38.7069V9.02312C38.7069 10.2602 39.7098 11.2631 40.9469 11.2631H44.2943V42.6359C44.2943 43.873 43.2914 44.8759 42.0543 44.8759H19.4021C18.165 44.8759 17.1621 43.873 17.1621 42.6359V7.91578Z" fill="white"/>
</g>
<path d="M39.9504 11.2631H44.2944L38.707 5.67578V10.0197C38.707 10.7064 39.2637 11.2631 39.9504 11.2631Z" fill="#BDCCF8"/>
<rect x="19.9629" y="11.2773" width="8.96" height="2.24" rx="1.12" fill="#D81E7E"/>
<rect x="19.9629" y="16.3164" width="21.56" height="1.68" rx="0.84" fill="#BDCCF8"/>
<rect x="19.9629" y="21.918" width="21.56" height="1.68" rx="0.84" fill="#BDCCF8"/>
<rect x="19.9629" y="27.5156" width="21.56" height="1.68" rx="0.84" fill="#BDCCF8"/>
<path d="M19.9629 33.8287C19.9629 33.4358 20.2815 33.1172 20.6745 33.1172L40.8113 33.1172C41.2043 33.1172 41.5229 33.4358 41.5229 33.8287L41.5229 40.5256C41.5229 40.9186 41.2043 41.2372 40.8113 41.2372L20.6745 41.2372C20.2815 41.2372 19.9629 40.9186 19.9629 40.5256L19.9629 33.8287Z" fill="#F9FAFF"/>
<path fill-rule="evenodd" clip-rule="evenodd" d="M31.3863 35.3856L29.9774 38.163C29.8701 38.3746 29.6529 38.5079 29.4156 38.5079H28.6064L28.1529 39.8283C27.966 40.3725 27.2075 40.402 26.9789 39.874L25.5797 36.6425L24.903 38.1377C24.801 38.3631 24.5765 38.5079 24.3291 38.5079H22.2016C22.0083 38.5079 21.8516 38.3512 21.8516 38.1579C21.8516 37.9646 22.0083 37.8079 22.2016 37.8079H24.2839L25.0072 36.2098C25.2326 35.7117 25.942 35.7175 26.1593 36.2192L27.5495 39.4301L27.9606 38.2333C28.048 37.9788 28.2873 37.8079 28.5564 37.8079H29.3726L30.834 34.9271C31.082 34.4383 31.7926 34.4773 31.9855 34.9903L33.4661 38.928L33.8107 38.1756C33.9133 37.9516 34.1371 37.8079 34.3835 37.8079H35.5276L36.1039 36.6719C36.3372 36.2119 36.9942 36.2119 37.2276 36.6719L37.8039 37.8079H39.2816C39.4749 37.8079 39.6316 37.9646 39.6316 38.1579C39.6316 38.3512 39.4749 38.5079 39.2816 38.5079H37.7609C37.5236 38.5079 37.3064 38.3746 37.199 38.163L36.6657 37.1116L36.1324 38.163C36.025 38.3746 35.8078 38.5079 35.5705 38.5079H34.4284L34.0326 39.3723C33.7993 39.8816 33.0672 39.856 32.8701 39.3317L31.3863 35.3856Z" fill="#BDCCF8"/>
<path d="M37.3209 25.2747C37.3209 28.986 34.3122 31.9947 30.6009 31.9947C26.8895 31.9947 23.8809 28.986 23.8809 25.2747C23.8809 21.5633 26.8895 18.5547 30.6009 18.5547C34.3122 18.5547 37.3209 21.5633 37.3209 25.2747Z" fill="#D81E7E"/>
<path fill-rule="evenodd" clip-rule="evenodd" d="M38.6651 25.2749C38.6651 29.7286 35.0547 33.3389 30.6011 33.3389C26.1475 33.3389 22.5371 29.7286 22.5371 25.2749C22.5371 20.8213 26.1475 17.2109 30.6011 17.2109C35.0547 17.2109 38.6651 20.8213 38.6651 25.2749ZM30.6011 31.9949C34.3125 31.9949 37.3211 28.9863 37.3211 25.2749C37.3211 21.5636 34.3125 18.5549 30.6011 18.5549C26.8898 18.5549 23.8811 21.5636 23.8811 25.2749C23.8811 28.9863 26.8898 31.9949 30.6011 31.9949Z" fill="white"/>
<path fill-rule="evenodd" clip-rule="evenodd" d="M33.0301 23.7368C32.6341 23.9654 32.1512 23.9069 31.8225 23.6257L29.0856 25.2059C29.0885 25.2154 29.0912 25.2251 29.0938 25.2348C29.1477 25.4359 29.1394 25.6391 29.0806 25.8239L31.8604 27.4288C32.1891 27.1484 32.6715 27.0902 33.067 27.3186C33.5692 27.6085 33.7413 28.2507 33.4513 28.7529C33.1614 29.2551 32.5192 29.4272 32.017 29.1372C31.6207 28.9084 31.4299 28.4602 31.5097 28.0346L28.6539 26.3858C28.5632 26.4451 28.4617 26.4912 28.3513 26.5207C27.7912 26.6708 27.2154 26.3384 27.0653 25.7783C26.9152 25.2181 27.2477 24.6424 27.8078 24.4923C28.1145 24.4101 28.4258 24.4726 28.6694 24.6379L31.4725 23.0195C31.3934 22.5943 31.5842 22.1468 31.9801 21.9182C32.4823 21.6282 33.1245 21.8003 33.4144 22.3025C33.7044 22.8047 33.5323 23.4469 33.0301 23.7368Z" fill="white"/>
<defs>
<filter id="filter0_d_39192_257072" x="8.77046" y="7.78464" width="35.5099" height="47.5763" filterUnits="userSpaceOnUse" color-interpolation-filters="sRGB">
<feFlood flood-opacity="0" result="BackgroundImageFix"/>
<feColorMatrix in="SourceAlpha" type="matrix" values="0 0 0 0 0 0 0 0 0 0 0 0 0 0 0 0 0 0 127 0" result="hardAlpha"/>
<feOffset dy="2.09426"/>
<feGaussianBlur stdDeviation="2.09426"/>
<feColorMatrix type="matrix" values="0 0 0 0 0.0470588 0 0 0 0 0.254902 0 0 0 0 0.603922 0 0 0 0.1 0"/>
<feBlend mode="normal" in2="BackgroundImageFix" result="effect1_dropShadow_39192_257072"/>
<feBlend mode="normal" in="SourceGraphic" in2="effect1_dropShadow_39192_257072" result="shape"/>
</filter>
<filter id="filter1_d_39192_257072" x="12.9736" y="3.58152" width="35.5099" height="47.5763" filterUnits="userSpaceOnUse" color-interpolation-filters="sRGB">
<feFlood flood-opacity="0" result="BackgroundImageFix"/>
<feColorMatrix in="SourceAlpha" type="matrix" values="0 0 0 0 0 0 0 0 0 0 0 0 0 0 0 0 0 0 127 0" result="hardAlpha"/>
<feOffset dy="2.09426"/>
<feGaussianBlur stdDeviation="2.09426"/>
<feColorMatrix type="matrix" values="0 0 0 0 0.0470588 0 0 0 0 0.254902 0 0 0 0 0.603922 0 0 0 0.1 0"/>
<feBlend mode="normal" in2="BackgroundImageFix" result="effect1_dropShadow_39192_257072"/>
<feBlend mode="normal" in="SourceGraphic" in2="effect1_dropShadow_39192_257072" result="shape"/>
</filter>
</defs>
</svg>
