<svg width="69" height="68" viewBox="0 0 69 68" fill="none" xmlns="http://www.w3.org/2000/svg">
    <path fill-rule="evenodd" clip-rule="evenodd" d="M6.96789 43.0724C5.52884 35.4096 1.46809 26.3931 6.94598 20.8426C12.6159 15.0976 22.5319 16.5946 29.9541 19.7816C35.9807 22.3694 38.3107 29.0483 40.468 35.2366C42.2029 40.2133 42.4897 45.3503 40.5796 50.2611C38.4557 55.7216 35.3729 61.4808 29.6929 62.9388C23.9361 64.4166 18.2377 61.0563 13.7634 57.1448C9.63549 53.5362 7.97916 48.4574 6.96789 43.0724Z" fill="#A0B2EC" fill-opacity="0.16"/>
    <path d="M57.1374 11.3961C61.0105 16.3112 63.5985 22.5531 64.4518 28.7013C66.1273 40.7788 56.7704 52.8193 44.2763 55.5652C38.398 56.8569 31.8316 55.4426 28.0802 50.9445C25.3037 47.6159 25.1602 43.2187 26.6245 39.1921C27.8598 35.796 30.1875 32.889 31.6903 29.6094C33.9883 24.5954 33.4914 19.4034 34.7924 14.2425C35.5055 11.4132 37.1199 8.2295 39.7984 6.60039C42.3409 5.05368 45.5768 4.70239 48.3996 5.39073C51.9623 6.2594 54.9335 8.59894 57.1374 11.3961Z" fill="#A0B2EC" fill-opacity="0.16"/>
    <path d="M55.6126 31.0546L55.6126 55.5851C55.6126 56.9247 54.5266 58.0108 53.1869 58.0108L15.5878 58.0108C14.2481 58.0108 13.1621 56.9247 13.1621 55.585L13.1621 26.2031C13.1621 24.8634 14.2481 23.7773 15.5878 23.7773L25.2754 23.7773C26.6151 23.7773 27.7011 24.8634 27.7011 26.2031L27.7011 27.416C27.7011 28.0858 28.2442 28.6288 28.914 28.6288L53.1869 28.6288C54.5266 28.6288 55.6126 29.7149 55.6126 31.0546Z" fill="#F0B323"/>
    <path d="M55.6126 31.0546L55.6126 55.5851C55.6126 56.9247 54.5266 58.0108 53.1869 58.0108L15.5878 58.0108C14.2481 58.0108 13.1621 56.9247 13.1621 55.585L13.1621 26.2031C13.1621 24.8634 14.2481 23.7773 15.5878 23.7773L25.2754 23.7773C26.6151 23.7773 27.7011 24.8634 27.7011 26.2031L27.7011 27.416C27.7011 28.0858 28.2442 28.6288 28.914 28.6288L53.1869 28.6288C54.5266 28.6288 55.6126 29.7149 55.6126 31.0546Z" fill="black" fill-opacity="0.2"/>
    <g filter="url(#filter0_d_31035_155444)">
        <path d="M20.9121 57.6555H48.1681C49.6567 57.6555 50.8634 56.4488 50.8634 54.9603V13.1835C50.8634 11.695 49.6567 10.4883 48.1681 10.4883H20.9121C19.4235 10.4883 18.2168 11.695 18.2168 13.1835V54.9603C18.2168 56.4488 19.4235 57.6555 20.9121 57.6555Z" fill="white"/>
    </g>
    <rect x="37.084" y="13.8574" width="10.4442" height="2.69527" rx="1.34763" fill="#F0B323"/>
    <rect x="37.084" y="19.584" width="10.4442" height="2.02145" rx="1.01072" fill="#BDCCF8"/>
    <rect x="37.084" y="24.6387" width="3.70599" height="2.02145" rx="1.01072" fill="#BDCCF8"/>
    <circle cx="28.3241" cy="20.5956" r="6.73816" fill="#F9FAFF"/>
    <path d="M31.0807 19.3322C31.0807 19.2486 31.0504 19.1762 30.9898 19.1151C30.9291 19.054 30.8574 19.0234 30.7744 19.0234C30.6915 19.0234 30.6197 19.054 30.559 19.1151C30.4984 19.1762 30.4681 19.2486 30.4681 19.3322C30.4681 19.4159 30.4984 19.4883 30.559 19.5494C30.6197 19.6105 30.6915 19.6411 30.7744 19.6411C30.8574 19.6411 30.9291 19.6105 30.9898 19.5494C31.0504 19.4883 31.0807 19.4159 31.0807 19.3322ZM31.6932 19.3322C31.6932 19.5317 31.6366 19.7102 31.5234 19.8679C31.4101 20.0255 31.2625 20.1381 31.0807 20.2056V22.1117C31.0807 22.6232 30.8709 23.0599 30.4514 23.4218C30.0318 23.7838 29.5269 23.9647 28.9367 23.9647C28.3465 23.9647 27.8416 23.7838 27.4221 23.4218C27.0025 23.0599 26.7928 22.6232 26.7928 22.1117V21.4748C26.2695 21.4104 25.8324 21.2045 25.4815 20.8571C25.1306 20.5097 24.9551 20.1043 24.9551 19.6411V17.1704C24.9551 17.0868 24.9854 17.0144 25.046 16.9533C25.1066 16.8921 25.1784 16.8616 25.2614 16.8616C25.2805 16.8616 25.306 16.8648 25.3379 16.8712C25.3922 16.7747 25.4671 16.6975 25.5629 16.6396C25.6586 16.5817 25.7623 16.5527 25.8739 16.5527C26.043 16.5527 26.1874 16.6131 26.307 16.7337C26.4267 16.8543 26.4865 16.9999 26.4865 17.1704C26.4865 17.3409 26.4267 17.4865 26.307 17.6071C26.1874 17.7277 26.043 17.7881 25.8739 17.7881C25.7686 17.7881 25.6665 17.7591 25.5676 17.7012V19.6411C25.5676 19.9821 25.7176 20.2732 26.0175 20.5145C26.3174 20.7558 26.6779 20.8764 27.099 20.8764C27.5202 20.8764 27.8807 20.7558 28.1806 20.5145C28.4805 20.2732 28.6304 19.9821 28.6304 19.6411V17.7012C28.5315 17.7591 28.4294 17.7881 28.3242 17.7881C28.1551 17.7881 28.0107 17.7277 27.8911 17.6071C27.7714 17.4865 27.7116 17.3409 27.7116 17.1704C27.7116 16.9999 27.7714 16.8543 27.8911 16.7337C28.0107 16.6131 28.1551 16.5527 28.3242 16.5527C28.4358 16.5527 28.5395 16.5817 28.6352 16.6396C28.7309 16.6975 28.8059 16.7747 28.8602 16.8712C28.8921 16.8648 28.9176 16.8616 28.9367 16.8616C29.0197 16.8616 29.0915 16.8921 29.1521 16.9533C29.2127 17.0144 29.243 17.0868 29.243 17.1704V19.6411C29.243 20.1043 29.0675 20.5097 28.7166 20.8571C28.3656 21.2045 27.9285 21.4104 27.4053 21.4748V22.1117C27.4053 22.4527 27.5553 22.7439 27.8552 22.9851C28.1551 23.2264 28.5156 23.3471 28.9367 23.3471C29.3579 23.3471 29.7184 23.2264 30.0183 22.9851C30.3182 22.7439 30.4681 22.4527 30.4681 22.1117V20.2056C30.2863 20.1381 30.1387 20.0255 30.0255 19.8679C29.9122 19.7102 29.8556 19.5317 29.8556 19.3322C29.8556 19.0749 29.9449 18.8561 30.1236 18.676C30.3022 18.4958 30.5192 18.4057 30.7744 18.4057C31.0296 18.4057 31.2466 18.4958 31.4252 18.676C31.6039 18.8561 31.6932 19.0749 31.6932 19.3322Z" fill="#F0B323"/>
    <rect x="21.5859" y="30.7031" width="4.0429" height="2.69527" rx="1.34763" fill="#A05BB6"/>
    <rect x="21.5859" y="36.0938" width="4.0429" height="2.69527" rx="1.34763" fill="#A05BB6"/>
    <rect x="27.3125" y="31.041" width="20.2145" height="2.02145" rx="1.01072" fill="#BDCCF8"/>
    <rect x="27.3125" y="36.4297" width="10.4442" height="2.02145" rx="1.01072" fill="#BDCCF8"/>
    <rect x="21.5859" y="42.1582" width="25.9419" height="9.77034" rx="0.856181" fill="#F9FAFF"/>
    <path d="M24.2812 48.2216H26.8411C26.9735 48.2216 27.0935 48.1442 27.1481 48.0236L28.0407 46.0512C28.1613 45.7848 28.5407 45.7879 28.6569 46.0562L30.416 50.1191C30.5383 50.4015 30.9439 50.3857 31.0438 50.0947L31.609 48.4491C31.6558 48.313 31.7838 48.2216 31.9277 48.2216H32.9615C33.0884 48.2216 33.2045 48.1503 33.2619 48.0371L35.0438 44.5246C35.1764 44.2632 35.5564 44.2841 35.6596 44.5584L37.5123 49.4857C37.6177 49.7661 38.0092 49.7798 38.1339 49.5074L38.6327 48.4182C38.6876 48.2984 38.8073 48.2216 38.939 48.2216H40.3674C40.4943 48.2216 40.6104 48.1503 40.6678 48.0371L41.3847 46.624C41.5095 46.378 41.8608 46.378 41.9856 46.624L42.7024 48.0371C42.7599 48.1503 42.876 48.2216 43.0029 48.2216H44.8327" stroke="#A05BB6" stroke-width="0.842271" stroke-linecap="round"/>
    <path d="M13.1647 31.0546L13.1647 55.585C13.1647 56.9247 14.2507 58.0108 15.5904 58.0108L53.1895 58.0108C54.5292 58.0108 55.6152 56.9247 55.6152 55.585L55.6152 26.2031C55.6152 24.8634 54.5292 23.7773 53.1895 23.7773L46.9325 23.7773C46.2891 23.7773 45.6721 24.0329 45.2172 24.4878L41.4314 28.2736C41.204 28.501 40.8955 28.6288 40.5738 28.6288L15.5904 28.6288C14.2507 28.6288 13.1647 29.7149 13.1647 31.0546Z" fill="#F0B323"/>
    <path d="M34.7264 33.3984C32.1721 33.3984 30.0939 35.401 30.0939 37.8625V40.5409H29.1674C28.1455 40.5409 27.3145 41.3417 27.3145 42.3265V49.469C27.3145 50.4537 28.1455 51.2546 29.1674 51.2546H40.2854C41.3073 51.2546 42.1384 50.4537 42.1384 49.469V42.3265C42.1384 41.3417 41.3073 40.5409 40.2854 40.5409H39.3589V37.8625C39.3589 35.401 37.2808 33.3984 34.7264 33.3984ZM40.452 42.1581L40.4539 49.57H28.999V42.1581H40.452ZM31.8627 40.5409V37.8625C31.8627 36.3858 32.8698 35.083 34.7264 35.083C36.5758 35.083 37.5902 36.3858 37.5902 37.8625V40.5409H31.8627Z" fill="#FDF0D3"/>
    <defs>
        <filter id="filter0_d_31035_155444" x="13.177" y="7.96837" width="42.7261" height="57.2476" filterUnits="userSpaceOnUse" color-interpolation-filters="sRGB">
            <feFlood flood-opacity="0" result="BackgroundImageFix"/>
            <feColorMatrix in="SourceAlpha" type="matrix" values="0 0 0 0 0 0 0 0 0 0 0 0 0 0 0 0 0 0 127 0" result="hardAlpha"/>
            <feOffset dy="2.51991"/>
            <feGaussianBlur stdDeviation="2.51991"/>
            <feColorMatrix type="matrix" values="0 0 0 0 0.0470588 0 0 0 0 0.254902 0 0 0 0 0.603922 0 0 0 0.1 0"/>
            <feBlend mode="normal" in2="BackgroundImageFix" result="effect1_dropShadow_31035_155444"/>
            <feBlend mode="normal" in="SourceGraphic" in2="effect1_dropShadow_31035_155444" result="shape"/>
        </filter>
    </defs>
</svg>
