<svg width="200" height="200" viewBox="0 0 200 200" fill="none" xmlns="http://www.w3.org/2000/svg">
<path d="M37.9049 56.7625C56.149 45.0435 78.4392 37.9073 99.7556 36.515C141.629 33.7822 179.217 67.7104 183.884 109.883C186.079 129.725 178.774 151.219 162 162.631C149.587 171.078 134.517 170.522 121.319 164.709C110.188 159.806 101.139 151.387 90.5062 145.621C74.251 136.806 56.3341 137.238 39.2012 131.702C29.8086 128.667 19.5457 122.553 14.9924 113.268C10.6692 104.454 10.6895 93.6157 14.1041 84.3951C18.4135 72.7573 27.5225 63.431 37.9049 56.7625Z" fill="#A0B2EC" fill-opacity="0.16"/>
<path d="M182.221 50.988C175.548 42.7627 164.856 38.1137 153.881 37.1641C146.913 36.5617 139.605 37.3958 133.235 40.5437C122.793 45.7054 116.38 56.1024 108.25 64.3339C98.529 74.1769 86.1222 81.064 75.2483 89.7049C64.3759 98.3452 54.5217 109.87 53.48 123.157C52.8592 131.053 55.4938 138.848 59.9433 145.273C68.6121 157.791 84.0255 165.137 99.8914 165.997C144.776 168.43 185.749 126.97 190.213 85.4808C191.517 73.3618 189.861 60.4038 182.221 50.988Z" fill="#A0B2EC" fill-opacity="0.16"/>
<g filter="url(#filter0_d_5126_58028)">
<path d="M46 43C46 38.5817 49.5817 35 54 35H122.946V46.9548C122.946 51.3731 126.528 54.9548 130.946 54.9548H142.901V167C142.901 171.419 139.319 175 134.901 175H54C49.5817 175 46 171.419 46 167V43Z" fill="white"/>
</g>
<path d="M127.386 54.9548H142.9L122.945 35V50.514C122.945 52.9666 124.934 54.9548 127.386 54.9548Z" fill="#BDCCF8"/>
<rect x="102" y="67" width="31" height="6" rx="3" fill="#0C419A"/>
<rect x="102" y="83" width="16" height="6" rx="3" fill="#BDCCF8"/>
<circle cx="76" cy="69" r="20" fill="#F9FAFF"/>
<path d="M69.5625 62.7895C69.5625 59.592 72.2208 57 75.5 57C78.7792 57 81.4375 59.592 81.4375 62.7895C81.4375 65.9869 78.7792 68.5789 75.5 68.5789C72.2208 68.5789 69.5625 65.9869 69.5625 62.7895ZM75.5 66.2632C77.4675 66.2632 79.0625 64.7079 79.0625 62.7895C79.0625 60.871 77.4675 59.3158 75.5 59.3158C73.5325 59.3158 71.9375 60.871 71.9375 62.7895C71.9375 64.7079 73.5325 66.2632 75.5 66.2632Z" fill="#BDCCF8"/>
<path d="M68.7825 72.45C67.2896 73.9056 66.3449 75.7959 66.0779 77.8159C65.992 78.466 66.5317 79 67.1875 79C67.8433 79 68.3645 78.4643 68.4788 77.8185C68.7273 76.4145 69.4148 75.1084 70.4619 74.0875C71.7981 72.7846 73.6103 72.0526 75.5 72.0526C77.3897 72.0526 79.2019 72.7846 80.5381 74.0875C81.5852 75.1084 82.2727 76.4145 82.5212 77.8185C82.6355 78.4643 83.1567 79 83.8125 79C84.4683 79 85.008 78.466 84.9221 77.8159C84.6551 75.7959 83.7104 73.9056 82.2175 72.45C80.4359 70.7128 78.0196 69.7368 75.5 69.7368C72.9804 69.7368 70.5641 70.7128 68.7825 72.45Z" fill="#BDCCF8"/>
<rect x="56" y="100" width="77" height="6" rx="3" fill="#BDCCF8"/>
<rect x="56" y="116" width="77" height="6" rx="3" fill="#BDCCF8"/>
<rect x="73.0039" y="116" width="31" height="6" rx="3" fill="#BDCCF8"/>
<rect x="56" y="133" width="77" height="29" rx="2.54129" fill="#F9FAFF"/>
<path d="M64 151H71.5982C71.9909 151 72.3473 150.77 72.5092 150.412L75.1588 144.558C75.5166 143.767 76.6427 143.776 76.9875 144.573L82.209 156.632C82.5718 157.47 83.7758 157.423 84.0724 156.56L85.7501 151.675C85.8888 151.271 86.2688 151 86.6959 151H89.7643C90.141 151 90.4858 150.788 90.6562 150.452L95.9449 140.027C96.3385 139.251 97.4666 139.313 97.7728 140.127L103.272 154.752C103.585 155.584 104.747 155.625 105.117 154.816L106.598 151.584C106.76 151.228 107.116 151 107.507 151H111.746C112.123 151 112.468 150.788 112.638 150.452L114.766 146.258C115.136 145.528 116.179 145.528 116.549 146.258L118.677 150.452C118.848 150.788 119.192 151 119.569 151H125" stroke="#BDCCF8" stroke-width="2.5" stroke-linecap="round"/>
<g filter="url(#filter1_d_5126_58028)">
<path d="M61 28C61 23.5817 64.5817 20 69 20H137.946V31.9548C137.946 36.3731 141.528 39.9548 145.946 39.9548H157.901V152C157.901 156.419 154.319 160 149.901 160H69C64.5817 160 61 156.419 61 152V28Z" fill="white"/>
</g>
<path d="M142.386 39.9548H157.9L137.945 20V35.514C137.945 37.9666 139.934 39.9548 142.386 39.9548Z" fill="#BDCCF8"/>
<rect x="117" y="52" width="31" height="6" rx="3" fill="#BDCCF8"/>
<rect x="117" y="68" width="31" height="6" rx="3" fill="#BDCCF8"/>
<circle cx="91" cy="54" r="20" fill="#F9FAFF"/>
<path d="M84.5625 47.7895C84.5625 44.592 87.2208 42 90.5 42C93.7792 42 96.4375 44.592 96.4375 47.7895C96.4375 50.9869 93.7792 53.5789 90.5 53.5789C87.2208 53.5789 84.5625 50.9869 84.5625 47.7895ZM90.5 51.2632C92.4675 51.2632 94.0625 49.7079 94.0625 47.7895C94.0625 45.871 92.4675 44.3158 90.5 44.3158C88.5325 44.3158 86.9375 45.871 86.9375 47.7895C86.9375 49.7079 88.5325 51.2632 90.5 51.2632Z" fill="#0C419A"/>
<path d="M83.7825 57.45C82.2896 58.9056 81.3449 60.7959 81.0779 62.8159C80.992 63.466 81.5317 64 82.1875 64C82.8433 64 83.3645 63.4643 83.4788 62.8185C83.7273 61.4145 84.4148 60.1084 85.4619 59.0875C86.7981 57.7846 88.6103 57.0526 90.5 57.0526C92.3897 57.0526 94.2019 57.7846 95.5381 59.0875C96.5852 60.1084 97.2727 61.4145 97.5212 62.8185C97.6355 63.4643 98.1567 64 98.8125 64C99.4683 64 100.008 63.466 99.9221 62.8159C99.6551 60.7959 98.7104 58.9056 97.2175 57.45C95.4359 55.7128 93.0196 54.7368 90.5 54.7368C87.9804 54.7368 85.5641 55.7128 83.7825 57.45Z" fill="#0C419A"/>
<rect x="71" y="85" width="77" height="6" rx="3" fill="#BDCCF8"/>
<rect x="71" y="101" width="77" height="6" rx="3" fill="#BDCCF8"/>
<rect x="88.0039" y="101" width="31" height="6" rx="3" fill="#BDCCF8"/>
<rect x="71" y="118" width="77" height="29" rx="2.54129" fill="#F9FAFF"/>
<path d="M79 136H86.5982C86.9909 136 87.3473 135.77 87.5092 135.412L90.1588 129.558C90.5166 128.767 91.6427 128.776 91.9875 129.573L97.209 141.632C97.5718 142.47 98.7758 142.423 99.0724 141.56L100.75 136.675C100.889 136.271 101.269 136 101.696 136H104.764C105.141 136 105.486 135.788 105.656 135.452L110.945 125.027C111.339 124.251 112.467 124.313 112.773 125.127L118.272 139.752C118.585 140.584 119.747 140.625 120.117 139.816L121.598 136.584C121.76 136.228 122.116 136 122.507 136H126.746C127.123 136 127.468 135.788 127.638 135.452L129.766 131.258C130.136 130.528 131.179 130.528 131.549 131.258L133.677 135.452C133.848 135.788 134.192 136 134.569 136H140" stroke="#BDCCF8" stroke-width="2.5" stroke-linecap="round"/>
<path d="M109 119.4C123.58 119.4 135.4 107.58 135.4 93C135.4 78.4197 123.58 66.6 109 66.6C94.4197 66.6 82.6 78.4197 82.6 93C82.6 107.58 94.4197 119.4 109 119.4Z" fill="#0C419A" stroke="white" stroke-width="4.8"/>
<rect x="107.117" y="91.6992" width="3.06489" height="11.2354" rx="1.53244" transform="rotate(135 107.117 91.6992)" fill="white"/>
<rect x="110.664" y="94.168" width="3.06489" height="11.2354" rx="1.53244" transform="rotate(-45 110.664 94.168)" fill="white"/>
<rect width="3.06489" height="11.2351" rx="1.53244" transform="matrix(-0.707107 -0.707107 -0.707107 0.707107 107.117 80.168)" fill="white"/>
<rect width="3.06489" height="11.2351" rx="1.53244" transform="matrix(0.707107 0.707107 0.707107 -0.707107 110.664 105.699)" fill="white"/>
<rect x="118.281" y="84.3945" width="3.06489" height="17.0272" rx="1.53245" transform="rotate(90 118.281 84.3945)" fill="white"/>
<rect x="100" y="101.473" width="3.06489" height="17.0272" rx="1.53245" transform="rotate(-90 100 101.473)" fill="white"/>
<defs>
<filter id="filter0_d_5126_58028" x="31.041" y="27.5205" width="126.818" height="169.918" filterUnits="userSpaceOnUse" color-interpolation-filters="sRGB">
<feFlood flood-opacity="0" result="BackgroundImageFix"/>
<feColorMatrix in="SourceAlpha" type="matrix" values="0 0 0 0 0 0 0 0 0 0 0 0 0 0 0 0 0 0 127 0" result="hardAlpha"/>
<feOffset dy="7.47951"/>
<feGaussianBlur stdDeviation="7.47951"/>
<feColorMatrix type="matrix" values="0 0 0 0 0.0470588 0 0 0 0 0.254902 0 0 0 0 0.603922 0 0 0 0.1 0"/>
<feBlend mode="normal" in2="BackgroundImageFix" result="effect1_dropShadow_5126_58028"/>
<feBlend mode="normal" in="SourceGraphic" in2="effect1_dropShadow_5126_58028" result="shape"/>
</filter>
<filter id="filter1_d_5126_58028" x="46.041" y="12.5205" width="126.818" height="169.918" filterUnits="userSpaceOnUse" color-interpolation-filters="sRGB">
<feFlood flood-opacity="0" result="BackgroundImageFix"/>
<feColorMatrix in="SourceAlpha" type="matrix" values="0 0 0 0 0 0 0 0 0 0 0 0 0 0 0 0 0 0 127 0" result="hardAlpha"/>
<feOffset dy="7.47951"/>
<feGaussianBlur stdDeviation="7.47951"/>
<feColorMatrix type="matrix" values="0 0 0 0 0.0470588 0 0 0 0 0.254902 0 0 0 0 0.603922 0 0 0 0.1 0"/>
<feBlend mode="normal" in2="BackgroundImageFix" result="effect1_dropShadow_5126_58028"/>
<feBlend mode="normal" in="SourceGraphic" in2="effect1_dropShadow_5126_58028" result="shape"/>
</filter>
</defs>
</svg>
