<svg width="160" height="160" viewBox="0 0 160 160" fill="none" xmlns="http://www.w3.org/2000/svg">
<path d="M144.693 99.0428C137.629 115.057 125.799 129.788 112.068 140.218C85.0931 160.706 44.6772 154.602 22.7545 128.287C12.4407 115.905 7.7872 98.1817 13.9985 83.0281C18.5941 71.8132 28.9874 65.4764 40.4616 63.5127C50.1393 61.8568 59.9814 63.4954 69.7074 62.6422C84.5772 61.3386 96.4475 53.0686 110.448 49.1663C118.123 47.0266 127.755 46.5723 134.956 50.7961C141.792 54.8051 146.604 62.1111 148.412 69.8397C150.693 79.5941 148.713 89.9296 144.693 99.0428Z" fill="#A0B2EC" fill-opacity="0.16"/>
<path fill-rule="evenodd" clip-rule="evenodd" d="M103.306 71.705C102.593 91.9675 107.734 117.144 90.7482 128.145C73.1675 139.532 48.971 130.142 32.0323 117.868C18.2786 107.902 16.183 89.6349 14.2453 72.7106C12.6869 59.0998 14.8772 45.8985 22.4882 34.5097C30.9509 21.8463 42.0052 8.96509 57.179 8.46597C72.5582 7.96009 85.0446 19.7022 94.1265 32.1533C102.505 43.6403 103.807 57.4659 103.306 71.705Z" fill="#A0B2EC" fill-opacity="0.16"/>
<g filter="url(#filter0_d_13875_83519)">
<path d="M80.0008 127.2C106.069 127.2 127.201 106.068 127.201 79.9998C127.201 53.932 106.069 32.7998 80.0008 32.7998C53.9329 32.7998 32.8008 53.932 32.8008 79.9998C32.8008 106.068 53.9329 127.2 80.0008 127.2Z" fill="white"/>
</g>
<path d="M79.7627 120.525C102.275 120.525 120.525 102.275 120.525 79.7627C120.525 57.2501 102.275 39 79.7627 39C57.2501 39 39 57.2501 39 79.7627C39 102.275 57.2501 120.525 79.7627 120.525Z" fill="#0C419A"/>
<path d="M81.8062 81.8062V92.9351C81.8062 94.1643 80.8097 95.1608 79.5804 95.1608C78.3512 95.1608 77.3546 94.1643 77.3546 92.9351V81.8062H66.2258C64.9965 81.8062 64 80.8097 64 79.5804C64 78.3512 64.9965 77.3546 66.2258 77.3546H77.3546V66.2258C77.3546 64.9965 78.3512 64 79.5804 64C80.8097 64 81.8062 64.9965 81.8062 66.2258V77.3546H92.9351C94.1643 77.3546 95.1608 78.3512 95.1608 79.5804C95.1608 80.8097 94.1643 81.8062 92.9351 81.8062H81.8062Z" fill="white"/>
<defs>
<filter id="filter0_d_13875_83519" x="32.8008" y="32.7998" width="94.3984" height="96.0004" filterUnits="userSpaceOnUse" color-interpolation-filters="sRGB">
<feFlood flood-opacity="0" result="BackgroundImageFix"/>
<feColorMatrix in="SourceAlpha" type="matrix" values="0 0 0 0 0 0 0 0 0 0 0 0 0 0 0 0 0 0 127 0" result="hardAlpha"/>
<feOffset dy="1.6"/>
<feComposite in2="hardAlpha" operator="out"/>
<feColorMatrix type="matrix" values="0 0 0 0 0 0 0 0 0 0 0 0 0 0 0 0 0 0 0.1 0"/>
<feBlend mode="normal" in2="BackgroundImageFix" result="effect1_dropShadow_13875_83519"/>
<feBlend mode="normal" in="SourceGraphic" in2="effect1_dropShadow_13875_83519" result="shape"/>
</filter>
</defs>
</svg>
