<svg width="200" height="200" viewBox="0 0 200 200" fill="none" xmlns="http://www.w3.org/2000/svg">
    <defs>
        <filter id="filter0_d_3325_65644" x="41" y="41" width="118" height="120" filterUnits="userSpaceOnUse"
                color-interpolation-filters="sRGB">
            <feFlood flood-opacity="0" result="BackgroundImageFix"/>
            <feColorMatrix in="SourceAlpha" type="matrix" values="0 0 0 0 0 0 0 0 0 0 0 0 0 0 0 0 0 0 127 0"
                           result="hardAlpha"/>
            <feOffset dy="2"/>
            <feComposite in2="hardAlpha" operator="out"/>
            <feColorMatrix type="matrix" values="0 0 0 0 0 0 0 0 0 0 0 0 0 0 0 0 0 0 0.1 0"/>
            <feBlend mode="normal" in2="BackgroundImageFix" result="effect1_dropShadow_3325_65644"/>
            <feBlend mode="normal" in="SourceGraphic" in2="effect1_dropShadow_3325_65644" result="shape"/>
        </filter>
    </defs>
    <path d="M65.3424 183.009C84.8303 189.951 107.089 191.768 127.203 188.464C166.713 181.972 194.324 142.381 189.555 102.236C187.31 83.3486 175.879 64.9768 157.824 58.0022C144.462 52.8393 130.576 56.6041 119.564 64.8442C110.277 71.7945 103.683 81.5594 95.0458 89.2025C81.8408 100.888 65.0942 104.35 50.3653 113.182C42.2904 118.023 34.0715 125.91 31.8444 135.509C29.7294 144.621 32.0886 154.675 37.2535 162.496C43.7719 172.367 54.2524 179.058 65.3424 183.009Z"
          fill="#A0B2EC" fill-opacity="0.16"/>
    <path fill-rule="evenodd" clip-rule="evenodd"
          d="M121.086 58.7299C131.719 81.554 151.609 106.521 138.986 128.256C125.92 150.752 93.8092 153.981 68.1166 149.933C47.2551 146.646 34.6346 127.61 22.9462 109.972C13.5462 95.7876 8.53176 79.9459 10.5468 63.0589C12.7874 44.282 17.7774 23.8052 34.3133 14.712C51.0731 5.49559 71.5312 11.4614 88.6159 20.128C104.378 28.1236 113.615 42.6905 121.086 58.7299Z"
          fill="#A0B2EC" fill-opacity="0.16"/>
    <g filter="url(#filter0_d_3325_65644)">
        <path d="M100 159C132.585 159 159 132.585 159 100C159 67.4152 132.585 41 100 41C67.4152 41 41 67.4152 41 100C41 132.585 67.4152 159 100 159Z"
              fill="white"/>
    </g>
    <path d="M99.9533 150.907C128.094 150.907 150.907 128.094 150.907 99.9533C150.907 71.8126 128.094 49 99.9533 49C71.8126 49 49 71.8126 49 99.9533C49 128.094 71.8126 150.907 99.9533 150.907Z"
          fill="#C74E5A"/>
    <path d="M99.543 103.477L89.7063 113.314C88.6198 114.4 86.8582 114.4 85.7717 113.314C84.6852 112.227 84.6852 110.466 85.7717 109.379L95.6083 99.5425L85.7717 89.7059C84.6852 88.6194 84.6852 86.8578 85.7717 85.7713C86.8582 84.6847 88.6198 84.6847 89.7063 85.7713L99.543 95.6079L109.38 85.7713C110.466 84.6848 112.228 84.6847 113.314 85.7713C114.401 86.8578 114.401 88.6194 113.314 89.7059L103.478 99.5425L113.314 109.379C114.401 110.466 114.401 112.227 113.314 113.314C112.228 114.4 110.466 114.4 109.38 113.314L99.543 103.477Z"
          fill="white"/>
</svg>
