<svg width="161" height="160" viewBox="0 0 161 160" fill="none" xmlns="http://www.w3.org/2000/svg">
    <path d="M53.0704 146.407C68.6607 151.961 86.4678 153.414 102.559 150.771C134.167 145.578 156.255 113.905 152.44 81.7889C150.645 66.6789 141.5 51.9814 127.055 46.4018C116.366 42.2714 105.257 45.2833 96.4475 51.8754C89.0177 57.4356 83.7432 65.2475 76.8331 71.362C66.2691 80.7107 52.8718 83.4802 41.0887 90.5457C34.6288 94.4188 28.0537 100.728 26.272 108.407C24.58 115.697 26.4674 123.74 30.5993 129.997C35.814 137.894 44.1984 143.247 53.0704 146.407Z" fill="#A0B2EC" fill-opacity="0.16"/>
    <path fill-rule="evenodd" clip-rule="evenodd" d="M97.6655 46.9839C106.171 65.2432 122.084 85.2169 111.985 102.605C101.532 120.602 75.8439 123.185 55.2898 119.946C38.6005 117.317 28.5042 102.088 19.1535 87.9779C11.6334 76.6301 7.62189 63.9567 9.23393 50.4472C11.0264 35.4256 15.0184 19.0442 28.2471 11.7696C41.655 4.39648 58.0215 9.16911 71.6892 16.1024C84.2987 22.4989 91.6881 34.1524 97.6655 46.9839Z" fill="#A0B2EC" fill-opacity="0.16"/>
    <g filter="url(#filter0_d_25980_184504)">
        <path d="M80.7957 127.201C106.864 127.201 127.996 106.069 127.996 80.0008C127.996 53.9329 106.864 32.8008 80.7957 32.8008C54.7279 32.8008 33.5957 53.9329 33.5957 80.0008C33.5957 106.069 54.7279 127.201 80.7957 127.201Z" fill="white"/>
    </g>
    <path d="M80.7588 120.727C103.271 120.727 121.521 102.476 121.521 79.9638C121.521 57.4512 103.271 39.2012 80.7588 39.2012C58.2462 39.2012 39.9961 57.4512 39.9961 79.9638C39.9961 102.476 58.2462 120.727 80.7588 120.727Z" fill="#C7414F"/>
    <path d="M80.4297 82.7833L72.5604 90.6526C71.6912 91.5218 70.2819 91.5218 69.4127 90.6526C68.5435 89.7834 68.5434 88.3741 69.4127 87.5049L77.282 79.6356L69.4127 71.7663C68.5435 70.8971 68.5435 69.4878 69.4127 68.6186C70.2819 67.7494 71.6912 67.7494 72.5604 68.6186L80.4297 76.4879L88.299 68.6186C89.1682 67.7494 90.5775 67.7494 91.4467 68.6186C92.3159 69.4878 92.3159 70.8971 91.4467 71.7663L83.5774 79.6356L91.4467 87.5049C92.3159 88.3741 92.3159 89.7834 91.4467 90.6526C90.5775 91.5218 89.1682 91.5218 88.299 90.6526L80.4297 82.7833Z" fill="white"/>
    <defs>
        <filter id="filter0_d_25980_184504" x="33.5957" y="32.8008" width="94.4004" height="96.0004" filterUnits="userSpaceOnUse" color-interpolation-filters="sRGB">
            <feFlood flood-opacity="0" result="BackgroundImageFix"/>
            <feColorMatrix in="SourceAlpha" type="matrix" values="0 0 0 0 0 0 0 0 0 0 0 0 0 0 0 0 0 0 127 0" result="hardAlpha"/>
            <feOffset dy="1.6"/>
            <feComposite in2="hardAlpha" operator="out"/>
            <feColorMatrix type="matrix" values="0 0 0 0 0 0 0 0 0 0 0 0 0 0 0 0 0 0 0.1 0"/>
            <feBlend mode="normal" in2="BackgroundImageFix" result="effect1_dropShadow_25980_184504"/>
            <feBlend mode="normal" in="SourceGraphic" in2="effect1_dropShadow_25980_184504" result="shape"/>
        </filter>
    </defs>
</svg>
