<svg width="64" height="64" viewBox="0 0 64 64" fill="none" xmlns="http://www.w3.org/2000/svg">
<path d="M57.9216 37.29C54.4277 43.5588 49.0375 49.1221 43.0345 52.8572C31.242 60.1937 14.975 56.1628 7.02731 44.5849C3.28827 39.1375 2.06347 31.7248 5.17629 25.7749C7.47947 21.3715 11.9638 19.1804 16.7228 18.8157C20.7368 18.5082 24.6923 19.552 28.6954 19.5741C34.8155 19.6081 39.9764 16.684 45.8406 15.6241C49.0554 15.0429 53.005 15.2242 55.7837 17.2228C58.4217 19.1197 60.1083 22.2857 60.5518 25.5096C61.1116 29.5786 59.9099 33.7227 57.9216 37.29Z" fill="#A0B2EC" fill-opacity="0.16"/>
<path fill-rule="evenodd" clip-rule="evenodd" d="M14.056 35.1365C12.2679 27.0181 7.65312 17.5468 13.2729 11.4423C19.0897 5.1238 29.6572 6.37885 37.6377 9.52094C44.1176 12.0722 46.817 19.1114 49.3165 25.6334C51.3265 30.8785 51.8063 36.3443 49.9484 41.6444C47.8826 47.5377 44.81 53.7824 38.836 55.5317C32.781 57.3046 26.6228 53.9186 21.7439 49.903C17.2428 46.1983 15.3126 40.8417 14.056 35.1365Z" fill="#A0B2EC" fill-opacity="0.16"/>
<path d="M9.67925 25.5802C9.10563 24.5867 9.44604 23.3162 10.4396 22.7426L25.9434 13.7915L27.4954 16.4798C28.069 17.4733 29.3395 17.8137 30.333 17.2401L33.0213 15.688L47.5679 40.8836C48.1415 41.8771 47.8011 43.1475 46.8076 43.7212L28.6155 54.2243C27.622 54.798 26.3516 54.4575 25.778 53.464L9.67925 25.5802Z" fill="white"/>
<path d="M29.5326 17.7017L33.0213 15.6875L25.9434 13.791L27.9575 17.2796C28.2759 17.8311 28.9811 18.0201 29.5326 17.7017Z" fill="#BDCCF8"/>
<rect x="13.4854" y="26.9805" width="9.86694" height="2.07725" rx="1.03862" transform="rotate(-30 13.4854 26.9805)" fill="#E11A81"/>
<rect x="15.8223" y="31.0273" width="19.9935" height="1.55794" rx="0.778969" transform="rotate(-30 15.8223 31.0273)" fill="#BDCCF8"/>
<rect x="17.8994" y="34.627" width="19.9935" height="1.55794" rx="0.778969" transform="rotate(-30 17.8994 34.627)" fill="#BDCCF8"/>
<rect x="23.7998" y="36.0176" width="15.5794" height="1.55794" rx="0.778969" transform="rotate(-30 23.7998 36.0176)" fill="#BDCCF8"/>
<rect x="19.8477" y="37.998" width="3.11587" height="2.07725" rx="1.03862" transform="rotate(-30 19.8477 37.998)" fill="#0C419A"/>
<rect x="21.9248" y="41.5977" width="3.11587" height="2.07725" rx="1.03862" transform="rotate(-30 21.9248 41.5977)" fill="#0C419A"/>
<rect x="24.002" y="45.1953" width="3.11587" height="2.07725" rx="1.03862" transform="rotate(-30 24.002 45.1953)" fill="#0C419A"/>
<rect x="25.877" y="39.6152" width="15.5794" height="1.55794" rx="0.778969" transform="rotate(-30 25.877 39.6152)" fill="#BDCCF8"/>
<rect x="27.9541" y="43.2129" width="8.04934" height="1.55794" rx="0.778969" transform="rotate(-30 27.9541 43.2129)" fill="#BDCCF8"/>
<g filter="url(#filter0_d_8174_80997)">
<path d="M15.2574 18.7604C14.9604 17.6522 15.6181 16.5132 16.7262 16.2163L34.0184 11.5828L37.0168 10.7794C38.1249 10.4825 39.2639 11.1401 39.5609 12.2483L40.3643 15.2466L47.8942 43.3486C48.1911 44.4568 47.5335 45.5958 46.4253 45.8927L26.1348 51.3296C25.0266 51.6265 23.8876 50.9689 23.5907 49.8607L15.2574 18.7604Z" fill="white"/>
</g>
<rect x="22.1963" y="34.627" width="19.9935" height="1.55794" rx="0.778969" transform="rotate(-15 22.1963 34.627)" fill="#BDCCF8"/>
<rect x="36.6279" y="31.7539" width="5.44" height="1.6" rx="0.8" transform="rotate(-15 36.6279 31.7539)" fill="#BDCCF8"/>
<rect x="31.1221" y="40.8535" width="12.9828" height="1.55794" rx="0.778969" transform="rotate(-15 31.1221 40.8535)" fill="#BDCCF8"/>
<rect x="30.1143" y="37.0898" width="8.82831" height="1.55794" rx="0.778969" transform="rotate(-15 30.1143 37.0898)" fill="#BDCCF8"/>
<rect x="31.9961" y="44.1133" width="8.82831" height="1.55794" rx="0.778969" transform="rotate(-15 31.9961 44.1133)" fill="#BDCCF8"/>
<rect x="24.3506" y="42.666" width="4.93347" height="4.93347" rx="0.659861" transform="rotate(-15 24.3506 42.666)" fill="#F9FAFF"/>
<rect x="29.3955" y="41.0469" width="0.934762" height="4.98646" rx="0.467381" transform="rotate(30 29.3955 41.0469)" fill="#0C419A"/>
<rect width="0.934762" height="2.68608" rx="0.467381" transform="matrix(-0.5 0.866025 0.866025 0.5 25.8467 43.6875)" fill="#0C419A"/>
<rect width="0.934762" height="2.68608" rx="0.467381" transform="matrix(0.258819 0.965926 0.965926 -0.258819 23.543 37.8887)" fill="#E11A81"/>
<path d="M30.0563 21.5238C29.7793 21.598 29.4945 21.4336 29.4203 21.1566L29.3051 20.7266C29.2308 20.4496 29.3952 20.1648 29.6723 20.0906L30.1022 19.9754C30.3793 19.9012 30.664 20.0656 30.7383 20.3426L30.8535 20.7726C30.9277 21.0496 30.7633 21.3344 30.4863 21.4086L30.0563 21.5238Z" fill="#0C419A"/>
<path d="M29.2878 18.6566C29.0107 18.7308 28.726 18.5664 28.6517 18.2894L28.5365 17.8594C28.4623 17.5824 28.6267 17.2976 28.9037 17.2234L29.3337 17.1082C29.6107 17.034 29.8955 17.1984 29.9697 17.4754L30.0849 17.9054C30.1591 18.1824 29.9947 18.4672 29.7177 18.5414L29.2878 18.6566Z" fill="#0C419A"/>
<path d="M27.1891 22.2914C26.9121 22.3656 26.6273 22.2012 26.5531 21.9242L26.4379 21.4942C26.3637 21.2172 26.5281 20.9324 26.8051 20.8582L27.2351 20.743C27.5121 20.6687 27.7968 20.8331 27.8711 21.1102L27.9863 21.5401C28.0605 21.8172 27.8961 22.1019 27.6191 22.1762L27.1891 22.2914Z" fill="#0C419A"/>
<path d="M28.2389 20.475C27.9619 20.5492 27.6771 20.3848 27.6029 20.1078L27.4877 19.6778C27.4135 19.4008 27.5779 19.116 27.8549 19.0418L28.2849 18.9266C28.5619 18.8523 28.8467 19.0167 28.9209 19.2938L29.0361 19.7237C29.1103 20.0008 28.9459 20.2855 28.6689 20.3598L28.2389 20.475Z" fill="#0C419A"/>
<path d="M26.4215 19.4242C26.1445 19.4984 25.8597 19.334 25.7855 19.057L25.6703 18.627C25.5961 18.35 25.7605 18.0652 26.0375 17.991L26.4675 17.8758C26.7445 17.8016 27.0293 17.966 27.1035 18.243L27.2187 18.673C27.2929 18.95 27.1285 19.2347 26.8515 19.309L26.4215 19.4242Z" fill="#0C419A"/>
<path d="M23.9244 29.3113C23.5443 29.4131 23.1393 29.3598 22.7985 29.1631C22.4577 28.9663 22.209 28.6422 22.1072 28.2621L21.7232 26.8289C21.6213 26.4488 21.6746 26.0438 21.8714 25.703C22.0682 25.3622 22.3922 25.1136 22.7723 25.0117L24.2055 24.6277C24.5856 24.5258 24.9906 24.5792 25.3314 24.7759C25.6722 24.9727 25.9209 25.2968 26.0227 25.6769L26.4068 27.1101C26.5086 27.4902 26.4553 27.8952 26.2585 28.2359C26.0618 28.5767 25.7377 28.8254 25.3576 28.9273L23.9244 29.3113ZM22.8238 28.0701C22.8747 28.2602 22.999 28.4222 23.1694 28.5206C23.3398 28.619 23.5423 28.6456 23.7324 28.5947L25.1656 28.2107C25.3556 28.1597 25.5177 28.0354 25.6161 27.865C25.7144 27.6946 25.7411 27.4921 25.6902 27.3021L25.3061 25.8689C25.2552 25.6788 25.1309 25.5168 24.9605 25.4184C24.7901 25.32 24.5876 25.2934 24.3975 25.3443L22.9643 25.7283C22.7743 25.7792 22.6123 25.9036 22.5139 26.074C22.4155 26.2444 22.3888 26.4469 22.4398 26.6369L22.8238 28.0701Z" fill="#E11A81"/>
<path d="M23.54 27.877L23.156 26.4438L24.5892 26.0597L24.9732 27.4929L23.54 27.877Z" fill="#E11A81"/>
<path d="M29.6568 27.7742C29.2767 27.876 28.8717 27.8227 28.5309 27.626C28.1901 27.4292 27.9415 27.1051 27.8396 26.725L27.4556 25.2918C27.3537 24.9117 27.4071 24.5067 27.6038 24.1659C27.8006 23.8251 28.1247 23.5765 28.5048 23.4746L29.9379 23.0906C30.3181 22.9887 30.7231 23.0421 31.0638 23.2388C31.4046 23.4356 31.6533 23.7596 31.7552 24.1398L32.1392 25.5729C32.241 25.953 32.1877 26.358 31.991 26.6988C31.7942 27.0396 31.4701 27.2883 31.09 27.3902L29.6568 27.7742ZM28.5562 26.533C28.6071 26.7231 28.7315 26.8851 28.9019 26.9835C29.0723 27.0818 29.2748 27.1085 29.4648 27.0576L30.898 26.6736C31.0881 26.6226 31.2501 26.4983 31.3485 26.3279C31.4469 26.1575 31.4735 25.955 31.4226 25.765L31.0386 24.3318C30.9876 24.1417 30.8633 23.9797 30.6929 23.8813C30.5225 23.7829 30.32 23.7563 30.13 23.8072L28.6968 24.1912C28.5067 24.2421 28.3447 24.3665 28.2463 24.5369C28.1479 24.7073 28.1213 24.9098 28.1722 25.0998L28.5562 26.533Z" fill="#0C419A"/>
<path d="M29.2734 26.3418L28.8894 24.9086L30.3226 24.5246L30.7066 25.9578L29.2734 26.3418Z" fill="#0C419A"/>
<path d="M22.3883 23.5789C22.0082 23.6807 21.6032 23.6274 21.2624 23.4306C20.9216 23.2339 20.6729 22.9098 20.5711 22.5297L20.187 21.0965C20.0852 20.7164 20.1385 20.3114 20.3353 19.9706C20.532 19.6298 20.8561 19.3811 21.2362 19.2793L22.6694 18.8953C23.0495 18.7934 23.4545 18.8467 23.7953 19.0435C24.1361 19.2403 24.3848 19.5643 24.4866 19.9444L24.8706 21.3776C24.9725 21.7577 24.9192 22.1627 24.7224 22.5035C24.5256 22.8443 24.2016 23.093 23.8215 23.1948L22.3883 23.5789ZM21.2877 22.3377C21.3386 22.5277 21.4629 22.6898 21.6333 22.7882C21.8037 22.8865 22.0062 22.9132 22.1963 22.8623L23.6295 22.4782C23.8195 22.4273 23.9815 22.303 24.0799 22.1326C24.1783 21.9622 24.205 21.7597 24.154 21.5696L23.77 20.1364C23.7191 19.9464 23.5948 19.7844 23.4244 19.686C23.254 19.5876 23.0515 19.5609 22.8614 19.6119L21.4282 19.9959C21.2382 20.0468 21.0761 20.1711 20.9777 20.3415C20.8794 20.5119 20.8527 20.7144 20.9036 20.9045L21.2877 22.3377Z" fill="#E11A81"/>
<path d="M22.0039 22.1445L21.6199 20.7113L23.0531 20.3273L23.4371 21.7605L22.0039 22.1445Z" fill="#E11A81"/>
<g filter="url(#filter1_d_8174_80997)">
<path d="M26.0782 45.9535H47.0846C48.2318 45.9535 49.1618 45.0235 49.1618 43.8763V11.6788C49.1618 10.5316 48.2318 9.60156 47.0846 9.60156L26.0782 9.60156C24.931 9.60156 24.001 10.5316 24.001 11.6788L24.001 43.8763C24.001 45.0235 24.931 45.9535 26.0782 45.9535Z" fill="white"/>
</g>
<path d="M38.624 12.9292C38.624 12.3556 39.089 11.8906 39.6626 11.8906H45.6347C46.2084 11.8906 46.6734 12.3556 46.6734 12.9292C46.6734 13.5029 46.2084 13.9679 45.6347 13.9679H39.6626C39.089 13.9679 38.624 13.5029 38.624 12.9292Z" fill="#E11A81"/>
<path d="M38.623 17.0837C38.623 16.6534 38.9718 16.3047 39.402 16.3047H45.8934C46.3236 16.3047 46.6724 16.6534 46.6724 17.0837C46.6724 17.5139 46.3236 17.8626 45.8934 17.8626H39.402C38.9718 17.8626 38.623 17.5139 38.623 17.0837Z" fill="#BDCCF8"/>
<path d="M38.6221 20.9782C38.6221 20.548 38.9708 20.1992 39.401 20.1992H40.6993C41.1295 20.1992 41.4783 20.548 41.4783 20.9782C41.4783 21.4084 41.1295 21.7572 40.6993 21.7572H39.401C38.9708 21.7572 38.6221 21.4084 38.6221 20.9782Z" fill="#BDCCF8"/>
<path d="M37.0659 17.0837C37.0659 19.9518 34.7409 22.2769 31.8728 22.2769C29.0047 22.2769 26.6797 19.9518 26.6797 17.0837C26.6797 14.2157 29.0047 11.8906 31.8728 11.8906C34.7409 11.8906 37.0659 14.2157 37.0659 17.0837Z" fill="#F9FAFF"/>
<path d="M30.2011 15.472C30.2011 14.6418 30.8913 13.9688 31.7428 13.9688C32.5943 13.9688 33.2845 14.6418 33.2845 15.472C33.2845 16.3023 32.5943 16.9753 31.7428 16.9753C30.8913 16.9753 30.2011 16.3023 30.2011 15.472ZM31.7428 16.374C32.2537 16.374 32.6678 15.9702 32.6678 15.472C32.6678 14.9739 32.2537 14.5701 31.7428 14.5701C31.2319 14.5701 30.8178 14.9739 30.8178 15.472C30.8178 15.9702 31.2319 16.374 31.7428 16.374Z" fill="#E11A81"/>
<path d="M29.9985 17.9804C29.6109 18.3584 29.3656 18.8492 29.2963 19.3737C29.274 19.5425 29.4141 19.6812 29.5844 19.6812C29.7547 19.6812 29.89 19.5421 29.9197 19.3744C29.9842 19.0098 30.1627 18.6707 30.4346 18.4056C30.7816 18.0673 31.2521 17.8773 31.7428 17.8773C32.2335 17.8773 32.704 18.0673 33.051 18.4056C33.3229 18.6707 33.5014 19.0098 33.5659 19.3744C33.5956 19.5421 33.7309 19.6812 33.9012 19.6812C34.0715 19.6812 34.2116 19.5425 34.1893 19.3737C34.12 18.8492 33.8747 18.3584 33.487 17.9804C33.0244 17.5294 32.397 17.2759 31.7428 17.2759C31.0886 17.2759 30.4612 17.5294 29.9985 17.9804Z" fill="#E11A81"/>
<path d="M26.6787 25.9117C26.6787 25.3381 27.1437 24.873 27.7173 24.873H28.756C29.3296 24.873 29.7946 25.3381 29.7946 25.9117C29.7946 26.4853 29.3296 26.9503 28.756 26.9503H27.7173C27.1437 26.9503 26.6787 26.4853 26.6787 25.9117Z" fill="#E11A81"/>
<path d="M26.6797 30.066C26.6797 29.4924 27.1447 29.0273 27.7183 29.0273H28.7569C29.3306 29.0273 29.7956 29.4924 29.7956 30.066C29.7956 30.6396 29.3306 31.1046 28.7569 31.1046H27.7183C27.1447 31.1046 26.6797 30.6396 26.6797 30.066Z" fill="#E11A81"/>
<path d="M31.0938 25.9118C31.0938 25.4816 31.4425 25.1328 31.8727 25.1328H45.8942C46.3244 25.1328 46.6731 25.4816 46.6731 25.9118C46.6731 26.342 46.3244 26.6907 45.8942 26.6907H31.8727C31.4425 26.6907 31.0938 26.342 31.0938 25.9118Z" fill="#BDCCF8"/>
<path d="M31.0928 30.068C31.0928 29.6378 31.4415 29.2891 31.8717 29.2891H38.3631C38.7934 29.2891 39.1421 29.6378 39.1421 30.068C39.1421 30.4982 38.7934 30.847 38.3631 30.847H31.8717C31.4415 30.847 31.0928 30.4982 31.0928 30.068Z" fill="#BDCCF8"/>
<path d="M26.6787 34.361C26.6787 33.9966 26.9741 33.7012 27.3386 33.7012H46.0124C46.3768 33.7012 46.6722 33.9966 46.6722 34.361V40.5713C46.6722 40.9358 46.3768 41.2312 46.0124 41.2312H27.3386C26.9741 41.2312 26.6787 40.9358 26.6787 40.5713V34.361Z" fill="#F9FAFF"/>
<path fill-rule="evenodd" clip-rule="evenodd" d="M37.2736 35.8057L35.9671 38.3813C35.8675 38.5776 35.6662 38.7012 35.4461 38.7012H34.6957L34.2751 39.9257C34.1018 40.4303 33.3984 40.4576 33.1864 39.968L31.8889 36.9713L31.2614 38.3579C31.1668 38.5669 30.9586 38.7012 30.7291 38.7012H28.7562C28.577 38.7012 28.4316 38.5559 28.4316 38.3766C28.4316 38.1974 28.577 38.0521 28.7562 38.0521H30.6872L31.358 36.57C31.567 36.1081 32.2249 36.1135 32.4264 36.5788L33.7156 39.5564L34.0968 38.4465C34.1778 38.2105 34.3998 38.0521 34.6493 38.0521H35.4062L36.7615 35.3805C36.9914 34.9272 37.6504 34.9634 37.8293 35.4392L39.2023 39.0907L39.5218 38.393C39.617 38.1853 39.8245 38.0521 40.053 38.0521H41.114L41.6484 36.9985C41.8648 36.572 42.4741 36.572 42.6905 36.9985L43.2249 38.0521H44.5952C44.7745 38.0521 44.9198 38.1974 44.9198 38.3766C44.9198 38.5559 44.7745 38.7012 44.5952 38.7012H43.185C42.965 38.7012 42.7636 38.5776 42.664 38.3813L42.1694 37.4063L41.6749 38.3813C41.5753 38.5776 41.3739 38.7012 41.1538 38.7012H40.0947L39.7276 39.5028C39.5113 39.975 38.8324 39.9513 38.6496 39.4651L37.2736 35.8057Z" fill="#E11A81"/>
<g filter="url(#filter2_d_8174_80997)">
<ellipse cx="45.4385" cy="45.4399" rx="9.05046" ry="9.05046" transform="rotate(45 45.4385 45.4399)" fill="white"/>
</g>
<g filter="url(#filter3_d_8174_80997)">
<ellipse cx="45.4385" cy="45.4393" rx="7.68" ry="7.68" transform="rotate(45 45.4385 45.4393)" fill="#D81E7E"/>
</g>
<path d="M45.4296 41.3242L49.2139 47.8623H41.6454L45.4296 41.3242ZM40.776 47.3598C40.3891 48.0282 40.8715 48.8674 41.6454 48.8674H49.2139C49.9878 48.8674 50.4702 48.0282 50.0833 47.3598L46.2991 40.8216C45.9121 40.1532 44.9472 40.1532 44.5602 40.8216L40.776 47.3598ZM44.9271 43.5219V45.167C44.9271 45.4434 45.1532 45.6696 45.4296 45.6696C45.7061 45.6696 45.9322 45.4434 45.9322 45.167V43.5219C45.9322 43.2455 45.7061 43.0194 45.4296 43.0194C45.1532 43.0194 44.9271 43.2455 44.9271 43.5219ZM44.9268 46.8001C44.927 46.4909 45.1776 46.2403 45.4867 46.2403C45.7959 46.2403 46.0466 46.4911 46.0466 46.8003C46.0466 47.1095 45.7959 47.3603 45.4867 47.3603C45.1774 47.3603 44.9267 47.1094 44.9268 46.8001Z" fill="white"/>
<defs>
<filter id="filter0_d_8174_80997" x="11.3023" y="8.76688" width="40.5477" height="48.4598" filterUnits="userSpaceOnUse" color-interpolation-filters="sRGB">
<feFlood flood-opacity="0" result="BackgroundImageFix"/>
<feColorMatrix in="SourceAlpha" type="matrix" values="0 0 0 0 0 0 0 0 0 0 0 0 0 0 0 0 0 0 127 0" result="hardAlpha"/>
<feOffset dy="1.9421"/>
<feGaussianBlur stdDeviation="1.9421"/>
<feColorMatrix type="matrix" values="0 0 0 0 0.0470588 0 0 0 0 0.254902 0 0 0 0 0.603922 0 0 0 0.1 0"/>
<feBlend mode="normal" in2="BackgroundImageFix" result="effect1_dropShadow_8174_80997"/>
<feBlend mode="normal" in="SourceGraphic" in2="effect1_dropShadow_8174_80997" result="shape"/>
</filter>
<filter id="filter1_d_8174_80997" x="20.1168" y="7.65946" width="32.9295" height="44.12" filterUnits="userSpaceOnUse" color-interpolation-filters="sRGB">
<feFlood flood-opacity="0" result="BackgroundImageFix"/>
<feColorMatrix in="SourceAlpha" type="matrix" values="0 0 0 0 0 0 0 0 0 0 0 0 0 0 0 0 0 0 127 0" result="hardAlpha"/>
<feOffset dy="1.9421"/>
<feGaussianBlur stdDeviation="1.9421"/>
<feColorMatrix type="matrix" values="0 0 0 0 0.0470588 0 0 0 0 0.254902 0 0 0 0 0.603922 0 0 0 0.1 0"/>
<feBlend mode="normal" in2="BackgroundImageFix" result="effect1_dropShadow_8174_80997"/>
<feBlend mode="normal" in="SourceGraphic" in2="effect1_dropShadow_8174_80997" result="shape"/>
</filter>
<filter id="filter2_d_8174_80997" x="30.928" y="33.6588" width="29.0209" height="29.0209" filterUnits="userSpaceOnUse" color-interpolation-filters="sRGB">
<feFlood flood-opacity="0" result="BackgroundImageFix"/>
<feColorMatrix in="SourceAlpha" type="matrix" values="0 0 0 0 0 0 0 0 0 0 0 0 0 0 0 0 0 0 127 0" result="hardAlpha"/>
<feOffset dy="2.72983"/>
<feGaussianBlur stdDeviation="2.72983"/>
<feColorMatrix type="matrix" values="0 0 0 0 0.0470588 0 0 0 0 0.254902 0 0 0 0 0.603922 0 0 0 0.1 0"/>
<feBlend mode="normal" in2="BackgroundImageFix" result="effect1_dropShadow_8174_80997"/>
<feBlend mode="normal" in="SourceGraphic" in2="effect1_dropShadow_8174_80997" result="shape"/>
</filter>
<filter id="filter3_d_8174_80997" x="32.2991" y="35.0299" width="26.2787" height="26.2787" filterUnits="userSpaceOnUse" color-interpolation-filters="sRGB">
<feFlood flood-opacity="0" result="BackgroundImageFix"/>
<feColorMatrix in="SourceAlpha" type="matrix" values="0 0 0 0 0 0 0 0 0 0 0 0 0 0 0 0 0 0 127 0" result="hardAlpha"/>
<feOffset dy="2.72983"/>
<feGaussianBlur stdDeviation="2.72983"/>
<feColorMatrix type="matrix" values="0 0 0 0 0.0470588 0 0 0 0 0.254902 0 0 0 0 0.603922 0 0 0 0.1 0"/>
<feBlend mode="normal" in2="BackgroundImageFix" result="effect1_dropShadow_8174_80997"/>
<feBlend mode="normal" in="SourceGraphic" in2="effect1_dropShadow_8174_80997" result="shape"/>
</filter>
</defs>
</svg>
