<svg width="161" height="160" viewBox="0 0 161 160" fill="none" xmlns="http://www.w3.org/2000/svg">
    <path d="M30.8368 95.8104C39.4722 82.1732 52.2773 70.3582 66.2285 62.7252C93.6345 47.7327 129.658 58.8262 146.048 85.8211C153.759 98.5222 155.576 115.321 147.836 128.289C142.11 137.888 131.763 142.244 121.03 142.466C111.977 142.652 103.226 139.812 94.2389 139.26C80.4993 138.415 68.5413 144.332 55.2387 145.976C47.9461 146.877 39.0994 145.974 33.1109 141.138C27.4257 136.547 24.0367 129.226 23.4468 121.932C22.7018 112.725 25.9224 103.571 30.8368 95.8104Z" fill="#A0B2EC" fill-opacity="0.16"/>
    <path fill-rule="evenodd" clip-rule="evenodd" d="M16.4379 76.2556C12.5153 58.5245 2.3915 37.839 14.72 24.5065C27.4807 10.7068 50.6633 13.4478 68.1706 20.3103C82.386 25.8823 88.3078 41.2561 93.791 55.5004C98.2006 66.956 99.253 78.8933 95.1773 90.4689C90.6453 103.34 83.9048 116.979 70.7992 120.799C57.5162 124.671 44.0065 117.276 33.3033 108.506C23.4289 100.415 19.1945 88.7158 16.4379 76.2556Z" fill="#A0B2EC" fill-opacity="0.16"/>
    <path d="M89.4901 102.991C89.1496 103.168 88.8113 103.347 88.4708 103.524L88.468 103.527C84.1508 105.781 79.8315 108.039 75.5149 110.296C72.9951 111.612 70.4726 112.93 67.9523 114.249C64.075 116.274 60.195 118.303 56.3177 120.329C53.8912 121.597 51.4652 122.864 49.0387 124.133C47.1168 125.137 45.1949 126.143 43.273 127.148C41.6453 127.998 40.0198 128.848 38.3915 129.701C35.3331 131.298 32.2725 132.898 29.2141 134.497C27.6774 135.277 25.9559 133.821 26.5018 132.2C27.7762 128.409 29.0528 124.62 30.3271 120.828V120.825C31.0578 118.654 31.7885 116.48 32.517 114.308V114.306C33.3571 111.809 34.1972 109.312 35.0367 106.816C36.0091 103.924 36.9821 101.033 37.9522 98.1405C38.9743 95.1083 39.9936 92.0734 41.0128 89.0412C41.8245 86.6331 42.6328 84.2223 43.4416 81.8142C44.5987 78.3762 45.7537 74.9432 46.9108 71.5053V71.5025C46.908 71.4997 46.908 71.4997 46.9108 71.4974C46.9968 71.2451 47.08 70.9906 47.1659 70.7383C61.274 81.4893 75.382 92.2397 89.4901 102.991Z" fill="#F0B323"/>
    <path d="M89.4916 102.991C91.3179 100.594 83.3239 91.432 71.6367 82.5262C59.9494 73.6204 48.9944 68.3438 47.1681 70.7405C45.3418 73.1372 53.3357 82.2996 65.023 91.2054C76.7103 100.111 87.6653 105.388 89.4916 102.991Z" fill="#A87D19"/>
    <path d="M75.5462 110.288C73.0265 111.604 70.5039 112.922 67.9836 114.241C65.805 113.568 56.0878 106.412 51.6824 102.683C44.8723 96.292 42.4721 94.0313 40.7695 89.8448C41.5817 87.4372 42.6646 84.2147 43.4735 81.8066C47.0181 87.4004 49.2297 91.4507 56.7063 97.6038C62.2743 102.188 71.694 109.661 75.5462 110.288Z" fill="#0C419A"/>
    <path d="M35.0508 106.816C35.0508 110.807 49.3408 122.278 51.6573 122.78L58.8861 118.985C53.3026 116.975 37.1429 102.543 37.479 99.5312C36.6701 101.939 35.863 104.408 35.0508 106.816Z" fill="#0C419A"/>
    <path d="M29.3574 123.755C29.7482 124.76 32.4848 129.03 36.5862 130.649L42.9776 127.3C40.1028 127.048 31.9531 119.373 31.7577 116.582C30.9489 118.99 30.1696 121.347 29.3574 123.755Z" fill="#0C419A"/>
    <path opacity="0.2" d="M26.4525 132.352L27.0386 130.594C26.5921 133.357 31.6159 130.762 32.0346 130.594L53.2742 121.914C45.6733 125.887 30.3153 133.915 29.6901 134.25C28.9086 134.669 28.6667 134.716 28.462 134.725C28.2201 134.762 27.435 134.663 26.8991 134.083C26.3632 133.502 26.3409 132.827 26.4525 132.352Z" fill="#262939"/>
    <path d="M55.998 83.5483C48.2114 76.5377 46.718 72.7356 46.8906 71.5449L42.7012 84.0001C45.1866 77.0064 47.1766 78.3486 48.677 79.2023C51.2459 81.0702 51.7296 81.7116 55.998 83.5483Z" fill="white" fill-opacity="0.4"/>
    <path d="M75.2902 74.483C79.5879 76.4563 85.9709 72.4032 87.2761 68.2611C87.9277 66.2026 88.047 63.2097 87.8238 61.0543C87.5088 58.0026 85.0171 55.9932 83.9717 53.2253C83.1349 51.005 83.7072 49.1406 85.04 46.8027C87.1888 43.0424 96.5226 37.4989 97.8243 44.9426C97.8571 43.671 97.8817 42.3923 97.9145 41.1208C97.8218 43.4655 96.363 45.2496 93.8827 44.7007C91.4677 44.1703 90.4661 41.9289 90.2037 39.7151C90.1821 40.879 90.1518 42.0525 90.1301 43.2165C90.5195 33.2409 101.431 29.8134 109.663 29.5005C109.778 29.4951 109.711 25.3987 109.769 25.4002C99.2871 25.7938 90.427 30.4723 90.1354 41.7635C90.0575 44.7812 90.7801 49.1972 94.8419 48.9083C98.1637 48.6746 97.9343 44.8039 97.9167 42.3414C97.8897 38.9355 95.6465 36.5304 91.899 37.3445C87.6074 38.2846 84.6302 42.3752 83.6787 46.4452C83.1714 48.6153 83.1668 51.0184 83.2158 53.2436C83.3065 57.9809 87.0921 60.7369 87.7168 65.1433C87.7515 63.799 87.7861 62.4616 87.8124 61.1171C87.4755 64.6116 86.2542 67.1319 83.1344 69.0958C81.016 70.4284 77.8049 71.4777 75.3882 70.3643C75.8588 70.5909 74.7707 74.2482 75.2902 74.483Z" fill="#D81E7E"/>
    <path d="M65.0104 84.7659C71.959 84.0114 73.3923 76.9566 72.3039 71.1139C70.7455 62.7289 58.4263 61.9744 57.6525 53.7985C57.6525 55.5149 57.6525 57.2223 57.6632 58.9386C57.9152 54.5316 61.3252 51.4118 64.9156 49.3808C68.2434 47.5071 70.0967 45.2347 70.5346 41.2049C71.153 35.4462 69.2693 31.4468 63.9845 28.4629C64.7065 28.8705 63.2107 33.2579 63.9845 33.6977C66.6224 35.1834 70.2111 37.9582 70.5364 41.2031V35.9683C69.364 42.6155 65.8897 42.5226 61.6093 46.3432C58.387 49.2234 57.6328 52.3736 57.6328 56.416C57.6328 60.2795 58.5639 62.7503 61.8077 65.2515C66.2864 68.6949 71.3406 70.8314 72.4094 77.0084C72.4094 75.2921 72.4094 73.5847 72.3986 71.8684C72.2003 76.2021 69.196 79.0823 64.9996 79.5311C64.7798 79.5508 65.1569 84.7445 65.0104 84.7659Z" fill="#0C419A"/>
    <path d="M96.2512 67.9199C99.3558 69.5696 102.888 71.8585 106.411 69.977C108.442 68.8864 109.489 66.811 110.35 64.7705C112.32 60.1138 113.233 57.4522 118.637 59.9366C121.813 61.3908 129.169 66.2081 130.508 60.0426C131.201 56.8402 130.064 53.4348 129.896 50.2854C129.896 51.7397 129.896 53.1864 129.887 54.6406C130.695 49.0705 138.804 51.0035 142.228 52.485C141.713 52.2638 142.796 48.2979 142.228 48.0495C138.528 46.4437 130.587 44.6789 129.878 50.5066C129.523 53.4257 130.251 56.2721 130.552 59.1382C130.552 57.684 130.552 56.2373 130.543 54.783C130.046 64.869 117.04 51.8821 113.029 54.9163C110.802 56.6024 110.544 60.7258 109.045 62.9799C105.674 68.0623 100.706 65.8718 96.2421 63.495C96.836 63.7949 95.6117 67.5821 96.2512 67.9199Z" fill="#0C419A"/>
    <path d="M75.2619 91.521C77.8978 84.7413 82.5844 81.1518 90.1698 81.0588C97.8916 80.9658 110.486 85.61 111.09 94.7285C111.09 93.3339 111.09 91.9466 111.099 90.5521C110.503 93.8787 107.06 95.2645 103.939 94.5498C100.622 93.793 98.445 91.0024 98.0194 87.728C98.0194 89.1226 98.0194 90.5099 98.0282 91.9045C98.3767 84.3419 106.498 81.8752 112.885 81.9696C119.553 82.0713 124.315 86.5543 127.963 91.7098C127.308 90.783 128.643 88.4181 127.963 87.4564C124.127 82.0452 119.169 77.5797 112.171 77.7075C106.482 77.8179 99.0491 79.9867 98.0703 86.5122C97.7392 88.7406 97.6622 92.0832 98.5045 94.1852C100.231 98.5156 108.803 101.704 110.904 95.8776C113.931 87.4811 105.477 80.4966 98.4697 78.1927C93.2312 76.4742 87.2274 76.1168 82.1342 78.55C78.3495 80.3615 76.7084 83.5255 75.2546 87.2603C74.7783 88.5096 75.731 90.3051 75.2619 91.521Z" fill="#D81E7E"/>
    <rect x="60.4121" y="19.4531" width="4.02507" height="4.02507" transform="rotate(-29.1437 60.4121 19.4531)" fill="#F0B323"/>
    <rect x="117.322" y="40.9766" width="4.02507" height="4.02507" transform="rotate(-41.2495 117.322 40.9766)" fill="#A05BB6"/>
    <rect x="130.398" y="75.9277" width="4.02507" height="4.02507" transform="rotate(-35.3511 130.398 75.9277)" fill="#A05BB6"/>
    <rect x="129.068" y="107.352" width="4.02507" height="4.02507" transform="rotate(22.0162 129.068 107.352)" fill="#07CBA2"/>
    <rect x="118.725" y="104.543" width="4.02507" height="4.02507" transform="rotate(34.275 118.725 104.543)" fill="#F0B323"/>
    <rect x="117.701" y="68.2559" width="4.02507" height="4.02507" transform="rotate(78.3816 117.701 68.2559)" fill="#0C419A"/>
    <rect x="53.418" y="45.7988" width="4.02507" height="4.02507" transform="rotate(26.3241 53.418 45.7988)" fill="#F0B323"/>
    <rect x="81.9121" y="28" width="4.02507" height="4.02507" transform="rotate(60.7263 81.9121 28)" fill="#0C419A"/>
    <rect x="90.8496" y="17.4922" width="4.02507" height="4.02507" transform="rotate(60.7263 90.8496 17.4922)" fill="#07CBA2"/>
</svg>
