<svg width="56" height="56" viewBox="0 0 56 56" fill="none" xmlns="http://www.w3.org/2000/svg">
<path fill-rule="evenodd" clip-rule="evenodd" d="M5.63807 25.3044C4.20356 18.8241 0.501311 11.264 5.00984 6.39127C9.6764 1.34775 18.1543 2.34955 24.5567 4.85762C29.7552 6.89409 31.9208 12.5129 33.926 17.7189C35.5386 21.9056 35.9235 26.2684 34.433 30.4991C32.7756 35.2032 30.3106 40.1879 25.518 41.5841C20.6603 42.9993 15.7199 40.2965 11.8057 37.0912C8.19468 34.1341 6.64616 29.8584 5.63807 25.3044Z" fill="#A0B2EC" fill-opacity="0.16"/>
<path d="M53.0525 25.5487C53.706 30.8354 52.8389 36.5218 50.7498 41.3753C46.6455 50.909 34.5234 55.5521 24.2144 52.0436C19.3642 50.3927 15.206 46.468 14.4572 41.5385C13.9027 37.8905 15.7368 34.6251 18.5783 32.3384C20.975 30.4099 23.9517 29.3191 26.4919 27.5934C30.3758 24.9552 32.3029 20.9552 35.5255 17.7705C37.2921 16.0245 39.8713 14.4178 42.54 14.4123C45.0734 14.4069 47.5848 15.5776 49.3369 17.3233C51.5484 19.5266 52.6807 22.5401 53.0525 25.5487Z" fill="#A0B2EC" fill-opacity="0.16"/>
<g filter="url(#filter0_d_1380_34780)">
<path d="M14.4922 10.5684C14.4922 9.3333 15.4935 8.33203 16.7286 8.33203H36.0025V11.674C36.0025 12.9091 37.0038 13.9104 38.2389 13.9104H41.5809V45.2329C41.5809 46.468 40.5796 47.4693 39.3445 47.4693H16.7286C15.4935 47.4693 14.4922 46.468 14.4922 45.2329V10.5684Z" fill="white"/>
</g>
<path d="M37.2434 13.9104H41.5803L36.002 8.33203V12.669C36.002 13.3546 36.5578 13.9104 37.2434 13.9104Z" fill="#BDCCF8"/>
<rect x="17.2871" y="13.9238" width="8.94564" height="2.23641" rx="1.1182" fill="#0C419A"/>
<rect x="17.2871" y="18.957" width="21.5254" height="1.67731" rx="0.838653" fill="#BDCCF8"/>
<rect x="17.2871" y="24.5469" width="21.5254" height="1.67731" rx="0.838653" fill="#BDCCF8"/>
<rect x="17.2871" y="30.1387" width="21.5254" height="1.67731" rx="0.838653" fill="#BDCCF8"/>
<path d="M17.2871 36.4389C17.2871 36.0466 17.6052 35.7285 17.9975 35.7285L38.1021 35.7285C38.4945 35.7285 38.8125 36.0466 38.8125 36.4389L38.8125 43.1251C38.8125 43.5174 38.4945 43.8355 38.1021 43.8355L17.9975 43.8355C17.6052 43.8355 17.2871 43.5174 17.2871 43.1251L17.2871 36.4389Z" fill="#F9FAFF"/>
<path fill-rule="evenodd" clip-rule="evenodd" d="M28.6933 37.9937L27.2867 40.7666C27.1795 40.9779 26.9626 41.111 26.7257 41.111H25.9178L25.465 42.4293C25.2784 42.9726 24.5212 43.002 24.2929 42.4749L22.896 39.2485L22.2204 40.7414C22.1185 40.9664 21.8944 41.111 21.6473 41.111H19.5233C19.3303 41.111 19.1738 40.9546 19.1738 40.7616C19.1738 40.5686 19.3303 40.4121 19.5233 40.4121H21.6023L22.3244 38.8166C22.5494 38.3193 23.2577 38.3251 23.4746 38.826L24.8626 42.0317L25.273 40.8368C25.3603 40.5827 25.5993 40.4121 25.8679 40.4121H26.6828L28.1419 37.5359C28.3894 37.0479 29.099 37.0869 29.2916 37.5991L30.7698 41.5304L31.1138 40.7792C31.2162 40.5556 31.4396 40.4121 31.6856 40.4121H32.8279L33.4033 39.2779C33.6362 38.8186 34.2922 38.8186 34.5252 39.2779L35.1006 40.4121H36.5759C36.7689 40.4121 36.9253 40.5686 36.9253 40.7616C36.9253 40.9546 36.7689 41.111 36.5759 41.111H35.0576C34.8207 41.111 34.6039 40.9779 34.4967 40.7666L33.9642 39.7169L33.4318 40.7666C33.3246 40.9779 33.1077 41.111 32.8708 41.111H31.7305L31.3353 41.974C31.1024 42.4824 30.3715 42.4569 30.1747 41.9335L28.6933 37.9937Z" fill="#BDCCF8"/>
<defs>
<filter id="filter0_d_1380_34780" x="10.3104" y="6.24112" width="35.4525" height="47.5003" filterUnits="userSpaceOnUse" color-interpolation-filters="sRGB">
<feFlood flood-opacity="0" result="BackgroundImageFix"/>
<feColorMatrix in="SourceAlpha" type="matrix" values="0 0 0 0 0 0 0 0 0 0 0 0 0 0 0 0 0 0 127 0" result="hardAlpha"/>
<feOffset dy="2.09091"/>
<feGaussianBlur stdDeviation="2.09091"/>
<feColorMatrix type="matrix" values="0 0 0 0 0.0470588 0 0 0 0 0.254902 0 0 0 0 0.603922 0 0 0 0.1 0"/>
<feBlend mode="normal" in2="BackgroundImageFix" result="effect1_dropShadow_1380_34780"/>
<feBlend mode="normal" in="SourceGraphic" in2="effect1_dropShadow_1380_34780" result="shape"/>
</filter>
</defs>
</svg>
