<svg width="160" height="160" viewBox="0 0 160 160" fill="none" xmlns="http://www.w3.org/2000/svg">
<path d="M101.244 152.348C81.7358 150.847 61.8107 143.847 45.7136 133.243C14.094 112.412 5.51791 67.5324 25.1206 34.6443C34.3441 19.1713 51.3025 7.68194 69.5866 8.60243C83.1179 9.28222 93.6593 17.8867 99.9915 29.2551C105.332 38.8437 107.26 49.8293 111.772 59.767C118.669 74.9606 131.798 84.4043 141.112 97.7161C146.219 105.014 150.275 115.001 148.496 124.161C146.809 132.857 140.893 140.646 133.416 145.422C123.979 151.45 112.346 153.202 101.244 152.348Z" fill="#A0B2EC" fill-opacity="0.16"/>
<path fill-rule="evenodd" clip-rule="evenodd" d="M69.7385 42.1554C92.0569 38.2099 118.382 26.7187 134.371 42.7227C150.919 59.2877 146.296 87.9303 136.827 109.311C129.139 126.671 109.657 133.222 91.6064 139.287C77.0896 144.165 62.1464 144.849 47.9207 139.184C32.1029 132.885 15.4425 123.804 11.3584 107.331C7.219 90.6356 17.1444 74.2466 28.6388 61.4142C39.2432 49.5754 54.0546 44.9281 69.7385 42.1554Z" fill="#A0B2EC" fill-opacity="0.16"/>
<path d="M59.1091 118.966C48.0664 130.008 23.4951 136.389 23.4951 136.389C23.4951 136.389 29.8757 111.818 40.9183 100.775C51.961 89.7324 63.484 96.4001 63.484 96.4001C63.484 96.4001 70.1517 107.923 59.1091 118.966Z" fill="#D81E7E"/>
<path d="M60.3817 112.172C52.6455 119.908 35.4713 124.418 35.4713 124.418C35.4713 124.418 39.9811 107.244 47.7173 99.5073C55.4535 91.7711 63.4865 96.4025 63.4865 96.4025C63.4865 96.4025 68.1179 104.436 60.3817 112.172Z" fill="#F0B323"/>
<path d="M109.727 78.0188C72.8082 114.938 62.101 104.23 58.8773 101.007C55.6537 97.783 42.2601 89.9157 81.9419 50.2338C108.366 23.8095 135.631 24.2526 135.631 24.2526C135.631 24.2526 136.151 51.5945 109.727 78.0188Z" fill="#BDCCF8"/>
<path d="M56.0876 85.7791C55.875 86.1695 55.6613 86.5229 55.4522 86.9097C54.6605 88.3363 53.8917 89.8289 53.1157 91.3287C54.2497 95.0184 56.2114 98.3153 58.8641 100.99L58.9466 101.072C61.6602 103.735 65.0033 105.694 68.7396 106.809C70.2244 106.04 71.6812 105.268 73.1101 104.496C73.4829 104.294 73.8188 104.092 74.1849 103.891C69.6358 102.931 65.568 100.752 62.3889 97.5728C59.2098 94.3937 57.031 90.3258 56.0709 85.7767L56.0876 85.7791Z" fill="#F9FAFF"/>
<path d="M64.8643 61.8333L72.8848 60.9786C72.8848 60.9786 77.8738 65.4304 70.774 74.449C63.6743 83.4676 58.3015 88.3031 58.3015 88.3031L39.5619 91.9597C36.2549 92.6049 33.9229 88.7965 36.0011 86.1443L47.5151 71.4503C51.7609 66.0318 58.0193 62.5627 64.8643 61.8333Z" fill="#0C419A"/>
<path d="M56.6449 99.2657C54.0587 102.411 57.5502 105.903 60.6958 103.317C83.9722 84.1798 85.2425 74.719 85.2425 74.719C85.2425 74.719 75.7817 75.9893 56.6449 99.2657Z" fill="#0C419A"/>
<g>
<path d="M133.184 29.2899C133.974 27.434 134.662 25.6481 135.287 23.9062C136.73 25.3492 133.497 39.0792 130.452 46.9325C126.825 56.2836 121.134 67.4557 108.215 79.391C95.8423 91.7637 88.4348 95.9448 73.4616 104.153C73.0967 104.353 72.5358 104.992 72.301 104.757C70.8767 105.526 70.1062 106.074 68.6261 106.839C66.9869 106.326 65.4162 105.658 63.9338 104.842C77.1398 95.9899 87.234 87.2541 96.3247 78.798C116.161 60.3517 127.185 43.2608 133.162 29.2677L133.184 29.2899Z" fill="#ACBBED"/>
</g>
    <g filter="url(#filter0_d_7695_84284)">
        <path d="M116.787 43.1715C115.269 41.6535 113.335 40.6197 111.229 40.2008C109.123 39.782 106.941 39.997 104.957 40.8185C102.974 41.6401 101.279 43.0313 100.086 44.8164C98.8933 46.6014 98.2567 48.7001 98.2567 50.8469C98.2567 52.9938 98.8933 55.0924 100.086 56.8775C101.279 58.6625 102.974 60.0538 104.957 60.8753C106.941 61.6969 109.123 61.9119 111.229 61.493C113.335 61.0742 115.269 60.0404 116.787 58.5223C118.822 56.4867 119.966 53.7258 119.966 50.8469C119.966 47.9681 118.822 45.2072 116.787 43.1715Z" fill="#0C419A"/>
    </g>
    <path fill-rule="evenodd" clip-rule="evenodd" d="M115.252 44.7067C114.037 43.4923 112.49 42.6653 110.805 42.3302C109.121 41.9951 107.375 42.1671 105.788 42.8243C104.201 43.4816 102.845 44.5946 101.891 46.0226C100.937 47.4507 100.428 49.1296 100.428 50.8471C100.428 52.5646 100.937 54.2435 101.891 55.6715C102.845 57.0995 104.201 58.2125 105.788 58.8698C107.375 59.527 109.121 59.699 110.805 59.3639C112.49 59.0289 114.037 58.2018 115.252 56.9874C116.88 55.3589 117.795 53.1501 117.795 50.8471C117.795 48.544 116.88 46.3353 115.252 44.7067Z" fill="#F9FAFF"/>
    <path fill-rule="evenodd" clip-rule="evenodd" d="M101.295 53.1246C102.216 54.1066 103.339 54.8864 104.594 55.4061C106.332 56.1261 108.245 56.3145 110.091 55.9474C111.936 55.5804 113.631 54.6743 114.962 53.3438C115.898 52.4076 116.619 51.2962 117.093 50.0868C117.108 50.2887 117.116 50.4918 117.116 50.6957C117.116 52.8431 116.263 54.9025 114.744 56.4209C113.612 57.5532 112.169 58.3244 110.599 58.6368C109.028 58.9492 107.4 58.7888 105.921 58.176C104.441 57.5632 103.177 56.5254 102.287 55.194C101.857 54.5513 101.525 53.8541 101.295 53.1246Z" fill="#A0B2EC"/>

    <path d="M98.1218 95.0986L98.9764 87.0781C98.9764 87.0781 94.5247 82.0891 85.5061 89.1889C76.4875 96.2886 71.652 101.661 71.652 101.661L67.9954 120.401C67.3501 123.708 71.1586 126.04 73.8107 123.962L88.5048 112.448C93.9233 108.202 97.3924 101.944 98.1218 95.0986Z" fill="#0C419A"/>
<defs>
<filter id="filter0_d_7695_84284" x="98.2559" y="39.9922" width="23.5302" height="25.3494" filterUnits="userSpaceOnUse" color-interpolation-filters="sRGB">
<feFlood flood-opacity="0" result="BackgroundImageFix"/>
<feColorMatrix in="SourceAlpha" type="matrix" values="0 0 0 0 0 0 0 0 0 0 0 0 0 0 0 0 0 0 127 0" result="hardAlpha"/>
<feOffset dx="1.81925" dy="3.6385"/>
<feComposite in2="hardAlpha" operator="out"/>
<feColorMatrix type="matrix" values="0 0 0 0 0.627451 0 0 0 0 0.698039 0 0 0 0 0.92549 0 0 0 0.4 0"/>
<feBlend mode="normal" in2="BackgroundImageFix" result="effect1_dropShadow_7695_84284"/>
<feBlend mode="normal" in="SourceGraphic" in2="effect1_dropShadow_7695_84284" result="shape"/>
</filter>
</defs>
</svg>
