<svg width="200" height="200" viewBox="0 0 200 200" fill="none" xmlns="http://www.w3.org/2000/svg">
<path d="M15.7508 132.725C23.4154 150.022 36.2279 165.922 51.0887 177.17C80.2818 199.265 123.954 192.594 147.601 164.111C158.727 150.71 163.724 131.545 156.983 115.178C151.995 103.064 140.75 96.2341 128.345 94.1325C117.881 92.3604 107.247 94.1494 96.7327 93.245C80.6583 91.863 67.8132 82.946 52.6738 78.7537C44.3742 76.455 33.9624 75.9816 26.1874 80.56C18.8062 84.9056 13.6175 92.8111 11.6782 101.168C9.23027 111.715 11.3887 122.883 15.7508 132.725Z" fill="#A0B2EC" fill-opacity="0.16"/>
<path fill-rule="evenodd" clip-rule="evenodd" d="M92.726 27.9018C118.968 19.449 148.79 1.23885 170.709 17.8763C193.396 35.0969 192.571 70.3806 184.703 97.7155C178.314 119.911 155.922 131.033 135.173 141.333C118.487 149.617 100.592 152.917 82.5101 148.447C62.4042 143.477 40.8218 135.293 33.1707 116.119C25.4158 96.6849 34.6615 75.2898 46.3873 57.9208C57.2052 41.8966 74.2845 33.8419 92.726 27.9018Z" fill="#A0B2EC" fill-opacity="0.16"/>
<path d="M53 45.0944C53 36.758 59.758 30 68.0944 30H131.906C140.242 30 147 36.758 147 45.0944V148.717C147 157.054 140.242 163.812 131.906 163.812H68.0944C59.758 163.812 53 157.054 53 148.717V45.0944Z" fill="#07C3F0"/>
<path d="M59.0742 43.7794C59.0742 39.1291 62.844 35.3594 67.4942 35.3594H133.217C137.867 35.3594 141.637 39.1291 141.637 43.7794V148.818C141.637 153.468 137.867 157.238 133.217 157.238H67.4942C62.844 157.238 59.0742 153.468 59.0742 148.818V43.7794Z" fill="#26293A"/>
<g filter="url(#filter0_i_3194_67732)">
<rect x="71.2305" y="48.2266" width="57.9011" height="65.7643" rx="4.28897" fill="#E7ECFA"/>
</g>
<rect x="71.2305" y="48.2266" width="57.9011" height="65.7643" rx="4.28897" stroke="white" stroke-opacity="0.1" stroke-width="1.07224" stroke-miterlimit="10" stroke-linecap="round" stroke-linejoin="round"/>
<path d="M87.9111 89.1686H85.0403V77.6364C85.0403 76.26 85.0728 75.1687 85.138 74.3624C84.9507 74.5579 84.7186 74.7737 84.4417 75.0099C84.1729 75.246 83.2607 75.9953 81.7052 77.2577L80.2637 75.4374L85.5167 71.3083H87.9111V89.1686Z" fill="#495574"/>
<path d="M102.204 89.1686H99.3333V77.6364C99.3333 76.26 99.3659 75.1687 99.4311 74.3624C99.2438 74.5579 99.0116 74.7737 98.7347 75.0099C98.466 75.246 97.5538 75.9953 95.9983 77.2577L94.5568 75.4374L99.8098 71.3083H102.204V89.1686Z" fill="#495574"/>
<path d="M120.174 80.2384C120.174 83.3414 119.674 85.6462 118.672 87.1529C117.678 88.6596 116.155 89.4129 114.103 89.4129C112.116 89.4129 110.609 88.6351 109.583 87.0796C108.557 85.524 108.044 83.2437 108.044 80.2384C108.044 77.0866 108.54 74.7655 109.534 73.2751C110.536 71.7766 112.059 71.0273 114.103 71.0273C116.098 71.0273 117.609 71.8092 118.635 73.3729C119.661 74.9366 120.174 77.2251 120.174 80.2384ZM110.951 80.2384C110.951 82.6736 111.199 84.4124 111.696 85.4548C112.201 86.4973 113.003 87.0185 114.103 87.0185C115.202 87.0185 116.005 86.4891 116.509 85.4304C117.023 84.3716 117.279 82.641 117.279 80.2384C117.279 77.844 117.023 76.1134 116.509 75.0465C116.005 73.9715 115.202 73.434 114.103 73.434C113.003 73.434 112.201 73.9593 111.696 75.0099C111.199 76.0605 110.951 77.8033 110.951 80.2384Z" fill="#495574"/>
<path d="M95.436 98.002H94.6914V96.4077C94.6914 96.2108 94.658 96.0635 94.5913 95.9658C94.5262 95.8665 94.4229 95.8169 94.2812 95.8169C94.0908 95.8169 93.9525 95.8869 93.8662 96.0269C93.7799 96.1668 93.7368 96.3971 93.7368 96.7178V98.002H92.9922V95.2725H93.561L93.6611 95.6216H93.7026C93.7759 95.4963 93.8817 95.3986 94.02 95.3286C94.1584 95.257 94.3171 95.2212 94.4961 95.2212C94.9046 95.2212 95.1813 95.3547 95.3262 95.6216H95.3921C95.4653 95.4946 95.5728 95.3962 95.7144 95.3262C95.8576 95.2562 96.0187 95.2212 96.1978 95.2212C96.507 95.2212 96.7406 95.3009 96.8984 95.4604C97.0579 95.6183 97.1377 95.8722 97.1377 96.2222V98.002H96.3906V96.4077C96.3906 96.2108 96.3573 96.0635 96.2905 95.9658C96.2254 95.8665 96.1221 95.8169 95.9805 95.8169C95.7982 95.8169 95.6615 95.882 95.5703 96.0122C95.4808 96.1424 95.436 96.3491 95.436 96.6323V98.002Z" fill="#495574"/>
<path d="M100.28 95.2725V95.6509L99.8525 95.7607C99.9307 95.8828 99.9697 96.0195 99.9697 96.1709C99.9697 96.4639 99.8672 96.6925 99.6621 96.8569C99.4587 97.0197 99.1755 97.1011 98.8125 97.1011L98.6782 97.0938L98.5684 97.0815C98.4919 97.1401 98.4536 97.2052 98.4536 97.2769C98.4536 97.3843 98.5903 97.438 98.8638 97.438H99.3276C99.6271 97.438 99.855 97.5023 100.011 97.6309C100.169 97.7594 100.248 97.9482 100.248 98.1973C100.248 98.5163 100.115 98.7637 99.8477 98.9395C99.5824 99.1152 99.2007 99.2031 98.7026 99.2031C98.3218 99.2031 98.0304 99.1364 97.8286 99.0029C97.6284 98.8711 97.5283 98.6855 97.5283 98.4463C97.5283 98.2819 97.5796 98.1444 97.6821 98.0337C97.7847 97.923 97.9352 97.8441 98.1338 97.7969C98.0573 97.7643 97.9906 97.7114 97.9336 97.6382C97.8766 97.5633 97.8481 97.4844 97.8481 97.4014C97.8481 97.2972 97.8783 97.2109 97.9385 97.1426C97.9987 97.0726 98.0858 97.0042 98.1997 96.9375C98.0565 96.8757 97.9425 96.7764 97.8579 96.6396C97.7749 96.5029 97.7334 96.3418 97.7334 96.1562C97.7334 95.8584 97.8302 95.6281 98.0239 95.4653C98.2176 95.3026 98.4943 95.2212 98.854 95.2212C98.9305 95.2212 99.0208 95.2285 99.125 95.2432C99.2308 95.2562 99.2983 95.266 99.3276 95.2725H100.28ZM98.1729 98.3877C98.1729 98.4902 98.2217 98.5708 98.3193 98.6294C98.4186 98.688 98.557 98.7173 98.7344 98.7173C99.0013 98.7173 99.2104 98.6807 99.3618 98.6074C99.5132 98.5342 99.5889 98.4341 99.5889 98.3071C99.5889 98.2046 99.5441 98.1338 99.4546 98.0947C99.3651 98.0557 99.2267 98.0361 99.0396 98.0361H98.6538C98.5171 98.0361 98.4023 98.0679 98.3096 98.1313C98.2184 98.1965 98.1729 98.2819 98.1729 98.3877ZM98.4438 96.166C98.4438 96.3141 98.4772 96.4313 98.5439 96.5176C98.6123 96.6038 98.7157 96.647 98.854 96.647C98.994 96.647 99.0965 96.6038 99.1616 96.5176C99.2267 96.4313 99.2593 96.3141 99.2593 96.166C99.2593 95.8372 99.1242 95.6729 98.854 95.6729C98.5806 95.6729 98.4438 95.8372 98.4438 96.166Z" fill="#495574"/>
<path d="M102.382 94.4326L101.051 98.002H100.375L101.706 94.4326H102.382Z" fill="#495574"/>
<path d="M103.661 98.0508C103.34 98.0508 103.088 97.9263 102.904 97.6772C102.722 97.4282 102.631 97.0832 102.631 96.6421C102.631 96.1945 102.724 95.8462 102.909 95.5972C103.096 95.3465 103.354 95.2212 103.681 95.2212C104.024 95.2212 104.286 95.3547 104.467 95.6216H104.491C104.454 95.4181 104.435 95.2367 104.435 95.0771V94.2031H105.182V98.002H104.611L104.467 97.6479H104.435C104.266 97.9165 104.008 98.0508 103.661 98.0508ZM103.922 97.4575C104.113 97.4575 104.252 97.4022 104.34 97.2915C104.429 97.1808 104.478 96.9928 104.486 96.7275V96.647C104.486 96.354 104.441 96.144 104.35 96.0171C104.26 95.8901 104.114 95.8267 103.91 95.8267C103.744 95.8267 103.615 95.8975 103.522 96.0391C103.431 96.179 103.385 96.3833 103.385 96.6519C103.385 96.9204 103.432 97.1222 103.524 97.2573C103.617 97.3908 103.75 97.4575 103.922 97.4575Z" fill="#495574"/>
<path d="M106.02 98.002V94.4326H106.776V97.377H108.224V98.002H106.02Z" fill="#495574"/>
<rect x="113.629" y="125.137" width="15.5003" height="15.5003" rx="7.75017" fill="#495574"/>
<path d="M124.864 132.216C125.381 132.514 125.381 133.26 124.864 133.558L120.214 136.243C119.698 136.541 119.052 136.168 119.052 135.571L119.052 130.202C119.052 129.605 119.698 129.232 120.214 129.531L124.864 132.216Z" fill="white"/>
<path d="M102.46 129.844C103.459 130.546 104.109 131.694 104.109 132.994C104.109 135.128 102.353 136.858 100.186 136.863C98.0216 136.868 96.2493 135.131 96.2461 133C96.2445 131.701 96.8945 130.549 97.8916 129.846C98.0771 129.716 98.3355 129.771 98.4465 129.966L98.697 130.404C98.7905 130.568 98.7461 130.775 98.5923 130.888C97.9344 131.368 97.5143 132.13 97.5143 132.992C97.5128 134.432 98.6954 135.615 100.178 135.615C101.63 135.615 102.85 134.457 102.841 132.977C102.836 132.169 102.449 131.389 101.761 130.886C101.608 130.774 101.565 130.566 101.658 130.404L101.909 129.966C102.02 129.772 102.277 129.715 102.46 129.844ZM100.812 133.119V129.374C100.812 129.167 100.642 129 100.431 129H99.924C99.7132 129 99.5435 129.167 99.5435 129.374V133.119C99.5435 133.326 99.7132 133.493 99.924 133.493H100.431C100.642 133.493 100.812 133.326 100.812 133.119Z" fill="#07C3F0"/>
<rect x="86.9258" y="140.641" width="15.5003" height="15.5003" rx="7.75017" transform="rotate(-180 86.9258 140.641)" fill="#495574"/>
<path d="M75.6902 133.562C75.1736 133.264 75.1736 132.518 75.6902 132.219L80.3403 129.535C80.857 129.236 81.5029 129.609 81.5029 130.206L81.5029 135.575C81.5029 136.172 80.857 136.545 80.3403 136.247L75.6902 133.562Z" fill="white"/>
<path d="M83.0234 163.812H116.62V165.929C116.62 168.708 114.368 170.961 111.589 170.961H88.0549C85.2761 170.961 83.0234 168.708 83.0234 165.929V163.812Z" fill="#26293A"/>
<path d="M93 167H107V181.226C107 183.311 105.311 185 103.226 185H96.7736C94.6895 185 93 183.311 93 181.226V167Z" fill="white"/>
<rect x="98" y="178" width="4" height="7" fill="#C74E5A"/>
<defs>
<filter id="filter0_i_3194_67732" x="70.6953" y="47.6914" width="58.9727" height="66.8359" filterUnits="userSpaceOnUse" color-interpolation-filters="sRGB">
<feFlood flood-opacity="0" result="BackgroundImageFix"/>
<feBlend mode="normal" in="SourceGraphic" in2="BackgroundImageFix" result="shape"/>
<feColorMatrix in="SourceAlpha" type="matrix" values="0 0 0 0 0 0 0 0 0 0 0 0 0 0 0 0 0 0 127 0" result="hardAlpha"/>
<feOffset dy="2.85932"/>
<feComposite in2="hardAlpha" operator="arithmetic" k2="-1" k3="1"/>
<feColorMatrix type="matrix" values="0 0 0 0 0 0 0 0 0 0 0 0 0 0 0 0 0 0 0.25 0"/>
<feBlend mode="normal" in2="shape" result="effect1_innerShadow_3194_67732"/>
</filter>
</defs>
</svg>
