<svg width="121" height="120" viewBox="0 0 121 120" fill="none" xmlns="http://www.w3.org/2000/svg">
<path d="M97.9399 77.6085C86.5512 84.9239 72.6367 89.3786 59.3302 90.2478C33.1912 91.9537 9.72706 70.7743 6.81384 44.4483C5.44372 32.0622 10.0037 18.6452 20.4749 11.5212C28.2236 6.24817 37.6306 6.59507 45.8692 10.2237C52.8177 13.2844 58.4668 18.5403 65.104 22.1393C75.2511 27.6423 86.4356 27.3724 97.1306 30.8284C102.994 32.7228 109.4 36.5391 112.243 42.3354C114.941 47.8375 114.929 54.6032 112.797 60.3591C110.107 67.6239 104.421 73.4457 97.9399 77.6085Z" fill="#A0B2EC" fill-opacity="0.16"/>
<path d="M97.9769 49.9851C94.329 45.489 88.485 42.9479 82.4855 42.4288C78.677 42.0995 74.6823 42.5554 71.2007 44.2761C65.493 47.0976 61.9872 52.7806 57.5433 57.2801C52.2299 62.6603 45.4482 66.4249 39.5044 71.1481C33.5615 75.8709 28.175 82.1703 27.6057 89.4331C27.2663 93.7491 28.7064 98.0103 31.1385 101.522C35.877 108.365 44.3021 112.38 52.9745 112.85C77.5089 114.18 99.9048 91.5174 102.345 68.8392C103.058 62.2148 102.153 55.1318 97.9769 49.9851Z" fill="#A0B2EC" fill-opacity="0.16"/>
<path d="M45.4148 26.8532L41.39 29.9633V30.5122C40.0728 30.9512 39.6215 38.3788 39.5605 42.0378L40.1094 52.0998V59.6006L39.5605 75.6999L44.1342 83.9325L60.2335 88.6891L74.5033 86.4938L82.37 80.8224V70.3945L81.4553 46.6114V32.5246L75.0522 27.4021L60.2335 25.3896L45.4148 26.8532Z" fill="#E7ECFA"/>
<path d="M41.0234 76.6399C41.0234 72.4111 41.6447 58.8941 41.9553 52.6642C42.487 51.9142 43.7676 52.4644 46.5118 52.0985C63.1133 50.6609 75.6553 53.1817 80.1603 52.0978C79.9118 53.4822 79.5639 57.3838 80.1603 61.9147C80.7567 66.4455 80.9058 74.3745 80.9058 77.7726C79.0421 84.5689 71.0284 87.5894 59.4737 87.5894C47.919 87.5894 41.0234 81.9259 41.0234 76.6399Z" fill="#D81E7E"/>
<path d="M41.0234 76.6399C41.0234 72.4111 41.6447 58.8941 41.9553 52.6642C42.487 51.9142 43.7676 52.4644 46.5118 52.0985C63.1133 50.6609 75.6553 53.1817 80.1603 52.0978C79.9118 53.4822 79.5639 57.3838 80.1603 61.9147C80.7567 66.4455 80.9058 74.3745 80.9058 77.7726C79.0421 84.5689 71.0284 87.5894 59.4737 87.5894C47.919 87.5894 41.0234 81.9259 41.0234 76.6399Z" fill="black" fill-opacity="0.2"/>
<path d="M41.0234 76.6414C41.0234 72.4126 41.6447 58.8955 41.9553 52.6656C60.5919 55.0821 74.6554 53.4779 79.6251 52.2822C80.1603 53.9287 79.5639 57.3853 80.1603 61.9161C80.7567 66.447 80.9058 74.3759 80.9058 77.7741C79.0421 84.5703 71.0284 87.5909 59.4737 87.5909C47.919 87.5909 41.0234 81.9273 41.0234 76.6414Z" fill="#D81E7E"/>
<path d="M60.9481 25.025L60.9066 25.0254L60.8651 25.0278C52.6302 25.4855 48.0288 26.2229 45.221 27.2948C43.7654 27.8505 42.7403 28.5133 41.934 29.3041C41.2487 29.9763 40.7642 30.7099 40.372 31.3038C40.3251 31.3748 40.2795 31.4438 40.235 31.5105C39.7882 32.1807 39.5657 33.0412 39.4314 33.7972C39.2874 34.6079 39.2051 35.5479 39.1633 36.5387C39.0794 38.5244 39.1519 40.8763 39.2909 43.1342C39.4303 45.3999 39.6392 47.6106 39.8368 49.3282C39.9356 50.1867 40.0325 50.9305 40.1179 51.5021C40.1912 51.993 40.2804 52.5405 40.3875 52.8618C40.3874 52.8616 40.3874 52.8617 40.3876 52.8623C40.3893 52.8685 40.405 52.924 40.4226 53.052C40.4416 53.1897 40.4586 53.379 40.4698 53.6334C40.4924 54.1452 40.4885 54.8441 40.4549 55.7857C40.3877 57.668 40.2073 60.3784 39.9324 64.2277C39.4859 70.4781 39.7434 75.7783 39.9368 77.7122L39.9586 77.9304L40.0315 78.1374C41.6876 82.8443 45.7962 85.445 49.8493 86.8226C53.9191 88.2058 58.2705 88.4838 61.0728 88.3209L61.0844 88.3202C69.7173 87.7632 74.9978 86.1128 78.1426 83.8965C81.4313 81.5789 82.2672 78.7251 82.1873 76.3705L82.1872 76.3672C82.0043 71.2448 81.6023 59.2194 81.4562 52.0633C81.3118 44.9893 81.8788 37.4217 82.1785 34.5448L82.2042 34.2986L82.1635 34.0544C81.8029 31.8906 80.4561 30.2693 78.8091 29.0927C77.1757 27.9259 75.1263 27.1026 73.0375 26.5156C68.854 25.3398 64.0777 24.9934 60.9481 25.025Z" stroke="#BDCCF8" stroke-width="3.65893"/>
<g filter="url(#filter0_dd_53611_107005)">
<rect x="47.6094" y="40.7607" width="26.7102" height="21.9536" rx="2.56125" fill="white"/>
</g>
<rect x="51.2676" y="44.418" width="9.87911" height="1.46357" rx="0.731786" fill="#BDCCF8"/>
<rect x="51.2676" y="47.3457" width="9.87911" height="1.46357" rx="0.731786" fill="#BDCCF8"/>
<rect x="51.2676" y="51.7354" width="19.3923" height="1.46357" rx="0.731786" fill="#BDCCF8"/>
<rect x="51.2676" y="54.6631" width="19.3923" height="1.46357" rx="0.731786" fill="#BDCCF8"/>
<rect x="51.2676" y="57.5898" width="13.1721" height="1.46357" rx="0.731786" fill="#BDCCF8"/>
<rect x="63.3418" y="44.418" width="7.31786" height="4.39072" rx="2.19536" fill="#BDCCF8"/>
<path fill-rule="evenodd" clip-rule="evenodd" d="M63.1399 26.3005C65.1924 26.5615 66.6357 26.745 66.6357 23.9266C66.6357 20.1881 64.0965 18.0723 60.9643 18.0723C57.8321 18.0723 55.293 20.1881 55.293 23.9266C55.293 26.745 56.7362 26.5615 58.7888 26.3005C59.4587 26.2154 60.1935 26.1219 60.9643 26.1219C61.7351 26.1219 62.4699 26.2154 63.1399 26.3005ZM60.965 22.8287C61.8743 22.8287 62.6115 22.0915 62.6115 21.1822C62.6115 20.2729 61.8743 19.5357 60.965 19.5357C60.0556 19.5357 59.3185 20.2729 59.3185 21.1822C59.3185 22.0915 60.0556 22.8287 60.965 22.8287Z" fill="#BDCCF8"/>
<rect x="49.4395" y="86.4951" width="3.65893" height="8.04965" rx="1.82946" fill="#BDCCF8"/>
<rect x="69.5645" y="86.4951" width="3.65893" height="8.04965" rx="1.82946" fill="#BDCCF8"/>
<path d="M71.8216 103.328C72.3268 103.328 72.7363 102.919 72.7363 102.413C72.7363 101.908 72.3268 101.499 71.8216 101.499V103.328ZM59.9347 89.6977C59.7076 91.9365 60.0105 95.3043 61.7107 98.1489C63.4508 101.06 66.6029 103.328 71.8216 103.328V101.499C67.2343 101.499 64.6846 99.5586 63.2811 97.2103C61.8376 94.7952 61.5551 91.8513 61.7549 89.8824L59.9347 89.6977Z" fill="#D81E7E"/>
<path d="M79.281 59.5078L79.0952 53.8418C79.238 55.8406 79.2962 57.7278 79.281 59.5078L79.8482 76.8093C79.8482 79.4449 76.6855 83.8878 68.5527 85.0927C72.3018 83.7294 79.136 76.5043 79.281 59.5078Z" fill="black" fill-opacity="0.1"/>
<path d="M52.7383 28.239C44.6055 29.4438 41.4428 31.6276 41.8193 36.8988L41.8193 44.0527C41.8193 47.0648 42.5723 51.583 42.5723 51.583C42.1958 44.8057 41.4428 34.2632 52.7383 28.239Z" fill="white" fill-opacity="0.6"/>
<defs>
<filter id="filter0_dd_53611_107005" x="40.2915" y="39.2972" width="41.3467" height="36.5888" filterUnits="userSpaceOnUse" color-interpolation-filters="sRGB">
<feFlood flood-opacity="0" result="BackgroundImageFix"/>
<feColorMatrix in="SourceAlpha" type="matrix" values="0 0 0 0 0 0 0 0 0 0 0 0 0 0 0 0 0 0 127 0" result="hardAlpha"/>
<feMorphology radius="1.46357" operator="erode" in="SourceAlpha" result="effect1_dropShadow_53611_107005"/>
<feOffset dy="1.82946"/>
<feGaussianBlur stdDeviation="1.46357"/>
<feColorMatrix type="matrix" values="0 0 0 0 0.0470588 0 0 0 0 0.254902 0 0 0 0 0.603922 0 0 0 0.05 0"/>
<feBlend mode="normal" in2="BackgroundImageFix" result="effect1_dropShadow_53611_107005"/>
<feColorMatrix in="SourceAlpha" type="matrix" values="0 0 0 0 0 0 0 0 0 0 0 0 0 0 0 0 0 0 127 0" result="hardAlpha"/>
<feMorphology radius="1.46357" operator="erode" in="SourceAlpha" result="effect2_dropShadow_53611_107005"/>
<feOffset dy="5.85429"/>
<feGaussianBlur stdDeviation="4.39072"/>
<feColorMatrix type="matrix" values="0 0 0 0 0.0470588 0 0 0 0 0.254902 0 0 0 0 0.603922 0 0 0 0.1 0"/>
<feBlend mode="normal" in2="effect1_dropShadow_53611_107005" result="effect2_dropShadow_53611_107005"/>
<feBlend mode="normal" in="SourceGraphic" in2="effect2_dropShadow_53611_107005" result="shape"/>
</filter>
</defs>
</svg>
