<svg width="64" height="64" viewBox="0 0 64 64" fill="none" xmlns="http://www.w3.org/2000/svg">
<path fill-rule="evenodd" clip-rule="evenodd" d="M5.95537 40.549C4.58854 33.2707 0.731584 24.7067 5.93456 19.4348C11.3199 13.9781 20.7382 15.4 27.788 18.4271C33.5121 20.885 35.7252 27.2288 37.7742 33.1064C39.4221 37.8334 39.6945 42.7126 37.8802 47.377C35.8629 52.5633 32.9348 58.0335 27.5399 59.4184C22.072 60.822 16.6596 57.6303 12.4098 53.9151C8.4891 50.4876 6.91589 45.6637 5.95537 40.549Z" fill="#A0B2EC" fill-opacity="0.16"/>
<path d="M53.6087 10.4628C57.2873 15.1312 59.7455 21.0599 60.5559 26.8995C62.1473 38.3709 53.2601 49.8071 41.393 52.4153C35.8097 53.6421 29.5728 52.2988 26.0098 48.0264C23.3726 44.8649 23.2363 40.6883 24.6271 36.8638C25.8003 33.6382 28.0112 30.877 29.4387 27.762C31.6213 22.9997 31.1493 18.0682 32.3851 13.1663C33.0624 10.479 34.5957 7.45513 37.1398 5.90779C39.5547 4.4387 42.6283 4.10503 45.3094 4.75884C48.6933 5.58391 51.5153 7.80603 53.6087 10.4628Z" fill="#A0B2EC" fill-opacity="0.16"/>
<rect x="12.0625" y="11.875" width="40" height="40" rx="5.625" fill="#0C419A"/>
<g filter="url(#filter0_d_15367_130143)">
<rect x="15.8125" y="15.625" width="15" height="15" rx="2.5" fill="white"/>
</g>
<path d="M24.7288 27.1288C24.3734 27.6463 23.8842 28.0577 23.3133 28.3191C22.7423 28.5805 22.1111 28.6823 21.4868 28.6134C20.8625 28.5445 20.2687 28.3076 19.7685 27.928C19.2683 27.5484 18.8806 27.0402 18.6466 26.4577C18.4127 25.8752 18.3413 25.2402 18.44 24.6204C18.5387 24.0006 18.8039 23.4191 19.2073 22.9381C19.6107 22.457 20.1371 22.0944 20.7305 21.8889" stroke="#262939" stroke-width="1.225" stroke-linecap="round" stroke-linejoin="round"/>
<circle cx="22.518" cy="17.7329" r="1.17036" fill="#262939"/>
<path d="M22.7148 20.2725L23.2812 24.4392C23.311 24.6581 23.4979 24.8214 23.7188 24.8214H26.1967C26.4065 24.8214 26.5873 24.969 26.6294 25.1745L27.0811 27.3831C27.1232 27.5886 27.304 27.7362 27.5138 27.7362H28.4341" stroke="#262939" stroke-width="1.225" stroke-linecap="round" stroke-linejoin="round"/>
<path d="M23.3359 22.127H25.765" stroke="#262939" stroke-width="1.225" stroke-linecap="round" stroke-linejoin="round"/>
<g filter="url(#filter1_d_15367_130143)">
<rect x="15.8125" y="33.125" width="15" height="15" rx="2.5" fill="white"/>
</g>
<path d="M19.8633 39.5244L21.8759 43.0104" stroke="#262939" stroke-width="0.777027" stroke-linecap="round" stroke-linejoin="round"/>
<path d="M21.1016 39.002L23.556 43.2532" stroke="#262939" stroke-width="0.777027" stroke-linecap="round" stroke-linejoin="round"/>
<path d="M22.2422 38.167L25.0466 43.0244" stroke="#262939" stroke-width="0.777027" stroke-linecap="round" stroke-linejoin="round"/>
<path d="M17.1229 45.9354C16.8802 46.1782 16.8802 46.5718 17.1229 46.8146C17.3657 47.0573 17.7593 47.0573 18.0021 46.8146L17.1229 45.9354ZM19.9964 44.8202L20.436 44.3806L19.5569 43.5015L19.1173 43.9411L19.9964 44.8202ZM18.0021 46.8146L19.9964 44.8202L19.1173 43.9411L17.1229 45.9354L18.0021 46.8146Z" fill="#262939"/>
<path d="M29.545 35.3146C29.7878 35.0718 29.7878 34.6782 29.545 34.4354C29.3023 34.1927 28.9087 34.1927 28.6659 34.4354L29.545 35.3146ZM26.6715 36.4298L26.232 36.8694L27.1111 37.7485L27.5507 37.3089L26.6715 36.4298ZM28.6659 34.4354L26.6715 36.4298L27.5507 37.3089L29.545 35.3146L28.6659 34.4354Z" fill="#262939"/>
<path d="M23.3372 38.2713C24.1262 38.2686 24.8999 38.4887 25.5694 38.9062C26.0104 39.1812 26.3943 39.5345 26.7036 39.9464C27.0082 40.352 27.0073 40.9101 26.703 41.316C25.9205 42.3597 24.6926 42.9913 23.3372 42.9913C21.9818 42.9913 20.7538 42.3597 19.9714 41.316C19.6671 40.9101 19.6662 40.352 19.9708 39.9464C20.2801 39.5345 20.664 39.1812 21.105 38.9062C21.7745 38.4887 22.5482 38.2686 23.3372 38.2713ZM23.3372 37.4131C21.4223 37.4131 19.7569 38.4762 18.8933 40.044C18.692 40.4095 18.692 40.8531 18.8933 41.2186C19.7569 42.7864 21.4223 43.8495 23.3372 43.8495C25.2521 43.8495 26.9175 42.7864 27.7811 41.2186C27.9824 40.8531 27.9824 40.4095 27.7811 40.044C26.9175 38.4762 25.2521 37.4131 23.3372 37.4131ZM23.3372 38.7004C22.273 38.7004 21.4063 39.5671 21.4063 40.6313C21.4063 41.6954 22.273 42.5622 23.3372 42.5622C24.4013 42.5622 25.2681 41.6954 25.2681 40.6313C25.2681 39.5671 24.4013 38.7004 23.3372 38.7004Z" fill="#262939"/>
<g filter="url(#filter2_d_15367_130143)">
<rect x="33.3125" y="33.125" width="15" height="15" rx="2.5" fill="white"/>
</g>
<path d="M34.6229 45.8729C34.3802 46.1157 34.3802 46.5093 34.6229 46.7521C34.8657 46.9948 35.2593 46.9948 35.5021 46.7521L34.6229 45.8729ZM37.4964 44.7577L37.936 44.3181L37.0569 43.439L36.6173 43.8786L37.4964 44.7577ZM35.5021 46.7521L37.4964 44.7577L36.6173 43.8786L34.6229 45.8729L35.5021 46.7521Z" fill="#262939"/>
<path d="M47.045 35.2521C47.2878 35.0093 47.2878 34.6157 47.045 34.3729C46.8023 34.1302 46.4087 34.1302 46.1659 34.3729L47.045 35.2521ZM44.1715 36.3673L43.732 36.8069L44.6111 37.686L45.0507 37.2464L44.1715 36.3673ZM46.1659 34.3729L44.1715 36.3673L45.0507 37.2464L47.045 35.2521L46.1659 34.3729Z" fill="#262939"/>
<path d="M37.9609 40.4334C38.0329 39.4751 38.7595 37.5586 41.0905 37.5586C43.4215 37.5586 44.1769 39.4751 44.2632 40.4334C44.3297 40.9525 44.2792 42.5029 43.1493 43.3121C42.8549 43.523 42.6348 43.8376 42.5823 44.196C42.4636 45.0071 42.0566 45.7433 40.9913 45.7433C39.666 45.7433 39.3855 44.5518 39.3855 44.2928" stroke="#262939" stroke-width="1.24324" stroke-linecap="round" stroke-linejoin="round"/>
<path d="M39.6211 40.5481C39.616 40.0581 40.0607 39.1641 41.1355 39.1641C42.3858 39.1641 43.1779 40.8374 42.1606 42.065" stroke="#262939" stroke-width="0.777027" stroke-linecap="round" stroke-linejoin="round"/>
<g filter="url(#filter3_d_15367_130143)">
<rect x="33.3125" y="15.625" width="15" height="15" rx="2.5" fill="white"/>
</g>
<path d="M41.6523 22.3297C41.7531 22.1556 42.1637 21.8623 42.6696 21.8623C43.1754 21.8623 43.531 22.1556 43.6868 22.3297" stroke="#262939" stroke-width="0.934737" stroke-linecap="round" stroke-linejoin="round"/>
<path d="M42.7937 25.7447C42.9976 25.6127 43.056 25.3404 42.924 25.1364C42.792 24.9325 42.5197 24.8741 42.3157 25.0061L42.7937 25.7447ZM41.2076 25.4029L40.7677 25.4029L40.7677 26.2826L41.2076 26.2826L41.2076 25.4029ZM42.3157 25.0061C41.8982 25.2763 41.4579 25.4029 41.2076 25.4029L41.2076 26.2826C41.672 26.2826 42.2764 26.0794 42.7937 25.7447L42.3157 25.0061Z" fill="#262939"/>
<path d="M40.8125 28.8173C41.9603 28.8173 43.0049 27.7573 43.7853 26.3872C44.6477 24.873 45.1875 22.98 45.1875 21.7202C45.1875 19.3204 43.2287 17.375 40.8125 17.375" stroke="#262939" stroke-width="0.824768" stroke-linecap="round" stroke-linejoin="round"/>
<path d="M40.8125 28.8173C38.3963 28.8173 36.4375 24.12 36.4375 21.7202C36.4375 19.3204 38.3963 17.375 40.8125 17.375" stroke="#262939" stroke-width="0.824768" stroke-linecap="round" stroke-linejoin="round"/>
<path fill-rule="evenodd" clip-rule="evenodd" d="M40.8125 28.8173C38.3963 28.8173 36.4375 24.12 36.4375 21.7202C36.4375 19.3204 38.3963 17.375 40.8125 17.375V25.3984C40.7646 25.4013 40.7165 25.4028 40.6683 25.4028C40.2154 25.4028 39.7726 25.2746 39.396 25.0344C39.3453 25.0025 39.2886 24.9805 39.2291 24.9696C39.1695 24.9587 39.1083 24.9591 39.0489 24.9709C38.9896 24.9826 38.9332 25.0054 38.8831 25.0381C38.833 25.0707 38.7901 25.1124 38.7569 25.1609C38.6904 25.2582 38.6665 25.3766 38.6902 25.4906C38.7138 25.6047 38.7832 25.7054 38.8836 25.7712C39.4132 26.1049 40.0338 26.2827 40.6683 26.2827C40.7165 26.2827 40.7645 26.2817 40.8125 26.2797V28.8173ZM39.7201 22.6947C39.6605 22.6691 39.6074 22.6317 39.5641 22.585C39.4777 22.4932 39.3721 22.4198 39.254 22.3695C39.136 22.3193 39.0082 22.2933 38.879 22.2933C38.7498 22.2933 38.622 22.3193 38.5039 22.3695C38.3859 22.4198 38.2803 22.4932 38.1939 22.585C38.1538 22.6283 38.1052 22.6637 38.0509 22.6891C37.9965 22.7145 37.9374 22.7295 37.877 22.733C37.8165 22.7366 37.756 22.7288 37.6987 22.71C37.6415 22.6912 37.5887 22.6618 37.5433 22.6235C37.4983 22.5849 37.4617 22.5381 37.4356 22.486C37.4096 22.4339 37.3945 22.3773 37.3913 22.3196C37.3881 22.2619 37.3968 22.2042 37.417 22.1497C37.4371 22.0953 37.4683 22.0451 37.5088 22.0022C37.6806 21.817 37.8915 21.6688 38.1277 21.5673C38.3639 21.4658 38.62 21.4133 38.879 21.4133C39.138 21.4133 39.3941 21.4658 39.6303 21.5673C39.8665 21.6688 40.0774 21.817 40.2492 22.0022C40.2897 22.0451 40.3209 22.0953 40.341 22.1497C40.3612 22.2042 40.3699 22.2619 40.3667 22.3196C40.3635 22.3773 40.3484 22.4339 40.3223 22.486C40.2962 22.5381 40.2597 22.5849 40.2147 22.6235C40.1301 22.694 40.0218 22.7331 39.9095 22.7334C39.8442 22.7335 39.7796 22.7203 39.7201 22.6947Z" fill="#262939"/>
<defs>
<filter id="filter0_d_15367_130143" x="11.0443" y="13.2409" width="24.5364" height="24.5364" filterUnits="userSpaceOnUse" color-interpolation-filters="sRGB">
<feFlood flood-opacity="0" result="BackgroundImageFix"/>
<feColorMatrix in="SourceAlpha" type="matrix" values="0 0 0 0 0 0 0 0 0 0 0 0 0 0 0 0 0 0 127 0" result="hardAlpha"/>
<feOffset dy="2.3841"/>
<feGaussianBlur stdDeviation="2.3841"/>
<feColorMatrix type="matrix" values="0 0 0 0 0.0470588 0 0 0 0 0.254902 0 0 0 0 0.603922 0 0 0 0.1 0"/>
<feBlend mode="normal" in2="BackgroundImageFix" result="effect1_dropShadow_15367_130143"/>
<feBlend mode="normal" in="SourceGraphic" in2="effect1_dropShadow_15367_130143" result="shape"/>
</filter>
<filter id="filter1_d_15367_130143" x="11.0443" y="30.7409" width="24.5364" height="24.5364" filterUnits="userSpaceOnUse" color-interpolation-filters="sRGB">
<feFlood flood-opacity="0" result="BackgroundImageFix"/>
<feColorMatrix in="SourceAlpha" type="matrix" values="0 0 0 0 0 0 0 0 0 0 0 0 0 0 0 0 0 0 127 0" result="hardAlpha"/>
<feOffset dy="2.3841"/>
<feGaussianBlur stdDeviation="2.3841"/>
<feColorMatrix type="matrix" values="0 0 0 0 0.0470588 0 0 0 0 0.254902 0 0 0 0 0.603922 0 0 0 0.1 0"/>
<feBlend mode="normal" in2="BackgroundImageFix" result="effect1_dropShadow_15367_130143"/>
<feBlend mode="normal" in="SourceGraphic" in2="effect1_dropShadow_15367_130143" result="shape"/>
</filter>
<filter id="filter2_d_15367_130143" x="28.5443" y="30.7409" width="24.5364" height="24.5364" filterUnits="userSpaceOnUse" color-interpolation-filters="sRGB">
<feFlood flood-opacity="0" result="BackgroundImageFix"/>
<feColorMatrix in="SourceAlpha" type="matrix" values="0 0 0 0 0 0 0 0 0 0 0 0 0 0 0 0 0 0 127 0" result="hardAlpha"/>
<feOffset dy="2.3841"/>
<feGaussianBlur stdDeviation="2.3841"/>
<feColorMatrix type="matrix" values="0 0 0 0 0.0470588 0 0 0 0 0.254902 0 0 0 0 0.603922 0 0 0 0.1 0"/>
<feBlend mode="normal" in2="BackgroundImageFix" result="effect1_dropShadow_15367_130143"/>
<feBlend mode="normal" in="SourceGraphic" in2="effect1_dropShadow_15367_130143" result="shape"/>
</filter>
<filter id="filter3_d_15367_130143" x="28.5443" y="13.2409" width="24.5364" height="24.5364" filterUnits="userSpaceOnUse" color-interpolation-filters="sRGB">
<feFlood flood-opacity="0" result="BackgroundImageFix"/>
<feColorMatrix in="SourceAlpha" type="matrix" values="0 0 0 0 0 0 0 0 0 0 0 0 0 0 0 0 0 0 127 0" result="hardAlpha"/>
<feOffset dy="2.3841"/>
<feGaussianBlur stdDeviation="2.3841"/>
<feColorMatrix type="matrix" values="0 0 0 0 0.0470588 0 0 0 0 0.254902 0 0 0 0 0.603922 0 0 0 0.1 0"/>
<feBlend mode="normal" in2="BackgroundImageFix" result="effect1_dropShadow_15367_130143"/>
<feBlend mode="normal" in="SourceGraphic" in2="effect1_dropShadow_15367_130143" result="shape"/>
</filter>
</defs>
</svg>
