<svg width="96" height="102" viewBox="0 0 96 102" fill="none" xmlns="http://www.w3.org/2000/svg">
<path d="M89.3915 22.2178C93.1461 34.1094 93.7474 47.556 91.3077 59.5965C86.5138 83.2482 62.0188 98.9966 37.9094 95.231C26.5663 93.4589 15.7383 86.1655 11.9324 75.1358C9.11496 66.9735 11.6945 58.6936 16.9096 52.2448C21.3084 46.8059 27.3451 43.0523 32.1474 38.0201C39.4898 30.327 41.95 20.3179 47.6047 11.6435C50.7044 6.88787 55.6442 2.11327 61.4838 0.985546C67.0272 -0.0855071 73.0394 1.55915 77.6423 4.8439C83.4518 8.98949 87.2551 15.4506 89.3915 22.2178Z" fill="#A0B2EC" fill-opacity="0.16"/>
<path fill-rule="evenodd" clip-rule="evenodd" d="M32.3594 64.8949C20.316 56.9192 3.10851 50.6703 2.74828 36.2571C2.37541 21.3386 17.0864 10.1353 30.8478 4.41445C42.0215 -0.230733 53.8984 5.29613 64.9007 10.4189C73.749 14.5388 80.953 20.7835 85.0382 29.6462C89.5806 39.5009 93.2907 51.0111 87.9456 60.4144C82.5281 69.9452 70.7472 73.1593 59.8029 74.0415C49.706 74.8553 40.8227 70.4997 32.3594 64.8949Z" fill="#A0B2EC" fill-opacity="0.16"/>
<g filter="url(#filter0_d_2684_80106)">
<path d="M23.043 15.84C23.043 13.7192 24.7622 12 26.883 12H59.977V17.7383C59.977 19.8591 61.6962 21.5783 63.817 21.5783H69.5553V75.3601C69.5553 77.4809 67.836 79.2001 65.7153 79.2001H26.883C24.7622 79.2001 23.043 77.4809 23.043 75.3601V15.84Z" fill="white"/>
</g>
<rect x="27.8438" y="42.2402" width="36.96" height="2.88" rx="1.44" fill="#BDCCF8"/>
<rect x="40.8027" y="49.4414" width="24" height="2.88" rx="1.44" fill="#BDCCF8"/>
<rect x="40.8027" y="62.8809" width="24" height="2.88" rx="1.44" fill="#BDCCF8"/>
<rect x="40.8027" y="55.6797" width="16.32" height="2.88" rx="1.44" fill="#BDCCF8"/>
<rect x="40.8027" y="69.1211" width="16.32" height="2.88" rx="1.44" fill="#BDCCF8"/>
<rect x="27.8438" y="49.4395" width="9.12" height="9.12" rx="2.54129" fill="#F9FAFF"/>
<rect x="27.8438" y="62.8809" width="9.12" height="9.12" rx="2.54129" fill="#F9FAFF"/>
<rect x="37.627" y="62.4004" width="1.728" height="9.21797" rx="0.864" transform="rotate(45 37.627 62.4004)" fill="#0C419A"/>
<rect x="37.627" y="49.4414" width="1.728" height="9.21797" rx="0.864" transform="rotate(45 37.627 49.4414)" fill="#0C419A"/>
<rect width="1.728" height="4.96548" rx="0.864" transform="matrix(-0.707107 0.707107 0.707107 0.707107 30.0273 65.4199)" fill="#0C419A"/>
<rect width="1.728" height="4.96548" rx="0.864" transform="matrix(-0.707107 0.707107 0.707107 0.707107 30.0273 52.4609)" fill="#0C419A"/>
<path d="M62.1081 21.5783H69.5549L59.9766 12V19.4467C59.9766 20.624 60.9309 21.5783 62.1081 21.5783Z" fill="#BDCCF8"/>
<path d="M45.8915 33.8878H48.9635C49.5746 33.8878 50.1606 33.645 50.5927 33.2129C51.0248 32.7809 51.2675 32.1948 51.2675 31.5838C51.2675 30.9727 51.0248 30.3867 50.5927 29.9546C50.1606 29.5225 49.5746 29.2798 48.9635 29.2798H43.5875C43.3838 29.2798 43.1885 29.3607 43.0445 29.5047C42.9004 29.6487 42.8195 29.8441 42.8195 30.0478C42.8195 30.2515 42.9004 30.4468 43.0445 30.5908C43.1885 30.7349 43.3838 30.8158 43.5875 30.8158H48.9635C49.1672 30.8158 49.3625 30.8967 49.5066 31.0407C49.6506 31.1847 49.7315 31.3801 49.7315 31.5838C49.7315 31.7875 49.6506 31.9828 49.5066 32.1268C49.3625 32.2709 49.1672 32.3518 48.9635 32.3518H45.8915C45.2805 32.3518 44.6944 32.5945 44.2623 33.0266C43.8303 33.4587 43.5875 34.0447 43.5875 34.6558C43.5875 35.2668 43.8303 35.8529 44.2623 36.2849C44.6944 36.717 45.2805 36.9598 45.8915 36.9598H48.9635C49.1672 36.9598 49.3625 36.8789 49.5066 36.7348C49.6506 36.5908 49.7315 36.3955 49.7315 36.1918C49.7315 35.9881 49.6506 35.7927 49.5066 35.6487C49.3625 35.5047 49.1672 35.4238 48.9635 35.4238H45.8915C45.6878 35.4238 45.4925 35.3429 45.3485 35.1988C45.2044 35.0548 45.1235 34.8595 45.1235 34.6558C45.1235 34.4521 45.2044 34.2567 45.3485 34.1127C45.4925 33.9687 45.6878 33.8878 45.8915 33.8878Z" fill="#0C419A"/>
<path d="M47.8115 27.7438C48.4609 27.7436 49.0936 27.5376 49.6186 27.1554C50.1437 26.7731 50.5341 26.2344 50.7338 25.6164C50.8241 25.3422 50.9984 25.1034 51.2321 24.9338C51.4657 24.7643 51.7468 24.6726 52.0355 24.6718H58.8938C58.709 25.9515 58.0693 27.1218 57.0918 27.9681C56.1143 28.8144 54.8645 29.2801 53.5715 29.2798C53.3678 29.2798 53.1725 29.3607 53.0285 29.5047C52.8844 29.6487 52.8035 29.8441 52.8035 30.0478C52.8035 30.2515 52.8844 30.4468 53.0285 30.5908C53.1725 30.7349 53.3678 30.8158 53.5715 30.8158C55.4047 30.8158 57.1628 30.0875 58.459 28.7913C59.7553 27.495 60.4835 25.7369 60.4835 23.9038C60.4835 23.7001 60.4026 23.5047 60.2586 23.3607C60.1145 23.2167 59.9192 23.1358 59.7155 23.1358H52.0355C51.3861 23.136 50.7534 23.342 50.2284 23.7242C49.7034 24.1064 49.313 24.6452 49.1133 25.2631C49.023 25.5373 48.8486 25.7761 48.615 25.9457C48.3813 26.1152 48.1002 26.2069 47.8115 26.2078H46.2755C45.9868 26.2069 45.7057 26.1152 45.4721 25.9457C45.2384 25.7761 45.0641 25.5373 44.9738 25.2631C44.7741 24.6452 44.3837 24.1064 43.8586 23.7242C43.3336 23.342 42.7009 23.136 42.0515 23.1358H34.3715C34.1678 23.1358 33.9725 23.2167 33.8285 23.3607C33.6844 23.5047 33.6035 23.7001 33.6035 23.9038C33.6035 25.7369 34.3317 27.495 35.628 28.7913C36.9242 30.0875 38.6823 30.8158 40.5155 30.8158C40.7192 30.8158 40.9145 30.7349 41.0586 30.5908C41.2026 30.4468 41.2835 30.2515 41.2835 30.0478C41.2835 29.8441 41.2026 29.6487 41.0586 29.5047C40.9145 29.3607 40.7192 29.2798 40.5155 29.2798C39.2225 29.2801 37.9727 28.8144 36.9952 27.9681C36.0177 27.1218 35.378 25.9515 35.1933 24.6718H42.0515C42.3402 24.6726 42.6213 24.7643 42.855 24.9338C43.0886 25.1034 43.263 25.3422 43.3533 25.6164C43.553 26.2344 43.9434 26.7731 44.4684 27.1554C44.9934 27.5376 45.6261 27.7436 46.2755 27.7438H47.8115Z" fill="#0C419A"/>
<path d="M47.0435 40.7998C46.8398 40.7998 46.6445 40.7189 46.5005 40.5748C46.3564 40.4308 46.2755 40.2355 46.2755 40.0318V21.5998C46.2755 21.3961 46.3564 21.2007 46.5005 21.0567C46.6445 20.9127 46.8398 20.8318 47.0435 20.8318C47.2472 20.8318 47.4425 20.9127 47.5866 21.0567C47.7306 21.2007 47.8115 21.3961 47.8115 21.5998V40.0318C47.8115 40.2355 47.7306 40.4308 47.5866 40.5748C47.4425 40.7189 47.2472 40.7998 47.0435 40.7998Z" fill="#0C419A"/>
<path d="M47.0435 21.5998C46.6638 21.5998 46.2926 21.4872 45.9768 21.2762C45.6611 21.0652 45.415 20.7654 45.2697 20.4145C45.1243 20.0637 45.0863 19.6776 45.1604 19.3052C45.2345 18.9327 45.4174 18.5906 45.6859 18.3221C45.9544 18.0536 46.2965 17.8707 46.6689 17.7967C47.0414 17.7226 47.4274 17.7606 47.7783 17.9059C48.1291 18.0512 48.429 18.2973 48.6399 18.6131C48.8509 18.9288 48.9635 19.3 48.9635 19.6798C48.9635 20.189 48.7612 20.6773 48.4012 21.0374C48.0411 21.3975 47.5527 21.5998 47.0435 21.5998ZM47.0435 18.8569C46.8808 18.8569 46.7217 18.9052 46.5864 18.9956C46.451 19.086 46.3456 19.2145 46.2833 19.3649C46.221 19.5152 46.2047 19.6807 46.2365 19.8403C46.2682 19.9999 46.3466 20.1465 46.4617 20.2616C46.5767 20.3767 46.7234 20.4551 46.883 20.4868C47.0426 20.5186 47.2081 20.5023 47.3584 20.44C47.5088 20.3777 47.6373 20.2722 47.7277 20.1369C47.8181 20.0016 47.8664 19.8425 47.8664 19.6798C47.8664 19.4615 47.7797 19.2522 47.6254 19.0979C47.471 18.9436 47.2618 18.8569 47.0435 18.8569Z" fill="#0C419A"/>
<path d="M69.5586 54.9453L76.6459 57.8674L65.0701 85.944C64.2632 87.9011 62.0225 88.8335 60.0654 88.0266C58.1083 87.2197 57.1759 84.9791 57.9828 83.022L69.5586 54.9453Z" fill="#E11A81"/>
<path d="M81.4589 47.7329L80.4968 47.3363L64.7032 85.643C63.9913 87.3699 62.0142 88.1926 60.2873 87.4806C58.5605 86.7687 57.7378 84.7916 58.4497 83.0647L74.2433 44.758L73.2812 44.3613L57.4348 82.7964C56.5037 85.0546 57.5796 87.6399 59.8378 88.571C62.096 89.502 64.6814 88.4261 65.6124 86.168L81.4589 47.7329Z" fill="white"/>
<path d="M68.5975 60.3653C68.8608 59.7267 69.3769 59.3338 69.7502 59.4877L73.1304 60.8813C73.5037 61.0352 73.5929 61.6777 73.3297 62.3163L70.648 68.8205C70.3847 69.4591 69.8686 69.852 69.4953 69.6981L66.1152 68.3045C65.7418 68.1505 65.6526 67.508 65.9159 66.8694L68.5975 60.3653Z" fill="#F9FAFF"/>
<rect x="67.8184" y="63.9336" width="3.83894" height="0.469019" rx="0.234509" transform="rotate(22.406 67.8184 63.9336)" fill="#A0B2EC"/>
<rect x="69.1309" y="60.7539" width="3.83894" height="0.469019" rx="0.234509" transform="rotate(22.406 69.1309 60.7539)" fill="#495574"/>
<rect x="68.9318" y="62.1934" width="3.10771" height="0.469019" rx="0.234509" transform="rotate(22.406 68.9318 62.1934)" fill="#495574"/>
<rect x="67.2812" y="65.2344" width="3.83894" height="0.469019" rx="0.234509" transform="rotate(22.406 67.2812 65.2344)" fill="#A0B2EC"/>
<rect x="67.252" y="66.7441" width="2.7421" height="0.469019" rx="0.234509" transform="rotate(22.406 67.252 66.7441)" fill="#A0B2EC"/>
<path d="M81.9166 47.5322C81.3004 48.5975 79.991 49.0425 78.8533 48.5734L74.535 46.793C73.3972 46.3239 72.782 45.0854 73.0956 43.8953L73.5586 42.1381C73.9724 41.1344 74.9006 40.5652 75.6318 40.8667L82.2519 43.5961C82.9831 43.8976 83.2404 44.9556 82.8266 45.9592L81.9166 47.5322Z" fill="#495574"/>
<defs>
<filter id="filter0_d_2684_80106" x="8.08394" y="4.52049" width="76.4304" height="97.1173" filterUnits="userSpaceOnUse" color-interpolation-filters="sRGB">
<feFlood flood-opacity="0" result="BackgroundImageFix"/>
<feColorMatrix in="SourceAlpha" type="matrix" values="0 0 0 0 0 0 0 0 0 0 0 0 0 0 0 0 0 0 127 0" result="hardAlpha"/>
<feOffset dy="7.47951"/>
<feGaussianBlur stdDeviation="7.47951"/>
<feColorMatrix type="matrix" values="0 0 0 0 0.0470588 0 0 0 0 0.254902 0 0 0 0 0.603922 0 0 0 0.1 0"/>
<feBlend mode="normal" in2="BackgroundImageFix" result="effect1_dropShadow_2684_80106"/>
<feBlend mode="normal" in="SourceGraphic" in2="effect1_dropShadow_2684_80106" result="shape"/>
</filter>
</defs>
</svg>
