<svg width="64" height="64" viewBox="0 0 64 64" fill="none" xmlns="http://www.w3.org/2000/svg">
<g clip-path="url(#clip0_33572_57215)">
<path d="M57.878 39.6167C55.0522 46.0225 50.3205 51.9149 44.8279 56.087C34.038 64.2818 17.8717 61.8404 9.10258 51.3143C4.97705 46.3617 3.11566 39.2723 5.60019 33.2108C7.4384 28.7249 11.5957 26.1902 16.1854 25.4047C20.0565 24.7423 23.9934 25.3978 27.8838 25.0565C33.8317 24.535 38.5798 21.227 44.1799 19.6661C47.25 18.8102 51.1029 18.6285 53.9831 20.3181C56.7174 21.9216 58.6426 24.8441 59.3654 27.9355C60.278 31.8372 59.4861 35.9714 57.878 39.6167Z" fill="#A0B2EC" fill-opacity="0.16"/>
<path fill-rule="evenodd" clip-rule="evenodd" d="M41.3208 28.6808C41.0356 36.7858 43.0919 46.8564 36.2977 51.2569C29.2654 55.8116 19.5868 52.0557 12.8114 47.1461C7.30987 43.1597 6.47164 35.8528 5.69654 29.0831C5.07319 23.6387 5.94933 18.3582 8.9937 13.8027C12.3788 8.73737 16.8005 3.58486 22.87 3.38522C29.0217 3.18286 34.0163 7.8797 37.649 12.8601C41.0005 17.4549 41.5213 22.9852 41.3208 28.6808Z" fill="#A0B2EC" fill-opacity="0.16"/>
<g filter="url(#filter0_d_33572_57215)">
<path d="M16.6406 8.96039C16.6406 7.54654 17.7868 6.40039 19.2006 6.40039H41.2633V10.2259C41.2633 11.6398 42.4094 12.7859 43.8233 12.7859H47.6488V48.6405C47.6488 50.0543 46.5027 51.2005 45.0888 51.2005H19.2006C17.7868 51.2005 16.6406 50.0543 16.6406 48.6405V8.96039Z" fill="white"/>
</g>
<path d="M42.6828 12.7859H47.6472L41.2617 6.40039V11.3649C41.2617 12.1497 41.8979 12.7859 42.6828 12.7859Z" fill="#BDCCF8"/>
<rect x="19.8398" y="12.8008" width="10.24" height="2.56" rx="1.28" fill="#0C419A"/>
<rect x="19.8398" y="18.5605" width="24.64" height="1.92" rx="0.96" fill="#BDCCF8"/>
<rect x="19.8398" y="24.9609" width="24.64" height="1.92" rx="0.96" fill="#BDCCF8"/>
<rect x="19.8398" y="31.3613" width="24.64" height="1.92" rx="0.959999" fill="#BDCCF8"/>
<rect x="19.8398" y="37.7617" width="24.64" height="1.92" rx="0.959999" fill="#BDCCF8"/>
<rect x="19.8398" y="44.1602" width="15.36" height="1.92" rx="0.960001" fill="#BDCCF8"/>
<path d="M39.6139 28.7991C39.6139 33.0407 36.1755 36.4791 31.9339 36.4791C27.6924 36.4791 24.2539 33.0407 24.2539 28.7991C24.2539 24.5576 27.6924 21.1191 31.9339 21.1191C36.1755 21.1191 39.6139 24.5576 39.6139 28.7991Z" fill="#0C419A"/>
<path d="M31.1927 29.5755H33.1295C33.3435 29.5755 33.5169 29.4021 33.5169 29.1881C33.5169 28.9742 33.3435 28.8008 33.1295 28.8008H31.9674V27.6387C31.9674 27.4247 31.794 27.2513 31.5801 27.2513C31.3661 27.2513 31.1927 27.4247 31.1927 27.6387V29.5755Z" fill="white"/>
<path d="M34.9075 25.4734C35.1091 25.2718 35.4537 25.4145 35.4537 25.6996V27.706C35.4537 27.8828 35.3105 28.026 35.1337 28.026H33.1274C32.8423 28.026 32.6995 27.6813 32.9011 27.4798L34.9075 25.4734Z" fill="white"/>
<path d="M34.7566 30.2468C34.9832 30.3419 35.092 30.6045 34.9702 30.8179C34.6224 31.4276 34.1057 31.928 33.4782 32.2559C32.7186 32.6529 31.8442 32.7723 31.006 32.5935C30.1678 32.4147 29.4182 31.9489 28.8867 31.2765C28.3553 30.6041 28.0751 29.7673 28.0947 28.9104C28.1143 28.0535 28.4323 27.2304 28.994 26.583C29.5556 25.9355 30.3257 25.5045 31.1712 25.3641C32.0167 25.2238 32.8847 25.383 33.6254 25.8142C34.3661 26.2455 34.933 26.9217 35.2284 27.7263L34.393 28.033C34.1691 27.4229 33.7392 26.9102 33.1776 26.5832C32.6161 26.2562 31.958 26.1356 31.3169 26.242C30.6758 26.3484 30.092 26.6752 29.6662 27.1661C29.2403 27.6569 28.9992 28.281 28.9843 28.9307C28.9695 29.5804 29.1819 30.2149 29.5848 30.7247C29.9878 31.2345 30.5561 31.5876 31.1916 31.7232C31.8272 31.8588 32.4901 31.7683 33.066 31.4673C33.5098 31.2354 33.8804 30.8898 34.1422 30.4694C34.2721 30.2608 34.53 30.1517 34.7566 30.2468Z" fill="white"/>
<path fill-rule="evenodd" clip-rule="evenodd" d="M41.1508 28.8C41.1508 33.8898 37.0246 38.016 31.9348 38.016C26.8449 38.016 22.7188 33.8898 22.7188 28.8C22.7188 23.7101 26.8449 19.584 31.9348 19.584C37.0246 19.584 41.1508 23.7101 41.1508 28.8ZM31.9348 36.48C36.1763 36.48 39.6148 33.0415 39.6148 28.8C39.6148 24.5584 36.1763 21.12 31.9348 21.12C27.6932 21.12 24.2548 24.5584 24.2548 28.8C24.2548 33.0415 27.6932 36.48 31.9348 36.48Z" fill="white"/>
</g>
<defs>
<filter id="filter0_d_33572_57215" x="4.6734" y="0.416779" width="54.9423" height="68.7352" filterUnits="userSpaceOnUse" color-interpolation-filters="sRGB">
<feFlood flood-opacity="0" result="BackgroundImageFix"/>
<feColorMatrix in="SourceAlpha" type="matrix" values="0 0 0 0 0 0 0 0 0 0 0 0 0 0 0 0 0 0 127 0" result="hardAlpha"/>
<feOffset dy="5.98361"/>
<feGaussianBlur stdDeviation="5.98361"/>
<feColorMatrix type="matrix" values="0 0 0 0 0.0470588 0 0 0 0 0.254902 0 0 0 0 0.603922 0 0 0 0.1 0"/>
<feBlend mode="normal" in2="BackgroundImageFix" result="effect1_dropShadow_33572_57215"/>
<feBlend mode="normal" in="SourceGraphic" in2="effect1_dropShadow_33572_57215" result="shape"/>
</filter>
<clipPath id="clip0_33572_57215">
<rect width="64" height="64" fill="white"/>
</clipPath>
</defs>
</svg>
