<svg width="25" height="25" viewBox="0 0 25 25" fill="none" xmlns="http://www.w3.org/2000/svg">
    <path d="M14.5195 2.89062C15.6246 2.89062 16.6844 3.32961 17.4658 4.11101C18.2472 4.89242 18.6862 5.95222 18.6862 7.05729V17.0573C18.6862 17.8233 18.5353 18.5819 18.2422 19.2896C17.949 19.9973 17.5193 20.6404 16.9777 21.1821C16.436 21.7238 15.7929 22.1534 15.0852 22.4466C14.3775 22.7397 13.6189 22.8906 12.8529 22.8906C12.0868 22.8906 11.3283 22.7397 10.6205 22.4466C9.91281 22.1534 9.26975 21.7238 8.72808 21.1821C8.1864 20.6404 7.75672 19.9973 7.46357 19.2896C7.17041 18.5819 7.01953 17.8233 7.01953 17.0573V11.224C7.01953 10.7637 7.39263 10.3906 7.85286 10.3906C8.3131 10.3906 8.6862 10.7637 8.6862 11.224V17.0573C8.6862 18.1624 9.12518 19.2222 9.90659 20.0036C10.688 20.785 11.7478 21.224 12.8529 21.224C13.9579 21.224 15.0177 20.785 15.7991 20.0036C16.5805 19.2222 17.0195 18.1624 17.0195 17.0573V7.05729C17.0195 6.72899 16.9549 6.4039 16.8292 6.10058C16.7036 5.79727 16.5194 5.52167 16.2873 5.28952C16.0552 5.05738 15.7796 4.87323 15.4762 4.74759C15.1729 4.62196 14.8478 4.55729 14.5195 4.55729C14.1912 4.55729 13.8661 4.62196 13.5628 4.74759C13.2595 4.87323 12.9839 5.05738 12.7518 5.28952C12.5196 5.52167 12.3355 5.79727 12.2098 6.10058C12.0842 6.4039 12.0195 6.72899 12.0195 7.05729V17.0573C12.0195 17.2783 12.1073 17.4903 12.2636 17.6465C12.4199 17.8028 12.6319 17.8906 12.8529 17.8906C13.0739 17.8906 13.2858 17.8028 13.4421 17.6465C13.5984 17.4903 13.6862 17.2783 13.6862 17.0573V8.72396C13.6862 8.26372 14.0593 7.89062 14.5195 7.89062C14.9798 7.89062 15.3529 8.26372 15.3529 8.72396V17.0573C15.3529 17.7203 15.0895 18.3562 14.6206 18.8251C14.1518 19.2939 13.5159 19.5573 12.8529 19.5573C12.1898 19.5573 11.5539 19.2939 11.0851 18.8251C10.6163 18.3562 10.3529 17.7203 10.3529 17.0573V7.05729C10.3529 5.95222 10.7919 4.89242 11.5733 4.11101C12.3547 3.32961 13.4145 2.89063 14.5195 2.89062Z" fill="#0C419A"/>
</svg>
