<svg width="56" height="56" viewBox="0 0 56 56" fill="none" xmlns="http://www.w3.org/2000/svg">
<rect width="56" height="56" rx="28" fill="#07C3F0"/>
<path fill-rule="evenodd" clip-rule="evenodd" d="M23.4324 15.0472C24.274 15.0472 24.9562 14.3651 24.9562 13.5236C24.9562 12.6821 24.274 12 23.4324 12C22.5908 12 21.9086 12.6821 21.9086 13.5236C21.9086 14.3651 22.5908 15.0472 23.4324 15.0472ZM28.0039 19.6181C28.8455 19.6181 29.5277 18.936 29.5277 18.0946C29.5277 17.2531 28.8455 16.571 28.0039 16.571C27.1623 16.571 26.4801 17.2531 26.4801 18.0946C26.4801 18.936 27.1623 19.6181 28.0039 19.6181ZM32.2552 26.4238C33.3163 25.9562 34.4633 25.7152 35.6228 25.7163C35.8249 25.7163 36.0187 25.7965 36.1616 25.9394C36.3045 26.0823 36.3847 26.276 36.3847 26.4781V30.2871C36.3822 32.3769 35.5998 34.3905 34.1906 35.9339C32.7814 37.4773 30.8469 38.4393 28.7657 38.6316V42.0054L32.2343 40.2704C32.4151 40.18 32.6245 40.1652 32.8163 40.2291C33.0081 40.293 33.1667 40.4305 33.2571 40.6114C33.3475 40.7922 33.3624 41.0015 33.2985 41.1933C33.2345 41.3851 33.097 41.5437 32.9162 41.6341L28.3447 43.9195C28.2389 43.9724 28.1221 44 28.0038 44C27.8854 44 27.7687 43.9724 27.6628 43.9195L23.0914 41.6341C23.0018 41.5893 22.922 41.5273 22.8564 41.4517C22.7908 41.3761 22.7407 41.2883 22.7091 41.1933C22.6774 41.0983 22.6648 40.9981 22.6719 40.8982C22.679 40.7984 22.7057 40.7009 22.7504 40.6114C22.7952 40.5218 22.8572 40.442 22.9328 40.3764C23.0085 40.3108 23.0963 40.2607 23.1913 40.2291C23.2862 40.1974 23.3865 40.1848 23.4864 40.1919C23.5863 40.199 23.6838 40.2257 23.7733 40.2704L27.2419 42.0054V38.6316C25.1607 38.4393 23.2261 37.4773 21.8169 35.9339C20.4078 34.3905 19.6253 32.3769 19.6228 30.2871V26.4781C19.6228 26.276 19.7031 26.0823 19.846 25.9394C19.9889 25.7965 20.1827 25.7163 20.3847 25.7163C21.5443 25.7152 22.6913 25.9562 23.7524 26.4238C25.186 24.009 27.5522 22.8054 27.6627 22.7491L27.6628 22.7491C27.7687 22.6961 27.8854 22.6685 28.0038 22.6685C28.1221 22.6685 28.2389 22.6961 28.3447 22.7491L28.3486 22.7511C28.5002 22.8293 30.8314 24.032 32.2552 26.4238ZM22.895 34.856C24.0191 36.1127 25.5663 36.912 27.2419 37.1014V34.0961C27.2399 32.4101 26.6176 30.7838 25.4935 29.5271C24.3694 28.2704 22.8222 27.4712 21.1466 27.2818V30.2871C21.1486 31.973 21.7709 33.5994 22.895 34.856ZM25.0857 27.1627C26.3539 28.0238 27.3628 29.2147 28.0038 30.607C28.645 29.2149 29.6539 28.024 30.9219 27.1627C30.0114 25.6572 28.6371 24.6945 28.0038 24.306C27.3714 24.6964 25.9971 25.6591 25.0857 27.1627ZM33.1126 34.856C34.2366 33.5994 34.859 31.973 34.8609 30.2871V27.2818C33.1854 27.4712 31.6381 28.2704 30.514 29.5271C29.39 30.7838 28.7676 32.4101 28.7657 34.0961V37.1014C30.4412 36.912 31.9885 36.1127 33.1126 34.856ZM22.6704 21.1389C22.6704 21.9803 21.9882 22.6625 21.1466 22.6625C20.3051 22.6625 19.6228 21.9803 19.6228 21.1389C19.6228 20.2974 20.3051 19.6153 21.1466 19.6153C21.9882 19.6153 22.6704 20.2974 22.6704 21.1389ZM18.8601 16.5679C18.8601 17.4094 18.1779 18.0915 17.3363 18.0915C16.4947 18.0915 15.8125 17.4094 15.8125 16.5679C15.8125 15.7265 16.4947 15.0443 17.3363 15.0443C18.1779 15.0443 18.8601 15.7265 18.8601 16.5679ZM38.6692 18.0915C39.5108 18.0915 40.193 17.4094 40.193 16.5679C40.193 15.7265 39.5108 15.0443 38.6692 15.0443C37.8277 15.0443 37.1454 15.7265 37.1454 16.5679C37.1454 17.4094 37.8277 18.0915 38.6692 18.0915ZM33.3358 13.5236C33.3358 14.3651 32.6536 15.0472 31.812 15.0472C30.9704 15.0472 30.2882 14.3651 30.2882 13.5236C30.2882 12.6821 30.9704 12 31.812 12C32.6536 12 33.3358 12.6821 33.3358 13.5236ZM34.8611 22.6625C35.7027 22.6625 36.385 21.9803 36.385 21.1389C36.385 20.2974 35.7027 19.6153 34.8611 19.6153C34.0196 19.6153 33.3373 20.2974 33.3373 21.1389C33.3373 21.9803 34.0196 22.6625 34.8611 22.6625Z" fill="white"/>
</svg>
