<svg width="41" height="40" viewBox="0 0 41 40" fill="none" xmlns="http://www.w3.org/2000/svg">
<circle cx="20.5" cy="20" r="17" fill="#5E74B8"/>
<path d="M14.6234 24.0101C14.4872 24.5453 14.0523 25 13.5 25C12.9477 25 12.4913 24.5489 12.5823 24.0042C13.0566 21.1644 15.5255 19 18.5 19C21.6276 19 23.7509 20.3128 23.9795 23.2464C24.0046 23.5683 23.7934 23.8562 23.4872 23.9583C23.0015 24.1201 22.5041 23.7496 22.3522 23.2607C21.8806 21.7435 20.3345 21 18.5 21C16.6325 21 15.0639 22.2798 14.6234 24.0101ZM18.5 18C16.2909 18 14.5 16.2091 14.5 14C14.5 11.7909 16.2909 10 18.5 10C20.7091 10 22.5 11.7909 22.5 14C22.4972 16.208 20.708 17.9972 18.5 18ZM18.5 12C17.4074 12.0011 16.5179 12.8788 16.5022 13.9713C16.4866 15.0638 17.3506 15.9667 18.4427 15.9991C19.5348 16.0315 20.4508 15.1815 20.5 14.09V14.49V14C20.5 12.8954 19.6046 12 18.5 12Z" fill="white"/>
<path d="M26.4982 29.997C24.9069 29.9984 23.3804 29.367 22.2552 28.2418C21.1301 27.1166 20.4986 25.5901 20.5 23.9989V23.8789C20.5491 21.475 22.0282 19.3324 24.2587 18.4344C26.4891 17.5364 29.0402 18.0564 30.7412 19.7558C32.4582 21.4713 32.9721 24.0524 32.043 26.2947C31.114 28.537 28.9253 29.9984 26.4982 29.997Z" fill="#F0B323"/>
<path d="M26.3722 26.9964C24.7859 26.9964 23.5 25.7526 23.5 24.2183C23.5 22.684 24.7859 21.4402 26.3722 21.4402C27.9584 21.4402 29.2443 22.684 29.2443 24.2183C29.2425 25.7519 27.9577 26.9947 26.3722 26.9964ZM26.3722 22.1347C25.1825 22.1347 24.218 23.0676 24.218 24.2183C24.218 25.369 25.1825 26.3019 26.3722 26.3019C27.5618 26.3019 28.5263 25.369 28.5263 24.2183C28.5249 23.0681 27.5613 22.1361 26.3722 22.1347ZM26.7312 24.5656H26.0131V22.8293H26.7312V24.5656ZM28.9905 22.3803L28.2725 21.6857L28.7801 21.1947L29.4981 21.8892L28.9909 22.3799L28.9905 22.3803ZM27.4492 21.093H25.2951V20.3984H27.4492V21.093Z" fill="white"/>
</svg>
