<svg width="24" height="24" viewBox="0 0 24 24" fill="none" xmlns="http://www.w3.org/2000/svg">
<path d="M11.999 21.9981C7.05569 21.9329 3.06417 17.9414 2.99902 12.9981C3.06417 8.05474 7.05569 4.06322 11.999 3.99806C16.9423 4.06322 20.9339 8.05474 20.999 12.9981C20.9339 17.9414 16.9423 21.9329 11.999 21.9981ZM11.999 5.99806C8.15417 6.04868 5.04963 9.15323 4.99902 12.9981C5.04963 16.8429 8.15417 19.9475 11.999 19.9981C15.8438 19.9475 18.9484 16.8429 18.999 12.9981C18.9484 9.15323 15.8438 6.04868 11.999 5.99806ZM16.999 13.9981H10.999V7.99806H12.999V11.9981H16.999V13.9981ZM20.291 6.70606L17.282 3.70606L18.691 2.28906L21.701 5.28906L20.291 6.70506V6.70606ZM3.70602 6.70606L2.29102 5.28906L5.28202 2.28906L6.69702 3.70606L3.70802 6.70606H3.70602Z" fill="#0C419A"/>
</svg>
