<svg width="16" height="16" viewBox="0 0 16 16" fill="none" xmlns="http://www.w3.org/2000/svg">
<path d="M14.6663 8.00065C14.6663 4.31271 11.6674 1.33398 7.99967 1.33398C4.33199 1.33398 1.33301 4.31271 1.33301 8.00065C1.33301 11.6886 4.31173 14.6673 7.99967 14.6673C11.6876 14.6673 14.6663 11.6886 14.6663 8.00065ZM7.99967 2.79295C8.62784 2.79295 9.13443 3.29954 9.13443 3.9277C9.13443 4.55587 8.62784 5.06245 7.99967 5.06245C7.37151 5.06245 6.86492 4.55587 6.86492 3.9277C6.86492 3.3198 7.37151 2.79295 7.99967 2.79295ZM6.33807 13.0462C6.25702 13.0462 6.17597 13.026 6.09491 12.9855C5.79096 12.8436 5.66938 12.4991 5.81122 12.1952C5.81122 12.1952 6.92571 9.64199 7.12835 8.70987C7.2094 8.38566 7.24993 7.51433 7.27019 7.10906C7.27019 6.96722 7.18914 6.84564 7.06756 6.80511L4.57516 6.05536C4.25094 5.95405 4.06857 5.60957 4.16989 5.30562C4.2712 5.00166 4.61568 4.85982 4.91963 4.94087C4.91963 4.94087 7.2094 5.67036 8.01994 5.67036C8.83047 5.67036 11.1608 4.92061 11.1608 4.92061C11.4647 4.83956 11.8092 5.02193 11.8903 5.32588C11.9713 5.62983 11.7889 5.97431 11.485 6.05536L8.99258 6.80511C8.871 6.84564 8.76969 6.96722 8.78995 7.10906C8.81021 7.51433 8.85074 8.38566 8.93179 8.70987C9.13443 9.64199 10.2489 12.1952 10.2489 12.1952C10.3908 12.4991 10.2489 12.8436 9.96523 12.9855C9.88417 13.026 9.80312 13.0462 9.72207 13.0462C9.49917 13.0462 9.27627 12.9247 9.19522 12.7018L7.99967 10.2702L6.86492 12.722C6.76361 12.9247 6.56097 13.0462 6.33807 13.0462Z" fill="#4E5C7F"/>
</svg>
