<svg width="24" height="26" viewBox="0 0 24 26" fill="none" xmlns="http://www.w3.org/2000/svg">
<g clip-path="url(#clip0_1268_15975)">
<path d="M13.1711 16.2565C13.6018 14.5532 12.6259 12.7955 10.9284 12.2717C10.0942 12.0136 9.23667 12.1029 8.50721 12.4521C7.75447 12.8168 7.13948 13.4609 6.83295 14.301C6.81355 14.3553 6.79415 14.4115 6.77863 14.4659C6.52254 15.2981 6.60984 16.1556 6.95905 16.8851C7.34512 17.6863 8.0513 18.3324 8.97089 18.6176C9.89047 18.9008 10.8372 18.765 11.6094 18.3207C12.3117 17.9153 12.8665 17.2576 13.1245 16.4253C13.142 16.369 13.1575 16.3128 13.173 16.2565H13.1711ZM9.37054 17.3197C8.80792 17.147 8.38305 16.7454 8.15994 16.2488C7.96982 15.8258 7.9252 15.3389 8.07264 14.8636C8.0901 14.8073 8.1095 14.753 8.13084 14.6987C8.32485 14.2195 8.69734 13.8528 9.14355 13.651C9.56454 13.4609 10.0554 13.4182 10.5307 13.5657C11.5124 13.8683 12.0866 14.8674 11.8732 15.8549C11.8616 15.9131 11.846 15.9694 11.8286 16.0237C11.6811 16.501 11.3707 16.8793 10.9769 17.1218C10.5113 17.405 9.93315 17.4943 9.37248 17.3216L9.37054 17.3197Z" fill="#0C419A"/>
<path d="M14.5509 7.33187C14.0639 8.10789 13.0997 8.49202 12.1821 8.20877C11.2644 7.92553 10.6863 7.06414 10.7212 6.14844" stroke="#0C419A" stroke-width="1.83335" stroke-miterlimit="10" stroke-linecap="round"/>
<path d="M10.9287 12.2715L12.182 8.21094" stroke="#0C419A" stroke-width="1.83335" stroke-miterlimit="10" stroke-linecap="round"/>
<path d="M17.9455 19.8273C17.1695 19.3403 16.7853 18.3761 17.0686 17.4584C17.3518 16.5427 18.2132 15.9627 19.1289 15.9976" stroke="#0C419A" stroke-width="1.83335" stroke-miterlimit="10" stroke-linecap="round"/>
<path d="M13.1719 16.2559L17.0675 17.4587" stroke="#0C419A" stroke-width="1.83335" stroke-miterlimit="10" stroke-linecap="round"/>
<path d="M12.4012 24.1135C12.1975 23.2211 12.6068 22.2666 13.4566 21.8185C14.3063 21.3703 15.3229 21.5701 15.9457 22.2414" stroke="#0C419A" stroke-width="1.83335" stroke-miterlimit="10" stroke-linecap="round"/>
<path d="M11.6074 18.3184L13.4563 21.8182" stroke="#0C419A" stroke-width="1.83335" stroke-miterlimit="10" stroke-linecap="round"/>
<path d="M5.4502 23.2218C5.93715 22.4458 6.90135 22.0617 7.819 22.3449C8.73664 22.6282 9.31478 23.4896 9.27986 24.4053" stroke="#0C419A" stroke-width="1.83335" stroke-miterlimit="10" stroke-linecap="round"/>
<path d="M8.97075 18.6152L7.81836 22.346" stroke="#0C419A" stroke-width="1.83335" stroke-miterlimit="10" stroke-linecap="round"/>
<path d="M1.16406 17.6785C2.05649 17.4748 3.01099 17.8842 3.45914 18.7339C3.9073 19.5837 3.70747 20.6003 3.03621 21.223" stroke="#0C419A" stroke-width="1.83335" stroke-miterlimit="10" stroke-linecap="round"/>
<path d="M6.95885 16.8848L3.46094 18.7317" stroke="#0C419A" stroke-width="1.83335" stroke-miterlimit="10" stroke-linecap="round"/>
<path d="M2.05453 10.7266C2.83055 11.2135 3.21468 12.1777 2.93143 13.0954C2.64818 14.0111 1.7868 14.5911 0.871094 14.5562" stroke="#0C419A" stroke-width="1.83335" stroke-miterlimit="10" stroke-linecap="round"/>
<path d="M6.83309 14.2985L2.93164 13.0957" stroke="#0C419A" stroke-width="1.83335" stroke-miterlimit="10" stroke-linecap="round"/>
<path d="M7.59916 6.44141C7.80287 7.33383 7.39352 8.28834 6.54377 8.73649C5.69403 9.18464 4.67744 8.98482 4.05469 8.31356" stroke="#0C419A" stroke-width="1.83335" stroke-miterlimit="10" stroke-linecap="round"/>
<path d="M8.50729 12.4515L6.5459 8.73633" stroke="#0C419A" stroke-width="1.83335" stroke-miterlimit="10" stroke-linecap="round"/>
</g>
<path fill-rule="evenodd" clip-rule="evenodd" d="M20.3743 9.99199C20.6993 9.68491 20.7138 9.17251 20.4067 8.84751C20.0996 8.52251 19.5872 8.50798 19.2622 8.81505C18.5802 9.45946 18.2759 10.4141 18.4571 11.3317L16.4986 12.3878C16.1051 12.6001 15.9581 13.0911 16.1703 13.4847C16.3826 13.8782 16.8736 14.0252 17.2672 13.813L19.2258 12.7568C19.8932 13.4118 20.8589 13.6803 21.7704 13.464C22.2055 13.3608 22.4745 12.9245 22.3713 12.4894C22.2681 12.0544 21.8317 11.7854 21.3967 11.8886C20.9165 12.0025 20.4029 11.7859 20.1592 11.3329C19.9145 10.8781 20.0159 10.3306 20.3743 9.99199Z" fill="#0C419A"/>
<path fill-rule="evenodd" clip-rule="evenodd" d="M20.3917 2.40449C20.5401 1.9827 20.3185 1.52049 19.8967 1.37211C19.4749 1.22374 19.0127 1.44538 18.8643 1.86717C18.5529 2.7523 18.7194 3.74039 19.3005 4.47324L18.0428 6.30872C17.79 6.67756 17.8842 7.18146 18.253 7.4342C18.6218 7.68694 19.1257 7.59282 19.3785 7.22398L20.6363 5.38838C21.5295 5.66513 22.511 5.46178 23.2224 4.85225C23.562 4.56133 23.6014 4.05024 23.3105 3.7107C23.0195 3.37116 22.5084 3.33175 22.1689 3.62267C21.7941 3.94377 21.2384 3.98629 20.8144 3.69512C20.3886 3.40273 20.2281 2.8696 20.3917 2.40449Z" fill="#0C419A"/>
<defs>
<clipPath id="clip0_1268_15975">
<rect width="20" height="20" fill="white" transform="translate(0 5.27734)"/>
</clipPath>
</defs>
</svg>
