<svg width="24" height="24" viewBox="0 0 24 24" fill="none" xmlns="http://www.w3.org/2000/svg">
<rect width="24" height="24" rx="12" fill="#F0B323"/>
<path fill-rule="evenodd" clip-rule="evenodd" d="M12.0286 7.09961C11.4605 7.09961 11 7.56012 11 8.12818V13.271C11 13.8391 11.4605 14.2996 12.0286 14.2996C12.5966 14.2996 13.0571 13.8391 13.0571 13.271L13.0571 8.12818C13.0571 7.56012 12.5966 7.09961 12.0286 7.09961ZM12.0286 15.8424C11.4605 15.8424 11 16.3029 11 16.871C11 17.4391 11.4605 17.8996 12.0286 17.8996C12.5966 17.8996 13.0571 17.4391 13.0571 16.871C13.0571 16.3029 12.5966 15.8424 12.0286 15.8424Z" fill="white"/>
</svg>
