<svg width="32" height="32" viewBox="0 0 32 32" fill="none" xmlns="http://www.w3.org/2000/svg">
    <rect width="32" height="32" rx="16" fill="#A05BB6"/>
    <path d="M21.0026 24.3327H11.0026C10.0821 24.3327 9.33594 23.5865 9.33594 22.666V9.33268C9.33594 8.41221 10.0821 7.66602 11.0026 7.66602H16.8359C16.845 7.66641 16.854 7.66809 16.8626 7.67102C16.8707 7.67353 16.8791 7.67521 16.8876 7.67602C16.9611 7.68073 17.0336 7.69501 17.1034 7.71852L17.1268 7.72602C17.1457 7.73242 17.164 7.74022 17.1818 7.74935C17.2726 7.7897 17.3553 7.84617 17.4259 7.91602L22.4259 12.916C22.4958 12.9867 22.5523 13.0694 22.5926 13.1602C22.6009 13.1785 22.6068 13.1977 22.6134 13.2168L22.6209 13.2385C22.6442 13.308 22.6579 13.3803 22.6618 13.4535C22.6631 13.4612 22.665 13.4687 22.6676 13.476C22.6691 13.4837 22.6696 13.4915 22.6694 13.4993V22.666C22.6694 23.5865 21.9231 24.3327 21.0026 24.3327ZM11.0026 9.33268V22.666H21.0026V14.3327H16.8359C16.3757 14.3327 16.0026 13.9596 16.0026 13.4993V9.33268H11.0026ZM17.6693 10.511V12.666H19.8243L17.6693 10.511Z" fill="white"/>
</svg>
