<svg width="32" height="32" viewBox="0 0 32 32" fill="none" xmlns="http://www.w3.org/2000/svg">
    <rect width="32" height="32" rx="16" fill="#0C419A"/>
    <path fill-rule="evenodd" clip-rule="evenodd" d="M9.46863 8.46863C9.76869 8.16857 10.1757 8 10.6 8H21.8C22.2243 8 22.6313 8.16857 22.9314 8.46863C23.2314 8.76869 23.4 9.17566 23.4 9.6V14.2C23.4 14.6418 23.0418 15 22.6 15C22.1582 15 21.8 14.6418 21.8 14.2V9.6L10.6 9.6L10.6 22.4H16.2C16.6418 22.4 17 22.7582 17 23.2C17 23.6418 16.6418 24 16.2 24H10.6C10.1757 24 9.76869 23.8314 9.46863 23.5314C9.16857 23.2313 9 22.8243 9 22.4V9.6C9 9.17565 9.16857 8.76869 9.46863 8.46863Z" fill="white"/>
    <path fill-rule="evenodd" clip-rule="evenodd" d="M12.2031 11.9992C12.2031 11.5574 12.5613 11.1992 13.0031 11.1992H19.4031C19.845 11.1992 20.2031 11.5574 20.2031 11.9992C20.2031 12.441 19.845 12.7992 19.4031 12.7992H13.0031C12.5613 12.7992 12.2031 12.441 12.2031 11.9992Z" fill="white"/>
    <path fill-rule="evenodd" clip-rule="evenodd" d="M12.2031 15.8C12.2031 15.3582 12.5613 15 13.0031 15H19.4031C19.845 15 20.2031 15.3582 20.2031 15.8C20.2031 16.2418 19.845 16.6 19.4031 16.6H13.0031C12.5613 16.6 12.2031 16.2418 12.2031 15.8Z" fill="white"/>
    <path d="M20.6751 23.2413L18.6126 21.1788C18.2872 20.8534 18.2872 20.3258 18.6126 20.0004C18.9383 19.6747 19.4665 19.6751 19.7918 20.0013L20.6751 20.8871L24.2098 17.3488C24.5353 17.023 25.0633 17.0229 25.389 17.3485C25.7145 17.6741 25.7145 18.2019 25.389 18.5274L20.6751 23.2413Z" fill="white"/>
</svg>
