<svg width="65" height="64" viewBox="0 0 65 64" fill="none" xmlns="http://www.w3.org/2000/svg">
<path d="M40.9986 60.9406C33.1951 60.3405 25.2251 57.5403 18.7862 53.2988C6.13839 44.9662 2.70795 27.0145 10.549 13.8593C14.2384 7.67007 21.0218 3.07434 28.3354 3.44253C33.7479 3.71445 37.9645 7.15625 40.4974 11.7036C42.6335 15.539 43.4047 19.9333 45.2095 23.9084C47.9685 29.9858 53.2198 33.7633 56.9456 39.088C58.9883 42.007 60.6109 46.0018 59.8994 49.6661C59.2242 53.1446 56.858 56.2598 53.8671 58.1702C50.0922 60.5815 45.4393 61.2822 40.9986 60.9406Z" fill="#A0B2EC" fill-opacity="0.16"/>
<path fill-rule="evenodd" clip-rule="evenodd" d="M28.3954 16.8614C37.3228 15.2832 47.853 10.6867 54.2482 17.0883C60.8676 23.7143 59.0184 35.1713 55.231 43.7236C52.1557 50.6677 44.3628 53.2881 37.1425 55.7141C31.3358 57.6652 25.3585 57.9387 19.6683 55.6728C13.3412 53.1532 6.67701 49.5207 5.04337 42.9317C3.3876 36.2535 7.35776 29.6979 11.9555 24.5649C16.1973 19.8294 22.1218 17.9704 28.3954 16.8614Z" fill="#A0B2EC" fill-opacity="0.16"/>
<circle cx="39.5232" cy="14.3288" r="3.60143" transform="rotate(15 39.5232 14.3288)" fill="#F0B323"/>
<path d="M38.2162 17.6656C39.9598 17.8659 41.593 16.4016 42.1108 14.4689C42.6286 12.5363 41.6703 11.4823 40.0602 10.784C40.235 10.8041 40.4106 10.8373 40.5857 10.8842C42.5069 11.399 43.6471 13.3738 43.1323 15.295C42.6175 17.2163 40.6427 18.3564 38.7214 17.8416C38.5463 17.7947 38.3777 17.7356 38.2162 17.6656Z" fill="#F0B323"/>
<path d="M38.2162 17.6656C39.9598 17.8659 41.593 16.4016 42.1108 14.4689C42.6286 12.5363 41.6703 11.4823 40.0602 10.784C40.235 10.8041 40.4106 10.8373 40.5857 10.8842C42.5069 11.399 43.6471 13.3738 43.1323 15.295C42.6175 17.2163 40.6427 18.3564 38.7214 17.8416C38.5463 17.7947 38.3777 17.7356 38.2162 17.6656Z" fill="black" fill-opacity="0.2"/>
<circle cx="37.5783" cy="46.9729" r="6.10568" fill="#F0B323"/>
<path d="M34.6644 52.2803C37.5727 52.8673 44.9385 49.5884 32.3683 43.9509C32.7502 43.176 32.9518 42.3358 36.4403 40.9586C37.0682 40.7796 37.4596 40.8195 38.4045 40.8565C38.9751 40.9612 39.3385 41.0924 39.6267 41.1966C42.7893 42.3388 44.427 45.8285 43.2848 48.9911C42.1425 52.1536 38.6528 53.7914 35.4902 52.6491C35.202 52.545 34.9264 52.4214 34.6644 52.2803Z" fill="#F0B323"/>
<path d="M34.6644 52.2803C37.5727 52.8673 44.9385 49.5884 32.3683 43.9509C32.7502 43.176 32.9518 42.3358 36.4403 40.9586C37.0682 40.7796 37.4596 40.8195 38.4045 40.8565C38.9751 40.9612 39.3385 41.0924 39.6267 41.1966C42.7893 42.3388 44.427 45.8285 43.2848 48.9911C42.1425 52.1536 38.6528 53.7914 35.4902 52.6491C35.202 52.545 34.9264 52.4214 34.6644 52.2803Z" fill="black" fill-opacity="0.2"/>
<path d="M25.9782 20.1843C30.2625 14.221 36.9361 14.429 39.7374 15.2783C47.6313 17.8873 48.3534 24.6336 48.4627 26.209C48.5531 27.5129 48.2435 29.6071 47.9966 30.5286C45.4715 40.3212 48.0861 43.0959 48.5746 45.696C48.9654 47.776 47.1137 47.7078 46.139 47.4137C37.8679 45.2305 20.5383 40.6331 17.3881 39.71C14.2379 38.7869 15.7586 37.0676 16.9128 36.3233C21.9189 33.1214 23.8021 25.5229 24.222 24.1582C24.8129 22.2382 25.1477 21.3402 25.9782 20.1843Z" fill="#F0B323"/>
<path fill-rule="evenodd" clip-rule="evenodd" d="M17.2396 39.6602C17.3032 39.6808 17.369 39.7011 17.4369 39.721C20.5871 40.6441 37.9167 45.2415 46.1878 47.4247C47.1625 47.7188 49.0142 47.787 48.6234 45.707C48.5195 45.1541 48.3195 44.5934 48.0933 43.959C47.2554 41.6097 46.0572 38.2501 48.0454 30.5396C48.2923 29.6181 48.6019 27.5239 48.5115 26.22C48.4022 24.6446 47.68 17.8983 39.7862 15.2893C39.6421 15.2457 39.4879 15.2037 39.3242 15.1642C46.3327 17.8474 46.729 23.8952 46.843 25.635C46.8462 25.6851 46.8493 25.7318 46.8523 25.7746C46.9427 27.0785 46.6331 29.1727 46.3862 30.0942C44.4042 37.7805 45.4106 40.5479 46.1715 42.64C46.3801 43.2134 46.5701 43.736 46.6752 44.2953C47.066 46.3753 45.2143 46.3072 44.2396 46.0131C39.7153 44.8188 32.5671 43.1913 26.5036 41.8109C22.6691 40.9379 19.2685 40.1636 17.2396 39.6602Z" fill="#F0B323"/>
<path fill-rule="evenodd" clip-rule="evenodd" d="M17.2396 39.6602C17.3032 39.6808 17.369 39.7011 17.4369 39.721C20.5871 40.6441 37.9167 45.2415 46.1878 47.4247C47.1625 47.7188 49.0142 47.787 48.6234 45.707C48.5195 45.1541 48.3195 44.5934 48.0933 43.959C47.2554 41.6097 46.0572 38.2501 48.0454 30.5396C48.2923 29.6181 48.6019 27.5239 48.5115 26.22C48.4022 24.6446 47.68 17.8983 39.7862 15.2893C39.6421 15.2457 39.4879 15.2037 39.3242 15.1642C46.3327 17.8474 46.729 23.8952 46.843 25.635C46.8462 25.6851 46.8493 25.7318 46.8523 25.7746C46.9427 27.0785 46.6331 29.1727 46.3862 30.0942C44.4042 37.7805 45.4106 40.5479 46.1715 42.64C46.3801 43.2134 46.5701 43.736 46.6752 44.2953C47.066 46.3753 45.2143 46.3072 44.2396 46.0131C39.7153 44.8188 32.5671 43.1913 26.5036 41.8109C22.6691 40.9379 19.2685 40.1636 17.2396 39.6602Z" fill="black" fill-opacity="0.2"/>
<path fill-rule="evenodd" clip-rule="evenodd" d="M18.6876 34.9573C20.0685 33.6069 21.1406 31.9332 21.9611 30.3035L46.9536 37.0002C46.8311 39.5633 47.2002 41.3309 47.6268 42.7115L18.6876 34.9573Z" fill="#C08F1C" fill-opacity="0.7"/>
<path d="M18.2201 39.4318C16.502 38.9634 15.2614 38.3879 16.7805 36.9869C17.2554 36.6135 17.8044 36.2858 18.3006 35.8672C20.1383 34.3173 22.5373 32.0635 24.3977 24.7636C24.6118 23.8868 25.32 22.0118 26.0101 20.9766C26.844 19.7258 30.5516 13.5769 38.7218 15.108C39.0601 15.1796 39.4417 15.2839 39.8533 15.4235C32.8069 13.7724 28.3674 17.8334 26.5105 21.4045C25.2702 23.7895 25.1785 24.5527 24.984 25.3159C23.1295 32.5929 22.2927 32.8715 21.0145 34.9046C20.588 35.4913 19.3281 37.0188 18.9737 37.4319C17.6557 38.9681 22.7038 40.482 22.7038 40.482C22.7965 40.5046 21.8451 40.4201 18.2201 39.4318Z" fill="white" fill-opacity="0.2"/>
<path d="M14.1045 33.7695C12.0418 34.5639 8.8117 36.9735 12.3929 40.2568C10.3302 38.7122 7.78477 35.2523 14.1045 33.7695Z" fill="#495574"/>
<path d="M50.3001 50.8731C52.4952 50.1373 55.984 47.7712 52.3786 44.193C54.4705 45.893 56.9836 49.6091 50.3001 50.8731Z" fill="#495574"/>
<path d="M18.1114 33.3867C15.2629 34.4848 10.8023 37.8157 15.7478 42.3544C12.8993 40.2193 9.38413 35.4365 18.1114 33.3867Z" fill="#495574"/>
<path d="M45.9396 50.9657C48.9693 49.9439 53.7851 46.6592 48.8103 41.6948C51.6968 44.0533 55.1639 49.2095 45.9396 50.9657Z" fill="#495574"/>
</svg>
