<svg width="24" height="24" viewBox="0 0 24 24" fill="none" xmlns="http://www.w3.org/2000/svg">
<path fill-rule="evenodd" clip-rule="evenodd" d="M22 18C22 19.1046 21.1046 20 20 20H4C2.89543 20 2 19.1046 2 18V7.99999C2 6.89542 2.89543 5.99999 4 5.99999H7L9 4H15L17 5.99999H20C21.1046 5.99999 22 6.89542 22 7.99999V18ZM15 13C15 14.6569 13.6569 16 12 16C10.3431 16 9 14.6569 9 13C9 11.3431 10.3431 10 12 10C13.6569 10 15 11.3431 15 13ZM17 13C17 15.7614 14.7614 18 12 18C9.23858 18 7 15.7614 7 13C7 10.2386 9.23858 8 12 8C14.7614 8 17 10.2386 17 13Z" fill="white"/>
</svg>
