<svg width="32" height="32" viewBox="0 0 32 32" fill="none" xmlns="http://www.w3.org/2000/svg">
    <rect width="32" height="32" rx="16" fill="#A05BB6"/>
    <path d="M22.6391 23.8211L19.8424 21.0245C18.6358 21.5738 17.3231 21.8506 15.9974 21.8353C14.6306 21.8523 13.278 21.5573 12.0424 20.9728C11.0846 20.5055 10.2246 19.8601 9.50823 19.0711C8.74781 18.256 8.15014 17.3031 7.7474 16.2636L7.66406 16.002L7.75156 15.7386C8.3539 14.2022 9.36761 12.8613 10.6816 11.8628L8.4974 9.67862L9.6749 8.50195L23.8157 22.6428L22.6407 23.8211H22.6391ZM11.8607 13.0428C10.7957 13.7894 9.9546 14.8125 9.42823 16.002C10.5569 18.606 13.1606 20.2575 15.9974 20.1686C16.8723 20.1758 17.742 20.0349 18.5699 19.752L17.0699 18.252C16.736 18.4156 16.3692 18.5011 15.9974 18.502C14.6203 18.4933 13.506 17.3791 13.4974 16.002C13.4978 15.6293 13.5833 15.2616 13.7474 14.927L11.8607 13.0428ZM22.5407 19.0103L21.3807 17.8511C21.8688 17.2994 22.2687 16.6757 22.5666 16.002C21.4394 13.3966 18.8347 11.7445 15.9974 11.8353C15.7916 11.8353 15.5849 11.8428 15.3849 11.857L13.9141 10.3845C14.5988 10.238 15.2972 10.1656 15.9974 10.1686C17.3642 10.1517 18.7168 10.4466 19.9524 11.0311C20.9102 11.4984 21.7702 12.1438 22.4866 12.9328C23.2466 13.7469 23.8443 14.6987 24.2474 15.737L24.3307 16.002L24.2432 16.2653C23.8531 17.2804 23.2759 18.2132 22.5416 19.0153L22.5407 19.0103Z" fill="white"/>
</svg>
