<svg width="24" height="24" viewBox="0 0 24 24" fill="none" xmlns="http://www.w3.org/2000/svg">
<path d="M22 17C22 17.5523 21.5523 18 21 18H8C6.89543 18 6 17.1046 6 16V3C6 2.44772 6.44772 2 7 2C7.55228 2 8 2.44772 8 3V16H21C21.5523 16 22 16.4477 22 17Z" fill="#0C419A"/>
<path d="M2 7C2 6.44772 2.44772 6 3 6H6V8H3C2.44772 8 2 7.55228 2 7Z" fill="#0C419A"/>
<path d="M18 18L18 21C18 21.5523 17.5523 22 17 22C16.4477 22 16 21.5523 16 21L16 18L18 18Z" fill="#0C419A"/>
<path d="M9 6L16 6C17.1046 6 18 6.89543 18 8L18 15L16 15L16 8L9 8L9 6Z" fill="#0C419A"/>
</svg>
