<svg width="20" height="20" viewBox="0 0 20 20" fill="none" xmlns="http://www.w3.org/2000/svg">
    <path
        d="M10.0003 18.3347C5.40005 18.3296 1.67204 14.6016 1.66699 10.0013V9.83465C1.7586 5.25509 5.52915 1.60795 10.1092 1.66872C14.6893 1.72949 18.3617 5.47539 18.3318 10.0558C18.3019 14.6361 14.5808 18.3337 10.0003 18.3347ZM6.76339 10.2454C6.43843 9.92174 5.91273 9.92225 5.58839 10.2466C5.26361 10.5714 5.26361 11.0979 5.58839 11.4227L8.33366 14.168L14.4128 8.08882C14.7376 7.76402 14.7386 7.23769 14.4149 6.91174C14.0896 6.58416 13.5601 6.58322 13.2337 6.90965L8.33366 11.8097L6.76339 10.2454Z"
        fill="#1E7B6F" />
</svg>
