<svg width="12" height="9" viewBox="0 0 12 9" fill="none" xmlns="http://www.w3.org/2000/svg">
<path d="M11.6802 1.92219L5.1362 8.66961C5.03489 8.77434 4.91453 8.85743 4.78203 8.91412C4.64952 8.97082 4.50747 9 4.36401 9C4.22055 9 4.0785 8.97082 3.946 8.91412C3.81349 8.85743 3.69314 8.77434 3.59183 8.66961L0.31985 5.2959C0.218445 5.19134 0.138006 5.06722 0.0831264 4.9306C0.0282464 4.79399 1.06848e-09 4.64757 0 4.4997C-1.06847e-09 4.35184 0.0282464 4.20542 0.0831264 4.06881C0.138006 3.93219 0.218445 3.80807 0.31985 3.70351C0.421255 3.59895 0.54164 3.51601 0.674132 3.45942C0.806624 3.40284 0.948629 3.37371 1.09204 3.37371C1.23545 3.37371 1.37745 3.40284 1.50994 3.45942C1.64243 3.51601 1.76282 3.59895 1.86422 3.70351L4.36401 6.28328L10.1358 0.329796C10.3406 0.118631 10.6183 -2.22498e-09 10.908 0C11.1976 2.22498e-09 11.4754 0.118631 11.6802 0.329796C11.8849 0.54096 12 0.827361 12 1.12599C12 1.42462 11.8849 1.71102 11.6802 1.92219Z" fill="#298478"/>
</svg>
