<svg width="32" height="32" viewBox="0 0 32 32" fill="none" xmlns="http://www.w3.org/2000/svg">
    <rect width="32" height="32" rx="16" fill="#D81E7E"/>
    <path d="M16 22.5063C10.9096 22.5063 11.4955 23.7759 11.4955 17.9988C11.4962 15.5103 13.5139 13.4934 16.0024 13.4937C18.4909 13.494 20.5081 15.5115 20.5081 18C20.5081 23.9399 21.0904 22.5063 16 22.5063ZM16 15.2937C16 15.2937 13.2955 15.6214 13.2955 18.0012C13.2955 20.2054 16.0024 20.7063 16.0024 20.7063C16.0024 20.7063 14.8132 19.4932 14.8132 17.9988C14.8117 16.5041 16 15.2937 16 15.2937ZM25 18.9H22.3V17.1H25V18.9ZM9.7 18.9H7V17.1H9.7V18.9ZM21.0904 14.1822L19.8187 12.9087L21.7276 10.9989L23.0011 12.2724L21.0913 14.1813L21.0904 14.1822ZM10.9087 14.1822L9.0007 12.2733L10.2742 11.0007L12.1822 12.9105L10.9096 14.1813L10.9087 14.1822ZM16.9 11.7H15.1V9H16.9V11.7Z" fill="white"/>
</svg>
