<svg width="32" height="32" viewBox="0 0 32 32" fill="none" xmlns="http://www.w3.org/2000/svg">
    <rect width="32" height="32" rx="16" fill="#07C3F0"/>
    <path d="M16.0026 7.66699C13.7051 7.66699 11.8359 9.53616 11.8359 11.8337V14.3337H11.0026C10.0834 14.3337 9.33594 15.0812 9.33594 16.0003V22.667C9.33594 23.5862 10.0834 24.3337 11.0026 24.3337H21.0026C21.9218 24.3337 22.6693 23.5862 22.6693 22.667V16.0003C22.6693 15.0812 21.9218 14.3337 21.0026 14.3337H20.1693V11.8337C20.1693 9.53616 18.3001 7.66699 16.0026 7.66699ZM21.0026 16.0003L21.0043 22.667H11.0026V16.0003H21.0026ZM13.5026 14.3337V11.8337C13.5026 10.4553 14.6243 9.33366 16.0026 9.33366C17.3809 9.33366 18.5026 10.4553 18.5026 11.8337V14.3337H13.5026Z" fill="white"/>
</svg>
