<svg width="16" height="17" viewBox="0 0 16 17" fill="none" xmlns="http://www.w3.org/2000/svg">
<path d="M7.99992 15.1673C4.31802 15.1673 1.33325 12.1825 1.33325 8.50065C1.33325 4.81875 4.31802 1.83398 7.99992 1.83398C11.6818 1.83398 14.6666 4.81875 14.6666 8.50065C14.6625 12.1809 11.6801 15.1633 7.99992 15.1673ZM7.99992 3.16732C5.0544 3.16732 2.66659 5.55513 2.66659 8.50065C2.66659 11.4462 5.0544 13.834 7.99992 13.834C10.9454 13.834 13.3333 11.4462 13.3333 8.50065C13.3299 5.5565 10.9441 3.17062 7.99992 3.16732ZM11.3333 8.50065C11.3333 8.86884 11.0348 9.16732 10.6666 9.16732H7.33325V5.83398C7.33325 5.46579 7.63173 5.16732 7.99992 5.16732C8.36811 5.16732 8.66659 5.46579 8.66659 5.83398V7.83398H10.6666C11.0348 7.83398 11.3333 8.13246 11.3333 8.50065Z" fill="#495574"/>
</svg>
