<svg width="16" height="17" viewBox="0 0 16 17" fill="none" xmlns="http://www.w3.org/2000/svg">
<path d="M7.9987 15.1673C4.3168 15.1673 1.33203 12.1825 1.33203 8.50065C1.33203 4.81875 4.3168 1.83398 7.9987 1.83398C11.6806 1.83398 14.6654 4.81875 14.6654 8.50065C14.6613 12.1809 11.6789 15.1633 7.9987 15.1673ZM7.98803 13.834H7.9987C10.9432 13.831 13.3282 11.4425 13.3267 8.49799C13.3252 5.55351 10.9378 3.16732 7.99336 3.16732C5.04889 3.16732 2.6615 5.55351 2.66003 8.49799C2.65856 11.4425 5.04356 13.831 7.98803 13.834ZM6.66536 11.834L4.46915 9.63777C4.20933 9.37795 4.20933 8.95669 4.46915 8.69686C4.72862 8.43739 5.14918 8.43699 5.40915 8.69595L6.66536 9.94732L10.5854 6.02732C10.8465 5.76617 11.2701 5.76692 11.5304 6.02899C11.7893 6.28975 11.7885 6.71081 11.5287 6.97065L6.66536 11.834Z" fill="#495574"/>
</svg>
