<svg width="32" height="32" viewBox="0 0 32 32" fill="none" xmlns="http://www.w3.org/2000/svg">
    <rect width="32" height="32" rx="16" fill="#5E74B8"/>
    <mask id="path-2-inside-1_36256_73911" fill="white">
        <path d="M12.7095 20.857L13.254 21.1482C14.098 21.5994 15.0405 21.8348 15.9975 21.8333L16 21.8333C19.2218 21.8333 21.8333 19.2218 21.8333 16C21.8333 12.7782 19.2218 10.1667 16 10.1667C12.7782 10.1667 10.1667 12.7782 10.1667 16V16.0025C10.1652 16.9595 10.4006 17.902 10.8518 18.746L11.143 19.2905L10.6953 21.3047L12.7095 20.857ZM8.50001 23.5L9.38201 19.5317C8.80116 18.4453 8.49815 17.232 8.50001 16C8.50001 11.8577 11.8578 8.5 16 8.5C20.1423 8.5 23.5 11.8577 23.5 16C23.5 20.1422 20.1423 23.5 16 23.5C14.768 23.5018 13.5547 23.1988 12.4683 22.618L8.50001 23.5Z"/>
    </mask>
    <path d="M12.7095 20.857L13.254 21.1482C14.098 21.5994 15.0405 21.8348 15.9975 21.8333L16 21.8333C19.2218 21.8333 21.8333 19.2218 21.8333 16C21.8333 12.7782 19.2218 10.1667 16 10.1667C12.7782 10.1667 10.1667 12.7782 10.1667 16V16.0025C10.1652 16.9595 10.4006 17.902 10.8518 18.746L11.143 19.2905L10.6953 21.3047L12.7095 20.857ZM8.50001 23.5L9.38201 19.5317C8.80116 18.4453 8.49815 17.232 8.50001 16C8.50001 11.8577 11.8578 8.5 16 8.5C20.1423 8.5 23.5 11.8577 23.5 16C23.5 20.1422 20.1423 23.5 16 23.5C14.768 23.5018 13.5547 23.1988 12.4683 22.618L8.50001 23.5Z" fill="white"/>
    <path d="M13.254 21.1482L14.0398 19.6784L14.0398 19.6784L13.254 21.1482ZM12.7095 20.857L13.4953 19.3872L12.9507 19.0961L12.3478 19.2301L12.7095 20.857ZM15.9975 21.8333L16 23.5L16.0001 23.5L15.9975 21.8333ZM16 21.8333L16 20.1667L15.9974 20.1667L16 21.8333ZM10.1667 16.0025L11.8333 16.005V16.0025H10.1667ZM10.8518 18.746L12.3216 17.9602L12.3216 17.9602L10.8518 18.746ZM11.143 19.2905L12.7699 19.6522L12.9039 19.0493L12.6128 18.5047L11.143 19.2905ZM10.6953 21.3047L9.06831 20.9431L8.50001 23.5L11.0569 22.9317L10.6953 21.3047ZM8.50001 23.5L6.87304 23.1384L6.30474 25.6953L8.86162 25.127L8.50001 23.5ZM9.38201 19.5317L11.009 19.8934L11.143 19.2905L10.8518 18.746L9.38201 19.5317ZM8.50001 16L10.1667 16.0025V16H8.50001ZM16 23.5L16 21.8333L15.9975 21.8333L16 23.5ZM12.4683 22.618L13.254 21.1482L12.7095 20.857L12.1066 20.991L12.4683 22.618ZM14.0398 19.6784L13.4953 19.3872L11.9237 22.3268L12.4683 22.618L14.0398 19.6784ZM15.995 20.1667C15.313 20.1677 14.6413 19.9999 14.0398 19.6784L12.4683 22.618C13.5547 23.1988 14.768 23.5018 16 23.5L15.995 20.1667ZM15.9974 20.1667L15.9949 20.1667L16.0001 23.5L16.0026 23.5L15.9974 20.1667ZM20.1667 16C20.1667 18.3013 18.3013 20.1667 16 20.1667L16 23.5C20.1423 23.5 23.5 20.1422 23.5 16H20.1667ZM16 11.8333C18.3013 11.8333 20.1667 13.6987 20.1667 16H23.5C23.5 11.8577 20.1423 8.5 16 8.5V11.8333ZM11.8333 16C11.8333 13.6987 13.6987 11.8333 16 11.8333V8.5C11.8578 8.5 8.50001 11.8577 8.50001 16H11.8333ZM11.8333 16.0025V16H8.50001V16.0025H11.8333ZM12.3216 17.9602C12.0001 17.3587 11.8323 16.687 11.8333 16.005L8.50001 16C8.49815 17.232 8.80116 18.4453 9.38201 19.5317L12.3216 17.9602ZM12.6128 18.5047L12.3216 17.9602L9.38201 19.5317L9.67316 20.0763L12.6128 18.5047ZM10.8518 18.746C10.4006 17.902 10.1652 16.9595 10.1667 16.0025L6.83334 15.9975C6.83107 17.5045 7.20171 18.9886 7.91221 20.3175L10.8518 18.746ZM10.1667 16C10.1667 12.7782 12.7782 10.1667 16 10.1667V6.83333C10.9373 6.83333 6.83334 10.9373 6.83334 16H10.1667ZM16 10.1667C19.2218 10.1667 21.8333 12.7782 21.8333 16H25.1667C25.1667 10.9373 21.0627 6.83333 16 6.83333V10.1667ZM21.8333 16C21.8333 19.2218 19.2218 21.8333 16 21.8333V25.1667C21.0627 25.1667 25.1667 21.0627 25.1667 16H21.8333ZM15.9975 21.8333C15.0405 21.8348 14.098 21.5994 13.254 21.1482L11.6825 24.0878C13.0114 24.7983 14.4955 25.1689 16.0025 25.1667L15.9975 21.8333ZM12.3222 21.6663L12.7699 19.6522L9.51599 18.9289L9.06831 20.9431L12.3222 21.6663ZM12.3478 19.2301L10.3337 19.6778L11.0569 22.9317L13.0711 22.484L12.3478 19.2301ZM12.1066 20.991L8.13839 21.873L8.86162 25.127L12.8299 24.245L12.1066 20.991ZM10.127 23.8616L11.009 19.8934L7.75504 19.1701L6.87304 23.1384L10.127 23.8616Z" fill="white" mask="url(#path-2-inside-1_36256_73911)"/>
</svg>
