<svg width="10" height="10" viewBox="0 0 10 10" fill="none" xmlns="http://www.w3.org/2000/svg">
<path d="M9.295 0.705C8.90564 0.315639 8.27436 0.315639 7.885 0.705L5 3.59L2.115 0.705C1.72564 0.315639 1.09436 0.315639 0.705 0.705C0.315639 1.09436 0.315639 1.72564 0.705 2.115L3.59 5L0.705 7.885C0.315639 8.27436 0.315639 8.90564 0.705 9.295C1.09436 9.68436 1.72564 9.68436 2.115 9.295L5 6.41L7.885 9.295C8.27436 9.68436 8.90564 9.68436 9.295 9.295C9.68436 8.90564 9.68436 8.27436 9.295 7.885L6.41 5L9.295 2.115C9.68436 1.72564 9.68436 1.09436 9.295 0.705Z" fill="#262939"/>
</svg>
