<svg width="24" height="24" viewBox="0 0 24 24" fill="none" xmlns="http://www.w3.org/2000/svg">
<rect width="24" height="24" rx="12" fill="#C7414F"/>
<path d="M16.295 7.70305C15.9056 7.31369 15.2744 7.31369 14.885 7.70305L12 10.588L9.115 7.70305C8.72564 7.31369 8.09436 7.31369 7.705 7.70305V7.70305C7.31564 8.09241 7.31564 8.72369 7.705 9.11305L10.59 11.998L7.705 14.883C7.31564 15.2724 7.31564 15.9037 7.705 16.293V16.293C8.09436 16.6824 8.72564 16.6824 9.115 16.293L12 13.408L14.885 16.293C15.2744 16.6824 15.9056 16.6824 16.295 16.293V16.293C16.6844 15.9037 16.6844 15.2724 16.295 14.883L13.41 11.998L16.295 9.11305C16.6844 8.72369 16.6844 8.09241 16.295 7.70305V7.70305Z" fill="white"/>
</svg>
