<svg width="16" height="19" viewBox="0 0 16 19" fill="none" xmlns="http://www.w3.org/2000/svg">
<path fill-rule="evenodd" clip-rule="evenodd" d="M0.50078 1.45195C0.821424 1.13131 1.25631 0.951172 1.70977 0.951172H13.6782C14.1316 0.951172 14.5665 1.13131 14.8871 1.45195C15.2078 1.7726 15.3879 2.20748 15.3879 2.66094V7.57653C15.3879 8.04867 15.0052 8.43141 14.533 8.43141C14.0609 8.43141 13.6782 8.04867 13.6782 7.57653V2.66094L1.70977 2.66094L1.70977 16.3391H7.69396C8.1661 16.3391 8.54885 16.7218 8.54885 17.194C8.54885 17.6661 8.1661 18.0489 7.69396 18.0489H1.70977C1.25631 18.0489 0.821425 17.8687 0.50078 17.5481C0.180135 17.2274 0 16.7926 0 16.3391V2.66094C0 2.20748 0.180136 1.7726 0.50078 1.45195Z" fill="#0C419A"/>
<path fill-rule="evenodd" clip-rule="evenodd" d="M13.1927 10.0801C12.7681 10.0781 12.3488 10.1718 11.9659 10.3538C11.5942 10.1777 11.1788 10.0801 10.7437 10.0801C9.23982 10.0801 7.93164 11.2661 7.93164 12.837C7.93164 13.7726 8.37558 14.5307 8.75551 15.0311C9.09521 15.4786 9.49463 15.8583 9.72812 16.0802C9.75874 16.1093 9.7865 16.1357 9.8109 16.1592M11.9863 12.0282C11.9795 12.0375 11.9727 12.0469 11.9661 12.0563C11.7738 11.7779 11.4815 11.5689 11.1388 11.4768C11.0131 11.443 10.8806 11.4249 10.7437 11.4249C9.93341 11.4249 9.27646 12.057 9.27646 12.837C9.27646 13.791 10.1399 14.6144 10.65 15.1009C10.6828 15.1321 10.7141 15.162 10.7437 15.1904C11.0695 15.5041 11.4773 15.8181 11.9661 16.1318C12.4553 15.8181 12.8624 15.5041 13.1886 15.1904C13.2184 15.1617 13.2501 15.1315 13.2832 15.0998C13.7932 14.6133 14.6558 13.7903 14.6558 12.837C14.6558 12.057 13.9988 11.4249 13.1886 11.4249C13.0617 11.4241 12.9358 11.4396 12.8138 11.4707C12.7053 11.4984 12.5998 11.5383 12.4996 11.5901C12.2969 11.6948 12.1213 11.8447 11.9863 12.0282ZM13.1927 10.0801C14.6948 10.0823 16.0006 11.2675 16.0006 12.837C16.0006 13.7727 15.5564 14.5309 15.1765 15.0312C14.8373 15.478 14.4383 15.8575 14.205 16.0793C14.174 16.1088 14.146 16.1355 14.1213 16.1592C13.7177 16.5475 13.2364 16.9148 12.692 17.2639C12.2495 17.5476 11.6823 17.5475 11.2398 17.2637C10.6969 16.9153 10.2149 16.5481 9.8109 16.1592" fill="#0C419A"/>
<path fill-rule="evenodd" clip-rule="evenodd" d="M3.42383 5.22402C3.42383 4.75189 3.80657 4.36914 4.27871 4.36914H11.1178C11.5899 4.36914 11.9727 4.75189 11.9727 5.22402C11.9727 5.69616 11.5899 6.07891 11.1178 6.07891H4.27871C3.80657 6.07891 3.42383 5.69616 3.42383 5.22402Z" fill="#0C419A"/>
</svg>
