<svg width="56" height="56" viewBox="0 0 56 56" fill="none" xmlns="http://www.w3.org/2000/svg">
<circle cx="28" cy="28" r="28" fill="#0C419A"/>
<path d="M29.3681 15.1797L29.3759 15.1805L29.3837 15.181C29.4578 15.1857 29.531 15.2002 29.6014 15.2239L29.6014 15.2239L29.608 15.226L29.6402 15.2364C29.6461 15.2385 29.6518 15.241 29.6574 15.2438L29.6701 15.2504L29.6833 15.2562C29.7729 15.2961 29.8547 15.3518 29.9246 15.4207C29.9249 15.421 29.9252 15.4213 29.9255 15.4216L37.9214 23.4175C37.9218 23.4179 37.9221 23.4182 37.9224 23.4185C37.9913 23.4884 38.0469 23.5701 38.0868 23.6598L38.0868 23.6598L38.0875 23.6613C38.0878 23.6623 38.0885 23.6642 38.0897 23.6674L38.0955 23.6844L38.1045 23.7109L38.1048 23.7116L38.1149 23.7407C38.1151 23.7415 38.1154 23.7422 38.1156 23.7429C38.138 23.8106 38.1513 23.881 38.155 23.9522L38.1565 23.9809L38.1613 24.0093C38.1629 24.0185 38.1646 24.0276 38.1665 24.0367V38.666C38.1665 39.8626 37.1963 40.8327 35.9997 40.8327H19.9997C18.8031 40.8327 17.833 39.8626 17.833 38.666V17.3327C17.833 16.1361 18.8031 15.166 19.9997 15.166H29.2818C29.3102 15.1724 29.3391 15.177 29.3681 15.1797ZM19.9997 16.8327H19.4997V17.3327V38.666V39.166H19.9997H35.9997H36.4997V38.666V25.3327V24.8327H35.9997H29.333C28.8728 24.8327 28.4997 24.4596 28.4997 23.9993V17.3327V16.8327H27.9997H19.9997ZM31.0199 18.8645L30.1663 18.0109V19.218V22.666V23.166H30.6663H34.1143H35.3214L34.4679 22.3125L31.0199 18.8645Z" fill="white" stroke="white"/>
</svg>
