<svg width="24" height="24" viewBox="0 0 24 24" fill="none" xmlns="http://www.w3.org/2000/svg">
    <defs>
        <clipPath id="clip0_22284_82514">
            <rect width="24" height="24" fill="white" transform="translate(0 0.5)"/>
        </clipPath>
    </defs>
    <g clip-path="url(#clip0_22284_82514)">
<path fill-rule="evenodd" clip-rule="evenodd" d="M17.75 4H6.25C5.83579 4 5.5 4.33579 5.5 4.75V20.25C5.5 20.6642 5.83579 21 6.25 21H17.75C18.1642 21 18.5 20.6642 18.5 20.25V4.75C18.5 4.33579 18.1642 4 17.75 4ZM6.25 2.5C5.00736 2.5 4 3.50736 4 4.75V20.25C4 21.4926 5.00736 22.5 6.25 22.5H17.75C18.9926 22.5 20 21.4926 20 20.25V4.75C20 3.50736 18.9926 2.5 17.75 2.5H6.25ZM8 10.25C8 9.83579 8.33579 9.5 8.75 9.5H15.25C15.6642 9.5 16 9.83579 16 10.25C16 10.6642 15.6642 11 15.25 11H8.75C8.33579 11 8 10.6642 8 10.25ZM8.75 13.5C8.33579 13.5 8 13.8358 8 14.25C8 14.6642 8.33579 15 8.75 15H13.538C13.9522 15 14.288 14.6642 14.288 14.25C14.288 13.8358 13.9522 13.5 13.538 13.5H8.75Z" fill="#495574"/>
</g>
</svg>
