<svg width="24" height="24" viewBox="0 0 24 24" fill="none" xmlns="http://www.w3.org/2000/svg">
<g clip-path="url(#clip0_22283_195528)">
<mask id="path-1-inside-1_22283_195528" fill="white">
<path fill-rule="evenodd" clip-rule="evenodd" d="M4 4.75C4 3.50736 5.00736 2.5 6.25 2.5H17.75C18.9926 2.5 20 3.50736 20 4.75V20.25C20 21.4926 18.9926 22.5 17.75 22.5H6.25C5.00736 22.5 4 21.4926 4 20.25V4.75ZM8 10.25C8 9.83579 8.33579 9.5 8.75 9.5H15.25C15.6642 9.5 16 9.83579 16 10.25C16 10.6642 15.6642 11 15.25 11H8.75C8.33579 11 8 10.6642 8 10.25ZM8.75 13.5C8.33579 13.5 8 13.8358 8 14.25C8 14.6642 8.33579 15 8.75 15H13.538C13.9522 15 14.288 14.6642 14.288 14.25C14.288 13.8358 13.9522 13.5 13.538 13.5H8.75Z"/>
</mask>
<path fill-rule="evenodd" clip-rule="evenodd" d="M4 4.75C4 3.50736 5.00736 2.5 6.25 2.5H17.75C18.9926 2.5 20 3.50736 20 4.75V20.25C20 21.4926 18.9926 22.5 17.75 22.5H6.25C5.00736 22.5 4 21.4926 4 20.25V4.75ZM8 10.25C8 9.83579 8.33579 9.5 8.75 9.5H15.25C15.6642 9.5 16 9.83579 16 10.25C16 10.6642 15.6642 11 15.25 11H8.75C8.33579 11 8 10.6642 8 10.25ZM8.75 13.5C8.33579 13.5 8 13.8358 8 14.25C8 14.6642 8.33579 15 8.75 15H13.538C13.9522 15 14.288 14.6642 14.288 14.25C14.288 13.8358 13.9522 13.5 13.538 13.5H8.75Z" fill="#0C419A"/>
<path d="M6.25 1C4.17893 1 2.5 2.67893 2.5 4.75H5.5C5.5 4.33579 5.83579 4 6.25 4V1ZM17.75 1H6.25V4H17.75V1ZM21.5 4.75C21.5 2.67893 19.8211 1 17.75 1V4C18.1642 4 18.5 4.33579 18.5 4.75H21.5ZM21.5 20.25V4.75H18.5V20.25H21.5ZM17.75 24C19.8211 24 21.5 22.3211 21.5 20.25H18.5C18.5 20.6642 18.1642 21 17.75 21V24ZM6.25 24H17.75V21H6.25V24ZM2.5 20.25C2.5 22.3211 4.17893 24 6.25 24V21C5.83579 21 5.5 20.6642 5.5 20.25H2.5ZM2.5 4.75V20.25H5.5V4.75H2.5ZM8.75 8C7.50736 8 6.5 9.00736 6.5 10.25H9.5C9.5 10.6642 9.16421 11 8.75 11V8ZM15.25 8H8.75V11H15.25V8ZM17.5 10.25C17.5 9.00736 16.4926 8 15.25 8V11C14.8358 11 14.5 10.6642 14.5 10.25H17.5ZM15.25 12.5C16.4926 12.5 17.5 11.4926 17.5 10.25H14.5C14.5 9.83579 14.8358 9.5 15.25 9.5V12.5ZM8.75 12.5H15.25V9.5H8.75V12.5ZM6.5 10.25C6.5 11.4926 7.50736 12.5 8.75 12.5V9.5C9.16421 9.5 9.5 9.83579 9.5 10.25H6.5ZM9.5 14.25C9.5 14.6642 9.16421 15 8.75 15V12C7.50736 12 6.5 13.0074 6.5 14.25H9.5ZM8.75 13.5C9.16421 13.5 9.5 13.8358 9.5 14.25H6.5C6.5 15.4926 7.50736 16.5 8.75 16.5V13.5ZM13.538 13.5H8.75V16.5H13.538V13.5ZM12.788 14.25C12.788 13.8358 13.1238 13.5 13.538 13.5V16.5C14.7806 16.5 15.788 15.4926 15.788 14.25H12.788ZM13.538 15C13.1238 15 12.788 14.6642 12.788 14.25H15.788C15.788 13.0074 14.7806 12 13.538 12V15ZM8.75 15H13.538V12H8.75V15Z" fill="#0C419A" mask="url(#path-1-inside-1_22283_195528)"/>
</g>
<defs>
<clipPath id="clip0_22283_195528">
<rect width="24" height="24" fill="white" transform="translate(0 0.5)"/>
</clipPath>
</defs>
</svg>
