<svg width="32" height="32" viewBox="0 0 32 32" fill="none" xmlns="http://www.w3.org/2000/svg">
<path d="M11.9993 4C8.31745 4 5.33268 6.98477 5.33268 10.6667C5.33268 14.3486 8.31745 17.3333 11.9993 17.3333C15.6812 17.3333 18.666 14.3486 18.666 10.6667C18.666 6.98477 15.6812 4 11.9993 4ZM7.99935 10.6667C7.99935 8.45753 9.79021 6.66667 11.9993 6.66667C14.2085 6.66667 15.9993 8.45753 15.9993 10.6667C15.9993 12.8758 14.2085 14.6667 11.9993 14.6667C9.79021 14.6667 7.99935 12.8758 7.99935 10.6667Z" fill="white"/>
<path d="M22.5439 10.9577C22.1688 10.7665 21.7537 10.6667 21.3327 10.6667V8.00008C22.1748 8.00008 23.005 8.19942 23.7552 8.58193C23.8378 8.62406 23.9192 8.66828 23.9993 8.71453C24.6465 9.08818 25.2089 9.59425 25.6491 10.2007C26.1437 10.8823 26.4699 11.6713 26.601 12.5032C26.7321 13.335 26.6643 14.1861 26.4033 14.9867C26.1422 15.7874 25.6952 16.5148 25.099 17.1095C24.5027 17.7042 23.7741 18.1492 22.9728 18.4082C22.2597 18.6387 21.5071 18.7159 20.7641 18.6363C20.6721 18.6264 20.5803 18.6141 20.4887 18.5995C19.6578 18.4663 18.8701 18.1384 18.1902 17.6425L18.1888 17.6415L19.7607 15.4874C20.1009 15.7356 20.495 15.8997 20.9107 15.9663C21.3265 16.033 21.7521 16.0002 22.1527 15.8707C22.5534 15.7412 22.9177 15.5187 23.2158 15.2214C23.5139 14.924 23.7374 14.5603 23.8679 14.16C23.9984 13.7597 24.0323 13.3342 23.9668 12.9183C23.9012 12.5023 23.7381 12.1079 23.4908 11.7671C23.2435 11.4263 22.919 11.149 22.5439 10.9577Z" fill="white"/>
<path d="M27.9981 28C27.261 28 26.6799 27.3934 26.4973 26.6793C26.4347 26.4347 26.3548 26.1943 26.2577 25.96C25.9898 25.3132 25.5971 24.7256 25.1021 24.2306C24.6071 23.7355 24.0195 23.3429 23.3727 23.075C22.7259 22.8071 22.0327 22.6692 21.3327 22.6692V20C22.2421 20 23.1439 20.1551 23.9993 20.4575C24.1321 20.5045 24.2638 20.555 24.3941 20.609C25.3648 21.011 26.2467 21.6003 26.9895 22.3431C27.7324 23.086 28.3217 23.9679 28.7237 24.9385C28.7777 25.0689 28.8282 25.2006 28.8752 25.3333C29.0292 25.7691 29.1451 26.2169 29.2216 26.6716C29.344 27.3984 28.7352 28 27.9981 28Z" fill="white"/>
<path d="M21.2387 26.6706C21.3427 27.3996 20.7357 28 19.9993 28C19.263 28 18.6799 27.397 18.5344 26.6752C17.92 23.628 15.2276 21.3333 11.9993 21.3333C8.77107 21.3333 6.07872 23.628 5.46432 26.6752C5.31877 27.397 4.73573 28 3.99935 28C3.26297 28 2.65601 27.3996 2.75997 26.6706C3.40524 22.1456 7.29601 18.6667 11.9993 18.6667C16.7027 18.6667 20.5935 22.1456 21.2387 26.6706Z" fill="white"/>
</svg>
