<svg width="22" height="22" viewBox="0 0 22 22" fill="none" xmlns="http://www.w3.org/2000/svg">
    <path d="M10.9987 19.2491C10.4075 18.7247 9.73922 18.1793 9.03247 17.5991H9.0233C6.53455 15.5641 3.71397 13.2614 2.46822 10.5022C2.05894 9.62383 1.84205 8.66811 1.83204 7.69908C1.82931 6.36944 2.36259 5.09481 3.31138 4.16328C4.26016 3.23175 5.54435 2.72194 6.87372 2.74908C7.95596 2.75079 9.0149 3.06357 9.92439 3.65016C10.324 3.90955 10.6856 4.22331 10.9987 4.58241C11.3136 4.22472 11.6753 3.91114 12.074 3.65016C12.9831 3.06345 14.0417 2.75065 15.1237 2.74908C16.4531 2.72194 17.7373 3.23175 18.6861 4.16328C19.6348 5.09481 20.1681 6.36944 20.1654 7.69908C20.156 8.66966 19.9391 9.62701 19.5292 10.5068C18.2835 13.266 15.4638 15.5677 12.9751 17.5991L12.9659 17.6064C12.2582 18.183 11.5909 18.7284 10.9996 19.2564L10.9987 19.2491ZM6.87372 4.58241C6.01985 4.57173 5.19628 4.89852 4.58205 5.49174C3.99024 6.07306 3.65948 6.86954 3.66531 7.69908C3.67577 8.40537 3.83573 9.10144 4.13472 9.74141C4.72277 10.9319 5.51624 12.0093 6.47864 12.9241C7.38705 13.8407 8.43205 14.7281 9.33589 15.4742C9.58613 15.6805 9.84097 15.8886 10.0958 16.0967L10.2562 16.2277C10.501 16.4276 10.754 16.6347 10.9987 16.8382L11.0106 16.8272L11.0161 16.8227H11.0216L11.0299 16.8162H11.0345H11.0391L11.0556 16.8025L11.0931 16.7722L11.0996 16.7667L11.1096 16.7594H11.1151L11.1234 16.7521L11.7321 16.2525L11.8916 16.1214C12.1491 15.9115 12.404 15.7034 12.6542 15.4972C13.5581 14.751 14.604 13.8646 15.5124 12.9433C16.4749 12.029 17.2684 10.9519 17.8563 9.76158C18.1607 9.11606 18.3229 8.41271 18.3321 7.69908C18.3359 6.8721 18.0053 6.07868 17.4154 5.49908C16.8023 4.90317 15.9786 4.57369 15.1237 4.58241C14.0805 4.57355 13.0832 5.01083 12.3829 5.78416L10.9987 7.37916L9.61455 5.78416C8.91428 5.01083 7.91696 4.57355 6.87372 4.58241Z"
          fill="#2E3A59"/>
</svg>
