<svg width="38" height="38" viewBox="0 0 38 38" fill="none" xmlns="http://www.w3.org/2000/svg">
<circle cx="18.9991" cy="19" r="15.6627" fill="#0C419A" stroke="#0C419A" stroke-width="0.594631"/>
<path d="M5.58223 31.6243L5.57178 31.6348C3.22345 29.1258 1.61982 26.0054 0.948326 22.6246C0.238083 19.0486 0.602614 15.3421 1.99578 11.9737C3.38895 8.60529 5.74813 5.72642 8.77487 3.70102C11.8016 1.67563 15.36 0.594632 19 0.594631C22.64 0.594631 26.1984 1.67563 29.2251 3.70102C32.2519 5.72642 34.611 8.60529 36.0042 11.9737C37.3974 15.3421 37.7619 19.0486 37.0517 22.6246C36.3802 26.0054 34.7765 29.1258 32.4282 31.6348L32.4178 31.6243C34.7647 29.1172 36.3671 25.9992 37.0381 22.6212C37.7476 19.0486 37.3835 15.3456 35.9916 11.9803C34.5997 8.61496 32.2425 5.73843 29.2181 3.71455C26.1936 1.69066 22.6377 0.610356 19 0.610357C15.3623 0.610357 11.8064 1.69066 8.78194 3.71455C5.75747 5.73843 3.40032 8.61496 2.00842 11.9803C0.616533 15.3456 0.252365 19.0486 0.961932 22.6212C1.63287 25.9992 3.23534 29.1172 5.58223 31.6243Z" fill="#F9FAFF" stroke="#0C419A" stroke-width="1.18926"/>
</svg>
