<svg width="12" height="12" viewBox="0 0 12 12" fill="none" xmlns="http://www.w3.org/2000/svg">
<path d="M11.3333 12H0.666667C0.298477 12 0 11.7015 0 11.3333V6.46667C0 6.27461 0.0828803 6.0919 0.227333 5.96533L1.33333 5V0.666667C1.33333 0.298477 1.63181 0 2 0H11.3333C11.7015 0 12 0.298477 12 0.666667V11.3333C12 11.7015 11.7015 12 11.3333 12ZM4 2.886C4.16142 2.88619 4.31728 2.94493 4.43867 3.05133L7.772 5.968C7.916 6.09383 7.99904 6.27544 8 6.46667V10.6667H10.6667V1.33333H2.66667V3.83333L3.56067 3.05067C3.68232 2.94436 3.83844 2.88584 4 2.886ZM3.33333 8.66667H4.66667V10.6667H6.66667V6.77133L4 4.438L1.33333 6.77133V10.6667H3.33333V8.66667Z" fill="#495574"/>
</svg>
