<svg width="24" height="24" viewBox="0 0 24 24" fill="none" xmlns="http://www.w3.org/2000/svg">
<path d="M20 20.0009H4C2.93052 20.0329 2.03642 19.1943 2 18.1249V5.87592C2.03641 4.80672 2.93068 3.96835 4 4.00092H20C21.0693 3.96835 21.9636 4.80672 22 5.87592V18.1259C21.963 19.1949 21.0691 20.0329 20 20.0009ZM4 6.00092V17.9899L20 18.0009V6.01192L4 6.00092ZM13.43 16.0009H6C6.07353 15.173 6.46534 14.4058 7.093 13.8609C7.79183 13.1676 8.73081 12.7701 9.715 12.7509C10.6992 12.7701 11.6382 13.1676 12.337 13.8609C12.9645 14.406 13.3563 15.173 13.43 16.0009ZM18 15.0009H15V13.0009H18V15.0009ZM9.715 12.0009C9.17907 12.0195 8.65947 11.8148 8.28029 11.4356C7.9011 11.0564 7.69638 10.5368 7.715 10.0009C7.69668 9.46508 7.9015 8.94565 8.28062 8.56654C8.65974 8.18742 9.17916 7.98259 9.715 8.00092C10.2508 7.98259 10.7703 8.18742 11.1494 8.56654C11.5285 8.94565 11.7333 9.46508 11.715 10.0009C11.7336 10.5368 11.5289 11.0564 11.1497 11.4356C10.7705 11.8148 10.2509 12.0195 9.715 12.0009ZM18 11.0009H14V9.00092H18V11.0009Z" fill="#262939"/>
</svg>
