<svg width="24" height="24" viewBox="0 0 24 24" fill="none" xmlns="http://www.w3.org/2000/svg">
<path d="M6.23659 3.93157C4.72508 3.93157 3.67138 4.9977 3.67138 6.52107V20.9894C3.67138 21.4509 3.29723 21.8251 2.83569 21.8251C2.37415 21.8251 2 21.4509 2 20.9894V6.77694C2 4.24193 3.8361 2.32764 6.27292 2.33001C6.95359 2.33001 7.59792 2.46268 8.18653 2.72329L8.20833 2.73277C8.68068 2.97205 9.14818 3.30374 9.5624 3.68991L9.57693 3.70413C9.75133 3.88182 9.87729 4.03107 10.0008 4.19929C10.1559 3.96711 10.3157 3.78468 10.5386 3.57619C11.3961 2.75646 12.5951 2.26367 13.7457 2.26367C16.0905 2.26367 18.147 4.28931 18.1446 6.60162V12.068H21.1911C21.6378 12.068 22 12.4301 22 12.8769C22 13.3236 21.6378 13.6858 21.1911 13.6858H18.1446H16.4708V6.74614C16.4708 5.12326 15.2911 3.90077 13.7263 3.90077C12.9318 3.90077 12.1882 4.18744 11.6262 4.70866C11.057 5.2512 10.8825 5.72977 10.8825 6.74614V13.6858H9.19421V6.76036C9.19421 5.14695 7.9225 3.93157 6.23659 3.93157Z" fill="#0C419A"/>
</svg>
