<svg width="24" height="24" viewBox="0 0 24 24" fill="none" xmlns="http://www.w3.org/2000/svg">
    <defs>
        <clipPath id="clip0_21318_217853">
            <rect width="24" height="24" fill="white" transform="translate(0 0.5)"/>
        </clipPath>
    </defs>
    <g clip-path="url(#clip0_21318_217853)">
<path fill-rule="evenodd" clip-rule="evenodd" d="M20.5 7.35751V6.75C20.5 6.33579 20.1642 6 19.75 6L4.25 6C3.83579 6 3.5 6.33579 3.5 6.75V7.47826C3.54973 7.49429 3.59853 7.51579 3.64561 7.54297L11.9122 12.3157L20.5 7.35751ZM20.5 9.08956L12.3992 13.7666C12.2371 13.8601 12.0546 13.8864 11.8842 13.8539C11.7266 13.8744 11.5613 13.8451 11.4131 13.7596L3.5 9.19095L3.5 18.25C3.5 18.6642 3.83579 19 4.25 19H19.75C20.1642 19 20.5 18.6642 20.5 18.25V9.08956ZM22 6.75C22 5.50736 20.9926 4.5 19.75 4.5L4.25 4.5C3.00736 4.5 2 5.50736 2 6.75V18.25C2 19.4926 3.00736 20.5 4.25 20.5H19.75C20.9926 20.5 22 19.4926 22 18.25V6.75Z" fill="#495574"/>
</g>

</svg>
