<svg width="65" height="64" viewBox="0 0 65 64" fill="none" xmlns="http://www.w3.org/2000/svg">
<path d="M52.5197 41.3922C46.4458 45.2938 39.0247 47.6696 31.9279 48.1332C17.9871 49.043 5.47292 37.7474 3.9192 23.7068C3.18847 17.1009 5.62044 9.94516 11.2051 6.14566C15.3377 3.3334 20.3548 3.51841 24.7487 5.45367C28.4546 7.08607 31.4675 9.88918 35.0073 11.8087C40.4191 14.7436 46.3842 14.5997 52.0882 16.4429C55.2152 17.4532 58.632 19.4886 60.148 22.5799C61.5873 25.5144 61.5805 29.1227 60.4437 32.1926C59.009 36.0671 55.9763 39.1721 52.5197 41.3922Z" fill="#A0B2EC" fill-opacity="0.16"/>
<path d="M52.5385 26.6592C50.5929 24.2613 47.4761 22.9061 44.2764 22.6292C42.2452 22.4536 40.1147 22.6968 38.2578 23.6144C35.2137 25.1192 33.344 28.1502 30.9739 30.5499C28.14 33.4194 24.5231 35.4271 21.3531 37.9462C18.1836 40.465 15.3108 43.8247 15.0071 47.6982C14.8261 50 15.5942 52.2727 16.8913 54.1456C19.4185 57.795 23.9119 59.9365 28.5372 60.1872C41.6222 60.8966 53.5667 48.8098 54.8683 36.7147C55.2483 33.1817 54.7657 29.4042 52.5385 26.6592Z" fill="#A0B2EC" fill-opacity="0.16"/>
<path d="M32.5084 51.1308C30.8989 49.8644 29.3191 48.6437 27.7639 47.3933C23.6442 44.0818 19.5885 40.6931 15.9463 36.8813C14.4622 35.3276 13.0028 33.6967 11.8601 31.9032C9.89247 28.8118 9.68821 25.3695 10.676 21.9174C11.8611 17.7717 14.477 14.7743 18.7448 13.3594C23.3363 11.8365 28.4083 13.5021 31.4752 17.4467C31.8265 17.8985 32.1373 18.3801 32.5222 18.926C32.681 18.6892 32.8182 18.4851 32.9564 18.281C34.8332 15.4967 37.387 13.624 40.7864 13.0176C44.7898 12.3022 48.2178 13.5031 51.0627 16.2636C54.9012 19.9882 56.0094 26.2554 53.6974 31.0293C52.7866 32.9089 51.3913 34.4676 49.9634 35.9855C45.7992 40.4137 41.1229 44.3038 36.3726 48.1126C35.1204 49.1154 33.8425 50.0894 32.5084 51.1308Z" fill="#D81E7E"/>
<path opacity="0.2" fill-rule="evenodd" clip-rule="evenodd" d="M32.4826 24.3205C32.7997 24.3125 33.0749 24.5381 33.1293 24.8507L34.6887 33.8172L35.7539 31.4204C35.8603 31.1811 36.1017 31.0307 36.3635 31.0408C36.6252 31.0509 36.8543 31.2195 36.9419 31.4663L38.2811 35.2404L39.6506 33.2389C39.7698 33.0646 39.9675 32.9603 40.1787 32.9603H43.3787C43.7322 32.9603 44.0187 33.2469 44.0187 33.6003C44.0187 33.9538 43.7322 34.2403 43.3787 34.2403H40.5163L38.6269 37.0017C38.491 37.2005 38.2549 37.3061 38.0161 37.275C37.7773 37.2438 37.5761 37.0813 37.4956 36.8543L36.2721 33.4062L35.0036 36.2602C34.8892 36.5177 34.6198 36.67 34.3402 36.6355C34.0606 36.6009 33.8365 36.3875 33.7882 36.11L32.6093 29.3312L31.374 39.438C31.3359 39.7502 31.0764 39.9885 30.762 39.9999C30.4476 40.0113 30.1715 39.7925 30.1108 39.4838L28.5527 31.5635L27.4712 33.7265C27.3628 33.9434 27.1412 34.0803 26.8987 34.0803H23.8587C23.5053 34.0803 23.2188 33.7938 23.2188 33.4403C23.2188 33.0869 23.5053 32.8003 23.8587 32.8003H26.5032L28.2463 29.3141C28.3688 29.0692 28.6334 28.9293 28.9047 28.9661C29.176 29.0029 29.3939 29.2081 29.4467 29.4768L30.591 35.2937L31.8635 24.8827C31.902 24.5677 32.1654 24.3285 32.4826 24.3205Z" fill="#262939"/>
<path fill-rule="evenodd" clip-rule="evenodd" d="M32.1623 24.0002C32.4794 23.9922 32.7546 24.2178 32.809 24.5303L34.3684 33.4968L35.4336 31.1001C35.54 30.8607 35.7814 30.7104 36.0431 30.7205C36.3049 30.7306 36.534 30.8991 36.6216 31.146L37.9608 34.9201L39.3302 32.9186C39.4495 32.7443 39.6472 32.64 39.8584 32.64H43.0584C43.4119 32.64 43.6984 32.9265 43.6984 33.28C43.6984 33.6335 43.4119 33.92 43.0584 33.92H40.196L38.3066 36.6814C38.1706 36.8802 37.9346 36.9857 37.6958 36.9546C37.457 36.9235 37.2558 36.761 37.1753 36.534L35.9517 33.0859L34.6833 35.9399C34.5689 36.1974 34.2995 36.3497 34.0199 36.3152C33.7403 36.2806 33.5162 36.0672 33.4679 35.7897L32.289 29.0109L31.0537 39.1176C31.0155 39.4299 30.7561 39.6682 30.4417 39.6796C30.1273 39.691 29.8512 39.4722 29.7905 39.1635L28.2324 31.2432L27.1509 33.4062C27.0425 33.623 26.8209 33.76 26.5784 33.76H23.5384C23.185 33.76 22.8984 33.4735 22.8984 33.12C22.8984 32.7665 23.185 32.48 23.5384 32.48H26.1829L27.926 28.9938C28.0484 28.7489 28.3131 28.609 28.5844 28.6458C28.8557 28.6826 29.0736 28.8878 29.1264 29.1565L30.2707 34.9734L31.5432 24.5624C31.5817 24.2474 31.8451 24.0082 32.1623 24.0002Z" fill="white"/>
<path fill-rule="evenodd" clip-rule="evenodd" d="M13.8729 32.3268C13.3722 30.9428 13.0992 29.4498 13.0992 27.8932C13.0992 20.6922 18.9406 14.8547 26.1462 14.8547C26.2628 14.8547 26.379 14.8562 26.4948 14.8592C25.3282 14.4494 24.0735 14.2266 22.7666 14.2266C16.5593 14.2266 11.5273 19.2553 11.5273 25.4585C11.5273 28.0454 12.4024 30.428 13.8729 32.3268Z" fill="white" fill-opacity="0.3"/>
<path d="M52.1923 43.7416L57.7361 49.1893C58.1103 49.557 58.1129 50.1593 57.7419 50.5303L56.806 51.4663C56.4424 51.8298 55.8547 51.8356 55.484 51.4793L49.7909 46.006L51.0564 45.1557C51.143 45.0975 51.2194 45.0254 51.2824 44.9423L52.1923 43.7416Z" fill="#0C419A"/>
<path fill-rule="evenodd" clip-rule="evenodd" d="M56.0436 37.0804C56.0436 44.1125 50.343 49.8132 43.3109 49.8132C36.2788 49.8132 30.5781 44.1125 30.5781 37.0804C30.5781 30.0483 36.2788 24.3477 43.3109 24.3477C50.343 24.3477 56.0436 30.0483 56.0436 37.0804ZM54.308 37.0798C54.308 43.1528 49.3849 48.076 43.3118 48.076C37.2388 48.076 32.3156 43.1528 32.3156 37.0798C32.3156 31.0068 37.2388 26.0836 43.3118 26.0836C49.3849 26.0836 54.308 31.0068 54.308 37.0798Z" fill="#0C419A"/>
<path d="M43.3674 25.4286C49.8355 25.4286 55.0792 30.6722 55.0792 37.1401C55.0792 43.608 49.8355 48.8516 43.3674 48.8516C36.9 48.8516 31.6562 43.608 31.6562 37.1401C31.6562 30.6722 36.9 25.4286 43.3674 25.4286Z" fill="white" fill-opacity="0.5"/>
<path d="M43.3087 26.5069C49.149 26.5069 53.8837 31.2415 53.8837 37.0816C53.8837 42.9216 49.149 47.6562 43.3087 47.6562C37.4691 47.6562 32.7344 42.9216 32.7344 37.0816C32.7344 31.2415 37.4691 26.5069 43.3087 26.5069Z" fill="#A0B2EC" fill-opacity="0.4"/>
<path opacity="0.6" fill-rule="evenodd" clip-rule="evenodd" d="M36.0783 35.7473C35.0702 39.0149 35.839 42.4491 37.9465 44.7268C34.7412 42.4905 33.2392 38.4712 34.1907 34.6714L36.0783 35.7473ZM36.917 33.7874C39.2399 29.6252 44.1376 27.7595 48.2286 29.6157C50.0239 30.4303 51.3822 31.834 52.2057 33.5324C51.3454 31.2971 49.6426 29.3864 47.2918 28.3198C42.6627 26.2195 37.2261 28.1646 34.9427 32.6621L36.917 33.7874Z" fill="white"/>
</svg>
