<svg width="24" height="24" viewBox="0 0 24 24" fill="none" xmlns="http://www.w3.org/2000/svg">
<g clip-path="url(#clip0_21318_203057)">
    <defs>
    <clipPath id="clip0_21318_203057">
        <rect width="24" height="24" fill="white" transform="translate(0 0.5)"/>
    </clipPath>
</defs>
    <path fill-rule="evenodd" clip-rule="evenodd" d="M19.75 4.5C20.9926 4.5 22 5.50736 22 6.75V18.25C22 19.4926 20.9926 20.5 19.75 20.5L4.25 20.5C3.00736 20.5 2 19.4926 2 18.25V6.75C2 5.50736 3.00736 4.5 4.25 4.5H19.75ZM3.36819 8.24847C3.57529 7.88976 4.03399 7.76685 4.39271 7.97396L11.9135 12.3161L19.6001 7.87824C19.9588 7.67113 20.4175 7.79404 20.6246 8.15276C20.8317 8.51148 20.7088 8.97017 20.3501 9.17728L12.4006 13.7669C12.238 13.8608 12.0549 13.8869 11.8839 13.8539C11.7266 13.8742 11.5615 13.8449 11.4135 13.7595L3.64271 9.27299C3.28399 9.06589 3.16108 8.60719 3.36819 8.24847Z" fill="#0C419A"/>
</g>
</svg>
