<svg width="24" height="24" viewBox="0 0 24 24" fill="none" xmlns="http://www.w3.org/2000/svg">
<mask id="path-1-inside-1_21318_217861" fill="white">
<path fill-rule="evenodd" clip-rule="evenodd" d="M3.4293 13.1216C2.54038 12.1269 2 10.814 2 9.375C2 6.2684 4.5184 3.75 7.625 3.75C9.39204 3.75 10.9688 4.56479 12 5.83917C13.0312 4.56479 14.608 3.75 16.375 3.75C19.4816 3.75 22 6.2684 22 9.375C22 10.8141 21.4596 12.1269 20.5707 13.1217L20.5935 13.125L11.9999 21.5L3.40625 13.125L3.4293 13.1216Z"/>
</mask>
<path d="M3.4293 13.1216L3.60923 14.3586L5.91173 14.0237L4.36138 12.2887L3.4293 13.1216ZM12 5.83917L11.0283 6.62547L12 7.8263L12.9717 6.62547L12 5.83917ZM20.5707 13.1217L19.6386 12.2888L18.0882 14.0237L20.3907 14.3587L20.5707 13.1217ZM20.5935 13.125L21.4659 14.0202L23.2796 12.2526L20.7734 11.888L20.5935 13.125ZM11.9999 21.5L11.1274 22.3952L11.9999 23.2454L12.8723 22.3952L11.9999 21.5ZM3.40625 13.125L3.22632 11.888L0.720069 12.2526L2.53383 14.0202L3.40625 13.125ZM4.36138 12.2887C3.66927 11.5142 3.25 10.4951 3.25 9.375H0.75C0.75 11.133 1.4115 12.7395 2.49722 13.9545L4.36138 12.2887ZM3.25 9.375C3.25 6.95875 5.20875 5 7.625 5V2.5C3.82804 2.5 0.75 5.57804 0.75 9.375H3.25ZM7.625 5C8.99884 5 10.2242 5.63178 11.0283 6.62547L12.9717 5.05286C11.7134 3.4978 9.78524 2.5 7.625 2.5V5ZM12.9717 6.62547C13.7758 5.63178 15.0012 5 16.375 5V2.5C14.2148 2.5 12.2866 3.4978 11.0283 5.05286L12.9717 6.62547ZM16.375 5C18.7912 5 20.75 6.95875 20.75 9.375H23.25C23.25 5.57804 20.172 2.5 16.375 2.5V5ZM20.75 9.375C20.75 10.4951 20.3307 11.5142 19.6386 12.2888L21.5027 13.9546C22.5885 12.7396 23.25 11.1331 23.25 9.375H20.75ZM20.3907 14.3587L20.4135 14.362L20.7734 11.888L20.7506 11.8847L20.3907 14.3587ZM19.7211 12.2298L11.1274 20.6048L12.8723 22.3952L21.4659 14.0202L19.7211 12.2298ZM12.8723 20.6048L4.27867 12.2298L2.53383 14.0202L11.1274 22.3952L12.8723 20.6048ZM3.58618 14.362L3.60923 14.3586L3.24937 11.8847L3.22632 11.888L3.58618 14.362Z" fill="#495574" mask="url(#path-1-inside-1_21318_217861)"/>
<path d="M3.5625 12.3558H9.08169C9.33188 12.3558 9.55797 12.505 9.65635 12.735L10.7186 15.2188C10.9348 15.7244 11.6516 15.7244 11.8679 15.2188L14.0597 10.0937C14.2759 9.58805 14.9928 9.58805 15.209 10.0937L16.0142 11.9765C16.1126 12.2066 16.3387 12.3558 16.5889 12.3558H20.4375" stroke="#495574" stroke-width="1.25"/>
</svg>
