<svg width="24" height="24" viewBox="0 0 24 24" fill="none" xmlns="http://www.w3.org/2000/svg">
    <defs>
        <clipPath id="clip0_21317_203019">
            <rect width="20" height="20" fill="white" transform="translate(2 2.7627)"/>
        </clipPath>
    </defs>
    <g clip-path="url(#clip0_21317_203019)">
<mask id="path-1-inside-1_21317_203019" fill="white">
<path fill-rule="evenodd" clip-rule="evenodd" d="M3.30752 13.2435C3.34735 13.2911 3.38795 13.3381 3.4293 13.3843L3.40625 13.3877L11.9999 21.7627L20.5935 13.3877L20.5707 13.3844C20.612 13.3381 20.6526 13.2911 20.6925 13.2435H16.5889C16.0885 13.2435 15.6363 12.9451 15.4396 12.485L14.6343 10.6022L12.4425 15.7272C12.01 16.7386 10.5764 16.7386 10.1439 15.7272L9.08169 13.2435H3.30752ZM2.51557 11.9935H9.08169C9.58208 11.9935 10.0342 12.2919 10.231 12.7519L11.2932 15.2357L13.485 10.1106C13.9175 9.09934 15.3512 9.09933 15.7837 10.1106L16.5889 11.9935H21.4844C21.8154 11.2769 22 10.4788 22 9.6377C22 6.53109 19.4816 4.0127 16.375 4.0127C14.608 4.0127 13.0312 4.82749 12 6.10186C10.9688 4.82749 9.39204 4.0127 7.625 4.0127C4.5184 4.0127 2 6.53109 2 9.6377C2 10.4788 2.18463 11.2769 2.51557 11.9935Z"/>
</mask>
<path fill-rule="evenodd" clip-rule="evenodd" d="M3.30752 13.2435C3.34735 13.2911 3.38795 13.3381 3.4293 13.3843L3.40625 13.3877L11.9999 21.7627L20.5935 13.3877L20.5707 13.3844C20.612 13.3381 20.6526 13.2911 20.6925 13.2435H16.5889C16.0885 13.2435 15.6363 12.9451 15.4396 12.485L14.6343 10.6022L12.4425 15.7272C12.01 16.7386 10.5764 16.7386 10.1439 15.7272L9.08169 13.2435H3.30752ZM2.51557 11.9935H9.08169C9.58208 11.9935 10.0342 12.2919 10.231 12.7519L11.2932 15.2357L13.485 10.1106C13.9175 9.09934 15.3512 9.09933 15.7837 10.1106L16.5889 11.9935H21.4844C21.8154 11.2769 22 10.4788 22 9.6377C22 6.53109 19.4816 4.0127 16.375 4.0127C14.608 4.0127 13.0312 4.82749 12 6.10186C10.9688 4.82749 9.39204 4.0127 7.625 4.0127C4.5184 4.0127 2 6.53109 2 9.6377C2 10.4788 2.18463 11.2769 2.51557 11.9935Z" fill="#0C419A"/>
<path d="M3.4293 13.3843L3.60923 14.6213L5.91174 14.2864L4.36138 12.5514L3.4293 13.3843ZM3.30752 13.2435V11.9935H0.633155L2.34853 14.0452L3.30752 13.2435ZM3.40625 13.3877L3.22632 12.1507L0.720069 12.5153L2.53383 14.2829L3.40625 13.3877ZM11.9999 21.7627L11.1274 22.6579L11.9999 23.5081L12.8723 22.6579L11.9999 21.7627ZM20.5935 13.3877L21.4659 14.2829L23.2796 12.5153L20.7734 12.1507L20.5935 13.3877ZM20.5707 13.3844L19.6386 12.5515L18.0883 14.2864L20.3907 14.6214L20.5707 13.3844ZM20.6925 13.2435L21.6515 14.0452L23.3669 11.9935H20.6925V13.2435ZM15.4396 12.485L14.2902 12.9765L14.2902 12.9765L15.4396 12.485ZM14.6343 10.6022L15.7837 10.1106L14.6343 7.42323L13.485 10.1106L14.6343 10.6022ZM12.4425 15.7272L13.5918 16.2188L13.5918 16.2188L12.4425 15.7272ZM10.1439 15.7272L11.2932 15.2357L11.2932 15.2357L10.1439 15.7272ZM9.08169 13.2435L10.231 12.7519L9.90663 11.9935H9.08169V13.2435ZM2.51557 11.9935L1.38075 12.5176L1.71599 13.2435H2.51557V11.9935ZM10.231 12.7519L9.08169 13.2435L9.08169 13.2435L10.231 12.7519ZM11.2932 15.2357L10.1439 15.7272L11.2932 18.4147L12.4425 15.7272L11.2932 15.2357ZM13.485 10.1106L14.6343 10.6022L14.6343 10.6022L13.485 10.1106ZM15.7837 10.1106L16.933 9.61913L16.933 9.61912L15.7837 10.1106ZM16.5889 11.9935L15.4396 12.485L15.7639 13.2435H16.5889V11.9935ZM21.4844 11.9935V13.2435H22.284L22.6192 12.5176L21.4844 11.9935ZM12 6.10186L11.0283 6.88817L12 8.089L12.9717 6.88817L12 6.10186ZM4.36138 12.5514C4.32916 12.5154 4.29754 12.4788 4.26652 12.4417L2.34853 14.0452C2.39716 14.1034 2.44673 14.1607 2.49722 14.2172L4.36138 12.5514ZM3.58618 14.6247L3.60923 14.6213L3.24937 12.1474L3.22632 12.1507L3.58618 14.6247ZM12.8723 20.8675L4.27867 12.4925L2.53383 14.2829L11.1274 22.6579L12.8723 20.8675ZM19.7211 12.4925L11.1274 20.8675L12.8723 22.6579L21.4659 14.2829L19.7211 12.4925ZM20.3907 14.6214L20.4135 14.6247L20.7734 12.1507L20.7506 12.1474L20.3907 14.6214ZM19.7335 12.4417C19.7025 12.4788 19.6708 12.5154 19.6386 12.5515L21.5028 14.2173C21.5532 14.1608 21.6028 14.1034 21.6515 14.0452L19.7335 12.4417ZM20.6925 11.9935H16.5889V14.4935H20.6925V11.9935ZM16.5889 11.9935L16.5889 11.9935L14.2902 12.9765C14.6838 13.8966 15.5881 14.4935 16.5889 14.4935V11.9935ZM16.5889 11.9935L15.7837 10.1106L13.485 11.0937L14.2902 12.9765L16.5889 11.9935ZM13.485 10.1106L11.2932 15.2357L13.5918 16.2188L15.7837 11.0937L13.485 10.1106ZM11.2932 15.2357V15.2357L8.9946 16.2188C9.8596 18.2414 12.7268 18.2414 13.5918 16.2188L11.2932 15.2357ZM11.2932 15.2357L10.231 12.7519L7.93238 13.735L8.9946 16.2188L11.2932 15.2357ZM9.08169 11.9935H3.30752V14.4935H9.08169V11.9935ZM2.51557 13.2435H9.08169V10.7435H2.51557V13.2435ZM9.08169 13.2435L9.08169 13.2435L11.3803 12.2604C10.9868 11.3403 10.0825 10.7435 9.08169 10.7435V13.2435ZM9.08169 13.2435L10.1439 15.7272L12.4425 14.7442L11.3803 12.2604L9.08169 13.2435ZM12.4425 15.7272L14.6343 10.6022L12.3357 9.61913L10.1439 14.7442L12.4425 15.7272ZM14.6343 10.6022H14.6343L16.933 9.61912C16.068 7.5965 13.2007 7.59651 12.3357 9.61913L14.6343 10.6022ZM14.6343 10.6022L15.4396 12.485L17.7382 11.5019L16.933 9.61913L14.6343 10.6022ZM16.5889 13.2435H21.4844V10.7435H16.5889V13.2435ZM20.75 9.6377C20.75 10.2942 20.6062 10.9137 20.3496 11.4694L22.6192 12.5176C23.0245 11.64 23.25 10.6635 23.25 9.6377H20.75ZM16.375 5.2627C18.7912 5.2627 20.75 7.22145 20.75 9.6377H23.25C23.25 5.84074 20.172 2.7627 16.375 2.7627V5.2627ZM12.9717 6.88817C13.7758 5.89448 15.0012 5.2627 16.375 5.2627V2.7627C14.2148 2.7627 12.2866 3.7605 11.0283 5.31556L12.9717 6.88817ZM7.625 5.2627C8.99884 5.2627 10.2242 5.89448 11.0283 6.88817L12.9717 5.31556C11.7134 3.7605 9.78524 2.7627 7.625 2.7627V5.2627ZM3.25 9.6377C3.25 7.22145 5.20875 5.2627 7.625 5.2627V2.7627C3.82804 2.7627 0.75 5.84074 0.75 9.6377H3.25ZM3.6504 11.4694C3.39379 10.9137 3.25 10.2942 3.25 9.6377H0.75C0.75 10.6635 0.975473 11.64 1.38075 12.5176L3.6504 11.4694Z" fill="#0C419A" mask="url(#path-1-inside-1_21317_203019)"/>
</g>
</svg>
