<svg width="24" height="25" viewBox="0 0 24 25" fill="none" xmlns="http://www.w3.org/2000/svg">
<path d="M18 14.5C16.8954 14.5 16 13.6046 16 12.5C16 11.3954 16.8954 10.5 18 10.5C19.1046 10.5 20 11.3954 20 12.5C20 13.0304 19.7893 13.5391 19.4142 13.9142C19.0391 14.2893 18.5304 14.5 18 14.5ZM12 14.5C10.8954 14.5 10 13.6046 10 12.5C10 11.3954 10.8954 10.5 12 10.5C13.1046 10.5 14 11.3954 14 12.5C14 13.0304 13.7893 13.5391 13.4142 13.9142C13.0391 14.2893 12.5304 14.5 12 14.5ZM6 14.5C4.89543 14.5 4 13.6046 4 12.5C4 11.3954 4.89543 10.5 6 10.5C7.10457 10.5 8 11.3954 8 12.5C8 13.0304 7.78929 13.5391 7.41421 13.9142C7.03914 14.2893 6.53043 14.5 6 14.5Z" fill="url(#paint0_linear_15821_159408)"/>
<defs>
<linearGradient id="paint0_linear_15821_159408" x1="4" y1="10.5" x2="20.0572" y2="11.7846" gradientUnits="userSpaceOnUse">
<stop stop-color="#0C419A"/>
<stop offset="1" stop-color="#1058D1"/>
</linearGradient>
</defs>
</svg>
