<svg width="14" height="14" viewBox="0 0 14 14" fill="none" xmlns="http://www.w3.org/2000/svg">
<path d="M7.00065 12.8327C6.35632 12.8327 5.83398 12.3103 5.83398 11.666H8.16732C8.16732 12.3103 7.64498 12.8327 7.00065 12.8327ZM11.6673 11.0827H2.33398V9.91602L3.50065 9.33268V6.12435C3.50065 4.10485 4.32957 2.79527 5.83398 2.43768V1.16602H8.16732V2.43768C9.67173 2.79468 10.5007 4.10368 10.5007 6.12435V9.33268L11.6673 9.91602V11.0827ZM7.00065 3.35352C6.28879 3.30755 5.60228 3.62609 5.17773 4.19935C4.81464 4.77367 4.63648 5.44557 4.66732 6.12435V9.91602H9.33398V6.12435C9.36478 5.44558 9.18663 4.77369 8.82357 4.19935C8.39903 3.62609 7.71251 3.30755 7.00065 3.35352Z" fill="white"/>
</svg>
