<svg width="12" height="12" viewBox="0 0 12 12" fill="none" xmlns="http://www.w3.org/2000/svg">
<path d="M6.66667 12H1.33333C0.596954 12 0 11.403 0 10.6667V1.33333C0 0.596954 0.596954 0 1.33333 0H10.6667C11.403 0 12 0.596954 12 1.33333V6.66667C11.9997 6.67437 11.9984 6.682 11.996 6.68933C11.9941 6.69542 11.9928 6.70167 11.992 6.708C11.9882 6.76679 11.9768 6.82484 11.958 6.88067L11.952 6.89867C11.9475 6.91372 11.9419 6.92842 11.9353 6.94267C11.9031 7.0153 11.8579 7.08148 11.802 7.138L7.13533 11.8047C7.01099 11.929 6.84254 11.9993 6.66667 12ZM1.33333 1.33333V10.6667H6V6.66667C6 6.29848 6.29848 6 6.66667 6H10.6667V1.33333H1.33333ZM7.33333 7.33333V9.72467L9.724 7.33333H7.33333Z" fill="#495574"/>
</svg>
