<svg width="16" height="17" viewBox="0 0 16 17" fill="none" xmlns="http://www.w3.org/2000/svg">
<path d="M7.9989 15.1664C5.30127 15.1679 2.86856 13.5436 1.83601 11.0514C0.803457 8.55922 1.37459 5.69038 3.2829 3.78366C4.96776 2.0988 7.42351 1.44078 9.72507 2.05749C12.0266 2.67419 13.8244 4.47192 14.4411 6.77349C15.0578 9.07505 14.3998 11.5308 12.7149 13.2157C11.4665 14.4697 9.76834 15.1721 7.9989 15.1664ZM2.66557 8.61433C2.69711 11.5485 5.09297 13.906 8.02726 13.8903C10.9615 13.8745 13.3319 11.4913 13.3319 8.55699C13.3319 5.62266 10.9615 3.23951 8.02726 3.22366C5.09297 3.20797 2.69711 5.5655 2.66557 8.49966V8.61433ZM6.27156 11.1663L5.33223 10.2263L7.0589 8.49966L5.33223 6.77299L6.27223 5.83299L7.9989 7.55966L9.72556 5.83299L10.6656 6.77299L8.9389 8.49966L10.6656 10.2263L9.72623 11.1663L7.9989 9.43966L6.27223 11.1663H6.27156Z" fill="#495574"/>
</svg>
