<svg width="12" height="12" viewBox="0 0 12 12" fill="none" xmlns="http://www.w3.org/2000/svg">
<path d="M5.99815 12C4.40691 12.0014 2.88042 11.3698 1.75524 10.2443C0.630057 9.11886 -0.00142919 7.59199 2.42889e-06 6.00035V5.88036C0.0490601 3.47583 1.52821 1.33271 3.75866 0.434511C5.98911 -0.463693 8.54021 0.0564328 10.2412 1.7562C11.9582 3.47215 12.4721 6.05395 11.543 8.29679C10.614 10.5396 8.42527 12.0014 5.99815 12ZM5.99816 6.8463L7.37462 8.22311C7.60821 8.45675 7.98699 8.45675 8.22057 8.22311C8.45407 7.98955 8.45407 7.61093 8.22057 7.37737L6.84389 6.00035L8.22057 4.62333C8.45407 4.38977 8.45407 4.01115 8.22057 3.77759C7.98699 3.54395 7.60821 3.54395 7.37462 3.77759L5.99816 5.1544L4.62169 3.77759C4.3881 3.54395 4.00933 3.54395 3.77574 3.77759C3.54224 4.01115 3.54224 4.38977 3.77574 4.62333L5.15242 6.00035L3.77574 7.37737C3.54224 7.61093 3.54224 7.98955 3.77574 8.22311C4.00933 8.45675 4.3881 8.45675 4.62169 8.22311L5.99816 6.8463Z" fill="#C74E5A"/>
</svg>
