<svg width="24" height="24" viewBox="0 0 24 24" fill="none" xmlns="http://www.w3.org/2000/svg">
    <defs>
        <clipPath id="clip0_22284_84000">
            <rect width="24" height="24" fill="white" transform="translate(0 0.5)"/>
        </clipPath>
    </defs>
    <g clip-path="url(#clip0_22284_84000)">
<mask id="path-1-inside-1_22284_84000" fill="white">
<path fill-rule="evenodd" clip-rule="evenodd" d="M12 22.5C17.5228 22.5 22 18.0228 22 12.5C22 6.97715 17.5228 2.5 12 2.5C6.47715 2.5 2 6.97715 2 12.5C2 18.0228 6.47715 22.5 12 22.5ZM7.625 13.75C8.31536 13.75 8.875 13.1904 8.875 12.5C8.875 11.8096 8.31536 11.25 7.625 11.25C6.93464 11.25 6.375 11.8096 6.375 12.5C6.375 13.1904 6.93464 13.75 7.625 13.75ZM13.25 12.5C13.25 13.1904 12.6904 13.75 12 13.75C11.3096 13.75 10.75 13.1904 10.75 12.5C10.75 11.8096 11.3096 11.25 12 11.25C12.6904 11.25 13.25 11.8096 13.25 12.5ZM16.375 13.75C17.0654 13.75 17.625 13.1904 17.625 12.5C17.625 11.8096 17.0654 11.25 16.375 11.25C15.6846 11.25 15.125 11.8096 15.125 12.5C15.125 13.1904 15.6846 13.75 16.375 13.75Z"/>
</mask>
<path fill-rule="evenodd" clip-rule="evenodd" d="M12 22.5C17.5228 22.5 22 18.0228 22 12.5C22 6.97715 17.5228 2.5 12 2.5C6.47715 2.5 2 6.97715 2 12.5C2 18.0228 6.47715 22.5 12 22.5ZM7.625 13.75C8.31536 13.75 8.875 13.1904 8.875 12.5C8.875 11.8096 8.31536 11.25 7.625 11.25C6.93464 11.25 6.375 11.8096 6.375 12.5C6.375 13.1904 6.93464 13.75 7.625 13.75ZM13.25 12.5C13.25 13.1904 12.6904 13.75 12 13.75C11.3096 13.75 10.75 13.1904 10.75 12.5C10.75 11.8096 11.3096 11.25 12 11.25C12.6904 11.25 13.25 11.8096 13.25 12.5ZM16.375 13.75C17.0654 13.75 17.625 13.1904 17.625 12.5C17.625 11.8096 17.0654 11.25 16.375 11.25C15.6846 11.25 15.125 11.8096 15.125 12.5C15.125 13.1904 15.6846 13.75 16.375 13.75Z" fill="#0C419A"/>
<path d="M20.5 12.5C20.5 17.1944 16.6944 21 12 21V24C18.3513 24 23.5 18.8513 23.5 12.5H20.5ZM12 4C16.6944 4 20.5 7.80558 20.5 12.5H23.5C23.5 6.14873 18.3513 1 12 1V4ZM3.5 12.5C3.5 7.80558 7.30558 4 12 4V1C5.64873 1 0.5 6.14873 0.5 12.5H3.5ZM12 21C7.30558 21 3.5 17.1944 3.5 12.5H0.5C0.5 18.8513 5.64873 24 12 24V21ZM7.375 12.5C7.375 12.3619 7.48693 12.25 7.625 12.25V15.25C9.14378 15.25 10.375 14.0188 10.375 12.5H7.375ZM7.625 12.75C7.48693 12.75 7.375 12.6381 7.375 12.5H10.375C10.375 10.9812 9.14378 9.75 7.625 9.75V12.75ZM7.875 12.5C7.875 12.6381 7.76307 12.75 7.625 12.75V9.75C6.10622 9.75 4.875 10.9812 4.875 12.5H7.875ZM7.625 12.25C7.76307 12.25 7.875 12.3619 7.875 12.5H4.875C4.875 14.0188 6.10622 15.25 7.625 15.25V12.25ZM12 15.25C13.5188 15.25 14.75 14.0188 14.75 12.5H11.75C11.75 12.3619 11.8619 12.25 12 12.25V15.25ZM9.25 12.5C9.25 14.0188 10.4812 15.25 12 15.25V12.25C12.1381 12.25 12.25 12.3619 12.25 12.5H9.25ZM12 9.75C10.4812 9.75 9.25 10.9812 9.25 12.5H12.25C12.25 12.6381 12.1381 12.75 12 12.75V9.75ZM14.75 12.5C14.75 10.9812 13.5188 9.75 12 9.75V12.75C11.8619 12.75 11.75 12.6381 11.75 12.5H14.75ZM16.125 12.5C16.125 12.3619 16.2369 12.25 16.375 12.25V15.25C17.8938 15.25 19.125 14.0188 19.125 12.5H16.125ZM16.375 12.75C16.2369 12.75 16.125 12.6381 16.125 12.5H19.125C19.125 10.9812 17.8938 9.75 16.375 9.75V12.75ZM16.625 12.5C16.625 12.6381 16.5131 12.75 16.375 12.75V9.75C14.8562 9.75 13.625 10.9812 13.625 12.5H16.625ZM16.375 12.25C16.5131 12.25 16.625 12.3619 16.625 12.5H13.625C13.625 14.0188 14.8562 15.25 16.375 15.25V12.25Z" fill="#0C419A" mask="url(#path-1-inside-1_22284_84000)"/>
</g>

</svg>
