<svg width="14" height="15" viewBox="0 0 14 15" fill="none" xmlns="http://www.w3.org/2000/svg">
<path fill-rule="evenodd" clip-rule="evenodd" d="M7.96354 1.04858C8.22392 0.788417 8.64588 0.788506 8.90615 1.04878L13.1488 5.29142C13.2738 5.41648 13.3441 5.5861 13.3441 5.76296C13.344 5.93982 13.2737 6.10942 13.1486 6.23443L12.3811 7.00123C12.2561 7.12613 12.0866 7.19629 11.9099 7.19629H10.7719L9.27677 8.69138L9.27677 12.1865C9.27677 12.4561 9.11434 12.6992 8.86522 12.8024C8.61611 12.9056 8.32936 12.8485 8.13869 12.6579L5.31027 9.82946L1.16932 13.9704C0.908972 14.2308 0.486862 14.2308 0.226512 13.9704C-0.0338374 13.7101 -0.0338374 13.2879 0.226512 13.0276L4.36746 8.88665L1.53903 6.05822C1.34837 5.86756 1.29133 5.58081 1.39452 5.33169C1.4977 5.08258 1.74079 4.92015 2.01044 4.92015L5.50553 4.92015L7.00062 3.42506V2.28698C7.00062 2.11008 7.07094 1.94042 7.19609 1.81538L7.96354 1.04858ZM8.33396 2.56329V3.7012C8.33396 3.87801 8.26372 4.04758 8.13869 4.1726L6.25308 6.05822C6.12805 6.18324 5.95848 6.25348 5.78167 6.25348H3.61991L7.94343 10.577L7.94343 8.41524C7.94343 8.23843 8.01367 8.06886 8.1387 7.94384L10.0243 6.05822C10.1493 5.9332 10.3189 5.86296 10.4957 5.86296L11.634 5.86296L11.7344 5.76262L8.43454 2.46279L8.33396 2.56329Z" fill="#0C419A"/>
</svg>
