<svg xmlns="http://www.w3.org/2000/svg" width="25" height="24" fill="none"><path fill="#495574" d="M4.252 16.01c-.136.535-.57.99-1.123.99-.552 0-1.009-.451-.918-.996A6.002 6.002 0 0 1 8.13 11c3.128 0 5.25 1.313 5.48 4.246a.703.703 0 0 1-.493.712c-.486.162-.983-.208-1.135-.697C11.51 13.743 9.963 13 8.13 13a4.002 4.002 0 0 0-3.877 3.01ZM8.13 10a4 4 0 1 1 0-8 4 4 0 0 1 0 8Zm0-6a2 2 0 1 0 2 2.09v.4V6a2 2 0 0 0-2-2Z"/><path fill="#F0B323" d="M16.127 21.997a5.993 5.993 0 0 1-5.998-5.999v-.12a6.001 6.001 0 1 1 11.543 2.416 5.998 5.998 0 0 1-5.545 3.703Z"/><path fill="#fff" d="M16.001 18.997c-1.586 0-2.872-1.243-2.872-2.778 0-1.534 1.286-2.778 2.872-2.778 1.586 0 2.872 1.244 2.872 2.778-.002 1.534-1.286 2.777-2.872 2.778Zm0-4.861c-1.19 0-2.154.933-2.154 2.083 0 1.151.964 2.084 2.154 2.084s2.154-.933 2.154-2.084c-.001-1.15-.965-2.082-2.154-2.083Zm.36 2.43h-.719V14.83h.718v1.737Zm2.258-2.185-.718-.694.508-.491.718.694-.507.49v.001Zm-1.54-1.287h-2.155v-.695h2.154v.695Z"/></svg>