<svg width="24" height="24" viewBox="0 0 24 24" fill="none" xmlns="http://www.w3.org/2000/svg">
<path d="M9.57097 17.1519L2.5434 12.1058C2.37787 12.008 2.2407 11.8687 2.14541 11.7017C2.05012 11.5347 2 11.3458 2 11.1535C2 10.9612 2.05012 10.7723 2.14541 10.6053C2.2407 10.4383 2.37787 10.299 2.5434 10.2012L9.57097 5.15206C9.7385 5.05353 9.92911 5.00107 10.1235 5.00002C10.3178 4.99896 10.509 5.04935 10.6776 5.14606C10.8461 5.24277 10.9861 5.38237 11.0833 5.55067C11.1805 5.71898 11.2314 5.91 11.2309 6.10435V8.07509C13.5386 8.07509 20.4616 8.07509 22 20.3826C18.1539 13.4596 11.2309 14.2288 11.2309 14.2288V16.1996C11.2309 17.0611 10.2987 17.5811 9.57097 17.1534V17.1519Z" fill="white"/>
</svg>
