<svg width="24" height="24" viewBox="0 0 24 24" fill="none" xmlns="http://www.w3.org/2000/svg">
<path fill-rule="evenodd" clip-rule="evenodd" d="M3.18783 11.003C3.18783 11.1984 3.24213 11.3899 3.34451 11.5555C3.44722 11.7212 3.59011 11.8575 3.75957 11.9514L9 15.4427C8.93922 15.5644 8.85485 15.6725 8.75191 15.7605C8.64898 15.8485 8.52959 15.9146 8.40088 15.9548C8.27217 15.995 8.13678 16.0086 8.00277 15.9947C7.86877 15.9808 7.73891 15.9397 7.62094 15.8738L1.47542 11.7738C1.33329 11.6962 1.21338 11.5827 1.12731 11.4443C1.04414 11.311 1 11.1566 1 10.9989C1 10.8413 1.04414 10.6868 1.12731 10.5535C1.21356 10.4157 1.33345 10.3027 1.47542 10.2254L7.62094 6.12131C7.77014 6.04164 7.93627 6 8.10495 6C8.27363 6 8.43976 6.04164 8.58896 6.12131C8.73338 6.19761 8.85566 6.31069 8.94377 6.44943C8.96485 6.48382 8.98364 6.5196 9 6.55654L3.75957 10.0546C3.59039 10.1489 3.44759 10.2851 3.34451 10.4505C3.24213 10.6161 3.18783 10.8076 3.18783 11.003ZM5.46189 11.6432L11.4353 15.5797V15.5809C12.0539 15.9145 12.8463 15.5089 12.8463 14.8368V13.2994C12.8463 13.2994 18.7308 12.6993 22 18.1C20.6923 8.49886 14.8078 8.49886 12.8463 8.49886V6.96148C12.8467 6.80987 12.8034 6.66085 12.7208 6.52956C12.6382 6.39826 12.5192 6.28936 12.3759 6.21392C12.2326 6.13847 12.0701 6.09917 11.9049 6.09999C11.7397 6.10081 11.5777 6.14173 11.4353 6.2186L5.46189 10.1575C5.32119 10.2338 5.20459 10.3424 5.1236 10.4727C5.0426 10.603 5 10.7504 5 10.9003C5 11.0503 5.0426 11.1977 5.1236 11.328C5.20459 11.4583 5.32119 11.5669 5.46189 11.6432Z" fill="white"/>
</svg>
