<svg width="24" height="24" viewBox="0 0 24 24" fill="none" xmlns="http://www.w3.org/2000/svg">
    <path fill-rule="evenodd" clip-rule="evenodd"
          d="M11.75 2C10.8875 2 9.44626 2.33125 8.09001 2.7C6.70251 3.075 5.30376 3.51875 4.48126 3.7875C4.13737 3.90106 3.8325 4.10933 3.60165 4.38838C3.37081 4.66742 3.22337 5.00592 3.17626 5.365C2.43126 10.9613 4.16001 15.1088 6.25751 17.8525C7.14698 19.0262 8.20754 20.0598 9.40376 20.9188C9.88626 21.26 10.3338 21.5212 10.7138 21.7C11.0638 21.865 11.44 22 11.75 22C12.06 22 12.435 21.865 12.7863 21.7C13.2444 21.4773 13.6826 21.216 14.0963 20.9188C15.2925 20.0598 16.3531 19.0262 17.2425 17.8525C19.34 15.1088 21.0688 10.9613 20.3238 5.365C20.2767 5.00575 20.1293 4.66705 19.8985 4.38779C19.6677 4.10853 19.3627 3.90004 19.0188 3.78625C17.8248 3.39477 16.6215 3.03216 15.41 2.69875C14.0538 2.3325 12.6125 2 11.75 2ZM9.65372 14.5905C10.0555 14.9901 10.7049 14.9892 11.1056 14.5885L17.1531 8.54099C17.6209 8.07329 17.6209 7.31499 17.1531 6.84728C16.6853 6.37941 15.9266 6.3796 15.459 6.84771L10.3806 11.9312L8.54143 10.1037C8.07305 9.63835 7.31643 9.63955 6.84954 10.1064C6.38072 10.5753 6.38172 11.3357 6.85178 11.8033L9.65372 14.5905Z"
          fill="#075FCB" />
</svg>