<svg width="24" height="24" viewBox="0 0 24 24" fill="none" xmlns="http://www.w3.org/2000/svg">
<path d="M18.875 10.1243C19.3341 10.1243 19.7106 10.4779 19.7471 10.9275L19.75 10.9993V18.1243C19.75 19.6752 18.522 20.9393 16.9853 20.9972L16.875 20.9993H7.125C5.57411 20.9993 4.31003 19.7713 4.25208 18.2346L4.25 18.1243V10.9993C4.25 10.5161 4.64175 10.1243 5.125 10.1243C5.58409 10.1243 5.9606 10.4779 5.9971 10.9275L6 10.9993V18.1243C6 18.7197 6.46258 19.2071 7.04798 19.2467L7.125 19.2493H16.875C17.4704 19.2493 17.9578 18.7867 17.9974 18.2013L18 18.1243V10.9993C18 10.5161 18.3918 10.1243 18.875 10.1243ZM11.7495 3.13324L11.8239 3.12579L11.9113 3.125L11.9885 3.1315L12.0775 3.14764L12.1119 3.15676C12.2096 3.18372 12.3035 3.2282 12.3887 3.28993L12.4484 3.33744L12.4949 3.38058L16.384 7.26967C16.7257 7.61138 16.7257 8.1654 16.384 8.50711C16.0624 8.82871 15.5527 8.84763 15.209 8.56386L15.1466 8.50711L12.75 6.1103V15.7493C12.75 16.2084 12.3964 16.5849 11.9468 16.6214L11.875 16.6243C11.4159 16.6243 11.0394 16.2707 11.0029 15.8211L11 15.7493V6.1123L8.60582 8.50711C8.28422 8.82871 7.77454 8.84763 7.43081 8.56386L7.36839 8.50711C7.04678 8.1855 7.02786 7.67582 7.31163 7.33209L7.36839 7.26967L11.2444 3.39269C11.2723 3.36366 11.3023 3.33655 11.334 3.31158L11.3906 3.2712C11.4095 3.25792 11.4292 3.24586 11.4494 3.23458L11.4588 3.22999C11.5474 3.18141 11.6455 3.14818 11.7495 3.13324Z" fill="url(#paint0_linear_12531_113632)" stroke="url(#paint1_linear_12531_113632)" stroke-width="0.5"/>
<defs>
<linearGradient id="paint0_linear_12531_113632" x1="4.25" y1="3.125" x2="19.9003" y2="3.39643" gradientUnits="userSpaceOnUse">
<stop stop-color="#0C419A"/>
<stop offset="1" stop-color="#1058D1"/>
</linearGradient>
<linearGradient id="paint1_linear_12531_113632" x1="4.25" y1="3.125" x2="19.9003" y2="3.39643" gradientUnits="userSpaceOnUse">
<stop stop-color="#0C419A"/>
<stop offset="1" stop-color="#1058D1"/>
</linearGradient>
</defs>
</svg>
