<svg width="24" height="24" viewBox="0 0 24 24" fill="none" xmlns="http://www.w3.org/2000/svg">
<path d="M9.48339 4.50062C7.35036 4.50048 5.51022 5.99788 5.0769 8.08649C4.64353 10.1753 5.73642 12.2814 7.69388 13.1296C9.65134 13.9779 11.9354 13.3351 13.1631 11.5904C14.2265 10.0794 14.2444 8.10157 13.2821 6.58793L13.359 6.51056L13.3581 6.50961L12.6776 5.83108L12.677 5.83056L12.6666 5.82016C12.6665 5.81998 12.6663 5.81979 12.6661 5.8196C11.8239 4.97254 10.6779 4.49759 9.48339 4.50062ZM9.48339 4.50062C9.48314 4.50062 9.4829 4.50062 9.48266 4.50062L9.484 5.00062L9.48412 4.50062C9.48387 4.50062 9.48363 4.50062 9.48339 4.50062ZM13.3146 13.5381L13.0158 13.2392L12.6713 13.4841C10.3408 15.141 7.12952 14.7357 5.28375 12.5518C3.43799 10.3679 3.57352 7.13399 5.59554 5.1122L5.59566 5.11208C7.61715 3.08941 10.8514 2.95329 13.0357 4.79896C15.22 6.64463 15.6255 9.85624 13.9685 12.1869L13.7236 12.5313L14.0224 12.8302L19.0304 17.839C19.2257 18.0343 19.2257 18.3509 19.0304 18.5461L18.676 18.9005L13.3146 13.5381Z" fill="#0C419A" stroke="#0C419A"/>
</svg>
