<svg width="18" height="18" viewBox="0 0 18 18" fill="none" xmlns="http://www.w3.org/2000/svg">
<path d="M18 9.00006C17.9999 9.16716 17.9533 9.33095 17.8654 9.47307C17.7775 9.61518 17.6518 9.73002 17.5023 9.80472L1.30203 17.9053C1.14999 17.9812 0.979589 18.0125 0.810527 17.9955C0.641465 17.9786 0.480651 17.9141 0.346681 17.8096C0.212712 17.7051 0.111058 17.5648 0.0534794 17.405C-0.00409965 17.2451 -0.0152557 17.0722 0.0213063 16.9063L1.77813 9.00005L0.0213069 1.09476C-0.0154686 0.928754 -0.00447467 0.75573 0.0530147 0.595718C0.110504 0.435707 0.212137 0.295252 0.346148 0.190618C0.480158 0.0859843 0.641064 0.0214507 0.810232 0.00448939C0.979401 -0.0124719 1.14991 0.018833 1.30203 0.0947796L17.5023 8.19539C17.6518 8.27009 17.7775 8.38493 17.8654 8.52705C17.9533 8.66916 17.9999 8.83295 18 9.00006ZM3.42156 9.90012L2.18854 15.4499L13.2875 9.90012L3.42156 9.90012ZM13.2875 8.09999L2.18854 2.55017L3.42156 8.09999L13.2875 8.09999Z" fill="#0C419A"/>
</svg>
