<svg width="24" height="24" viewBox="0 0 24 24" fill="none" xmlns="http://www.w3.org/2000/svg">
    <defs>
        <linearGradient id="paint0_linear_12531_113694" x1="1.99316" y1="2" x2="21.2308" y2="2.3658"
            gradientUnits="userSpaceOnUse">
            <stop stop-color="#0C419A" />
            <stop offset="1" stop-color="#1058D1" />
        </linearGradient>
    </defs>
    <path
        d="M5.4999 15.001C6.37455 14.9984 7.21612 14.6663 7.85689 14.071L14.1169 17.648C13.6833 19.3422 14.5594 21.0979 16.1739 21.7702C17.7883 22.4425 19.6516 21.8275 20.5486 20.3262C21.4457 18.825 21.1046 16.8928 19.7476 15.7895C18.3907 14.6862 16.4295 14.7465 15.1429 15.931L8.88289 12.354C8.94852 12.103 8.98477 11.8453 8.9909 11.586L15.1419 8.07098C16.3628 9.18091 18.1943 9.28383 19.5319 8.31765C20.8694 7.35148 21.3473 5.58042 20.6773 4.07256C20.0072 2.56471 18.3725 1.73238 16.759 2.07754C15.1455 2.4227 13.9944 3.85097 13.9999 5.50098C14.0035 5.78906 14.0428 6.07558 14.1169 6.35398L8.4329 9.60098C7.52239 8.1924 5.74062 7.62774 4.185 8.25479C2.62939 8.88184 1.73729 10.5243 2.05816 12.1706C2.37903 13.8168 3.82266 15.004 5.4999 15.001Z"
        fill="url(#paint0_linear_12531_113694)" />
</svg>
