<svg width="16" height="16" viewBox="0 0 16 16" fill="none" xmlns="http://www.w3.org/2000/svg">
<path d="M7.9987 12.6659C6.90528 12.6795 5.82317 12.4436 4.8347 11.9759C4.06849 11.6021 3.38047 11.0858 2.80736 10.4546C2.20032 9.802 1.72234 9.04036 1.3987 8.20992L1.33203 7.99925L1.40203 7.78859C1.72591 6.95888 2.20286 6.19743 2.80803 5.54392C3.38093 4.9128 4.06872 4.3965 4.8347 4.02259C5.82317 3.55498 6.90528 3.31899 7.9987 3.33259C9.09211 3.31902 10.1742 3.555 11.1627 4.02259C11.9289 4.39641 12.617 4.91272 13.19 5.54392C13.7982 6.19562 14.2763 6.9575 14.5987 7.78859L14.6654 7.99925L14.5954 8.20992C13.5495 10.9324 10.9148 12.7122 7.9987 12.6659ZM7.9987 4.66592C5.72928 4.59481 3.64631 5.91598 2.74336 7.99925C3.64616 10.0826 5.72923 11.4039 7.9987 11.3326C10.2681 11.4035 12.3509 10.0824 13.254 7.99925C12.3523 5.91497 10.2685 4.59331 7.9987 4.66592ZM7.9987 9.99925C7.03691 10.0056 6.20494 9.33083 6.01268 8.38844C5.82041 7.44604 6.32154 6.49927 7.20895 6.12836C8.09636 5.75745 9.12219 6.06601 9.65773 6.86492C10.1933 7.66384 10.0889 8.72997 9.4087 9.40992C9.03624 9.78676 8.52854 9.99896 7.9987 9.99925Z" fill="#495574"/>
</svg>
