<svg width="32" height="32" viewBox="0 0 32 32" fill="none" xmlns="http://www.w3.org/2000/svg">
<rect width="32" height="32" rx="16" fill="#C7414F"/>
<path d="M21.2471 10.7535C20.9227 10.429 20.3966 10.429 20.0721 10.7535L16.0013 14.8243L11.9305 10.7535C11.606 10.429 11.0799 10.429 10.7555 10.7535C10.431 11.078 10.431 11.604 10.7555 11.9285L14.8263 15.9993L10.7555 20.0702C10.431 20.3946 10.431 20.9207 10.7555 21.2452C11.0799 21.5696 11.606 21.5696 11.9305 21.2452L16.0013 17.1743L20.0721 21.2452C20.3966 21.5696 20.9227 21.5696 21.2471 21.2452C21.5716 20.9207 21.5716 20.3946 21.2471 20.0702L17.1763 15.9993L21.2471 11.9285C21.5716 11.604 21.5716 11.078 21.2471 10.7535Z" fill="white"/>
</svg>
