<svg width="156" height="156" viewBox="0 0 156 156" fill="none" xmlns="http://www.w3.org/2000/svg">
<path d="M141.181 90.897C132.665 106.177 119.527 119.738 104.894 128.842C76.1501 146.725 36.4991 136.9 17.1267 108.678C8.01277 95.4004 5.02734 77.3318 12.6148 62.8291C18.2288 52.0958 29.1593 46.7549 40.7595 45.8659C50.5435 45.1165 60.1852 47.6606 69.9427 47.7145C84.8605 47.7975 97.4402 40.67 111.734 38.0864C119.57 36.6696 129.197 37.1117 135.97 41.9832C142.401 46.607 146.512 54.324 147.593 62.1824C148.957 72.1006 146.028 82.2017 141.181 90.897Z" fill="#A0B2EC" fill-opacity="0.16"/>
<path fill-rule="evenodd" clip-rule="evenodd" d="M34.2585 85.6453C29.9 65.8565 18.6515 42.7703 32.3498 27.8906C46.5282 12.4893 72.2865 15.5484 91.739 23.2073C107.534 29.4261 114.113 46.584 120.206 62.4814C125.105 75.2665 126.275 88.5892 121.746 101.508C116.711 115.873 109.221 131.095 94.6596 135.358C79.9008 139.68 64.8901 131.427 52.9978 121.639C42.0263 112.608 37.3214 99.5516 34.2585 85.6453Z" fill="#A0B2EC" fill-opacity="0.16"/>
<path d="M127.141 71.159L127.141 127.663C127.141 130.844 124.562 133.423 121.381 133.423L34.6203 133.423C31.4392 133.423 28.8603 130.844 28.8603 127.663L28.8604 59.927C28.8604 56.7458 31.4392 54.167 34.6204 54.167L56.7607 54.167C59.9419 54.167 62.5207 56.7458 62.5207 59.927L62.5207 62.519C62.5207 64.1096 63.8101 65.399 65.4007 65.399L121.381 65.399C124.562 65.399 127.141 67.9778 127.141 71.159Z" fill="#0C419A"/>
<path d="M127.141 71.159L127.141 127.663C127.141 130.844 124.562 133.423 121.381 133.423L34.6203 133.423C31.4392 133.423 28.8603 130.844 28.8603 127.663L28.8604 59.927C28.8604 56.7458 31.4392 54.167 34.6204 54.167L56.7607 54.167C59.9419 54.167 62.5207 56.7458 62.5207 59.927L62.5207 62.519C62.5207 64.1096 63.8101 65.399 65.4007 65.399L121.381 65.399C124.562 65.399 127.141 67.9778 127.141 71.159Z" fill="black" fill-opacity="0.3"/>
<g filter="url(#filter0_d_19060_14349)">
<path d="M25.9311 62.3508C24.5329 59.929 25.3626 56.8324 27.7844 55.4342L65.5748 33.6158L69.358 40.1685C70.7562 42.5902 73.8528 43.42 76.2746 42.0218L82.8272 38.2386L118.285 99.6528C119.683 102.074 118.853 105.171 116.431 106.569L72.0883 132.171C69.6665 133.569 66.5699 132.739 65.1717 130.318L25.9311 62.3508Z" fill="white"/>
</g>
<path d="M74.3855 43.1124L82.8266 38.239L65.5742 33.6162L70.4477 42.0573C71.2437 43.4361 73.0067 43.9085 74.3855 43.1124Z" fill="#BDCCF8"/>
<rect x="35.209" y="65.7637" width="24.0507" height="5.0633" rx="2.53165" transform="rotate(-30 35.209 65.7637)" fill="#0C419A"/>
<rect x="40.9053" y="75.6299" width="48.7342" height="3.79747" rx="1.89874" transform="rotate(-30 40.9053 75.6299)" fill="#BDCCF8"/>
<rect x="45.9688" y="84.3994" width="48.7342" height="3.79747" rx="1.89874" transform="rotate(-30 45.9688 84.3994)" fill="#BDCCF8"/>
<rect x="60.3506" y="87.7891" width="37.9747" height="3.79747" rx="1.89874" transform="rotate(-30 60.3506 87.7891)" fill="#BDCCF8"/>
<rect x="50.7158" y="92.6211" width="7.59494" height="5.06329" rx="2.53165" transform="rotate(-30 50.7158 92.6211)" fill="#0C419A"/>
<rect x="55.7803" y="101.391" width="7.59494" height="5.06329" rx="2.53165" transform="rotate(-30 55.7803 101.391)" fill="#0C419A"/>
<rect x="60.8428" y="110.16" width="7.59494" height="5.06329" rx="2.53165" transform="rotate(-30 60.8428 110.16)" fill="#0C419A"/>
<rect x="65.4141" y="96.5596" width="37.9747" height="3.79747" rx="1.89874" transform="rotate(-30 65.4141 96.5596)" fill="#BDCCF8"/>
<rect x="70.4766" y="105.329" width="19.6203" height="3.79747" rx="1.89874" transform="rotate(-30 70.4766 105.329)" fill="#BDCCF8"/>
<g filter="url(#filter1_d_19060_14349)">
<path d="M37.1904 45.7257C36.4666 43.0246 38.0696 40.2482 40.7707 39.5245L82.9204 28.2305L90.2289 26.2722C92.93 25.5484 95.7064 27.1514 96.4302 29.8525L98.3885 37.161L116.743 105.66C117.466 108.361 115.863 111.137 113.162 111.861L63.7041 125.113C61.003 125.837 58.2266 124.234 57.5028 121.533L37.1904 45.7257Z" fill="white"/>
</g>
<rect x="54.1045" y="84.4033" width="48.7342" height="3.79747" rx="1.89874" transform="rotate(-15 54.1045 84.4033)" fill="#BDCCF8"/>
<rect x="89.2822" y="77.4004" width="13.26" height="3.9" rx="1.95" transform="rotate(-15 89.2822 77.4004)" fill="#BDCCF8"/>
<rect x="75.8623" y="99.5781" width="31.6456" height="3.79747" rx="1.89874" transform="rotate(-15 75.8623 99.5781)" fill="#BDCCF8"/>
<rect x="73.4053" y="90.4082" width="21.519" height="3.79747" rx="1.89874" transform="rotate(-15 73.4053 90.4082)" fill="#BDCCF8"/>
<rect x="77.9922" y="107.525" width="21.519" height="3.79747" rx="1.89874" transform="rotate(-15 77.9922 107.525)" fill="#BDCCF8"/>
<rect x="60.8779" y="106.668" width="12.3337" height="12.3337" rx="1.64965" transform="rotate(-15 60.8779 106.668)" fill="#F9FAFF"/>
<rect x="73.4902" y="102.616" width="2.33691" height="12.4662" rx="1.16845" transform="rotate(30 73.4902 102.616)" fill="#0C419A"/>
<rect width="2.33691" height="6.7152" rx="1.16845" transform="matrix(-0.5 0.866025 0.866025 0.5 64.6182 109.221)" fill="#0C419A"/>
<rect width="2.33691" height="6.7152" rx="1.16845" transform="matrix(-0.5 0.866025 0.866025 0.5 60.0811 92.291)" fill="#0C419A"/>
<path d="M73.2941 52.455C72.6015 52.6406 71.8896 52.2296 71.704 51.537L71.44 50.5517C71.2544 49.8591 71.6654 49.1472 72.358 48.9616L73.3434 48.6976C74.0359 48.512 74.7478 48.923 74.9334 49.6156L75.1974 50.6009C75.383 51.2935 74.972 52.0054 74.2794 52.191L73.2941 52.455Z" fill="#0C419A"/>
<path d="M71.421 45.4677C70.7284 45.6533 70.0166 45.2423 69.831 44.5497L69.567 43.5643C69.3814 42.8718 69.7924 42.1599 70.485 41.9743L71.4703 41.7103C72.1629 41.5247 72.8748 41.9357 73.0604 42.6283L73.3244 43.6136C73.51 44.3062 73.0989 45.0181 72.4064 45.2037L71.421 45.4677Z" fill="#0C419A"/>
<path d="M66.3058 54.3271C65.6132 54.5126 64.9013 54.1016 64.7157 53.409L64.4517 52.4237C64.2661 51.7311 64.6772 51.0192 65.3697 50.8337L66.3551 50.5696C67.0477 50.3841 67.7596 50.7951 67.9451 51.4877L68.2091 52.473C68.3947 53.1656 67.9837 53.8775 67.2911 54.0631L66.3058 54.3271Z" fill="#0C419A"/>
<path d="M68.8634 49.8984C68.1708 50.0839 67.4589 49.6729 67.2734 48.9803L67.0093 47.995C66.8238 47.3024 67.2348 46.5905 67.9274 46.4049L68.9127 46.1409C69.6053 45.9554 70.3172 46.3664 70.5027 47.059L70.7668 48.0443C70.9523 48.7369 70.5413 49.4488 69.8487 49.6343L68.8634 49.8984Z" fill="#0C419A"/>
<path d="M64.4347 47.3407C63.7421 47.5263 63.0302 47.1153 62.8446 46.4227L62.5806 45.4374C62.395 44.7448 62.8061 44.0329 63.4987 43.8473L64.484 43.5833C65.1766 43.3977 65.8885 43.8087 66.074 44.5013L66.3381 45.4867C66.5236 46.1792 66.1126 46.8911 65.42 47.0767L64.4347 47.3407Z" fill="#0C419A"/>
<path d="M58.3166 71.4448C57.3901 71.6931 56.403 71.5631 55.5723 71.0835C54.7416 70.6039 54.1354 69.814 53.8872 68.8875L52.9511 65.394C52.7029 64.4675 52.8328 63.4804 53.3124 62.6497C53.792 61.819 54.582 61.2128 55.5085 60.9646L59.0019 60.0285C59.9284 59.7803 60.9156 59.9102 61.7463 60.3898C62.5769 60.8694 63.1831 61.6594 63.4313 62.5859L64.3674 66.0793C64.6157 67.0058 64.4857 67.993 64.0061 68.8237C63.5265 69.6543 62.7366 70.2605 61.8101 70.5087L58.3166 71.4448ZM55.6339 68.4194C55.758 68.8827 56.0611 69.2777 56.4764 69.5174C56.8918 69.7572 57.3854 69.8222 57.8486 69.6981L61.342 68.762C61.8053 68.6379 62.2002 68.3348 62.44 67.9195C62.6798 67.5042 62.7448 67.0106 62.6207 66.5473L61.6846 63.0539C61.5605 62.5907 61.2574 62.1957 60.8421 61.9559C60.4268 61.7161 59.9332 61.6511 59.4699 61.7752L55.9765 62.7113C55.5133 62.8354 55.1183 63.1385 54.8785 63.5538C54.6387 63.9692 54.5737 64.4628 54.6978 64.926L55.6339 68.4194Z" fill="#0C419A"/>
<path d="M57.3799 67.9521L56.4438 64.4587L59.9372 63.5227L60.8733 67.0161L57.3799 67.9521Z" fill="#0C419A"/>
<path d="M72.2893 67.7016C71.3628 67.9499 70.3756 67.8199 69.5449 67.3403C68.7142 66.8607 68.1081 66.0708 67.8598 65.1443L66.9238 61.6509C66.6755 60.7244 66.8055 59.7372 67.2851 58.9065C67.7647 58.0758 68.5546 57.4697 69.4811 57.2214L72.9745 56.2854C73.9011 56.0371 74.8882 56.1671 75.7189 56.6467C76.5496 57.1263 77.1557 57.9162 77.404 58.8427L78.3401 62.3361C78.5883 63.2626 78.4584 64.2498 77.9788 65.0805C77.4992 65.9112 76.7092 66.5173 75.7827 66.7656L72.2893 67.7016ZM69.6065 64.6763C69.7307 65.1395 70.0337 65.5345 70.4491 65.7743C70.8644 66.0141 71.358 66.0791 71.8213 65.9549L75.3147 65.0189C75.7779 64.8948 76.1729 64.5917 76.4127 64.1763C76.6525 63.761 76.7175 63.2674 76.5934 62.8042L75.6573 59.3107C75.5332 58.8475 75.2301 58.4525 74.8148 58.2127C74.3994 57.9729 73.9058 57.9079 73.4426 58.0321L69.9492 58.9681C69.4859 59.0923 69.0909 59.3953 68.8511 59.8107C68.6113 60.226 68.5464 60.7196 68.6705 61.1829L69.6065 64.6763Z" fill="#0C419A"/>
<path d="M71.3545 64.207L70.4184 60.7136L73.9118 59.7776L74.8479 63.271L71.3545 64.207Z" fill="#0C419A"/>
<path d="M54.5725 57.4712C53.646 57.7194 52.6588 57.5895 51.8281 57.1099C50.9974 56.6303 50.3913 55.8403 50.143 54.9138L49.207 51.4204C48.9587 50.4939 49.0887 49.5067 49.5683 48.676C50.0479 47.8454 50.8378 47.2392 51.7643 46.991L55.2577 46.0549C56.1843 45.8066 57.1714 45.9366 58.0021 46.4162C58.8328 46.8958 59.439 47.6857 59.6872 48.6122L60.6233 52.1057C60.8715 53.0322 60.7416 54.0193 60.262 54.85C59.7824 55.6807 58.9924 56.2869 58.0659 56.5351L54.5725 57.4712ZM51.8897 54.4458C52.0139 54.909 52.3169 55.304 52.7323 55.5438C53.1476 55.7836 53.6412 55.8486 54.1045 55.7245L57.5979 54.7884C58.0611 54.6643 58.4561 54.3612 58.6959 53.9459C58.9357 53.5305 59.0007 53.0369 58.8766 52.5737L57.9405 49.0803C57.8164 48.617 57.5133 48.2221 57.098 47.9823C56.6826 47.7425 56.189 47.6775 55.7258 47.8016L52.2324 48.7377C51.7691 48.8618 51.3741 49.1649 51.1343 49.5802C50.8945 49.9955 50.8296 50.4891 50.9537 50.9524L51.8897 54.4458Z" fill="#0C419A"/>
<path d="M53.6367 53.9775L52.7007 50.4841L56.1941 49.5481L57.1301 53.0415L53.6367 53.9775Z" fill="#0C419A"/>
<g filter="url(#filter2_d_19060_14349)">
<path d="M63.5643 115.909H114.767C117.564 115.909 119.831 113.642 119.831 110.845V32.3641C119.831 29.5677 117.564 27.3008 114.767 27.3008L63.5643 27.3008C60.7679 27.3008 58.501 29.5677 58.501 32.3641L58.501 110.845C58.501 113.642 60.7679 115.909 63.5643 115.909Z" fill="white"/>
</g>
<path d="M94.1465 35.4076C94.1465 34.0094 95.2799 32.876 96.6781 32.876H111.235C112.633 32.876 113.767 34.0094 113.767 35.4076C113.767 36.8058 112.633 37.9393 111.235 37.9393H96.6781C95.2799 37.9393 94.1465 36.8058 94.1465 35.4076Z" fill="#0C419A"/>
<path d="M94.1445 45.5345C94.1445 44.4858 94.9946 43.6357 96.0433 43.6357H111.866C112.915 43.6357 113.765 44.4858 113.765 45.5345C113.765 46.5831 112.915 47.4332 111.866 47.4332H96.0433C94.9946 47.4332 94.1445 46.5831 94.1445 45.5345Z" fill="#BDCCF8"/>
<path d="M94.1436 55.0286C94.1436 53.98 94.9936 53.1299 96.0423 53.1299H99.2069C100.255 53.1299 101.106 53.98 101.106 55.0286C101.106 56.0773 100.255 56.9274 99.2069 56.9274H96.0423C94.9936 56.9274 94.1436 56.0773 94.1436 55.0286Z" fill="#BDCCF8"/>
<path d="M92.6648 46.7025C92.6648 53.8727 86.8522 59.6853 79.682 59.6853C72.5118 59.6853 66.6992 53.8727 66.6992 46.7025C66.6992 39.5323 72.5118 33.7197 79.682 33.7197C86.8522 33.7197 92.6648 39.5323 92.6648 46.7025Z" fill="#F9FAFF"/>
<path d="M73.6154 41.6037C73.6154 39.58 75.2979 37.9395 77.3734 37.9395C79.4488 37.9395 81.1313 39.58 81.1313 41.6037C81.1313 43.6274 79.4488 45.2679 77.3734 45.2679C75.2979 45.2679 73.6154 43.6274 73.6154 41.6037ZM77.3734 43.8022C78.6186 43.8022 79.6281 42.8179 79.6281 41.6037C79.6281 40.3895 78.6186 39.4051 77.3734 39.4051C76.1281 39.4051 75.1186 40.3895 75.1186 41.6037C75.1186 42.8179 76.1281 43.8022 77.3734 43.8022Z" fill="#0C419A"/>
<path d="M73.1218 47.7179C72.1769 48.6392 71.579 49.8356 71.41 51.1141C71.3556 51.5256 71.6972 51.8635 72.1123 51.8635C72.5274 51.8635 72.8572 51.5245 72.9295 51.1157C73.0868 50.2271 73.522 49.4005 74.1847 48.7543C75.0304 47.9297 76.1774 47.4664 77.3734 47.4664C78.5694 47.4664 79.7164 47.9297 80.5621 48.7543C81.2248 49.4005 81.6599 50.2271 81.8172 51.1157C81.8895 51.5245 82.2194 51.8635 82.6344 51.8635C83.0495 51.8635 83.3911 51.5256 83.3367 51.1141C83.1678 49.8356 82.5698 48.6392 81.625 47.7179C80.4974 46.6184 78.968 46.0008 77.3734 46.0008C75.7787 46.0008 74.2494 46.6184 73.1218 47.7179Z" fill="#0C419A"/>
<path d="M65.0303 67.0531C65.0303 65.6549 66.1637 64.5215 67.5619 64.5215H70.0936C71.4918 64.5215 72.6252 65.6549 72.6252 67.0531C72.6252 68.4513 71.4918 69.5848 70.0936 69.5848H67.5619C66.1637 69.5848 65.0303 68.4513 65.0303 67.0531Z" fill="#0C419A"/>
<path d="M65.0322 77.1801C65.0322 75.7819 66.1657 74.6484 67.5639 74.6484H70.0955C71.4937 74.6484 72.6272 75.7819 72.6272 77.1801C72.6272 78.5783 71.4937 79.7117 70.0955 79.7117H67.5639C66.1657 79.7117 65.0322 78.5783 65.0322 77.1801Z" fill="#A05BB6"/>
<path d="M75.792 67.053C75.792 66.0044 76.6421 65.1543 77.6907 65.1543H111.868C112.917 65.1543 113.767 66.0044 113.767 67.053C113.767 68.1017 112.917 68.9518 111.868 68.9518H77.6907C76.6421 68.9518 75.792 68.1017 75.792 67.053Z" fill="#BDCCF8"/>
<path d="M75.79 77.18C75.79 76.1313 76.6401 75.2812 77.6888 75.2812H93.5116C94.5602 75.2812 95.4103 76.1313 95.4103 77.18C95.4103 78.2286 94.5602 79.0787 93.5116 79.0787H77.6888C76.6401 79.0787 75.79 78.2286 75.79 77.18Z" fill="#BDCCF8"/>
<path d="M65.0303 87.6494C65.0303 86.7611 65.7504 86.041 66.6387 86.041H112.156C113.044 86.041 113.764 86.7611 113.764 87.6494V102.787C113.764 103.675 113.044 104.395 112.156 104.395H66.6387C65.7504 104.395 65.0303 103.675 65.0303 102.787V87.6494Z" fill="#F9FAFF"/>
<path fill-rule="evenodd" clip-rule="evenodd" d="M93.1841 93.5045L89.9178 99.9435C89.6689 100.434 89.1654 100.743 88.6152 100.743H86.7392L85.6878 103.804C85.2545 105.066 83.4961 105.134 82.9661 103.91L79.7223 96.4184L78.1534 99.8849C77.9169 100.408 77.3964 100.743 76.8228 100.743H71.8905C71.4424 100.743 71.0791 100.38 71.0791 99.9318C71.0791 99.4837 71.4424 99.1204 71.8905 99.1204H76.7181L78.3949 95.4154C78.9175 94.2606 80.5622 94.274 81.0659 95.4372L84.289 102.881L85.242 100.107C85.4446 99.5166 85.9995 99.1204 86.6233 99.1204H88.5156L91.9036 92.4415C92.4785 91.3083 94.1261 91.3988 94.5733 92.5882L98.0058 101.717L98.8046 99.9728C99.0425 99.4535 99.5613 99.1204 100.133 99.1204H102.785L104.121 96.4866C104.662 95.4201 106.185 95.4202 106.726 96.4866L108.062 99.1204H111.488C111.936 99.1204 112.3 99.4837 112.3 99.9318C112.3 100.38 111.936 100.743 111.488 100.743H107.963C107.412 100.743 106.909 100.434 106.66 99.9435L105.424 97.506L104.187 99.9435C103.938 100.434 103.435 100.743 102.885 100.743H100.237L99.319 102.747C98.7783 103.928 97.081 103.869 96.624 102.653L93.1841 93.5045Z" fill="#A05BB6"/>
<path d="M28.8604 77.7132L28.8604 134.505C28.8604 137.607 31.3748 140.121 34.4764 140.121L121.525 140.121C124.626 140.121 127.141 137.607 127.141 134.505L127.141 66.4812C127.141 63.3796 124.626 60.8652 121.525 60.8652L107.038 60.8652C105.549 60.8652 104.121 61.4569 103.067 62.5101L94.3027 71.2748C93.7761 71.8014 93.0619 72.0972 92.3172 72.0972L34.4764 72.0972C31.3748 72.0972 28.8604 74.6116 28.8604 77.7132Z" fill="#0C419A"/>
<path d="M98.1246 104.365C98.1246 114.703 89.7434 123.085 79.4046 123.085C69.0658 123.085 60.6846 114.703 60.6846 104.365C60.6846 94.0258 69.0658 85.6445 79.4046 85.6445C89.7434 85.6445 98.1246 94.0258 98.1246 104.365Z" fill="#0C419A"/>
<path d="M79.5604 112.319C77.6414 112.343 75.7423 111.929 74.0075 111.108C72.6628 110.452 71.4554 109.546 70.4496 108.439C69.3842 107.293 68.5453 105.957 67.9774 104.5L67.8604 104.13L67.9832 103.76C68.5516 102.305 69.3886 100.968 70.4507 99.8217C71.4562 98.7142 72.6632 97.8083 74.0075 97.1522C75.7423 96.3316 77.6414 95.9176 79.5604 95.9414C81.4793 95.9176 83.3784 96.3317 85.1132 97.1522C86.4579 97.8081 87.6654 98.7141 88.6711 99.8217C89.7385 100.965 90.5776 102.302 91.1434 103.76L91.2604 104.13L91.1375 104.5C89.302 109.277 84.6782 112.4 79.5604 112.319ZM79.5604 98.281C75.5775 98.1563 71.9219 100.475 70.3372 104.13C71.9217 107.786 75.5774 110.104 79.5604 109.979C83.5431 110.104 87.1985 107.786 88.7835 104.13C87.2009 100.473 83.5439 98.1536 79.5604 98.281ZM79.5604 107.64C77.8724 107.651 76.4123 106.467 76.0749 104.813C75.7375 103.159 76.6169 101.498 78.1744 100.847C79.7318 100.196 81.5321 100.738 82.472 102.14C83.4118 103.542 83.2287 105.412 82.0349 106.605C81.3812 107.267 80.4902 107.639 79.5604 107.64Z" fill="#E7ECFA"/>
<path fill-rule="evenodd" clip-rule="evenodd" d="M101.868 104.364C101.868 116.771 91.811 126.828 79.4044 126.828C66.9979 126.828 56.9404 116.771 56.9404 104.364C56.9404 91.9579 66.9979 81.9004 79.4044 81.9004C91.811 81.9004 101.868 91.9579 101.868 104.364ZM79.4044 123.084C89.7432 123.084 98.1244 114.703 98.1244 104.364C98.1244 94.0256 89.7432 85.6444 79.4044 85.6444C69.0657 85.6444 60.6844 94.0256 60.6844 104.364C60.6844 114.703 69.0657 123.084 79.4044 123.084Z" fill="#E7ECFA"/>
<defs>
<filter id="filter0_d_19060_14349" x="15.5414" y="28.761" width="113.133" height="118.654"
    color-interpolation-filters="sRGB">
<feFlood flood-opacity="0" result="BackgroundImageFix"/>
<feColorMatrix in="SourceAlpha" values="0 0 0 0 0 0 0 0 0 0 0 0 0 0 0 0 0 0 127 0" result="hardAlpha"/>
<feOffset dy="4.85526"/>
<feGaussianBlur stdDeviation="4.85526"/>
<feColorMatrix values="0 0 0 0 0.0470588 0 0 0 0 0.254902 0 0 0 0 0.603922 0 0 0 0.1 0"/>
<feBlend in2="BackgroundImageFix" result="effect1_dropShadow_19060_14349"/>
<feBlend in="SourceGraphic" in2="effect1_dropShadow_19060_14349" result="shape"/>
</filter>
<filter id="filter1_d_19060_14349" x="27.3061" y="21.2434" width="99.3204" height="118.61"
    color-interpolation-filters="sRGB">
<feFlood flood-opacity="0" result="BackgroundImageFix"/>
<feColorMatrix in="SourceAlpha" values="0 0 0 0 0 0 0 0 0 0 0 0 0 0 0 0 0 0 127 0" result="hardAlpha"/>
<feOffset dy="4.85526"/>
<feGaussianBlur stdDeviation="4.85526"/>
<feColorMatrix values="0 0 0 0 0.0470588 0 0 0 0 0.254902 0 0 0 0 0.603922 0 0 0 0.1 0"/>
<feBlend in2="BackgroundImageFix" result="effect1_dropShadow_19060_14349"/>
<feBlend in="SourceGraphic" in2="effect1_dropShadow_19060_14349" result="shape"/>
</filter>
<filter id="filter2_d_19060_14349" x="48.7905" y="22.4455" width="80.7501" height="108.028"
    color-interpolation-filters="sRGB">
<feFlood flood-opacity="0" result="BackgroundImageFix"/>
<feColorMatrix in="SourceAlpha" values="0 0 0 0 0 0 0 0 0 0 0 0 0 0 0 0 0 0 127 0" result="hardAlpha"/>
<feOffset dy="4.85526"/>
<feGaussianBlur stdDeviation="4.85526"/>
<feColorMatrix values="0 0 0 0 0.0470588 0 0 0 0 0.254902 0 0 0 0 0.603922 0 0 0 0.1 0"/>
<feBlend in2="BackgroundImageFix" result="effect1_dropShadow_19060_14349"/>
<feBlend in="SourceGraphic" in2="effect1_dropShadow_19060_14349" result="shape"/>
</filter>
</defs>
</svg>
