<svg width="24" height="24" viewBox="0 0 24 24" fill="none" xmlns="http://www.w3.org/2000/svg">
<rect x="3" y="3.41406" width="2" height="22.2121" transform="rotate(-44.939 3 3.41406)" fill="#0C419A"/>
<path fill-rule="evenodd" clip-rule="evenodd" d="M5.81802 3.54278L5.41454 3.5735C4.42674 3.64212 3.63984 4.42689 3.56854 5.4145L3.06854 11.9805C3.02315 12.5626 3.23513 13.1353 3.64854 13.5475L11.4825 21.3825C11.857 21.7591 12.3665 21.9701 12.8975 21.9685C13.4282 21.9698 13.9374 21.7588 14.3115 21.3825L18.9706 16.7234L17.5581 15.3079L12.8975 19.9685L5.06254 12.1335L5.56254 5.5625L7.67319 5.4019L5.81802 3.54278ZM18.6157 14.2504L19.9675 12.8985L12.1335 5.0625L9.63692 5.25247L7.78165 3.39325L11.9805 3.0735C12.0315 3.0625 12.0835 3.0625 12.1345 3.0625C12.6644 3.06386 13.1722 3.27448 13.5475 3.6485L21.3825 11.4825C21.7578 11.8576 21.9686 12.3664 21.9686 12.897C21.9686 13.4276 21.7578 13.9364 21.3825 14.3115L20.0282 15.6659L18.6157 14.2504ZM8.94415 6.67557C8.59624 6.62442 8.23204 6.66447 7.88841 6.80688C7.00695 7.17218 6.50629 8.10928 6.69262 9.04507C6.87895 9.98086 7.70038 10.6547 8.65454 10.6545C9.18522 10.6558 9.69437 10.4448 10.0685 10.0685C10.5262 9.6107 10.7212 8.97682 10.6338 8.36878L8.94415 6.67557Z" fill="#0C419A"/>
</svg>
