<svg width="12" height="15" viewBox="0 0 12 15" fill="none" xmlns="http://www.w3.org/2000/svg">
    <path d="M2.12343 14.0101C1.98717 14.5453 1.55228 15 1 15C0.447715 15 -0.00873467 14.5489 0.0822575 14.0042C0.556609 11.1644 3.02554 9 6 9C9.12764 9 11.2509 10.3128 11.4795 13.2464C11.5046 13.5683 11.2934 13.8562 10.9872 13.9583C10.5015 14.1201 10.0041 13.7496 9.85218 13.2607C9.38056 11.7435 7.8345 11 6 11C4.13252 11 2.56394 12.2798 2.12343 14.0101ZM6 8C3.79086 8 2 6.20914 2 4C2 1.79086 3.79086 0 6 0C8.20914 0 10 1.79086 10 4C9.99724 6.208 8.208 7.99725 6 8ZM6 2C4.9074 2.00111 4.01789 2.87885 4.00223 3.97134C3.98658 5.06383 4.85057 5.9667 5.94269 5.99912C7.03481 6.03153 7.95083 5.1815 8 4.09V4.49V4C8 2.89543 7.10457 2 6 2Z" fill="#4E5C7F"/>
</svg>
