<svg width="32" height="32" viewBox="0 0 32 32" fill="none" xmlns="http://www.w3.org/2000/svg">
<path d="M9.33398 10.6667C9.33398 6.98477 12.3188 4 16.0007 4C19.6825 4 22.6673 6.98477 22.6673 10.6667C22.6673 14.3486 19.6825 17.3333 16.0007 17.3333C12.3188 17.3333 9.33398 14.3486 9.33398 10.6667ZM16.0007 14.6667C18.2098 14.6667 20.0007 12.8758 20.0007 10.6667C20.0007 8.45753 18.2098 6.66667 16.0007 6.66667C13.7915 6.66667 12.0007 8.45753 12.0007 10.6667C12.0007 12.8758 13.7915 14.6667 16.0007 14.6667Z" fill="white"/>
<path d="M8.45818 21.7909C6.77385 23.4752 5.71099 25.6648 5.41717 28.0034C5.32538 28.7341 5.93094 29.3333 6.66732 29.3333C7.4037 29.3333 7.98931 28.7323 8.11148 28.0061C8.3856 26.3767 9.16006 24.8602 10.3438 23.6765C11.8441 22.1762 13.8789 21.3333 16.0007 21.3333C18.1224 21.3333 20.1572 22.1762 21.6575 23.6765C22.8412 24.8602 23.6157 26.3767 23.8898 28.0061C24.012 28.7323 24.5976 29.3333 25.334 29.3333C26.0704 29.3333 26.6759 28.7341 26.5841 28.0034C26.2903 25.6648 25.2274 23.4752 23.5431 21.7909C21.5427 19.7905 18.8296 18.6667 16.0007 18.6667C13.1717 18.6667 10.4586 19.7905 8.45818 21.7909Z" fill="white"/>
</svg>
