<svg width="24" height="24" viewBox="0 0 24 24" fill="none" xmlns="http://www.w3.org/2000/svg">
<path d="M10.9549 11.6915C10.8811 11.4258 10.6662 11.2388 10.4156 11.2221C10.1651 11.2055 9.93158 11.3628 9.82965 11.6168L8.13665 15.8363H7.66667C7.29848 15.8363 7 16.1348 7 16.503C7 16.8712 7.29848 17.1696 7.66667 17.1696H8.52778C8.76562 17.1696 8.98116 17.0145 9.07776 16.7737L10.277 13.7849L11.6562 18.7503C11.7301 19.016 11.945 19.2031 12.1955 19.2197C12.446 19.2364 12.6795 19.079 12.7815 18.825L14.0541 15.6531L14.4505 16.7506C14.5419 17.0037 14.7632 17.1696 15.0093 17.1696H16.3333C16.7015 17.1696 17 16.8712 17 16.503C17 16.1348 16.7015 15.8363 16.3333 15.8363H15.4167L14.6421 13.6913C14.5523 13.4424 14.3366 13.2774 14.0947 13.2723C13.8528 13.2673 13.6316 13.4232 13.5334 13.6681L12.3341 16.6569L10.9549 11.6915Z" fill="#0C419A"/>
<path fill-rule="evenodd" clip-rule="evenodd" d="M4 20.7197C4 21.8243 4.89543 22.7197 6 22.7197H18C19.1046 22.7197 20.0001 21.8243 20.0001 20.7197V9.71973C20.0004 9.71035 19.9998 9.70095 19.998 9.69173C19.9949 9.68294 19.9926 9.67391 19.991 9.66473C19.9864 9.57691 19.9699 9.49012 19.942 9.40673L19.933 9.38073C19.9312 9.37542 19.9294 9.37012 19.9276 9.36483C19.9216 9.34717 19.9157 9.32965 19.908 9.31273C19.8596 9.20378 19.7918 9.10451 19.708 9.01973L13.708 3.01973C13.6232 2.93591 13.5239 2.86815 13.415 2.81973C13.3937 2.80877 13.3717 2.79941 13.349 2.79173L13.321 2.78273C13.2373 2.75452 13.1502 2.73738 13.062 2.73173C13.0518 2.73075 13.0418 2.72874 13.032 2.72573C13.0217 2.72222 13.0109 2.7202 13 2.71973H6C4.89543 2.71973 4 3.61516 4 4.71973V20.7197ZM6 20.7197V4.71973H12V9.71973C12 10.272 12.4477 10.7197 13 10.7197H18V20.7197H6ZM14 8.71973V6.13373L16.586 8.71973H14Z" fill="#0C419A"/>
</svg>
