<svg width="21" height="21" viewBox="0 0 21 21" fill="none" xmlns="http://www.w3.org/2000/svg">
<path fill-rule="evenodd" clip-rule="evenodd" d="M3.97671 1.72666L19.9767 17.7267L18.5625 19.1409L2.5625 3.14087L3.97671 1.72666Z" fill="#0C419A"/>
<path d="M13.8748 1.01946C13.4844 0.629049 12.8515 0.628914 12.4609 1.01916L11.3098 2.16936C11.122 2.35692 11.0166 2.6114 11.0166 2.87677V4.58387L10.3394 5.261L11.7536 6.67522L12.7237 5.70519C12.9112 5.51766 13.0166 5.2633 13.0166 4.99809V3.29123L13.1674 3.14048L18.1172 8.09022L17.9666 8.24073L16.2592 8.24073C15.994 8.24073 15.7396 8.34608 15.5521 8.53362L14.5821 9.50364L15.9963 10.9179L16.6734 10.2407H18.3805C18.6456 10.2407 18.8998 10.1355 19.0873 9.94813L20.2385 8.79793C20.4262 8.61042 20.5316 8.35603 20.5317 8.09074C20.5318 7.82545 20.4264 7.571 20.2388 7.38342L13.8748 1.01946Z" fill="#0C419A"/>
<path d="M14.5821 12.3321L13.1679 10.9179L12.7237 11.362C12.5361 11.5496 12.4308 11.8039 12.4308 12.0692L12.4308 15.3118L5.94549 8.82651H9.18813C9.45335 8.82651 9.7077 8.72116 9.89524 8.53362L10.3394 8.08943L8.92522 6.67522L8.77392 6.82651L3.53128 6.82651C3.12682 6.82651 2.76218 7.07016 2.6074 7.44383C2.45262 7.8175 2.53817 8.24762 2.82417 8.53362L7.06681 12.7763L0.855393 18.9877C0.464869 19.3782 0.464869 20.0114 0.855393 20.4019C1.24592 20.7924 1.87908 20.7924 2.26961 20.4019L8.48103 14.1905L12.7237 18.4331C13.0097 18.7191 13.4398 18.8047 13.8135 18.6499C14.1871 18.4951 14.4308 18.1305 14.4308 17.726L14.4308 12.4834L14.5821 12.3321Z" fill="#0C419A"/>
</svg>
