<svg xmlns="http://www.w3.org/2000/svg" width="25" height="24"><path xmlns="http://www.w3.org/2000/svg" fill="#0C419A" d="M2.684 6.818a.625.625 0 0 1 0-.885l3.75-3.75a.626.626 0 0 1 .884.885l-.496.495 2.241 2.241 2.37-2.37a.626.626 0 1 1 .885.884L10.884 5.75l6.95 6.95a3.125 3.125 0 0 1 .916 2.211v2.455l3.567 3.566a.626.626 0 1 1-.885.885l-3.566-3.567H15.41c-.829 0-1.623-.33-2.209-.915l-.7-.7 1.067-1.068a.626.626 0 0 0-.885-.885l-1.066 1.068-.992-.992 1.068-1.066a.626.626 0 1 0-.885-.885l-1.066 1.068-.992-.991 1.068-1.066a.625.625 0 1 0-.885-.885L7.867 12 6.25 10.384l-1.433 1.434a.626.626 0 1 1-.885-.885l2.372-2.37-2.241-2.241-.495.496a.625.625 0 0 1-.885 0Zm3.254-2.371-.99.991 2.24 2.241.991-.991-2.24-2.241Z"/></svg>