<svg width="16" height="16" viewBox="0 0 16 16" fill="none" xmlns="http://www.w3.org/2000/svg">
<path d="M14.3549 13.9988H2.00012C1.76195 13.9988 1.54188 13.8718 1.4228 13.6655C1.30373 13.4593 1.30373 13.2051 1.42281 12.9989L7.59986 2.33271C7.71903 2.1268 7.93891 2 8.17683 2C8.41475 2 8.63463 2.1268 8.7538 2.33271L14.9309 12.9989C15.0499 13.205 15.0499 13.459 14.931 13.6652C14.8121 13.8714 14.5923 13.9986 14.3542 13.9988H14.3549ZM7.51119 10.6657V11.9989H8.13317H8.1765H8.21983H8.84313V10.6657H7.51119ZM7.51119 5.99921V9.33239H8.84447V5.99921H7.51119Z" fill="#C74E5A"/>
</svg>
