<svg width="56" height="56" viewBox="0 0 56 56" fill="none" xmlns="http://www.w3.org/2000/svg">
<g clip-path="url(#clip0_55663_129812)">
<path d="M35.4353 53.321C28.6072 52.796 21.6335 50.3458 15.9995 46.6345C4.93262 39.3435 1.93098 23.6358 8.79193 12.1249C12.0201 6.70935 17.9556 2.68809 24.355 3.01026C29.091 3.24819 32.7805 6.25977 34.9967 10.2387C36.8659 13.5947 37.5407 17.4397 39.1199 20.9179C41.534 26.2356 46.1289 29.5409 49.3889 34.2001C51.1763 36.7542 52.5961 40.2496 51.9735 43.4558C51.3827 46.4995 49.3123 49.2254 46.6952 50.897C43.3922 53.0069 39.3209 53.6199 35.4353 53.321Z" fill="#A0B2EC" fill-opacity="0.16"/>
<path fill-rule="evenodd" clip-rule="evenodd" d="M24.408 14.7542C32.2194 13.3733 41.4334 9.35137 47.0292 14.9528C52.8212 20.7505 51.2031 30.7754 47.8891 38.2586C45.1983 44.3348 38.3795 46.6276 32.0617 48.7504C26.9809 50.4575 21.7507 50.6969 16.7718 48.7142C11.2355 46.5095 5.4044 43.3311 3.97496 37.5657C2.52616 31.7223 6.00005 25.9861 10.0231 21.4948C13.7346 17.3512 18.9186 15.7246 24.408 14.7542Z" fill="#A0B2EC" fill-opacity="0.16"/>
<g filter="url(#filter0_d_55663_129812)">
<path d="M16.8005 47.5985H39.4527C40.6898 47.5985 41.6927 46.5956 41.6927 45.3585V10.6384C41.6927 9.40132 40.6898 8.39844 39.4527 8.39844H16.8005C15.5634 8.39844 14.5605 9.40132 14.5605 10.6384V45.3585C14.5605 46.5956 15.5634 47.5985 16.8005 47.5985Z" fill="white"/>
</g>
<rect x="30.2393" y="12.5996" width="8.68" height="2.24" rx="1.12" fill="#0C419A"/>
<rect x="30.2393" y="17.6387" width="8.68" height="1.68" rx="0.84" fill="#BDCCF8"/>
<rect x="30.2393" y="22.1191" width="4.48" height="1.68" rx="0.84" fill="#BDCCF8"/>
<circle cx="22.9594" cy="18.1996" r="5.6" fill="#F9FAFF"/>
<path d="M21.1567 16.4609C21.1567 15.5656 21.901 14.8398 22.8192 14.8398C23.7374 14.8398 24.4817 15.5656 24.4817 16.4609C24.4817 17.3562 23.7374 18.0819 22.8192 18.0819C21.901 18.0819 21.1567 17.3562 21.1567 16.4609ZM22.8192 17.4335C23.3701 17.4335 23.8167 16.9981 23.8167 16.4609C23.8167 15.9237 23.3701 15.4883 22.8192 15.4883C22.2683 15.4883 21.8217 15.9237 21.8217 16.4609C21.8217 16.9981 22.2683 17.4335 22.8192 17.4335Z" fill="#BDCCF8"/>
<path d="M20.9383 19.1658C20.5203 19.5734 20.2557 20.1027 20.181 20.6683C20.1569 20.8503 20.308 20.9998 20.4917 20.9998C20.6753 20.9998 20.8212 20.8499 20.8532 20.669C20.9228 20.2759 21.1153 19.9102 21.4085 19.6243C21.7826 19.2595 22.2901 19.0546 22.8192 19.0546C23.3483 19.0546 23.8557 19.2595 24.2299 19.6243C24.523 19.9102 24.7156 20.2759 24.7851 20.669C24.8171 20.8499 24.963 20.9998 25.1467 20.9998C25.3303 20.9998 25.4814 20.8503 25.4574 20.6683C25.3826 20.1027 25.1181 19.5734 24.7001 19.1658C24.2012 18.6794 23.5247 18.4062 22.8192 18.4062C22.1137 18.4062 21.4371 18.6794 20.9383 19.1658Z" fill="#BDCCF8"/>
<path d="M19.8363 25.7598C19.9197 25.7598 19.9847 25.8323 19.9754 25.9153L19.8599 26.952C19.8489 27.0506 19.9411 27.129 20.0367 27.1023L21.0988 26.8062C21.1808 26.7833 21.2641 26.8384 21.2752 26.9229L21.3603 27.573C21.3708 27.6529 21.3118 27.7251 21.2313 27.7308L20.3442 27.7934C20.2336 27.8012 20.1755 27.9285 20.2421 28.0171L20.8369 28.8093C20.8885 28.878 20.8666 28.9765 20.7908 29.0169L20.1995 29.3321C20.13 29.3692 20.0435 29.3415 20.0084 29.271L19.6129 28.4776C19.56 28.3714 19.4073 28.375 19.3595 28.4836L19.0187 29.2572C18.9864 29.3306 18.8992 29.3619 18.8276 29.3258L18.2113 29.015C18.1336 28.9759 18.1101 28.8762 18.162 28.8064L18.7507 28.0152C18.8165 27.9268 18.759 27.8005 18.6491 27.7921L17.7689 27.7244C17.6876 27.7181 17.6288 27.6438 17.6413 27.5632L17.7418 26.9193C17.7548 26.8362 17.8376 26.7832 17.9185 26.8062L18.9524 27.1009C19.0482 27.1281 19.141 27.0496 19.13 26.9507L19.0146 25.9153C19.0053 25.8323 19.0703 25.7598 19.1537 25.7598H19.8363Z" fill="#BDCCF8"/>
<path d="M25.7162 25.7598C25.7996 25.7598 25.8646 25.8323 25.8553 25.9153L25.7398 26.952C25.7288 27.0506 25.821 27.129 25.9166 27.1023L26.9786 26.8062C27.0607 26.7833 27.144 26.8384 27.1551 26.9229L27.2402 27.573C27.2507 27.6529 27.1916 27.7251 27.1112 27.7308L26.2241 27.7934C26.1135 27.8012 26.0554 27.9285 26.122 28.0171L26.7168 28.8093C26.7684 28.878 26.7465 28.9765 26.6707 29.0169L26.0794 29.3321C26.0098 29.3692 25.9234 29.3415 25.8882 29.271L25.4928 28.4776C25.4399 28.3714 25.2872 28.375 25.2394 28.4836L24.8986 29.2572C24.8663 29.3306 24.7791 29.3619 24.7075 29.3258L24.0911 29.015C24.0135 28.9759 23.99 28.8762 24.0419 28.8064L24.6306 28.0152C24.6964 27.9268 24.6389 27.8005 24.529 27.7921L23.6488 27.7244C23.5674 27.7181 23.5086 27.6438 23.5212 27.5632L23.6217 26.9193C23.6346 26.8362 23.7175 26.7832 23.7984 26.8062L24.8323 27.1009C24.928 27.1281 25.0209 27.0496 25.0098 26.9507L24.8945 25.9153C24.8852 25.8323 24.9502 25.7598 25.0336 25.7598H25.7162Z" fill="#BDCCF8"/>
<path d="M31.5961 25.7598C31.6795 25.7598 31.7444 25.8323 31.7352 25.9153L31.6197 26.952C31.6087 27.0506 31.7009 27.129 31.7964 27.1023L32.8585 26.8062C32.9406 26.7833 33.0239 26.8384 33.0349 26.9229L33.1201 27.573C33.1305 27.6529 33.0715 27.7251 32.9911 27.7308L32.104 27.7934C31.9934 27.8012 31.9353 27.9285 32.0019 28.0171L32.5967 28.8093C32.6482 28.878 32.6264 28.9765 32.5506 29.0169L31.9593 29.3321C31.8897 29.3692 31.8033 29.3415 31.7681 29.271L31.3727 28.4776C31.3198 28.3714 31.1671 28.375 31.1193 28.4836L30.7785 29.2572C30.7462 29.3306 30.6589 29.3619 30.5873 29.3258L29.971 29.015C29.8934 28.9759 29.8698 28.8762 29.9217 28.8064L30.5105 28.0152C30.5763 27.9268 30.5188 27.8005 30.4089 27.7921L29.5287 27.7244C29.4473 27.7181 29.3885 27.6438 29.4011 27.5632L29.5016 26.9193C29.5145 26.8362 29.5973 26.7832 29.6782 26.8062L30.7122 27.1009C30.8079 27.1281 30.9007 27.0496 30.8897 26.9507L30.7744 25.9153C30.7651 25.8323 30.83 25.7598 30.9135 25.7598H31.5961Z" fill="#BDCCF8"/>
<path d="M37.4759 25.7598C37.5594 25.7598 37.6243 25.8323 37.6151 25.9153L37.4996 26.952C37.4886 27.0506 37.5808 27.129 37.6763 27.1023L38.7384 26.8062C38.8205 26.7833 38.9038 26.8384 38.9148 26.9229L39 27.573C39.0104 27.6529 38.9514 27.7251 38.871 27.7308L37.9839 27.7934C37.8732 27.8012 37.8152 27.9285 37.8818 28.0171L38.4766 28.8093C38.5281 28.878 38.5063 28.9765 38.4305 29.0169L37.8392 29.3321C37.7696 29.3692 37.6832 29.3415 37.648 29.271L37.2526 28.4776C37.1997 28.3714 37.047 28.375 36.9992 28.4836L36.6584 29.2572C36.626 29.3306 36.5388 29.3619 36.4672 29.3258L35.8509 29.015C35.7733 28.9759 35.7497 28.8762 35.8016 28.8064L36.3904 28.0152C36.4562 27.9268 36.3987 27.8005 36.2888 27.7921L35.4086 27.7244C35.3272 27.7181 35.2684 27.6438 35.281 27.5632L35.3814 26.9193C35.3944 26.8362 35.4772 26.7832 35.5581 26.8062L36.5921 27.1009C36.6878 27.1281 36.7806 27.0496 36.7696 26.9507L36.6542 25.9153C36.645 25.8323 36.7099 25.7598 36.7934 25.7598H37.4759Z" fill="#BDCCF8"/>
<rect x="17.3594" y="32.4805" width="14.84" height="1.68" rx="0.839999" fill="#BDCCF8"/>
<rect x="17.3594" y="36.9609" width="14.84" height="1.68" rx="0.840001" fill="#BDCCF8"/>
<rect x="17.3594" y="41.7188" width="14.84" height="1.68" rx="0.840001" fill="#BDCCF8"/>
<path d="M36.7313 40.885H35.3652V38.8171C35.3652 35.7853 37.76 33.3184 40.704 33.3184C43.648 33.3184 46.0428 35.7853 46.0428 38.8171V40.885H44.6767V38.8171C44.6767 36.5382 42.8947 34.6844 40.7044 34.6844C38.5141 34.6844 36.732 36.5382 36.732 38.8171V40.885H36.7313Z" fill="#A0B2EC"/>
<mask id="mask0_55663_129812" style="mask-type:alpha" maskUnits="userSpaceOnUse" x="35" y="33" width="12" height="8">
<path d="M36.7313 40.885H35.3652V38.8171C35.3652 35.7853 37.76 33.3184 40.704 33.3184C43.648 33.3184 46.0428 35.7853 46.0428 38.8171V40.885H44.6767V38.8171C44.6767 36.5382 42.8947 34.6844 40.7044 34.6844C38.5141 34.6844 36.732 36.5382 36.732 38.8171V40.885H36.7313Z" fill="#A0B2EC"/>
</mask>
<g mask="url(#mask0_55663_129812)">
<path opacity="0.2" d="M46.3274 38.7482C46.3274 35.7543 43.9353 33.3184 40.9941 33.3184C43.1823 33.3184 45.6425 35.5339 45.6425 38.7482V39.7366C45.6425 40.5274 44.9933 40.5642 44.6687 40.5642H46.3274V38.7482Z" fill="#495574"/>
</g>
<path d="M33.6006 41.8886C33.6006 41.1573 34.1934 40.5645 34.9247 40.5645H46.5107C47.242 40.5645 47.8348 41.1573 47.8348 41.8886V49.5022C47.8348 50.2335 47.242 50.8264 46.5107 50.8264H34.9247C34.1934 50.8264 33.6006 50.2335 33.6006 49.5022V41.8886Z" fill="#F0B323"/>
<path opacity="0.5" d="M42.2449 44.8343C42.2449 44.0411 41.6028 43.3984 40.8106 43.3984C40.0185 43.3984 39.376 44.0411 39.376 44.8343C39.376 45.3792 39.6797 45.767 40.1267 46.0099L39.9461 48.0512H41.73L41.5319 46.0966C41.9792 45.8533 42.2449 45.3792 42.2449 44.8343Z" fill="#F9FAFF"/>
<path opacity="0.3" d="M42.0267 44.7987C42.0267 44.0252 41.4 43.3984 40.6268 43.3984C39.8537 43.3984 39.2266 44.0252 39.2266 44.7987C39.2266 45.3302 39.5444 45.8282 39.9806 46.0651L39.8018 48.0615H41.4514L41.294 46.0298C41.7306 45.7925 42.0267 45.3302 42.0267 44.7987Z" fill="#495574"/>
<path d="M42.1371 44.7987C42.1371 44.0252 41.5103 43.3984 40.7372 43.3984C39.964 43.3984 39.3369 44.0252 39.3369 44.7987C39.3369 45.3302 39.6334 45.7929 40.0696 46.0298L39.9122 48.0615H41.5618L41.4044 46.0298C41.841 45.7925 42.1371 45.3302 42.1371 44.7987Z" fill="#262939"/>
<path opacity="0.2" d="M35.3652 40.5645V38.9277C35.3652 39.8105 35.6227 40.5645 36.7261 40.5645H35.3652Z" fill="#495574"/>
<path opacity="0.2" d="M46.5483 40.5645H45.7023C46.3938 40.5645 47.3207 40.6196 47.3207 41.8518C47.3207 44.549 47.2287 47.4609 47.2287 49.3183C47.2287 51.1758 38.0335 50.7528 37.1875 50.8264H46.4195C47.3942 50.8264 47.8356 50.0907 47.8356 49.5206V41.8886C47.8356 41.0242 47.0816 40.5645 46.5483 40.5645Z" fill="#495574"/>
<path opacity="0.3" d="M34.9898 40.8289L36.5898 40.8105C34.8059 40.9761 34.4749 41.4358 34.3829 42.0427L33.8496 45.8496V42.0427C33.8496 41.3512 34.4381 40.8289 34.9898 40.8289Z" fill="white"/>
<path opacity="0.7" d="M36.1583 36.0606C36.4379 35.5457 37.133 34.8039 37.2985 34.6445C36.71 35.2919 35.804 36.833 35.625 37.4399C35.6986 37.0721 35.8788 36.5755 36.1583 36.0606Z" fill="#BDCCF8"/>
<path d="M43.3281 40.1873L44.0878 40.104C44.1937 40.0924 44.2188 39.9498 44.1232 39.9027L43.4333 39.5631C43.3693 39.5316 43.293 39.5708 43.2813 39.6413L43.2114 40.0641C43.1999 40.1337 43.258 40.195 43.3281 40.1873Z" fill="#0C419A"/>
<path d="M46.6363 38.3278L46.4339 39.0648C46.4057 39.1675 46.5291 39.2434 46.608 39.1719L47.1778 38.6556C47.2307 38.6077 47.2224 38.5222 47.1612 38.4855L46.7938 38.2647C46.7334 38.2284 46.655 38.2598 46.6363 38.3278Z" fill="#0C419A"/>
<path d="M43.474 38.7007L44.0299 39.2253C44.1073 39.2984 44.2322 39.225 44.2061 39.1218L44.0176 38.3763C44.0001 38.3071 43.9207 38.2744 43.8595 38.3112L43.4922 38.5321C43.4318 38.5684 43.4228 38.6523 43.474 38.7007Z" fill="#0C419A"/>
<path d="M47.407 39.6288L46.6837 39.8758C46.5829 39.9102 46.5896 40.055 46.6931 40.08L47.4404 40.2609C47.5098 40.2777 47.5757 40.2227 47.5717 40.1514L47.5477 39.7235C47.5437 39.6532 47.4737 39.606 47.407 39.6288Z" fill="#0C419A"/>
</g>
<defs>
<filter id="filter0_d_55663_129812" x="6.18349" y="4.20991" width="43.8859" height="55.9533" filterUnits="userSpaceOnUse" color-interpolation-filters="sRGB">
<feFlood flood-opacity="0" result="BackgroundImageFix"/>
<feColorMatrix in="SourceAlpha" type="matrix" values="0 0 0 0 0 0 0 0 0 0 0 0 0 0 0 0 0 0 127 0" result="hardAlpha"/>
<feOffset dy="4.18853"/>
<feGaussianBlur stdDeviation="4.18853"/>
<feColorMatrix type="matrix" values="0 0 0 0 0.0470588 0 0 0 0 0.254902 0 0 0 0 0.603922 0 0 0 0.1 0"/>
<feBlend mode="normal" in2="BackgroundImageFix" result="effect1_dropShadow_55663_129812"/>
<feBlend mode="normal" in="SourceGraphic" in2="effect1_dropShadow_55663_129812" result="shape"/>
</filter>
<clipPath id="clip0_55663_129812">
<rect width="56" height="56" fill="white"/>
</clipPath>
</defs>
</svg>
