<svg width="611" height="470" viewBox="0 0 611 470" fill="none" xmlns="http://www.w3.org/2000/svg">
    <path fill-rule="evenodd" clip-rule="evenodd"
        d="M0.541016 413.635V470.658H610.541V439.853C511.385 435.915 412.54 423.027 315.206 410.16C249 401.412 179.643 405.357 110.548 409.287C73.6307 411.387 36.7883 413.482 0.541016 413.635Z"
        fill="white" />
    <g opacity="0.6">
        <path d="M69.1006 179.227L162.387 179.226L255.674 179.227V349.191H69.1006V179.227Z"
            fill="#E7ECFA" />
        <path opacity="0.2" d="M68.8496 201.77H251.148V206.68H68.8496V201.77Z" fill="#495574" />
        <path
            d="M66.5117 201.756C66.5117 200.465 67.5586 199.418 68.85 199.418H253.484C254.775 199.418 255.822 200.465 255.822 201.756V201.756C255.822 203.048 254.775 204.095 253.484 204.095H68.85C67.5586 204.095 66.5117 203.048 66.5117 201.756V201.756Z"
            fill="white" />
        <path d="M68.917 327.227H255.395V349.176H68.917V327.227Z" fill="#BDCCF8" />
        <rect x="88.1783" y="242.244" width="52.8825" height="105.954" fill="#BDCCF8" stroke="white"
            stroke-width="1.96394" />
        <rect x="161.304" y="242.248" width="70.4882" height="62.1568" fill="#E7ECFA" stroke="white"
            stroke-width="1.96394" />
        <path opacity="0.3" d="M196.892 244.93H218.831L200.549 301.632H178.61L196.892 244.93Z"
            fill="white" />
        <path opacity="0.3" d="M182.263 244.93H193.232L174.95 301.632H163.98L182.263 244.93Z"
            fill="white" />
        <rect x="92.9262" y="246.999" width="43.3862" height="12.3129" fill="#E7ECFA"
            stroke="#BDCCF8" stroke-width="0.490984" />
        <rect x="92.9262" y="261.632" width="43.3862" height="81.8194" fill="#E7ECFA"
            stroke="#BDCCF8" stroke-width="0.490984" />
        <path
            d="M195.999 281.372H200.804C201.76 281.372 202.677 280.988 203.353 280.306C204.029 279.624 204.409 278.698 204.409 277.733C204.409 276.768 204.029 275.843 203.353 275.16C202.677 274.478 201.76 274.095 200.804 274.095H192.395C192.076 274.095 191.77 274.222 191.545 274.45C191.32 274.677 191.193 274.986 191.193 275.307C191.193 275.629 191.32 275.938 191.545 276.165C191.77 276.393 192.076 276.52 192.395 276.52H200.804C201.123 276.52 201.429 276.648 201.654 276.876C201.879 277.103 202.006 277.411 202.006 277.733C202.006 278.055 201.879 278.363 201.654 278.591C201.429 278.818 201.123 278.946 200.804 278.946H195.999C195.043 278.946 194.126 279.329 193.45 280.012C192.774 280.694 192.395 281.619 192.395 282.584C192.395 283.549 192.774 284.475 193.45 285.157C194.126 285.84 195.043 286.223 195.999 286.223H200.804C201.123 286.223 201.429 286.095 201.654 285.868C201.879 285.64 202.006 285.332 202.006 285.01C202.006 284.688 201.879 284.38 201.654 284.152C201.429 283.925 201.123 283.797 200.804 283.797H195.999C195.68 283.797 195.375 283.669 195.149 283.442C194.924 283.215 194.797 282.906 194.797 282.584C194.797 282.263 194.924 281.954 195.149 281.727C195.375 281.499 195.68 281.372 195.999 281.372Z"
            fill="#0C419A" />
        <path
            d="M199.002 271.669C200.018 271.669 201.008 271.343 201.829 270.74C202.65 270.136 203.261 269.285 203.574 268.31C203.715 267.876 203.988 267.499 204.353 267.232C204.719 266.964 205.158 266.819 205.61 266.818H216.338C216.049 268.839 215.049 270.687 213.52 272.023C211.99 273.36 210.035 274.095 208.013 274.095C207.694 274.095 207.389 274.222 207.163 274.45C206.938 274.677 206.811 274.986 206.811 275.307C206.811 275.629 206.938 275.938 207.163 276.165C207.389 276.393 207.694 276.52 208.013 276.52C210.88 276.52 213.631 275.37 215.658 273.323C217.686 271.276 218.825 268.5 218.825 265.605C218.825 265.283 218.699 264.975 218.473 264.747C218.248 264.52 217.943 264.392 217.624 264.392H205.61C204.594 264.392 203.604 264.718 202.783 265.321C201.962 265.925 201.351 266.776 201.039 267.752C200.897 268.185 200.625 268.562 200.259 268.83C199.894 269.097 199.454 269.242 199.002 269.243H196.599C196.148 269.242 195.708 269.097 195.343 268.83C194.977 268.562 194.704 268.185 194.563 267.752C194.251 266.776 193.64 265.925 192.819 265.321C191.997 264.718 191.008 264.392 189.992 264.392H177.978C177.659 264.392 177.354 264.52 177.128 264.747C176.903 264.975 176.776 265.283 176.776 265.605C176.776 268.5 177.916 271.276 179.943 273.323C181.971 275.37 184.721 276.52 187.589 276.52C187.908 276.52 188.213 276.393 188.438 276.165C188.664 275.938 188.79 275.629 188.79 275.307C188.79 274.986 188.664 274.677 188.438 274.45C188.213 274.222 187.908 274.095 187.589 274.095C185.566 274.095 183.611 273.36 182.082 272.023C180.553 270.687 179.552 268.839 179.263 266.818H189.992C190.443 266.819 190.883 266.964 191.249 267.232C191.614 267.499 191.887 267.876 192.028 268.31C192.341 269.285 192.951 270.136 193.773 270.74C194.594 271.343 195.584 271.669 196.599 271.669H199.002Z"
            fill="#0C419A" />
        <path
            d="M197.801 292.287C197.482 292.287 197.177 292.159 196.951 291.932C196.726 291.704 196.599 291.396 196.599 291.074V261.966C196.599 261.645 196.726 261.336 196.951 261.109C197.177 260.881 197.482 260.754 197.801 260.754C198.119 260.754 198.425 260.881 198.65 261.109C198.876 261.336 199.002 261.645 199.002 261.966V291.074C199.002 291.396 198.876 291.704 198.65 291.932C198.425 292.159 198.119 292.287 197.801 292.287Z"
            fill="#0C419A" />
        <path
            d="M197.801 261.966C197.207 261.966 196.626 261.789 196.132 261.455C195.638 261.122 195.253 260.649 195.026 260.095C194.799 259.541 194.739 258.931 194.855 258.343C194.971 257.755 195.257 257.214 195.677 256.79C196.097 256.366 196.632 256.078 197.215 255.961C197.798 255.844 198.401 255.904 198.95 256.133C199.499 256.363 199.968 256.751 200.298 257.25C200.628 257.748 200.804 258.335 200.804 258.934C200.804 259.739 200.488 260.51 199.925 261.078C199.361 261.647 198.597 261.966 197.801 261.966ZM197.801 257.635C197.546 257.635 197.297 257.711 197.086 257.854C196.874 257.997 196.709 258.2 196.612 258.437C196.514 258.675 196.489 258.936 196.538 259.188C196.588 259.44 196.711 259.672 196.891 259.853C197.071 260.035 197.3 260.159 197.55 260.209C197.799 260.259 198.058 260.233 198.293 260.135C198.529 260.037 198.73 259.87 198.871 259.656C199.013 259.443 199.088 259.191 199.088 258.934C199.088 258.59 198.952 258.259 198.711 258.016C198.47 257.772 198.142 257.635 197.801 257.635Z"
            fill="#0C419A" />
        <rect x="156.667" y="305.266" width="80.4414" height="7.31648" fill="white" />
        <rect x="156.667" y="312.582" width="80.4414" height="1.82822" fill="#0C419A"
            fill-opacity="0.16" />
        <path opacity="0.3" fill-rule="evenodd" clip-rule="evenodd"
            d="M92.6816 321.742V273.589L95.9422 263.207H111.065L92.6816 321.742ZM92.6816 343.462V337.783L116.102 263.207H136.559V294.376L121.143 343.462H92.6816Z"
            fill="white" />
        <path
            d="M295.949 84.1652C295.949 82.8141 297.044 81.7189 298.396 81.7189L420.711 81.7188L543.026 81.7189C544.377 81.7189 545.472 82.8141 545.472 84.1652V348.499C545.472 349.85 544.377 350.945 543.026 350.945H298.396C297.044 350.945 295.949 349.85 295.949 348.499V84.1652Z"
            fill="#E7ECFA" />
        <path d="M295.934 309.879H545.353V351.142H295.934V309.879Z" fill="#BDCCF8" />
        <rect x="476.042" y="171.13" width="50.0033" height="43.9478" fill="#E7ECFA" stroke="white"
            stroke-width="2.65763" />
        <path opacity="0.3" d="M501.314 172.457H517.259L503.971 213.671H488.025L501.314 172.457Z"
            fill="white" />
        <path opacity="0.3" d="M490.695 172.457H498.668L485.38 213.671H477.407L490.695 172.457Z"
            fill="white" />
        <rect x="472.075" y="216.336" width="58.4679" height="5.31789" fill="white" />
        <rect x="472.075" y="221.648" width="58.4679" height="1.32882" fill="#0C419A"
            fill-opacity="0.16" />
        <rect x="395.306" y="171.13" width="50.0033" height="43.9478" fill="#E7ECFA" stroke="white"
            stroke-width="2.65763" />
        <path opacity="0.3" d="M420.578 172.457H436.524L423.236 213.671H407.29L420.578 172.457Z"
            fill="white" />
        <path opacity="0.3" d="M409.96 172.457H417.933L404.645 213.671H396.672L409.96 172.457Z"
            fill="white" />
        <rect x="391.34" y="216.336" width="58.4679" height="5.31789" fill="white" />
        <rect x="391.34" y="221.648" width="58.4679" height="1.32882" fill="#0C419A"
            fill-opacity="0.16" />
        <rect x="314.608" y="171.13" width="50.0033" height="43.9478" fill="#E7ECFA" stroke="white"
            stroke-width="2.65763" />
        <path opacity="0.3" d="M339.88 172.461H355.826L342.538 213.675H326.592L339.88 172.461Z"
            fill="white" />
        <path opacity="0.3" d="M329.262 172.461H337.235L323.947 213.675H315.974L329.262 172.461Z"
            fill="white" />
        <rect x="310.642" y="216.336" width="58.4679" height="5.31789" fill="white" />
        <rect x="310.642" y="221.648" width="58.4679" height="1.32882" fill="#0C419A"
            fill-opacity="0.16" />
        <rect x="476.037" y="246.954" width="50.0033" height="43.9478" fill="#E7ECFA" stroke="white"
            stroke-width="2.65763" />
        <path opacity="0.3" d="M501.309 248.289H517.254L503.966 289.503H488.021L501.309 248.289Z"
            fill="white" />
        <path opacity="0.3" d="M490.69 248.289H498.663L485.375 289.503H477.402L490.69 248.289Z"
            fill="white" />
        <rect x="472.07" y="292.148" width="58.4679" height="5.31789" fill="white" />
        <rect x="472.07" y="297.465" width="58.4679" height="1.32882" fill="#0C419A"
            fill-opacity="0.16" />
        <rect x="314.607" y="246.954" width="50.0033" height="43.9478" fill="#E7ECFA" stroke="white"
            stroke-width="2.65763" />
        <path opacity="0.3" d="M339.879 248.289H355.825L342.537 289.503H326.591L339.879 248.289Z"
            fill="white" />
        <path opacity="0.3" d="M329.261 248.289H337.234L323.946 289.503H315.973L329.261 248.289Z"
            fill="white" />
        <rect x="310.641" y="292.148" width="58.4679" height="5.31789" fill="white" />
        <rect x="310.641" y="297.465" width="58.4679" height="1.32882" fill="#0C419A"
            fill-opacity="0.16" />
        <rect x="395.588" y="247.466" width="50.2307" height="99.2077" fill="#BDCCF8" stroke="white"
            stroke-width="3.58791" />
        <rect x="399.609" y="251.503" width="42.1579" height="11.6669" fill="#E7ECFA"
            stroke="#BDCCF8" stroke-width="0.896979" />
        <rect x="400.519" y="265.406" width="40.3595" height="75.7116" fill="#E7ECFA" />
        <rect x="400.519" y="265.406" width="40.3595" height="75.7116" stroke="#BDCCF8" />
        <mask id="mask0_44882_20623" style="mask-type:alpha" maskUnits="userSpaceOnUse" x="400"
            y="265" width="41" height="77">
            <rect x="400.505" y="265.383" width="40.3595" height="75.7116" fill="#E7ECFA" />
            <rect x="400.505" y="265.383" width="40.3595" height="75.7116" stroke="#BDCCF8" />
        </mask>
        <g mask="url(#mask0_44882_20623)">
            <path opacity="0.3"
                d="M429.829 264.801H458.766L434.652 343.335H405.715L429.829 264.801Z"
                fill="white" />
            <path opacity="0.3"
                d="M410.549 264.801H425.018L400.903 343.335H386.435L410.549 264.801Z"
                fill="white" />
        </g>
        <path opacity="0.2" d="M295.949 107.473H545.472V114.815H295.949V107.473Z" fill="#495574" />
        <path
            d="M291.021 105.978C291.021 104.626 292.117 103.531 293.468 103.531H547.814C549.165 103.531 550.261 104.626 550.261 105.978V108.945C550.261 110.296 549.165 111.391 547.814 111.391H293.468C292.117 111.391 291.021 110.296 291.021 108.945V105.978Z"
            fill="white" />
        <ellipse opacity="0.1" cx="420.805" cy="111.172" rx="29.5051" ry="29.5197" fill="#262939" />
        <ellipse cx="420.319" cy="107.85" rx="31.0999" ry="31.1153" fill="#E7ECFA" />
        <ellipse cx="420.322" cy="107.849" rx="26.3438" ry="26.3569" fill="white" />
        <path
            d="M446.139 107.849C446.139 122.115 434.58 133.679 420.322 133.679C406.064 133.679 394.505 122.115 394.505 107.849C394.505 93.5833 406.064 82.0191 420.322 82.0191C434.58 82.0191 446.139 93.5833 446.139 107.849Z"
            stroke="#BDCCF8" stroke-opacity="0.5" stroke-width="1.05375" />
        <path fill-rule="evenodd" clip-rule="evenodd"
            d="M418.024 92.4805C416.821 92.4805 415.845 93.4561 415.845 94.6596V103.384H407.133C405.93 103.384 404.954 104.36 404.954 105.563V109.926C404.954 111.13 405.93 112.105 407.133 112.105H415.845V120.824C415.845 122.028 416.821 123.004 418.024 123.004H422.382C423.586 123.004 424.562 122.028 424.562 120.824V112.105H433.283C434.487 112.105 435.462 111.13 435.462 109.926V105.563C435.462 104.36 434.487 103.384 433.283 103.384H424.562V94.6596C424.562 93.4561 423.586 92.4805 422.382 92.4805H418.024Z"
            fill="#0C419A" />
        <rect width="476.782" height="8.18413" transform="matrix(1 0 0 -1 68.8486 357.254)"
            fill="#A0B2EC" />
    </g>
    <path
        d="M293.785 461.344C337.923 461.344 373.705 456.819 373.705 451.238C373.705 445.657 337.923 441.133 293.785 441.133C249.647 441.133 213.865 445.657 213.865 451.238C213.865 456.819 249.647 461.344 293.785 461.344Z"
        fill="#E7ECFA" />
    <g clip-path="url(#clip0_44882_20623)">
        <path
            d="M359.98 221.427C354.842 233.761 352.299 234.459 347.052 234.775C342.331 235.058 338.99 235.174 335.158 236.205C328.331 238.05 328.004 231.068 329.711 230.835C333.125 229.007 335.903 227.511 338.372 225.184C340.787 222.923 343.965 221.543 347.106 221.51L359.98 221.41V221.427Z"
            fill="#F8A88F" />
        <path
            d="M292.73 253.648C290.936 249.839 292.277 245.246 295.926 243.126C304.012 238.435 312.966 235.647 322.098 232.723C329.238 230.426 336.634 227.05 342.946 224.145C344.425 225.067 343.814 234.234 342.788 235.255C330.579 242.596 317.483 252.038 303.302 257.789C299.239 259.438 294.604 257.593 292.75 253.648H292.73Z"
            fill="#F8A88F" />
        <path
            d="M305.835 250.467C325.756 249.172 321.101 270.293 326.801 283.621C335.282 303.427 340.726 324.941 344.572 346.317L353.013 406.403C353.506 409.995 353.921 413.646 354.808 416.905C351.455 418.652 347.589 420.242 343.605 421.636C343.566 421.498 343.526 421.38 343.467 421.243C339.049 409.19 331.239 398.335 328.833 385.655C327.63 379.315 327.196 373.151 326.703 366.654C326.131 358.92 322.718 355.268 318.951 348.457C309.879 332.047 301.792 315.833 296.191 297.852C292.108 284.76 284.041 251.861 305.816 250.447L305.835 250.467Z"
            fill="#0F1F59" />
        <path
            d="M354.804 416.898C356.402 422.709 359.538 427.223 367.407 427.832C368.887 429.304 368.887 431.699 367.822 434.192C365.06 440.67 353.917 439.139 349.578 435.841C344.627 432.072 345.416 426.949 343.602 421.649C347.586 420.255 351.432 418.665 354.804 416.918V416.898Z"
            fill="#E0876B" />
        <path
            d="M345.837 430.292C353.055 431.391 355.757 428.603 357.631 427.013C355.343 424.658 354.475 421.085 357.631 421.615C358.657 421.792 359.485 422.342 360.235 423.068C362.976 425.718 366.862 426.876 370.648 426.366C376.723 425.541 381.91 423.578 385.737 425.836C385.283 426.837 386.171 427.799 381.575 431.489C375.993 436.004 369.879 436.612 362.917 438.595C354.574 440.97 351.813 442.285 347.336 443.973C345.561 439.753 344.732 433.805 345.856 430.292H345.837Z"
            fill="#5E74B8" />
        <path
            d="M362.434 437.794C363.381 437.519 379.83 435.458 385.708 425.859C386.28 426.193 386.812 426.625 387.345 427.194C387.483 428.274 385.727 430.453 384.879 431.316C374.465 441.936 368.134 437.068 359.377 442.839C357.977 443.761 351.843 448.688 349.318 446.765C348.411 446.058 347.76 445.116 347.307 444.017C351.784 442.328 354.091 440.189 362.434 437.814V437.794Z"
            fill="#BDCCF8" />
        <path
            d="M263.853 381.584L248.903 418.782C244.663 417.918 240.245 416.309 236.99 414.856C239.199 408.32 240.284 401.253 242 394.599C244.426 385.118 245.728 374.655 250.008 365.783C252.907 359.756 258.824 351.964 260.481 345.623C265.116 327.937 270.224 312.391 271.624 294.214C272.472 283.3 276.121 270.58 282.038 261.511C287.837 252.619 297.813 251.735 307.359 254.306C317.97 257.153 315.86 271.482 315.663 281.847C315.544 287.991 314.341 294.92 308.562 297.413C304.598 299.12 305.449 301.182 302.964 306.875C300.479 312.587 296.594 330.509 277.009 361.759C272.808 368.452 267.206 373.183 263.834 381.584H263.853Z"
            fill="#122870" />
        <path
            d="M246.297 425.286C245.923 428.623 243.004 433.531 240.4 433.374C229.296 432.687 233.852 423.206 236.258 416.944C236.515 416.257 236.751 415.57 236.988 414.863C240.242 416.316 244.68 417.925 248.901 418.789L246.297 425.286Z"
            fill="#E0876B" />
        <path
            d="M258.935 443.238C252.801 442.336 246.923 441.236 240.967 439.195C238.62 438.39 236.332 437.86 233.886 437.33C231.934 436.918 229.981 436.584 228.009 436.25C227.693 434.307 228.107 432.109 228.66 430.401C229.863 426.75 231.598 424.963 234.281 422.451C235.365 424.826 240.671 426.573 242.979 426.416C242.426 424.61 247.515 419.624 248.619 422.765C249.744 425.965 250.947 431.971 257.949 435.21C261.282 436.741 268.56 439.214 268.5 443.395C265.305 443.808 262.051 443.71 258.915 443.238H258.935Z"
            fill="#5E74B8" />
        <path
            d="M230.136 439.819C228.854 438.994 228.223 437.699 228.006 436.266C229.978 436.599 231.931 436.933 233.883 437.345C236.329 437.875 238.617 438.405 240.964 439.21C246.94 441.251 252.798 442.351 258.932 443.254C262.068 443.705 265.322 443.823 268.517 443.411C268.517 443.568 268.517 443.725 268.517 443.901C268.577 447.395 259.662 446.414 256.21 446.002C250.924 445.354 245.678 443.705 240.609 442.076C237.493 441.075 232.799 441.546 230.156 439.838L230.136 439.819Z"
            fill="#BDCCF8" />
        <path
            d="M282.93 259.397C287.005 259.183 292.143 259.806 296.183 259.124C300.52 258.384 304.173 256.888 308.562 256.343C312.846 255.817 312.336 257.287 316.582 254.927C319.229 250.017 319.172 245.958 319.172 238.939C317.814 232.646 320.082 225.372 320.082 218.987C319.591 207.197 320.113 209.284 316.177 202.913C312.241 196.522 309.176 189.157 304.334 183.487C297.82 175.85 284.968 175.246 283.017 187.599C281.572 196.756 281.955 205.991 281.885 215.246C281.833 223.488 279.969 231.437 278.315 239.406C277.27 244.433 274.71 250.493 276.817 255.344C278.263 258.657 280.143 261.501 282.947 259.397H282.93Z"
            fill="white" />
        <path
            d="M322.795 168.423L325.965 168.045C326.851 167.934 327.451 167.082 327.261 166.221C327.261 166.221 326.212 161.799 325.877 160.37C325.541 158.942 325.816 157.466 326.409 156.122C326.849 155.154 327.091 154.13 327.234 153.088C327.394 151.849 327.57 150.354 327.634 149.332C328.025 142.083 321.072 135.781 313.723 136.356C300.167 137.451 299.064 155.998 297.103 166.646C295.968 172.866 292.92 176.337 288.038 180.948C293.189 182.505 302.084 190.544 307.907 188.363C308.044 185.436 308.354 178.07 311.836 177.412C313.705 177.072 315.702 178.81 317.904 178.308C318.022 178.287 318.16 178.246 318.297 178.185C320.691 177.327 322.276 175.027 322.458 172.492L322.775 168.384L322.795 168.423Z"
            fill="#E0876B" />
        <g clip-path="url(#clip1_44882_20623)">
            <path opacity="0.35"
                d="M325.642 161.007C325.085 163.757 323.413 165.777 321.803 165.747C321.69 165.746 321.576 165.732 321.465 165.71C320.947 165.605 320.501 165.288 320.15 164.814C319.886 164.458 319.675 164.018 319.523 163.512C319.341 162.89 319.247 162.171 319.258 161.399C319.268 160.869 319.327 160.314 319.441 159.751C319.998 157.002 321.666 154.984 323.28 155.012C323.396 155.013 323.51 155.024 323.625 155.047C323.97 155.117 324.28 155.281 324.552 155.522C324.86 155.788 325.116 156.156 325.32 156.597L325.32 156.6C325.66 157.345 325.845 158.299 325.826 159.353L325.826 159.356C325.816 159.886 325.757 160.442 325.642 161.007L325.642 161.007Z"
                fill="white" />
            <path opacity="0.48"
                d="M324.545 155.514L319.516 163.505C319.334 162.882 319.24 162.164 319.252 161.391L323.272 155.004C323.388 155.006 323.503 155.016 323.618 155.04C323.963 155.11 324.273 155.273 324.545 155.514Z"
                fill="white" />
            <path opacity="0.48"
                d="M325.823 159.353L325.823 159.356L321.801 165.746C321.688 165.745 321.574 165.731 321.462 165.709C320.945 165.604 320.499 165.287 320.148 164.813L325.317 156.599C325.657 157.345 325.842 158.299 325.824 159.353L325.823 159.353Z"
                fill="white" />
            <path
                d="M321.039 157.034C320.974 157.015 320.908 156.995 320.838 156.982C320.802 156.973 320.766 156.965 320.726 156.959L320.68 156.952C320.632 156.941 320.583 156.934 320.534 156.93C320.46 157.047 320.389 157.167 320.32 157.291C320.286 157.351 320.252 157.414 320.22 157.479C320.185 157.542 320.154 157.609 320.122 157.676C320.203 157.676 320.284 157.676 320.367 157.682C320.448 157.685 320.532 157.688 320.615 157.698C320.664 157.702 320.714 157.706 320.763 157.711C320.876 157.475 320.997 157.256 321.131 157.052C321.103 157.05 321.069 157.045 321.039 157.035L321.039 157.034ZM321.039 157.034C320.974 157.015 320.908 156.995 320.838 156.982C320.802 156.973 320.766 156.965 320.726 156.959L320.68 156.952C320.632 156.941 320.583 156.934 320.534 156.93C320.46 157.047 320.389 157.167 320.32 157.291C320.286 157.351 320.252 157.414 320.22 157.479C320.185 157.542 320.154 157.609 320.122 157.676C320.203 157.676 320.284 157.676 320.367 157.682C320.448 157.685 320.532 157.688 320.615 157.698C320.664 157.702 320.714 157.706 320.763 157.711C320.876 157.475 320.997 157.256 321.131 157.052C321.103 157.05 321.069 157.045 321.039 157.035L321.039 157.034ZM326.044 160.17C326.042 160.16 326.044 160.151 326.045 160.142C326.059 160.028 326.066 159.917 326.074 159.806C326.092 159.603 326.101 159.398 326.099 159.201L326.101 159.192L326.098 159.192L326.098 159.189C326.1 159.179 326.1 159.177 326.099 159.167C326.105 158.999 326.096 158.83 326.09 158.666L326.09 158.663C326.087 158.604 326.083 158.544 326.079 158.487C326.069 158.348 326.055 158.215 326.038 158.081C325.958 157.432 325.803 156.841 325.577 156.335C325.166 155.396 324.524 154.75 323.712 154.587C322.785 154.398 321.818 154.87 321.003 155.783C320.921 155.874 320.841 155.971 320.764 156.068C320.564 156.319 320.378 156.6 320.204 156.902C320.086 157.106 319.975 157.323 319.87 157.551C319.851 157.594 319.828 157.638 319.809 157.682L319.809 157.685C319.725 157.872 319.646 158.066 319.574 158.267C319.495 158.483 319.424 158.707 319.358 158.937C319.29 159.183 319.227 159.432 319.176 159.687C319.059 160.259 318.996 160.824 318.983 161.365C318.975 161.601 318.978 161.829 318.988 162.056C319.092 164.206 319.989 165.874 321.367 166.153C321.966 166.275 322.586 166.119 323.17 165.741C323.499 165.532 323.819 165.249 324.12 164.908C324.927 163.987 325.584 162.631 325.902 161.054C325.966 160.757 326.01 160.461 326.045 160.17L326.044 160.17ZM323.812 164.315C323.745 164.386 323.679 164.451 323.613 164.513C323.611 164.515 323.61 164.517 323.61 164.519C323.14 164.944 322.635 165.19 322.136 165.205L322.133 165.205C322.017 165.212 321.899 165.204 321.784 165.177C321.273 165.075 320.848 164.721 320.535 164.193C320.296 163.789 320.115 163.29 320.014 162.719L320.015 162.716C319.983 162.552 319.959 162.38 319.945 162.203C319.921 161.987 319.908 161.764 319.905 161.535C319.904 161.111 319.934 160.663 320.003 160.205L320.003 160.202C320.023 160.049 320.053 159.894 320.082 159.739C320.091 159.7 320.097 159.66 320.109 159.624C320.21 159.14 320.351 158.681 320.521 158.257C320.583 158.098 320.649 157.946 320.722 157.797C320.732 157.768 320.746 157.738 320.763 157.71C320.876 157.474 320.997 157.255 321.131 157.051C321.267 156.828 321.417 156.626 321.575 156.443C321.663 156.335 321.757 156.23 321.855 156.139C322.075 155.923 322.304 155.748 322.535 155.621C322.692 155.535 322.852 155.469 323.011 155.427C323.265 155.356 323.517 155.344 323.765 155.397C324.007 155.443 324.229 155.549 324.428 155.7C324.428 155.7 324.43 155.701 324.43 155.704C324.506 155.762 324.58 155.826 324.65 155.899C324.705 155.954 324.755 156.012 324.805 156.075C324.928 156.231 325.042 156.411 325.139 156.61C325.163 156.66 325.187 156.71 325.21 156.761C325.548 157.523 325.703 158.539 325.626 159.654L325.625 159.663C325.602 160.044 325.552 160.436 325.47 160.832C325.175 162.292 324.554 163.534 323.812 164.315L323.812 164.315ZM321.039 157.034C320.974 157.015 320.908 156.995 320.838 156.982C320.802 156.973 320.766 156.965 320.726 156.959L320.68 156.952C320.632 156.941 320.583 156.934 320.534 156.93C320.46 157.047 320.389 157.167 320.32 157.291C320.286 157.351 320.252 157.414 320.22 157.479C320.185 157.542 320.154 157.609 320.122 157.676C320.203 157.676 320.284 157.676 320.367 157.682C320.448 157.685 320.532 157.688 320.615 157.698C320.664 157.702 320.714 157.706 320.763 157.711C320.876 157.475 320.997 157.256 321.131 157.052C321.103 157.05 321.069 157.045 321.039 157.035L321.039 157.034Z"
                fill="#0F1F59" />
            <path
                d="M299.135 152.977C298.658 152.872 298.149 153.02 297.835 153.393C297.831 153.398 297.827 153.403 297.823 153.407C297.505 153.784 297.191 154.435 297.045 155.546C296.701 158.173 297.64 157.57 298.037 156.708L298.435 155.842C298.435 155.842 298.438 155.831 298.446 155.812C298.594 155.415 299.012 155.188 299.428 155.265L319.732 159.011L320.022 157.592L299.135 152.977Z"
                fill="#0F1F59" />
            <path
                d="M325.681 158.488C325.681 158.488 326.521 158.259 326.428 159.116C326.336 159.973 325.674 159.941 325.674 159.941L325.681 158.488Z"
                fill="#0F1F59" />
        </g>
        <path
            d="M312.208 177.248C309.76 177.774 309.781 179.246 308.716 181.015C307.042 179.277 302.867 171.647 302.797 171.484C304.146 172.82 312.208 177.248 312.208 177.248Z"
            fill="#B9745F" />
        <path fill-rule="evenodd" clip-rule="evenodd"
            d="M290.906 152.33C288.24 151.709 287.921 151.172 288.587 150.753C290.835 149.666 294.736 145.08 291.03 145.81C292.421 143.974 293.043 143.452 293.56 143.018C294.038 142.617 294.427 142.291 295.252 141.068C297.2 138.182 299.069 136.138 303.124 134.243C305.103 133.616 304 133.017 302.627 132.887C304.697 132.122 308.52 132.096 308.52 132.096C310.806 131.918 311.099 131.997 312.767 132.449C312.979 132.507 313.212 132.57 313.474 132.639C313.474 132.639 312.563 131.579 310.724 131.283C310.352 131.221 312.9 130.712 314.6 130.766C318.265 130.885 320.381 134.881 320.862 135.894C323.423 135.197 326.509 136.367 325.686 136.529C323.444 136.968 322.739 137.564 322.739 137.564C328.428 136.913 332.194 147.649 331.177 146.72C330.807 146.381 330.393 146.112 329.971 145.836C329.752 145.693 329.531 145.549 329.312 145.393C329.312 145.393 332.983 148.61 331.064 155.797C330.931 156.297 330.734 155.898 330.357 155.135C329.551 153.504 327.922 150.207 324.344 150.471C322.782 150.235 321.133 148.95 319.314 146.676C316.856 150.151 311.985 153.53 310.818 153.05C310.535 152.935 310.769 152.44 311.087 151.773C311.186 151.564 311.292 151.339 311.394 151.104C307.814 153.645 307.061 153.296 306.859 153.499C306.674 153.684 306.951 154.331 305.942 158.082C305.434 159.97 305.863 161.572 306.218 162.895C306.572 164.215 306.852 165.258 306.055 166.033C303.485 159.252 301.992 159.273 300.857 159.29L300.849 159.29C300.743 159.309 300.637 159.325 300.529 159.341C299.878 159.437 299.188 159.539 298.377 160.435C298.26 160.802 298.155 161.19 298.052 161.588C298.052 161.588 297.524 164.436 300.387 166.1C302.554 167.36 302.058 171.409 302.058 171.409C302.058 171.409 289.468 169.074 291.076 154.555C290.82 153.631 290.744 152.841 290.906 152.33Z"
            fill="#0F1F59" />
        <path
            d="M288.281 178.67C285.661 178.993 283.109 179.828 280.938 181.249C271.302 187.535 273.502 200.667 275.25 218.412C278.608 252.447 256.939 256.949 265.843 293.761C266.757 297.513 273.895 305.93 277.365 309.261C280.436 296.408 273.798 290.5 277.365 279.296C282.303 263.824 293.108 249.3 296.304 240.463C305.205 215.831 306.924 201.082 300.774 184.584C299.21 180.426 294.811 177.853 290.174 178.434L288.281 178.67Z"
            fill="#804294" />
        <path
            d="M343.45 234.339C326.028 239.996 306.714 248.661 285.787 247.778C272.506 247.206 284.691 238.001 289.59 235.761C299.585 231.2 311.094 230.137 322.842 228.927C330.13 228.175 337.736 226.573 344.207 225.184C345.641 226.181 344.526 233.652 343.45 234.339Z"
            fill="#E0876B" />
        <path
            d="M284.133 181.202C278.574 183.133 274.743 188.864 274.618 195.419C274.404 207.463 274.119 225.058 274.119 225.058C274.119 233.443 274.804 240.1 280.31 247.097C283.256 237.764 290.13 241.203 294.878 233.624C293.06 215.487 292.615 208.791 293.933 194.011C294.022 193.106 294.076 191.478 294.058 189.507C294.058 183.676 289.069 179.493 284.133 181.202Z"
            fill="#A05BB6" />
        <path
            d="M339.239 226.13C340.743 224.2 342.923 222.92 345.334 222.461L351.486 221.41L347.069 225.882L339.22 226.13H339.239Z"
            fill="#F8A88F" />
        <path
            d="M371.034 207.661L369.378 205.58C369.181 205.306 368.885 205.109 368.47 205.109L362.731 205.266C361.548 205.306 360.404 205.796 359.556 206.66L337.288 229.332L347.603 229.077L371.034 207.661Z"
            fill="#A0B2EC" />
        <path
            d="M349.306 231.186L338.991 231.442L361.259 208.77C362.107 207.906 363.251 207.415 364.434 207.376L370.174 207.219C371.16 207.199 371.653 208.377 370.943 209.084L349.287 231.186H349.306Z"
            fill="#0C419A" />
        <path
            d="M364.611 220.574C364.244 221.558 363.084 222.229 361.741 222.261L356.957 222.354C354.066 222.354 355.287 219.856 357.547 219.481L362.188 218.623C363.715 218.342 365.059 219.435 364.611 220.574Z"
            fill="#F8A88F" />
        <path
            d="M344.53 222.561L359.202 221.419C361.982 221.237 361.036 223.967 358.886 224.48L354.843 225.556C349.834 233.3 347.054 233.813 341.907 234.061C336.779 234.309 333.131 234.409 328.911 235.302C321.397 236.891 321.397 230.917 323.29 230.719C328.753 228.468 332.776 226.797 336.503 222.792C339.363 221.502 342.064 221.336 344.53 222.577V222.561Z"
            fill="#E0876B" />
        <rect width="1.04168" height="3.12503" rx="0.520839"
            transform="matrix(0.707105 0.707108 -0.707105 0.707108 357.641 209.98)" fill="white" />
    </g>
    <path opacity="0.4"
        d="M386.169 284.345C399.877 284.345 410.989 273.227 410.989 259.514C410.989 245.801 399.877 234.683 386.169 234.683C372.462 234.683 361.35 245.801 361.35 259.514C361.35 273.227 372.462 284.345 386.169 284.345Z"
        fill="#A0B2EC" stroke="#BDCCF8" stroke-width="2.03994" />
    <path opacity="0.4" fill-rule="evenodd" clip-rule="evenodd"
        d="M369.044 256.904C366.654 264.65 368.485 272.793 373.492 278.181C365.892 272.892 362.331 263.366 364.589 254.364L369.044 256.904ZM371.027 252.268C376.519 242.423 388.099 238.01 397.771 242.4C402.015 244.327 405.226 247.647 407.173 251.663C405.137 246.384 401.114 241.871 395.562 239.351C384.621 234.385 371.772 238.981 366.37 249.612L371.027 252.268Z"
        fill="white" />
    <rect width="0.686287" height="0.784972"
        transform="matrix(0.760438 -0.649628 0.649055 0.760556 376.489 250.918)" fill="#A0B2EC" />
    <path
        d="M376.862 250.897C376.182 251.481 375.158 251.403 374.574 250.723C373.991 250.042 374.069 249.018 374.749 248.434C375.429 247.85 376.453 247.928 377.037 248.608C377.621 249.287 377.543 250.312 376.862 250.897Z"
        fill="#A0B2EC" />
    <path
        d="M376.587 250.576C376.084 251.008 375.326 250.95 374.895 250.447C374.463 249.944 374.521 249.186 375.024 248.753C375.527 248.321 376.285 248.379 376.716 248.882C377.148 249.385 377.091 250.143 376.587 250.576Z"
        fill="#A0B2EC" />
    <path fill-rule="evenodd" clip-rule="evenodd"
        d="M375.102 250.27L375.102 250.27C375.435 250.659 376.021 250.704 376.41 250.369C376.799 250.035 376.844 249.449 376.51 249.059L376.51 249.059C376.176 248.67 375.59 248.626 375.201 248.96C374.812 249.294 374.768 249.881 375.102 250.27ZM374.895 250.447C374.463 249.944 374.521 249.186 375.024 248.753C375.527 248.321 376.285 248.379 376.716 248.882C377.148 249.385 377.091 250.143 376.587 250.576C376.084 251.008 375.326 250.95 374.895 250.447Z"
        fill="#262939" />
    <path
        d="M375.904 249.581L375.883 249.599C375.92 249.642 375.915 249.708 375.872 249.745C375.829 249.782 375.764 249.777 375.726 249.734C375.689 249.69 375.694 249.625 375.738 249.588L375.738 249.588C375.781 249.551 375.846 249.556 375.883 249.599L375.904 249.581ZM375.904 249.581C375.95 249.636 375.944 249.718 375.89 249.765C375.835 249.812 375.753 249.806 375.706 249.751C375.659 249.697 375.665 249.614 375.72 249.567L375.904 249.581Z"
        fill="#262939" stroke="#262939" stroke-width="0.0544328" />
    <path
        d="M377.148 251.273C377.411 251.449 377.937 252.238 377.937 253.991C377.937 256.184 373.817 264.163 385.824 265.652C395.429 266.844 397.305 261.531 396.078 257.848"
        stroke="#0C419A" stroke-width="0.701159" />
    <g filter="url(#filter0_d_44882_20623)">
        <path
            d="M393.218 251.887H379.834C378.835 251.887 378.024 252.697 378.024 253.698V266.436C378.024 267.436 378.835 268.247 379.834 268.247H393.218C394.217 268.247 395.028 267.436 395.028 266.436V253.698C395.028 252.697 394.217 251.887 393.218 251.887Z"
            fill="white" />
    </g>
    <rect x="379.555" y="258.504" width="1.70015" height="1.70098" rx="0.340062" fill="#07CBA2" />
    <rect x="379.555" y="261.566" width="1.70015" height="1.70098" rx="0.340062" fill="#BDCCF8" />
    <rect x="379.555" y="264.629" width="1.70015" height="1.70098" rx="0.340062" fill="#BDCCF8" />
    <rect x="382.616" y="258.504" width="1.70015" height="1.70098" rx="0.340062" fill="#BDCCF8" />
    <rect x="382.616" y="261.566" width="1.70015" height="1.70098" rx="0.340062" fill="#BDCCF8" />
    <rect x="382.616" y="264.629" width="1.70015" height="1.70098" rx="0.340062" fill="#BDCCF8" />
    <rect x="385.676" y="258.504" width="1.70015" height="1.70098" rx="0.340062" fill="#BDCCF8" />
    <rect x="385.676" y="261.566" width="1.70015" height="1.70098" rx="0.340062" fill="#BDCCF8" />
    <rect x="385.676" y="264.629" width="1.70015" height="1.70098" rx="0.340062" fill="#BDCCF8" />
    <rect x="388.737" y="258.504" width="1.70015" height="1.70098" rx="0.340062" fill="#BDCCF8" />
    <rect x="388.737" y="261.566" width="1.70015" height="1.70098" rx="0.340062" fill="#BDCCF8" />
    <rect x="391.797" y="258.504" width="1.70015" height="1.70098" rx="0.340062" fill="#BDCCF8" />
    <rect x="391.797" y="264.629" width="1.70015" height="1.70098" rx="0.340062" fill="#BDCCF8" />
    <g filter="url(#filter1_d_44882_20623)">
        <path
            d="M395.028 253.698V256.634H378.024V253.698C378.024 253.217 378.215 252.757 378.555 252.417C378.894 252.078 379.354 251.887 379.834 251.887H393.219C393.699 251.887 394.159 252.078 394.498 252.418C394.837 252.757 395.028 253.218 395.028 253.698V253.698Z"
            fill="#07CBA2" />
    </g>
    <g style="mix-blend-mode:multiply">
        <path d="M395.028 256.633H378.024V256.918H395.028V256.633Z" fill="#E7ECFA" />
    </g>
    <path
        d="M381.268 254.513C381.607 254.513 381.881 254.238 381.881 253.899C381.881 253.56 381.607 253.285 381.268 253.285C380.929 253.285 380.654 253.56 380.654 253.899C380.654 254.238 380.929 254.513 381.268 254.513Z"
        fill="#262939" />
    <g filter="url(#filter2_d_44882_20623)">
        <rect x="381.005" y="251.18" width="0.52587" height="2.80602" rx="0.262935" fill="white" />
    </g>
    <path
        d="M384.774 254.513C385.113 254.513 385.387 254.238 385.387 253.899C385.387 253.56 385.113 253.285 384.774 253.285C384.435 253.285 384.16 253.56 384.16 253.899C384.16 254.238 384.435 254.513 384.774 254.513Z"
        fill="#262939" />
    <g filter="url(#filter3_d_44882_20623)">
        <rect x="384.511" y="251.18" width="0.52587" height="2.80602" rx="0.262935" fill="white" />
    </g>
    <path
        d="M388.28 254.513C388.618 254.513 388.893 254.238 388.893 253.899C388.893 253.56 388.618 253.285 388.28 253.285C387.941 253.285 387.666 253.56 387.666 253.899C387.666 254.238 387.941 254.513 388.28 254.513Z"
        fill="#262939" />
    <g filter="url(#filter4_d_44882_20623)">
        <rect x="388.017" y="251.18" width="0.52587" height="2.80602" rx="0.262935" fill="white" />
    </g>
    <path
        d="M391.784 254.513C392.123 254.513 392.398 254.238 392.398 253.899C392.398 253.56 392.123 253.285 391.784 253.285C391.446 253.285 391.171 253.56 391.171 253.899C391.171 254.238 391.446 254.513 391.784 254.513Z"
        fill="#262939" />
    <g filter="url(#filter5_d_44882_20623)">
        <rect x="391.521" y="251.18" width="0.52587" height="2.80602" rx="0.262935" fill="white" />
    </g>
    <path
        d="M393.756 254.086C393.486 252.798 393.062 251.546 392.956 250.226C392.917 249.749 392.917 249.221 393.172 248.799C393.463 248.317 394.195 248.222 394.688 248.384C394.961 248.473 395.078 248.045 394.808 247.956C394.218 247.762 393.504 247.884 393.029 248.287C392.598 248.653 392.502 249.284 392.496 249.816C392.479 251.311 393.025 252.758 393.328 254.203C393.387 254.483 393.815 254.365 393.756 254.086Z"
        fill="#A0B2EC" />
    <path
        d="M395.237 247.631C395.171 247.631 395.109 247.649 395.056 247.681C395.035 247.678 395.013 247.675 394.99 247.676L394.651 247.674C394.41 247.674 394.214 247.869 394.213 248.11C394.212 248.352 394.407 248.548 394.648 248.549L394.987 248.55C395.01 248.55 395.032 248.548 395.054 248.545C395.106 248.577 395.168 248.596 395.234 248.596C395.426 248.597 395.582 248.442 395.583 248.249L395.584 247.98C395.584 247.788 395.429 247.632 395.237 247.631Z"
        fill="#262939" />
    <path
        d="M398.591 254.181C398.903 252.748 399.42 251.34 399.455 249.86C399.467 249.306 399.368 248.718 398.973 248.305C398.537 247.848 397.738 247.739 397.158 247.925C396.886 248.012 397 248.441 397.274 248.354C397.763 248.197 398.441 248.295 398.758 248.736C399.042 249.132 399.029 249.687 398.997 250.15C398.905 251.488 398.446 252.76 398.164 254.062C398.103 254.341 398.531 254.461 398.591 254.181Z"
        fill="#A0B2EC" />
    <path
        d="M396.731 247.599C396.797 247.599 396.858 247.618 396.91 247.65C396.932 247.647 396.954 247.644 396.977 247.644L397.316 247.645C397.557 247.646 397.752 247.843 397.751 248.084C397.75 248.326 397.554 248.521 397.312 248.52L396.974 248.519C396.951 248.519 396.929 248.517 396.907 248.513C396.855 248.545 396.793 248.564 396.727 248.564C396.535 248.563 396.38 248.407 396.381 248.215L396.382 247.945C396.382 247.753 396.538 247.598 396.731 247.599Z"
        fill="#262939" />
    <path
        d="M398.033 254.073C397.82 254.761 397.68 255.469 397.415 256.141C397.189 256.712 396.796 257.362 396.13 257.434C394.374 257.625 394.347 255.293 393.941 254.148C393.799 253.747 393.155 253.917 393.299 254.323C393.572 255.094 393.652 255.916 393.971 256.674C394.32 257.503 394.967 258.054 395.885 258.106C397.714 258.209 398.196 255.999 398.562 254.644C398.598 254.513 398.635 254.382 398.675 254.253C398.802 253.841 398.16 253.664 398.033 254.073Z"
        fill="#0C419A" />
    <g filter="url(#filter6_d_44882_20623)">
        <ellipse cx="4.95889" cy="4.95889" rx="4.95889" ry="4.95889"
            transform="matrix(0.706933 0.707281 -0.706933 0.707281 393.615 259.941)" fill="white" />
    </g>
    <g filter="url(#filter7_d_44882_20623)">
        <ellipse cx="4.20799" cy="4.20799" rx="4.20799" ry="4.20799"
            transform="matrix(0.706933 0.70728 -0.706933 0.70728 393.615 261.004)" fill="#0C419A" />
    </g>
    <path fill-rule="evenodd" clip-rule="evenodd"
        d="M393.67 269.201C394.88 269.201 395.861 268.219 395.861 267.009C395.861 265.798 394.88 264.816 393.67 264.816C392.46 264.816 391.479 265.798 391.479 267.009C391.479 268.219 392.46 269.201 393.67 269.201ZM393.67 268.543C394.517 268.543 395.203 267.856 395.203 267.008C395.203 266.161 394.517 265.474 393.67 265.474C392.823 265.474 392.136 266.161 392.136 267.008C392.136 267.856 392.823 268.543 393.67 268.543Z"
        fill="white" />
    <rect width="1.31263" height="0.656372" rx="0.328186"
        transform="matrix(0.765386 -0.643571 0.6432 0.765698 391.154 264.82)" fill="white" />
    <rect x="393.265" y="267.48" width="1.22763" height="0.52587" rx="0.262935"
        transform="rotate(-90 393.265 267.48)" fill="white" />
    <rect x="393.265" y="266.957" width="1.22703" height="0.526127" rx="0.263064" fill="white" />
    <rect width="1.31262" height="0.656377" rx="0.328188"
        transform="matrix(-0.775342 -0.631542 -0.631168 0.775646 396.069 264.809)" fill="white" />
    <path opacity="0.4"
        d="M213.145 224.408C226.853 224.408 237.964 213.29 237.964 199.577C237.964 185.863 226.853 174.746 213.145 174.746C199.437 174.746 188.326 185.863 188.326 199.577C188.326 213.29 199.437 224.408 213.145 224.408Z"
        fill="#A0B2EC" stroke="#BDCCF8" stroke-width="2.03994" />
    <path opacity="0.4" fill-rule="evenodd" clip-rule="evenodd"
        d="M196.018 196.97C193.629 204.716 195.459 212.859 200.467 218.247C192.867 212.958 189.305 203.432 191.564 194.43L196.018 196.97ZM198.002 192.334C203.494 182.489 215.073 178.076 224.745 182.467C228.99 184.394 232.201 187.713 234.148 191.73C232.112 186.45 228.088 181.938 222.537 179.418C211.596 174.451 198.747 179.047 193.344 189.678L198.002 192.334Z"
        fill="white" />
    <path
        d="M204.454 209.297H209.655L207.118 212.046C207.006 212.168 206.847 212.238 206.681 212.238H205.049C204.721 212.238 204.454 211.972 204.454 211.643V209.297Z"
        fill="#0C419A" />
    <path
        d="M222.544 209.297H217.343L219.88 212.046C219.993 212.168 220.151 212.238 220.317 212.238H221.949C222.278 212.238 222.544 211.972 222.544 211.643V209.297Z"
        fill="#0C419A" />
    <rect x="202.192" y="187.586" width="22.6124" height="22.6235" rx="0.943908" fill="#07C3F0" />
    <path fill-rule="evenodd" clip-rule="evenodd"
        d="M220.47 191.423H206.529C206.254 191.423 206.031 191.646 206.031 191.921V205.869C206.031 206.144 206.254 206.367 206.529 206.367H220.47C220.745 206.367 220.967 206.144 220.967 205.869V191.921C220.967 191.646 220.745 191.423 220.47 191.423ZM206.529 190.977C206.008 190.977 205.585 191.399 205.585 191.921V205.869C205.585 206.39 206.008 206.813 206.529 206.813H220.47C220.991 206.813 221.414 206.39 221.414 205.869V191.921C221.414 191.399 220.991 190.977 220.47 190.977H206.529Z"
        fill="#0C419A" />
    <path
        d="M205.11 194.882C205.11 194.479 205.437 194.152 205.84 194.152C206.243 194.152 206.569 194.479 206.569 194.882V195.612C206.569 196.015 206.243 196.342 205.84 196.342C205.437 196.342 205.11 196.015 205.11 195.612V194.882Z"
        fill="#0C419A" />
    <path fill-rule="evenodd" clip-rule="evenodd"
        d="M206.42 195.612V194.882C206.42 194.561 206.16 194.301 205.84 194.301C205.519 194.301 205.259 194.561 205.259 194.882V195.612C205.259 195.933 205.519 196.193 205.84 196.193C206.16 196.193 206.42 195.933 206.42 195.612ZM205.84 194.152C205.437 194.152 205.11 194.479 205.11 194.882V195.612C205.11 196.015 205.437 196.342 205.84 196.342C206.243 196.342 206.569 196.015 206.569 195.612V194.882C206.569 194.479 206.243 194.152 205.84 194.152Z"
        fill="#0C419A" />
    <path
        d="M205.11 202.179C205.11 201.776 205.437 201.449 205.84 201.449C206.243 201.449 206.569 201.776 206.569 202.179V202.909C206.569 203.312 206.243 203.639 205.84 203.639C205.437 203.639 205.11 203.312 205.11 202.909V202.179Z"
        fill="#0C419A" />
    <path fill-rule="evenodd" clip-rule="evenodd"
        d="M206.42 202.909V202.179C206.42 201.858 206.16 201.598 205.84 201.598C205.519 201.598 205.259 201.858 205.259 202.179V202.909C205.259 203.23 205.519 203.49 205.84 203.49C206.16 203.49 206.42 203.23 206.42 202.909ZM205.84 201.449C205.437 201.449 205.11 201.776 205.11 202.179V202.909C205.11 203.312 205.437 203.639 205.84 203.639C206.243 203.639 206.569 203.312 206.569 202.909V202.179C206.569 201.776 206.243 201.449 205.84 201.449Z"
        fill="#0C419A" />
    <path
        d="M219.371 198.988C219.371 199.957 218.586 200.742 217.618 200.742C216.65 200.742 215.865 199.957 215.865 198.988C215.865 198.02 216.65 197.234 217.618 197.234C218.586 197.234 219.371 198.02 219.371 198.988Z"
        fill="white" />
    <path
        d="M217.586 200.217C216.91 200.217 216.359 199.666 216.359 198.989C216.359 198.312 216.91 197.762 217.586 197.762C218.263 197.762 218.813 198.312 218.813 198.989C218.813 199.666 218.263 200.217 217.586 200.217Z"
        fill="#0C419A" />
    <rect x="217.268" y="198.812" width="0.701159" height="3.6829" rx="0.350579" fill="white" />
    <path
        d="M214.517 199.032C214.517 200.976 212.941 202.551 210.999 202.551C209.056 202.551 207.48 200.976 207.48 199.032C207.48 197.088 209.055 195.512 210.999 195.512C212.942 195.512 214.517 197.088 214.517 199.032Z"
        fill="white" />
    <path
        d="M210.998 201.48C212.348 201.48 213.442 200.385 213.442 199.035C213.442 197.684 212.348 196.59 210.998 196.59C209.649 196.59 208.555 197.684 208.555 199.035C208.555 200.385 209.649 201.48 210.998 201.48Z"
        fill="#07C3F0" />
    <path
        d="M211 200.405C210.245 200.405 209.63 199.79 209.63 199.035C209.63 198.279 210.244 197.664 211 197.664C211.755 197.664 212.369 198.279 212.369 199.035C212.369 199.79 211.755 200.405 211 200.405Z"
        fill="white" />
    <path
        d="M211.127 197.231C211.127 197.288 211.08 197.335 211.023 197.335C210.966 197.335 210.92 197.289 210.92 197.231V196.869C210.92 196.812 210.966 196.766 211.023 196.766C211.08 196.766 211.127 196.812 211.127 196.869V197.231Z"
        fill="#0C419A" />
    <path
        d="M210.209 197.408C210.237 197.458 210.22 197.521 210.171 197.55C210.121 197.578 210.058 197.561 210.03 197.512L209.849 197.198C209.82 197.149 209.837 197.085 209.887 197.057C209.936 197.028 209.999 197.045 210.028 197.095L210.209 197.408Z"
        fill="#0C419A" />
    <path
        d="M209.503 198.019C209.552 198.048 209.569 198.111 209.54 198.161C209.512 198.21 209.449 198.227 209.399 198.198L209.086 198.017C209.037 197.989 209.019 197.926 209.048 197.876C209.077 197.826 209.14 197.809 209.189 197.838L209.503 198.019Z"
        fill="#0C419A" />
    <path
        d="M209.197 198.902C209.254 198.902 209.3 198.949 209.3 199.006C209.3 199.063 209.254 199.109 209.197 199.109H208.835C208.778 199.109 208.731 199.063 208.731 199.006C208.731 198.949 208.778 198.903 208.835 198.903L209.197 198.902Z"
        fill="#0C419A" />
    <path
        d="M209.374 199.822C209.424 199.794 209.487 199.811 209.515 199.86C209.544 199.91 209.527 199.973 209.477 200.001L209.164 200.182C209.114 200.211 209.051 200.194 209.023 200.144C208.994 200.095 209.011 200.032 209.06 200.003L209.374 199.822Z"
        fill="#0C419A" />
    <path
        d="M209.986 200.528C210.015 200.479 210.078 200.462 210.127 200.49C210.177 200.519 210.193 200.582 210.165 200.632L209.984 200.945C209.956 200.995 209.892 201.011 209.843 200.983C209.793 200.954 209.776 200.891 209.805 200.842L209.986 200.528Z"
        fill="#0C419A" />
    <path
        d="M210.87 200.834C210.87 200.777 210.916 200.73 210.973 200.73C211.031 200.73 211.077 200.777 211.077 200.834V201.196C211.077 201.253 211.031 201.299 210.973 201.299C210.916 201.299 210.87 201.253 210.87 201.196V200.834Z"
        fill="#0C419A" />
    <path
        d="M211.786 200.659C211.758 200.609 211.775 200.546 211.824 200.518C211.874 200.489 211.937 200.506 211.965 200.555L212.146 200.869C212.175 200.918 212.158 200.981 212.108 201.01C212.059 201.039 211.995 201.022 211.967 200.972L211.786 200.659Z"
        fill="#0C419A" />
    <path
        d="M212.492 200.049C212.442 200.02 212.426 199.957 212.454 199.907C212.483 199.858 212.546 199.841 212.595 199.87L212.909 200.05C212.958 200.079 212.975 200.142 212.947 200.192C212.918 200.241 212.855 200.258 212.806 200.23L212.492 200.049Z"
        fill="#0C419A" />
    <path
        d="M212.799 199.164C212.742 199.164 212.695 199.118 212.695 199.061C212.695 199.004 212.742 198.957 212.799 198.957H213.161C213.218 198.957 213.264 199.003 213.264 199.061C213.264 199.117 213.218 199.164 213.161 199.164L212.799 199.164Z"
        fill="#0C419A" />
    <path
        d="M212.621 198.245C212.571 198.274 212.508 198.257 212.48 198.207C212.451 198.158 212.468 198.094 212.518 198.066L212.831 197.885C212.88 197.856 212.944 197.873 212.972 197.923C213.001 197.973 212.984 198.035 212.934 198.064L212.621 198.245Z"
        fill="#0C419A" />
    <path
        d="M212.009 197.539C211.981 197.588 211.917 197.605 211.868 197.577C211.818 197.548 211.802 197.485 211.83 197.435L212.011 197.122C212.04 197.073 212.103 197.056 212.153 197.084C212.202 197.113 212.219 197.176 212.19 197.225L212.009 197.539Z"
        fill="#0C419A" />
    <path
        d="M211.178 196.269C211.136 196.411 210.936 196.411 210.894 196.269L210.598 195.256C210.57 195.161 210.641 195.066 210.74 195.066H211.332C211.431 195.066 211.502 195.161 211.474 195.256L211.178 196.269Z"
        fill="#D81E7E" />
    <path opacity="0.4"
        d="M366.569 180.216C380.277 180.216 391.388 169.099 391.388 155.385C391.388 141.672 380.277 130.554 366.569 130.554C352.861 130.554 341.75 141.672 341.75 155.385C341.75 169.099 352.861 180.216 366.569 180.216Z"
        fill="#A0B2EC" stroke="#BDCCF8" stroke-width="2.03994" />
    <path opacity="0.4" fill-rule="evenodd" clip-rule="evenodd"
        d="M349.442 152.786C347.053 160.533 348.883 168.675 353.89 174.064C346.291 168.775 342.729 159.249 344.988 150.246L349.442 152.786ZM351.425 148.15C356.918 138.305 368.497 133.893 378.169 138.283C382.413 140.21 385.624 143.53 387.572 147.546C385.535 142.266 381.512 137.754 375.96 135.234C365.02 130.267 352.171 134.864 346.768 145.495L351.425 148.15Z"
        fill="white" />
    <path
        d="M366.841 166.151C365.959 165.457 365.094 164.788 364.242 164.103C361.985 162.288 359.763 160.431 357.768 158.342C356.955 157.49 356.156 156.597 355.53 155.614C354.452 153.919 354.34 152.033 354.881 150.141C355.53 147.869 356.963 146.226 359.301 145.451C361.816 144.616 364.595 145.529 366.275 147.691C366.467 147.938 366.637 148.202 366.848 148.501C366.935 148.372 367.01 148.26 367.086 148.148C368.114 146.622 369.513 145.596 371.375 145.263C373.568 144.871 375.446 145.529 377.004 147.042C379.107 149.084 379.714 152.518 378.448 155.135C377.949 156.165 377.184 157.019 376.402 157.851C374.121 160.278 371.559 162.41 368.957 164.497C368.271 165.047 367.571 165.581 366.841 166.151Z"
        fill="#D81E7E" />
    <path fill-rule="evenodd" clip-rule="evenodd"
        d="M356.278 155.492C356.005 154.734 355.856 153.917 355.856 153.065C355.856 149.118 359.055 145.919 363.002 145.919C363.067 145.919 363.132 145.92 363.196 145.922C362.556 145.697 361.868 145.574 361.152 145.574C357.752 145.574 354.995 148.33 354.995 151.73C354.995 153.147 355.474 154.452 356.278 155.492Z"
        fill="white" fill-opacity="0.3" />
    <path opacity="0.2" fill-rule="evenodd" clip-rule="evenodd"
        d="M366.826 151.457C366.999 151.453 367.15 151.576 367.18 151.748L368.034 156.662L368.617 155.348C368.676 155.217 368.808 155.135 368.951 155.14C369.095 155.146 369.22 155.238 369.268 155.373L370.002 157.442L370.752 156.345C370.817 156.249 370.926 156.192 371.041 156.192H372.794C372.988 156.192 373.145 156.349 373.145 156.543C373.145 156.737 372.988 156.894 372.794 156.894H371.226L370.191 158.407C370.117 158.516 369.987 158.574 369.857 158.557C369.726 158.54 369.616 158.451 369.572 158.326L368.901 156.437L368.206 158.001C368.144 158.142 367.996 158.225 367.843 158.206C367.69 158.187 367.567 158.07 367.541 157.918L366.895 154.203L366.218 159.742C366.197 159.913 366.055 160.044 365.883 160.05C365.711 160.056 365.56 159.937 365.526 159.767L364.673 155.427L364.08 156.612C364.021 156.731 363.9 156.806 363.767 156.806H362.102C361.908 156.806 361.751 156.649 361.751 156.455C361.751 156.262 361.908 156.104 362.102 156.104H363.55L364.505 154.194C364.572 154.06 364.717 153.983 364.866 154.003C365.014 154.023 365.134 154.136 365.163 154.283L365.789 157.471L366.486 151.765C366.507 151.593 366.652 151.462 366.826 151.457Z"
        fill="#262939" />
    <path fill-rule="evenodd" clip-rule="evenodd"
        d="M366.651 151.281C366.824 151.277 366.975 151.401 367.005 151.572L367.859 156.486L368.443 155.172C368.501 155.041 368.633 154.959 368.777 154.964C368.92 154.97 369.045 155.062 369.093 155.198L369.827 157.266L370.577 156.169C370.643 156.074 370.751 156.016 370.867 156.016H372.619C372.813 156.016 372.97 156.173 372.97 156.367C372.97 156.561 372.813 156.718 372.619 156.718H371.051L370.016 158.231C369.942 158.34 369.813 158.398 369.682 158.381C369.551 158.364 369.441 158.275 369.397 158.151L368.727 156.261L368.032 157.825C367.969 157.966 367.821 158.05 367.668 158.031C367.515 158.012 367.392 157.895 367.366 157.743L366.72 154.027L366.043 159.566C366.023 159.738 365.88 159.868 365.708 159.874C365.536 159.881 365.385 159.761 365.351 159.592L364.498 155.251L363.906 156.436C363.846 156.555 363.725 156.63 363.592 156.63H361.927C361.733 156.63 361.576 156.473 361.576 156.279C361.576 156.086 361.733 155.929 361.927 155.929H363.375L364.33 154.018C364.397 153.884 364.542 153.807 364.691 153.827C364.839 153.848 364.959 153.96 364.988 154.107L365.615 157.295L366.312 151.589C366.333 151.417 366.477 151.286 366.651 151.281Z"
        fill="white" />
    <path opacity="0.4"
        d="M417.591 231.31C431.299 231.31 442.41 220.192 442.41 206.479C442.41 192.766 431.299 181.648 417.591 181.648C403.883 181.648 392.772 192.766 392.772 206.479C392.772 220.192 403.883 231.31 417.591 231.31Z"
        fill="#A0B2EC" stroke="#BDCCF8" stroke-width="2.03994" />
    <path opacity="0.4" fill-rule="evenodd" clip-rule="evenodd"
        d="M400.465 203.861C398.076 211.607 399.907 219.75 404.914 225.138C397.314 219.849 393.752 210.323 396.011 201.321L400.465 203.861ZM402.449 199.225C407.941 189.38 419.521 184.967 429.193 189.358C433.437 191.284 436.648 194.604 438.595 198.621C436.559 193.341 432.536 188.828 426.984 186.308C416.043 181.342 403.194 185.938 397.792 196.569L402.449 199.225Z"
        fill="white" />
    <path
        d="M428.901 205.179L428.901 217.948C428.901 218.645 428.336 219.211 427.639 219.211L408.077 219.211C407.38 219.211 406.814 218.645 406.814 217.948L406.814 202.653C406.814 201.956 407.38 201.391 408.077 201.391L413.117 201.391C413.814 201.391 414.379 201.956 414.379 202.653L414.379 203.285C414.379 203.633 414.661 203.916 415.01 203.916L427.639 203.916C428.336 203.916 428.901 204.481 428.901 205.179Z"
        fill="#0C419A" />
    <path
        d="M428.901 205.179L428.901 217.948C428.901 218.645 428.336 219.211 427.639 219.211L408.077 219.211C407.38 219.211 406.814 218.645 406.814 217.948L406.814 202.653C406.814 201.956 407.38 201.391 408.077 201.391L413.117 201.391C413.814 201.391 414.379 201.956 414.379 202.653L414.379 203.285C414.379 203.633 414.661 203.916 415.01 203.916L427.639 203.916C428.336 203.916 428.901 204.481 428.901 205.179Z"
        fill="black" fill-opacity="0.3" />
    <g filter="url(#filter8_d_44882_20623)">
        <path
            d="M410.848 219.025H425.029C425.803 219.025 426.431 218.397 426.431 217.622V195.876C426.431 195.101 425.803 194.473 425.029 194.473H410.848C410.073 194.473 409.445 195.101 409.445 195.876V217.622C409.445 218.397 410.073 219.025 410.848 219.025Z"
            fill="white" />
    </g>
    <rect x="419.262" y="196.227" width="5.43398" height="1.40301" rx="0.701504" fill="#0C419A" />
    <rect x="419.262" y="199.207" width="5.43398" height="1.05226" rx="0.526128" fill="#BDCCF8" />
    <rect x="419.262" y="201.84" width="1.92819" height="1.05226" rx="0.526128" fill="#BDCCF8" />
    <ellipse cx="414.704" cy="199.734" rx="3.5058" ry="3.50752" fill="#F9FAFF" />
    <path
        d="M413.576 198.644C413.576 198.083 414.042 197.629 414.616 197.629C415.191 197.629 415.657 198.083 415.657 198.644C415.657 199.205 415.191 199.66 414.616 199.66C414.042 199.66 413.576 199.205 413.576 198.644ZM414.616 199.253C414.961 199.253 415.241 198.981 415.241 198.644C415.241 198.308 414.961 198.035 414.616 198.035C414.272 198.035 413.992 198.308 413.992 198.644C413.992 198.981 414.272 199.253 414.616 199.253Z"
        fill="#0C419A" />
    <path
        d="M413.439 200.338C413.177 200.594 413.012 200.925 412.965 201.28C412.95 201.394 413.044 201.487 413.159 201.487V201.487C413.274 201.487 413.366 201.393 413.386 201.28C413.429 201.034 413.55 200.805 413.733 200.626C413.968 200.397 414.285 200.269 414.616 200.269C414.948 200.269 415.265 200.397 415.5 200.626C415.683 200.805 415.804 201.034 415.847 201.28C415.867 201.393 415.959 201.487 416.074 201.487V201.487C416.188 201.487 416.283 201.394 416.268 201.28C416.221 200.925 416.056 200.594 415.794 200.338C415.482 200.034 415.058 199.863 414.616 199.863C414.175 199.863 413.751 200.034 413.439 200.338Z"
        fill="#0C419A" />
    <rect x="411.198" y="204.996" width="2.10348" height="1.40301" rx="0.701504" fill="#A05BB6" />
    <rect x="411.198" y="207.801" width="2.10348" height="1.40301" rx="0.701504" fill="#A05BB6" />
    <rect x="414.178" y="205.172" width="10.5174" height="1.05225" rx="0.526127" fill="#BDCCF8" />
    <rect x="414.178" y="207.977" width="5.43399" height="1.05226" rx="0.526128" fill="#BDCCF8" />
    <rect x="411.198" y="210.957" width="13.4973" height="5.08591" rx="0.445462" fill="#F9FAFF" />
    <path
        d="M412.601 214.116H413.932C414.001 214.116 414.064 214.076 414.092 214.013L414.557 212.986C414.619 212.847 414.817 212.849 414.877 212.989L415.792 215.104C415.856 215.25 416.067 215.242 416.119 215.091L416.413 214.234C416.437 214.163 416.504 214.116 416.579 214.116H417.117C417.183 214.116 417.243 214.079 417.273 214.02L418.2 212.191C418.269 212.055 418.467 212.066 418.521 212.209L419.485 214.774C419.539 214.92 419.743 214.927 419.808 214.785L420.068 214.218C420.096 214.156 420.158 214.116 420.227 214.116H420.97C421.036 214.116 421.096 214.079 421.126 214.02L421.499 213.284C421.564 213.156 421.747 213.156 421.812 213.284L422.185 214.02C422.215 214.079 422.275 214.116 422.341 214.116H423.293"
        stroke="#A05BB6" stroke-width="0.438225" stroke-linecap="round" />
    <path
        d="M406.816 205.179L406.816 217.948C406.816 218.645 407.381 219.211 408.078 219.211L427.64 219.211C428.337 219.211 428.902 218.645 428.902 217.948L428.902 202.653C428.902 201.956 428.337 201.391 427.64 201.391L424.385 201.391C424.05 201.391 423.729 201.524 423.492 201.76L421.523 203.731C421.404 203.85 421.244 203.916 421.076 203.916L408.078 203.916C407.381 203.916 406.816 204.481 406.816 205.179Z"
        fill="#0C419A" />
    <path
        d="M417.297 213.379H418.559C418.811 213.379 419.051 213.279 419.229 213.102C419.406 212.924 419.506 212.683 419.506 212.432C419.506 212.181 419.406 211.94 419.229 211.763C419.051 211.585 418.811 211.485 418.559 211.485H416.351C416.267 211.485 416.187 211.518 416.128 211.578C416.069 211.637 416.035 211.717 416.035 211.801C416.035 211.885 416.069 211.965 416.128 212.024C416.187 212.083 416.267 212.117 416.351 212.117H418.559C418.643 212.117 418.723 212.15 418.783 212.209C418.842 212.268 418.875 212.348 418.875 212.432C418.875 212.516 418.842 212.596 418.783 212.655C418.723 212.715 418.643 212.748 418.559 212.748H417.297C417.046 212.748 416.806 212.848 416.628 213.025C416.451 213.203 416.351 213.444 416.351 213.695C416.351 213.946 416.451 214.187 416.628 214.365C416.806 214.542 417.046 214.642 417.297 214.642H418.559C418.643 214.642 418.723 214.609 418.783 214.549C418.842 214.49 418.875 214.41 418.875 214.326C418.875 214.243 418.842 214.162 418.783 214.103C418.723 214.044 418.643 214.011 418.559 214.011H417.297C417.214 214.011 417.133 213.977 417.074 213.918C417.015 213.859 416.982 213.779 416.982 213.695C416.982 213.611 417.015 213.531 417.074 213.472C417.133 213.412 417.214 213.379 417.297 213.379Z"
        fill="#BDCCF8" />
    <path
        d="M418.086 210.854C418.353 210.854 418.613 210.769 418.829 210.612C419.044 210.455 419.205 210.233 419.287 209.979C419.324 209.867 419.395 209.769 419.491 209.699C419.587 209.629 419.703 209.591 419.822 209.591H422.639C422.563 210.117 422.3 210.598 421.899 210.946C421.497 211.294 420.984 211.485 420.453 211.485C420.369 211.485 420.289 211.518 420.229 211.578C420.17 211.637 420.137 211.717 420.137 211.801C420.137 211.885 420.17 211.965 420.229 212.024C420.289 212.083 420.369 212.117 420.453 212.117C421.206 212.117 421.928 211.817 422.461 211.284C422.993 210.752 423.292 210.029 423.292 209.275C423.292 209.192 423.259 209.111 423.2 209.052C423.141 208.993 423.06 208.96 422.977 208.96H419.822C419.555 208.96 419.295 209.044 419.079 209.202C418.863 209.359 418.703 209.58 418.621 209.834C418.584 209.947 418.512 210.045 418.416 210.115C418.32 210.184 418.205 210.222 418.086 210.222H417.455C417.337 210.222 417.221 210.184 417.125 210.115C417.029 210.045 416.957 209.947 416.92 209.834C416.838 209.58 416.678 209.359 416.462 209.202C416.246 209.044 415.987 208.96 415.72 208.96H412.565C412.481 208.96 412.401 208.993 412.341 209.052C412.282 209.111 412.249 209.192 412.249 209.275C412.249 210.029 412.548 210.752 413.081 211.284C413.613 211.817 414.336 212.117 415.089 212.117C415.172 212.117 415.253 212.083 415.312 212.024C415.371 211.965 415.404 211.885 415.404 211.801C415.404 211.717 415.371 211.637 415.312 211.578C415.253 211.518 415.172 211.485 415.089 211.485C414.558 211.485 414.044 211.294 413.642 210.946C413.241 210.598 412.978 210.117 412.902 209.591H415.72C415.838 209.591 415.954 209.629 416.05 209.699C416.146 209.769 416.217 209.867 416.255 209.979C416.337 210.233 416.497 210.455 416.713 210.612C416.928 210.769 417.188 210.854 417.455 210.854H418.086Z"
        fill="#BDCCF8" />
    <path
        d="M417.771 216.22C417.687 216.22 417.607 216.187 417.548 216.128C417.488 216.069 417.455 215.988 417.455 215.905V208.328C417.455 208.245 417.488 208.164 417.548 208.105C417.607 208.046 417.687 208.013 417.771 208.013C417.854 208.013 417.935 208.046 417.994 208.105C418.053 208.164 418.086 208.245 418.086 208.328V215.905C418.086 215.988 418.053 216.069 417.994 216.128C417.935 216.187 417.854 216.22 417.771 216.22Z"
        fill="#BDCCF8" />
    <path
        d="M417.771 208.328C417.615 208.328 417.462 208.282 417.332 208.195C417.203 208.109 417.102 207.985 417.042 207.841C416.982 207.697 416.967 207.538 416.997 207.385C417.027 207.232 417.103 207.092 417.213 206.981C417.323 206.871 417.464 206.796 417.617 206.765C417.77 206.735 417.928 206.75 418.073 206.81C418.217 206.87 418.34 206.971 418.427 207.101C418.513 207.231 418.559 207.383 418.559 207.539C418.559 207.748 418.476 207.949 418.328 208.097C418.18 208.245 417.98 208.328 417.771 208.328ZM417.771 207.201C417.704 207.201 417.638 207.221 417.583 207.258C417.527 207.295 417.484 207.348 417.458 207.41C417.433 207.472 417.426 207.54 417.439 207.605C417.452 207.671 417.484 207.731 417.532 207.778C417.579 207.826 417.639 207.858 417.705 207.871C417.77 207.884 417.838 207.877 417.9 207.852C417.962 207.826 418.015 207.783 418.052 207.727C418.089 207.671 418.109 207.606 418.109 207.539C418.109 207.449 418.073 207.363 418.01 207.3C417.946 207.237 417.86 207.201 417.771 207.201Z"
        fill="#BDCCF8" />
    <path opacity="0.4"
        d="M242.607 153.681C256.315 153.681 267.426 142.563 267.426 128.85C267.426 115.137 256.315 104.019 242.607 104.019C228.899 104.019 217.788 115.137 217.788 128.85C217.788 142.563 228.899 153.681 242.607 153.681Z"
        fill="#A0B2EC" stroke="#BDCCF8" stroke-width="2.03994" />
    <path opacity="0.4" fill-rule="evenodd" clip-rule="evenodd"
        d="M225.481 126.259C223.092 134.005 224.922 142.148 229.929 147.536C222.33 142.247 218.768 132.721 221.027 123.719L225.481 126.259ZM227.464 121.623C232.957 111.778 244.536 107.365 254.208 111.756C258.453 113.683 261.664 117.002 263.611 121.019C261.574 115.739 257.551 111.227 252 108.707C241.059 103.74 228.21 108.336 222.807 118.967L227.464 121.623Z"
        fill="white" />
    <g clip-path="url(#clip2_44882_20623)">
        <rect width="0.686287" height="0.784972"
            transform="matrix(0.760438 -0.649627 0.649056 0.760556 231.724 123.234)"
            fill="#A0B2EC" />
        <path
            d="M232.097 123.213C231.416 123.797 230.392 123.719 229.809 123.039C229.225 122.359 229.303 121.334 229.983 120.75C230.663 120.166 231.688 120.244 232.271 120.924C232.855 121.604 232.777 122.628 232.097 123.213Z"
            fill="#A0B2EC" />
        <path
            d="M231.822 122.892C231.319 123.324 230.561 123.267 230.129 122.763C229.697 122.26 229.755 121.502 230.258 121.07C230.761 120.637 231.519 120.695 231.951 121.198C232.383 121.702 232.325 122.46 231.822 122.892Z"
            fill="#A0B2EC" />
        <path fill-rule="evenodd" clip-rule="evenodd"
            d="M230.336 122.586L230.336 122.586C230.67 122.975 231.255 123.02 231.645 122.686C232.034 122.351 232.078 121.765 231.744 121.376L231.744 121.376C231.411 120.987 230.825 120.942 230.436 121.276C230.047 121.611 230.002 122.197 230.336 122.586ZM230.129 122.763C229.697 122.26 229.755 121.502 230.258 121.07C230.761 120.637 231.519 120.695 231.951 121.198C232.383 121.702 232.325 122.46 231.822 122.892C231.319 123.324 230.561 123.267 230.129 122.763Z"
            fill="#262939" />
        <path
            d="M231.138 121.898L231.118 121.915C231.154 121.959 231.15 122.024 231.106 122.061C231.063 122.098 230.998 122.093 230.961 122.05C230.924 122.007 230.929 121.941 230.972 121.904L230.972 121.904C231.015 121.867 231.08 121.872 231.118 121.915L231.138 121.898ZM231.138 121.898C231.185 121.952 231.179 122.035 231.124 122.082C231.07 122.129 230.987 122.122 230.94 122.068C230.893 122.013 230.899 121.931 230.954 121.884L231.138 121.898Z"
            fill="#262939" stroke="#262939" stroke-width="0.0544328" />
        <path fill-rule="evenodd" clip-rule="evenodd"
            d="M232.541 124.784C232.464 124.178 232.172 123.808 232.09 123.737L232.567 123.187C232.79 123.381 233.165 123.916 233.263 124.692C233.364 125.489 233.172 126.513 232.29 127.668C231.383 128.856 231.113 130.226 231.865 131.737C232.634 133.284 234.498 135.022 237.994 136.824C240.294 138.009 244.28 138.294 247.78 137.421C251.29 136.545 254.12 134.564 254.405 131.383L255.13 131.448C254.801 135.106 251.561 137.228 247.956 138.127C244.34 139.029 240.162 138.76 237.66 137.471C234.115 135.644 232.086 133.815 231.213 132.061C230.322 130.27 230.66 128.605 231.712 127.226C232.491 126.205 232.616 125.37 232.541 124.784Z"
            fill="#0C419A" />
        <rect x="233.188" y="128.656" width="18.2857" height="11.254" rx="2.01818" fill="#F0B323" />
        <rect x="233.188" y="128.656" width="18.2857" height="11.254" rx="2.01818" fill="black"
            fill-opacity="0.2" />
        <g filter="url(#filter9_d_44882_20623)">
            <path
                d="M235.311 139.068H249.335C250.109 139.068 250.737 138.44 250.737 137.666V121.66C250.737 121.296 250.595 120.946 250.342 120.684L248.009 118.275C247.745 118.002 247.381 117.848 247.002 117.848H235.311C234.537 117.848 233.909 118.475 233.909 119.25V137.666C233.909 138.44 234.537 139.068 235.311 139.068Z"
                fill="white" />
        </g>
        <g filter="url(#filter10_d_44882_20623)">
            <path
                d="M235.336 139.832H249.534C250.309 139.832 250.937 139.204 250.937 138.429V119.313C250.937 118.538 250.309 117.91 249.534 117.91H235.336C234.561 117.91 233.934 118.538 233.934 119.313V138.429C233.934 139.204 234.561 139.832 235.336 139.832Z"
                fill="white" />
        </g>
        <rect x="243.751" y="120.543" width="5.43398" height="1.40301" rx="0.701504"
            fill="#A05BB6" />
        <rect x="243.751" y="123.699" width="5.43398" height="1.05226" rx="0.526128"
            fill="#BDCCF8" />
        <rect x="243.751" y="126.508" width="2.80464" height="1.05226" rx="0.526128"
            fill="#BDCCF8" />
        <ellipse cx="239.193" cy="124.05" rx="3.5058" ry="3.50752" fill="#F9FAFF" />
        <path
            d="M238.065 122.961C238.065 122.4 238.531 121.945 239.106 121.945C239.68 121.945 240.146 122.4 240.146 122.961C240.146 123.521 239.68 123.976 239.106 123.976C238.531 123.976 238.065 123.521 238.065 122.961ZM239.106 123.57C239.451 123.57 239.73 123.297 239.73 122.961C239.73 122.624 239.451 122.351 239.106 122.351C238.761 122.351 238.481 122.624 238.481 122.961C238.481 123.297 238.761 123.57 239.106 123.57Z"
            fill="#A05BB6" />
        <path
            d="M237.928 124.655C237.666 124.91 237.501 125.242 237.454 125.596C237.439 125.71 237.534 125.804 237.649 125.804V125.804C237.764 125.804 237.855 125.71 237.875 125.596C237.918 125.35 238.039 125.121 238.223 124.942C238.457 124.714 238.774 124.585 239.106 124.585C239.437 124.585 239.755 124.714 239.989 124.942C240.172 125.121 240.293 125.35 240.336 125.596C240.356 125.71 240.448 125.804 240.563 125.804V125.804C240.678 125.804 240.772 125.71 240.757 125.596C240.711 125.242 240.545 124.91 240.283 124.655C239.971 124.35 239.547 124.179 239.106 124.179C238.664 124.179 238.24 124.35 237.928 124.655Z"
            fill="#A05BB6" />
        <rect x="235.688" y="129.312" width="2.10348" height="1.40301" rx="0.701504"
            fill="#A05BB6" />
        <rect x="235.688" y="132.117" width="2.10348" height="1.40301" rx="0.701504"
            fill="#A05BB6" />
        <rect x="238.667" y="129.488" width="10.5174" height="1.05226" rx="0.526128"
            fill="#BDCCF8" />
        <rect x="238.667" y="132.293" width="5.43398" height="1.05226" rx="0.526128"
            fill="#BDCCF8" />
        <rect x="235.688" y="135.273" width="13.4973" height="4.73515" rx="0.445462"
            fill="#F9FAFF" />
        <path
            d="M237.09 138.432H238.422C238.491 138.432 238.553 138.392 238.581 138.329L239.046 137.302C239.109 137.164 239.306 137.165 239.366 137.305L240.282 139.42C240.345 139.567 240.556 139.559 240.608 139.407L240.902 138.551C240.927 138.48 240.993 138.432 241.068 138.432H241.606C241.672 138.432 241.733 138.395 241.762 138.336L242.689 136.508C242.758 136.372 242.956 136.383 243.01 136.525L243.974 139.09C244.029 139.236 244.232 139.243 244.297 139.102L244.557 138.535C244.585 138.472 244.648 138.432 244.716 138.432H245.459C245.525 138.432 245.586 138.395 245.616 138.336L245.989 137.601C246.053 137.473 246.236 137.473 246.301 137.601L246.674 138.336C246.704 138.395 246.765 138.432 246.831 138.432H247.783"
            stroke="#A05BB6" stroke-width="0.438225" stroke-linecap="round" />
        <path
            d="M249.442 139.999L233.188 130.621V137.98C233.188 139.095 234.092 139.999 235.207 139.999H249.442Z"
            fill="#F0B323" />
        <path
            d="M249.442 139.999L233.188 130.621V137.98C233.188 139.095 234.092 139.999 235.207 139.999H249.442Z"
            fill="black" fill-opacity="0.05" />
        <path
            d="M235.221 139.999L251.475 130.621V137.98C251.475 139.095 250.571 139.999 249.456 139.999H235.221Z"
            fill="#F0B323" />
        <path
            d="M235.221 139.999L251.475 130.621V137.98C251.475 139.095 250.571 139.999 249.456 139.999H235.221Z"
            fill="black" fill-opacity="0.05" />
        <path
            d="M249.669 140L243.677 134.639C242.911 133.954 241.753 133.954 240.987 134.639L234.995 140H249.669Z"
            fill="#F0B323" />
        <path
            d="M251.704 128.109C251.178 126.902 250.508 125.763 250.136 124.493C250.001 124.033 249.893 123.517 250.057 123.052C250.244 122.52 250.942 122.278 251.457 122.336C251.742 122.368 251.77 121.925 251.487 121.893C250.871 121.823 250.196 122.087 249.813 122.578C249.465 123.025 249.5 123.663 249.602 124.185C249.889 125.652 250.718 126.957 251.308 128.31C251.423 128.572 251.819 128.37 251.704 128.109Z"
            fill="#A0B2EC" />
        <path
            d="M251.842 121.488C251.777 121.501 251.721 121.531 251.675 121.574C251.653 121.575 251.631 121.577 251.609 121.582L251.277 121.649C251.041 121.698 250.888 121.929 250.936 122.165C250.985 122.402 251.215 122.555 251.452 122.506L251.784 122.439C251.806 122.434 251.827 122.428 251.848 122.42C251.906 122.44 251.97 122.447 252.035 122.434C252.223 122.395 252.344 122.211 252.306 122.023L252.252 121.759C252.214 121.571 252.03 121.45 251.842 121.488Z"
            fill="#262939" />
        <path
            d="M256.457 127.216C256.471 125.75 256.691 124.266 256.424 122.81C256.324 122.265 256.107 121.71 255.636 121.385C255.117 121.027 254.312 121.083 253.782 121.383C253.534 121.523 253.733 121.92 253.982 121.779C254.429 121.526 255.113 121.483 255.513 121.851C255.872 122.181 255.972 122.727 256.035 123.187C256.217 124.516 256.027 125.854 256.014 127.187C256.012 127.472 256.455 127.502 256.457 127.216Z"
            fill="#A0B2EC" />
        <path
            d="M253.297 121.15C253.362 121.137 253.425 121.143 253.483 121.164C253.504 121.156 253.525 121.149 253.548 121.145L253.879 121.077C254.116 121.029 254.347 121.181 254.395 121.418C254.443 121.654 254.291 121.886 254.054 121.934L253.722 122.002C253.7 122.006 253.678 122.009 253.656 122.01C253.611 122.052 253.554 122.082 253.49 122.096C253.301 122.134 253.118 122.013 253.08 121.824L253.026 121.561C252.987 121.372 253.109 121.188 253.297 121.15Z"
            fill="#262939" />
        <path
            d="M255.888 127.223C255.819 127.94 255.826 128.661 255.703 129.373C255.598 129.978 255.345 130.694 254.708 130.9C253.027 131.444 252.527 129.167 251.897 128.128C251.676 127.764 251.08 128.062 251.303 128.43C251.728 129.129 251.973 129.919 252.439 130.596C252.95 131.337 253.695 131.744 254.605 131.608C256.417 131.337 256.439 129.075 256.522 127.674C256.53 127.538 256.54 127.403 256.553 127.268C256.594 126.839 255.929 126.796 255.888 127.223Z"
            fill="#0C419A" />
    </g>
    <path opacity="0.71"
        d="M501.646 55.3244H320.043C320.043 55.3244 316.857 49.8897 321.788 48.1591C325.66 46.8019 328.546 48.5325 328.546 48.5325C328.546 48.5325 332.463 42.3806 337.277 42.2028C343.308 41.9835 346.595 44.7839 346.595 44.7839C346.595 44.7839 339.056 23.9488 358.656 22.2212C374.693 20.8076 374.088 37.1978 374.088 37.1978C374.088 37.1978 368.803 -3.10336 417.111 0.941567C450.158 3.71523 446.775 37.1978 446.775 37.1978C446.775 37.1978 454.162 34.2344 461.5 37.1978C468.839 40.1611 471.51 46.0877 471.51 46.0877C471.51 46.0877 497.086 46.1055 501.646 55.3244Z"
        fill="white" />
    <path opacity="0.49"
        d="M285.145 34.4658C282.797 34.3871 281.579 34.9902 281.09 35.4358C281.458 34.6296 281.648 33.7579 281.649 32.8762C281.65 32.5682 281.626 32.2606 281.579 31.956C281.064 28.584 277.778 25.983 274.156 25.983C272.88 25.9817 271.628 26.3124 270.528 26.9405L270.375 27.0317C270.2 27.1374 270.029 27.2493 269.864 27.3716L269.807 27.411C268.793 28.1628 268.006 29.1648 267.528 30.3125C267.557 29.9519 267.572 29.5851 267.572 29.2141C267.572 21.525 261.112 15.293 253.146 15.293C250.501 15.2889 247.906 15.9906 245.644 17.3213C243.382 18.6521 241.54 20.5608 240.319 22.839C239.06 25.8006 238.813 28.8659 238.793 30.6213C238.793 31.5394 238.832 32.1011 238.832 32.1011C238.832 32.1011 235.71 30.6959 232.604 32.1011C230.727 32.9729 229.228 34.4618 228.372 36.3042C228.372 36.3042 217.557 36.3042 215.627 40.6565H290.666C290.666 40.6565 290.352 34.642 285.145 34.4658Z"
        fill="white" />
    <path fill-rule="evenodd" clip-rule="evenodd"
        d="M139.814 123.188C139.176 123.453 138.43 123.05 137.398 124.504C136.387 125.929 135.641 130.919 132.292 131.725C123.798 133.788 122.129 136.5 122.129 136.5L139.824 136.028L157.519 136.5C157.519 136.5 155.85 133.788 147.356 131.725C144.007 130.91 143.251 125.929 142.249 124.504C141.218 123.05 140.462 123.453 139.834 123.188H139.814Z"
        fill="#5E74B8" />
    <path d="M144.701 187.379H136.108V338.343H144.701V187.379Z" fill="#5E74B8" />
    <path fill-rule="evenodd" clip-rule="evenodd"
        d="M136.27 178.195C136.663 179.551 136.584 182.715 135.877 183.933C135.17 185.161 132.764 186.9 132.882 187.931C132.961 188.629 134.807 190.191 136.113 191.282H144.705C146.011 190.191 147.857 188.619 147.936 187.931C148.053 186.9 145.648 185.161 144.941 183.933C144.234 182.705 144.155 179.541 144.548 178.195L140.414 179.571L136.28 178.195H136.27Z"
        fill="#5E74B8" />
    <path fill-rule="evenodd" clip-rule="evenodd"
        d="M122.119 139.445C122.483 149.073 122.974 178.056 137.801 179.913C138.361 179.981 139.49 180.089 140.403 180.178C141.317 180.089 142.446 179.981 143.006 179.913C157.843 178.056 158.334 149.073 158.688 139.445L140.394 139.887L122.1 139.445H122.119Z"
        fill="#5E74B8" />
    <path fill-rule="evenodd" clip-rule="evenodd"
        d="M125.053 144.083C125.534 154.438 127.154 173.281 136.238 176.671C136.905 176.926 137.622 176.445 137.622 175.728V144.279C137.622 143.729 137.18 143.287 136.64 143.267L126.084 143.012C125.495 143.002 125.024 143.483 125.053 144.073V144.083Z"
        fill="#F9FAFF" />
    <path fill-rule="evenodd" clip-rule="evenodd"
        d="M155.758 144.083C155.276 154.438 153.656 173.281 144.573 176.671C143.905 176.926 143.188 176.445 143.188 175.728V144.279C143.188 143.729 143.63 143.287 144.17 143.267L154.727 143.012C155.316 143.002 155.787 143.483 155.758 144.073V144.083Z"
        fill="#F9FAFF" />
    <path fill-rule="evenodd" clip-rule="evenodd"
        d="M130.696 339.324H140.304H149.911L156.997 368.798H123.61L130.696 339.324Z"
        fill="#5E74B8" />
    <path fill-rule="evenodd" clip-rule="evenodd"
        d="M128.43 336.801H152.37C153.578 336.801 154.56 337.783 154.56 338.992C154.56 340.2 153.578 341.183 152.37 341.183H128.43C127.222 341.183 126.24 340.2 126.24 338.992C126.24 337.783 127.222 336.801 128.43 336.801Z"
        fill="#0C419A" />
    <path fill-rule="evenodd" clip-rule="evenodd"
        d="M121.868 366.84H158.74C159.945 366.84 160.925 367.721 160.925 368.805C160.925 369.889 159.945 370.77 158.74 370.77H121.868C120.663 370.77 119.683 369.889 119.683 368.805C119.683 367.721 120.663 366.84 121.868 366.84Z"
        fill="#0C419A" />
    <path
        d="M120.8 134.998H158.836C159.445 134.998 159.943 136.095 159.943 137.433C159.943 138.792 159.445 139.889 158.826 139.889H120.8C120.181 139.889 119.683 138.792 119.683 137.433H119.693C119.693 136.073 120.191 134.977 120.81 134.977L120.8 134.998Z"
        fill="#0C419A" />
    <defs>
        <filter id="filter0_d_44882_20623" x="375.034" y="250.391" width="22.9843" height="22.3408"
            filterUnits="userSpaceOnUse" color-interpolation-filters="sRGB">
            <feFlood flood-opacity="0" result="BackgroundImageFix" />
            <feColorMatrix in="SourceAlpha" type="matrix"
                values="0 0 0 0 0 0 0 0 0 0 0 0 0 0 0 0 0 0 127 0" result="hardAlpha" />
            <feOffset dy="1.49535" />
            <feGaussianBlur stdDeviation="1.49535" />
            <feColorMatrix type="matrix"
                values="0 0 0 0 0.0470588 0 0 0 0 0.254902 0 0 0 0 0.603922 0 0 0 0.1 0" />
            <feBlend mode="normal" in2="BackgroundImageFix"
                result="effect1_dropShadow_44882_20623" />
            <feBlend mode="normal" in="SourceGraphic" in2="effect1_dropShadow_44882_20623"
                result="shape" />
        </filter>
        <filter id="filter1_d_44882_20623" x="375.034" y="250.391" width="22.9843" height="10.7275"
            filterUnits="userSpaceOnUse" color-interpolation-filters="sRGB">
            <feFlood flood-opacity="0" result="BackgroundImageFix" />
            <feColorMatrix in="SourceAlpha" type="matrix"
                values="0 0 0 0 0 0 0 0 0 0 0 0 0 0 0 0 0 0 127 0" result="hardAlpha" />
            <feOffset dy="1.49535" />
            <feGaussianBlur stdDeviation="1.49535" />
            <feColorMatrix type="matrix"
                values="0 0 0 0 0.0470588 0 0 0 0 0.254902 0 0 0 0 0.603922 0 0 0 0.1 0" />
            <feBlend mode="normal" in2="BackgroundImageFix"
                result="effect1_dropShadow_44882_20623" />
            <feBlend mode="normal" in="SourceGraphic" in2="effect1_dropShadow_44882_20623"
                result="shape" />
        </filter>
        <filter id="filter2_d_44882_20623" x="378.014" y="249.684" width="6.50677" height="8.78607"
            filterUnits="userSpaceOnUse" color-interpolation-filters="sRGB">
            <feFlood flood-opacity="0" result="BackgroundImageFix" />
            <feColorMatrix in="SourceAlpha" type="matrix"
                values="0 0 0 0 0 0 0 0 0 0 0 0 0 0 0 0 0 0 127 0" result="hardAlpha" />
            <feOffset dy="1.49535" />
            <feGaussianBlur stdDeviation="1.49535" />
            <feColorMatrix type="matrix"
                values="0 0 0 0 0.0470588 0 0 0 0 0.254902 0 0 0 0 0.603922 0 0 0 0.1 0" />
            <feBlend mode="normal" in2="BackgroundImageFix"
                result="effect1_dropShadow_44882_20623" />
            <feBlend mode="normal" in="SourceGraphic" in2="effect1_dropShadow_44882_20623"
                result="shape" />
        </filter>
        <filter id="filter3_d_44882_20623" x="381.52" y="249.684" width="6.50677" height="8.78607"
            filterUnits="userSpaceOnUse" color-interpolation-filters="sRGB">
            <feFlood flood-opacity="0" result="BackgroundImageFix" />
            <feColorMatrix in="SourceAlpha" type="matrix"
                values="0 0 0 0 0 0 0 0 0 0 0 0 0 0 0 0 0 0 127 0" result="hardAlpha" />
            <feOffset dy="1.49535" />
            <feGaussianBlur stdDeviation="1.49535" />
            <feColorMatrix type="matrix"
                values="0 0 0 0 0.0470588 0 0 0 0 0.254902 0 0 0 0 0.603922 0 0 0 0.1 0" />
            <feBlend mode="normal" in2="BackgroundImageFix"
                result="effect1_dropShadow_44882_20623" />
            <feBlend mode="normal" in="SourceGraphic" in2="effect1_dropShadow_44882_20623"
                result="shape" />
        </filter>
        <filter id="filter4_d_44882_20623" x="385.026" y="249.684" width="6.50677" height="8.78607"
            filterUnits="userSpaceOnUse" color-interpolation-filters="sRGB">
            <feFlood flood-opacity="0" result="BackgroundImageFix" />
            <feColorMatrix in="SourceAlpha" type="matrix"
                values="0 0 0 0 0 0 0 0 0 0 0 0 0 0 0 0 0 0 127 0" result="hardAlpha" />
            <feOffset dy="1.49535" />
            <feGaussianBlur stdDeviation="1.49535" />
            <feColorMatrix type="matrix"
                values="0 0 0 0 0.0470588 0 0 0 0 0.254902 0 0 0 0 0.603922 0 0 0 0.1 0" />
            <feBlend mode="normal" in2="BackgroundImageFix"
                result="effect1_dropShadow_44882_20623" />
            <feBlend mode="normal" in="SourceGraphic" in2="effect1_dropShadow_44882_20623"
                result="shape" />
        </filter>
        <filter id="filter5_d_44882_20623" x="388.531" y="249.684" width="6.50677" height="8.78607"
            filterUnits="userSpaceOnUse" color-interpolation-filters="sRGB">
            <feFlood flood-opacity="0" result="BackgroundImageFix" />
            <feColorMatrix in="SourceAlpha" type="matrix"
                values="0 0 0 0 0 0 0 0 0 0 0 0 0 0 0 0 0 0 127 0" result="hardAlpha" />
            <feOffset dy="1.49535" />
            <feGaussianBlur stdDeviation="1.49535" />
            <feColorMatrix type="matrix"
                values="0 0 0 0 0.0470588 0 0 0 0 0.254902 0 0 0 0 0.603922 0 0 0 0.1 0" />
            <feBlend mode="normal" in2="BackgroundImageFix"
                result="effect1_dropShadow_44882_20623" />
            <feBlend mode="normal" in="SourceGraphic" in2="effect1_dropShadow_44882_20623"
                result="shape" />
        </filter>
        <filter id="filter6_d_44882_20623" x="385.667" y="260.501" width="15.8974" height="15.9033"
            filterUnits="userSpaceOnUse" color-interpolation-filters="sRGB">
            <feFlood flood-opacity="0" result="BackgroundImageFix" />
            <feColorMatrix in="SourceAlpha" type="matrix"
                values="0 0 0 0 0 0 0 0 0 0 0 0 0 0 0 0 0 0 127 0" result="hardAlpha" />
            <feOffset dy="1.49535" />
            <feGaussianBlur stdDeviation="1.49535" />
            <feColorMatrix type="matrix"
                values="0 0 0 0 0.0470588 0 0 0 0 0.254902 0 0 0 0 0.603922 0 0 0 0.1 0" />
            <feBlend mode="normal" in2="BackgroundImageFix"
                result="effect1_dropShadow_44882_20623" />
            <feBlend mode="normal" in="SourceGraphic" in2="effect1_dropShadow_44882_20623"
                result="shape" />
        </filter>
        <filter id="filter7_d_44882_20623" x="386.418" y="261.251" width="14.3954" height="14.3994"
            filterUnits="userSpaceOnUse" color-interpolation-filters="sRGB">
            <feFlood flood-opacity="0" result="BackgroundImageFix" />
            <feColorMatrix in="SourceAlpha" type="matrix"
                values="0 0 0 0 0 0 0 0 0 0 0 0 0 0 0 0 0 0 127 0" result="hardAlpha" />
            <feOffset dy="1.49535" />
            <feGaussianBlur stdDeviation="1.49535" />
            <feColorMatrix type="matrix"
                values="0 0 0 0 0.0470588 0 0 0 0 0.254902 0 0 0 0 0.603922 0 0 0 0.1 0" />
            <feBlend mode="normal" in2="BackgroundImageFix"
                result="effect1_dropShadow_44882_20623" />
            <feBlend mode="normal" in="SourceGraphic" in2="effect1_dropShadow_44882_20623"
                result="shape" />
        </filter>
        <filter id="filter8_d_44882_20623" x="406.823" y="193.162" width="22.2297" height="29.7951"
            filterUnits="userSpaceOnUse" color-interpolation-filters="sRGB">
            <feFlood flood-opacity="0" result="BackgroundImageFix" />
            <feColorMatrix in="SourceAlpha" type="matrix"
                values="0 0 0 0 0 0 0 0 0 0 0 0 0 0 0 0 0 0 127 0" result="hardAlpha" />
            <feOffset dy="1.31108" />
            <feGaussianBlur stdDeviation="1.31108" />
            <feColorMatrix type="matrix"
                values="0 0 0 0 0.0470588 0 0 0 0 0.254902 0 0 0 0 0.603922 0 0 0 0.1 0" />
            <feBlend mode="normal" in2="BackgroundImageFix"
                result="effect1_dropShadow_44882_20623" />
            <feBlend mode="normal" in="SourceGraphic" in2="effect1_dropShadow_44882_20623"
                result="shape" />
        </filter>
        <filter id="filter9_d_44882_20623" x="231.287" y="116.537" width="22.0725" height="26.4631"
            filterUnits="userSpaceOnUse" color-interpolation-filters="sRGB">
            <feFlood flood-opacity="0" result="BackgroundImageFix" />
            <feColorMatrix in="SourceAlpha" type="matrix"
                values="0 0 0 0 0 0 0 0 0 0 0 0 0 0 0 0 0 0 127 0" result="hardAlpha" />
            <feOffset dy="1.31108" />
            <feGaussianBlur stdDeviation="1.31108" />
            <feColorMatrix type="matrix"
                values="0 0 0 0 0.0470588 0 0 0 0 0.254902 0 0 0 0 0.603922 0 0 0 0.1 0" />
            <feBlend mode="normal" in2="BackgroundImageFix"
                result="effect1_dropShadow_44882_20623" />
            <feBlend mode="normal" in="SourceGraphic" in2="effect1_dropShadow_44882_20623"
                result="shape" />
        </filter>
        <filter id="filter10_d_44882_20623" x="231.311" y="116.599" width="22.2473" height="27.1662"
            filterUnits="userSpaceOnUse" color-interpolation-filters="sRGB">
            <feFlood flood-opacity="0" result="BackgroundImageFix" />
            <feColorMatrix in="SourceAlpha" type="matrix"
                values="0 0 0 0 0 0 0 0 0 0 0 0 0 0 0 0 0 0 127 0" result="hardAlpha" />
            <feOffset dy="1.31108" />
            <feGaussianBlur stdDeviation="1.31108" />
            <feColorMatrix type="matrix"
                values="0 0 0 0 0.0470588 0 0 0 0 0.254902 0 0 0 0 0.603922 0 0 0 0.1 0" />
            <feBlend mode="normal" in2="BackgroundImageFix"
                result="effect1_dropShadow_44882_20623" />
            <feBlend mode="normal" in="SourceGraphic" in2="effect1_dropShadow_44882_20623"
                result="shape" />
        </filter>
        <clipPath id="clip0_44882_20623">
            <rect width="159.462" height="323.022" fill="white"
                transform="translate(227.883 124.164)" />
        </clipPath>
        <clipPath id="clip1_44882_20623">
            <rect width="30.1047" height="11.7921" fill="white"
                transform="matrix(0.988831 0.149042 -0.149041 0.988831 297.785 150.688)" />
        </clipPath>
        <clipPath id="clip2_44882_20623">
            <rect width="35.058" height="35.0752" fill="white"
                transform="translate(225.345 111.598)" />
        </clipPath>
    </defs>
</svg>
