<svg width="166" height="121" viewBox="0 0 166 121" fill="none" xmlns="http://www.w3.org/2000/svg">
<path d="M32.3915 84.7738C49.1235 72.477 69.7761 64.6395 89.6854 62.5799C128.795 58.5366 164.965 91.3117 170.566 133.366C173.2 153.152 166.992 174.887 151.626 186.831C140.256 195.672 126.136 195.587 113.615 190.183C103.054 185.624 94.338 177.482 84.2186 172.045C68.7477 163.732 51.992 164.725 35.7955 159.721C26.9163 156.978 17.1325 151.181 12.5997 142.032C8.29593 133.347 7.99807 122.501 10.9243 113.168C14.6171 101.388 22.8696 91.7711 32.3915 84.7738Z" fill="#BDCCF8" fill-opacity="0.4"/>
<path fill-rule="evenodd" clip-rule="evenodd" d="M56.4634 85.8645C51.4046 61.3075 38.3489 32.6586 54.248 14.1935C70.7043 -4.91886 100.601 -1.12255 123.178 8.38174C141.511 16.0989 149.148 37.3912 156.219 57.1192C161.906 72.9848 163.263 89.5177 158.007 105.55C152.162 123.376 143.469 142.265 126.568 147.556C109.438 152.919 92.0162 142.677 78.2132 130.531C65.4791 119.325 60.0183 103.122 56.4634 85.8645Z" fill="#BDCCF8" fill-opacity="0.4"/>
<path d="M137.286 79.954C137.286 79.954 131.479 82.813 127.538 85.2197C123.068 87.956 118.665 90.6613 117.684 91.2745C115.69 92.5225 111.56 91.5196 109.592 91.3348C107.781 91.1647 77.3119 84.6901 77.0202 84.4878C76.7284 84.2854 76.4467 93.555 76.4467 93.555C76.4467 93.555 115.131 105.803 117.418 105.241C119.705 104.678 127.69 100.797 130.96 99.1978C134.082 97.6687 139.014 95.0586 141.408 94.0819C144.085 92.9888 151.123 88.0897 148.672 82.3983C145.545 75.1301 139.677 78.7015 137.286 79.954Z" fill="#632885"/>
<path d="M119.155 67.9047C119.685 69.0502 120.147 70.2258 120.539 71.4253C122.602 70.5324 128.924 65.4742 129.043 65.3594C127.404 66.0232 119.155 67.9047 119.155 67.9047Z" fill="#BB8062"/>
<path d="M120.171 106.953C120.171 106.953 131.732 128.28 132.34 136.331C132.948 144.383 155.77 133.446 155.77 133.446L120.171 106.953Z" fill="#EDDCC5"/>
<path d="M116.782 65.291C117.023 65.4821 117.307 65.8959 117.617 66.4622C118.162 67.5011 118.644 68.562 119.062 69.6391C120.601 73.4649 122.151 78.3654 122.151 78.3654C122.151 78.3654 135.384 67.547 133.323 66.5963C129.898 65.0189 129.715 61.7811 129.715 61.7811C129.715 61.7811 115.125 63.9636 116.782 65.291Z" fill="#EAAC89"/>
<path d="M117.668 66.136C118.318 67.288 118.9 68.4665 119.412 69.6656C121.478 68.8782 127.613 64.1781 127.727 64.0703C126.08 64.651 117.668 66.136 117.668 66.136Z" fill="#BB8062"/>
<path d="M112.065 36.3405C112.065 36.3405 109.211 41.8359 109.339 45.7732C109.41 48.0438 105.134 52.5844 106.189 53.6796C107.244 54.7747 108.931 56.3104 108.923 56.6143C108.915 56.9183 111.911 66.6448 114.188 66.9666C116.465 67.2884 127.753 65.9181 132.491 62.3634C136.506 58.5112 138.159 52.9283 138.89 51.095C139.62 49.2617 127.824 29.8619 112.065 36.3405Z" fill="#EAAC89"/>
<path fill-rule="evenodd" clip-rule="evenodd" d="M142.378 51.5997C142.783 52.1305 142.408 52.4101 140.224 51.9497C140.217 53.723 135.861 57.5695 133.079 57.4426C132.661 54.3926 131.726 54.1126 130.939 53.594C130.078 53.1947 128.949 52.6572 125.317 56.6994C124.482 55.029 127.204 54.0574 127.356 50.9802C127.677 44.5778 128.946 49.9335 124.917 44.0663C125 44.9308 125.198 45.6896 124.878 45.6718C123.871 45.6209 120.99 41.5114 119.972 38.1556C118.027 39.1815 116.455 39.5489 115.207 39.186C111.302 37.1129 108.71 42.0258 108.78 40.7484C109.084 34.8892 112.67 33.8127 112.67 33.8127C112.07 33.9252 111.478 33.957 110.924 34.1368C109.92 34.4625 115.427 27.9745 119.601 30.3886C119.601 30.3886 119.21 29.7164 117.611 28.6333C117.023 28.2347 119.661 28.4413 121.442 29.8205C122.057 29.251 124.651 27.08 127.472 28.2455C128.78 28.7867 130.596 30.0254 130.298 29.9431C128.824 29.5302 127.869 29.9863 127.869 29.9863C129.798 30.3355 129.864 30.2597 131.777 31.2845C131.777 31.2845 134.683 32.6084 136.072 33.869C134.994 33.4947 134.006 33.5521 135.36 34.6814C137.984 37.4381 138.906 39.5565 139.68 42.3114C140.363 44.7395 140.56 43.7125 141.732 47.1866C139.088 45.3924 140.933 50.0452 142.378 51.5997Z" fill="#0F1F59"/>
<path d="M125.599 61.8367C125.599 61.8367 138.033 64.7924 139.507 51.09C139.06 42.3774 134.279 45.5227 134.279 45.5227C134.279 45.5227 124.065 51.4484 127.799 51.621C131.533 51.7935 131.665 53.7593 131.512 56.0795C131.512 56.0795 131.19 58.3272 128.388 58.5551C126.266 58.7276 125.599 61.8367 125.599 61.8367Z" fill="#0F1F59"/>
<path d="M132.964 65.7787C132.964 65.7787 151.939 76.3573 156.708 94.8296C161.477 113.302 170.071 145.738 170.323 149.579C170.323 149.579 144.722 137.757 131.146 141.01C131.146 141.01 121.625 110.909 116.882 103.799C112.138 96.6899 118.363 79.9764 118.363 79.9764C118.363 79.9764 124.494 69.9487 132.964 65.7787Z" fill="#A05BB6"/>
<path d="M142.657 85.235C140.516 92.9207 125.542 100.169 117.5 103.082C138.675 96.8069 144.152 88.6042 144.278 85.1505C144.282 85.0617 144.257 84.978 144.213 84.9008C143.931 84.4053 142.81 84.6856 142.657 85.235Z" fill="#632885"/>
<path d="M98.9302 93.6859C99.5494 93.895 100.204 93.9795 100.856 93.9343C101.508 93.8892 102.144 93.7153 102.729 93.4228C103.205 93.1333 103.708 92.891 104.231 92.6995C104.494 92.6034 104.78 92.5953 105.048 92.6766C105.316 92.7578 105.55 92.9239 105.715 93.1498C105.887 93.6167 105.884 94.1305 105.705 94.5952C105.624 94.8271 105.604 95.0758 105.646 95.3178C105.688 95.5598 105.791 95.7871 105.945 95.9781C106.089 96.0729 106.255 96.1281 106.426 96.1384C106.598 96.1487 106.769 96.1136 106.923 96.0367C107.23 95.8857 107.496 95.6624 107.698 95.3859C108.227 94.682 108.546 93.8422 108.617 92.9642C108.688 92.0863 108.508 91.2062 108.098 90.4265C107.665 89.6618 107.031 89.0301 106.265 88.5997C105.499 88.1692 104.63 87.9564 103.752 87.9842C102.109 88.0407 100.61 88.9192 98.9859 89.0931C98.9698 90.6543 98.9568 92.164 98.9302 93.6859Z" fill="#F09971"/>
<path d="M106.987 86.9726C106.787 86.9815 106.591 87.0312 106.41 87.1188L103.034 88.5174L105.08 88.8466C105.319 88.842 105.555 88.8904 105.772 88.9883C105.99 89.0861 106.183 89.231 106.337 89.4125C106.686 89.2422 107.012 89.0273 107.305 88.7733C107.447 88.6439 107.56 88.4865 107.637 88.3111C107.714 88.1356 107.754 87.946 107.754 87.7544C107.741 87.5538 107.656 87.3644 107.516 87.2209C107.375 87.0774 107.187 86.9893 106.987 86.9726Z" fill="#F09971"/>
<path d="M88.6373 86.8166L98.9815 89.1404C99.4389 90.6225 99.4205 92.2106 98.929 93.6818C94.9926 94.737 86.2339 95.9037 80.9912 94.1953L84.8877 85.1847C85.8946 86.1709 87.2294 86.7519 88.6373 86.8166Z" fill="#F09971"/>
<path d="M80.9907 94.1989C78.0109 91.3463 75.3021 88.2234 72.8993 84.8704L71.2723 82.7202L72.1151 82.2285L72.2757 82.1348L79.356 77.9498L84.4381 84.7095L84.8326 85.2367C83.8501 88.2763 83.558 93.152 80.9907 94.1989Z" fill="#F09971"/>
<path d="M83.7206 83.3087C82.0442 86.2516 79.6381 88.713 76.734 90.4558L72.2394 84.8803C71.3812 83.712 70.9951 82.2632 71.1579 80.8228C71.3208 79.3824 72.0207 78.0563 73.118 77.1091L73.1998 77.0366C73.6401 76.6583 74.1513 76.3713 74.7034 76.1923C75.2556 76.0132 75.8378 75.9456 76.4163 75.9935C76.9948 76.0414 77.5581 76.2037 78.0733 76.4711C78.5886 76.7385 79.0456 77.1055 79.4177 77.551L83.7206 83.3087Z" fill="#E2E2E2"/>
<path d="M78.8925 100.053C83.2891 101.478 87.3948 103.05 91.0512 104.378C92.6854 104.989 94.2333 105.529 95.6701 105.98C97.3466 106.614 98.8375 107.657 100.006 109.016C101.175 110.374 101.985 112.004 102.361 113.756L106.953 133.533L111.358 135.407C115.74 135.415 117.146 137.388 116.801 140.523L99.9351 143.629C98.8331 141.754 98.3089 139.595 98.4283 137.423C98.4367 137.332 98.452 137.241 98.474 137.151C98.5024 136.899 98.5445 136.649 98.5999 136.402C97.9022 135.052 97.2636 133.684 96.6704 132.296C94.7769 127.801 93.3853 123.109 92.5211 118.308C90.5367 118.199 88.5092 118.013 86.4546 117.738C83.1399 117.293 79.7256 116.607 76.232 115.811L78.8925 100.053Z" fill="#F2A480"/>
<path d="M78.956 99.6856C80.0007 99.5529 80.5958 99.4288 80.5958 99.4288L80.6494 100.194L83.6747 101.36L91.2581 103.741L91.0439 104.349L87.1513 115.768L86.4677 117.754L86.2625 118.392L76.1307 116.508L78.956 99.6856Z" fill="#186682"/>
<path d="M68.6318 72.4208L78.8241 76.7796L80.0577 74.4378L80.8725 72.922L81.1592 72.3819C80.91 71.9479 80.6721 71.5298 80.416 71.1367C78.0956 67.3576 75.4328 64.9496 72.0508 65.6561L71.0629 67.619L68.6318 72.4208Z" fill="#DE926E"/>
<path d="M60.0893 94.0971L73.8236 104.051L79.4265 101.378L80.951 100.64C81.0334 100.15 81.1615 99.3869 81.2965 98.5832L81.356 98.2291C81.5092 97.3165 81.6557 96.4447 81.7357 95.968C81.8158 95.4912 81.9462 94.7148 81.9628 94.1154C82.203 92.6851 82.2433 91.3614 82.3244 90.1285C82.4234 88.32 82.3862 86.5066 82.2131 84.7037C81.4142 77.1186 77.5651 75.4358 72.9116 72.5394C71.7652 71.9819 70.5712 71.5283 69.3438 71.1838C67.5099 72.3464 64.2176 77.6058 63.7008 80.5162C62.964 85.1546 61.7538 89.7054 60.0893 94.0971Z" fill="white"/>
<path d="M65.0959 63.0441C66.2782 65.5116 68.3986 67.6464 71.0644 67.6179C71.6323 67.6069 72.1954 67.5127 72.7359 67.3384C73.1554 67.154 73.6076 67.0553 74.0658 67.0481C74.5239 67.0408 74.979 67.1253 75.4041 67.2964C75.6983 67.4415 75.9551 67.6524 76.1549 67.9127C76.6043 68.5114 76.9987 69.1495 77.3333 69.8192C78.1689 71.1906 79.4046 72.273 80.874 72.9209C82.1877 73.5132 83.6404 73.7281 85.0694 73.5415C85.8483 73.4289 86.6053 73.197 87.3137 72.854C88.3225 72.3622 89.2159 71.6624 89.9351 70.8008C90.6543 69.9392 91.1831 68.9351 91.4867 67.8546C91.822 66.6084 91.3442 65.5338 92.2899 64.6562C92.9878 64.0031 94.025 62.6647 92.4527 61.6023C91.9575 61.2568 91.5526 60.7975 91.2719 60.2629C90.9912 59.7283 90.843 59.1341 90.8398 58.5303C90.7642 57.2292 91.0133 55.9125 90.965 54.6158C90.7572 52.4308 89.9033 50.3571 88.5122 48.6593C87.1212 46.9614 85.2559 45.7164 83.1544 45.0828C78.8865 43.9222 74.3357 44.4466 70.4435 46.5474C69.1043 47.1537 67.9009 48.0232 66.9049 49.1044C66.0789 50.12 65.4553 51.2847 65.0681 52.5353C63.747 55.9155 63.7569 59.671 65.0959 63.0441Z" fill="#EAAC89"/>
<path d="M74.5464 67.5608C74.8934 67.0024 75.1181 66.3768 75.2058 65.7252C75.2935 65.0737 75.2422 64.411 75.0553 63.7807C74.7367 62.5087 78.7827 60.9334 79.3442 58.5907C79.4296 57.4849 79.2617 56.3742 78.8533 55.3431C78.8533 55.3431 89.1409 46.9589 87.4483 45.8623C85.2673 44.4805 82.775 43.6671 80.1987 43.4963C76.3166 43.1838 72.4449 44.2147 69.2321 46.4163C67.6423 47.5197 66.2868 48.9271 65.2438 50.5572C64.2008 52.1874 63.491 54.0079 63.1553 55.9139C62.84 57.8238 62.9556 59.78 63.4939 61.6394C64.0322 63.4988 64.9794 65.2143 66.2663 66.6603C67.3085 67.8833 68.7167 68.7386 70.2824 69.0995C71.066 69.2695 71.8815 69.2152 72.6356 68.9431C73.3898 68.6709 74.052 68.1919 74.5464 67.5608Z" fill="#131313"/>
<path d="M76.5994 59.2506C76.2737 58.983 75.8933 58.79 75.4851 58.6852C75.0768 58.5803 74.6506 58.5661 74.2363 58.6436C73.8217 58.724 73.4301 58.8957 73.09 59.1462C72.75 59.3968 72.4699 59.7199 72.2703 60.0921C71.8296 61.0589 71.7604 62.1541 72.0758 63.1687C72.3943 64.3757 72.9699 65.4995 73.7633 66.4633C74.2323 67.0763 74.8599 67.5498 75.5782 67.8325C75.9373 67.9692 76.3261 68.0087 76.7053 67.947C77.0846 67.8853 77.4408 67.7245 77.738 67.4809C78.0196 67.1537 78.2295 66.7712 78.3544 66.358C78.4793 65.9448 78.5163 65.5101 78.4631 65.0817C78.4441 63.9297 78.2737 62.7851 77.9564 61.6774C77.7569 60.7509 77.2843 59.9056 76.5994 59.2506Z" fill="#EAAC89"/>
<path d="M82.5754 119.805C84.5114 120.536 86.4339 121.181 88.3451 121.726C88.112 126.599 88.4143 131.482 89.2466 136.289C89.5082 137.734 89.8265 139.258 90.2106 140.723C90.0901 140.945 89.9859 141.175 89.8987 141.413C89.8707 141.501 89.8553 141.593 89.8529 141.685C89.2471 143.771 89.264 145.989 89.9017 148.066L107.042 148.83C108.104 145.843 107.165 143.598 102.917 142.535L99.0494 139.714L98.9226 119.455C98.9515 117.664 98.5287 115.895 97.6933 114.31C96.8579 112.726 95.6368 111.377 94.1427 110.389C92.8721 109.615 91.4631 108.748 89.9997 107.788C86.5919 105.563 82.7577 102.959 78.6213 100.485L70.6857 112.878L69.9281 114.053C74.0257 116.22 78.249 118.141 82.5754 119.805Z" fill="#FFAD87"/>
<path d="M63.554 112.155C63.7582 112.273 63.9624 112.391 64.1961 112.501L82.2315 120.362L82.5796 119.79L83.674 118.027L90.0447 107.78L90.3883 107.236L83.5221 103.254L80.8496 101.404L80.9754 100.655C77.6024 100.464 74.2655 99.8612 71.0389 98.86C67.2157 97.7239 63.5425 96.1337 60.0978 94.1234C59.959 94.3662 59.6017 94.9924 59.2032 95.8639C57.5389 99.4359 55.1835 107.289 63.554 112.155Z" fill="#007FAD"/>
<g style="mix-blend-mode:multiply" opacity="0.4">
<path d="M82.5804 119.792C84.5164 120.523 86.4389 121.168 88.3343 121.725C88.1108 126.598 88.4176 131.482 89.2493 136.29C88.7592 130.719 88.9814 125.109 89.9105 119.594C87.8128 119.242 85.7291 118.64 83.6749 118.029L82.5804 119.792Z" fill="#FFAE80"/>
</g>
<g style="mix-blend-mode:multiply" opacity="0.4">
<path d="M77.191 71.5731C77.9446 72.7101 78.9195 73.6836 80.0576 74.4355L80.8725 72.9197C82.1862 73.512 83.6389 73.7269 85.0679 73.5403C85.8468 73.4277 86.6038 73.1958 87.3122 72.8528C85.4879 72.9526 83.6643 72.6463 81.9727 71.956C81.4323 71.7398 80.9088 71.4834 80.4068 71.1888C78.5565 70.1607 77.0405 68.6227 76.0391 66.7578C76.093 67.187 76.1243 67.5845 76.1442 67.966C76.1217 69.2464 76.4866 70.5037 77.191 71.5731Z" fill="#FFAE80"/>
</g>
<g style="mix-blend-mode:multiply" opacity="0.4">
<path d="M67.7031 82.6992C67.6574 82.9716 67.7092 83.2465 67.718 83.528C67.717 84.2842 67.7184 85.0267 67.7583 85.7897C67.8062 87.5064 67.9243 89.2209 68.0857 90.9287C68.1892 92.4475 68.463 93.9498 68.9021 95.4075C69.3216 96.7088 70.0511 97.8887 71.0277 98.8457L71.3839 99.1436C72.94 100.385 77.1648 101.165 79.4125 101.374C79.8768 101.432 80.3461 101.435 80.8112 101.385L80.9371 100.636C81.0194 100.146 81.1475 99.3828 81.2825 98.5792C82.5178 98.5626 83.7622 98.4915 85.0543 98.3864L81.342 98.2251C80.2783 98.1617 79.2197 98.0307 78.1726 97.8328C76.7336 97.6397 75.3515 97.1451 74.1167 96.3813C73.016 95.5016 72.1175 94.3954 71.4822 93.1377C70.9377 92.1617 70.4668 91.1463 70.0736 90.1001C69.1298 87.6307 68.445 85.0367 67.7031 82.6992Z" fill="#C1C1C1"/>
</g>
<path d="M87.2685 49.2603C87.1508 49.9607 87.2435 50.6803 87.5349 51.3281C87.8262 51.9759 88.3031 52.5227 88.9052 52.8994C89.5073 53.2762 90.2076 53.4659 90.9176 53.4446C91.6275 53.4233 92.3152 53.192 92.8937 52.7799C93.4721 52.3678 93.9154 51.7934 94.1674 51.1294C94.4195 50.4653 94.4689 49.7415 94.3096 49.0493C94.1502 48.3572 93.7892 47.7278 93.2722 47.2409C92.7551 46.7539 92.1052 46.4312 91.4048 46.3135C90.9397 46.2354 90.4638 46.2497 90.0043 46.3555C89.5447 46.4613 89.1105 46.6566 88.7264 46.9303C88.3423 47.2039 88.0158 47.5505 87.7656 47.9503C87.5155 48.3501 87.3466 48.7952 87.2685 49.2603Z" fill="#131313"/>
<path d="M83.6553 46.4991C83.5244 47.2782 83.6278 48.0787 83.9522 48.7991C84.2766 49.5195 84.8074 50.1274 85.4775 50.5459C86.1477 50.9644 86.9269 51.1746 87.7166 51.1499C88.5063 51.1252 89.2708 50.8667 89.9135 50.4072C90.5562 49.9477 91.0481 49.3078 91.3269 48.5685C91.6056 47.8293 91.6587 47.0239 91.4794 46.2544C91.3001 45.485 90.8966 44.786 90.3198 44.2461C89.743 43.7062 89.019 43.3495 88.2394 43.2214C87.723 43.1347 87.1947 43.1507 86.6846 43.2686C86.1745 43.3865 85.6927 43.604 85.2669 43.9085C84.841 44.213 84.4794 44.5986 84.2028 45.0431C83.9263 45.4877 83.7402 45.9825 83.6553 46.4991Z" fill="#131313"/>
<path d="M81.3482 48.2246C83.4245 48.5733 85.3904 47.1728 85.7391 45.0965C86.0878 43.0202 84.6873 41.0543 82.611 40.7056C80.5347 40.3569 78.5689 41.7574 78.2202 43.8337C77.8714 45.91 79.2719 47.8758 81.3482 48.2246Z" fill="#131313"/>
<path d="M75.1864 42.8063C75.1135 43.24 75.171 43.6857 75.3514 44.0868C75.5318 44.4879 75.8271 44.8265 76.1999 45.0598C76.5727 45.2931 77.0064 45.4106 77.446 45.3974C77.8857 45.3842 78.3115 45.241 78.6697 44.9858C79.0279 44.7306 79.3024 44.3749 79.4585 43.9637C79.6145 43.5525 79.6452 43.1043 79.5465 42.6757C79.4478 42.2471 79.2242 41.8574 78.904 41.5558C78.5838 41.2543 78.1814 41.0544 77.7477 40.9816C77.1661 40.8839 76.5695 41.0213 76.0891 41.3635C75.6088 41.7057 75.2841 42.2247 75.1864 42.8063Z" fill="#131313"/>
<path d="M68.4042 43.6563C68.2824 44.3816 68.3785 45.1267 68.6805 45.7973C68.9825 46.4679 69.4767 47.0337 70.1005 47.4232C70.7243 47.8128 71.4497 48.0084 72.1848 47.9853C72.9199 47.9623 73.6315 47.7216 74.2297 47.2937C74.8279 46.8659 75.2856 46.2702 75.545 45.582C75.8044 44.8938 75.8537 44.1442 75.6867 43.4279C75.5197 42.7117 75.1438 42.0612 74.6068 41.5587C74.0698 41.0562 73.3958 40.7244 72.67 40.6053C72.1895 40.5246 71.6978 40.5396 71.223 40.6493C70.7483 40.7591 70.2999 40.9615 69.9036 41.245C69.5072 41.5285 69.1707 41.8874 68.9134 42.3012C68.6561 42.715 68.4831 43.1755 68.4042 43.6563Z" fill="#131313"/>
<path d="M81.9788 50.4752C81.8787 51.0711 81.9578 51.6834 82.206 52.2344C82.4542 52.7854 82.8603 53.2503 83.3729 53.5703C83.8856 53.8902 84.4817 54.0508 85.0857 54.0317C85.6897 54.0125 86.2744 53.8146 86.7658 53.4628C87.2572 53.1111 87.6331 52.6214 87.8459 52.0558C88.0588 51.4902 88.099 50.8742 87.9614 50.2857C87.8238 49.6973 87.5147 49.1629 87.0731 48.7504C86.6316 48.3378 86.0775 48.0656 85.4811 47.9682C84.6844 47.8381 83.8687 48.0288 83.2123 48.4987C82.556 48.9685 82.1125 49.6792 81.9788 50.4752Z" fill="#131313"/>
<path d="M76.9093 51.9909C76.8037 52.5865 76.8774 53.2 77.1212 53.7537C77.3649 54.3073 77.7677 54.776 78.2783 55.1003C78.7889 55.4246 79.3843 55.5899 79.989 55.5753C80.5937 55.5606 81.1804 55.3665 81.6747 55.0178C82.1689 54.6691 82.5484 54.1814 82.765 53.6166C82.9816 53.0518 83.0254 52.4354 82.891 51.8456C82.7567 51.2558 82.4502 50.7193 82.0103 50.3041C81.5704 49.8888 81.0171 49.6136 80.4206 49.5134C79.6269 49.3801 78.8126 49.5656 78.1551 50.0296C77.4975 50.4935 77.0498 51.1984 76.9093 51.9909Z" fill="#131313"/>
<path d="M64.4654 48.0942C64.3472 48.798 64.4405 49.5209 64.7336 50.1716C65.0266 50.8222 65.506 51.3712 66.1113 51.7492C66.7166 52.1271 67.4205 52.3169 68.1337 52.2945C68.8469 52.2721 69.5374 52.0385 70.1178 51.6233C70.6982 51.2082 71.1423 50.6302 71.3939 49.9624C71.6455 49.2947 71.6934 48.5673 71.5313 47.8723C71.3692 47.1774 71.0044 46.5462 70.4833 46.0588C69.9622 45.5713 69.3082 45.2494 68.604 45.1339C68.1378 45.0556 67.6607 45.0701 67.2001 45.1766C66.7395 45.2831 66.3044 45.4796 65.9199 45.7546C65.5354 46.0296 65.209 46.3779 64.9594 46.7794C64.7098 47.1809 64.5419 47.6277 64.4654 48.0942Z" fill="#131313"/>
<path d="M64.6554 53.9967C65.7462 54.1799 66.779 53.4442 66.9622 52.3534C67.1454 51.2625 66.4096 50.2298 65.3188 50.0466C64.228 49.8634 63.1952 50.5991 63.012 51.6899C62.8288 52.7807 63.5646 53.8135 64.6554 53.9967Z" fill="#131313"/>
<path d="M61.1167 55.7125C61.0262 56.2513 61.0976 56.8049 61.3217 57.3032C61.5458 57.8014 61.9125 58.2221 62.3757 58.5119C62.8388 58.8017 63.3776 58.9476 63.9237 58.9313C64.4698 58.9149 64.9988 58.737 65.4438 58.4199C65.8888 58.1029 66.2298 57.6611 66.4236 57.1503C66.6175 56.6395 66.6555 56.0827 66.5329 55.5503C66.4103 55.0179 66.1326 54.5337 65.7349 54.1591C65.3372 53.7846 64.8373 53.5363 64.2985 53.4458C63.576 53.3245 62.8349 53.4951 62.2382 53.9202C61.6415 54.3453 61.238 54.99 61.1167 55.7125Z" fill="#131313"/>
<path d="M64.4993 63.9933C66.4252 64.3168 68.2486 63.0178 68.572 61.0919C68.8955 59.1661 67.5965 57.3427 65.6706 57.0192C63.7448 56.6958 61.9214 57.9948 61.5979 59.9206C61.2745 61.8465 62.5735 63.6699 64.4993 63.9933Z" fill="#131313"/>
<path d="M63.7201 64.368C63.64 64.8448 63.7031 65.3347 63.9014 65.7757C64.0997 66.2167 64.4244 66.5889 64.8343 66.8454C65.2442 67.1019 65.7209 67.231 66.2042 67.2165C66.6875 67.2021 67.1557 67.0446 67.5495 66.764C67.9433 66.4835 68.2451 66.0925 68.4167 65.6404C68.5882 65.1884 68.6219 64.6956 68.5134 64.2244C68.405 63.7532 68.1592 63.3248 67.8072 62.9932C67.4552 62.6617 67.0128 62.442 66.536 62.362C65.8966 62.2546 65.2407 62.4056 64.7126 62.7818C64.1845 63.158 63.8275 63.7286 63.7201 64.368Z" fill="#131313"/>
<path d="M66.6735 67.2994C66.5912 67.7898 66.6561 68.2935 66.86 68.7469C67.064 69.2003 67.3978 69.5831 67.8192 69.8468C68.2407 70.1105 68.731 70.2434 69.2279 70.2285C69.7249 70.2136 70.2062 70.0516 70.6111 69.7632C71.0161 69.4747 71.3264 69.0726 71.5028 68.6078C71.6792 68.143 71.7138 67.6362 71.6023 67.1517C71.4907 66.6672 71.2381 66.2267 70.8761 65.8859C70.5142 65.545 70.0593 65.3191 69.569 65.2367C69.2432 65.1801 68.9095 65.1888 68.5871 65.2621C68.2647 65.3354 67.96 65.4719 67.6907 65.6637C67.4214 65.8556 67.1929 66.0989 67.0183 66.3797C66.8437 66.6604 66.7265 66.9731 66.6735 67.2994Z" fill="#131313"/>
<path d="M69.9694 89.054C69.9694 89.054 69.3377 85.1736 68.8292 84.0918C68.8292 84.0918 66.9685 80.589 66.1385 84.9183C66.1385 84.9183 59.727 78.7374 59.5902 82.3224C58.2313 83.0941 58.7689 86.1824 59.4534 85.9074C58.8743 86.0457 59.3441 88.7764 59.3441 88.7764L59.9005 91.615C61.2098 94.4436 62.1697 93.6307 62.4542 94.3735C61.0953 95.1453 61.7611 95.1179 61.7611 95.1179C63.1437 95.5729 64.1667 96.3354 65.7011 96.3877C67.2356 96.4401 69.618 97.9013 69.9596 97.4983C70.3012 97.0952 69.9694 89.054 69.9694 89.054Z" fill="#EAAC89"/>
<path d="M129.85 77.0595C129.85 77.0595 123.615 80.7505 119.424 83.7762C114.671 87.2152 109.989 90.6139 108.946 91.3829C106.828 92.9476 102.132 92.1837 99.9195 92.1469C97.883 92.113 70.3835 90.8686 70.0404 90.6679C69.6973 90.4672 67.7539 99.5567 67.7539 99.5567C67.7539 99.5567 107.348 107.819 109.852 106.994C112.356 106.17 120.935 101.15 124.447 99.0836C127.801 97.108 133.081 93.7699 135.668 92.4737C138.563 91.0231 145.996 84.9488 142.77 78.8074C138.655 70.9639 132.412 75.4556 129.85 77.0595Z" fill="#A05BB6"/>
<path d="M66.9701 80.306C67.1915 81.2395 67.3993 82.1708 67.6093 83.0884L67.7177 83.5267C68.2688 85.9162 68.8268 88.1807 69.4079 90.1411C69.8336 91.7279 70.404 93.2724 71.112 94.755C71.3401 95.5447 71.7615 96.2651 72.338 96.851C72.9145 97.4369 73.628 97.8699 74.4139 98.1107C74.9415 98.304 75.5004 98.3979 76.0622 98.3875C77.6197 98.537 79.234 98.598 80.8575 98.6046L81.2504 98.6006C82.4857 98.584 83.7301 98.5128 85.0222 98.4077C86.7095 98.2849 88.3946 98.0917 90.1138 97.8623C90.7903 96.3512 90.9896 94.6697 90.6852 93.0424L82.2214 90.1503L79.9154 89.3708C79.7412 89.3146 79.585 89.2133 79.4628 89.0771C79.3405 88.9409 79.2564 88.7748 79.2192 88.5956L79.0385 87.921L78.6793 86.3902L76.9627 79.0991L68.2147 80.1508L68.0104 80.1165L66.9701 80.306Z" fill="#FFAD87"/>
<path d="M78.8905 86.2176C75.981 88.3861 72.5602 89.7655 68.9603 90.2221L66.9441 82.8807C66.6052 81.3619 66.8509 79.7712 67.6324 78.4256C68.4138 77.0799 69.6736 76.0781 71.1607 75.6197L71.256 75.6358C71.8505 75.4538 72.4751 75.3917 73.0937 75.4531C73.7123 75.5144 74.3126 75.698 74.8598 75.9932C75.4069 76.2883 75.89 76.6891 76.281 77.1724C76.672 77.6557 76.9632 78.2118 77.1377 78.8084L78.8905 86.2176Z" fill="#F0F0F0"/>
<path d="M90.1355 97.8243C90.7704 98.1189 91.4573 98.2853 92.1567 98.3138C92.8561 98.3424 93.5543 98.2325 94.2111 97.9906C94.7457 97.7281 95.306 97.5219 95.8831 97.3751C96.1751 97.3044 96.4822 97.3308 96.7579 97.4504C97.0335 97.57 97.2626 97.7762 97.4104 98.0378C97.5471 98.5493 97.4907 99.0932 97.2519 99.5658C97.1323 99.8018 97.0784 100.066 97.0956 100.33C97.1129 100.594 97.2007 100.848 97.3499 101.067C97.4895 101.184 97.6577 101.261 97.8373 101.292C98.017 101.322 98.2014 101.303 98.3715 101.238C98.7184 101.117 99.0284 100.909 99.2715 100.633C99.9172 99.947 100.353 99.0905 100.529 98.1647C100.704 97.2388 100.611 96.2822 100.261 95.4074C99.8877 94.5418 99.2852 93.7946 98.5184 93.2463C97.7516 92.6979 96.8497 92.3692 95.9099 92.2956C94.1662 92.1708 92.469 92.9362 90.7183 92.9363C90.4914 94.6208 90.3214 96.2169 90.1355 97.8243Z" fill="#FFAD87"/>
<path d="M99.4712 91.6059C99.2628 91.5887 99.0531 91.6155 98.8557 91.6846L95.0827 92.8016L97.2414 93.3743C97.4965 93.3946 97.7437 93.4723 97.9645 93.6016C98.1853 93.7308 98.374 93.9082 98.5166 94.1206C98.9105 93.9928 99.2822 93.8048 99.6186 93.5634C99.7887 93.4463 99.9303 93.2926 100.033 93.1135C100.136 92.9345 100.197 92.7346 100.213 92.5287C100.225 92.3105 100.156 92.0954 100.019 91.9249C99.8822 91.7545 99.687 91.6408 99.4712 91.6059Z" fill="#FFAD87"/>
</svg>
