<svg width="192" height="173" viewBox="0 0 192 173" fill="none" xmlns="http://www.w3.org/2000/svg">
    <path
        d="M37.1724 263.174C35.824 261.691 34.4865 260.13 33.1599 258.49C16.925 238.4 5.57235 209.382 1.70903 178.097C0.365736 167.224 -0.0773102 155.795 2.14446 145.262C4.69932 133.155 10.5689 123.25 17.146 115.404C30.7052 99.2271 47.517 90.5068 64.4257 85.4671C74.864 82.3561 85.4775 80.5349 95.7699 76.4488C129.189 63.2036 144.306 10.3638 176.021 -6.54858C197.295 -17.8914 220.418 -5.67771 242.548 0.857112C270.387 9.07903 300.369 8.71976 324.743 30.7663C340.114 44.6737 351.714 66.2417 362.928 87.4273C370.139 101.052 377.683 116.143 377.783 133.631C377.921 157.675 364.842 179.312 355.381 196.753C325.519 251.801 362.559 308.366 294.942 306.724C261.182 305.896 227.476 296.624 194.358 287.371C142.25 272.818 83.5736 314.199 37.1724 263.174Z"
        fill="#A0B2EC" fill-opacity="0.16" />
</svg>
