<svg width="62" height="112" viewBox="0 0 62 112" fill="none" xmlns="http://www.w3.org/2000/svg">
<mask id="mask0_22367_191318" style="mask-type:alpha" maskUnits="userSpaceOnUse" x="0" y="0" width="62" height="112">
<rect x="0.0625" width="61" height="111.833" rx="8" fill="#E7ECFA"/>
</mask>
<g mask="url(#mask0_22367_191318)">
<rect x="-12.0103" y="-6.99023" width="87.6875" height="125.177" fill="#E7ECFA"/>
<path d="M49.0757 20.4843C51.1377 37.4333 48.6691 55.6958 42.5354 71.311C30.4851 101.984 -5.6001 117.13 -36.4452 106.085C-50.9572 100.888 -63.4518 88.3811 -65.7905 72.5804C-67.5224 60.8872 -62.1166 50.3725 -53.6831 42.9775C-46.5698 36.7405 -37.7077 33.1796 -30.1615 27.5905C-18.6242 19.0462 -12.9562 6.17258 -3.40395 -4.11174C1.83248 -9.75003 9.49722 -14.9581 17.463 -15.0306C25.0247 -15.1001 32.5455 -11.3953 37.8122 -5.83026C44.4596 1.19334 47.9026 10.839 49.0757 20.4843Z" fill="#A0B2EC" fill-opacity="0.16"/>
<path d="M34.6415 40.6533C54.7065 42.538 75.1145 50.2427 91.5248 61.6968C123.759 84.1985 131.891 131.763 111.193 166.221C101.454 182.433 83.8129 194.316 64.9998 193.062C51.077 192.136 40.3565 182.881 34.0133 170.768C28.6636 160.552 26.8496 148.912 22.3584 138.34C15.4928 122.176 2.12155 111.993 -7.26219 97.7812C-12.4069 89.9901 -16.4284 79.3728 -14.4538 69.7182C-12.5803 60.553 -6.36767 52.4126 1.40628 47.4796C11.2178 41.2532 23.2232 39.5803 34.6415 40.6533Z" fill="#A0B2EC" fill-opacity="0.16"/>
<rect x="11.8955" y="33.8086" width="36.5137" height="47.3326" rx="3.05" fill="#0C419A"/>
<g filter="url(#filter0_d_22367_191318)">
<rect x="14.938" y="37.5254" width="30.4281" height="40.5708" rx="2.70472" fill="white"/>
</g>
<g filter="url(#filter1_d_22367_191318)">
<rect x="15.6138" y="36.1758" width="29.0757" height="40.5708" rx="2.70472" fill="white"/>
</g>
<g filter="url(#filter2_d_22367_191318)">
<rect x="16.2417" y="34.8223" width="27.8199" height="40.5708" rx="2.70472" fill="white"/>
</g>
<path d="M31.9531 40.652C31.9531 40.046 32.4444 39.5547 33.0505 39.5547H39.3602C39.9662 39.5547 40.4575 40.046 40.4575 40.652C40.4575 41.2581 39.9662 41.7494 39.3602 41.7494H33.0505C32.4444 41.7494 31.9531 41.2581 31.9531 40.652Z" fill="#0C419A"/>
<path d="M31.9526 45.0418C31.9526 44.5872 32.3211 44.2188 32.7756 44.2188H39.634C40.0885 44.2188 40.457 44.5872 40.457 45.0418C40.457 45.4963 40.0885 45.8648 39.634 45.8648H32.7756C32.3211 45.8648 31.9526 45.4963 31.9526 45.0418Z" fill="#BDCCF8"/>
<path d="M31.9521 49.157C31.9521 48.7025 32.3206 48.334 32.7752 48.334H34.1468C34.6014 48.334 34.9698 48.7025 34.9698 49.157C34.9698 49.6115 34.6014 49.98 34.1468 49.98H32.7752C32.3206 49.98 31.9521 49.6115 31.9521 49.157Z" fill="#BDCCF8"/>
<path d="M30.3074 45.0414C30.3074 48.0716 27.8509 50.5281 24.8207 50.5281C21.7905 50.5281 19.334 48.0716 19.334 45.0414C19.334 42.0112 21.7905 39.5547 24.8207 39.5547C27.8509 39.5547 30.3074 42.0112 30.3074 45.0414Z" fill="#F9FAFF"/>
<path d="M23.0546 43.3363C23.0546 42.4591 23.7839 41.748 24.6835 41.748C25.5831 41.748 26.3123 42.4591 26.3123 43.3363C26.3123 44.2135 25.5831 44.9246 24.6835 44.9246C23.7839 44.9246 23.0546 44.2135 23.0546 43.3363ZM24.6835 44.2893C25.2232 44.2893 25.6608 43.8626 25.6608 43.3363C25.6608 42.81 25.2232 42.3833 24.6835 42.3833C24.1437 42.3833 23.7062 42.81 23.7062 43.3363C23.7062 43.8626 24.1437 44.2893 24.6835 44.2893Z" fill="#0C419A"/>
<path d="M22.8406 45.9865C22.4311 46.3859 22.1719 46.9044 22.0987 47.4586C22.0751 47.6369 22.2231 47.7834 22.4031 47.7834C22.583 47.7834 22.7259 47.6365 22.7573 47.4593C22.8255 47.0741 23.0141 46.7158 23.3013 46.4357C23.6679 46.0783 24.1651 45.8775 24.6835 45.8775C25.2019 45.8775 25.699 46.0783 26.0656 46.4357C26.3529 46.7158 26.5415 47.0741 26.6096 47.4593C26.641 47.6365 26.784 47.7834 26.9639 47.7834C27.1438 47.7834 27.2919 47.6369 27.2683 47.4586C27.195 46.9044 26.9359 46.3859 26.5263 45.9865C26.0376 45.5099 25.3747 45.2422 24.6835 45.2422C23.9923 45.2422 23.3294 45.5099 22.8406 45.9865Z" fill="#0C419A"/>
<path d="M19.333 54.3688C19.333 53.7628 19.8243 53.2715 20.4303 53.2715H21.5277C22.1337 53.2715 22.625 53.7628 22.625 54.3688C22.625 54.9749 22.1337 55.4662 21.5277 55.4662H20.4303C19.8243 55.4662 19.333 54.9749 19.333 54.3688Z" fill="#0C419A"/>
<path d="M19.334 58.7575C19.334 58.1515 19.8253 57.6602 20.4313 57.6602H21.5287C22.1347 57.6602 22.626 58.1515 22.626 58.7575C22.626 59.3635 22.1347 59.8548 21.5287 59.8548H20.4313C19.8253 59.8548 19.334 59.3635 19.334 58.7575Z" fill="#0C419A"/>
<path d="M23.9976 54.3699C23.9976 53.9153 24.366 53.5469 24.8206 53.5469H39.6346C40.0892 53.5469 40.4576 53.9153 40.4576 54.3699C40.4576 54.8244 40.0892 55.1929 39.6346 55.1929H24.8206C24.366 55.1929 23.9976 54.8244 23.9976 54.3699Z" fill="#BDCCF8"/>
<path d="M23.9971 58.7586C23.9971 58.304 24.3655 57.9355 24.8201 57.9355H31.6784C32.133 57.9355 32.5014 58.304 32.5014 58.7586C32.5014 59.2131 32.133 59.5816 31.6784 59.5816H24.8201C24.3655 59.5816 23.9971 59.2131 23.9971 58.7586Z" fill="#BDCCF8"/>
<path d="M19.333 63.2968C19.333 62.9117 19.6451 62.5996 20.0302 62.5996H39.7596C40.1446 62.5996 40.4568 62.9117 40.4568 63.2968V69.8582C40.4568 70.2432 40.1446 70.5553 39.7596 70.5553H20.0302C19.6451 70.5553 19.333 70.2432 19.333 69.8581V63.2968Z" fill="#F9FAFF"/>
<path fill-rule="evenodd" clip-rule="evenodd" d="M30.5264 64.8205L29.146 67.5417C29.0408 67.749 28.828 67.8797 28.5955 67.8797H27.8027L27.3584 69.1733C27.1753 69.7065 26.4321 69.7354 26.2082 69.2181L24.8373 66.0519L24.1743 67.5169C24.0743 67.7378 23.8543 67.8797 23.6119 67.8797H21.5275C21.3381 67.8797 21.1846 67.7261 21.1846 67.5368C21.1846 67.3474 21.3381 67.1938 21.5275 67.1938H23.5677L24.2763 65.628C24.4972 65.14 25.1923 65.1457 25.4051 65.6373L26.7672 68.7832L27.17 67.6106C27.2556 67.3613 27.4901 67.1938 27.7537 67.1938H28.5534L29.9853 64.3712C30.2282 63.8923 30.9245 63.9306 31.1135 64.4332L32.5641 68.2912L32.9017 67.5541C33.0022 67.3346 33.2215 67.1938 33.4629 67.1938H34.5838L35.1485 66.0807C35.3771 65.6301 36.0208 65.6301 36.2494 66.0807L36.8141 67.1938H38.2619C38.4513 67.1938 38.6048 67.3474 38.6048 67.5368C38.6048 67.7261 38.4513 67.8797 38.2619 67.8797H36.772C36.5395 67.8797 36.3267 67.749 36.2215 67.5417L35.699 66.5116L35.1764 67.5417C35.0712 67.749 34.8585 67.8797 34.626 67.8797H33.5069L33.1191 68.7265C32.8906 69.2255 32.1733 69.2005 31.9801 68.6868L30.5264 64.8205Z" fill="#0C419A"/>
<path fill-rule="evenodd" clip-rule="evenodd" d="M26.9618 32.8144C26.6679 32.2881 26.5003 31.6817 26.5003 31.0361C26.5003 29.0195 28.1351 27.3848 30.1517 27.3848C32.1683 27.3848 33.8031 29.0195 33.8031 31.0361C33.8031 31.6817 33.6355 32.2881 33.3415 32.8144H37.4541C38.4624 32.8144 39.2798 33.6317 39.2798 34.64V36.4657H21.0229V34.64C21.0229 33.6317 21.8403 32.8144 22.8486 32.8144H26.9618ZM28.7737 32.8144C28.2542 32.396 27.9218 31.7548 27.9218 31.036C27.9218 29.7756 28.9436 28.7538 30.2039 28.7538C31.4643 28.7538 32.4861 29.7756 32.4861 31.036C32.4861 31.7548 32.1537 32.396 31.6342 32.8144H28.7737Z" fill="#F0B323"/>
</g>
<defs>
<filter id="filter0_d_22367_191318" x="9.8805" y="34.9966" width="40.5432" height="50.6853" filterUnits="userSpaceOnUse" color-interpolation-filters="sRGB">
<feFlood flood-opacity="0" result="BackgroundImageFix"/>
<feColorMatrix in="SourceAlpha" type="matrix" values="0 0 0 0 0 0 0 0 0 0 0 0 0 0 0 0 0 0 127 0" result="hardAlpha"/>
<feOffset dy="2.52875"/>
<feGaussianBlur stdDeviation="2.52875"/>
<feColorMatrix type="matrix" values="0 0 0 0 0.0470588 0 0 0 0 0.254902 0 0 0 0 0.603922 0 0 0 0.1 0"/>
<feBlend mode="normal" in2="BackgroundImageFix" result="effect1_dropShadow_22367_191318"/>
<feBlend mode="normal" in="SourceGraphic" in2="effect1_dropShadow_22367_191318" result="shape"/>
</filter>
<filter id="filter1_d_22367_191318" x="10.5563" y="33.647" width="39.1907" height="50.6853" filterUnits="userSpaceOnUse" color-interpolation-filters="sRGB">
<feFlood flood-opacity="0" result="BackgroundImageFix"/>
<feColorMatrix in="SourceAlpha" type="matrix" values="0 0 0 0 0 0 0 0 0 0 0 0 0 0 0 0 0 0 127 0" result="hardAlpha"/>
<feOffset dy="2.52875"/>
<feGaussianBlur stdDeviation="2.52875"/>
<feColorMatrix type="matrix" values="0 0 0 0 0.0470588 0 0 0 0 0.254902 0 0 0 0 0.603922 0 0 0 0.1 0"/>
<feBlend mode="normal" in2="BackgroundImageFix" result="effect1_dropShadow_22367_191318"/>
<feBlend mode="normal" in="SourceGraphic" in2="effect1_dropShadow_22367_191318" result="shape"/>
</filter>
<filter id="filter2_d_22367_191318" x="11.1842" y="32.2935" width="37.9348" height="50.6853" filterUnits="userSpaceOnUse" color-interpolation-filters="sRGB">
<feFlood flood-opacity="0" result="BackgroundImageFix"/>
<feColorMatrix in="SourceAlpha" type="matrix" values="0 0 0 0 0 0 0 0 0 0 0 0 0 0 0 0 0 0 127 0" result="hardAlpha"/>
<feOffset dy="2.52875"/>
<feGaussianBlur stdDeviation="2.52875"/>
<feColorMatrix type="matrix" values="0 0 0 0 0.0470588 0 0 0 0 0.254902 0 0 0 0 0.603922 0 0 0 0.1 0"/>
<feBlend mode="normal" in2="BackgroundImageFix" result="effect1_dropShadow_22367_191318"/>
<feBlend mode="normal" in="SourceGraphic" in2="effect1_dropShadow_22367_191318" result="shape"/>
</filter>
</defs>
</svg>
