<svg width="312" height="164" viewBox="0 0 312 164" fill="none" xmlns="http://www.w3.org/2000/svg">
<mask id="mask0_37725_205655" style="mask-type:alpha" maskUnits="userSpaceOnUse" x="0" y="0" width="312" height="164">
<rect x="0.5" width="311" height="164" rx="8" fill="#E7ECFA"/>
</mask>
<g mask="url(#mask0_37725_205655)">
<rect x="0.5" width="311" height="164" fill="#D9E7FF"/>
<path d="M207.566 122.553C173.752 126.768 137.318 121.722 106.166 109.185C44.9724 84.5547 14.7552 10.7974 36.7902 -52.2492C47.1586 -81.9114 72.1104 -107.45 103.633 -112.23C126.961 -115.77 147.938 -104.721 162.691 -87.483C175.134 -72.9436 182.238 -54.8296 193.389 -39.4055C210.435 -15.8234 236.118 -4.23817 256.635 15.2863C267.884 25.9894 278.274 41.656 278.418 57.9378C278.557 73.3938 271.166 88.7662 260.064 99.531C246.051 113.118 226.808 120.156 207.566 122.553Z" fill="#A0B2EC" fill-opacity="0.16"/>
<path d="M265.983 156.409C262.223 197.421 246.852 239.135 224.001 272.677C179.11 338.563 84.2181 355.184 15.4729 312.878C-16.8701 292.973 -40.5764 256.914 -38.0758 218.461C-36.2283 190.003 -17.7627 168.09 6.40156 155.125C26.7828 144.19 50.0053 140.483 71.0972 131.303C103.344 117.27 123.659 89.9391 152.012 70.7589C167.555 60.2433 188.737 52.0235 207.998 56.0594C226.283 59.8889 242.523 72.5873 252.365 88.4771C264.786 108.532 268.124 133.07 265.983 156.409Z" fill="#A0B2EC" fill-opacity="0.16"/>
<rect x="124.285" y="44.168" width="61.4708" height="79.6843" rx="2.93306" fill="#0C419A"/>
<g filter="url(#filter0_d_37725_205655)">
<rect x="129.408" y="50.4285" width="51.2256" height="68.3008" rx="2.60102" fill="white"/>
</g>
<g filter="url(#filter1_d_37725_205655)">
<rect x="130.543" y="48.1514" width="48.9489" height="68.3008" rx="2.60102" fill="white"/>
</g>
<g filter="url(#filter2_d_37725_205655)">
<rect x="131.596" y="45.874" width="46.8349" height="68.3008" rx="2.60102" fill="white"/>
</g>
<path d="M158.051 55.6875C158.051 54.6672 158.878 53.8401 159.898 53.8401L170.521 53.8401C171.541 53.8401 172.368 54.6672 172.368 55.6875C172.368 56.7077 171.541 57.5348 170.521 57.5348L159.898 57.5348C158.878 57.5348 158.051 56.7077 158.051 55.6875Z" fill="#0C419A"/>
<path d="M158.051 63.076C158.051 62.3108 158.671 61.6904 159.436 61.6904L170.982 61.6904C171.748 61.6904 172.368 62.3108 172.368 63.076C172.368 63.8412 171.748 64.4615 170.982 64.4615L159.436 64.4615C158.671 64.4615 158.051 63.8412 158.051 63.076Z" fill="#BDCCF8"/>
<path d="M158.051 70.0066C158.051 69.2414 158.671 68.6211 159.436 68.6211L161.746 68.6211C162.511 68.6211 163.131 69.2414 163.131 70.0066C163.131 70.7718 162.511 71.3921 161.746 71.3921L159.436 71.3921C158.671 71.3921 158.051 70.7718 158.051 70.0066Z" fill="#BDCCF8"/>
<path d="M155.278 63.0769C155.278 68.1783 151.143 72.3138 146.042 72.3138C140.94 72.3138 136.805 68.1783 136.805 63.0769C136.805 57.9756 140.94 53.8401 146.042 53.8401C151.143 53.8401 155.278 57.9756 155.278 63.0769Z" fill="#F9FAFF"/>
<path d="M143.074 60.2065C143.074 58.7298 144.302 57.5327 145.817 57.5327C147.331 57.5327 148.559 58.7298 148.559 60.2065C148.559 61.6832 147.331 62.8804 145.817 62.8804C144.302 62.8804 143.074 61.6832 143.074 60.2065ZM145.817 61.8108C146.725 61.8108 147.462 61.0926 147.462 60.2065C147.462 59.3205 146.725 58.6022 145.817 58.6022C144.908 58.6022 144.171 59.3205 144.171 60.2065C144.171 61.0926 144.908 61.8108 145.817 61.8108Z" fill="#0C419A"/>
<path d="M142.714 64.6682C142.025 65.3405 141.588 66.2135 141.465 67.1464C141.425 67.4466 141.675 67.6932 141.978 67.6932C142.28 67.6932 142.521 67.4458 142.574 67.1476C142.689 66.4991 143.006 65.896 143.49 65.4244C144.107 64.8227 144.944 64.4847 145.817 64.4847C146.689 64.4847 147.526 64.8227 148.143 65.4244C148.627 65.896 148.945 66.4991 149.059 67.1476C149.112 67.4458 149.353 67.6932 149.656 67.6932C149.959 67.6932 150.208 67.4466 150.168 67.1464C150.045 66.2135 149.609 65.3405 148.919 64.6682C148.096 63.8659 146.98 63.4151 145.817 63.4151C144.653 63.4151 143.537 63.8659 142.714 64.6682Z" fill="#0C419A"/>
<path d="M136.805 78.7771C136.805 77.7568 137.632 76.9297 138.652 76.9297L140.499 76.9297C141.52 76.9297 142.347 77.7568 142.347 78.7771C142.347 79.7973 141.52 80.6244 140.499 80.6244L138.652 80.6244C137.632 80.6244 136.805 79.7973 136.805 78.7771Z" fill="#0C419A"/>
<path d="M136.805 86.1694C136.805 85.1491 137.632 84.322 138.652 84.322L140.499 84.322C141.52 84.322 142.347 85.1491 142.347 86.1694C142.347 87.1897 141.52 88.0168 140.499 88.0168L138.652 88.0168C137.632 88.0168 136.805 87.1897 136.805 86.1694Z" fill="#0C419A"/>
<path d="M144.662 78.7803C144.662 78.0151 145.282 77.3948 146.048 77.3948L170.987 77.3948C171.752 77.3948 172.373 78.0151 172.373 78.7803C172.373 79.5455 171.752 80.1658 170.987 80.1658L146.048 80.1658C145.282 80.1658 144.662 79.5455 144.662 78.7803Z" fill="#BDCCF8"/>
<path d="M144.662 86.1692C144.662 85.404 145.282 84.7837 146.048 84.7837L157.594 84.7837C158.359 84.7837 158.979 85.404 158.979 86.1692C158.979 86.9344 158.359 87.5547 157.594 87.5547L146.048 87.5547C145.282 87.5547 144.662 86.9344 144.662 86.1692Z" fill="#BDCCF8"/>
<path d="M136.805 93.8077C136.805 93.1595 137.33 92.634 137.978 92.634L171.193 92.634C171.841 92.634 172.367 93.1595 172.367 93.8077L172.367 104.854C172.367 105.502 171.841 106.027 171.193 106.027L137.978 106.027C137.33 106.027 136.805 105.502 136.805 104.854L136.805 93.8077Z" fill="#F9FAFF"/>
<path fill-rule="evenodd" clip-rule="evenodd" d="M155.651 96.3735L153.327 100.955C153.15 101.304 152.792 101.524 152.4 101.524L151.065 101.524L150.317 103.702C150.009 104.599 148.758 104.648 148.381 103.777L146.073 98.4466L144.957 100.913C144.789 101.285 144.418 101.524 144.01 101.524L140.501 101.524C140.182 101.524 139.924 101.265 139.924 100.946C139.924 100.627 140.182 100.369 140.501 100.369L143.936 100.369L145.129 97.733C145.501 96.9114 146.671 96.921 147.029 97.7486L149.322 103.045L150 101.071C150.144 100.651 150.539 100.369 150.983 100.369L152.329 100.369L154.74 95.6172C155.149 94.8109 156.321 94.8754 156.639 95.7216L159.081 102.216L159.65 100.976C159.819 100.606 160.188 100.369 160.594 100.369L162.481 100.369L163.432 98.4951C163.817 97.7364 164.901 97.7364 165.286 98.4951L166.236 100.369L168.673 100.369C168.992 100.369 169.251 100.627 169.251 100.946C169.251 101.265 168.992 101.524 168.673 101.524L166.165 101.524C165.774 101.524 165.416 101.304 165.239 100.955L164.359 99.2205L163.479 100.955C163.302 101.304 162.944 101.524 162.552 101.524L160.669 101.524L160.016 102.949C159.631 103.789 158.423 103.747 158.098 102.882L155.651 96.3735Z" fill="#0C419A"/>
<path fill-rule="evenodd" clip-rule="evenodd" d="M149.66 42.496C149.164 41.6096 148.882 40.5878 148.882 39.5001C148.882 36.1052 151.634 33.353 155.029 33.353C158.424 33.353 161.176 36.1052 161.176 39.5001C161.176 40.5878 160.894 41.6096 160.398 42.496H168.636C169.606 42.496 170.392 43.282 170.392 44.2517L170.392 48.6431L139.656 48.6431V44.2517C139.656 43.282 140.442 42.496 141.412 42.496H149.66ZM152.708 42.496C151.835 41.7918 151.275 40.7126 151.275 39.5029C151.275 37.3811 152.995 35.661 155.117 35.661C157.239 35.661 158.959 37.3811 158.959 39.5029C158.959 40.7126 158.4 41.7918 157.526 42.496H152.708Z" fill="#F0B323"/>
</g>
<defs>
<filter id="filter0_d_37725_205655" x="124.545" y="47.9967" width="60.9537" height="78.028" filterUnits="userSpaceOnUse" color-interpolation-filters="sRGB">
<feFlood flood-opacity="0" result="BackgroundImageFix"/>
<feColorMatrix in="SourceAlpha" type="matrix" values="0 0 0 0 0 0 0 0 0 0 0 0 0 0 0 0 0 0 127 0" result="hardAlpha"/>
<feOffset dy="2.43179"/>
<feGaussianBlur stdDeviation="2.43179"/>
<feColorMatrix type="matrix" values="0 0 0 0 0.0470588 0 0 0 0 0.254902 0 0 0 0 0.603922 0 0 0 0.1 0"/>
<feBlend mode="normal" in2="BackgroundImageFix" result="effect1_dropShadow_37725_205655"/>
<feBlend mode="normal" in="SourceGraphic" in2="effect1_dropShadow_37725_205655" result="shape"/>
</filter>
<filter id="filter1_d_37725_205655" x="125.679" y="45.7196" width="58.6764" height="78.028" filterUnits="userSpaceOnUse" color-interpolation-filters="sRGB">
<feFlood flood-opacity="0" result="BackgroundImageFix"/>
<feColorMatrix in="SourceAlpha" type="matrix" values="0 0 0 0 0 0 0 0 0 0 0 0 0 0 0 0 0 0 127 0" result="hardAlpha"/>
<feOffset dy="2.43179"/>
<feGaussianBlur stdDeviation="2.43179"/>
<feColorMatrix type="matrix" values="0 0 0 0 0.0470588 0 0 0 0 0.254902 0 0 0 0 0.603922 0 0 0 0.1 0"/>
<feBlend mode="normal" in2="BackgroundImageFix" result="effect1_dropShadow_37725_205655"/>
<feBlend mode="normal" in="SourceGraphic" in2="effect1_dropShadow_37725_205655" result="shape"/>
</filter>
<filter id="filter2_d_37725_205655" x="126.732" y="43.4422" width="56.5612" height="78.028" filterUnits="userSpaceOnUse" color-interpolation-filters="sRGB">
<feFlood flood-opacity="0" result="BackgroundImageFix"/>
<feColorMatrix in="SourceAlpha" type="matrix" values="0 0 0 0 0 0 0 0 0 0 0 0 0 0 0 0 0 0 127 0" result="hardAlpha"/>
<feOffset dy="2.43179"/>
<feGaussianBlur stdDeviation="2.43179"/>
<feColorMatrix type="matrix" values="0 0 0 0 0.0470588 0 0 0 0 0.254902 0 0 0 0 0.603922 0 0 0 0.1 0"/>
<feBlend mode="normal" in2="BackgroundImageFix" result="effect1_dropShadow_37725_205655"/>
<feBlend mode="normal" in="SourceGraphic" in2="effect1_dropShadow_37725_205655" result="shape"/>
</filter>
</defs>
</svg>
