<svg width="56" height="56" viewBox="0 0 56 56" fill="none" xmlns="http://www.w3.org/2000/svg">
<path fill-rule="evenodd" clip-rule="evenodd" d="M5.63807 25.3044C4.20356 18.8241 0.501311 11.264 5.00984 6.39127C9.6764 1.34775 18.1543 2.34955 24.5567 4.85762C29.7552 6.89409 31.9208 12.5129 33.926 17.7189C35.5386 21.9056 35.9235 26.2684 34.433 30.4991C32.7756 35.2032 30.3106 40.1879 25.518 41.5841C20.6603 42.9993 15.7199 40.2965 11.8057 37.0912C8.19468 34.1341 6.64616 29.8584 5.63807 25.3044Z" fill="#A0B2EC" fill-opacity="0.16"/>
<path d="M53.0525 25.5487C53.706 30.8354 52.8389 36.5218 50.7498 41.3753C46.6455 50.909 34.5234 55.5521 24.2144 52.0436C19.3642 50.3927 15.206 46.468 14.4572 41.5385C13.9027 37.8905 15.7368 34.6251 18.5783 32.3384C20.975 30.4099 23.9517 29.3191 26.4919 27.5934C30.3758 24.9552 32.3029 20.9552 35.5255 17.7705C37.2921 16.0245 39.8713 14.4178 42.54 14.4123C45.0734 14.4069 47.5848 15.5776 49.3369 17.3233C51.5484 19.5266 52.6807 22.5401 53.0525 25.5487Z" fill="#A0B2EC" fill-opacity="0.16"/>
<g filter="url(#filter0_d_1438_38526)">
<path d="M14.5469 10.7872C14.5469 9.55205 15.5481 8.55078 16.7833 8.55078H36.0572V11.8928C36.0572 13.1279 37.0584 14.1292 38.2936 14.1292H41.6356V45.4516C41.6356 46.6867 40.6343 47.688 39.3991 47.688H16.7833C15.5481 47.688 14.5469 46.6867 14.5469 45.4516V10.7872Z" fill="white"/>
</g>
<path d="M37.2981 14.1292H41.635L36.0566 8.55078V12.8877C36.0566 13.5734 36.6124 14.1292 37.2981 14.1292Z" fill="#BDCCF8"/>
<path d="M17.3359 23.5324C17.3359 23.0897 17.5149 22.6657 17.8322 22.3568L21.5646 18.7234C22.2015 18.1034 23.2164 18.1034 23.8534 18.7234L28.082 22.8399L29.5114 24.1765C30.142 24.7663 31.1219 24.7663 31.7525 24.1765L33.1819 22.8399L33.6655 22.3518C34.2934 21.7181 35.3124 21.7022 35.9597 22.3159L36.5124 22.8399L38.3644 24.747C38.6618 25.0531 38.8281 25.4632 38.8281 25.89V31.8281C38.8281 32.7342 38.0936 33.4688 37.1875 33.4688H18.9766C18.0705 33.4688 17.3359 32.7342 17.3359 31.8281L17.3359 23.5324Z" fill="#0C419A"/>
<rect x="17.4908" y="36.4674" width="3.03824" height="1.92225" rx="0.961123" fill="#0C419A" stroke="#0C419A" stroke-width="0.309743"/>
<rect x="17.4908" y="41.4889" width="3.03824" height="1.92225" rx="0.961123" fill="#0C419A" stroke="#0C419A" stroke-width="0.309743"/>
<rect x="22.0791" y="36.5918" width="16.7399" height="1.67399" rx="0.836995" fill="#BDCCF8"/>
<rect x="22.0791" y="41.6133" width="8.64895" height="1.67399" rx="0.836995" fill="#BDCCF8"/>
<ellipse cx="30.7344" cy="15.5039" rx="2.95312" ry="2.98047" fill="#0C419A"/>
<defs>
<filter id="filter0_d_1438_38526" x="10.3651" y="6.45987" width="35.4525" height="47.5003" filterUnits="userSpaceOnUse" color-interpolation-filters="sRGB">
<feFlood flood-opacity="0" result="BackgroundImageFix"/>
<feColorMatrix in="SourceAlpha" type="matrix" values="0 0 0 0 0 0 0 0 0 0 0 0 0 0 0 0 0 0 127 0" result="hardAlpha"/>
<feOffset dy="2.09091"/>
<feGaussianBlur stdDeviation="2.09091"/>
<feColorMatrix type="matrix" values="0 0 0 0 0.0470588 0 0 0 0 0.254902 0 0 0 0 0.603922 0 0 0 0.1 0"/>
<feBlend mode="normal" in2="BackgroundImageFix" result="effect1_dropShadow_1438_38526"/>
<feBlend mode="normal" in="SourceGraphic" in2="effect1_dropShadow_1438_38526" result="shape"/>
</filter>
</defs>
</svg>
