<svg width="200" height="200" viewBox="0 0 200 200" fill="none" xmlns="http://www.w3.org/2000/svg">
<path d="M180.867 123.804C172.037 143.823 157.25 162.236 140.086 175.274C106.367 200.883 55.8475 193.253 28.4441 160.359C15.5518 144.883 9.73498 122.728 17.4991 103.786C23.2435 89.7674 36.2352 81.8465 50.5779 79.3918C62.6751 77.322 74.9778 79.3702 87.1353 78.3037C105.722 76.6742 120.56 66.3367 138.061 61.4588C147.655 58.7842 159.695 58.2163 168.696 63.4961C177.24 68.5073 183.257 77.6399 185.516 87.3006C188.367 99.4936 185.893 112.413 180.867 123.804Z" fill="#A0B2EC" fill-opacity="0.16"/>
<path fill-rule="evenodd" clip-rule="evenodd" d="M129.134 89.6311C128.243 114.959 134.669 146.43 113.437 160.181C91.4613 174.415 61.2157 162.677 40.0423 147.335C22.8502 134.877 20.2307 112.043 17.8085 90.888C15.8605 73.8745 18.5985 57.3728 28.1121 43.1369C38.6906 27.3077 52.5085 11.2061 71.4757 10.5822C90.6997 9.94986 106.308 24.6275 117.66 40.1913C128.133 54.5501 129.761 71.8321 129.134 89.6311Z" fill="#A0B2EC" fill-opacity="0.16"/>
<path d="M52 39.6137C52 34.3042 56.3042 30 61.6137 30H139.077C144.387 30 148.691 34.3042 148.691 39.6137V160.386C148.691 165.696 144.387 170 139.077 170H61.6137C56.3042 170 52 165.696 52 160.386V39.6137Z" fill="#0C419A"/>
<path fill-rule="evenodd" clip-rule="evenodd" d="M64.488 32.7051C59.7351 33.222 56.0843 37.1529 55.9194 41.931L52.6055 137.971V40.2153C52.6055 34.9058 56.9097 30.6016 62.2192 30.6016H83.8314L64.488 32.7051ZM107.924 169.4L60.7279 164.986C56.9429 164.632 53.8539 162.121 52.6055 158.753V159.786C52.6055 165.096 56.9097 169.4 62.2192 169.4H107.924Z" fill="#E7ECFA" fill-opacity="0.1"/>
<g filter="url(#filter0_i_3194_67187)">
<path d="M61.2754 42.8665C61.1307 40.7822 62.7825 39.0117 64.8719 39.0117H135.818C137.907 39.0117 139.559 40.7822 139.414 42.8665L136.912 78.918C136.781 80.8076 135.21 82.2735 133.316 82.2735H67.3742C65.48 82.2735 63.9089 80.8076 63.7777 78.918L61.2754 42.8665Z" fill="#E7ECFA"/>
</g>
<path d="M61.2754 42.8665C61.1307 40.7822 62.7825 39.0117 64.8719 39.0117H135.818C137.907 39.0117 139.559 40.7822 139.414 42.8665L136.912 78.918C136.781 80.8076 135.21 82.2735 133.316 82.2735H67.3742C65.48 82.2735 63.9089 80.8076 63.7777 78.918L61.2754 42.8665Z" stroke="white" stroke-opacity="0.1" stroke-width="0.901287" stroke-miterlimit="10" stroke-linecap="round" stroke-linejoin="round"/>
<g filter="url(#filter1_d_3194_67187)">
<path d="M63.4141 94.1923C63.4141 92.4293 64.8433 91 66.6064 91H79.8983C81.6614 91 83.0906 92.4293 83.0906 94.1923V107.494C83.0906 109.257 81.6614 110.686 79.8983 110.686H66.6064C64.8433 110.686 63.4141 109.257 63.4141 107.494V94.1923Z" fill="#BDCCF8"/>
</g>
<g filter="url(#filter2_d_3194_67187)">
<path d="M117.465 94.1923C117.465 92.4293 118.894 91 120.657 91H133.949C135.712 91 137.141 92.4293 137.141 94.1923V107.494C137.141 109.257 135.712 110.686 133.949 110.686H120.657C118.894 110.686 117.465 109.257 117.465 107.494V94.1923Z" fill="#BDCCF8"/>
</g>
<g filter="url(#filter3_d_3194_67187)">
<path d="M90.2461 94.1923C90.2461 92.4293 91.6754 91 93.4384 91H107.262C109.025 91 110.454 92.4293 110.454 94.1923V107.494C110.454 109.257 109.025 110.686 107.262 110.686H93.4384C91.6754 110.686 90.2461 109.257 90.2461 107.494V94.1923Z" fill="#BDCCF8"/>
</g>
<g filter="url(#filter4_d_3194_67187)">
<path d="M63.4141 119.2C63.4141 117.437 64.8433 116.008 66.6064 116.008H79.8983C81.6614 116.008 83.0906 117.437 83.0906 119.2V132.502C83.0906 134.265 81.6614 135.694 79.8983 135.694H66.6064C64.8433 135.694 63.4141 134.265 63.4141 132.502V119.2Z" fill="#BDCCF8"/>
</g>
<g filter="url(#filter5_d_3194_67187)">
<path d="M117.465 119.2C117.465 117.437 118.894 116.008 120.657 116.008H133.949C135.712 116.008 137.141 117.437 137.141 119.2V132.502C137.141 134.265 135.712 135.694 133.949 135.694H120.657C118.894 135.694 117.465 134.265 117.465 132.502V119.2Z" fill="#BDCCF8"/>
</g>
<g filter="url(#filter6_d_3194_67187)">
<path d="M90.2461 119.2C90.2461 117.437 91.6754 116.008 93.4384 116.008H107.262C109.025 116.008 110.454 117.437 110.454 119.2V132.502C110.454 134.265 109.025 135.694 107.262 135.694H93.4384C91.6754 135.694 90.2461 134.265 90.2461 132.502V119.2Z" fill="#BDCCF8"/>
</g>
<g filter="url(#filter7_d_3194_67187)">
<path d="M63.4141 144.204C63.4141 142.441 64.8433 141.012 66.6064 141.012H79.8983C81.6614 141.012 83.0906 142.441 83.0906 144.204V157.506C83.0906 159.269 81.6614 160.698 79.8983 160.698H66.6064C64.8433 160.698 63.4141 159.269 63.4141 157.506V144.204Z" fill="#BDCCF8"/>
</g>
<g filter="url(#filter8_d_3194_67187)">
<path d="M117 144.192C117 142.429 118.429 141 120.192 141H133.484C135.247 141 136.677 142.429 136.677 144.192V157.494C136.677 159.257 135.247 160.686 133.484 160.686H120.192C118.429 160.686 117 159.257 117 157.494V144.192Z" fill="#BDCCF8"/>
</g>
<g filter="url(#filter9_d_3194_67187)">
<path d="M90.2461 144.204C90.2461 142.441 91.6754 141.012 93.4384 141.012H107.262C109.025 141.012 110.454 142.441 110.454 144.204V157.506C110.454 159.269 109.025 160.698 107.262 160.698H93.4384C91.6754 160.698 90.2461 159.269 90.2461 157.506V144.204Z" fill="#BDCCF8"/>
</g>
<path d="M85.0202 50.5808H85.6187C86.1781 50.5808 86.5966 50.4712 86.8744 50.2522C87.1521 50.0292 87.291 49.7065 87.291 49.284C87.291 48.8576 87.1736 48.5427 86.9389 48.3393C86.7081 48.1359 86.3443 48.0342 85.8475 48.0342H85.0202V50.5808ZM89.1276 49.2195C89.1276 50.1426 88.8381 50.8487 88.2592 51.3377C87.6841 51.8267 86.8646 52.0712 85.8006 52.0712H85.0202V55.1224H83.2012V46.5438H85.9414C86.982 46.5438 87.7722 46.7687 88.312 47.2185C88.8557 47.6645 89.1276 48.3315 89.1276 49.2195Z" fill="#495574"/>
<path d="M92.0321 51.8306C92.0321 52.48 92.1378 52.9709 92.349 53.3034C92.5642 53.6359 92.9123 53.8022 93.3935 53.8022C93.8707 53.8022 94.213 53.6379 94.4203 53.3093C94.6316 52.9768 94.7372 52.4839 94.7372 51.8306C94.7372 51.1812 94.6316 50.6942 94.4203 50.3695C94.2091 50.0449 93.8629 49.8825 93.3817 49.8825C92.9045 49.8825 92.5602 50.0449 92.349 50.3695C92.1378 50.6903 92.0321 51.1773 92.0321 51.8306ZM96.5679 51.8306C96.5679 52.8985 96.2863 53.7337 95.723 54.3361C95.1597 54.9386 94.3753 55.2398 93.37 55.2398C92.7402 55.2398 92.1847 55.1029 91.7036 54.829C91.2224 54.5513 90.8527 54.1542 90.5945 53.6379C90.3364 53.1215 90.2073 52.5191 90.2073 51.8306C90.2073 50.7588 90.487 49.9255 91.0464 49.3309C91.6058 48.7363 92.392 48.439 93.4052 48.439C94.035 48.439 94.5905 48.576 95.0716 48.8498C95.5528 49.1236 95.9225 49.5168 96.1806 50.0292C96.4388 50.5417 96.5679 51.1421 96.5679 51.8306Z" fill="#495574"/>
<path d="M97.9703 46.8665C97.9703 46.2836 98.295 45.9922 98.9444 45.9922C99.5937 45.9922 99.9184 46.2836 99.9184 46.8665C99.9184 47.1442 99.8363 47.3613 99.672 47.5178C99.5116 47.6704 99.269 47.7466 98.9444 47.7466C98.295 47.7466 97.9703 47.4533 97.9703 46.8665ZM99.8363 55.1224H98.0466V48.5623H99.8363V55.1224Z" fill="#495574"/>
<path d="M103.797 55.2398C103.026 55.2398 102.42 54.9405 101.978 54.342C101.54 53.7435 101.321 52.9142 101.321 51.8541C101.321 50.7783 101.544 49.9412 101.99 49.3427C102.44 48.7403 103.058 48.439 103.844 48.439C104.669 48.439 105.299 48.7598 105.733 49.4014H105.792C105.702 48.9124 105.657 48.4762 105.657 48.0928V45.9922H107.453V55.1224H106.08L105.733 54.2716H105.657C105.25 54.917 104.63 55.2398 103.797 55.2398ZM104.425 53.8139C104.883 53.8139 105.217 53.6809 105.428 53.4149C105.643 53.1489 105.761 52.6971 105.78 52.0594V51.8658C105.78 51.1617 105.671 50.6571 105.452 50.3519C105.237 50.0468 104.884 49.8942 104.396 49.8942C103.997 49.8942 103.686 50.0644 103.463 50.4047C103.243 50.7412 103.134 51.2321 103.134 51.8775C103.134 52.523 103.245 53.0081 103.468 53.3328C103.691 53.6535 104.01 53.8139 104.425 53.8139Z" fill="#495574"/>
<path d="M113.901 53.1743C113.901 53.8472 113.667 54.3596 113.197 54.7117C112.732 55.0637 112.033 55.2398 111.102 55.2398C110.625 55.2398 110.218 55.2065 109.882 55.14C109.545 55.0774 109.231 54.9835 108.937 54.8584V53.3797C109.27 53.5362 109.643 53.6672 110.058 53.7728C110.476 53.8785 110.844 53.9313 111.161 53.9313C111.81 53.9313 112.135 53.7435 112.135 53.368C112.135 53.2271 112.092 53.1137 112.006 53.0276C111.92 52.9377 111.771 52.8379 111.56 52.7284C111.349 52.6149 111.067 52.4839 110.715 52.3352C110.21 52.124 109.839 51.9284 109.6 51.7485C109.366 51.5685 109.193 51.3631 109.084 51.1323C108.978 50.8976 108.925 50.6101 108.925 50.2698C108.925 49.6869 109.15 49.2371 109.6 48.9202C110.054 48.5994 110.696 48.439 111.525 48.439C112.315 48.439 113.084 48.6112 113.831 48.9554L113.291 50.2463C112.962 50.1055 112.655 49.9901 112.37 49.9001C112.084 49.8101 111.793 49.7652 111.495 49.7652C110.967 49.7652 110.703 49.9079 110.703 50.1935C110.703 50.3539 110.787 50.4928 110.956 50.6101C111.128 50.7275 111.501 50.9015 112.076 51.1323C112.589 51.3397 112.964 51.5333 113.203 51.7133C113.442 51.8932 113.618 52.1005 113.731 52.3352C113.845 52.5699 113.901 52.8496 113.901 53.1743Z" fill="#495574"/>
<path d="M117.397 53.8766L117.67 53.5275L118.313 52.8292H119.019L118.107 53.8253L119.075 55.1253H118.352L117.69 54.1949L117.421 54.4106V55.1253H116.795V51.9297H117.421V53.355L117.388 53.8766H117.397Z" fill="#495574"/>
<path d="M121.401 52.8292V53.1475L121.042 53.24C121.108 53.3426 121.141 53.4577 121.141 53.585C121.141 53.8314 121.054 54.0238 120.882 54.1621C120.711 54.299 120.472 54.3674 120.167 54.3674L120.054 54.3613L119.962 54.351C119.897 54.4003 119.865 54.4551 119.865 54.5153C119.865 54.6057 119.98 54.6509 120.21 54.6509H120.6C120.852 54.6509 121.044 54.7049 121.175 54.8131C121.308 54.9213 121.375 55.0801 121.375 55.2896C121.375 55.5579 121.262 55.766 121.038 55.9139C120.815 56.0618 120.494 56.1357 120.075 56.1357C119.754 56.1357 119.509 56.0796 119.339 55.9673C119.171 55.8564 119.087 55.7003 119.087 55.499C119.087 55.3608 119.13 55.2451 119.216 55.152C119.303 55.0589 119.429 54.9925 119.596 54.9528C119.532 54.9254 119.476 54.8809 119.428 54.8193C119.38 54.7563 119.356 54.6899 119.356 54.6201C119.356 54.5324 119.381 54.4599 119.432 54.4024C119.483 54.3435 119.556 54.286 119.652 54.2298C119.531 54.1778 119.435 54.0943 119.364 53.9793C119.294 53.8643 119.259 53.7287 119.259 53.5727C119.259 53.3221 119.341 53.1284 119.504 52.9915C119.667 52.8545 119.899 52.7861 120.202 52.7861C120.266 52.7861 120.342 52.7922 120.43 52.8046C120.519 52.8155 120.576 52.8237 120.6 52.8292H121.401ZM119.629 55.4498C119.629 55.536 119.67 55.6038 119.752 55.6531C119.836 55.7024 119.952 55.727 120.101 55.727C120.326 55.727 120.502 55.6962 120.629 55.6346C120.757 55.573 120.82 55.4888 120.82 55.382C120.82 55.2957 120.783 55.2362 120.707 55.2033C120.632 55.1704 120.516 55.154 120.358 55.154H120.034C119.919 55.154 119.822 55.1807 119.744 55.2341C119.667 55.2889 119.629 55.3608 119.629 55.4498ZM119.857 53.5809C119.857 53.7055 119.885 53.804 119.941 53.8766C119.999 53.9492 120.086 53.9855 120.202 53.9855C120.32 53.9855 120.406 53.9492 120.461 53.8766C120.516 53.804 120.543 53.7055 120.543 53.5809C120.543 53.3043 120.429 53.166 120.202 53.166C119.972 53.166 119.857 53.3043 119.857 53.5809Z" fill="#495574"/>
<path d="M119.316 72.6172C119.576 72.6172 119.772 72.6843 119.905 72.8185C120.039 72.9513 120.106 73.1648 120.106 73.4592V74.9564H119.478V73.6153C119.478 73.451 119.45 73.3271 119.394 73.2436C119.338 73.1601 119.251 73.1183 119.133 73.1183C118.967 73.1183 118.849 73.1779 118.78 73.297C118.71 73.4147 118.675 73.5838 118.675 73.8042V74.9564H118.049V73.6153C118.049 73.5058 118.036 73.414 118.012 73.3401C117.987 73.2662 117.949 73.2107 117.899 73.1737C117.848 73.1368 117.783 73.1183 117.704 73.1183C117.587 73.1183 117.495 73.1477 117.428 73.2066C117.363 73.2641 117.315 73.3497 117.287 73.4633C117.259 73.5756 117.246 73.7132 117.246 73.8761V74.9564H116.619V72.6603H117.098L117.182 72.954H117.217C117.263 72.8746 117.322 72.8102 117.391 72.7609C117.463 72.7117 117.541 72.6754 117.625 72.6521C117.71 72.6288 117.797 72.6172 117.884 72.6172C118.053 72.6172 118.195 72.6446 118.311 72.6993C118.429 72.7541 118.52 72.839 118.582 72.954H118.638C118.706 72.8363 118.803 72.7507 118.928 72.6973C119.053 72.6439 119.183 72.6172 119.316 72.6172Z" fill="#495574"/>
<path d="M86.4571 74.9505H84.6381V67.8858H82.3086V66.3719H88.7866V67.8858H86.4571V74.9505Z" fill="#495574"/>
<path d="M92.6535 68.2554C93.5336 68.2554 94.2084 68.4471 94.6778 68.8305C95.1472 69.2138 95.382 69.7967 95.382 70.5791V74.9505H94.1321L93.7859 74.0586H93.739C93.5512 74.2934 93.3595 74.485 93.1639 74.6337C92.9684 74.7823 92.7434 74.8919 92.4892 74.9623C92.2349 75.0327 91.9258 75.0679 91.562 75.0679C91.1748 75.0679 90.8266 74.9936 90.5176 74.8449C90.2125 74.6963 89.9719 74.4694 89.7959 74.1643C89.6198 73.8552 89.5318 73.464 89.5318 72.9907C89.5318 72.2944 89.7763 71.782 90.2653 71.4534C90.7543 71.1209 91.4877 70.937 92.4657 70.9018L93.604 70.8666V70.5791C93.604 70.2348 93.5141 69.9825 93.3341 69.8221C93.1542 69.6617 92.9038 69.5815 92.583 69.5815C92.2662 69.5815 91.9552 69.6265 91.6501 69.7165C91.3449 69.8065 91.0398 69.9199 90.7347 70.0568L90.142 68.8481C90.4902 68.6642 90.8794 68.5195 91.3097 68.4139C91.7439 68.3082 92.1919 68.2554 92.6535 68.2554ZM93.604 71.911L92.9116 71.9345C92.3327 71.9502 91.9298 72.0538 91.7029 72.2455C91.4799 72.4372 91.3684 72.6895 91.3684 73.0024C91.3684 73.2763 91.4486 73.4719 91.609 73.5892C91.7694 73.7027 91.9787 73.7594 92.2368 73.7594C92.6202 73.7594 92.9429 73.6459 93.205 73.4191C93.471 73.1922 93.604 72.8694 93.604 72.4509V71.911Z" fill="#495574"/>
<path d="M99.02 68.3904V74.9505H97.2303V68.3904H99.02ZM98.1281 65.8203C98.3941 65.8203 98.6229 65.8829 98.8146 66.0081C99.0063 66.1293 99.1021 66.3582 99.1021 66.6946C99.1021 67.0271 99.0063 67.2579 98.8146 67.387C98.6229 67.5122 98.3941 67.5748 98.1281 67.5748C97.8581 67.5748 97.6274 67.5122 97.4357 67.387C97.2479 67.2579 97.154 67.0271 97.154 66.6946C97.154 66.3582 97.2479 66.1293 97.4357 66.0081C97.6274 65.8829 97.8581 65.8203 98.1281 65.8203Z" fill="#495574"/>
<path d="M102.693 74.9505H100.904V65.8203H102.693V74.9505Z" fill="#495574"/>
<path d="M106.366 74.9505H104.577V65.8203H106.366V74.9505Z" fill="#495574"/>
<path d="M110.955 68.2672C111.561 68.2672 112.084 68.3845 112.522 68.6192C112.96 68.85 113.298 69.1864 113.537 69.6285C113.775 70.0705 113.895 70.6104 113.895 71.248V72.1164H109.664C109.684 72.621 109.834 73.0181 110.116 73.3076C110.401 73.5931 110.797 73.7359 111.301 73.7359C111.72 73.7359 112.103 73.6929 112.451 73.6068C112.799 73.5208 113.157 73.3917 113.525 73.2196V74.6043C113.2 74.7647 112.86 74.8821 112.504 74.9564C112.152 75.0307 111.724 75.0679 111.219 75.0679C110.562 75.0679 109.979 74.9466 109.47 74.7041C108.966 74.4616 108.569 74.0919 108.279 73.5951C107.994 73.0983 107.851 72.4724 107.851 71.7174C107.851 70.9507 107.98 70.3131 108.238 69.8045C108.5 69.2921 108.864 68.9087 109.33 68.6544C109.795 68.3963 110.337 68.2672 110.955 68.2672ZM110.967 69.5405C110.619 69.5405 110.329 69.652 110.098 69.8749C109.871 70.0979 109.74 70.448 109.705 70.9253H112.217C112.213 70.6593 112.164 70.4226 112.07 70.2153C111.98 70.0079 111.843 69.8436 111.659 69.7224C111.479 69.6011 111.248 69.5405 110.967 69.5405Z" fill="#495574"/>
<path d="M123.938 68.9486H120.939V68.3178L122.016 67.2293C122.335 66.9027 122.543 66.6768 122.641 66.5516C122.739 66.4245 122.809 66.3071 122.852 66.1996C122.895 66.092 122.917 65.9805 122.917 65.8651C122.917 65.693 122.869 65.5649 122.773 65.4808C122.679 65.3966 122.553 65.3546 122.395 65.3546C122.228 65.3546 122.067 65.3927 121.911 65.469C121.754 65.5453 121.591 65.6539 121.421 65.7947L120.928 65.2108C121.139 65.0309 121.314 64.9038 121.453 64.8294C121.592 64.7551 121.743 64.6984 121.908 64.6593C122.072 64.6182 122.256 64.5977 122.459 64.5977C122.727 64.5977 122.964 64.6466 123.169 64.7444C123.375 64.8421 123.534 64.9791 123.647 65.1551C123.761 65.3311 123.818 65.5326 123.818 65.7595C123.818 65.957 123.782 66.1428 123.712 66.3169C123.644 66.489 123.536 66.666 123.389 66.8479C123.245 67.0298 122.988 67.289 122.621 67.6254L122.069 68.1447V68.1858H123.938V68.9486Z" fill="#495574"/>
<rect x="87.1309" y="60.3477" width="27.9264" height="0.600862" rx="0.300431" fill="#495574"/>
<defs>
<filter id="filter0_i_3194_67187" x="60.8164" y="38.5625" width="79.0566" height="44.1602" filterUnits="userSpaceOnUse" color-interpolation-filters="sRGB">
<feFlood flood-opacity="0" result="BackgroundImageFix"/>
<feBlend mode="normal" in="SourceGraphic" in2="BackgroundImageFix" result="shape"/>
<feColorMatrix in="SourceAlpha" type="matrix" values="0 0 0 0 0 0 0 0 0 0 0 0 0 0 0 0 0 0 127 0" result="hardAlpha"/>
<feOffset dy="2.40343"/>
<feComposite in2="hardAlpha" operator="arithmetic" k2="-1" k3="1"/>
<feColorMatrix type="matrix" values="0 0 0 0 0 0 0 0 0 0 0 0 0 0 0 0 0 0 0.25 0"/>
<feBlend mode="normal" in2="shape" result="effect1_innerShadow_3194_67187"/>
</filter>
<filter id="filter1_d_3194_67187" x="63.4141" y="91" width="19.6758" height="20.7516" filterUnits="userSpaceOnUse" color-interpolation-filters="sRGB">
<feFlood flood-opacity="0" result="BackgroundImageFix"/>
<feColorMatrix in="SourceAlpha" type="matrix" values="0 0 0 0 0 0 0 0 0 0 0 0 0 0 0 0 0 0 127 0" result="hardAlpha"/>
<feOffset dy="1.06412"/>
<feColorMatrix type="matrix" values="0 0 0 0 0 0 0 0 0 0 0 0 0 0 0 0 0 0 0.25 0"/>
<feBlend mode="normal" in2="BackgroundImageFix" result="effect1_dropShadow_3194_67187"/>
<feBlend mode="normal" in="SourceGraphic" in2="effect1_dropShadow_3194_67187" result="shape"/>
</filter>
<filter id="filter2_d_3194_67187" x="117.465" y="91" width="19.6758" height="20.7516" filterUnits="userSpaceOnUse" color-interpolation-filters="sRGB">
<feFlood flood-opacity="0" result="BackgroundImageFix"/>
<feColorMatrix in="SourceAlpha" type="matrix" values="0 0 0 0 0 0 0 0 0 0 0 0 0 0 0 0 0 0 127 0" result="hardAlpha"/>
<feOffset dy="1.06412"/>
<feColorMatrix type="matrix" values="0 0 0 0 0 0 0 0 0 0 0 0 0 0 0 0 0 0 0.25 0"/>
<feBlend mode="normal" in2="BackgroundImageFix" result="effect1_dropShadow_3194_67187"/>
<feBlend mode="normal" in="SourceGraphic" in2="effect1_dropShadow_3194_67187" result="shape"/>
</filter>
<filter id="filter3_d_3194_67187" x="90.2461" y="91" width="20.209" height="20.7516" filterUnits="userSpaceOnUse" color-interpolation-filters="sRGB">
<feFlood flood-opacity="0" result="BackgroundImageFix"/>
<feColorMatrix in="SourceAlpha" type="matrix" values="0 0 0 0 0 0 0 0 0 0 0 0 0 0 0 0 0 0 127 0" result="hardAlpha"/>
<feOffset dy="1.06412"/>
<feColorMatrix type="matrix" values="0 0 0 0 0 0 0 0 0 0 0 0 0 0 0 0 0 0 0.25 0"/>
<feBlend mode="normal" in2="BackgroundImageFix" result="effect1_dropShadow_3194_67187"/>
<feBlend mode="normal" in="SourceGraphic" in2="effect1_dropShadow_3194_67187" result="shape"/>
</filter>
<filter id="filter4_d_3194_67187" x="63.4141" y="116.008" width="19.6758" height="20.7516" filterUnits="userSpaceOnUse" color-interpolation-filters="sRGB">
<feFlood flood-opacity="0" result="BackgroundImageFix"/>
<feColorMatrix in="SourceAlpha" type="matrix" values="0 0 0 0 0 0 0 0 0 0 0 0 0 0 0 0 0 0 127 0" result="hardAlpha"/>
<feOffset dy="1.06412"/>
<feColorMatrix type="matrix" values="0 0 0 0 0 0 0 0 0 0 0 0 0 0 0 0 0 0 0.25 0"/>
<feBlend mode="normal" in2="BackgroundImageFix" result="effect1_dropShadow_3194_67187"/>
<feBlend mode="normal" in="SourceGraphic" in2="effect1_dropShadow_3194_67187" result="shape"/>
</filter>
<filter id="filter5_d_3194_67187" x="117.465" y="116.008" width="19.6758" height="20.7516" filterUnits="userSpaceOnUse" color-interpolation-filters="sRGB">
<feFlood flood-opacity="0" result="BackgroundImageFix"/>
<feColorMatrix in="SourceAlpha" type="matrix" values="0 0 0 0 0 0 0 0 0 0 0 0 0 0 0 0 0 0 127 0" result="hardAlpha"/>
<feOffset dy="1.06412"/>
<feColorMatrix type="matrix" values="0 0 0 0 0 0 0 0 0 0 0 0 0 0 0 0 0 0 0.25 0"/>
<feBlend mode="normal" in2="BackgroundImageFix" result="effect1_dropShadow_3194_67187"/>
<feBlend mode="normal" in="SourceGraphic" in2="effect1_dropShadow_3194_67187" result="shape"/>
</filter>
<filter id="filter6_d_3194_67187" x="90.2461" y="116.008" width="20.209" height="20.7516" filterUnits="userSpaceOnUse" color-interpolation-filters="sRGB">
<feFlood flood-opacity="0" result="BackgroundImageFix"/>
<feColorMatrix in="SourceAlpha" type="matrix" values="0 0 0 0 0 0 0 0 0 0 0 0 0 0 0 0 0 0 127 0" result="hardAlpha"/>
<feOffset dy="1.06412"/>
<feColorMatrix type="matrix" values="0 0 0 0 0 0 0 0 0 0 0 0 0 0 0 0 0 0 0.25 0"/>
<feBlend mode="normal" in2="BackgroundImageFix" result="effect1_dropShadow_3194_67187"/>
<feBlend mode="normal" in="SourceGraphic" in2="effect1_dropShadow_3194_67187" result="shape"/>
</filter>
<filter id="filter7_d_3194_67187" x="63.4141" y="141.012" width="19.6758" height="20.7516" filterUnits="userSpaceOnUse" color-interpolation-filters="sRGB">
<feFlood flood-opacity="0" result="BackgroundImageFix"/>
<feColorMatrix in="SourceAlpha" type="matrix" values="0 0 0 0 0 0 0 0 0 0 0 0 0 0 0 0 0 0 127 0" result="hardAlpha"/>
<feOffset dy="1.06412"/>
<feColorMatrix type="matrix" values="0 0 0 0 0 0 0 0 0 0 0 0 0 0 0 0 0 0 0.25 0"/>
<feBlend mode="normal" in2="BackgroundImageFix" result="effect1_dropShadow_3194_67187"/>
<feBlend mode="normal" in="SourceGraphic" in2="effect1_dropShadow_3194_67187" result="shape"/>
</filter>
<filter id="filter8_d_3194_67187" x="117" y="141" width="19.6758" height="20.7516" filterUnits="userSpaceOnUse" color-interpolation-filters="sRGB">
<feFlood flood-opacity="0" result="BackgroundImageFix"/>
<feColorMatrix in="SourceAlpha" type="matrix" values="0 0 0 0 0 0 0 0 0 0 0 0 0 0 0 0 0 0 127 0" result="hardAlpha"/>
<feOffset dy="1.06412"/>
<feColorMatrix type="matrix" values="0 0 0 0 0 0 0 0 0 0 0 0 0 0 0 0 0 0 0.25 0"/>
<feBlend mode="normal" in2="BackgroundImageFix" result="effect1_dropShadow_3194_67187"/>
<feBlend mode="normal" in="SourceGraphic" in2="effect1_dropShadow_3194_67187" result="shape"/>
</filter>
<filter id="filter9_d_3194_67187" x="90.2461" y="141.012" width="20.209" height="20.7516" filterUnits="userSpaceOnUse" color-interpolation-filters="sRGB">
<feFlood flood-opacity="0" result="BackgroundImageFix"/>
<feColorMatrix in="SourceAlpha" type="matrix" values="0 0 0 0 0 0 0 0 0 0 0 0 0 0 0 0 0 0 127 0" result="hardAlpha"/>
<feOffset dy="1.06412"/>
<feColorMatrix type="matrix" values="0 0 0 0 0 0 0 0 0 0 0 0 0 0 0 0 0 0 0.25 0"/>
<feBlend mode="normal" in2="BackgroundImageFix" result="effect1_dropShadow_3194_67187"/>
<feBlend mode="normal" in="SourceGraphic" in2="effect1_dropShadow_3194_67187" result="shape"/>
</filter>
</defs>
</svg>
