<svg width="312" height="295" viewBox="0 0 312 295" fill="none" xmlns="http://www.w3.org/2000/svg">
    <defs>
        <clipPath id="clip0_11355_101691">
            <rect x="62.418" y="32" width="249" height="262" rx="4.88499" fill="white"/>
        </clipPath>
    </defs>
    <g clip-path="url(#clip0_11355_101691)">
        <rect width="249.134" height="36.6374" transform="translate(62.418 257.931)" fill="#0C419A"/>
        <path
            d="M153.412 276.335C153.412 277.3 153.226 278.107 152.855 278.755C152.488 279.4 151.955 279.886 151.255 280.214C150.556 280.539 149.714 280.701 148.73 280.701H146.304V272.134H148.994C149.892 272.134 150.671 272.294 151.332 272.615C151.992 272.931 152.503 273.402 152.867 274.027C153.23 274.648 153.412 275.417 153.412 276.335ZM151.525 276.382C151.525 275.75 151.431 275.23 151.244 274.824C151.06 274.414 150.787 274.111 150.423 273.916C150.064 273.72 149.619 273.623 149.087 273.623H148.121V279.201H148.9C149.787 279.201 150.445 278.964 150.875 278.492C151.308 278.019 151.525 277.316 151.525 276.382ZM160.121 280.701H155.187V272.134H160.121V273.623H157.003V275.503H159.904V276.992H157.003V279.201H160.121V280.701ZM160.021 269.492V269.615C159.908 269.724 159.759 269.859 159.576 270.019C159.392 270.179 159.195 270.347 158.984 270.523C158.773 270.695 158.566 270.861 158.363 271.021C158.16 271.177 157.982 271.308 157.83 271.414H156.64V271.255C156.769 271.107 156.917 270.931 157.085 270.728C157.257 270.521 157.427 270.308 157.595 270.089C157.763 269.871 157.904 269.671 158.017 269.492H160.021ZM169.513 280.701H167.205L163.478 274.22H163.425C163.441 274.49 163.455 274.761 163.466 275.035C163.478 275.308 163.49 275.582 163.501 275.855C163.513 276.125 163.525 276.396 163.537 276.669V280.701H161.914V272.134H164.205L167.925 278.55H167.966C167.958 278.285 167.949 278.021 167.937 277.759C167.925 277.498 167.914 277.236 167.902 276.974C167.894 276.712 167.886 276.451 167.878 276.189V272.134H169.513V280.701ZM178.648 272.134V277.677C178.648 278.267 178.517 278.8 178.255 279.277C177.998 279.75 177.605 280.125 177.078 280.402C176.554 280.679 175.894 280.818 175.097 280.818C173.964 280.818 173.101 280.529 172.507 279.951C171.914 279.373 171.617 278.607 171.617 277.654V272.134H173.427V277.378C173.427 278.085 173.572 278.582 173.861 278.867C174.15 279.152 174.578 279.294 175.144 279.294C175.542 279.294 175.865 279.226 176.111 279.089C176.361 278.953 176.544 278.742 176.662 278.457C176.779 278.171 176.837 277.808 176.837 277.367V272.134H178.648ZM184.05 280.701H182.234V273.646H179.908V272.134H186.376V273.646H184.05V280.701ZM190.191 272.134C190.968 272.134 191.609 272.228 192.113 272.416C192.621 272.603 192.998 272.886 193.244 273.265C193.49 273.644 193.613 274.123 193.613 274.701C193.613 275.091 193.539 275.433 193.39 275.726C193.242 276.019 193.046 276.267 192.804 276.47C192.562 276.673 192.3 276.839 192.019 276.968L194.539 280.701H192.523L190.478 277.414H189.511V280.701H187.695V272.134H190.191ZM190.062 273.623H189.511V275.937H190.097C190.699 275.937 191.128 275.837 191.386 275.638C191.648 275.435 191.779 275.138 191.779 274.748C191.779 274.341 191.638 274.052 191.357 273.88C191.08 273.708 190.648 273.623 190.062 273.623ZM195.617 280.701V272.134H197.433V280.701H195.617ZM202.894 280.701H201.078V273.646H198.751V272.134H205.22V273.646H202.894V280.701ZM206.539 280.701V272.134H208.355V280.701H206.539ZM218.287 276.406C218.287 277.066 218.205 277.667 218.041 278.21C217.876 278.75 217.626 279.214 217.291 279.605C216.958 279.996 216.537 280.296 216.025 280.507C215.513 280.714 214.908 280.818 214.208 280.818C213.509 280.818 212.904 280.714 212.392 280.507C211.88 280.296 211.457 279.996 211.121 279.605C210.789 279.214 210.541 278.748 210.376 278.205C210.212 277.662 210.13 277.058 210.13 276.394C210.13 275.507 210.275 274.736 210.564 274.08C210.857 273.419 211.306 272.908 211.912 272.544C212.517 272.181 213.287 272 214.22 272C215.15 272 215.914 272.181 216.511 272.544C217.113 272.908 217.558 273.419 217.847 274.08C218.14 274.74 218.287 275.515 218.287 276.406ZM212.035 276.406C212.035 277.003 212.109 277.519 212.257 277.953C212.41 278.382 212.646 278.714 212.966 278.949C213.287 279.179 213.701 279.294 214.208 279.294C214.724 279.294 215.142 279.179 215.462 278.949C215.783 278.714 216.015 278.382 216.16 277.953C216.308 277.519 216.382 277.003 216.382 276.406C216.382 275.507 216.214 274.8 215.878 274.285C215.542 273.769 214.99 273.511 214.22 273.511C213.708 273.511 213.291 273.628 212.966 273.863C212.646 274.093 212.41 274.425 212.257 274.859C212.109 275.289 212.035 275.804 212.035 276.406ZM227.662 280.701H225.353L221.626 274.22H221.574C221.589 274.49 221.603 274.761 221.615 275.035C221.626 275.308 221.638 275.582 221.65 275.855C221.662 276.125 221.673 276.396 221.685 276.669V280.701H220.062V272.134H222.353L226.074 278.55H226.115C226.107 278.285 226.097 278.021 226.085 277.759C226.074 277.498 226.062 277.236 226.05 276.974C226.042 276.712 226.035 276.451 226.027 276.189V272.134H227.662V280.701Z"
            fill="white"/>
        <rect width="249.134" height="28.0887" transform="translate(62.418 229.842)" fill="#5594FF"/>
        <path
            d="M107.098 248.337V239.771H108.915V248.337H107.098ZM118.67 248.337H116.362L112.635 241.857H112.583C112.598 242.126 112.612 242.398 112.624 242.671C112.635 242.945 112.647 243.218 112.659 243.492C112.67 243.761 112.682 244.033 112.694 244.306V248.337H111.071V239.771H113.362L117.083 246.187H117.124C117.116 245.921 117.106 245.658 117.094 245.396C117.083 245.134 117.071 244.873 117.059 244.611C117.051 244.349 117.044 244.087 117.036 243.826V239.771H118.67V248.337ZM125.889 245.958C125.889 246.466 125.766 246.908 125.52 247.283C125.274 247.658 124.915 247.947 124.442 248.15C123.973 248.353 123.403 248.455 122.731 248.455C122.434 248.455 122.143 248.435 121.858 248.396C121.577 248.357 121.305 248.3 121.044 248.226C120.786 248.148 120.54 248.052 120.305 247.939V246.251C120.712 246.431 121.133 246.593 121.571 246.738C122.008 246.882 122.442 246.955 122.872 246.955C123.169 246.955 123.407 246.916 123.587 246.837C123.77 246.759 123.903 246.652 123.985 246.515C124.067 246.378 124.108 246.222 124.108 246.046C124.108 245.832 124.036 245.648 123.891 245.496C123.747 245.343 123.547 245.201 123.294 245.068C123.044 244.935 122.76 244.792 122.444 244.64C122.245 244.546 122.028 244.433 121.794 244.3C121.559 244.164 121.337 243.998 121.126 243.802C120.915 243.607 120.741 243.371 120.604 243.093C120.471 242.812 120.405 242.476 120.405 242.085C120.405 241.574 120.522 241.136 120.756 240.773C120.991 240.41 121.325 240.132 121.758 239.941C122.196 239.746 122.712 239.648 123.305 239.648C123.751 239.648 124.174 239.701 124.577 239.806C124.983 239.908 125.407 240.056 125.848 240.251L125.262 241.664C124.868 241.503 124.514 241.38 124.202 241.294C123.889 241.205 123.571 241.16 123.247 241.16C123.02 241.16 122.827 241.197 122.667 241.271C122.506 241.341 122.385 241.443 122.303 241.576C122.221 241.705 122.18 241.855 122.18 242.027C122.18 242.23 122.239 242.402 122.356 242.542C122.477 242.679 122.657 242.812 122.895 242.941C123.137 243.07 123.438 243.22 123.797 243.392C124.235 243.599 124.608 243.816 124.917 244.042C125.229 244.265 125.469 244.529 125.637 244.833C125.805 245.134 125.889 245.509 125.889 245.958ZM134.415 239.771V245.314C134.415 245.904 134.284 246.437 134.022 246.914C133.764 247.386 133.372 247.761 132.844 248.039C132.321 248.316 131.661 248.455 130.864 248.455C129.731 248.455 128.868 248.166 128.274 247.587C127.68 247.009 127.383 246.244 127.383 245.291V239.771H129.194V245.015C129.194 245.722 129.338 246.218 129.628 246.503C129.917 246.789 130.344 246.931 130.911 246.931C131.309 246.931 131.631 246.863 131.878 246.726C132.128 246.589 132.311 246.378 132.428 246.093C132.545 245.808 132.604 245.445 132.604 245.003V239.771H134.415ZM138.299 248.337H136.512V239.771H141.422V241.259H138.299V243.468H141.206V244.951H138.299V248.337ZM144.885 248.337H143.098V239.771H148.008V241.259H144.885V243.468H147.792V244.951H144.885V248.337ZM149.684 248.337V239.771H151.501V248.337H149.684ZM157.295 241.16C156.948 241.16 156.639 241.228 156.37 241.365C156.104 241.498 155.879 241.691 155.696 241.945C155.516 242.199 155.379 242.505 155.286 242.865C155.192 243.224 155.145 243.628 155.145 244.078C155.145 244.683 155.219 245.201 155.368 245.63C155.52 246.056 155.754 246.382 156.071 246.609C156.387 246.832 156.795 246.943 157.295 246.943C157.643 246.943 157.991 246.904 158.338 246.826C158.69 246.748 159.071 246.636 159.481 246.492V248.015C159.102 248.171 158.729 248.283 158.362 248.349C157.995 248.419 157.583 248.455 157.126 248.455C156.243 248.455 155.516 248.273 154.946 247.91C154.379 247.542 153.96 247.031 153.686 246.375C153.413 245.714 153.276 244.945 153.276 244.066C153.276 243.417 153.364 242.824 153.54 242.285C153.715 241.746 153.973 241.279 154.313 240.884C154.653 240.49 155.073 240.185 155.573 239.97C156.073 239.755 156.647 239.648 157.295 239.648C157.721 239.648 158.147 239.703 158.573 239.812C159.003 239.917 159.413 240.064 159.803 240.251L159.217 241.728C158.897 241.576 158.575 241.443 158.251 241.33C157.926 241.216 157.608 241.16 157.295 241.16ZM166.553 248.337L165.932 246.298H162.809L162.188 248.337H160.231L163.254 239.736H165.475L168.51 248.337H166.553ZM165.499 244.775L164.878 242.783C164.838 242.65 164.786 242.48 164.719 242.273C164.657 242.062 164.592 241.849 164.526 241.634C164.463 241.416 164.413 241.226 164.374 241.066C164.335 241.226 164.28 241.425 164.21 241.664C164.143 241.898 164.079 242.121 164.016 242.332C163.954 242.542 163.909 242.693 163.881 242.783L163.266 244.775H165.499ZM177.194 248.337H174.885L171.159 241.857H171.106C171.122 242.126 171.135 242.398 171.147 242.671C171.159 242.945 171.17 243.218 171.182 243.492C171.194 243.761 171.206 244.033 171.217 244.306V248.337H169.594V239.771H171.885L175.606 246.187H175.647C175.639 245.921 175.629 245.658 175.618 245.396C175.606 245.134 175.594 244.873 175.583 244.611C175.575 244.349 175.567 244.087 175.559 243.826V239.771H177.194V248.337ZM182.995 241.16C182.647 241.16 182.338 241.228 182.069 241.365C181.803 241.498 181.579 241.691 181.395 241.945C181.215 242.199 181.079 242.505 180.985 242.865C180.891 243.224 180.844 243.628 180.844 244.078C180.844 244.683 180.919 245.201 181.067 245.63C181.219 246.056 181.454 246.382 181.77 246.609C182.087 246.832 182.495 246.943 182.995 246.943C183.342 246.943 183.69 246.904 184.038 246.826C184.389 246.748 184.77 246.636 185.18 246.492V248.015C184.801 248.171 184.428 248.283 184.061 248.349C183.694 248.419 183.282 248.455 182.825 248.455C181.942 248.455 181.215 248.273 180.645 247.91C180.079 247.542 179.659 247.031 179.385 246.375C179.112 245.714 178.975 244.945 178.975 244.066C178.975 243.417 179.063 242.824 179.239 242.285C179.415 241.746 179.672 241.279 180.012 240.884C180.352 240.49 180.772 240.185 181.272 239.97C181.772 239.755 182.346 239.648 182.995 239.648C183.42 239.648 183.846 239.703 184.272 239.812C184.702 239.917 185.112 240.064 185.503 240.251L184.917 241.728C184.596 241.576 184.274 241.443 183.95 241.33C183.626 241.216 183.307 241.16 182.995 241.16ZM191.942 248.337H187.008V239.771H191.942V241.259H188.825V243.14H191.725V244.628H188.825V246.837H191.942V248.337ZM199.588 239.771C200.694 239.771 201.501 240.009 202.008 240.486C202.516 240.958 202.77 241.611 202.77 242.443C202.77 242.818 202.713 243.177 202.6 243.521C202.487 243.861 202.301 244.164 202.044 244.429C201.79 244.695 201.45 244.906 201.024 245.062C200.598 245.214 200.073 245.291 199.448 245.291H198.669V248.337H196.852V239.771H199.588ZM199.495 241.259H198.669V243.802H199.266C199.606 243.802 199.901 243.757 200.151 243.667C200.401 243.578 200.594 243.437 200.731 243.246C200.868 243.054 200.936 242.808 200.936 242.507C200.936 242.085 200.819 241.773 200.585 241.57C200.35 241.363 199.987 241.259 199.495 241.259ZM212.163 244.042C212.163 244.703 212.081 245.304 211.917 245.847C211.753 246.386 211.503 246.851 211.167 247.242C210.835 247.632 210.413 247.933 209.901 248.144C209.389 248.351 208.784 248.455 208.085 248.455C207.385 248.455 206.78 248.351 206.268 248.144C205.756 247.933 205.333 247.632 204.997 247.242C204.665 246.851 204.417 246.384 204.253 245.841C204.088 245.298 204.006 244.695 204.006 244.031C204.006 243.144 204.151 242.373 204.44 241.716C204.733 241.056 205.182 240.544 205.788 240.181C206.393 239.818 207.163 239.636 208.096 239.636C209.026 239.636 209.79 239.818 210.387 240.181C210.989 240.544 211.434 241.056 211.723 241.716C212.016 242.376 212.163 243.152 212.163 244.042ZM205.911 244.042C205.911 244.64 205.985 245.156 206.133 245.589C206.286 246.019 206.522 246.351 206.842 246.585C207.163 246.816 207.577 246.931 208.085 246.931C208.6 246.931 209.018 246.816 209.338 246.585C209.659 246.351 209.891 246.019 210.036 245.589C210.184 245.156 210.258 244.64 210.258 244.042C210.258 243.144 210.09 242.437 209.754 241.921C209.419 241.406 208.866 241.148 208.096 241.148C207.585 241.148 207.167 241.265 206.842 241.5C206.522 241.73 206.286 242.062 206.133 242.496C205.985 242.925 205.911 243.441 205.911 244.042ZM221.538 248.337H219.229L215.503 241.857H215.45C215.465 242.126 215.479 242.398 215.491 242.671C215.503 242.945 215.514 243.218 215.526 243.492C215.538 243.761 215.549 244.033 215.561 244.306V248.337H213.938V239.771H216.229L219.95 246.187H219.991C219.983 245.921 219.973 245.658 219.962 245.396C219.95 245.134 219.938 244.873 219.926 244.611C219.919 244.349 219.911 244.087 219.903 243.826V239.771H221.538V248.337ZM230.807 243.972C230.807 244.937 230.622 245.744 230.251 246.392C229.883 247.037 229.35 247.523 228.651 247.851C227.952 248.175 227.11 248.337 226.126 248.337H223.7V239.771H226.389C227.288 239.771 228.067 239.931 228.727 240.251C229.387 240.568 229.899 241.039 230.262 241.664C230.626 242.285 230.807 243.054 230.807 243.972ZM228.92 244.019C228.92 243.386 228.827 242.867 228.639 242.46C228.456 242.05 228.182 241.748 227.819 241.552C227.46 241.357 227.014 241.259 226.483 241.259H225.516V246.837H226.295C227.182 246.837 227.84 246.601 228.27 246.128C228.704 245.656 228.92 244.953 228.92 244.019ZM237.516 248.337H232.583V239.771H237.516V241.259H234.399V243.14H237.299V244.628H234.399V246.837H237.516V248.337ZM237.417 237.128V237.251C237.303 237.361 237.155 237.496 236.971 237.656C236.788 237.816 236.59 237.984 236.379 238.16C236.169 238.332 235.962 238.498 235.758 238.658C235.555 238.814 235.378 238.945 235.225 239.05H234.036V238.892C234.165 238.744 234.313 238.568 234.481 238.365C234.653 238.158 234.823 237.945 234.991 237.726C235.159 237.507 235.299 237.308 235.413 237.128H237.417ZM241.805 239.771C242.583 239.771 243.223 239.865 243.727 240.052C244.235 240.24 244.612 240.523 244.858 240.902C245.104 241.281 245.227 241.759 245.227 242.337C245.227 242.728 245.153 243.07 245.004 243.363C244.856 243.656 244.661 243.904 244.419 244.107C244.176 244.31 243.915 244.476 243.633 244.605L246.153 248.337H244.137L242.092 245.05H241.126V248.337H239.309V239.771H241.805ZM241.676 241.259H241.126V243.574H241.712C242.313 243.574 242.743 243.474 243.001 243.275C243.262 243.072 243.393 242.775 243.393 242.384C243.393 241.978 243.253 241.689 242.971 241.517C242.694 241.345 242.262 241.259 241.676 241.259ZM252.475 248.337L251.854 246.298H248.731L248.11 248.337H246.153L249.176 239.736H251.397L254.432 248.337H252.475ZM251.421 244.775L250.799 242.783C250.76 242.65 250.708 242.48 250.641 242.273C250.579 242.062 250.514 241.849 250.448 241.634C250.385 241.416 250.335 241.226 250.296 241.066C250.256 241.226 250.202 241.425 250.131 241.664C250.065 241.898 250.001 242.121 249.938 242.332C249.876 242.542 249.831 242.693 249.803 242.783L249.188 244.775H251.421ZM255.516 248.337V239.771H257.333V246.837H260.807V248.337H255.516ZM267.235 248.337H262.301V239.771H267.235V241.259H264.118V243.14H267.018V244.628H264.118V246.837H267.235V248.337Z"
            fill="white"/>
        <rect width="249.134" height="51.2924" transform="translate(62.418 178.55)" fill="#07CBA2"/>
        <path
            d="M144.154 200.081C145.259 200.081 146.066 200.319 146.574 200.796C147.082 201.268 147.336 201.921 147.336 202.753C147.336 203.128 147.279 203.487 147.166 203.831C147.052 204.171 146.867 204.473 146.609 204.739C146.355 205.005 146.015 205.216 145.59 205.372C145.164 205.524 144.638 205.6 144.013 205.6H143.234V208.647H141.418V200.081H144.154ZM144.06 201.569H143.234V204.112H143.832C144.172 204.112 144.467 204.067 144.717 203.977C144.967 203.887 145.16 203.747 145.297 203.555C145.433 203.364 145.502 203.118 145.502 202.817C145.502 202.395 145.384 202.083 145.15 201.88C144.916 201.673 144.552 201.569 144.06 201.569ZM156.728 204.352C156.728 205.012 156.646 205.614 156.482 206.157C156.318 206.696 156.068 207.161 155.732 207.552C155.4 207.942 154.978 208.243 154.467 208.454C153.955 208.661 153.349 208.764 152.65 208.764C151.951 208.764 151.345 208.661 150.834 208.454C150.322 208.243 149.898 207.942 149.562 207.552C149.23 207.161 148.982 206.694 148.818 206.151C148.654 205.608 148.572 205.005 148.572 204.341C148.572 203.454 148.717 202.682 149.006 202.026C149.299 201.366 149.748 200.854 150.353 200.491C150.959 200.128 151.728 199.946 152.662 199.946C153.592 199.946 154.355 200.128 154.953 200.491C155.554 200.854 156 201.366 156.289 202.026C156.582 202.686 156.728 203.462 156.728 204.352ZM150.476 204.352C150.476 204.95 150.551 205.466 150.699 205.899C150.851 206.329 151.088 206.661 151.408 206.895C151.728 207.126 152.142 207.241 152.65 207.241C153.166 207.241 153.584 207.126 153.904 206.895C154.224 206.661 154.457 206.329 154.601 205.899C154.75 205.466 154.824 204.95 154.824 204.352C154.824 203.454 154.656 202.747 154.32 202.231C153.984 201.716 153.431 201.458 152.662 201.458C152.15 201.458 151.732 201.575 151.408 201.809C151.088 202.04 150.851 202.372 150.699 202.805C150.551 203.235 150.476 203.751 150.476 204.352ZM158.504 208.647V200.081H160.32V208.647H158.504ZM169.584 204.282C169.584 205.247 169.398 206.053 169.027 206.702C168.66 207.346 168.127 207.833 167.427 208.161C166.728 208.485 165.886 208.647 164.902 208.647H162.476V200.081H165.166C166.064 200.081 166.843 200.241 167.504 200.561C168.164 200.878 168.676 201.348 169.039 201.973C169.402 202.594 169.584 203.364 169.584 204.282ZM167.697 204.329C167.697 203.696 167.603 203.177 167.416 202.77C167.232 202.36 166.959 202.057 166.595 201.862C166.236 201.667 165.791 201.569 165.259 201.569H164.293V207.147H165.072C165.959 207.147 166.617 206.911 167.047 206.438C167.48 205.966 167.697 205.262 167.697 204.329ZM176.416 206.268C176.416 206.776 176.293 207.218 176.047 207.593C175.801 207.968 175.441 208.257 174.968 208.46C174.5 208.663 173.929 208.764 173.258 208.764C172.961 208.764 172.67 208.745 172.384 208.706C172.103 208.667 171.832 208.61 171.57 208.536C171.312 208.458 171.066 208.362 170.832 208.249V206.561C171.238 206.741 171.66 206.903 172.097 207.048C172.535 207.192 172.968 207.264 173.398 207.264C173.695 207.264 173.933 207.225 174.113 207.147C174.297 207.069 174.429 206.962 174.511 206.825C174.593 206.688 174.634 206.532 174.634 206.356C174.634 206.141 174.562 205.958 174.418 205.805C174.273 205.653 174.074 205.51 173.82 205.378C173.57 205.245 173.287 205.102 172.97 204.95C172.771 204.856 172.554 204.743 172.32 204.61C172.086 204.473 171.863 204.307 171.652 204.112C171.441 203.917 171.267 203.68 171.131 203.403C170.998 203.122 170.931 202.786 170.931 202.395C170.931 201.884 171.049 201.446 171.283 201.083C171.517 200.719 171.851 200.442 172.285 200.251C172.722 200.055 173.238 199.958 173.832 199.958C174.277 199.958 174.701 200.01 175.103 200.116C175.509 200.218 175.933 200.366 176.375 200.561L175.789 201.973C175.394 201.813 175.041 201.69 174.728 201.604C174.416 201.514 174.097 201.469 173.773 201.469C173.547 201.469 173.353 201.507 173.193 201.581C173.033 201.651 172.912 201.753 172.83 201.885C172.748 202.014 172.707 202.165 172.707 202.337C172.707 202.54 172.765 202.712 172.883 202.852C173.004 202.989 173.183 203.122 173.422 203.251C173.664 203.38 173.965 203.53 174.324 203.702C174.761 203.909 175.134 204.126 175.443 204.352C175.756 204.575 175.996 204.839 176.164 205.143C176.332 205.444 176.416 205.819 176.416 206.268ZM188.685 208.647H186.377L182.65 202.167H182.597C182.613 202.436 182.627 202.708 182.638 202.981C182.65 203.255 182.662 203.528 182.674 203.802C182.685 204.071 182.697 204.343 182.709 204.616V208.647H181.086V200.081H183.377L187.097 206.497H187.138C187.131 206.231 187.121 205.968 187.109 205.706C187.097 205.444 187.086 205.182 187.074 204.921C187.066 204.659 187.058 204.397 187.051 204.135V200.081H188.685V208.647ZM198.623 204.352C198.623 205.012 198.541 205.614 198.377 206.157C198.213 206.696 197.963 207.161 197.627 207.552C197.295 207.942 196.873 208.243 196.361 208.454C195.849 208.661 195.244 208.764 194.545 208.764C193.845 208.764 193.24 208.661 192.728 208.454C192.217 208.243 191.793 207.942 191.457 207.552C191.125 207.161 190.877 206.694 190.713 206.151C190.549 205.608 190.467 205.005 190.467 204.341C190.467 203.454 190.611 202.682 190.9 202.026C191.193 201.366 191.642 200.854 192.248 200.491C192.853 200.128 193.623 199.946 194.556 199.946C195.486 199.946 196.25 200.128 196.847 200.491C197.449 200.854 197.894 201.366 198.183 202.026C198.476 202.686 198.623 203.462 198.623 204.352ZM192.371 204.352C192.371 204.95 192.445 205.466 192.593 205.899C192.746 206.329 192.982 206.661 193.302 206.895C193.623 207.126 194.037 207.241 194.545 207.241C195.06 207.241 195.478 207.126 195.799 206.895C196.119 206.661 196.351 206.329 196.496 205.899C196.644 205.466 196.718 204.95 196.718 204.352C196.718 203.454 196.551 202.747 196.215 202.231C195.879 201.716 195.326 201.458 194.556 201.458C194.045 201.458 193.627 201.575 193.302 201.809C192.982 202.04 192.746 202.372 192.593 202.805C192.445 203.235 192.371 203.751 192.371 204.352ZM202.894 200.081C203.672 200.081 204.312 200.175 204.816 200.362C205.324 200.55 205.701 200.833 205.947 201.212C206.193 201.591 206.316 202.069 206.316 202.647C206.316 203.038 206.242 203.38 206.093 203.673C205.945 203.966 205.75 204.214 205.508 204.417C205.265 204.62 205.004 204.786 204.722 204.915L207.242 208.647H205.226L203.181 205.36H202.215V208.647H200.398V200.081H202.894ZM202.765 201.569H202.215V203.884H202.801C203.402 203.884 203.832 203.784 204.09 203.585C204.351 203.382 204.482 203.085 204.482 202.694C204.482 202.288 204.342 201.999 204.06 201.827C203.783 201.655 203.351 201.569 202.765 201.569ZM211.947 208.647L209.884 201.927H209.832C209.84 202.087 209.851 202.329 209.867 202.653C209.886 202.973 209.904 203.315 209.92 203.678C209.935 204.042 209.943 204.37 209.943 204.663V208.647H208.32V200.081H210.793L212.82 206.632H212.855L215.006 200.081H217.478V208.647H215.785V204.593C215.785 204.323 215.789 204.012 215.797 203.661C215.808 203.309 215.822 202.975 215.838 202.659C215.853 202.339 215.865 202.098 215.873 201.938H215.82L213.611 208.647H211.947ZM224.884 208.647L224.263 206.608H221.14L220.519 208.647H218.562L221.586 200.046H223.806L226.842 208.647H224.884ZM223.83 205.085L223.209 203.093C223.17 202.96 223.117 202.79 223.051 202.583C222.988 202.372 222.924 202.159 222.857 201.944C222.795 201.725 222.744 201.536 222.705 201.376C222.666 201.536 222.611 201.735 222.541 201.973C222.474 202.208 222.41 202.43 222.347 202.641C222.285 202.852 222.24 203.003 222.213 203.093L221.597 205.085H223.83ZM227.926 208.647V200.081H229.742V207.147H233.217V208.647H227.926Z"
            fill="white"/>
        <rect width="249.134" height="36.6374" transform="translate(62.418 105.274)" fill="#E47343"/>
        <path
            d="M141.054 123.75C141.054 124.41 140.972 125.011 140.808 125.554C140.644 126.093 140.394 126.558 140.058 126.949C139.726 127.339 139.304 127.64 138.793 127.851C138.281 128.058 137.675 128.162 136.976 128.162C136.277 128.162 135.671 128.058 135.16 127.851C134.648 127.64 134.224 127.339 133.888 126.949C133.556 126.558 133.308 126.091 133.144 125.548C132.98 125.005 132.898 124.402 132.898 123.738C132.898 122.851 133.043 122.08 133.332 121.423C133.625 120.763 134.074 120.251 134.679 119.888C135.285 119.525 136.054 119.343 136.988 119.343C137.918 119.343 138.681 119.525 139.279 119.888C139.88 120.251 140.326 120.763 140.615 121.423C140.908 122.083 141.054 122.859 141.054 123.75ZM134.802 123.75C134.802 124.347 134.877 124.863 135.025 125.296C135.177 125.726 135.414 126.058 135.734 126.292C136.054 126.523 136.468 126.638 136.976 126.638C137.492 126.638 137.91 126.523 138.23 126.292C138.55 126.058 138.783 125.726 138.927 125.296C139.076 124.863 139.15 124.347 139.15 123.75C139.15 122.851 138.982 122.144 138.646 121.628C138.31 121.113 137.757 120.855 136.988 120.855C136.476 120.855 136.058 120.972 135.734 121.207C135.414 121.437 135.177 121.769 135.025 122.203C134.877 122.632 134.802 123.148 134.802 123.75ZM142.83 119.478H145.496C146.636 119.478 147.5 119.638 148.086 119.958C148.671 120.279 148.964 120.841 148.964 121.646C148.964 121.97 148.912 122.263 148.806 122.525C148.705 122.787 148.556 123.001 148.361 123.169C148.166 123.337 147.927 123.447 147.646 123.498V123.556C147.931 123.615 148.189 123.716 148.42 123.861C148.65 124.001 148.834 124.208 148.97 124.482C149.111 124.751 149.181 125.111 149.181 125.56C149.181 126.08 149.054 126.525 148.8 126.896C148.546 127.267 148.183 127.552 147.711 127.751C147.242 127.947 146.683 128.044 146.035 128.044H142.83V119.478ZM144.646 122.871H145.701C146.228 122.871 146.593 122.789 146.796 122.625C147 122.457 147.101 122.21 147.101 121.886C147.101 121.558 146.98 121.324 146.738 121.183C146.5 121.039 146.121 120.966 145.601 120.966H144.646V122.871ZM144.646 124.312V126.544H145.83C146.377 126.544 146.757 126.439 146.972 126.228C147.187 126.017 147.295 125.734 147.295 125.378C147.295 125.167 147.248 124.982 147.154 124.822C147.06 124.662 146.902 124.537 146.679 124.447C146.461 124.357 146.158 124.312 145.771 124.312H144.646ZM155.826 128.044H150.892V119.478H155.826V120.966H152.709V122.847H155.609V124.335H152.709V126.544H155.826V128.044ZM155.726 116.835V116.958C155.613 117.068 155.464 117.203 155.281 117.363C155.097 117.523 154.9 117.691 154.689 117.867C154.478 118.039 154.271 118.205 154.068 118.365C153.865 118.521 153.687 118.652 153.535 118.757H152.345V118.599C152.474 118.451 152.623 118.275 152.791 118.072C152.963 117.865 153.132 117.652 153.3 117.433C153.468 117.214 153.609 117.015 153.722 116.835H155.726ZM162.675 125.666C162.675 126.173 162.552 126.615 162.306 126.99C162.06 127.365 161.701 127.654 161.228 127.857C160.759 128.06 160.189 128.162 159.517 128.162C159.22 128.162 158.929 128.142 158.644 128.103C158.363 128.064 158.091 128.007 157.83 127.933C157.572 127.855 157.326 127.759 157.091 127.646V125.958C157.498 126.138 157.92 126.3 158.357 126.445C158.795 126.589 159.228 126.662 159.658 126.662C159.955 126.662 160.193 126.623 160.373 126.544C160.556 126.466 160.689 126.359 160.771 126.222C160.853 126.085 160.894 125.929 160.894 125.753C160.894 125.539 160.822 125.355 160.677 125.203C160.533 125.05 160.334 124.908 160.08 124.775C159.83 124.642 159.546 124.5 159.23 124.347C159.031 124.253 158.814 124.14 158.58 124.007C158.345 123.871 158.123 123.705 157.912 123.509C157.701 123.314 157.527 123.078 157.39 122.8C157.257 122.519 157.191 122.183 157.191 121.792C157.191 121.281 157.308 120.843 157.543 120.48C157.777 120.117 158.111 119.839 158.545 119.648C158.982 119.453 159.498 119.355 160.091 119.355C160.537 119.355 160.961 119.408 161.363 119.513C161.769 119.615 162.193 119.763 162.634 119.958L162.048 121.371C161.654 121.21 161.3 121.087 160.988 121.001C160.675 120.912 160.357 120.867 160.033 120.867C159.806 120.867 159.613 120.904 159.453 120.978C159.293 121.048 159.171 121.15 159.089 121.283C159.007 121.412 158.966 121.562 158.966 121.734C158.966 121.937 159.025 122.109 159.142 122.25C159.263 122.386 159.443 122.519 159.681 122.648C159.923 122.777 160.224 122.927 160.584 123.099C161.021 123.306 161.394 123.523 161.703 123.75C162.015 123.972 162.255 124.236 162.423 124.541C162.591 124.841 162.675 125.216 162.675 125.666ZM164.228 128.044V119.478H166.045V128.044H164.228ZM171.505 128.044H169.689V120.99H167.363V119.478H173.832V120.99H171.505V128.044ZM180.084 128.044H175.15V119.478H180.084V120.966H176.966V122.847H179.867V124.335H176.966V126.544H180.084V128.044ZM179.984 116.835V116.958C179.871 117.068 179.722 117.203 179.539 117.363C179.355 117.523 179.158 117.691 178.947 117.867C178.736 118.039 178.529 118.205 178.326 118.365C178.123 118.521 177.945 118.652 177.793 118.757H176.603V118.599C176.732 118.451 176.88 118.275 177.048 118.072C177.22 117.865 177.39 117.652 177.558 117.433C177.726 117.214 177.867 117.015 177.98 116.835H179.984ZM188.621 128.044L186.558 121.324H186.505C186.513 121.484 186.525 121.726 186.541 122.05C186.56 122.371 186.578 122.712 186.593 123.076C186.609 123.439 186.617 123.767 186.617 124.06V128.044H184.994V119.478H187.466L189.494 126.029H189.529L191.679 119.478H194.152V128.044H192.459V123.99C192.459 123.72 192.463 123.41 192.47 123.058C192.482 122.707 192.496 122.373 192.511 122.056C192.527 121.736 192.539 121.496 192.546 121.335H192.494L190.285 128.044H188.621ZM204.089 123.75C204.089 124.41 204.007 125.011 203.843 125.554C203.679 126.093 203.429 126.558 203.093 126.949C202.761 127.339 202.339 127.64 201.828 127.851C201.316 128.058 200.711 128.162 200.011 128.162C199.312 128.162 198.707 128.058 198.195 127.851C197.683 127.64 197.259 127.339 196.923 126.949C196.591 126.558 196.343 126.091 196.179 125.548C196.015 125.005 195.933 124.402 195.933 123.738C195.933 122.851 196.078 122.08 196.367 121.423C196.66 120.763 197.109 120.251 197.714 119.888C198.32 119.525 199.089 119.343 200.023 119.343C200.953 119.343 201.716 119.525 202.314 119.888C202.916 120.251 203.361 120.763 203.65 121.423C203.943 122.083 204.089 122.859 204.089 123.75ZM197.838 123.75C197.838 124.347 197.912 124.863 198.06 125.296C198.213 125.726 198.449 126.058 198.769 126.292C199.089 126.523 199.504 126.638 200.011 126.638C200.527 126.638 200.945 126.523 201.265 126.292C201.586 126.058 201.818 125.726 201.963 125.296C202.111 124.863 202.185 124.347 202.185 123.75C202.185 122.851 202.017 122.144 201.681 121.628C201.345 121.113 200.793 120.855 200.023 120.855C199.511 120.855 199.093 120.972 198.769 121.207C198.449 121.437 198.213 121.769 198.06 122.203C197.912 122.632 197.838 123.148 197.838 123.75ZM212.972 123.679C212.972 124.644 212.787 125.451 212.416 126.099C212.048 126.744 211.515 127.23 210.816 127.558C210.117 127.882 209.275 128.044 208.291 128.044H205.865V119.478H208.554C209.453 119.478 210.232 119.638 210.892 119.958C211.552 120.275 212.064 120.746 212.427 121.371C212.791 121.992 212.972 122.761 212.972 123.679ZM211.086 123.726C211.086 123.093 210.992 122.574 210.804 122.167C210.621 121.757 210.347 121.455 209.984 121.259C209.625 121.064 209.179 120.966 208.648 120.966H207.681V126.544H208.461C209.347 126.544 210.005 126.308 210.435 125.835C210.869 125.363 211.086 124.66 211.086 123.726ZM219.681 128.044H214.748V119.478H219.681V120.966H216.564V122.847H219.464V124.335H216.564V126.544H219.681V128.044ZM219.582 116.835V116.958C219.468 117.068 219.32 117.203 219.136 117.363C218.953 117.523 218.755 117.691 218.545 117.867C218.334 118.039 218.127 118.205 217.923 118.365C217.72 118.521 217.543 118.652 217.39 118.757H216.201V118.599C216.33 118.451 216.478 118.275 216.646 118.072C216.818 117.865 216.988 117.652 217.156 117.433C217.324 117.214 217.464 117.015 217.578 116.835H219.582ZM223.97 119.478C224.748 119.478 225.388 119.572 225.892 119.759C226.4 119.947 226.777 120.23 227.023 120.609C227.269 120.988 227.392 121.466 227.392 122.044C227.392 122.435 227.318 122.777 227.17 123.07C227.021 123.363 226.826 123.611 226.584 123.814C226.341 124.017 226.08 124.183 225.798 124.312L228.318 128.044H226.302L224.257 124.757H223.291V128.044H221.474V119.478H223.97ZM223.841 120.966H223.291V123.281H223.877C224.478 123.281 224.908 123.181 225.166 122.982C225.427 122.779 225.558 122.482 225.558 122.091C225.558 121.685 225.418 121.396 225.136 121.224C224.859 121.052 224.427 120.966 223.841 120.966ZM234.33 128.044H229.396V119.478H234.33V120.966H231.213V122.847H234.113V124.335H231.213V126.544H234.33V128.044ZM234.23 116.835V116.958C234.117 117.068 233.968 117.203 233.785 117.363C233.601 117.523 233.404 117.691 233.193 117.867C232.982 118.039 232.775 118.205 232.572 118.365C232.369 118.521 232.191 118.652 232.039 118.757H230.849V118.599C230.978 118.451 231.127 118.275 231.295 118.072C231.466 117.865 231.636 117.652 231.804 117.433C231.972 117.214 232.113 117.015 232.226 116.835H234.23ZM241.056 128.044H236.123V119.478H241.056V120.966H237.939V122.847H240.839V124.335H237.939V126.544H241.056V128.044Z"
            fill="white"/>
        <rect width="249.134" height="36.6374" transform="translate(62.418 68.6387)" fill="#C7414F"/>
        <path
            d="M148.724 87.1138C148.724 87.7739 148.642 88.3755 148.478 88.9185C148.313 89.4575 148.063 89.9224 147.728 90.313C147.396 90.7036 146.974 91.0044 146.462 91.2153C145.95 91.4224 145.345 91.5259 144.646 91.5259C143.946 91.5259 143.341 91.4224 142.829 91.2153C142.317 91.0044 141.894 90.7036 141.558 90.313C141.226 89.9224 140.978 89.4556 140.813 88.9126C140.649 88.3696 140.567 87.7661 140.567 87.1021C140.567 86.2153 140.712 85.4438 141.001 84.7876C141.294 84.1274 141.743 83.6157 142.349 83.2524C142.954 82.8892 143.724 82.7075 144.657 82.7075C145.587 82.7075 146.351 82.8892 146.948 83.2524C147.55 83.6157 147.995 84.1274 148.284 84.7876C148.577 85.4478 148.724 86.2231 148.724 87.1138ZM142.472 87.1138C142.472 87.7114 142.546 88.2271 142.694 88.6606C142.847 89.0903 143.083 89.4224 143.403 89.6567C143.724 89.8872 144.138 90.0024 144.646 90.0024C145.161 90.0024 145.579 89.8872 145.899 89.6567C146.22 89.4224 146.452 89.0903 146.597 88.6606C146.745 88.2271 146.819 87.7114 146.819 87.1138C146.819 86.2153 146.651 85.5083 146.315 84.9927C145.979 84.4771 145.427 84.2192 144.657 84.2192C144.146 84.2192 143.728 84.3364 143.403 84.5708C143.083 84.8013 142.847 85.1333 142.694 85.5669C142.546 85.9966 142.472 86.5122 142.472 87.1138ZM150.499 82.8423H153.165C154.306 82.8423 155.169 83.0024 155.755 83.3228C156.341 83.6431 156.634 84.2056 156.634 85.0103C156.634 85.3345 156.581 85.6274 156.476 85.8892C156.374 86.1509 156.226 86.3657 156.03 86.5337C155.835 86.7017 155.597 86.811 155.315 86.8618V86.9204C155.601 86.979 155.858 87.0806 156.089 87.2251C156.319 87.3657 156.503 87.5728 156.64 87.8462C156.78 88.1157 156.851 88.4751 156.851 88.9243C156.851 89.4438 156.724 89.8892 156.47 90.2603C156.216 90.6313 155.853 90.9165 155.38 91.1157C154.911 91.311 154.353 91.4087 153.704 91.4087H150.499V82.8423ZM152.315 86.2349H153.37C153.897 86.2349 154.263 86.1528 154.466 85.9888C154.669 85.8208 154.771 85.5747 154.771 85.2505C154.771 84.9224 154.649 84.688 154.407 84.5474C154.169 84.4028 153.79 84.3306 153.271 84.3306H152.315V86.2349ZM152.315 87.6763V89.9087H153.499C154.046 89.9087 154.427 89.8032 154.642 89.5923C154.856 89.3813 154.964 89.0981 154.964 88.7427C154.964 88.5317 154.917 88.3462 154.823 88.186C154.729 88.0259 154.571 87.9009 154.349 87.811C154.13 87.7212 153.827 87.6763 153.44 87.6763H152.315ZM163.495 91.4087H158.562V82.8423H163.495V84.3306H160.378V86.2114H163.278V87.6997H160.378V89.9087H163.495V91.4087ZM163.396 80.1997V80.3228C163.282 80.4321 163.134 80.5669 162.95 80.7271C162.767 80.8872 162.569 81.0552 162.358 81.231C162.147 81.4028 161.94 81.5688 161.737 81.729C161.534 81.8853 161.356 82.0161 161.204 82.1216H160.015V81.9634C160.144 81.8149 160.292 81.6392 160.46 81.436C160.632 81.229 160.802 81.0161 160.97 80.7974C161.138 80.5786 161.278 80.3794 161.392 80.1997H163.396ZM170.345 89.0298C170.345 89.5376 170.222 89.979 169.976 90.354C169.729 90.729 169.37 91.0181 168.897 91.2212C168.429 91.4243 167.858 91.5259 167.187 91.5259C166.89 91.5259 166.599 91.5063 166.313 91.4673C166.032 91.4282 165.761 91.3716 165.499 91.2974C165.241 91.2192 164.995 91.1235 164.761 91.0103V89.3228C165.167 89.5024 165.589 89.6646 166.026 89.8091C166.464 89.9536 166.897 90.0259 167.327 90.0259C167.624 90.0259 167.862 89.9868 168.042 89.9087C168.226 89.8306 168.358 89.7231 168.44 89.5864C168.522 89.4497 168.563 89.2935 168.563 89.1177C168.563 88.9028 168.491 88.7192 168.347 88.5669C168.202 88.4146 168.003 88.272 167.749 88.1392C167.499 88.0063 167.216 87.8638 166.899 87.7114C166.7 87.6177 166.483 87.5044 166.249 87.3716C166.015 87.2349 165.792 87.0688 165.581 86.8735C165.37 86.6782 165.196 86.4419 165.06 86.1646C164.927 85.8833 164.86 85.5474 164.86 85.1567C164.86 84.645 164.978 84.2075 165.212 83.8442C165.446 83.481 165.78 83.2036 166.214 83.0122C166.651 82.8169 167.167 82.7192 167.761 82.7192C168.206 82.7192 168.63 82.772 169.032 82.8774C169.438 82.979 169.862 83.1274 170.304 83.3228L169.718 84.7349C169.323 84.5747 168.97 84.4517 168.657 84.3657C168.345 84.2759 168.026 84.231 167.702 84.231C167.476 84.231 167.282 84.2681 167.122 84.3423C166.962 84.4126 166.841 84.5142 166.759 84.647C166.677 84.7759 166.636 84.9263 166.636 85.0981C166.636 85.3013 166.694 85.4731 166.812 85.6138C166.933 85.7505 167.112 85.8833 167.351 86.0122C167.593 86.1411 167.894 86.2915 168.253 86.4634C168.69 86.6704 169.063 86.8872 169.372 87.1138C169.685 87.3364 169.925 87.6001 170.093 87.9048C170.261 88.2056 170.345 88.5806 170.345 89.0298ZM171.897 91.4087V82.8423H173.714V91.4087H171.897ZM179.175 91.4087H177.358V84.354H175.032V82.8423H181.501V84.354H179.175V91.4087ZM187.753 91.4087H182.819V82.8423H187.753V84.3306H184.636V86.2114H187.536V87.6997H184.636V89.9087H187.753V91.4087ZM187.653 80.1997V80.3228C187.54 80.4321 187.392 80.5669 187.208 80.7271C187.024 80.8872 186.827 81.0552 186.616 81.231C186.405 81.4028 186.198 81.5688 185.995 81.729C185.792 81.8853 185.614 82.0161 185.462 82.1216H184.272V81.9634C184.401 81.8149 184.55 81.6392 184.718 81.436C184.89 81.229 185.06 81.0161 185.228 80.7974C185.396 80.5786 185.536 80.3794 185.649 80.1997H187.653ZM197.72 89.0298C197.72 89.5376 197.597 89.979 197.351 90.354C197.104 90.729 196.745 91.0181 196.272 91.2212C195.804 91.4243 195.233 91.5259 194.562 91.5259C194.265 91.5259 193.974 91.5063 193.688 91.4673C193.407 91.4282 193.136 91.3716 192.874 91.2974C192.616 91.2192 192.37 91.1235 192.136 91.0103V89.3228C192.542 89.5024 192.964 89.6646 193.401 89.8091C193.839 89.9536 194.272 90.0259 194.702 90.0259C194.999 90.0259 195.237 89.9868 195.417 89.9087C195.601 89.8306 195.733 89.7231 195.815 89.5864C195.897 89.4497 195.938 89.2935 195.938 89.1177C195.938 88.9028 195.866 88.7192 195.722 88.5669C195.577 88.4146 195.378 88.272 195.124 88.1392C194.874 88.0063 194.591 87.8638 194.274 87.7114C194.075 87.6177 193.858 87.5044 193.624 87.3716C193.39 87.2349 193.167 87.0688 192.956 86.8735C192.745 86.6782 192.571 86.4419 192.435 86.1646C192.302 85.8833 192.235 85.5474 192.235 85.1567C192.235 84.645 192.353 84.2075 192.587 83.8442C192.821 83.481 193.155 83.2036 193.589 83.0122C194.026 82.8169 194.542 82.7192 195.136 82.7192C195.581 82.7192 196.005 82.772 196.407 82.8774C196.813 82.979 197.237 83.1274 197.679 83.3228L197.093 84.7349C196.698 84.5747 196.345 84.4517 196.032 84.3657C195.72 84.2759 195.401 84.231 195.077 84.231C194.851 84.231 194.657 84.2681 194.497 84.3423C194.337 84.4126 194.216 84.5142 194.134 84.647C194.052 84.7759 194.011 84.9263 194.011 85.0981C194.011 85.3013 194.069 85.4731 194.187 85.6138C194.308 85.7505 194.487 85.8833 194.726 86.0122C194.968 86.1411 195.269 86.2915 195.628 86.4634C196.065 86.6704 196.438 86.8872 196.747 87.1138C197.06 87.3364 197.3 87.6001 197.468 87.9048C197.636 88.2056 197.72 88.5806 197.72 89.0298ZM204.206 91.4087H199.272V82.8423H204.206V84.3306H201.089V86.2114H203.989V87.6997H201.089V89.9087H204.206V91.4087ZM204.106 80.1997V80.3228C203.993 80.4321 203.845 80.5669 203.661 80.7271C203.478 80.8872 203.28 81.0552 203.069 81.231C202.858 81.4028 202.651 81.5688 202.448 81.729C202.245 81.8853 202.067 82.0161 201.915 82.1216H200.726V81.9634C200.854 81.8149 201.003 81.6392 201.171 81.436C201.343 81.229 201.513 81.0161 201.681 80.7974C201.849 80.5786 201.989 80.3794 202.103 80.1997H204.106ZM212.72 82.8423L209.808 91.4087H207.827L204.921 82.8423H206.755L208.366 87.9399C208.394 88.0259 208.438 88.188 208.501 88.4263C208.563 88.6606 208.626 88.9106 208.688 89.1763C208.755 89.438 208.8 89.6548 208.823 89.8267C208.847 89.6548 208.888 89.438 208.946 89.1763C209.009 88.9146 209.069 88.6665 209.128 88.4321C209.19 88.1938 209.235 88.0298 209.263 87.9399L210.886 82.8423H212.72ZM218.737 91.4087H213.804V82.8423H218.737V84.3306H215.62V86.2114H218.521V87.6997H215.62V89.9087H218.737V91.4087ZM216.048 80.1997C216.165 80.3794 216.306 80.5786 216.47 80.7974C216.638 81.0161 216.808 81.229 216.979 81.436C217.151 81.6392 217.3 81.8149 217.425 81.9634V82.1216H216.241C216.089 82.0161 215.911 81.8853 215.708 81.729C215.505 81.5688 215.296 81.4028 215.081 81.231C214.87 81.0552 214.673 80.8872 214.489 80.7271C214.306 80.5669 214.157 80.4321 214.044 80.3228V80.1997H216.048ZM223.026 82.8423C223.804 82.8423 224.444 82.936 224.948 83.1235C225.456 83.311 225.833 83.5942 226.079 83.9731C226.325 84.3521 226.448 84.8306 226.448 85.4087C226.448 85.7993 226.374 86.1411 226.226 86.4341C226.077 86.7271 225.882 86.9751 225.64 87.1782C225.397 87.3813 225.136 87.5474 224.854 87.6763L227.374 91.4087H225.358L223.313 88.1216H222.347V91.4087H220.53V82.8423H223.026ZM222.897 84.3306H222.347V86.645H222.933C223.534 86.645 223.964 86.5454 224.222 86.3462C224.483 86.1431 224.614 85.8462 224.614 85.4556C224.614 85.0493 224.474 84.7603 224.192 84.5884C223.915 84.4165 223.483 84.3306 222.897 84.3306ZM233.386 91.4087H228.452V82.8423H233.386V84.3306H230.269V86.2114H233.169V87.6997H230.269V89.9087H233.386V91.4087Z"
            fill="white"/>
        <rect width="249.134" height="36.6374" transform="translate(62.418 32)" fill="#AA1147"/>
        <path
            d="M144.316 50.4751C144.316 51.1353 144.234 51.7368 144.07 52.2798C143.906 52.8188 143.656 53.2837 143.32 53.6743C142.988 54.0649 142.566 54.3657 142.055 54.5767C141.543 54.7837 140.937 54.8872 140.238 54.8872C139.539 54.8872 138.934 54.7837 138.422 54.5767C137.91 54.3657 137.486 54.0649 137.15 53.6743C136.818 53.2837 136.57 52.8169 136.406 52.2739C136.242 51.731 136.16 51.1274 136.16 50.4634C136.16 49.5767 136.305 48.8052 136.594 48.1489C136.887 47.4888 137.336 46.9771 137.941 46.6138C138.547 46.2505 139.316 46.0688 140.25 46.0688C141.18 46.0688 141.943 46.2505 142.541 46.6138C143.143 46.9771 143.588 47.4888 143.877 48.1489C144.17 48.8091 144.316 49.5845 144.316 50.4751ZM138.064 50.4751C138.064 51.0728 138.139 51.5884 138.287 52.022C138.439 52.4517 138.676 52.7837 138.996 53.0181C139.316 53.2485 139.73 53.3638 140.238 53.3638C140.754 53.3638 141.172 53.2485 141.492 53.0181C141.812 52.7837 142.045 52.4517 142.189 52.022C142.338 51.5884 142.412 51.0728 142.412 50.4751C142.412 49.5767 142.244 48.8696 141.908 48.354C141.572 47.8384 141.019 47.5806 140.25 47.5806C139.738 47.5806 139.32 47.6978 138.996 47.9321C138.676 48.1626 138.439 48.4946 138.287 48.9282C138.139 49.3579 138.064 49.8735 138.064 50.4751ZM146.092 46.2036H148.758C149.898 46.2036 150.762 46.3638 151.348 46.6841C151.934 47.0044 152.227 47.5669 152.227 48.3716C152.227 48.6958 152.174 48.9888 152.068 49.2505C151.967 49.5122 151.818 49.7271 151.623 49.895C151.428 50.063 151.189 50.1724 150.908 50.2231V50.2817C151.193 50.3403 151.451 50.4419 151.682 50.5864C151.912 50.7271 152.096 50.9341 152.232 51.2075C152.373 51.4771 152.443 51.8364 152.443 52.2856C152.443 52.8052 152.316 53.2505 152.062 53.6216C151.809 53.9927 151.445 54.2778 150.973 54.4771C150.504 54.6724 149.945 54.77 149.297 54.77H146.092V46.2036ZM147.908 49.5962H148.963C149.49 49.5962 149.855 49.5142 150.059 49.3501C150.262 49.1821 150.363 48.936 150.363 48.6118C150.363 48.2837 150.242 48.0493 150 47.9087C149.762 47.7642 149.383 47.6919 148.863 47.6919H147.908V49.5962ZM147.908 51.0376V53.27H149.092C149.639 53.27 150.019 53.1646 150.234 52.9536C150.449 52.7427 150.557 52.4595 150.557 52.104C150.557 51.8931 150.51 51.7075 150.416 51.5474C150.322 51.3872 150.164 51.2622 149.941 51.1724C149.723 51.0825 149.42 51.0376 149.033 51.0376H147.908ZM159.088 54.77H154.154V46.2036H159.088V47.6919H155.971V49.5728H158.871V51.061H155.971V53.27H159.088V54.77ZM158.988 43.561V43.6841C158.875 43.7935 158.727 43.9282 158.543 44.0884C158.359 44.2485 158.162 44.4165 157.951 44.5923C157.74 44.7642 157.533 44.9302 157.33 45.0903C157.127 45.2466 156.949 45.3774 156.797 45.4829H155.607V45.3247C155.736 45.1763 155.885 45.0005 156.053 44.7974C156.225 44.5903 156.394 44.3774 156.562 44.1587C156.73 43.9399 156.871 43.7407 156.984 43.561H158.988ZM165.937 52.3911C165.937 52.8989 165.814 53.3403 165.568 53.7153C165.322 54.0903 164.963 54.3794 164.49 54.5825C164.021 54.7856 163.451 54.8872 162.779 54.8872C162.482 54.8872 162.191 54.8677 161.906 54.8286C161.625 54.7896 161.353 54.7329 161.092 54.6587C160.834 54.5806 160.588 54.4849 160.353 54.3716V52.6841C160.76 52.8638 161.182 53.0259 161.619 53.1704C162.057 53.3149 162.49 53.3872 162.92 53.3872C163.217 53.3872 163.455 53.3481 163.635 53.27C163.818 53.1919 163.951 53.0845 164.033 52.9478C164.115 52.811 164.156 52.6548 164.156 52.479C164.156 52.2642 164.084 52.0806 163.939 51.9282C163.795 51.7759 163.596 51.6333 163.342 51.5005C163.092 51.3677 162.809 51.2251 162.492 51.0728C162.293 50.979 162.076 50.8657 161.842 50.7329C161.607 50.5962 161.385 50.4302 161.174 50.2349C160.963 50.0396 160.789 49.8032 160.652 49.5259C160.519 49.2446 160.453 48.9087 160.453 48.5181C160.453 48.0063 160.57 47.5688 160.805 47.2056C161.039 46.8423 161.373 46.5649 161.807 46.3735C162.244 46.1782 162.76 46.0806 163.353 46.0806C163.799 46.0806 164.223 46.1333 164.625 46.2388C165.031 46.3403 165.455 46.4888 165.896 46.6841L165.31 48.0962C164.916 47.936 164.562 47.813 164.25 47.7271C163.937 47.6372 163.619 47.5923 163.295 47.5923C163.068 47.5923 162.875 47.6294 162.715 47.7036C162.555 47.7739 162.434 47.8755 162.352 48.0083C162.269 48.1372 162.228 48.2876 162.228 48.4595C162.228 48.6626 162.287 48.8345 162.404 48.9751C162.525 49.1118 162.705 49.2446 162.943 49.3735C163.185 49.5024 163.486 49.6528 163.846 49.8247C164.283 50.0317 164.656 50.2485 164.965 50.4751C165.277 50.6978 165.518 50.9614 165.685 51.2661C165.853 51.5669 165.937 51.9419 165.937 52.3911ZM167.49 54.77V46.2036H169.307V54.77H167.49ZM174.768 54.77H172.951V47.7153H170.625V46.2036H177.094V47.7153H174.768V54.77ZM183.346 54.77H178.412V46.2036H183.346V47.6919H180.228V49.5728H183.129V51.061H180.228V53.27H183.346V54.77ZM183.246 43.561V43.6841C183.133 43.7935 182.984 43.9282 182.801 44.0884C182.617 44.2485 182.42 44.4165 182.209 44.5923C181.998 44.7642 181.791 44.9302 181.588 45.0903C181.385 45.2466 181.207 45.3774 181.055 45.4829H179.865V45.3247C179.994 45.1763 180.143 45.0005 180.31 44.7974C180.482 44.5903 180.652 44.3774 180.82 44.1587C180.988 43.9399 181.129 43.7407 181.242 43.561H183.246ZM191.883 54.77L189.82 48.0493H189.768C189.775 48.2095 189.787 48.4517 189.803 48.7759C189.822 49.0962 189.84 49.438 189.855 49.8013C189.871 50.1646 189.879 50.4927 189.879 50.7856V54.77H188.256V46.2036H190.728L192.756 52.7544H192.791L194.941 46.2036H197.414V54.77H195.721V50.7153C195.721 50.4458 195.725 50.1353 195.732 49.7837C195.744 49.4321 195.758 49.0981 195.773 48.7817C195.789 48.4614 195.801 48.2212 195.809 48.061H195.756L193.547 54.77H191.883ZM204.82 54.77L204.199 52.731H201.076L200.455 54.77H198.498L201.521 46.1685H203.742L206.777 54.77H204.82ZM203.766 51.2075L203.144 49.2153C203.105 49.0825 203.053 48.9126 202.986 48.7056C202.924 48.4946 202.859 48.2817 202.793 48.0669C202.73 47.8481 202.68 47.6587 202.641 47.4985C202.602 47.6587 202.547 47.8579 202.477 48.0962C202.41 48.3306 202.346 48.5532 202.283 48.7642C202.221 48.9751 202.176 49.1255 202.148 49.2153L201.533 51.2075H203.766ZM212.918 52.3911C212.918 52.8989 212.795 53.3403 212.549 53.7153C212.303 54.0903 211.943 54.3794 211.471 54.5825C211.002 54.7856 210.432 54.8872 209.76 54.8872C209.463 54.8872 209.172 54.8677 208.887 54.8286C208.605 54.7896 208.334 54.7329 208.072 54.6587C207.814 54.5806 207.568 54.4849 207.334 54.3716V52.6841C207.74 52.8638 208.162 53.0259 208.6 53.1704C209.037 53.3149 209.471 53.3872 209.9 53.3872C210.197 53.3872 210.435 53.3481 210.615 53.27C210.799 53.1919 210.932 53.0845 211.014 52.9478C211.096 52.811 211.137 52.6548 211.137 52.479C211.137 52.2642 211.064 52.0806 210.92 51.9282C210.775 51.7759 210.576 51.6333 210.322 51.5005C210.072 51.3677 209.789 51.2251 209.473 51.0728C209.273 50.979 209.057 50.8657 208.822 50.7329C208.588 50.5962 208.365 50.4302 208.154 50.2349C207.943 50.0396 207.769 49.8032 207.633 49.5259C207.5 49.2446 207.434 48.9087 207.434 48.5181C207.434 48.0063 207.551 47.5688 207.785 47.2056C208.019 46.8423 208.353 46.5649 208.787 46.3735C209.225 46.1782 209.74 46.0806 210.334 46.0806C210.779 46.0806 211.203 46.1333 211.605 46.2388C212.012 46.3403 212.435 46.4888 212.877 46.6841L212.291 48.0962C211.896 47.936 211.543 47.813 211.23 47.7271C210.918 47.6372 210.6 47.5923 210.275 47.5923C210.049 47.5923 209.855 47.6294 209.695 47.7036C209.535 47.7739 209.414 47.8755 209.332 48.0083C209.25 48.1372 209.209 48.2876 209.209 48.4595C209.209 48.6626 209.268 48.8345 209.385 48.9751C209.506 49.1118 209.685 49.2446 209.924 49.3735C210.166 49.5024 210.467 49.6528 210.826 49.8247C211.264 50.0317 211.637 50.2485 211.945 50.4751C212.258 50.6978 212.498 50.9614 212.666 51.2661C212.834 51.5669 212.918 51.9419 212.918 52.3911ZM219.527 52.3911C219.527 52.8989 219.404 53.3403 219.158 53.7153C218.912 54.0903 218.553 54.3794 218.08 54.5825C217.611 54.7856 217.041 54.8872 216.369 54.8872C216.072 54.8872 215.781 54.8677 215.496 54.8286C215.215 54.7896 214.943 54.7329 214.682 54.6587C214.424 54.5806 214.178 54.4849 213.943 54.3716V52.6841C214.35 52.8638 214.771 53.0259 215.209 53.1704C215.646 53.3149 216.08 53.3872 216.51 53.3872C216.807 53.3872 217.045 53.3481 217.225 53.27C217.408 53.1919 217.541 53.0845 217.623 52.9478C217.705 52.811 217.746 52.6548 217.746 52.479C217.746 52.2642 217.674 52.0806 217.529 51.9282C217.385 51.7759 217.185 51.6333 216.932 51.5005C216.682 51.3677 216.398 51.2251 216.082 51.0728C215.883 50.979 215.666 50.8657 215.432 50.7329C215.197 50.5962 214.975 50.4302 214.764 50.2349C214.553 50.0396 214.379 49.8032 214.242 49.5259C214.109 49.2446 214.043 48.9087 214.043 48.5181C214.043 48.0063 214.16 47.5688 214.394 47.2056C214.629 46.8423 214.963 46.5649 215.396 46.3735C215.834 46.1782 216.35 46.0806 216.943 46.0806C217.389 46.0806 217.812 46.1333 218.215 46.2388C218.621 46.3403 219.045 46.4888 219.486 46.6841L218.9 48.0962C218.506 47.936 218.152 47.813 217.84 47.7271C217.527 47.6372 217.209 47.5923 216.885 47.5923C216.658 47.5923 216.465 47.6294 216.305 47.7036C216.144 47.7739 216.023 47.8755 215.941 48.0083C215.859 48.1372 215.818 48.2876 215.818 48.4595C215.818 48.6626 215.877 48.8345 215.994 48.9751C216.115 49.1118 216.295 49.2446 216.533 49.3735C216.775 49.5024 217.076 49.6528 217.435 49.8247C217.873 50.0317 218.246 50.2485 218.555 50.4751C218.867 50.6978 219.107 50.9614 219.275 51.2661C219.443 51.5669 219.527 51.9419 219.527 52.3911ZM221.08 54.77V46.2036H222.896V54.77H221.08ZM231.773 46.2036L228.861 54.77H226.881L223.975 46.2036H225.809L227.42 51.3013C227.447 51.3872 227.492 51.5493 227.555 51.7876C227.617 52.022 227.68 52.272 227.742 52.5376C227.809 52.7993 227.853 53.0161 227.877 53.188C227.9 53.0161 227.941 52.7993 228 52.5376C228.062 52.2759 228.123 52.0278 228.182 51.7935C228.244 51.5552 228.289 51.3911 228.316 51.3013L229.939 46.2036H231.773ZM237.791 54.77H232.857V46.2036H237.791V47.6919H234.674V49.5728H237.574V51.061H234.674V53.27H237.791V54.77Z"
            fill="white"/>
        <rect width="249.134" height="36.6374" transform="translate(62.418 141.912)" fill="#F0B323"/>
        <path
            d="M163.044 162.303C163.044 162.811 162.921 163.252 162.675 163.627C162.429 164.002 162.07 164.292 161.597 164.495C161.128 164.698 160.558 164.799 159.886 164.799C159.589 164.799 159.298 164.78 159.013 164.741C158.732 164.702 158.46 164.645 158.198 164.571C157.941 164.493 157.695 164.397 157.46 164.284V162.596C157.866 162.776 158.288 162.938 158.726 163.083C159.163 163.227 159.597 163.299 160.027 163.299C160.323 163.299 160.562 163.26 160.741 163.182C160.925 163.104 161.058 162.997 161.14 162.86C161.222 162.723 161.263 162.567 161.263 162.391C161.263 162.176 161.191 161.993 161.046 161.84C160.902 161.688 160.702 161.545 160.448 161.413C160.198 161.28 159.915 161.137 159.599 160.985C159.4 160.891 159.183 160.778 158.948 160.645C158.714 160.508 158.491 160.342 158.28 160.147C158.07 159.952 157.896 159.715 157.759 159.438C157.626 159.157 157.56 158.821 157.56 158.43C157.56 157.918 157.677 157.481 157.911 157.118C158.146 156.754 158.48 156.477 158.913 156.286C159.351 156.09 159.866 155.993 160.46 155.993C160.905 155.993 161.329 156.045 161.732 156.151C162.138 156.252 162.562 156.401 163.003 156.596L162.417 158.008C162.023 157.848 161.669 157.725 161.357 157.639C161.044 157.549 160.726 157.504 160.402 157.504C160.175 157.504 159.982 157.542 159.821 157.616C159.661 157.686 159.54 157.788 159.458 157.92C159.376 158.049 159.335 158.2 159.335 158.372C159.335 158.575 159.394 158.747 159.511 158.887C159.632 159.024 159.812 159.157 160.05 159.286C160.292 159.415 160.593 159.565 160.952 159.737C161.39 159.944 161.763 160.161 162.071 160.387C162.384 160.61 162.624 160.874 162.792 161.178C162.96 161.479 163.044 161.854 163.044 162.303ZM171.57 156.116V161.659C171.57 162.249 171.439 162.782 171.177 163.258C170.919 163.731 170.527 164.106 169.999 164.383C169.476 164.661 168.816 164.799 168.019 164.799C166.886 164.799 166.023 164.51 165.429 163.932C164.835 163.354 164.538 162.588 164.538 161.635V156.116H166.349V161.36C166.349 162.067 166.493 162.563 166.782 162.848C167.071 163.133 167.499 163.276 168.066 163.276C168.464 163.276 168.786 163.208 169.032 163.071C169.282 162.934 169.466 162.723 169.583 162.438C169.7 162.153 169.759 161.79 169.759 161.348V156.116H171.57ZM176.163 156.116C176.941 156.116 177.581 156.209 178.085 156.397C178.593 156.584 178.97 156.868 179.216 157.247C179.462 157.625 179.585 158.104 179.585 158.682C179.585 159.073 179.511 159.415 179.362 159.708C179.214 160 179.019 160.249 178.777 160.452C178.534 160.655 178.273 160.821 177.991 160.95L180.511 164.682H178.495L176.45 161.395H175.484V164.682H173.667V156.116H176.163ZM176.034 157.604H175.484V159.918H176.07C176.671 159.918 177.101 159.819 177.359 159.62C177.62 159.417 177.751 159.12 177.751 158.729C177.751 158.323 177.611 158.034 177.329 157.862C177.052 157.69 176.62 157.604 176.034 157.604ZM184.325 156.116C185.431 156.116 186.237 156.354 186.745 156.831C187.253 157.303 187.507 157.956 187.507 158.788C187.507 159.163 187.45 159.522 187.337 159.866C187.224 160.206 187.038 160.508 186.78 160.774C186.527 161.04 186.187 161.25 185.761 161.407C185.335 161.559 184.81 161.635 184.185 161.635H183.405V164.682H181.589V156.116H184.325ZM184.232 157.604H183.405V160.147H184.003C184.343 160.147 184.638 160.102 184.888 160.012C185.138 159.922 185.331 159.782 185.468 159.59C185.605 159.399 185.673 159.153 185.673 158.852C185.673 158.43 185.556 158.118 185.321 157.915C185.087 157.708 184.724 157.604 184.232 157.604ZM196.9 160.387C196.9 161.047 196.818 161.649 196.654 162.192C196.489 162.731 196.239 163.196 195.904 163.586C195.571 163.977 195.15 164.278 194.638 164.489C194.126 164.696 193.521 164.799 192.821 164.799C192.122 164.799 191.517 164.696 191.005 164.489C190.493 164.278 190.07 163.977 189.734 163.586C189.402 163.196 189.154 162.729 188.989 162.186C188.825 161.643 188.743 161.04 188.743 160.375C188.743 159.489 188.888 158.717 189.177 158.061C189.47 157.401 189.919 156.889 190.525 156.526C191.13 156.163 191.9 155.981 192.833 155.981C193.763 155.981 194.527 156.163 195.124 156.526C195.726 156.889 196.171 157.401 196.46 158.061C196.753 158.721 196.9 159.497 196.9 160.387ZM190.648 160.387C190.648 160.985 190.722 161.5 190.87 161.934C191.023 162.364 191.259 162.696 191.579 162.93C191.9 163.161 192.314 163.276 192.821 163.276C193.337 163.276 193.755 163.161 194.075 162.93C194.396 162.696 194.628 162.364 194.773 161.934C194.921 161.5 194.995 160.985 194.995 160.387C194.995 159.489 194.827 158.782 194.491 158.266C194.155 157.75 193.603 157.493 192.833 157.493C192.321 157.493 191.904 157.61 191.579 157.844C191.259 158.075 191.023 158.407 190.87 158.84C190.722 159.27 190.648 159.786 190.648 160.387ZM198.675 164.682V156.116H200.491V164.682H198.675ZM209.755 160.317C209.755 161.282 209.57 162.088 209.198 162.737C208.831 163.381 208.298 163.868 207.599 164.196C206.9 164.52 206.058 164.682 205.073 164.682H202.648V156.116H205.337C206.236 156.116 207.015 156.276 207.675 156.596C208.335 156.913 208.847 157.383 209.21 158.008C209.573 158.629 209.755 159.399 209.755 160.317ZM207.868 160.364C207.868 159.731 207.775 159.211 207.587 158.805C207.404 158.395 207.13 158.092 206.767 157.897C206.407 157.702 205.962 157.604 205.431 157.604H204.464V163.182H205.243C206.13 163.182 206.788 162.946 207.218 162.473C207.652 162 207.868 161.297 207.868 160.364ZM216.587 162.303C216.587 162.811 216.464 163.252 216.218 163.627C215.972 164.002 215.612 164.292 215.14 164.495C214.671 164.698 214.101 164.799 213.429 164.799C213.132 164.799 212.841 164.78 212.556 164.741C212.275 164.702 212.003 164.645 211.741 164.571C211.484 164.493 211.237 164.397 211.003 164.284V162.596C211.409 162.776 211.831 162.938 212.269 163.083C212.706 163.227 213.14 163.299 213.57 163.299C213.866 163.299 214.105 163.26 214.284 163.182C214.468 163.104 214.601 162.997 214.683 162.86C214.765 162.723 214.806 162.567 214.806 162.391C214.806 162.176 214.734 161.993 214.589 161.84C214.445 161.688 214.245 161.545 213.991 161.413C213.741 161.28 213.458 161.137 213.142 160.985C212.943 160.891 212.726 160.778 212.491 160.645C212.257 160.508 212.034 160.342 211.823 160.147C211.612 159.952 211.439 159.715 211.302 159.438C211.169 159.157 211.103 158.821 211.103 158.43C211.103 157.918 211.22 157.481 211.454 157.118C211.689 156.754 212.023 156.477 212.456 156.286C212.894 156.09 213.409 155.993 214.003 155.993C214.448 155.993 214.872 156.045 215.275 156.151C215.681 156.252 216.105 156.401 216.546 156.596L215.96 158.008C215.566 157.848 215.212 157.725 214.9 157.639C214.587 157.549 214.269 157.504 213.945 157.504C213.718 157.504 213.525 157.542 213.364 157.616C213.204 157.686 213.083 157.788 213.001 157.92C212.919 158.049 212.878 158.2 212.878 158.372C212.878 158.575 212.937 158.747 213.054 158.887C213.175 159.024 213.355 159.157 213.593 159.286C213.835 159.415 214.136 159.565 214.495 159.737C214.933 159.944 215.306 160.161 215.614 160.387C215.927 160.61 216.167 160.874 216.335 161.178C216.503 161.479 216.587 161.854 216.587 162.303Z"
            fill="white"/>
    </g>
    <path
        d="M5.18754 234.75L3.80473 234.75L3.80473 229.236C3.80473 229.053 3.80668 228.869 3.81058 228.686C3.81449 228.502 3.8184 228.322 3.8223 228.146C3.83012 227.971 3.83988 227.803 3.8516 227.643C3.76957 227.732 3.66801 227.83 3.54691 227.936C3.42973 228.041 3.30473 228.15 3.17191 228.264L2.18754 229.049L1.49613 228.176L4.0391 226.184L5.18754 226.184L5.18754 234.75ZM10.8946 226.066C11.3907 226.066 11.8379 226.145 12.2364 226.301C12.6348 226.453 12.9512 226.682 13.1856 226.986C13.42 227.291 13.5371 227.668 13.5371 228.117C13.5371 228.465 13.4649 228.768 13.3204 229.025C13.1797 229.283 12.9883 229.51 12.7461 229.705C12.5039 229.896 12.2325 230.066 11.9317 230.215C12.2676 230.379 12.5762 230.568 12.8575 230.783C13.1426 230.994 13.3711 231.242 13.543 231.527C13.7188 231.813 13.8067 232.146 13.8067 232.529C13.8067 233.01 13.6836 233.426 13.4375 233.777C13.1954 234.125 12.8575 234.395 12.4239 234.586C11.9903 234.773 11.4844 234.867 10.9063 234.867C10.2852 234.867 9.7559 234.775 9.3184 234.592C8.8809 234.408 8.54887 234.146 8.3223 233.807C8.09574 233.463 7.98246 233.053 7.98246 232.576C7.98246 232.182 8.06058 231.84 8.21683 231.551C8.37308 231.262 8.58207 231.012 8.84379 230.801C9.10941 230.59 9.40043 230.412 9.71683 230.268C9.4473 230.107 9.20121 229.928 8.97855 229.729C8.7559 229.525 8.57816 229.293 8.44535 229.031C8.31644 228.766 8.25199 228.459 8.25199 228.111C8.25199 227.666 8.37113 227.293 8.60941 226.992C8.84769 226.688 9.16605 226.457 9.56449 226.301C9.96683 226.145 10.4102 226.066 10.8946 226.066ZM9.29496 232.523C9.29496 232.898 9.42777 233.207 9.6934 233.449C9.95902 233.691 10.3555 233.813 10.8829 233.813C11.4063 233.813 11.8047 233.693 12.0782 233.455C12.3516 233.217 12.4883 232.902 12.4883 232.512C12.4883 232.262 12.418 232.041 12.2774 231.85C12.1407 231.658 11.9551 231.488 11.7207 231.34C11.4903 231.188 11.2344 231.047 10.9532 230.918L10.7657 230.842C10.461 230.971 10.1993 231.117 9.98051 231.281C9.76176 231.441 9.59183 231.623 9.47074 231.826C9.35355 232.029 9.29496 232.262 9.29496 232.523ZM10.8829 227.127C10.5039 227.127 10.1914 227.221 9.94535 227.408C9.70316 227.592 9.58207 227.857 9.58207 228.205C9.58207 228.451 9.64066 228.662 9.75785 228.838C9.87894 229.014 10.0411 229.166 10.2442 229.295C10.4473 229.42 10.6719 229.537 10.918 229.646C11.1563 229.541 11.3711 229.426 11.5625 229.301C11.7579 229.172 11.9121 229.02 12.0254 228.844C12.1426 228.664 12.2012 228.449 12.2012 228.199C12.2012 227.855 12.0782 227.592 11.8321 227.408C11.5899 227.221 11.2735 227.127 10.8829 227.127ZM16.7071 233.355L16.7891 233.49C16.7188 233.771 16.6289 234.074 16.5196 234.398C16.4102 234.723 16.2911 235.047 16.1621 235.371C16.0332 235.699 15.9024 236.008 15.7696 236.297L14.7618 236.297C14.8438 235.98 14.9219 235.648 14.9961 235.301C15.0743 234.957 15.1446 234.617 15.2071 234.281C15.2735 233.941 15.3262 233.633 15.3653 233.355L16.7071 233.355ZM21.0547 229.395C21.6055 229.395 22.0899 229.494 22.5079 229.693C22.9297 229.889 23.2579 230.178 23.4922 230.561C23.7266 230.939 23.8438 231.404 23.8438 231.955C23.8438 232.557 23.7168 233.076 23.4629 233.514C23.209 233.947 22.836 234.281 22.3438 234.516C21.8516 234.75 21.252 234.867 20.545 234.867C20.0957 234.867 19.6758 234.828 19.2852 234.75C18.8985 234.672 18.5645 234.555 18.2832 234.398L18.2832 233.156C18.5762 233.32 18.9278 233.455 19.3379 233.561C19.7481 233.662 20.1407 233.713 20.5157 233.713C20.9141 233.713 21.2559 233.654 21.5411 233.537C21.8262 233.42 22.045 233.24 22.1973 232.998C22.3536 232.756 22.4317 232.449 22.4317 232.078C22.4317 231.586 22.2735 231.207 21.9571 230.941C21.6446 230.672 21.1543 230.537 20.4864 230.537C20.252 230.537 20.002 230.559 19.7364 230.602C19.4746 230.641 19.2559 230.684 19.0801 230.73L18.4766 230.373L18.7989 226.184L23.252 226.184L23.252 227.396L20.0118 227.396L19.8243 229.529C19.9649 229.498 20.1329 229.469 20.3282 229.441C20.5235 229.41 20.7657 229.395 21.0547 229.395Z"
        fill="#4E5C7F"/>
    <path
        d="M5.18754 263.891L3.80473 263.891L3.80473 258.377C3.80473 258.193 3.80668 258.01 3.81058 257.826C3.81449 257.643 3.8184 257.463 3.8223 257.287C3.83012 257.111 3.83988 256.943 3.8516 256.783C3.76957 256.873 3.66801 256.971 3.54691 257.076C3.42973 257.182 3.30473 257.291 3.17191 257.404L2.18754 258.189L1.49613 257.316L4.0391 255.324L5.18754 255.324L5.18754 263.891ZM8.01762 260.24C8.01762 259.736 8.05277 259.24 8.12308 258.752C8.1973 258.264 8.3223 257.807 8.49808 257.381C8.67387 256.955 8.91605 256.58 9.22465 256.256C9.53715 255.932 9.92973 255.678 10.4024 255.494C10.875 255.307 11.4434 255.213 12.1075 255.213C12.2793 255.213 12.4727 255.221 12.6875 255.236C12.9024 255.252 13.0801 255.277 13.2207 255.313L13.2207 256.455C13.0684 256.412 12.9004 256.379 12.7168 256.355C12.5371 256.332 12.3575 256.32 12.1778 256.32C11.459 256.32 10.8985 256.457 10.4961 256.73C10.0938 257 9.80668 257.371 9.6348 257.844C9.46293 258.313 9.36332 258.85 9.33598 259.455L9.40629 259.455C9.52348 259.26 9.66996 259.086 9.84574 258.934C10.0215 258.781 10.2364 258.66 10.4903 258.57C10.7442 258.477 11.0391 258.43 11.375 258.43C11.875 258.43 12.3106 258.535 12.6817 258.746C13.0528 258.953 13.3379 259.254 13.5371 259.648C13.7403 260.043 13.8418 260.521 13.8418 261.084C13.8418 261.689 13.7266 262.211 13.4961 262.648C13.2696 263.086 12.9454 263.422 12.5235 263.656C12.1055 263.891 11.6075 264.008 11.0293 264.008C10.6036 264.008 10.2071 263.93 9.83988 263.773C9.4766 263.617 9.15824 263.383 8.8848 263.07C8.61137 262.758 8.39848 262.367 8.24613 261.898C8.09379 261.426 8.01762 260.873 8.01762 260.24ZM11.0059 262.871C11.4512 262.871 11.8086 262.727 12.0782 262.438C12.3516 262.145 12.4883 261.697 12.4883 261.096C12.4883 260.607 12.3672 260.221 12.125 259.936C11.8868 259.65 11.5274 259.508 11.0469 259.508C10.7188 259.508 10.4317 259.578 10.1856 259.719C9.93949 259.859 9.74808 260.037 9.61137 260.252C9.47855 260.467 9.41215 260.686 9.41215 260.908C9.41215 261.135 9.44535 261.363 9.51176 261.594C9.57816 261.824 9.67777 262.037 9.81058 262.232C9.9434 262.424 10.1094 262.578 10.3086 262.695C10.5079 262.813 10.7403 262.871 11.0059 262.871ZM16.7071 262.496L16.7891 262.631C16.7188 262.912 16.6289 263.215 16.5196 263.539C16.4102 263.863 16.2911 264.188 16.1621 264.512C16.0332 264.84 15.9024 265.148 15.7696 265.438L14.7618 265.438C14.8438 265.121 14.9219 264.789 14.9961 264.441C15.0743 264.098 15.1446 263.758 15.2071 263.422C15.2735 263.082 15.3262 262.773 15.3653 262.496L16.7071 262.496ZM21.0547 258.535C21.6055 258.535 22.0899 258.635 22.5079 258.834C22.9297 259.029 23.2579 259.318 23.4922 259.701C23.7266 260.08 23.8438 260.545 23.8438 261.096C23.8438 261.697 23.7168 262.217 23.4629 262.654C23.209 263.088 22.836 263.422 22.3438 263.656C21.8516 263.891 21.252 264.008 20.545 264.008C20.0957 264.008 19.6758 263.969 19.2852 263.891C18.8985 263.813 18.5645 263.695 18.2832 263.539L18.2832 262.297C18.5762 262.461 18.9278 262.596 19.3379 262.701C19.7481 262.803 20.1407 262.854 20.5157 262.854C20.9141 262.854 21.2559 262.795 21.5411 262.678C21.8262 262.561 22.045 262.381 22.1973 262.139C22.3536 261.896 22.4317 261.59 22.4317 261.219C22.4317 260.727 22.2735 260.348 21.9571 260.082C21.6446 259.813 21.1543 259.678 20.4864 259.678C20.252 259.678 20.002 259.699 19.7364 259.742C19.4746 259.781 19.2559 259.824 19.0801 259.871L18.4766 259.514L18.7989 255.324L23.252 255.324L23.252 256.537L20.0118 256.537L19.8243 258.67C19.9649 258.639 20.1329 258.609 20.3282 258.582C20.5235 258.551 20.7657 258.535 21.0547 258.535Z"
        fill="#4E5C7F"/>
    <path
        d="M16.7489 139.822C16.7489 140.209 16.6707 140.545 16.5145 140.83C16.3582 141.115 16.1434 141.35 15.8699 141.533C15.6004 141.713 15.2879 141.842 14.9324 141.92L14.9324 141.961C15.616 142.047 16.1317 142.262 16.4793 142.605C16.8309 142.949 17.0067 143.404 17.0067 143.971C17.0067 144.467 16.8875 144.91 16.6492 145.301C16.411 145.688 16.0457 145.992 15.5535 146.215C15.0614 146.438 14.4285 146.549 13.6551 146.549C13.1903 146.549 12.7586 146.512 12.3602 146.438C11.9656 146.363 11.5906 146.244 11.2352 146.08L11.2352 144.855C11.5985 145.035 11.9852 145.174 12.3953 145.271C12.8055 145.369 13.1942 145.418 13.5614 145.418C14.2762 145.418 14.786 145.285 15.0906 145.02C15.3953 144.75 15.5477 144.379 15.5477 143.906C15.5477 143.602 15.4676 143.352 15.3074 143.156C15.1512 142.961 14.9071 142.814 14.575 142.717C14.2469 142.619 13.8231 142.57 13.3035 142.57L12.5477 142.57L12.5477 141.463L13.3094 141.463C13.8055 141.463 14.2039 141.404 14.5047 141.287C14.8055 141.166 15.0223 141 15.1551 140.789C15.2918 140.578 15.3602 140.332 15.3602 140.051C15.3602 139.684 15.241 139.398 15.0028 139.195C14.7645 138.988 14.411 138.885 13.9422 138.885C13.6531 138.885 13.3895 138.918 13.1512 138.984C12.9168 139.051 12.7 139.135 12.5008 139.236C12.3016 139.338 12.1121 139.447 11.9324 139.564L11.2703 138.609C11.5946 138.367 11.9813 138.162 12.4305 137.994C12.8797 137.826 13.4031 137.742 14.0008 137.742C14.8797 137.742 15.5574 137.932 16.034 138.311C16.5106 138.686 16.7489 139.189 16.7489 139.822ZM23.9442 142.143C23.9442 142.834 23.8895 143.453 23.7801 144C23.6746 144.543 23.5067 145.004 23.2762 145.383C23.0457 145.762 22.7449 146.051 22.3739 146.25C22.0028 146.449 21.5535 146.549 21.0262 146.549C20.366 146.549 19.8211 146.375 19.3914 146.027C18.9617 145.676 18.6434 145.172 18.4364 144.516C18.2293 143.855 18.1258 143.064 18.1258 142.143C18.1258 141.221 18.2196 140.432 18.4071 139.775C18.5985 139.115 18.9071 138.609 19.3328 138.258C19.7586 137.906 20.3231 137.73 21.0262 137.73C21.6903 137.73 22.2371 137.906 22.6668 138.258C23.1004 138.605 23.4207 139.109 23.6278 139.77C23.8387 140.426 23.9442 141.217 23.9442 142.143ZM19.5145 142.143C19.5145 142.865 19.5614 143.469 19.6551 143.953C19.7528 144.438 19.9129 144.801 20.1356 145.043C20.3582 145.281 20.6551 145.4 21.0262 145.4C21.3973 145.4 21.6942 145.281 21.9168 145.043C22.1395 144.805 22.2996 144.443 22.3973 143.959C22.4989 143.475 22.5496 142.869 22.5496 142.143C22.5496 141.424 22.5008 140.822 22.4031 140.338C22.3055 139.854 22.1453 139.49 21.9227 139.248C21.7 139.002 21.4012 138.879 21.0262 138.879C20.6512 138.879 20.3524 139.002 20.1297 139.248C19.911 139.49 19.7528 139.854 19.6551 140.338C19.5614 140.822 19.5145 141.424 19.5145 142.143Z"
        fill="#4E5C7F"/>
    <path
        d="M16.7469 104.893C16.7469 105.28 16.6688 105.616 16.5125 105.901C16.3563 106.186 16.1414 106.421 15.868 106.604C15.5985 106.784 15.286 106.913 14.9305 106.991L14.9305 107.032C15.6141 107.118 16.1297 107.333 16.4774 107.677C16.8289 108.02 17.0047 108.475 17.0047 109.042C17.0047 109.538 16.8856 109.981 16.6473 110.372C16.409 110.759 16.0438 111.063 15.5516 111.286C15.0594 111.509 14.4266 111.62 13.6531 111.62C13.1883 111.62 12.7567 111.583 12.3582 111.509C11.9637 111.434 11.5887 111.315 11.2332 111.151L11.2332 109.927C11.5965 110.106 11.9832 110.245 12.3934 110.343C12.8035 110.44 13.1922 110.489 13.5594 110.489C14.2742 110.489 14.784 110.356 15.0887 110.091C15.3934 109.821 15.5457 109.45 15.5457 108.977C15.5457 108.673 15.4656 108.423 15.3055 108.227C15.1492 108.032 14.9051 107.885 14.5731 107.788C14.2449 107.69 13.8211 107.641 13.3016 107.641L12.5457 107.641L12.5457 106.534L13.3074 106.534C13.8035 106.534 14.202 106.475 14.5028 106.358C14.8035 106.237 15.0203 106.071 15.1531 105.86C15.2899 105.649 15.3582 105.403 15.3582 105.122C15.3582 104.755 15.2391 104.469 15.0008 104.266C14.7625 104.059 14.409 103.956 13.9403 103.956C13.6512 103.956 13.3875 103.989 13.1492 104.055C12.9149 104.122 12.6981 104.206 12.4989 104.307C12.2996 104.409 12.1102 104.518 11.9305 104.635L11.2684 103.68C11.5926 103.438 11.9793 103.233 12.4285 103.065C12.8778 102.897 13.4012 102.813 13.9989 102.813C14.8778 102.813 15.5555 103.003 16.0321 103.382C16.5086 103.757 16.7469 104.26 16.7469 104.893ZM21.0535 106.147C21.6043 106.147 22.0887 106.247 22.5067 106.446C22.9285 106.641 23.2567 106.93 23.491 107.313C23.7254 107.692 23.8426 108.157 23.8426 108.708C23.8426 109.309 23.7156 109.829 23.4617 110.266C23.2078 110.7 22.8348 111.034 22.3426 111.268C21.8504 111.503 21.2508 111.62 20.5438 111.62C20.0946 111.62 19.6746 111.581 19.284 111.503C18.8973 111.425 18.5633 111.307 18.2821 111.151L18.2821 109.909C18.575 110.073 18.9266 110.208 19.3367 110.313C19.7469 110.415 20.1395 110.466 20.5145 110.466C20.9129 110.466 21.2547 110.407 21.5399 110.29C21.825 110.173 22.0438 109.993 22.1961 109.751C22.3524 109.509 22.4305 109.202 22.4305 108.831C22.4305 108.339 22.2723 107.96 21.9559 107.694C21.6434 107.425 21.1531 107.29 20.4852 107.29C20.2508 107.29 20.0008 107.311 19.7352 107.354C19.4735 107.393 19.2547 107.436 19.0789 107.483L18.4754 107.126L18.7977 102.936L23.2508 102.936L23.2508 104.149L20.0106 104.149L19.8231 106.282C19.9637 106.251 20.1317 106.221 20.327 106.194C20.5223 106.163 20.7645 106.147 21.0535 106.147Z"
        fill="#4E5C7F"/>
    <path
        d="M17.3875 72.4688L16.2274 72.4688L16.2274 74.3496L14.868 74.3496L14.868 72.4688L10.9715 72.4688L10.9715 71.4258L14.8856 65.7598L16.2274 65.7598L16.2274 71.3262L17.3875 71.3262L17.3875 72.4688ZM14.868 71.3262L14.868 69.1992C14.868 69.0234 14.8699 68.8457 14.8739 68.666C14.8817 68.4824 14.8895 68.3066 14.8973 68.1387C14.9051 67.9707 14.9129 67.8164 14.9207 67.6758C14.9285 67.5313 14.9344 67.4121 14.9383 67.3184L14.8914 67.3184C14.8172 67.4746 14.7352 67.6348 14.6453 67.7988C14.5555 67.959 14.4598 68.1152 14.3582 68.2676L12.2489 71.3262L14.868 71.3262ZM23.9442 70.0605C23.9442 70.752 23.8895 71.3711 23.7801 71.918C23.6746 72.4609 23.5067 72.9219 23.2762 73.3008C23.0457 73.6797 22.7449 73.9688 22.3739 74.168C22.0028 74.3672 21.5535 74.4668 21.0262 74.4668C20.366 74.4668 19.8211 74.293 19.3914 73.9453C18.9617 73.5938 18.6434 73.0898 18.4364 72.4336C18.2293 71.7734 18.1258 70.9824 18.1258 70.0605C18.1258 69.1387 18.2196 68.3496 18.4071 67.6934C18.5985 67.0332 18.9071 66.5273 19.3328 66.1758C19.7586 65.8242 20.3231 65.6484 21.0262 65.6484C21.6903 65.6484 22.2371 65.8242 22.6668 66.1758C23.1004 66.5234 23.4207 67.0273 23.6278 67.6875C23.8387 68.3438 23.9442 69.1348 23.9442 70.0605ZM19.5145 70.0605C19.5145 70.7832 19.5614 71.3867 19.6551 71.8711C19.7528 72.3555 19.9129 72.7188 20.1356 72.9609C20.3582 73.1992 20.6551 73.3184 21.0262 73.3184C21.3973 73.3184 21.6942 73.1992 21.9168 72.9609C22.1395 72.7227 22.2996 72.3613 22.3973 71.877C22.4989 71.3926 22.5496 70.7871 22.5496 70.0605C22.5496 69.3418 22.5008 68.7402 22.4031 68.2559C22.3055 67.7715 22.1453 67.4082 21.9227 67.166C21.7 66.9199 21.4012 66.7969 21.0262 66.7969C20.6512 66.7969 20.3524 66.9199 20.1297 67.166C19.911 67.4082 19.7528 67.7715 19.6551 68.2559C19.5614 68.7402 19.5145 69.3418 19.5145 70.0605Z"
        fill="#4E5C7F"/>
    <path
        d="M17.077 183.361L11.2762 183.361L11.2762 182.324L13.4969 180.074C13.9266 179.637 14.2801 179.26 14.5574 178.943C14.8348 178.623 15.0399 178.32 15.1727 178.035C15.3094 177.75 15.3778 177.439 15.3778 177.104C15.3778 176.689 15.2586 176.377 15.0203 176.166C14.7821 175.951 14.4676 175.844 14.077 175.844C13.7059 175.844 13.3621 175.918 13.0457 176.066C12.7332 176.211 12.409 176.418 12.0731 176.688L11.3172 175.779C11.5555 175.576 11.8094 175.391 12.0789 175.223C12.3524 175.055 12.6571 174.922 12.993 174.824C13.3289 174.723 13.7117 174.672 14.1414 174.672C14.6844 174.672 15.1531 174.77 15.5477 174.965C15.9422 175.156 16.2449 175.424 16.4559 175.768C16.6707 176.111 16.7781 176.512 16.7781 176.969C16.7781 177.43 16.6864 177.855 16.5028 178.246C16.3192 178.637 16.0574 179.023 15.7176 179.406C15.3778 179.785 14.9735 180.197 14.5047 180.643L13.0223 182.09L13.0223 182.154L17.077 182.154L17.077 183.361ZM21.0555 178.006C21.6063 178.006 22.0906 178.105 22.5086 178.305C22.9305 178.5 23.2586 178.789 23.493 179.172C23.7274 179.551 23.8446 180.016 23.8446 180.566C23.8446 181.168 23.7176 181.688 23.4637 182.125C23.2098 182.559 22.8367 182.893 22.3446 183.127C21.8524 183.361 21.2528 183.479 20.5457 183.479C20.0965 183.479 19.6766 183.439 19.286 183.361C18.8992 183.283 18.5653 183.166 18.284 183.01L18.284 181.768C18.577 181.932 18.9285 182.066 19.3387 182.172C19.7489 182.273 20.1414 182.324 20.5164 182.324C20.9149 182.324 21.2567 182.266 21.5418 182.148C21.827 182.031 22.0457 181.852 22.1981 181.609C22.3543 181.367 22.4324 181.061 22.4324 180.689C22.4324 180.197 22.2742 179.818 21.9578 179.553C21.6453 179.283 21.1551 179.148 20.4871 179.148C20.2528 179.148 20.0028 179.17 19.7371 179.213C19.4754 179.252 19.2567 179.295 19.0809 179.342L18.4774 178.984L18.7996 174.795L23.2528 174.795L23.2528 176.008L20.0125 176.008L19.825 178.141C19.9656 178.109 20.1336 178.08 20.3289 178.053C20.5242 178.021 20.7664 178.006 21.0555 178.006Z"
        fill="#4E5C7F"/>
    <path d="M40.4199 293L40.4199 33.0001" stroke="#4E5C7F" stroke-width="2.44249" stroke-linecap="round"/>
    <line x1="36.7056" y1="260.012" x2="44.0514" y2="260.012" stroke="#4E5C7F" stroke-width="2.44249"
          stroke-linecap="round"/>
    <line x1="36.7056" y1="230.646" x2="44.0514" y2="230.646" stroke="#4E5C7F" stroke-width="2.44249"
          stroke-linecap="round"/>
    <line x1="36.7056" y1="179.259" x2="44.0514" y2="179.259" stroke="#4E5C7F" stroke-width="2.44249"
          stroke-linecap="round"/>
    <line x1="36.7056" y1="142.552" x2="44.0514" y2="142.552" stroke="#4E5C7F" stroke-width="2.44249"
          stroke-linecap="round"/>
    <line x1="36.7056" y1="107.069" x2="44.0514" y2="107.069" stroke="#4E5C7F" stroke-width="2.44249"
          stroke-linecap="round"/>
    <line x1="36.7056" y1="70.3637" x2="44.0514" y2="70.3637" stroke="#4E5C7F" stroke-width="2.44249"
          stroke-linecap="round"/>
    <path
        d="M1.07812 13V4.43359H2.89453V13H1.07812ZM12.6504 13H10.3418L6.61523 6.51953H6.5625C6.57812 6.78906 6.5918 7.06055 6.60352 7.33398C6.61523 7.60742 6.62695 7.88086 6.63867 8.1543C6.65039 8.42383 6.66211 8.69531 6.67383 8.96875V13H5.05078V4.43359H7.3418L11.0625 10.8496H11.1035C11.0957 10.584 11.0859 10.3203 11.0742 10.0586C11.0625 9.79688 11.0508 9.53516 11.0391 9.27344C11.0312 9.01172 11.0234 8.75 11.0156 8.48828V4.43359H12.6504V13ZM21.9199 8.63477C21.9199 9.59961 21.7344 10.4062 21.3633 11.0547C20.9961 11.6992 20.4629 12.1855 19.7637 12.5137C19.0645 12.8379 18.2227 13 17.2383 13H14.8125V4.43359H17.502C18.4004 4.43359 19.1797 4.59375 19.8398 4.91406C20.5 5.23047 21.0117 5.70117 21.375 6.32617C21.7383 6.94727 21.9199 7.7168 21.9199 8.63477ZM20.0332 8.68164C20.0332 8.04883 19.9395 7.5293 19.752 7.12305C19.5684 6.71289 19.2949 6.41016 18.9316 6.21484C18.5723 6.01953 18.127 5.92188 17.5957 5.92188H16.6289V11.5H17.4082C18.2949 11.5 18.9531 11.2637 19.3828 10.791C19.8164 10.3184 20.0332 9.61523 20.0332 8.68164ZM23.6953 13V4.43359H25.5117V13H23.6953ZM31.3066 5.82227C30.959 5.82227 30.6504 5.89062 30.3809 6.02734C30.1152 6.16016 29.8906 6.35352 29.707 6.60742C29.5273 6.86133 29.3906 7.16797 29.2969 7.52734C29.2031 7.88672 29.1562 8.29102 29.1562 8.74023C29.1562 9.3457 29.2305 9.86328 29.3789 10.293C29.5312 10.7188 29.7656 11.0449 30.082 11.2715C30.3984 11.4941 30.8066 11.6055 31.3066 11.6055C31.6543 11.6055 32.002 11.5664 32.3496 11.4883C32.7012 11.4102 33.082 11.2988 33.4922 11.1543V12.6777C33.1133 12.834 32.7402 12.9453 32.373 13.0117C32.0059 13.082 31.5938 13.1172 31.1367 13.1172C30.2539 13.1172 29.5273 12.9355 28.957 12.5723C28.3906 12.2051 27.9707 11.6934 27.6973 11.0371C27.4238 10.377 27.2871 9.60742 27.2871 8.72852C27.2871 8.08008 27.375 7.48633 27.5508 6.94727C27.7266 6.4082 27.9844 5.94141 28.3242 5.54688C28.6641 5.15234 29.084 4.84766 29.584 4.63281C30.084 4.41797 30.6582 4.31055 31.3066 4.31055C31.7324 4.31055 32.1582 4.36523 32.584 4.47461C33.0137 4.58008 33.4238 4.72656 33.8145 4.91406L33.2285 6.39062C32.9082 6.23828 32.5859 6.10547 32.2617 5.99219C31.9375 5.87891 31.6191 5.82227 31.3066 5.82227ZM40.2539 13H35.3203V4.43359H40.2539V5.92188H37.1367V7.80273H40.0371V9.29102H37.1367V11.5H40.2539V13ZM52.2715 8.63477C52.2715 9.59961 52.0859 10.4062 51.7148 11.0547C51.3477 11.6992 50.8145 12.1855 50.1152 12.5137C49.416 12.8379 48.5742 13 47.5898 13H45.1641V4.43359H47.8535C48.752 4.43359 49.5312 4.59375 50.1914 4.91406C50.8516 5.23047 51.3633 5.70117 51.7266 6.32617C52.0898 6.94727 52.2715 7.7168 52.2715 8.63477ZM50.3848 8.68164C50.3848 8.04883 50.291 7.5293 50.1035 7.12305C49.9199 6.71289 49.6465 6.41016 49.2832 6.21484C48.9238 6.01953 48.4785 5.92188 47.9473 5.92188H46.9805V11.5H47.7598C48.6465 11.5 49.3047 11.2637 49.7344 10.791C50.168 10.3184 50.3848 9.61523 50.3848 8.68164ZM58.9805 13H54.0469V4.43359H58.9805V5.92188H55.8633V7.80273H58.7637V9.29102H55.8633V11.5H58.9805V13ZM67.5176 13L65.4551 6.2793H65.4023C65.4102 6.43945 65.4219 6.68164 65.4375 7.00586C65.457 7.32617 65.4746 7.66797 65.4902 8.03125C65.5059 8.39453 65.5137 8.72266 65.5137 9.01562V13H63.8906V4.43359H66.3633L68.3906 10.9844H68.4258L70.5762 4.43359H73.0488V13H71.3555V8.94531C71.3555 8.67578 71.3594 8.36523 71.3672 8.01367C71.3789 7.66211 71.3926 7.32812 71.4082 7.01172C71.4238 6.69141 71.4355 6.45117 71.4434 6.29102H71.3906L69.1816 13H67.5176ZM80.4551 13L79.834 10.9609H76.7109L76.0898 13H74.1328L77.1562 4.39844H79.377L82.4121 13H80.4551ZM79.4004 9.4375L78.7793 7.44531C78.7402 7.3125 78.6875 7.14258 78.6211 6.93555C78.5586 6.72461 78.4941 6.51172 78.4277 6.29688C78.3652 6.07812 78.3145 5.88867 78.2754 5.72852C78.2363 5.88867 78.1816 6.08789 78.1113 6.32617C78.0449 6.56055 77.9805 6.7832 77.918 6.99414C77.8555 7.20508 77.8105 7.35547 77.7832 7.44531L77.168 9.4375H79.4004ZM88.5527 10.6211C88.5527 11.1289 88.4297 11.5703 88.1836 11.9453C87.9375 12.3203 87.5781 12.6094 87.1055 12.8125C86.6367 13.0156 86.0664 13.1172 85.3945 13.1172C85.0977 13.1172 84.8066 13.0977 84.5215 13.0586C84.2402 13.0195 83.9688 12.9629 83.707 12.8887C83.4492 12.8105 83.2031 12.7148 82.9688 12.6016V10.9141C83.375 11.0938 83.7969 11.2559 84.2344 11.4004C84.6719 11.5449 85.1055 11.6172 85.5352 11.6172C85.832 11.6172 86.0703 11.5781 86.25 11.5C86.4336 11.4219 86.5664 11.3145 86.6484 11.1777C86.7305 11.041 86.7715 10.8848 86.7715 10.709C86.7715 10.4941 86.6992 10.3105 86.5547 10.1582C86.4102 10.0059 86.2109 9.86328 85.957 9.73047C85.707 9.59766 85.4238 9.45508 85.1074 9.30273C84.9082 9.20898 84.6914 9.0957 84.457 8.96289C84.2227 8.82617 84 8.66016 83.7891 8.46484C83.5781 8.26953 83.4043 8.0332 83.2676 7.75586C83.1348 7.47461 83.0684 7.13867 83.0684 6.74805C83.0684 6.23633 83.1855 5.79883 83.4199 5.43555C83.6543 5.07227 83.9883 4.79492 84.4219 4.60352C84.8594 4.4082 85.375 4.31055 85.9688 4.31055C86.4141 4.31055 86.8379 4.36328 87.2402 4.46875C87.6465 4.57031 88.0703 4.71875 88.5117 4.91406L87.9258 6.32617C87.5312 6.16602 87.1777 6.04297 86.8652 5.95703C86.5527 5.86719 86.2344 5.82227 85.9102 5.82227C85.6836 5.82227 85.4902 5.85938 85.3301 5.93359C85.1699 6.00391 85.0488 6.10547 84.9668 6.23828C84.8848 6.36719 84.8438 6.51758 84.8438 6.68945C84.8438 6.89258 84.9023 7.06445 85.0195 7.20508C85.1406 7.3418 85.3203 7.47461 85.5586 7.60352C85.8008 7.73242 86.1016 7.88281 86.4609 8.05469C86.8984 8.26172 87.2715 8.47852 87.5801 8.70508C87.8926 8.92773 88.1328 9.19141 88.3008 9.49609C88.4688 9.79688 88.5527 10.1719 88.5527 10.6211ZM95.1621 10.6211C95.1621 11.1289 95.0391 11.5703 94.793 11.9453C94.5469 12.3203 94.1875 12.6094 93.7148 12.8125C93.2461 13.0156 92.6758 13.1172 92.0039 13.1172C91.707 13.1172 91.416 13.0977 91.1309 13.0586C90.8496 13.0195 90.5781 12.9629 90.3164 12.8887C90.0586 12.8105 89.8125 12.7148 89.5781 12.6016V10.9141C89.9844 11.0938 90.4062 11.2559 90.8438 11.4004C91.2812 11.5449 91.7148 11.6172 92.1445 11.6172C92.4414 11.6172 92.6797 11.5781 92.8594 11.5C93.043 11.4219 93.1758 11.3145 93.2578 11.1777C93.3398 11.041 93.3809 10.8848 93.3809 10.709C93.3809 10.4941 93.3086 10.3105 93.1641 10.1582C93.0195 10.0059 92.8203 9.86328 92.5664 9.73047C92.3164 9.59766 92.0332 9.45508 91.7168 9.30273C91.5176 9.20898 91.3008 9.0957 91.0664 8.96289C90.832 8.82617 90.6094 8.66016 90.3984 8.46484C90.1875 8.26953 90.0137 8.0332 89.877 7.75586C89.7441 7.47461 89.6777 7.13867 89.6777 6.74805C89.6777 6.23633 89.7949 5.79883 90.0293 5.43555C90.2637 5.07227 90.5977 4.79492 91.0312 4.60352C91.4688 4.4082 91.9844 4.31055 92.5781 4.31055C93.0234 4.31055 93.4473 4.36328 93.8496 4.46875C94.2559 4.57031 94.6797 4.71875 95.1211 4.91406L94.5352 6.32617C94.1406 6.16602 93.7871 6.04297 93.4746 5.95703C93.1621 5.86719 92.8438 5.82227 92.5195 5.82227C92.293 5.82227 92.0996 5.85938 91.9395 5.93359C91.7793 6.00391 91.6582 6.10547 91.5762 6.23828C91.4941 6.36719 91.4531 6.51758 91.4531 6.68945C91.4531 6.89258 91.5117 7.06445 91.6289 7.20508C91.75 7.3418 91.9297 7.47461 92.168 7.60352C92.4102 7.73242 92.7109 7.88281 93.0703 8.05469C93.5078 8.26172 93.8809 8.47852 94.1895 8.70508C94.502 8.92773 94.7422 9.19141 94.9102 9.49609C95.0781 9.79688 95.1621 10.1719 95.1621 10.6211ZM101.648 13H96.7148V4.43359H101.648V5.92188H98.5312V7.80273H101.432V9.29102H98.5312V11.5H101.648V13ZM110.197 5.82227C109.85 5.82227 109.541 5.89062 109.271 6.02734C109.006 6.16016 108.781 6.35352 108.598 6.60742C108.418 6.86133 108.281 7.16797 108.188 7.52734C108.094 7.88672 108.047 8.29102 108.047 8.74023C108.047 9.3457 108.121 9.86328 108.27 10.293C108.422 10.7188 108.656 11.0449 108.973 11.2715C109.289 11.4941 109.697 11.6055 110.197 11.6055C110.545 11.6055 110.893 11.5664 111.24 11.4883C111.592 11.4102 111.973 11.2988 112.383 11.1543V12.6777C112.004 12.834 111.631 12.9453 111.264 13.0117C110.896 13.082 110.484 13.1172 110.027 13.1172C109.145 13.1172 108.418 12.9355 107.848 12.5723C107.281 12.2051 106.861 11.6934 106.588 11.0371C106.314 10.377 106.178 9.60742 106.178 8.72852C106.178 8.08008 106.266 7.48633 106.441 6.94727C106.617 6.4082 106.875 5.94141 107.215 5.54688C107.555 5.15234 107.975 4.84766 108.475 4.63281C108.975 4.41797 109.549 4.31055 110.197 4.31055C110.623 4.31055 111.049 4.36523 111.475 4.47461C111.904 4.58008 112.314 4.72656 112.705 4.91406L112.119 6.39062C111.799 6.23828 111.477 6.10547 111.152 5.99219C110.828 5.87891 110.51 5.82227 110.197 5.82227ZM121.986 8.70508C121.986 9.36523 121.904 9.9668 121.74 10.5098C121.576 11.0488 121.326 11.5137 120.99 11.9043C120.658 12.2949 120.236 12.5957 119.725 12.8066C119.213 13.0137 118.607 13.1172 117.908 13.1172C117.209 13.1172 116.604 13.0137 116.092 12.8066C115.58 12.5957 115.156 12.2949 114.82 11.9043C114.488 11.5137 114.24 11.0469 114.076 10.5039C113.912 9.96094 113.83 9.35742 113.83 8.69336C113.83 7.80664 113.975 7.03516 114.264 6.37891C114.557 5.71875 115.006 5.20703 115.611 4.84375C116.217 4.48047 116.986 4.29883 117.92 4.29883C118.85 4.29883 119.613 4.48047 120.211 4.84375C120.812 5.20703 121.258 5.71875 121.547 6.37891C121.84 7.03906 121.986 7.81445 121.986 8.70508ZM115.734 8.70508C115.734 9.30273 115.809 9.81836 115.957 10.252C116.109 10.6816 116.346 11.0137 116.666 11.248C116.986 11.4785 117.4 11.5938 117.908 11.5938C118.424 11.5938 118.842 11.4785 119.162 11.248C119.482 11.0137 119.715 10.6816 119.859 10.252C120.008 9.81836 120.082 9.30273 120.082 8.70508C120.082 7.80664 119.914 7.09961 119.578 6.58398C119.242 6.06836 118.689 5.81055 117.92 5.81055C117.408 5.81055 116.99 5.92773 116.666 6.16211C116.346 6.39258 116.109 6.72461 115.957 7.1582C115.809 7.58789 115.734 8.10352 115.734 8.70508ZM126.258 4.43359C127.035 4.43359 127.676 4.52734 128.18 4.71484C128.688 4.90234 129.064 5.18555 129.311 5.56445C129.557 5.94336 129.68 6.42188 129.68 7C129.68 7.39062 129.605 7.73242 129.457 8.02539C129.309 8.31836 129.113 8.56641 128.871 8.76953C128.629 8.97266 128.367 9.13867 128.086 9.26758L130.605 13H128.59L126.545 9.71289H125.578V13H123.762V4.43359H126.258ZM126.129 5.92188H125.578V8.23633H126.164C126.766 8.23633 127.195 8.13672 127.453 7.9375C127.715 7.73438 127.846 7.4375 127.846 7.04688C127.846 6.64062 127.705 6.35156 127.424 6.17969C127.146 6.00781 126.715 5.92188 126.129 5.92188ZM134.42 4.43359C135.525 4.43359 136.332 4.67188 136.84 5.14844C137.348 5.62109 137.602 6.27344 137.602 7.10547C137.602 7.48047 137.545 7.83984 137.432 8.18359C137.318 8.52344 137.133 8.82617 136.875 9.0918C136.621 9.35742 136.281 9.56836 135.855 9.72461C135.43 9.87695 134.904 9.95312 134.279 9.95312H133.5V13H131.684V4.43359H134.42ZM134.326 5.92188H133.5V8.46484H134.098C134.438 8.46484 134.732 8.41992 134.982 8.33008C135.232 8.24023 135.426 8.09961 135.562 7.9082C135.699 7.7168 135.768 7.4707 135.768 7.16992C135.768 6.74805 135.65 6.43555 135.416 6.23242C135.182 6.02539 134.818 5.92188 134.326 5.92188ZM146.994 8.70508C146.994 9.36523 146.912 9.9668 146.748 10.5098C146.584 11.0488 146.334 11.5137 145.998 11.9043C145.666 12.2949 145.244 12.5957 144.732 12.8066C144.221 13.0137 143.615 13.1172 142.916 13.1172C142.217 13.1172 141.611 13.0137 141.1 12.8066C140.588 12.5957 140.164 12.2949 139.828 11.9043C139.496 11.5137 139.248 11.0469 139.084 10.5039C138.92 9.96094 138.838 9.35742 138.838 8.69336C138.838 7.80664 138.982 7.03516 139.271 6.37891C139.564 5.71875 140.014 5.20703 140.619 4.84375C141.225 4.48047 141.994 4.29883 142.928 4.29883C143.857 4.29883 144.621 4.48047 145.219 4.84375C145.82 5.20703 146.266 5.71875 146.555 6.37891C146.848 7.03906 146.994 7.81445 146.994 8.70508ZM140.742 8.70508C140.742 9.30273 140.816 9.81836 140.965 10.252C141.117 10.6816 141.354 11.0137 141.674 11.248C141.994 11.4785 142.408 11.5938 142.916 11.5938C143.432 11.5938 143.85 11.4785 144.17 11.248C144.49 11.0137 144.723 10.6816 144.867 10.252C145.016 9.81836 145.09 9.30273 145.09 8.70508C145.09 7.80664 144.922 7.09961 144.586 6.58398C144.25 6.06836 143.697 5.81055 142.928 5.81055C142.416 5.81055 141.998 5.92773 141.674 6.16211C141.354 6.39258 141.117 6.72461 140.965 7.1582C140.816 7.58789 140.742 8.10352 140.742 8.70508ZM151.266 4.43359C152.043 4.43359 152.684 4.52734 153.188 4.71484C153.695 4.90234 154.072 5.18555 154.318 5.56445C154.564 5.94336 154.688 6.42188 154.688 7C154.688 7.39062 154.613 7.73242 154.465 8.02539C154.316 8.31836 154.121 8.56641 153.879 8.76953C153.637 8.97266 153.375 9.13867 153.094 9.26758L155.613 13H153.598L151.553 9.71289H150.586V13H148.77V4.43359H151.266ZM151.137 5.92188H150.586V8.23633H151.172C151.773 8.23633 152.203 8.13672 152.461 7.9375C152.723 7.73438 152.854 7.4375 152.854 7.04688C152.854 6.64062 152.713 6.35156 152.432 6.17969C152.154 6.00781 151.723 5.92188 151.137 5.92188ZM161.625 13H156.691V4.43359H161.625V5.92188H158.508V7.80273H161.408V9.29102H158.508V11.5H161.625V13ZM163.418 13V4.43359H165.234V11.5H168.709V13H163.418ZM170.203 13V4.43359H172.02V11.5H175.494V13H170.203ZM181.922 13H176.988V4.43359H181.922V5.92188H178.805V7.80273H181.705V9.29102H178.805V11.5H181.922V13ZM186.234 9.71289C186.234 9.06055 186.297 8.42383 186.422 7.80273C186.547 7.17773 186.74 6.58203 187.002 6.01562C187.264 5.44531 187.596 4.91797 187.998 4.43359H189.463C188.916 5.18359 188.5 6.01172 188.215 6.91797C187.934 7.82422 187.793 8.75195 187.793 9.70117C187.793 10.3184 187.855 10.9336 187.98 11.5469C188.105 12.1562 188.291 12.7441 188.537 13.3105C188.787 13.877 189.092 14.4062 189.451 14.8984H187.998C187.596 14.4297 187.264 13.916 187.002 13.3574C186.74 12.8027 186.547 12.2188 186.422 11.6055C186.297 10.9883 186.234 10.3574 186.234 9.71289ZM197.789 13H195.727L193.482 9.39062L192.715 9.94141V13H190.898V4.43359H192.715V8.35352C192.836 8.18555 192.955 8.01758 193.072 7.84961C193.189 7.68164 193.309 7.51367 193.43 7.3457L195.75 4.43359H197.766L194.777 8.22461L197.789 13ZM202.119 8.18945H205.518V12.6309C205.068 12.7793 204.602 12.8984 204.117 12.9883C203.633 13.0742 203.084 13.1172 202.471 13.1172C201.619 13.1172 200.896 12.9492 200.303 12.6133C199.709 12.2773 199.258 11.7812 198.949 11.125C198.641 10.4688 198.486 9.66211 198.486 8.70508C198.486 7.80664 198.658 7.0293 199.002 6.37305C199.35 5.7168 199.855 5.20898 200.52 4.84961C201.188 4.49023 202.002 4.31055 202.963 4.31055C203.416 4.31055 203.863 4.35938 204.305 4.45703C204.746 4.55469 205.146 4.68164 205.506 4.83789L204.902 6.29102C204.641 6.1582 204.342 6.04688 204.006 5.95703C203.67 5.86719 203.318 5.82227 202.951 5.82227C202.424 5.82227 201.965 5.94336 201.574 6.18555C201.188 6.42773 200.887 6.76758 200.672 7.20508C200.461 7.63867 200.355 8.15039 200.355 8.74023C200.355 9.29883 200.432 9.79492 200.584 10.2285C200.736 10.6582 200.977 10.9961 201.305 11.2422C201.633 11.4844 202.061 11.6055 202.588 11.6055C202.846 11.6055 203.062 11.5938 203.238 11.5703C203.418 11.543 203.586 11.5156 203.742 11.4883V9.70117H202.119V8.18945ZM211.383 4.43359L208.189 13H206.566L209.76 4.43359H211.383ZM216.146 13L214.084 6.2793H214.031C214.039 6.43945 214.051 6.68164 214.066 7.00586C214.086 7.32617 214.104 7.66797 214.119 8.03125C214.135 8.39453 214.143 8.72266 214.143 9.01562V13H212.52V4.43359H214.992L217.02 10.9844H217.055L219.205 4.43359H221.678V13H219.984V8.94531C219.984 8.67578 219.988 8.36523 219.996 8.01367C220.008 7.66211 220.021 7.32812 220.037 7.01172C220.053 6.69141 220.064 6.45117 220.072 6.29102H220.02L217.811 13H216.146ZM229.23 13H223.242V11.7402L225.393 9.56641C225.826 9.12109 226.174 8.75 226.436 8.45312C226.701 8.15234 226.893 7.87891 227.01 7.63281C227.131 7.38672 227.191 7.12305 227.191 6.8418C227.191 6.50195 227.096 6.24805 226.904 6.08008C226.717 5.9082 226.465 5.82227 226.148 5.82227C225.816 5.82227 225.494 5.89844 225.182 6.05078C224.869 6.20312 224.543 6.41992 224.203 6.70117L223.219 5.53516C223.465 5.32422 223.725 5.125 223.998 4.9375C224.275 4.75 224.596 4.59961 224.959 4.48633C225.326 4.36914 225.766 4.31055 226.277 4.31055C226.84 4.31055 227.322 4.41211 227.725 4.61523C228.131 4.81836 228.443 5.0957 228.662 5.44727C228.881 5.79492 228.99 6.18945 228.99 6.63086C228.99 7.10352 228.896 7.53516 228.709 7.92578C228.521 8.31641 228.248 8.70312 227.889 9.08594C227.533 9.46875 227.104 9.89258 226.6 10.3574L225.498 11.3945V11.4766H229.23V13ZM233.215 9.71289C233.215 10.3574 233.152 10.9883 233.027 11.6055C232.902 12.2188 232.709 12.8027 232.447 13.3574C232.189 13.916 231.857 14.4297 231.451 14.8984H229.998C230.361 14.4062 230.666 13.877 230.912 13.3105C231.158 12.7441 231.344 12.1562 231.469 11.5469C231.594 10.9336 231.656 10.3184 231.656 9.70117C231.656 9.06836 231.592 8.44336 231.463 7.82617C231.338 7.20898 231.152 6.61523 230.906 6.04492C230.66 5.4707 230.354 4.93359 229.986 4.43359H231.451C231.857 4.91797 232.189 5.44531 232.447 6.01562C232.709 6.58203 232.902 7.17773 233.027 7.80273C233.152 8.42383 233.215 9.06055 233.215 9.71289Z"
        fill="#4E5C7F"/>
</svg>
