<svg width="64" height="64" viewBox="0 0 64 64" fill="none" xmlns="http://www.w3.org/2000/svg">
<path d="M56.9748 16.5647C59.2334 23.7183 59.5951 31.8073 58.1275 39.0504C55.2436 53.2783 40.5083 62.752 26.005 60.4868C19.1814 59.4207 12.6677 55.0333 10.3782 48.3982C8.68337 43.4881 10.2351 38.5072 13.3723 34.6279C16.0185 31.356 19.6499 29.098 22.5388 26.0708C26.9557 21.4429 28.4357 15.4218 31.8373 10.2036C33.7021 7.34281 36.6736 4.47059 40.1865 3.7922C43.5212 3.14789 47.1379 4.13725 49.9068 6.11324C53.4017 8.60707 55.6896 12.4938 56.9748 16.5647Z" fill="#A0B2EC" fill-opacity="0.16"/>
<path fill-rule="evenodd" clip-rule="evenodd" d="M22.6663 42.2397C15.4215 37.4418 5.07008 33.6827 4.85338 25.0122C4.62908 16.0378 13.4787 9.29837 21.757 5.85689C28.4787 3.06252 35.6234 6.38727 42.242 9.46896C47.5647 11.9473 51.8984 15.7039 54.3559 21.0354C57.0885 26.9636 59.3203 33.8877 56.1049 39.5444C52.8459 45.2777 45.759 47.2112 39.1753 47.7419C33.1014 48.2315 27.7575 45.6113 22.6663 42.2397Z" fill="#A0B2EC" fill-opacity="0.16"/>
<path fill-rule="evenodd" clip-rule="evenodd" d="M28.4568 8.28019C26.7403 7.82025 24.976 8.8389 24.516 10.5554L23.4731 14.4477C23.2849 14.4346 23.1077 14.5559 23.057 14.745L22.2763 17.6587C22.2256 17.8478 22.3184 18.0415 22.488 18.1242L22.328 18.7212C22.1398 18.7081 21.9626 18.8294 21.9119 19.0185L21.1312 21.9322C21.0805 22.1213 21.1733 22.315 21.3429 22.3977L14.5865 47.6129C14.1266 49.3294 15.1452 51.0937 16.8618 51.5537L31.6553 55.5176C33.3718 55.9775 35.1362 54.9589 35.5961 53.2424L43.4977 23.7534C43.6856 23.7661 43.8624 23.6448 43.9129 23.4561L44.6937 20.5423C44.7443 20.3535 44.6518 20.1601 44.4827 20.0772L45.5256 16.1849C45.9856 14.4684 44.9669 12.704 43.2504 12.2441L28.4568 8.28019Z" fill="#262939"/>
<path d="M25.062 11.024C25.4736 9.48767 27.0529 8.57591 28.5892 8.98759L42.7808 12.7902C44.3172 13.2019 45.2289 14.7811 44.8173 16.3175L35.1331 52.4593C34.7214 53.9957 33.1422 54.9075 31.6058 54.4958L17.4143 50.6932C15.8779 50.2815 14.9661 48.7023 15.3778 47.1659L25.062 11.024Z" fill="#0C419A"/>
<path fill-rule="evenodd" clip-rule="evenodd" d="M42.698 13.0993L28.5064 9.29668C27.1407 8.93075 25.737 9.7412 25.3711 11.1069L15.6869 47.2487C15.321 48.6144 16.1314 50.0182 17.4971 50.3841L31.6886 54.1867C33.0543 54.5526 34.458 53.7422 34.824 52.3765L44.5082 16.2346C44.8741 14.869 44.0636 13.4652 42.698 13.0993ZM28.5892 8.98759C27.0529 8.57591 25.4736 9.48767 25.062 11.024L15.3778 47.1659C14.9661 48.7023 15.8779 50.2815 17.4143 50.6932L31.6058 54.4958C33.1422 54.9075 34.7214 53.9957 35.1331 52.4593L44.8173 16.3175C45.2289 14.7811 44.3172 13.2019 42.7808 12.7902L28.5892 8.98759Z" fill="black"/>
<path d="M37.1172 29.047C37.2398 28.5896 36.9683 28.1194 36.5109 27.9968L26.4192 25.2928C25.9618 25.1702 25.4916 25.4417 25.369 25.8991L23.5744 32.5968C23.4518 33.0543 23.7233 33.5244 24.1807 33.647L34.2724 36.3511C34.7298 36.4736 35.2 36.2022 35.3225 35.7448L37.1172 29.047Z" fill="white"/>
<path d="M24.758 33.6618L28.4783 34.6586L25.0577 35.7693C24.6499 35.9017 24.2576 35.5294 24.3686 35.1153L24.758 33.6618Z" fill="white"/>
<g clip-path="url(#clip0_13447_125958)">
<path d="M27.4001 29.5083L28.0763 29.6895L28.1232 29.5147L27.2666 29.2852L26.8982 30.66L27.7548 30.8896L27.8016 30.7147L27.1254 30.5335L27.2787 29.9614L27.9586 30.1436L28.0054 29.9687L27.3255 29.7866L27.4001 29.5083Z" fill="#D81E7E"/>
<path d="M28.9018 30.7504C28.9556 30.5495 28.8821 30.3709 28.6833 30.22C28.4604 30.0456 28.4492 30.0029 28.4724 29.9162C28.4891 29.8538 28.5346 29.7866 28.6562 29.8192C28.7546 29.8455 28.7869 29.895 28.7752 30.0015L28.7693 30.0537L28.9541 30.0688L28.9584 30.0182C28.9752 29.826 28.8831 29.6886 28.7056 29.6411C28.513 29.5895 28.342 29.6888 28.2901 29.8825C28.2655 29.9743 28.2767 30.0683 28.3226 30.1474C28.3609 30.2111 28.4043 30.256 28.5156 30.3479C28.6144 30.4273 28.6563 30.469 28.6878 30.5186C28.7248 30.583 28.7335 30.6486 28.7146 30.719C28.6746 30.8686 28.5273 30.9497 28.3717 30.908C28.2193 30.8672 28.1305 30.7382 28.1655 30.6077L28.2057 30.4576L28.029 30.4103L27.9888 30.5603C27.9297 30.7809 28.0815 31.0213 28.3203 31.0853C28.5733 31.1536 28.834 31.0033 28.9018 30.7504Z" fill="#D81E7E"/>
<path d="M29.2637 30.858L29.5842 30.9439C29.8361 31.0114 30.1363 30.844 30.2019 30.5992C30.2327 30.4843 30.2079 30.3305 30.1401 30.2161C30.1068 30.1616 30.0626 30.1126 30.0083 30.0701C29.9464 30.0191 29.8859 29.9852 29.8279 29.9697L29.3433 29.8398L28.9748 31.215L29.1551 31.2633L29.2637 30.858ZM29.4767 30.0633L29.7779 30.144C29.9647 30.1941 30.0689 30.368 30.0204 30.5489C29.9741 30.7216 29.8054 30.8157 29.6277 30.7681L29.3106 30.6831L29.4767 30.0633Z" fill="#D81E7E"/>
<path d="M33.6781 32.2889L33.0019 32.1077L33.1552 31.5356L33.8348 31.7177L33.8816 31.5429L33.202 31.3608L33.2766 31.0826L33.9528 31.2638L33.9996 31.0889L33.1431 30.8594L32.7747 32.2343L33.6312 32.4638L33.6781 32.2889Z" fill="#D81E7E"/>
<path d="M32.5563 31.8628C32.3634 31.9356 32.2615 31.9483 32.1367 31.9148C31.9016 31.8518 31.7463 31.6525 31.7304 31.4227C31.73 31.4148 31.729 31.4073 31.7286 31.3993C31.7284 31.3987 31.7286 31.3982 31.7287 31.3979C31.7273 31.3433 31.7339 31.2875 31.7487 31.2313C31.7637 31.1752 31.7863 31.1233 31.8147 31.0769C31.8151 31.0765 31.8151 31.0762 31.8153 31.0757C31.8193 31.0689 31.8241 31.0627 31.8286 31.0563C31.9574 30.8657 32.1914 30.7703 32.4265 30.8333C32.5513 30.8667 32.6331 30.9287 32.7638 31.0882L32.7971 31.129L32.936 31.0084L32.9048 30.9701C32.7539 30.784 32.6371 30.6987 32.4743 30.6551C32.4738 30.6549 32.4732 30.6548 32.4725 30.6546C32.2856 30.6045 32.0879 30.6324 31.9163 30.733C31.7451 30.8334 31.6229 30.9928 31.5724 31.1815C31.5722 31.1823 31.5719 31.1833 31.5717 31.1841C31.5715 31.1849 31.5712 31.186 31.571 31.1867C31.5204 31.3754 31.5466 31.5743 31.6446 31.7472C31.7428 31.9203 31.8999 32.043 32.087 32.0931C32.0875 32.0933 32.0883 32.0935 32.0888 32.0936C32.2517 32.1373 32.3955 32.1215 32.6192 32.036L32.6653 32.0184L32.6054 31.8446L32.5563 31.8628Z" fill="#D81E7E"/>
<path d="M31.0467 30.26C30.7262 30.1741 30.3813 30.3787 30.2934 30.7068L30.0777 31.5119L30.258 31.5603L30.3972 31.0406L31.2084 31.258L31.0691 31.7776L31.2511 31.8264L31.4625 31.0371C31.5543 30.6947 31.3677 30.346 31.0467 30.26ZM30.4439 30.8663L30.4737 30.7551C30.5379 30.5158 30.7684 30.3767 30.9989 30.4385C31.2309 30.5006 31.3491 30.7318 31.2804 30.9883L31.2548 31.0836L30.4439 30.8663Z" fill="#D81E7E"/>
<path d="M33.7214 32.7768L33.8196 32.6943L33.5863 32.6318L33.4923 32.7154L33.111 32.6132L32.7425 33.9884L33.5991 34.2179L33.646 34.0428L32.9698 33.8616L33.1231 33.2895L33.8024 33.4715L33.8493 33.2967L33.1699 33.1146L33.2445 32.8364L33.9238 33.0185L33.9707 32.8436L33.7214 32.7768Z" fill="#D81E7E"/>
<path d="M31.307 32.092C30.9865 32.0061 30.6416 32.2108 30.5536 32.5388L30.3379 33.344L30.5183 33.3923L30.734 32.5871C30.7981 32.3478 31.0287 32.2088 31.2591 32.2705C31.4911 32.3327 31.6094 32.5638 31.5406 32.8203L31.3291 33.6096L31.5111 33.6583L31.7225 32.8691C31.8143 32.5267 31.628 32.178 31.307 32.092Z" fill="#D81E7E"/>
<path d="M31.8426 32.46L32.2956 32.5814L31.974 33.7817L32.158 33.831L32.4796 32.6307L32.9434 32.755L32.9903 32.5801L31.8894 32.2852L31.8426 32.46Z" fill="#D81E7E"/>
<path d="M29.9178 31.7209C29.5973 31.635 29.2524 31.8397 29.1645 32.1677L28.9488 32.9729L29.1291 33.0212L29.2683 32.5016L30.0795 32.7189L29.9402 33.2385L30.1222 33.2873L30.3336 32.4981C30.4254 32.1556 30.2388 31.8069 29.9178 31.7209ZM30.1262 32.5446L29.315 32.3272L29.3448 32.2161C29.409 31.9767 29.6395 31.8377 29.87 31.8994C30.102 31.9616 30.2202 32.1927 30.1515 32.4493L30.1259 32.5445L30.1262 32.5446Z" fill="#D81E7E"/>
<path d="M28.8778 32.5042C28.9317 32.3032 28.8581 32.1246 28.6594 31.9738C28.4364 31.7994 28.4252 31.7566 28.4485 31.67C28.4652 31.6076 28.5106 31.5403 28.6322 31.5729C28.7306 31.5993 28.7629 31.6488 28.7512 31.7553L28.7453 31.8074L28.9301 31.8225L28.9344 31.7719C28.9512 31.5798 28.8591 31.4424 28.6816 31.3948C28.489 31.3432 28.3181 31.4426 28.2662 31.6362C28.2415 31.7281 28.2527 31.822 28.2987 31.9012C28.337 31.9649 28.3803 32.0098 28.4917 32.1017C28.5904 32.181 28.6324 32.2228 28.6638 32.2723C28.7008 32.3368 28.7096 32.4023 28.6907 32.4728C28.6506 32.6224 28.5033 32.7034 28.3477 32.6618C28.1953 32.6209 28.1065 32.4919 28.1415 32.3615L28.1817 32.2114L28.0055 32.1642L27.9653 32.3142C27.9062 32.5348 28.058 32.7752 28.2969 32.8392C28.5493 32.9074 28.81 32.7571 28.8778 32.5042Z" fill="#D81E7E"/>
<path d="M29.4902 29.6768C29.6797 29.7276 29.8794 29.6997 30.0523 29.5983C30.2248 29.4971 30.348 29.336 30.3993 29.1447C30.45 28.9555 30.4228 28.7563 30.3226 28.5831C30.2222 28.4097 30.0618 28.2861 29.871 28.235C29.4824 28.1309 29.0655 28.3744 28.9604 28.7667C28.8563 29.155 29.099 29.572 29.4902 29.6768ZM29.825 28.4137C30.1288 28.4951 30.3033 28.7962 30.2222 29.0989C30.1402 29.4048 29.8395 29.581 29.5376 29.5001C29.2327 29.4184 29.0575 29.1172 29.1386 28.8145C29.2209 28.5086 29.5223 28.3326 29.825 28.4137Z" fill="#0C419A"/>
<path d="M34.4197 31.1665C34.4742 30.9629 34.3531 30.7531 34.1495 30.6985L31.6955 30.0368L31.861 29.419C31.9527 29.0766 31.6675 28.7014 31.3465 28.6154C31.026 28.5296 30.6811 28.7342 30.5932 29.0623L30.3775 29.8674L30.5578 29.9157L30.7735 29.1106C30.8377 28.8713 31.0682 28.7322 31.2987 28.7939C31.5307 28.8561 31.7478 29.1137 31.6791 29.3703L31.4665 30.1637L34.1041 30.8682C34.2095 30.8964 34.2678 31.013 34.2396 31.1182L33.8618 32.5281L34.0419 32.5763L34.4197 31.1665Z" fill="#0C419A"/>
<path d="M26.4294 32.1082C26.3239 32.0799 26.2643 31.9686 26.2925 31.8631L27.3188 28.0329C27.3638 27.8651 27.5088 27.778 27.6716 27.8217C27.8533 27.8703 27.9544 28.0409 27.9068 28.2187L27.6606 29.1374L27.8426 29.1861L28.0891 28.2659C28.1191 28.1539 28.1521 28.1062 28.2294 28.0629C28.3053 28.0217 28.3939 28.0116 28.4795 28.0345C28.6481 28.0797 28.7391 28.2484 28.6912 28.4272L28.4447 29.3474L28.625 29.3958L28.8758 28.4596C28.9444 28.2049 28.7826 27.9224 28.5299 27.8547C28.406 27.8215 28.2622 27.8412 28.1456 27.9067C28.1155 27.9233 28.0929 27.9387 28.0693 27.9598C28.061 27.9377 28.0518 27.9177 28.0383 27.8931L28.0371 27.8911C28.0039 27.8366 27.9633 27.7865 27.9195 27.7465L27.9174 27.7449C27.8617 27.6992 27.7962 27.6659 27.7228 27.6463C27.4603 27.5757 27.206 27.7335 27.1312 28.0128L26.5337 30.2427L26.1124 31.8149C26.0579 32.0185 26.179 32.2283 26.3826 32.2828L27.753 32.65L27.7999 32.4751L26.4294 32.1082Z" fill="#0C419A"/>
</g>
<path d="M36.0743 12.8199C35.9581 13.2537 35.5121 13.5112 35.0782 13.395C34.6443 13.2787 34.3869 12.8328 34.5031 12.3989C34.6194 11.965 35.0653 11.7075 35.4992 11.8238C35.9331 11.94 36.1906 12.386 36.0743 12.8199Z" fill="#E7ECFA"/>
<g filter="url(#filter0_d_13447_125958)">
<circle cx="42.9659" cy="47.7073" r="11.2308" fill="#F0F3FD"/>
</g>
<g opacity="0.4">
<circle cx="42.9589" cy="47.6781" r="9.44" fill="#F9FAFF"/>
<circle cx="42.9589" cy="47.6781" r="9.44" fill="#A0B2EC" fill-opacity="0.1"/>
<circle cx="42.9589" cy="47.6781" r="9.44" stroke="#BDCCF8" stroke-width="0.32"/>
</g>
<path opacity="0.4" fill-rule="evenodd" clip-rule="evenodd" d="M38.3537 55.0259C42.5611 57.6817 47.9898 56.6378 50.479 52.6943C50.6574 52.4118 50.8158 52.122 50.9547 51.8266C50.7616 52.3864 50.5026 52.9305 50.1751 53.4494C47.6853 57.3939 42.1779 58.3893 37.874 55.6726C33.5701 52.9559 32.0995 47.556 34.5893 43.6115C35.1172 42.7751 35.7808 42.0714 36.5398 41.5075C36.0511 41.9642 35.6141 42.4882 35.2425 43.0768C32.7533 47.0204 34.1462 52.3701 38.3537 55.0259Z" fill="#BDCCF8"/>
<path fill-rule="evenodd" clip-rule="evenodd" d="M36.3098 41.5247C38.7763 39.5327 42.0882 38.7437 45.2772 39.7016C48.302 40.6102 50.5531 42.8911 51.5966 45.7019C50.8794 42.636 48.6183 40.042 45.4263 39.0832C42.082 38.0787 38.6013 39.1352 36.3098 41.5247Z" fill="#F9FAFF"/>
<path fill-rule="evenodd" clip-rule="evenodd" d="M43.2228 45.7798C43.1363 45.7679 43.0481 45.7617 42.9583 45.7617C42.6956 45.7617 42.4452 45.8145 42.2171 45.91L42.7518 46.8361C42.8098 46.8242 42.8698 46.818 42.9313 46.818L42.9446 46.8181L43.2228 45.7798ZM41.1202 47.1253C41.0669 47.3014 41.0383 47.4882 41.0383 47.6817C41.0383 47.9609 41.0979 48.2262 41.2051 48.4656L42.0775 47.9619C42.0537 47.8816 42.0409 47.7965 42.0409 47.7084C42.0409 47.6244 42.0525 47.5431 42.0742 47.4661L41.1202 47.1253ZM41.502 48.933C41.6997 49.1629 41.9509 49.3454 42.2363 49.4613L42.4976 48.4863C42.4613 48.466 42.4266 48.4432 42.3936 48.4182L41.502 48.933ZM42.7738 49.593C42.8345 49.5988 42.8961 49.6017 42.9583 49.6017C43.1977 49.6017 43.4269 49.5579 43.6382 49.4779L43.1192 48.579C43.0939 48.5844 43.0681 48.5888 43.042 48.592L42.7738 49.593ZM44.1219 49.2091C44.5816 48.8583 44.8783 48.3047 44.8783 47.6817C44.8783 47.4589 44.8404 47.2449 44.7706 47.0459L43.8149 47.5977C43.8194 47.6339 43.8217 47.6709 43.8217 47.7084C43.8217 47.9354 43.7368 48.1426 43.5969 48.2999L44.1219 49.2091ZM44.5135 46.5555C44.3195 46.288 44.0581 46.0725 43.7543 45.9339L43.469 46.9986C43.5078 47.028 43.5441 47.0606 43.5776 47.0959L44.5135 46.5555Z" fill="#262939"/>
<path fill-rule="evenodd" clip-rule="evenodd" d="M42.788 47.0977L43.2718 47.2273L43.1853 47.5502L43.508 47.6367L43.3784 48.1205L43.0557 48.034L42.9693 48.3562L42.4855 48.2265L42.5741 47.8961L41.5715 47.6275L41.6538 47.3203L42.6564 47.5889L42.788 47.0977Z" fill="#262939"/>
<path d="M59.9781 45.5368C58.5005 40.9794 56.167 37.0934 52.9711 33.6779C52.6524 33.3376 53.0253 32.8149 53.4535 32.9993C57.2857 34.6499 61.3122 41.1602 60.804 45.4645C60.7503 45.9154 60.1181 45.9686 59.9781 45.5368Z" fill="#D81E7E"/>
<path d="M52.5642 36.287C55.1265 37.7331 57.4749 41.7632 57.5483 44.7299C57.5601 45.2051 56.8877 45.3202 56.725 44.8735C56.1956 43.4191 55.5949 42.0308 54.7882 40.7256C53.983 39.4236 53.1303 38.1654 52.0348 36.9393C51.7095 36.5757 52.1387 36.0468 52.5642 36.287Z" fill="#D81E7E"/>
<defs>
<filter id="filter0_d_13447_125958" x="30.4551" y="36.4766" width="25.0214" height="25.0209" filterUnits="userSpaceOnUse" color-interpolation-filters="sRGB">
<feFlood flood-opacity="0" result="BackgroundImageFix"/>
<feColorMatrix in="SourceAlpha" type="matrix" values="0 0 0 0 0 0 0 0 0 0 0 0 0 0 0 0 0 0 127 0" result="hardAlpha"/>
<feOffset dy="1.28"/>
<feGaussianBlur stdDeviation="0.64"/>
<feComposite in2="hardAlpha" operator="out"/>
<feColorMatrix type="matrix" values="0 0 0 0 0.14902 0 0 0 0 0.160784 0 0 0 0 0.223529 0 0 0 0.16 0"/>
<feBlend mode="normal" in2="BackgroundImageFix" result="effect1_dropShadow_13447_125958"/>
<feBlend mode="normal" in="SourceGraphic" in2="effect1_dropShadow_13447_125958" result="shape"/>
</filter>
<clipPath id="clip0_13447_125958">
<rect x="26.8057" y="26.7227" width="9.02451" height="6.07938" rx="0.432312" transform="rotate(15 26.8057 26.7227)" fill="white"/>
</clipPath>
</defs>
</svg>
