<svg width="200" height="200" viewBox="0 0 200 200" fill="none" xmlns="http://www.w3.org/2000/svg">
<path d="M180.867 123.804C172.037 143.823 157.25 162.236 140.086 175.274C106.367 200.883 55.8475 193.253 28.4441 160.359C15.5518 144.883 9.73498 122.728 17.4991 103.786C23.2435 89.7674 36.2352 81.8465 50.5779 79.3918C62.6751 77.322 74.9778 79.3702 87.1353 78.3037C105.722 76.6742 120.56 66.3367 138.061 61.4588C147.655 58.7842 159.695 58.2163 168.696 63.4961C177.24 68.5073 183.257 77.6399 185.516 87.3006C188.367 99.4936 185.893 112.413 180.867 123.804Z" fill="#A0B2EC" fill-opacity="0.16"/>
<path fill-rule="evenodd" clip-rule="evenodd" d="M129.134 89.6311C128.243 114.959 134.669 146.43 113.437 160.181C91.4613 174.415 61.2157 162.677 40.0423 147.335C22.8502 134.877 20.2307 112.043 17.8085 90.888C15.8605 73.8745 18.5985 57.3728 28.1121 43.1369C38.6906 27.3077 52.5085 11.2061 71.4757 10.5822C90.6997 9.94986 106.308 24.6275 117.66 40.1913C128.133 54.5501 129.761 71.8321 129.134 89.6311Z" fill="#A0B2EC" fill-opacity="0.16"/>
<g filter="url(#filter0_d_3325_65646)">
<path d="M100 159C132.585 159 159 132.585 159 100C159 67.4152 132.585 41 100 41C67.4152 41 41 67.4152 41 100C41 132.585 67.4152 159 100 159Z" fill="white"/>
</g>
<path d="M99.9533 150.907C128.094 150.907 150.907 128.094 150.907 99.9533C150.907 71.8126 128.094 49 99.9533 49C71.8126 49 49 71.8126 49 99.9533C49 128.094 71.8126 150.907 99.9533 150.907Z" fill="#0C419A"/>
<path fill-rule="evenodd" clip-rule="evenodd" d="M100.298 92.5882C102.117 92.5882 103.592 91.1134 103.592 89.2941C103.592 87.4748 102.117 86 100.298 86C98.4787 86 97.0039 87.4748 97.0039 89.2941C97.0039 91.1134 98.4787 92.5882 100.298 92.5882ZM100.298 114C102.117 114 103.592 112.526 103.592 110.706L103.592 100.824C103.592 99.0046 102.117 97.5298 100.298 97.5298C98.4787 97.5298 97.0039 99.0046 97.0039 100.824V110.706C97.0039 112.526 98.4787 114 100.298 114Z" fill="white"/>
<defs>
<filter id="filter0_d_3325_65646" x="41" y="41" width="118" height="120" filterUnits="userSpaceOnUse" color-interpolation-filters="sRGB">
<feFlood flood-opacity="0" result="BackgroundImageFix"/>
<feColorMatrix in="SourceAlpha" type="matrix" values="0 0 0 0 0 0 0 0 0 0 0 0 0 0 0 0 0 0 127 0" result="hardAlpha"/>
<feOffset dy="2"/>
<feComposite in2="hardAlpha" operator="out"/>
<feColorMatrix type="matrix" values="0 0 0 0 0 0 0 0 0 0 0 0 0 0 0 0 0 0 0.1 0"/>
<feBlend mode="normal" in2="BackgroundImageFix" result="effect1_dropShadow_3325_65646"/>
<feBlend mode="normal" in="SourceGraphic" in2="effect1_dropShadow_3325_65646" result="shape"/>
</filter>
</defs>
</svg>
