<svg width="265" height="165" viewBox="0 0 265 165" fill="none" xmlns="http://www.w3.org/2000/svg">
    <defs>
        <filter id="filter0_d_14995_119190" x="74.3012" y="32.7346" width="117.398" height="117.398"
            filterUnits="userSpaceOnUse" color-interpolation-filters="sRGB">
            <feFlood flood-opacity="0" result="BackgroundImageFix" />
            <feColorMatrix in="SourceAlpha" type="matrix"
                values="0 0 0 0 0 0 0 0 0 0 0 0 0 0 0 0 0 0 127 0" result="hardAlpha" />
            <feOffset dy="9.34939" />
            <feGaussianBlur stdDeviation="9.34939" />
            <feColorMatrix type="matrix"
                values="0 0 0 0 0.0470588 0 0 0 0 0.254902 0 0 0 0 0.603922 0 0 0 0.1 0" />
            <feBlend mode="normal" in2="BackgroundImageFix"
                result="effect1_dropShadow_14995_119190" />
            <feBlend mode="normal" in="SourceGraphic" in2="effect1_dropShadow_14995_119190"
                result="shape" />
        </filter>
        <linearGradient id="paint0_linear_14995_119190" x1="150.406" y1="63.334" x2="117.277"
            y2="63.9137" gradientUnits="userSpaceOnUse">
            <stop stop-color="#0C419A" />
            <stop offset="1" stop-color="#1058D1" />
        </linearGradient>
    </defs>
    <mask id="mask0_14995_119190" style="mask-type:alpha" maskUnits="userSpaceOnUse" x="0" y="0"
        width="265" height="165">
        <rect y="0.0839844" width="265" height="164" rx="8" fill="#E7ECFA" />
    </mask>
    <g mask="url(#mask0_14995_119190)">
        <rect y="0.0839844" width="265" height="164" fill="#FDF0D3" />
        <path
            d="M176.438 122.638C147.626 126.853 116.581 121.807 90.0362 109.27C37.8941 84.6397 12.1463 10.8824 30.9221 -52.1642C39.757 -81.8264 61.0181 -107.365 87.8782 -112.145C107.756 -115.685 125.63 -104.636 138.201 -87.398C148.804 -72.8586 154.857 -54.7447 164.358 -39.3206C178.883 -15.7384 200.767 -4.1532 218.25 15.3713C227.835 26.0744 236.688 41.7409 236.811 58.0228C236.929 73.4788 230.631 88.8511 221.171 99.616C209.232 113.203 192.834 120.241 176.438 122.638Z"
            fill="#F0B323" fill-opacity="0.16" />
        <path
            d="M226.215 156.493C223.011 197.505 209.913 239.219 190.442 272.761C152.191 338.647 71.3347 355.268 12.7576 312.962C-14.8015 293.057 -35.0015 256.998 -32.8707 218.545C-31.2964 190.087 -15.5622 168.174 5.02801 155.209C22.3947 144.274 42.1823 140.567 60.1545 131.387C87.6321 117.353 104.942 90.0231 129.101 70.8429C142.346 60.3273 160.394 52.1075 176.807 56.1434C192.387 59.9729 206.225 72.6713 214.611 88.561C225.195 108.616 228.039 133.154 226.215 156.493Z"
            fill="#F0B323" fill-opacity="0.16" />
        <g filter="url(#filter0_d_14995_119190)">
            <circle cx="133" cy="82.084" r="40" fill="white" />
        </g>
        <path fill-rule="evenodd" clip-rule="evenodd"
            d="M134.001 63.334C133.31 63.334 132.751 63.8936 132.751 64.584V68.2309C131.83 68.0761 130.942 67.7492 130.136 67.2634C129.545 66.907 128.777 67.0975 128.421 67.6887C128.064 68.28 128.255 69.0482 128.846 69.4046C130.043 70.1258 131.373 70.5847 132.751 70.757V79.9189L124.816 75.3377C125.354 74.0587 125.622 72.6772 125.597 71.2807C125.585 70.5905 125.016 70.0408 124.325 70.0529C123.635 70.0651 123.085 70.6345 123.098 71.3248C123.114 72.2663 122.954 73.1988 122.628 74.0745L119.47 72.2515C118.872 71.9063 118.108 72.1111 117.763 72.709C117.417 73.3069 117.622 74.0713 118.22 74.4165L121.378 76.2398C120.783 76.9599 120.056 77.5654 119.233 78.0221C118.629 78.3569 118.411 79.1177 118.746 79.7215C119.081 80.3252 119.841 80.5432 120.445 80.2084C121.666 79.5312 122.728 78.6083 123.566 77.5029L131.501 82.084L123.566 86.665C122.728 85.5596 121.666 84.6368 120.445 83.9596C119.841 83.6248 119.081 83.8428 118.746 84.4465C118.411 85.0502 118.629 85.8111 119.233 86.1459C120.056 86.6025 120.783 87.2081 121.378 87.9282L118.22 89.7515C117.622 90.0966 117.417 90.8611 117.763 91.459C118.108 92.0569 118.872 92.2617 119.47 91.9165L122.628 90.0935C122.954 90.9692 123.114 91.9016 123.098 92.8432C123.085 93.5335 123.635 94.1029 124.325 94.115C125.016 94.1272 125.585 93.5775 125.597 92.8873C125.622 91.4907 125.354 90.1093 124.816 88.8302L132.751 84.249V93.4123C131.374 93.5855 130.045 94.0436 128.848 94.7624C128.256 95.1178 128.064 95.8857 128.42 96.4775C128.775 97.0694 129.543 97.261 130.135 96.9056C130.942 96.4209 131.83 96.0942 132.751 95.9387V99.584C132.751 100.274 133.31 100.834 134.001 100.834C134.691 100.834 135.251 100.274 135.251 99.584V95.9387C136.172 96.0942 137.059 96.4209 137.866 96.9056C138.458 97.261 139.226 97.0694 139.582 96.4775C139.937 95.8857 139.745 95.1178 139.154 94.7624C137.957 94.0436 136.627 93.5855 135.251 93.4123V84.249L143.185 88.8302C142.647 90.1093 142.379 91.4907 142.404 92.8873C142.416 93.5775 142.985 94.1272 143.676 94.115C144.366 94.1029 144.916 93.5335 144.904 92.8432C144.887 91.9016 145.048 90.9692 145.373 90.0935L148.531 91.9165C149.129 92.2617 149.893 92.0569 150.239 91.459C150.584 90.8611 150.379 90.0966 149.781 89.7515L146.623 87.9282C147.218 87.2081 147.945 86.6025 148.769 86.1459C149.372 85.8111 149.59 85.0502 149.255 84.4465C148.921 83.8428 148.16 83.6248 147.556 83.9596C146.335 84.6368 145.273 85.5596 144.435 86.665L136.501 82.084L144.435 77.5029C145.273 78.6083 146.335 79.5312 147.556 80.2084C148.16 80.5432 148.921 80.3252 149.255 79.7215C149.59 79.1177 149.372 78.3569 148.769 78.0221C147.945 77.5654 147.218 76.9598 146.623 76.2398L149.781 74.4165C150.379 74.0713 150.584 73.3069 150.239 72.709C149.893 72.1111 149.129 71.9063 148.531 72.2515L145.373 74.0745C145.048 73.1988 144.887 72.2663 144.904 71.3248C144.916 70.6345 144.366 70.0651 143.676 70.0529C142.985 70.0408 142.416 70.5905 142.404 71.2807C142.379 72.6772 142.647 74.0587 143.185 75.3377L135.251 79.9189V70.757C136.628 70.5847 137.959 70.1258 139.155 69.4046C139.746 69.0482 139.937 68.28 139.581 67.6887C139.224 67.0975 138.456 66.907 137.865 67.2634C137.059 67.7492 136.171 68.0761 135.251 68.2309V64.584C135.251 63.8936 134.691 63.334 134.001 63.334ZM134.001 70.834C134.001 70.834 134.002 70.834 134.003 70.834L134.001 69.584L133.999 70.834C133.999 70.834 134 70.834 134.001 70.834Z"
            fill="url(#paint0_linear_14995_119190)" />
    </g>
</svg>
