<svg width="48" height="48" viewBox="0 0 48 48" fill="none" xmlns="http://www.w3.org/2000/svg">
<path d="M23.8885 44.5759C35.2502 44.5759 44.4606 35.3654 44.4606 24.0038C44.4606 12.6421 35.2502 3.43164 23.8885 3.43164C12.5269 3.43164 3.31641 12.6421 3.31641 24.0038C3.31641 35.3654 12.5269 44.5759 23.8885 44.5759Z" fill="#1E3253"/>
<path d="M9.50616 14.2093C9.4964 13.8556 9.56064 13.5038 9.69478 13.1763C9.82892 12.8489 10.03 12.5531 10.2851 12.3079C10.8076 11.8047 11.614 11.5531 12.7042 11.5531C13.5945 11.4933 14.4758 11.7618 15.1814 12.3079C15.4569 12.5409 15.6768 12.8326 15.825 13.1616C15.9732 13.4906 16.0459 13.8486 16.0378 14.2093C16.0476 14.5658 15.982 14.9203 15.8453 15.2497C15.7086 15.579 15.5037 15.8758 15.2443 16.1204C14.5681 16.6808 13.7008 16.9566 12.8252 16.8897C11.9417 16.9478 11.0684 16.6734 10.377 16.1204C10.0994 15.8868 9.87777 15.5938 9.72869 15.263C9.57961 14.9322 9.50687 14.5721 9.51583 14.2093H9.50616ZM10.706 31.7382C9.59325 31.6753 8.72721 31.4818 8.11275 30.9737C7.79794 30.6978 7.55086 30.3531 7.39061 29.9663C7.23037 29.5795 7.16127 29.1611 7.18865 28.7433C7.19113 28.286 7.25127 27.8309 7.36767 27.3886L8.38369 23.5858C8.38369 23.5181 8.41756 23.46 8.42724 23.4165C8.42981 23.3697 8.42981 23.3229 8.42724 23.2761C8.42724 22.9423 8.28209 22.7923 7.98696 22.7923C7.82148 22.7938 7.65761 22.8249 7.50314 22.8842C7.32896 22.9471 7.14511 23.0197 6.95642 23.1068L6.04199 19.7975C6.78985 19.3899 7.56407 19.0327 8.3595 18.7282C9.29019 18.3937 10.2736 18.2298 11.2624 18.2444C12.1807 18.1793 13.0883 18.4743 13.7928 19.0669C14.0803 19.3495 14.305 19.6893 14.4526 20.0644C14.6001 20.4395 14.6671 20.8414 14.6492 21.2441C14.6659 21.6899 14.622 22.1358 14.5186 22.5698L12.1962 31.6076C11.7058 31.6806 11.2114 31.7243 10.7157 31.7382" fill="white"/>
<path d="M38.4728 24.1181L37.3262 23.7068C37.0178 23.621 36.7206 23.4992 36.4408 23.3439C36.3842 23.3074 36.3377 23.2573 36.3056 23.1981C36.2734 23.1389 36.2567 23.0726 36.2569 23.0053C36.2529 22.9343 36.2707 22.8639 36.3079 22.8033C36.3451 22.7428 36.3999 22.6951 36.4649 22.6666C36.7068 22.5807 36.9635 22.5445 37.2197 22.5601C37.8019 22.5624 38.3795 22.6638 38.9276 22.8601C39.5219 23.0843 40.0964 23.3578 40.6452 23.6778L42.1547 20.0298C41.3457 19.6158 40.494 19.2914 39.6146 19.0621C38.6064 18.8042 37.5685 18.6805 36.5278 18.6944C35.681 18.6919 34.8357 18.7664 34.0023 18.917C33.2457 19.0435 32.515 19.2936 31.8396 19.6572C31.1831 20.004 30.6401 20.5323 30.2755 21.1791C29.9109 21.826 29.7401 22.564 29.7834 23.3052C29.7811 23.6489 29.8284 23.9911 29.9237 24.3213C30.028 24.6652 30.2008 24.9844 30.4317 25.2599C30.7095 25.5854 31.0359 25.8661 31.3993 26.092C31.8857 26.391 32.4074 26.6283 32.9524 26.7984L33.7314 27.0597C34.0341 27.1462 34.3238 27.2731 34.5926 27.4371C34.6481 27.4766 34.6933 27.5288 34.7245 27.5894C34.7556 27.6501 34.7718 27.7173 34.7716 27.7854C34.7716 28.0322 34.6748 28.1725 34.4764 28.216C34.2826 28.2595 34.0848 28.2822 33.8862 28.2838C33.4667 28.2834 33.0484 28.2396 32.6379 28.1531C32.2218 28.066 31.8203 27.9596 31.438 27.8386C31.0899 27.7306 30.7475 27.6046 30.4123 27.4613L30.3446 27.4322L29.377 31.3802C30.0709 31.6653 30.7948 31.8714 31.5348 31.9947C32.6534 32.1858 33.7868 32.2765 34.9216 32.2656C35.7054 32.2676 36.4878 32.1964 37.2584 32.0527C37.9785 31.9192 38.6706 31.6639 39.305 31.298C39.905 30.9463 40.4048 30.4466 40.7565 29.8465C41.1355 29.1329 41.3192 28.3317 41.2887 27.5242C41.2795 26.8288 41.0565 26.1531 40.65 25.5889C40.1029 24.8818 39.3403 24.3722 38.4776 24.1374" fill="white"/>
<path d="M29.3122 27.0935C29.1671 27.1709 28.9978 27.2338 28.8284 27.316C28.6586 27.4029 28.4722 27.4524 28.2817 27.4612C28.0737 27.4612 27.9672 27.3306 27.9672 27.0693C27.9754 26.9726 27.9932 26.877 28.0204 26.7838L28.7994 23.997C28.8865 23.6632 28.9687 23.3197 29.0365 22.952C29.0992 22.6331 29.1333 22.3093 29.1381 21.9843C29.1573 21.516 29.0781 21.0488 28.9056 20.613C28.7331 20.1771 28.4711 19.7823 28.1365 19.4539C27.7769 19.1249 27.3559 18.8701 26.8976 18.7041C26.4393 18.538 25.9528 18.464 25.4658 18.4863C24.7041 18.4813 23.9474 18.6107 23.2306 18.8685C22.4878 19.1433 21.8152 19.5796 21.2614 20.1458C21.079 19.6188 20.7201 19.171 20.2454 18.8782C19.6729 18.5873 19.0334 18.4537 18.3924 18.4911C17.3731 18.4715 16.3587 18.6354 15.3975 18.975L15.2475 19.0378C15.7311 19.5857 15.9903 20.2958 15.9733 21.0264C15.9729 21.4762 15.911 21.9238 15.7894 22.3569L15.2427 24.4905L13.3896 31.6753H19.4084L20.9179 25.7098C21.0295 25.1728 21.2325 24.6589 21.5179 24.1906C21.5988 24.0662 21.7091 23.9636 21.839 23.8919C21.969 23.8201 22.1145 23.7815 22.2629 23.7793C22.3179 23.7731 22.3735 23.782 22.4238 23.805C22.4741 23.8281 22.5171 23.8643 22.5484 23.9099C22.6068 24.0143 22.643 24.1296 22.6548 24.2486C22.6549 24.3802 22.6419 24.5115 22.6161 24.6405C22.5931 24.7458 22.5624 24.8493 22.5242 24.9502L21.7791 27.6112C21.7137 27.8339 21.6604 28.06 21.6195 28.2885C21.586 28.503 21.5698 28.7198 21.5711 28.9369C21.5537 29.3575 21.6318 29.7767 21.7993 30.1629C21.9669 30.5492 22.2197 30.8925 22.5387 31.1673C23.2822 31.7501 24.2132 32.0409 25.1562 31.9849C26.0326 31.9857 26.9033 31.8452 27.735 31.5688C27.9237 31.5059 28.1124 31.4382 28.2962 31.3608L29.3122 27.0935Z" fill="white"/>
<path d="M31.1886 21.7726C30.1277 21.7701 29.1107 21.3489 28.3587 20.6005C27.6067 19.8521 27.1805 18.8371 27.1729 17.7763C27.1677 16.7116 27.5851 15.6884 28.3334 14.931C29.0817 14.1737 30.0998 13.744 31.1644 13.7363C32.2291 13.7337 33.2516 14.1526 34.0086 14.9014C34.7655 15.6501 35.1954 16.668 35.2043 17.7327C35.2095 18.7974 34.7922 19.8206 34.0439 20.578C33.2956 21.3353 32.2775 21.7649 31.2128 21.7726H31.1886Z" fill="#1E3253"/>
<path d="M31.1903 14.0652C32.1444 14.0998 33.0478 14.5031 33.7105 15.1902C34.3732 15.8774 34.7435 16.7948 34.7435 17.7495C34.7435 18.7041 34.3732 19.6216 33.7105 20.3087C33.0478 20.9959 32.1444 21.3992 31.1903 21.4338C30.2363 21.3992 29.3329 20.9959 28.6702 20.3087C28.0075 19.6216 27.6371 18.7041 27.6371 17.7495C27.6371 16.7948 28.0075 15.8774 28.6702 15.1902C29.3329 14.5031 30.2363 14.0998 31.1903 14.0652ZM31.1903 13.4023C30.0355 13.4023 28.9279 13.8611 28.1113 14.6777C27.2947 15.4943 26.8359 16.6019 26.8359 17.7567C26.8359 18.9116 27.2947 20.0192 28.1113 20.8358C28.9279 21.6524 30.0355 22.1111 31.1903 22.1111C32.3452 22.1111 33.4528 21.6524 34.2694 20.8358C35.086 20.0192 35.5447 18.9116 35.5447 17.7567C35.5447 16.6019 35.086 15.4943 34.2694 14.6777C33.4528 13.8611 32.3452 13.4023 31.1903 13.4023Z" fill="white"/>
<path d="M28.8486 18.0614L30.1017 19.2613L33.2514 16.1406" stroke="white" stroke-width="0.747854" stroke-linecap="round" stroke-linejoin="round"/>
</svg>
