<svg width="64" height="44" viewBox="0 0 64 44" fill="none" xmlns="http://www.w3.org/2000/svg">
<path d="M9.19028 17.9948H14.1551V16.7109H7.86621V26.8053H14.1551V25.5215H9.19028V21.3212H14.1819V20.0374H9.19028V17.9948Z" fill="#E11A81"/>
<path d="M21.7486 23.7432C21.7486 22.2677 20.917 21.1794 19.2787 20.5106C17.4315 19.725 17.2763 19.4529 17.2763 18.8167C17.2763 18.3588 17.4641 17.8146 18.357 17.8146C19.0794 17.8146 19.3917 18.0943 19.5067 18.8455L19.5623 19.2134L20.8557 18.9777L20.7925 18.6232C20.5548 17.2761 19.6715 16.5039 18.3685 16.5039C16.9544 16.5039 15.9656 17.4984 15.9656 18.9202C15.9656 19.5947 16.2147 20.2174 16.6746 20.6754C17.054 21.0414 17.4334 21.2694 18.3647 21.6948C19.1867 22.057 19.5508 22.2658 19.8574 22.5475C20.2291 22.9212 20.4092 23.3542 20.4092 23.8716C20.4092 24.9695 19.5489 25.7954 18.4068 25.7954C17.2878 25.7954 16.4428 25.0749 16.4428 24.1168V23.015H15.1455V24.1168C15.1455 25.736 16.6267 27.1041 18.38 27.1041C20.2387 27.108 21.7486 25.6 21.7486 23.7432Z" fill="#E11A81"/>
<path d="M24.4344 23.8314H26.7875C28.6366 23.8314 30.386 22.1337 30.386 20.3363C30.386 19.4932 29.9338 18.4853 29.2593 17.8261C28.9317 17.5138 28.5389 17.259 28.0886 17.0673C27.5712 16.8317 27.0941 16.7109 26.6687 16.7109H23.1104V26.8072H24.4344V23.8314ZM24.4344 17.9967H26.6457C28.0177 17.9967 29.0505 18.9969 29.0505 20.3248C29.0505 21.5933 28.0675 22.5476 26.7626 22.5476H24.4344V17.9967Z" fill="#E11A81"/>
<path d="M57.2918 25.5215H52.327V21.3212H57.3167V20.0374H52.327V17.9948H57.2918V16.7109H51.0029V26.8053H57.2918V25.5215Z" fill="#E11A81"/>
<path d="M48.8234 24.6539C47.6354 25.5066 46.9609 25.7806 46.045 25.7806C44.3185 25.7806 42.8891 24.6999 42.3583 23.1554C42.341 23.1018 42.32 23.052 42.3027 22.9983C42.3008 22.9945 42.3008 22.9907 42.3008 22.9887C42.1916 22.617 42.1341 22.2223 42.1322 21.8103C42.1322 21.3983 42.1916 21.0017 42.3008 20.6318C42.3027 20.628 42.3027 20.6261 42.3027 20.6223C42.318 20.5686 42.3391 20.5169 42.3583 20.4651C42.891 18.9226 44.3185 17.84 46.045 17.84C46.9609 17.84 47.6354 18.114 48.8234 18.9667L49.1262 19.1851L49.8562 18.1044L49.5726 17.8994C48.1968 16.9011 47.2407 16.5312 46.045 16.5312C46.0412 16.5312 46.0373 16.5312 46.0316 16.5312C44.6596 16.5312 43.3566 17.085 42.3659 18.0891C41.3772 19.0913 40.833 20.4077 40.833 21.793C40.833 21.7988 40.833 21.8065 40.833 21.8122C40.833 21.818 40.833 21.8256 40.833 21.8314C40.833 23.2168 41.3772 24.5312 42.3659 25.5353C43.3566 26.5413 44.6577 27.0932 46.0316 27.0932C46.0354 27.0932 46.0412 27.0932 46.045 27.0932C47.2407 27.0932 48.1968 26.7214 49.5726 25.725L49.8562 25.52L49.1262 24.4393L48.8234 24.6539Z" fill="#E11A81"/>
<path d="M35.5393 16.4531C33.1863 16.4531 31.1992 18.4881 31.1992 20.8967V26.8081H32.5233V22.993H38.4787V26.8081H39.8143V21.0136C39.8143 18.4996 37.8962 16.4531 35.5393 16.4531ZM32.5233 21.713V20.8967C32.5233 19.1396 33.8474 17.7638 35.5393 17.7638C37.2428 17.7638 38.4768 19.13 38.4768 21.0136V21.713H32.5233Z" fill="#E11A81"/>
<path d="M58.4858 28.7766L59.007 28.0312H57.294L56.8034 28.7766H54.0039V38.8729H60.2928V37.5872H55.328V33.3869H60.3158V32.1031H55.328V30.0605H60.3158V28.7766H58.4858Z" fill="#E11A81"/>
<path d="M40.6917 28.5156C38.3386 28.5156 36.3516 30.5506 36.3516 32.9592V38.8706H37.6756V32.9592C37.6756 31.2021 38.9997 29.8263 40.6917 29.8263C42.3952 29.8263 43.6292 31.1925 43.6292 33.0761V38.8706H44.9647V33.0761C44.9647 30.5621 43.0486 28.5156 40.6917 28.5156Z" fill="#E11A81"/>
<path d="M45.0244 30.0612H48.3509V38.8736H49.7018V30.0612H53.1068V28.7773H45.0244V30.0612Z" fill="#E11A81"/>
<path d="M30.4866 28.5156C28.1336 28.5156 26.1465 30.5506 26.1465 32.9592V38.8706H27.4706V35.0555H33.426V38.8706H34.7616V33.0761C34.7616 30.5621 32.8435 28.5156 30.4866 28.5156ZM33.426 33.7755H27.4706V32.9592C27.4706 31.2021 28.7946 29.8263 30.4866 29.8263C32.1901 29.8263 33.4241 31.1925 33.4241 33.0761V33.7755H33.426Z" fill="#E11A81"/>
<path d="M24.8024 35.8057C24.8024 34.3302 23.9708 33.2419 22.3325 32.5731C20.4853 31.7875 20.3301 31.5154 20.3301 30.8792C20.3301 30.4213 20.5179 29.8771 21.4108 29.8771C22.1332 29.8771 22.4455 30.1568 22.5605 30.908L22.6161 31.2759L23.9095 31.0402L23.8462 30.6857C23.6086 29.3386 22.7253 28.5664 21.4223 28.5664C20.0082 28.5664 19.0194 29.5609 19.0194 30.9827C19.0194 31.6572 19.2685 32.2799 19.7284 32.7379C20.1078 33.1039 20.4872 33.3319 21.4185 33.7573C22.2405 34.1195 22.6046 34.3283 22.9111 34.61C23.2829 34.9837 23.463 35.4167 23.463 35.9341C23.463 37.032 22.6026 37.8579 21.4606 37.8579C20.3416 37.8579 19.4965 37.1374 19.4965 36.1793V35.0775H18.2031V36.1793C18.2031 37.7985 19.6843 39.1666 21.4376 39.1666C23.2925 39.1705 24.8024 37.6625 24.8024 35.8057Z" fill="#E11A81"/>
<path d="M23.8216 15.3058C25.2127 15.3058 26.5291 14.7482 27.5275 13.7365C28.5239 12.7266 29.0719 11.3968 29.0719 9.99226C29.0719 8.60304 28.52 7.28855 27.516 6.2864C26.51 5.28233 25.184 4.73047 23.7833 4.73047C20.9301 4.73047 18.5215 7.164 18.5215 10.044C18.5215 12.8953 20.9493 15.3058 23.8216 15.3058ZM23.7967 6.03921C26.0271 6.03921 27.7747 7.78101 27.7747 10.0038C27.7747 12.2495 26.0386 14.0086 23.8216 14.0086C21.5835 14.0086 19.8302 12.2668 19.8302 10.044C19.8321 7.79825 21.5739 6.03921 23.7967 6.03921Z" fill="#0C419A"/>
<path d="M60.3096 16.4593C60.3096 14.9646 59.0948 13.7498 57.6001 13.7498L39.5748 13.721V9.18548C39.5748 6.67147 36.9324 4.625 34.5755 4.625C32.2224 4.625 30.2354 6.65997 30.2354 9.06859V14.98H31.5594V9.06859C31.5594 7.31147 32.8835 5.93566 34.5755 5.93566C36.2789 5.93566 38.2392 7.30189 38.2392 9.18548V15.0106L57.6001 14.9953C58.3743 14.9953 58.9874 15.687 58.9874 16.4593V26.8104H60.3096V16.4593Z" fill="#0C419A"/>
<path d="M7.30809 37.5902C6.53396 37.5902 5.92079 36.9368 5.92079 36.1627V8.04101C5.92079 6.80891 6.75432 5.94664 7.95001 5.94664C9.28366 5.94664 10.2897 6.92963 10.2897 8.23454V14.9795H11.6252V8.22305C11.6252 7.40101 11.7632 7.01394 12.2135 6.57514C12.658 6.15358 13.2463 5.92173 13.8748 5.92173C15.1126 5.92173 16.0458 6.91047 16.0458 8.22305V14.9795H17.3699V8.10616C17.3718 6.23598 15.745 4.59766 13.8901 4.59766C12.98 4.59766 12.0314 4.99622 11.3531 5.65921C11.1768 5.82784 11.0504 5.97538 10.9277 6.16317C10.83 6.02712 10.7304 5.9064 10.5924 5.76269L10.5809 5.75119C10.2532 5.43885 9.88342 5.17059 9.50977 4.97706L9.49253 4.96939C9.0269 4.75861 8.5172 4.65131 7.97875 4.65131C6.05109 4.64939 4.59863 6.19766 4.59863 8.24796V24.6197V36.1627C4.59863 37.6573 5.81348 38.8721 7.30809 38.8721H17.3699V37.5883L7.30809 37.5902Z" fill="#0C419A"/>
</svg>
