<svg width="76" height="51" viewBox="0 0 76 51" fill="none" xmlns="http://www.w3.org/2000/svg">
<rect width="76" height="50.7436" rx="12" fill="#F9FAFF"/>
<path d="M14.616 21.4661H19.606V20.1758H13.2852V30.3215H19.606V29.0312H14.616V24.8095H19.633V23.5192H14.616V21.4661Z" fill="#D81E7E"/>
<path d="M27.2383 27.241C27.2383 25.758 26.4024 24.6641 24.7558 23.9919C22.8992 23.2023 22.7432 22.9288 22.7432 22.2894C22.7432 21.8291 22.9319 21.2822 23.8294 21.2822C24.5555 21.2822 24.8694 21.5634 24.985 22.3183L25.0408 22.6881L26.3408 22.4512L26.2773 22.0949C26.0384 20.741 25.1506 19.9648 23.841 19.9648C22.4196 19.9648 21.4259 20.9644 21.4259 22.3934C21.4259 23.0714 21.6762 23.6973 22.1384 24.1576C22.5198 24.5254 22.9011 24.7546 23.8371 25.1822C24.6633 25.5462 25.0293 25.7561 25.3374 26.0392C25.711 26.4148 25.8921 26.85 25.8921 27.37C25.8921 28.4736 25.0273 29.3036 23.8795 29.3036C22.7547 29.3036 21.9054 28.5795 21.9054 27.6165V26.5091H20.6016V27.6165C20.6016 29.2439 22.0903 30.619 23.8525 30.619C25.7207 30.6229 27.2383 29.1072 27.2383 27.241Z" fill="#D81E7E"/>
<path d="M29.9363 27.3286H32.3013C34.1598 27.3286 35.9182 25.6222 35.9182 23.8157C35.9182 22.9683 35.4637 21.9553 34.7857 21.2928C34.4564 20.9788 34.0616 20.7227 33.609 20.5301C33.089 20.2932 32.6095 20.1719 32.1819 20.1719H28.6055V30.3196H29.9363V27.3286ZM29.9363 21.4642H32.1588C33.5378 21.4642 34.5758 22.4695 34.5758 23.8042C34.5758 25.0791 33.5878 26.0382 32.2763 26.0382H29.9363V21.4642Z" fill="#D81E7E"/>
<path d="M62.9615 29.0312H57.9714V24.8095H62.9865V23.5192H57.9714V21.4661H62.9615V20.1758H56.6406V30.3215H62.9615V29.0312Z" fill="#D81E7E"/>
<path d="M54.4491 28.1562C53.255 29.0132 52.5771 29.2886 51.6565 29.2886C49.9212 29.2886 48.4845 28.2024 47.951 26.6501C47.9337 26.5962 47.9125 26.5461 47.8951 26.4922C47.8932 26.4883 47.8932 26.4845 47.8932 26.4825C47.7834 26.1089 47.7257 25.7122 47.7237 25.2981C47.7237 24.884 47.7834 24.4854 47.8932 24.1137C47.8951 24.1098 47.8951 24.1079 47.8951 24.104C47.9106 24.0501 47.9317 23.9981 47.951 23.9461C48.4864 22.3957 49.9212 21.3076 51.6565 21.3076C52.5771 21.3076 53.255 21.583 54.4491 22.44L54.7534 22.6596L55.4871 21.5734L55.2021 21.3673C53.8193 20.3639 52.8582 19.9922 51.6565 19.9922C51.6526 19.9922 51.6488 19.9922 51.643 19.9922C50.264 19.9922 48.9544 20.5488 47.9587 21.558C46.9649 22.5652 46.418 23.8883 46.418 25.2808C46.418 25.2865 46.418 25.2942 46.418 25.3C46.418 25.3058 46.418 25.3135 46.418 25.3193C46.418 26.7117 46.9649 28.0329 47.9587 29.0421C48.9544 30.0532 50.2621 30.6079 51.643 30.6079C51.6468 30.6079 51.6526 30.6079 51.6565 30.6079C52.8582 30.6079 53.8193 30.2342 55.2021 29.2328L55.4871 29.0267L54.7534 27.9405L54.4491 28.1562Z" fill="#D81E7E"/>
<path d="M41.0985 19.9141C38.7335 19.9141 36.7363 21.9594 36.7363 24.3803V30.3217H38.0671V26.4872H44.0529V30.3217H45.3953V24.4978C45.3953 21.9709 43.4674 19.9141 41.0985 19.9141ZM38.0671 25.2007V24.3803C38.0671 22.6142 39.3979 21.2314 41.0985 21.2314C42.8107 21.2314 44.051 22.6046 44.051 24.4978V25.2007H38.0671Z" fill="#D81E7E"/>
<path d="M64.161 32.3L64.6848 31.5508H62.9631L62.47 32.3H59.6562V42.4476H65.9771V41.1554H60.9871V36.9337H66.0002V35.6434H60.9871V33.5903H66.0002V32.3H64.161Z" fill="#D81E7E"/>
<path d="M46.2763 32.0391C43.9112 32.0391 41.9141 34.0844 41.9141 36.5053V42.4467H43.2449V36.5053C43.2449 34.7392 44.5757 33.3564 46.2763 33.3564C47.9884 33.3564 49.2287 34.7296 49.2287 36.6228V42.4467H50.5711V36.6228C50.5711 34.0959 48.6452 32.0391 46.2763 32.0391Z" fill="#D81E7E"/>
<path d="M50.6309 33.5911H53.9743V42.4485H55.332V33.5911H58.7544V32.3008H50.6309V33.5911Z" fill="#D81E7E"/>
<path d="M36.0204 32.0391C33.6554 32.0391 31.6582 34.0844 31.6582 36.5053V42.4467H32.989V38.6122H38.9748V42.4467H40.3171V36.6228C40.3171 34.0959 38.3893 32.0391 36.0204 32.0391ZM38.9748 37.3257H32.989V36.5053C32.989 34.7392 34.3198 33.3564 36.0204 33.3564C37.7326 33.3564 38.9728 34.7296 38.9728 36.6228V37.3257H38.9748Z" fill="#D81E7E"/>
<path d="M30.3067 39.366C30.3067 37.883 29.4709 36.7891 27.8242 36.1169C25.9676 35.3273 25.8116 35.0538 25.8116 34.4144C25.8116 33.9541 26.0003 33.4072 26.8978 33.4072C27.6239 33.4072 27.9378 33.6884 28.0534 34.4433L28.1092 34.8131L29.4092 34.5762L29.3457 34.2199C29.1069 32.866 28.219 32.0898 26.9094 32.0898C25.488 32.0898 24.4943 33.0894 24.4943 34.5184C24.4943 35.1964 24.7446 35.8223 25.2069 36.2826C25.5882 36.6504 25.9695 36.8796 26.9055 37.3072C27.7317 37.6712 28.0977 37.8811 28.4058 38.1642C28.7794 38.5398 28.9605 38.975 28.9605 39.495C28.9605 40.5986 28.0957 41.4286 26.9479 41.4286C25.8232 41.4286 24.9738 40.7045 24.9738 39.7415V38.6341H23.6738V39.7415C23.6738 41.3689 25.1626 42.744 26.9248 42.744C28.7891 42.7479 30.3067 41.2322 30.3067 39.366Z" fill="#D81E7E"/>
<path d="M29.3212 18.762C30.7195 18.762 32.0426 18.2015 33.046 17.1846C34.0475 16.1697 34.5983 14.8331 34.5983 13.4214C34.5983 12.0251 34.0436 10.7039 33.0344 9.69666C32.0233 8.68748 30.6906 8.13281 29.2827 8.13281C26.415 8.13281 23.9941 10.5787 23.9941 13.4734C23.9941 16.3392 26.4343 18.762 29.3212 18.762ZM29.2962 9.44822C31.538 9.44822 33.2944 11.1989 33.2944 13.4329C33.2944 15.6901 31.5495 17.4581 29.3212 17.4581C27.0718 17.4581 25.3095 15.7075 25.3095 13.4734C25.3115 11.2162 27.0621 9.44822 29.2962 9.44822Z" fill="#0C419A"/>
<path d="M65.9949 19.9218C65.9949 18.4196 64.7739 17.1986 63.2717 17.1986L45.1545 17.1697V12.611C45.1545 10.0842 42.4987 8.02734 40.1298 8.02734C37.7648 8.02734 35.7676 10.0727 35.7676 12.4936V18.435H37.0984V12.4936C37.0984 10.7275 38.4292 9.34467 40.1298 9.34467C41.8419 9.34467 43.8122 10.7179 43.8122 12.611V18.4658L63.2717 18.4504C64.0497 18.4504 64.666 19.1457 64.666 19.9218V30.3257H65.9949V19.9218Z" fill="#0C419A"/>
<path d="M12.7233 41.1605C11.9452 41.1605 11.3289 40.5038 11.3289 39.7257V11.4609C11.3289 10.2225 12.1667 9.35585 13.3684 9.35585C14.7089 9.35585 15.72 10.3438 15.72 11.6554V18.4346H17.0624V11.6438C17.0624 10.8176 17.201 10.4286 17.6536 9.98755C18.1004 9.56385 18.6917 9.33081 19.3234 9.33081C20.5675 9.33081 21.5055 10.3246 21.5055 11.6438V18.4346H22.8363V11.5264C22.8382 9.64666 21.2031 8 19.3388 8C18.424 8 17.4706 8.40059 16.7889 9.06696C16.6117 9.23644 16.4846 9.38474 16.3613 9.57348C16.2631 9.43674 16.1629 9.3154 16.0243 9.17096L16.0127 9.1594C15.6834 8.84548 15.3117 8.57585 14.9361 8.38133L14.9188 8.37363C14.4508 8.16178 13.9385 8.05393 13.3973 8.05393C11.4598 8.052 10 9.60814 10 11.6689V28.1239V39.7257C10 41.2279 11.221 42.4489 12.7233 42.4489H22.8363V41.1586L12.7233 41.1605Z" fill="#0C419A"/>
</svg>
