<svg width="64" height="64" viewBox="0 0 64 64" fill="none" xmlns="http://www.w3.org/2000/svg">
    <defs>
        <filter id="filter0_d_14450_124282" x="9.93577" y="8.80675" width="40.5816" height="54.3736"
            filterUnits="userSpaceOnUse" color-interpolation-filters="sRGB">
            <feFlood flood-opacity="0" result="BackgroundImageFix" />
            <feColorMatrix in="SourceAlpha" type="matrix"
                values="0 0 0 0 0 0 0 0 0 0 0 0 0 0 0 0 0 0 127 0" result="hardAlpha" />
            <feOffset dy="2.39344" />
            <feGaussianBlur stdDeviation="2.39344" />
            <feColorMatrix type="matrix"
                values="0 0 0 0 0.0470588 0 0 0 0 0.254902 0 0 0 0 0.603922 0 0 0 0.1 0" />
            <feBlend mode="normal" in2="BackgroundImageFix"
                result="effect1_dropShadow_14450_124282" />
            <feBlend mode="normal" in="SourceGraphic" in2="effect1_dropShadow_14450_124282"
                result="shape" />
        </filter>
        <filter id="filter1_d_14450_124282" x="14.7326" y="4.00597" width="40.5816" height="54.3736"
            filterUnits="userSpaceOnUse" color-interpolation-filters="sRGB">
            <feFlood flood-opacity="0" result="BackgroundImageFix" />
            <feColorMatrix in="SourceAlpha" type="matrix"
                values="0 0 0 0 0 0 0 0 0 0 0 0 0 0 0 0 0 0 127 0" result="hardAlpha" />
            <feOffset dy="2.39344" />
            <feGaussianBlur stdDeviation="2.39344" />
            <feColorMatrix type="matrix"
                values="0 0 0 0 0.0470588 0 0 0 0 0.254902 0 0 0 0 0.603922 0 0 0 0.1 0" />
            <feBlend mode="normal" in2="BackgroundImageFix"
                result="effect1_dropShadow_14450_124282" />
            <feBlend mode="normal" in="SourceGraphic" in2="effect1_dropShadow_14450_124282"
                result="shape" />
        </filter>
    </defs>
    <path
        d="M52.0197 41.3912C45.9458 45.2928 38.5247 47.6687 31.4279 48.1322C17.4871 49.042 4.97292 37.7464 3.4192 23.7058C2.68847 17.0999 5.12044 9.94418 10.7051 6.14468C14.8377 3.33242 19.8548 3.51744 24.2487 5.45269C27.9546 7.08509 30.9675 9.8882 34.5073 11.8077C39.9191 14.7426 45.8842 14.5987 51.5882 16.4419C54.7152 17.4522 58.132 19.4876 59.648 22.579C61.0873 25.5134 61.0805 29.1218 59.9437 32.1916C58.509 36.0661 55.4763 39.1711 52.0197 41.3912Z"
        fill="#A0B2EC" fill-opacity="0.16" />
    <path
        d="M52.0385 26.6583C50.0929 24.2604 46.9761 22.9051 43.7764 22.6282C41.7452 22.4526 39.6147 22.6958 37.7578 23.6135C34.7137 25.1182 32.844 28.1492 30.4739 30.5489C27.64 33.4184 24.0231 35.4262 20.8531 37.9452C17.6836 40.464 14.8108 43.8237 14.5071 47.6972C14.3261 49.9991 15.0942 52.2717 16.3913 54.1446C18.9185 57.794 23.4119 59.9355 28.0372 60.1862C41.1222 60.8957 53.0667 48.8088 54.3683 36.7138C54.7483 33.1808 54.2657 29.4032 52.0385 26.6583Z"
        fill="#A0B2EC" fill-opacity="0.16" />
    <g filter="url(#filter0_d_14450_124282)">
        <path
            d="M17.2827 56.0003H43.1709C44.5847 56.0003 45.7309 54.8541 45.7309 53.4403V13.7602C45.7309 12.3463 44.5847 11.2002 43.1709 11.2002H17.2827C15.8688 11.2002 14.7227 12.3463 14.7227 13.7602V53.4403C14.7227 54.8541 15.8688 56.0003 17.2827 56.0003Z"
            fill="white" />
    </g>
    <rect x="32.6406" y="16" width="9.92" height="2.56" rx="1.28" fill="#A05BB6" />
    <rect x="32.6406" y="21.7598" width="9.92" height="1.92" rx="0.96" fill="#F2DCF9" />
    <rect x="32.6406" y="26.8799" width="5.12" height="1.92" rx="0.96" fill="#F2DCF9" />
    <path
        d="M30.7219 22.4C30.7219 25.9346 27.8565 28.8 24.3219 28.8C20.7873 28.8 17.9219 25.9346 17.9219 22.4C17.9219 18.8654 20.7873 16 24.3219 16C27.8565 16 30.7219 18.8654 30.7219 22.4Z"
        fill="#F9FAFF" />
    <path
        d="M22.2611 20.4132C22.2611 19.39 23.1118 18.5605 24.1611 18.5605C25.2104 18.5605 26.0611 19.39 26.0611 20.4132C26.0611 21.4364 25.2104 22.2658 24.1611 22.2658C23.1118 22.2658 22.2611 21.4364 22.2611 20.4132ZM24.1611 21.5248C24.7907 21.5248 25.3011 21.0271 25.3011 20.4132C25.3011 19.7993 24.7907 19.3016 24.1611 19.3016C23.5315 19.3016 23.0211 19.7993 23.0211 20.4132C23.0211 21.0271 23.5315 21.5248 24.1611 21.5248Z"
        fill="#A05BB6" />
    <path
        d="M22.0115 23.5045C21.5338 23.9704 21.2315 24.5752 21.146 25.2216C21.1185 25.4297 21.2912 25.6005 21.5011 25.6005C21.711 25.6005 21.8777 25.4291 21.9143 25.2225C21.9938 24.7732 22.2138 24.3553 22.5489 24.0285C22.9765 23.6116 23.5564 23.3774 24.1611 23.3774C24.7658 23.3774 25.3457 23.6116 25.7733 24.0285C26.1084 24.3553 26.3284 24.7732 26.4079 25.2225C26.4445 25.4291 26.6112 25.6005 26.8211 25.6005C27.031 25.6005 27.2037 25.4297 27.1762 25.2216C27.0907 24.5752 26.7884 23.9704 26.3107 23.5045C25.7406 22.9486 24.9674 22.6363 24.1611 22.6363C23.3548 22.6363 22.5816 22.9486 22.0115 23.5045Z"
        fill="#A05BB6" />
    <rect x="17.9219" y="32" width="3.84" height="2.56" rx="1.28" fill="#A05BB6" />
    <rect x="17.9219" y="37.1201" width="3.84" height="2.56" rx="1.28" fill="#A05BB6" />
    <rect x="23.3633" y="32.3203" width="19.2" height="1.92" rx="0.96" fill="#F2DCF9" />
    <rect x="23.3633" y="37.4395" width="9.92" height="1.92" rx="0.96" fill="#F2DCF9" />
    <path
        d="M17.9219 43.6931C17.9219 43.244 18.286 42.8799 18.7351 42.8799L41.7487 42.8799C42.1978 42.8799 42.5619 43.244 42.5619 43.6931L42.5619 51.3467C42.5619 51.7958 42.1978 52.1599 41.7487 52.1599L18.7351 52.1599C18.286 52.1599 17.9219 51.7958 17.9219 51.3467L17.9219 43.6931Z"
        fill="#F9FAFF" />
    <path fill-rule="evenodd" clip-rule="evenodd"
        d="M30.9789 45.4711L29.3687 48.6452C29.246 48.8871 28.9978 49.0395 28.7266 49.0395H27.8018L27.2835 50.5485C27.0699 51.1704 26.2031 51.2041 25.9418 50.6007L24.3428 46.9075L23.5694 48.6164C23.4528 48.874 23.1962 49.0395 22.9134 49.0395H20.482C20.2611 49.0395 20.082 48.8604 20.082 48.6395C20.082 48.4186 20.2611 48.2395 20.482 48.2395H22.8618L23.6884 46.413C23.9461 45.8438 24.7568 45.8504 25.0051 46.4238L26.594 50.0934L27.0638 48.7256C27.1636 48.4348 27.4372 48.2395 27.7447 48.2395H28.6775L30.3477 44.947C30.6311 44.3884 31.4433 44.4331 31.6637 45.0194L33.3558 49.5195L33.7496 48.6597C33.8668 48.4037 34.1226 48.2395 34.4042 48.2395H35.7117L36.3704 46.9411C36.637 46.4154 37.3879 46.4154 37.6546 46.9411L38.3132 48.2395H40.002C40.2229 48.2395 40.402 48.4186 40.402 48.6395C40.402 48.8604 40.2229 49.0395 40.002 49.0395H38.2641C37.9929 49.0395 37.7447 48.8871 37.622 48.6452L37.0125 47.4437L36.403 48.6452C36.2803 48.8871 36.0321 49.0395 35.7609 49.0395H34.4556L34.0032 50.0273C33.7366 50.6093 32.8999 50.5801 32.6746 49.9809L30.9789 45.4711Z"
        fill="#A05BB6" />
    <g filter="url(#filter1_d_14450_124282)">
        <path
            d="M22.0795 51.1995H47.9677C49.3816 51.1995 50.5277 50.0534 50.5277 48.6395V8.95941C50.5277 7.54557 49.3816 6.39941 47.9677 6.39941H22.0795C20.6657 6.39941 19.5195 7.54556 19.5195 8.95941V48.6395C19.5195 50.0534 20.6657 51.1995 22.0795 51.1995Z"
            fill="white" />
    </g>
    <rect x="22.7227" y="11.1992" width="13.76" height="2.56" rx="1.28" fill="#A05BB6" />
    <rect x="22.7227" y="16.959" width="24.64" height="1.92" rx="0.96" fill="#BDCCF8" />
    <rect x="22.7227" y="22.0791" width="19.84" height="1.92" rx="0.96" fill="#BDCCF8" />
    <rect x="22.7227" y="27.1992" width="3.84" height="2.56" rx="1.28" fill="#A05BB6" />
    <rect x="22.7227" y="32.3193" width="3.84" height="2.56" rx="1.28" fill="#A05BB6" />
    <rect x="28.1641" y="27.5195" width="19.2" height="1.92" rx="0.96" fill="#BDCCF8" />
    <rect x="28.1641" y="32.6387" width="9.92" height="1.92" rx="0.96" fill="#BDCCF8" />
    <path
        d="M22.7227 38.8923C22.7227 38.4432 23.0867 38.0791 23.5359 38.0791L46.5494 38.0791C46.9986 38.0791 47.3627 38.4432 47.3627 38.8923L47.3627 46.5459C47.3627 46.995 46.9986 47.3591 46.5494 47.3591L23.5359 47.3591C23.0867 47.3591 22.7227 46.995 22.7227 46.5459L22.7227 38.8923Z"
        fill="#F9FAFF" />
    <path fill-rule="evenodd" clip-rule="evenodd"
        d="M35.7797 40.6703L34.1695 43.8444C34.0468 44.0863 33.7986 44.2387 33.5274 44.2387H32.6026L32.0843 45.7477C31.8707 46.3696 31.0039 46.4033 30.7426 45.7999L29.1435 42.1067L28.3702 43.8156C28.2536 44.0732 27.997 44.2387 27.7142 44.2387H25.2828C25.0619 44.2387 24.8828 44.0596 24.8828 43.8387C24.8828 43.6178 25.0619 43.4387 25.2828 43.4387H27.6626L28.4892 41.6123C28.7468 41.043 29.5576 41.0496 29.8059 41.623L31.3947 45.2926L31.8645 43.9248C31.9644 43.634 32.238 43.4387 32.5455 43.4387H33.4783L35.1485 40.1463C35.4318 39.5876 36.244 39.6323 36.4645 40.2186L38.1566 44.7187L38.5504 43.8589C38.6676 43.6029 38.9234 43.4387 39.205 43.4387H40.5125L41.1712 42.1403C41.4378 41.6146 42.1887 41.6146 42.4554 42.1403L43.114 43.4387H44.8028C45.0237 43.4387 45.2028 43.6178 45.2028 43.8387C45.2028 44.0596 45.0237 44.2387 44.8028 44.2387H43.0649C42.7937 44.2387 42.5455 44.0863 42.4228 43.8444L41.8133 42.6429L41.2037 43.8444C41.081 44.0863 40.8328 44.2387 40.5616 44.2387H39.2563L38.804 45.2265C38.5374 45.8086 37.7007 45.7794 37.4754 45.1801L35.7797 40.6703Z"
        fill="#A05BB6" />
</svg>
