<svg width="322" height="429" viewBox="0 0 322 429" fill="none" xmlns="http://www.w3.org/2000/svg">
<g clip-path="url(#clip0_49842_37942)" filter="url(#filter0_dd_49842_37942)">
<rect x="16.8482" y="26.8482" width="284.304" height="588.304" rx="45.6696" fill="#F9FAFF" stroke="url(#paint0_linear_49842_37942)" stroke-width="8.30357"/>
<rect x="39.3984" y="97.668" width="239.2" height="6" rx="3" fill="#BDCCF8"/>
<rect x="39.3984" y="111.668" width="159" height="6" rx="3" fill="#BDCCF8"/>
<path d="M37.4091 161.243C38.5391 161.243 39.3637 161.487 39.8828 161.974C40.4019 162.457 40.6615 163.124 40.6615 163.974C40.6615 164.358 40.6036 164.725 40.4878 165.077C40.372 165.424 40.1823 165.733 39.9187 166.005C39.6592 166.276 39.3118 166.492 38.8766 166.652C38.4413 166.808 37.9043 166.885 37.2654 166.885H36.4687V170H34.612V161.243H37.4091ZM37.3133 162.765H36.4687V165.364H37.0797C37.4271 165.364 37.7286 165.318 37.9841 165.226C38.2397 165.134 38.4373 164.991 38.5771 164.795C38.7168 164.599 38.7867 164.348 38.7867 164.04C38.7867 163.609 38.6669 163.29 38.4273 163.082C38.1878 162.87 37.8164 162.765 37.3133 162.765ZM48.2562 166.64C48.2562 167.199 48.1804 167.694 48.0286 168.125C47.8809 168.557 47.6633 168.922 47.3758 169.221C47.0923 169.517 46.7489 169.74 46.3456 169.892C45.9463 170.044 45.4951 170.12 44.9919 170.12C44.5207 170.12 44.0875 170.044 43.6922 169.892C43.3009 169.74 42.9595 169.517 42.668 169.221C42.3805 168.922 42.1569 168.557 41.9971 168.125C41.8414 167.694 41.7635 167.199 41.7635 166.64C41.7635 165.897 41.8953 165.268 42.1589 164.753C42.4224 164.238 42.7977 163.847 43.2849 163.579C43.772 163.312 44.353 163.178 45.0279 163.178C45.6548 163.178 46.2098 163.312 46.693 163.579C47.1801 163.847 47.5615 164.238 47.837 164.753C48.1165 165.268 48.2562 165.897 48.2562 166.64ZM43.6263 166.64C43.6263 167.079 43.6742 167.448 43.7701 167.748C43.8659 168.047 44.0156 168.273 44.2193 168.425C44.4229 168.576 44.6885 168.652 45.0159 168.652C45.3393 168.652 45.6009 168.576 45.8005 168.425C46.0042 168.273 46.1519 168.047 46.2437 167.748C46.3396 167.448 46.3875 167.079 46.3875 166.64C46.3875 166.197 46.3396 165.829 46.2437 165.538C46.1519 165.242 46.0042 165.021 45.8005 164.873C45.5969 164.725 45.3313 164.651 45.0039 164.651C44.5207 164.651 44.1694 164.817 43.9497 165.148C43.7341 165.48 43.6263 165.977 43.6263 166.64ZM55.9109 163.304V170H54.5094L54.2638 169.143H54.168C54.0242 169.371 53.8445 169.557 53.6289 169.701C53.4133 169.844 53.1757 169.95 52.9161 170.018C52.6566 170.086 52.3871 170.12 52.1076 170.12C51.6284 170.12 51.2111 170.036 50.8557 169.868C50.5003 169.697 50.2228 169.431 50.0232 169.072C49.8275 168.712 49.7297 168.245 49.7297 167.67V163.304H51.5565V167.215C51.5565 167.694 51.6424 168.055 51.8141 168.299C51.9858 168.543 52.2593 168.664 52.6346 168.664C53.006 168.664 53.2975 168.58 53.5091 168.413C53.7207 168.241 53.8685 167.991 53.9523 167.664C54.0402 167.333 54.0841 166.929 54.0841 166.454V163.304H55.9109ZM61.5651 163.178C61.6569 163.178 61.7628 163.184 61.8826 163.196C62.0063 163.204 62.1062 163.216 62.182 163.232L62.0443 164.945C61.9844 164.925 61.8985 164.911 61.7867 164.903C61.6789 164.891 61.5851 164.885 61.5052 164.885C61.2696 164.885 61.04 164.915 60.8164 164.975C60.5968 165.035 60.3991 165.132 60.2234 165.268C60.0477 165.4 59.908 165.576 59.8042 165.795C59.7043 166.011 59.6544 166.276 59.6544 166.592V170H57.8276V163.304H59.2112L59.4807 164.43H59.5706C59.7023 164.202 59.8661 163.994 60.0617 163.807C60.2614 163.615 60.487 163.463 60.7385 163.352C60.9941 163.236 61.2696 163.178 61.5651 163.178ZM74.4487 163.178C75.2074 163.178 75.7804 163.374 76.1677 163.765C76.559 164.152 76.7547 164.775 76.7547 165.634V170H74.9219V166.089C74.9219 165.61 74.84 165.248 74.6763 165.005C74.5126 164.761 74.259 164.639 73.9156 164.639C73.4325 164.639 73.0891 164.813 72.8854 165.16C72.6818 165.504 72.5799 165.997 72.5799 166.64V170H70.7531V166.089C70.7531 165.769 70.7172 165.502 70.6453 165.286C70.5734 165.071 70.4636 164.909 70.3159 164.801C70.1681 164.693 69.9785 164.639 69.7469 164.639C69.4075 164.639 69.1399 164.725 68.9443 164.897C68.7526 165.065 68.6148 165.314 68.531 165.646C68.4511 165.973 68.4112 166.374 68.4112 166.849V170H66.5844V163.304H67.9799L68.2255 164.16H68.3273C68.4631 163.929 68.6328 163.741 68.8365 163.597C69.0441 163.453 69.2717 163.348 69.5193 163.28C69.7668 163.212 70.0184 163.178 70.274 163.178C70.7651 163.178 71.1804 163.258 71.5198 163.417C71.8632 163.577 72.1267 163.825 72.3104 164.16H72.4721C72.6718 163.817 72.9533 163.567 73.3167 163.411C73.684 163.256 74.0614 163.178 74.4487 163.178ZM84.7208 166.64C84.7208 167.199 84.645 167.694 84.4932 168.125C84.3455 168.557 84.1279 168.922 83.8404 169.221C83.5569 169.517 83.2135 169.74 82.8102 169.892C82.4108 170.044 81.9596 170.12 81.4565 170.12C80.9853 170.12 80.5521 170.044 80.1568 169.892C79.7655 169.74 79.424 169.517 79.1326 169.221C78.8451 168.922 78.6214 168.557 78.4617 168.125C78.306 167.694 78.2281 167.199 78.2281 166.64C78.2281 165.897 78.3599 165.268 78.6234 164.753C78.887 164.238 79.2623 163.847 79.7495 163.579C80.2366 163.312 80.8176 163.178 81.4924 163.178C82.1194 163.178 82.6744 163.312 83.1576 163.579C83.6447 163.847 84.026 164.238 84.3016 164.753C84.5811 165.268 84.7208 165.897 84.7208 166.64ZM80.0909 166.64C80.0909 167.079 80.1388 167.448 80.2346 167.748C80.3305 168.047 80.4802 168.273 80.6839 168.425C80.8875 168.576 81.153 168.652 81.4805 168.652C81.8039 168.652 82.0655 168.576 82.2651 168.425C82.4687 168.273 82.6165 168.047 82.7083 167.748C82.8042 167.448 82.8521 167.079 82.8521 166.64C82.8521 166.197 82.8042 165.829 82.7083 165.538C82.6165 165.242 82.4687 165.021 82.2651 164.873C82.0615 164.725 81.7959 164.651 81.4685 164.651C80.9853 164.651 80.6339 164.817 80.4143 165.148C80.1987 165.48 80.0909 165.977 80.0909 166.64ZM88.057 163.304V170H86.2302V163.304H88.057ZM87.1466 160.68C87.4181 160.68 87.6517 160.744 87.8474 160.872C88.0431 160.996 88.1409 161.229 88.1409 161.573C88.1409 161.912 88.0431 162.148 87.8474 162.279C87.6517 162.407 87.4181 162.471 87.1466 162.471C86.8711 162.471 86.6355 162.407 86.4398 162.279C86.2482 162.148 86.1523 161.912 86.1523 161.573C86.1523 161.229 86.2482 160.996 86.4398 160.872C86.6355 160.744 86.8711 160.68 87.1466 160.68Z" fill="#F9FAFF"/>
<rect x="21" y="187.27" width="80.5333" height="3.06667" fill="url(#paint1_linear_49842_37942)"/>
<rect x="113.797" y="162.5" width="142" height="6" rx="3" fill="#BDCCF8"/>
<rect x="101.531" y="187.27" width="166.533" height="3.06667" fill="#E7ECFA"/>
<path d="M280.336 165.5C280.336 163.843 281.679 162.5 283.336 162.5H297.003V168.5H283.336C281.679 168.5 280.336 167.157 280.336 165.5Z" fill="#BDCCF8"/>
<rect x="268.07" y="187.27" width="29" height="3" fill="#E7ECFA"/>
<rect x="21" y="208.738" width="276" height="225.333" rx="12.2667" fill="white"/>
<mask id="mask0_49842_37942" style="mask-type:alpha" maskUnits="userSpaceOnUse" x="39" y="227" width="239" height="126">
<rect x="39.3984" y="227.137" width="238.433" height="125.733" rx="6.13333" fill="#E7ECFA"/>
</mask>
<g mask="url(#mask0_49842_37942)">
<rect x="39.3984" y="227.137" width="238.433" height="125.733" fill="#D9E7FF"/>
<path d="M199.966 320.488C174.042 323.72 146.11 319.851 122.226 310.239C75.3114 291.356 52.1448 234.809 69.0384 186.473C76.9875 163.732 96.1172 144.152 120.285 140.488C138.169 137.774 154.252 146.245 165.563 159.46C175.102 170.607 180.549 184.495 189.097 196.32C202.166 214.399 221.856 223.281 237.586 238.25C246.21 246.456 254.176 258.467 254.287 270.95C254.393 282.799 248.726 294.585 240.215 302.838C229.472 313.255 214.719 318.65 199.966 320.488Z" fill="#A0B2EC" fill-opacity="0.16"/>
<path d="M242.933 347.05C240.051 378.493 228.266 410.473 210.747 436.189C176.33 486.702 103.58 499.444 50.8755 467.01C26.0793 451.749 7.90442 424.104 9.82154 394.623C11.238 372.806 25.3949 356.006 43.9209 346.066C59.5465 337.683 77.3504 334.84 93.5209 327.802C118.244 317.043 133.818 296.09 155.556 281.385C167.472 273.323 183.711 267.021 198.478 270.116C212.497 273.051 224.947 282.787 232.492 294.969C242.016 310.344 244.575 329.157 242.933 347.05Z" fill="#A0B2EC" fill-opacity="0.16"/>
</g>
<rect x="39.3984" y="371.273" width="239.2" height="6" rx="3" fill="#BDCCF8"/>
<rect x="39.3984" y="385.273" width="239.2" height="6" rx="3" fill="#BDCCF8"/>
<rect x="39.3984" y="409.672" width="159" height="6" rx="3" fill="#BDCCF8"/>
<path d="M21 72.52C21 49.5891 39.5891 31 62.52 31H255.48C278.411 31 297 49.5891 297 72.52V80.0667H21V72.52Z" fill="white"/>
<path d="M43.6406 55.5329L51.654 63.5462L53.5393 61.6609L47.406 55.5275L53.5393 49.3942L51.654 47.5195L43.6406 55.5329Z" fill="#0C419A"/>
<path d="M138.183 51.4464C139.313 51.4464 140.137 51.668 140.656 52.1112C141.179 52.5504 141.441 53.1813 141.441 54.0039C141.441 54.3753 141.379 54.7286 141.255 55.0641C141.135 55.3955 140.94 55.689 140.668 55.9445C140.397 56.1961 140.039 56.3957 139.596 56.5435C139.157 56.6872 138.618 56.7591 137.979 56.7591H136.913V60.2031H135.895V51.4464H138.183ZM138.087 52.3148H136.913V55.8846H137.865C138.424 55.8846 138.889 55.8247 139.261 55.7049C139.636 55.5852 139.918 55.3915 140.105 55.124C140.293 54.8524 140.387 54.4931 140.387 54.0458C140.387 53.4628 140.201 53.0296 139.83 52.7461C139.458 52.4586 138.877 52.3148 138.087 52.3148ZM146.107 53.5188C146.239 53.5188 146.376 53.5267 146.52 53.5427C146.664 53.5547 146.792 53.5727 146.903 53.5966L146.778 54.519C146.67 54.4911 146.55 54.4691 146.418 54.4531C146.286 54.4372 146.163 54.4292 146.047 54.4292C145.783 54.4292 145.534 54.4831 145.298 54.5909C145.067 54.6947 144.863 54.8464 144.687 55.0461C144.512 55.2418 144.374 55.4793 144.274 55.7589C144.174 56.0344 144.124 56.3418 144.124 56.6813V60.2031H143.124V53.6385H143.951L144.058 54.8484H144.1C144.236 54.6049 144.4 54.3832 144.591 54.1836C144.783 53.9799 145.005 53.8182 145.256 53.6984C145.512 53.5786 145.795 53.5188 146.107 53.5188ZM150.671 53.5188C151.23 53.5188 151.709 53.6425 152.108 53.8901C152.508 54.1377 152.813 54.4851 153.025 54.9323C153.236 55.3755 153.342 55.8946 153.342 56.4896V57.1065H148.808C148.82 57.8772 149.012 58.4641 149.383 58.8674C149.754 59.2707 150.278 59.4724 150.952 59.4724C151.368 59.4724 151.735 59.4345 152.054 59.3586C152.374 59.2827 152.705 59.1709 153.049 59.0232V59.8977C152.717 60.0454 152.388 60.1532 152.06 60.2211C151.737 60.289 151.354 60.3229 150.91 60.3229C150.28 60.3229 149.728 60.1951 149.257 59.9396C148.79 59.68 148.427 59.3007 148.167 58.8016C147.908 58.3024 147.778 57.6915 147.778 56.9688C147.778 56.262 147.896 55.651 148.131 55.1359C148.371 54.6168 148.706 54.2175 149.138 53.938C149.573 53.6585 150.084 53.5188 150.671 53.5188ZM150.659 54.3333C150.128 54.3333 149.705 54.507 149.389 54.8544C149.074 55.2018 148.886 55.687 148.826 56.3099H152.3C152.296 55.9186 152.234 55.5752 152.114 55.2797C151.999 54.9802 151.821 54.7486 151.581 54.5849C151.342 54.4172 151.034 54.3333 150.659 54.3333ZM152.318 50.8055V50.9253C152.238 51.0411 152.128 51.1808 151.989 51.3445C151.853 51.5043 151.701 51.674 151.533 51.8536C151.366 52.0293 151.196 52.197 151.024 52.3568C150.857 52.5165 150.701 52.6543 150.557 52.7701H149.892V52.6263C150.02 52.4746 150.16 52.2929 150.311 52.0813C150.463 51.8656 150.611 51.646 150.755 51.4224C150.898 51.1948 151.018 50.9891 151.114 50.8055H152.318ZM156.475 60.2031L153.983 53.6385H155.049L156.493 57.6096C156.593 57.8812 156.694 58.1806 156.798 58.5081C156.902 58.8355 156.974 59.099 157.014 59.2987H157.056C157.104 59.099 157.184 58.8355 157.295 58.5081C157.407 58.1766 157.509 57.8772 157.601 57.6096L159.044 53.6385H160.11L157.613 60.2031H156.475ZM163.692 53.5188C164.251 53.5188 164.73 53.6425 165.13 53.8901C165.529 54.1377 165.834 54.4851 166.046 54.9323C166.258 55.3755 166.364 55.8946 166.364 56.4896V57.1065H161.829C161.841 57.8772 162.033 58.4641 162.404 58.8674C162.776 59.2707 163.299 59.4724 163.974 59.4724C164.389 59.4724 164.756 59.4345 165.076 59.3586C165.395 59.2827 165.727 59.1709 166.07 59.0232V59.8977C165.739 60.0454 165.409 60.1532 165.082 60.2211C164.758 60.289 164.375 60.3229 163.932 60.3229C163.301 60.3229 162.75 60.1951 162.279 59.9396C161.811 59.68 161.448 59.3007 161.189 58.8016C160.929 58.3024 160.799 57.6915 160.799 56.9688C160.799 56.262 160.917 55.651 161.153 55.1359C161.392 54.6168 161.728 54.2175 162.159 53.938C162.594 53.6585 163.105 53.5188 163.692 53.5188ZM163.68 54.3333C163.149 54.3333 162.726 54.507 162.41 54.8544C162.095 55.2018 161.907 55.687 161.847 56.3099H165.321C165.317 55.9186 165.255 55.5752 165.136 55.2797C165.02 54.9802 164.842 54.7486 164.603 54.5849C164.363 54.4172 164.056 54.3333 163.68 54.3333ZM171.161 53.5188C171.94 53.5188 172.529 53.7104 172.928 54.0938C173.327 54.4731 173.527 55.084 173.527 55.9266V60.2031H172.545V55.9924C172.545 55.4454 172.419 55.0361 172.167 54.7646C171.92 54.4931 171.539 54.3573 171.023 54.3573C170.297 54.3573 169.786 54.5629 169.49 54.9742C169.195 55.3855 169.047 55.9825 169.047 56.7651V60.2031H168.053V53.6385H168.855L169.005 54.5849H169.059C169.199 54.3533 169.376 54.1596 169.592 54.0039C169.808 53.8442 170.049 53.7244 170.317 53.6445C170.584 53.5607 170.866 53.5188 171.161 53.5188ZM177.696 59.5083C177.86 59.5083 178.027 59.4944 178.199 59.4664C178.371 59.4385 178.51 59.4045 178.618 59.3646V60.1372C178.502 60.1891 178.341 60.2331 178.133 60.269C177.929 60.3049 177.73 60.3229 177.534 60.3229C177.187 60.3229 176.871 60.263 176.588 60.1432C176.304 60.0194 176.077 59.8118 175.905 59.5203C175.737 59.2288 175.653 58.8255 175.653 58.3104V54.4172H174.719V53.932L175.659 53.5427L176.055 52.1172H176.654V53.6385H178.576V54.4172H176.654V58.2805C176.654 58.6918 176.747 58.9992 176.935 59.2029C177.127 59.4065 177.38 59.5083 177.696 59.5083ZM180.942 53.6385V60.2031H179.948V53.6385H180.942ZM180.457 51.1828C180.621 51.1828 180.761 51.2367 180.876 51.3445C180.996 51.4484 181.056 51.6121 181.056 51.8357C181.056 52.0553 180.996 52.219 180.876 52.3268C180.761 52.4346 180.621 52.4885 180.457 52.4885C180.285 52.4885 180.142 52.4346 180.026 52.3268C179.914 52.219 179.858 52.0553 179.858 51.8357C179.858 51.6121 179.914 51.4484 180.026 51.3445C180.142 51.2367 180.285 51.1828 180.457 51.1828ZM188.711 56.9089C188.711 57.4479 188.641 57.9291 188.501 58.3523C188.361 58.7756 188.16 59.133 187.896 59.4245C187.633 59.716 187.313 59.9396 186.938 60.0953C186.566 60.247 186.145 60.3229 185.674 60.3229C185.235 60.3229 184.831 60.247 184.464 60.0953C184.101 59.9396 183.785 59.716 183.518 59.4245C183.254 59.133 183.049 58.7756 182.901 58.3523C182.757 57.9291 182.685 57.4479 182.685 56.9089C182.685 56.1901 182.807 55.5792 183.051 55.076C183.294 54.5689 183.641 54.1836 184.093 53.9201C184.548 53.6525 185.089 53.5188 185.716 53.5188C186.315 53.5188 186.838 53.6525 187.285 53.9201C187.736 54.1876 188.086 54.5749 188.333 55.082C188.585 55.5852 188.711 56.1941 188.711 56.9089ZM183.715 56.9089C183.715 57.4359 183.785 57.8931 183.925 58.2805C184.065 58.6678 184.28 58.9673 184.572 59.1789C184.863 59.3905 185.239 59.4964 185.698 59.4964C186.153 59.4964 186.526 59.3905 186.818 59.1789C187.113 58.9673 187.331 58.6678 187.471 58.2805C187.611 57.8931 187.68 57.4359 187.68 56.9089C187.68 56.3858 187.611 55.9345 187.471 55.5552C187.331 55.1719 187.115 54.8764 186.824 54.6688C186.532 54.4611 186.155 54.3573 185.692 54.3573C185.009 54.3573 184.508 54.5829 184.189 55.0341C183.873 55.4853 183.715 56.1102 183.715 56.9089ZM193.538 53.5188C194.317 53.5188 194.906 53.7104 195.305 54.0938C195.705 54.4731 195.904 55.084 195.904 55.9266V60.2031H194.922V55.9924C194.922 55.4454 194.796 55.0361 194.545 54.7646C194.297 54.4931 193.916 54.3573 193.401 54.3573C192.674 54.3573 192.163 54.5629 191.867 54.9742C191.572 55.3855 191.424 55.9825 191.424 56.7651V60.2031H190.43V53.6385H191.232L191.382 54.5849H191.436C191.576 54.3533 191.753 54.1596 191.969 54.0039C192.185 53.8442 192.426 53.7244 192.694 53.6445C192.961 53.5607 193.243 53.5188 193.538 53.5188Z" fill="#262939"/>
<path d="M276.198 63.2044C271.964 63.2044 268.531 59.7719 268.531 55.5378C268.531 51.3036 271.964 47.8711 276.198 47.8711C280.432 47.8711 283.865 51.3036 283.865 55.5378C283.86 59.77 280.43 63.1998 276.198 63.2044ZM270.065 55.6696C270.101 59.0439 272.856 61.7551 276.231 61.737C279.605 61.7188 282.331 58.9782 282.331 55.6037C282.331 52.2292 279.605 49.4886 276.231 49.4704C272.856 49.4523 270.101 52.1635 270.065 55.5378V55.6696ZM277.731 59.3711H275.431V56.3044H274.665V54.7711H276.965V57.8378H277.731V59.3711ZM276.965 53.2378H275.431V51.7044H276.965V53.2378Z" fill="white"/>
</g>
<rect x="39.2969" y="162.496" width="45.9844" height="6" rx="3" fill="url(#paint2_linear_49842_37942)"/>
<defs>
<filter id="filter0_dd_49842_37942" x="-8" y="0" width="334" height="429" filterUnits="userSpaceOnUse" color-interpolation-filters="sRGB">
<feFlood flood-opacity="0" result="BackgroundImageFix"/>
<feColorMatrix in="SourceAlpha" type="matrix" values="0 0 0 0 0 0 0 0 0 0 0 0 0 0 0 0 0 0 127 0" result="hardAlpha"/>
<feMorphology radius="2" operator="erode" in="SourceAlpha" result="effect1_dropShadow_49842_37942"/>
<feOffset dy="-3"/>
<feGaussianBlur stdDeviation="3"/>
<feColorMatrix type="matrix" values="0 0 0 0 0.0470588 0 0 0 0 0.254902 0 0 0 0 0.603922 0 0 0 0.12 0"/>
<feBlend mode="normal" in2="BackgroundImageFix" result="effect1_dropShadow_49842_37942"/>
<feColorMatrix in="SourceAlpha" type="matrix" values="0 0 0 0 0 0 0 0 0 0 0 0 0 0 0 0 0 0 127 0" result="hardAlpha"/>
<feMorphology radius="4" operator="erode" in="SourceAlpha" result="effect2_dropShadow_49842_37942"/>
<feOffset dy="-10"/>
<feGaussianBlur stdDeviation="8"/>
<feColorMatrix type="matrix" values="0 0 0 0 0.0470588 0 0 0 0 0.254902 0 0 0 0 0.603922 0 0 0 0.17 0"/>
<feBlend mode="normal" in2="effect1_dropShadow_49842_37942" result="effect2_dropShadow_49842_37942"/>
<feBlend mode="normal" in="SourceGraphic" in2="effect2_dropShadow_49842_37942" result="shape"/>
</filter>
<linearGradient id="paint0_linear_49842_37942" x1="21" y1="31" x2="299.735" y2="33.6528" gradientUnits="userSpaceOnUse">
<stop stop-color="#0C419A"/>
<stop offset="1" stop-color="#1058D1"/>
</linearGradient>
<linearGradient id="paint1_linear_49842_37942" x1="21" y1="187.27" x2="84.7524" y2="220.753" gradientUnits="userSpaceOnUse">
<stop stop-color="#0C419A"/>
<stop offset="1" stop-color="#1058D1"/>
</linearGradient>
<linearGradient id="paint2_linear_49842_37942" x1="39.2969" y1="162.496" x2="84.6749" y2="169.452" gradientUnits="userSpaceOnUse">
<stop stop-color="#0C419A"/>
<stop offset="1" stop-color="#1058D1"/>
</linearGradient>
<clipPath id="clip0_49842_37942">
<rect width="310" height="405" fill="white" transform="translate(4 22)"/>
</clipPath>
</defs>
</svg>
