<svg width="32" height="31" viewBox="0 0 32 31" fill="none" xmlns="http://www.w3.org/2000/svg">
<path d="M25.7467 30.3921H6.25405C3.35231 30.3921 1 28.0398 1 25.1381V5.62905C1 2.72731 3.35231 0.375 6.25405 0.375H25.746C28.6477 0.375 31 2.72731 31 5.62905V25.1374C31.0007 28.0391 28.6484 30.3921 25.7467 30.3921Z" fill="#D81E7E" stroke="white" stroke-width="0.0142521" stroke-miterlimit="10"/>
<path d="M10.5568 6.96155C8.59659 6.96155 7.23007 8.37519 7.23007 10.3951V30.6875H5.0625V10.7344C5.0625 7.37308 7.44369 4.83482 10.6039 4.83796C11.4867 4.83796 12.3223 5.01388 13.0857 5.35943L13.1139 5.372C13.7265 5.68928 14.3328 6.12908 14.87 6.64113L14.8888 6.65998C15.115 6.89558 15.2784 7.09349 15.4386 7.31653C15.6396 7.00867 15.847 6.76679 16.136 6.49034C17.248 5.40341 18.803 4.75 20.2952 4.75C23.3361 4.75 26.0031 7.43591 26 10.5019V17.75H31V19.8952H26H23.8293V10.6935C23.8293 8.54168 22.2994 6.92071 20.2701 6.92071C19.2397 6.92071 18.2753 7.30082 17.5465 7.99193C16.8082 8.71132 16.5821 9.34588 16.5821 10.6935V19.8952H14.3925V10.7124C14.3925 8.5731 12.7432 6.96155 10.5568 6.96155Z" fill="white"/>
</svg>
