<svg width="318" height="429" viewBox="0 0 318 429" fill="none" xmlns="http://www.w3.org/2000/svg">
<g clip-path="url(#clip0_46277_149680)" filter="url(#filter0_dd_46277_149680)">
<rect x="16.8482" y="26.8482" width="284.304" height="588.304" rx="45.6696" fill="#F9FAFF" stroke="url(#paint0_linear_46277_149680)" stroke-width="8.30357"/>
<path d="M131.275 269.407C146.866 274.961 164.673 276.414 180.764 273.771C212.372 268.578 234.46 236.905 230.645 204.789C228.85 189.679 219.705 174.981 205.261 169.402C194.571 165.271 183.462 168.283 174.653 174.875C167.223 180.436 161.948 188.248 155.038 194.362C144.474 203.711 131.077 206.48 119.294 213.546C112.834 217.419 106.259 223.728 104.477 231.407C102.785 238.697 104.672 246.74 108.804 252.997C114.019 260.894 122.403 266.247 131.275 269.407Z" fill="#A0B2EC" fill-opacity="0.16"/>
<path fill-rule="evenodd" clip-rule="evenodd" d="M175.871 169.984C184.376 188.243 200.289 208.217 190.19 225.605C179.737 243.602 154.049 246.185 133.495 242.946C116.806 240.317 106.709 225.088 97.3585 210.978C89.8385 199.63 85.827 186.957 87.439 173.447C89.2315 158.426 93.2235 142.044 106.452 134.77C119.86 127.396 136.227 132.169 149.894 139.102C162.504 145.499 169.893 157.152 175.871 169.984Z" fill="#A0B2EC" fill-opacity="0.16"/>
<rect x="112.336" y="156.332" width="93.3333" height="93.3333" fill="white"/>
<path d="M104.102 156.332C103.493 156.332 103 155.839 103 155.231L103 146.999L104.661 146.999C105.27 146.999 105.763 147.492 105.763 148.1L105.763 155.231C105.763 155.839 105.27 156.332 104.661 156.332L104.102 156.332Z" fill="#0C419A"/>
<path d="M112.333 148.66C112.333 149.269 111.84 149.762 111.232 149.762L104.102 149.762C103.493 149.762 103 149.269 103 148.66L103 146.999L111.232 146.999C111.84 146.999 112.333 147.492 112.333 148.1L112.333 148.66Z" fill="#0C419A"/>
<path d="M213.898 249.668C214.507 249.668 215 250.161 215 250.769L215 259.001L213.339 259.001C212.73 259.001 212.237 258.508 212.237 257.9L212.237 250.769C212.237 250.161 212.73 249.668 213.339 249.668L213.898 249.668Z" fill="#0C419A"/>
<path d="M205.667 257.34C205.667 256.731 206.16 256.238 206.768 256.238L213.898 256.238C214.507 256.238 215 256.731 215 257.34L215 259.001L206.768 259.001C206.16 259.001 205.667 258.508 205.667 257.9L205.667 257.34Z" fill="#0C419A"/>
<path d="M205.664 148.102C205.664 147.493 206.157 147 206.766 147H214.997V148.661C214.997 149.27 214.504 149.763 213.896 149.763H206.766C206.157 149.763 205.664 149.27 205.664 148.661V148.102Z" fill="#0C419A"/>
<path d="M213.336 156.333C212.728 156.333 212.234 155.84 212.234 155.232L212.234 148.102C212.234 147.493 212.728 147 213.336 147H214.997V155.232C214.997 155.84 214.504 156.333 213.896 156.333H213.336Z" fill="#0C419A"/>
<path d="M112.336 257.898C112.336 258.507 111.843 259 111.234 259L103.003 259L103.003 257.339C103.003 256.73 103.496 256.237 104.104 256.237L111.234 256.237C111.843 256.237 112.336 256.73 112.336 257.339L112.336 257.898Z" fill="#0C419A"/>
<path d="M104.664 249.667C105.272 249.667 105.766 250.16 105.766 250.768L105.766 257.898C105.766 258.507 105.272 259 104.664 259L103.003 259L103.003 250.768C103.003 250.16 103.496 249.667 104.104 249.667L104.664 249.667Z" fill="#0C419A"/>
<mask id="mask0_46277_149680" style="mask-type:alpha" maskUnits="userSpaceOnUse" x="119" y="198" width="82" height="46">
<rect x="119.453" y="198.152" width="80.9631" height="45.5192" fill="#D9D9D9"/>
</mask>
<g mask="url(#mask0_46277_149680)">
<path fill-rule="evenodd" clip-rule="evenodd" d="M130.998 165.664H121.665V230.997H121.664V240.33H121.665V240.331H130.998V240.33H196.331V230.997H177.664V221.664L196.331 221.664V212.33H177.664V202.997H196.331V193.664H186.998V184.331H196.331V174.997H186.998V165.664H177.664V174.997H168.331V165.664H158.998V184.331H168.331V184.331H177.664V193.664H177.664V202.997H158.998V193.664H149.665V184.331H140.331V174.997L149.665 174.997V165.664H140.331V174.997H130.998V165.664ZM140.331 193.664V184.331H130.998V193.664H140.331ZM140.331 202.997V212.33H158.998V202.997H140.331ZM130.998 221.664H140.331V230.997H130.998V221.664ZM168.331 221.663V230.997H149.665V221.664H158.998V212.33L177.664 212.33V221.663H168.331ZM177.664 174.997V184.331H186.997V174.997L177.664 174.997Z" fill="#0C419A"/>
</g>
<mask id="mask1_46277_149680" style="mask-type:alpha" maskUnits="userSpaceOnUse" x="121" y="165" width="76" height="37">
<rect x="121.312" y="165.695" width="75.6" height="35.4667" fill="#08CBA2"/>
</mask>
<g mask="url(#mask1_46277_149680)">
<path fill-rule="evenodd" clip-rule="evenodd" d="M130.998 165.664H121.665V230.997H121.664V240.33H121.665V240.331H130.998V240.33H196.331V230.997H177.664V221.664H196.331V212.33H177.664V202.997H196.331V193.664H186.998V184.331H196.331V174.997H186.998V165.664H177.664V174.997H168.331V165.664H158.998V184.331H168.331V184.331H177.664V193.664H177.664V202.997H158.998V193.664H149.665V184.331H140.331V174.997H149.665V165.664H140.331V174.997H130.998V165.664ZM140.331 193.664V184.331H130.998V193.664H140.331ZM140.331 202.997V212.33H158.998V202.997H140.331ZM130.998 221.664H140.331V230.997H130.998V221.664ZM168.331 221.663V230.997H149.665V221.664H158.998V212.33H177.664V221.663H168.331ZM177.664 174.997V184.331H186.997V174.997H177.664Z" fill="#07CBA2"/>
</g>
<rect x="103" y="184.301" width="112" height="18.6667" fill="url(#paint1_linear_46277_149680)"/>
<path d="M70.0312 324L68.625 320.375H64.0469L62.6484 324H61.3047L65.7734 312.531H66.9688L71.4062 324H70.0312ZM68.2266 319.195L66.8906 315.594C66.8594 315.5 66.8073 315.346 66.7344 315.133C66.6667 314.919 66.5964 314.698 66.5234 314.469C66.4505 314.24 66.3906 314.055 66.3438 313.914C66.2917 314.128 66.2344 314.341 66.1719 314.555C66.1146 314.763 66.0573 314.958 66 315.141C65.9427 315.318 65.8932 315.469 65.8516 315.594L64.4922 319.195H68.2266ZM71.7656 327.844C71.5 327.844 71.2682 327.823 71.0703 327.781C70.8724 327.745 70.7005 327.701 70.5547 327.648V326.594C70.7161 326.646 70.8802 326.685 71.0469 326.711C71.2135 326.742 71.401 326.758 71.6094 326.758C71.9635 326.758 72.25 326.659 72.4688 326.461C72.6875 326.263 72.7969 325.904 72.7969 325.383V315.438H74.0938V325.352C74.0938 325.872 74.0104 326.318 73.8438 326.688C73.6771 327.062 73.4219 327.349 73.0781 327.547C72.7344 327.745 72.2969 327.844 71.7656 327.844ZM72.6797 313.086C72.6797 312.794 72.7526 312.581 72.8984 312.445C73.0495 312.305 73.237 312.234 73.4609 312.234C73.6745 312.234 73.8568 312.305 74.0078 312.445C74.1641 312.581 74.2422 312.794 74.2422 313.086C74.2422 313.372 74.1641 313.586 74.0078 313.727C73.8568 313.867 73.6745 313.938 73.4609 313.938C73.237 313.938 73.0495 313.867 72.8984 313.727C72.7526 313.586 72.6797 313.372 72.6797 313.086ZM84.2266 319.703C84.2266 320.406 84.1354 321.034 83.9531 321.586C83.7708 322.138 83.5078 322.604 83.1641 322.984C82.8203 323.365 82.4036 323.656 81.9141 323.859C81.4297 324.057 80.8802 324.156 80.2656 324.156C79.6927 324.156 79.1667 324.057 78.6875 323.859C78.2135 323.656 77.8021 323.365 77.4531 322.984C77.1094 322.604 76.8411 322.138 76.6484 321.586C76.4609 321.034 76.3672 320.406 76.3672 319.703C76.3672 318.766 76.526 317.969 76.8438 317.312C77.1615 316.651 77.6146 316.148 78.2031 315.805C78.7969 315.456 79.5026 315.281 80.3203 315.281C81.1016 315.281 81.7839 315.456 82.3672 315.805C82.9557 316.154 83.4115 316.659 83.7344 317.32C84.0625 317.977 84.2266 318.771 84.2266 319.703ZM77.7109 319.703C77.7109 320.391 77.8021 320.987 77.9844 321.492C78.1667 321.997 78.4479 322.388 78.8281 322.664C79.2083 322.94 79.6979 323.078 80.2969 323.078C80.8906 323.078 81.3776 322.94 81.7578 322.664C82.1432 322.388 82.4271 321.997 82.6094 321.492C82.7917 320.987 82.8828 320.391 82.8828 319.703C82.8828 319.021 82.7917 318.432 82.6094 317.938C82.4271 317.438 82.1458 317.052 81.7656 316.781C81.3854 316.51 80.8932 316.375 80.2891 316.375C79.3984 316.375 78.7448 316.669 78.3281 317.258C77.9167 317.846 77.7109 318.661 77.7109 319.703ZM93.5391 315.438V324H92.4766L92.2891 322.797H92.2188C92.0417 323.094 91.8125 323.344 91.5312 323.547C91.25 323.75 90.9323 323.901 90.5781 324C90.2292 324.104 89.8568 324.156 89.4609 324.156C88.7839 324.156 88.2161 324.047 87.7578 323.828C87.2995 323.609 86.9531 323.271 86.7188 322.812C86.4896 322.354 86.375 321.766 86.375 321.047V315.438H87.6875V320.953C87.6875 321.667 87.849 322.201 88.1719 322.555C88.4948 322.904 88.987 323.078 89.6484 323.078C90.2839 323.078 90.7891 322.958 91.1641 322.719C91.5443 322.479 91.8177 322.128 91.9844 321.664C92.151 321.195 92.2344 320.622 92.2344 319.945V315.438H93.5391ZM99.0469 323.094C99.2604 323.094 99.4792 323.076 99.7031 323.039C99.9271 323.003 100.109 322.958 100.25 322.906V323.914C100.099 323.982 99.888 324.039 99.6172 324.086C99.3516 324.133 99.0911 324.156 98.8359 324.156C98.3828 324.156 97.9714 324.078 97.6016 323.922C97.2318 323.76 96.9349 323.49 96.7109 323.109C96.4922 322.729 96.3828 322.203 96.3828 321.531V316.453H95.1641V315.82L96.3906 315.312L96.9062 313.453H97.6875V315.438H100.195V316.453H97.6875V321.492C97.6875 322.029 97.8099 322.43 98.0547 322.695C98.3047 322.961 98.6354 323.094 99.0469 323.094ZM105.281 315.281C106.01 315.281 106.635 315.443 107.156 315.766C107.677 316.089 108.076 316.542 108.352 317.125C108.628 317.703 108.766 318.38 108.766 319.156V319.961H102.852C102.867 320.966 103.117 321.732 103.602 322.258C104.086 322.784 104.768 323.047 105.648 323.047C106.19 323.047 106.669 322.997 107.086 322.898C107.503 322.799 107.935 322.654 108.383 322.461V323.602C107.951 323.794 107.521 323.935 107.094 324.023C106.672 324.112 106.172 324.156 105.594 324.156C104.771 324.156 104.052 323.99 103.438 323.656C102.828 323.318 102.354 322.823 102.016 322.172C101.677 321.521 101.508 320.724 101.508 319.781C101.508 318.859 101.661 318.062 101.969 317.391C102.281 316.714 102.719 316.193 103.281 315.828C103.849 315.464 104.516 315.281 105.281 315.281ZM105.266 316.344C104.573 316.344 104.021 316.57 103.609 317.023C103.198 317.477 102.953 318.109 102.875 318.922H107.406C107.401 318.411 107.32 317.964 107.164 317.578C107.013 317.188 106.781 316.885 106.469 316.672C106.156 316.453 105.755 316.344 105.266 316.344ZM114.859 315.281C115.031 315.281 115.211 315.292 115.398 315.312C115.586 315.328 115.753 315.352 115.898 315.383L115.734 316.586C115.594 316.549 115.438 316.521 115.266 316.5C115.094 316.479 114.932 316.469 114.781 316.469C114.438 316.469 114.112 316.539 113.805 316.68C113.503 316.815 113.237 317.013 113.008 317.273C112.779 317.529 112.599 317.839 112.469 318.203C112.339 318.562 112.273 318.964 112.273 319.406V324H110.969V315.438H112.047L112.188 317.016H112.242C112.419 316.698 112.633 316.409 112.883 316.148C113.133 315.883 113.422 315.672 113.75 315.516C114.083 315.359 114.453 315.281 114.859 315.281ZM124.875 315.297C125.896 315.297 126.654 315.526 127.148 315.984C127.643 316.443 127.891 317.174 127.891 318.18V324H126.945L126.695 322.734H126.633C126.393 323.047 126.143 323.31 125.883 323.523C125.622 323.732 125.32 323.891 124.977 324C124.638 324.104 124.221 324.156 123.727 324.156C123.206 324.156 122.742 324.065 122.336 323.883C121.935 323.701 121.617 323.424 121.383 323.055C121.154 322.685 121.039 322.216 121.039 321.648C121.039 320.794 121.378 320.138 122.055 319.68C122.732 319.221 123.763 318.971 125.148 318.93L126.625 318.867V318.344C126.625 317.604 126.466 317.086 126.148 316.789C125.831 316.492 125.383 316.344 124.805 316.344C124.357 316.344 123.93 316.409 123.523 316.539C123.117 316.669 122.732 316.823 122.367 317L121.969 316.016C122.354 315.818 122.797 315.648 123.297 315.508C123.797 315.367 124.323 315.297 124.875 315.297ZM126.609 319.781L125.305 319.836C124.237 319.878 123.484 320.052 123.047 320.359C122.609 320.667 122.391 321.102 122.391 321.664C122.391 322.154 122.539 322.516 122.836 322.75C123.133 322.984 123.526 323.102 124.016 323.102C124.776 323.102 125.398 322.891 125.883 322.469C126.367 322.047 126.609 321.414 126.609 320.57V319.781ZM137.633 315.438V324H136.57L136.383 322.797H136.312C136.135 323.094 135.906 323.344 135.625 323.547C135.344 323.75 135.026 323.901 134.672 324C134.323 324.104 133.951 324.156 133.555 324.156C132.878 324.156 132.31 324.047 131.852 323.828C131.393 323.609 131.047 323.271 130.812 322.812C130.583 322.354 130.469 321.766 130.469 321.047V315.438H131.781V320.953C131.781 321.667 131.943 322.201 132.266 322.555C132.589 322.904 133.081 323.078 133.742 323.078C134.378 323.078 134.883 322.958 135.258 322.719C135.638 322.479 135.911 322.128 136.078 321.664C136.245 321.195 136.328 320.622 136.328 319.945V315.438H137.633ZM143.141 323.094C143.354 323.094 143.573 323.076 143.797 323.039C144.021 323.003 144.203 322.958 144.344 322.906V323.914C144.193 323.982 143.982 324.039 143.711 324.086C143.445 324.133 143.185 324.156 142.93 324.156C142.477 324.156 142.065 324.078 141.695 323.922C141.326 323.76 141.029 323.49 140.805 323.109C140.586 322.729 140.477 322.203 140.477 321.531V316.453H139.258V315.82L140.484 315.312L141 313.453H141.781V315.438H144.289V316.453H141.781V321.492C141.781 322.029 141.904 322.43 142.148 322.695C142.398 322.961 142.729 323.094 143.141 323.094ZM153.461 319.703C153.461 320.406 153.37 321.034 153.188 321.586C153.005 322.138 152.742 322.604 152.398 322.984C152.055 323.365 151.638 323.656 151.148 323.859C150.664 324.057 150.115 324.156 149.5 324.156C148.927 324.156 148.401 324.057 147.922 323.859C147.448 323.656 147.036 323.365 146.688 322.984C146.344 322.604 146.076 322.138 145.883 321.586C145.695 321.034 145.602 320.406 145.602 319.703C145.602 318.766 145.76 317.969 146.078 317.312C146.396 316.651 146.849 316.148 147.438 315.805C148.031 315.456 148.737 315.281 149.555 315.281C150.336 315.281 151.018 315.456 151.602 315.805C152.19 316.154 152.646 316.659 152.969 317.32C153.297 317.977 153.461 318.771 153.461 319.703ZM146.945 319.703C146.945 320.391 147.036 320.987 147.219 321.492C147.401 321.997 147.682 322.388 148.062 322.664C148.443 322.94 148.932 323.078 149.531 323.078C150.125 323.078 150.612 322.94 150.992 322.664C151.378 322.388 151.661 321.997 151.844 321.492C152.026 320.987 152.117 320.391 152.117 319.703C152.117 319.021 152.026 318.432 151.844 317.938C151.661 317.438 151.38 317.052 151 316.781C150.62 316.51 150.128 316.375 149.523 316.375C148.633 316.375 147.979 316.669 147.562 317.258C147.151 317.846 146.945 318.661 146.945 319.703ZM165 315.281C165.943 315.281 166.654 315.529 167.133 316.023C167.612 316.513 167.852 317.302 167.852 318.391V324H166.57V318.453C166.57 317.76 166.419 317.242 166.117 316.898C165.82 316.549 165.378 316.375 164.789 316.375C163.961 316.375 163.359 316.615 162.984 317.094C162.609 317.573 162.422 318.279 162.422 319.211V324H161.133V318.453C161.133 317.99 161.065 317.604 160.93 317.297C160.799 316.99 160.602 316.76 160.336 316.609C160.076 316.453 159.745 316.375 159.344 316.375C158.776 316.375 158.32 316.492 157.977 316.727C157.633 316.961 157.383 317.31 157.227 317.773C157.076 318.232 157 318.797 157 319.469V324H155.703V315.438H156.75L156.945 316.648H157.016C157.188 316.352 157.404 316.102 157.664 315.898C157.924 315.695 158.216 315.542 158.539 315.438C158.862 315.333 159.206 315.281 159.57 315.281C160.221 315.281 160.766 315.404 161.203 315.648C161.646 315.888 161.966 316.255 162.164 316.75H162.234C162.516 316.255 162.901 315.888 163.391 315.648C163.88 315.404 164.417 315.281 165 315.281ZM173.719 315.297C174.74 315.297 175.497 315.526 175.992 315.984C176.487 316.443 176.734 317.174 176.734 318.18V324H175.789L175.539 322.734H175.477C175.237 323.047 174.987 323.31 174.727 323.523C174.466 323.732 174.164 323.891 173.82 324C173.482 324.104 173.065 324.156 172.57 324.156C172.049 324.156 171.586 324.065 171.18 323.883C170.779 323.701 170.461 323.424 170.227 323.055C169.997 322.685 169.883 322.216 169.883 321.648C169.883 320.794 170.221 320.138 170.898 319.68C171.576 319.221 172.607 318.971 173.992 318.93L175.469 318.867V318.344C175.469 317.604 175.31 317.086 174.992 316.789C174.674 316.492 174.227 316.344 173.648 316.344C173.201 316.344 172.773 316.409 172.367 316.539C171.961 316.669 171.576 316.823 171.211 317L170.812 316.016C171.198 315.818 171.641 315.648 172.141 315.508C172.641 315.367 173.167 315.297 173.719 315.297ZM175.453 319.781L174.148 319.836C173.081 319.878 172.328 320.052 171.891 320.359C171.453 320.667 171.234 321.102 171.234 321.664C171.234 322.154 171.383 322.516 171.68 322.75C171.977 322.984 172.37 323.102 172.859 323.102C173.62 323.102 174.242 322.891 174.727 322.469C175.211 322.047 175.453 321.414 175.453 320.57V319.781ZM182.172 323.094C182.385 323.094 182.604 323.076 182.828 323.039C183.052 323.003 183.234 322.958 183.375 322.906V323.914C183.224 323.982 183.013 324.039 182.742 324.086C182.477 324.133 182.216 324.156 181.961 324.156C181.508 324.156 181.096 324.078 180.727 323.922C180.357 323.76 180.06 323.49 179.836 323.109C179.617 322.729 179.508 322.203 179.508 321.531V316.453H178.289V315.82L179.516 315.312L180.031 313.453H180.812V315.438H183.32V316.453H180.812V321.492C180.812 322.029 180.935 322.43 181.18 322.695C181.43 322.961 181.76 323.094 182.172 323.094ZM186.406 315.438V324H185.109V315.438H186.406ZM185.773 312.234C185.987 312.234 186.169 312.305 186.32 312.445C186.477 312.581 186.555 312.794 186.555 313.086C186.555 313.372 186.477 313.586 186.32 313.727C186.169 313.867 185.987 313.938 185.773 313.938C185.549 313.938 185.362 313.867 185.211 313.727C185.065 313.586 184.992 313.372 184.992 313.086C184.992 312.794 185.065 312.581 185.211 312.445C185.362 312.305 185.549 312.234 185.773 312.234ZM194.898 327.828V324.156C194.898 323.953 194.904 323.719 194.914 323.453C194.924 323.188 194.943 322.958 194.969 322.766H194.883C194.643 323.161 194.302 323.492 193.859 323.758C193.417 324.023 192.846 324.156 192.148 324.156C191.102 324.156 190.26 323.786 189.625 323.047C188.99 322.307 188.672 321.203 188.672 319.734C188.672 318.771 188.818 317.958 189.109 317.297C189.401 316.635 189.812 316.135 190.344 315.797C190.88 315.453 191.505 315.281 192.219 315.281C192.901 315.281 193.458 315.417 193.891 315.688C194.323 315.953 194.661 316.279 194.906 316.664H194.969L195.164 315.438H196.195V327.828H194.898ZM192.391 323.078C192.995 323.078 193.479 322.966 193.844 322.742C194.208 322.513 194.474 322.169 194.641 321.711C194.812 321.253 194.904 320.682 194.914 320V319.727C194.914 318.622 194.727 317.786 194.352 317.219C193.977 316.646 193.323 316.359 192.391 316.359C191.589 316.359 190.992 316.667 190.602 317.281C190.211 317.891 190.016 318.719 190.016 319.766C190.016 320.812 190.211 321.628 190.602 322.211C190.992 322.789 191.589 323.078 192.391 323.078ZM206.023 315.438V324H204.961L204.773 322.797H204.703C204.526 323.094 204.297 323.344 204.016 323.547C203.734 323.75 203.417 323.901 203.062 324C202.714 324.104 202.341 324.156 201.945 324.156C201.268 324.156 200.701 324.047 200.242 323.828C199.784 323.609 199.438 323.271 199.203 322.812C198.974 322.354 198.859 321.766 198.859 321.047V315.438H200.172V320.953C200.172 321.667 200.333 322.201 200.656 322.555C200.979 322.904 201.471 323.078 202.133 323.078C202.768 323.078 203.273 322.958 203.648 322.719C204.029 322.479 204.302 322.128 204.469 321.664C204.635 321.195 204.719 320.622 204.719 319.945V315.438H206.023ZM212.062 315.281C212.792 315.281 213.417 315.443 213.938 315.766C214.458 316.089 214.857 316.542 215.133 317.125C215.409 317.703 215.547 318.38 215.547 319.156V319.961H209.633C209.648 320.966 209.898 321.732 210.383 322.258C210.867 322.784 211.549 323.047 212.43 323.047C212.971 323.047 213.451 322.997 213.867 322.898C214.284 322.799 214.716 322.654 215.164 322.461V323.602C214.732 323.794 214.302 323.935 213.875 324.023C213.453 324.112 212.953 324.156 212.375 324.156C211.552 324.156 210.833 323.99 210.219 323.656C209.609 323.318 209.135 322.823 208.797 322.172C208.458 321.521 208.289 320.724 208.289 319.781C208.289 318.859 208.443 318.062 208.75 317.391C209.062 316.714 209.5 316.193 210.062 315.828C210.63 315.464 211.297 315.281 212.062 315.281ZM212.047 316.344C211.354 316.344 210.802 316.57 210.391 317.023C209.979 317.477 209.734 318.109 209.656 318.922H214.188C214.182 318.411 214.102 317.964 213.945 317.578C213.794 317.188 213.562 316.885 213.25 316.672C212.938 316.453 212.536 316.344 212.047 316.344ZM227.047 315.281C227.99 315.281 228.701 315.529 229.18 316.023C229.659 316.513 229.898 317.302 229.898 318.391V324H228.617V318.453C228.617 317.76 228.466 317.242 228.164 316.898C227.867 316.549 227.424 316.375 226.836 316.375C226.008 316.375 225.406 316.615 225.031 317.094C224.656 317.573 224.469 318.279 224.469 319.211V324H223.18V318.453C223.18 317.99 223.112 317.604 222.977 317.297C222.846 316.99 222.648 316.76 222.383 316.609C222.122 316.453 221.792 316.375 221.391 316.375C220.823 316.375 220.367 316.492 220.023 316.727C219.68 316.961 219.43 317.31 219.273 317.773C219.122 318.232 219.047 318.797 219.047 319.469V324H217.75V315.438H218.797L218.992 316.648H219.062C219.234 316.352 219.451 316.102 219.711 315.898C219.971 315.695 220.263 315.542 220.586 315.438C220.909 315.333 221.253 315.281 221.617 315.281C222.268 315.281 222.812 315.404 223.25 315.648C223.693 315.888 224.013 316.255 224.211 316.75H224.281C224.562 316.255 224.948 315.888 225.438 315.648C225.927 315.404 226.464 315.281 227.047 315.281ZM235.859 315.281C236.589 315.281 237.214 315.443 237.734 315.766C238.255 316.089 238.654 316.542 238.93 317.125C239.206 317.703 239.344 318.38 239.344 319.156V319.961H233.43C233.445 320.966 233.695 321.732 234.18 322.258C234.664 322.784 235.346 323.047 236.227 323.047C236.768 323.047 237.247 322.997 237.664 322.898C238.081 322.799 238.513 322.654 238.961 322.461V323.602C238.529 323.794 238.099 323.935 237.672 324.023C237.25 324.112 236.75 324.156 236.172 324.156C235.349 324.156 234.63 323.99 234.016 323.656C233.406 323.318 232.932 322.823 232.594 322.172C232.255 321.521 232.086 320.724 232.086 319.781C232.086 318.859 232.24 318.062 232.547 317.391C232.859 316.714 233.297 316.193 233.859 315.828C234.427 315.464 235.094 315.281 235.859 315.281ZM235.844 316.344C235.151 316.344 234.599 316.57 234.188 317.023C233.776 317.477 233.531 318.109 233.453 318.922H237.984C237.979 318.411 237.898 317.964 237.742 317.578C237.591 317.188 237.359 316.885 237.047 316.672C236.734 316.453 236.333 316.344 235.844 316.344ZM245.602 315.281C246.617 315.281 247.385 315.531 247.906 316.031C248.427 316.526 248.688 317.323 248.688 318.422V324H247.406V318.508C247.406 317.794 247.242 317.26 246.914 316.906C246.591 316.552 246.094 316.375 245.422 316.375C244.474 316.375 243.807 316.643 243.422 317.18C243.036 317.716 242.844 318.495 242.844 319.516V324H241.547V315.438H242.594L242.789 316.672H242.859C243.042 316.37 243.273 316.117 243.555 315.914C243.836 315.706 244.151 315.549 244.5 315.445C244.849 315.336 245.216 315.281 245.602 315.281ZM254.125 323.094C254.339 323.094 254.557 323.076 254.781 323.039C255.005 323.003 255.188 322.958 255.328 322.906V323.914C255.177 323.982 254.966 324.039 254.695 324.086C254.43 324.133 254.169 324.156 253.914 324.156C253.461 324.156 253.049 324.078 252.68 323.922C252.31 323.76 252.013 323.49 251.789 323.109C251.57 322.729 251.461 322.203 251.461 321.531V316.453H250.242V315.82L251.469 315.312L251.984 313.453H252.766V315.438H255.273V316.453H252.766V321.492C252.766 322.029 252.888 322.43 253.133 322.695C253.383 322.961 253.714 323.094 254.125 323.094ZM129.531 346H128.227V333.844H129.531V346ZM135.57 337.281C136.299 337.281 136.924 337.443 137.445 337.766C137.966 338.089 138.365 338.542 138.641 339.125C138.917 339.703 139.055 340.38 139.055 341.156V341.961H133.141C133.156 342.966 133.406 343.732 133.891 344.258C134.375 344.784 135.057 345.047 135.938 345.047C136.479 345.047 136.958 344.997 137.375 344.898C137.792 344.799 138.224 344.654 138.672 344.461V345.602C138.24 345.794 137.81 345.935 137.383 346.023C136.961 346.112 136.461 346.156 135.883 346.156C135.06 346.156 134.341 345.99 133.727 345.656C133.117 345.318 132.643 344.823 132.305 344.172C131.966 343.521 131.797 342.724 131.797 341.781C131.797 340.859 131.951 340.062 132.258 339.391C132.57 338.714 133.008 338.193 133.57 337.828C134.138 337.464 134.805 337.281 135.57 337.281ZM135.555 338.344C134.862 338.344 134.31 338.57 133.898 339.023C133.487 339.477 133.242 340.109 133.164 340.922H137.695C137.69 340.411 137.609 339.964 137.453 339.578C137.302 339.188 137.07 338.885 136.758 338.672C136.445 338.453 136.044 338.344 135.555 338.344ZM147.297 346L144.047 337.438H145.438L147.32 342.617C147.451 342.971 147.583 343.362 147.719 343.789C147.854 344.216 147.948 344.56 148 344.82H148.055C148.117 344.56 148.221 344.216 148.367 343.789C148.513 343.357 148.646 342.966 148.766 342.617L150.648 337.438H152.039L148.781 346H147.297ZM156.617 337.297C157.638 337.297 158.396 337.526 158.891 337.984C159.385 338.443 159.633 339.174 159.633 340.18V346H158.688L158.438 344.734H158.375C158.135 345.047 157.885 345.31 157.625 345.523C157.365 345.732 157.062 345.891 156.719 346C156.38 346.104 155.964 346.156 155.469 346.156C154.948 346.156 154.484 346.065 154.078 345.883C153.677 345.701 153.359 345.424 153.125 345.055C152.896 344.685 152.781 344.216 152.781 343.648C152.781 342.794 153.12 342.138 153.797 341.68C154.474 341.221 155.505 340.971 156.891 340.93L158.367 340.867V340.344C158.367 339.604 158.208 339.086 157.891 338.789C157.573 338.492 157.125 338.344 156.547 338.344C156.099 338.344 155.672 338.409 155.266 338.539C154.859 338.669 154.474 338.823 154.109 339L153.711 338.016C154.096 337.818 154.539 337.648 155.039 337.508C155.539 337.367 156.065 337.297 156.617 337.297ZM158.352 341.781L157.047 341.836C155.979 341.878 155.227 342.052 154.789 342.359C154.352 342.667 154.133 343.102 154.133 343.664C154.133 344.154 154.281 344.516 154.578 344.75C154.875 344.984 155.268 345.102 155.758 345.102C156.518 345.102 157.141 344.891 157.625 344.469C158.109 344.047 158.352 343.414 158.352 342.57V341.781ZM165.734 346.156C164.964 346.156 164.284 345.997 163.695 345.68C163.107 345.362 162.648 344.878 162.32 344.227C161.992 343.576 161.828 342.755 161.828 341.766C161.828 340.729 162 339.883 162.344 339.227C162.693 338.565 163.172 338.076 163.781 337.758C164.391 337.44 165.083 337.281 165.859 337.281C166.286 337.281 166.698 337.326 167.094 337.414C167.495 337.497 167.823 337.604 168.078 337.734L167.688 338.82C167.427 338.716 167.125 338.622 166.781 338.539C166.443 338.456 166.125 338.414 165.828 338.414C165.234 338.414 164.74 338.542 164.344 338.797C163.953 339.052 163.659 339.427 163.461 339.922C163.268 340.417 163.172 341.026 163.172 341.75C163.172 342.443 163.266 343.034 163.453 343.523C163.646 344.013 163.93 344.388 164.305 344.648C164.685 344.904 165.159 345.031 165.727 345.031C166.18 345.031 166.589 344.984 166.953 344.891C167.318 344.792 167.648 344.677 167.945 344.547V345.703C167.659 345.849 167.339 345.961 166.984 346.039C166.635 346.117 166.219 346.156 165.734 346.156ZM173.406 346.156C172.635 346.156 171.956 345.997 171.367 345.68C170.779 345.362 170.32 344.878 169.992 344.227C169.664 343.576 169.5 342.755 169.5 341.766C169.5 340.729 169.672 339.883 170.016 339.227C170.365 338.565 170.844 338.076 171.453 337.758C172.062 337.44 172.755 337.281 173.531 337.281C173.958 337.281 174.37 337.326 174.766 337.414C175.167 337.497 175.495 337.604 175.75 337.734L175.359 338.82C175.099 338.716 174.797 338.622 174.453 338.539C174.115 338.456 173.797 338.414 173.5 338.414C172.906 338.414 172.411 338.542 172.016 338.797C171.625 339.052 171.331 339.427 171.133 339.922C170.94 340.417 170.844 341.026 170.844 341.75C170.844 342.443 170.938 343.034 171.125 343.523C171.318 344.013 171.602 344.388 171.977 344.648C172.357 344.904 172.831 345.031 173.398 345.031C173.852 345.031 174.26 344.984 174.625 344.891C174.99 344.792 175.32 344.677 175.617 344.547V345.703C175.331 345.849 175.01 345.961 174.656 346.039C174.307 346.117 173.891 346.156 173.406 346.156ZM178.945 337.438V346H177.648V337.438H178.945ZM178.312 334.234C178.526 334.234 178.708 334.305 178.859 334.445C179.016 334.581 179.094 334.794 179.094 335.086C179.094 335.372 179.016 335.586 178.859 335.727C178.708 335.867 178.526 335.938 178.312 335.938C178.089 335.938 177.901 335.867 177.75 335.727C177.604 335.586 177.531 335.372 177.531 335.086C177.531 334.794 177.604 334.581 177.75 334.445C177.901 334.305 178.089 334.234 178.312 334.234ZM185.75 337.281C186.766 337.281 187.534 337.531 188.055 338.031C188.576 338.526 188.836 339.323 188.836 340.422V346H187.555V340.508C187.555 339.794 187.391 339.26 187.062 338.906C186.74 338.552 186.242 338.375 185.57 338.375C184.622 338.375 183.956 338.643 183.57 339.18C183.185 339.716 182.992 340.495 182.992 341.516V346H181.695V337.438H182.742L182.938 338.672H183.008C183.19 338.37 183.422 338.117 183.703 337.914C183.984 337.706 184.299 337.549 184.648 337.445C184.997 337.336 185.365 337.281 185.75 337.281Z" fill="#262939"/>
<rect x="80" y="359" width="157" height="6" rx="3" fill="#BDCCF8"/>
<rect x="102" y="373" width="113" height="6" rx="3" fill="#BDCCF8"/>
<path d="M20.5 73.52C20.5 50.5891 39.0891 32 62.02 32H254.98C277.911 32 296.5 50.5891 296.5 73.52V81.0667H20.5V73.52Z" fill="white"/>
<path d="M41.0547 56.5334L47.0647 62.5434L48.4787 61.1294L43.8787 56.5294L48.4787 51.9294L47.0647 50.5234L41.0547 56.5334Z" fill="#0C419A"/>
<path d="M132.822 52.4401L129.676 61.1992H128.652L125.506 52.4401H126.573L128.622 58.2096C128.706 58.4413 128.78 58.6629 128.844 58.8746C128.911 59.0863 128.971 59.29 129.023 59.4857C129.075 59.6814 129.121 59.8712 129.161 60.0549C129.201 59.8712 129.247 59.6814 129.299 59.4857C129.351 59.286 129.411 59.0803 129.479 58.8686C129.546 58.653 129.622 58.4273 129.706 58.1916L131.743 52.4401H132.822ZM136.333 54.525C137.115 54.525 137.697 54.7008 138.076 55.0522C138.455 55.4037 138.645 55.9649 138.645 56.7358V61.1992H137.92L137.728 60.2286H137.681C137.497 60.4683 137.305 60.67 137.105 60.8338C136.906 60.9935 136.674 61.1153 136.41 61.1992C136.151 61.2791 135.831 61.319 135.452 61.319C135.052 61.319 134.697 61.2491 134.385 61.1094C134.078 60.9696 133.834 60.7579 133.654 60.4743C133.479 60.1907 133.391 59.8312 133.391 59.3959C133.391 58.7408 133.65 58.2376 134.17 57.8861C134.689 57.5346 135.48 57.3429 136.542 57.3109L137.675 57.263V56.8616C137.675 56.2944 137.553 55.897 137.309 55.6693C137.065 55.4417 136.722 55.3278 136.279 55.3278C135.935 55.3278 135.608 55.3778 135.296 55.4776C134.985 55.5775 134.689 55.6953 134.409 55.8311L134.104 55.0762C134.399 54.9244 134.739 54.7946 135.122 54.6868C135.506 54.5789 135.909 54.525 136.333 54.525ZM137.663 57.964L136.662 58.0059C135.843 58.0379 135.266 58.1717 134.931 58.4073C134.595 58.643 134.427 58.9765 134.427 59.4078C134.427 59.7833 134.541 60.0609 134.769 60.2406C134.997 60.4204 135.298 60.5102 135.674 60.5102C136.257 60.5102 136.734 60.3485 137.105 60.0249C137.477 59.7014 137.663 59.2161 137.663 58.5691V57.964ZM143.324 61.319C142.733 61.319 142.212 61.1972 141.761 60.9536C141.309 60.7099 140.958 60.3385 140.706 59.8392C140.454 59.3399 140.329 58.7109 140.329 57.952C140.329 57.1571 140.46 56.5081 140.724 56.0048C140.992 55.4976 141.359 55.1221 141.826 54.8785C142.294 54.6348 142.825 54.513 143.42 54.513C143.748 54.513 144.063 54.547 144.367 54.6149C144.674 54.6788 144.926 54.7607 145.122 54.8605L144.822 55.6933C144.622 55.6134 144.391 55.5415 144.127 55.4776C143.867 55.4137 143.624 55.3818 143.396 55.3818C142.941 55.3818 142.561 55.4796 142.258 55.6753C141.958 55.871 141.733 56.1586 141.581 56.5381C141.433 56.9175 141.359 57.3848 141.359 57.94C141.359 58.4712 141.431 58.9246 141.575 59.3C141.723 59.6755 141.94 59.963 142.228 60.1627C142.519 60.3585 142.883 60.4563 143.318 60.4563C143.666 60.4563 143.979 60.4204 144.259 60.3485C144.539 60.2726 144.792 60.1847 145.02 60.0849V60.9716C144.8 61.0834 144.554 61.1693 144.283 61.2292C144.015 61.2891 143.696 61.319 143.324 61.319ZM149.208 61.319C148.617 61.319 148.095 61.1972 147.644 60.9536C147.193 60.7099 146.841 60.3385 146.589 59.8392C146.338 59.3399 146.212 58.7109 146.212 57.952C146.212 57.1571 146.344 56.5081 146.607 56.0048C146.875 55.4976 147.243 55.1221 147.71 54.8785C148.177 54.6348 148.708 54.513 149.304 54.513C149.631 54.513 149.947 54.547 150.25 54.6149C150.558 54.6788 150.809 54.7607 151.005 54.8605L150.705 55.6933C150.506 55.6134 150.274 55.5415 150.01 55.4776C149.751 55.4137 149.507 55.3818 149.28 55.3818C148.824 55.3818 148.445 55.4796 148.141 55.6753C147.842 55.871 147.616 56.1586 147.464 56.5381C147.316 56.9175 147.243 57.3848 147.243 57.94C147.243 58.4712 147.314 58.9246 147.458 59.3C147.606 59.6755 147.824 59.963 148.111 60.1627C148.403 60.3585 148.766 60.4563 149.202 60.4563C149.549 60.4563 149.863 60.4204 150.142 60.3485C150.422 60.2726 150.676 60.1847 150.903 60.0849V60.9716C150.683 61.0834 150.438 61.1693 150.166 61.2292C149.899 61.2891 149.579 61.319 149.208 61.319ZM153.455 54.6329V61.1992H152.461V54.6329H153.455ZM152.97 52.1765C153.134 52.1765 153.274 52.2304 153.39 52.3382C153.509 52.4421 153.569 52.6058 153.569 52.8295C153.569 53.0492 153.509 53.2129 153.39 53.3208C153.274 53.4286 153.134 53.4825 152.97 53.4825C152.798 53.4825 152.655 53.4286 152.539 53.3208C152.427 53.2129 152.371 53.0492 152.371 52.8295C152.371 52.6058 152.427 52.4421 152.539 52.3382C152.655 52.2304 152.798 52.1765 152.97 52.1765ZM158.674 54.513C159.453 54.513 160.042 54.7047 160.441 55.0882C160.841 55.4676 161.04 56.0787 161.04 56.9215V61.1992H160.058V56.9874C160.058 56.4402 159.932 56.0308 159.68 55.7592C159.433 55.4876 159.051 55.3518 158.536 55.3518C157.809 55.3518 157.298 55.5575 157.002 55.9689C156.707 56.3803 156.559 56.9774 156.559 57.7603V61.1992H155.564V54.6329H156.367L156.517 55.5795H156.571C156.711 55.3478 156.888 55.1541 157.104 54.9983C157.32 54.8385 157.561 54.7187 157.829 54.6388C158.097 54.555 158.378 54.513 158.674 54.513ZM165.546 54.525C166.329 54.525 166.91 54.7008 167.289 55.0522C167.669 55.4037 167.858 55.9649 167.858 56.7358V61.1992H167.133L166.942 60.2286H166.894C166.71 60.4683 166.518 60.67 166.319 60.8338C166.119 60.9935 165.887 61.1153 165.624 61.1992C165.364 61.2791 165.044 61.319 164.665 61.319C164.266 61.319 163.91 61.2491 163.599 61.1094C163.291 60.9696 163.047 60.7579 162.868 60.4743C162.692 60.1907 162.604 59.8312 162.604 59.3959C162.604 58.7408 162.864 58.2376 163.383 57.8861C163.902 57.5346 164.693 57.3429 165.755 57.3109L166.888 57.263V56.8616C166.888 56.2944 166.766 55.897 166.522 55.6693C166.279 55.4417 165.935 55.3278 165.492 55.3278C165.148 55.3278 164.821 55.3778 164.509 55.4776C164.198 55.5775 163.902 55.6953 163.623 55.8311L163.317 55.0762C163.613 54.9244 163.952 54.7946 164.335 54.6868C164.719 54.5789 165.122 54.525 165.546 54.525ZM166.876 57.964L165.875 58.0059C165.056 58.0379 164.479 58.1717 164.144 58.4073C163.808 58.643 163.64 58.9765 163.64 59.4078C163.64 59.7833 163.754 60.0609 163.982 60.2406C164.21 60.4204 164.511 60.5102 164.887 60.5102C165.47 60.5102 165.947 60.3485 166.319 60.0249C166.69 59.7014 166.876 59.2161 166.876 58.5691V57.964ZM172.028 60.5042C172.192 60.5042 172.36 60.4903 172.531 60.4623C172.703 60.4343 172.843 60.4004 172.951 60.3604V61.1333C172.835 61.1852 172.673 61.2292 172.466 61.2651C172.262 61.3011 172.062 61.319 171.866 61.319C171.519 61.319 171.203 61.2591 170.92 61.1393C170.636 61.0155 170.409 60.8078 170.237 60.5162C170.069 60.2246 169.985 59.8212 169.985 59.306V55.4117H169.051V54.9264L169.991 54.537L170.387 53.1111H170.986V54.6329H172.909V55.4117H170.986V59.276C170.986 59.6874 171.08 59.995 171.267 60.1987C171.459 60.4024 171.713 60.5042 172.028 60.5042ZM175.275 54.6329V61.1992H174.281V54.6329H175.275ZM174.79 52.1765C174.954 52.1765 175.094 52.2304 175.21 52.3382C175.329 52.4421 175.389 52.6058 175.389 52.8295C175.389 53.0492 175.329 53.2129 175.21 53.3208C175.094 53.4286 174.954 53.4825 174.79 53.4825C174.618 53.4825 174.475 53.4286 174.359 53.3208C174.247 53.2129 174.191 53.0492 174.191 52.8295C174.191 52.6058 174.247 52.4421 174.359 52.3382C174.475 52.2304 174.618 52.1765 174.79 52.1765ZM183.046 57.9041C183.046 58.4433 182.976 58.9246 182.836 59.3479C182.697 59.7713 182.495 60.1288 182.231 60.4204C181.968 60.7119 181.648 60.9356 181.273 61.0914C180.901 61.2432 180.48 61.319 180.008 61.319C179.569 61.319 179.166 61.2432 178.798 61.0914C178.435 60.9356 178.119 60.7119 177.852 60.4204C177.588 60.1288 177.382 59.7713 177.235 59.3479C177.091 58.9246 177.019 58.4433 177.019 57.9041C177.019 57.1851 177.141 56.574 177.384 56.0707C177.628 55.5635 177.975 55.1781 178.427 54.9144C178.882 54.6468 179.423 54.513 180.05 54.513C180.65 54.513 181.173 54.6468 181.62 54.9144C182.071 55.182 182.421 55.5695 182.669 56.0767C182.92 56.58 183.046 57.1891 183.046 57.9041ZM178.049 57.9041C178.049 58.4313 178.119 58.8886 178.259 59.276C178.399 59.6635 178.615 59.963 178.906 60.1747C179.198 60.3864 179.573 60.4923 180.032 60.4923C180.488 60.4923 180.861 60.3864 181.153 60.1747C181.448 59.963 181.666 59.6635 181.806 59.276C181.946 58.8886 182.016 58.4313 182.016 57.9041C182.016 57.3808 181.946 56.9295 181.806 56.55C181.666 56.1666 181.45 55.871 181.159 55.6633C180.867 55.4556 180.49 55.3518 180.026 55.3518C179.343 55.3518 178.842 55.5775 178.523 56.0288C178.207 56.4801 178.049 57.1052 178.049 57.9041ZM187.875 54.513C188.654 54.513 189.243 54.7047 189.642 55.0882C190.042 55.4676 190.241 56.0787 190.241 56.9215V61.1992H189.259V56.9874C189.259 56.4402 189.133 56.0308 188.881 55.7592C188.634 55.4876 188.252 55.3518 187.737 55.3518C187.01 55.3518 186.499 55.5575 186.203 55.9689C185.908 56.3803 185.76 56.9774 185.76 57.7603V61.1992H184.765V54.6329H185.568L185.718 55.5795H185.772C185.912 55.3478 186.09 55.1541 186.305 54.9983C186.521 54.8385 186.763 54.7187 187.03 54.6388C187.298 54.555 187.579 54.513 187.875 54.513ZM196.538 59.4019C196.538 59.8212 196.432 60.1747 196.221 60.4623C196.013 60.7459 195.713 60.9596 195.322 61.1034C194.935 61.2471 194.471 61.319 193.932 61.319C193.473 61.319 193.075 61.2831 192.74 61.2112C192.404 61.1393 192.111 61.0375 191.859 60.9056V59.989C192.127 60.1208 192.446 60.2406 192.818 60.3485C193.189 60.4563 193.569 60.5102 193.956 60.5102C194.523 60.5102 194.935 60.4184 195.19 60.2346C195.446 60.0509 195.574 59.8013 195.574 59.4857C195.574 59.306 195.522 59.1482 195.418 59.0124C195.318 58.8726 195.148 58.7388 194.909 58.611C194.669 58.4792 194.337 58.3354 193.914 58.1796C193.495 58.0199 193.131 57.8621 192.824 57.7063C192.52 57.5466 192.284 57.3529 192.117 57.1252C191.953 56.8975 191.871 56.602 191.871 56.2385C191.871 55.6833 192.095 55.2579 192.542 54.9624C192.993 54.6628 193.585 54.513 194.315 54.513C194.711 54.513 195.08 54.553 195.424 54.6329C195.771 54.7087 196.095 54.8126 196.394 54.9444L196.059 55.7412C195.787 55.6254 195.498 55.5275 195.19 55.4477C194.883 55.3678 194.569 55.3278 194.25 55.3278C193.79 55.3278 193.437 55.4037 193.189 55.5555C192.945 55.7073 192.824 55.915 192.824 56.1786C192.824 56.3823 192.88 56.55 192.991 56.6818C193.107 56.8137 193.291 56.9375 193.543 57.0533C193.794 57.1691 194.126 57.3049 194.537 57.4607C194.949 57.6125 195.304 57.7702 195.604 57.934C195.903 58.0938 196.133 58.2895 196.293 58.5211C196.456 58.7488 196.538 59.0424 196.538 59.4019Z" fill="#262939"/>
</g>
<defs>
<filter id="filter0_dd_46277_149680" x="-8" y="0" width="334" height="429" filterUnits="userSpaceOnUse" color-interpolation-filters="sRGB">
<feFlood flood-opacity="0" result="BackgroundImageFix"/>
<feColorMatrix in="SourceAlpha" type="matrix" values="0 0 0 0 0 0 0 0 0 0 0 0 0 0 0 0 0 0 127 0" result="hardAlpha"/>
<feMorphology radius="2" operator="erode" in="SourceAlpha" result="effect1_dropShadow_46277_149680"/>
<feOffset dy="-3"/>
<feGaussianBlur stdDeviation="3"/>
<feColorMatrix type="matrix" values="0 0 0 0 0.0470588 0 0 0 0 0.254902 0 0 0 0 0.603922 0 0 0 0.12 0"/>
<feBlend mode="normal" in2="BackgroundImageFix" result="effect1_dropShadow_46277_149680"/>
<feColorMatrix in="SourceAlpha" type="matrix" values="0 0 0 0 0 0 0 0 0 0 0 0 0 0 0 0 0 0 127 0" result="hardAlpha"/>
<feMorphology radius="4" operator="erode" in="SourceAlpha" result="effect2_dropShadow_46277_149680"/>
<feOffset dy="-10"/>
<feGaussianBlur stdDeviation="8"/>
<feColorMatrix type="matrix" values="0 0 0 0 0.0470588 0 0 0 0 0.254902 0 0 0 0 0.603922 0 0 0 0.17 0"/>
<feBlend mode="normal" in2="effect1_dropShadow_46277_149680" result="effect2_dropShadow_46277_149680"/>
<feBlend mode="normal" in="SourceGraphic" in2="effect2_dropShadow_46277_149680" result="shape"/>
</filter>
<linearGradient id="paint0_linear_46277_149680" x1="21" y1="31" x2="299.735" y2="33.6528" gradientUnits="userSpaceOnUse">
<stop stop-color="#0C419A"/>
<stop offset="1" stop-color="#1058D1"/>
</linearGradient>
<linearGradient id="paint1_linear_46277_149680" x1="159" y1="184.301" x2="159" y2="209.755" gradientUnits="userSpaceOnUse">
<stop stop-color="#07CBA2" stop-opacity="0"/>
<stop offset="0.229005" stop-color="#07CBA2" stop-opacity="0.1"/>
<stop offset="0.65625" stop-color="#07CBA2" stop-opacity="0.5"/>
<stop offset="0.65635" stop-color="#07CBA2"/>
<stop offset="1" stop-color="#07CBA2"/>
</linearGradient>
<clipPath id="clip0_46277_149680">
<rect width="310" height="405" fill="white" transform="translate(4 22)"/>
</clipPath>
</defs>
</svg>
