<svg width="318" height="429" viewBox="0 0 318 429" fill="none" xmlns="http://www.w3.org/2000/svg">
<g clip-path="url(#clip0_44648_67938)" filter="url(#filter0_dd_44648_67938)">
<rect x="16.8482" y="26.8482" width="284.304" height="588.304" rx="45.6696" fill="#F9FAFF" stroke="url(#paint0_linear_44648_67938)" stroke-width="8.30357"/>
<path d="M21 72.5178C21 49.5882 39.5882 31 62.5179 31H255.482C278.412 31 297 49.5882 297 72.5179V91.9525H21V72.5178Z" fill="white"/>
<path d="M43.5391 64.2119L51.8565 72.5294L53.8133 70.5725L47.4473 64.2064L53.8133 57.8403L51.8565 55.8945L43.5391 64.2119Z" fill="#0C419A"/>
<line x1="21" y1="91.2026" x2="297" y2="91.2025" stroke="#E7ECFA" stroke-width="1.38393"/>
<path d="M148.242 68H147.24V60.3125H144.545V59.4336H150.926V60.3125H148.242V68ZM154.477 61.4727C155.242 61.4727 155.811 61.6445 156.182 61.9883C156.553 62.332 156.738 62.8809 156.738 63.6348V68H156.029L155.842 67.0508H155.795C155.615 67.2852 155.428 67.4824 155.232 67.6426C155.037 67.7988 154.811 67.918 154.553 68C154.299 68.0781 153.986 68.1172 153.615 68.1172C153.225 68.1172 152.877 68.0488 152.572 67.9121C152.271 67.7754 152.033 67.5684 151.857 67.291C151.686 67.0137 151.6 66.6621 151.6 66.2363C151.6 65.5957 151.854 65.1035 152.361 64.7598C152.869 64.416 153.643 64.2285 154.682 64.1973L155.789 64.1504V63.7578C155.789 63.2031 155.67 62.8145 155.432 62.5918C155.193 62.3691 154.857 62.2578 154.424 62.2578C154.088 62.2578 153.768 62.3066 153.463 62.4043C153.158 62.502 152.869 62.6172 152.596 62.75L152.297 62.0117C152.586 61.8633 152.918 61.7363 153.293 61.6309C153.668 61.5254 154.062 61.4727 154.477 61.4727ZM155.777 64.8359L154.799 64.877C153.998 64.9082 153.434 65.0391 153.105 65.2695C152.777 65.5 152.613 65.8262 152.613 66.248C152.613 66.6152 152.725 66.8867 152.947 67.0625C153.17 67.2383 153.465 67.3262 153.832 67.3262C154.402 67.3262 154.869 67.168 155.232 66.8516C155.596 66.5352 155.777 66.0605 155.777 65.4277V64.8359ZM159.715 61.5781V68H158.742V61.5781H159.715ZM159.24 59.1758C159.4 59.1758 159.537 59.2285 159.65 59.334C159.768 59.4355 159.826 59.5957 159.826 59.8145C159.826 60.0293 159.768 60.1895 159.65 60.2949C159.537 60.4004 159.4 60.4531 159.24 60.4531C159.072 60.4531 158.932 60.4004 158.818 60.2949C158.709 60.1895 158.654 60.0293 158.654 59.8145C158.654 59.5957 158.709 59.4355 158.818 59.334C158.932 59.2285 159.072 59.1758 159.24 59.1758ZM162.756 68H161.777V58.8828H162.756V68ZM165.791 68H164.812V58.8828H165.791V68ZM170.32 61.4609C170.867 61.4609 171.336 61.582 171.727 61.8242C172.117 62.0664 172.416 62.4062 172.623 62.8438C172.83 63.2773 172.934 63.7852 172.934 64.3672V64.9707H168.498C168.51 65.7246 168.697 66.2988 169.061 66.6934C169.424 67.0879 169.936 67.2852 170.596 67.2852C171.002 67.2852 171.361 67.248 171.674 67.1738C171.986 67.0996 172.311 66.9902 172.646 66.8457V67.7012C172.322 67.8457 172 67.9512 171.68 68.0176C171.363 68.084 170.988 68.1172 170.555 68.1172C169.938 68.1172 169.398 67.9922 168.938 67.7422C168.48 67.4883 168.125 67.1172 167.871 66.6289C167.617 66.1406 167.49 65.543 167.49 64.8359C167.49 64.1445 167.605 63.5469 167.836 63.043C168.07 62.5352 168.398 62.1445 168.82 61.8711C169.246 61.5977 169.746 61.4609 170.32 61.4609ZM170.309 62.2578C169.789 62.2578 169.375 62.4277 169.066 62.7676C168.758 63.1074 168.574 63.582 168.516 64.1914H171.914C171.91 63.8086 171.85 63.4727 171.732 63.1836C171.619 62.8906 171.445 62.6641 171.211 62.5039C170.977 62.3398 170.676 62.2578 170.309 62.2578Z" fill="#262939"/>
<g clip-path="url(#clip1_44648_67938)">
<rect width="276" height="613.333" transform="translate(21 92)" fill="#F9FAFF"/>
<rect width="276" height="36.8" transform="translate(21 92.4492)" fill="white"/>
<rect x="81.1016" y="98.582" width="82.4" height="24.5333" rx="12.2667" fill="#E7ECFA"/>
<path d="M98.0813 110.443C98.0813 111.306 97.9154 112.028 97.5834 112.608C97.255 113.184 96.7781 113.619 96.1527 113.913C95.5273 114.203 94.7743 114.348 93.8938 114.348H91.7241V106.685H94.1297C94.9333 106.685 95.6303 106.829 96.2208 107.115C96.8113 107.398 97.269 107.819 97.5939 108.378C97.9188 108.934 98.0813 109.622 98.0813 110.443ZM96.3938 110.485C96.3938 109.919 96.3099 109.454 96.1422 109.091C95.978 108.724 95.7334 108.453 95.4085 108.279C95.087 108.104 94.6887 108.017 94.2135 108.017H93.3488V113.006H94.0458C94.839 113.006 95.4277 112.795 95.812 112.372C96.1998 111.949 96.3938 111.32 96.3938 110.485ZM101.96 108.378C102.501 108.378 102.968 108.483 103.359 108.693C103.75 108.899 104.052 109.199 104.266 109.594C104.479 109.989 104.585 110.471 104.585 111.041V111.816H100.807C100.824 112.267 100.959 112.622 101.21 112.88C101.465 113.135 101.818 113.263 102.269 113.263C102.643 113.263 102.985 113.224 103.296 113.147C103.607 113.071 103.927 112.955 104.255 112.802V114.038C103.965 114.182 103.661 114.287 103.343 114.353C103.029 114.419 102.646 114.452 102.195 114.452C101.608 114.452 101.088 114.344 100.634 114.128C100.183 113.911 99.8283 113.581 99.5697 113.137C99.3147 112.693 99.1871 112.134 99.1871 111.46C99.1871 110.775 99.3024 110.206 99.533 109.751C99.7671 109.294 100.092 108.951 100.508 108.724C100.924 108.494 101.408 108.378 101.96 108.378ZM101.97 109.516C101.659 109.516 101.401 109.615 101.194 109.814C100.992 110.013 100.875 110.326 100.843 110.752H103.086C103.083 110.515 103.039 110.303 102.955 110.118C102.875 109.933 102.753 109.786 102.588 109.678C102.428 109.57 102.222 109.516 101.97 109.516ZM113.579 110.517C113.579 111.135 113.53 111.687 113.432 112.173C113.338 112.658 113.184 113.071 112.971 113.41C112.761 113.748 112.485 114.007 112.143 114.185C111.8 114.363 111.384 114.452 110.895 114.452C110.28 114.452 109.775 114.297 109.381 113.986C108.986 113.672 108.694 113.221 108.505 112.634C108.317 112.043 108.222 111.338 108.222 110.517C108.222 109.689 108.308 108.981 108.479 108.394C108.654 107.804 108.937 107.351 109.328 107.037C109.72 106.722 110.242 106.565 110.895 106.565C111.507 106.565 112.01 106.722 112.405 107.037C112.803 107.348 113.098 107.798 113.29 108.389C113.483 108.976 113.579 109.685 113.579 110.517ZM109.831 110.517C109.831 111.1 109.863 111.587 109.926 111.979C109.992 112.367 110.102 112.658 110.256 112.854C110.41 113.05 110.623 113.147 110.895 113.147C111.164 113.147 111.376 113.051 111.529 112.859C111.687 112.664 111.798 112.372 111.865 111.984C111.931 111.593 111.964 111.104 111.964 110.517C111.964 109.933 111.931 109.446 111.865 109.054C111.798 108.663 111.687 108.37 111.529 108.174C111.376 107.975 111.164 107.875 110.895 107.875C110.623 107.875 110.41 107.975 110.256 108.174C110.102 108.37 109.992 108.663 109.926 109.054C109.863 109.446 109.831 109.933 109.831 110.517ZM120.004 108.368C120.79 108.368 121.393 108.539 121.812 108.881C122.231 109.224 122.441 109.744 122.441 110.443V114.348H121.325L121.015 113.551H120.974C120.806 113.761 120.635 113.932 120.46 114.065C120.285 114.197 120.084 114.295 119.857 114.358C119.63 114.421 119.354 114.452 119.029 114.452C118.683 114.452 118.372 114.386 118.096 114.253C117.824 114.121 117.609 113.918 117.452 113.645C117.294 113.369 117.216 113.02 117.216 112.597C117.216 111.975 117.434 111.518 117.871 111.224C118.308 110.927 118.963 110.763 119.836 110.731L120.853 110.7V110.443C120.853 110.136 120.773 109.91 120.612 109.767C120.451 109.624 120.228 109.552 119.941 109.552C119.658 109.552 119.38 109.592 119.108 109.673C118.835 109.753 118.563 109.854 118.29 109.977L117.761 108.897C118.072 108.733 118.419 108.604 118.804 108.509C119.192 108.415 119.592 108.368 120.004 108.368ZM120.853 111.633L120.235 111.654C119.717 111.668 119.358 111.76 119.155 111.932C118.956 112.103 118.856 112.328 118.856 112.608C118.856 112.852 118.928 113.027 119.071 113.132C119.214 113.233 119.401 113.284 119.632 113.284C119.974 113.284 120.262 113.182 120.497 112.98C120.734 112.777 120.853 112.489 120.853 112.115V111.633ZM119.747 106.125C119.852 106.285 119.978 106.464 120.124 106.659C120.275 106.855 120.427 107.045 120.58 107.231C120.734 107.412 120.867 107.569 120.979 107.702V107.844H119.92C119.784 107.749 119.625 107.632 119.443 107.493C119.261 107.349 119.075 107.201 118.882 107.047C118.694 106.89 118.517 106.74 118.353 106.596C118.189 106.453 118.056 106.333 117.955 106.235V106.125H119.747ZM131.529 108.399C131.529 108.752 131.455 109.058 131.309 109.316C131.162 109.575 130.963 109.786 130.711 109.951C130.463 110.115 130.183 110.235 129.873 110.312V110.344C130.487 110.42 130.954 110.609 131.272 110.91C131.593 111.21 131.754 111.612 131.754 112.115C131.754 112.562 131.644 112.962 131.424 113.315C131.207 113.668 130.872 113.946 130.418 114.149C129.963 114.351 129.378 114.452 128.662 114.452C128.239 114.452 127.844 114.418 127.477 114.348C127.114 114.281 126.772 114.178 126.45 114.038V112.66C126.779 112.828 127.123 112.955 127.483 113.043C127.843 113.127 128.178 113.168 128.489 113.168C129.069 113.168 129.474 113.069 129.705 112.87C129.939 112.667 130.056 112.384 130.056 112.021C130.056 111.808 130.002 111.628 129.893 111.481C129.785 111.334 129.597 111.222 129.327 111.145C129.062 111.069 128.69 111.03 128.211 111.03H127.629V109.788H128.222C128.693 109.788 129.051 109.744 129.296 109.657C129.544 109.566 129.712 109.444 129.799 109.29C129.89 109.133 129.935 108.955 129.935 108.756C129.935 108.483 129.852 108.27 129.684 108.116C129.516 107.963 129.237 107.886 128.845 107.886C128.601 107.886 128.377 107.917 128.174 107.98C127.975 108.039 127.795 108.113 127.635 108.2C127.474 108.284 127.332 108.366 127.21 108.446L126.461 107.33C126.761 107.113 127.112 106.934 127.514 106.79C127.919 106.647 128.402 106.575 128.961 106.575C129.75 106.575 130.376 106.734 130.837 107.052C131.298 107.37 131.529 107.819 131.529 108.399ZM138.211 108.368C138.997 108.368 139.6 108.539 140.019 108.881C140.438 109.224 140.648 109.744 140.648 110.443V114.348H139.531L139.222 113.551H139.18C139.013 113.761 138.841 113.932 138.667 114.065C138.492 114.197 138.291 114.295 138.064 114.358C137.837 114.421 137.561 114.452 137.236 114.452C136.89 114.452 136.579 114.386 136.303 114.253C136.031 114.121 135.816 113.918 135.658 113.645C135.501 113.369 135.423 113.02 135.423 112.597C135.423 111.975 135.641 111.518 136.078 111.224C136.514 110.927 137.17 110.763 138.043 110.731L139.06 110.7V110.443C139.06 110.136 138.979 109.91 138.819 109.767C138.658 109.624 138.434 109.552 138.148 109.552C137.865 109.552 137.587 109.592 137.315 109.673C137.042 109.753 136.77 109.854 136.497 109.977L135.968 108.897C136.279 108.733 136.626 108.604 137.011 108.509C137.398 108.415 137.798 108.368 138.211 108.368ZM139.06 111.633L138.441 111.654C137.924 111.668 137.564 111.76 137.362 111.932C137.163 112.103 137.063 112.328 137.063 112.608C137.063 112.852 137.135 113.027 137.278 113.132C137.421 113.233 137.608 113.284 137.839 113.284C138.181 113.284 138.469 113.182 138.703 112.98C138.941 112.777 139.06 112.489 139.06 112.115V111.633ZM145.627 108.378C146.252 108.378 146.755 108.549 147.136 108.892C147.517 109.231 147.707 109.776 147.707 110.527V114.348H146.109V110.925C146.109 110.506 146.032 110.19 145.878 109.977C145.728 109.764 145.49 109.657 145.165 109.657C144.676 109.657 144.343 109.823 144.164 110.155C143.986 110.487 143.897 110.966 143.897 111.591V114.348H142.299V108.488H143.52L143.735 109.238H143.824C143.95 109.035 144.105 108.871 144.29 108.745C144.479 108.619 144.687 108.527 144.914 108.467C145.144 108.408 145.382 108.378 145.627 108.378ZM153.441 112.608C153.441 113.006 153.346 113.343 153.158 113.619C152.973 113.892 152.695 114.1 152.324 114.243C151.954 114.383 151.493 114.452 150.941 114.452C150.532 114.452 150.181 114.426 149.887 114.374C149.597 114.321 149.304 114.234 149.007 114.112V112.791C149.325 112.934 149.666 113.053 150.029 113.147C150.396 113.238 150.717 113.284 150.993 113.284C151.304 113.284 151.526 113.238 151.659 113.147C151.795 113.053 151.863 112.931 151.863 112.781C151.863 112.683 151.835 112.595 151.779 112.519C151.727 112.438 151.612 112.349 151.434 112.251C151.255 112.15 150.976 112.019 150.595 111.858C150.228 111.705 149.926 111.549 149.688 111.392C149.454 111.235 149.28 111.049 149.164 110.836C149.052 110.62 148.997 110.345 148.997 110.013C148.997 109.472 149.206 109.065 149.625 108.792C150.048 108.516 150.612 108.378 151.318 108.378C151.682 108.378 152.027 108.415 152.356 108.488C152.688 108.562 153.029 108.679 153.378 108.839L152.896 109.992C152.606 109.867 152.331 109.764 152.073 109.683C151.818 109.603 151.558 109.563 151.292 109.563C151.058 109.563 150.881 109.594 150.763 109.657C150.644 109.72 150.585 109.816 150.585 109.945C150.585 110.04 150.614 110.124 150.674 110.197C150.736 110.27 150.855 110.352 151.03 110.443C151.208 110.531 151.468 110.644 151.811 110.784C152.143 110.92 152.431 111.063 152.676 111.214C152.92 111.36 153.109 111.544 153.242 111.764C153.374 111.981 153.441 112.262 153.441 112.608Z" fill="url(#paint1_linear_44648_67938)"/>
<rect x="181.898" y="107.848" width="55" height="6" rx="3" fill="#BDCCF8"/>
<path d="M21 274.917V129.25L39.8077 129.25H80.8533H123.951H153.709H188.598H214.251H236.313H258.375H309.267L277.963 171.417L242.122 203.233L209.457 225.083L174.07 243.483L138.683 256.517L102.389 266.1L62.9189 272.617L21 274.917Z" fill="#EFE3F3"/>
<path d="M21 331.356V366.148L39.4627 366.148H81.1412H124.904H155.12H190.547H216.596H238.998H261.401L304.642 366.148V214.348L278.072 244.248L233.268 277.982L174.918 305.198L124.904 321.298L94.6867 326.665L61.8649 331.356H21Z" fill="#EFE3F3"/>
<path d="M22.6172 333.183C160.22 333.183 264.889 270.092 304.648 214.043" stroke="#A05BB6" stroke-width="1.53333" stroke-linejoin="round"/>
<path d="M22.6172 272.82C160.22 272.82 264.889 199.634 304.648 134.617" stroke="#A05BB6" stroke-width="1.53333" stroke-linejoin="round"/>
<path d="M22.6172 302.208C160.22 302.208 264.889 236.172 304.648 177.508" stroke="#A05BB6" stroke-width="1.53333" stroke-linejoin="round"/>
<line x1="298.531" y1="171.797" x2="22.5312" y2="171.797" stroke="#C1C4C9" stroke-width="0.766667"/>
<line x1="298.531" y1="262.262" x2="22.5312" y2="262.262" stroke="#C1C4C9" stroke-width="0.766667"/>
<line x1="298.531" y1="351.196" x2="22.5312" y2="351.196" stroke="#C1C4C9" stroke-width="0.766667"/>
<line x1="298.531" y1="217.032" x2="22.5312" y2="217.032" stroke="#C1C4C9" stroke-width="0.766667" stroke-dasharray="1.53 1.53"/>
<line x1="298.531" y1="306.731" x2="22.5312" y2="306.731" stroke="#C1C4C9" stroke-width="0.766667" stroke-dasharray="1.53 1.53"/>
<path d="M22.9141 318.999L54.7996 310.159L103.462 275.036L161.32 239.912L190.441 217.005L252.531 185.982L311.947 167.582" stroke="#0C419A" stroke-width="3.06667" stroke-linecap="round" stroke-linejoin="round"/>
<path d="M54.724 314.781C57.2645 314.781 59.324 312.721 59.324 310.181C59.324 307.64 57.2645 305.581 54.724 305.581C52.1834 305.581 50.124 307.64 50.124 310.181C50.124 312.721 52.1834 314.781 54.724 314.781Z" fill="white" stroke="#0C419A" stroke-width="1.53333"/>
<circle cx="103.865" cy="274.915" r="4.6" fill="white" stroke="#0C419A" stroke-width="1.53333"/>
<circle cx="161.365" cy="239.65" r="4.6" fill="white" stroke="#0C419A" stroke-width="1.53333"/>
<circle cx="190.497" cy="217.415" r="4.6" fill="white" stroke="#0C419A" stroke-width="1.53333"/>
<circle cx="252.529" cy="185.982" r="4.6" fill="white" stroke="#0C419A" stroke-width="1.53333"/>
<path d="M22.5312 323.215C159.809 323.215 264.232 259.068 303.898 202.082" stroke="#4E5C7F" stroke-width="0.766667" stroke-linejoin="round" stroke-dasharray="3.07 3.83"/>
<path d="M22.5312 313.247C159.809 313.247 264.232 249.1 303.898 192.113" stroke="#4E5C7F" stroke-width="0.766667" stroke-linejoin="round" stroke-dasharray="3.07 3.83"/>
<path d="M24.0703 293.315C160.226 293.315 263.795 223.89 303.137 162.215" stroke="#4E5C7F" stroke-width="0.766667" stroke-linejoin="round" stroke-dasharray="3.07 3.83"/>
<path d="M21 282.58C157.156 282.58 260.725 213.156 300.067 151.48" stroke="#4E5C7F" stroke-width="0.766667" stroke-linejoin="round" stroke-dasharray="3.07 3.83"/>
<rect width="275.233" height="97.8667" transform="translate(21 366.148)" fill="white"/>
<path d="M37.4845 384.693C37.1736 384.693 36.8976 384.754 36.6565 384.877C36.4189 384.995 36.218 385.168 36.0538 385.395C35.8931 385.623 35.7708 385.897 35.6869 386.218C35.6031 386.54 35.5611 386.901 35.5611 387.303C35.5611 387.845 35.6275 388.308 35.7603 388.692C35.8965 389.073 36.1062 389.365 36.3892 389.567C36.6722 389.766 37.0373 389.866 37.4845 389.866C37.7955 389.866 38.1065 389.831 38.4174 389.761C38.7319 389.691 39.0725 389.592 39.4394 389.462V390.825C39.1005 390.965 38.7668 391.064 38.4384 391.124C38.11 391.187 37.7413 391.218 37.3326 391.218C36.5429 391.218 35.8931 391.056 35.3829 390.731C34.8763 390.402 34.5007 389.945 34.2562 389.358C34.0116 388.767 33.8893 388.079 33.8893 387.293C33.8893 386.713 33.9679 386.182 34.1251 385.699C34.2824 385.217 34.513 384.8 34.8169 384.447C35.1209 384.094 35.4965 383.821 35.9437 383.629C36.3909 383.437 36.9045 383.341 37.4845 383.341C37.8654 383.341 38.2462 383.39 38.6271 383.488C39.0114 383.582 39.3782 383.713 39.7276 383.881L39.2035 385.202C38.917 385.065 38.6288 384.947 38.3388 384.845C38.0488 384.744 37.7641 384.693 37.4845 384.693ZM46.2735 388.173C46.2735 388.662 46.2071 389.096 46.0743 389.473C45.9451 389.85 45.7547 390.17 45.5031 390.432C45.255 390.691 44.9545 390.886 44.6017 391.019C44.2523 391.152 43.8575 391.218 43.4172 391.218C43.0049 391.218 42.6258 391.152 42.2799 391.019C41.9375 390.886 41.6388 390.691 41.3838 390.432C41.1322 390.17 40.9365 389.85 40.7968 389.473C40.6605 389.096 40.5924 388.662 40.5924 388.173C40.5924 387.523 40.7077 386.973 40.9383 386.522C41.1689 386.072 41.4973 385.729 41.9236 385.495C42.3498 385.261 42.8582 385.144 43.4487 385.144C43.9972 385.144 44.4829 385.261 44.9056 385.495C45.3319 385.729 45.6656 386.072 45.9066 386.522C46.1512 386.973 46.2735 387.523 46.2735 388.173ZM42.2223 388.173C42.2223 388.557 42.2642 388.881 42.3481 389.143C42.4319 389.405 42.563 389.602 42.7411 389.735C42.9193 389.868 43.1517 389.934 43.4382 389.934C43.7212 389.934 43.95 389.868 44.1247 389.735C44.3029 389.602 44.4322 389.405 44.5126 389.143C44.5964 388.881 44.6383 388.557 44.6383 388.173C44.6383 387.785 44.5964 387.464 44.5126 387.209C44.4322 386.95 44.3029 386.756 44.1247 386.627C43.9465 386.498 43.7142 386.433 43.4277 386.433C43.0049 386.433 42.6975 386.578 42.5053 386.868C42.3166 387.158 42.2223 387.593 42.2223 388.173ZM52.9714 385.254V391.113H51.745L51.5301 390.364H51.4463C51.3205 390.563 51.1632 390.725 50.9746 390.851C50.7859 390.977 50.578 391.07 50.3509 391.129C50.1238 391.188 49.888 391.218 49.6434 391.218C49.2241 391.218 48.859 391.145 48.548 390.998C48.2371 390.848 47.9943 390.615 47.8196 390.301C47.6484 389.986 47.5628 389.578 47.5628 389.075V385.254H49.1612V388.676C49.1612 389.096 49.2364 389.412 49.3866 389.625C49.5368 389.838 49.7762 389.945 50.1046 389.945C50.4295 389.945 50.6846 389.871 50.8698 389.724C51.0549 389.574 51.1842 389.356 51.2576 389.069C51.3345 388.779 51.3729 388.426 51.3729 388.011V385.254H52.9714ZM57.9188 385.144C57.9991 385.144 58.0917 385.149 58.1965 385.16C58.3048 385.167 58.3922 385.177 58.4586 385.191L58.338 386.69C58.2856 386.673 58.2105 386.66 58.1127 386.653C58.0183 386.643 57.9362 386.638 57.8663 386.638C57.6602 386.638 57.4593 386.664 57.2636 386.716C57.0715 386.769 56.8985 386.854 56.7448 386.973C56.5911 387.088 56.4688 387.242 56.3779 387.434C56.2906 387.623 56.2469 387.855 56.2469 388.131V391.113H54.6484V385.254H55.8591L56.0949 386.239H56.1735C56.2888 386.04 56.4321 385.858 56.6033 385.694C56.778 385.526 56.9754 385.394 57.1955 385.296C57.4191 385.195 57.6602 385.144 57.9188 385.144ZM61.1209 382.958V384.856C61.1209 385.076 61.1139 385.294 61.1 385.511C61.0895 385.727 61.0755 385.895 61.058 386.014H61.1209C61.2747 385.773 61.4843 385.568 61.7498 385.401C62.0154 385.23 62.3595 385.144 62.7823 385.144C63.4392 385.144 63.972 385.401 64.3808 385.914C64.7896 386.428 64.9939 387.181 64.9939 388.173C64.9939 388.84 64.8996 389.401 64.7109 389.855C64.5223 390.306 64.2585 390.647 63.9196 390.877C63.5807 391.105 63.1876 391.218 62.7404 391.218C62.3106 391.218 61.9717 391.141 61.7236 390.987C61.4756 390.834 61.2747 390.661 61.1209 390.469H61.0109L60.7436 391.113H59.5225V382.958H61.1209ZM62.2687 386.423C61.9892 386.423 61.7673 386.48 61.6031 386.596C61.4389 386.711 61.3183 386.884 61.2415 387.114C61.1681 387.345 61.1279 387.637 61.1209 387.99V388.163C61.1209 388.732 61.2048 389.169 61.3725 389.473C61.5402 389.773 61.8459 389.924 62.2896 389.924C62.6181 389.924 62.8784 389.772 63.0705 389.468C63.2662 389.164 63.364 388.725 63.364 388.152C63.364 387.579 63.2662 387.148 63.0705 386.858C62.8749 386.568 62.6076 386.423 62.2687 386.423ZM68.7307 385.144C69.2723 385.144 69.7387 385.249 70.13 385.458C70.5213 385.665 70.8236 385.965 71.0367 386.36C71.2498 386.755 71.3564 387.237 71.3564 387.806V388.582H67.5777C67.5952 389.033 67.7297 389.387 67.9813 389.646C68.2363 389.901 68.5892 390.028 69.0399 390.028C69.4138 390.028 69.7562 389.99 70.0671 389.913C70.3781 389.836 70.6978 389.721 71.0262 389.567V390.804C70.7362 390.947 70.4322 391.052 70.1143 391.119C69.7998 391.185 69.4173 391.218 68.9665 391.218C68.3796 391.218 67.859 391.11 67.4048 390.893C66.954 390.677 66.5994 390.346 66.3409 389.903C66.0858 389.459 65.9583 388.9 65.9583 388.226C65.9583 387.541 66.0736 386.971 66.3042 386.517C66.5383 386.059 66.8632 385.717 67.279 385.49C67.6948 385.259 68.1787 385.144 68.7307 385.144ZM68.7412 386.281C68.4302 386.281 68.1717 386.381 67.9655 386.58C67.7629 386.779 67.6458 387.092 67.6144 387.518H69.8575C69.854 387.28 69.8103 387.069 69.7265 386.884C69.6461 386.699 69.5238 386.552 69.3596 386.444C69.1989 386.335 68.9927 386.281 68.7412 386.281ZM76.744 389.373C76.744 389.772 76.6497 390.109 76.461 390.385C76.2758 390.657 75.9981 390.865 75.6277 391.008C75.2573 391.148 74.7962 391.218 74.2441 391.218C73.8353 391.218 73.4842 391.192 73.1907 391.139C72.9007 391.087 72.6072 391 72.3102 390.877V389.557C72.6282 389.7 72.9688 389.819 73.3322 389.913C73.6991 390.004 74.0205 390.049 74.2965 390.049C74.6075 390.049 74.8293 390.004 74.9621 389.913C75.0984 389.819 75.1665 389.696 75.1665 389.546C75.1665 389.448 75.1386 389.361 75.0827 389.284C75.0302 389.204 74.9149 389.115 74.7368 389.017C74.5586 388.916 74.2791 388.785 73.8982 388.624C73.5314 388.47 73.2291 388.315 72.9915 388.157C72.7574 388 72.5828 387.815 72.4675 387.602C72.3556 387.385 72.2997 387.111 72.2997 386.779C72.2997 386.238 72.5094 385.83 72.9286 385.558C73.3514 385.282 73.9157 385.144 74.6215 385.144C74.9848 385.144 75.3307 385.181 75.6592 385.254C75.9911 385.327 76.3317 385.444 76.6811 385.605L76.199 386.758C75.909 386.632 75.6347 386.529 75.3761 386.449C75.1211 386.369 74.8608 386.328 74.5953 386.328C74.3612 386.328 74.1847 386.36 74.0659 386.423C73.9471 386.486 73.8877 386.582 73.8877 386.711C73.8877 386.805 73.9174 386.889 73.9768 386.962C74.0397 387.036 74.1585 387.118 74.3332 387.209C74.5114 387.296 74.7717 387.41 75.1141 387.549C75.446 387.686 75.7343 387.829 75.9788 387.979C76.2234 388.126 76.4121 388.309 76.5449 388.53C76.6776 388.746 76.744 389.027 76.744 389.373ZM82.6348 391.218C81.9814 391.218 81.4486 390.963 81.0363 390.453C80.6275 389.939 80.4231 389.186 80.4231 388.194C80.4231 387.191 80.631 386.433 81.0468 385.92C81.4626 385.402 82.0059 385.144 82.6767 385.144C82.9562 385.144 83.2025 385.182 83.4157 385.259C83.6288 385.336 83.8122 385.439 83.966 385.568C84.1232 385.698 84.2559 385.843 84.3643 386.003H84.4167C84.3957 385.892 84.3695 385.727 84.3381 385.511C84.3101 385.291 84.2961 385.065 84.2961 384.835V382.958H85.8998V391.113H84.6735L84.3643 390.353H84.2961C84.1948 390.514 84.0673 390.661 83.9135 390.794C83.7633 390.923 83.5834 391.026 83.3737 391.103C83.1641 391.18 82.9178 391.218 82.6348 391.218ZM83.1955 389.945C83.6323 389.945 83.9397 389.815 84.1179 389.557C84.2996 389.295 84.3957 388.902 84.4062 388.378V388.205C84.4062 387.635 84.3188 387.2 84.1441 386.9C83.9694 386.596 83.6445 386.444 83.1693 386.444C82.8165 386.444 82.5404 386.596 82.3413 386.9C82.1421 387.204 82.0425 387.642 82.0425 388.215C82.0425 388.788 82.1421 389.22 82.3413 389.51C82.5439 389.8 82.8287 389.945 83.1955 389.945ZM89.9877 385.144C90.5293 385.144 90.9957 385.249 91.387 385.458C91.7784 385.665 92.0806 385.965 92.2937 386.36C92.5068 386.755 92.6134 387.237 92.6134 387.806V388.582H88.8347C88.8522 389.033 88.9867 389.387 89.2383 389.646C89.4933 389.901 89.8462 390.028 90.2969 390.028C90.6708 390.028 91.0132 389.99 91.3242 389.913C91.6351 389.836 91.9548 389.721 92.2832 389.567V390.804C91.9932 390.947 91.6893 391.052 91.3713 391.119C91.0569 391.185 90.6743 391.218 90.2236 391.218C89.6366 391.218 89.116 391.11 88.6618 390.893C88.2111 390.677 87.8564 390.346 87.5979 389.903C87.3428 389.459 87.2153 388.9 87.2153 388.226C87.2153 387.541 87.3306 386.971 87.5612 386.517C87.7953 386.059 88.1202 385.717 88.536 385.49C88.9518 385.259 89.4357 385.144 89.9877 385.144ZM89.9982 386.281C89.6873 386.281 89.4287 386.381 89.2226 386.58C89.0199 386.779 88.9029 387.092 88.8714 387.518H91.1145C91.111 387.28 91.0674 387.069 90.9835 386.884C90.9031 386.699 90.7808 386.552 90.6166 386.444C90.4559 386.335 90.2498 386.281 89.9982 386.281ZM99.9716 385.144C100.052 385.144 100.145 385.149 100.249 385.16C100.358 385.167 100.445 385.177 100.511 385.191L100.391 386.69C100.338 386.673 100.263 386.66 100.166 386.653C100.071 386.643 99.9891 386.638 99.9192 386.638C99.7131 386.638 99.5122 386.664 99.3165 386.716C99.1243 386.769 98.9514 386.854 98.7977 386.973C98.6439 387.088 98.5216 387.242 98.4308 387.434C98.3434 387.623 98.2998 387.855 98.2998 388.131V391.113H96.7013V385.254H97.9119L98.1478 386.239H98.2264C98.3417 386.04 98.485 385.858 98.6562 385.694C98.8309 385.526 99.0283 385.394 99.2484 385.296C99.472 385.195 99.7131 385.144 99.9716 385.144ZM103.991 385.144C104.533 385.144 104.999 385.249 105.391 385.458C105.782 385.665 106.084 385.965 106.297 386.36C106.51 386.755 106.617 387.237 106.617 387.806V388.582H102.838C102.856 389.033 102.99 389.387 103.242 389.646C103.497 389.901 103.85 390.028 104.301 390.028C104.674 390.028 105.017 389.99 105.328 389.913C105.639 389.836 105.958 389.721 106.287 389.567V390.804C105.997 390.947 105.693 391.052 105.375 391.119C105.061 391.185 104.678 391.218 104.227 391.218C103.64 391.218 103.12 391.11 102.665 390.893C102.215 390.677 101.86 390.346 101.602 389.903C101.346 389.459 101.219 388.9 101.219 388.226C101.219 387.541 101.334 386.971 101.565 386.517C101.799 386.059 102.124 385.717 102.54 385.49C102.955 385.259 103.439 385.144 103.991 385.144ZM104.002 386.281C103.691 386.281 103.432 386.381 103.226 386.58C103.024 386.779 102.907 387.092 102.875 387.518H105.118C105.115 387.28 105.071 387.069 104.987 386.884C104.907 386.699 104.784 386.552 104.62 386.444C104.46 386.335 104.253 386.281 104.002 386.281ZM105.972 382.89V383C105.871 383.098 105.738 383.219 105.574 383.362C105.41 383.505 105.233 383.656 105.045 383.813C104.856 383.966 104.671 384.115 104.489 384.258C104.308 384.398 104.149 384.515 104.012 384.609H102.948V384.468C103.064 384.335 103.197 384.178 103.347 383.996C103.5 383.811 103.652 383.621 103.803 383.425C103.953 383.229 104.079 383.051 104.18 382.89H105.972ZM111.156 386.454H109.772V391.113H108.174V386.454H107.293V385.684L108.174 385.254V384.824C108.174 384.325 108.257 383.937 108.425 383.661C108.596 383.381 108.836 383.186 109.143 383.074C109.454 382.958 109.821 382.901 110.244 382.901C110.555 382.901 110.838 382.927 111.093 382.979C111.348 383.028 111.556 383.084 111.716 383.147L111.308 384.321C111.185 384.283 111.053 384.248 110.909 384.216C110.766 384.185 110.602 384.169 110.417 384.169C110.193 384.169 110.029 384.237 109.924 384.374C109.823 384.506 109.772 384.677 109.772 384.887V385.254H111.156V386.454ZM114.494 385.144C115.036 385.144 115.502 385.249 115.893 385.458C116.285 385.665 116.587 385.965 116.8 386.36C117.013 386.755 117.12 387.237 117.12 387.806V388.582H113.341C113.359 389.033 113.493 389.387 113.745 389.646C114 389.901 114.353 390.028 114.803 390.028C115.177 390.028 115.52 389.99 115.831 389.913C116.141 389.836 116.461 389.721 116.79 389.567V390.804C116.5 390.947 116.196 391.052 115.878 391.119C115.563 391.185 115.181 391.218 114.73 391.218C114.143 391.218 113.622 391.11 113.168 390.893C112.717 390.677 112.363 390.346 112.104 389.903C111.849 389.459 111.722 388.9 111.722 388.226C111.722 387.541 111.837 386.971 112.068 386.517C112.302 386.059 112.627 385.717 113.042 385.49C113.458 385.259 113.942 385.144 114.494 385.144ZM114.505 386.281C114.194 386.281 113.935 386.381 113.729 386.58C113.526 386.779 113.409 387.092 113.378 387.518H115.621C115.617 387.28 115.574 387.069 115.49 386.884C115.41 386.699 115.287 386.552 115.123 386.444C114.962 386.335 114.756 386.281 114.505 386.281ZM116.475 382.89V383C116.374 383.098 116.241 383.219 116.077 383.362C115.913 383.505 115.736 383.656 115.548 383.813C115.359 383.966 115.174 384.115 114.992 384.258C114.81 384.398 114.651 384.515 114.515 384.609H113.451V384.468C113.566 384.335 113.699 384.178 113.849 383.996C114.003 383.811 114.155 383.621 114.305 383.425C114.456 383.229 114.581 383.051 114.683 382.89H116.475ZM121.69 385.144C121.77 385.144 121.863 385.149 121.968 385.16C122.076 385.167 122.163 385.177 122.23 385.191L122.109 386.69C122.057 386.673 121.982 386.66 121.884 386.653C121.789 386.643 121.707 386.638 121.637 386.638C121.431 386.638 121.23 386.664 121.035 386.716C120.843 386.769 120.67 386.854 120.516 386.973C120.362 387.088 120.24 387.242 120.149 387.434C120.062 387.623 120.018 387.855 120.018 388.131V391.113H118.42V385.254H119.63L119.866 386.239H119.945C120.06 386.04 120.203 385.858 120.374 385.694C120.549 385.526 120.746 385.394 120.967 385.296C121.19 385.195 121.431 385.144 121.69 385.144ZM125.71 385.144C126.251 385.144 126.718 385.249 127.109 385.458C127.5 385.665 127.802 385.965 128.016 386.36C128.229 386.755 128.335 387.237 128.335 387.806V388.582H124.557C124.574 389.033 124.709 389.387 124.96 389.646C125.215 389.901 125.568 390.028 126.019 390.028C126.393 390.028 126.735 389.99 127.046 389.913C127.357 389.836 127.677 389.721 128.005 389.567V390.804C127.715 390.947 127.411 391.052 127.093 391.119C126.779 391.185 126.396 391.218 125.945 391.218C125.358 391.218 124.838 391.11 124.384 390.893C123.933 390.677 123.578 390.346 123.32 389.903C123.065 389.459 122.937 388.9 122.937 388.226C122.937 387.541 123.052 386.971 123.283 386.517C123.517 386.059 123.842 385.717 124.258 385.49C124.674 385.259 125.158 385.144 125.71 385.144ZM125.72 386.281C125.409 386.281 125.151 386.381 124.944 386.58C124.742 386.779 124.625 387.092 124.593 387.518H126.836C126.833 387.28 126.789 387.069 126.705 386.884C126.625 386.699 126.503 386.552 126.339 386.444C126.178 386.335 125.972 386.281 125.72 386.281ZM132.963 385.144C133.588 385.144 134.092 385.315 134.472 385.658C134.853 385.996 135.044 386.541 135.044 387.293V391.113H133.445V387.691C133.445 387.272 133.368 386.956 133.215 386.742C133.064 386.529 132.827 386.423 132.502 386.423C132.013 386.423 131.679 386.589 131.501 386.921C131.323 387.252 131.233 387.731 131.233 388.357V391.113H129.635V385.254H130.856L131.071 386.003H131.16C131.286 385.801 131.441 385.637 131.627 385.511C131.815 385.385 132.023 385.292 132.25 385.233C132.481 385.174 132.718 385.144 132.963 385.144ZM139.069 391.218C138.489 391.218 137.994 391.113 137.585 390.904C137.177 390.691 136.866 390.362 136.653 389.918C136.439 389.475 136.333 388.907 136.333 388.215C136.333 387.499 136.453 386.915 136.694 386.465C136.939 386.01 137.276 385.677 137.706 385.464C138.139 385.25 138.641 385.144 139.21 385.144C139.615 385.144 139.965 385.184 140.258 385.264C140.555 385.341 140.814 385.434 141.034 385.542L140.562 386.779C140.311 386.678 140.077 386.596 139.86 386.533C139.643 386.466 139.427 386.433 139.21 386.433C138.931 386.433 138.698 386.5 138.513 386.632C138.328 386.762 138.19 386.957 138.099 387.219C138.008 387.481 137.963 387.81 137.963 388.205C137.963 388.592 138.012 388.914 138.11 389.169C138.207 389.424 138.349 389.614 138.534 389.74C138.719 389.862 138.945 389.924 139.21 389.924C139.542 389.924 139.837 389.88 140.096 389.793C140.354 389.702 140.606 389.576 140.851 389.415V390.783C140.606 390.937 140.349 391.047 140.08 391.113C139.815 391.183 139.477 391.218 139.069 391.218ZM144.629 385.144C145.171 385.144 145.637 385.249 146.029 385.458C146.42 385.665 146.722 385.965 146.935 386.36C147.148 386.755 147.255 387.237 147.255 387.806V388.582H143.476C143.494 389.033 143.628 389.387 143.88 389.646C144.135 389.901 144.488 390.028 144.938 390.028C145.312 390.028 145.655 389.99 145.966 389.913C146.277 389.836 146.596 389.721 146.925 389.567V390.804C146.635 390.947 146.331 391.052 146.013 391.119C145.698 391.185 145.316 391.218 144.865 391.218C144.278 391.218 143.757 391.11 143.303 390.893C142.853 390.677 142.498 390.346 142.239 389.903C141.984 389.459 141.857 388.9 141.857 388.226C141.857 387.541 141.972 386.971 142.203 386.517C142.437 386.059 142.762 385.717 143.177 385.49C143.593 385.259 144.077 385.144 144.629 385.144ZM144.64 386.281C144.329 386.281 144.07 386.381 143.864 386.58C143.661 386.779 143.544 387.092 143.513 387.518H145.756C145.752 387.28 145.709 387.069 145.625 386.884C145.545 386.699 145.422 386.552 145.258 386.444C145.097 386.335 144.891 386.281 144.64 386.281ZM152.643 389.373C152.643 389.772 152.548 390.109 152.36 390.385C152.174 390.657 151.897 390.865 151.526 391.008C151.156 391.148 150.695 391.218 150.143 391.218C149.734 391.218 149.383 391.192 149.089 391.139C148.799 391.087 148.506 391 148.209 390.877V389.557C148.527 389.7 148.867 389.819 149.231 389.913C149.598 390.004 149.919 390.049 150.195 390.049C150.506 390.049 150.728 390.004 150.861 389.913C150.997 389.819 151.065 389.696 151.065 389.546C151.065 389.448 151.037 389.361 150.981 389.284C150.929 389.204 150.813 389.115 150.635 389.017C150.457 388.916 150.178 388.785 149.797 388.624C149.43 388.47 149.128 388.315 148.89 388.157C148.656 388 148.481 387.815 148.366 387.602C148.254 387.385 148.198 387.111 148.198 386.779C148.198 386.238 148.408 385.83 148.827 385.558C149.25 385.282 149.814 385.144 150.52 385.144C150.883 385.144 151.229 385.181 151.558 385.254C151.89 385.327 152.23 385.444 152.58 385.605L152.097 386.758C151.807 386.632 151.533 386.529 151.275 386.449C151.02 386.369 150.759 386.328 150.494 386.328C150.26 386.328 150.083 386.36 149.964 386.423C149.846 386.486 149.786 386.582 149.786 386.711C149.786 386.805 149.816 386.889 149.875 386.962C149.938 387.036 150.057 387.118 150.232 387.209C150.41 387.296 150.67 387.41 151.013 387.549C151.345 387.686 151.633 387.829 151.877 387.979C152.122 388.126 152.311 388.309 152.443 388.53C152.576 388.746 152.643 389.027 152.643 389.373Z" fill="#0C419A"/>
<path d="M174.733 384.766L170.125 389.373L171.209 390.458L174.736 386.931L178.262 390.458L179.341 389.373L174.733 384.766Z" fill="#0C419A"/>
<rect x="33.2656" y="406.016" width="69" height="24.5333" rx="12.2667" fill="#A05BB6"/>
<rect x="111.469" y="406.016" width="64.4" height="24.5333" rx="12.2667" fill="#495574"/>
</g>
</g>
<defs>
<filter id="filter0_dd_44648_67938" x="-8" y="0" width="334" height="429" filterUnits="userSpaceOnUse" color-interpolation-filters="sRGB">
<feFlood flood-opacity="0" result="BackgroundImageFix"/>
<feColorMatrix in="SourceAlpha" type="matrix" values="0 0 0 0 0 0 0 0 0 0 0 0 0 0 0 0 0 0 127 0" result="hardAlpha"/>
<feMorphology radius="2" operator="erode" in="SourceAlpha" result="effect1_dropShadow_44648_67938"/>
<feOffset dy="-3"/>
<feGaussianBlur stdDeviation="3"/>
<feColorMatrix type="matrix" values="0 0 0 0 0.0470588 0 0 0 0 0.254902 0 0 0 0 0.603922 0 0 0 0.12 0"/>
<feBlend mode="normal" in2="BackgroundImageFix" result="effect1_dropShadow_44648_67938"/>
<feColorMatrix in="SourceAlpha" type="matrix" values="0 0 0 0 0 0 0 0 0 0 0 0 0 0 0 0 0 0 127 0" result="hardAlpha"/>
<feMorphology radius="4" operator="erode" in="SourceAlpha" result="effect2_dropShadow_44648_67938"/>
<feOffset dy="-10"/>
<feGaussianBlur stdDeviation="8"/>
<feColorMatrix type="matrix" values="0 0 0 0 0.0470588 0 0 0 0 0.254902 0 0 0 0 0.603922 0 0 0 0.17 0"/>
<feBlend mode="normal" in2="effect1_dropShadow_44648_67938" result="effect2_dropShadow_44648_67938"/>
<feBlend mode="normal" in="SourceGraphic" in2="effect2_dropShadow_44648_67938" result="shape"/>
</filter>
<linearGradient id="paint0_linear_44648_67938" x1="21" y1="31" x2="299.735" y2="33.6528" gradientUnits="userSpaceOnUse">
<stop stop-color="#0C419A"/>
<stop offset="1" stop-color="#1058D1"/>
</linearGradient>
<linearGradient id="paint1_linear_44648_67938" x1="90.3047" y1="102.348" x2="154.58" y2="107.187" gradientUnits="userSpaceOnUse">
<stop stop-color="#0C419A"/>
<stop offset="1" stop-color="#1058D1"/>
</linearGradient>
<clipPath id="clip0_44648_67938">
<rect width="310" height="405" fill="white" transform="translate(4 22)"/>
</clipPath>
<clipPath id="clip1_44648_67938">
<rect width="276" height="613.333" fill="white" transform="translate(21 92)"/>
</clipPath>
</defs>
</svg>
