<svg width="124" height="124" viewBox="0 0 124 124" fill="none" xmlns="http://www.w3.org/2000/svg">
<g clip-path="url(#clip0_7498_79281)">
<path d="M100.789 80.195C89.0202 87.7543 74.6419 92.3575 60.8918 93.2556C33.8815 95.0184 9.63528 73.1331 6.62495 45.9295C5.20916 33.1305 9.9211 19.2663 20.7414 11.9048C28.7483 6.45602 38.469 6.81448 46.9822 10.564C54.1623 13.7268 59.9997 19.1578 66.8582 22.8769C77.3435 28.5633 88.9008 28.2844 99.9523 31.8556C106.011 33.8131 112.631 37.7566 115.568 43.7462C118.357 49.4317 118.344 56.4229 116.141 62.3706C113.361 69.8776 107.486 75.8934 100.789 80.195Z" fill="#A0B2EC" fill-opacity="0.16"/>
<path d="M100.825 51.6503C97.0552 47.0044 91.0165 44.3785 84.817 43.8422C80.8816 43.5019 76.7537 43.973 73.156 45.751C67.2581 48.6665 63.6354 54.5391 59.0434 59.1885C53.5528 64.7481 46.5451 68.6381 40.4032 73.5188C34.2621 78.399 28.6962 84.9084 28.1078 92.4132C27.7571 96.8731 29.2453 101.276 31.7585 104.905C36.6548 111.976 45.3608 116.125 54.3223 116.611C79.6745 117.985 102.817 94.567 105.339 71.1329C106.075 64.2877 105.14 56.9686 100.825 51.6503Z" fill="#A0B2EC" fill-opacity="0.16"/>
<rect x="22.5664" y="41.1582" width="2.42681" height="2.7757" transform="rotate(-40.492 22.5664 41.1582)" fill="#A0B2EC"/>
<path d="M23.8868 41.0789C21.4805 43.1435 17.8579 42.8681 15.7942 40.4636C13.7297 38.0573 14.0051 34.4347 16.4096 32.3711C18.814 30.3074 22.4384 30.5819 24.5021 32.9864C26.5677 35.3899 26.2922 39.0125 23.8868 41.0789Z" fill="#A0B2EC"/>
<path d="M22.9151 39.9439C21.1359 41.4722 18.4555 41.2684 16.9295 39.4881C15.4012 37.709 15.605 35.0285 17.3842 33.5003C19.1634 31.972 21.8438 32.1758 23.3698 33.9561C24.8981 35.7352 24.6943 38.4157 22.9151 39.9439Z" fill="#A0B2EC"/>
<path fill-rule="evenodd" clip-rule="evenodd" d="M17.6597 38.8609L17.6603 38.8616C18.8398 40.2376 20.9119 40.3956 22.2879 39.2137C23.6639 38.0318 23.8213 35.9591 22.6396 34.5833L22.639 34.5826C21.4595 33.2066 19.3874 33.0486 18.0114 34.2305C16.6354 35.4124 16.478 37.4851 17.6597 38.8609ZM16.9295 39.4881C15.4012 37.709 15.605 35.0285 17.3842 33.5003C19.1634 31.972 21.8438 32.1758 23.3698 33.9561C24.8981 35.7352 24.6943 38.4157 22.9151 39.9439C21.1359 41.4722 18.4555 41.2684 16.9295 39.4881Z" fill="#262939"/>
<path d="M19.9467 36.4925L19.9468 36.4924C20.0746 36.3826 20.2685 36.3973 20.3784 36.525C20.4881 36.6539 20.4732 36.8476 20.3457 36.9571C20.2179 37.0669 20.0239 37.0522 19.9139 36.9242C19.8039 36.7961 19.8182 36.6026 19.9467 36.4925Z" fill="#262939" stroke="#262939" stroke-width="0.31053"/>
<path fill-rule="evenodd" clip-rule="evenodd" d="M25.4546 46.6119C25.1827 44.4691 24.1491 43.1626 23.8574 42.9089L25.5464 40.9668C26.3347 41.6524 27.6597 43.5441 28.0079 46.2879C28.3651 49.1031 27.6866 52.7236 24.5677 56.8078C21.3594 61.009 20.4045 65.8541 23.0626 71.1938C25.7859 76.6646 32.3781 82.8107 44.7434 89.1811C52.8802 93.3731 66.9775 94.3804 79.3583 91.2946C91.7752 88.1998 101.782 81.195 102.791 69.9487L105.355 70.1787C104.194 83.1118 92.7346 90.6132 79.9808 93.792C67.191 96.9797 52.4137 96.0281 43.5647 91.4692C31.0233 85.008 23.8457 78.5426 20.7585 72.3408C17.6062 66.0081 18.8001 60.1197 22.5221 55.2457C25.2775 51.6376 25.7174 48.6831 25.4546 46.6119Z" fill="#0C419A"/>
<rect x="27.7461" y="60.3164" width="64.6765" height="39.7859" rx="11.5134" fill="#F0B323"/>
<rect x="27.7461" y="60.3164" width="64.6765" height="39.7859" rx="11.5134" fill="black" fill-opacity="0.2"/>
<g filter="url(#filter0_d_7498_79281)">
<path d="M38.2969 97.1255H81.8169C86.2352 97.1255 89.8169 93.5437 89.8169 89.1255V36.8148C89.8169 34.7372 89.0086 32.741 87.5631 31.2487L81.0641 24.5394C79.5572 22.9837 77.4838 22.1055 75.3179 22.1055H38.2969C33.8786 22.1055 30.2969 25.6872 30.2969 30.1055V89.1255C30.2969 93.5437 33.8786 97.1255 38.2969 97.1255Z" fill="white"/>
</g>
<g filter="url(#filter1_d_7498_79281)">
<path d="M35.3428 99.8203H85.5628C88.3021 99.8203 90.5228 97.5996 90.5228 94.8603V27.2803C90.5228 24.541 88.3021 22.3203 85.5628 22.3203H35.3428C32.6035 22.3203 30.3828 24.541 30.3828 27.2803V94.8603C30.3828 97.5996 32.6035 99.8203 35.3428 99.8203Z" fill="white"/>
</g>
<rect x="65.1016" y="31.6211" width="19.22" height="4.96" rx="2.48" fill="#A05BB6"/>
<rect x="65.1016" y="42.7812" width="19.22" height="3.72" rx="1.86" fill="#BDCCF8"/>
<rect x="65.1016" y="52.7012" width="9.92" height="3.72" rx="1.86" fill="#BDCCF8"/>
<ellipse cx="48.982" cy="44.0211" rx="12.4" ry="12.4" fill="#F9FAFF"/>
<path d="M44.99 40.1715C44.99 38.1891 46.6382 36.582 48.6712 36.582C50.7043 36.582 52.3525 38.1891 52.3525 40.1715C52.3525 42.1539 50.7043 43.761 48.6712 43.761C46.6382 43.761 44.99 42.1539 44.99 40.1715ZM48.6712 42.3252C49.8911 42.3252 50.88 41.361 50.88 40.1715C50.88 38.9821 49.8911 38.0178 48.6712 38.0178C47.4514 38.0178 46.4625 38.9821 46.4625 40.1715C46.4625 41.361 47.4514 42.3252 48.6712 42.3252Z" fill="#A05BB6"/>
<path d="M44.5064 46.161C43.5808 47.0635 42.9951 48.2355 42.8296 49.4879C42.7763 49.891 43.1109 50.222 43.5175 50.222C43.9241 50.222 44.2472 49.8899 44.3181 49.4895C44.4721 48.619 44.8984 47.8093 45.5476 47.1763C46.376 46.3685 47.4997 45.9147 48.6712 45.9147C49.8428 45.9147 50.9665 46.3685 51.7949 47.1763C52.4441 47.8093 52.8704 48.619 53.0244 49.4895C53.0953 49.8899 53.4184 50.222 53.825 50.222C54.2316 50.222 54.5662 49.891 54.5129 49.4879C54.3474 48.2355 53.7617 47.0635 52.8361 46.161C51.7315 45.084 50.2334 44.4789 48.6712 44.4789C47.1091 44.4789 45.611 45.084 44.5064 46.161Z" fill="#A05BB6"/>
<rect x="36.582" y="62.6211" width="7.44" height="4.96" rx="2.48" fill="#A05BB6"/>
<rect x="36.582" y="72.541" width="7.44" height="4.96" rx="2.48" fill="#A05BB6"/>
<rect x="47.1211" y="63.2402" width="37.2" height="3.72" rx="1.86" fill="#BDCCF8"/>
<rect x="47.1211" y="73.1602" width="19.22" height="3.71999" rx="1.86" fill="#BDCCF8"/>
<rect x="36.582" y="83.7012" width="47.74" height="16.74" rx="2.54129" fill="#F9FAFF"/>
<path d="M41.543 94.8608H46.0087C46.4014 94.8608 46.7578 94.6309 46.9197 94.2731L48.1076 91.6485C48.4654 90.8579 49.5914 90.8671 49.9363 91.6635L52.4429 97.4529C52.8058 98.2909 54.0097 98.2441 54.3064 97.3804L54.9399 95.5359C55.0786 95.132 55.4586 94.8608 55.8857 94.8608H57.2835C57.6602 94.8608 58.0049 94.6491 58.1753 94.3132L60.9582 88.8274C61.3517 88.0515 62.4798 88.1135 62.786 88.9278L65.5703 96.3328C65.8833 97.1651 67.0453 97.2056 67.4155 96.3972L67.8519 95.4444C68.0148 95.0888 68.37 94.8608 68.7611 94.8608H70.9124C71.289 94.8608 71.6338 94.6491 71.8042 94.3132L72.6789 92.5888C73.0493 91.8587 74.0921 91.8587 74.4625 92.5888L75.3373 94.3132C75.5077 94.6491 75.8524 94.8608 76.2291 94.8608H79.363" stroke="#A05BB6" stroke-width="2.5" stroke-linecap="round"/>
<path d="M85.2363 100.43L27.7461 67.2754V93.292C27.7461 97.2344 30.942 100.43 34.8844 100.43H85.2363Z" fill="#F0B323"/>
<path d="M85.2363 100.43L27.7461 67.2754V93.292C27.7461 97.2344 30.942 100.43 34.8844 100.43H85.2363Z" fill="black" fill-opacity="0.05"/>
<path d="M34.9356 100.43L92.4258 67.2754V93.292C92.4258 97.2344 89.2298 100.43 85.2875 100.43H34.9356Z" fill="#F0B323"/>
<path d="M34.9356 100.43L92.4258 67.2754V93.292C92.4258 97.2344 89.2298 100.43 85.2875 100.43H34.9356Z" fill="black" fill-opacity="0.05"/>
<path d="M86.0376 100.43L64.8458 81.4776C62.1361 79.0543 58.0382 79.0543 55.3286 81.4776L34.1367 100.43H86.0376Z" fill="#F0B323"/>
<path d="M93.2348 58.3776C91.372 54.1118 89.002 50.0843 87.6852 45.5933C87.2088 43.9695 86.8276 42.1428 87.4066 40.4985C88.0685 38.6212 90.5357 37.7642 92.3579 37.9695C93.3667 38.0827 93.4656 36.5165 92.4647 36.403C90.2851 36.1569 87.8973 37.0902 86.5427 38.8262C85.3128 40.4037 85.4381 42.6588 85.7984 44.5043C86.8139 49.6908 89.7475 54.3062 91.8342 59.0888C92.2402 60.0159 93.6389 59.3022 93.2348 58.3776Z" fill="#A0B2EC"/>
<path d="M93.7164 34.972C93.4873 35.0183 93.288 35.1267 93.1277 35.2759C93.0507 35.2798 92.9723 35.2869 92.8938 35.3039L91.7206 35.5436C90.8843 35.7142 90.3445 36.5316 90.5151 37.3679C90.6857 38.2041 91.5019 38.7449 92.3394 38.5733L93.5127 38.3336C93.5921 38.3178 93.6656 38.2946 93.7396 38.2671C93.9447 38.3402 94.171 38.3624 94.4001 38.3161C95.0662 38.1804 95.4946 37.5308 95.3589 36.8648L95.1687 35.9321C95.0318 35.267 94.3813 34.8373 93.7164 34.972Z" fill="#262939"/>
<path d="M110.046 55.2297C110.094 50.0447 110.873 44.8009 109.927 39.6508C109.573 37.7261 108.805 35.7623 107.14 34.6151C105.302 33.3483 102.456 33.5451 100.581 34.6059C99.7043 35.1017 100.409 36.506 101.291 36.0053C102.872 35.1114 105.291 34.9617 106.706 36.2606C107.976 37.4274 108.329 39.3575 108.551 40.985C109.196 45.6832 108.522 50.4146 108.479 55.1251C108.471 56.1318 110.037 56.2408 110.046 55.2297Z" fill="#A0B2EC"/>
<path d="M98.8666 33.7821C99.0958 33.7358 99.321 33.7567 99.5262 33.8299C99.599 33.8033 99.6737 33.7792 99.7531 33.7634L100.926 33.5237C101.763 33.353 102.58 33.8928 102.751 34.7291C102.921 35.5654 102.381 36.3827 101.544 36.5543L100.371 36.794C100.291 36.8099 100.214 36.8182 100.137 36.8221C99.9777 36.9703 99.7763 37.0784 99.5493 37.1249C98.8833 37.2607 98.2349 36.8312 98.098 36.1661L97.9078 35.2334C97.7721 34.5674 98.2006 33.9178 98.8666 33.7821Z" fill="#262939"/>
<path d="M108.032 55.2504C107.787 57.7853 107.813 60.3371 107.379 62.8526C107.008 64.9922 106.111 67.5233 103.858 68.2525C97.9145 70.174 96.1447 62.123 93.915 58.4513C93.1327 57.164 91.0261 58.2175 91.8157 59.5189C93.317 61.9901 94.1858 64.7804 95.8353 67.1744C97.6403 69.7938 100.278 71.2356 103.495 70.7546C109.903 69.7953 109.98 61.7992 110.274 56.8449C110.303 56.3664 110.337 55.8885 110.383 55.4107C110.527 53.8938 108.177 53.7435 108.032 55.2504Z" fill="#0C419A"/>
</g>
<defs>
<filter id="filter0_d_7498_79281" x="15.3378" y="14.626" width="89.4376" height="104.938" filterUnits="userSpaceOnUse" color-interpolation-filters="sRGB">
<feFlood flood-opacity="0" result="BackgroundImageFix"/>
<feColorMatrix in="SourceAlpha" type="matrix" values="0 0 0 0 0 0 0 0 0 0 0 0 0 0 0 0 0 0 127 0" result="hardAlpha"/>
<feOffset dy="7.47951"/>
<feGaussianBlur stdDeviation="7.47951"/>
<feColorMatrix type="matrix" values="0 0 0 0 0.0470588 0 0 0 0 0.254902 0 0 0 0 0.603922 0 0 0 0.1 0"/>
<feBlend mode="normal" in2="BackgroundImageFix" result="effect1_dropShadow_7498_79281"/>
<feBlend mode="normal" in="SourceGraphic" in2="effect1_dropShadow_7498_79281" result="shape"/>
</filter>
<filter id="filter1_d_7498_79281" x="15.4238" y="14.8408" width="90.0587" height="107.418" filterUnits="userSpaceOnUse" color-interpolation-filters="sRGB">
<feFlood flood-opacity="0" result="BackgroundImageFix"/>
<feColorMatrix in="SourceAlpha" type="matrix" values="0 0 0 0 0 0 0 0 0 0 0 0 0 0 0 0 0 0 127 0" result="hardAlpha"/>
<feOffset dy="7.47951"/>
<feGaussianBlur stdDeviation="7.47951"/>
<feColorMatrix type="matrix" values="0 0 0 0 0.0470588 0 0 0 0 0.254902 0 0 0 0 0.603922 0 0 0 0.1 0"/>
<feBlend mode="normal" in2="BackgroundImageFix" result="effect1_dropShadow_7498_79281"/>
<feBlend mode="normal" in="SourceGraphic" in2="effect1_dropShadow_7498_79281" result="shape"/>
</filter>
<clipPath id="clip0_7498_79281">
<rect width="124" height="124" fill="white"/>
</clipPath>
</defs>
</svg>
