<svg width="160" height="160" viewBox="0 0 160 160" fill="none" xmlns="http://www.w3.org/2000/svg">
<path d="M130.49 139.858C116.417 147.658 99.571 151.866 83.7237 151.864C52.5939 151.859 26.4118 124.893 24.9996 93.4133C24.3359 78.6025 30.7844 63.0285 43.7546 55.3844C53.3527 49.7264 64.4813 50.8689 73.9697 55.8165C81.9723 59.9899 88.2635 66.6682 95.8552 71.4564C107.461 78.7775 120.746 79.3258 133.16 84.2594C139.966 86.9637 147.268 91.9919 150.189 99.0939C152.962 105.835 152.422 113.866 149.448 120.534C145.694 128.95 138.499 135.419 130.49 139.858Z" fill="#A0B2EC" fill-opacity="0.16"/>
<path fill-rule="evenodd" clip-rule="evenodd" d="M38.743 28.9243C54.717 19.3207 71.5481 2.73805 88.5295 10.3308C106.106 18.1896 110.981 41.5645 110 60.7846C109.203 76.3908 96.173 87.1617 84.0988 97.1377C74.3885 105.161 63.1173 110.086 50.5298 109.921C36.5335 109.737 21.072 107.662 13.0919 96.2047C5.00362 84.5919 7.80347 69.0736 12.8539 55.8268C17.5133 43.6057 27.5175 35.673 38.743 28.9243Z" fill="#A0B2EC" fill-opacity="0.16"/>
<path d="M35.7969 87.0427C35.7969 81.9558 39.9206 77.832 45.0076 77.832H110.04C115.127 77.832 119.25 81.9558 119.25 87.0427V119.958C119.25 125.045 115.127 129.169 110.04 129.169H45.0076C39.9207 129.169 35.7969 125.045 35.7969 119.958V87.0427Z" fill="#F0B323"/>
<path d="M35.7969 87.0427C35.7969 81.9558 39.9206 77.832 45.0076 77.832H110.04C115.127 77.832 119.25 81.9558 119.25 87.0427V119.958C119.25 125.045 115.127 129.169 110.04 129.169H45.0076C39.9207 129.169 35.7969 125.045 35.7969 119.958V87.0427Z" fill="black" fill-opacity="0.2"/>
<g filter="url(#filter0_d_13928_131544)">
<path d="M45.5992 126.402H110.399C113.934 126.402 116.799 123.537 116.799 120.002V44.8023C116.799 41.2677 113.934 38.4023 110.399 38.4023H100.819H45.5992C42.0646 38.4023 39.1992 41.2677 39.1992 44.8023V120.002C39.1992 123.537 42.0646 126.402 45.5992 126.402Z" fill="white"/>
</g>
<rect x="47.1992" y="49.6016" width="30.4" height="6.4" rx="3.2" fill="#0C419A"/>
<rect x="47.1992" y="64.8008" width="61.6" height="4.8" rx="2.4" fill="#BDCCF8"/>
<rect x="47.1992" y="78.4023" width="61.6" height="4.8" rx="2.4" fill="#BDCCF8"/>
<rect x="47.1992" y="121.602" width="28" height="4.8" rx="2.4" fill="#BDCCF8"/>
<path d="M109.978 129.589L35.7969 86.8086V120.378C35.7969 125.465 39.9207 129.589 45.0076 129.589H109.978Z" fill="#F0B323"/>
<path d="M109.978 129.589L35.7969 86.8086V120.378C35.7969 125.465 39.9207 129.589 45.0076 129.589H109.978Z" fill="black" fill-opacity="0.05"/>
<path d="M45.073 129.589L119.254 86.8086V120.378C119.254 125.465 115.13 129.589 110.043 129.589H45.073Z" fill="#F0B323"/>
<path d="M45.073 129.589L119.254 86.8086V120.378C119.254 125.465 115.13 129.589 110.043 129.589H45.073Z" fill="black" fill-opacity="0.05"/>
<path d="M111.012 129.589L83.6675 105.134C80.1713 102.007 74.8836 102.007 71.3873 105.134L44.043 129.589H111.012Z" fill="#F0B323"/>
<path fill-rule="evenodd" clip-rule="evenodd" d="M35.3288 21.4051C34.7878 21.398 34.2451 21.41 33.7031 21.442L33.6325 20.2441C34.2038 20.2104 34.7752 20.1978 35.3445 20.2052L35.3288 21.4051ZM38.57 21.6743C38.037 21.5925 37.4976 21.5286 36.954 21.4834L37.0534 20.2875C37.6248 20.335 38.1918 20.4022 38.7519 20.4882L38.57 21.6743ZM32.0867 21.5978C31.5506 21.67 31.0174 21.7628 30.4894 21.8769L30.2358 20.7041C30.7956 20.583 31.36 20.4848 31.9265 20.4085L32.0867 21.5978ZM41.7415 22.3917C41.2289 22.2363 40.704 22.0977 40.1695 21.977L40.4339 20.8065C40.9962 20.9335 41.549 21.0794 42.0896 21.2434L41.7415 22.3917ZM28.923 22.2844C28.4076 22.442 27.8995 22.6218 27.4008 22.8245L26.9489 21.7129C27.4817 21.4963 28.0235 21.3046 28.572 21.1368L28.923 22.2844ZM44.0231 23.2295C43.778 23.1224 43.5285 23.0195 43.2749 22.9208L43.71 21.8025C43.9786 21.907 44.2433 22.0162 44.5035 22.1299C44.78 22.2507 45.0589 22.3827 45.3404 22.5249L44.7992 23.5959C44.5357 23.4628 44.2771 23.3405 44.0231 23.2295ZM25.9379 23.5008C25.4633 23.7484 24.9999 24.0195 24.5498 24.3147L23.8916 23.3114C24.376 22.9936 24.8738 22.7025 25.3829 22.4369L25.9379 23.5008ZM47.8024 25.401C47.2947 25.0582 46.8013 24.7393 46.3211 24.4476L46.9442 23.422C47.4439 23.7256 47.9537 24.0552 48.4739 24.4065L47.8024 25.401ZM23.2545 25.2633C22.8432 25.5987 22.4461 25.9581 22.0652 26.3422L21.2131 25.4973C21.6241 25.0827 22.0525 24.695 22.4961 24.3333L23.2545 25.2633ZM50.6915 27.467C50.2014 27.1028 49.7228 26.7515 49.2549 26.4154L49.9549 25.4407C50.4296 25.7817 50.9136 26.137 51.4073 26.5038L50.6915 27.467ZM20.9973 27.5393C20.6676 27.9505 20.3538 28.3849 20.0577 28.8434L19.0496 28.1924C19.368 27.6995 19.7057 27.2317 20.0612 26.7885L20.9973 27.5393ZM52.9108 29.1353C52.6446 28.9342 52.3817 28.7354 52.1208 28.5386L52.8435 27.5806C53.1038 27.777 53.3677 27.9764 53.6342 28.1779C53.8456 28.3377 54.0587 28.4988 54.273 28.6605L53.5499 29.6182C53.3346 29.4556 53.1217 29.2947 52.9108 29.1353ZM19.2526 30.2359C19.0112 30.7043 18.7862 31.1942 18.579 31.7064L17.4666 31.2563C17.6873 30.7108 17.9275 30.1876 18.1859 29.6862L19.2526 30.2359ZM56.4247 31.7628C55.9346 31.4038 55.4537 31.0471 54.9819 30.6946L55.7001 29.7333C56.1697 30.0841 56.6475 30.4385 57.1339 30.7948L56.4247 31.7628ZM59.3562 33.8494C58.8563 33.5054 58.3652 33.1608 57.8827 32.817L58.5791 31.8397C59.0569 32.1801 59.5425 32.521 60.0365 32.8609L59.3562 33.8494ZM17.8194 33.9812C17.8883 33.7251 17.9611 33.4736 18.0377 33.2266L16.8916 32.8711C16.8073 33.1429 16.7274 33.4196 16.6521 33.7011L16.644 33.7313L16.6391 33.7621C16.5904 34.069 16.5459 34.3729 16.5056 34.6738L17.6949 34.8333C17.7326 34.5521 17.7741 34.2681 17.8194 33.9812ZM62.3661 35.8341C61.8522 35.5109 61.3468 35.1846 60.8499 34.8566L61.5109 33.8551C62.001 34.1786 62.499 34.5 63.005 34.8182L62.3661 35.8341ZM65.4695 37.6795C64.9395 37.383 64.4179 37.0814 63.9046 36.7758L64.5184 35.7447C65.0229 36.045 65.5352 36.3412 66.0554 36.6323L65.4695 37.6795ZM126.016 37.2367C125.804 37.4397 125.591 37.6391 125.377 37.8352L124.566 36.9512C124.773 36.7607 124.98 36.5669 125.187 36.3695L126.016 37.2367ZM17.5054 36.5818C17.4563 37.1801 17.425 37.7644 17.4106 38.3351L16.2109 38.3047C16.2259 37.7109 16.2585 37.104 16.3094 36.4837L17.5054 36.5818ZM68.6745 39.3518C68.1275 39.0873 67.5888 38.816 67.0583 38.5389L67.6137 37.4752C68.1337 37.7468 68.6614 38.0125 69.1969 38.2714L68.6745 39.3518ZM124.083 38.9752C123.636 39.3527 123.186 39.7157 122.734 40.0648L122.001 39.115C122.439 38.7766 122.875 38.4245 123.309 38.0583L124.083 38.9752ZM71.1474 40.4734C70.8681 40.3551 70.5909 40.2349 70.3158 40.1128L70.8025 39.0159C71.0716 39.1353 71.3426 39.2529 71.6155 39.3685C71.8703 39.4765 72.1297 39.586 72.3933 39.6969L71.928 40.803C71.6632 40.6917 71.403 40.5817 71.1474 40.4734ZM17.4198 40.0872C17.4418 40.6843 17.4831 41.2653 17.5425 41.8308L16.3491 41.9561C16.2868 41.3632 16.2436 40.7551 16.2207 40.1314L17.4198 40.0872ZM121.336 41.0949C120.858 41.4308 120.377 41.7517 119.895 42.0582L119.251 41.0452C119.718 40.7487 120.183 40.4381 120.646 40.1129L121.336 41.0949ZM75.0995 42.1056C74.5569 41.8893 74.0275 41.6745 73.5124 41.4626L73.9688 40.3528C74.4805 40.5632 75.0057 40.7764 75.5438 40.9908L75.0995 42.1056ZM78.3005 43.3308C77.7548 43.1313 77.2192 42.9303 76.6943 42.7292L77.1237 41.6086C77.6433 41.8077 78.1731 42.0065 78.7126 42.2038L78.3005 43.3308ZM118.411 42.9519C117.904 43.2407 117.396 43.5142 116.886 43.7732L116.343 42.7031C116.836 42.4529 117.327 42.1886 117.817 41.9095L118.411 42.9519ZM81.5464 44.4539C80.9954 44.2747 80.4524 44.0919 79.9178 43.9068L80.3105 42.7729C80.8384 42.9557 81.3743 43.136 81.9177 43.3128L81.5464 44.4539ZM115.318 44.5213C114.785 44.7596 114.25 44.9827 113.715 45.1911L113.28 44.0728C113.797 43.8715 114.313 43.656 114.828 43.4258L115.318 44.5213ZM17.7873 43.5561C17.8926 44.1413 18.0182 44.7083 18.1626 45.2579L17.002 45.5628C16.8495 44.9825 16.7171 44.3846 16.6062 43.7687L17.7873 43.5561ZM84.838 45.4497C84.281 45.2944 83.7303 45.1339 83.1864 44.9692L83.5342 43.8208C84.07 43.983 84.6122 44.141 85.1603 44.2938L84.838 45.4497ZM112.082 45.7805C111.53 45.9647 110.977 46.134 110.423 46.289L110.099 45.1335C110.635 44.9836 111.169 44.82 111.702 44.6422L112.082 45.7805ZM88.1754 46.2942C87.6121 46.1667 87.0538 46.0324 86.501 45.8924L86.7957 44.7292C87.339 44.8668 87.8874 44.9987 88.4404 45.1239L88.1754 46.2942ZM91.5566 46.9627C90.9871 46.867 90.4217 46.7632 89.8608 46.6521L90.0939 45.475C90.6439 45.5839 91.1979 45.6856 91.7555 45.7793L91.5566 46.9627ZM108.742 46.7165C108.176 46.8462 107.61 46.9617 107.044 47.0637L106.831 45.8827C107.379 45.784 107.927 45.6722 108.474 45.5468L108.742 46.7165ZM94.9757 47.4286C94.4012 47.3692 93.8298 47.3003 93.2619 47.2227L93.4243 46.0337C93.9797 46.1096 94.5381 46.1769 95.0992 46.235L94.9757 47.4286ZM105.332 47.332C104.757 47.4088 104.183 47.4724 103.61 47.5235L103.504 46.3282C104.06 46.2787 104.616 46.217 105.173 46.1426L105.332 47.332ZM98.4229 47.664C97.8451 47.6455 97.2696 47.6162 96.6966 47.5769L96.7788 46.3797C97.3376 46.4181 97.8986 46.4466 98.4613 46.4647L98.4229 47.664ZM101.883 47.6407C101.304 47.6677 100.728 47.6828 100.152 47.6865L100.145 46.4865C100.704 46.4829 101.265 46.4683 101.827 46.442L101.883 47.6407ZM18.6749 46.9234C18.8719 47.4796 19.0891 48.0162 19.3247 48.5339L18.2324 49.0309C17.9826 48.4818 17.7524 47.9131 17.5437 47.3241L18.6749 46.9234ZM20.1125 50.0809C20.402 50.5922 20.7102 51.083 21.035 51.5542L20.0469 52.2352C19.7025 51.7354 19.3755 51.2147 19.0683 50.6722L20.1125 50.0809ZM22.0814 52.94C22.4543 53.3923 22.843 53.824 23.2449 54.2363L22.3856 55.0739C21.9613 54.6387 21.5504 54.1822 21.1556 53.7035L22.0814 52.94ZM24.5093 55.4343C24.9509 55.8212 25.4039 56.188 25.8655 56.5358L25.1434 57.4942C24.6592 57.1294 24.1833 56.744 23.7185 56.3368L24.5093 55.4343ZM27.298 57.539C27.7926 57.8609 28.2931 58.1631 28.7965 58.4469L28.2073 59.4923C27.6828 59.1966 27.1603 58.8812 26.6434 58.5447L27.298 57.539ZM30.3516 59.2628C30.8869 59.524 31.4214 59.7655 31.9513 59.9887L31.4856 61.0946C30.9363 60.8633 30.3816 60.6127 29.8254 60.3413L30.3516 59.2628ZM33.5885 60.6281C34.1585 60.8339 34.7176 61.0188 35.2605 61.1847L34.9099 62.3323C34.3488 62.1609 33.7707 61.9697 33.181 61.7568L33.5885 60.6281ZM36.9566 61.6576C37.2492 61.7315 37.5343 61.7995 37.8108 61.862L37.5461 63.0325C37.2601 62.9678 36.9653 62.8974 36.6628 62.8211L36.9566 61.6576Z" fill="#0C419A"/>
<path d="M123.606 36.6094L120.703 45.8572L126.237 38.2908L123.606 36.6094Z" fill="#A0B2EC"/>
<path d="M108 33.8088L142.656 11.2031L135.217 44.738L123.604 36.6112L120.792 45.5787L116.346 33.8088H108Z" fill="#BDCCF8"/>
<path d="M116.348 33.8095L142.476 11.3906L123.605 36.6119L120.702 45.8597L116.348 33.8095Z" fill="#E7ECFA"/>
<defs>
<filter id="filter0_d_13928_131544" x="27.232" y="32.4187" width="101.536" height="111.934" filterUnits="userSpaceOnUse" color-interpolation-filters="sRGB">
<feFlood flood-opacity="0" result="BackgroundImageFix"/>
<feColorMatrix in="SourceAlpha" type="matrix" values="0 0 0 0 0 0 0 0 0 0 0 0 0 0 0 0 0 0 127 0" result="hardAlpha"/>
<feOffset dy="5.98361"/>
<feGaussianBlur stdDeviation="5.98361"/>
<feColorMatrix type="matrix" values="0 0 0 0 0.0470588 0 0 0 0 0.254902 0 0 0 0 0.603922 0 0 0 0.1 0"/>
<feBlend mode="normal" in2="BackgroundImageFix" result="effect1_dropShadow_13928_131544"/>
<feBlend mode="normal" in="SourceGraphic" in2="effect1_dropShadow_13928_131544" result="shape"/>
</filter>
</defs>
</svg>
