<svg width="180" height="181" viewBox="0 0 180 181" fill="none" xmlns="http://www.w3.org/2000/svg">
<path d="M146.802 157.805C130.97 166.575 112.017 171.306 94.1892 171.304C59.1681 171.298 29.7132 140.978 28.1246 105.583C27.3779 88.9299 34.6324 71.4187 49.2239 62.8237C60.0218 56.4619 72.5415 57.7465 83.2159 63.3096C92.2188 68.002 99.2965 75.511 107.837 80.8949C120.894 89.1267 135.839 89.7432 149.805 95.2904C157.462 98.3311 165.676 103.985 168.962 111.97C172.082 119.55 171.475 128.58 168.129 136.077C163.906 145.54 155.812 152.814 146.802 157.805Z" fill="#A0B2EC" fill-opacity="0.16"/>
<path fill-rule="evenodd" clip-rule="evenodd" d="M43.5859 33.0751C61.5567 22.277 80.4917 3.63161 99.5957 12.1688C119.369 21.0052 124.853 47.2876 123.75 68.8986C122.854 86.446 108.195 98.5566 94.6111 109.774C83.687 118.795 71.007 124.332 56.846 124.146C41.1002 123.94 23.706 121.607 14.7283 108.725C5.62907 95.6672 8.7789 78.2186 14.4606 63.3241C19.7025 49.5828 30.9572 40.6634 43.5859 33.0751Z" fill="#A0B2EC" fill-opacity="0.16"/>
<path d="M40.2739 98.415C40.2739 92.6953 44.9132 88.0586 50.636 88.0586H123.797C129.52 88.0586 134.159 92.6953 134.159 98.415V135.425C134.159 141.144 129.52 145.781 123.797 145.781H50.636C44.9132 145.781 40.2739 141.144 40.2739 135.425V98.415Z" fill="#F0B323"/>
<path d="M40.2739 98.415C40.2739 92.6953 44.9132 88.0586 50.636 88.0586H123.797C129.52 88.0586 134.159 92.6953 134.159 98.415V135.425C134.159 141.144 129.52 145.781 123.797 145.781H50.636C44.9132 145.781 40.2739 141.144 40.2739 135.425V98.415Z" fill="black" fill-opacity="0.2"/>
<g filter="url(#filter0_d_8583_1635)">
<path d="M51.3025 142.673H124.203C128.179 142.673 131.403 139.451 131.403 135.477V50.9227C131.403 46.9484 128.179 43.7266 124.203 43.7266H113.425H51.3025C47.3261 43.7266 44.1025 46.9484 44.1025 50.9227V135.477C44.1025 139.451 47.3261 142.673 51.3025 142.673Z" fill="white"/>
</g>
<path d="M53.1025 59.9184C53.1025 57.9312 54.7143 56.3203 56.7025 56.3203H83.7025C85.6908 56.3203 87.3025 57.9312 87.3025 59.9184C87.3025 61.9055 85.6908 63.5164 83.7025 63.5164H56.7025C54.7143 63.5164 53.1025 61.9055 53.1025 59.9184Z" fill="#C7414F"/>
<path d="M53.1025 76.1087C53.1025 74.6183 54.3114 73.4102 55.8025 73.4102H119.703C121.194 73.4102 122.403 74.6183 122.403 76.1087C122.403 77.5991 121.194 78.8072 119.703 78.8072H55.8025C54.3114 78.8072 53.1025 77.5991 53.1025 76.1087Z" fill="#BDCCF8"/>
<path d="M53.1025 91.4017C53.1025 89.9113 54.3114 88.7031 55.8025 88.7031H119.703C121.194 88.7031 122.403 89.9113 122.403 91.4017C122.403 92.892 121.194 94.1002 119.703 94.1002H55.8025C54.3114 94.1002 53.1025 92.892 53.1025 91.4017Z" fill="#BDCCF8"/>
<path d="M53.1025 139.976C53.1025 138.486 54.3114 137.277 55.8025 137.277H81.9025C83.3937 137.277 84.6025 138.486 84.6025 139.976C84.6025 141.466 83.3937 142.674 81.9025 142.674H55.8025C54.3114 142.674 53.1025 141.466 53.1025 139.976Z" fill="#BDCCF8"/>
<path d="M123.727 146.254L40.2739 98.1523V135.898C40.2739 141.618 44.9132 146.254 50.636 146.254H123.727Z" fill="#F0B323"/>
<path d="M123.727 146.254L40.2739 98.1523V135.898C40.2739 141.618 44.9132 146.254 50.636 146.254H123.727Z" fill="black" fill-opacity="0.05"/>
<path d="M50.709 146.254L134.163 98.1523V135.898C134.163 141.618 129.523 146.254 123.801 146.254H50.709Z" fill="#F0B323"/>
<path d="M50.709 146.254L134.163 98.1523V135.898C134.163 141.618 129.523 146.254 123.801 146.254H50.709Z" fill="black" fill-opacity="0.05"/>
<path d="M124.892 146.255L94.1294 118.758C90.1961 115.242 84.2475 115.242 80.3141 118.758L49.5518 146.255H124.892Z" fill="#F0B323"/>
<path d="M103.42 126.401C94.9844 134.832 81.3081 134.832 72.8727 126.401C64.4374 117.97 64.4374 104.301 72.8727 95.8707C81.3081 87.4399 94.9844 87.4399 103.42 95.8707C111.855 104.301 111.855 117.97 103.42 126.401Z" fill="#C7414F"/>
<path fill-rule="evenodd" clip-rule="evenodd" d="M106.474 129.455C96.3521 139.572 79.9404 139.572 69.818 129.455C59.6956 119.338 59.6956 102.935 69.818 92.8183C79.9404 82.7014 96.3521 82.7014 106.474 92.8183C116.597 102.935 116.597 119.338 106.474 129.455ZM72.8727 126.402C81.3081 134.832 94.9844 134.832 103.42 126.402C111.855 117.971 111.855 104.302 103.42 95.8713C94.9844 87.4406 81.3081 87.4406 72.8727 95.8713C64.4374 104.302 64.4374 117.971 72.8727 126.402Z" fill="white"/>
<rect width="3.59902" height="21.5941" rx="1.79951" transform="matrix(0.707299 0.706915 -0.707299 0.706915 94.4456 102.141)" fill="white"/>
<rect width="3.59902" height="21.5941" rx="1.79951" transform="matrix(-0.707299 0.706915 -0.707299 -0.706915 97.145 117.434)" fill="white"/>
<defs>
<filter id="filter0_d_8583_1635" x="29.1435" y="36.247" width="117.218" height="128.863" filterUnits="userSpaceOnUse" color-interpolation-filters="sRGB">
<feFlood flood-opacity="0" result="BackgroundImageFix"/>
<feColorMatrix in="SourceAlpha" type="matrix" values="0 0 0 0 0 0 0 0 0 0 0 0 0 0 0 0 0 0 127 0" result="hardAlpha"/>
<feOffset dy="7.47951"/>
<feGaussianBlur stdDeviation="7.47951"/>
<feColorMatrix type="matrix" values="0 0 0 0 0.0470588 0 0 0 0 0.254902 0 0 0 0 0.603922 0 0 0 0.1 0"/>
<feBlend mode="normal" in2="BackgroundImageFix" result="effect1_dropShadow_8583_1635"/>
<feBlend mode="normal" in="SourceGraphic" in2="effect1_dropShadow_8583_1635" result="shape"/>
</filter>
</defs>
</svg>
