<svg width="160" height="160" viewBox="0 0 160 160" fill="none" xmlns="http://www.w3.org/2000/svg">
<path d="M130.049 103.477C114.864 113.231 96.3119 119.17 78.5698 120.329C43.7178 122.604 12.4323 94.3645 8.54801 59.2631C6.72118 42.7483 12.8011 24.859 26.7627 15.3602C37.0943 8.32959 49.6371 8.79213 60.6218 13.6303C69.8865 17.7113 77.4186 24.719 86.2683 29.5178C99.7977 36.8551 114.71 36.4953 128.97 41.1033C136.788 43.6291 145.33 48.7175 149.12 56.4459C152.718 63.782 152.701 72.803 149.859 80.4775C146.272 90.1639 138.691 97.9263 130.049 103.477Z" fill="#A0B2EC" fill-opacity="0.16"/>
<path d="M130.099 66.6481C125.235 60.6533 117.443 57.2651 109.444 56.573C104.366 56.134 99.0396 56.7419 94.3975 59.0361C86.7872 62.7981 82.1129 70.3755 76.1876 76.3747C69.103 83.5484 60.0608 88.5678 52.1357 94.8655C44.2118 101.163 37.0299 109.562 36.2708 119.245C35.8183 125 37.7385 130.682 40.9813 135.364C47.2992 144.487 58.5327 149.841 70.0959 150.468C102.808 152.242 132.67 122.025 135.924 91.7868C136.874 82.9544 135.667 73.5104 130.099 66.6481Z" fill="#A0B2EC" fill-opacity="0.16"/>
<g filter="url(#filter0_d_29873_155064)">
<path d="M45.4879 125.323H109.488C113.023 125.323 115.888 122.458 115.888 118.923V45.9149C115.888 44.2528 115.241 42.6559 114.085 41.462L103.438 30.4706C102.232 29.226 100.574 28.5234 98.841 28.5234H45.4879C41.9533 28.5234 39.0879 31.3888 39.0879 34.9234V118.923C39.0879 122.458 41.9533 125.323 45.4879 125.323Z" fill="white"/>
</g>
<g filter="url(#filter1_d_29873_155064)">
<path d="M45.5963 140.801H110.396C113.931 140.801 116.796 137.592 116.796 133.633V35.9688C116.796 32.01 113.931 28.8008 110.396 28.8008H45.5963C42.0617 28.8008 39.1963 32.01 39.1963 35.9688V133.633C39.1963 137.592 42.0617 140.801 45.5963 140.801Z" fill="white"/>
</g>
<rect x="84.4402" y="47.6433" width="23.9118" height="5.51184" rx="2.75592" fill="#0C419A" stroke="#0C419A" stroke-width="0.888156"/>
<rect x="83.9961" y="61.6016" width="24.8" height="4.8" rx="2.4" fill="#BDCCF8"/>
<circle cx="63.1953" cy="56.8008" r="16" fill="#F9FAFF"/>
<path d="M58.2994 51.8308C58.2994 49.4192 60.3062 47.4533 62.7953 47.4533C65.2844 47.4533 67.2912 49.4192 67.2912 51.8308C67.2912 54.2424 65.2844 56.2082 62.7953 56.2082C60.3062 56.2082 58.2994 54.2424 58.2994 51.8308ZM62.7953 54.8639C64.5036 54.8639 65.8994 53.5119 65.8994 51.8308C65.8994 50.1497 64.5036 48.7977 62.7953 48.7977C61.087 48.7977 59.6912 50.1497 59.6912 51.8308C59.6912 53.5119 61.087 54.8639 62.7953 54.8639ZM55.5096 63.8852C55.7156 62.3262 56.4449 60.8662 57.5987 59.7411C58.9759 58.3983 60.845 57.6428 62.7953 57.6428C64.7456 57.6428 66.6148 58.3983 67.9919 59.7411C69.1458 60.8662 69.875 62.3262 70.0811 63.8852C70.1267 64.2305 69.8401 64.5451 69.4453 64.5451C69.0697 64.5451 68.7373 64.2323 68.6625 63.8098C68.4544 62.6338 67.8788 61.5409 67.0032 60.6872C65.8862 59.598 64.3724 58.9872 62.7953 58.9872C61.2182 58.9872 59.7045 59.598 58.5874 60.6872C57.7119 61.5409 57.1362 62.6338 56.9281 63.8098C56.8533 64.2323 56.5209 64.5451 56.1453 64.5451C55.7505 64.5451 55.4639 64.2305 55.5096 63.8852Z" fill="#0C419A" stroke="#0C419A" stroke-width="0.508258"/>
<rect x="47.6394" y="81.2449" width="8.71184" height="5.51184" rx="2.75592" fill="#0C419A" stroke="#0C419A" stroke-width="0.888156"/>
<rect x="47.6394" y="110.046" width="8.71184" height="5.51184" rx="2.75592" fill="#0C419A" stroke="#0C419A" stroke-width="0.888156"/>
<rect x="47.6394" y="124.444" width="8.71184" height="5.51184" rx="2.75592" fill="#0C419A" stroke="#0C419A" stroke-width="0.888156"/>
<rect x="47.6394" y="95.6433" width="8.71184" height="5.51184" rx="2.75592" fill="#0C419A" stroke="#0C419A" stroke-width="0.888156"/>
<rect x="60.7949" y="81.6016" width="48" height="4.8" rx="2.4" fill="#BDCCF8"/>
<rect x="60.7949" y="110.402" width="48" height="4.8" rx="2.4" fill="#BDCCF8"/>
<rect x="60.7949" y="124.801" width="24.8" height="4.8" rx="2.4" fill="#BDCCF8"/>
<rect x="60.7949" y="96" width="48" height="4.8" rx="2.4" fill="#BDCCF8"/>
<defs>
<filter id="filter0_d_29873_155064" x="27.1207" y="22.5398" width="100.734" height="120.735" filterUnits="userSpaceOnUse" color-interpolation-filters="sRGB">
<feFlood flood-opacity="0" result="BackgroundImageFix"/>
<feColorMatrix in="SourceAlpha" type="matrix" values="0 0 0 0 0 0 0 0 0 0 0 0 0 0 0 0 0 0 127 0" result="hardAlpha"/>
<feOffset dy="5.98361"/>
<feGaussianBlur stdDeviation="5.98361"/>
<feColorMatrix type="matrix" values="0 0 0 0 0.0470588 0 0 0 0 0.254902 0 0 0 0 0.603922 0 0 0 0.1 0"/>
<feBlend mode="normal" in2="BackgroundImageFix" result="effect1_dropShadow_29873_155064"/>
<feBlend mode="normal" in="SourceGraphic" in2="effect1_dropShadow_29873_155064" result="shape"/>
</filter>
<filter id="filter1_d_29873_155064" x="27.2291" y="22.8172" width="101.534" height="135.934" filterUnits="userSpaceOnUse" color-interpolation-filters="sRGB">
<feFlood flood-opacity="0" result="BackgroundImageFix"/>
<feColorMatrix in="SourceAlpha" type="matrix" values="0 0 0 0 0 0 0 0 0 0 0 0 0 0 0 0 0 0 127 0" result="hardAlpha"/>
<feOffset dy="5.98361"/>
<feGaussianBlur stdDeviation="5.98361"/>
<feColorMatrix type="matrix" values="0 0 0 0 0.0470588 0 0 0 0 0.254902 0 0 0 0 0.603922 0 0 0 0.1 0"/>
<feBlend mode="normal" in2="BackgroundImageFix" result="effect1_dropShadow_29873_155064"/>
<feBlend mode="normal" in="SourceGraphic" in2="effect1_dropShadow_29873_155064" result="shape"/>
</filter>
</defs>
</svg>
