<svg width="64" height="64" viewBox="0 0 64 64" fill="none" xmlns="http://www.w3.org/2000/svg">
<path d="M52.0188 41.3883C45.9448 45.2899 38.5238 47.6657 31.4269 48.1293C17.4861 49.0391 4.97194 37.7435 3.41823 23.7029C2.6875 17.097 5.11947 9.94126 10.7041 6.14175C14.8367 3.32949 19.8538 3.51451 24.2478 5.44977C27.9536 7.08217 30.9665 9.88527 34.5063 11.8048C39.9181 14.7397 45.8832 14.5958 51.5872 16.439C54.7143 17.4493 58.1311 19.4847 59.647 22.576C61.0863 25.5105 61.0795 29.1188 59.9427 32.1887C58.508 36.0632 55.4753 39.1682 52.0188 41.3883Z" fill="#A0B2EC" fill-opacity="0.16"/>
<path d="M52.0375 26.6592C50.0919 24.2613 46.9751 22.9061 43.7754 22.6292C41.7442 22.4536 39.6137 22.6968 37.7568 23.6145C34.7128 25.1192 32.843 28.1502 30.4729 30.5499C27.6391 33.4194 24.0222 35.4271 20.8521 37.9462C17.6826 40.465 14.8098 43.8247 14.5062 47.6982C14.3252 50 15.0932 52.2727 16.3904 54.1456C18.9175 57.795 23.4109 59.9365 28.0362 60.1872C41.1212 60.8966 53.0657 48.8098 54.3673 36.7147C54.7473 33.1818 54.2647 29.4042 52.0375 26.6592Z" fill="#A0B2EC" fill-opacity="0.16"/>
<path d="M32.0113 51.1308C30.4019 49.8644 28.822 48.6437 27.2669 47.3933C23.1471 44.0818 19.0914 40.6931 15.4493 36.8813C13.9652 35.3276 12.5057 33.6967 11.363 31.9032C9.3954 28.8118 9.19114 25.3695 10.1789 21.9174C11.364 17.7717 13.98 14.7743 18.2478 13.3594C22.8392 11.8365 27.9112 13.5021 30.9781 17.4467C31.3294 17.8985 31.6403 18.3801 32.0251 18.926C32.184 18.6892 32.3211 18.4851 32.4593 18.281C34.3361 15.4967 36.8899 13.624 40.2893 13.0176C44.2927 12.3022 47.7207 13.5031 50.5656 16.2636C54.4042 19.9882 55.5123 26.2554 53.2003 31.0293C52.2895 32.909 50.8942 34.4676 49.4664 35.9856C45.3022 40.4137 40.6258 44.3038 35.8755 48.1126C34.6233 49.1154 33.3454 50.0894 32.0113 51.1308Z" fill="#D81E7E"/>
<path opacity="0.2" fill-rule="evenodd" clip-rule="evenodd" d="M31.9835 24.3205C32.3007 24.3125 32.5759 24.5381 32.6303 24.8507L34.1897 33.8172L35.2549 31.4204C35.3613 31.1811 35.6027 31.0307 35.8644 31.0408C36.1262 31.0509 36.3553 31.2195 36.4429 31.4663L37.7821 35.2404L39.1515 33.2389C39.2708 33.0646 39.4685 32.9603 39.6797 32.9603H42.8797C43.2332 32.9603 43.5197 33.2469 43.5197 33.6003C43.5197 33.9538 43.2332 34.2403 42.8797 34.2403H40.0173L38.1279 37.0017C37.9919 37.2005 37.7559 37.3061 37.5171 37.275C37.2782 37.2438 37.0771 37.0813 36.9966 36.8543L35.773 33.4062L34.5046 36.2602C34.3901 36.5177 34.1208 36.6701 33.8412 36.6355C33.5616 36.6009 33.3375 36.3875 33.2892 36.11L32.1103 29.3312L30.875 39.438C30.8368 39.7502 30.5774 39.9885 30.263 39.9999C29.9486 40.0113 29.6725 39.7925 29.6118 39.4838L28.0537 31.5635L26.9722 33.7265C26.8637 33.9434 26.6421 34.0803 26.3997 34.0803H23.3597C23.0063 34.0803 22.7197 33.7938 22.7197 33.4403C22.7197 33.0869 23.0063 32.8003 23.3597 32.8003H26.0042L27.7473 29.3141C27.8697 29.0692 28.1344 28.9293 28.4057 28.9661C28.677 29.0029 28.8948 29.2081 28.9477 29.4768L30.092 35.2937L31.3645 24.8827C31.4029 24.5677 31.6664 24.3285 31.9835 24.3205Z" fill="#262939"/>
<path fill-rule="evenodd" clip-rule="evenodd" d="M31.6652 24.0002C31.9824 23.9922 32.2575 24.2178 32.3119 24.5303L33.8713 33.4968L34.9365 31.1001C35.0429 30.8607 35.2844 30.7104 35.5461 30.7205C35.8078 30.7306 36.0369 30.8991 36.1245 31.146L37.4637 34.9201L38.8332 32.9186C38.9525 32.7443 39.1501 32.64 39.3614 32.64H42.5614C42.9148 32.64 43.2014 32.9265 43.2014 33.28C43.2014 33.6335 42.9148 33.92 42.5614 33.92H39.6989L37.8096 36.6814C37.6736 36.8802 37.4375 36.9857 37.1987 36.9546C36.9599 36.9235 36.7587 36.761 36.6782 36.534L35.4547 33.0859L34.1862 35.9399C34.0718 36.1974 33.8024 36.3497 33.5228 36.3152C33.2432 36.2806 33.0191 36.0672 32.9708 35.7897L31.7919 29.0109L30.5566 39.1176C30.5185 39.4299 30.259 39.6682 29.9446 39.6796C29.6302 39.691 29.3541 39.4722 29.2934 39.1635L27.7353 31.2432L26.6538 33.4062C26.5454 33.623 26.3238 33.76 26.0814 33.76H23.0414C22.6879 33.76 22.4014 33.4735 22.4014 33.12C22.4014 32.7665 22.6879 32.48 23.0414 32.48H25.6858L27.4289 28.9938C27.5514 28.7489 27.816 28.609 28.0873 28.6458C28.3586 28.6826 28.5765 28.8878 28.6293 29.1565L29.7736 34.9734L31.0461 24.5624C31.0846 24.2474 31.348 24.0082 31.6652 24.0002Z" fill="white"/>
<path fill-rule="evenodd" clip-rule="evenodd" d="M13.3722 32.3259C12.8717 30.9421 12.5988 29.4494 12.5988 27.893C12.5988 20.6921 18.4401 14.8545 25.6458 14.8545C25.7624 14.8545 25.8786 14.8561 25.9944 14.8591C24.8279 14.4494 23.5733 14.2266 22.2666 14.2266C16.0593 14.2266 11.0273 19.2553 11.0273 25.4585C11.0273 28.0449 11.9021 30.4272 13.3722 32.3259Z" fill="white" fill-opacity="0.3"/>
<path d="M51.6962 43.7377L57.24 49.1853C57.6142 49.5531 57.6168 50.1554 57.2458 50.5264L56.3099 51.4623C55.9463 51.8259 55.3586 51.8317 54.9879 51.4754L49.2948 46.0021L50.5603 45.1518C50.6469 45.0936 50.7233 45.0215 50.7863 44.9384L51.6962 43.7377Z" fill="#0C419A"/>
<path fill-rule="evenodd" clip-rule="evenodd" d="M55.5466 37.0804C55.5466 44.1125 49.8459 49.8132 42.8138 49.8132C35.7817 49.8132 30.0811 44.1125 30.0811 37.0804C30.0811 30.0483 35.7817 24.3477 42.8138 24.3477C49.8459 24.3477 55.5466 30.0483 55.5466 37.0804ZM53.8116 37.079C53.8116 43.152 48.8884 48.0752 42.8154 48.0752C36.7423 48.0752 31.8192 43.152 31.8192 37.079C31.8192 31.0059 36.7423 26.0828 42.8154 26.0828C48.8884 26.0828 53.8116 31.0059 53.8116 37.079Z" fill="#0C419A"/>
<path d="M42.8732 25.4247C49.3413 25.4247 54.5851 30.6683 54.5851 37.1362C54.5851 43.6041 49.3413 48.8477 42.8732 48.8477C36.4059 48.8477 31.1621 43.6041 31.1621 37.1362C31.1621 30.6683 36.4059 25.4247 42.8732 25.4247Z" fill="white" fill-opacity="0.5"/>
<path d="M42.8136 26.503C48.6538 26.503 53.3886 31.2376 53.3886 37.0777C53.3886 42.9177 48.6538 47.6523 42.8136 47.6523C36.974 47.6523 32.2393 42.9177 32.2393 37.0777C32.2393 31.2376 36.974 26.503 42.8136 26.503Z" fill="#A0B2EC" fill-opacity="0.4"/>
<path opacity="0.6" fill-rule="evenodd" clip-rule="evenodd" d="M35.5835 35.745C34.5757 39.0109 35.3431 42.4433 37.4479 44.7212C34.2455 42.4844 32.7452 38.4672 33.6959 34.6693L35.5835 35.745ZM36.4223 33.7852C38.7452 29.6233 43.6427 27.7578 47.7336 29.6139C49.5318 30.4298 50.8915 31.8367 51.7146 33.5387C50.8554 31.2994 49.1512 29.385 46.7972 28.3169C42.1679 26.2165 36.731 28.1619 34.4477 32.6598L36.4223 33.7852Z" fill="white"/>
</svg>
