<svg width="200" height="200" viewBox="0 0 200 200" fill="none" xmlns="http://www.w3.org/2000/svg">
<path d="M162.561 129.348C143.58 141.54 120.389 148.965 98.2118 150.413C54.6467 153.256 15.5399 117.958 10.6845 74.0809C8.40099 53.4373 16.0009 31.0757 33.4529 19.2023C46.3674 10.4139 62.0458 10.9921 75.7768 17.0398C87.3577 22.141 96.7728 30.9008 107.835 36.8992C124.747 46.0709 143.387 45.6211 161.213 51.381C170.985 54.5383 181.662 60.8988 186.399 70.5594C190.897 79.7295 190.876 91.0057 187.324 100.599C182.84 112.707 173.363 122.41 162.561 129.348Z" fill="#A0B2EC" fill-opacity="0.16"/>
<path d="M162.624 83.3062C156.544 75.8128 146.804 71.5775 136.805 70.7124C130.457 70.1636 123.799 70.9235 117.997 73.7912C108.484 78.4937 102.641 87.9655 95.2343 95.4645C86.3785 104.432 75.0757 110.706 65.1694 118.578C55.2645 126.449 46.2872 136.948 45.3382 149.053C44.7726 156.246 47.1728 163.348 51.2263 169.201C59.1237 180.605 73.1656 187.298 87.6196 188.081C128.51 190.298 165.837 152.527 169.904 114.73C171.092 103.689 169.584 91.8841 162.624 83.3062Z" fill="#A0B2EC" fill-opacity="0.16"/>
<path d="M100.033 159.781C95.004 155.824 90.067 152.009 85.2072 148.101C72.3328 137.753 59.6589 127.163 48.2771 115.252C43.6393 110.396 39.0785 105.3 35.5076 99.6952C29.3588 90.0343 28.7205 79.2774 31.8072 68.4895C35.5107 55.534 43.6855 46.1674 57.0224 41.7457C71.3707 36.9865 87.2208 42.1916 96.8049 54.5184C97.9026 55.9304 98.874 57.4352 100.077 59.1414C100.573 58.4013 101.002 57.7635 101.433 57.1256C107.299 48.4247 115.279 42.5724 125.902 40.6774C138.413 38.4418 149.126 42.1947 158.016 50.8213C170.011 62.4607 173.474 82.0456 166.249 96.9641C163.403 102.838 159.043 107.709 154.581 112.452C141.567 126.29 126.954 138.447 112.109 150.349C108.196 153.483 104.203 156.527 100.033 159.781Z" fill="#E11A81"/>
<path fill-rule="evenodd" clip-rule="evenodd" d="M39.7836 99.0109C38.2213 94.6889 37.3697 90.0271 37.3697 85.1666C37.3697 62.6637 55.6239 44.4214 78.1416 44.4214C78.5086 44.4214 78.8745 44.4263 79.2391 44.4359C75.592 43.1542 71.6693 42.457 67.5837 42.457C48.186 42.457 32.4609 58.1718 32.4609 77.5569C32.4609 85.6365 35.1927 93.0786 39.7836 99.0109Z" fill="white" fill-opacity="0.3"/>
<path opacity="0.2" fill-rule="evenodd" clip-rule="evenodd" d="M99.9494 76.0006C100.941 75.9756 101.801 76.6805 101.97 77.6573L106.844 105.678L110.172 98.1877C110.505 97.4398 111.259 96.9699 112.077 97.0015C112.895 97.0331 113.611 97.5598 113.885 98.3312L118.07 110.125L122.349 103.871C122.722 103.326 123.34 103 124 103H134C135.105 103 136 103.895 136 105C136 106.105 135.105 107 134 107H125.055L119.151 115.629C118.726 116.25 117.988 116.58 117.242 116.483C116.495 116.386 115.867 115.878 115.615 115.169L111.792 104.393L107.828 113.312C107.47 114.117 106.628 114.593 105.755 114.485C104.881 114.377 104.18 113.71 104.03 112.843L100.345 91.659L96.4852 123.243C96.366 124.219 95.5551 124.963 94.5726 124.999C93.5901 125.034 92.7274 124.351 92.5376 123.386L87.6686 98.635L84.2889 105.394C83.9501 106.072 83.2575 106.5 82.5 106.5H73C71.8954 106.5 71 105.605 71 104.5C71 103.395 71.8954 102.5 73 102.5H81.2639L86.7111 91.6056C87.0938 90.8403 87.9208 90.4032 88.7686 90.5181C89.6164 90.633 90.2972 91.2745 90.4624 92.114L94.0383 110.292L98.0148 77.7574C98.1351 76.7732 98.9583 76.0257 99.9494 76.0006Z" fill="#262939"/>
<path fill-rule="evenodd" clip-rule="evenodd" d="M98.9494 75.0006C99.9406 74.9756 100.801 75.6805 100.97 76.6573L105.844 104.678L109.172 97.1877C109.505 96.4398 110.259 95.9699 111.077 96.0015C111.895 96.0331 112.611 96.5598 112.885 97.3312L117.07 109.125L121.349 102.871C121.722 102.326 122.34 102 123 102H133C134.105 102 135 102.895 135 104C135 105.105 134.105 106 133 106H124.055L118.151 114.629C117.726 115.25 116.988 115.58 116.242 115.483C115.495 115.386 114.867 114.878 114.615 114.169L110.792 103.393L106.828 112.312C106.47 113.117 105.628 113.593 104.755 113.485C103.881 113.377 103.18 112.71 103.03 111.843L99.3455 90.659L95.4852 122.243C95.366 123.219 94.5551 123.963 93.5726 123.999C92.5901 124.034 91.7274 123.351 91.5376 122.386L86.6686 97.635L83.2889 104.394C82.9501 105.072 82.2575 105.5 81.5 105.5H72C70.8954 105.5 70 104.605 70 103.5C70 102.395 70.8954 101.5 72 101.5H80.2639L85.7111 90.6056C86.0938 89.8403 86.9208 89.4032 87.7686 89.5181C88.6164 89.633 89.2972 90.2745 89.4624 91.114L93.0383 109.292L97.0148 76.7574C97.1351 75.7732 97.9583 75.0257 98.9494 75.0006Z" fill="white"/>
</svg>
