<svg width="200" height="200" viewBox="0 0 200 200" fill="none" xmlns="http://www.w3.org/2000/svg">
<path d="M162.561 129.348C143.58 141.54 120.389 148.965 98.2118 150.413C54.6467 153.256 15.5399 117.958 10.6845 74.0809C8.40099 53.4373 16.0009 31.0757 33.4529 19.2023C46.3674 10.4139 62.0458 10.9921 75.7768 17.0398C87.3577 22.141 96.7728 30.9008 107.835 36.8992C124.747 46.0709 143.387 45.6211 161.213 51.381C170.985 54.5383 181.662 60.8988 186.399 70.5594C190.897 79.7295 190.876 91.0057 187.324 100.599C182.84 112.707 173.363 122.41 162.561 129.348Z" fill="#A0B2EC" fill-opacity="0.16"/>
<path d="M162.624 83.3062C156.544 75.8128 146.804 71.5775 136.805 70.7124C130.457 70.1636 123.799 70.9235 117.997 73.7912C108.484 78.4937 102.641 87.9655 95.2343 95.4645C86.3785 104.432 75.0757 110.706 65.1694 118.578C55.2645 126.449 46.2872 136.948 45.3382 149.053C44.7726 156.246 47.1728 163.348 51.2263 169.201C59.1237 180.605 73.1656 187.298 87.6196 188.081C128.51 190.298 165.837 152.527 169.904 114.73C171.092 103.689 169.584 91.8841 162.624 83.3062Z" fill="#A0B2EC" fill-opacity="0.16"/>
<g clip-path="url(#clip0_3194_67919)">
<path d="M144.732 45.1224C153.221 53.2586 158.41 64.7137 158.495 76.4581C158.397 84.2719 153.629 91.0708 152.112 98.4176C153.605 106.431 166.432 111.982 153.462 117.524C153.878 124.721 156.886 126.737 150.818 128.728C153.462 133.033 150.528 133.123 148.495 135.302C148.794 149.161 131.224 150 120.805 149.88C124.51 154.221 128.359 158.592 130.729 163.861C130.893 163.967 131.328 164.081 131.213 164.195C126.649 168.759 92.7218 152.655 73.2689 147.624C72.9524 147.535 72.6338 147.491 72.3151 147.418L72.5343 147.465C71.605 147.274 70.6682 147.107 69.7367 146.926C72.521 140.604 74.8275 134.416 70.7389 128.31C57.2806 116.804 41.9359 102.769 43.2152 83.4394C43.1402 78.2316 43.1402 75.7846 44.2573 69.614C46.1511 59.1521 50.1088 50.7829 59.7004 41.2514C69.233 31.7784 82.4477 25.9275 95.6539 25.2493C95.6539 25.2493 124.402 21.2687 144.732 45.1224Z" fill="#A0B2EC"/>
</g>
<path d="M42.9595 80.6742L136.001 74.9987L43.314 83.833L42.9595 80.6742Z" fill="black" fill-opacity="0.1"/>
<path d="M155.247 59.375L153.782 59.4058L131.977 60.9808L100.873 63.2271L42.1747 67.4782C41.772 70.4509 41.3477 73.5826 41.2672 76.8542C41.2288 78.3763 41.4721 79.914 41.7964 81.295H41.2559L79.8794 78.506L120.989 75.5392C120.989 75.5392 158.382 72.8334 158.382 72.847C158.652 70.5093 156.166 60.1857 155.247 59.375Z" fill="#F0B323"/>
<path d="M41.5685 71.5391L121.256 75.5L41.4316 74.7147L41.5685 71.5391Z" fill="#C08F1C"/>
<path d="M122.12 68.7792C122.141 68.9978 121.982 69.1925 121.763 69.2141C121.545 69.2357 121.35 69.076 121.328 68.8575L120.779 63.284C120.758 63.068 120.916 62.8764 121.132 62.855C121.349 62.8335 121.545 62.9912 121.567 63.2086L122.12 68.7792Z" fill="#262939"/>
<path d="M111.09 67.4059C111.108 67.5816 110.979 67.7382 110.804 67.756C110.628 67.7739 110.47 67.6453 110.453 67.469L110.103 63.9472C110.085 63.7679 110.218 63.6085 110.397 63.592C110.572 63.5759 110.725 63.704 110.742 63.8783L111.09 67.4059Z" fill="#262939"/>
<path d="M113.77 67.1937C113.788 67.3711 113.658 67.5291 113.481 67.5467C113.304 67.5643 113.146 67.4348 113.128 67.2575L112.78 63.758C112.762 63.5791 112.897 63.4202 113.076 63.4034C113.252 63.387 113.406 63.5152 113.423 63.6906L113.77 67.1937Z" fill="#262939"/>
<path d="M116.466 66.9806C116.483 67.1563 116.355 67.3129 116.179 67.3307C116.003 67.3485 115.846 67.2198 115.828 67.0435L115.484 63.5527C115.467 63.3757 115.597 63.2175 115.774 63.2009C115.95 63.1843 116.103 63.3136 116.12 63.4889L116.466 66.9806Z" fill="#262939"/>
<path d="M119.161 66.8373C119.179 67.0145 119.049 67.1725 118.872 67.1901C118.695 67.2077 118.537 67.0781 118.519 66.9008L118.177 63.4131C118.159 63.238 118.285 63.082 118.461 63.0648C118.638 63.0473 118.797 63.1765 118.815 63.3535L119.161 66.8373Z" fill="#262939"/>
<path d="M149.975 66.8339C149.997 67.0524 149.837 67.2472 149.619 67.2688C149.4 67.2904 149.205 67.1307 149.184 66.9121L148.635 61.3386C148.614 61.1227 148.772 60.9311 148.987 60.9097C149.205 60.8882 149.401 61.0459 149.422 61.2633L149.975 66.8339Z" fill="#262939"/>
<path d="M138.946 65.4606C138.963 65.6363 138.835 65.7929 138.659 65.8107C138.483 65.8286 138.326 65.7 138.308 65.5237L137.958 62.0018C137.941 61.8226 138.073 61.6632 138.253 61.6467C138.427 61.6306 138.581 61.7587 138.598 61.933L138.946 65.4606Z" fill="#262939"/>
<path d="M141.628 65.2484C141.645 65.4258 141.516 65.5838 141.339 65.6014C141.161 65.619 141.003 65.4895 140.986 65.3122L140.638 61.8127C140.62 61.6338 140.754 61.4749 140.934 61.4581C141.109 61.4417 141.263 61.5699 141.281 61.7453L141.628 65.2484Z" fill="#262939"/>
<path d="M144.319 65.0353C144.337 65.211 144.209 65.3676 144.033 65.3854C143.857 65.4032 143.699 65.2745 143.682 65.0982L143.338 61.6074C143.321 61.4304 143.451 61.2722 143.628 61.2556C143.803 61.239 143.957 61.3683 143.974 61.5436L144.319 65.0353Z" fill="#262939"/>
<path d="M147.013 64.892C147.03 65.0692 146.901 65.2272 146.724 65.2448C146.546 65.2624 146.388 65.1328 146.371 64.9554L146.028 61.4678C146.011 61.2927 146.137 61.1367 146.312 61.1195C146.489 61.102 146.648 61.2312 146.666 61.4082L147.013 64.892Z" fill="#262939"/>
<path d="M152.768 64.4053C152.796 64.5797 152.677 64.7434 152.502 64.7712C152.327 64.799 152.163 64.6796 152.135 64.5046L151.585 61.0085C151.557 60.8305 151.681 60.6638 151.859 60.6371C152.032 60.6111 152.193 60.7302 152.22 60.9033L152.768 64.4053Z" fill="#262939"/>
<path d="M155.623 64.122C155.669 64.2942 155.566 64.4709 155.394 64.5164C155.222 64.562 155.045 64.4593 154.999 64.2871L154.099 60.8875C154.053 60.7137 154.161 60.5354 154.335 60.4904C154.506 60.4462 154.678 60.5482 154.723 60.7186L155.623 64.122Z" fill="#262939"/>
<path d="M80.1313 71.7011C80.153 71.9196 79.9934 72.1144 79.7748 72.136C79.5563 72.1576 79.3616 71.9979 79.3401 71.7793L78.7912 66.2058C78.7699 65.9899 78.9278 65.7982 79.1437 65.7769C79.3611 65.7554 79.5568 65.9131 79.5784 66.1304L80.1313 71.7011Z" fill="#262939"/>
<path d="M69.0681 70.3955C69.0816 70.5715 68.95 70.7253 68.774 70.7392C68.5974 70.7532 68.443 70.6212 68.4293 70.4446L68.1568 66.9159C68.1429 66.7364 68.2792 66.5799 68.4589 66.5673C68.6336 66.5551 68.7843 66.6865 68.7976 66.8611L69.0681 70.3955Z" fill="#262939"/>
<path d="M71.7918 70.225C71.8094 70.4023 71.6799 70.5603 71.5026 70.5779C71.3252 70.5955 71.1672 70.4661 71.1496 70.2887L70.8017 66.7893C70.7839 66.6103 70.9185 66.4514 71.0976 66.4347C71.2731 66.4183 71.4272 66.5464 71.4446 66.7218L71.7918 70.225Z" fill="#262939"/>
<path d="M74.4794 69.9572C74.4967 70.1329 74.3687 70.2894 74.193 70.3072C74.0168 70.3251 73.8595 70.1964 73.8422 70.0201L73.4981 66.5293C73.4807 66.3523 73.611 66.1941 73.7881 66.1774C73.9635 66.1609 74.1168 66.2902 74.1341 66.4655L74.4794 69.9572Z" fill="#262939"/>
<path d="M77.1689 69.8139C77.1865 69.9911 77.0571 70.1491 76.8798 70.1667C76.7025 70.1843 76.5445 70.0547 76.5271 69.8773L76.1843 66.3897C76.1671 66.2146 76.2933 66.0586 76.4684 66.0413C76.6455 66.0239 76.8047 66.153 76.8223 66.3301L77.1689 69.8139Z" fill="#262939"/>
<path d="M108.012 69.7636C108.034 69.9821 107.874 70.1769 107.656 70.1985C107.437 70.2201 107.242 70.0604 107.221 69.8418L106.672 64.2683C106.651 64.0524 106.809 63.8607 107.025 63.8394C107.242 63.8179 107.438 63.9756 107.459 64.1929L108.012 69.7636Z" fill="#262939"/>
<path d="M96.9828 68.3903C97.0002 68.566 96.872 68.7226 96.6963 68.7404C96.5201 68.7582 96.3628 68.6296 96.3453 68.4534L95.9955 64.9315C95.9777 64.7523 96.1105 64.5929 96.2899 64.5764C96.4643 64.5603 96.6178 64.6884 96.635 64.8627L96.9828 68.3903Z" fill="#262939"/>
<path d="M99.6707 68.2289C99.6883 68.4062 99.5588 68.5642 99.3815 68.5818C99.2041 68.5994 99.0461 68.47 99.0285 68.2926L98.6806 64.7932C98.6628 64.6142 98.7974 64.4554 98.9765 64.4386C99.152 64.4222 99.3061 64.5503 99.3235 64.7257L99.6707 68.2289Z" fill="#262939"/>
<path d="M102.364 68.0197C102.382 68.1954 102.253 68.3519 102.078 68.3697C101.902 68.3876 101.744 68.2589 101.727 68.0826L101.383 64.5918C101.365 64.4148 101.496 64.2566 101.673 64.2399C101.848 64.2234 102.002 64.3527 102.019 64.528L102.364 68.0197Z" fill="#262939"/>
<path d="M105.05 67.8217C105.067 67.9989 104.938 68.1569 104.761 68.1745C104.583 68.1921 104.425 68.0625 104.408 67.8851L104.065 64.3975C104.048 64.2224 104.174 64.0664 104.349 64.0492C104.526 64.0317 104.686 64.1609 104.703 64.3379L105.05 67.8217Z" fill="#262939"/>
<path d="M135.87 67.8183C135.891 68.0368 135.732 68.2316 135.513 68.2532C135.295 68.2748 135.1 68.1151 135.078 67.8965L134.529 62.323C134.508 62.1071 134.666 61.9154 134.882 61.8941C135.099 61.8726 135.295 62.0303 135.317 62.2476L135.87 67.8183Z" fill="#262939"/>
<path d="M124.844 66.4449C124.861 66.6207 124.733 66.7773 124.558 66.7951C124.381 66.8129 124.224 66.6843 124.207 66.508L123.857 62.9862C123.839 62.807 123.972 62.6476 124.151 62.6311C124.326 62.615 124.479 62.7431 124.496 62.9174L124.844 66.4449Z" fill="#262939"/>
<path d="M127.53 66.2836C127.548 66.4609 127.418 66.6189 127.241 66.6365C127.064 66.6541 126.905 66.5246 126.888 66.3473L126.54 62.8479C126.522 62.6689 126.657 62.51 126.836 62.4933C127.011 62.4769 127.166 62.605 127.183 62.7804L127.53 66.2836Z" fill="#262939"/>
<path d="M130.218 66.0744C130.235 66.2501 130.107 66.4066 129.931 66.4244C129.755 66.4423 129.598 66.3136 129.58 66.1373L129.236 62.6465C129.219 62.4695 129.349 62.3113 129.526 62.2946C129.702 62.2781 129.855 62.4074 129.872 62.5827L130.218 66.0744Z" fill="#262939"/>
<path d="M132.901 65.8764C132.919 66.0536 132.79 66.2116 132.612 66.2292C132.435 66.2468 132.277 66.1172 132.259 65.9398L131.917 62.4522C131.9 62.2771 132.026 62.1211 132.201 62.1038C132.378 62.0864 132.537 62.2155 132.555 62.3926L132.901 65.8764Z" fill="#262939"/>
<path d="M65.8392 72.7758C65.8475 72.9953 65.6763 73.1799 65.4569 73.1881C65.2374 73.1964 65.0528 73.0251 65.0447 72.8056L64.837 67.209C64.829 66.9922 64.9983 66.8105 65.2151 66.8024C65.4334 66.7942 65.6191 66.9635 65.6273 67.1818L65.8392 72.7758Z" fill="#262939"/>
<path d="M54.6414 71.433C54.6252 71.6088 54.4697 71.7384 54.2939 71.7226C54.1174 71.7068 53.9873 71.5508 54.0034 71.3744L54.326 67.85C54.3424 67.6706 54.503 67.5392 54.6823 67.5569C54.8566 67.5741 54.9831 67.7289 54.967 67.9033L54.6414 71.433Z" fill="#262939"/>
<path d="M57.374 71.2138C57.3625 71.3916 57.209 71.5265 57.0312 71.515C56.8534 71.5036 56.7185 71.3501 56.7299 71.1723L56.9553 67.6629C56.9668 67.4834 57.1254 67.3485 57.3049 67.3611C57.4807 67.3734 57.612 67.5249 57.6006 67.7008L57.374 71.2138Z" fill="#262939"/>
<path d="M60.0996 71.0511C60.0914 71.2274 59.942 71.3638 59.7657 71.356C59.5887 71.3482 59.4517 71.1982 59.46 71.0212L59.6242 67.5173C59.6325 67.3396 59.7844 67.202 59.962 67.2111C60.1379 67.2201 60.2709 67.3701 60.2628 67.5461L60.0996 71.0511Z" fill="#262939"/>
<path d="M62.8701 70.7853C62.8707 70.9634 62.7267 71.1082 62.5486 71.1087C62.3704 71.1093 62.2255 70.9651 62.2252 70.7869L62.2184 67.2825C62.2181 67.1065 62.3586 66.9633 62.5346 66.9629C62.7125 66.9626 62.8586 67.1064 62.8592 67.2843L62.8701 70.7853Z" fill="#262939"/>
<path d="M94.0513 70.7362C94.073 70.9548 93.9133 71.1495 93.6948 71.1711C93.4762 71.1927 93.2816 71.033 93.26 70.8145L92.7111 65.241C92.6898 65.025 92.8477 64.8334 93.0636 64.812C93.281 64.7905 93.4767 64.9482 93.4983 65.1656L94.0513 70.7362Z" fill="#262939"/>
<path d="M83.0199 69.4176C83.0373 69.5933 82.9091 69.7499 82.7334 69.7677C82.5572 69.7856 82.3999 69.657 82.3824 69.4807L82.0326 65.9589C82.0148 65.7796 82.1476 65.6202 82.327 65.6037C82.5014 65.5877 82.6549 65.7157 82.6721 65.89L83.0199 69.4176Z" fill="#262939"/>
<path d="M85.702 69.2015C85.7196 69.3789 85.5901 69.5369 85.4127 69.5545C85.2354 69.5721 85.0774 69.4426 85.0597 69.2653L84.7119 65.7659C84.6941 65.5869 84.8287 65.428 85.0077 65.4113C85.1832 65.3948 85.3374 65.523 85.3548 65.6984L85.702 69.2015Z" fill="#262939"/>
<path d="M88.3954 68.9924C88.4128 69.168 88.2847 69.3246 88.1091 69.3424C87.9328 69.3602 87.7756 69.2316 87.7582 69.0553L87.4141 65.5644C87.3967 65.3874 87.5271 65.2293 87.7041 65.2126C87.8795 65.1961 88.0328 65.3253 88.0502 65.5006L88.3954 68.9924Z" fill="#262939"/>
<path d="M91.081 68.7943C91.0986 68.9716 90.9692 69.1296 90.7919 69.1471C90.6146 69.1647 90.4566 69.0352 90.4392 68.8578L90.0964 65.3702C90.0792 65.195 90.2054 65.0391 90.3805 65.0218C90.5576 65.0044 90.7168 65.1335 90.7345 65.3106L91.081 68.7943Z" fill="#262939"/>
<path d="M51.4525 73.7932C51.4284 74.0115 51.2319 74.1689 51.0136 74.1447C50.7953 74.1205 50.638 73.9239 50.6623 73.7056L51.2814 68.1395C51.3054 67.9238 51.4996 67.7691 51.7153 67.793C51.9324 67.8171 52.0911 68.0119 52.0671 68.229L51.4525 73.7932Z" fill="#262939"/>
<path d="M43.1684 72.3019C43.1331 72.4766 42.9628 72.5896 42.7881 72.5543C42.6135 72.519 42.5004 72.3488 42.5357 72.1741L43.2313 68.7269C43.2669 68.5506 43.4422 68.4383 43.6183 68.4749C43.7909 68.5108 43.9006 68.6785 43.8657 68.8513L43.1684 72.3019Z" fill="#262939"/>
<path d="M45.9125 72.0401C45.8827 72.2141 45.7178 72.3312 45.5437 72.3019C45.369 72.2725 45.2514 72.1068 45.2813 71.9322L45.8732 68.4747C45.9033 68.2994 46.0708 68.1814 46.246 68.2122C46.4195 68.2426 46.5331 68.4079 46.5035 68.5815L45.9125 72.0401Z" fill="#262939"/>
<path d="M48.6338 71.8396C48.6077 72.0158 48.4436 72.1374 48.2674 72.1112C48.0911 72.085 47.9695 71.9208 47.9959 71.7445L48.5144 68.2787C48.5405 68.1046 48.7009 67.9842 48.8749 68.0102C49.0509 68.0364 49.1739 68.2006 49.1477 68.3766L48.6338 71.8396Z" fill="#262939"/>
<path d="M137.912 61.8687L137.505 75.592L124.084 75.0936L122.102 75.0207L41.4219 72.0539C41.7651 67.6607 43.1515 63.5388 44.7189 59.8164L131.971 61.7384L134.511 61.7925L137.912 61.8687Z" fill="#F0B323"/>
<g filter="url(#filter0_i_3194_67919)">
<path d="M126.118 59.9494C126.133 59.0152 126.937 58.2703 127.915 58.2856L138.738 58.4555C139.715 58.4708 140.496 59.2406 140.481 60.1748L140.229 76.2529C140.214 77.1872 139.41 77.9321 138.432 77.9167L127.609 77.7468C126.632 77.7315 125.851 76.9617 125.866 76.0275L126.118 59.9494Z" fill="#E7ECFA"/>
</g>
<path d="M123.313 68.6042C123.314 68.8238 123.137 69.0029 122.917 69.0042C122.698 69.0055 122.519 68.8285 122.517 68.6089L122.486 63.0085C122.485 62.7915 122.66 62.6153 122.877 62.614C123.095 62.6127 123.276 62.7878 123.277 63.0063L123.313 68.6042Z" fill="#262939"/>
<path d="M112.452 66.2193C112.453 66.3958 112.311 66.5399 112.134 66.5414C111.957 66.5429 111.812 66.4003 111.811 66.2231L111.789 62.684C111.788 62.5039 111.935 62.3575 112.115 62.3576C112.29 62.3578 112.431 62.4995 112.432 62.6746L112.452 66.2193Z" fill="#262939"/>
<path d="M115.146 66.2496C115.147 66.4278 115.003 66.5732 114.825 66.5743C114.647 66.5754 114.501 66.4319 114.5 66.2537L114.478 62.7371C114.476 62.5572 114.625 62.4115 114.805 62.4113C114.981 62.4112 115.123 62.5531 115.124 62.7293L115.146 66.2496Z" fill="#262939"/>
<path d="M117.846 66.2896C117.847 66.4661 117.705 66.6102 117.529 66.6116C117.352 66.6131 117.207 66.4704 117.206 66.2933L117.186 62.7856C117.185 62.6077 117.33 62.4623 117.508 62.4621C117.684 62.4618 117.824 62.6047 117.825 62.7809L117.846 66.2896Z" fill="#262939"/>
<path d="M120.536 66.3964C120.537 66.5746 120.394 66.7199 120.216 66.721C120.037 66.7221 119.892 66.5785 119.891 66.4003L119.872 62.8959C119.871 62.7199 120.011 62.5763 120.187 62.5753C120.365 62.5743 120.512 62.7176 120.513 62.8956L120.536 66.3964Z" fill="#262939"/>
<path d="M81.2364 67.6315C81.2378 67.8511 81.0608 68.0303 80.8412 68.0316C80.6216 68.0329 80.4425 67.8559 80.4413 67.6362L80.4102 62.0359C80.409 61.8189 80.5839 61.6427 80.8009 61.6414C81.0193 61.6401 81.1996 61.8152 81.201 62.0336L81.2364 67.6315Z" fill="#262939"/>
<path d="M70.3306 65.3062C70.3278 65.4828 70.1826 65.6237 70.006 65.6213C69.8289 65.6189 69.6873 65.4732 69.6901 65.2961L69.745 61.7573C69.7478 61.5772 69.898 61.434 70.0781 61.4381C70.2532 61.4421 70.391 61.5869 70.3882 61.762L70.3306 65.3062Z" fill="#262939"/>
<path d="M73.0676 65.3863C73.0687 65.5645 72.9251 65.7099 72.7469 65.711C72.5687 65.7121 72.4233 65.5686 72.4222 65.3904L72.3995 61.8738C72.3983 61.6939 72.547 61.5482 72.7268 61.5481C72.9031 61.548 73.0447 61.6898 73.0458 61.8661L73.0676 65.3863Z" fill="#262939"/>
<path d="M75.7643 65.3716C75.7653 65.5481 75.6233 65.6922 75.4468 65.6937C75.2696 65.6951 75.125 65.5525 75.124 65.3753L75.1042 61.8676C75.1032 61.6898 75.2477 61.5443 75.4255 61.5441C75.6017 61.5439 75.7424 61.6868 75.7434 61.8629L75.7643 65.3716Z" fill="#262939"/>
<path d="M78.4638 65.4785C78.4649 65.6566 78.3215 65.8019 78.1433 65.803C77.9651 65.8042 77.8198 65.6605 77.8188 65.4823L77.8001 61.9779C77.7992 61.8019 77.9392 61.6583 78.1152 61.6573C78.2931 61.6563 78.4398 61.7997 78.4409 61.9776L78.4638 65.4785Z" fill="#262939"/>
<path d="M109.178 68.28C109.179 68.4996 109.002 68.6787 108.783 68.68C108.563 68.6813 108.384 68.5043 108.383 68.2847L108.352 62.6843C108.35 62.4673 108.525 62.2911 108.742 62.2898C108.961 62.2885 109.141 62.4636 109.142 62.6821L109.178 68.28Z" fill="#262939"/>
<path d="M98.3172 65.895C98.3182 66.0716 98.1761 66.2157 97.9996 66.2172C97.8224 66.2186 97.6777 66.0761 97.6766 65.8989L97.654 62.3598C97.6528 62.1797 97.7999 62.0332 97.98 62.0334C98.1551 62.0336 98.2961 62.1753 98.2971 62.3504L98.3172 65.895Z" fill="#262939"/>
<path d="M101.011 65.984C101.012 66.1622 100.868 66.3075 100.69 66.3087C100.512 66.3098 100.367 66.1662 100.366 65.988L100.343 62.4714C100.342 62.2916 100.49 62.1458 100.67 62.1457C100.846 62.1456 100.988 62.2874 100.989 62.4637L101.011 65.984Z" fill="#262939"/>
<path d="M103.708 66.02C103.709 66.1966 103.567 66.3406 103.39 66.3421C103.213 66.3436 103.068 66.2009 103.067 66.0237L103.048 62.5161C103.047 62.3382 103.191 62.1928 103.369 62.1925C103.545 62.1923 103.686 62.3352 103.687 62.5114L103.708 66.02Z" fill="#262939"/>
<path d="M106.403 66.0722C106.404 66.2503 106.261 66.3957 106.083 66.3968C105.905 66.3979 105.759 66.2543 105.758 66.076L105.74 62.5717C105.739 62.3957 105.879 62.2521 106.055 62.2511C106.233 62.2501 106.379 62.3934 106.38 62.5713L106.403 66.0722Z" fill="#262939"/>
<path d="M66.9003 67.3823C66.8883 67.6016 66.7007 67.7696 66.4814 67.7575C66.2621 67.7454 66.0942 67.5578 66.1064 67.3385L66.4172 61.7466C66.4292 61.53 66.6146 61.3648 66.8312 61.3767C67.0493 61.3888 67.2186 61.5746 67.2066 61.7927L66.9003 67.3823Z" fill="#262939"/>
<path d="M55.8667 65.0073C55.8343 65.1809 55.6675 65.2955 55.4938 65.2636C55.3196 65.2315 55.2045 65.0641 55.2369 64.89L55.884 61.4105C55.917 61.2334 56.089 61.1174 56.2659 61.1516C56.4378 61.1849 56.5494 61.3507 56.5173 61.5228L55.8667 65.0073Z" fill="#262939"/>
<path d="M58.617 65.041C58.5891 65.2171 58.4238 65.3372 58.2478 65.3093C58.0718 65.2815 57.9516 65.1162 57.9795 64.9402L58.5285 61.4667C58.5566 61.289 58.727 61.1693 58.9044 61.1985C59.0784 61.227 59.1951 61.39 59.1675 61.5641L58.617 65.041Z" fill="#262939"/>
<path d="M61.3444 65.1306C61.3199 65.3054 61.1585 65.4274 60.9836 65.4034C60.8081 65.3792 60.6856 65.2171 60.7102 65.0417L61.1978 61.568C61.2225 61.3919 61.3865 61.2688 61.5625 61.2943C61.7368 61.3196 61.8554 61.4813 61.8309 61.6557L61.3444 65.1306Z" fill="#262939"/>
<path d="M64.1205 65.1215C64.1046 65.2989 63.9478 65.4298 63.7704 65.4139C63.5929 65.3979 63.462 65.241 63.4781 65.0635L63.7955 61.5735C63.8114 61.3982 63.9646 61.2687 64.1398 61.2846C64.317 61.3006 64.4493 61.4574 64.4334 61.6346L64.1205 65.1215Z" fill="#262939"/>
<path d="M95.1758 67.9597C95.1772 68.1793 95.0003 68.3584 94.7807 68.3597C94.5611 68.361 94.382 68.184 94.3808 67.9644L94.3496 62.364C94.3484 62.147 94.5234 61.9708 94.7403 61.9695C94.9588 61.9682 95.139 62.1433 95.1404 62.3617L95.1758 67.9597Z" fill="#262939"/>
<path d="M84.3192 65.6255C84.3202 65.8021 84.1781 65.9462 84.0015 65.9476C83.8244 65.9491 83.6797 65.8065 83.6785 65.6294L83.6559 62.0903C83.6548 61.9102 83.8018 61.7637 83.9819 61.7639C84.1571 61.764 84.298 61.9057 84.299 62.0809L84.3192 65.6255Z" fill="#262939"/>
<path d="M87.007 65.6597C87.0081 65.8379 86.8646 65.9833 86.6864 65.9844C86.5082 65.9856 86.3628 65.842 86.3616 65.6638L86.3389 62.1472C86.3378 61.9674 86.4864 61.8216 86.6663 61.8215C86.8426 61.8214 86.9842 61.9632 86.9853 62.1395L87.007 65.6597Z" fill="#262939"/>
<path d="M89.7037 65.6997C89.7048 65.8762 89.5627 66.0203 89.3862 66.0218C89.2091 66.0233 89.0644 65.8806 89.0634 65.7034L89.0437 62.1957C89.0427 62.0179 89.1871 61.8725 89.365 61.8722C89.5411 61.872 89.6818 62.0149 89.6829 62.191L89.7037 65.6997Z" fill="#262939"/>
<path d="M92.3993 65.7519C92.4005 65.93 92.257 66.0754 92.0789 66.0765C91.9007 66.0776 91.7553 65.9339 91.7544 65.7557L91.7357 62.2514C91.7347 62.0754 91.8748 61.9318 92.0507 61.9308C92.2287 61.9298 92.3753 62.0731 92.3765 62.251L92.3993 65.7519Z" fill="#262939"/>
<path d="M52.4851 67.0645C52.4409 67.2796 52.2306 67.4181 52.0155 67.3739C51.8004 67.3296 51.662 67.1193 51.7063 66.9042L52.8376 61.4192C52.8814 61.2066 53.0891 61.0705 53.3016 61.1143C53.5156 61.1583 53.6556 61.367 53.6116 61.581L52.4851 67.0645Z" fill="#262939"/>
<path d="M44.3737 64.817C44.3224 64.9876 44.1424 65.0844 43.9718 65.0331C43.8011 64.9818 43.7043 64.8019 43.7556 64.6312L44.767 61.2632C44.8187 61.0909 45.0037 60.9953 45.1756 61.048C45.3441 61.0997 45.4379 61.2769 45.3871 61.4457L44.3737 64.817Z" fill="#262939"/>
<path d="M47.1281 64.8044C47.0824 64.9749 46.9074 65.0762 46.7368 65.0309C46.5655 64.9855 46.4638 64.8096 46.5097 64.6385L47.4188 61.2506C47.4649 61.0788 47.6427 60.9768 47.8143 61.0237C47.9842 61.07 48.0821 61.2451 48.0365 61.4152L47.1281 64.8044Z" fill="#262939"/>
<path d="M49.8668 64.8581C49.8245 65.0311 49.6499 65.1371 49.4769 65.0947C49.3038 65.0523 49.1979 64.8775 49.2404 64.7045L50.0773 61.3014C50.1193 61.1306 50.2902 61.0254 50.4611 61.0674C50.6338 61.1098 50.7411 61.2846 50.6988 61.4575L49.8668 64.8581Z" fill="#262939"/>
<defs>
<filter id="filter0_i_3194_67919" x="125.865" y="58.2852" width="14.6172" height="19.6328" filterUnits="userSpaceOnUse" color-interpolation-filters="sRGB">
<feFlood flood-opacity="0" result="BackgroundImageFix"/>
<feBlend mode="normal" in="SourceGraphic" in2="BackgroundImageFix" result="shape"/>
<feColorMatrix in="SourceAlpha" type="matrix" values="0 0 0 0 0 0 0 0 0 0 0 0 0 0 0 0 0 0 127 0" result="hardAlpha"/>
<feOffset dx="-0.0159902" dy="0.0159902"/>
<feComposite in2="hardAlpha" operator="arithmetic" k2="-1" k3="1"/>
<feColorMatrix type="matrix" values="0 0 0 0 0 0 0 0 0 0 0 0 0 0 0 0 0 0 0.25 0"/>
<feBlend mode="normal" in2="shape" result="effect1_innerShadow_3194_67919"/>
</filter>
<clipPath id="clip0_3194_67919">
<rect width="117.982" height="140" fill="white" transform="matrix(-1 0 0 1 159.234 25)"/>
</clipPath>
</defs>
</svg>
