<svg width="56" height="56" viewBox="0 0 56 56" fill="none" xmlns="http://www.w3.org/2000/svg">
<rect width="56" height="56" rx="28" fill="#0C75F6"/>
<path d="M27.7614 31.0954C29.4306 31.0954 30.7849 29.7411 30.7849 28.0719C30.7849 26.4026 29.4306 25.0484 27.7614 25.0484C26.0922 25.0484 24.7379 26.4593 24.7379 28.0719C24.7379 29.6844 26.0922 31.0954 27.7614 31.0954ZM25.0906 23.8453L20.6247 16.7091C19.9822 15.6824 18.5586 15.4242 17.6358 16.2077C14.805 18.6077 12.8366 21.9915 12.271 25.8326C12.0937 27.0388 13.064 28.116 14.2822 28.116H22.7103C22.7096 26.3144 23.6671 24.746 25.0906 23.8453ZM37.8902 16.2077C36.9661 15.4242 35.5463 15.6825 34.9038 16.7095L30.4322 23.8453C31.8557 24.746 32.8132 26.3144 32.8132 28.116H41.2412C42.4594 28.116 43.4295 27.0369 43.2525 25.8319C42.6837 21.9934 40.7184 18.6045 37.8902 16.2077ZM30.4322 32.3804C29.6574 32.8654 28.744 33.1614 27.7614 33.1614C26.7788 33.1614 25.8654 32.8653 25.0906 32.3804L20.6247 39.5234C19.986 40.5445 20.3626 41.9296 21.4637 42.4178C23.3899 43.2713 25.519 43.75 27.7614 43.75C30.0038 43.75 32.1342 43.2706 34.0604 42.4159C35.1614 41.9276 35.5381 40.5426 34.8994 39.5215L30.4322 32.3804Z" fill="white"/>
</svg>
