<svg width="56" height="56" viewBox="0 0 56 56" fill="none" xmlns="http://www.w3.org/2000/svg">
<rect width="56" height="56" rx="28" fill="#0C419A"/>
<path fill-rule="evenodd" clip-rule="evenodd" d="M25.6942 19.1729C27.6837 19.2171 29.2902 20.8383 29.2902 22.8426C29.2902 23.9479 28.8038 24.9206 28.0374 25.5986L28.907 27.9861L30.2923 27.485L30.7934 28.8703L33.5641 27.8682L33.063 26.4828L34.4483 25.9817L30.4102 14.8843L29.0249 15.3853L28.5238 14L25.7531 15.0022L26.2542 16.3875L24.8688 16.9033L25.6942 19.1729ZM20.4475 39.0525C18.8264 39.0525 17.5 40.3789 17.5 42H38.1328C38.1328 40.3789 36.8064 39.0525 35.1852 39.0525H29.2902V36.1049H33.7115C35.3326 36.1049 36.659 34.7785 36.659 33.1574H24.8688C22.4224 33.1574 20.4475 31.1825 20.4475 28.7361C20.4475 27.1297 21.3171 25.7296 22.5992 24.9632C22.1718 24.359 21.9213 23.6368 21.9213 22.841C21.9213 22.5315 21.9803 22.222 22.0539 21.9273C20.7075 22.4859 19.5566 23.4306 18.7462 24.6423C17.9358 25.8539 17.5022 27.2784 17.5 28.7361C17.5 32.8037 20.8012 36.1049 24.8688 36.1049V39.0525H20.4475ZM27.8164 22.8426C27.8164 24.0635 26.8266 25.0533 25.6057 25.0533C24.3848 25.0533 23.3951 24.0635 23.3951 22.8426C23.3951 21.6217 24.3848 20.632 25.6057 20.632C26.8266 20.632 27.8164 21.6217 27.8164 22.8426Z" fill="white"/>
</svg>
