<svg xmlns="http://www.w3.org/2000/svg" width="315" height="488" fill="none"><g clip-path="url(#a)" filter="url(#b)"><rect width="308.647" height="638.27" x="-25.921" y="26.814" fill="#F9FAFF" stroke="url(#c)" stroke-width="8.99" rx="49.443"/><path fill="#fff" d="M-21.43 76.257c0-24.824 20.124-44.948 44.949-44.948h209.76c24.824 0 44.948 20.124 44.948 44.948v20.976H-21.43V76.257Z"/><path fill="#0C419A" d="m2.973 67.268 9.004 9.005 2.119-2.118-6.892-6.893 6.892-6.892-2.119-2.106-9.004 9.004Z"/><path stroke="#E7ECFA" stroke-width="1.498" d="M-21.43 96.483h299.657"/><path fill="#262939" d="M96.381 66.6h-1.078v-8.27h-2.899v-.945h6.864v.945H96.38v8.27Zm7.261-7.034c.139 0 .284.008.435.025a3.2 3.2 0 0 1 .403.056l-.132.971a3.264 3.264 0 0 0-.769-.095c-.277 0-.54.057-.788.17-.243.11-.458.27-.643.48-.185.206-.33.456-.435.75-.105.29-.157.613-.157.97V66.6h-1.053v-6.908h.87l.114 1.273h.044c.143-.257.315-.49.516-.7.202-.214.435-.384.7-.51.269-.126.567-.19.895-.19Zm4.727.012c.824 0 1.435.185 1.834.555.4.37.599.96.599 1.771V66.6h-.762l-.202-1.021h-.051a3.82 3.82 0 0 1-.605.636 2.24 2.24 0 0 1-.731.385 3.469 3.469 0 0 1-1.008.126c-.42 0-.794-.074-1.122-.22a1.745 1.745 0 0 1-.769-.669c-.185-.298-.277-.677-.277-1.135 0-.689.273-1.218.819-1.588.546-.37 1.378-.571 2.496-.605l1.191-.05v-.423c0-.596-.128-1.014-.384-1.254-.257-.24-.618-.36-1.084-.36-.362 0-.706.053-1.034.158a7.057 7.057 0 0 0-.933.372l-.321-.794a5.76 5.76 0 0 1 1.071-.41c.403-.113.828-.17 1.273-.17Zm1.4 3.618-1.053.044c-.861.034-1.469.175-1.822.422-.353.248-.529.6-.529 1.053 0 .395.12.687.359.876.24.19.557.284.952.284.613 0 1.116-.17 1.506-.51.391-.341.587-.852.587-1.532v-.637Zm4.235-3.504V66.6h-1.046v-6.908h1.046Zm-.51-2.584c.172 0 .319.056.441.17.126.109.189.281.189.517 0 .23-.063.403-.189.516a.624.624 0 0 1-.441.17.64.64 0 0 1-.454-.17c-.118-.113-.177-.285-.177-.517 0-.235.059-.407.177-.516a.64.64 0 0 1 .454-.17Zm4.96 8.76a3.285 3.285 0 0 0 .971-.15v.812c-.122.055-.293.101-.511.139a3.608 3.608 0 0 1-.63.057c-.366 0-.698-.063-.996-.19a1.547 1.547 0 0 1-.719-.655c-.176-.307-.264-.731-.264-1.273V60.51h-.984v-.51l.99-.41.416-1.5h.63v1.6h2.023v.82h-2.023v4.065c0 .433.099.757.296.971.202.214.469.322.801.322Zm5.03-6.302c.588 0 1.092.13 1.512.39.42.26.742.627.965 1.097.222.467.334 1.013.334 1.639v.649h-4.772c.013.811.215 1.429.605 1.853.391.424.942.637 1.652.637.437 0 .823-.04 1.16-.12.336-.08.684-.198 1.046-.353v.92a5.111 5.111 0 0 1-1.04.34c-.34.072-.744.108-1.21.108-.664 0-1.244-.135-1.74-.404a2.818 2.818 0 0 1-1.147-1.197c-.273-.525-.41-1.168-.41-1.929 0-.744.124-1.387.372-1.929.252-.546.605-.966 1.059-1.26.458-.294.996-.441 1.614-.441Zm-.013.857c-.559 0-1.004.183-1.336.548-.332.366-.53.876-.593 1.532h3.656a2.95 2.95 0 0 0-.195-1.084 1.524 1.524 0 0 0-.561-.731c-.252-.177-.576-.265-.971-.265Zm12.102-.857c.76 0 1.334.2 1.72.598.387.395.58 1.032.58 1.91V66.6h-1.034v-4.475c0-.56-.121-.977-.365-1.255-.24-.281-.597-.422-1.072-.422-.668 0-1.153.193-1.456.58-.302.386-.453.956-.453 1.708V66.6h-1.04v-4.475c0-.374-.055-.685-.164-.933a1.116 1.116 0 0 0-.479-.555c-.21-.126-.477-.189-.801-.189-.458 0-.825.094-1.103.284-.277.189-.479.47-.605.844-.122.37-.183.826-.183 1.368V66.6h-1.046v-6.908h.845l.157.977h.057c.139-.24.313-.442.523-.605.21-.164.446-.288.706-.372.261-.084.538-.126.832-.126.525 0 .964.098 1.317.296.357.193.616.49.776.889h.056c.227-.4.538-.696.933-.89a2.864 2.864 0 0 1 1.299-.295Zm7.109 0c.588 0 1.093.13 1.513.39.42.26.742.627.964 1.097.223.467.334 1.013.334 1.639v.649h-4.771c.013.811.214 1.429.605 1.853.391.424.941.637 1.651.637.437 0 .824-.04 1.16-.12a6.38 6.38 0 0 0 1.046-.353v.92a5.071 5.071 0 0 1-1.04.34 5.95 5.95 0 0 1-1.21.108c-.664 0-1.243-.135-1.739-.404a2.818 2.818 0 0 1-1.147-1.197c-.274-.525-.41-1.168-.41-1.929 0-.744.124-1.387.372-1.929.252-.546.605-.966 1.059-1.26.458-.294.995-.441 1.613-.441Zm-.012.857c-.559 0-1.005.183-1.337.548-.332.366-.529.876-.592 1.532h3.656a2.97 2.97 0 0 0-.196-1.084 1.524 1.524 0 0 0-.561-.731c-.252-.177-.575-.265-.97-.265Zm7.872-.857c.819 0 1.439.201 1.859.605.42.399.631 1.042.631 1.928v4.5h-1.034v-4.43c0-.576-.133-1.007-.397-1.292-.261-.286-.662-.429-1.204-.429-.765 0-1.303.216-1.614.65-.311.432-.466 1.06-.466 1.884V66.6h-1.046v-6.908h.844l.158.995h.057c.147-.243.334-.447.561-.61.226-.169.481-.295.762-.379.282-.088.578-.132.889-.132Zm6.876 6.302c.173 0 .349-.014.53-.044.18-.03.328-.065.441-.107v.813c-.122.055-.292.101-.511.139a3.608 3.608 0 0 1-.63.057 2.54 2.54 0 0 1-.996-.19 1.54 1.54 0 0 1-.718-.655c-.177-.307-.265-.731-.265-1.273V60.51h-.983v-.51l.989-.41.416-1.5h.631v1.6h2.023v.82h-2.023v4.065c0 .433.098.757.296.971.202.214.468.322.8.322Zm6.839-1.16c0 .442-.111.814-.334 1.116-.219.299-.534.523-.946.675-.407.151-.895.227-1.462.227-.483 0-.901-.038-1.254-.114a3.64 3.64 0 0 1-.927-.321v-.965c.282.14.618.265 1.009.379.391.113.79.17 1.197.17.597 0 1.03-.097 1.299-.29a.92.92 0 0 0 .403-.788.792.792 0 0 0-.164-.498c-.105-.147-.283-.288-.535-.422a7.968 7.968 0 0 0-1.047-.454 12.15 12.15 0 0 1-1.147-.498 2.147 2.147 0 0 1-.744-.611c-.172-.24-.258-.55-.258-.933 0-.584.235-1.032.706-1.343.475-.315 1.097-.472 1.866-.472.416 0 .804.042 1.166.126.365.08.706.189 1.021.327l-.353.839a6.517 6.517 0 0 0-.914-.31 3.929 3.929 0 0 0-.99-.125c-.483 0-.855.08-1.115.24-.257.159-.385.378-.385.655 0 .214.059.39.177.53.121.138.315.268.58.39.264.122.613.265 1.046.429.433.16.807.325 1.122.497.315.169.556.374.725.618.172.24.258.549.258.927Z"/><path fill="#fff" d="M3.309 189.371H278.57v78.459H3.309z"/><path fill="#262939" d="M21.367 211.147c1.008 0 1.743.217 2.206.652.463.43.694 1.025.694 1.783 0 .342-.051.67-.155.983-.103.31-.272.586-.507.828-.231.242-.541.434-.93.577-.387.139-.866.208-1.436.208h-.71v2.777h-1.656v-7.808h2.494Zm-.085 1.357h-.753v2.317h.545c.31 0 .578-.041.806-.122.228-.082.404-.21.529-.385.124-.174.187-.399.187-.673 0-.384-.107-.669-.32-.854-.214-.189-.546-.283-.994-.283Zm6.777.357c.801 0 1.415.175 1.843.524.427.349.64.879.64 1.591v3.979h-1.137l-.315-.812h-.043c-.17.214-.345.388-.523.524a1.8 1.8 0 0 1-.614.299 3.204 3.204 0 0 1-.844.096 2.17 2.17 0 0 1-.95-.203 1.507 1.507 0 0 1-.658-.62c-.16-.281-.24-.637-.24-1.068 0-.633.223-1.1.668-1.399.445-.303 1.112-.47 2.002-.502l1.036-.032v-.262c0-.313-.082-.543-.245-.689-.164-.146-.392-.219-.684-.219-.288 0-.571.041-.85.123a6.542 6.542 0 0 0-.832.31l-.54-1.1a4.639 4.639 0 0 1 1.063-.395 5.163 5.163 0 0 1 1.223-.145Zm.865 3.328-.63.021c-.527.014-.893.109-1.1.283a.865.865 0 0 0-.304.689c0 .249.072.427.218.534.146.103.337.155.572.155.349 0 .643-.103.881-.31.242-.206.363-.5.363-.881v-.491Zm6.633-3.317c.082 0 .177.005.283.016.11.007.2.018.267.032l-.122 1.528a.964.964 0 0 0-.23-.038 2.38 2.38 0 0 0-.865.064 1.513 1.513 0 0 0-.529.262 1.228 1.228 0 0 0-.374.47 1.685 1.685 0 0 0-.133.71v3.039h-1.63v-5.971h1.235l.24 1.004h.08c.117-.203.263-.388.438-.555.178-.171.38-.306.603-.406.228-.103.474-.155.737-.155Zm4.08-.011c.802 0 1.416.175 1.843.524.427.349.641.879.641 1.591v3.979h-1.138l-.315-.812h-.042a3.04 3.04 0 0 1-.524.524 1.799 1.799 0 0 1-.614.299 3.205 3.205 0 0 1-.844.096 2.17 2.17 0 0 1-.95-.203 1.507 1.507 0 0 1-.657-.62c-.16-.281-.24-.637-.24-1.068 0-.633.222-1.1.667-1.399.445-.303 1.113-.47 2.003-.502l1.036-.032v-.262c0-.313-.082-.543-.246-.689-.164-.146-.392-.219-.683-.219-.289 0-.572.041-.85.123a6.538 6.538 0 0 0-.833.31l-.54-1.1a4.642 4.642 0 0 1 1.064-.395 5.163 5.163 0 0 1 1.223-.145Zm.866 3.328-.63.021c-.527.014-.894.109-1.1.283a.865.865 0 0 0-.305.689c0 .249.073.427.219.534.146.103.336.155.571.155.35 0 .643-.103.882-.31.242-.206.363-.5.363-.881v-.491Zm5.725 2.873c-.591 0-1.095-.107-1.511-.321a2.133 2.133 0 0 1-.951-1.004c-.217-.452-.326-1.03-.326-1.735 0-.73.123-1.325.369-1.784.249-.463.592-.803 1.03-1.02.442-.217.953-.326 1.533-.326.413 0 .77.041 1.068.123.303.078.566.173.79.283l-.48 1.26a7.652 7.652 0 0 0-.716-.251 2.27 2.27 0 0 0-.662-.101c-.285 0-.522.068-.71.203-.189.132-.33.331-.422.598-.093.267-.139.602-.139 1.004 0 .395.05.723.15.983.1.26.244.454.432.582.189.124.419.187.69.187.337 0 .638-.045.902-.134.263-.092.52-.221.769-.384v1.394c-.25.156-.511.268-.785.336-.27.071-.614.107-1.031.107Zm5.666-6.19c.552 0 1.028.107 1.426.321.399.21.707.516.924.918.217.402.326.894.326 1.474v.791h-3.85c.017.459.154.82.41 1.084.26.26.62.39 1.08.39.38 0 .73-.04 1.046-.118a5.35 5.35 0 0 0 .977-.352v1.26a3.85 3.85 0 0 1-.929.32 5.73 5.73 0 0 1-1.17.102c-.598 0-1.128-.11-1.59-.331a2.47 2.47 0 0 1-1.085-1.01c-.26-.452-.39-1.021-.39-1.709 0-.697.118-1.278.353-1.741.238-.466.57-.815.993-1.046.424-.235.917-.353 1.48-.353Zm.011 1.159c-.317 0-.58.102-.79.304-.207.203-.326.522-.358.956h2.285a1.608 1.608 0 0 0-.133-.646 1.004 1.004 0 0 0-.374-.448c-.164-.111-.374-.166-.63-.166Zm2.008-3.455v.112c-.103.1-.238.222-.406.368a35.77 35.77 0 0 1-.54.46c-.191.156-.38.308-.565.454-.185.142-.348.261-.486.357h-1.084v-.144a25.682 25.682 0 0 0 .87-1.063c.153-.199.281-.381.385-.544h1.826Zm4.497 7.188c.178 0 .35-.018.518-.053.17-.036.34-.08.507-.134v1.213a3.003 3.003 0 0 1-.651.192c-.257.053-.538.08-.844.08-.356 0-.677-.057-.961-.171a1.373 1.373 0 0 1-.668-.603c-.16-.289-.24-.689-.24-1.202v-2.879h-.78v-.689l.897-.544.47-1.261H57.7v1.271h1.672v1.223H57.7v2.879c0 .228.065.399.193.513.131.11.304.165.518.165Zm4.684-4.903c.8 0 1.415.175 1.842.524.427.349.641.879.641 1.591v3.979h-1.138l-.315-.812h-.042c-.171.214-.346.388-.524.524a1.798 1.798 0 0 1-.614.299 3.204 3.204 0 0 1-.844.096 2.17 2.17 0 0 1-.95-.203 1.507 1.507 0 0 1-.657-.62c-.16-.281-.24-.637-.24-1.068 0-.633.222-1.1.667-1.399.445-.303 1.113-.47 2.003-.502l1.036-.032v-.262c0-.313-.082-.543-.246-.689-.164-.146-.392-.219-.684-.219-.288 0-.571.041-.849.123a6.542 6.542 0 0 0-.833.31l-.54-1.1a4.64 4.64 0 0 1 1.064-.395 5.163 5.163 0 0 1 1.223-.145Zm.865 3.328-.63.021c-.527.014-.894.109-1.1.283a.865.865 0 0 0-.305.689c0 .249.073.427.219.534.146.103.336.155.571.155.35 0 .643-.103.882-.31.242-.206.363-.5.363-.881v-.491Zm10.313-3.317c.676 0 1.187.175 1.532.524.35.345.524.9.524 1.666v3.893h-1.635v-3.487c0-.428-.073-.75-.219-.967-.146-.217-.372-.326-.678-.326-.43 0-.737.155-.918.465-.182.306-.273.746-.273 1.319v2.996h-1.629v-3.487a2.29 2.29 0 0 0-.096-.716.852.852 0 0 0-.294-.433.84.84 0 0 0-.507-.144c-.302 0-.541.077-.716.23-.17.149-.293.372-.368.667-.071.292-.107.65-.107 1.074v2.809H67.26v-5.971h1.245l.219.764h.09c.121-.207.273-.374.454-.502.186-.128.388-.223.61-.283.22-.061.444-.091.672-.091.438 0 .808.071 1.11.214.307.142.542.363.706.662h.144c.178-.306.43-.529.753-.668a2.578 2.578 0 0 1 1.01-.208Zm9.159 3.087c0 .498-.068.94-.203 1.324a2.61 2.61 0 0 1-.582.978 2.45 2.45 0 0 1-.919.598 3.385 3.385 0 0 1-1.207.203c-.42 0-.806-.068-1.159-.203a2.578 2.578 0 0 1-.913-.598 2.788 2.788 0 0 1-.598-.978 3.884 3.884 0 0 1-.209-1.324c0-.662.118-1.223.353-1.682.235-.46.57-.809 1.004-1.047.434-.239.952-.358 1.554-.358.559 0 1.054.119 1.485.358a2.51 2.51 0 0 1 1.02 1.047c.249.459.374 1.02.374 1.682Zm-4.129 0c0 .392.043.721.128.988.086.267.22.468.401.603.182.136.418.203.71.203.289 0 .522-.067.7-.203.182-.135.313-.336.395-.603.086-.267.128-.596.128-.988 0-.395-.042-.723-.128-.983-.082-.263-.213-.461-.395-.592-.182-.132-.418-.198-.71-.198-.431 0-.745.148-.94.443-.192.296-.289.739-.289 1.33Zm7.103 2.996h-1.629v-8.31h1.63v8.31Zm8.22 0h-1.65v-4.518a24.411 24.411 0 0 1 .02-1.025l.022-.529c-.04.046-.12.126-.24.24-.118.111-.228.21-.331.299l-.898.721-.795-.993 2.515-2.003h1.356v7.808Zm5.687-4.385h3.098v4.049a9.62 9.62 0 0 1-1.277.325 8.565 8.565 0 0 1-1.5.118c-.776 0-1.435-.153-1.976-.459a2.961 2.961 0 0 1-1.234-1.357c-.281-.598-.422-1.333-.422-2.206 0-.818.157-1.527.47-2.125a3.318 3.318 0 0 1 1.383-1.389c.61-.327 1.351-.491 2.227-.491.413 0 .821.044 1.223.133.403.089.768.205 1.095.348l-.55 1.324a4.207 4.207 0 0 0-.817-.304 3.701 3.701 0 0 0-.961-.123c-.481 0-.899.11-1.255.331-.353.221-.627.53-.823.929-.192.395-.288.862-.288 1.399 0 .51.07.962.208 1.357.139.392.358.7.657.924.299.221.689.331 1.17.331.235 0 .432-.011.592-.032.164-.025.317-.05.46-.075v-1.629h-1.48v-1.378Zm11.119-2.157c-.316 0-.598.062-.843.187a1.688 1.688 0 0 0-.615.528 2.564 2.564 0 0 0-.373.839 4.36 4.36 0 0 0-.129 1.105c0 .552.068 1.024.203 1.416.139.388.353.685.641.892.289.203.661.304 1.116.304.317 0 .634-.036.951-.107a8.972 8.972 0 0 0 1.042-.304v1.388a5.03 5.03 0 0 1-1.021.305c-.334.064-.71.096-1.126.096-.805 0-1.467-.166-1.987-.497a2.99 2.99 0 0 1-1.148-1.399c-.25-.602-.374-1.303-.374-2.104 0-.591.08-1.132.24-1.624.16-.491.395-.917.705-1.276.31-.36.693-.637 1.148-.833.456-.196.979-.294 1.57-.294.389 0 .777.05 1.165.149.391.097.765.23 1.121.401l-.534 1.346a8.796 8.796 0 0 0-.881-.363 2.614 2.614 0 0 0-.871-.155Zm6.153-1.266c1.007 0 1.743.217 2.206.652.462.43.694 1.025.694 1.783 0 .342-.052.67-.155.983a2.15 2.15 0 0 1-.507.828c-.232.242-.542.434-.93.577-.388.139-.867.208-1.436.208h-.711v2.777h-1.655v-7.808h2.494Zm-.086 1.357h-.753v2.317h.545c.31 0 .579-.041.807-.122.227-.082.404-.21.528-.385.125-.174.187-.399.187-.673 0-.384-.107-.669-.32-.854-.214-.189-.545-.283-.994-.283Zm6.735-1.357c.708 0 1.292.086 1.752.256.462.171.806.429 1.03.775.225.345.337.781.337 1.308 0 .356-.068.668-.203.935a2.12 2.12 0 0 1-.534.678 3.138 3.138 0 0 1-.716.454l2.297 3.402h-1.838l-1.863-2.996h-.882v2.996h-1.655v-7.808h2.275Zm-.118 1.357h-.502v2.109h.534c.549 0 .94-.091 1.175-.272.239-.185.358-.456.358-.812 0-.37-.128-.634-.384-.79-.253-.157-.647-.235-1.181-.235Zm11.44 6.451h-1.65v-4.518a29.143 29.143 0 0 1 .021-1.025l.021-.529a3.668 3.668 0 0 1-.24.24 9.54 9.54 0 0 1-.331.299l-.897.721-.796-.993 2.515-2.003h1.357v7.808Zm5.415-8.31-.219 1.965 1.992-.555.177 1.346-1.816.128 1.191 1.586-1.212.646-.834-1.671-.731 1.661-1.261-.636 1.181-1.586-1.806-.139.209-1.335 1.949.555-.219-1.965h1.399Zm5.416.401c.448 0 .861.069 1.239.208.381.139.685.349.913.63.228.278.342.627.342 1.047 0 .313-.062.587-.187.822a2.022 2.022 0 0 1-.497.62 3.65 3.65 0 0 1-.715.459c.277.146.541.317.79.513.249.192.452.418.609.678.16.26.24.563.24.908 0 .434-.116.812-.347 1.132a2.243 2.243 0 0 1-.961.737c-.41.175-.885.262-1.426.262-.584 0-1.081-.084-1.49-.251-.41-.167-.721-.406-.935-.716-.213-.313-.32-.687-.32-1.121 0-.356.066-.666.197-.93.136-.263.317-.489.545-.678a3.71 3.71 0 0 1 .753-.491 3.969 3.969 0 0 1-.635-.497 2.229 2.229 0 0 1-.454-.635 1.932 1.932 0 0 1-.166-.823c0-.413.116-.758.347-1.036.235-.278.543-.486.924-.625a3.504 3.504 0 0 1 1.234-.213Zm-1.218 5.832c0 .281.1.514.299.699.203.182.502.273.897.273.41 0 .716-.088.919-.262a.885.885 0 0 0 .304-.7.818.818 0 0 0-.176-.523 1.812 1.812 0 0 0-.432-.401 7.794 7.794 0 0 0-.529-.336l-.144-.075a3.145 3.145 0 0 0-.598.347c-.168.128-.3.273-.396.433a1.04 1.04 0 0 0-.144.545Zm1.207-4.625c-.271 0-.495.069-.673.208-.178.139-.267.335-.267.587 0 .178.043.335.128.47.089.132.205.248.347.347.146.1.305.193.476.278.164-.078.317-.165.459-.262.142-.096.258-.211.347-.347a.863.863 0 0 0 .134-.486c0-.252-.091-.448-.273-.587-.178-.139-.404-.208-.678-.208Z"/><path fill="#262939" stroke="#262939" stroke-width=".911" d="m255.404 212.057 2.901 2.9-2.901 2.9a.15.15 0 0 1-.214 0 .15.15 0 0 1 0-.214l2.365-2.361.322-.323-.322-.322-2.366-2.366a.151.151 0 1 1 .215-.214Z"/><path fill="#495574" d="M23.948 242.93c0 .733-.134 1.346-.4 1.839a2.598 2.598 0 0 1-1.162 1.108c-.505.246-1.117.369-1.838.369H18.78v-6.507h1.962c.662 0 1.232.122 1.71.365.477.241.845.598 1.103 1.073.261.472.392 1.056.392 1.753Zm-.797.027c0-.584-.098-1.066-.294-1.446a1.844 1.844 0 0 0-.854-.846c-.374-.187-.832-.28-1.375-.28h-1.09v5.211h.92c.897 0 1.569-.221 2.017-.663.45-.442.676-1.101.676-1.976Zm4.01-1.678c.415 0 .771.092 1.068.276.297.184.524.442.681.775.157.329.236.715.236 1.157v.458h-3.37c.01.573.152 1.009.428 1.309.276.299.665.449 1.166.449.309 0 .582-.028.82-.084a4.56 4.56 0 0 0 .738-.25v.65c-.246.11-.491.19-.734.24a4.17 4.17 0 0 1-.855.076c-.469 0-.878-.095-1.228-.285a1.991 1.991 0 0 1-.81-.845c-.193-.371-.29-.825-.29-1.362 0-.525.088-.979.263-1.362.178-.386.427-.682.748-.89.323-.208.703-.312 1.139-.312Zm-.009.606c-.395 0-.709.129-.943.387-.235.258-.374.618-.419 1.081h2.582a2.08 2.08 0 0 0-.138-.765 1.069 1.069 0 0 0-.397-.516c-.177-.125-.406-.187-.685-.187Zm5.541-.606c.608 0 1.093.209 1.455.628.362.418.543 1.047.543 1.887 0 .555-.083 1.021-.249 1.397-.166.377-.4.662-.703.855-.3.193-.654.289-1.064.289-.258 0-.485-.034-.68-.102a1.596 1.596 0 0 1-.504-.276 1.818 1.818 0 0 1-.347-.378h-.053c.009.115.02.255.031.418.015.163.022.305.022.427v2.003h-.743v-7.059h.61l.098.721h.035c.095-.148.21-.283.347-.405.137-.124.303-.222.499-.293a1.99 1.99 0 0 1 .703-.112Zm-.129.623c-.338 0-.611.066-.819.196a1.128 1.128 0 0 0-.45.588c-.094.258-.145.583-.15.974v.143c0 .412.044.761.133 1.046.092.284.242.501.45.649.21.149.492.223.845.223.303 0 .555-.082.756-.245.202-.163.352-.39.45-.681.1-.294.151-.63.151-1.01 0-.576-.112-1.033-.338-1.371-.222-.341-.565-.512-1.028-.512Zm7.446-.534v4.878h-.606l-.106-.685h-.04c-.101.169-.232.311-.392.427-.16.116-.341.202-.543.258-.199.059-.411.089-.636.089-.386 0-.71-.062-.97-.187a1.254 1.254 0 0 1-.593-.578c-.13-.261-.196-.597-.196-1.006v-3.196h.748v3.142c0 .407.092.711.276.913.184.199.465.298.841.298.362 0 .65-.068.864-.205.216-.136.372-.337.467-.601.095-.267.142-.593.142-.979v-2.568h.744Zm2.3 0v4.878h-.738v-4.878h.739Zm-.36-1.824c.122 0 .226.04.312.12.089.077.133.199.133.365 0 .163-.044.285-.133.365a.441.441 0 0 1-.312.12.453.453 0 0 1-.32-.12c-.083-.08-.125-.202-.125-.365 0-.166.042-.288.125-.365a.453.453 0 0 1 .32-.12Zm5.083 5.367c0 .311-.08.574-.236.788-.155.21-.377.369-.668.476-.288.107-.632.16-1.032.16-.342 0-.637-.027-.886-.08a2.546 2.546 0 0 1-.654-.227v-.681c.198.098.436.187.712.267.276.08.558.12.845.12.422 0 .727-.068.917-.204a.65.65 0 0 0 .285-.557.562.562 0 0 0-.116-.351 1.084 1.084 0 0 0-.378-.299 5.786 5.786 0 0 0-.739-.32 8.541 8.541 0 0 1-.81-.352 1.504 1.504 0 0 1-.525-.431c-.122-.169-.182-.389-.182-.659 0-.412.166-.728.498-.948.335-.222.775-.334 1.317-.334.294 0 .569.03.824.089.258.057.498.134.72.232l-.248.592a4.532 4.532 0 0 0-.646-.218 2.739 2.739 0 0 0-.698-.089c-.342 0-.604.056-.788.169a.52.52 0 0 0-.272.463c0 .151.042.275.125.373.086.098.222.19.41.276.186.086.432.187.738.303.306.113.57.23.792.352.223.118.393.264.512.436.122.169.183.387.183.654Zm4.299 1.335h-.743v-6.925h.743v6.925Zm3.44-4.967c.415 0 .771.092 1.068.276.297.184.524.442.681.775.157.329.236.715.236 1.157v.458h-3.37c.01.573.152 1.009.428 1.309.276.299.665.449 1.166.449.309 0 .582-.028.82-.084.236-.057.483-.14.738-.25v.65c-.246.11-.491.19-.735.24-.24.051-.525.076-.854.076-.469 0-.878-.095-1.228-.285a1.99 1.99 0 0 1-.81-.845c-.193-.371-.29-.825-.29-1.362 0-.525.088-.979.263-1.362.178-.386.427-.682.748-.89.323-.208.703-.312 1.139-.312Zm-.009.606c-.395 0-.709.129-.943.387-.235.258-.374.618-.419 1.081h2.581a2.078 2.078 0 0 0-.137-.765 1.07 1.07 0 0 0-.396-.516c-.178-.125-.407-.187-.686-.187Zm8.038 4.361h-.721v-5.06l.009-.347c.006-.107.013-.215.022-.325a3.948 3.948 0 0 1-.258.245c-.08.065-.18.146-.298.244l-.744.597-.387-.503 1.763-1.358h.614v6.507Zm5.216 0h-.721v-5.06l.009-.347c.006-.107.013-.215.022-.325a3.948 3.948 0 0 1-.258.245c-.08.065-.18.146-.298.244l-.744.597-.387-.503 1.763-1.358h.614v6.507Zm6.898.089c-.617 0-1.107-.211-1.469-.632-.359-.421-.538-1.047-.538-1.878 0-.84.184-1.473.552-1.9.368-.431.857-.646 1.468-.646.258 0 .484.034.677.103.193.068.359.16.498.276.14.112.257.241.352.387h.053a7.403 7.403 0 0 1-.053-.77v-1.954h.739v6.925h-.597l-.111-.694h-.031a1.71 1.71 0 0 1-.855.681 2.065 2.065 0 0 1-.685.102Zm.116-.614c.522 0 .891-.148 1.108-.445.217-.297.325-.737.325-1.322v-.133c0-.621-.104-1.097-.312-1.429-.204-.332-.578-.499-1.121-.499-.454 0-.794.176-1.02.526-.225.347-.338.822-.338 1.424 0 .599.112 1.062.334 1.388.226.327.567.49 1.024.49Zm5.607-4.442c.416 0 .772.092 1.069.276.296.184.523.442.68.775.158.329.236.715.236 1.157v.458h-3.369c.01.573.152 1.009.427 1.309.276.299.665.449 1.166.449.31 0 .582-.028.82-.084.237-.057.483-.14.738-.25v.65c-.246.11-.49.19-.734.24-.24.051-.525.076-.855.076-.468 0-.878-.095-1.228-.285a1.99 1.99 0 0 1-.81-.845c-.193-.371-.29-.825-.29-1.362 0-.525.088-.979.263-1.362.178-.386.428-.682.748-.89.323-.208.703-.312 1.14-.312Zm-.009.606c-.394 0-.709.129-.943.387-.234.258-.374.618-.418 1.081h2.58a2.078 2.078 0 0 0-.137-.765 1.068 1.068 0 0 0-.396-.516c-.178-.125-.407-.187-.686-.187Zm1.233-2.622v.089c-.06.086-.14.19-.244.312a8.864 8.864 0 0 1-1.064 1.059h-.494v-.107c.095-.113.199-.248.311-.405.113-.16.223-.323.33-.489.107-.169.196-.322.267-.459h.894Zm3.97 7.072c-.439 0-.826-.09-1.161-.271a1.861 1.861 0 0 1-.784-.828c-.187-.371-.28-.838-.28-1.402 0-.591.098-1.073.294-1.446.198-.377.471-.656.819-.837a2.522 2.522 0 0 1 1.183-.272c.244 0 .478.026.703.076.229.047.416.108.561.182l-.222.619a3.806 3.806 0 0 0-.516-.16 2.25 2.25 0 0 0-.544-.071c-.338 0-.62.072-.845.218-.223.145-.39.359-.503.641-.11.281-.165.629-.165 1.041 0 .395.054.731.16 1.01.11.279.272.493.486.641.216.146.486.218.81.218.258 0 .49-.026.698-.08.208-.056.397-.122.566-.196v.659a2.269 2.269 0 0 1-.548.191 3.269 3.269 0 0 1-.712.067Zm4.295-5.056c.415 0 .771.092 1.068.276.297.184.524.442.68.775.158.329.237.715.237 1.157v.458h-3.37c.01.573.152 1.009.428 1.309.276.299.665.449 1.166.449.309 0 .582-.028.819-.084a4.56 4.56 0 0 0 .739-.25v.65c-.247.11-.491.19-.735.24a4.17 4.17 0 0 1-.854.076c-.469 0-.878-.095-1.229-.285a1.991 1.991 0 0 1-.81-.845c-.192-.371-.289-.825-.289-1.362 0-.525.088-.979.263-1.362.178-.386.427-.682.748-.89.323-.208.703-.312 1.139-.312Zm-.009.606c-.395 0-.71.129-.944.387-.234.258-.373.618-.418 1.081h2.581a2.08 2.08 0 0 0-.138-.765 1.068 1.068 0 0 0-.396-.516c-.178-.125-.406-.187-.685-.187Zm8.545-.606c.537 0 .942.141 1.215.423.273.279.409.729.409 1.349v3.195h-.73v-3.16c0-.394-.086-.69-.258-.885-.169-.199-.421-.299-.756-.299-.472 0-.815.137-1.028.41-.214.273-.32.675-.32 1.206v2.728h-.735v-3.16c0-.264-.039-.483-.116-.658a.788.788 0 0 0-.338-.392 1.085 1.085 0 0 0-.565-.134c-.324 0-.583.067-.78.201a1.127 1.127 0 0 0-.426.596c-.086.261-.13.583-.13.966v2.581h-.738v-4.878h.596l.112.69h.04c.097-.169.22-.311.369-.427.148-.116.314-.203.498-.263.184-.059.38-.089.588-.089.37 0 .68.07.93.209.252.137.435.346.547.628h.04c.16-.282.38-.491.66-.628.278-.139.584-.209.916-.209Zm3.881-1.958v1.731c0 .199-.006.392-.018.579l-.022.436h.04c.133-.219.326-.405.578-.556.253-.152.574-.227.966-.227.611 0 1.098.212 1.46.636.365.422.547 1.049.547 1.883 0 .549-.083 1.012-.249 1.388-.166.377-.4.662-.703.855-.303.193-.66.289-1.073.289-.385 0-.703-.071-.952-.214a1.668 1.668 0 0 1-.57-.529h-.058l-.151.654h-.534v-6.925h.739Zm1.424 2.581c-.353 0-.634.07-.841.21-.208.136-.358.344-.45.623-.089.276-.133.626-.133 1.05v.04c0 .614.102 1.084.307 1.411.205.323.577.485 1.117.485.454 0 .794-.166 1.019-.499.229-.332.343-.807.343-1.424 0-.629-.113-1.102-.338-1.419-.223-.318-.564-.477-1.024-.477Zm5.634-.623c.098 0 .201.006.307.018.107.009.202.022.285.04l-.093.686a2.277 2.277 0 0 0-.543-.067 1.328 1.328 0 0 0-1.01.458 1.588 1.588 0 0 0-.308.53 2.005 2.005 0 0 0-.111.685v2.617h-.743v-4.878H108l.08.899h.031c.101-.181.223-.345.365-.494.143-.151.307-.271.494-.36.19-.089.401-.134.632-.134Zm3.392 0c.415 0 .771.092 1.068.276.296.184.523.442.681.775.157.329.236.715.236 1.157v.458h-3.37c.009.573.152 1.009.428 1.309.276.299.664.449 1.166.449.308 0 .581-.028.819-.084a4.56 4.56 0 0 0 .738-.25v.65c-.246.11-.491.19-.734.24-.24.051-.525.076-.854.076-.469 0-.879-.095-1.229-.285a1.992 1.992 0 0 1-.81-.845c-.193-.371-.289-.825-.289-1.362 0-.525.088-.979.263-1.362.178-.386.427-.682.747-.89.324-.208.703-.312 1.14-.312Zm-.009.606c-.395 0-.709.129-.944.387-.234.258-.374.618-.418 1.081h2.581a2.08 2.08 0 0 0-.138-.765 1.068 1.068 0 0 0-.396-.516c-.178-.125-.406-.187-.685-.187Zm9.55 4.361h-4.263v-.619l1.74-1.766c.323-.327.595-.618.814-.873.223-.255.392-.506.508-.752.116-.249.173-.522.173-.819 0-.368-.109-.648-.329-.841-.217-.196-.503-.294-.859-.294-.311 0-.587.054-.828.161a3.56 3.56 0 0 0-.738.454l-.397-.499c.173-.145.359-.274.561-.387.205-.113.423-.202.654-.267.235-.065.484-.098.748-.098.401 0 .746.07 1.037.209.291.14.515.338.672.597.16.258.24.565.24.921 0 .344-.068.664-.204.961a3.955 3.955 0 0 1-.574.877c-.247.288-.534.593-.864.917l-1.415 1.41v.032h3.324v.676Zm5.252-3.262c0 .528-.04 1-.12 1.415-.08.416-.206.767-.378 1.055a1.78 1.78 0 0 1-.668.659c-.273.148-.601.222-.984.222-.483 0-.884-.132-1.201-.396-.315-.264-.551-.645-.708-1.144-.154-.501-.231-1.105-.231-1.811 0-.694.07-1.291.209-1.789.142-.502.371-.886.685-1.153.315-.27.73-.405 1.246-.405.49 0 .894.134 1.211.401.317.264.553.646.708 1.148.154.498.231 1.098.231 1.798Zm-3.547 0c0 .605.046 1.11.138 1.513.092.404.24.706.445.908.208.199.479.298.814.298.336 0 .606-.099.81-.298.208-.199.358-.5.45-.904.095-.403.142-.909.142-1.517 0-.596-.046-1.095-.138-1.496-.092-.403-.24-.706-.445-.907-.204-.205-.477-.307-.819-.307-.341 0-.614.102-.818.307-.205.201-.353.504-.445.907-.089.401-.134.9-.134 1.496Zm8.727 3.262h-4.263v-.619l1.74-1.766c.323-.327.595-.618.814-.873.223-.255.392-.506.508-.752.116-.249.173-.522.173-.819 0-.368-.109-.648-.329-.841-.217-.196-.503-.294-.859-.294-.311 0-.587.054-.828.161a3.56 3.56 0 0 0-.738.454l-.397-.499c.173-.145.359-.274.561-.387.205-.113.423-.202.654-.267.235-.065.484-.098.748-.098.401 0 .746.07 1.037.209.291.14.515.338.672.597.16.258.24.565.24.921 0 .344-.068.664-.204.961a3.955 3.955 0 0 1-.574.877c-.247.288-.534.593-.864.917l-1.415 1.41v.032h3.324v.676Zm4.976-4.989c0 .291-.056.543-.169.757-.113.213-.27.388-.472.525a1.952 1.952 0 0 1-.712.28v.036c.516.065.904.231 1.162.498.261.267.391.617.391 1.051 0 .376-.089.71-.267 1.001-.175.291-.445.519-.81.685-.362.164-.826.245-1.393.245a5.1 5.1 0 0 1-.956-.084 3.333 3.333 0 0 1-.837-.272v-.694c.27.133.564.239.881.316.317.074.625.111.921.111.594 0 1.022-.117 1.286-.352.265-.237.397-.56.397-.97 0-.282-.075-.509-.223-.681-.145-.175-.356-.302-.632-.382a3.389 3.389 0 0 0-.988-.125h-.65v-.632h.655c.353 0 .652-.052.899-.156.246-.104.433-.249.56-.436.131-.19.196-.414.196-.672 0-.329-.11-.583-.329-.761-.22-.181-.518-.271-.895-.271a2.516 2.516 0 0 0-1.166.267 4.735 4.735 0 0 0-.498.289l-.374-.508c.237-.183.527-.342.868-.476.341-.133.728-.2 1.161-.2.665 0 1.163.151 1.496.454.332.303.498.688.498 1.157ZM16.021 127.594c-.148 0-.279-.01-.391-.031a1.34 1.34 0 0 1-.29-.084v-.646c.095.03.198.052.308.067.11.018.228.027.356.027.166 0 .319-.033.458-.098a.727.727 0 0 0 .334-.334c.083-.157.124-.374.124-.65v-6.471h.761v6.413c0 .407-.068.744-.204 1.011a1.318 1.318 0 0 1-.574.596c-.247.134-.54.2-.882.2Zm5.154-6.68c.415 0 .771.092 1.068.276.297.184.524.442.681.774.157.33.236.715.236 1.158v.458h-3.37c.01.573.152 1.009.428 1.308.276.3.665.45 1.166.45.309 0 .582-.028.82-.085.236-.056.483-.139.738-.249v.65c-.246.11-.491.19-.734.24a4.17 4.17 0 0 1-.855.076c-.469 0-.878-.095-1.228-.285a1.994 1.994 0 0 1-.81-.846c-.193-.37-.29-.824-.29-1.361 0-.526.088-.98.263-1.362a2.05 2.05 0 0 1 .748-.89c.323-.208.703-.312 1.139-.312Zm-.009.605c-.395 0-.709.129-.943.388-.235.258-.374.618-.419 1.081h2.582a2.08 2.08 0 0 0-.138-.765 1.076 1.076 0 0 0-.396-.517c-.178-.124-.407-.187-.686-.187Zm7.909-.605c.608 0 1.093.209 1.455.628.362.418.543 1.047.543 1.887 0 .554-.083 1.02-.25 1.397-.165.377-.4.662-.702.855a1.93 1.93 0 0 1-1.064.289c-.258 0-.485-.034-.681-.102a1.637 1.637 0 0 1-.503-.276 1.798 1.798 0 0 1-.347-.379h-.053l.03.419c.015.163.023.305.023.427v2.003h-.743v-7.059h.61l.097.721h.036c.095-.148.21-.283.347-.405.136-.125.303-.222.498-.294.2-.074.434-.111.704-.111Zm-.13.623c-.338 0-.61.065-.818.196a1.126 1.126 0 0 0-.45.587c-.095.259-.145.583-.151.975v.143c0 .412.044.761.133 1.045.092.285.242.502.45.65.21.149.492.223.845.223.303 0 .555-.082.757-.245.202-.163.352-.39.45-.681.1-.294.15-.63.15-1.01 0-.576-.112-1.033-.337-1.371-.223-.341-.566-.512-1.028-.512Zm5.297-.623c.415 0 .771.092 1.068.276.297.184.523.442.68.774.158.33.237.715.237 1.158v.458h-3.37c.01.573.152 1.009.428 1.308.276.3.665.45 1.166.45.309 0 .581-.028.819-.085.237-.056.483-.139.739-.249v.65c-.247.11-.491.19-.735.24a4.17 4.17 0 0 1-.854.076c-.469 0-.879-.095-1.229-.285a1.994 1.994 0 0 1-.81-.846c-.192-.37-.289-.824-.289-1.361 0-.526.088-.98.263-1.362a2.05 2.05 0 0 1 .747-.89c.324-.208.704-.312 1.14-.312Zm-.01.605c-.394 0-.708.129-.943.388-.234.258-.373.618-.418 1.081h2.581a2.08 2.08 0 0 0-.138-.765 1.076 1.076 0 0 0-.396-.517c-.178-.124-.406-.187-.685-.187Zm7.277-.516v4.878h-.605l-.107-.686h-.04c-.1.17-.231.312-.391.428-.16.115-.342.201-.543.258-.2.059-.411.089-.637.089-.385 0-.709-.062-.97-.187a1.26 1.26 0 0 1-.592-.579c-.13-.261-.196-.596-.196-1.005v-3.196h.748v3.142c0 .407.092.711.276.913.184.198.464.298.841.298.362 0 .65-.069.864-.205.216-.137.372-.337.467-.601.095-.267.142-.593.142-.979v-2.568h.743Zm2.724 2.381-1.687-2.381h.846l1.286 1.878 1.282-1.878h.837l-1.687 2.381 1.78 2.497h-.846l-1.366-1.99-1.375 1.99h-.837l1.767-2.497Zm8.194-2.47c.097 0 .2.006.307.018.106.009.201.022.284.04l-.093.685a2.214 2.214 0 0 0-.543-.066c-.196 0-.381.04-.556.12a1.32 1.32 0 0 0-.454.338c-.13.145-.233.322-.307.53a1.996 1.996 0 0 0-.112.685v2.617h-.743v-4.878h.614l.08.899h.032c.1-.181.222-.346.364-.494.143-.151.308-.271.495-.36.19-.089.4-.134.631-.134Zm3.39 0c.416 0 .772.092 1.069.276.297.184.524.442.68.774.158.33.237.715.237 1.158v.458h-3.37c.01.573.152 1.009.428 1.308.276.3.665.45 1.166.45.309 0 .581-.028.819-.085.237-.056.484-.139.739-.249v.65c-.247.11-.491.19-.735.24-.24.051-.525.076-.854.076-.469 0-.878-.095-1.229-.285a1.994 1.994 0 0 1-.81-.846c-.192-.37-.289-.824-.289-1.361 0-.526.088-.98.263-1.362a2.05 2.05 0 0 1 .748-.89c.323-.208.703-.312 1.139-.312Zm-.008.605c-.395 0-.71.129-.944.388-.234.258-.373.618-.418 1.081h2.581a2.08 2.08 0 0 0-.138-.765 1.076 1.076 0 0 0-.396-.517c-.178-.124-.406-.187-.685-.187Zm5.559-.605c.578 0 1.016.143 1.313.427.296.282.445.736.445 1.362v3.178h-.73v-3.129c0-.406-.094-.71-.28-.912-.185-.202-.468-.303-.85-.303-.54 0-.92.153-1.14.459-.22.305-.33.749-.33 1.33v2.555h-.738v-4.878h.596l.111.703h.04c.104-.172.236-.316.397-.431.16-.119.34-.208.538-.267.199-.063.408-.094.628-.094Zm6.435 3.632c0 .311-.079.574-.236.787-.154.211-.377.37-.667.477-.288.106-.632.16-1.033.16-.341 0-.636-.027-.886-.08a2.584 2.584 0 0 1-.654-.227v-.681c.199.098.436.187.712.267.276.08.558.12.846.12.421 0 .727-.068.917-.205a.649.649 0 0 0 .284-.556.563.563 0 0 0-.115-.352 1.094 1.094 0 0 0-.379-.298 5.646 5.646 0 0 0-.738-.32 8.541 8.541 0 0 1-.81-.352 1.503 1.503 0 0 1-.525-.431c-.122-.17-.183-.389-.183-.659 0-.413.166-.729.499-.948.335-.223.774-.334 1.317-.334.294 0 .568.03.823.089.258.056.499.134.721.232l-.249.591a4.67 4.67 0 0 0-.645-.218 2.784 2.784 0 0 0-.7-.089c-.34 0-.603.057-.787.169a.523.523 0 0 0-.271.463c0 .152.041.276.124.374.086.098.223.19.41.276.187.086.433.187.739.303.305.112.57.23.792.351.222.119.393.264.512.436.121.17.182.388.182.655Zm3.066-3.632c.416 0 .772.092 1.069.276.296.184.523.442.68.774.158.33.236.715.236 1.158v.458h-3.369c.01.573.152 1.009.428 1.308.276.3.664.45 1.166.45.308 0 .581-.028.819-.085.237-.056.483-.139.738-.249v.65c-.246.11-.49.19-.734.24a4.17 4.17 0 0 1-.855.076c-.468 0-.878-.095-1.228-.285a1.994 1.994 0 0 1-.81-.846c-.193-.37-.29-.824-.29-1.361 0-.526.088-.98.263-1.362a2.05 2.05 0 0 1 .748-.89c.323-.208.703-.312 1.14-.312Zm-.008.605c-.395 0-.71.129-.944.388-.234.258-.374.618-.418 1.081h2.581a2.08 2.08 0 0 0-.138-.765 1.076 1.076 0 0 0-.396-.517c-.178-.124-.407-.187-.686-.187Zm3.987-.516v4.878h-.739v-4.878h.74Zm-.36-1.825c.121 0 .225.04.311.121.09.077.134.198.134.364 0 .164-.045.285-.134.365a.437.437 0 0 1-.311.121.449.449 0 0 1-.32-.121c-.084-.08-.125-.201-.125-.365 0-.166.041-.287.124-.364a.449.449 0 0 1 .32-.121Zm3.289 8.893c-.641 0-1.135-.121-1.482-.361-.347-.237-.521-.571-.521-1.001 0-.306.096-.567.29-.784.195-.216.465-.36.81-.431a.9.9 0 0 1-.33-.267.667.667 0 0 1-.134-.41c0-.178.05-.334.147-.467.101-.137.254-.267.459-.392a1.335 1.335 0 0 1-.624-.525 1.59 1.59 0 0 1-.235-.868c0-.35.072-.648.218-.894.145-.25.356-.439.632-.57.276-.131.61-.196 1.001-.196.086 0 .172.005.258.014.09.005.174.016.254.031.08.012.15.026.209.044h1.673v.476l-.899.112a1.579 1.579 0 0 1 .312.961c0 .487-.165.874-.494 1.162-.33.284-.782.427-1.357.427-.137 0-.276-.012-.419-.036a1.08 1.08 0 0 0-.334.267.545.545 0 0 0-.11.338c0 .095.027.171.084.227.06.057.144.098.253.125.11.024.242.036.397.036h.858c.532 0 .938.111 1.22.333.285.223.427.548.427.975 0 .54-.22.954-.659 1.242-.439.288-1.074.432-1.904.432Zm.022-.579c.403 0 .737-.042 1.001-.125.267-.08.466-.197.597-.351a.795.795 0 0 0 .2-.543c0-.196-.045-.344-.134-.445a.685.685 0 0 0-.391-.196 3.144 3.144 0 0 0-.632-.054h-.846c-.22 0-.41.035-.574.103a.822.822 0 0 0-.378.302.904.904 0 0 0-.13.499c0 .264.112.464.335.601.222.139.54.209.952.209Zm.191-3.899c.353 0 .619-.089.797-.267.178-.178.267-.437.267-.779 0-.365-.09-.637-.272-.818-.18-.184-.448-.276-.8-.276-.339 0-.6.095-.784.284-.18.187-.271.462-.271.824 0 .332.092.587.275.765.184.178.447.267.788.267Zm5.684-2.679c.578 0 1.016.143 1.313.427.296.282.445.736.445 1.362v3.178h-.73v-3.129c0-.406-.094-.71-.28-.912-.185-.202-.468-.303-.85-.303-.54 0-.92.153-1.14.459-.22.305-.33.749-.33 1.33v2.555h-.738v-4.878h.596l.111.703h.04c.104-.172.236-.316.396-.431.16-.119.34-.208.539-.267.199-.063.408-.094.628-.094Zm5.158 0c.415 0 .771.092 1.068.276.296.184.523.442.68.774.158.33.237.715.237 1.158v.458h-3.37c.01.573.152 1.009.428 1.308.276.3.665.45 1.166.45.308 0 .581-.028.819-.085.237-.056.483-.139.739-.249v.65c-.247.11-.492.19-.735.24-.24.051-.525.076-.854.076-.47 0-.879-.095-1.229-.285a1.993 1.993 0 0 1-.81-.846c-.193-.37-.289-.824-.289-1.361 0-.526.088-.98.263-1.362.178-.386.427-.683.747-.89.324-.208.704-.312 1.14-.312Zm-.01.605c-.394 0-.708.129-.943.388-.234.258-.374.618-.418 1.081h2.581a2.078 2.078 0 0 0-.138-.765 1.077 1.077 0 0 0-.396-.517c-.178-.124-.406-.187-.685-.187Zm5.466-.605c.098 0 .2.006.307.018.107.009.202.022.285.04l-.093.685a2.214 2.214 0 0 0-.544-.066c-.195 0-.38.04-.556.12a1.32 1.32 0 0 0-.454.338 1.57 1.57 0 0 0-.307.53 1.996 1.996 0 0 0-.111.685v2.617h-.743v-4.878h.614l.08.899h.031c.101-.181.223-.346.365-.494.142-.151.307-.271.494-.36.19-.089.4-.134.632-.134Zm4.624 4.967h-.743v-6.925h.743v6.925Zm2.145-6.507.067.098a8.93 8.93 0 0 1-.205.699 15.034 15.034 0 0 1-.565 1.433h-.543c.045-.169.09-.35.134-.543.047-.193.092-.389.133-.588.042-.198.079-.391.111-.578.036-.187.066-.361.089-.521h.779Zm2.844 1.54c.416 0 .772.092 1.068.276.297.184.524.442.681.774.157.33.236.715.236 1.158v.458h-3.369c.009.573.151 1.009.427 1.308.276.3.665.45 1.166.45.309 0 .582-.028.819-.085.238-.056.484-.139.739-.249v.65c-.246.11-.491.19-.734.24a4.18 4.18 0 0 1-.855.076c-.469 0-.878-.095-1.228-.285a1.995 1.995 0 0 1-.81-.846c-.193-.37-.289-.824-.289-1.361 0-.526.087-.98.262-1.362.178-.386.427-.683.748-.89.323-.208.703-.312 1.139-.312Zm-.009.605c-.394 0-.709.129-.943.388-.235.258-.374.618-.419 1.081h2.582a2.08 2.08 0 0 0-.138-.765 1.076 1.076 0 0 0-.396-.517c-.178-.124-.407-.187-.686-.187Zm5.559-.605c.578 0 1.016.143 1.313.427.297.282.445.736.445 1.362v3.178h-.73v-3.129c0-.406-.093-.71-.28-.912-.184-.202-.468-.303-.85-.303-.54 0-.92.153-1.14.459-.219.305-.329.749-.329 1.33v2.555h-.739v-4.878h.596l.112.703h.04c.104-.172.236-.316.396-.431.16-.119.34-.208.538-.267.199-.063.408-.094.628-.094Zm6.435 3.632c0 .311-.078.574-.236.787-.154.211-.376.37-.667.477-.288.106-.632.16-1.033.16-.341 0-.636-.027-.885-.08a2.573 2.573 0 0 1-.654-.227v-.681c.198.098.436.187.712.267.276.08.557.12.845.12.421 0 .727-.068.917-.205a.649.649 0 0 0 .285-.556.564.564 0 0 0-.116-.352 1.09 1.09 0 0 0-.378-.298 5.62 5.62 0 0 0-.739-.32 8.43 8.43 0 0 1-.81-.352 1.502 1.502 0 0 1-.525-.431c-.122-.17-.183-.389-.183-.659 0-.413.167-.729.499-.948.335-.223.774-.334 1.317-.334.294 0 .568.03.824.089.258.056.498.134.721.232l-.25.591a4.648 4.648 0 0 0-.645-.218 2.78 2.78 0 0 0-.699-.089c-.341 0-.604.057-.787.169a.523.523 0 0 0-.272.463c0 .152.042.276.125.374.086.098.222.19.409.276.187.086.433.187.739.303.305.112.57.23.792.351.223.119.393.264.512.436.122.17.182.388.182.655Zm3.067-3.632c.415 0 .771.092 1.068.276.297.184.524.442.681.774.157.33.236.715.236 1.158v.458h-3.369c.009.573.151 1.009.427 1.308.276.3.665.45 1.166.45.309 0 .581-.028.819-.085.237-.056.483-.139.739-.249v.65a3.56 3.56 0 0 1-.735.24c-.24.051-.525.076-.854.076-.469 0-.878-.095-1.229-.285a1.995 1.995 0 0 1-.81-.846c-.192-.37-.289-.824-.289-1.361 0-.526.088-.98.263-1.362a2.05 2.05 0 0 1 .747-.89 2.064 2.064 0 0 1 1.14-.312Zm-.009.605c-.395 0-.709.129-.944.388-.234.258-.373.618-.418 1.081h2.581a2.08 2.08 0 0 0-.138-.765 1.076 1.076 0 0 0-.396-.517c-.178-.124-.406-.187-.685-.187Zm8.545-.605c.537 0 .942.141 1.215.423.273.279.409.728.409 1.348v3.196h-.73v-3.16c0-.395-.086-.69-.258-.886-.169-.198-.421-.298-.756-.298-.472 0-.815.137-1.028.41-.214.273-.321.675-.321 1.206v2.728h-.734v-3.16c0-.264-.039-.484-.116-.659a.786.786 0 0 0-.338-.391 1.084 1.084 0 0 0-.565-.134c-.324 0-.583.067-.779.2a1.132 1.132 0 0 0-.427.597c-.086.261-.129.583-.129.966v2.581h-.739v-4.878h.596l.111.69h.04c.098-.169.221-.312.37-.427.148-.116.314-.204.498-.263.184-.059.38-.089.588-.089.371 0 .681.07.93.209.252.137.435.346.547.628h.04c.161-.282.38-.491.659-.628.279-.139.585-.209.917-.209Zm3.881-1.958v1.731c0 .199-.006.392-.018.579l-.022.436h.04c.133-.22.326-.405.578-.556.252-.152.574-.227.966-.227.611 0 1.098.212 1.46.636.365.421.547 1.049.547 1.883 0 .548-.083 1.011-.249 1.388-.166.377-.401.662-.703.855a1.96 1.96 0 0 1-1.073.289c-.386 0-.703-.071-.952-.214a1.678 1.678 0 0 1-.57-.529h-.058l-.151.654h-.534v-6.925h.739Zm1.424 2.581c-.353 0-.634.07-.841.209-.208.137-.358.345-.45.623-.089.276-.133.626-.133 1.051v.04c0 .614.102 1.084.307 1.411.204.323.577.485 1.117.485.454 0 .794-.166 1.019-.499.228-.332.343-.807.343-1.424 0-.629-.113-1.102-.339-1.42-.222-.317-.563-.476-1.023-.476Zm4.161 4.344h-.743v-6.925h.743v6.925Zm3.44-4.967c.416 0 .772.092 1.068.276.297.184.524.442.681.774.158.33.236.715.236 1.158v.458h-3.369c.009.573.152 1.009.427 1.308.276.3.665.45 1.166.45.309 0 .582-.028.819-.085.238-.056.484-.139.739-.249v.65c-.246.11-.491.19-.734.24-.24.051-.525.076-.855.076-.468 0-.878-.095-1.228-.285a1.995 1.995 0 0 1-.81-.846c-.193-.37-.289-.824-.289-1.361 0-.526.087-.98.262-1.362.178-.386.428-.683.748-.89.323-.208.703-.312 1.139-.312Zm-.009.605c-.394 0-.709.129-.943.388-.234.258-.374.618-.418 1.081h2.581a2.08 2.08 0 0 0-.138-.765 1.076 1.076 0 0 0-.396-.517c-.178-.124-.407-.187-.686-.187Zm7.353 4.451c-.617 0-1.107-.211-1.469-.632-.359-.421-.539-1.047-.539-1.878 0-.84.184-1.473.552-1.901.368-.43.858-.645 1.469-.645.258 0 .484.034.676.102a1.655 1.655 0 0 1 .851.664h.053a7.27 7.27 0 0 1-.053-.77v-1.954h.738v6.925h-.596l-.111-.694h-.031c-.092.145-.21.277-.352.396-.14.118-.307.213-.503.285a2.063 2.063 0 0 1-.685.102Zm.115-.614c.523 0 .892-.149 1.109-.445.216-.297.324-.738.324-1.322v-.134c0-.62-.103-1.096-.311-1.428-.205-.333-.579-.499-1.122-.499-.454 0-.793.175-1.019.525-.225.348-.338.822-.338 1.425 0 .599.111 1.062.334 1.388.225.327.566.49 1.023.49Zm5.608-4.442c.415 0 .771.092 1.068.276.297.184.524.442.681.774.157.33.236.715.236 1.158v.458h-3.369c.009.573.151 1.009.427 1.308.276.3.665.45 1.166.45.309 0 .582-.028.819-.085.237-.056.484-.139.739-.249v.65c-.246.11-.491.19-.734.24a4.18 4.18 0 0 1-.855.076c-.469 0-.878-.095-1.228-.285a1.995 1.995 0 0 1-.81-.846c-.193-.37-.29-.824-.29-1.361 0-.526.088-.98.263-1.362.178-.386.427-.683.748-.89.323-.208.703-.312 1.139-.312Zm-.009.605c-.395 0-.709.129-.943.388-.235.258-.374.618-.419 1.081h2.582a2.08 2.08 0 0 0-.138-.765 1.072 1.072 0 0 0-.397-.517c-.178-.124-.406-.187-.685-.187Zm10.913-.605c.537 0 .942.141 1.215.423.273.279.409.728.409 1.348v3.196h-.73v-3.16c0-.395-.086-.69-.258-.886-.169-.198-.421-.298-.756-.298-.472 0-.815.137-1.028.41-.214.273-.321.675-.321 1.206v2.728h-.734v-3.16c0-.264-.039-.484-.116-.659a.786.786 0 0 0-.338-.391 1.086 1.086 0 0 0-.565-.134c-.324 0-.583.067-.779.2a1.132 1.132 0 0 0-.427.597c-.087.261-.13.583-.13.966v2.581h-.738v-4.878h.596l.111.69h.04c.098-.169.221-.312.37-.427.148-.116.314-.204.498-.263.184-.059.38-.089.588-.089.371 0 .681.07.93.209.252.137.434.346.547.628h.04c.161-.282.38-.491.659-.628.279-.139.584-.209.917-.209Zm5.02 0c.415 0 .771.092 1.068.276.297.184.524.442.681.774.157.33.236.715.236 1.158v.458h-3.369c.009.573.151 1.009.427 1.308.276.3.665.45 1.166.45.309 0 .582-.028.819-.085.237-.056.484-.139.739-.249v.65c-.246.11-.491.19-.735.24-.24.051-.525.076-.854.076-.469 0-.878-.095-1.228-.285a1.983 1.983 0 0 1-.81-.846c-.193-.37-.29-.824-.29-1.361 0-.526.088-.98.263-1.362.178-.386.427-.683.748-.89.323-.208.703-.312 1.139-.312Zm-.009.605c-.395 0-.709.129-.943.388-.235.258-.374.618-.419 1.081h2.581a2.06 2.06 0 0 0-.137-.765 1.084 1.084 0 0 0-.397-.517c-.178-.124-.406-.187-.685-.187Zm6.404 3.027c0 .311-.078.574-.236.787-.154.211-.376.37-.667.477-.288.106-.632.16-1.033.16-.341 0-.636-.027-.885-.08a2.58 2.58 0 0 1-.655-.227v-.681c.199.098.437.187.713.267.275.08.557.12.845.12.421 0 .727-.068.917-.205a.649.649 0 0 0 .285-.556.564.564 0 0 0-.116-.352 1.09 1.09 0 0 0-.378-.298 5.62 5.62 0 0 0-.739-.32 8.43 8.43 0 0 1-.81-.352 1.502 1.502 0 0 1-.525-.431c-.122-.17-.183-.389-.183-.659 0-.413.167-.729.499-.948.335-.223.774-.334 1.317-.334.294 0 .568.03.824.089.258.056.498.134.721.232l-.25.591a4.648 4.648 0 0 0-.645-.218 2.78 2.78 0 0 0-.699-.089c-.341 0-.604.057-.788.169a.524.524 0 0 0-.271.463c0 .152.042.276.125.374.086.098.222.19.409.276.187.086.433.187.739.303.305.112.57.23.792.351.223.119.393.264.512.436.122.17.182.388.182.655Zm5.132.819a2.314 2.314 0 0 0 .685-.107v.574a1.61 1.61 0 0 1-.36.098c-.152.027-.3.04-.445.04-.259 0-.493-.045-.704-.134a1.095 1.095 0 0 1-.507-.462c-.125-.217-.187-.517-.187-.9v-2.892h-.694v-.361l.699-.289.293-1.059h.445v1.13h1.429v.579h-1.429v2.87c0 .306.07.534.21.686.142.151.33.227.565.227Zm3.89-4.451c.097 0 .2.006.307.018.106.009.201.022.284.04l-.093.685a2.207 2.207 0 0 0-.543-.066c-.196 0-.381.04-.556.12-.172.077-.324.19-.454.338a1.56 1.56 0 0 0-.307.53 1.977 1.977 0 0 0-.112.685v2.617h-.743v-4.878h.614l.08.899h.032c.1-.181.222-.346.365-.494a1.64 1.64 0 0 1 .494-.36c.189-.089.4-.134.632-.134Zm3.337.009c.582 0 1.014.131 1.295.392.282.261.423.678.423 1.25v3.316h-.538l-.143-.721h-.035a2.713 2.713 0 0 1-.427.449c-.149.119-.321.21-.517.272-.193.059-.43.089-.712.089a1.91 1.91 0 0 1-.792-.156 1.238 1.238 0 0 1-.543-.472c-.131-.21-.196-.477-.196-.801 0-.486.193-.86.579-1.121.385-.261.973-.404 1.762-.428l.841-.035v-.298c0-.422-.09-.717-.271-.886-.181-.169-.436-.254-.766-.254-.255 0-.498.037-.73.112a4.929 4.929 0 0 0-.658.262l-.227-.561c.219-.112.472-.209.756-.289.285-.08.585-.12.899-.12Zm.988 2.555-.743.031c-.608.023-1.037.123-1.286.298a.856.856 0 0 0-.374.743c0 .279.085.485.254.619.169.133.393.2.672.2.433 0 .788-.12 1.064-.36.275-.241.413-.601.413-1.082v-.449Zm2.991-2.475v4.878h-.739v-4.878h.739Zm-.36-1.825c.121 0 .225.04.311.121.089.077.134.198.134.364 0 .164-.045.285-.134.365a.437.437 0 0 1-.311.121.45.45 0 0 1-.321-.121c-.083-.08-.124-.201-.124-.365 0-.166.041-.287.124-.364a.45.45 0 0 1 .321-.121Zm3.502 6.187a2.304 2.304 0 0 0 .686-.107v.574a1.62 1.62 0 0 1-.361.098c-.151.027-.3.04-.445.04a1.79 1.79 0 0 1-.703-.134 1.085 1.085 0 0 1-.507-.462c-.125-.217-.187-.517-.187-.9v-2.892h-.695v-.361l.699-.289.294-1.059h.445v1.13h1.428v.579h-1.428v2.87c0 .306.07.534.209.686a.74.74 0 0 0 .565.227Zm3.552-4.451c.415 0 .771.092 1.068.276.297.184.524.442.681.774.157.33.236.715.236 1.158v.458h-3.369c.009.573.151 1.009.427 1.308.276.3.664.45 1.166.45.308 0 .581-.028.819-.085.237-.056.483-.139.739-.249v.65a3.56 3.56 0 0 1-.735.24c-.24.051-.525.076-.854.076-.469 0-.878-.095-1.229-.285a1.995 1.995 0 0 1-.81-.846c-.192-.37-.289-.824-.289-1.361 0-.526.088-.98.263-1.362a2.05 2.05 0 0 1 .747-.89 2.064 2.064 0 0 1 1.14-.312Zm-.009.605c-.395 0-.709.129-.944.388-.234.258-.374.618-.418 1.081h2.581a2.08 2.08 0 0 0-.138-.765 1.076 1.076 0 0 0-.396-.517c-.178-.124-.406-.187-.685-.187Zm8.545-.605c.537 0 .942.141 1.215.423.273.279.409.728.409 1.348v3.196h-.73v-3.16c0-.395-.086-.69-.258-.886-.169-.198-.421-.298-.756-.298-.472 0-.815.137-1.028.41-.214.273-.321.675-.321 1.206v2.728h-.734v-3.16c0-.264-.039-.484-.116-.659a.786.786 0 0 0-.338-.391 1.086 1.086 0 0 0-.565-.134c-.324 0-.583.067-.779.2a1.132 1.132 0 0 0-.427.597c-.087.261-.13.583-.13.966v2.581h-.738v-4.878h.596l.111.69h.04c.098-.169.221-.312.37-.427.148-.116.314-.204.498-.263.184-.059.38-.089.588-.089.371 0 .681.07.93.209.252.137.435.346.547.628h.04c.161-.282.38-.491.659-.628.279-.139.584-.209.917-.209Zm5.02 0c.415 0 .771.092 1.068.276.297.184.524.442.681.774.157.33.236.715.236 1.158v.458h-3.369c.009.573.151 1.009.427 1.308.276.3.665.45 1.166.45.309 0 .582-.028.819-.085.237-.056.484-.139.739-.249v.65c-.246.11-.491.19-.735.24-.24.051-.525.076-.854.076-.469 0-.878-.095-1.228-.285a1.995 1.995 0 0 1-.81-.846c-.193-.37-.29-.824-.29-1.361 0-.526.088-.98.263-1.362.178-.386.427-.683.748-.89.323-.208.703-.312 1.139-.312Zm-.009.605c-.395 0-.709.129-.943.388-.235.258-.374.618-.419 1.081h2.582a2.08 2.08 0 0 0-.138-.765 1.078 1.078 0 0 0-.397-.517c-.178-.124-.406-.187-.685-.187Zm5.559-.605c.578 0 1.016.143 1.313.427.296.282.445.736.445 1.362v3.178h-.73v-3.129c0-.406-.094-.71-.281-.912-.184-.202-.467-.303-.85-.303-.54 0-.919.153-1.139.459-.219.305-.329.749-.329 1.33v2.555h-.739v-4.878h.596l.112.703h.04c.103-.172.236-.316.396-.431.16-.119.339-.208.538-.267.199-.063.408-.094.628-.094Zm4.855 4.451a2.295 2.295 0 0 0 .686-.107v.574a1.62 1.62 0 0 1-.361.098c-.151.027-.3.04-.445.04a1.79 1.79 0 0 1-.703-.134 1.085 1.085 0 0 1-.507-.462c-.125-.217-.187-.517-.187-.9v-2.892h-.695v-.361l.699-.289.294-1.059H222v1.13h1.428v.579H222v2.87c0 .306.07.534.209.686a.74.74 0 0 0 .565.227Zm4.829-.819c0 .311-.079.574-.236.787-.154.211-.377.37-.667.477-.288.106-.632.16-1.033.16-.341 0-.636-.027-.886-.08a2.587 2.587 0 0 1-.654-.227v-.681c.199.098.436.187.712.267.276.08.558.12.846.12.421 0 .727-.068.917-.205a.649.649 0 0 0 .285-.556.564.564 0 0 0-.116-.352 1.09 1.09 0 0 0-.378-.298 5.743 5.743 0 0 0-.739-.32 8.43 8.43 0 0 1-.81-.352 1.493 1.493 0 0 1-.525-.431c-.122-.17-.183-.389-.183-.659 0-.413.166-.729.499-.948.335-.223.774-.334 1.317-.334.294 0 .568.03.823.089.258.056.499.134.721.232l-.249.591a4.693 4.693 0 0 0-.645-.218 2.791 2.791 0 0 0-.699-.089c-.341 0-.604.057-.788.169a.522.522 0 0 0-.271.463c0 .152.041.276.124.374.086.098.223.19.41.276.187.086.433.187.739.303.305.112.569.23.792.351.222.119.393.264.512.436.121.17.182.388.182.655ZM16.435 142.384c0-.501.048-.989.143-1.464.098-.475.246-.927.445-1.358.198-.43.45-.826.752-1.188h.708a6.084 6.084 0 0 0-.97 1.878 7.035 7.035 0 0 0-.183 3.53c.098.459.242.903.432 1.33.192.428.43.831.712 1.211h-.7a5.26 5.26 0 0 1-.751-1.166 5.906 5.906 0 0 1-.445-1.331 7.24 7.24 0 0 1-.143-1.442Zm4.98-2.47c.416 0 .772.092 1.069.276.296.184.523.442.68.774.158.33.236.715.236 1.158v.458h-3.369c.01.573.152 1.009.428 1.308.275.3.664.45 1.166.45.308 0 .581-.028.818-.085.238-.056.484-.139.74-.249v.65c-.247.11-.492.19-.735.24-.24.051-.525.076-.855.076-.468 0-.878-.095-1.228-.285a1.993 1.993 0 0 1-.81-.846c-.193-.37-.29-.824-.29-1.361 0-.526.088-.98.263-1.362a2.05 2.05 0 0 1 .748-.89c.323-.208.703-.312 1.14-.312Zm-.008.605c-.395 0-.71.129-.944.388-.234.258-.374.618-.418 1.081h2.58a2.078 2.078 0 0 0-.137-.765 1.076 1.076 0 0 0-.396-.517c-.178-.124-.407-.187-.685-.187Zm4.41 1.865-1.687-2.381h.846l1.286 1.878 1.282-1.878h.836l-1.686 2.381 1.78 2.497h-.846l-1.366-1.99-1.375 1.99h-.837l1.767-2.497Zm5.487-2.47c.416 0 .772.092 1.069.276.296.184.523.442.68.774.158.33.236.715.236 1.158v.458H29.92c.01.573.152 1.009.427 1.308.276.3.665.45 1.167.45.308 0 .581-.028.819-.085.237-.056.483-.139.738-.249v.65c-.246.11-.49.19-.734.24-.24.051-.525.076-.855.076-.468 0-.878-.095-1.228-.285a1.993 1.993 0 0 1-.81-.846c-.193-.37-.29-.824-.29-1.361 0-.526.088-.98.263-1.362.178-.386.428-.683.748-.89.323-.208.703-.312 1.14-.312Zm-.008.605c-.395 0-.71.129-.944.388-.234.258-.374.618-.418 1.081h2.58a2.078 2.078 0 0 0-.137-.765 1.077 1.077 0 0 0-.396-.517c-.178-.124-.407-.187-.686-.187Zm8.544-.605c.537 0 .942.141 1.215.423.273.279.41.728.41 1.348v3.196h-.73v-3.16c0-.395-.086-.69-.258-.886-.17-.198-.421-.298-.757-.298-.471 0-.814.137-1.028.41-.213.273-.32.675-.32 1.206v2.728h-.734v-3.16a1.64 1.64 0 0 0-.116-.659.786.786 0 0 0-.338-.391 1.084 1.084 0 0 0-.566-.134c-.323 0-.583.067-.779.2a1.134 1.134 0 0 0-.427.597c-.086.261-.129.583-.129.966v2.581h-.739v-4.878h.597l.111.69h.04c.098-.169.221-.312.37-.427.148-.116.314-.204.498-.263.184-.059.38-.089.587-.089.371 0 .681.07.93.209.253.137.435.346.548.628h.04c.16-.282.38-.491.659-.628.279-.139.584-.209.916-.209Zm5.435 0c.608 0 1.093.209 1.455.628.362.418.543 1.047.543 1.887 0 .554-.083 1.02-.25 1.397-.166.377-.4.662-.703.855a1.93 1.93 0 0 1-1.063.289c-.258 0-.485-.034-.681-.102a1.638 1.638 0 0 1-.503-.276 1.8 1.8 0 0 1-.347-.379h-.054c.01.116.02.255.032.419.014.163.022.305.022.427v2.003h-.743v-7.059h.61l.097.721h.036c.095-.148.21-.283.347-.405.136-.125.303-.222.498-.294.2-.074.434-.111.704-.111Zm-.13.623c-.338 0-.61.065-.818.196a1.126 1.126 0 0 0-.45.587c-.095.259-.145.583-.151.975v.143c0 .412.044.761.133 1.045.092.285.242.502.45.65.21.149.492.223.845.223.303 0 .555-.082.757-.245.202-.163.352-.39.45-.681.1-.294.15-.63.15-1.01 0-.576-.112-1.033-.337-1.371-.223-.341-.566-.512-1.029-.512Zm4.162 4.344h-.744v-6.925h.744v6.925Zm3.44-4.967c.415 0 .771.092 1.068.276.297.184.524.442.681.774.157.33.236.715.236 1.158v.458h-3.37c.01.573.152 1.009.428 1.308.276.3.665.45 1.166.45.309 0 .582-.028.819-.085.237-.056.484-.139.739-.249v.65c-.246.11-.491.19-.735.24-.24.051-.525.076-.854.076-.469 0-.878-.095-1.228-.285a1.993 1.993 0 0 1-.81-.846c-.193-.37-.29-.824-.29-1.361 0-.526.088-.98.263-1.362a2.05 2.05 0 0 1 .748-.89c.323-.208.703-.312 1.139-.312Zm-.009.605c-.395 0-.709.129-.943.388-.235.258-.374.618-.419 1.081h2.582a2.08 2.08 0 0 0-.139-.765 1.075 1.075 0 0 0-.396-.517c-.178-.124-.406-.187-.685-.187Zm6.404 3.027c0 .311-.078.574-.236.787-.154.211-.376.37-.667.477-.288.106-.632.16-1.033.16-.34 0-.636-.027-.885-.08a2.584 2.584 0 0 1-.654-.227v-.681c.198.098.436.187.712.267.276.08.557.12.845.12.422 0 .727-.068.917-.205a.649.649 0 0 0 .285-.556.563.563 0 0 0-.116-.352 1.094 1.094 0 0 0-.378-.298 5.646 5.646 0 0 0-.739-.32 8.541 8.541 0 0 1-.81-.352 1.503 1.503 0 0 1-.525-.431c-.122-.17-.183-.389-.183-.659 0-.413.167-.729.499-.948.335-.223.774-.334 1.317-.334.294 0 .568.03.824.089.258.056.498.134.72.232l-.249.591a4.666 4.666 0 0 0-.645-.218 2.784 2.784 0 0 0-.699-.089c-.341 0-.603.057-.788.169a.523.523 0 0 0-.271.463c0 .152.042.276.125.374.086.098.222.19.41.276.186.086.432.187.738.303.306.112.57.23.792.351.223.119.393.264.512.436.121.17.182.388.182.655Zm3.445.872c0-.208.05-.355.151-.441a.538.538 0 0 1 .37-.133c.151 0 .279.044.383.133.103.086.155.233.155.441 0 .205-.052.355-.156.45a.56.56 0 0 1-.382.137.532.532 0 0 1-.37-.137c-.1-.095-.151-.245-.151-.45Zm0-3.948c0-.213.05-.363.151-.449a.539.539 0 0 1 .37-.134c.151 0 .279.045.383.134.103.086.155.236.155.449 0 .202-.052.349-.156.441a.556.556 0 0 1-.382.138.528.528 0 0 1-.37-.138c-.1-.092-.151-.239-.151-.441Zm10.17-.556c.536 0 .941.141 1.215.423.272.279.409.728.409 1.348v3.196h-.73v-3.16c0-.395-.086-.69-.258-.886-.17-.198-.421-.298-.757-.298-.471 0-.814.137-1.028.41-.213.273-.32.675-.32 1.206v2.728h-.734v-3.16c0-.264-.04-.484-.116-.659a.785.785 0 0 0-.338-.391 1.084 1.084 0 0 0-.566-.134c-.323 0-.583.067-.779.2a1.133 1.133 0 0 0-.427.597 3.12 3.12 0 0 0-.129.966v2.581h-.739v-4.878h.597l.111.69h.04c.098-.169.221-.312.37-.427.148-.116.314-.204.498-.263.184-.059.38-.089.587-.089.371 0 .681.07.93.209.253.137.435.346.548.628h.04c.16-.282.38-.491.659-.628.279-.139.584-.209.916-.209Zm5.02 0c.415 0 .771.092 1.068.276.296.184.523.442.68.774.158.33.237.715.237 1.158v.458h-3.37c.01.573.152 1.009.428 1.308.276.3.664.45 1.166.45.308 0 .581-.028.819-.085.237-.056.483-.139.738-.249v.65c-.246.11-.49.19-.734.24a4.17 4.17 0 0 1-.854.076c-.47 0-.879-.095-1.229-.285a1.994 1.994 0 0 1-.81-.846c-.192-.37-.289-.824-.289-1.361 0-.526.088-.98.263-1.362a2.05 2.05 0 0 1 .747-.89c.324-.208.704-.312 1.14-.312Zm-.01.605c-.394 0-.708.129-.943.388-.234.258-.374.618-.418 1.081h2.581a2.08 2.08 0 0 0-.138-.765 1.076 1.076 0 0 0-.396-.517c-.178-.124-.406-.187-.685-.187Zm1.234-2.621v.089c-.06.086-.141.19-.245.312-.101.118-.214.244-.338.378a9.5 9.5 0 0 1-.726.681h-.494v-.107c.095-.113.199-.248.312-.405.112-.16.222-.323.329-.49.107-.169.196-.322.267-.458h.895Zm3.751 7.072c-.617 0-1.106-.211-1.468-.632-.36-.421-.539-1.047-.539-1.878 0-.84.184-1.473.552-1.901.368-.43.858-.645 1.469-.645.258 0 .483.034.676.102a1.648 1.648 0 0 1 .85.664h.054a7.35 7.35 0 0 1-.054-.77v-1.954h.739v6.925h-.596l-.112-.694h-.03a1.71 1.71 0 0 1-.855.681 2.065 2.065 0 0 1-.686.102Zm.116-.614c.522 0 .892-.149 1.108-.445.217-.297.325-.738.325-1.322v-.134c0-.62-.104-1.096-.311-1.428-.205-.333-.579-.499-1.122-.499-.454 0-.794.175-1.02.525-.225.348-.337.822-.337 1.425 0 .599.11 1.062.333 1.388.226.327.567.49 1.024.49Zm4.468-4.353v4.878h-.739v-4.878h.74Zm-.36-1.825c.121 0 .225.04.311.121.09.077.134.198.134.364 0 .164-.045.285-.134.365a.438.438 0 0 1-.311.121.45.45 0 0 1-.32-.121c-.084-.08-.125-.201-.125-.365 0-.166.041-.287.124-.364a.45.45 0 0 1 .32-.121Zm3.88 6.792c-.438 0-.826-.091-1.16-.272a1.863 1.863 0 0 1-.784-.827c-.187-.371-.28-.839-.28-1.402 0-.591.097-1.073.293-1.447.199-.377.472-.655.82-.836a2.522 2.522 0 0 1 1.183-.272c.243 0 .478.025.703.076.228.047.415.108.56.182l-.222.619a3.806 3.806 0 0 0-.516-.16 2.254 2.254 0 0 0-.543-.072c-.338 0-.62.073-.846.218a1.33 1.33 0 0 0-.502.641c-.11.282-.165.629-.165 1.042 0 .394.053.731.16 1.01.11.279.272.493.485.641.217.145.487.218.81.218.258 0 .491-.027.699-.08.208-.056.396-.122.565-.196v.659a2.27 2.27 0 0 1-.547.191 3.269 3.269 0 0 1-.712.067Zm4.242-5.047c.582 0 1.013.131 1.295.392.282.261.423.678.423 1.25v3.316h-.539l-.142-.721h-.036a2.677 2.677 0 0 1-.427.449c-.148.119-.32.21-.516.272-.193.059-.43.089-.712.089-.297 0-.561-.052-.792-.156a1.233 1.233 0 0 1-.543-.472c-.13-.21-.196-.477-.196-.801 0-.486.193-.86.578-1.121.386-.261.974-.404 1.763-.428l.84-.035v-.298c0-.422-.09-.717-.27-.886-.181-.169-.437-.254-.766-.254-.255 0-.499.037-.73.112a4.954 4.954 0 0 0-.659.262l-.227-.561c.22-.112.472-.209.757-.289.285-.08.585-.12.899-.12Zm.988 2.555-.743.031c-.608.023-1.037.123-1.286.298a.855.855 0 0 0-.374.743c0 .279.084.485.253.619.17.133.394.2.672.2.434 0 .788-.12 1.064-.36.276-.241.414-.601.414-1.082v-.449Zm7.548-2.564c.537 0 .942.141 1.215.423.273.279.41.728.41 1.348v3.196h-.73v-3.16c0-.395-.086-.69-.258-.886-.17-.198-.422-.298-.757-.298-.472 0-.815.137-1.028.41-.214.273-.321.675-.321 1.206v2.728h-.734v-3.16c0-.264-.038-.484-.116-.659a.786.786 0 0 0-.338-.391 1.084 1.084 0 0 0-.565-.134c-.323 0-.583.067-.779.2a1.134 1.134 0 0 0-.427.597c-.086.261-.13.583-.13.966v2.581h-.738v-4.878h.596l.112.69h.04c.098-.169.22-.312.37-.427.147-.116.314-.204.498-.263a1.91 1.91 0 0 1 .587-.089c.371 0 .681.07.93.209.252.137.435.346.548.628h.04a1.51 1.51 0 0 1 .658-.628c.279-.139.585-.209.917-.209Zm5.02 0c.416 0 .772.092 1.068.276.297.184.524.442.681.774.158.33.236.715.236 1.158v.458h-3.369c.009.573.151 1.009.427 1.308.276.3.665.45 1.166.45.309 0 .582-.028.819-.085.238-.056.484-.139.739-.249v.65c-.246.11-.491.19-.734.24a4.174 4.174 0 0 1-.855.076c-.468 0-.878-.095-1.228-.285a1.995 1.995 0 0 1-.81-.846c-.193-.37-.289-.824-.289-1.361 0-.526.087-.98.262-1.362.178-.386.428-.683.748-.89.323-.208.703-.312 1.139-.312Zm-.009.605c-.394 0-.709.129-.943.388-.235.258-.374.618-.418 1.081h2.581a2.08 2.08 0 0 0-.138-.765 1.076 1.076 0 0 0-.396-.517c-.178-.124-.407-.187-.686-.187Zm5.559-.605c.579 0 1.016.143 1.313.427.297.282.445.736.445 1.362v3.178h-.73v-3.129c0-.406-.093-.71-.28-.912-.184-.202-.468-.303-.85-.303-.54 0-.92.153-1.14.459-.219.305-.329.749-.329 1.33v2.555h-.739v-4.878h.597l.111.703h.04c.104-.172.236-.316.396-.431.16-.119.34-.208.539-.267a2.06 2.06 0 0 1 .627-.094Zm4.856 4.451a2.292 2.292 0 0 0 .685-.107v.574a1.605 1.605 0 0 1-.361.098 2.52 2.52 0 0 1-.445.04 1.79 1.79 0 0 1-.703-.134 1.09 1.09 0 0 1-.507-.462c-.125-.217-.187-.517-.187-.9v-2.892h-.694v-.361l.698-.289.294-1.059h.445v1.13h1.429v.579h-1.429v2.87c0 .306.07.534.209.686a.743.743 0 0 0 .566.227Zm4.828-.819c0 .311-.078.574-.236.787-.154.211-.376.37-.667.477-.288.106-.632.16-1.033.16-.341 0-.636-.027-.885-.08a2.573 2.573 0 0 1-.654-.227v-.681c.198.098.436.187.712.267.276.08.557.12.845.12.422 0 .727-.068.917-.205a.649.649 0 0 0 .285-.556.564.564 0 0 0-.116-.352 1.09 1.09 0 0 0-.378-.298 5.62 5.62 0 0 0-.739-.32 8.656 8.656 0 0 1-.81-.352 1.51 1.51 0 0 1-.525-.431c-.122-.17-.183-.389-.183-.659 0-.413.167-.729.499-.948.335-.223.774-.334 1.317-.334.294 0 .568.03.824.089.258.056.498.134.721.232l-.25.591a4.648 4.648 0 0 0-.645-.218 2.78 2.78 0 0 0-.699-.089c-.341 0-.604.057-.787.169a.523.523 0 0 0-.272.463c0 .152.042.276.125.374.086.098.222.19.409.276.187.086.433.187.739.303.306.112.57.23.792.351.223.119.393.264.512.436.122.17.182.388.182.655Zm2.034.276.058.102a8.484 8.484 0 0 1-.205.694c-.08.247-.169.493-.267.739-.095.249-.191.482-.289.699h-.552a22.02 22.02 0 0 0 .463-2.234h.792Zm7.037-.276c0 .311-.079.574-.236.787a1.4 1.4 0 0 1-.668.477c-.288.106-.632.16-1.032.16-.342 0-.637-.027-.886-.08a2.587 2.587 0 0 1-.654-.227v-.681c.198.098.436.187.712.267.276.08.558.12.845.12.422 0 .727-.068.917-.205a.649.649 0 0 0 .285-.556.564.564 0 0 0-.116-.352 1.09 1.09 0 0 0-.378-.298 5.62 5.62 0 0 0-.739-.32 8.656 8.656 0 0 1-.81-.352 1.51 1.51 0 0 1-.525-.431c-.122-.17-.182-.389-.182-.659 0-.413.166-.729.498-.948.335-.223.774-.334 1.317-.334.294 0 .569.03.824.089.258.056.498.134.721.232l-.25.591a4.604 4.604 0 0 0-.645-.218 2.78 2.78 0 0 0-.699-.089c-.341 0-.603.057-.787.169a.523.523 0 0 0-.272.463c0 .152.042.276.125.374.086.098.222.19.409.276.187.086.433.187.739.303.306.112.57.23.792.351.223.119.393.264.512.436.122.17.183.388.183.655Zm5.394-1.113c0 .401-.052.758-.156 1.073-.104.314-.254.58-.45.796a1.957 1.957 0 0 1-.712.499 2.48 2.48 0 0 1-.939.169c-.326 0-.626-.057-.899-.169a2.03 2.03 0 0 1-.703-.499 2.283 2.283 0 0 1-.458-.796 3.324 3.324 0 0 1-.161-1.073c0-.534.091-.988.272-1.362.181-.377.439-.663.774-.859.338-.199.74-.298 1.206-.298.445 0 .834.099 1.166.298.336.199.595.487.779.864.187.374.281.826.281 1.357Zm-3.712 0c0 .392.052.731.156 1.019.103.288.264.511.48.668.217.157.496.236.837.236.338 0 .616-.079.832-.236.22-.157.381-.38.485-.668.104-.288.156-.627.156-1.019 0-.389-.052-.724-.156-1.006a1.348 1.348 0 0 0-.48-.658c-.217-.155-.497-.232-.842-.232-.507 0-.879.168-1.117.503-.234.335-.351.8-.351 1.393Zm5.728-2.43v4.878h-.739v-4.878h.739Zm-.361-1.825c.122 0 .226.04.312.121.089.077.133.198.133.364 0 .164-.044.285-.133.365a.438.438 0 0 1-.312.121.449.449 0 0 1-.32-.121c-.083-.08-.125-.201-.125-.365 0-.166.042-.287.125-.364a.449.449 0 0 1 .32-.121Zm4.237 1.736c.579 0 1.016.143 1.313.427.297.282.445.736.445 1.362v3.178h-.73v-3.129c0-.406-.093-.71-.28-.912-.184-.202-.468-.303-.85-.303-.54 0-.92.153-1.14.459-.219.305-.329.749-.329 1.33v2.555h-.739v-4.878h.597l.111.703h.04c.104-.172.236-.316.396-.431.16-.119.34-.208.538-.267.199-.063.408-.094.628-.094Zm6.435 3.632c0 .311-.078.574-.235.787a1.4 1.4 0 0 1-.668.477c-.288.106-.632.16-1.033.16-.341 0-.636-.027-.885-.08a2.587 2.587 0 0 1-.654-.227v-.681c.198.098.436.187.712.267.276.08.557.12.845.12.422 0 .727-.068.917-.205a.649.649 0 0 0 .285-.556.564.564 0 0 0-.116-.352 1.09 1.09 0 0 0-.378-.298 5.62 5.62 0 0 0-.739-.32 8.656 8.656 0 0 1-.81-.352 1.51 1.51 0 0 1-.525-.431c-.122-.17-.182-.389-.182-.659 0-.413.166-.729.498-.948.335-.223.774-.334 1.317-.334.294 0 .568.03.824.089.258.056.498.134.721.232l-.25.591a4.604 4.604 0 0 0-.645-.218 2.78 2.78 0 0 0-.699-.089c-.341 0-.603.057-.787.169a.523.523 0 0 0-.272.463c0 .152.042.276.125.374.086.098.222.19.409.276.187.086.433.187.739.303.306.112.57.23.792.351.223.119.393.264.512.436.122.17.182.388.182.655Zm2.034.276.058.102a8.106 8.106 0 0 1-.205.694c-.08.247-.169.493-.267.739-.095.249-.191.482-.289.699h-.552a22.02 22.02 0 0 0 .463-2.234h.792Zm5.617 1.148c-.617 0-1.107-.211-1.469-.632-.359-.421-.538-1.047-.538-1.878 0-.84.184-1.473.552-1.901.367-.43.857-.645 1.468-.645.258 0 .484.034.677.102a1.659 1.659 0 0 1 .85.664h.053a6.46 6.46 0 0 1-.035-.379 5.437 5.437 0 0 1-.018-.391v-1.954h.739v6.925h-.597l-.111-.694h-.031a1.699 1.699 0 0 1-.855.681 2.063 2.063 0 0 1-.685.102Zm.116-.614c.522 0 .891-.149 1.108-.445.216-.297.325-.738.325-1.322v-.134c0-.62-.104-1.096-.312-1.428-.205-.333-.578-.499-1.121-.499-.454 0-.794.175-1.02.525-.225.348-.338.822-.338 1.425 0 .599.111 1.062.334 1.388.225.327.567.49 1.024.49Zm4.468-4.353v4.878h-.739v-4.878h.739Zm-.361-1.825c.122 0 .226.04.312.121.089.077.133.198.133.364 0 .164-.044.285-.133.365a.438.438 0 0 1-.312.121.449.449 0 0 1-.32-.121c-.083-.08-.125-.201-.125-.365 0-.166.042-.287.125-.364a.449.449 0 0 1 .32-.121Zm5.083 5.368c0 .311-.079.574-.236.787-.154.211-.377.37-.668.477-.287.106-.632.16-1.032.16-.341 0-.637-.027-.886-.08a2.587 2.587 0 0 1-.654-.227v-.681c.199.098.436.187.712.267.276.08.558.12.846.12.421 0 .727-.068.917-.205a.65.65 0 0 0 .284-.556.563.563 0 0 0-.115-.352 1.106 1.106 0 0 0-.379-.298 5.658 5.658 0 0 0-.738-.32 8.43 8.43 0 0 1-.81-.352 1.506 1.506 0 0 1-.526-.431c-.121-.17-.182-.389-.182-.659 0-.413.166-.729.498-.948.336-.223.775-.334 1.318-.334.293 0 .568.03.823.089.258.056.499.134.721.232l-.249.591a4.693 4.693 0 0 0-.645-.218 2.791 2.791 0 0 0-.699-.089c-.341 0-.604.057-.788.169a.522.522 0 0 0-.271.463c0 .152.041.276.124.374.086.098.223.19.41.276.187.086.433.187.738.303.306.112.57.23.793.351.222.119.393.264.511.436.122.17.183.388.183.655Zm3.48-3.632c.608 0 1.094.209 1.456.628.361.418.542 1.047.542 1.887 0 .554-.083 1.02-.249 1.397-.166.377-.4.662-.703.855a1.93 1.93 0 0 1-1.064.289c-.258 0-.485-.034-.681-.102a1.636 1.636 0 0 1-.502-.276 1.789 1.789 0 0 1-.348-.379h-.053l.031.419c.015.163.022.305.022.427v2.003h-.743v-7.059h.61l.098.721h.035c.095-.148.211-.283.348-.405.136-.125.302-.222.498-.294.199-.074.433-.111.703-.111Zm-.129.623c-.338 0-.611.065-.819.196a1.13 1.13 0 0 0-.449.587c-.095.259-.146.583-.152.975v.143c0 .412.045.761.134 1.045.092.285.242.502.449.65.211.149.493.223.846.223.303 0 .555-.082.757-.245.201-.163.351-.39.449-.681a3.1 3.1 0 0 0 .151-1.01c0-.576-.112-1.033-.338-1.371-.222-.341-.565-.512-1.028-.512Zm7.624 1.896c0 .401-.052.758-.156 1.073-.104.314-.254.58-.449.796a1.961 1.961 0 0 1-.713.499 2.472 2.472 0 0 1-.939.169c-.326 0-.626-.057-.899-.169a2.03 2.03 0 0 1-.703-.499 2.298 2.298 0 0 1-.458-.796 3.325 3.325 0 0 1-.16-1.073c0-.534.09-.988.271-1.362.181-.377.439-.663.775-.859.338-.199.74-.298 1.206-.298.445 0 .833.099 1.166.298.335.199.595.487.778.864.187.374.281.826.281 1.357Zm-3.712 0c0 .392.052.731.156 1.019.104.288.264.511.481.668.216.157.495.236.836.236.338 0 .616-.079.832-.236.22-.157.382-.38.486-.668.103-.288.155-.627.155-1.019 0-.389-.052-.724-.155-1.006a1.344 1.344 0 0 0-.481-.658c-.217-.155-.497-.232-.841-.232-.508 0-.88.168-1.117.503-.235.335-.352.8-.352 1.393Zm8.145 1.113c0 .311-.079.574-.236.787a1.4 1.4 0 0 1-.668.477c-.288.106-.632.16-1.032.16-.342 0-.637-.027-.886-.08a2.587 2.587 0 0 1-.654-.227v-.681c.198.098.436.187.712.267.276.08.558.12.845.12.422 0 .727-.068.917-.205a.649.649 0 0 0 .285-.556.564.564 0 0 0-.116-.352 1.09 1.09 0 0 0-.378-.298 5.62 5.62 0 0 0-.739-.32 8.656 8.656 0 0 1-.81-.352 1.51 1.51 0 0 1-.525-.431c-.122-.17-.182-.389-.182-.659 0-.413.166-.729.498-.948.335-.223.774-.334 1.317-.334.294 0 .569.03.824.089.258.056.498.134.721.232l-.249.591a4.662 4.662 0 0 0-.646-.218 2.78 2.78 0 0 0-.699-.089c-.341 0-.603.057-.787.169a.523.523 0 0 0-.272.463c0 .152.042.276.125.374.086.098.222.19.409.276.187.086.433.187.739.303.306.112.57.23.792.351.223.119.393.264.512.436.122.17.183.388.183.655Zm1.927-3.543v4.878h-.739v-4.878h.739Zm-.361-1.825c.122 0 .226.04.312.121.089.077.133.198.133.364 0 .164-.044.285-.133.365a.438.438 0 0 1-.312.121.449.449 0 0 1-.32-.121c-.083-.08-.125-.201-.125-.365 0-.166.042-.287.125-.364a.449.449 0 0 1 .32-.121Zm3.503 6.187a2.314 2.314 0 0 0 .685-.107v.574a1.61 1.61 0 0 1-.36.098c-.152.027-.3.04-.445.04-.259 0-.493-.045-.704-.134a1.095 1.095 0 0 1-.507-.462c-.125-.217-.187-.517-.187-.9v-2.892h-.694v-.361l.699-.289.293-1.059h.445v1.13h1.429v.579h-1.429v2.87c0 .306.07.534.209.686a.743.743 0 0 0 .566.227Zm2.412-4.362v4.878h-.739v-4.878h.739Zm-.361-1.825c.122 0 .226.04.312.121.089.077.133.198.133.364 0 .164-.044.285-.133.365a.438.438 0 0 1-.312.121.449.449 0 0 1-.32-.121c-.083-.08-.125-.201-.125-.365 0-.166.042-.287.125-.364a.449.449 0 0 1 .32-.121Zm4.099 2.404h-1.215v4.299h-.738v-4.299h-.864v-.356l.864-.245v-.325c0-.409.06-.742.182-.997.122-.258.298-.448.53-.57.231-.121.513-.182.845-.182.187 0 .358.016.512.049.157.033.295.07.414.111l-.191.583a3.674 3.674 0 0 0-.343-.089 1.63 1.63 0 0 0-.383-.044c-.282 0-.491.092-.627.276-.134.181-.201.465-.201.854v.356h1.215v.579Zm4.055 2.964c0 .311-.079.574-.236.787-.154.211-.377.37-.668.477-.288.106-.632.16-1.032.16-.341 0-.637-.027-.886-.08a2.587 2.587 0 0 1-.654-.227v-.681c.199.098.436.187.712.267.276.08.558.12.846.12.421 0 .726-.068.916-.205a.649.649 0 0 0 .285-.556.558.558 0 0 0-.116-.352 1.09 1.09 0 0 0-.378-.298 5.62 5.62 0 0 0-.739-.32 8.656 8.656 0 0 1-.81-.352 1.51 1.51 0 0 1-.525-.431c-.121-.17-.182-.389-.182-.659 0-.413.166-.729.498-.948.335-.223.775-.334 1.318-.334.293 0 .568.03.823.089.258.056.498.134.721.232l-.249.591a4.662 4.662 0 0 0-.646-.218 2.777 2.777 0 0 0-.698-.089c-.342 0-.604.057-.788.169a.523.523 0 0 0-.272.463c0 .152.042.276.125.374.086.098.223.19.409.276.187.086.434.187.739.303.306.112.57.23.792.351.223.119.394.264.512.436.122.17.183.388.183.655ZM22.145 158.914c.537 0 .942.141 1.215.423.273.279.41.728.41 1.348v3.196h-.73v-3.16c0-.395-.086-.69-.258-.886-.17-.198-.422-.298-.757-.298-.472 0-.814.137-1.028.41-.214.273-.32.675-.32 1.206v2.728h-.735v-3.16c0-.264-.038-.484-.116-.659a.785.785 0 0 0-.338-.391 1.084 1.084 0 0 0-.565-.134c-.323 0-.583.067-.779.2a1.133 1.133 0 0 0-.427.597 3.12 3.12 0 0 0-.13.966v2.581h-.738v-4.878h.596l.112.69h.04a1.46 1.46 0 0 1 .37-.427c.148-.116.314-.204.498-.263.184-.059.38-.089.587-.089.371 0 .681.07.93.209.253.137.435.346.548.628h.04c.16-.282.38-.491.659-.628.278-.139.584-.209.916-.209Zm5.02 0c.416 0 .772.092 1.069.276.296.184.523.442.68.774.158.33.236.715.236 1.158v.458h-3.369c.01.573.152 1.009.428 1.308.276.3.664.45 1.166.45.308 0 .581-.028.819-.085.237-.056.483-.139.738-.249v.65c-.246.11-.49.19-.734.24a4.17 4.17 0 0 1-.855.076c-.468 0-.878-.095-1.228-.285a1.994 1.994 0 0 1-.81-.846c-.193-.37-.29-.824-.29-1.361 0-.526.088-.98.263-1.362a2.05 2.05 0 0 1 .748-.89c.323-.208.703-.312 1.14-.312Zm-.008.605c-.395 0-.71.129-.944.388-.234.258-.374.618-.418 1.081h2.581a2.08 2.08 0 0 0-.138-.765 1.076 1.076 0 0 0-.396-.517c-.178-.124-.407-.187-.685-.187Zm1.232-2.621v.089c-.059.086-.14.19-.244.312-.101.118-.214.244-.339.378a9.5 9.5 0 0 1-.725.681h-.494v-.107c.095-.113.199-.248.311-.405.113-.16.223-.323.33-.49.107-.169.196-.322.267-.458h.894Zm3.752 7.072c-.617 0-1.107-.211-1.469-.632-.359-.421-.538-1.047-.538-1.878 0-.84.184-1.473.552-1.901.368-.43.857-.645 1.468-.645.259 0 .484.034.677.102a1.648 1.648 0 0 1 .85.664h.053a7.35 7.35 0 0 1-.053-.77v-1.954h.739v6.925h-.597l-.11-.694h-.032a1.71 1.71 0 0 1-.854.681 2.065 2.065 0 0 1-.686.102Zm.116-.614c.522 0 .891-.149 1.108-.445.217-.297.325-.738.325-1.322v-.134c0-.62-.104-1.096-.312-1.428-.204-.333-.578-.499-1.121-.499-.454 0-.794.175-1.02.525-.225.348-.338.822-.338 1.425 0 .599.112 1.062.334 1.388.226.327.567.49 1.024.49Zm4.468-4.353v4.878h-.739v-4.878h.74Zm-.36-1.825c.121 0 .225.04.311.121.09.077.134.198.134.364 0 .164-.045.285-.134.365a.438.438 0 0 1-.311.121.45.45 0 0 1-.32-.121c-.084-.08-.125-.201-.125-.365 0-.166.041-.287.124-.364a.45.45 0 0 1 .32-.121Zm3.88 6.792c-.439 0-.826-.091-1.161-.272a1.863 1.863 0 0 1-.783-.827c-.187-.371-.28-.839-.28-1.402 0-.591.097-1.073.293-1.447.199-.377.472-.655.819-.836a2.522 2.522 0 0 1 1.184-.272c.243 0 .477.025.703.076.228.047.415.108.56.182l-.222.619a3.806 3.806 0 0 0-.516-.16 2.254 2.254 0 0 0-.543-.072c-.338 0-.62.073-.846.218a1.33 1.33 0 0 0-.503.641c-.11.282-.164.629-.164 1.042 0 .394.053.731.16 1.01.11.279.271.493.485.641.217.145.487.218.81.218.258 0 .491-.027.699-.08.208-.056.396-.122.565-.196v.659a2.27 2.27 0 0 1-.547.191 3.269 3.269 0 0 1-.712.067Zm4.242-5.047c.581 0 1.013.131 1.295.392.282.261.423.678.423 1.25v3.316h-.539l-.142-.721h-.036a2.677 2.677 0 0 1-.427.449c-.148.119-.32.21-.516.272-.193.059-.43.089-.712.089-.297 0-.561-.052-.793-.156a1.233 1.233 0 0 1-.543-.472c-.13-.21-.195-.477-.195-.801 0-.486.193-.86.578-1.121.386-.261.973-.404 1.763-.428l.84-.035v-.298c0-.422-.09-.717-.27-.886-.182-.169-.437-.254-.766-.254-.255 0-.499.037-.73.112a4.954 4.954 0 0 0-.659.262l-.227-.561c.22-.112.472-.209.757-.289.285-.08.584-.12.899-.12Zm.988 2.555-.743.031c-.609.023-1.037.123-1.287.298a.855.855 0 0 0-.373.743c0 .279.084.485.253.619.17.133.393.2.672.2.433 0 .788-.12 1.064-.36.276-.241.414-.601.414-1.082v-.449Zm6.28-2.475v4.878h-.606l-.107-.686h-.04c-.1.17-.231.312-.391.428-.16.115-.341.201-.543.258a2.227 2.227 0 0 1-.637.089c-.385 0-.709-.062-.97-.187a1.26 1.26 0 0 1-.592-.579c-.13-.261-.196-.596-.196-1.005v-3.196h.748v3.142c0 .407.092.711.276.913.184.198.464.298.841.298.362 0 .65-.069.864-.205.216-.137.372-.337.467-.601.095-.267.142-.593.142-.979v-2.568h.743Zm2.723 2.381-1.687-2.381h.846l1.286 1.878 1.282-1.878h.837l-1.687 2.381 1.78 2.497h-.845l-1.367-1.99-1.375 1.99h-.837l1.767-2.497Zm3.498 2.034c0-.208.05-.355.152-.441a.538.538 0 0 1 .369-.133c.151 0 .279.044.383.133.104.086.155.233.155.441 0 .205-.051.355-.155.45a.56.56 0 0 1-.383.137.532.532 0 0 1-.37-.137c-.1-.095-.15-.245-.15-.45Zm2.395 0c0-.208.05-.355.151-.441a.538.538 0 0 1 .37-.133c.15 0 .278.044.382.133.104.086.156.233.156.441 0 .205-.052.355-.156.45a.56.56 0 0 1-.383.137.532.532 0 0 1-.369-.137c-.1-.095-.151-.245-.151-.45Zm2.394 0c0-.208.05-.355.151-.441a.538.538 0 0 1 .37-.133c.151 0 .279.044.383.133.103.086.155.233.155.441 0 .205-.052.355-.155.45a.56.56 0 0 1-.383.137.532.532 0 0 1-.37-.137c-.1-.095-.15-.245-.15-.45Zm4.05-2.043c0 .496-.049.979-.147 1.451a5.82 5.82 0 0 1-.44 1.335 4.953 4.953 0 0 1-.753 1.162h-.698a6.434 6.434 0 0 0 1.144-2.546 6.972 6.972 0 0 0 0-2.835 6.658 6.658 0 0 0-.437-1.353 5.902 5.902 0 0 0-.716-1.215h.707c.306.365.557.763.753 1.193.198.427.345.878.44 1.353.098.472.147.957.147 1.455Zm1.033 2.043c0-.208.05-.355.15-.441a.538.538 0 0 1 .37-.133c.152 0 .28.044.383.133.104.086.156.233.156.441 0 .205-.052.355-.156.45a.56.56 0 0 1-.383.137.532.532 0 0 1-.37-.137c-.1-.095-.15-.245-.15-.45Z"/></g><defs><linearGradient id="c" x1="-21.426" x2="281.201" y1="31.309" y2="34.191" gradientUnits="userSpaceOnUse"><stop stop-color="#0C419A"/><stop offset="1" stop-color="#1058D1"/></linearGradient><clipPath id="a"><path fill="#fff" d="M-68 22h371v464H-68z"/></clipPath><filter id="b" width="395" height="488" x="-80" y="0" color-interpolation-filters="sRGB" filterUnits="userSpaceOnUse"><feFlood flood-opacity="0" result="BackgroundImageFix"/><feColorMatrix in="SourceAlpha" result="hardAlpha" values="0 0 0 0 0 0 0 0 0 0 0 0 0 0 0 0 0 0 127 0"/><feMorphology in="SourceAlpha" radius="2" result="effect1_dropShadow_30154_205374"/><feOffset dy="-3"/><feGaussianBlur stdDeviation="3"/><feColorMatrix values="0 0 0 0 0.0470588 0 0 0 0 0.254902 0 0 0 0 0.603922 0 0 0 0.12 0"/><feBlend in2="BackgroundImageFix" result="effect1_dropShadow_30154_205374"/><feColorMatrix in="SourceAlpha" result="hardAlpha" values="0 0 0 0 0 0 0 0 0 0 0 0 0 0 0 0 0 0 127 0"/><feMorphology in="SourceAlpha" radius="4" result="effect2_dropShadow_30154_205374"/><feOffset dy="-10"/><feGaussianBlur stdDeviation="8"/><feColorMatrix values="0 0 0 0 0.0470588 0 0 0 0 0.254902 0 0 0 0 0.603922 0 0 0 0.17 0"/><feBlend in2="effect1_dropShadow_30154_205374" result="effect2_dropShadow_30154_205374"/><feBlend in="SourceGraphic" in2="effect2_dropShadow_30154_205374" result="shape"/></filter></defs></svg>