<svg width="56" height="56" viewBox="0 0 56 56" fill="none" xmlns="http://www.w3.org/2000/svg">
<rect width="56" height="56" rx="28" fill="#298478"/>
<path d="M16.577 26.9577L26.9577 16.577C28.6122 14.9268 30.8536 14 33.1904 14C35.5273 14 37.7687 14.9268 39.4232 16.577C42.8589 20.0128 42.8589 25.5922 39.4232 29.0426L29.0426 39.4232C25.5922 42.8589 20.0128 42.8589 16.577 39.4232C14.9268 37.7687 14 35.5273 14 33.1904C14 30.8536 14.9268 28.6122 16.577 26.9577ZM18.662 29.0426C17.9297 29.7683 17.4026 30.675 17.1344 31.6705C16.8662 32.6659 16.8664 33.7147 17.135 34.7101L25.9299 25.9299L32.1553 32.1553L37.3383 26.9577C37.886 26.4147 38.3207 25.7685 38.6174 25.0566C38.9141 24.3447 39.0669 23.5811 39.0669 22.8098C39.0669 22.0386 38.9141 21.2749 38.6174 20.563C38.3207 19.8511 37.886 19.205 37.3383 18.662C36.7953 18.1143 36.1492 17.6795 35.4372 17.3828C34.7253 17.0861 33.9617 16.9334 33.1904 16.9334C32.4192 16.9334 31.6555 17.0861 30.9436 17.3828C30.2317 17.6795 29.5856 18.1143 29.0426 18.662L18.662 29.0426Z" fill="white"/>
</svg>
