<svg xmlns="http://www.w3.org/2000/svg" width="318" height="488" fill="none"><g clip-path="url(#a)" filter="url(#b)"><rect width="285.089" height="589.554" x="16.739" y="26.721" fill="#F9FAFF" stroke="url(#c)" stroke-width="8.304" rx="45.67"/><path fill="#fff" d="M20.89 72.39c0-22.929 18.589-41.517 41.518-41.517H256.16c22.929 0 41.517 18.588 41.517 41.518v19.375H20.891V72.39Z"/><path fill="#0C419A" d="m43.432 64.089 8.317 8.317 1.957-1.957-6.366-6.366 6.366-6.366-1.957-1.945-8.317 8.317Z"/><path stroke="#E7ECFA" stroke-width="1.384" d="M20.891 91.074h276.785"/><path fill="#262939" d="M90.295 55.46c0 .958-.175 1.76-.524 2.404a3.391 3.391 0 0 1-1.52 1.45c-.66.322-1.46.483-2.404.483h-2.311v-8.512h2.567c.866 0 1.61.16 2.236.478a3.295 3.295 0 0 1 1.444 1.403c.341.617.512 1.382.512 2.294Zm-1.042.035c0-.765-.128-1.396-.385-1.892a2.412 2.412 0 0 0-1.117-1.107c-.49-.244-1.089-.367-1.8-.367h-1.425v6.818h1.205c1.172 0 2.05-.29 2.637-.868.59-.578.885-1.44.885-2.584Zm5.245-2.195c.544 0 1.01.12 1.397.36.389.241.686.579.891 1.014.206.43.309.935.309 1.513v.6h-4.407c.011.75.198 1.32.558 1.712.362.392.87.588 1.526.588.403 0 .76-.037 1.071-.111.31-.074.633-.182.966-.326v.85a4.702 4.702 0 0 1-.96.314 5.507 5.507 0 0 1-1.118.1c-.613 0-1.149-.125-1.607-.373a2.606 2.606 0 0 1-1.06-1.106c-.252-.486-.378-1.08-.378-1.782 0-.687.115-1.28.344-1.781.233-.505.559-.893.978-1.165.423-.271.92-.407 1.49-.407Zm-.011.792c-.517 0-.928.168-1.235.506-.306.338-.489.81-.547 1.415h3.377a2.729 2.729 0 0 0-.18-1.002 1.406 1.406 0 0 0-.519-.675c-.233-.163-.532-.244-.896-.244Zm1.612-3.43v.117a5.196 5.196 0 0 1-.32.407 14.3 14.3 0 0 1-.442.495 11.783 11.783 0 0 1-.95.891h-.646v-.14c.125-.147.26-.324.408-.53.147-.21.291-.423.43-.64.14-.221.257-.421.35-.6h1.17Zm3.61 9.135h-.972v-9.059h.972v9.059Zm3.01-6.38v6.38h-.967v-6.38h.967Zm-.472-2.388c.159 0 .295.053.408.157.116.101.174.26.174.478 0 .213-.058.372-.174.477a.579.579 0 0 1-.408.157.59.59 0 0 1-.419-.157c-.109-.105-.163-.264-.163-.477 0-.218.054-.377.163-.478a.59.59 0 0 1 .419-.157Zm3.924 8.768-2.422-6.38h1.036l1.403 3.859c.097.264.196.555.297.873.101.319.171.575.21.769h.041c.046-.194.124-.45.233-.769.108-.322.207-.613.296-.873l1.404-3.86h1.036l-2.428 6.38h-1.106Zm7.458-6.497c.128 0 .262.008.401.023.14.012.264.03.373.052l-.122.897a3.007 3.007 0 0 0-.711-.087c-.256 0-.498.052-.727.157-.225.1-.423.248-.594.442-.171.19-.305.421-.402.693a2.618 2.618 0 0 0-.145.897v3.423h-.973v-6.38h.804l.105 1.175h.04c.132-.237.291-.452.478-.646.186-.198.401-.355.646-.472.248-.116.524-.174.827-.174Zm4.366.011c.761 0 1.326.171 1.694.513.369.341.553.887.553 1.636v4.337h-.704l-.186-.943h-.047a3.56 3.56 0 0 1-.559.588 2.076 2.076 0 0 1-.675.355 3.213 3.213 0 0 1-.932.116c-.388 0-.733-.068-1.036-.203a1.608 1.608 0 0 1-.71-.618c-.171-.275-.256-.624-.256-1.047 0-.637.252-1.126.756-1.468.505-.341 1.273-.527 2.306-.558l1.1-.047v-.39c0-.551-.118-.937-.355-1.159-.237-.22-.571-.331-1.001-.331-.334 0-.652.048-.955.145a6.56 6.56 0 0 0-.862.343l-.297-.733c.288-.148.617-.274.99-.378a4.328 4.328 0 0 1 1.176-.158Zm1.293 3.342-.973.04c-.795.032-1.356.162-1.682.39-.326.23-.489.554-.489.973 0 .365.11.635.332.81.221.174.514.261.879.261.566 0 1.03-.157 1.391-.471.361-.315.542-.786.542-1.415v-.588Zm5.967-3.353c.757 0 1.329.186 1.717.559.388.368.582.962.582 1.781v4.157h-.954v-4.093c0-.532-.123-.93-.367-1.193-.241-.264-.611-.396-1.112-.396-.706 0-1.203.2-1.49.6-.288.4-.431.98-.431 1.74v3.342h-.967v-6.38h.78l.146.919h.052c.136-.225.309-.413.519-.565.209-.155.444-.271.704-.349a2.73 2.73 0 0 1 .821-.122Zm6.846 6.613c-.574 0-1.081-.118-1.519-.355-.439-.237-.78-.597-1.025-1.083-.244-.485-.367-1.096-.367-1.834 0-.772.128-1.403.385-1.892.26-.493.617-.857 1.071-1.094.454-.237.97-.355 1.548-.355.319 0 .625.033.92.099.299.062.544.141.734.238l-.291.81a4.979 4.979 0 0 0-.676-.21 2.976 2.976 0 0 0-.71-.093c-.442 0-.811.095-1.106.285-.291.19-.51.47-.658.838-.143.37-.215.823-.215 1.363 0 .516.07.956.209 1.321.144.365.355.645.635.839.283.19.636.285 1.06.285.337 0 .642-.035.914-.105.271-.074.518-.159.739-.256v.862a2.998 2.998 0 0 1-.716.25c-.26.058-.571.087-.932.087Zm5.618-6.613c.544 0 1.009.12 1.398.36.388.241.685.579.89 1.014.206.43.309.935.309 1.513v.6h-4.407c.011.75.198 1.32.559 1.712.361.392.869.588 1.525.588.404 0 .761-.037 1.071-.111a5.9 5.9 0 0 0 .967-.326v.85a4.725 4.725 0 0 1-.961.314 5.505 5.505 0 0 1-1.118.1c-.613 0-1.149-.125-1.607-.373a2.604 2.604 0 0 1-1.059-1.106c-.252-.486-.379-1.08-.379-1.782 0-.687.115-1.28.344-1.781.233-.505.559-.893.978-1.165.423-.271.92-.407 1.49-.407Zm-.011.792c-.516 0-.928.168-1.234.506-.307.338-.49.81-.548 1.415h3.377a2.718 2.718 0 0 0-.181-1.002 1.402 1.402 0 0 0-.518-.675c-.233-.163-.531-.244-.896-.244Zm9.617 5.821c-.807 0-1.447-.275-1.921-.826-.469-.552-.704-1.37-.704-2.457 0-1.099.24-1.927.722-2.486.481-.563 1.121-.844 1.921-.844.337 0 .632.044.885.134a2.191 2.191 0 0 1 1.112.867h.07a9.583 9.583 0 0 1-.07-1.007v-2.556h.966v9.059h-.78l-.146-.908h-.04a2.24 2.24 0 0 1-.46.518 2.13 2.13 0 0 1-.658.372 2.69 2.69 0 0 1-.897.134Zm.152-.803c.683 0 1.166-.194 1.449-.582.284-.388.425-.965.425-1.73v-.174c0-.811-.135-1.434-.407-1.869-.268-.434-.757-.652-1.467-.652-.594 0-1.038.23-1.333.687-.295.454-.443 1.075-.443 1.863 0 .784.146 1.39.437 1.816.295.427.741.64 1.339.64Zm7.335-5.81c.544 0 1.009.12 1.397.36.389.241.685.579.891 1.014.206.43.309.935.309 1.513v.6h-4.407c.011.75.198 1.32.559 1.712.36.392.869.588 1.525.588.403 0 .761-.037 1.071-.111.311-.074.633-.182.966-.326v.85a4.697 4.697 0 0 1-.96.314 5.505 5.505 0 0 1-1.118.1c-.613 0-1.149-.125-1.607-.373a2.604 2.604 0 0 1-1.059-1.106c-.253-.486-.379-1.08-.379-1.782 0-.687.115-1.28.344-1.781.233-.505.559-.893.978-1.165.423-.271.92-.407 1.49-.407Zm-.011.792c-.517 0-.928.168-1.235.506-.306.338-.489.81-.547 1.415h3.377a2.718 2.718 0 0 0-.181-1.002 1.402 1.402 0 0 0-.518-.675c-.233-.163-.532-.244-.896-.244Zm14.275-.792c.702 0 1.232.184 1.589.553.357.365.536.953.536 1.764v4.18h-.955v-4.134c0-.516-.113-.902-.338-1.158-.221-.26-.551-.39-.99-.39-.617 0-1.065.178-1.344.535-.28.358-.42.883-.42 1.578v3.569h-.96v-4.134c0-.345-.051-.632-.151-.861a1.035 1.035 0 0 0-.443-.513c-.194-.116-.44-.174-.739-.174-.423 0-.763.087-1.019.262-.256.174-.443.434-.559.78-.113.341-.169.763-.169 1.263v3.377h-.966v-6.38h.78l.145.901h.053a1.92 1.92 0 0 1 .483-.558c.194-.152.411-.266.652-.344a2.49 2.49 0 0 1 .769-.116c.485 0 .89.09 1.216.273.33.179.569.453.716.821h.053c.209-.368.497-.642.861-.82a2.645 2.645 0 0 1 1.2-.274Zm6.567 0c.543 0 1.009.12 1.397.36.388.241.685.579.891 1.014.205.43.308.935.308 1.513v.6h-4.407c.012.75.198 1.32.559 1.712.361.392.869.588 1.525.588.404 0 .761-.037 1.072-.111.31-.074.632-.182.966-.326v.85a4.685 4.685 0 0 1-.961.314 5.501 5.501 0 0 1-1.117.1c-.614 0-1.149-.125-1.607-.373a2.606 2.606 0 0 1-1.06-1.106c-.252-.486-.378-1.08-.378-1.782 0-.687.114-1.28.343-1.781.233-.505.559-.893.978-1.165.423-.271.92-.407 1.491-.407Zm-.012.792c-.516 0-.928.168-1.234.506-.307.338-.489.81-.547 1.415h3.376a2.74 2.74 0 0 0-.18-1.002 1.414 1.414 0 0 0-.518-.675c-.233-.163-.532-.244-.897-.244Zm1.613-3.43v.117a5.307 5.307 0 0 1-.321.407c-.131.156-.279.32-.442.495-.163.171-.328.334-.495.49-.163.154-.314.288-.454.401h-.646v-.14c.124-.147.26-.324.407-.53.148-.21.291-.423.431-.64.14-.221.256-.421.349-.6h1.171Zm4.907 9.251c-.807 0-1.447-.275-1.921-.826-.469-.552-.704-1.37-.704-2.457 0-1.099.24-1.927.722-2.486.481-.563 1.121-.844 1.921-.844.338 0 .633.044.885.134a2.191 2.191 0 0 1 1.112.867h.07a9.583 9.583 0 0 1-.07-1.007v-2.556h.966v9.059h-.78l-.145-.908h-.041a2.24 2.24 0 0 1-.46.518 2.13 2.13 0 0 1-.658.372 2.69 2.69 0 0 1-.897.134Zm.152-.803c.683 0 1.166-.194 1.449-.582.284-.388.425-.965.425-1.73v-.174c0-.811-.135-1.434-.407-1.869-.268-.434-.757-.652-1.467-.652-.594 0-1.038.23-1.333.687-.295.454-.443 1.075-.443 1.863 0 .784.146 1.39.437 1.816.295.427.741.64 1.339.64Zm5.845-5.694v6.38h-.966v-6.38h.966Zm-.472-2.387c.159 0 .295.053.408.157.116.101.175.26.175.478 0 .213-.059.372-.175.477a.579.579 0 0 1-.408.157.592.592 0 0 1-.419-.157c-.108-.105-.163-.264-.163-.477 0-.218.055-.377.163-.478a.592.592 0 0 1 .419-.157Zm5.077 8.884c-.574 0-1.081-.118-1.52-.355a2.433 2.433 0 0 1-1.024-1.083c-.245-.485-.367-1.096-.367-1.834 0-.772.128-1.403.384-1.892.26-.493.617-.857 1.072-1.094.454-.237.97-.355 1.548-.355.318 0 .625.033.92.099.299.062.543.141.734.238l-.292.81a5.007 5.007 0 0 0-.675-.21 2.976 2.976 0 0 0-.71-.093c-.443 0-.811.095-1.106.285-.291.19-.511.47-.658.838-.144.37-.216.823-.216 1.363 0 .516.07.956.21 1.321.144.365.355.645.635.839.283.19.636.285 1.059.285.338 0 .643-.035.914-.105a5.34 5.34 0 0 0 .74-.256v.862a3.006 3.006 0 0 1-.717.25c-.26.058-.57.087-.931.087Zm5.548-6.602c.761 0 1.326.171 1.694.513.369.341.553.887.553 1.636v4.337h-.704l-.186-.943h-.047a3.52 3.52 0 0 1-.559.588 2.076 2.076 0 0 1-.675.355 3.208 3.208 0 0 1-.932.116c-.388 0-.733-.068-1.036-.203a1.608 1.608 0 0 1-.71-.618c-.171-.275-.256-.624-.256-1.047 0-.637.252-1.126.757-1.468.504-.341 1.273-.527 2.305-.558l1.1-.047v-.39c0-.551-.118-.937-.355-1.159-.237-.22-.57-.331-1.001-.331-.334 0-.652.048-.955.145a6.56 6.56 0 0 0-.862.343l-.297-.733a5.36 5.36 0 0 1 .99-.378 4.328 4.328 0 0 1 1.176-.158Zm1.293 3.342-.973.04c-.795.032-1.356.162-1.682.39-.326.23-.489.554-.489.973 0 .365.11.635.332.81.221.174.514.261.879.261.566 0 1.03-.157 1.391-.471.361-.315.542-.786.542-1.415v-.588Zm9.873-3.353c.703 0 1.233.184 1.59.553.357.365.535.953.535 1.764v4.18h-.954v-4.134c0-.516-.113-.902-.338-1.158-.221-.26-.551-.39-.99-.39-.617 0-1.065.178-1.345.535-.279.358-.419.883-.419 1.578v3.569h-.96v-4.134c0-.345-.051-.632-.152-.861a1.029 1.029 0 0 0-.442-.513c-.194-.116-.441-.174-.74-.174-.423 0-.762.087-1.018.262-.257.174-.443.434-.559.78-.113.341-.169.763-.169 1.263v3.377h-.967v-6.38h.781l.145.901h.053a1.92 1.92 0 0 1 .483-.558c.194-.152.411-.266.652-.344.24-.077.497-.116.768-.116.485 0 .891.09 1.217.273.33.179.569.453.716.821h.052c.21-.368.497-.642.862-.82a2.644 2.644 0 0 1 1.199-.274Zm6.567 0c.544 0 1.01.12 1.398.36.388.241.685.579.89 1.014.206.43.309.935.309 1.513v.6h-4.407c.011.75.198 1.32.559 1.712.361.392.869.588 1.525.588.404 0 .761-.037 1.071-.111a5.9 5.9 0 0 0 .967-.326v.85a4.705 4.705 0 0 1-.961.314 5.505 5.505 0 0 1-1.118.1c-.613 0-1.149-.125-1.607-.373a2.604 2.604 0 0 1-1.059-1.106c-.252-.486-.379-1.08-.379-1.782 0-.687.115-1.28.344-1.781.233-.505.559-.893.978-1.165.423-.271.92-.407 1.49-.407Zm-.011.792c-.516 0-.928.168-1.234.506-.307.338-.489.81-.548 1.415h3.377a2.718 2.718 0 0 0-.181-1.002 1.402 1.402 0 0 0-.518-.675c-.233-.163-.531-.244-.896-.244Zm7.271-.792c.757 0 1.33.186 1.718.559.388.368.582.962.582 1.781v4.157h-.955v-4.093c0-.532-.122-.93-.367-1.193-.24-.264-.611-.396-1.112-.396-.706 0-1.203.2-1.49.6-.287.4-.431.98-.431 1.74v3.342h-.966v-6.38h.78l.145.919h.053c.136-.225.308-.413.518-.565.21-.155.444-.271.704-.349a2.73 2.73 0 0 1 .821-.122Zm6.352 5.822a3.04 3.04 0 0 0 .896-.14v.75c-.112.051-.269.094-.471.129a3.35 3.35 0 0 1-.582.052 2.34 2.34 0 0 1-.92-.174 1.424 1.424 0 0 1-.664-.606c-.163-.283-.244-.675-.244-1.176v-3.784h-.909v-.472l.914-.378.385-1.386h.582v1.48h1.869v.756h-1.869v3.755c0 .4.091.699.273.897.187.198.433.296.74.296Zm6.316-1.072c0 .408-.102.751-.308 1.03-.202.276-.493.484-.873.624-.377.14-.827.21-1.351.21-.446 0-.833-.036-1.159-.105a3.339 3.339 0 0 1-.855-.297v-.891c.26.128.57.244.931.35.361.104.73.156 1.106.156.551 0 .951-.089 1.2-.267a.85.85 0 0 0 .372-.728.735.735 0 0 0-.151-.46c-.097-.136-.262-.266-.495-.39a7.353 7.353 0 0 0-.966-.42 11.165 11.165 0 0 1-1.06-.46 1.976 1.976 0 0 1-.687-.564c-.159-.221-.239-.508-.239-.862 0-.54.218-.952.652-1.24.439-.29 1.013-.436 1.724-.436.384 0 .743.039 1.077.116.337.074.652.175.943.303l-.326.774a6.026 6.026 0 0 0-.844-.285 3.626 3.626 0 0 0-.914-.116c-.447 0-.79.073-1.031.22-.237.148-.355.35-.355.606 0 .198.054.361.163.49.113.127.291.248.536.36.244.113.566.245.966.396.4.148.745.3 1.036.46.291.155.515.345.67.57.159.222.238.507.238.856ZM135.874 74.3c.543 0 1.009.12 1.397.36.388.241.685.579.891 1.014.206.43.308.935.308 1.513v.6h-4.407c.012.75.198 1.32.559 1.712.361.392.87.588 1.525.588.404 0 .761-.037 1.072-.111.31-.074.632-.182.966-.326v.85a4.697 4.697 0 0 1-.96.314 5.512 5.512 0 0 1-1.118.1c-.613 0-1.149-.125-1.607-.373a2.612 2.612 0 0 1-1.06-1.106c-.252-.486-.378-1.08-.378-1.782 0-.687.114-1.28.343-1.781.233-.505.559-.893.978-1.165.424-.271.92-.407 1.491-.407Zm-.012.791c-.516 0-.927.17-1.234.507-.307.338-.489.81-.547 1.415h3.376a2.719 2.719 0 0 0-.18-1.002 1.408 1.408 0 0 0-.518-.675c-.233-.163-.532-.245-.897-.245Zm6.311 5.03a3.04 3.04 0 0 0 .897-.14v.752c-.113.05-.27.093-.472.128a3.35 3.35 0 0 1-.582.052c-.338 0-.644-.058-.92-.174a1.424 1.424 0 0 1-.664-.606c-.163-.283-.244-.675-.244-1.176v-3.784h-.908v-.472l.914-.378.384-1.386h.582v1.48h1.869v.756h-1.869v3.755c0 .4.091.699.274.897.186.198.432.296.739.296Zm6.689.676-2.422-6.38h1.037l1.403 3.859c.097.264.196.555.297.873.101.319.17.575.209.769h.041a9.08 9.08 0 0 1 .233-.769l.297-.873 1.403-3.86h1.036l-2.428 6.38h-1.106Zm6.946-6.486c.76 0 1.325.171 1.694.513.369.341.553.886.553 1.636v4.337h-.704l-.187-.943h-.046a3.56 3.56 0 0 1-.559.588 2.07 2.07 0 0 1-.676.355 3.2 3.2 0 0 1-.931.116c-.388 0-.734-.068-1.036-.203a1.616 1.616 0 0 1-.711-.618c-.17-.275-.256-.624-.256-1.047 0-.637.253-1.126.757-1.468.505-.341 1.273-.527 2.306-.558l1.1-.047v-.39c0-.551-.119-.937-.355-1.159-.237-.22-.571-.332-1.002-.332-.333 0-.652.049-.954.146a6.56 6.56 0 0 0-.862.344l-.297-.734c.287-.147.617-.274.99-.378a4.317 4.317 0 0 1 1.176-.158Zm1.292 3.342-.972.04c-.796.032-1.357.162-1.683.39-.326.23-.489.554-.489.973 0 .365.111.635.332.81.221.174.515.261.879.261.567 0 1.031-.157 1.392-.471.361-.315.541-.786.541-1.415v-.588Zm5.502 3.26c-.575 0-1.081-.118-1.52-.355a2.433 2.433 0 0 1-1.024-1.083c-.245-.485-.367-1.096-.367-1.834 0-.772.128-1.403.384-1.892.26-.493.617-.857 1.071-1.094.454-.237.971-.355 1.549-.355.318 0 .625.033.92.099.299.062.543.141.733.238l-.291.81a5.007 5.007 0 0 0-.675-.21 2.976 2.976 0 0 0-.71-.093c-.443 0-.811.095-1.106.285-.292.19-.511.47-.658.838-.144.37-.216.823-.216 1.363 0 .516.07.957.21 1.321.143.365.355.645.634.839.284.19.637.285 1.06.285.338 0 .642-.035.914-.105.272-.074.518-.159.739-.256v.862a2.982 2.982 0 0 1-.716.25c-.26.058-.57.087-.931.087Zm5.717 0c-.575 0-1.081-.118-1.52-.355a2.433 2.433 0 0 1-1.024-1.083c-.245-.485-.367-1.096-.367-1.834 0-.772.128-1.403.384-1.892.26-.493.617-.857 1.071-1.094.454-.237.971-.355 1.549-.355.318 0 .625.033.92.099.299.062.543.141.733.238l-.291.81a5.007 5.007 0 0 0-.675-.21 2.976 2.976 0 0 0-.71-.093c-.443 0-.811.095-1.106.285-.292.19-.511.47-.658.838-.144.37-.216.823-.216 1.363 0 .516.07.957.21 1.321.143.365.355.645.634.839.284.19.637.285 1.06.285.338 0 .642-.035.914-.105.272-.074.518-.159.739-.256v.862a2.982 2.982 0 0 1-.716.25c-.26.058-.57.087-.931.087Zm4.127-6.497v6.38h-.966v-6.38h.966Zm-.471-2.387c.159 0 .295.053.407.157.117.101.175.26.175.478 0 .213-.058.372-.175.477a.575.575 0 0 1-.407.157.59.59 0 0 1-.419-.157c-.109-.105-.163-.264-.163-.477 0-.218.054-.377.163-.478a.59.59 0 0 1 .419-.157Zm5.542 2.27c.757 0 1.33.187 1.718.56.388.368.582.962.582 1.781v4.157h-.955v-4.093c0-.532-.122-.93-.367-1.193-.24-.264-.611-.396-1.112-.396-.706 0-1.203.2-1.49.6-.287.4-.431.98-.431 1.74v3.342h-.966v-6.38h.78l.145.919h.053c.136-.225.308-.413.518-.565.21-.155.444-.271.704-.349a2.73 2.73 0 0 1 .821-.122Zm8.419 4.751c0 .408-.103.751-.309 1.03-.202.276-.493.484-.873.624-.377.14-.827.21-1.351.21-.446 0-.832-.036-1.158-.106a3.347 3.347 0 0 1-.856-.296v-.891c.26.128.57.244.931.35.361.104.73.156 1.106.156.552 0 .951-.089 1.2-.267a.85.85 0 0 0 .372-.728.735.735 0 0 0-.151-.46c-.097-.136-.262-.266-.495-.39a7.353 7.353 0 0 0-.966-.42 11.165 11.165 0 0 1-1.06-.46 1.976 1.976 0 0 1-.687-.564c-.159-.221-.239-.508-.239-.862 0-.54.218-.952.652-1.24.439-.29 1.013-.436 1.724-.436.384 0 .743.038 1.077.116.337.074.652.175.943.303l-.326.774a5.983 5.983 0 0 0-.844-.285 3.626 3.626 0 0 0-.914-.117c-.447 0-.79.074-1.031.222-.237.147-.355.349-.355.605 0 .198.054.361.163.49.113.127.291.248.536.36.244.113.566.245.966.396.4.147.745.3 1.036.46.292.155.515.345.67.57.159.222.239.507.239.856Z"/><path fill="#fff" d="M20.89 162.064H297.11v51.872H20.89z"/><path fill="#262939" d="M43.477 178.399c0 .799-.148 1.467-.446 2.004-.298.534-.73.936-1.295 1.208-.566.268-1.249.403-2.048.403h-1.97v-7.093h2.184c.734 0 1.368.132 1.902.398.533.262.946.651 1.237 1.169.29.514.436 1.151.436 1.911Zm-1.212.034c0-.582-.093-1.061-.277-1.436a1.769 1.769 0 0 0-.805-.834c-.353-.185-.788-.277-1.306-.277h-.994v5.153h.825c.857 0 1.497-.219 1.92-.655.425-.437.636-1.087.636-1.951Zm4.73-1.892c.679 0 1.192.151 1.538.451.349.301.524.77.524 1.407v3.615h-.81l-.219-.762h-.039a2.77 2.77 0 0 1-.47.48c-.162.126-.35.22-.563.282-.21.064-.468.097-.772.097-.32 0-.606-.059-.858-.175a1.37 1.37 0 0 1-.597-.543c-.145-.243-.218-.55-.218-.922 0-.553.205-.969.616-1.247.414-.278 1.038-.432 1.872-.461l.932-.034v-.281c0-.372-.087-.637-.262-.796-.171-.158-.414-.238-.728-.238a2.63 2.63 0 0 0-.78.117 5.462 5.462 0 0 0-.738.286l-.369-.805c.262-.139.56-.253.893-.34a4.168 4.168 0 0 1 1.048-.131Zm.931 2.906-.694.024c-.569.02-.968.117-1.198.292a.852.852 0 0 0-.344.718c0 .265.079.459.237.582.159.119.367.179.626.179.395 0 .722-.111.98-.334.262-.227.393-.558.393-.995v-.466Zm4.726 1.742c.148 0 .295-.013.441-.039.146-.029.278-.063.398-.102v.864a2.34 2.34 0 0 1-.49.14c-.2.039-.41.059-.626.059-.304 0-.577-.05-.82-.151a1.193 1.193 0 0 1-.577-.529c-.142-.249-.214-.593-.214-1.033v-2.887h-.732v-.509l.786-.403.373-1.149h.718v1.193h1.538v.868H51.91v2.873c0 .271.068.473.204.606a.737.737 0 0 0 .539.199Zm4.07-4.648c.479 0 .89.099 1.232.296.343.197.607.477.791.839.184.363.277.796.277 1.301v.611h-3.586c.013.521.152.922.418 1.203.268.281.643.422 1.125.422.343 0 .65-.032.922-.097a5.07 5.07 0 0 0 .849-.296v.927a3.704 3.704 0 0 1-.82.276 4.887 4.887 0 0 1-1 .088c-.527 0-.99-.102-1.392-.306a2.234 2.234 0 0 1-.936-.922c-.223-.407-.335-.913-.335-1.518 0-.602.102-1.113.306-1.533.203-.421.49-.741.858-.961.37-.22.8-.33 1.291-.33Zm0 .859c-.359 0-.65.116-.873.349-.22.233-.35.574-.388 1.024h2.445a1.878 1.878 0 0 0-.136-.713 1.032 1.032 0 0 0-.388-.485c-.172-.117-.392-.175-.66-.175Zm7.971 4.711c-.64 0-1.155-.233-1.543-.699-.385-.469-.577-1.159-.577-2.072 0-.921.196-1.618.587-2.091.395-.472.914-.708 1.557-.708.272 0 .51.037.713.112.204.071.379.168.524.291.15.123.275.26.379.412h.053c-.016-.1-.035-.244-.058-.432-.02-.19-.03-.367-.03-.528v-1.931h1.146v7.549h-.893l-.204-.733H66.3c-.097.155-.22.296-.369.422-.145.123-.32.222-.524.296-.2.075-.438.112-.713.112Zm.32-.927c.489 0 .833-.141 1.034-.422.2-.281.304-.703.31-1.266v-.151c0-.601-.097-1.062-.291-1.382-.194-.324-.548-.485-1.063-.485-.41 0-.724.166-.94.499-.214.33-.32.791-.32 1.383s.106 1.045.32 1.358c.216.311.533.466.95.466Zm6.205-4.643c.479 0 .89.099 1.233.296.342.197.606.477.79.839.185.363.277.796.277 1.301v.611h-3.585c.013.521.152.922.417 1.203.268.281.644.422 1.125.422.343 0 .65-.032.922-.097a5.07 5.07 0 0 0 .85-.296v.927a3.704 3.704 0 0 1-.82.276 4.887 4.887 0 0 1-1 .088c-.527 0-.991-.102-1.393-.306a2.234 2.234 0 0 1-.936-.922c-.223-.407-.335-.913-.335-1.518 0-.602.102-1.113.306-1.533.204-.421.49-.741.859-.961.368-.22.799-.33 1.29-.33Zm0 .859c-.359 0-.65.116-.873.349-.22.233-.35.574-.388 1.024h2.445a1.88 1.88 0 0 0-.136-.713 1.032 1.032 0 0 0-.388-.485c-.171-.117-.391-.175-.66-.175Zm7.971 4.711c-.64 0-1.154-.233-1.542-.699-.385-.469-.578-1.159-.578-2.072 0-.921.196-1.618.587-2.091.395-.472.914-.708 1.558-.708.271 0 .509.037.713.112.203.071.378.168.524.291.149.123.275.26.378.412h.053c-.016-.1-.035-.244-.058-.432-.02-.19-.029-.367-.029-.528v-1.931h1.145v7.549h-.892l-.204-.733h-.049a1.705 1.705 0 0 1-.893.718c-.2.075-.438.112-.713.112Zm.32-.927c.489 0 .833-.141 1.034-.422.2-.281.304-.703.31-1.266v-.151c0-.601-.097-1.062-.29-1.382-.195-.324-.549-.485-1.063-.485-.41 0-.725.166-.941.499-.214.33-.32.791-.32 1.383s.106 1.045.32 1.358c.216.311.533.466.95.466Zm6.206-4.643c.478 0 .89.099 1.232.296.343.197.606.477.79.839.185.363.277.796.277 1.301v.611H84.43c.013.521.152.922.417 1.203.269.281.644.422 1.126.422.343 0 .65-.032.922-.097.274-.068.557-.166.849-.296v.927a3.704 3.704 0 0 1-.82.276 4.886 4.886 0 0 1-1 .088c-.527 0-.991-.102-1.392-.306a2.234 2.234 0 0 1-.937-.922c-.223-.407-.334-.913-.334-1.518 0-.602.102-1.113.305-1.533.204-.421.49-.741.86-.961.368-.22.798-.33 1.29-.33Zm0 .859c-.36 0-.65.116-.874.349-.22.233-.349.574-.388 1.024h2.445a1.876 1.876 0 0 0-.135-.713 1.032 1.032 0 0 0-.389-.485c-.171-.117-.39-.175-.66-.175Zm1.586-2.998v.097a5.187 5.187 0 0 1-.315.339c-.133.13-.277.267-.432.413-.155.142-.309.279-.461.412-.152.129-.29.239-.412.33h-.762v-.126c.107-.123.225-.27.354-.442a12.828 12.828 0 0 0 .713-1.023h1.315Zm3.144 7.612H89.3v-7.549h1.145v7.549Zm2.77-5.371v5.371h-1.14v-5.371h1.14Zm-.563-2.057c.175 0 .325.047.451.141.13.093.195.255.195.485 0 .226-.065.388-.195.485a.734.734 0 0 1-.45.141.75.75 0 0 1-.462-.141c-.123-.097-.184-.259-.184-.485 0-.23.061-.392.184-.485a.75.75 0 0 1 .461-.141Zm3.425 7.428-2.042-5.371h1.208l1.106 3.154c.071.2.136.417.194.65.058.233.099.428.121.587h.04c.022-.165.066-.363.13-.592a11.1 11.1 0 0 1 .2-.645l1.105-3.154h1.204l-2.043 5.371h-1.223Zm6.802-5.473a3.187 3.187 0 0 1 .573.054l-.107 1.067a1.413 1.413 0 0 0-.252-.044 2.566 2.566 0 0 0-.262-.014c-.204 0-.398.034-.582.102a1.367 1.367 0 0 0-.825.8 1.857 1.857 0 0 0-.121.699v2.809h-1.145v-5.371h.892l.155.946h.054c.107-.191.239-.365.398-.524.158-.158.339-.284.543-.378a1.58 1.58 0 0 1 .679-.146Zm3.673 0c.679 0 1.192.151 1.538.451.349.301.524.77.524 1.407v3.615h-.81l-.219-.762h-.039a2.754 2.754 0 0 1-.47.48c-.162.126-.349.22-.563.282-.21.064-.467.097-.771.097-.321 0-.607-.059-.859-.175a1.374 1.374 0 0 1-.597-.543c-.145-.243-.218-.55-.218-.922 0-.553.205-.969.616-1.247.414-.278 1.038-.432 1.873-.461l.931-.034v-.281c0-.372-.087-.637-.262-.796-.171-.158-.414-.238-.728-.238-.268 0-.528.039-.781.117a5.451 5.451 0 0 0-.737.286l-.369-.805c.262-.139.56-.253.893-.34a4.168 4.168 0 0 1 1.048-.131Zm.931 2.906-.693.024c-.57.02-.969.117-1.199.292a.853.853 0 0 0-.344.718c0 .265.079.459.238.582.158.119.367.179.625.179.395 0 .722-.111.98-.334.262-.227.393-.558.393-.995v-.466Zm5.526-2.906c.605 0 1.076.157 1.412.471.34.31.509.81.509 1.499v3.503h-1.14v-3.29c0-.417-.085-.729-.257-.936-.171-.21-.436-.315-.795-.315-.521 0-.883.16-1.087.48-.201.32-.301.784-.301 1.392v2.669h-1.14v-5.371h.888l.16.728h.063a1.54 1.54 0 0 1 .432-.461 1.93 1.93 0 0 1 .582-.277c.217-.061.441-.092.674-.092Zm5.681 5.57c-.507 0-.947-.099-1.319-.296a1.991 1.991 0 0 1-.859-.907c-.201-.408-.301-.925-.301-1.553 0-.653.11-1.187.33-1.601.22-.414.524-.72.912-.917.392-.197.84-.296 1.344-.296a3.627 3.627 0 0 1 1.533.325l-.339.912a4.969 4.969 0 0 0-.607-.203 2.325 2.325 0 0 0-.597-.083c-.313 0-.575.07-.786.209a1.246 1.246 0 0 0-.465.621c-.101.275-.151.616-.151 1.023 0 .395.052.728.156 1 .103.268.257.472.46.611.204.136.455.204.752.204.295 0 .558-.036.791-.107.233-.071.453-.163.66-.276v.989a2.429 2.429 0 0 1-.655.257 3.557 3.557 0 0 1-.859.088Zm4.915-5.57c.479 0 .889.099 1.232.296.343.197.607.477.791.839.184.363.277.796.277 1.301v.611h-3.586c.013.521.152.922.418 1.203.268.281.643.422 1.125.422.343 0 .65-.032.922-.097.275-.068.558-.166.849-.296v.927a3.719 3.719 0 0 1-.82.276 4.883 4.883 0 0 1-.999.088c-.528 0-.992-.102-1.393-.306a2.23 2.23 0 0 1-.936-.922c-.223-.407-.335-.913-.335-1.518 0-.602.102-1.113.306-1.533a2.2 2.2 0 0 1 .858-.961c.369-.22.799-.33 1.291-.33Zm0 .859c-.359 0-.65.116-.873.349-.22.233-.35.574-.388 1.024h2.445a1.899 1.899 0 0 0-.136-.713 1.035 1.035 0 0 0-.388-.485c-.172-.117-.392-.175-.66-.175Z"/><path fill="#495574" d="M40.275 201.988h-.786v-5.516l.01-.378.024-.354c-.1.103-.194.192-.281.266l-.325.267-.81.65-.422-.548 1.92-1.48h.67v7.093Zm5.686 0h-.786v-5.516l.01-.378c.006-.117.015-.235.024-.354-.1.103-.194.192-.281.266l-.325.267-.81.65-.422-.548 1.92-1.48h.67v7.093Zm7.52.097c-.673 0-1.206-.229-1.6-.689-.392-.459-.588-1.141-.588-2.047 0-.915.2-1.606.602-2.072.4-.469.934-.703 1.6-.703.282 0 .528.037.738.112a1.834 1.834 0 0 1 .927.722h.058a7.97 7.97 0 0 1-.058-.839v-2.13h.805v7.549h-.65l-.121-.757h-.034a1.832 1.832 0 0 1-.932.743c-.21.074-.459.111-.747.111Zm.126-.669c.57 0 .972-.162 1.208-.485.236-.324.355-.804.355-1.441v-.146c0-.676-.114-1.195-.34-1.557-.223-.362-.63-.543-1.223-.543-.495 0-.865.19-1.11.572-.246.378-.37.896-.37 1.552 0 .654.122 1.158.364 1.514.246.356.618.534 1.116.534Zm6.113-4.842c.453 0 .841.1 1.165.301.323.2.57.482.742.844.171.359.257.779.257 1.261v.5h-3.673c.01.624.165 1.1.466 1.426.3.327.725.49 1.271.49.337 0 .634-.03.893-.092.259-.061.527-.152.805-.271v.708c-.268.12-.535.207-.8.262a4.592 4.592 0 0 1-.932.082c-.51 0-.957-.103-1.339-.31a2.172 2.172 0 0 1-.883-.922c-.21-.404-.315-.899-.315-1.485 0-.572.095-1.067.286-1.484.194-.421.466-.744.815-.97.353-.227.767-.34 1.242-.34Zm-.01.66c-.43 0-.773.14-1.028.422-.256.281-.407.674-.456 1.179h2.814a2.276 2.276 0 0 0-.15-.835 1.17 1.17 0 0 0-.432-.562c-.194-.136-.444-.204-.747-.204Zm1.344-2.858v.097a4.38 4.38 0 0 1-.267.34 9.703 9.703 0 0 1-1.16 1.155h-.537v-.117a7.39 7.39 0 0 0 .34-.441c.122-.175.242-.353.358-.534.117-.184.214-.351.291-.5h.975Zm4.328 7.709c-.479 0-.9-.098-1.266-.296a2.028 2.028 0 0 1-.854-.902c-.204-.404-.306-.914-.306-1.528 0-.644.107-1.169.32-1.577.217-.411.515-.715.893-.912a2.754 2.754 0 0 1 1.29-.296c.266 0 .521.027.767.082.25.052.453.119.611.199l-.242.675a4.157 4.157 0 0 0-.563-.175 2.47 2.47 0 0 0-.592-.078c-.369 0-.676.08-.922.238a1.451 1.451 0 0 0-.548.699c-.12.307-.18.685-.18 1.135 0 .43.059.797.175 1.101.12.304.296.537.53.699.235.158.53.238.882.238.282 0 .535-.029.762-.088.226-.061.431-.132.616-.213v.718c-.178.09-.377.16-.597.209a3.636 3.636 0 0 1-.776.072Zm4.682-5.511c.452 0 .84.1 1.164.301.323.2.57.482.742.844.172.359.257.779.257 1.261v.5h-3.672c.01.624.165 1.1.466 1.426.3.327.724.49 1.27.49.337 0 .635-.03.893-.092.26-.061.528-.152.806-.271v.708c-.269.12-.536.207-.8.262a4.592 4.592 0 0 1-.932.082c-.511 0-.958-.103-1.34-.31a2.172 2.172 0 0 1-.882-.922c-.21-.404-.316-.899-.316-1.485 0-.572.096-1.067.287-1.484.194-.421.465-.744.815-.97.352-.227.766-.34 1.242-.34Zm-.01.66c-.43 0-.773.14-1.029.422-.255.281-.407.674-.456 1.179h2.814a2.276 2.276 0 0 0-.15-.835 1.169 1.169 0 0 0-.432-.562c-.194-.136-.443-.204-.747-.204Zm9.315-.66c.585 0 1.027.154 1.324.461.298.304.447.794.447 1.47v3.483h-.796v-3.444c0-.43-.094-.752-.281-.966-.185-.216-.46-.325-.825-.325-.514 0-.888.149-1.12.447-.234.297-.35.735-.35 1.314v2.974h-.8v-3.444c0-.288-.043-.527-.127-.718a.859.859 0 0 0-.368-.427c-.162-.097-.368-.146-.617-.146-.352 0-.635.073-.849.219-.213.145-.368.362-.465.65-.094.284-.141.635-.141 1.052v2.814h-.805v-5.317h.65l.12.752h.045c.106-.184.24-.34.402-.466.162-.126.343-.221.544-.286.2-.065.414-.097.64-.097.404 0 .742.076 1.014.228.275.149.474.377.597.684h.043c.175-.307.414-.535.718-.684a2.204 2.204 0 0 1 1-.228Zm4.23-2.135v1.888c0 .216-.006.426-.02.63l-.023.476h.043a1.8 1.8 0 0 1 .631-.607c.275-.165.626-.247 1.053-.247.666 0 1.197.231 1.591.694.398.459.597 1.143.597 2.052 0 .598-.09 1.103-.272 1.513-.18.411-.436.722-.766.932-.33.21-.72.315-1.17.315-.42 0-.766-.077-1.038-.233a1.807 1.807 0 0 1-.62-.577h-.064l-.165.713h-.582v-7.549h.805Zm1.553 2.814c-.385 0-.69.076-.917.228-.227.149-.39.375-.49.679-.097.301-.146.683-.146 1.145v.044c0 .67.112 1.182.335 1.538.223.353.63.529 1.218.529.495 0 .865-.181 1.11-.544.25-.362.374-.879.374-1.552 0-.686-.123-1.202-.368-1.548-.243-.346-.615-.519-1.116-.519Zm6.142-.679c.107 0 .218.006.335.019.116.01.22.025.31.044l-.102.747a2.5 2.5 0 0 0-.592-.073 1.445 1.445 0 0 0-1.101.5 1.723 1.723 0 0 0-.335.577c-.08.224-.121.473-.121.748v2.852h-.81v-5.317h.67l.087.98h.034c.11-.197.242-.377.397-.538a1.79 1.79 0 0 1 .539-.393c.207-.097.437-.146.689-.146Zm3.697 0c.453 0 .84.1 1.164.301.323.2.57.482.742.844.172.359.257.779.257 1.261v.5h-3.672c.01.624.165 1.1.466 1.426.3.327.724.49 1.27.49.337 0 .635-.03.893-.092.26-.061.528-.152.806-.271v.708c-.269.12-.535.207-.8.262a4.592 4.592 0 0 1-.932.082c-.511 0-.958-.103-1.34-.31a2.172 2.172 0 0 1-.882-.922c-.21-.404-.316-.899-.316-1.485 0-.572.096-1.067.287-1.484.194-.421.465-.744.815-.97.352-.227.766-.34 1.242-.34Zm-.01.66c-.43 0-.773.14-1.028.422-.256.281-.408.674-.457 1.179h2.814a2.276 2.276 0 0 0-.15-.835 1.17 1.17 0 0 0-.432-.562c-.194-.136-.443-.204-.747-.204Zm10.411 4.754h-4.647v-.674l1.897-1.926c.352-.356.648-.673.887-.951.243-.278.427-.551.553-.82.127-.272.19-.569.19-.893 0-.401-.12-.706-.359-.917-.236-.213-.549-.32-.937-.32-.339 0-.64.058-.902.175a3.862 3.862 0 0 0-.805.495l-.432-.544c.187-.158.391-.299.611-.422.223-.123.461-.22.713-.291.256-.071.527-.107.815-.107.437 0 .814.076 1.131.229.317.152.561.368.732.65.175.281.262.616.262 1.004 0 .375-.074.724-.223 1.048-.149.32-.357.639-.626.956-.268.313-.582.646-.941.999l-1.543 1.538v.034h3.624v.737Zm5.725-3.556c0 .576-.044 1.09-.131 1.543a3.541 3.541 0 0 1-.412 1.15c-.188.313-.43.553-.728.718-.298.161-.655.242-1.072.242-.527 0-.964-.144-1.31-.431-.343-.288-.6-.704-.771-1.247-.169-.547-.253-1.205-.253-1.975 0-.757.076-1.407.228-1.95.156-.547.405-.966.747-1.257.343-.294.796-.441 1.359-.441.534 0 .973.145 1.319.436.347.288.604.706.772 1.252.168.543.252 1.197.252 1.96Zm-3.867 0c0 .66.051 1.21.151 1.65.1.44.262.769.485.989.226.217.522.325.888.325.365 0 .66-.108.883-.325.226-.216.39-.545.49-.985.103-.439.155-.991.155-1.654 0-.65-.05-1.193-.15-1.63-.101-.44-.262-.77-.485-.99-.224-.223-.521-.334-.893-.334s-.67.111-.893.334c-.223.22-.385.55-.485.99-.097.437-.146.98-.146 1.63Zm9.514 3.556h-4.647v-.674l1.896-1.926c.353-.356.649-.673.888-.951.243-.278.427-.551.553-.82.127-.272.19-.569.19-.893 0-.401-.12-.706-.359-.917-.237-.213-.549-.32-.937-.32-.339 0-.64.058-.902.175a3.862 3.862 0 0 0-.805.495l-.432-.544c.187-.158.391-.299.611-.422.223-.123.461-.22.713-.291.256-.071.527-.107.815-.107.437 0 .814.076 1.131.229.317.152.561.368.732.65.175.281.262.616.262 1.004 0 .375-.074.724-.223 1.048-.149.32-.357.639-.626.956-.268.313-.582.646-.941.999l-1.543 1.538v.034h3.624v.737Zm5.424-5.438c0 .317-.061.592-.184.824a1.564 1.564 0 0 1-.514.573 2.14 2.14 0 0 1-.777.306v.038c.563.072.985.253 1.267.544.284.291.427.673.427 1.145 0 .411-.097.774-.291 1.091-.191.317-.486.566-.883.747-.395.178-.901.267-1.519.267-.375 0-.723-.03-1.043-.092a3.618 3.618 0 0 1-.912-.296v-.757c.294.146.614.261.96.345a4.41 4.41 0 0 0 1.005.121c.647 0 1.114-.128 1.402-.383.288-.259.432-.611.432-1.058 0-.307-.081-.554-.243-.742-.158-.191-.388-.33-.689-.417a3.71 3.71 0 0 0-1.077-.136h-.708v-.689h.713c.385 0 .711-.057.98-.17.268-.113.472-.272.611-.475.143-.207.214-.452.214-.733 0-.359-.12-.635-.359-.83-.24-.197-.565-.295-.975-.295-.253 0-.482.025-.689.077a2.85 2.85 0 0 0-.583.214c-.181.09-.362.195-.543.315l-.407-.553c.258-.201.574-.374.946-.519a3.444 3.444 0 0 1 1.266-.219c.724 0 1.268.165 1.63.495.362.33.543.751.543 1.262Z"/><path stroke="#E7ECFA" stroke-width=".994" d="M20.891 213.439h276.218"/><path fill="#fff" d="M20.89 213.936H297.11v51.872H20.89z"/><path fill="#262939" d="M43.637 233.885h-1.43l-3.474-5.662h-.044c.013.191.024.393.034.606.013.214.023.434.029.66.01.227.018.456.024.689v3.707H37.72v-7.093h1.421l3.469 5.623h.034a235.855 235.855 0 0 1-.053-1.228 49.828 49.828 0 0 1-.015-.664v-3.731h1.062v7.093Zm6.502-2.698c0 .447-.059.843-.175 1.189a2.377 2.377 0 0 1-.51.878 2.244 2.244 0 0 1-.805.543 2.892 2.892 0 0 1-1.062.185c-.37 0-.707-.062-1.014-.185a2.311 2.311 0 0 1-.8-.543 2.487 2.487 0 0 1-.52-.878 3.541 3.541 0 0 1-.184-1.189c0-.592.101-1.093.305-1.504.207-.414.502-.729.883-.946.382-.216.836-.325 1.364-.325.494 0 .931.109 1.31.325.378.217.674.532.887.946.214.414.32.916.32 1.504Zm-3.896 0c0 .392.047.726.14 1.005.097.278.246.491.447.64.2.146.459.218.776.218s.576-.072.776-.218c.2-.149.348-.362.442-.64.093-.279.14-.613.14-1.005 0-.391-.047-.723-.14-.994a1.221 1.221 0 0 0-.442-.626c-.2-.146-.46-.218-.78-.218-.473 0-.817.158-1.034.475-.217.317-.325.771-.325 1.363Zm11.275-2.775c.601 0 1.054.156 1.358.466.307.311.46.809.46 1.494v3.513h-1.14v-3.309c0-.407-.078-.715-.237-.922-.158-.207-.4-.31-.723-.31-.453 0-.78.145-.98.436-.197.288-.296.707-.296 1.257v2.848h-1.14v-3.309c0-.272-.035-.498-.107-.679a.795.795 0 0 0-.315-.413.966.966 0 0 0-.538-.14c-.314 0-.565.071-.752.213-.185.143-.317.353-.398.631a3.64 3.64 0 0 0-.121 1.014v2.683h-1.14v-5.371h.887l.16.723h.063a1.52 1.52 0 0 1 .408-.461c.165-.123.348-.213.548-.272.2-.061.41-.092.626-.092.401 0 .739.071 1.014.214.275.139.48.352.616.64h.087c.169-.291.403-.506.704-.645.3-.139.62-.209.956-.209Zm7.796 5.57c-.64 0-1.155-.233-1.543-.699-.385-.469-.577-1.159-.577-2.071 0-.922.196-1.619.587-2.091.395-.473.914-.709 1.557-.709.272 0 .51.037.713.112.204.071.379.168.524.291.15.123.275.26.379.412h.053a11.63 11.63 0 0 1-.058-.431 5.272 5.272 0 0 1-.03-.529v-1.931h1.146v7.549h-.893l-.204-.733h-.048c-.097.155-.22.296-.369.422-.145.123-.32.222-.524.296-.2.075-.438.112-.713.112Zm.32-.927c.489 0 .833-.141 1.034-.422.2-.281.304-.703.31-1.266v-.151c0-.601-.097-1.062-.291-1.382-.194-.324-.548-.485-1.063-.485-.41 0-.724.166-.94.499-.214.33-.32.791-.32 1.383s.106 1.045.32 1.358c.216.311.533.466.95.466Zm8.748-4.541v5.371h-.898l-.155-.723h-.063a1.552 1.552 0 0 1-.432.461 1.946 1.946 0 0 1-.582.267 2.443 2.443 0 0 1-.675.092c-.404 0-.75-.068-1.038-.204a1.445 1.445 0 0 1-.655-.64c-.152-.288-.228-.66-.228-1.116v-3.508h1.145v3.294c0 .418.084.73.252.937.172.207.437.31.796.31.346 0 .621-.071.825-.213.203-.143.347-.353.431-.631.088-.278.132-.619.132-1.024v-2.673h1.145Zm10.285-.102c.601 0 1.054.156 1.358.466.307.311.461.809.461 1.494v3.513h-1.14v-3.309c0-.407-.08-.715-.238-.922-.158-.207-.4-.31-.723-.31-.453 0-.78.145-.98.436-.197.288-.296.707-.296 1.257v2.848h-1.14v-3.309c0-.272-.035-.498-.106-.679a.795.795 0 0 0-.316-.413.966.966 0 0 0-.538-.14c-.314 0-.565.071-.752.213-.185.143-.317.353-.398.631-.081.275-.121.613-.121 1.014v2.683h-1.14v-5.371h.887l.16.723h.063c.11-.188.246-.341.408-.461a1.72 1.72 0 0 1 .548-.272c.2-.061.41-.092.626-.092.401 0 .74.071 1.014.214.275.139.48.352.616.64h.087c.169-.291.403-.506.704-.645.3-.139.62-.209.956-.209Zm5.55 0c.478 0 .89.099 1.232.296.343.197.606.477.79.84.185.362.277.795.277 1.3v.611h-3.585c.013.521.152.922.417 1.203.269.282.644.422 1.126.422.343 0 .65-.032.922-.097.275-.068.558-.166.849-.296v.927a3.704 3.704 0 0 1-.82.276 4.886 4.886 0 0 1-1 .088c-.527 0-.99-.102-1.392-.306a2.234 2.234 0 0 1-.936-.922c-.223-.407-.335-.913-.335-1.518 0-.602.102-1.113.306-1.533.203-.421.49-.741.858-.961.369-.22.8-.33 1.29-.33Zm0 .859c-.36 0-.65.116-.873.349-.22.233-.35.574-.389 1.024h2.446a1.88 1.88 0 0 0-.136-.713 1.031 1.031 0 0 0-.388-.485c-.172-.117-.392-.175-.66-.175Zm1.586-2.998v.097a4.941 4.941 0 0 1-.315.339c-.133.13-.277.267-.432.413-.155.142-.309.28-.46.412-.153.13-.29.239-.413.33h-.762v-.126c.107-.123.225-.27.354-.442a12.828 12.828 0 0 0 .713-1.023h1.315Zm3.804 7.709c-.64 0-1.155-.233-1.543-.699-.385-.469-.577-1.159-.577-2.071 0-.922.195-1.619.587-2.091.394-.473.913-.709 1.557-.709.272 0 .51.037.713.112.204.071.379.168.524.291.149.123.275.26.379.412h.053a11.85 11.85 0 0 1-.058-.431 5.272 5.272 0 0 1-.03-.529v-1.931h1.146v7.549h-.893l-.204-.733h-.048a1.705 1.705 0 0 1-.893.718c-.2.075-.438.112-.713.112Zm.32-.927c.488 0 .833-.141 1.033-.422.2-.281.304-.703.31-1.266v-.151c0-.601-.096-1.062-.29-1.382-.194-.324-.548-.485-1.063-.485-.41 0-.724.166-.94.499-.214.33-.321.791-.321 1.383s.107 1.045.32 1.358c.217.311.534.466.951.466Zm5.206-4.541v5.371h-1.14v-5.371h1.14Zm-.563-2.057c.175 0 .325.047.451.141.13.094.194.255.194.485 0 .226-.064.388-.194.485a.732.732 0 0 1-.451.141.75.75 0 0 1-.461-.141c-.123-.097-.184-.259-.184-.485 0-.23.061-.391.184-.485a.75.75 0 0 1 .461-.141Zm4.361 7.525c-.507 0-.947-.099-1.319-.296a1.986 1.986 0 0 1-.859-.907c-.2-.408-.301-.925-.301-1.553 0-.653.11-1.187.33-1.601.22-.414.524-.72.912-.917.392-.197.84-.296 1.344-.296a3.627 3.627 0 0 1 1.533.325l-.339.912c-.198-.08-.4-.148-.607-.203a2.325 2.325 0 0 0-.597-.083c-.313 0-.575.07-.785.209a1.248 1.248 0 0 0-.466.621c-.1.275-.151.616-.151 1.023 0 .395.052.728.156 1 .103.268.257.472.461.611.203.136.454.204.752.204.294 0 .557-.036.79-.107.233-.071.453-.163.66-.276v.989a2.429 2.429 0 0 1-.655.257 3.557 3.557 0 0 1-.859.088Zm4.881-5.57c.679 0 1.192.151 1.538.451.349.301.524.77.524 1.407v3.615h-.81l-.219-.762h-.038a2.757 2.757 0 0 1-.471.48c-.162.127-.349.22-.563.282-.21.064-.467.097-.771.097a2.02 2.02 0 0 1-.859-.175 1.374 1.374 0 0 1-.597-.543c-.145-.243-.218-.55-.218-.922 0-.553.205-.969.616-1.247.414-.278 1.038-.432 1.873-.461l.931-.034v-.281c0-.372-.087-.637-.262-.796-.171-.158-.414-.237-.727-.237-.269 0-.529.038-.781.116a5.6 5.6 0 0 0-.738.286l-.369-.805a4.181 4.181 0 0 1 1.941-.471Zm.932 2.906-.694.025c-.569.019-.969.116-1.199.291a.853.853 0 0 0-.344.718c0 .265.079.459.238.582.158.12.367.179.626.179.394 0 .721-.111.98-.334.262-.227.393-.558.393-.995v-.466Zm8.795-2.906c.602 0 1.055.156 1.359.466.307.311.461.809.461 1.494v3.513h-1.14v-3.309c0-.407-.08-.715-.238-.922-.159-.207-.4-.31-.723-.31-.453 0-.78.145-.98.436-.197.288-.296.707-.296 1.257v2.848h-1.14v-3.309a1.87 1.87 0 0 0-.107-.679.797.797 0 0 0-.315-.413.966.966 0 0 0-.539-.14c-.313 0-.564.071-.752.213-.184.143-.317.353-.397.631a3.634 3.634 0 0 0-.122 1.014v2.683h-1.14v-5.371h.888l.16.723h.063c.11-.188.246-.341.408-.461.165-.123.347-.213.548-.272.2-.061.409-.092.626-.092.401 0 .739.071 1.014.214.275.139.48.352.616.64h.087c.168-.291.403-.506.704-.645.3-.139.619-.209.955-.209Zm5.55 0c.479 0 .89.099 1.233.296.343.197.606.477.791.84.184.362.276.795.276 1.3v.611h-3.585c.013.521.152.922.417 1.203.269.282.644.422 1.126.422.342 0 .65-.032.921-.097.275-.068.558-.166.849-.296v.927a3.694 3.694 0 0 1-.819.276 4.9 4.9 0 0 1-1 .088c-.527 0-.991-.102-1.392-.306a2.238 2.238 0 0 1-.937-.922c-.223-.407-.334-.913-.334-1.518 0-.602.102-1.113.305-1.533.204-.421.49-.741.859-.961.369-.22.799-.33 1.29-.33Zm0 .859c-.359 0-.65.116-.873.349-.22.233-.349.574-.388 1.024h2.445a1.864 1.864 0 0 0-.136-.713 1.029 1.029 0 0 0-.388-.485c-.171-.117-.391-.175-.66-.175Zm6.385-.859c.605 0 1.075.157 1.412.471.339.31.509.81.509 1.499v3.503h-1.14v-3.29c0-.417-.086-.729-.257-.936-.171-.21-.437-.315-.796-.315-.52 0-.883.16-1.086.48-.201.32-.301.784-.301 1.392v2.669h-1.14v-5.371h.888l.16.728h.063a1.54 1.54 0 0 1 .432-.461 1.93 1.93 0 0 1 .582-.277 2.47 2.47 0 0 1 .674-.092Zm5.516 4.648c.149 0 .296-.013.442-.039.145-.029.278-.063.398-.102v.864a2.42 2.42 0 0 1-.49.141c-.201.038-.41.058-.626.058-.304 0-.578-.05-.82-.151a1.198 1.198 0 0 1-.578-.528c-.142-.249-.213-.594-.213-1.034v-2.886h-.733v-.51l.786-.403.374-1.149h.718v1.193h1.538v.869h-1.538v2.872c0 .271.068.473.204.606a.736.736 0 0 0 .538.199Z"/><path fill="#495574" d="M39.61 246.766c.916 0 1.584.18 2.004.539.424.356.636.867.636 1.533 0 .301-.05.587-.15.859a1.824 1.824 0 0 1-.476.713c-.22.204-.51.365-.868.485-.356.117-.793.175-1.31.175h-.864v2.789h-.825v-7.093h1.854Zm-.077.704h-.95v2.891h.77c.453 0 .83-.048 1.131-.145.304-.097.532-.254.684-.471.152-.22.228-.511.228-.873 0-.472-.15-.823-.451-1.053-.3-.233-.772-.349-1.412-.349Zm6.07.985c.633 0 1.104.142 1.411.427.307.284.461.739.461 1.363v3.614h-.587l-.155-.786h-.04a2.93 2.93 0 0 1-.465.49c-.162.13-.35.228-.563.296-.21.065-.469.097-.776.097-.323 0-.611-.056-.863-.169a1.349 1.349 0 0 1-.592-.515c-.143-.229-.214-.52-.214-.873 0-.53.21-.938.63-1.223.421-.284 1.062-.439 1.922-.465l.917-.039v-.325c0-.459-.099-.781-.296-.966-.197-.184-.475-.276-.834-.276-.278 0-.544.04-.796.121a5.457 5.457 0 0 0-.718.286l-.248-.611c.24-.123.515-.228.825-.315.31-.088.638-.131.98-.131Zm1.076 2.785-.81.034c-.663.025-1.13.134-1.402.325-.272.19-.407.46-.407.81 0 .304.092.529.276.674.184.146.429.218.733.218.472 0 .858-.131 1.16-.393.3-.262.45-.654.45-1.178v-.49Zm4.871-2.795c.107 0 .219.007.335.019.117.01.22.025.31.044l-.101.747a2.49 2.49 0 0 0-.592-.072 1.43 1.43 0 0 0-.607.131 1.444 1.444 0 0 0-.495.368 1.718 1.718 0 0 0-.334.578c-.081.223-.122.472-.122.747v2.852h-.81v-5.317h.67l.087.98h.034c.11-.197.243-.377.398-.538a1.79 1.79 0 0 1 .538-.393c.207-.097.437-.146.69-.146Zm3.639.01c.634 0 1.104.142 1.412.427.307.284.46.739.46 1.363v3.614h-.587l-.155-.786h-.038a2.927 2.927 0 0 1-.466.49c-.162.13-.35.228-.563.296-.21.065-.469.097-.776.097-.324 0-.612-.056-.864-.169a1.349 1.349 0 0 1-.592-.515c-.142-.229-.213-.52-.213-.873 0-.53.21-.938.63-1.223.421-.284 1.061-.439 1.922-.465l.917-.039v-.325c0-.459-.099-.781-.296-.966-.198-.184-.476-.276-.835-.276-.278 0-.543.04-.795.121a5.457 5.457 0 0 0-.718.286l-.248-.611c.24-.123.514-.228.825-.315.31-.088.637-.131.98-.131Zm1.077 2.785-.81.034c-.663.025-1.13.134-1.402.325-.272.19-.408.46-.408.81 0 .304.092.529.277.674.184.146.428.218.732.218.472 0 .859-.131 1.16-.393.3-.262.45-.654.45-1.178v-.49Zm4.585 2.716c-.48 0-.901-.098-1.267-.296a2.028 2.028 0 0 1-.854-.902c-.203-.404-.305-.914-.305-1.528 0-.644.107-1.169.32-1.577.217-.411.514-.715.893-.912a2.754 2.754 0 0 1 1.29-.296c.266 0 .521.028.767.083.249.051.453.118.611.198l-.242.675a4.157 4.157 0 0 0-.563-.175 2.467 2.467 0 0 0-.592-.077c-.369 0-.676.079-.922.237a1.451 1.451 0 0 0-.548.699c-.12.307-.18.686-.18 1.135 0 .43.059.797.175 1.101.12.304.296.537.529.699.236.159.53.238.883.238.281 0 .535-.029.761-.088.227-.061.432-.132.617-.213v.718c-.178.091-.377.16-.597.209a3.636 3.636 0 0 1-.776.072Zm4.681-5.511c.453 0 .841.1 1.165.301.323.2.57.482.742.844.171.359.257.78.257 1.261v.5h-3.672c.01.624.165 1.1.465 1.426.301.327.725.49 1.271.49.337 0 .634-.03.893-.092.259-.061.527-.152.805-.271v.708c-.268.12-.535.207-.8.262a4.592 4.592 0 0 1-.932.082c-.51 0-.957-.103-1.339-.31a2.172 2.172 0 0 1-.883-.922c-.21-.404-.315-.899-.315-1.484 0-.573.096-1.068.286-1.485a2.24 2.24 0 0 1 .815-.97c.353-.227.767-.34 1.242-.34Zm-.01.66c-.43 0-.772.141-1.028.422-.255.281-.407.674-.456 1.179h2.814a2.276 2.276 0 0 0-.15-.835 1.17 1.17 0 0 0-.432-.562c-.194-.136-.443-.204-.747-.204Zm1.344-2.858v.097a4.376 4.376 0 0 1-.266.34 9.193 9.193 0 0 1-.781.82 6.361 6.361 0 0 1-.379.335h-.538v-.117a7.39 7.39 0 0 0 .34-.441c.122-.175.242-.353.358-.534.117-.184.214-.351.291-.5h.975Zm3.916 7.05c.132 0 .268-.012.407-.034.14-.023.253-.05.34-.083v.626a1.702 1.702 0 0 1-.393.107 2.796 2.796 0 0 1-.485.043c-.282 0-.537-.048-.767-.145-.23-.1-.414-.269-.553-.505-.136-.236-.204-.562-.204-.98v-3.153h-.756v-.393l.761-.316.32-1.154h.486v1.232h1.557v.631h-1.558v3.129c0 .333.076.582.228.747.156.165.361.248.617.248Zm3.813-4.842c.634 0 1.105.142 1.412.427.307.284.46.739.46 1.363v3.614h-.586l-.156-.786h-.038a2.927 2.927 0 0 1-.466.49 1.72 1.72 0 0 1-.563.296 2.66 2.66 0 0 1-.776.097c-.324 0-.612-.056-.864-.169a1.35 1.35 0 0 1-.592-.515c-.142-.229-.213-.52-.213-.873 0-.53.21-.938.63-1.223.421-.284 1.061-.439 1.922-.465l.917-.039v-.325c0-.459-.099-.781-.296-.966-.198-.184-.476-.276-.835-.276-.278 0-.543.04-.795.121a5.463 5.463 0 0 0-.718.286l-.248-.611c.24-.123.514-.228.825-.315.31-.088.637-.131.98-.131Zm1.077 2.785-.81.034c-.663.025-1.13.134-1.402.325-.272.19-.408.46-.408.81 0 .304.092.529.277.674.184.146.428.218.732.218.472 0 .859-.131 1.16-.393.3-.262.451-.654.451-1.178v-.49Zm8.228-2.795c.586 0 1.027.154 1.325.461.297.304.446.794.446 1.47v3.483h-.796v-3.444c0-.43-.094-.752-.281-.966-.184-.216-.46-.325-.825-.325-.514 0-.888.149-1.12.447-.233.297-.35.735-.35 1.314v2.974h-.8v-3.444c0-.288-.042-.527-.126-.718a.858.858 0 0 0-.37-.427c-.16-.097-.366-.146-.615-.146-.353 0-.636.073-.85.219-.213.145-.368.362-.465.65-.094.284-.14.635-.14 1.052v2.814h-.806v-5.317h.65l.121.752h.044c.107-.184.24-.34.403-.466.161-.126.342-.221.543-.286.2-.065.414-.097.64-.097.405 0 .743.076 1.014.228.275.149.474.377.597.684h.044c.174-.307.414-.535.718-.684a2.204 2.204 0 0 1 1-.228Zm8.01 2.746c0 .437-.057.826-.17 1.169a2.395 2.395 0 0 1-.49.869 2.132 2.132 0 0 1-.776.543c-.3.123-.642.184-1.024.184a2.54 2.54 0 0 1-.98-.184 2.21 2.21 0 0 1-.766-.543 2.511 2.511 0 0 1-.5-.869 3.626 3.626 0 0 1-.175-1.169c0-.582.099-1.077.296-1.485.198-.41.479-.722.844-.936.37-.217.807-.325 1.315-.325.485 0 .91.108 1.271.325.366.217.649.531.85.941.203.408.305.901.305 1.48Zm-4.046 0c0 .427.056.797.17 1.111a1.5 1.5 0 0 0 .524.728c.236.171.54.257.912.257.368 0 .67-.086.907-.257.24-.172.416-.414.529-.728.113-.314.17-.684.17-1.111 0-.424-.057-.789-.17-1.096a1.467 1.467 0 0 0-.524-.718c-.236-.169-.542-.253-.917-.253-.553 0-.96.183-1.218.549-.255.365-.383.871-.383 1.518Zm6.249 2.668h-.81v-7.549h.81v7.549Zm6.923 0h-.786v-5.516l.009-.378c.007-.117.015-.235.025-.354a4.103 4.103 0 0 1-.282.266l-.325.267-.81.65-.422-.548 1.921-1.48h.67v7.093Zm6.2-3.716h2.479v3.44c-.372.126-.755.22-1.15.281a8.449 8.449 0 0 1-1.315.092c-.737 0-1.36-.147-1.867-.441a2.845 2.845 0 0 1-1.15-1.257c-.262-.546-.393-1.195-.393-1.945 0-.734.144-1.375.432-1.921.291-.547.71-.971 1.256-1.271.55-.304 1.21-.456 1.98-.456a5.44 5.44 0 0 1 2.11.417l-.315.718a5.858 5.858 0 0 0-.869-.291 3.882 3.882 0 0 0-.975-.122c-.579 0-1.075.12-1.489.359-.411.24-.726.578-.946 1.014-.217.437-.325.955-.325 1.553 0 .592.095 1.108.286 1.548.191.436.488.776.893 1.018.404.243.925.364 1.562.364.32 0 .595-.018.824-.053.23-.039.439-.084.626-.136v-2.173h-1.654v-.738Zm9.81-2.751c-.392 0-.744.068-1.058.204-.31.133-.576.327-.796.582a2.646 2.646 0 0 0-.499.917 3.904 3.904 0 0 0-.175 1.213c0 .595.092 1.113.277 1.553.187.436.465.774.834 1.014.372.239.836.359 1.392.359.317 0 .615-.026.893-.078.281-.055.555-.123.82-.204v.718c-.259.097-.53.168-.815.214a6.194 6.194 0 0 1-1.014.072c-.721 0-1.324-.148-1.81-.446a2.786 2.786 0 0 1-1.086-1.271c-.24-.547-.359-1.192-.359-1.936 0-.537.074-1.027.223-1.47a3.32 3.32 0 0 1 .66-1.154 2.915 2.915 0 0 1 1.067-.748c.424-.177.909-.266 1.455-.266.359 0 .705.035 1.039.106.333.071.634.173.902.306l-.33.699a4.8 4.8 0 0 0-.747-.267 3.118 3.118 0 0 0-.873-.117Zm5.079-.626c.916 0 1.583.18 2.004.539.424.356.635.867.635 1.533 0 .301-.05.587-.15.859a1.822 1.822 0 0 1-.475.713c-.22.204-.51.365-.869.485-.356.117-.792.175-1.31.175h-.863v2.789h-.825v-7.093h1.853Zm-.077.704h-.951v2.891h.771c.453 0 .83-.048 1.13-.145.305-.097.533-.254.685-.471.152-.22.228-.511.228-.873 0-.472-.151-.823-.452-1.053-.3-.233-.771-.349-1.411-.349Zm6.117-.704c.583 0 1.063.073 1.441.219.382.142.667.36.854.655.188.294.282.669.282 1.125 0 .375-.068.689-.204.941-.136.25-.314.452-.534.607-.22.155-.454.275-.703.359l1.945 3.187h-.961l-1.736-2.959h-1.475v2.959h-.825v-7.093h1.916Zm-.048.714h-1.043v2.721h1.125c.579 0 1.005-.118 1.276-.354.275-.236.413-.584.413-1.043 0-.482-.146-.823-.437-1.024-.288-.2-.733-.3-1.334-.3Zm9.363 6.379h-.786v-5.516l.01-.378c.006-.117.015-.235.024-.354-.1.103-.194.192-.281.266l-.325.267-.81.65-.422-.548 1.921-1.48h.669v7.093Zm5.356-7.549-.184 1.926 1.916-.557.126.849-1.833.189 1.183 1.577-.786.431-.878-1.727-.805 1.727-.815-.431 1.174-1.577-1.824-.189.136-.849 1.887.557-.189-1.926h.892Zm5.148.355c.411 0 .774.064 1.091.194.317.129.565.32.743.572.181.249.271.556.271.922 0 .288-.063.54-.189.757a1.914 1.914 0 0 1-.5.563 4.4 4.4 0 0 1-.698.426c.304.14.577.296.82.471.246.175.44.38.582.616.142.236.213.516.213.84 0 .397-.097.742-.291 1.033a1.85 1.85 0 0 1-.805.665c-.346.155-.752.232-1.218.232-.501 0-.928-.074-1.281-.223a1.765 1.765 0 0 1-.8-.65c-.181-.284-.272-.626-.272-1.024 0-.326.07-.609.209-.849.139-.242.323-.451.553-.625.23-.175.48-.322.752-.442a3.988 3.988 0 0 1-.65-.441 1.947 1.947 0 0 1-.466-.578 1.696 1.696 0 0 1-.17-.776c0-.359.091-.663.272-.912a1.71 1.71 0 0 1 .752-.573c.32-.132.681-.198 1.082-.198Zm-1.543 5.399c0 .363.128.662.383.898.256.233.642.349 1.16.349.491 0 .871-.116 1.14-.349.268-.236.403-.545.403-.927 0-.236-.062-.443-.185-.621a1.726 1.726 0 0 0-.524-.485 4.485 4.485 0 0 0-.8-.388l-.175-.063c-.297.123-.551.26-.762.412a1.642 1.642 0 0 0-.475.51c-.11.19-.165.412-.165.664Zm1.533-4.74c-.382 0-.694.093-.936.277-.243.181-.364.443-.364.786 0 .246.058.454.175.626.119.168.281.313.485.436.203.12.431.232.684.335.246-.103.464-.217.655-.34.191-.126.341-.274.451-.446.11-.171.165-.377.165-.616 0-.343-.121-.605-.364-.786-.239-.181-.556-.272-.951-.272Z"/><path stroke="#E7ECFA" stroke-width=".994" d="M20.891 265.312h276.218"/><path fill="#fff" d="M20.89 265.809H297.11v51.667H20.89z"/><rect width="62.076" height="3.974" x="36.787" y="283.693" fill="#262939" rx="1.987"/><rect width="135.128" height="3.974" x="36.787" y="295.617" fill="#495574" rx="1.987"/><path stroke="#E7ECFA" stroke-width=".994" d="M20.891 316.978h276.218"/><path fill="#fff" d="M20.89 317.475H297.11v51.667H20.89z"/><rect width="62.076" height="3.974" x="36.787" y="335.359" fill="#262939" rx="1.987"/><rect width="135.128" height="3.974" x="36.787" y="347.283" fill="#495574" rx="1.987"/><path stroke="#E7ECFA" stroke-width=".994" d="M20.891 368.644h276.218"/><path fill="#fff" d="M20.89 369.141H297.11v92.404H20.89z"/><rect width="62.076" height="3.974" x="36.787" y="386.625" fill="#262939" rx="1.987"/><rect width="135.128" height="3.974" x="36.787" y="398.549" fill="#495574" rx="1.987"/><rect width="138.385" height="25" x="37.108" y="418.74" stroke="#0C419A" stroke-opacity=".95" stroke-width=".641" rx="12.5"/><path fill="#0C419A" fill-opacity=".95" d="M55.376 431.882v3.205a.641.641 0 0 1-1.282 0v-3.205H50.89a.641.641 0 1 1 0-1.282h3.205v-3.205a.641.641 0 0 1 1.282 0v3.205h3.205a.641.641 0 0 1 0 1.282h-3.205ZM72.526 434.24l-.464-1.525h-2.336l-.464 1.525h-1.464l2.261-6.433h1.66l2.27 6.433h-1.463Zm-.789-2.664-.464-1.49-.118-.381a41.506 41.506 0 0 0-.145-.478 11.112 11.112 0 0 1-.114-.425 49.022 49.022 0 0 1-.267.947l-.101.337-.46 1.49h1.67Zm2.564 4.82c-.152 0-.31-.012-.473-.035-.164-.02-.3-.045-.408-.074v-1.052c.108.029.21.05.307.061.093.015.2.022.32.022a.707.707 0 0 0 .46-.153c.125-.099.188-.297.188-.592v-5.232h1.337v5.429c0 .298-.057.57-.171.816a1.299 1.299 0 0 1-.552.591c-.254.146-.59.219-1.008.219Zm.337-8.321c0-.251.07-.422.21-.513a.928.928 0 0 1 .518-.14.92.92 0 0 1 .512.14c.144.091.215.262.215.513 0 .248-.071.42-.215.517a.92.92 0 0 1-.512.14.928.928 0 0 1-.517-.14c-.14-.097-.21-.269-.21-.517Zm7.253 3.707c0 .409-.056.771-.167 1.087a2.153 2.153 0 0 1-.478.802 2.01 2.01 0 0 1-.753.49 2.772 2.772 0 0 1-.99.167c-.345 0-.662-.056-.951-.167a2.114 2.114 0 0 1-.75-.49 2.301 2.301 0 0 1-.49-.802 3.192 3.192 0 0 1-.171-1.087c0-.543.096-1.004.289-1.38a1.98 1.98 0 0 1 .823-.859c.357-.196.782-.294 1.276-.294.458 0 .864.098 1.218.294.356.195.635.482.837.859.204.376.307.837.307 1.38Zm-3.388 0c0 .321.035.591.105.811.07.219.18.384.33.495.148.111.342.166.582.166.237 0 .428-.055.574-.166a.936.936 0 0 0 .324-.495c.07-.22.105-.49.105-.811 0-.324-.035-.593-.105-.806a.91.91 0 0 0-.324-.487c-.15-.108-.343-.162-.583-.162-.353 0-.61.121-.771.364-.158.242-.237.606-.237 1.091Zm8.988-2.441v4.899h-1.026l-.18-.626h-.07a1.35 1.35 0 0 1-.394.407 1.703 1.703 0 0 1-.521.232c-.19.05-.387.075-.592.075-.35 0-.656-.061-.916-.184a1.366 1.366 0 0 1-.609-.583c-.143-.263-.215-.605-.215-1.025v-3.195h1.337v2.862c0 .35.063.615.188.793.126.178.326.267.6.267.272 0 .486-.061.64-.184.155-.126.263-.308.325-.548.064-.242.096-.537.096-.885v-2.305h1.337Zm3.466 3.922c.146 0 .288-.015.425-.044.14-.029.279-.066.416-.109v.994a2.41 2.41 0 0 1-.534.158c-.21.044-.441.066-.693.066-.292 0-.555-.047-.788-.14a1.126 1.126 0 0 1-.548-.496c-.132-.236-.197-.565-.197-.985v-2.362h-.64v-.566l.736-.447.386-1.034h.854v1.043h1.372v1.004h-1.372v2.362c0 .186.053.327.158.42.108.091.25.136.425.136Zm3.856-4.014c.453 0 .843.088 1.17.263.327.172.58.424.758.754.178.33.267.733.267 1.209v.649H93.85c.015.377.127.673.337.889.214.214.509.32.886.32.312 0 .599-.032.858-.096.26-.065.528-.161.802-.289v1.034a3.24 3.24 0 0 1-.762.263 4.766 4.766 0 0 1-.96.083 3 3 0 0 1-1.306-.272 2.027 2.027 0 0 1-.89-.828c-.212-.371-.319-.838-.319-1.402 0-.573.096-1.049.29-1.429.195-.382.467-.669.814-.859.348-.192.752-.289 1.214-.289Zm.009.951a.894.894 0 0 0-.649.25c-.17.166-.267.428-.293.784h1.875a1.322 1.322 0 0 0-.11-.53.82.82 0 0 0-.306-.368.903.903 0 0 0-.517-.136Zm6.008-.951c.067 0 .144.005.232.013.09.006.163.015.219.027l-.101 1.253a.79.79 0 0 0-.188-.031 1.844 1.844 0 0 0-.71.053 1.238 1.238 0 0 0-.434.214c-.129.097-.23.225-.307.386-.073.158-.11.352-.11.583v2.493h-1.336v-4.899h1.013l.197.824h.065c.097-.167.217-.318.36-.456.146-.14.311-.251.495-.333.187-.085.388-.127.605-.127Zm5.661 5.079c-.485 0-.898-.088-1.24-.263a1.751 1.751 0 0 1-.78-.824c-.178-.371-.267-.846-.267-1.424 0-.599.101-1.087.302-1.464.205-.379.487-.658.846-.837.362-.178.781-.267 1.257-.267a3.427 3.427 0 0 1 1.525.333l-.394 1.034a6.556 6.556 0 0 0-.587-.206 1.861 1.861 0 0 0-.544-.083.972.972 0 0 0-.582.167.956.956 0 0 0-.347.49 2.58 2.58 0 0 0-.113.824c0 .324.04.593.122.807.082.213.2.372.355.477.155.102.343.154.565.154.278 0 .525-.037.741-.11.216-.076.427-.181.631-.316v1.144a2.159 2.159 0 0 1-.644.276 3.372 3.372 0 0 1-.846.088Zm4.649-5.079c.453 0 .843.088 1.17.263.328.172.58.424.759.754.178.33.267.733.267 1.209v.649h-3.16c.015.377.128.673.338.889.213.214.508.32.885.32.313 0 .599-.032.859-.096.26-.065.527-.161.802-.289v1.034a3.25 3.25 0 0 1-.763.263 4.757 4.757 0 0 1-.959.083c-.491 0-.926-.091-1.306-.272a2.027 2.027 0 0 1-.89-.828c-.213-.371-.32-.838-.32-1.402 0-.573.097-1.049.29-1.429.195-.382.467-.669.815-.859.347-.192.752-.289 1.213-.289Zm.009.951a.892.892 0 0 0-.648.25c-.17.166-.268.428-.294.784h1.876a1.326 1.326 0 0 0-.11-.53.814.814 0 0 0-.307-.368.901.901 0 0 0-.517-.136Zm7.669 3.063c.146 0 .288-.015.425-.044.14-.029.279-.066.416-.109v.994a2.397 2.397 0 0 1-.535.158 3.38 3.38 0 0 1-.692.066 2.12 2.12 0 0 1-.789-.14 1.126 1.126 0 0 1-.547-.496c-.132-.236-.198-.565-.198-.985v-2.362h-.639v-.566l.736-.447.385-1.034h.855v1.043h1.372v1.004h-1.372v2.362c0 .186.053.327.158.42a.636.636 0 0 0 .425.136Zm4.57-4.014c.067 0 .145.005.232.013.091.006.164.015.22.027l-.101 1.253a.8.8 0 0 0-.189-.031 1.83 1.83 0 0 0-.71.053c-.16.044-.305.115-.433.214a1.012 1.012 0 0 0-.307.386c-.073.158-.11.352-.11.583v2.493h-1.336v-4.899h1.012l.197.824h.066c.096-.167.216-.318.359-.456.146-.14.311-.251.495-.333.187-.085.389-.127.605-.127Zm3.348-.009c.657 0 1.161.144 1.512.43.35.286.526.721.526 1.306v3.264h-.934l-.258-.666h-.035a2.529 2.529 0 0 1-.43.43 1.479 1.479 0 0 1-.504.245c-.19.053-.42.079-.692.079-.289 0-.549-.056-.78-.167a1.234 1.234 0 0 1-.539-.508c-.131-.231-.197-.523-.197-.876 0-.52.182-.903.548-1.148.365-.249.912-.386 1.643-.412l.85-.027v-.214c0-.257-.067-.446-.202-.566-.134-.119-.321-.179-.561-.179-.236 0-.468.033-.696.1a5.422 5.422 0 0 0-.684.255l-.442-.903c.26-.137.55-.245.872-.324a4.217 4.217 0 0 1 1.003-.119Zm.71 2.73-.517.018c-.432.012-.733.089-.903.232a.711.711 0 0 0-.25.565c0 .205.06.351.18.439a.8.8 0 0 0 .469.127c.286 0 .527-.085.723-.254.199-.17.298-.411.298-.724v-.403Zm4.045-2.629v4.899h-1.337v-4.899h1.337Zm-.667-1.919a.92.92 0 0 1 .513.14c.143.091.215.262.215.513 0 .248-.072.42-.215.517a.92.92 0 0 1-.513.14.932.932 0 0 1-.517-.14c-.14-.097-.21-.269-.21-.517 0-.251.07-.422.21-.513a.932.932 0 0 1 .517-.14Zm4.137 5.841c.146 0 .288-.015.425-.044.14-.029.279-.066.416-.109v.994a2.403 2.403 0 0 1-.534.158 3.391 3.391 0 0 1-.693.066c-.292 0-.555-.047-.788-.14a1.123 1.123 0 0 1-.548-.496c-.132-.236-.197-.565-.197-.985v-2.362h-.64v-.566l.736-.447.386-1.034h.854v1.043h1.372v1.004h-1.372v2.362c0 .186.053.327.158.42.108.091.25.136.425.136Zm3.856-4.014c.453 0 .843.088 1.17.263.327.172.58.424.758.754.179.33.268.733.268 1.209v.649h-3.16c.015.377.127.673.338.889.213.214.508.32.885.32.312 0 .599-.032.859-.096.26-.065.527-.161.802-.289v1.034a3.25 3.25 0 0 1-.763.263 4.768 4.768 0 0 1-.96.083c-.49 0-.926-.091-1.305-.272a2.027 2.027 0 0 1-.89-.828c-.213-.371-.32-.838-.32-1.402 0-.573.097-1.049.289-1.429.196-.382.468-.669.815-.859a2.474 2.474 0 0 1 1.214-.289Zm.009.951a.896.896 0 0 0-.649.25c-.169.166-.267.428-.293.784h1.875a1.326 1.326 0 0 0-.109-.53.82.82 0 0 0-.307-.368.903.903 0 0 0-.517-.136Zm9.027-.951c.555 0 .974.143 1.258.43.286.283.429.739.429 1.367v3.194h-1.341v-2.861c0-.351-.06-.615-.18-.793-.119-.179-.305-.268-.556-.268-.354 0-.605.127-.754.382-.149.251-.223.612-.223 1.082v2.458h-1.337v-2.861c0-.234-.026-.43-.079-.587a.691.691 0 0 0-.241-.355.686.686 0 0 0-.416-.119c-.248 0-.444.063-.587.189-.14.122-.241.305-.302.548a3.74 3.74 0 0 0-.088.88v2.305h-1.337v-4.899h1.021l.18.627h.075c.099-.17.223-.307.372-.412.152-.105.318-.183.5-.232.181-.05.365-.075.552-.075.359 0 .663.059.911.175.251.117.444.298.579.544h.118c.146-.251.352-.434.618-.548.269-.114.545-.171.828-.171Zm5.083 0c.453 0 .843.088 1.17.263.327.172.58.424.758.754.178.33.267.733.267 1.209v.649h-3.159c.015.377.127.673.337.889.214.214.509.32.886.32.312 0 .599-.032.859-.096a4.44 4.44 0 0 0 .801-.289v1.034a3.227 3.227 0 0 1-.762.263 4.768 4.768 0 0 1-.96.083c-.49 0-.926-.091-1.306-.272a2.03 2.03 0 0 1-.889-.828c-.213-.371-.32-.838-.32-1.402 0-.573.096-1.049.289-1.429.196-.382.468-.669.815-.859a2.474 2.474 0 0 1 1.214-.289Zm.009.951a.896.896 0 0 0-.649.25c-.169.166-.267.428-.293.784h1.875a1.326 1.326 0 0 0-.109-.53.827.827 0 0 0-.307-.368.903.903 0 0 0-.517-.136Zm6.056-.951c.523 0 .943.143 1.262.43.318.283.477.739.477 1.367v3.194h-1.336v-2.861c0-.351-.064-.615-.193-.793-.125-.179-.324-.268-.596-.268-.409 0-.688.139-.837.417-.149.277-.223.677-.223 1.2v2.305h-1.337v-4.899h1.021l.18.627h.074c.106-.17.236-.307.39-.412.158-.105.332-.183.522-.232.193-.05.391-.075.596-.075Zm5.179 4.014c.146 0 .288-.015.425-.044.141-.029.279-.066.417-.109v.994a2.413 2.413 0 0 1-.535.158 3.38 3.38 0 0 1-.692.066 2.12 2.12 0 0 1-.789-.14 1.128 1.128 0 0 1-.548-.496c-.131-.236-.197-.565-.197-.985v-2.362h-.64v-.566l.736-.447.386-1.034h.855v1.043h1.371v1.004h-1.371v2.362c0 .186.052.327.157.42.108.091.25.136.425.136Z"/><rect width="27.82" height="27.82" x="42.291" y="119.264" fill="#298478" rx="13.91"/><path fill="#fff" d="m50.526 132.656 5.157-5.157a4.384 4.384 0 0 1 6.193 0 4.385 4.385 0 0 1 0 6.193l-5.157 5.157a4.385 4.385 0 0 1-6.193 0 4.386 4.386 0 0 1 0-6.193Zm1.036 1.036a2.9 2.9 0 0 0-.758 2.815l4.369-4.362 3.093 3.093 2.574-2.582a2.91 2.91 0 0 0 .86-2.061 2.902 2.902 0 0 0-.86-2.06 2.913 2.913 0 0 0-2.06-.859 2.909 2.909 0 0 0-2.06.859l-5.158 5.157Z"/><path fill="#262939" d="M82.9 128.881c1.098 0 1.9.215 2.404.646.509.427.763 1.04.763 1.84 0 .361-.06.704-.18 1.03a2.177 2.177 0 0 1-.57.856c-.265.245-.612.439-1.043.582-.427.14-.95.21-1.572.21h-1.036v3.348h-.99v-8.512H82.9Zm-.093.844h-1.141v3.47h.925c.544 0 .996-.058 1.357-.175.365-.116.638-.304.82-.564.183-.264.274-.614.274-1.048 0-.567-.18-.988-.541-1.264-.36-.279-.926-.419-1.694-.419Zm5.862-1.391v2.707c0 .155-.003.312-.011.472a4.529 4.529 0 0 1-.041.43h.064c.132-.225.299-.413.5-.564a2.18 2.18 0 0 1 .7-.35c.26-.081.535-.122.826-.122.512 0 .94.082 1.28.245.346.163.604.415.775.756.175.342.262.784.262 1.328v4.157h-.955V133.3c0-.532-.122-.93-.366-1.194-.241-.264-.612-.396-1.112-.396-.474 0-.852.092-1.136.274-.28.179-.48.443-.605.792-.12.349-.18.776-.18 1.281v3.336h-.967v-9.059h.966Zm8.733 2.573c.76 0 1.326.171 1.694.512.369.342.553.887.553 1.636v4.338h-.704l-.186-.944h-.047a3.536 3.536 0 0 1-.559.588c-.194.156-.419.274-.675.356a3.228 3.228 0 0 1-.932.116c-.388 0-.733-.068-1.036-.204a1.612 1.612 0 0 1-.71-.617c-.171-.275-.256-.625-.256-1.048 0-.636.252-1.125.757-1.467.504-.341 1.272-.528 2.305-.559l1.1-.046v-.39c0-.552-.118-.938-.355-1.159-.237-.221-.57-.332-1.001-.332a3.11 3.11 0 0 0-.955.146c-.303.097-.59.211-.862.343l-.297-.733a5.3 5.3 0 0 1 .99-.379 4.316 4.316 0 0 1 1.176-.157Zm1.293 3.342-.973.041c-.795.031-1.356.161-1.682.39-.326.229-.49.553-.49.972 0 .365.111.634.333.809.22.175.514.262.879.262.566 0 1.03-.157 1.391-.471.361-.315.542-.786.542-1.415v-.588Zm5.845-3.354c.128 0 .262.008.401.024.14.011.264.029.373.052l-.122.897a2.615 2.615 0 0 0-.35-.064 2.914 2.914 0 0 0-.361-.024c-.256 0-.498.053-.727.158-.225.1-.423.248-.594.442-.171.19-.305.421-.402.693a2.615 2.615 0 0 0-.145.896v3.424h-.973v-6.381h.804l.105 1.176h.04c.132-.237.291-.452.478-.646.186-.198.401-.355.646-.472a1.93 1.93 0 0 1 .827-.175Zm8.907 0c.703 0 1.232.185 1.589.554.358.364.536.952.536 1.764v4.18h-.955v-4.134c0-.516-.112-.902-.337-1.158-.222-.26-.552-.391-.99-.391-.617 0-1.066.179-1.345.536-.279.357-.419.883-.419 1.578v3.569h-.961v-4.134c0-.345-.05-.633-.151-.862a1.031 1.031 0 0 0-.443-.512c-.194-.116-.44-.175-.739-.175-.423 0-.763.088-1.019.262-.256.175-.442.435-.559.781-.112.341-.168.762-.168 1.263v3.377h-.967v-6.381h.78l.146.902h.052c.128-.221.289-.407.483-.559.194-.151.412-.266.652-.343a2.48 2.48 0 0 1 .769-.117c.485 0 .891.092 1.217.274.33.179.568.452.716.821h.052c.21-.369.497-.642.862-.821a2.648 2.648 0 0 1 1.199-.274Zm6.497.012c.761 0 1.326.171 1.694.512.369.342.553.887.553 1.636v4.338h-.704l-.186-.944h-.047a3.512 3.512 0 0 1-.559.588 2.074 2.074 0 0 1-.675.356 3.23 3.23 0 0 1-.932.116c-.388 0-.733-.068-1.036-.204a1.612 1.612 0 0 1-.71-.617c-.171-.275-.256-.625-.256-1.048 0-.636.252-1.125.757-1.467.504-.341 1.273-.528 2.305-.559l1.1-.046v-.39c0-.552-.118-.938-.355-1.159-.237-.221-.57-.332-1.001-.332-.334 0-.652.049-.955.146a6.53 6.53 0 0 0-.862.343l-.296-.733c.287-.148.617-.274.989-.379a4.32 4.32 0 0 1 1.176-.157Zm1.293 3.342-.973.041c-.795.031-1.356.161-1.682.39-.326.229-.489.553-.489.972 0 .365.11.634.332.809.221.175.514.262.879.262.566 0 1.03-.157 1.391-.471.361-.315.542-.786.542-1.415v-.588Zm5.501 3.26c-.574 0-1.081-.118-1.519-.355-.439-.237-.78-.598-1.025-1.083-.244-.485-.367-1.096-.367-1.834 0-.772.128-1.403.385-1.892.26-.493.617-.858 1.071-1.094.454-.237.97-.356 1.548-.356.319 0 .625.033.92.099.299.063.544.142.734.239l-.291.809a5.055 5.055 0 0 0-.676-.209 2.981 2.981 0 0 0-.71-.093c-.442 0-.811.095-1.106.285-.291.19-.51.469-.658.838-.143.369-.215.823-.215 1.363 0 .516.07.956.209 1.321.144.365.355.644.635.838.283.191.636.286 1.059.286.338 0 .643-.035.914-.105a5.32 5.32 0 0 0 .74-.256v.861a3.02 3.02 0 0 1-.716.251c-.26.058-.571.087-.932.087Zm4.128-6.497v6.381h-.966v-6.381h.966Zm-.472-2.387c.16 0 .295.052.408.157.116.101.175.26.175.478 0 .213-.059.372-.175.477a.576.576 0 0 1-.408.157.59.59 0 0 1-.419-.157c-.108-.105-.163-.264-.163-.477 0-.218.055-.377.163-.478a.59.59 0 0 1 .419-.157Zm4.978 2.27c.543 0 1.009.121 1.397.361.388.241.685.579.891 1.013.206.431.309.936.309 1.514v.6h-4.408c.012.749.198 1.319.559 1.711.361.392.87.588 1.526.588.403 0 .76-.037 1.071-.11.31-.074.633-.183.966-.326v.85a4.738 4.738 0 0 1-.96.314 5.512 5.512 0 0 1-1.118.099c-.613 0-1.149-.124-1.607-.373a2.603 2.603 0 0 1-1.059-1.106c-.253-.485-.379-1.079-.379-1.781 0-.687.115-1.281.344-1.782.232-.504.558-.892.978-1.164.423-.272.919-.408 1.49-.408Zm-.012.792c-.516 0-.927.169-1.234.507-.306.337-.489.809-.547 1.414h3.377a2.717 2.717 0 0 0-.181-1.001 1.4 1.4 0 0 0-.518-.675c-.233-.163-.532-.245-.897-.245Zm9.618 5.822c-.807 0-1.448-.276-1.921-.827-.47-.551-.705-1.37-.705-2.456 0-1.099.241-1.928.722-2.486.482-.563 1.122-.845 1.921-.845.338 0 .633.045.885.134a2.185 2.185 0 0 1 1.112.868h.07a9.826 9.826 0 0 1-.046-.495 7.01 7.01 0 0 1-.024-.512v-2.556h.967v9.059h-.78l-.146-.909h-.041a2.198 2.198 0 0 1-1.117.891 2.706 2.706 0 0 1-.897.134Zm.151-.803c.683 0 1.167-.194 1.45-.583.283-.388.425-.964.425-1.729v-.174c0-.811-.136-1.434-.408-1.869-.267-.435-.756-.652-1.467-.652-.593 0-1.038.229-1.333.687-.295.454-.442 1.075-.442 1.863 0 .784.145 1.389.436 1.816.295.427.742.641 1.339.641Zm7.336-5.811c.543 0 1.009.121 1.397.361.388.241.685.579.891 1.013.206.431.308.936.308 1.514v.6h-4.407c.012.749.198 1.319.559 1.711.361.392.87.588 1.526.588.403 0 .76-.037 1.071-.11.31-.074.632-.183.966-.326v.85a4.738 4.738 0 0 1-.96.314 5.512 5.512 0 0 1-1.118.099c-.613 0-1.149-.124-1.607-.373a2.61 2.61 0 0 1-1.06-1.106c-.252-.485-.378-1.079-.378-1.781 0-.687.114-1.281.343-1.782.233-.504.559-.892.978-1.164.424-.272.92-.408 1.491-.408Zm-.012.792c-.516 0-.927.169-1.234.507-.307.337-.489.809-.547 1.414h3.376a2.717 2.717 0 0 0-.18-1.001 1.406 1.406 0 0 0-.518-.675c-.233-.163-.532-.245-.897-.245Zm7.493 5.706v-8.512h.99v7.627h3.778v.885h-4.768Zm8.471-6.486c.76 0 1.325.171 1.694.512.369.342.553.887.553 1.636v4.338h-.705l-.186-.944h-.046a3.553 3.553 0 0 1-.559.588c-.194.156-.42.274-.676.356a3.223 3.223 0 0 1-.931.116 2.5 2.5 0 0 1-1.036-.204 1.615 1.615 0 0 1-.711-.617c-.17-.275-.256-.625-.256-1.048 0-.636.252-1.125.757-1.467.505-.341 1.273-.528 2.305-.559l1.101-.046v-.39c0-.552-.119-.938-.355-1.159-.237-.221-.571-.332-1.002-.332-.334 0-.652.049-.955.146a6.572 6.572 0 0 0-.861.343l-.297-.733c.287-.148.617-.274.99-.379a4.31 4.31 0 0 1 1.176-.157Zm1.292 3.342-.972.041c-.796.031-1.357.161-1.683.39-.326.229-.489.553-.489.972 0 .365.111.634.332.809.221.175.514.262.879.262.567 0 1.031-.157 1.392-.471.361-.315.541-.786.541-1.415v-.588Zm7.178 3.144h-.989v-8.512h4.739v.873h-3.75v3.121h3.523v.867h-3.523v3.651Zm7.412-6.486c.76 0 1.325.171 1.694.512.368.342.553.887.553 1.636v4.338h-.705l-.186-.944h-.047a3.508 3.508 0 0 1-.558.588c-.194.156-.42.274-.676.356a3.227 3.227 0 0 1-.931.116c-.388 0-.734-.068-1.037-.204a1.618 1.618 0 0 1-.71-.617c-.171-.275-.256-.625-.256-1.048 0-.636.252-1.125.757-1.467.504-.341 1.273-.528 2.305-.559l1.101-.046v-.39c0-.552-.119-.938-.355-1.159-.237-.221-.571-.332-1.002-.332-.334 0-.652.049-.955.146-.302.097-.59.211-.861.343l-.297-.733c.287-.148.617-.274.99-.379a4.31 4.31 0 0 1 1.176-.157Zm1.292 3.342-.972.041c-.796.031-1.357.161-1.683.39-.326.229-.489.553-.489.972 0 .365.111.634.332.809.221.175.514.262.879.262.567 0 1.031-.157 1.392-.471.361-.315.541-.786.541-1.415v-.588Zm1.939-3.237h1.036l1.409 3.703c.081.217.157.426.227.628.07.198.132.388.186.571.055.182.097.359.128.53h.041c.054-.194.132-.449.233-.763.101-.318.209-.642.326-.972l1.333-3.697h1.042l-2.777 7.318a4.86 4.86 0 0 1-.518 1.025 2.045 2.045 0 0 1-.71.669c-.28.159-.617.239-1.013.239-.183 0-.344-.012-.483-.035-.14-.02-.26-.043-.361-.07v-.774a3.308 3.308 0 0 0 .692.075c.241 0 .449-.046.623-.139.179-.09.332-.222.46-.396a2.71 2.71 0 0 0 .332-.623l.349-.897-2.555-6.392Zm9.437-.117c.543 0 1.009.121 1.397.361.388.241.685.579.891 1.013.206.431.308.936.308 1.514v.6h-4.407c.012.749.198 1.319.559 1.711.361.392.87.588 1.525.588.404 0 .761-.037 1.072-.11.31-.074.632-.183.966-.326v.85a4.727 4.727 0 0 1-.961.314 5.494 5.494 0 0 1-1.117.099c-.614 0-1.149-.124-1.607-.373a2.61 2.61 0 0 1-1.06-1.106c-.252-.485-.378-1.079-.378-1.781 0-.687.114-1.281.343-1.782.233-.504.559-.892.978-1.164.423-.272.92-.408 1.491-.408Zm-.012.792c-.516 0-.927.169-1.234.507-.307.337-.489.809-.547 1.414h3.376a2.738 2.738 0 0 0-.18-1.001 1.406 1.406 0 0 0-.518-.675c-.233-.163-.532-.245-.897-.245Zm6.311 5.03c.159 0 .322-.013.489-.041.167-.027.303-.06.408-.098v.751c-.113.05-.27.093-.472.128a3.338 3.338 0 0 1-.582.052c-.338 0-.644-.058-.92-.175a1.423 1.423 0 0 1-.664-.605c-.163-.283-.244-.675-.244-1.176v-3.784h-.908v-.472l.914-.378.384-1.386h.582v1.479h1.869v.757h-1.869v3.755c0 .4.091.698.274.896.186.198.432.297.739.297Zm4.25 0c.159 0 .322-.013.489-.041.167-.027.303-.06.408-.098v.751c-.113.05-.27.093-.472.128a3.338 3.338 0 0 1-.582.052c-.338 0-.645-.058-.92-.175a1.423 1.423 0 0 1-.664-.605c-.163-.283-.244-.675-.244-1.176v-3.784h-.908v-.472l.914-.378.384-1.386h.582v1.479h1.869v.757h-1.869v3.755c0 .4.091.698.274.896.186.198.432.297.739.297Zm4.646-5.822c.543 0 1.009.121 1.397.361.388.241.685.579.891 1.013.205.431.308.936.308 1.514v.6h-4.407c.012.749.198 1.319.559 1.711.361.392.869.588 1.525.588.404 0 .761-.037 1.072-.11.31-.074.632-.183.966-.326v.85a4.727 4.727 0 0 1-.961.314 5.501 5.501 0 0 1-1.117.099c-.614 0-1.149-.124-1.607-.373a2.61 2.61 0 0 1-1.06-1.106c-.252-.485-.378-1.079-.378-1.781 0-.687.114-1.281.343-1.782.233-.504.559-.892.978-1.164.423-.272.92-.408 1.491-.408Zm-.012.792c-.516 0-.927.169-1.234.507-.307.337-.489.809-.547 1.414h3.376a2.738 2.738 0 0 0-.18-1.001 1.406 1.406 0 0 0-.518-.675c-.233-.163-.532-.245-.897-.245Z"/></g><defs><linearGradient id="c" x1="20.891" x2="300.419" y1="30.873" y2="33.535" gradientUnits="userSpaceOnUse"><stop stop-color="#0C419A"/><stop offset="1" stop-color="#1058D1"/></linearGradient><clipPath id="a"><path fill="#fff" d="M4 22h310v464H4z"/></clipPath><filter id="b" width="334" height="488" x="-8" y="0" color-interpolation-filters="sRGB" filterUnits="userSpaceOnUse"><feFlood flood-opacity="0" result="BackgroundImageFix"/><feColorMatrix in="SourceAlpha" result="hardAlpha" values="0 0 0 0 0 0 0 0 0 0 0 0 0 0 0 0 0 0 127 0"/><feMorphology in="SourceAlpha" radius="2" result="effect1_dropShadow_30154_205299"/><feOffset dy="-3"/><feGaussianBlur stdDeviation="3"/><feColorMatrix values="0 0 0 0 0.0470588 0 0 0 0 0.254902 0 0 0 0 0.603922 0 0 0 0.12 0"/><feBlend in2="BackgroundImageFix" result="effect1_dropShadow_30154_205299"/><feColorMatrix in="SourceAlpha" result="hardAlpha" values="0 0 0 0 0 0 0 0 0 0 0 0 0 0 0 0 0 0 127 0"/><feMorphology in="SourceAlpha" radius="4" result="effect2_dropShadow_30154_205299"/><feOffset dy="-10"/><feGaussianBlur stdDeviation="8"/><feColorMatrix values="0 0 0 0 0.0470588 0 0 0 0 0.254902 0 0 0 0 0.603922 0 0 0 0.17 0"/><feBlend in2="effect1_dropShadow_30154_205299" result="effect2_dropShadow_30154_205299"/><feBlend in="SourceGraphic" in2="effect2_dropShadow_30154_205299" result="shape"/></filter></defs></svg>