<svg width="56" height="56" viewBox="0 0 56 56" fill="none" xmlns="http://www.w3.org/2000/svg">
<rect width="56" height="56" rx="28" fill="#A05BB6"/>
<path fill-rule="evenodd" clip-rule="evenodd" d="M16.5701 14.8201C17.0952 14.295 17.8074 14 18.55 14H38.15C38.8926 14 39.6048 14.295 40.1299 14.8201C40.655 15.3452 40.95 16.0574 40.95 16.8V24.85C40.95 25.6232 40.3232 26.25 39.55 26.25C38.7768 26.25 38.15 25.6232 38.15 24.85V16.8L18.55 16.8L18.55 39.2H28.35C29.1232 39.2 29.75 39.8268 29.75 40.6C29.75 41.3732 29.1232 42 28.35 42H18.55C17.8074 42 17.0952 41.705 16.5701 41.1799C16.045 40.6548 15.75 39.9426 15.75 39.2V16.8C15.75 16.0574 16.045 15.3452 16.5701 14.8201Z" fill="white"/>
<path fill-rule="evenodd" clip-rule="evenodd" d="M37.358 28.9473C36.6625 28.944 35.9759 29.0975 35.3489 29.3956C34.7402 29.1072 34.06 28.9473 33.3473 28.9473C30.8845 28.9473 28.7422 30.8895 28.7422 33.4621C28.7422 34.9943 29.4692 36.2358 30.0914 37.0554C30.6477 37.7881 31.3018 38.4099 31.6842 38.7734C31.7343 38.8211 31.7798 38.8643 31.8198 38.9027M35.3823 32.1376C35.3711 32.1528 35.3601 32.1682 35.3492 32.1837C35.0342 31.7277 34.5557 31.3854 33.9944 31.2346C33.7885 31.1792 33.5715 31.1497 33.3473 31.1497C32.0204 31.1497 30.9445 32.1848 30.9445 33.4621C30.9445 35.0245 32.3586 36.373 33.1939 37.1696C33.2476 37.2208 33.2989 37.2697 33.3473 37.3162C33.8808 37.8299 34.5487 38.3442 35.3492 38.8579C36.1503 38.3442 36.8171 37.8299 37.3512 37.3162C37.4 37.2692 37.4519 37.2197 37.5062 37.1679C38.3414 36.3711 39.7539 35.0234 39.7539 33.4621C39.7539 32.1848 38.6781 31.1497 37.3512 31.1497C37.1435 31.1484 36.9373 31.1738 36.7375 31.2246C36.5597 31.2699 36.387 31.3353 36.2229 31.4201C35.891 31.5915 35.6034 31.8372 35.3823 32.1376ZM37.358 28.9473C39.8179 28.9509 41.9563 30.8919 41.9563 33.4621C41.9563 34.9945 41.2289 36.2361 40.6068 37.0555C40.0512 37.7872 39.3978 38.4086 39.0158 38.7719C38.965 38.8202 38.919 38.8639 38.8787 38.9027C38.2177 39.5385 37.4295 40.1401 36.538 40.7118C35.8134 41.1765 34.8844 41.1763 34.1598 40.7114C33.2707 40.1409 32.4813 39.5396 31.8198 38.9027" fill="white"/>
<path fill-rule="evenodd" clip-rule="evenodd" d="M21.3477 20.9977C21.3477 20.2245 21.9745 19.5977 22.7477 19.5977H33.9477C34.7209 19.5977 35.3477 20.2245 35.3477 20.9977C35.3477 21.7709 34.7209 22.3977 33.9477 22.3977H22.7477C21.9745 22.3977 21.3477 21.7709 21.3477 20.9977Z" fill="white"/>
</svg>
