<svg width="56" height="56" viewBox="0 0 56 56" fill="none" xmlns="http://www.w3.org/2000/svg">
<rect width="56" height="56" rx="28" fill="#07CBA2"/>
<path d="M19.25 23.1915C20.4103 23.1915 21.5231 23.6524 22.3436 24.4729C23.1641 25.2934 23.625 26.4062 23.625 27.5665C23.625 28.7268 23.1641 29.8396 22.3436 30.6601C21.5231 31.4805 20.4103 31.9415 19.25 31.9415C18.0897 31.9415 16.9769 31.4805 16.1564 30.6601C15.3359 29.8396 14.875 28.7268 14.875 27.5665C14.875 26.4062 15.3359 25.2934 16.1564 24.4729C16.9769 23.6524 18.0897 23.1915 19.25 23.1915ZM24.9922 24.388C24.3336 23.1964 23.3206 22.2391 22.0937 21.6488C20.8668 21.0585 19.4867 20.8645 18.1445 21.0935C16.8024 21.3226 15.5648 21.9634 14.6031 22.9272C13.6414 23.891 13.0033 25.1301 12.7772 26.4727H11.5938C11.3037 26.4727 11.0255 26.588 10.8204 26.7931C10.6152 26.9982 10.5 27.2764 10.5 27.5665C10.5 27.8566 10.6152 28.1348 10.8204 28.3399C11.0255 28.545 11.3037 28.6602 11.5938 28.6602H12.7772C13.0486 30.2854 13.9215 31.7489 15.2223 32.7602C16.5232 33.7714 18.1568 34.2563 19.7987 34.1186C21.4406 33.9808 22.9706 33.2304 24.0848 32.0166C25.1989 30.8027 25.8157 29.2141 25.8125 27.5665C25.8125 26.9863 26.043 26.4299 26.4532 26.0197C26.8634 25.6094 27.4198 25.379 28 25.379C28.5802 25.379 29.1366 25.6094 29.5468 26.0197C29.957 26.4299 30.1875 26.9863 30.1875 27.5665C30.1843 29.2141 30.8011 30.8027 31.9152 32.0166C33.0294 33.2304 34.5594 33.9808 36.2013 34.1186C37.8432 34.2563 39.4768 33.7714 40.7777 32.7602C42.0785 31.7489 42.9514 30.2854 43.2228 28.6602H44.4062C44.6963 28.6602 44.9745 28.545 45.1796 28.3399C45.3848 28.1348 45.5 27.8566 45.5 27.5665C45.5 27.2764 45.3848 26.9982 45.1796 26.7931C44.9745 26.588 44.6963 26.4727 44.4062 26.4727H43.2228C42.9967 25.1301 42.3586 23.891 41.3969 22.9272C40.4352 21.9634 39.1976 21.3226 37.8555 21.0935C36.5133 20.8645 35.1332 21.0585 33.9063 21.6488C32.6794 22.2391 31.6664 23.1964 31.0078 24.388C30.1959 23.618 29.119 23.1895 28 23.1915C26.8363 23.1915 25.7775 23.6465 24.9922 24.388ZM41.125 27.5665C41.125 28.7268 40.6641 29.8396 39.8436 30.6601C39.0231 31.4805 37.9103 31.9415 36.75 31.9415C35.5897 31.9415 34.4769 31.4805 33.6564 30.6601C32.8359 29.8396 32.375 28.7268 32.375 27.5665C32.375 26.4062 32.8359 25.2934 33.6564 24.4729C34.4769 23.6524 35.5897 23.1915 36.75 23.1915C37.9103 23.1915 39.0231 23.6524 39.8436 24.4729C40.6641 25.2934 41.125 26.4062 41.125 27.5665Z" fill="white"/>
</svg>
