<svg xmlns="http://www.w3.org/2000/svg" width="236" height="456" fill="none"><g filter="url(#a)"><rect width="206" height="426" x="15" y="5" fill="#F9FAFF" stroke="url(#b)" stroke-width="6" rx="33"/><path fill="#0C419A" d="M44 162a2 2 0 0 1 2-2h36a2 2 0 1 1 0 4H46a2 2 0 0 1-2-2Z"/><path fill="#495574" d="M148 162a2 2 0 0 1 2-2h36a2 2 0 1 1 0 4h-36a2 2 0 0 1-2-2Z"/><path fill="#0C419A" d="M17 174h100.5v3H17z"/><path fill="#BDCCF8" d="M117.5 174H218v3H117.5z"/><rect width="40" height="4" x="43" y="351" fill="#495574" rx="2"/><g filter="url(#c)"><rect width="152" height="34" x="43" y="211" fill="#fff" rx="4"/></g><circle cx="61" cy="228" r="9" fill="#298478"/><rect width="81" height="2" x="81" y="227" fill="#495574" rx="1"/><path fill="#262939" d="m183.475 228.001-3.536-3.536a.666.666 0 1 0-.942.943l2.595 2.595-2.595 2.591a.668.668 0 0 0 .942.943l3.536-3.536Z"/><g filter="url(#d)"><rect width="152" height="34" x="43" y="255" fill="#fff" rx="4"/></g><circle cx="61" cy="272" r="9" fill="#F0B323"/><rect width="81" height="2" x="81" y="271" fill="#495574" rx="1"/><path fill="#262939" d="m183.475 272.001-3.536-3.536a.666.666 0 1 0-.942.943l2.595 2.595-2.595 2.591a.668.668 0 0 0 .942.943l3.536-3.536Z"/><g filter="url(#e)"><rect width="152" height="34" x="43" y="299" fill="#fff" rx="4"/></g><circle cx="61" cy="316" r="9" fill="#0C75F6"/><rect width="81" height="2" x="81" y="315" fill="#495574" rx="1"/><path fill="#262939" d="m183.475 316.001-3.536-3.536a.666.666 0 1 0-.942.943l2.595 2.595-2.595 2.591a.668.668 0 0 0 .942.943l3.536-3.536Z"/><g filter="url(#f)"><rect width="152" height="34" x="43" y="367" fill="#fff" rx="4"/></g><circle cx="61" cy="384" r="9" fill="#0C419A"/><rect width="81" height="2" x="81" y="383" fill="#495574" rx="1"/><path fill="#262939" d="m183.475 384.001-3.536-3.536a.666.666 0 1 0-.942.943l2.595 2.595-2.595 2.591a.668.668 0 0 0 .942.943l3.536-3.536Z"/><path fill="#fff" d="M18 38C18 21.431 31.431 8 48 8h140c16.569 0 30 13.431 30 30v14H18V38Z"/><path fill="#0C419A" d="m34.287 32 6.01 6.01 1.414-1.414-4.6-4.6 4.6-4.6-1.414-1.406-6.01 6.01Z"/><rect width="90" height="5" x="75" y="24" fill="#BDCCF8" rx="2.5"/><rect width="71" height="5" x="84.5" y="35" fill="#BDCCF8" rx="2.5"/><path stroke="#E7ECFA" d="M18 51.5h200"/><rect width="152" height="3" x="44" y="66" fill="#C1C4C9" rx="1.5"/><rect width="152" height="3" x="44" y="75" fill="#C1C4C9" rx="1.5"/><rect width="71" height="3" x="44" y="84" fill="#C1C4C9" rx="1.5"/><rect width="134" height="3" x="44" y="95" fill="#0C419A" rx="1.5"/><rect width="152" height="34" x="44" y="108" fill="#F2DCF9" rx="4"/><circle cx="62" cy="125" r="9" fill="#A05BB6"/><rect width="81" height="2" x="82" y="120" fill="#495574" rx="1"/><rect width="81" height="2" x="82" y="128" fill="#495574" rx="1"/><path fill="#262939" d="m182.001 127.475 3.536-3.535a.668.668 0 0 0-.943-.943l-2.593 2.595-2.593-2.595a.668.668 0 0 0-.943.942l3.536 3.536Z"/><path fill="#fff" fill-rule="evenodd" d="M57.313 120.313c.2-.2.472-.313.755-.313h7.48a1.07 1.07 0 0 1 1.068 1.068v3.072a.534.534 0 0 1-1.069 0v-3.072h-7.479v8.548h3.74a.534.534 0 1 1 0 1.068h-3.74A1.066 1.066 0 0 1 57 129.616v-8.548c0-.283.113-.555.313-.755Z" clip-rule="evenodd"/><path fill="#fff" fill-rule="evenodd" d="M65.245 125.705a1.766 1.766 0 0 0-.767.171 1.781 1.781 0 0 0-.764-.171c-.94 0-1.757.741-1.757 1.723 0 .585.277 1.058.515 1.371.212.28.462.517.608.656l.051.049m1.36-2.582a.982.982 0 0 0-.013.018.915.915 0 0 0-.517-.362.956.956 0 0 0-.247-.033c-.506 0-.917.395-.917.883 0 .596.54 1.111.859 1.415l.058.056c.204.196.459.392.764.588a4.98 4.98 0 0 0 .764-.588l.06-.057c.318-.304.857-.818.857-1.414 0-.488-.41-.883-.917-.883a.969.969 0 0 0-.43.104.926.926 0 0 0-.321.273Zm.754-1.217c.938.001 1.754.742 1.754 1.723 0 .585-.277 1.058-.515 1.371-.212.279-.461.516-.607.655l-.052.05a5.776 5.776 0 0 1-.893.69.84.84 0 0 1-.908 0 5.827 5.827 0 0 1-.893-.69M59.133 122.671c0-.295.239-.534.534-.534h4.274a.534.534 0 1 1 0 1.068h-4.274a.534.534 0 0 1-.534-.534Z" clip-rule="evenodd"/><rect width="40" height="4" x="44" y="194" fill="#495574" rx="2"/><rect width="57" height="3" x="90" y="421" fill="#262939" rx="1.5"/></g><defs><filter id="a" width="236" height="456" x="0" y="0" color-interpolation-filters="sRGB" filterUnits="userSpaceOnUse"><feFlood flood-opacity="0" result="BackgroundImageFix"/><feColorMatrix in="SourceAlpha" result="hardAlpha" values="0 0 0 0 0 0 0 0 0 0 0 0 0 0 0 0 0 0 127 0"/><feMorphology in="SourceAlpha" radius="2" result="effect1_dropShadow_30154_205111"/><feOffset dy="3"/><feGaussianBlur stdDeviation="3"/><feColorMatrix values="0 0 0 0 0.0470588 0 0 0 0 0.254902 0 0 0 0 0.603922 0 0 0 0.12 0"/><feBlend in2="BackgroundImageFix" result="effect1_dropShadow_30154_205111"/><feColorMatrix in="SourceAlpha" result="hardAlpha" values="0 0 0 0 0 0 0 0 0 0 0 0 0 0 0 0 0 0 127 0"/><feMorphology in="SourceAlpha" radius="4" result="effect2_dropShadow_30154_205111"/><feOffset dy="10"/><feGaussianBlur stdDeviation="8"/><feColorMatrix values="0 0 0 0 0.0470588 0 0 0 0 0.254902 0 0 0 0 0.603922 0 0 0 0.17 0"/><feBlend in2="effect1_dropShadow_30154_205111" result="effect2_dropShadow_30154_205111"/><feBlend in="SourceGraphic" in2="effect2_dropShadow_30154_205111" result="shape"/></filter><filter id="c" width="216" height="98" x="11" y="179" color-interpolation-filters="sRGB" filterUnits="userSpaceOnUse"><feFlood flood-opacity="0" result="BackgroundImageFix"/><feColorMatrix in="SourceAlpha" result="hardAlpha" values="0 0 0 0 0 0 0 0 0 0 0 0 0 0 0 0 0 0 127 0"/><feOffset dy="8"/><feGaussianBlur stdDeviation="2"/><feComposite in2="hardAlpha" operator="out"/><feColorMatrix values="0 0 0 0 0.905882 0 0 0 0 0.92549 0 0 0 0 0.980392 0 0 0 0.1 0"/><feBlend in2="BackgroundImageFix" result="effect1_dropShadow_30154_205111"/><feColorMatrix in="SourceAlpha" result="hardAlpha" values="0 0 0 0 0 0 0 0 0 0 0 0 0 0 0 0 0 0 127 0"/><feOffset/><feGaussianBlur stdDeviation="16"/><feColorMatrix values="0 0 0 0 0.0470588 0 0 0 0 0.254902 0 0 0 0 0.603922 0 0 0 0.06 0"/><feBlend in2="effect1_dropShadow_30154_205111" result="effect2_dropShadow_30154_205111"/><feBlend in="SourceGraphic" in2="effect2_dropShadow_30154_205111" result="shape"/></filter><filter id="d" width="216" height="98" x="11" y="223" color-interpolation-filters="sRGB" filterUnits="userSpaceOnUse"><feFlood flood-opacity="0" result="BackgroundImageFix"/><feColorMatrix in="SourceAlpha" result="hardAlpha" values="0 0 0 0 0 0 0 0 0 0 0 0 0 0 0 0 0 0 127 0"/><feOffset dy="8"/><feGaussianBlur stdDeviation="2"/><feComposite in2="hardAlpha" operator="out"/><feColorMatrix values="0 0 0 0 0.905882 0 0 0 0 0.92549 0 0 0 0 0.980392 0 0 0 0.1 0"/><feBlend in2="BackgroundImageFix" result="effect1_dropShadow_30154_205111"/><feColorMatrix in="SourceAlpha" result="hardAlpha" values="0 0 0 0 0 0 0 0 0 0 0 0 0 0 0 0 0 0 127 0"/><feOffset/><feGaussianBlur stdDeviation="16"/><feColorMatrix values="0 0 0 0 0.0470588 0 0 0 0 0.254902 0 0 0 0 0.603922 0 0 0 0.06 0"/><feBlend in2="effect1_dropShadow_30154_205111" result="effect2_dropShadow_30154_205111"/><feBlend in="SourceGraphic" in2="effect2_dropShadow_30154_205111" result="shape"/></filter><filter id="e" width="216" height="98" x="11" y="267" color-interpolation-filters="sRGB" filterUnits="userSpaceOnUse"><feFlood flood-opacity="0" result="BackgroundImageFix"/><feColorMatrix in="SourceAlpha" result="hardAlpha" values="0 0 0 0 0 0 0 0 0 0 0 0 0 0 0 0 0 0 127 0"/><feOffset dy="8"/><feGaussianBlur stdDeviation="2"/><feComposite in2="hardAlpha" operator="out"/><feColorMatrix values="0 0 0 0 0.905882 0 0 0 0 0.92549 0 0 0 0 0.980392 0 0 0 0.1 0"/><feBlend in2="BackgroundImageFix" result="effect1_dropShadow_30154_205111"/><feColorMatrix in="SourceAlpha" result="hardAlpha" values="0 0 0 0 0 0 0 0 0 0 0 0 0 0 0 0 0 0 127 0"/><feOffset/><feGaussianBlur stdDeviation="16"/><feColorMatrix values="0 0 0 0 0.0470588 0 0 0 0 0.254902 0 0 0 0 0.603922 0 0 0 0.06 0"/><feBlend in2="effect1_dropShadow_30154_205111" result="effect2_dropShadow_30154_205111"/><feBlend in="SourceGraphic" in2="effect2_dropShadow_30154_205111" result="shape"/></filter><filter id="f" width="216" height="98" x="11" y="335" color-interpolation-filters="sRGB" filterUnits="userSpaceOnUse"><feFlood flood-opacity="0" result="BackgroundImageFix"/><feColorMatrix in="SourceAlpha" result="hardAlpha" values="0 0 0 0 0 0 0 0 0 0 0 0 0 0 0 0 0 0 127 0"/><feOffset dy="8"/><feGaussianBlur stdDeviation="2"/><feComposite in2="hardAlpha" operator="out"/><feColorMatrix values="0 0 0 0 0.905882 0 0 0 0 0.92549 0 0 0 0 0.980392 0 0 0 0.1 0"/><feBlend in2="BackgroundImageFix" result="effect1_dropShadow_30154_205111"/><feColorMatrix in="SourceAlpha" result="hardAlpha" values="0 0 0 0 0 0 0 0 0 0 0 0 0 0 0 0 0 0 127 0"/><feOffset/><feGaussianBlur stdDeviation="16"/><feColorMatrix values="0 0 0 0 0.0470588 0 0 0 0 0.254902 0 0 0 0 0.603922 0 0 0 0.06 0"/><feBlend in2="effect1_dropShadow_30154_205111" result="effect2_dropShadow_30154_205111"/><feBlend in="SourceGraphic" in2="effect2_dropShadow_30154_205111" result="shape"/></filter><linearGradient id="b" x1="18" x2="219.982" y1="8" y2="9.924" gradientUnits="userSpaceOnUse"><stop stop-color="#0C419A"/><stop offset="1" stop-color="#1058D1"/></linearGradient></defs></svg>