<svg width="56" height="56" viewBox="0 0 56 56" fill="none" xmlns="http://www.w3.org/2000/svg">
<rect width="56" height="56" rx="28" fill="#F0B323"/>
<path d="M29.1653 44.3298H26.8322C26.2135 44.3298 25.62 44.084 25.1825 43.6465C24.745 43.209 24.4992 42.6155 24.4992 41.9968L24.5028 35.7398C24.5029 35.6885 24.4895 35.6382 24.4639 35.5938C24.4383 35.5494 24.4015 35.5125 24.3572 35.4869C24.3128 35.4612 24.2625 35.4477 24.2113 35.4477C24.1601 35.4477 24.1097 35.4612 24.0654 35.4868L18.6454 38.6262C18.1182 38.9305 17.4918 39.013 16.9039 38.8555C16.316 38.698 15.8147 38.3134 15.5103 37.7863L14.3073 35.6982L14.303 35.6909C14.0068 35.164 13.9291 34.542 14.0867 33.9585C14.2443 33.375 14.6246 32.8766 15.1458 32.5705L20.5855 29.4172C20.6297 29.3915 20.6663 29.3547 20.6918 29.3105C20.7173 29.2662 20.7308 29.216 20.7308 29.1649C20.7308 29.1138 20.7173 29.0636 20.6918 29.0194C20.6663 28.9751 20.6297 28.9383 20.5855 28.9127L15.1509 25.7623C14.8892 25.6122 14.6598 25.412 14.4757 25.173C14.2917 24.934 14.1566 24.661 14.0784 24.3697C14.0001 24.0784 13.9802 23.7745 14.0198 23.4755C14.0593 23.1765 14.1575 22.8882 14.3088 22.6272L15.5074 20.5457C15.6589 20.2825 15.861 20.0521 16.1022 19.8676C16.3433 19.6831 16.6187 19.5483 16.9123 19.471C17.2026 19.3931 17.5055 19.3736 17.8033 19.4137C18.1012 19.4537 18.3882 19.5525 18.6476 19.7043L24.0654 22.8394C24.1097 22.865 24.1601 22.8785 24.2113 22.8785C24.2625 22.8784 24.3128 22.8649 24.3572 22.8393C24.4015 22.8136 24.4383 22.7768 24.4639 22.7324C24.4895 22.688 24.5029 22.6376 24.5028 22.5864L24.4992 16.3331C24.4992 15.7143 24.745 15.1209 25.1825 14.6833C25.62 14.2458 26.2135 14 26.8322 14H29.1653C29.7841 14 30.3775 14.2458 30.815 14.6833C31.2526 15.1209 31.4984 15.7143 31.4984 16.3331V22.5828C31.4983 22.634 31.5117 22.6843 31.5373 22.7287C31.5628 22.7731 31.5996 22.81 31.644 22.8356C31.6883 22.8613 31.7387 22.8748 31.7899 22.8748C31.8411 22.8748 31.8914 22.8614 31.9358 22.8357L37.3558 19.6963C37.8831 19.3926 38.5093 19.3105 39.097 19.4679C39.6848 19.6254 40.1861 20.0096 40.4909 20.5362L41.6931 22.6243L41.6975 22.6309C41.9971 23.1583 42.076 23.7828 41.917 24.3682C41.758 24.9535 41.3741 25.4523 40.8488 25.7557L35.415 28.9054C35.3708 28.931 35.3341 28.9678 35.3086 29.0121C35.2831 29.0563 35.2697 29.1065 35.2697 29.1576C35.2697 29.2087 35.2831 29.2589 35.3086 29.3032C35.3341 29.3475 35.3708 29.3842 35.415 29.4099L40.8488 32.5595C41.1105 32.7096 41.3399 32.9098 41.524 33.1488C41.7081 33.3877 41.8431 33.6607 41.9215 33.952C41.9998 34.2433 42.0198 34.5472 41.9803 34.8462C41.9409 35.1452 41.8428 35.4335 41.6917 35.6946L40.4931 37.7761C40.3416 38.0393 40.1394 38.2698 39.8983 38.4542C39.6571 38.6387 39.3817 38.7735 39.0881 38.8508C38.7978 38.9287 38.495 38.9482 38.1971 38.9081C37.8992 38.8681 37.6123 38.7693 37.3529 38.6175L31.9351 35.4824C31.8908 35.4568 31.8405 35.4434 31.7893 35.4433C31.7382 35.4433 31.6879 35.4568 31.6436 35.4823C31.5993 35.5079 31.5624 35.5447 31.5368 35.589C31.5112 35.6333 31.4977 35.6835 31.4976 35.7347L31.4984 41.9968C31.4984 42.6155 31.2526 43.209 30.815 43.6465C30.3775 44.084 29.7841 44.3298 29.1653 44.3298Z" fill="white"/>
</svg>
