<svg width="56" height="56" viewBox="0 0 56 56" fill="none" xmlns="http://www.w3.org/2000/svg">
<rect x="56" width="56" height="56" rx="28" transform="rotate(90 56 0)" fill="#5F7BD7"/>
<path d="M14.257 20.7454C14.1756 20.6641 14.1109 20.5676 14.0668 20.4613C14.0227 20.355 14 20.2411 14 20.126C14 20.0109 14.0227 19.8969 14.0668 19.7907C14.1109 19.6844 14.1756 19.5878 14.257 19.5065L19.5065 14.257C19.6708 14.0928 19.8936 14.0005 20.126 14.0005C20.3583 14.0005 20.5811 14.0928 20.7454 14.257C20.9097 14.4213 21.002 14.6441 21.002 14.8765C21.002 15.1088 20.9097 15.3316 20.7454 15.4959L20.0507 16.1889L23.1882 19.3263L26.5059 16.0069C26.6702 15.8426 26.893 15.7503 27.1253 15.7503C27.3576 15.7503 27.5805 15.8426 27.7448 16.0069C27.909 16.1712 28.0013 16.394 28.0013 16.6263C28.0013 16.8586 27.909 17.0815 27.7448 17.2458L25.7377 19.2511L35.4668 28.9801C35.8735 29.3865 36.1961 29.869 36.4162 30.4002C36.6363 30.9313 36.7495 31.5007 36.7494 32.0756L36.7494 35.5123L41.7434 40.5045C41.9077 40.6688 42 40.8916 42 41.124C42 41.3563 41.9077 41.5791 41.7434 41.7434C41.5791 41.9077 41.3563 42 41.124 42C40.8916 42 40.6688 41.9077 40.5045 41.7434L35.5123 36.7494L32.0738 36.7494C30.9142 36.7491 29.802 36.2884 28.9819 35.4685L28.0002 34.4886L29.4946 32.9943C29.6589 32.83 29.7512 32.6071 29.7512 32.3748C29.7512 32.1425 29.6589 31.9197 29.4946 31.7554C29.3303 31.5911 29.1075 31.4988 28.8751 31.4988C28.6428 31.4988 28.42 31.5911 28.2557 31.7554L26.7631 33.2497L25.3755 31.8621L26.8698 30.3695C27.0341 30.2052 27.1264 29.9824 27.1264 29.7501C27.1264 29.5177 27.0341 29.2949 26.8698 29.1306C26.7056 28.9663 26.4827 28.874 26.2504 28.874C26.0181 28.874 25.7952 28.9663 25.631 29.1306L24.1383 30.625L22.7507 29.2374L24.2451 27.7448C24.4094 27.5805 24.5017 27.3576 24.5017 27.1253C24.5017 26.893 24.4094 26.6702 24.2451 26.5059C24.0808 26.3416 23.858 26.2493 23.6256 26.2493C23.3933 26.2493 23.1705 26.3416 23.0062 26.5059L21.5136 28.0002L19.2511 25.7377L17.2458 27.7448C17.0815 27.909 16.8586 28.0013 16.6263 28.0013C16.394 28.0013 16.1712 27.909 16.0069 27.7448C15.8426 27.5805 15.7503 27.3576 15.7503 27.1253C15.7503 26.893 15.8426 26.6702 16.0069 26.5059L19.3263 23.1882L16.1889 20.0507L15.4959 20.7454C15.4146 20.8269 15.3181 20.8915 15.2118 20.9356C15.1055 20.9798 14.9916 21.0025 14.8765 21.0025C14.7614 21.0025 14.6474 20.9798 14.5412 20.9356C14.4349 20.8915 14.3383 20.8269 14.257 20.7454V20.7454ZM18.8136 17.426L17.426 18.8136L20.5634 21.9511L21.9511 20.5634L18.8136 17.426Z" fill="white"/>
</svg>
