<svg xmlns="http://www.w3.org/2000/svg" width="296" height="488" fill="none"><g clip-path="url(#a)" filter="url(#b)"><rect width="306.705" height="634.181" x="17.258" y="26.371" fill="#F9FAFF" stroke="url(#c)" stroke-width="9" rx="49.5"/><rect width="59.541" height="5.954" x="58.971" y="341.305" fill="#495574" rx="2.977"/><rect width="59.541" height="5.954" x="58.971" y="111.627" fill="#495574" rx="2.977"/><g filter="url(#d)"><rect width="226.256" height="50.61" x="58.973" y="132.912" fill="#fff" rx="6"/></g><circle cx="85.869" cy="158.531" r="13.5" fill="#1E7B6F"/><path fill="#fff" d="m79.867 157.906 5.697-5.697a4.846 4.846 0 0 1 6.84 0 4.844 4.844 0 0 1 0 6.841l-5.696 5.697a4.844 4.844 0 0 1-6.84 0 4.844 4.844 0 0 1 0-6.841Zm1.144 1.144a3.204 3.204 0 0 0-.837 3.11L85 157.342l3.416 3.416 2.845-2.852a3.211 3.211 0 0 0 .948-2.276 3.2 3.2 0 0 0-.948-2.277 3.218 3.218 0 0 0-1.043-.702 3.22 3.22 0 0 0-2.467 0c-.39.163-.745.402-1.043.702l-5.697 5.697Z"/><path fill="#262939" d="m269.448 158.241-5.263-5.262a.991.991 0 1 0-1.403 1.403l3.863 3.863-3.863 3.857a.992.992 0 1 0 1.403 1.403l5.263-5.264ZM114.857 153.081c0 .927-.178 1.701-.534 2.324a3.362 3.362 0 0 1-1.537 1.401c-.671.312-1.48.467-2.425.467h-2.33v-8.226h2.583c.863 0 1.612.153 2.246.461a3.332 3.332 0 0 1 1.474 1.356c.349.597.523 1.336.523 2.217Zm-1.812.045c0-.608-.09-1.106-.27-1.497a1.781 1.781 0 0 0-.788-.872c-.345-.187-.772-.281-1.283-.281h-.928v5.357h.748c.852 0 1.484-.227 1.897-.681.416-.454.624-1.129.624-2.026Zm5.976-2.262c.582 0 1.083.113 1.503.338.42.221.744.544.973.968.229.424.344.941.344 1.553v.833h-4.058c.019.483.164.864.434 1.142.273.274.652.411 1.136.411a4.62 4.62 0 0 0 1.103-.124 5.664 5.664 0 0 0 1.03-.372v1.328a4.068 4.068 0 0 1-.979.338 6.094 6.094 0 0 1-1.232.107c-.631 0-1.19-.116-1.677-.349a2.606 2.606 0 0 1-1.143-1.063c-.274-.477-.41-1.077-.41-1.801 0-.735.123-1.347.371-1.835.251-.491.6-.859 1.047-1.102.446-.248.966-.372 1.558-.372Zm.012 1.221a1.15 1.15 0 0 0-.833.321c-.218.214-.344.55-.377 1.007h2.408a1.685 1.685 0 0 0-.141-.681 1.057 1.057 0 0 0-.393-.472c-.173-.117-.394-.175-.664-.175Zm2.115-3.641v.119c-.108.105-.251.234-.427.388-.177.154-.366.315-.569.484-.202.165-.401.324-.596.478-.195.15-.366.276-.512.377h-1.142v-.152a28.276 28.276 0 0 0 .917-1.12c.161-.21.296-.401.405-.574h1.924Zm3.804 8.829h-1.716v-8.755h1.716v8.755Zm3.523-6.291v6.291h-1.716v-6.291h1.716Zm-.855-2.464c.255 0 .474.06.658.18.184.116.276.335.276.658 0 .319-.092.54-.276.664-.184.12-.403.18-.658.18-.259 0-.481-.06-.664-.18-.18-.124-.271-.345-.271-.664 0-.323.091-.542.271-.658.183-.12.405-.18.664-.18Zm4.158 8.755-2.397-6.291h1.795l1.215 3.585c.068.21.12.431.158.664.041.232.069.441.084.624h.045c.012-.198.038-.41.079-.635.045-.226.103-.443.175-.653l1.209-3.585h1.796l-2.398 6.291h-1.761Zm8.576-6.409c.086 0 .186.006.298.017.116.008.21.019.281.034l-.129 1.609a1.003 1.003 0 0 0-.242-.039 2.253 2.253 0 0 0-.264-.017 2.51 2.51 0 0 0-.648.084 1.59 1.59 0 0 0-.557.276 1.308 1.308 0 0 0-.394.495c-.093.203-.14.452-.14.749v3.201h-1.717v-6.291h1.3l.254 1.058h.084a2.66 2.66 0 0 1 .461-.585c.188-.18.4-.323.636-.428.24-.108.499-.163.777-.163Zm4.299-.011c.844 0 1.491.184 1.941.551.451.368.676.927.676 1.677v4.192h-1.199l-.332-.855h-.045c-.18.225-.364.409-.551.552a1.917 1.917 0 0 1-.648.315 3.39 3.39 0 0 1-.889.101c-.371 0-.705-.071-1.001-.214a1.58 1.58 0 0 1-.692-.653c-.169-.296-.254-.671-.254-1.125 0-.668.235-1.159.704-1.474.469-.319 1.172-.496 2.11-.529l1.092-.034v-.276c0-.33-.087-.572-.259-.726-.173-.153-.413-.23-.721-.23-.303 0-.602.043-.894.129a6.938 6.938 0 0 0-.878.326l-.568-1.159a4.87 4.87 0 0 1 1.119-.416 5.452 5.452 0 0 1 1.289-.152Zm.912 3.506-.664.022c-.556.015-.942.115-1.16.298a.913.913 0 0 0-.32.726c0 .263.077.45.23.563.154.109.355.163.602.163.368 0 .678-.109.929-.326.255-.218.383-.527.383-.929v-.517Zm7.05-3.495c.672 0 1.212.184 1.621.552.409.363.613.949.613 1.755v4.102h-1.716v-3.674c0-.45-.082-.79-.248-1.019-.161-.228-.416-.343-.765-.343-.525 0-.883.178-1.075.535-.191.356-.287.87-.287 1.542v2.959h-1.716v-6.291h1.311l.231.805h.096c.135-.218.302-.394.5-.529.203-.135.426-.234.67-.298a3.05 3.05 0 0 1 .765-.096Zm6.556 6.522c-.623 0-1.154-.113-1.592-.338a2.247 2.247 0 0 1-1.002-1.058c-.229-.476-.343-1.086-.343-1.828 0-.769.129-1.396.388-1.88a2.467 2.467 0 0 1 1.086-1.075c.465-.228 1.003-.343 1.615-.343.435 0 .81.043 1.125.13.319.082.597.181.833.298l-.506 1.328a8.151 8.151 0 0 0-.754-.265 2.381 2.381 0 0 0-.698-.107c-.3 0-.55.072-.748.214-.199.139-.347.349-.445.63-.098.282-.146.634-.146 1.058 0 .417.052.762.157 1.036.105.274.257.478.456.613.199.131.441.197.726.197.356 0 .673-.047.951-.141.278-.097.548-.232.81-.405v1.469a2.798 2.798 0 0 1-.827.354c-.285.075-.647.113-1.086.113Zm5.97-6.522c.582 0 1.083.113 1.503.338a2.3 2.3 0 0 1 .973.968c.229.424.344.941.344 1.553v.833h-4.058c.019.483.164.864.434 1.142.274.274.652.411 1.136.411a4.62 4.62 0 0 0 1.103-.124 5.664 5.664 0 0 0 1.03-.372v1.328a4.068 4.068 0 0 1-.979.338 6.087 6.087 0 0 1-1.232.107c-.631 0-1.19-.116-1.677-.349a2.606 2.606 0 0 1-1.143-1.063c-.273-.477-.41-1.077-.41-1.801 0-.735.123-1.347.371-1.835.251-.491.6-.859 1.047-1.102.446-.248.966-.372 1.558-.372Zm.012 1.221a1.15 1.15 0 0 0-.833.321c-.218.214-.343.55-.377 1.007h2.408a1.702 1.702 0 0 0-.14-.681 1.065 1.065 0 0 0-.394-.472c-.173-.117-.394-.175-.664-.175Zm9.189 5.301a2.103 2.103 0 0 1-1.716-.822c-.439-.551-.659-1.359-.659-2.425 0-1.077.223-1.891.67-2.442.446-.555 1.03-.833 1.75-.833.3 0 .564.041.793.124.229.082.426.193.591.332.169.139.311.294.428.467h.056c-.022-.12-.051-.296-.084-.529a5.753 5.753 0 0 1-.045-.726v-2.014h1.722v8.755h-1.317l-.332-.815h-.073a2.12 2.12 0 0 1-.411.472c-.161.139-.355.25-.58.332a2.289 2.289 0 0 1-.793.124Zm.602-1.367c.469 0 .799-.139.99-.417.195-.281.299-.703.31-1.266v-.186c0-.611-.094-1.078-.282-1.401-.187-.326-.536-.489-1.046-.489-.379 0-.675.163-.889.489-.214.327-.321.797-.321 1.413 0 .615.107 1.078.321 1.39.217.311.523.467.917.467Zm7.293-5.155c.581 0 1.082.113 1.502.338.42.221.745.544.974.968.228.424.343.941.343 1.553v.833h-4.057c.018.483.163.864.433 1.142.274.274.653.411 1.137.411.401 0 .769-.042 1.103-.124a5.656 5.656 0 0 0 1.029-.372v1.328a4.054 4.054 0 0 1-.979.338 6.08 6.08 0 0 1-1.232.107c-.63 0-1.189-.116-1.677-.349a2.598 2.598 0 0 1-1.142-1.063c-.274-.477-.411-1.077-.411-1.801 0-.735.124-1.347.371-1.835.252-.491.601-.859 1.047-1.102.446-.248.966-.372 1.559-.372Zm.011 1.221a1.15 1.15 0 0 0-.833.321c-.217.214-.343.55-.377 1.007h2.409a1.702 1.702 0 0 0-.141-.681 1.059 1.059 0 0 0-.394-.472c-.173-.117-.394-.175-.664-.175Zm9.189 5.301a2.105 2.105 0 0 1-1.716-.822c-.439-.551-.659-1.359-.659-2.425 0-1.077.224-1.891.67-2.442.446-.555 1.03-.833 1.75-.833.3 0 .565.041.794.124.228.082.425.193.59.332.169.139.312.294.428.467h.056c-.022-.12-.05-.296-.084-.529a5.753 5.753 0 0 1-.045-.726v-2.014h1.722v8.755h-1.317l-.332-.815h-.073a2.12 2.12 0 0 1-.411.472 1.84 1.84 0 0 1-.579.332c-.226.083-.49.124-.794.124Zm.602-1.367c.469 0 .799-.139.991-.417.195-.281.298-.703.309-1.266v-.186c0-.611-.094-1.078-.281-1.401-.188-.326-.537-.489-1.047-.489-.379 0-.675.163-.889.489-.214.327-.321.797-.321 1.413 0 .615.107 1.078.321 1.39.218.311.523.467.917.467Zm6.415-5.037v6.291h-1.716v-6.291h1.716Zm-.855-2.464c.255 0 .474.06.658.18.184.116.276.335.276.658 0 .319-.092.54-.276.664-.184.12-.403.18-.658.18-.259 0-.48-.06-.664-.18-.18-.124-.27-.345-.27-.664 0-.323.09-.542.27-.658.184-.12.405-.18.664-.18Zm7.051 6.887c0 .428-.102.79-.304 1.086-.199.293-.497.516-.895.67-.398.15-.893.225-1.486.225a6.58 6.58 0 0 1-1.131-.084 4.67 4.67 0 0 1-.945-.282v-1.418a6.81 6.81 0 0 0 1.097.383 4.41 4.41 0 0 0 1.036.146c.334 0 .572-.049.714-.146a.46.46 0 0 0 .22-.394.464.464 0 0 0-.09-.281c-.056-.087-.18-.182-.372-.287a9.017 9.017 0 0 0-.9-.422 5.992 5.992 0 0 1-.973-.501 1.694 1.694 0 0 1-.563-.597c-.12-.232-.18-.527-.18-.883 0-.582.225-1.019.675-1.311.454-.297 1.06-.445 1.818-.445.39 0 .761.04 1.114.118.356.079.722.205 1.097.377l-.518 1.238a8.897 8.897 0 0 0-.883-.332 2.783 2.783 0 0 0-.839-.129c-.251 0-.44.034-.568.101a.331.331 0 0 0-.191.31c0 .101.032.191.095.27.068.079.196.167.383.264.191.094.471.216.839.366.356.146.665.3.928.461.263.158.465.355.608.591.142.233.214.535.214.906Zm4.839-4.541c.709 0 1.281.276 1.716.827.439.552.659 1.36.659 2.426 0 .712-.104 1.313-.31 1.8-.206.484-.491.85-.855 1.098a2.181 2.181 0 0 1-1.255.371c-.304 0-.565-.038-.782-.113a1.974 1.974 0 0 1-.557-.298 2.669 2.669 0 0 1-.4-.394h-.09a4.544 4.544 0 0 1 .09.923v2.538h-1.716v-9.06h1.395l.242.816h.079c.113-.169.25-.324.411-.467.161-.142.354-.255.58-.337a2.22 2.22 0 0 1 .793-.13Zm-.551 1.373c-.301 0-.539.062-.715.186a1.063 1.063 0 0 0-.388.557 3.387 3.387 0 0 0-.13.94v.185c0 .406.038.749.113 1.03.078.281.208.495.388.642.184.146.435.219.754.219.263 0 .478-.073.647-.219.169-.147.295-.361.377-.642.086-.285.13-.632.13-1.041 0-.615-.096-1.078-.287-1.39-.192-.311-.488-.467-.889-.467Zm10.061 1.88c0 .525-.071.99-.214 1.395a2.753 2.753 0 0 1-.613 1.03 2.572 2.572 0 0 1-.968.63 3.55 3.55 0 0 1-1.272.214c-.443 0-.85-.071-1.221-.214a2.698 2.698 0 0 1-.962-.63 2.955 2.955 0 0 1-.631-1.03 4.102 4.102 0 0 1-.219-1.395c0-.698.124-1.289.371-1.773a2.553 2.553 0 0 1 1.058-1.103c.458-.251 1.004-.377 1.638-.377.589 0 1.11.126 1.564.377.458.251.816.619 1.075 1.103.263.484.394 1.075.394 1.773Zm-4.35 0c0 .412.045.759.135 1.041.09.281.231.493.422.635.191.143.441.214.749.214.303 0 .549-.071.737-.214.191-.142.33-.354.416-.635.09-.282.135-.629.135-1.041 0-.417-.045-.762-.135-1.036-.086-.277-.225-.486-.416-.624-.192-.139-.441-.209-.749-.209-.454 0-.784.156-.99.467-.203.312-.304.779-.304 1.402Zm10.157 1.288c0 .428-.101.79-.304 1.086-.199.293-.497.516-.895.67-.397.15-.892.225-1.485.225-.439 0-.816-.028-1.131-.084a4.66 4.66 0 0 1-.946-.282v-1.418c.342.154.708.282 1.098.383a4.41 4.41 0 0 0 1.035.146c.334 0 .572-.049.715-.146a.461.461 0 0 0 .219-.394.464.464 0 0 0-.09-.281c-.056-.087-.18-.182-.371-.287a9.129 9.129 0 0 0-.9-.422 6.007 6.007 0 0 1-.974-.501 1.703 1.703 0 0 1-.563-.597c-.12-.232-.18-.527-.18-.883 0-.582.225-1.019.675-1.311.454-.297 1.06-.445 1.818-.445.39 0 .762.04 1.114.118.357.079.722.205 1.098.377l-.518 1.238a9.005 9.005 0 0 0-.884-.332 2.776 2.776 0 0 0-.838-.129c-.251 0-.441.034-.568.101a.33.33 0 0 0-.192.31c0 .101.032.191.096.27.067.079.195.167.383.264.191.094.47.216.838.366.356.146.666.3.928.461.263.158.466.355.608.591.143.233.214.535.214.906Zm3.056-4.423v6.291h-1.717v-6.291h1.717Zm-.856-2.464c.255 0 .475.06.659.18.183.116.275.335.275.658 0 .319-.092.54-.275.664a1.18 1.18 0 0 1-.659.18c-.259 0-.48-.06-.664-.18-.18-.124-.27-.345-.27-.664 0-.323.09-.542.27-.658.184-.12.405-.18.664-.18Zm5.312 7.501c.188 0 .37-.019.546-.057a5.33 5.33 0 0 0 .535-.14v1.277c-.184.083-.413.15-.687.203a4.38 4.38 0 0 1-.889.084c-.375 0-.713-.06-1.013-.18a1.441 1.441 0 0 1-.703-.636c-.169-.304-.253-.726-.253-1.266v-3.033h-.822v-.726l.945-.574.496-1.328h1.097v1.339h1.761v1.289h-1.761v3.033c0 .24.067.42.202.54.139.116.321.175.546.175Zm4.074-5.037v6.291h-1.716v-6.291h1.716Zm-.855-2.464c.255 0 .475.06.658.18.184.116.276.335.276.658 0 .319-.092.54-.276.664-.183.12-.403.18-.658.18-.259 0-.48-.06-.664-.18-.18-.124-.27-.345-.27-.664 0-.323.09-.542.27-.658.184-.12.405-.18.664-.18Zm6.139 3.753h-1.485v5.002h-1.717v-5.002h-.945v-.827l.945-.462v-.461c0-.537.09-.953.271-1.249.183-.3.44-.511.77-.631.334-.123.728-.185 1.182-.185.334 0 .638.028.912.084.274.053.497.113.669.18l-.439 1.261a4.772 4.772 0 0 0-.427-.113 2.466 2.466 0 0 0-.529-.051c-.24 0-.417.074-.529.22-.109.142-.163.326-.163.551v.394h1.485v1.289Zm5.38 3.134c0 .428-.101.79-.304 1.086-.199.293-.497.516-.895.67-.397.15-.893.225-1.485.225-.439 0-.816-.028-1.131-.084a4.66 4.66 0 0 1-.946-.282v-1.418c.342.154.707.282 1.098.383.393.097.739.146 1.035.146.334 0 .572-.049.715-.146a.461.461 0 0 0 .219-.394.464.464 0 0 0-.09-.281c-.056-.087-.18-.182-.371-.287a9.17 9.17 0 0 0-.901-.422 5.992 5.992 0 0 1-.973-.501 1.694 1.694 0 0 1-.563-.597c-.12-.232-.18-.527-.18-.883 0-.582.225-1.019.675-1.311.454-.297 1.06-.445 1.818-.445.39 0 .761.04 1.114.118.356.079.722.205 1.097.377l-.517 1.238a9.005 9.005 0 0 0-.884-.332 2.781 2.781 0 0 0-.838-.129c-.252 0-.441.034-.569.101a.331.331 0 0 0-.191.31c0 .101.032.191.096.27.067.079.195.167.382.264.192.094.471.216.839.366.356.146.666.3.928.461.263.158.465.355.608.591.143.233.214.535.214.906Zm-131.771 9.459c.713 0 1.251.184 1.615.552.368.363.551.949.551 1.755v4.102h-1.722v-3.674c0-.45-.076-.79-.23-1.019-.154-.228-.392-.343-.715-.343-.454 0-.776.163-.968.49-.191.322-.287.786-.287 1.39v3.156h-1.716v-3.674c0-.3-.034-.552-.101-.754a.892.892 0 0 0-.31-.456.886.886 0 0 0-.534-.152c-.319 0-.571.081-.754.242-.181.158-.31.392-.389.704a4.849 4.849 0 0 0-.112 1.131v2.959h-1.717v-6.291h1.312l.23.805h.096c.127-.218.287-.394.478-.529.195-.135.409-.234.642-.298.232-.064.469-.096.709-.096.461 0 .851.075 1.17.225.323.15.57.383.743.698h.152a1.64 1.64 0 0 1 .793-.703c.345-.147.7-.22 1.064-.22Zm6.527 0c.582 0 1.083.113 1.503.338.42.221.744.544.973.968.229.424.344.941.344 1.553v.833h-4.058c.019.483.164.864.434 1.142.274.274.652.411 1.136.411a4.62 4.62 0 0 0 1.103-.124 5.664 5.664 0 0 0 1.03-.372v1.328a4.068 4.068 0 0 1-.979.338 6.087 6.087 0 0 1-1.232.107c-.631 0-1.19-.116-1.677-.349a2.606 2.606 0 0 1-1.143-1.063c-.273-.477-.41-1.077-.41-1.801 0-.735.123-1.347.371-1.835.251-.491.6-.859 1.047-1.102.446-.248.966-.372 1.558-.372Zm.012 1.221a1.15 1.15 0 0 0-.833.321c-.218.214-.343.55-.377 1.007h2.408a1.702 1.702 0 0 0-.14-.681 1.065 1.065 0 0 0-.394-.472c-.173-.117-.394-.175-.664-.175Zm2.115-3.641v.119c-.108.105-.251.234-.427.388-.177.154-.366.315-.569.484-.202.165-.401.324-.596.478-.195.15-.366.276-.512.377h-1.142v-.152a28.276 28.276 0 0 0 .917-1.12c.161-.21.296-.401.405-.574h1.924Zm4.08 8.942c-.701 0-1.273-.274-1.716-.822-.439-.551-.659-1.359-.659-2.425 0-1.077.224-1.891.67-2.442.447-.555 1.03-.833 1.75-.833.3 0 .565.041.794.124.228.082.425.193.59.332.169.139.312.294.428.467h.056c-.022-.12-.05-.296-.084-.529a5.753 5.753 0 0 1-.045-.726v-2.014h1.722v8.755h-1.317l-.332-.815h-.073a2.12 2.12 0 0 1-.411.472 1.84 1.84 0 0 1-.579.332c-.226.083-.49.124-.794.124Zm.602-1.367c.469 0 .799-.139.991-.417.195-.281.298-.703.309-1.266v-.186c0-.611-.094-1.078-.281-1.401-.188-.326-.537-.489-1.047-.489-.379 0-.675.163-.889.489-.214.327-.321.797-.321 1.413 0 .615.107 1.078.321 1.39.218.311.523.467.917.467Zm6.415-5.037v6.291h-1.716v-6.291h1.716Zm-.855-2.464c.255 0 .474.06.658.18.184.116.276.335.276.658 0 .319-.092.54-.276.664-.184.12-.403.18-.658.18-.259 0-.48-.06-.664-.18-.18-.124-.27-.345-.27-.664 0-.323.09-.542.27-.658.184-.12.405-.18.664-.18Zm5.216 8.868c-.623 0-1.153-.113-1.592-.338a2.247 2.247 0 0 1-1.002-1.058c-.229-.476-.343-1.086-.343-1.828 0-.769.129-1.396.388-1.88a2.467 2.467 0 0 1 1.086-1.075c.465-.228 1.004-.343 1.615-.343.435 0 .81.043 1.126.13.318.082.596.181.832.298l-.506 1.328a8.151 8.151 0 0 0-.754-.265 2.381 2.381 0 0 0-.698-.107c-.3 0-.549.072-.748.214-.199.139-.347.349-.445.63-.097.282-.146.634-.146 1.058 0 .417.052.762.157 1.036.105.274.257.478.456.613.199.131.441.197.726.197.357 0 .674-.047.951-.141.278-.097.548-.232.81-.405v1.469a2.798 2.798 0 0 1-.827.354c-.285.075-.647.113-1.086.113Zm5.954-6.533c.844 0 1.491.184 1.941.551.45.368.675.927.675 1.677v4.192h-1.198l-.332-.855h-.045c-.18.225-.364.409-.552.552a1.903 1.903 0 0 1-.647.315c-.244.067-.54.101-.889.101a2.28 2.28 0 0 1-1.002-.214 1.59 1.59 0 0 1-.692-.653c-.169-.296-.253-.671-.253-1.125 0-.668.235-1.159.703-1.474.469-.319 1.173-.496 2.111-.529l1.091-.034v-.276c0-.33-.086-.572-.259-.726-.172-.153-.412-.23-.72-.23a3.16 3.16 0 0 0-.895.129 6.925 6.925 0 0 0-.877.326l-.569-1.159a4.879 4.879 0 0 1 1.12-.416 5.452 5.452 0 0 1 1.289-.152Zm.911 3.506-.664.022c-.555.015-.941.115-1.159.298a.91.91 0 0 0-.321.726c0 .263.077.45.231.563.154.109.355.163.602.163.368 0 .677-.109.929-.326.255-.218.382-.527.382-.929v-.517Zm9.251-3.377v6.291h-1.316l-.231-.804h-.09a1.723 1.723 0 0 1-.507.523 2.173 2.173 0 0 1-.669.298 2.981 2.981 0 0 1-.76.096c-.45 0-.842-.079-1.176-.236a1.751 1.751 0 0 1-.782-.749c-.184-.337-.276-.776-.276-1.317v-4.102h1.716v3.675c0 .45.081.789.242 1.018.162.229.419.344.771.344.349 0 .623-.079.822-.237.199-.161.338-.396.416-.703.083-.312.124-.69.124-1.137v-2.96h1.716Zm3.09 3.078-2.026-3.078h1.947l1.221 2.004 1.232-2.004h1.947l-2.048 3.078 2.144 3.213h-1.953l-1.322-2.155-1.328 2.155h-1.947l2.133-3.213Z"/><g filter="url(#e)"><rect width="226.256" height="50.61" x="58.973" y="198.408" fill="#fff" rx="6"/></g><circle cx="85.869" cy="223.611" r="13.5" fill="#F0B323"/><path fill="#fff" d="M86.775 232.24h-1.28a1.28 1.28 0 0 1-1.28-1.28l.002-3.434a.16.16 0 0 0-.24-.139l-2.975 1.723a1.262 1.262 0 0 1-1.72-.461l-.66-1.146-.003-.004a1.264 1.264 0 0 1 .463-1.712l2.985-1.731a.16.16 0 0 0 .08-.138.16.16 0 0 0-.08-.139l-2.982-1.728a1.27 1.27 0 0 1-.589-.765 1.253 1.253 0 0 1 .127-.956l.657-1.142a1.248 1.248 0 0 1 .771-.59 1.24 1.24 0 0 1 .953.128l2.973 1.721a.16.16 0 0 0 .24-.139l-.002-3.432a1.279 1.279 0 0 1 1.28-1.28h1.28a1.28 1.28 0 0 1 1.28 1.28v3.43a.159.159 0 0 0 .16.16.16.16 0 0 0 .08-.021l2.975-1.723a1.261 1.261 0 0 1 1.72.461l.66 1.146.003.003a1.262 1.262 0 0 1-.466 1.715l-2.982 1.728a.16.16 0 0 0 0 .277l2.982 1.729a1.253 1.253 0 0 1 .621 1.255 1.254 1.254 0 0 1-.158.465l-.658 1.143a1.256 1.256 0 0 1-.771.589 1.241 1.241 0 0 1-.952-.128l-2.974-1.72a.16.16 0 0 0-.08-.022.16.16 0 0 0-.16.16v3.437a1.28 1.28 0 0 1-1.28 1.28Z"/><path fill="#262939" d="m269.448 224.001-5.263-5.262a.991.991 0 1 0-1.403 1.403l3.863 3.863-3.863 3.857a.992.992 0 1 0 1.403 1.403l5.263-5.264ZM111.526 221.107c-.334 0-.63.065-.889.197a1.759 1.759 0 0 0-.647.557 2.681 2.681 0 0 0-.394.883c-.09.345-.135.734-.135 1.165 0 .582.071 1.079.214 1.491.146.409.371.722.675.94.304.214.696.321 1.176.321.334 0 .668-.038 1.002-.113a9.575 9.575 0 0 0 1.097-.321v1.464a5.3 5.3 0 0 1-1.075.32 6.297 6.297 0 0 1-1.187.102c-.848 0-1.546-.175-2.094-.524a3.151 3.151 0 0 1-1.209-1.474c-.263-.634-.394-1.373-.394-2.217 0-.623.084-1.193.253-1.711.169-.518.416-.966.743-1.345a3.278 3.278 0 0 1 1.21-.878c.48-.206 1.031-.309 1.654-.309.409 0 .818.052 1.227.157.412.102.806.242 1.181.423l-.562 1.418a9.188 9.188 0 0 0-.929-.383 2.762 2.762 0 0 0-.917-.163Zm9.437 3.736c0 .525-.072.991-.214 1.396a2.737 2.737 0 0 1-.614 1.029 2.575 2.575 0 0 1-.967.631 3.575 3.575 0 0 1-1.272.214 3.39 3.39 0 0 1-1.221-.214 2.705 2.705 0 0 1-.962-.631 2.92 2.92 0 0 1-.631-1.029 4.108 4.108 0 0 1-.219-1.396c0-.698.124-1.288.371-1.772.248-.484.6-.852 1.058-1.103.458-.252 1.004-.377 1.638-.377.589 0 1.11.125 1.564.377.458.251.816.619 1.075 1.103.262.484.394 1.074.394 1.772Zm-4.35 0c0 .413.045.76.135 1.041.09.282.231.494.422.636.191.143.441.214.748.214.304 0 .55-.071.738-.214.191-.142.33-.354.416-.636.09-.281.135-.628.135-1.041 0-.416-.045-.761-.135-1.035-.086-.278-.225-.486-.416-.625-.192-.139-.441-.208-.749-.208-.454 0-.784.156-.99.467-.203.311-.304.778-.304 1.401Zm9.341-3.252c.671 0 1.212.183 1.621.551.408.364.613.949.613 1.756V228h-1.716v-3.675c0-.45-.083-.789-.248-1.018-.161-.229-.416-.343-.765-.343-.525 0-.884.178-1.075.534-.191.357-.287.871-.287 1.542V228h-1.716v-6.291h1.311l.231.805h.095c.135-.218.302-.394.501-.529.203-.135.426-.235.67-.299.247-.063.502-.095.765-.095Zm8.39 4.541c0 .427-.101.789-.304 1.086-.199.292-.497.516-.895.669-.397.151-.892.226-1.485.226-.439 0-.816-.029-1.131-.085a4.655 4.655 0 0 1-.946-.281v-1.418c.342.154.708.281 1.098.382.394.098.739.147 1.035.147.334 0 .572-.049.715-.147a.46.46 0 0 0 .219-.394.466.466 0 0 0-.09-.281c-.056-.086-.18-.182-.371-.287a9.295 9.295 0 0 0-.901-.422 5.955 5.955 0 0 1-.973-.501 1.7 1.7 0 0 1-.563-.596c-.12-.233-.18-.527-.18-.884 0-.581.225-1.018.675-1.311.454-.296 1.06-.444 1.818-.444.39 0 .762.039 1.114.118a5.44 5.44 0 0 1 1.098.377l-.518 1.238a8.756 8.756 0 0 0-.884-.332 2.782 2.782 0 0 0-.838-.13c-.251 0-.441.034-.568.102a.328.328 0 0 0-.192.309c0 .101.032.192.096.27.067.079.195.167.383.265.191.094.47.215.838.366.356.146.666.3.928.461.263.158.466.354.608.591.143.232.214.534.214.906Zm7.113-4.423V228h-1.317l-.231-.805h-.09a1.735 1.735 0 0 1-.506.524 2.213 2.213 0 0 1-.67.298 2.98 2.98 0 0 1-.759.096c-.451 0-.843-.079-1.177-.237a1.759 1.759 0 0 1-.782-.748c-.184-.338-.275-.777-.275-1.317v-4.102h1.716v3.674c0 .451.08.79.242 1.019.161.229.418.343.771.343.349 0 .622-.079.821-.236.199-.162.338-.396.417-.704.082-.311.123-.69.123-1.136v-2.96h1.717Zm3.517 6.291h-1.717v-8.756h1.717V228Zm4.456-1.255c.188 0 .37-.019.546-.056.18-.038.359-.085.535-.141v1.278c-.184.082-.413.15-.687.202-.27.056-.566.085-.889.085-.375 0-.713-.06-1.013-.181a1.439 1.439 0 0 1-.703-.635c-.169-.304-.253-.726-.253-1.267v-3.033h-.822v-.725l.946-.574.495-1.328h1.097v1.339h1.761v1.288h-1.761v3.033c0 .241.068.421.203.541.138.116.32.174.545.174Zm4.935-5.166c.844 0 1.492.184 1.942.552.45.368.675.926.675 1.677V228h-1.199l-.332-.855h-.045a3.15 3.15 0 0 1-.551.551 1.876 1.876 0 0 1-.647.315 3.35 3.35 0 0 1-.889.102c-.372 0-.705-.072-1.002-.214a1.595 1.595 0 0 1-.692-.653c-.169-.296-.253-.672-.253-1.125 0-.668.234-1.16.703-1.475.469-.319 1.172-.495 2.11-.529l1.092-.033v-.276c0-.33-.086-.572-.259-.726-.172-.154-.412-.231-.72-.231-.304 0-.602.043-.895.13a6.995 6.995 0 0 0-.878.326l-.568-1.159a4.88 4.88 0 0 1 1.12-.417 5.444 5.444 0 0 1 1.288-.152Zm.912 3.506-.664.023c-.555.015-.942.114-1.159.298a.91.91 0 0 0-.321.726c0 .262.077.45.231.563.154.108.354.163.602.163.368 0 .677-.109.928-.327.255-.217.383-.527.383-.928v-.518Zm6.128 1.66c.188 0 .37-.019.546-.056.18-.038.358-.085.534-.141v1.278c-.183.082-.412.15-.686.202-.27.056-.567.085-.889.085-.375 0-.713-.06-1.013-.181a1.434 1.434 0 0 1-.703-.635c-.169-.304-.254-.726-.254-1.267v-3.033h-.821v-.725l.945-.574.495-1.328h1.098v1.339h1.761v1.288h-1.761v3.033c0 .241.067.421.202.541.139.116.321.174.546.174Zm4.074-5.036V228h-1.716v-6.291h1.716Zm-.855-2.465c.255 0 .474.06.658.18.184.117.276.336.276.659 0 .318-.092.54-.276.664-.184.12-.403.18-.658.18-.259 0-.48-.06-.664-.18-.18-.124-.27-.346-.27-.664 0-.323.09-.542.27-.659.184-.12.405-.18.664-.18Zm8.379 5.599c0 .525-.072.991-.214 1.396a2.75 2.75 0 0 1-.614 1.029 2.578 2.578 0 0 1-.968.631 3.57 3.57 0 0 1-1.271.214 3.39 3.39 0 0 1-1.221-.214 2.718 2.718 0 0 1-.963-.631 2.933 2.933 0 0 1-.63-1.029 4.108 4.108 0 0 1-.219-1.396c0-.698.124-1.288.371-1.772.248-.484.6-.852 1.058-1.103.458-.252 1.004-.377 1.638-.377.588 0 1.11.125 1.564.377.458.251.816.619 1.075 1.103.262.484.394 1.074.394 1.772Zm-4.35 0c0 .413.045.76.135 1.041.09.282.231.494.422.636.191.143.441.214.748.214.304 0 .55-.071.737-.214.192-.142.331-.354.417-.636.09-.281.135-.628.135-1.041 0-.416-.045-.761-.135-1.035-.086-.278-.225-.486-.417-.625-.191-.139-.44-.208-.748-.208-.454 0-.784.156-.99.467-.203.311-.304.778-.304 1.401Zm9.341-3.252c.671 0 1.212.183 1.62.551.409.364.614.949.614 1.756V228h-1.716v-3.675c0-.45-.083-.789-.248-1.018-.161-.229-.416-.343-.765-.343-.526 0-.884.178-1.075.534-.191.357-.287.871-.287 1.542V228h-1.716v-6.291h1.311l.23.805h.096c.135-.218.302-.394.501-.529.202-.135.426-.235.67-.299.247-.063.502-.095.765-.095Zm14.383 0c.713 0 1.251.183 1.615.551.367.364.551.949.551 1.756V228h-1.722v-3.675c0-.45-.077-.789-.23-1.018-.154-.229-.392-.343-.715-.343-.454 0-.777.163-.968.489-.191.323-.287.786-.287 1.39V228h-1.716v-3.675c0-.3-.034-.551-.101-.754a.893.893 0 0 0-.31-.455.88.88 0 0 0-.535-.152c-.318 0-.57.08-.754.242-.18.157-.309.392-.388.703a4.86 4.86 0 0 0-.112 1.131V228h-1.717v-6.291h1.311l.231.805h.096c.127-.218.287-.394.478-.529.195-.135.409-.235.642-.299.232-.063.469-.095.709-.095.461 0 .851.075 1.17.225.323.15.57.382.743.698h.152c.187-.323.452-.558.793-.704.345-.146.7-.219 1.064-.219Zm6.527 0c.582 0 1.083.112 1.503.337.42.222.744.544.973.968.229.424.344.942.344 1.553v.833h-4.058c.019.484.164.865.434 1.142.273.274.652.411 1.136.411.402 0 .769-.041 1.103-.124a5.584 5.584 0 0 0 1.03-.371v1.328a4.112 4.112 0 0 1-.979.338 6.094 6.094 0 0 1-1.232.107c-.631 0-1.19-.117-1.677-.349a2.608 2.608 0 0 1-1.143-1.064c-.274-.476-.41-1.077-.41-1.801 0-.735.123-1.346.371-1.834.251-.491.6-.859 1.047-1.103.446-.248.966-.371 1.558-.371Zm.012 1.221a1.15 1.15 0 0 0-.833.321c-.218.213-.344.549-.377 1.007h2.408a1.702 1.702 0 0 0-.141-.681 1.06 1.06 0 0 0-.393-.473c-.173-.116-.394-.174-.664-.174Zm2.115-3.641v.118a10.75 10.75 0 0 1-.427.388 30.064 30.064 0 0 1-1.165.963c-.195.15-.366.275-.512.377h-1.143v-.152a27.7 27.7 0 0 0 .918-1.12c.161-.21.296-.401.405-.574h1.924Zm4.08 8.942a2.105 2.105 0 0 1-1.716-.822c-.439-.551-.659-1.36-.659-2.425 0-1.077.224-1.891.67-2.443.446-.555 1.03-.832 1.75-.832.3 0 .565.041.793.123.229.083.426.194.591.332.169.139.312.295.428.468h.056c-.022-.121-.05-.297-.084-.529a5.776 5.776 0 0 1-.045-.726v-2.015h1.722V228H207.3l-.332-.816h-.073c-.109.173-.246.33-.411.473a1.854 1.854 0 0 1-.58.332 2.313 2.313 0 0 1-.793.124Zm.602-1.368c.469 0 .799-.139.991-.416.195-.282.298-.704.309-1.266v-.186c0-.612-.094-1.079-.281-1.401-.188-.327-.537-.49-1.047-.49-.379 0-.675.163-.889.49-.214.326-.321.797-.321 1.412 0 .615.107 1.079.321 1.39.218.311.523.467.917.467Zm6.415-5.036V228h-1.716v-6.291h1.716Zm-.855-2.465c.255 0 .474.06.658.18.184.117.276.336.276.659 0 .318-.092.54-.276.664-.184.12-.403.18-.658.18-.259 0-.48-.06-.664-.18-.18-.124-.27-.346-.27-.664 0-.323.09-.542.27-.659.184-.12.405-.18.664-.18Zm5.216 8.869c-.623 0-1.153-.113-1.592-.338a2.256 2.256 0 0 1-1.002-1.058c-.229-.476-.343-1.086-.343-1.829 0-.769.129-1.395.388-1.879a2.467 2.467 0 0 1 1.086-1.075c.465-.229 1.004-.343 1.615-.343a4.417 4.417 0 0 1 1.958.427l-.506 1.328a8.126 8.126 0 0 0-.754-.264 2.381 2.381 0 0 0-.698-.107c-.3 0-.55.071-.748.214-.199.139-.347.349-.445.63-.097.281-.146.634-.146 1.058 0 .416.052.761.157 1.035.105.274.257.479.456.614.199.131.441.197.726.197.356 0 .673-.047.951-.141a3.74 3.74 0 0 0 .81-.405v1.468a2.774 2.774 0 0 1-.827.355c-.285.075-.647.113-1.086.113Zm5.954-6.534c.844 0 1.491.184 1.941.552.45.368.675.926.675 1.677V228h-1.198l-.332-.855h-.045c-.18.225-.364.409-.552.551a1.867 1.867 0 0 1-.647.315 3.35 3.35 0 0 1-.889.102c-.371 0-.705-.072-1.002-.214a1.595 1.595 0 0 1-.692-.653c-.169-.296-.253-.672-.253-1.125 0-.668.234-1.16.703-1.475.469-.319 1.173-.495 2.111-.529l1.091-.033v-.276c0-.33-.086-.572-.259-.726-.172-.154-.412-.231-.72-.231-.304 0-.602.043-.895.13a6.925 6.925 0 0 0-.877.326l-.569-1.159a4.88 4.88 0 0 1 1.12-.417 5.446 5.446 0 0 1 1.289-.152Zm.911 3.506-.664.023c-.555.015-.941.114-1.159.298a.91.91 0 0 0-.321.726c0 .262.077.45.231.563.154.108.355.163.602.163.368 0 .677-.109.929-.327.255-.217.382-.527.382-.928v-.518Zm5.194 2.915h-1.716v-8.756h1.716V228Zm4.401-6.409c.581 0 1.082.112 1.502.337.42.222.745.544.973.968.229.424.344.942.344 1.553v.833h-4.057c.018.484.163.865.433 1.142.274.274.653.411 1.137.411a4.56 4.56 0 0 0 1.102-.124 5.558 5.558 0 0 0 1.03-.371v1.328a4.112 4.112 0 0 1-.979.338 6.087 6.087 0 0 1-1.232.107c-.63 0-1.189-.117-1.677-.349a2.6 2.6 0 0 1-1.142-1.064c-.274-.476-.411-1.077-.411-1.801 0-.735.124-1.346.371-1.834.252-.491.6-.859 1.047-1.103.446-.248.966-.371 1.559-.371Zm.011 1.221a1.15 1.15 0 0 0-.833.321c-.218.213-.343.549-.377 1.007h2.408a1.685 1.685 0 0 0-.14-.681 1.068 1.068 0 0 0-.394-.473c-.173-.116-.394-.174-.664-.174Z"/><g filter="url(#f)"><rect width="226.256" height="50.61" x="58.973" y="263.9" fill="#fff" rx="6"/></g><circle cx="85.869" cy="289.104" r="13.5" fill="#0C75F6"/><path fill="#fff" d="M86.136 289.919a1.498 1.498 0 0 0 0-2.995c-.827 0-1.498.699-1.498 1.497 0 .799.671 1.498 1.498 1.498Zm-1.323-3.591-2.212-3.535c-.318-.508-1.023-.636-1.48-.248a7.73 7.73 0 0 0-2.657 4.767c-.088.598.392 1.131.996 1.131h4.174c0-.892.474-1.669 1.18-2.115Zm6.34-3.783c-.458-.388-1.161-.26-1.48.249l-2.214 3.534a2.502 2.502 0 0 1 1.18 2.115h4.173c.604 0 1.084-.534.997-1.131a7.738 7.738 0 0 0-2.656-4.767Zm-3.694 8.01a2.481 2.481 0 0 1-1.323.387c-.487 0-.94-.146-1.323-.387l-2.212 3.538c-.316.506-.13 1.192.416 1.434.954.423 2.008.66 3.119.66 1.11 0 2.166-.238 3.12-.661.545-.242.732-.928.415-1.434l-2.212-3.537Z"/><path fill="#262939" d="m269.448 289.767-5.263-5.263a.993.993 0 0 0-1.403 1.404l3.863 3.863-3.863 3.856a.992.992 0 1 0 1.403 1.403l5.263-5.263ZM110.429 285.773c.746 0 1.361.09 1.845.27.488.18.85.452 1.086.816.237.364.355.824.355 1.379 0 .375-.071.703-.214.985-.142.281-.33.519-.563.714a3.327 3.327 0 0 1-.754.479l2.42 3.584h-1.936l-1.964-3.157h-.928V294h-1.745v-8.227h2.398Zm-.124 1.429h-.529v2.223h.563c.577 0 .99-.096 1.238-.287.251-.195.377-.48.377-.855 0-.39-.135-.668-.406-.833-.266-.165-.68-.248-1.243-.248Zm7.777.377c.844 0 1.491.184 1.941.552.45.368.675.926.675 1.677V294H119.5l-.332-.855h-.045c-.18.225-.364.409-.552.551a1.867 1.867 0 0 1-.647.315 3.35 3.35 0 0 1-.889.102c-.371 0-.705-.072-1.002-.214a1.595 1.595 0 0 1-.692-.653c-.169-.296-.253-.672-.253-1.125 0-.668.234-1.16.703-1.475.469-.319 1.173-.495 2.111-.529l1.091-.033v-.276c0-.33-.086-.572-.259-.726-.172-.154-.412-.231-.72-.231-.304 0-.602.043-.895.13a6.995 6.995 0 0 0-.878.326l-.568-1.159a4.88 4.88 0 0 1 1.12-.417 5.446 5.446 0 0 1 1.289-.152Zm.911 3.506-.664.023c-.555.015-.941.114-1.159.298a.91.91 0 0 0-.321.726c0 .262.077.45.231.563.154.108.354.163.602.163.368 0 .677-.109.929-.327.255-.217.382-.527.382-.928v-.518Zm5.47 3.028c-.702 0-1.274-.274-1.717-.822-.438-.551-.658-1.36-.658-2.425 0-1.077.223-1.891.67-2.443.446-.555 1.03-.832 1.75-.832.3 0 .564.041.793.123.229.083.426.194.591.332.169.139.311.295.428.468h.056a12.392 12.392 0 0 1-.084-.529 5.776 5.776 0 0 1-.045-.726v-2.015h1.721V294h-1.316l-.332-.816h-.073c-.109.173-.246.33-.411.473a1.877 1.877 0 0 1-.58.332 2.313 2.313 0 0 1-.793.124Zm.602-1.368c.469 0 .799-.139.99-.416.195-.282.298-.704.31-1.266v-.186c0-.612-.094-1.079-.282-1.401-.187-.327-.536-.49-1.046-.49-.379 0-.676.163-.889.49-.214.326-.321.797-.321 1.412 0 .615.107 1.079.321 1.39.217.311.523.467.917.467Zm6.415-5.036V294h-1.716v-6.291h1.716Zm-.856-2.465c.256 0 .475.06.659.18.184.117.276.336.276.659 0 .318-.092.54-.276.664-.184.12-.403.18-.659.18-.258 0-.48-.06-.664-.18-.18-.124-.27-.346-.27-.664 0-.323.09-.542.27-.659.184-.12.406-.18.664-.18Zm8.379 5.599c0 .525-.071.991-.214 1.396a2.735 2.735 0 0 1-.613 1.029 2.578 2.578 0 0 1-.968.631 3.57 3.57 0 0 1-1.271.214c-.443 0-.85-.072-1.222-.214a2.723 2.723 0 0 1-.962-.631 2.933 2.933 0 0 1-.63-1.029 4.107 4.107 0 0 1-.22-1.396c0-.698.124-1.288.372-1.772.247-.484.6-.852 1.058-1.103.457-.252 1.003-.377 1.637-.377.589 0 1.111.125 1.565.377.457.251.816.619 1.074 1.103.263.484.394 1.074.394 1.772Zm-4.349 0c0 .413.045.76.135 1.041.09.282.23.494.422.636.191.143.44.214.748.214.304 0 .55-.071.737-.214.192-.142.33-.354.417-.636.09-.281.135-.628.135-1.041 0-.416-.045-.761-.135-1.035-.087-.278-.225-.486-.417-.625-.191-.139-.441-.208-.748-.208-.454 0-.784.156-.991.467-.202.311-.303.778-.303 1.401Zm7.484 3.157h-1.717v-8.756h1.717V294Zm7.523-3.157c0 .525-.071.991-.214 1.396a2.748 2.748 0 0 1-.613 1.029 2.578 2.578 0 0 1-.968.631 3.571 3.571 0 0 1-1.272.214c-.442 0-.849-.072-1.221-.214a2.723 2.723 0 0 1-.962-.631 2.933 2.933 0 0 1-.63-1.029 4.083 4.083 0 0 1-.22-1.396c0-.698.124-1.288.372-1.772.247-.484.6-.852 1.058-1.103.457-.252 1.003-.377 1.637-.377.589 0 1.111.125 1.564.377.458.251.816.619 1.075 1.103.263.484.394 1.074.394 1.772Zm-4.35 0c0 .413.045.76.135 1.041.09.282.231.494.422.636.192.143.441.214.749.214.304 0 .549-.071.737-.214.191-.142.33-.354.416-.636.09-.281.135-.628.135-1.041 0-.416-.045-.761-.135-1.035-.086-.278-.225-.486-.416-.625-.191-.139-.441-.208-.748-.208-.454 0-.784.156-.991.467-.202.311-.304.778-.304 1.401Zm7.608 5.926c-.878 0-1.549-.154-2.014-.462-.462-.304-.692-.731-.692-1.283 0-.379.118-.696.354-.951s.583-.437 1.041-.546a1.16 1.16 0 0 1-.461-.365.885.885 0 0 1-.197-.546.87.87 0 0 1 .208-.597c.139-.161.339-.319.602-.472a1.71 1.71 0 0 1-.788-.687c-.191-.315-.287-.686-.287-1.114 0-.458.1-.846.299-1.165.202-.323.495-.568.877-.737.387-.169.856-.253 1.407-.253.116 0 .251.007.405.022a8.336 8.336 0 0 1 .687.096h2.194v.872l-.984.253c.09.139.157.287.202.445.045.157.068.324.068.501 0 .675-.237 1.202-.709 1.581-.469.375-1.122.563-1.959.563a13.685 13.685 0 0 1-.562-.045.778.778 0 0 0-.197.213.454.454 0 0 0-.068.237.26.26 0 0 0 .102.208.838.838 0 0 0 .315.124c.142.026.319.039.529.039h1.069c.69 0 1.215.148 1.575.445.364.296.546.731.546 1.305 0 .735-.307 1.306-.923 1.711-.611.405-1.491.608-2.639.608Zm.073-1.12c.409 0 .76-.04 1.053-.118.296-.075.523-.184.681-.327a.647.647 0 0 0 .236-.501.51.51 0 0 0-.141-.377c-.09-.09-.229-.153-.416-.191a3.7 3.7 0 0 0-.709-.056h-.889c-.21 0-.4.034-.569.101a.975.975 0 0 0-.394.281.676.676 0 0 0-.146.428c0 .236.113.422.338.557.229.135.547.203.956.203Zm.276-4.772c.323 0 .559-.099.709-.298.15-.199.225-.469.225-.811 0-.379-.079-.662-.236-.849-.154-.192-.387-.287-.698-.287-.315 0-.551.095-.709.287-.157.187-.236.47-.236.849 0 .342.077.612.23.811.158.199.396.298.715.298Zm6.044-3.168V294h-1.717v-6.291h1.717Zm-.856-2.465c.255 0 .475.06.659.18.184.117.275.336.275.659 0 .318-.091.54-.275.664a1.18 1.18 0 0 1-.659.18c-.258 0-.48-.06-.664-.18-.18-.124-.27-.346-.27-.664 0-.323.09-.542.27-.659.184-.12.406-.18.664-.18Zm5.256 2.347c.582 0 1.082.112 1.503.337.42.222.744.544.973.968.229.424.343.942.343 1.553v.833h-4.057c.019.484.163.865.433 1.142.274.274.653.411 1.137.411.402 0 .769-.041 1.103-.124a5.584 5.584 0 0 0 1.03-.371v1.328a4.127 4.127 0 0 1-.979.338 6.097 6.097 0 0 1-1.233.107c-.63 0-1.189-.117-1.677-.349a2.611 2.611 0 0 1-1.142-1.064c-.274-.476-.411-1.077-.411-1.801 0-.735.124-1.346.372-1.834a2.53 2.53 0 0 1 1.046-1.103c.447-.248.966-.371 1.559-.371Zm.011 1.221c-.334 0-.611.107-.832.321-.218.213-.344.549-.377 1.007h2.408a1.702 1.702 0 0 0-.141-.681 1.055 1.055 0 0 0-.394-.473c-.172-.116-.394-.174-.664-.174Z"/><g filter="url(#g)"><rect width="226.256" height="50.61" x="58.973" y="365.123" fill="#fff" rx="6"/></g><circle cx="85.869" cy="390.326" r="13.5" fill="#0C419A"/><path fill="#fff" fill-rule="evenodd" d="M84.873 385.214a2.016 2.016 0 0 1 1.973 2.014c0 .606-.267 1.14-.687 1.512l.477 1.31.76-.275.275.761 1.52-.55-.274-.761.76-.275-2.216-6.09-.76.275-.275-.76-1.52.55.274.76-.76.283.453 1.246Zm-2.88 10.909c-.89 0-1.618.728-1.618 1.618h11.323c0-.89-.728-1.618-1.618-1.618h-3.235v-1.617h2.427c.89 0 1.617-.728 1.617-1.618h-6.47a2.422 2.422 0 0 1-2.426-2.426c0-.882.477-1.65 1.18-2.07a2 2 0 0 1-.372-1.165c0-.17.033-.34.073-.502a4.054 4.054 0 0 0-2.499 3.737 4.046 4.046 0 0 0 4.044 4.044v1.617h-2.426Zm4.044-8.896a1.213 1.213 0 1 1-2.426 0 1.213 1.213 0 0 1 2.426 0Z" clip-rule="evenodd"/><path fill="#fff" d="M120.366 385.481a2.016 2.016 0 0 1 1.973 2.014c0 .607-.267 1.141-.687 1.513l.477 1.31.76-.275.275.76 1.521-.55-.275-.76.76-.275-2.216-6.09-.76.275-.275-.76-1.521.55.275.76-.76.283.453 1.245Z"/><path fill="#fff" d="M117.487 396.391c-.89 0-1.618.728-1.618 1.617h11.323c0-.889-.728-1.617-1.618-1.617h-3.235v-1.618h2.427c.889 0 1.617-.728 1.617-1.617h-6.47a2.423 2.423 0 0 1-2.426-2.427c0-.881.477-1.649 1.181-2.07a1.997 1.997 0 0 1-.373-1.165c0-.169.033-.339.073-.501a4.048 4.048 0 0 0-2.499 3.736 4.045 4.045 0 0 0 4.044 4.044v1.618h-2.426Z"/><path fill="#fff" d="M121.531 387.495a1.214 1.214 0 1 1-2.428-.002 1.214 1.214 0 0 1 2.428.002Z"/><path fill="#262939" d="m270.306 386.622-5.264-5.262a.991.991 0 1 0-1.403 1.403l3.863 3.863-3.862 3.857a.992.992 0 1 0 1.402 1.403l5.264-5.264ZM108.031 386.773h2.561c1.095 0 1.924.154 2.487.462.563.307.844.847.844 1.62 0 .312-.051.593-.152.844-.097.252-.24.458-.427.619a1.407 1.407 0 0 1-.687.315v.057c.274.056.521.153.743.292.221.135.397.334.529.597.135.259.202.604.202 1.035 0 .499-.122.927-.365 1.283-.244.356-.593.63-1.047.822-.45.187-.987.281-1.609.281h-3.079v-8.227Zm1.745 3.258h1.013c.506 0 .857-.079 1.052-.236.195-.161.293-.398.293-.709 0-.315-.117-.54-.349-.675-.229-.139-.593-.209-1.092-.209h-.917v1.829Zm0 1.385v2.143h1.137c.525 0 .891-.101 1.097-.303.206-.203.309-.475.309-.816a1.04 1.04 0 0 0-.135-.535c-.09-.154-.242-.274-.455-.36-.211-.086-.501-.129-.873-.129h-1.08Zm7.58-2.707V395h-1.717v-6.291h1.717Zm-.856-2.465c.255 0 .475.06.659.18.184.117.275.336.275.659 0 .318-.091.54-.275.664a1.18 1.18 0 0 1-.659.18c-.259 0-.48-.06-.664-.18-.18-.124-.27-.346-.27-.664 0-.323.09-.542.27-.659.184-.12.405-.18.664-.18Zm8.379 5.599c0 .525-.071.991-.214 1.396a2.735 2.735 0 0 1-.613 1.029 2.578 2.578 0 0 1-.968.631 3.571 3.571 0 0 1-1.272.214c-.442 0-.849-.072-1.221-.214a2.723 2.723 0 0 1-.962-.631 2.933 2.933 0 0 1-.63-1.029 4.083 4.083 0 0 1-.22-1.396c0-.698.124-1.288.372-1.772.247-.484.6-.852 1.058-1.103.457-.252 1.003-.377 1.637-.377.589 0 1.111.125 1.564.377.458.251.816.619 1.075 1.103.263.484.394 1.074.394 1.772Zm-4.35 0c0 .413.045.76.135 1.041.09.282.231.494.422.636.192.143.441.214.749.214.304 0 .549-.071.737-.214.191-.142.33-.354.416-.636.09-.281.135-.628.135-1.041 0-.416-.045-.761-.135-1.035-.086-.278-.225-.486-.416-.625-.191-.139-.441-.208-.748-.208-.454 0-.784.156-.991.467-.202.311-.304.778-.304 1.401Zm7.484 3.157h-1.716v-8.756h1.716V395Zm7.524-3.157c0 .525-.071.991-.214 1.396a2.748 2.748 0 0 1-.613 1.029 2.586 2.586 0 0 1-.968.631 3.571 3.571 0 0 1-1.272.214c-.442 0-.85-.072-1.221-.214a2.714 2.714 0 0 1-.962-.631 2.933 2.933 0 0 1-.63-1.029 4.083 4.083 0 0 1-.22-1.396c0-.698.124-1.288.372-1.772.247-.484.6-.852 1.057-1.103.458-.252 1.004-.377 1.638-.377.589 0 1.11.125 1.564.377.458.251.816.619 1.075 1.103.263.484.394 1.074.394 1.772Zm-4.35 0c0 .413.045.76.135 1.041.09.282.231.494.422.636.192.143.441.214.749.214.304 0 .549-.071.737-.214.191-.142.33-.354.416-.636.09-.281.135-.628.135-1.041 0-.416-.045-.761-.135-1.035-.086-.278-.225-.486-.416-.625-.191-.139-.441-.208-.749-.208-.453 0-.784.156-.99.467-.203.311-.304.778-.304 1.401Zm7.608 5.926c-.878 0-1.549-.154-2.014-.462-.462-.304-.693-.731-.693-1.283 0-.379.119-.696.355-.951s.583-.437 1.041-.546a1.16 1.16 0 0 1-.461-.365.885.885 0 0 1-.197-.546.87.87 0 0 1 .208-.597c.139-.161.339-.319.602-.472a1.71 1.71 0 0 1-.788-.687c-.191-.315-.287-.686-.287-1.114 0-.458.1-.846.298-1.165.203-.323.496-.568.878-.737.387-.169.856-.253 1.407-.253.116 0 .251.007.405.022a8.336 8.336 0 0 1 .687.096h2.194v.872l-.985.253c.091.139.158.287.203.445.045.157.068.324.068.501 0 .675-.237 1.202-.709 1.581-.469.375-1.122.563-1.959.563a13.685 13.685 0 0 1-.562-.045.778.778 0 0 0-.197.213.454.454 0 0 0-.068.237c0 .082.034.152.101.208a.85.85 0 0 0 .316.124 3 3 0 0 0 .528.039h1.07c.69 0 1.215.148 1.575.445.364.296.546.731.546 1.305 0 .735-.308 1.306-.923 1.711-.611.405-1.491.608-2.639.608Zm.073-1.12c.409 0 .76-.04 1.053-.118.296-.075.523-.184.68-.327a.645.645 0 0 0 .237-.501.51.51 0 0 0-.141-.377c-.09-.09-.229-.153-.416-.191a3.7 3.7 0 0 0-.709-.056h-.889c-.211 0-.4.034-.569.101a.975.975 0 0 0-.394.281.676.676 0 0 0-.146.428c0 .236.113.422.338.557.228.135.547.203.956.203Zm.276-4.772c.323 0 .559-.099.709-.298.15-.199.225-.469.225-.811 0-.379-.079-.662-.236-.849-.154-.192-.387-.287-.698-.287-.315 0-.551.095-.709.287-.158.187-.236.47-.236.849 0 .342.077.612.23.811.158.199.396.298.715.298Zm6.044-3.168V395h-1.717v-6.291h1.717Zm-.856-2.465c.255 0 .475.06.659.18.183.117.275.336.275.659 0 .318-.092.54-.275.664a1.18 1.18 0 0 1-.659.18c-.259 0-.48-.06-.664-.18-.18-.124-.27-.346-.27-.664 0-.323.09-.542.27-.659.184-.12.405-.18.664-.18Zm5.256 2.347c.581 0 1.082.112 1.502.337.421.222.745.544.974.968.229.424.343.942.343 1.553v.833h-4.057c.019.484.163.865.433 1.142.274.274.653.411 1.137.411.401 0 .769-.041 1.103-.124a5.584 5.584 0 0 0 1.03-.371v1.328a4.127 4.127 0 0 1-.979.338 6.097 6.097 0 0 1-1.233.107c-.63 0-1.189-.117-1.677-.349a2.606 2.606 0 0 1-1.142-1.064c-.274-.476-.411-1.077-.411-1.801 0-.735.124-1.346.372-1.834a2.53 2.53 0 0 1 1.046-1.103c.447-.248.966-.371 1.559-.371Zm.011 1.221c-.334 0-.611.107-.833.321-.217.213-.343.549-.377 1.007h2.409a1.702 1.702 0 0 0-.141-.681 1.055 1.055 0 0 0-.394-.473c-.172-.116-.394-.174-.664-.174Z"/><path fill="#fff" d="M21.758 75.367c0-24.853 20.147-45 45-45h210c24.853 0 45 20.147 45 45v21h-300v-21Z"/><path fill="#0C419A" d="m46.19 66.368 9.015 9.016 2.12-2.121-6.9-6.9 6.9-6.9-2.12-2.11-9.015 9.015Z"/><rect width="135" height="7.5" x="107.258" y="54.367" fill="#BDCCF8" rx="3.75"/><rect width="106.5" height="7.5" x="121.508" y="70.867" fill="#BDCCF8" rx="3.75"/><path stroke="#E7ECFA" stroke-width="1.5" d="M21.758 95.617h300"/><g filter="url(#h)"><rect width="228.877" height="51.196" x="58.826" y="431.547" fill="#fff" rx="6.023"/></g><circle cx="85.929" cy="457.146" r="13.552" fill="#5F7BD7"/><path fill="#fff" d="M82.201 465.147a.477.477 0 0 1-.526.105.477.477 0 0 1-.156-.105l-2.892-2.891a.485.485 0 0 1 0-.683.484.484 0 0 1 .682 0l.382.383 1.728-1.729-1.828-1.827a.485.485 0 0 1 0-.683.484.484 0 0 1 .682 0l1.105 1.106 5.36-5.36a2.407 2.407 0 0 1 1.705-.706h1.893l2.75-2.752a.484.484 0 0 1 .824.342c0 .128-.05.25-.141.341l-2.751 2.75v1.894c0 .639-.254 1.252-.706 1.704l-.54.54-.823-.823a.484.484 0 0 0-.824.341c0 .128.051.251.141.342l.824.822-.765.764-.822-.823a.484.484 0 0 0-.824.341c0 .128.051.251.141.342l.824.822-.765.764-.822-.823a.484.484 0 0 0-.824.341c0 .128.051.251.142.342l.823.822-1.247 1.246 1.106 1.105a.483.483 0 1 1-.682.682l-1.828-1.828-1.728 1.728.382.382a.488.488 0 0 1 .142.341.483.483 0 0 1-.142.341Zm-1.828-2.51.764.765 1.728-1.729-.764-.764-1.728 1.728Z"/><path fill="#262939" d="m272.608 453.09-5.325-5.324a1.003 1.003 0 1 0-1.419 1.42l3.908 3.908-3.907 3.901a1.002 1.002 0 1 0 1.418 1.419l5.325-5.324ZM114.925 453.741 112.117 462h-1.909l-2.802-8.259h1.768l1.554 4.915a25.51 25.51 0 0 1 .31 1.192c.064.252.108.461.13.627.023-.166.062-.375.119-.627.06-.252.119-.492.175-.718.06-.229.104-.387.13-.474l1.565-4.915h1.768Zm3.496 1.814c.848 0 1.497.184 1.949.553.452.369.678.93.678 1.684V462h-1.203l-.333-.859h-.046a3.18 3.18 0 0 1-.553.554 1.884 1.884 0 0 1-.65.316 3.373 3.373 0 0 1-.892.102c-.373 0-.708-.072-1.006-.215a1.596 1.596 0 0 1-.695-.655c-.169-.297-.254-.674-.254-1.13 0-.67.236-1.163.706-1.48.471-.32 1.177-.497 2.119-.531l1.095-.034v-.276c0-.332-.086-.575-.259-.729-.174-.154-.415-.232-.723-.232-.305 0-.605.044-.899.13a7.05 7.05 0 0 0-.881.328l-.57-1.164c.335-.177.71-.316 1.124-.418a5.486 5.486 0 0 1 1.293-.152Zm.915 3.519-.666.023c-.557.015-.945.114-1.164.299a.915.915 0 0 0-.322.729c0 .263.077.452.232.564.154.11.356.164.604.164.369 0 .68-.109.932-.327.256-.219.384-.529.384-.932v-.52Zm6.056 3.039c-.625 0-1.158-.113-1.599-.339a2.266 2.266 0 0 1-1.005-1.062c-.23-.478-.345-1.09-.345-1.836 0-.772.13-1.401.39-1.886a2.47 2.47 0 0 1 1.09-1.079c.467-.23 1.008-.345 1.621-.345.437 0 .814.043 1.13.13.32.083.599.183.836.299l-.508 1.333a8.19 8.19 0 0 0-.757-.265 2.368 2.368 0 0 0-.701-.107c-.301 0-.551.071-.751.214-.199.14-.348.351-.446.633-.098.282-.147.636-.147 1.062 0 .418.053.764.158 1.039.106.275.258.48.458.616.199.132.442.198.728.198.358 0 .676-.047.955-.141.279-.098.55-.234.814-.407v1.474a2.837 2.837 0 0 1-.831.356c-.286.075-.649.113-1.09.113Zm5.954 0c-.625 0-1.158-.113-1.599-.339a2.261 2.261 0 0 1-1.005-1.062c-.23-.478-.345-1.09-.345-1.836 0-.772.13-1.401.39-1.886a2.47 2.47 0 0 1 1.09-1.079c.467-.23 1.007-.345 1.621-.345.437 0 .814.043 1.13.13.32.083.599.183.836.299l-.508 1.333a8.19 8.19 0 0 0-.757-.265 2.368 2.368 0 0 0-.701-.107c-.301 0-.551.071-.751.214-.2.14-.348.351-.446.633-.098.282-.147.636-.147 1.062 0 .418.053.764.158 1.039.106.275.258.48.458.616.199.132.442.198.728.198.358 0 .676-.047.955-.141.279-.098.55-.234.813-.407v1.474a2.82 2.82 0 0 1-.83.356c-.286.075-.65.113-1.09.113Zm5.112-6.428V462h-1.723v-6.315h1.723Zm-.859-2.475c.256 0 .477.061.661.181.185.117.277.337.277.661 0 .32-.092.542-.277.667-.184.12-.405.18-.661.18-.26 0-.482-.06-.666-.18-.181-.125-.271-.347-.271-.667 0-.324.09-.544.271-.661.184-.12.406-.181.666-.181Zm6.259 2.356c.674 0 1.217.185 1.627.554.411.365.616.952.616 1.762V462h-1.723v-3.689c0-.452-.083-.792-.249-1.022-.162-.23-.418-.345-.768-.345-.527 0-.887.179-1.079.537-.192.358-.288.874-.288 1.548V462h-1.723v-6.315h1.316l.232.807h.096c.136-.218.303-.395.503-.531.203-.135.427-.235.672-.299.248-.064.505-.096.768-.096Zm6.604-.011c.847 0 1.497.184 1.948.553.452.369.678.93.678 1.684V462h-1.203l-.333-.859h-.045a3.219 3.219 0 0 1-.554.554 1.884 1.884 0 0 1-.65.316 3.368 3.368 0 0 1-.892.102c-.373 0-.708-.072-1.006-.215a1.594 1.594 0 0 1-.694-.655c-.17-.297-.255-.674-.255-1.13 0-.67.236-1.163.707-1.48.47-.32 1.176-.497 2.118-.531l1.096-.034v-.276c0-.332-.087-.575-.26-.729-.173-.154-.414-.232-.723-.232-.305 0-.605.044-.898.13a7.005 7.005 0 0 0-.882.328l-.57-1.164c.335-.177.71-.316 1.124-.418a5.488 5.488 0 0 1 1.294-.152Zm.915 3.519-.667.023c-.557.015-.945.114-1.163.299a.912.912 0 0 0-.322.729c0 .263.077.452.231.564.155.11.356.164.605.164.369 0 .679-.109.932-.327.256-.219.384-.529.384-.932v-.52Zm6.151 1.666c.189 0 .371-.019.548-.056a5.58 5.58 0 0 0 .537-.141v1.282a3.107 3.107 0 0 1-.689.203 4.347 4.347 0 0 1-.893.085c-.376 0-.715-.06-1.017-.181a1.447 1.447 0 0 1-.706-.638c-.169-.305-.254-.729-.254-1.271v-3.045h-.825v-.728l.949-.577.497-1.333h1.102v1.345h1.768v1.293h-1.768v3.045c0 .241.068.422.203.542.14.117.322.175.548.175Zm4.09-5.055V462h-1.723v-6.315h1.723Zm-.859-2.475c.256 0 .477.061.661.181.185.117.277.337.277.661 0 .32-.092.542-.277.667-.184.12-.405.18-.661.18-.259 0-.482-.06-.666-.18-.181-.125-.271-.347-.271-.667 0-.324.09-.544.271-.661.184-.12.407-.181.666-.181Zm8.411 5.621c0 .527-.071.994-.214 1.401-.14.407-.345.751-.616 1.034a2.588 2.588 0 0 1-.972.632 3.572 3.572 0 0 1-1.276.215c-.445 0-.853-.072-1.226-.215a2.732 2.732 0 0 1-.966-.632 2.962 2.962 0 0 1-.633-1.034 4.137 4.137 0 0 1-.22-1.401c0-.7.124-1.294.373-1.779a2.55 2.55 0 0 1 1.062-1.107c.459-.253 1.007-.379 1.644-.379.591 0 1.114.126 1.57.379.459.252.819.621 1.079 1.107.264.485.395 1.079.395 1.779Zm-4.366 0c0 .414.045.763.135 1.045.091.282.232.495.424.638.192.143.443.215.751.215.305 0 .552-.072.74-.215.192-.143.332-.356.418-.638.091-.282.136-.631.136-1.045 0-.418-.045-.764-.136-1.039-.086-.279-.226-.488-.418-.627-.192-.14-.442-.209-.751-.209-.456 0-.787.156-.994.468-.203.313-.305.782-.305 1.407Zm9.377-3.265c.674 0 1.216.185 1.627.554.41.365.615.952.615 1.762V462h-1.722v-3.689c0-.452-.083-.792-.249-1.022-.162-.23-.418-.345-.768-.345-.527 0-.887.179-1.079.537-.192.358-.288.874-.288 1.548V462h-1.723v-6.315h1.316l.232.807h.096a1.75 1.75 0 0 1 .502-.531c.204-.135.428-.235.673-.299.248-.064.504-.096.768-.096Z"/></g><defs><filter id="b" width="345" height="488" x="-1" y="0" color-interpolation-filters="sRGB" filterUnits="userSpaceOnUse"><feFlood flood-opacity="0" result="BackgroundImageFix"/><feColorMatrix in="SourceAlpha" result="hardAlpha" values="0 0 0 0 0 0 0 0 0 0 0 0 0 0 0 0 0 0 127 0"/><feMorphology in="SourceAlpha" radius="2" result="effect1_dropShadow_30154_205194"/><feOffset dy="-3"/><feGaussianBlur stdDeviation="3"/><feColorMatrix values="0 0 0 0 0.0470588 0 0 0 0 0.254902 0 0 0 0 0.603922 0 0 0 0.12 0"/><feBlend in2="BackgroundImageFix" result="effect1_dropShadow_30154_205194"/><feColorMatrix in="SourceAlpha" result="hardAlpha" values="0 0 0 0 0 0 0 0 0 0 0 0 0 0 0 0 0 0 127 0"/><feMorphology in="SourceAlpha" radius="4" result="effect2_dropShadow_30154_205194"/><feOffset dy="-10"/><feGaussianBlur stdDeviation="8"/><feColorMatrix values="0 0 0 0 0.0470588 0 0 0 0 0.254902 0 0 0 0 0.603922 0 0 0 0.17 0"/><feBlend in2="effect1_dropShadow_30154_205194" result="effect2_dropShadow_30154_205194"/><feBlend in="SourceGraphic" in2="effect2_dropShadow_30154_205194" result="shape"/></filter><filter id="d" width="322.256" height="146.609" x="10.973" y="84.912" color-interpolation-filters="sRGB" filterUnits="userSpaceOnUse"><feFlood flood-opacity="0" result="BackgroundImageFix"/><feColorMatrix in="SourceAlpha" result="hardAlpha" values="0 0 0 0 0 0 0 0 0 0 0 0 0 0 0 0 0 0 127 0"/><feOffset dy="12"/><feGaussianBlur stdDeviation="3"/><feComposite in2="hardAlpha" operator="out"/><feColorMatrix values="0 0 0 0 0.905882 0 0 0 0 0.92549 0 0 0 0 0.980392 0 0 0 0.1 0"/><feBlend in2="BackgroundImageFix" result="effect1_dropShadow_30154_205194"/><feColorMatrix in="SourceAlpha" result="hardAlpha" values="0 0 0 0 0 0 0 0 0 0 0 0 0 0 0 0 0 0 127 0"/><feOffset/><feGaussianBlur stdDeviation="24"/><feColorMatrix values="0 0 0 0 0.0470588 0 0 0 0 0.254902 0 0 0 0 0.603922 0 0 0 0.06 0"/><feBlend in2="effect1_dropShadow_30154_205194" result="effect2_dropShadow_30154_205194"/><feBlend in="SourceGraphic" in2="effect2_dropShadow_30154_205194" result="shape"/></filter><filter id="e" width="322.256" height="146.609" x="10.973" y="150.408" color-interpolation-filters="sRGB" filterUnits="userSpaceOnUse"><feFlood flood-opacity="0" result="BackgroundImageFix"/><feColorMatrix in="SourceAlpha" result="hardAlpha" values="0 0 0 0 0 0 0 0 0 0 0 0 0 0 0 0 0 0 127 0"/><feOffset dy="12"/><feGaussianBlur stdDeviation="3"/><feComposite in2="hardAlpha" operator="out"/><feColorMatrix values="0 0 0 0 0.905882 0 0 0 0 0.92549 0 0 0 0 0.980392 0 0 0 0.1 0"/><feBlend in2="BackgroundImageFix" result="effect1_dropShadow_30154_205194"/><feColorMatrix in="SourceAlpha" result="hardAlpha" values="0 0 0 0 0 0 0 0 0 0 0 0 0 0 0 0 0 0 127 0"/><feOffset/><feGaussianBlur stdDeviation="24"/><feColorMatrix values="0 0 0 0 0.0470588 0 0 0 0 0.254902 0 0 0 0 0.603922 0 0 0 0.06 0"/><feBlend in2="effect1_dropShadow_30154_205194" result="effect2_dropShadow_30154_205194"/><feBlend in="SourceGraphic" in2="effect2_dropShadow_30154_205194" result="shape"/></filter><filter id="f" width="322.256" height="146.609" x="10.973" y="215.9" color-interpolation-filters="sRGB" filterUnits="userSpaceOnUse"><feFlood flood-opacity="0" result="BackgroundImageFix"/><feColorMatrix in="SourceAlpha" result="hardAlpha" values="0 0 0 0 0 0 0 0 0 0 0 0 0 0 0 0 0 0 127 0"/><feOffset dy="12"/><feGaussianBlur stdDeviation="3"/><feComposite in2="hardAlpha" operator="out"/><feColorMatrix values="0 0 0 0 0.905882 0 0 0 0 0.92549 0 0 0 0 0.980392 0 0 0 0.1 0"/><feBlend in2="BackgroundImageFix" result="effect1_dropShadow_30154_205194"/><feColorMatrix in="SourceAlpha" result="hardAlpha" values="0 0 0 0 0 0 0 0 0 0 0 0 0 0 0 0 0 0 127 0"/><feOffset/><feGaussianBlur stdDeviation="24"/><feColorMatrix values="0 0 0 0 0.0470588 0 0 0 0 0.254902 0 0 0 0 0.603922 0 0 0 0.06 0"/><feBlend in2="effect1_dropShadow_30154_205194" result="effect2_dropShadow_30154_205194"/><feBlend in="SourceGraphic" in2="effect2_dropShadow_30154_205194" result="shape"/></filter><filter id="g" width="322.256" height="146.609" x="10.973" y="317.123" color-interpolation-filters="sRGB" filterUnits="userSpaceOnUse"><feFlood flood-opacity="0" result="BackgroundImageFix"/><feColorMatrix in="SourceAlpha" result="hardAlpha" values="0 0 0 0 0 0 0 0 0 0 0 0 0 0 0 0 0 0 127 0"/><feOffset dy="12"/><feGaussianBlur stdDeviation="3"/><feComposite in2="hardAlpha" operator="out"/><feColorMatrix values="0 0 0 0 0.905882 0 0 0 0 0.92549 0 0 0 0 0.980392 0 0 0 0.1 0"/><feBlend in2="BackgroundImageFix" result="effect1_dropShadow_30154_205194"/><feColorMatrix in="SourceAlpha" result="hardAlpha" values="0 0 0 0 0 0 0 0 0 0 0 0 0 0 0 0 0 0 127 0"/><feOffset/><feGaussianBlur stdDeviation="24"/><feColorMatrix values="0 0 0 0 0.0470588 0 0 0 0 0.254902 0 0 0 0 0.603922 0 0 0 0.06 0"/><feBlend in2="effect1_dropShadow_30154_205194" result="effect2_dropShadow_30154_205194"/><feBlend in="SourceGraphic" in2="effect2_dropShadow_30154_205194" result="shape"/></filter><filter id="h" width="325.246" height="147.565" x="10.642" y="383.362" color-interpolation-filters="sRGB" filterUnits="userSpaceOnUse"><feFlood flood-opacity="0" result="BackgroundImageFix"/><feColorMatrix in="SourceAlpha" result="hardAlpha" values="0 0 0 0 0 0 0 0 0 0 0 0 0 0 0 0 0 0 127 0"/><feOffset dy="12.046"/><feGaussianBlur stdDeviation="3.012"/><feComposite in2="hardAlpha" operator="out"/><feColorMatrix values="0 0 0 0 0.905882 0 0 0 0 0.92549 0 0 0 0 0.980392 0 0 0 0.1 0"/><feBlend in2="BackgroundImageFix" result="effect1_dropShadow_30154_205194"/><feColorMatrix in="SourceAlpha" result="hardAlpha" values="0 0 0 0 0 0 0 0 0 0 0 0 0 0 0 0 0 0 127 0"/><feOffset/><feGaussianBlur stdDeviation="24.092"/><feColorMatrix values="0 0 0 0 0.0470588 0 0 0 0 0.254902 0 0 0 0 0.603922 0 0 0 0.06 0"/><feBlend in2="effect1_dropShadow_30154_205194" result="effect2_dropShadow_30154_205194"/><feBlend in="SourceGraphic" in2="effect2_dropShadow_30154_205194" result="shape"/></filter><linearGradient id="c" x1="21.758" x2="322.413" y1="30.871" y2="33.734" gradientUnits="userSpaceOnUse"><stop stop-color="#0C419A"/><stop offset="1" stop-color="#1058D1"/></linearGradient><clipPath id="a"><path fill="#fff" d="M11 22h321v464H11z"/></clipPath></defs></svg>