<svg width="56" height="56" viewBox="0 0 56 56" fill="none" xmlns="http://www.w3.org/2000/svg">
<rect width="56" height="56" rx="28" fill="#E11A81"/>
<path d="M35.5833 14C35.2625 14 35 14.2625 35 14.5833V22.75C35 23.0708 34.7375 23.3333 34.4167 23.3333H22.75C22.4292 23.3333 22.1667 23.0708 22.1667 22.75V14.5833C22.1667 14.2625 21.9042 14 21.5833 14H16.3333C16.0125 14 15.75 14.2625 15.75 14.5833V41.4167C15.75 41.7375 16.0125 42 16.3333 42H21.5833C21.9042 42 22.1667 41.7375 22.1667 41.4167V32.0833C22.1667 31.7625 22.4292 31.5 22.75 31.5H34.4167C34.7375 31.5 35 31.7625 35 32.0833V41.4167C35 41.7375 35.2625 42 35.5833 42H40.8333C41.1542 42 41.4167 41.7375 41.4167 41.4167V14.5833C41.4167 14.2625 41.1542 14 40.8333 14H35.5833Z" fill="white"/>
</svg>
