<svg width="64" height="64" viewBox="0 0 64 64" fill="none" xmlns="http://www.w3.org/2000/svg">
<path d="M57.9216 37.29C54.4277 43.5588 49.0375 49.1221 43.0345 52.8572C31.242 60.1937 14.975 56.1628 7.02731 44.5849C3.28827 39.1375 2.06347 31.7248 5.17629 25.7749C7.47947 21.3715 11.9638 19.1804 16.7228 18.8157C20.7368 18.5082 24.6923 19.552 28.6954 19.5741C34.8155 19.6081 39.9764 16.684 45.8406 15.6241C49.0554 15.0429 53.005 15.2242 55.7837 17.2228C58.4217 19.1197 60.1083 22.2857 60.5518 25.5096C61.1116 29.5786 59.9099 33.7227 57.9216 37.29Z" fill="#A0B2EC" fill-opacity="0.16"/>
<path fill-rule="evenodd" clip-rule="evenodd" d="M14.056 35.1365C12.2679 27.0181 7.65312 17.5468 13.2729 11.4423C19.0897 5.1238 29.6572 6.37885 37.6377 9.52094C44.1176 12.0722 46.817 19.1114 49.3165 25.6334C51.3265 30.8785 51.8063 36.3443 49.9484 41.6444C47.8826 47.5377 44.81 53.7824 38.836 55.5317C32.781 57.3046 26.6228 53.9186 21.7439 49.903C17.2428 46.1983 15.3126 40.8417 14.056 35.1365Z" fill="#A0B2EC" fill-opacity="0.16"/>
<path d="M9.6773 24.9396C9.10368 23.946 9.44409 22.6756 10.4376 22.102L25.9414 13.1509L27.4935 15.8392C28.0671 16.8327 29.3375 17.1731 30.331 16.5995L33.0193 15.0474L47.566 40.243C48.1396 41.2365 47.7992 42.5069 46.8056 43.0805L28.6136 53.5837C27.6201 54.1573 26.3496 53.8169 25.776 52.8234L9.6773 24.9396Z" fill="white"/>
<path d="M29.5307 17.0611L33.0193 15.0469L25.9414 13.1504L27.9556 16.639C28.274 17.1905 28.9792 17.3795 29.5307 17.0611Z" fill="#BDCCF8"/>
<rect x="13.4844" y="26.3398" width="9.86694" height="2.07725" rx="1.03862" transform="rotate(-30 13.4844 26.3398)" fill="#A05BB6"/>
<rect x="15.8213" y="30.3867" width="19.9935" height="1.55794" rx="0.778969" transform="rotate(-30 15.8213 30.3867)" fill="#BDCCF8"/>
<rect x="17.8984" y="33.9863" width="19.9935" height="1.55794" rx="0.778969" transform="rotate(-30 17.8984 33.9863)" fill="#BDCCF8"/>
<rect x="23.7988" y="35.377" width="15.5794" height="1.55794" rx="0.778969" transform="rotate(-30 23.7988 35.377)" fill="#BDCCF8"/>
<rect x="19.8467" y="37.3574" width="3.11587" height="2.07725" rx="1.03862" transform="rotate(-30 19.8467 37.3574)" fill="#0C419A"/>
<rect x="21.9238" y="40.957" width="3.11587" height="2.07725" rx="1.03862" transform="rotate(-30 21.9238 40.957)" fill="#0C419A"/>
<rect x="24.001" y="44.5547" width="3.11587" height="2.07725" rx="1.03862" transform="rotate(-30 24.001 44.5547)" fill="#0C419A"/>
<rect x="25.876" y="38.9746" width="15.5794" height="1.55794" rx="0.778969" transform="rotate(-30 25.876 38.9746)" fill="#BDCCF8"/>
<rect x="27.9531" y="42.5723" width="8.04934" height="1.55794" rx="0.778969" transform="rotate(-30 27.9531 42.5723)" fill="#BDCCF8"/>
<g filter="url(#filter0_d_8174_80947)">
<path d="M14.2984 18.1197C14.0014 17.0116 14.6591 15.8726 15.7672 15.5756L33.0594 10.9422L36.0578 10.1388C37.1659 9.84188 38.305 10.4995 38.6019 11.6076L39.4053 14.606L46.9352 42.708C47.2321 43.8161 46.5745 44.9552 45.4664 45.2521L25.1758 50.6889C24.0676 50.9859 22.9286 50.3282 22.6317 49.2201L14.2984 18.1197Z" fill="white"/>
</g>
<rect x="21.2373" y="33.9863" width="19.9935" height="1.55794" rx="0.778969" transform="rotate(-15 21.2373 33.9863)" fill="#BDCCF8"/>
<rect x="35.6689" y="31.1133" width="5.44" height="1.6" rx="0.8" transform="rotate(-15 35.6689 31.1133)" fill="#BDCCF8"/>
<rect x="30.1631" y="40.2129" width="12.9828" height="1.55794" rx="0.778969" transform="rotate(-15 30.1631 40.2129)" fill="#BDCCF8"/>
<rect x="29.1553" y="36.4492" width="8.82831" height="1.55794" rx="0.778969" transform="rotate(-15 29.1553 36.4492)" fill="#BDCCF8"/>
<rect x="31.0371" y="43.4727" width="8.82831" height="1.55794" rx="0.778969" transform="rotate(-15 31.0371 43.4727)" fill="#BDCCF8"/>
<rect x="23.3916" y="42.0254" width="4.93347" height="4.93347" rx="0.659861" transform="rotate(-15 23.3916 42.0254)" fill="#F9FAFF"/>
<rect x="28.4365" y="40.4062" width="0.934762" height="4.98646" rx="0.467381" transform="rotate(30 28.4365 40.4062)" fill="#0C419A"/>
<rect width="0.934762" height="2.68608" rx="0.467381" transform="matrix(-0.5 0.866025 0.866025 0.5 24.8877 43.0469)" fill="#0C419A"/>
<rect width="0.934762" height="2.68608" rx="0.467381" transform="matrix(0.258819 0.965926 0.965926 -0.258819 22.584 37.248)" fill="#A05BB6"/>
<path d="M29.0973 20.8832C28.8203 20.9574 28.5355 20.793 28.4613 20.516L28.3461 20.086C28.2719 19.809 28.4363 19.5242 28.7133 19.45L29.1433 19.3348C29.4203 19.2605 29.705 19.4249 29.7793 19.702L29.8945 20.1319C29.9687 20.409 29.8043 20.6937 29.5273 20.768L29.0973 20.8832Z" fill="#0C419A"/>
<path d="M28.3288 18.016C28.0517 18.0902 27.767 17.9258 27.6927 17.6488L27.5775 17.2188C27.5033 16.9418 27.6677 16.657 27.9447 16.5828L28.3747 16.4676C28.6517 16.3934 28.9365 16.5578 29.0107 16.8348L29.1259 17.2648C29.2002 17.5418 29.0358 17.8265 28.7587 17.9008L28.3288 18.016Z" fill="#0C419A"/>
<path d="M26.2301 21.6507C25.9531 21.725 25.6683 21.5606 25.5941 21.2835L25.4789 20.8536C25.4047 20.5765 25.5691 20.2918 25.8461 20.2176L26.2761 20.1023C26.5531 20.0281 26.8379 20.1925 26.9121 20.4696L27.0273 20.8995C27.1015 21.1766 26.9371 21.4613 26.6601 21.5355L26.2301 21.6507Z" fill="#0C419A"/>
<path d="M27.2799 19.8343C27.0029 19.9086 26.7181 19.7442 26.6439 19.4671L26.5287 19.0372C26.4545 18.7601 26.6189 18.4754 26.8959 18.4011L27.3259 18.2859C27.6029 18.2117 27.8877 18.3761 27.9619 18.6532L28.0771 19.0831C28.1513 19.3601 27.9869 19.6449 27.7099 19.7191L27.2799 19.8343Z" fill="#0C419A"/>
<path d="M25.4626 18.7855C25.1855 18.8597 24.9008 18.6953 24.8265 18.4183L24.7113 17.9883C24.6371 17.7113 24.8015 17.4266 25.0785 17.3523L25.5085 17.2371C25.7855 17.1629 26.0703 17.3273 26.1445 17.6043L26.2597 18.0343C26.334 18.3113 26.1695 18.5961 25.8925 18.6703L25.4626 18.7855Z" fill="#0C419A"/>
<path d="M22.9654 28.6707C22.5853 28.7725 22.1803 28.7192 21.8395 28.5224C21.4987 28.3257 21.2501 28.0016 21.1482 27.6215L20.7642 26.1883C20.6623 25.8082 20.7157 25.4032 20.9124 25.0624C21.1092 24.7216 21.4332 24.4729 21.8134 24.3711L23.2465 23.9871C23.6266 23.8852 24.0316 23.9385 24.3724 24.1353C24.7132 24.3321 24.9619 24.6561 25.0638 25.0362L25.4478 26.4694C25.5496 26.8495 25.4963 27.2545 25.2996 27.5953C25.1028 27.9361 24.7787 28.1848 24.3986 28.2866L22.9654 28.6707ZM21.8648 27.4295C21.9157 27.6195 22.0401 27.7816 22.2105 27.88C22.3809 27.9783 22.5834 28.005 22.7734 27.9541L24.2066 27.57C24.3967 27.5191 24.5587 27.3948 24.6571 27.2244C24.7554 27.054 24.7821 26.8515 24.7312 26.6614L24.3472 25.2282C24.2962 25.0382 24.1719 24.8762 24.0015 24.7778C23.8311 24.6794 23.6286 24.6527 23.4386 24.7037L22.0054 25.0877C21.8153 25.1386 21.6533 25.2629 21.5549 25.4333C21.4565 25.6037 21.4299 25.8062 21.4808 25.9963L21.8648 27.4295Z" fill="#A05BB6"/>
<path d="M22.5811 27.2363L22.197 25.8031L23.6302 25.4191L24.0142 26.8523L22.5811 27.2363Z" fill="#A05BB6"/>
<path d="M28.6978 27.1336C28.3177 27.2354 27.9127 27.1821 27.5719 26.9853C27.2311 26.7886 26.9825 26.4645 26.8806 26.0844L26.4966 24.6512C26.3948 24.2711 26.4481 23.8661 26.6448 23.5253C26.8416 23.1845 27.1657 22.9358 27.5458 22.834L28.979 22.45C29.3591 22.3481 29.7641 22.4014 30.1049 22.5982C30.4457 22.7949 30.6943 23.119 30.7962 23.4991L31.1802 24.9323C31.2821 25.3124 31.2287 25.7174 31.032 26.0582C30.8352 26.399 30.5111 26.6477 30.131 26.7495L28.6978 27.1336ZM27.5972 25.8924C27.6481 26.0824 27.7725 26.2445 27.9429 26.3428C28.1133 26.4412 28.3158 26.4679 28.5058 26.417L29.939 26.0329C30.1291 25.982 30.2911 25.8577 30.3895 25.6873C30.4879 25.5169 30.5145 25.3144 30.4636 25.1243L30.0796 23.6911C30.0287 23.5011 29.9043 23.339 29.7339 23.2407C29.5635 23.1423 29.361 23.1156 29.171 23.1666L27.7378 23.5506C27.5477 23.6015 27.3857 23.7258 27.2873 23.8962C27.1889 24.0666 27.1623 24.2691 27.2132 24.4592L27.5972 25.8924Z" fill="#0C419A"/>
<path d="M28.3145 25.7012L27.9304 24.268L29.3636 23.884L29.7476 25.3171L28.3145 25.7012Z" fill="#0C419A"/>
<path d="M21.4293 22.9382C21.0492 23.0401 20.6442 22.9868 20.3034 22.79C19.9626 22.5933 19.7139 22.2692 19.6121 21.8891L19.228 20.4559C19.1262 20.0758 19.1795 19.6708 19.3763 19.33C19.573 18.9892 19.8971 18.7405 20.2772 18.6387L21.7104 18.2546C22.0905 18.1528 22.4955 18.2061 22.8363 18.4029C23.1771 18.5996 23.4258 18.9237 23.5276 19.3038L23.9116 20.737C24.0135 21.1171 23.9602 21.5221 23.7634 21.8629C23.5667 22.2037 23.2426 22.4524 22.8625 22.5542L21.4293 22.9382ZM20.3287 21.6971C20.3796 21.8871 20.5039 22.0492 20.6743 22.1475C20.8447 22.2459 21.0472 22.2726 21.2373 22.2216L22.6705 21.8376C22.8605 21.7867 23.0226 21.6624 23.1209 21.492C23.2193 21.3216 23.246 21.1191 23.1951 20.929L22.811 19.4958C22.7601 19.3058 22.6358 19.1437 22.4654 19.0454C22.295 18.947 22.0925 18.9203 21.9024 18.9712L20.4692 19.3553C20.2792 19.4062 20.1171 19.5305 20.0188 19.7009C19.9204 19.8713 19.8937 20.0738 19.9446 20.2639L20.3287 21.6971Z" fill="#A05BB6"/>
<path d="M21.0459 21.5039L20.6619 20.0707L22.0951 19.6867L22.4791 21.1199L21.0459 21.5039Z" fill="#A05BB6"/>
<g filter="url(#filter1_d_8174_80947)">
<path d="M25.1163 46.9125H46.1227C47.2699 46.9125 48.1999 45.9825 48.1999 44.8352V12.6378C48.1999 11.4906 47.2699 10.5605 46.1227 10.5605L25.1163 10.5605C23.9691 10.5605 23.0391 11.4906 23.0391 12.6378L23.0391 44.8352C23.0391 45.9825 23.9691 46.9125 25.1163 46.9125Z" fill="white"/>
</g>
<path d="M37.6641 13.8863C37.6641 13.3127 38.1291 12.8477 38.7027 12.8477H44.6748C45.2484 12.8477 45.7134 13.3127 45.7134 13.8863C45.7134 14.4599 45.2484 14.9249 44.6748 14.9249H38.7027C38.1291 14.9249 37.6641 14.4599 37.6641 13.8863Z" fill="#A05BB6"/>
<path d="M37.6631 18.0407C37.6631 17.6105 38.0118 17.2617 38.4421 17.2617H44.9335C45.3637 17.2617 45.7124 17.6105 45.7124 18.0407C45.7124 18.4709 45.3637 18.8197 44.9335 18.8197H38.4421C38.0118 18.8197 37.6631 18.4709 37.6631 18.0407Z" fill="#BDCCF8"/>
<path d="M37.6621 21.9352C37.6621 21.505 38.0109 21.1562 38.4411 21.1562H39.7394C40.1696 21.1562 40.5183 21.505 40.5183 21.9352C40.5183 22.3654 40.1696 22.7142 39.7394 22.7142H38.4411C38.0109 22.7142 37.6621 22.3654 37.6621 21.9352Z" fill="#BDCCF8"/>
<path d="M36.106 18.0408C36.106 20.9089 33.7809 23.2339 30.9129 23.2339C28.0448 23.2339 25.7197 20.9089 25.7197 18.0408C25.7197 15.1727 28.0448 12.8477 30.9129 12.8477C33.7809 12.8477 36.106 15.1727 36.106 18.0408Z" fill="#F9FAFF"/>
<path d="M29.2411 16.4291C29.2411 15.5988 29.9314 14.9258 30.7828 14.9258C31.6343 14.9258 32.3245 15.5988 32.3245 16.4291C32.3245 17.2593 31.6343 17.9323 30.7828 17.9323C29.9314 17.9323 29.2411 17.2593 29.2411 16.4291ZM30.7828 17.331C31.2937 17.331 31.7079 16.9272 31.7079 16.4291C31.7079 15.9309 31.2937 15.5271 30.7828 15.5271C30.272 15.5271 29.8578 15.9309 29.8578 16.4291C29.8578 16.9272 30.272 17.331 30.7828 17.331Z" fill="#A05BB6"/>
<path d="M29.0386 18.9375C28.6509 19.3154 28.4056 19.8063 28.3363 20.3307C28.314 20.4996 28.4541 20.6382 28.6244 20.6382C28.7947 20.6382 28.93 20.4991 28.9597 20.3314C29.0242 19.9669 29.2028 19.6278 29.4747 19.3626C29.8216 19.0243 30.2922 18.8343 30.7828 18.8343C31.2735 18.8343 31.7441 19.0243 32.091 19.3626C32.3629 19.6278 32.5414 19.9669 32.6059 20.3314C32.6356 20.4991 32.7709 20.6382 32.9412 20.6382C33.1115 20.6382 33.2517 20.4996 33.2293 20.3307C33.16 19.8063 32.9147 19.3154 32.5271 18.9375C32.0645 18.4864 31.4371 18.233 30.7828 18.233C30.1286 18.233 29.5012 18.4864 29.0386 18.9375Z" fill="#A05BB6"/>
<path d="M25.7188 26.8687C25.7188 26.2951 26.1838 25.8301 26.7574 25.8301H27.796C28.3696 25.8301 28.8346 26.2951 28.8346 26.8687C28.8346 27.4423 28.3696 27.9073 27.796 27.9073H26.7574C26.1838 27.9073 25.7188 27.4423 25.7188 26.8687Z" fill="#A05BB6"/>
<path d="M25.7197 31.023C25.7197 30.4494 26.1847 29.9844 26.7584 29.9844H27.797C28.3706 29.9844 28.8356 30.4494 28.8356 31.023C28.8356 31.5966 28.3706 32.0616 27.797 32.0616H26.7584C26.1847 32.0616 25.7197 31.5966 25.7197 31.023Z" fill="#A05BB6"/>
<path d="M30.1338 26.8688C30.1338 26.4386 30.4825 26.0898 30.9128 26.0898H44.9342C45.3644 26.0898 45.7132 26.4386 45.7132 26.8688C45.7132 27.299 45.3644 27.6478 44.9342 27.6478H30.9128C30.4825 27.6478 30.1338 27.299 30.1338 26.8688Z" fill="#BDCCF8"/>
<path d="M30.1328 31.0251C30.1328 30.5948 30.4816 30.2461 30.9118 30.2461H37.4032C37.8334 30.2461 38.1822 30.5948 38.1822 31.0251C38.1822 31.4553 37.8334 31.804 37.4032 31.804H30.9118C30.4816 31.804 30.1328 31.4553 30.1328 31.0251Z" fill="#BDCCF8"/>
<path d="M25.7188 35.3181C25.7188 34.9536 26.0142 34.6582 26.3786 34.6582H45.0524C45.4168 34.6582 45.7123 34.9536 45.7123 35.3181V41.5284C45.7123 41.8928 45.4168 42.1882 45.0524 42.1882H26.3786C26.0142 42.1882 25.7188 41.8928 25.7188 41.5284V35.3181Z" fill="#F9FAFF"/>
<path fill-rule="evenodd" clip-rule="evenodd" d="M36.3137 36.7628L35.0071 39.3383C34.9076 39.5346 34.7062 39.6582 34.4861 39.6582H33.7357L33.3151 40.8827C33.1418 41.3873 32.4385 41.4147 32.2265 40.925L30.929 37.9283L30.3014 39.3149C30.2068 39.5239 29.9986 39.6582 29.7692 39.6582H27.7962C27.617 39.6582 27.4717 39.5129 27.4717 39.3337C27.4717 39.1544 27.617 39.0091 27.7962 39.0091H29.7273L30.398 37.5271C30.6071 37.0652 31.2649 37.0706 31.4664 37.5358L32.7556 40.5134L33.1368 39.4036C33.2179 39.1676 33.4399 39.0091 33.6894 39.0091H34.4463L35.8015 36.3375C36.0314 35.8842 36.6905 35.9205 36.8694 36.3962L38.2424 40.0478L38.5619 39.3501C38.657 39.1423 38.8646 39.0091 39.0931 39.0091H40.154L40.6885 37.9556C40.9048 37.529 41.5141 37.529 41.7305 37.9556L42.2649 39.0091H43.6353C43.8145 39.0091 43.9598 39.1544 43.9598 39.3337C43.9598 39.5129 43.8145 39.6582 43.6353 39.6582H42.2251C42.005 39.6582 41.8036 39.5346 41.7041 39.3383L41.2095 38.3634L40.7149 39.3383C40.6153 39.5346 40.4139 39.6582 40.1939 39.6582H39.1347L38.7677 40.4598C38.5514 40.9321 37.8724 40.9084 37.6896 40.4222L36.3137 36.7628Z" fill="#A05BB6"/>
<g filter="url(#filter2_d_8174_80947)">
<ellipse cx="45.7568" cy="43.8423" rx="9.05046" ry="9.05046" transform="rotate(45 45.7568 43.8423)" fill="white"/>
</g>
<g filter="url(#filter3_d_8174_80947)">
<ellipse cx="45.7568" cy="43.8416" rx="7.68" ry="7.68" transform="rotate(45 45.7568 43.8416)" fill="#A05BB6"/>
</g>
<circle cx="45.7447" cy="44.0572" r="3.55473" stroke="white" stroke-width="1.12"/>
<rect x="41.2646" y="39.9434" width="2.39579" height="1.19789" rx="0.598947" transform="rotate(-40.0448 41.2646 39.9434)" fill="white"/>
<rect x="45.1162" y="44.8027" width="2.24" height="0.96" rx="0.48" transform="rotate(-90 45.1162 44.8027)" fill="white"/>
<rect x="45.1162" y="43.8418" width="2.24" height="0.96" rx="0.48" fill="white"/>
<rect width="2.39579" height="1.19789" rx="0.598947" transform="matrix(-0.775494 -0.631355 -0.631355 0.775494 50.2363 39.9258)" fill="white"/>
<defs>
<filter id="filter0_d_8174_80947" x="10.3433" y="8.12626" width="40.5477" height="48.4598" filterUnits="userSpaceOnUse" color-interpolation-filters="sRGB">
<feFlood flood-opacity="0" result="BackgroundImageFix"/>
<feColorMatrix in="SourceAlpha" type="matrix" values="0 0 0 0 0 0 0 0 0 0 0 0 0 0 0 0 0 0 127 0" result="hardAlpha"/>
<feOffset dy="1.9421"/>
<feGaussianBlur stdDeviation="1.9421"/>
<feColorMatrix type="matrix" values="0 0 0 0 0.0470588 0 0 0 0 0.254902 0 0 0 0 0.603922 0 0 0 0.1 0"/>
<feBlend mode="normal" in2="BackgroundImageFix" result="effect1_dropShadow_8174_80947"/>
<feBlend mode="normal" in="SourceGraphic" in2="effect1_dropShadow_8174_80947" result="shape"/>
</filter>
<filter id="filter1_d_8174_80947" x="19.1549" y="8.61844" width="32.9295" height="44.12" filterUnits="userSpaceOnUse" color-interpolation-filters="sRGB">
<feFlood flood-opacity="0" result="BackgroundImageFix"/>
<feColorMatrix in="SourceAlpha" type="matrix" values="0 0 0 0 0 0 0 0 0 0 0 0 0 0 0 0 0 0 127 0" result="hardAlpha"/>
<feOffset dy="1.9421"/>
<feGaussianBlur stdDeviation="1.9421"/>
<feColorMatrix type="matrix" values="0 0 0 0 0.0470588 0 0 0 0 0.254902 0 0 0 0 0.603922 0 0 0 0.1 0"/>
<feBlend mode="normal" in2="BackgroundImageFix" result="effect1_dropShadow_8174_80947"/>
<feBlend mode="normal" in="SourceGraphic" in2="effect1_dropShadow_8174_80947" result="shape"/>
</filter>
<filter id="filter2_d_8174_80947" x="31.2464" y="32.0612" width="29.0209" height="29.0209" filterUnits="userSpaceOnUse" color-interpolation-filters="sRGB">
<feFlood flood-opacity="0" result="BackgroundImageFix"/>
<feColorMatrix in="SourceAlpha" type="matrix" values="0 0 0 0 0 0 0 0 0 0 0 0 0 0 0 0 0 0 127 0" result="hardAlpha"/>
<feOffset dy="2.72983"/>
<feGaussianBlur stdDeviation="2.72983"/>
<feColorMatrix type="matrix" values="0 0 0 0 0.0470588 0 0 0 0 0.254902 0 0 0 0 0.603922 0 0 0 0.1 0"/>
<feBlend mode="normal" in2="BackgroundImageFix" result="effect1_dropShadow_8174_80947"/>
<feBlend mode="normal" in="SourceGraphic" in2="effect1_dropShadow_8174_80947" result="shape"/>
</filter>
<filter id="filter3_d_8174_80947" x="32.6175" y="33.4323" width="26.2787" height="26.2787" filterUnits="userSpaceOnUse" color-interpolation-filters="sRGB">
<feFlood flood-opacity="0" result="BackgroundImageFix"/>
<feColorMatrix in="SourceAlpha" type="matrix" values="0 0 0 0 0 0 0 0 0 0 0 0 0 0 0 0 0 0 127 0" result="hardAlpha"/>
<feOffset dy="2.72983"/>
<feGaussianBlur stdDeviation="2.72983"/>
<feColorMatrix type="matrix" values="0 0 0 0 0.0470588 0 0 0 0 0.254902 0 0 0 0 0.603922 0 0 0 0.1 0"/>
<feBlend mode="normal" in2="BackgroundImageFix" result="effect1_dropShadow_8174_80947"/>
<feBlend mode="normal" in="SourceGraphic" in2="effect1_dropShadow_8174_80947" result="shape"/>
</filter>
</defs>
</svg>
