<svg width="120" height="120" viewBox="0 0 120 120" fill="none" xmlns="http://www.w3.org/2000/svg">
<path d="M75.9329 114.26C61.3014 113.135 46.3576 107.884 34.2847 99.9313C10.57 84.3078 4.13795 50.6483 18.84 25.9823C25.7576 14.3775 38.4764 5.76048 52.1895 6.45084C62.3379 6.96069 70.244 13.4141 74.9932 21.9403C78.9984 29.1318 80.4444 37.371 83.8284 44.8243C89.0015 56.2195 98.8477 63.3023 105.834 73.2861C109.664 78.7592 112.706 86.2494 111.372 93.1199C110.106 99.6421 105.669 105.483 100.061 109.065C92.9835 113.586 84.2592 114.9 75.9329 114.26Z" fill="#A0B2EC" fill-opacity="0.16"/>
<path fill-rule="evenodd" clip-rule="evenodd" d="M52.3034 31.6156C69.0422 28.6565 88.7863 20.0381 100.777 32.0411C113.189 44.4648 109.721 65.9468 102.62 81.9822C96.854 95.0025 82.2423 99.9157 68.7043 104.464C57.8167 108.123 46.6093 108.636 35.94 104.387C24.0767 99.6628 11.5814 92.8517 8.51833 80.4974C5.41376 67.9757 12.8578 55.684 21.4786 46.0597C29.4319 37.1806 40.5405 33.6951 52.3034 31.6156Z" fill="#A0B2EC" fill-opacity="0.16"/>
<path d="M40.8494 54.3597H34.2852V44.4232C34.2852 29.8542 45.7929 18 59.9395 18C74.0861 18 85.5938 29.8542 85.5938 44.4232V54.3597H79.0296V44.4232C79.0296 33.4721 70.4664 24.5643 59.9413 24.5643C49.4162 24.5643 40.853 33.4721 40.853 44.4232V54.3597H40.8494Z" fill="#A0B2EC"/>
<mask id="mask0_8415_116575" style="mask-type:alpha" maskUnits="userSpaceOnUse" x="34" y="18" width="52" height="37">
<path d="M40.8465 54.3597H34.2822V44.4232C34.2822 29.8542 45.79 18 59.9366 18C74.0831 18 85.5909 29.8542 85.5909 44.4232V54.3597H79.0267V44.4232C79.0267 33.4721 70.4634 24.5643 59.9383 24.5643C49.4133 24.5643 40.85 33.4721 40.85 44.4232V54.3597H40.8465Z" fill="#A0B2EC"/>
</mask>
<g mask="url(#mask0_8415_116575)">
<path opacity="0.2" d="M86.9506 44.0921C86.9506 29.7057 75.4557 18 61.3228 18C71.8377 18 83.6593 28.6463 83.6593 44.0921V48.8418C83.6593 52.6418 80.5398 52.8185 78.9801 52.8185H86.9506V44.0921Z" fill="#495574"/>
</g>
<path d="M25.7998 59.1811C25.7998 55.6671 28.6485 52.8184 32.1626 52.8184H87.8368C91.3509 52.8184 94.1996 55.6671 94.1996 59.1811V95.7671C94.1996 99.2811 91.3509 102.13 87.8368 102.13H32.1626C28.6485 102.13 25.7998 99.2811 25.7998 95.7671V59.1811Z" fill="#F0B323"/>
<path opacity="0.5" d="M67.3358 73.3253C67.3358 69.514 64.2501 66.4258 60.4437 66.4258C56.6373 66.4258 53.5498 69.514 53.5498 73.3253C53.5498 75.9441 55.0094 77.8074 57.157 78.9746L56.2893 88.7839H64.8614L63.9096 79.3912C66.0591 78.2222 67.3358 75.9441 67.3358 73.3253Z" fill="#F9FAFF"/>
<path opacity="0.3" d="M66.2953 73.1544C66.2953 69.4375 63.2836 66.4258 59.5685 66.4258C55.8533 66.4258 52.8398 69.4375 52.8398 73.1544C52.8398 75.7084 54.3669 78.1015 56.4631 79.2397L55.6041 88.8333H63.5311L62.7746 79.07C64.8726 77.93 66.2953 75.7084 66.2953 73.1544Z" fill="#495574"/>
<path d="M66.8276 73.1544C66.8276 69.4375 63.8159 66.4258 60.1007 66.4258C56.3855 66.4258 53.3721 69.4375 53.3721 73.1544C53.3721 75.7084 54.7966 77.9318 56.8928 79.07L56.1363 88.8333H64.0633L63.3068 79.07C65.4048 77.93 66.8276 75.7084 66.8276 73.1544Z" fill="#262939"/>
<path opacity="0.2" d="M34.2852 52.8202V44.9551C34.2852 49.1969 35.5224 52.8202 40.8247 52.8202H34.2852Z" fill="#495574"/>
<path opacity="0.2" d="M88.0159 52.8184H83.9508C87.2736 52.8184 91.7275 53.0834 91.7275 59.0043C91.7275 71.9655 91.2857 85.9577 91.2857 94.8833C91.2857 103.809 47.0998 101.776 43.0347 102.13H87.3973C92.081 102.13 94.202 98.5949 94.202 95.8554V59.181C94.202 55.0276 90.5787 52.8184 88.0159 52.8184Z" fill="#495574"/>
<path opacity="0.3" d="M32.4791 54.0884L40.1674 54C31.5953 54.7953 30.0046 57.0046 29.5628 59.9209L27 78.2139V59.9209C27 56.5981 29.8279 54.0884 32.4791 54.0884Z" fill="white"/>
<path opacity="0.7" d="M38.0838 31.1679C39.427 28.6935 42.7675 25.1292 43.5628 24.3633C40.7349 27.474 36.3812 34.8795 35.521 37.7958C35.8745 36.0284 36.7405 33.6423 38.0838 31.1679Z" fill="#BDCCF8"/>
<path d="M72.5316 51.001L76.1823 50.6009C76.6911 50.5451 76.8117 49.8595 76.3525 49.6335L73.0376 48.0017C72.7297 47.8501 72.3629 48.0387 72.307 48.3772L71.9712 50.4091C71.916 50.7433 72.1949 51.0379 72.5316 51.001Z" fill="#0C419A"/>
<path d="M88.439 42.066L87.4663 45.6074C87.3307 46.1009 87.9237 46.4656 88.303 46.122L91.0411 43.6412C91.2954 43.4109 91.2552 43.0004 90.9611 42.8237L89.1957 41.763C88.9054 41.5886 88.5287 41.7394 88.439 42.066Z" fill="#0C419A"/>
<path d="M73.2355 43.8561L75.9065 46.3768C76.2787 46.7281 76.879 46.3755 76.7535 45.8794L75.8475 42.2974C75.7633 41.9647 75.382 41.8076 75.088 41.9844L73.323 43.0458C73.0327 43.2203 72.9892 43.6237 73.2355 43.8561Z" fill="#0C419A"/>
<path d="M92.1385 48.317L88.6631 49.5041C88.1788 49.6695 88.2107 50.3649 88.7081 50.4853L92.2992 51.3545C92.6327 51.4352 92.9495 51.1711 92.9303 50.8286L92.8146 48.7723C92.7956 48.4341 92.459 48.2075 92.1385 48.317Z" fill="#0C419A"/>
</svg>
