<svg width="64" height="64" viewBox="0 0 64 64" fill="none" xmlns="http://www.w3.org/2000/svg">
<g clip-path="url(#clip0_14704_131500)">
<path fill-rule="evenodd" clip-rule="evenodd" d="M3.0407 40.9312C1.53247 32.955 -2.72348 23.5698 3.01773 17.7923C8.96018 11.8124 19.3528 13.3706 27.1318 16.6879C33.4481 19.3815 35.8901 26.3336 38.1511 32.7749C39.9695 37.9552 40.2701 43.3022 38.2681 48.4138C36.0421 54.0976 32.8111 60.0923 26.8581 61.6099C20.8245 63.1481 14.8522 59.6504 10.1628 55.579C5.83653 51.8228 4.10058 46.5363 3.0407 40.9312Z" fill="#A0B2EC" fill-opacity="0.16"/>
<path d="M55.6215 7.96082C59.6807 13.0769 62.3931 19.5741 63.2874 25.9737C65.0435 38.545 55.2368 51.0779 42.1421 53.9361C35.9812 55.2807 29.0992 53.8085 25.1675 49.1264C22.2575 45.6618 22.1071 41.0847 23.6418 36.8935C24.9364 33.3585 27.376 30.3326 28.9511 26.9189C31.3596 21.6999 30.8388 16.2956 32.2023 10.9236C32.9497 7.97862 34.6417 4.66477 37.4489 2.96905C40.1136 1.35909 43.5052 0.993431 46.4636 1.70992C50.1976 2.61411 53.3116 5.04932 55.6215 7.96082Z" fill="#A0B2EC" fill-opacity="0.16"/>
<g filter="url(#filter0_d_14704_131500)">
<path d="M17.8326 56.1077H46.3989C47.959 56.1077 49.2238 54.8517 49.2238 53.3022V9.8172C49.2238 8.26777 47.959 7.01172 46.3989 7.01172H17.8326C16.2725 7.01172 15.0078 8.26777 15.0078 9.8172V53.3022C15.0078 54.8517 16.2725 56.1077 17.8326 56.1077Z" fill="white"/>
</g>
<rect x="34.7832" y="10.5195" width="10.9462" height="2.80548" rx="1.40274" fill="#0C419A"/>
<rect x="34.7832" y="16.4805" width="10.9462" height="2.10411" rx="1.05205" fill="#BDCCF8"/>
<rect x="34.7832" y="21.7422" width="3.88414" height="2.10411" rx="1.05205" fill="#BDCCF8"/>
<ellipse cx="25.6011" cy="17.5332" rx="7.06207" ry="7.0137" fill="#F9FAFF"/>
<path d="M26.105 21.2184H24.7071C24.5266 21.2184 24.3705 21.0937 24.3318 20.9186L24.1755 20.2C23.967 20.1093 23.7693 19.9958 23.586 19.8617L22.8805 20.0848C22.7084 20.1393 22.5214 20.0674 22.4311 19.912L21.7306 18.7102C21.6413 18.5547 21.6721 18.3587 21.8047 18.2376L22.352 17.7417C22.3271 17.5171 22.3271 17.2904 22.352 17.0658L21.8047 16.5711C21.6719 16.4499 21.6411 16.2536 21.7306 16.0981L22.4296 14.8955C22.5198 14.7401 22.7069 14.6682 22.8789 14.7227L23.5845 14.9458C23.6782 14.8768 23.7758 14.8132 23.8767 14.7551C23.9736 14.7008 24.0734 14.6517 24.1755 14.6079L24.3322 13.89C24.3707 13.7149 24.5266 13.59 24.7071 13.5898H26.105C26.2855 13.59 26.4415 13.7149 26.4799 13.89L26.6381 14.6083C26.746 14.6554 26.851 14.7086 26.9527 14.7677C27.0476 14.8222 27.1394 14.8819 27.2277 14.9466L27.9336 14.7235C28.1055 14.6692 28.2923 14.7411 28.3825 14.8962L29.0815 16.0989C29.1708 16.2543 29.14 16.4504 29.0074 16.5715L28.4601 17.0673C28.485 17.292 28.485 17.5186 28.4601 17.7432L29.0074 18.2391C29.14 18.3602 29.1708 18.5563 29.0815 18.7117L28.3825 19.9143C28.2923 20.0695 28.1055 20.1414 27.9336 20.0871L27.2277 19.864C27.1383 19.9293 27.0455 19.9898 26.9496 20.0452C26.8489 20.1031 26.745 20.1554 26.6385 20.2019L26.4799 20.9186C26.4413 21.0936 26.2854 21.2183 26.105 21.2184ZM25.4045 15.8784C24.5561 15.8784 23.8683 16.5615 23.8683 17.4041C23.8683 18.2468 24.5561 18.9299 25.4045 18.9299C26.253 18.9299 26.9408 18.2468 26.9408 17.4041C26.9408 16.5615 26.253 15.8784 25.4045 15.8784Z" fill="#0C419A"/>
<rect x="18.5391" y="28.0547" width="4.23724" height="2.80548" rx="1.40274" fill="#0C419A"/>
<rect x="18.5391" y="39.8906" width="4.23724" height="2.80548" rx="1.40274" fill="#0C419A"/>
<rect x="18.5391" y="33.6641" width="4.23724" height="2.80548" rx="1.40274" fill="#0C419A"/>
<rect x="18.5391" y="45.5" width="4.23724" height="2.80548" rx="1.40274" fill="#0C419A"/>
<rect x="24.542" y="28.4062" width="21.1862" height="2.10411" rx="1.05205" fill="#BDCCF8"/>
<rect x="24.542" y="40.2383" width="21.1862" height="2.10411" rx="1.05205" fill="#BDCCF8"/>
<rect x="24.542" y="34.0156" width="10.9462" height="2.10411" rx="1.05205" fill="#BDCCF8"/>
<rect x="24.542" y="45.8516" width="10.9462" height="2.10411" rx="1.05205" fill="#BDCCF8"/>
<ellipse cx="53.8492" cy="31.6504" rx="7.06207" ry="7.0137" fill="#0C419A"/>
<path d="M53.8492 39.1055C57.9904 39.1055 61.3526 35.7706 61.3526 31.6504C61.3526 27.5302 57.9904 24.1953 53.8492 24.1953C49.708 24.1953 46.3457 27.5302 46.3457 31.6504C46.3457 35.7706 49.708 39.1055 53.8492 39.1055Z" stroke="white" stroke-opacity="0.6" stroke-width="0.882759"/>
<path d="M56.749 35.5801H51.2384C50.8036 35.5801 50.4512 35.2301 50.4512 34.7983V29.3254C50.4512 28.8936 50.8036 28.5436 51.2384 28.5436H52.0256V27.7617H52.8129V28.5436H55.1746V27.7617H55.9618V28.5436H56.749C57.1838 28.5436 57.5362 28.8936 57.5362 29.3254V34.7983C57.5362 35.2301 57.1838 35.5801 56.749 35.5801ZM51.2384 30.8891V34.7983H56.749V30.8891H51.2384ZM51.2384 29.3254V30.1072H56.749V29.3254H51.2384ZM55.9618 34.0164H55.1746V33.2346H55.9618V34.0164ZM54.3873 34.0164H53.6001V33.2346H54.3873V34.0164ZM52.8129 34.0164H52.0256V33.2346H52.8129V34.0164ZM55.9618 32.4528H55.1746V31.6709H55.9618V32.4528ZM54.3873 32.4528H53.6001V31.6709H54.3873V32.4528ZM52.8129 32.4528H52.0256V31.6709H52.8129V32.4528Z" fill="white"/>
<ellipse cx="10.1538" cy="10.0835" rx="8.82759" ry="8.76712" fill="#E11A81"/>
<path d="M10.1538 19.5127C15.3905 19.5127 19.6434 15.2954 19.6434 10.0835C19.6434 4.87165 15.3905 0.654337 10.1538 0.654337C4.91706 0.654337 0.664103 4.87165 0.664103 10.0835C0.664103 15.2954 4.91706 19.5127 10.1538 19.5127Z" stroke="white" stroke-opacity="0.6" stroke-width="1.32414"/>
<path d="M10.1519 14.2612C9.88073 14.0224 9.57429 13.774 9.25019 13.5098H9.24599C8.10471 12.583 6.81125 11.5342 6.23998 10.2776C6.0523 9.87756 5.95284 9.4423 5.94825 9.00097C5.94699 8.3954 6.19154 7.81489 6.62663 7.39064C7.06172 6.96639 7.65062 6.7342 8.26024 6.74656C8.75653 6.74734 9.24213 6.88979 9.6592 7.15695C9.84247 7.27508 10.0083 7.41798 10.1519 7.58153C10.2963 7.41862 10.4621 7.27581 10.6449 7.15695C11.0618 6.88974 11.5473 6.74728 12.0435 6.74656C12.6531 6.7342 13.242 6.96639 13.6771 7.39064C14.1122 7.81489 14.3567 8.3954 14.3555 9.00097C14.3512 9.443 14.2517 9.87901 14.0637 10.2797C13.4925 11.5363 12.1994 12.5846 11.0582 13.5098L11.054 13.5131C10.7294 13.7757 10.4234 14.0241 10.1523 14.2646L10.1519 14.2612ZM8.26024 7.58153C7.86868 7.57666 7.49101 7.72549 7.20934 7.99567C6.93794 8.26042 6.78626 8.62316 6.78894 9.00097C6.79374 9.32264 6.86709 9.63965 7.0042 9.93112C7.27387 10.4733 7.63773 10.964 8.07906 11.3806C8.49564 11.7981 8.97485 12.2022 9.38933 12.542C9.50409 12.636 9.62095 12.7308 9.73781 12.8255L9.81137 12.8852C9.92361 12.9762 10.0396 13.0706 10.1519 13.1633L10.1573 13.1583L10.1599 13.1562H10.1624L10.1662 13.1532H10.1683H10.1704L10.1779 13.147L10.1952 13.1332L10.1981 13.1307L10.2027 13.1274H10.2053L10.209 13.124L10.4882 12.8965L10.5613 12.8368C10.6794 12.7412 10.7963 12.6464 10.911 12.5525C11.3255 12.2127 11.8051 11.809 12.2217 11.3894C12.6631 10.973 13.027 10.4824 13.2966 9.9403C13.4362 9.64631 13.5106 9.32598 13.5148 9.00097C13.5165 8.62433 13.3649 8.26298 13.0944 7.99901C12.8133 7.72761 12.4355 7.57755 12.0435 7.58153C11.5651 7.57749 11.1077 7.77665 10.7866 8.12885L10.1519 8.85527L9.51712 8.12885C9.19599 7.77665 8.73864 7.57749 8.26024 7.58153Z" fill="white"/>
<ellipse cx="15.4468" cy="47.7832" rx="7.06207" ry="7.0137" fill="#1E7B6F"/>
<path d="M15.4468 55.2383C19.588 55.2383 22.9503 51.9034 22.9503 47.7832C22.9503 43.663 19.588 40.3282 15.4468 40.3282C11.3057 40.3282 7.94339 43.663 7.94339 47.7832C7.94339 51.9034 11.3057 55.2383 15.4468 55.2383Z" stroke="white" stroke-opacity="0.6" stroke-width="0.882759"/>
<path d="M14.9417 49.5376H15.9506C16.1513 49.5376 16.3437 49.4584 16.4856 49.3175C16.6275 49.1766 16.7072 48.9855 16.7072 48.7861C16.7072 48.5868 16.6275 48.3957 16.4856 48.2548C16.3437 48.1139 16.1513 48.0347 15.9506 48.0347H14.1851C14.1182 48.0347 14.054 48.0611 14.0067 48.108C13.9594 48.155 13.9329 48.2187 13.9329 48.2852C13.9329 48.3516 13.9594 48.4153 14.0067 48.4623C14.054 48.5093 14.1182 48.5357 14.1851 48.5357H15.9506C16.0175 48.5357 16.0816 48.5621 16.1289 48.609C16.1762 48.656 16.2028 48.7197 16.2028 48.7861C16.2028 48.8526 16.1762 48.9163 16.1289 48.9633C16.0816 49.0102 16.0175 49.0366 15.9506 49.0366H14.9417C14.741 49.0366 14.5486 49.1158 14.4067 49.2567C14.2648 49.3977 14.1851 49.5888 14.1851 49.7881C14.1851 49.9874 14.2648 50.1785 14.4067 50.3195C14.5486 50.4604 14.741 50.5396 14.9417 50.5396H15.9506C16.0175 50.5396 16.0816 50.5132 16.1289 50.4662C16.1762 50.4192 16.2028 50.3555 16.2028 50.2891C16.2028 50.2227 16.1762 50.1589 16.1289 50.112C16.0816 50.065 16.0175 50.0386 15.9506 50.0386H14.9417C14.8748 50.0386 14.8107 50.0122 14.7634 49.9652C14.7161 49.9183 14.6895 49.8545 14.6895 49.7881C14.6895 49.7217 14.7161 49.658 14.7634 49.611C14.8107 49.564 14.8748 49.5376 14.9417 49.5376Z" fill="white"/>
<path d="M15.5723 47.5337C15.7855 47.5336 15.9933 47.4665 16.1657 47.3418C16.3382 47.2171 16.4664 47.0414 16.5319 46.8398C16.5616 46.7504 16.6189 46.6725 16.6956 46.6172C16.7723 46.5619 16.8646 46.532 16.9595 46.5317H19.2117C19.1511 46.9491 18.941 47.3308 18.62 47.6069C18.2989 47.8829 17.8885 48.0348 17.4639 48.0347C17.397 48.0347 17.3328 48.0611 17.2855 48.108C17.2382 48.155 17.2117 48.2187 17.2117 48.2852C17.2117 48.3516 17.2382 48.4153 17.2855 48.4623C17.3328 48.5093 17.397 48.5357 17.4639 48.5357C18.0659 48.5357 18.6433 48.2981 19.069 47.8754C19.4947 47.4526 19.7338 46.8792 19.7338 46.2813C19.7338 46.2148 19.7073 46.1511 19.66 46.1041C19.6127 46.0572 19.5485 46.0308 19.4816 46.0308H16.9595C16.7462 46.0308 16.5384 46.098 16.366 46.2227C16.1936 46.3473 16.0654 46.5231 15.9998 46.7246C15.9701 46.8141 15.9129 46.8919 15.8361 46.9472C15.7594 47.0025 15.6671 47.0325 15.5723 47.0327H15.0678C14.973 47.0325 14.8807 47.0025 14.804 46.9472C14.7272 46.8919 14.67 46.8141 14.6403 46.7246C14.5747 46.5231 14.4465 46.3473 14.2741 46.2227C14.1017 46.098 13.8939 46.0308 13.6806 46.0308H11.1585C11.0916 46.0308 11.0274 46.0572 10.9801 46.1041C10.9328 46.1511 10.9062 46.2148 10.9062 46.2813C10.9063 46.8792 11.1454 47.4526 11.5711 47.8754C11.9968 48.2981 12.5742 48.5357 13.1762 48.5357C13.2431 48.5357 13.3072 48.5093 13.3545 48.4623C13.4018 48.4153 13.4284 48.3516 13.4284 48.2852C13.4284 48.2187 13.4018 48.155 13.3545 48.108C13.3072 48.0611 13.2431 48.0347 13.1762 48.0347C12.7516 48.0348 12.3411 47.8829 12.0201 47.6069C11.6991 47.3308 11.489 46.9491 11.4283 46.5317H13.6806C13.7754 46.532 13.8678 46.5619 13.9445 46.6172C14.0212 46.6725 14.0785 46.7504 14.1081 46.8398C14.1737 47.0414 14.3019 47.2171 14.4744 47.3418C14.6468 47.4665 14.8546 47.5336 15.0678 47.5337H15.5723Z" fill="white"/>
<path d="M15.32 51.792C15.2532 51.792 15.189 51.7656 15.1417 51.7187C15.0944 51.6717 15.0678 51.608 15.0678 51.5415V45.5298C15.0678 45.4634 15.0944 45.3996 15.1417 45.3527C15.189 45.3057 15.2532 45.2793 15.32 45.2793C15.3869 45.2793 15.4511 45.3057 15.4984 45.3527C15.5457 45.3996 15.5723 45.4634 15.5723 45.5298V51.5415C15.5723 51.608 15.5457 51.6717 15.4984 51.7187C15.4511 51.7656 15.3869 51.792 15.32 51.792Z" fill="white"/>
<path d="M15.32 45.5298C15.1953 45.5298 15.0734 45.4931 14.9697 45.4243C14.866 45.3554 14.7852 45.2576 14.7375 45.1432C14.6898 45.0288 14.6773 44.9029 14.7016 44.7814C14.7259 44.6599 14.786 44.5483 14.8742 44.4608C14.9624 44.3732 15.0747 44.3135 15.197 44.2894C15.3193 44.2652 15.4461 44.2776 15.5613 44.325C15.6766 44.3724 15.775 44.4527 15.8443 44.5557C15.9136 44.6586 15.9506 44.7797 15.9506 44.9036C15.9506 45.0697 15.8842 45.2289 15.7659 45.3464C15.6477 45.4638 15.4873 45.5298 15.32 45.5298ZM15.32 44.6352C15.2666 44.6352 15.2144 44.6509 15.1699 44.6804C15.1255 44.7099 15.0908 44.7518 15.0704 44.8009C15.0499 44.8499 15.0446 44.9039 15.055 44.9559C15.0654 45.008 15.0912 45.0558 15.129 45.0933C15.1668 45.1309 15.2149 45.1564 15.2673 45.1668C15.3197 45.1771 15.3741 45.1718 15.4235 45.1515C15.4728 45.1312 15.515 45.0968 15.5447 45.0527C15.5744 45.0085 15.5903 44.9566 15.5903 44.9036C15.5903 44.8324 15.5618 44.7641 15.5111 44.7138C15.4604 44.6635 15.3917 44.6352 15.32 44.6352Z" fill="white"/>
</g>
<defs>
<filter id="filter0_d_14704_131500" x="9.72573" y="4.37068" width="44.78" height="59.6618" filterUnits="userSpaceOnUse" color-interpolation-filters="sRGB">
<feFlood flood-opacity="0" result="BackgroundImageFix"/>
<feColorMatrix in="SourceAlpha" type="matrix" values="0 0 0 0 0 0 0 0 0 0 0 0 0 0 0 0 0 0 127 0" result="hardAlpha"/>
<feOffset dy="2.64104"/>
<feGaussianBlur stdDeviation="2.64104"/>
<feColorMatrix type="matrix" values="0 0 0 0 0.0470588 0 0 0 0 0.254902 0 0 0 0 0.603922 0 0 0 0.1 0"/>
<feBlend mode="normal" in2="BackgroundImageFix" result="effect1_dropShadow_14704_131500"/>
<feBlend mode="normal" in="SourceGraphic" in2="effect1_dropShadow_14704_131500" result="shape"/>
</filter>
<clipPath id="clip0_14704_131500">
<rect width="64" height="64" fill="white"/>
</clipPath>
</defs>
</svg>
