<svg width="200" height="200" viewBox="0 0 200 200" fill="none" xmlns="http://www.w3.org/2000/svg">
<path d="M42.3915 88.3549C59.1235 76.8538 79.7761 69.5234 99.6854 67.5971C138.795 63.8154 174.965 94.4698 180.566 133.803C183.2 152.309 176.992 172.638 161.626 183.809C150.256 192.077 136.136 191.998 123.615 186.943C113.054 182.68 104.338 175.065 94.2186 169.98C78.7477 162.204 61.992 163.133 45.7955 158.452C36.9163 155.887 27.1325 150.465 22.5997 141.908C18.2959 133.785 17.9981 123.641 20.9243 114.912C24.6171 103.894 32.8696 94.8995 42.3915 88.3549Z" fill="#A0B2EC" fill-opacity="0.16"/>
<path fill-rule="evenodd" clip-rule="evenodd" d="M66.4634 89.3711C61.4046 66.403 48.3489 39.6078 64.248 22.3375C80.7043 4.46189 110.601 8.01256 133.178 16.9019C151.511 24.1197 159.148 44.0342 166.219 62.4857C171.906 77.3247 173.263 92.7879 168.007 107.782C162.162 124.455 153.469 142.122 136.568 147.071C119.438 152.087 102.016 142.507 88.2132 131.147C75.4791 120.666 70.0183 105.512 66.4634 89.3711Z" fill="#A0B2EC" fill-opacity="0.16"/>
<path fill-rule="evenodd" clip-rule="evenodd" d="M104.309 123.603C104.023 123.394 103.818 123.086 103.773 122.734L100.889 100.264C100.713 98.8876 98.7178 98.8928 98.5484 100.27L95.7676 122.879C95.7256 123.22 95.5336 123.522 95.2618 123.733C93.4841 125.111 92.3398 127.266 92.3398 129.69C92.3398 133.849 95.7119 137.221 99.8715 137.221C104.031 137.221 107.403 133.849 107.403 129.69C107.403 127.189 106.185 124.973 104.309 123.603Z" fill="#26293A"/>
<mask id="mask0_3194_67868" style="mask-type:alpha" maskUnits="userSpaceOnUse" x="92" y="99" width="16" height="39">
<path fill-rule="evenodd" clip-rule="evenodd" d="M95.4334 123.58C95.7197 123.371 95.9239 123.062 95.969 122.711L98.8529 100.24C99.0295 98.8641 101.024 98.8694 101.194 100.247L103.975 122.856C104.017 123.197 104.209 123.499 104.48 123.709C106.258 125.087 107.402 127.243 107.402 129.666C107.402 133.826 104.03 137.198 99.8707 137.198C95.711 137.198 92.339 133.826 92.339 129.666C92.339 127.166 93.5576 124.95 95.4334 123.58Z" fill="black"/>
</mask>
<g mask="url(#mask0_3194_67868)">
<rect width="7.53169" height="45.1901" transform="matrix(-1 0 0 1 107.402 94.5391)" fill="black" fill-opacity="0.2"/>
<circle cx="99.8664" cy="129.687" r="3.68667" fill="white"/>
</g>
<path d="M38.232 144.65C35.5051 145.518 32.5712 144.013 31.9077 141.23C29.7594 132.217 29.4177 122.85 30.9224 113.672C32.7071 102.788 37.0388 92.4787 43.5643 83.5859L70.3457 103.238C66.9169 107.911 64.6407 113.328 63.703 119.047C63.0456 123.057 63.0589 127.135 63.7309 131.118C64.207 133.94 62.7388 136.853 60.0118 137.721L38.232 144.65Z" fill="#07CBA2"/>
<path d="M43.4102 83.795C49.903 74.8783 58.4111 67.6222 68.2408 62.6182C78.0705 57.6141 88.9437 55.0038 99.9738 55L99.9853 88.2183C94.1894 88.2203 88.476 89.5919 83.3109 92.2213C78.1459 94.8507 73.6752 98.6635 70.2635 103.349L43.4102 83.795Z" fill="#F0B323"/>
<path d="M99.9062 55.0001C110.936 54.9851 121.814 57.5769 131.652 62.5643C141.49 67.5516 150.011 74.7933 156.519 83.6989L129.699 103.298C126.279 98.6188 121.802 94.8136 116.632 92.193C111.463 89.5723 105.747 88.2104 99.9513 88.2183L99.9062 55.0001Z" fill="#E47343"/>
<path d="M156.523 83.707C163.029 92.6138 167.339 102.932 169.1 113.821C170.585 123.001 170.223 132.367 168.056 141.376C167.386 144.158 164.449 145.656 161.724 144.782L139.959 137.807C137.234 136.933 135.772 134.017 136.254 131.196C136.935 127.214 136.957 123.136 136.308 119.125C135.383 113.404 133.118 107.982 129.699 103.302L156.523 83.707Z" fill="#C74E5A"/>
</svg>
