<svg viewBox="0 0 280 280" fill="none" xmlns="http://www.w3.org/2000/svg">
<path d="M49.8303 141.335C71.6339 118.861 100.633 101.502 130.15 92.5392C188.133 74.9369 252.138 110.294 272.558 168.063C282.165 195.243 278.956 227.867 259.118 249.427C244.439 265.384 223.066 269.554 202.597 265.717C185.334 262.48 169.842 253.615 152.996 249.001C127.242 241.946 102.189 248.442 76.2783 246.287C62.0734 245.106 45.633 239.882 36.1791 228.321C27.2036 217.347 23.6707 202.1 25.4424 188.012C27.6779 170.231 37.4222 154.124 49.8303 141.335Z" fill="#A0B2EC" fill-opacity="0.16"/>
<path fill-rule="evenodd" clip-rule="evenodd" d="M172.468 167.17C151.233 196.574 133.805 239.111 97.6065 238.549C60.1396 237.967 33.5278 199.919 20.5743 164.811C10.0565 136.304 25.1309 107.068 39.1026 79.9858C50.339 58.2053 66.739 40.7662 89.3904 31.4182C114.577 21.024 143.832 12.8865 166.881 27.2533C190.242 41.8148 197.107 71.6989 198.207 99.247C199.222 124.662 187.391 146.506 172.468 167.17Z" fill="#A0B2EC" fill-opacity="0.16"/>
<path d="M55.9417 227.126C55.943 227.128 66.1811 243.556 66.1811 243.556C66.1811 243.556 60.986 249.063 56.5065 251.185C52.0271 253.307 43.025 257.015 36.9201 250.281C33.0538 246.017 35.2968 240.267 38.5272 236.388C40.4984 234.02 43.4815 232.347 46.1568 230.882C47.0594 230.388 55.3861 226.235 55.9417 227.126Z" fill="#26293A"/>
<path d="M61.1575 224.29L70.9139 241.789C70.9139 241.789 97.3588 232.635 105.251 223.492C109.633 218.415 114.329 213.07 116.402 206.562C118.092 201.255 118.39 194.629 113.482 190.988C109.073 187.717 104.023 188.208 99.1193 189.842C94.2156 191.477 87.1899 194.08 80.1302 199.747C73.0705 205.414 70.3982 213.58 68.311 216.636C66.2234 219.692 63.5322 222.418 62.4649 223.31C61.3977 224.201 61.1575 224.29 61.1575 224.29Z" fill="#26293A"/>
<path d="M166.673 130.337C166.674 130.339 174.929 147.848 174.929 147.848C174.929 147.848 169.127 152.712 164.431 154.298C159.735 155.883 150.362 158.517 145.083 151.118C141.74 146.432 144.638 140.983 148.298 137.507C150.532 135.385 153.69 134.07 156.517 132.928C157.471 132.542 166.225 129.387 166.673 130.337Z" fill="#26293A"/>
<path d="M172.181 128.128L179.832 146.644C179.832 146.644 207.163 140.634 216.067 132.473C221.011 127.941 226.298 123.179 229.115 116.957C231.412 111.883 232.479 105.337 228.029 101.149C224.032 97.3866 218.959 97.2859 213.898 98.3379C208.837 99.3899 201.556 101.156 193.884 105.962C186.212 110.768 182.607 118.567 180.178 121.359C177.748 124.151 174.758 126.545 173.594 127.307C172.43 128.068 172.181 128.128 172.181 128.128Z" fill="#26293A"/>
<path d="M71.0209 163.672C71.019 163.67 55.0471 152.734 55.0471 152.734C55.0471 152.734 49.3221 157.687 47.009 162.071C44.6959 166.455 40.6034 175.289 47.0679 181.678C51.1618 185.724 57.0027 183.731 61.0176 180.671C63.4677 178.803 65.2684 175.895 66.8465 173.285C67.3791 172.405 71.8874 164.265 71.0209 163.672Z" fill="#26293A"/>
<path d="M74.0784 158.584L57.0161 148.083C57.0161 148.083 67.3008 122.057 76.7757 114.566C82.0363 110.407 87.579 105.946 94.1702 104.155C99.5453 102.695 106.178 102.683 109.604 107.743C112.682 112.289 111.974 117.313 110.13 122.142C108.286 126.971 105.382 133.878 99.4164 140.687C93.4504 147.496 85.1768 149.814 82.0338 151.767C78.8911 153.721 76.051 156.292 75.1142 157.32C74.1775 158.348 74.0784 158.584 74.0784 158.584Z" fill="#26293A"/>
<path d="M184.532 59.324C184.531 59.322 173.328 43.5362 173.328 43.5362C173.328 43.5362 166.243 46.2032 162.556 49.5163C158.87 52.8295 151.974 59.7025 155.829 67.9335C158.271 73.1462 164.441 73.2965 169.266 71.8138C172.211 70.9092 174.907 68.8034 177.29 66.9006C178.094 66.2587 185.14 60.1806 184.532 59.324Z" fill="#26293A"/>
<path d="M189.161 55.6086L176.784 39.8537C176.784 39.8537 195.436 18.9917 206.918 15.2405C213.292 13.1578 220.036 10.889 226.84 11.489C232.388 11.9784 238.615 14.2613 240.08 20.1942C241.395 25.5239 238.993 29.993 235.592 33.8858C232.192 37.7786 227.079 43.255 219.126 47.58C211.173 51.9051 202.608 51.2182 198.983 51.9641C195.359 52.7104 191.804 54.1405 190.57 54.7809C189.336 55.4212 189.161 55.6086 189.161 55.6086Z" fill="#26293A"/>
</svg>
