<svg width="17" height="17" viewBox="0 0 17 17" fill="none" xmlns="http://www.w3.org/2000/svg">
<g id="basic / off_time">
<path id="Subtract" fill-rule="evenodd" clip-rule="evenodd" d="M3.89227 13.2153C5.14286 14.4659 6.83948 15.1677 8.60808 15.1661C11.3057 15.1677 13.7384 13.5434 14.771 11.0512C15.8035 8.55903 15.2324 5.6902 13.3241 3.78348C11.4335 1.89474 8.59802 1.31679 6.11898 2.31485C3.63994 3.31291 1.99593 5.69429 1.94141 8.36614V8.49948C1.93982 10.2681 2.64168 11.9647 3.89227 13.2153ZM5.27474 8.74509C5.27474 10.4504 6.70397 11.8328 8.46701 11.8328C10.2292 11.8309 11.6573 10.4496 11.6593 8.74509C11.6593 7.03978 10.2301 5.65737 8.46701 5.65737C6.70397 5.65737 5.27474 7.03978 5.27474 8.74509ZM6.07281 8.74509C6.07281 7.46611 7.14473 6.4293 8.46701 6.4293C9.78866 6.43078 10.8597 7.46673 10.8612 8.74509C10.8612 10.0241 9.7893 11.0609 8.46701 11.0609C7.14473 11.0609 6.07281 10.0241 6.07281 8.74509ZM8.06798 7.20123V9.13105H8.86605V7.20123H8.06798ZM10.5791 5.93024L11.3772 6.70217L11.3776 6.70179L11.9414 6.15642L11.1433 5.38449L10.5791 5.93024ZM7.26991 5.2714H9.66412V4.49947H7.26991V5.2714Z" fill="#F0B323"/>
</g>
</svg>
