<svg width="161" height="161" viewBox="0 0 161 161" fill="none" xmlns="http://www.w3.org/2000/svg">
<path d="M49.7828 153.733C67.0956 159.903 86.8702 161.518 104.739 158.582C139.839 152.811 164.368 117.62 160.132 81.9361C158.138 65.1476 147.983 48.8174 131.942 42.6179C120.072 38.0287 107.735 41.3751 97.9525 48.6996C89.7018 54.8775 83.8445 63.5572 76.171 70.351C64.4398 80.7382 49.5623 83.8153 36.4773 91.6657C29.3037 95.9691 22.0021 102.979 20.0236 111.511C18.1446 119.611 20.2405 128.548 24.829 135.499C30.6199 144.274 39.9306 150.221 49.7828 153.733Z" fill="#A0B2EC" fill-opacity="0.16"/>
<path fill-rule="evenodd" clip-rule="evenodd" d="M99.305 43.2647C108.751 63.5524 126.421 85.7449 115.207 105.064C103.599 125.061 75.0724 127.931 52.2474 124.332C33.7142 121.411 22.5024 104.491 12.1185 88.8127C3.76763 76.2043 -0.687132 62.123 1.10302 47.1127C3.09352 30.4224 7.52662 12.2211 22.2169 4.13843C37.1061 -4.05375 55.2809 1.24908 70.4587 8.95261C84.4613 16.0597 92.6673 29.0078 99.305 43.2647Z" fill="#A0B2EC" fill-opacity="0.16"/>
<rect x="119.486" y="33.2383" width="108.023" height="77.8624" rx="14.096" transform="rotate(90 119.486 33.2383)" fill="url(#paint0_linear_25980_179965)"/>
<path d="M49.6514 46.7153C49.6514 43.7077 52.0895 41.2695 55.0971 41.2695H106.014C109.022 41.2695 111.46 43.7077 111.46 46.7153V127.784C111.46 130.791 109.022 133.229 106.014 133.229H55.0971C52.0895 133.229 49.6514 130.791 49.6514 127.784V46.7153Z" fill="#F9FAFF"/>
<g filter="url(#filter0_d_25980_179965)">
<path d="M49.6514 46.7153C49.6514 43.7077 52.0895 41.2695 55.0971 41.2695H106.014C109.022 41.2695 111.46 43.7077 111.46 46.7153V126.177C111.46 129.185 109.022 131.623 106.014 131.623H55.0971C52.0895 131.623 49.6514 129.185 49.6514 126.177V46.7153Z" fill="white"/>
</g>
<g filter="url(#filter1_d_25980_179965)">
<path d="M49.6514 46.7153C49.6514 43.7077 52.0895 41.2695 55.0971 41.2695H106.014C109.022 41.2695 111.46 43.7077 111.46 46.7153V124.571C111.46 127.579 109.022 130.017 106.014 130.017H55.0971C52.0895 130.017 49.6514 127.579 49.6514 124.571L49.6514 46.7153Z" fill="white"/>
</g>
<g filter="url(#filter2_d_25980_179965)">
<path d="M49.6514 46.7153C49.6514 43.7077 52.0895 41.2695 55.0971 41.2695H106.014C109.022 41.2695 111.46 43.7077 111.46 46.7153V122.965C111.46 125.972 109.022 128.41 106.014 128.41H55.0971C52.0895 128.41 49.6514 125.972 49.6514 122.965V46.7153Z" fill="white"/>
</g>
<g filter="url(#filter3_d_25980_179965)">
<path d="M49.6514 46.7153C49.6514 43.7077 52.0895 41.2695 55.0971 41.2695H106.014C109.022 41.2695 111.46 43.7077 111.46 46.7153V121.358C111.46 124.366 109.022 126.804 106.014 126.804H55.0971C52.0895 126.804 49.6514 124.366 49.6514 121.358V46.7153Z" fill="white"/>
</g>
<rect x="80.5557" y="51.707" width="22.8771" height="3.21257" rx="1.60628" fill="#F0B323"/>
<rect x="58.3585" y="86.1221" width="29.5427" height="1.85114" rx="0.92557" fill="#A0B2EC" stroke="#A0B2EC" stroke-width="1.36143"/>
<rect x="58.3585" y="78.8917" width="44.3928" height="1.85113" rx="0.925566" fill="#A0B2EC" stroke="#A0B2EC" stroke-width="1.36143"/>
<rect x="58.3585" y="71.6651" width="44.3928" height="1.85113" rx="0.925566" fill="#A0B2EC" stroke="#A0B2EC" stroke-width="1.36143"/>
<rect x="81.2364" y="58.4151" width="21.5157" height="1.85113" rx="0.925566" fill="#A0B2EC" stroke="#A0B2EC" stroke-width="1.36143"/>
<rect x="81.2364" y="64.4385" width="21.5157" height="1.85113" rx="0.925566" fill="#A0B2EC" stroke="#A0B2EC" stroke-width="1.36143"/>
<rect x="71.2022" y="95.3565" width="31.5495" height="1.85113" rx="0.925566" fill="#A0B2EC" stroke="#A0B2EC" stroke-width="1.36143"/>
<rect x="71.2022" y="112.626" width="31.5495" height="1.85113" rx="0.925566" fill="#A0B2EC" stroke="#A0B2EC" stroke-width="1.36143"/>
<rect x="71.2022" y="101.38" width="21.5157" height="1.85113" rx="0.925566" fill="#A0B2EC" stroke="#A0B2EC" stroke-width="1.36143"/>
<rect x="71.2022" y="118.649" width="21.5157" height="1.85113" rx="0.925566" fill="#A0B2EC" stroke="#A0B2EC" stroke-width="1.36143"/>
<ellipse cx="65.3034" cy="59.3369" rx="7.62571" ry="7.62985" fill="#F9FAFF"/>
<g clip-path="url(#clip0_25980_179965)">
<path d="M62.1404 56.7948C62.1404 57.5816 62.7777 58.2192 63.5637 58.2193C64.3494 58.2182 64.9864 57.5811 64.9874 56.7945L62.1404 56.7948ZM62.1404 56.7948C62.1404 56.008 62.7779 55.3704 63.5639 55.3704M62.1404 56.7948L63.5639 55.3704M63.5639 55.3704C64.3498 55.3704 64.9872 56.0078 64.9874 56.7944L63.5639 55.3704ZM66.7463 57.5375L66.9149 57.3689L67.6886 58.143L67.9119 58.3664L68.1352 58.143L68.9089 57.3689L69.0773 57.5374L68.3034 58.3118L68.0803 58.535L68.3034 58.7581L69.0773 59.5325L68.9092 59.7007L68.1351 58.9265L67.9118 58.7031L67.6886 58.9265L66.9149 59.7006L66.7464 59.5321L67.5199 58.7581L67.7429 58.535L67.52 58.3119L66.7463 57.5375ZM63.5639 55.6091L63.5636 55.6091C62.9159 55.6097 62.3889 56.1303 62.3796 56.7778C62.3703 57.4254 62.8822 57.9608 63.5296 57.9801C64.1226 57.9977 64.6278 57.5762 64.7309 57.008H64.7492V56.834V56.7948C64.7492 56.1401 64.2187 55.6091 63.5639 55.6091ZM61.5331 61.2645H61.2923C61.446 60.1466 62.4046 59.2857 63.5639 59.2857C64.7231 59.2857 65.6817 60.1466 65.8355 61.2645H65.5947C65.4429 60.2791 64.5916 59.5244 63.5639 59.5244C62.5362 59.5244 61.6849 60.2791 61.5331 61.2645Z" fill="#A0B2EC" stroke="#A0B2EC" stroke-width="0.631381"/>
</g>
<rect x="57.6777" y="94.6758" width="9.23112" height="9.23613" rx="2.52553" fill="#F9FAFF"/>
<path d="M65.0207 96.5684C64.8644 96.412 64.6108 96.412 64.4545 96.5684L62.494 98.5299L60.5336 96.5684C60.3773 96.412 60.1237 96.412 59.9674 96.5684C59.8112 96.7247 59.8112 96.978 59.9674 97.1343L61.9281 99.0962L59.9674 101.058C59.8112 101.214 59.8112 101.468 59.9674 101.624C60.1237 101.78 60.3773 101.78 60.5336 101.624L62.494 99.6624L64.4545 101.624C64.6108 101.78 64.8644 101.78 65.0207 101.624C65.1769 101.468 65.1769 101.214 65.0207 101.058L63.0599 99.0962L65.0207 97.1343C65.1769 96.978 65.1769 96.7247 65.0207 96.5684Z" fill="#F0B323"/>
<rect x="57.6777" y="111.945" width="9.23112" height="9.23614" rx="2.52553" fill="#F9FAFF"/>
<path d="M65.0207 113.834C64.8644 113.678 64.6108 113.678 64.4545 113.834L62.494 115.796L60.5336 113.834C60.3773 113.678 60.1237 113.678 59.9674 113.834C59.8112 113.99 59.8112 114.244 59.9674 114.4L61.9281 116.362L59.9674 118.324C59.8112 118.48 59.8112 118.733 59.9674 118.89C60.1237 119.046 60.3773 119.046 60.5336 118.89L62.494 116.928L64.4545 118.89C64.6108 119.046 64.8644 119.046 65.0207 118.89C65.1769 118.733 65.1769 118.48 65.0207 118.324L63.0599 116.362L65.0207 114.4C65.1769 114.244 65.1769 113.99 65.0207 113.834Z" fill="#F0B323"/>
<path fill-rule="evenodd" clip-rule="evenodd" d="M85.6154 31.2274C86.989 29.9116 87.8444 28.0586 87.8444 26.0056C87.8444 22.0136 84.6099 18.7773 80.62 18.7773C76.6301 18.7773 73.3957 22.0136 73.3957 26.0056C73.3957 28.0586 74.251 29.9116 75.6246 31.2274H66.4596C65.4135 31.2274 64.5654 32.0755 64.5654 33.1216V41.782C64.5654 42.8281 65.4135 43.6761 66.4596 43.6761H94.7795C95.8256 43.6761 96.6737 42.8281 96.6737 41.782V33.1216C96.6737 32.0755 95.8256 31.2274 94.7795 31.2274H85.6154ZM85.8376 26.0056C85.8376 28.8888 83.5016 31.226 80.62 31.226C77.7384 31.226 75.4025 28.8888 75.4025 26.0056C75.4025 23.1225 77.7384 20.7852 80.62 20.7852C83.5016 20.7852 85.8376 23.1225 85.8376 26.0056Z" fill="#A0B2EC"/>
<path opacity="0.5" d="M96.2725 41.4704V37.2539C95.5642 43.0365 89.4849 43.2775 86.2386 43.2775H94.5018C95.9183 43.2775 96.2725 42.0728 96.2725 41.4704Z" fill="white"/>
<path opacity="0.5" d="M64.9678 41.4704V37.2539C65.676 43.0365 71.7554 43.2775 75.0016 43.2775H66.7384C65.3219 43.2775 64.9678 42.0728 64.9678 41.4704Z" fill="white"/>
<rect x="64.3166" y="67.9181" width="32.4794" height="32.4952" rx="16.2397" fill="#F0B323"/>
<path d="M77.6108 87.8631V86.7376C77.6108 85.7641 77.8215 84.9175 78.243 84.1975C78.6645 83.4776 79.4355 82.712 80.5561 81.9008C81.6355 81.1403 82.3449 80.5218 82.6841 80.0452C83.0337 79.5686 83.2084 79.0363 83.2084 78.4482C83.2084 77.7891 82.9617 77.2871 82.4682 76.9424C81.9748 76.5976 81.286 76.4252 80.4019 76.4252C78.8599 76.4252 77.1019 76.9221 75.1281 77.9158L73.4473 74.5848C75.7398 73.3173 78.1711 72.6836 80.7411 72.6836C82.8589 72.6836 84.5397 73.1855 85.7836 74.1894C87.0378 75.1932 87.6649 76.5317 87.6649 78.2048C87.6649 79.3202 87.4079 80.2835 86.8939 81.0947C86.3799 81.9059 85.4033 82.8185 83.964 83.8325C82.9771 84.5524 82.35 85.1 82.0827 85.4752C81.8257 85.8503 81.6972 86.3421 81.6972 86.9505V87.8631H77.6108ZM77.1173 93.0649C77.1173 92.2132 77.3486 91.5693 77.8113 91.1333C78.2739 90.6972 78.9472 90.4792 79.8313 90.4792C80.6846 90.4792 81.3425 90.7023 81.8052 91.1485C82.2781 91.5946 82.5145 92.2334 82.5145 93.0649C82.5145 93.866 82.2781 94.4997 81.8052 94.9662C81.3323 95.4225 80.6743 95.6506 79.8313 95.6506C78.9678 95.6506 78.2996 95.4275 77.8267 94.9814C77.3538 94.5251 77.1173 93.8863 77.1173 93.0649Z" fill="white"/>
<rect x="64.3166" y="67.9181" width="32.4794" height="32.4952" rx="16.2397" stroke="white" stroke-width="3.28093"/>
<defs>
<filter id="filter0_d_25980_179965" x="49.6514" y="41.2695" width="61.8086" height="91.6143" filterUnits="userSpaceOnUse" color-interpolation-filters="sRGB">
<feFlood flood-opacity="0" result="BackgroundImageFix"/>
<feColorMatrix in="SourceAlpha" type="matrix" values="0 0 0 0 0 0 0 0 0 0 0 0 0 0 0 0 0 0 127 0" result="hardAlpha"/>
<feOffset dy="1.26276"/>
<feColorMatrix type="matrix" values="0 0 0 0 0.0470588 0 0 0 0 0.254902 0 0 0 0 0.603922 0 0 0 0.1 0"/>
<feBlend mode="normal" in2="BackgroundImageFix" result="effect1_dropShadow_25980_179965"/>
<feBlend mode="normal" in="SourceGraphic" in2="effect1_dropShadow_25980_179965" result="shape"/>
</filter>
<filter id="filter1_d_25980_179965" x="49.6514" y="41.2695" width="61.8086" height="90.0089" filterUnits="userSpaceOnUse" color-interpolation-filters="sRGB">
<feFlood flood-opacity="0" result="BackgroundImageFix"/>
<feColorMatrix in="SourceAlpha" type="matrix" values="0 0 0 0 0 0 0 0 0 0 0 0 0 0 0 0 0 0 127 0" result="hardAlpha"/>
<feOffset dy="1.26276"/>
<feColorMatrix type="matrix" values="0 0 0 0 0.0470588 0 0 0 0 0.254902 0 0 0 0 0.603922 0 0 0 0.1 0"/>
<feBlend mode="normal" in2="BackgroundImageFix" result="effect1_dropShadow_25980_179965"/>
<feBlend mode="normal" in="SourceGraphic" in2="effect1_dropShadow_25980_179965" result="shape"/>
</filter>
<filter id="filter2_d_25980_179965" x="49.6514" y="41.2695" width="61.8086" height="88.4034" filterUnits="userSpaceOnUse" color-interpolation-filters="sRGB">
<feFlood flood-opacity="0" result="BackgroundImageFix"/>
<feColorMatrix in="SourceAlpha" type="matrix" values="0 0 0 0 0 0 0 0 0 0 0 0 0 0 0 0 0 0 127 0" result="hardAlpha"/>
<feOffset dy="1.26276"/>
<feColorMatrix type="matrix" values="0 0 0 0 0.0470588 0 0 0 0 0.254902 0 0 0 0 0.603922 0 0 0 0.1 0"/>
<feBlend mode="normal" in2="BackgroundImageFix" result="effect1_dropShadow_25980_179965"/>
<feBlend mode="normal" in="SourceGraphic" in2="effect1_dropShadow_25980_179965" result="shape"/>
</filter>
<filter id="filter3_d_25980_179965" x="49.6514" y="41.2695" width="61.8086" height="86.7979" filterUnits="userSpaceOnUse" color-interpolation-filters="sRGB">
<feFlood flood-opacity="0" result="BackgroundImageFix"/>
<feColorMatrix in="SourceAlpha" type="matrix" values="0 0 0 0 0 0 0 0 0 0 0 0 0 0 0 0 0 0 127 0" result="hardAlpha"/>
<feOffset dy="1.26276"/>
<feColorMatrix type="matrix" values="0 0 0 0 0.0470588 0 0 0 0 0.254902 0 0 0 0 0.603922 0 0 0 0.1 0"/>
<feBlend mode="normal" in2="BackgroundImageFix" result="effect1_dropShadow_25980_179965"/>
<feBlend mode="normal" in="SourceGraphic" in2="effect1_dropShadow_25980_179965" result="shape"/>
</filter>
<linearGradient id="paint0_linear_25980_179965" x1="119.486" y1="33.2383" x2="228.505" y2="36.2632" gradientUnits="userSpaceOnUse">
<stop stop-color="#0C419A"/>
<stop offset="1" stop-color="#1058D1"/>
</linearGradient>
<clipPath id="clip0_25980_179965">
<rect width="10.4352" height="10.4408" fill="white" transform="translate(60.0859 53.3164)"/>
</clipPath>
</defs>
</svg>
