<svg width="160" height="160" viewBox="0 0 160 160" fill="none" xmlns="http://www.w3.org/2000/svg">
<g clip-path="url(#clip0_13739_83350)">
<path d="M147.2 89.7523C138.465 105.424 124.99 119.333 109.982 128.67C80.5011 147.012 39.8334 136.934 19.9643 107.99C10.6167 94.3712 7.55468 75.8392 15.3367 60.9647C21.0947 49.9562 32.3055 44.4783 44.2031 43.5665C54.2379 42.7979 64.1269 45.4073 74.1345 45.4625C89.4348 45.5477 102.337 38.2374 116.998 35.5875C125.035 34.1345 134.908 34.5879 141.855 39.5843C148.45 44.3266 152.667 52.2415 153.775 60.3014C155.175 70.474 152.171 80.834 147.2 89.7523Z" fill="#A0B2EC" fill-opacity="0.16"/>
<path fill-rule="evenodd" clip-rule="evenodd" d="M37.537 84.3668C33.0668 64.0705 21.5298 40.3924 35.5793 25.1311C50.1213 9.33489 76.5401 12.4725 96.4913 20.3277C112.691 26.7059 119.44 44.3039 125.688 60.6089C130.713 73.7218 131.913 87.3861 127.268 100.636C122.103 115.37 114.422 130.981 99.4869 135.355C84.3496 139.787 68.954 131.322 56.7567 121.283C45.5039 112.021 40.6784 98.6296 37.537 84.3668Z" fill="#A0B2EC" fill-opacity="0.16"/>
<path d="M17.4906 58.1368C16.635 54.0157 19.2823 49.9812 23.4034 49.1256L108.444 31.4697C112.566 30.6141 116.6 33.2613 117.456 37.3825L126.68 81.8126C127.536 85.9338 124.888 89.9683 120.767 90.8239L35.7263 108.48C31.6052 109.335 27.5707 106.688 26.7151 102.567L17.4906 58.1368Z" fill="#1E7B6F"/>
<mask id="mask0_13739_83350" style="mask-type:alpha" maskUnits="userSpaceOnUse" x="17" y="31" width="110" height="78">
<path d="M17.4867 58.1368C16.6311 54.0157 19.2784 49.9812 23.3995 49.1256L108.44 31.4697C112.562 30.6141 116.596 33.2613 117.452 37.3825L126.676 81.8126C127.532 85.9338 124.884 89.9683 120.763 90.8239L35.7224 108.48C31.6012 109.335 27.5668 106.688 26.7112 102.567L17.4867 58.1368Z" fill="#1E7B6F"/>
</mask>
<g mask="url(#mask0_13739_83350)">
<path d="M62.0765 103.883L16.6758 57.2012L27.8432 110.99L62.0765 103.883Z" fill="#F0B323"/>
</g>
<path d="M30.4696 54.5917L32.267 54.2186L31.1561 63.2066L29.2151 63.6096L24.6238 55.8054L26.4212 55.4322L29.0376 60.1003C29.1869 60.3768 29.3484 60.7027 29.5221 61.0779C29.6989 61.4486 29.8147 61.7081 29.8694 61.8564C29.8384 61.4955 29.854 60.8493 29.9162 59.9179L30.4696 54.5917Z" fill="white"/>
<path d="M33.1825 54.3579C33.064 53.7875 33.3226 53.4363 33.9581 53.3044C34.5936 53.1725 34.9705 53.3917 35.089 53.9621C35.1454 54.2339 35.1091 54.4631 34.9801 54.6496C34.8542 54.8315 34.6323 54.9554 34.3146 55.0214C33.6791 55.1533 33.3017 54.9322 33.1825 54.3579ZM36.6861 62.0585L34.9346 62.4221L33.6017 56.002L35.3531 55.6384L36.6861 62.0585Z" fill="white"/>
<path d="M40.9682 59.8337C41.2745 59.7701 41.6281 59.6268 42.029 59.4038L42.2997 60.7073C41.9038 60.9932 41.3881 61.2021 40.7526 61.334C40.052 61.4794 39.5044 61.4095 39.1097 61.124C38.718 60.8339 38.4486 60.3348 38.3016 59.6266L37.659 56.5314L36.8206 56.7054L36.6668 55.9647L37.5099 55.1786L37.7339 53.7185L38.8537 53.486L39.1374 54.8527L40.9348 54.4795L41.2078 55.7946L39.4104 56.1677L40.0531 59.2629C40.1047 59.5118 40.2118 59.6812 40.3742 59.7713C40.5405 59.8606 40.7385 59.8813 40.9682 59.8337Z" fill="white"/>
<path d="M47.7173 59.7682L47.1973 58.9657L47.1514 58.9752C46.9337 59.4078 46.683 59.7294 46.3993 59.94C46.1186 60.146 45.7275 60.3011 45.226 60.4052C44.6096 60.5332 44.0869 60.4581 43.6577 60.1798C43.2324 59.9007 42.9522 59.4357 42.817 58.7849C42.6756 58.1035 42.8088 57.5527 43.2167 57.1326C43.6277 56.7078 44.3101 56.3784 45.2638 56.1445L46.3707 55.8787L46.3123 55.5974C46.1772 54.9465 45.7766 54.6903 45.1104 54.8286C44.5974 54.9351 44.0267 55.2153 43.3981 55.6693L42.5725 54.6067C43.2311 54.0667 44.0102 53.7033 44.9099 53.5165C45.7713 53.3376 46.4706 53.3881 47.0079 53.6679C47.5452 53.9477 47.8933 54.4704 48.0523 55.2361L48.9405 59.5143L47.7173 59.7682ZM46.5829 56.9009L45.9101 57.0646C45.4041 57.1856 45.0442 57.3561 44.8303 57.5763C44.6164 57.7964 44.5453 58.0787 44.6168 58.4232C44.7193 58.9171 45.0539 59.1052 45.6205 58.9876C46.0263 58.9033 46.3255 58.7194 46.5182 58.4358C46.7148 58.1514 46.7729 57.8159 46.6926 57.4292L46.5829 56.9009Z" fill="white"/>
<path d="M52.5008 58.7751L50.7494 59.1387L48.8942 50.2034L50.6457 49.8398L52.5008 58.7751Z" fill="white"/>
<path d="M55.9037 52.5458C55.5323 52.6229 55.266 52.802 55.1047 53.0831C54.9427 53.3603 54.8912 53.7184 54.9504 54.1574L57.4082 53.6471C57.3107 53.2161 57.1286 52.9065 56.8619 52.7182C56.5944 52.5262 56.275 52.4687 55.9037 52.5458ZM57.2737 57.9039C56.24 58.1185 55.3731 58.001 54.6727 57.5514C53.9724 57.1018 53.5137 56.3545 53.2967 55.3093C53.0734 54.2336 53.1689 53.3472 53.5833 52.6502C54.0007 51.9486 54.6841 51.4992 55.6335 51.3021C56.5408 51.1137 57.3008 51.2255 57.9134 51.6374C58.526 52.0493 58.9269 52.7108 59.1161 53.6219L59.2926 54.4718L55.1522 55.3314C55.2747 55.8251 55.5028 56.1831 55.8364 56.4053C56.1701 56.6276 56.5858 56.687 57.0834 56.5837C57.4701 56.5034 57.8274 56.3873 58.1552 56.2354C58.4831 56.0835 58.8163 55.8805 59.1549 55.6265L59.4363 56.9817C59.1618 57.1985 58.8579 57.3794 58.5247 57.5244C58.1922 57.6733 57.7752 57.7998 57.2737 57.9039Z" fill="white"/>
<path d="M88.4219 43.1324C88.1522 41.8334 88.9867 40.5616 90.2857 40.2919L104.254 37.3919C105.553 37.1222 106.825 37.9566 107.095 39.2556L110.65 56.3788C110.919 57.6778 110.085 58.9495 108.786 59.2192L94.8174 62.1193C93.5184 62.389 92.2467 61.5546 91.977 60.2555L88.4219 43.1324Z" fill="white"/>
<path d="M96.2961 46.9314C95.9837 45.3476 97.0143 43.8104 98.598 43.498C100.182 43.1855 101.719 44.2161 102.031 45.7999C102.344 47.3837 101.313 48.9209 99.7296 49.2333C98.1458 49.5458 96.6086 48.5152 96.2961 46.9314ZM99.6559 48.86C101.033 48.5882 101.93 47.2511 101.658 45.8735C101.386 44.496 100.049 43.5995 98.6717 43.8713C97.2941 44.1431 96.3977 45.4802 96.6695 46.8578C96.9413 48.2353 98.2783 49.1318 99.6559 48.86ZM96.0547 56.0959C95.9781 54.9998 96.2666 53.9025 96.8849 52.9802C97.6193 51.8848 98.7588 51.126 100.053 50.8707C101.346 50.6155 102.689 50.8846 103.784 51.619C104.706 52.2374 105.39 53.1429 105.735 54.186C105.745 54.2137 105.742 54.2395 105.724 54.2677C105.704 54.2991 105.665 54.3294 105.611 54.3399C105.524 54.3571 105.377 54.3011 105.31 54.1253C104.975 53.2382 104.37 52.4702 103.572 51.9351C102.561 51.2569 101.321 51.0084 100.126 51.2441C98.9315 51.4798 97.8792 52.1805 97.201 53.1921C96.6659 53.9902 96.3983 54.9302 96.425 55.8783C96.4302 56.0662 96.3149 56.1741 96.2279 56.1912C96.1742 56.2018 96.1272 56.1884 96.0966 56.1671C96.0692 56.1479 96.0567 56.125 96.0547 56.0959Z" stroke="#1E7B6F" stroke-width="0.985806"/>
<rect x="47.6055" y="65.418" width="38.1418" height="3.18469" rx="1.59234" transform="rotate(-11.7289 47.6055 65.418)" fill="white"/>
<rect x="51.1602" y="82.5674" width="27.4542" height="3.18469" rx="1.59234" transform="rotate(-11.7289 51.1602 82.5674)" fill="white"/>
<rect x="115.902" y="63.498" width="27.4542" height="3.18469" rx="1.59234" transform="rotate(-101.945 115.902 63.498)" fill="white"/>
<rect x="52.7852" y="90.3643" width="38.6499" height="3.18469" rx="1.59234" transform="rotate(-11.7289 52.7852 90.3643)" fill="white"/>
<path d="M26.3087 72.2925C26.0389 70.9935 26.8734 69.7218 28.1724 69.4521L35.9167 67.8443C37.2157 67.5746 38.4874 68.409 38.7571 69.708L39.7226 74.3584C39.9923 75.6574 39.1579 76.9292 37.8588 77.1989L30.1146 78.8067C28.8156 79.0764 27.5438 78.2419 27.2741 76.9429L26.3087 72.2925Z" fill="#F0B323"/>
<path fill-rule="evenodd" clip-rule="evenodd" d="M36.1608 69.0203L28.4166 70.6282C27.7671 70.763 27.3499 71.3989 27.4847 72.0484L28.4502 76.6987C28.585 77.3483 29.2209 77.7655 29.8704 77.6306L37.6146 76.0228C38.2642 75.8879 38.6814 75.2521 38.5465 74.6026L37.581 69.9522C37.4462 69.3027 36.8103 68.8855 36.1608 69.0203ZM28.1724 69.4521C26.8734 69.7218 26.0389 70.9935 26.3087 72.2925L27.2741 76.9429C27.5438 78.2419 28.8156 79.0764 30.1146 78.8067L37.8588 77.1989C39.1579 76.9292 39.9923 75.6574 39.7226 74.3584L38.7571 69.708C38.4874 68.409 37.2157 67.5746 35.9167 67.8443L28.1724 69.4521Z" fill="white"/>
<g filter="url(#filter0_d_13739_83350)">
<path d="M31.1992 68.9453C31.1992 64.7363 34.6113 61.3242 38.8204 61.3242H125.675C129.884 61.3242 133.296 64.7363 133.296 68.9454V114.323C133.296 118.532 129.884 121.944 125.675 121.944H38.8204C34.6113 121.944 31.1992 118.532 31.1992 114.323V68.9453Z" fill="#D9E7FF"/>
<path d="M38.8204 60.1242C33.9486 60.1242 29.9992 64.0736 29.9992 68.9453V114.323C29.9992 119.195 33.9486 123.144 38.8204 123.144H125.675C130.547 123.144 134.496 119.195 134.496 114.323V68.9454C134.496 64.0736 130.547 60.1242 125.675 60.1242H38.8204Z" stroke="#F9FAFF" stroke-width="2.4"/>
</g>
<path d="M35.7344 83.2425C35.7344 80.9658 37.58 79.1201 39.8568 79.1201H64.3382C66.6149 79.1201 68.4606 80.9658 68.4606 83.2425V113.253C68.4606 115.53 66.6149 117.375 64.3382 117.375H39.8567C37.58 117.375 35.7344 115.53 35.7344 113.253V83.2425Z" fill="white"/>
<path d="M45.8728 92.3143C45.9049 89.0771 48.5552 86.4789 51.7923 86.511C55.0295 86.5431 57.6277 89.1934 57.5956 92.4306C57.5635 95.6677 54.9132 98.266 51.6761 98.2338C48.4389 98.2017 45.8407 95.5515 45.8728 92.3143ZM51.6993 95.8893C53.6416 95.9085 55.2318 94.3496 55.2511 92.4073C55.2703 90.465 53.7114 88.8748 51.7691 88.8556C49.8268 88.8363 48.2366 90.3952 48.2173 92.3375C48.1981 94.2798 49.757 95.87 51.6993 95.8893Z" fill="#495574"/>
<path d="M45.0057 102.087C43.5102 103.553 42.5566 105.469 42.2779 107.523C42.1908 108.164 42.718 108.697 43.3654 108.703C44.0128 108.709 44.533 108.186 44.6467 107.549C44.9019 106.118 45.5961 104.792 46.6472 103.761C47.9793 102.455 49.7757 101.732 51.6412 101.751C53.5066 101.769 55.2883 102.528 56.5943 103.86C57.6247 104.911 58.2924 106.251 58.5192 107.686C58.6203 108.326 59.13 108.859 59.7774 108.866C60.4248 108.872 60.9625 108.351 60.8881 107.707C60.6502 105.649 59.7348 103.714 58.2686 102.219C56.5273 100.443 54.1517 99.4308 51.6644 99.4061C49.1772 99.3815 46.782 100.346 45.0057 102.087Z" fill="#495574"/>
<rect x="74.3984" y="79.3877" width="38.1418" height="3.18469" rx="1.59234" fill="#495574"/>
<rect x="52" y="68.5244" width="40.8" height="3.2" rx="1.6" fill="#0C419A"/>
<rect x="98.3984" y="104.869" width="27.4542" height="3.18469" rx="1.59234" fill="#495574"/>
<rect x="74.3984" y="87.7246" width="50.4" height="3.2" rx="1.6" fill="#495574"/>
<path d="M74.3984 106.309C74.3984 105.43 75.1101 104.718 75.9887 104.716L92.7542 104.694C93.6344 104.693 94.3486 105.407 94.3486 106.287C94.3486 107.165 93.6369 107.878 92.7583 107.879L75.9929 107.901C75.1126 107.902 74.3984 107.189 74.3984 106.309Z" fill="#495574"/>
<rect x="74.3984" y="96.5244" width="51.2" height="3.2" rx="1.6" fill="#495574"/>
<path d="M116.18 67.9238C116.18 66.597 117.255 65.5215 118.582 65.5215H126.491C127.818 65.5215 128.894 66.597 128.894 67.9238V72.6733C128.894 74 127.818 75.0756 126.491 75.0756H118.582C117.255 75.0756 116.18 74 116.18 72.6733V67.9238Z" fill="#0C419A"/>
<path fill-rule="evenodd" clip-rule="evenodd" d="M126.491 66.7226H118.582C117.919 66.7226 117.381 67.2604 117.381 67.9238V72.6733C117.381 73.3367 117.919 73.8744 118.582 73.8744H126.491C127.155 73.8744 127.692 73.3367 127.692 72.6733V67.9238C127.692 67.2604 127.155 66.7226 126.491 66.7226ZM118.582 65.5215C117.255 65.5215 116.18 66.597 116.18 67.9238V72.6733C116.18 74 117.255 75.0756 118.582 75.0756H126.491C127.818 75.0756 128.894 74 128.894 72.6733V67.9238C128.894 66.597 127.818 65.5215 126.491 65.5215H118.582Z" fill="white"/>
<path d="M36 68.4355C36 67.1087 37.0755 66.0332 38.4023 66.0332H46.3116C47.6384 66.0332 48.7139 67.1087 48.7139 68.4355V73.185C48.7139 74.5117 47.6384 75.5873 46.3116 75.5873H38.4023C37.0755 75.5873 36 74.5117 36 73.185V68.4355Z" fill="#0C419A"/>
<path d="M40.6549 67.2194L44.3435 67.1684L44.2854 74.6106L40.5967 74.6616L40.6549 67.2194Z" fill="white"/>
<path d="M44.0918 66.7086L47.7793 66.6567L47.7409 74.4107L44.0534 74.4627L44.0918 66.7086Z" fill="#C7414F"/>
<path fill-rule="evenodd" clip-rule="evenodd" d="M46.3116 67.2343H38.4023C37.7389 67.2343 37.2011 67.7721 37.2011 68.4355V73.185C37.2011 73.8484 37.7389 74.3861 38.4023 74.3861H46.3116C46.975 74.3861 47.5128 73.8484 47.5128 73.185V68.4355C47.5128 67.7721 46.975 67.2343 46.3116 67.2343ZM38.4023 66.0332C37.0755 66.0332 36 67.1087 36 68.4355V73.185C36 74.5117 37.0755 75.5873 38.4023 75.5873H46.3116C47.6384 75.5873 48.7139 74.5117 48.7139 73.185V68.4355C48.7139 67.1087 47.6384 66.0332 46.3116 66.0332H38.4023Z" fill="white"/>
<circle cx="66.3977" cy="87.7248" r="4.8" fill="#298478" fill-opacity="0.5"/>
</g>
<defs>
<filter id="filter0_d_13739_83350" x="19.2008" y="54.1238" width="126.095" height="84.6199" filterUnits="userSpaceOnUse" color-interpolation-filters="sRGB">
<feFlood flood-opacity="0" result="BackgroundImageFix"/>
<feColorMatrix in="SourceAlpha" type="matrix" values="0 0 0 0 0 0 0 0 0 0 0 0 0 0 0 0 0 0 127 0" result="hardAlpha"/>
<feOffset dy="4.8"/>
<feGaussianBlur stdDeviation="4.8"/>
<feComposite in2="hardAlpha" operator="out"/>
<feColorMatrix type="matrix" values="0 0 0 0 0.0470588 0 0 0 0 0.254902 0 0 0 0 0.603922 0 0 0 0.1 0"/>
<feBlend mode="normal" in2="BackgroundImageFix" result="effect1_dropShadow_13739_83350"/>
<feBlend mode="normal" in="SourceGraphic" in2="effect1_dropShadow_13739_83350" result="shape"/>
</filter>
<clipPath id="clip0_13739_83350">
<rect width="160" height="160" fill="white"/>
</clipPath>
</defs>
</svg>
