<svg width="24" height="24" viewBox="0 0 24 24" fill="none" xmlns="http://www.w3.org/2000/svg">
<path d="M3.84075 11.2555L11.2555 3.84075C12.4372 2.66198 14.0383 2 15.7074 2C17.3766 2 18.9776 2.66198 20.1594 3.84075C22.6135 6.29484 22.6135 10.2801 20.1594 12.7447L12.7447 20.1594C10.2801 22.6135 6.29484 22.6135 3.84075 20.1594C2.66198 18.9776 2 17.3766 2 15.7074C2 14.0383 2.66198 12.4372 3.84075 11.2555ZM5.32998 12.7447C4.80691 13.2631 4.43044 13.9107 4.23886 14.6218C4.04728 15.3328 4.04742 16.0819 4.23928 16.7929L10.5213 10.5213L14.9681 14.9681L18.6702 11.2555C19.0614 10.8676 19.372 10.4061 19.5839 9.89759C19.7958 9.38908 19.9049 8.84363 19.9049 8.29273C19.9049 7.74182 19.7958 7.19637 19.5839 6.68786C19.372 6.17935 19.0614 5.71785 18.6702 5.32998C18.2823 4.93876 17.8208 4.62822 17.3123 4.4163C16.8038 4.20438 16.2584 4.09527 15.7074 4.09527C15.1565 4.09527 14.6111 4.20438 14.1026 4.4163C13.5941 4.62822 13.1326 4.93876 12.7447 5.32998L5.32998 12.7447Z" fill="#0C419A"/>
</svg>
