<svg width="200" height="200" viewBox="0 0 200 200" fill="none" xmlns="http://www.w3.org/2000/svg">
<path d="M41.0994 107.798C55.2711 93.1903 74.1196 81.9072 93.3048 76.0819C130.992 64.6408 172.594 87.6222 185.866 125.17C192.11 142.837 190.024 164.041 177.13 178.054C167.589 188.426 153.697 191.137 140.394 188.643C129.173 186.539 119.103 180.776 108.154 177.778C91.4146 173.192 75.1312 177.414 58.2898 176.013C49.057 175.246 38.3712 171.85 32.2265 164.336C26.3926 157.204 24.0963 147.293 25.2479 138.137C26.7009 126.58 33.0344 116.11 41.0994 107.798Z" fill="#A0B2EC" fill-opacity="0.16"/>
<path fill-rule="evenodd" clip-rule="evenodd" d="M105.017 110.475C86.6885 125.302 68.5109 149.014 45.9013 142.496C22.4992 135.748 12.2881 107.349 10.1434 83.1213C8.40195 63.4489 22.8376 47.6785 36.2147 33.0708C46.9729 21.323 60.2305 13.1778 76.031 11.1728C93.6 8.94341 113.337 8.82255 125.347 21.7604C137.519 34.8734 136.735 54.7879 132.733 72.2548C129.04 88.3694 117.898 100.056 105.017 110.475Z" fill="#A0B2EC" fill-opacity="0.16"/>
<path d="M39 58.5023C39 47.7315 47.7315 39 58.5023 39H141.498C152.269 39 161 47.7315 161 58.5023V141.631C161 152.402 152.269 161.133 141.498 161.133H58.5023C47.7315 161.133 39 152.402 39 141.631V58.5023Z" fill="#26293A"/>
<path fill-rule="evenodd" clip-rule="evenodd" d="M141.498 43.8756H58.5023C50.4242 43.8756 43.8756 50.4242 43.8756 58.5023V141.631C43.8756 149.709 50.4242 156.258 58.5023 156.258H141.498C149.576 156.258 156.124 149.709 156.124 141.631V58.5023C156.124 50.4242 149.576 43.8756 141.498 43.8756ZM58.5023 39C47.7315 39 39 47.7315 39 58.5023V141.631C39 152.402 47.7315 161.133 58.5023 161.133H141.498C152.269 161.133 161 152.402 161 141.631V58.5023C161 47.7315 152.269 39 141.498 39H58.5023Z" fill="#07C3F0"/>
<g filter="url(#filter0_d_3194_66456)">
<ellipse cx="136.284" cy="63.7441" rx="9.86227" ry="9.87304" fill="#4E5C7F"/>
</g>
<g filter="url(#filter1_d_3194_66456)">
<ellipse cx="136.284" cy="136.635" rx="9.86227" ry="9.87303" fill="#4E5C7F"/>
</g>
<g filter="url(#filter2_d_3194_66456)">
<ellipse cx="63.4736" cy="63.7441" rx="9.86228" ry="9.87304" fill="#4E5C7F"/>
</g>
<g filter="url(#filter3_d_3194_66456)">
<ellipse cx="63.4736" cy="136.635" rx="9.86228" ry="9.87303" fill="#4E5C7F"/>
</g>
<g filter="url(#filter4_i_3194_66456)">
<path d="M79 56.89C79 53.0848 82.0848 50 85.89 50H113.11C116.915 50 120 53.0848 120 56.89V69.11C120 72.9152 116.915 76 113.11 76H85.89C82.0848 76 79 72.9152 79 69.11V56.89Z" fill="#E7ECFA"/>
</g>
<g filter="url(#filter5_i_3194_66456)">
<path fill-rule="evenodd" clip-rule="evenodd" d="M113.11 50.689H85.89C82.4653 50.689 79.689 53.4653 79.689 56.89V69.11C79.689 72.5347 82.4653 75.311 85.89 75.311H113.11C116.535 75.311 119.311 72.5347 119.311 69.11V56.89C119.311 53.4653 116.535 50.689 113.11 50.689ZM85.89 50C82.0848 50 79 53.0848 79 56.89V69.11C79 72.9152 82.0848 76 85.89 76H113.11C116.915 76 120 72.9152 120 69.11V56.89C120 53.0848 116.915 50 113.11 50H85.89Z" fill="#07C3F0"/>
</g>
<path d="M92.6929 62.6475C92.6929 64.5078 92.3926 65.8896 91.792 66.793C91.1963 67.6963 90.2832 68.1479 89.0527 68.1479C87.8613 68.1479 86.958 67.6816 86.3428 66.749C85.7275 65.8164 85.4199 64.4492 85.4199 62.6475C85.4199 60.7578 85.7178 59.3662 86.3135 58.4727C86.9141 57.5742 87.8271 57.125 89.0527 57.125C90.249 57.125 91.1548 57.5938 91.77 58.5312C92.3853 59.4688 92.6929 60.8408 92.6929 62.6475ZM87.1631 62.6475C87.1631 64.1074 87.312 65.1499 87.6099 65.7749C87.9126 66.3999 88.3936 66.7124 89.0527 66.7124C89.7119 66.7124 90.1929 66.395 90.4956 65.7603C90.8032 65.1255 90.957 64.0879 90.957 62.6475C90.957 61.2119 90.8032 60.1743 90.4956 59.5347C90.1929 58.8901 89.7119 58.5679 89.0527 58.5679C88.3936 58.5679 87.9126 58.8828 87.6099 59.5127C87.312 60.1426 87.1631 61.1875 87.1631 62.6475Z" fill="#495574"/>
<path d="M101.262 62.6475C101.262 64.5078 100.962 65.8896 100.361 66.793C99.7656 67.6963 98.8525 68.1479 97.6221 68.1479C96.4307 68.1479 95.5273 67.6816 94.9121 66.749C94.2969 65.8164 93.9893 64.4492 93.9893 62.6475C93.9893 60.7578 94.2871 59.3662 94.8828 58.4727C95.4834 57.5742 96.3965 57.125 97.6221 57.125C98.8184 57.125 99.7241 57.5938 100.339 58.5312C100.955 59.4688 101.262 60.8408 101.262 62.6475ZM95.7324 62.6475C95.7324 64.1074 95.8813 65.1499 96.1792 65.7749C96.4819 66.3999 96.9629 66.7124 97.6221 66.7124C98.2812 66.7124 98.7622 66.395 99.0649 65.7603C99.3726 65.1255 99.5264 64.0879 99.5264 62.6475C99.5264 61.2119 99.3726 60.1743 99.0649 59.5347C98.7622 58.8901 98.2812 58.5679 97.6221 58.5679C96.9629 58.5679 96.4819 58.8828 96.1792 59.5127C95.8813 60.1426 95.7324 61.1875 95.7324 62.6475Z" fill="#495574"/>
<path d="M104.932 66.4268C104.697 67.335 104.268 68.5044 103.643 69.9351H102.375C102.712 68.6167 102.964 67.3911 103.13 66.2583H104.822L104.932 66.4268Z" fill="#495574"/>
<path d="M113.845 62.6475C113.845 64.5078 113.545 65.8896 112.944 66.793C112.349 67.6963 111.436 68.1479 110.205 68.1479C109.014 68.1479 108.11 67.6816 107.495 66.749C106.88 65.8164 106.572 64.4492 106.572 62.6475C106.572 60.7578 106.87 59.3662 107.466 58.4727C108.066 57.5742 108.979 57.125 110.205 57.125C111.401 57.125 112.307 57.5938 112.922 58.5312C113.538 59.4688 113.845 60.8408 113.845 62.6475ZM108.315 62.6475C108.315 64.1074 108.464 65.1499 108.762 65.7749C109.065 66.3999 109.546 66.7124 110.205 66.7124C110.864 66.7124 111.345 66.395 111.648 65.7603C111.956 65.1255 112.109 64.0879 112.109 62.6475C112.109 61.2119 111.956 60.1743 111.648 59.5347C111.345 58.8901 110.864 58.5679 110.205 58.5679C109.546 58.5679 109.065 58.8828 108.762 59.5127C108.464 60.1426 108.315 61.1875 108.315 62.6475Z" fill="#495574"/>
<path d="M99.7624 71.9775L99.9861 71.6915L100.513 71.1196H101.091L100.344 71.9354L101.137 73.0002H100.545L100.003 72.2382L99.7826 72.4148V73.0002H99.2695V70.3828H99.7826V71.5502L99.7557 71.9775H99.7624Z" fill="#495574"/>
<path d="M103.043 71.1196V71.3803L102.748 71.456C102.802 71.5401 102.829 71.6343 102.829 71.7386C102.829 71.9405 102.758 72.098 102.617 72.2113C102.477 72.3234 102.282 72.3795 102.032 72.3795L101.939 72.3745L101.863 72.366C101.811 72.4064 101.784 72.4513 101.784 72.5006C101.784 72.5746 101.879 72.6116 102.067 72.6116H102.387C102.593 72.6116 102.75 72.6559 102.858 72.7445C102.966 72.8331 103.021 72.9632 103.021 73.1348C103.021 73.3546 102.929 73.525 102.745 73.6461C102.562 73.7673 102.299 73.8278 101.956 73.8278C101.693 73.8278 101.493 73.7818 101.354 73.6899C101.216 73.599 101.147 73.4712 101.147 73.3063C101.147 73.1931 101.182 73.0983 101.253 73.0221C101.323 72.9458 101.427 72.8914 101.564 72.8589C101.511 72.8365 101.465 72.8 101.426 72.7496C101.387 72.698 101.367 72.6436 101.367 72.5864C101.367 72.5146 101.388 72.4552 101.429 72.4081C101.471 72.3599 101.531 72.3128 101.609 72.2668C101.511 72.2242 101.432 72.1558 101.374 72.0616C101.317 71.9674 101.288 71.8564 101.288 71.7285C101.288 71.5233 101.355 71.3646 101.488 71.2525C101.622 71.1403 101.812 71.0843 102.06 71.0843C102.113 71.0843 102.175 71.0893 102.247 71.0994C102.32 71.1084 102.366 71.1151 102.387 71.1196H103.043ZM101.591 73.266C101.591 73.3366 101.625 73.3921 101.692 73.4325C101.76 73.4729 101.856 73.4931 101.978 73.4931C102.162 73.4931 102.306 73.4678 102.41 73.4174C102.514 73.3669 102.567 73.2979 102.567 73.2105C102.567 73.1398 102.536 73.091 102.474 73.0641C102.412 73.0372 102.317 73.0238 102.188 73.0238H101.922C101.828 73.0238 101.749 73.0456 101.685 73.0894C101.622 73.1342 101.591 73.1931 101.591 73.266ZM101.778 71.7352C101.778 71.8373 101.801 71.918 101.847 71.9775C101.894 72.0369 101.965 72.0666 102.06 72.0666C102.157 72.0666 102.227 72.0369 102.272 71.9775C102.317 71.918 102.339 71.8373 102.339 71.7352C102.339 71.5087 102.246 71.3955 102.06 71.3955C101.872 71.3955 101.778 71.5087 101.778 71.7352Z" fill="#495574"/>
<defs>
<filter id="filter0_d_3194_66456" x="125.447" y="53.8711" width="20.6997" height="19.7461" filterUnits="userSpaceOnUse" color-interpolation-filters="sRGB">
<feFlood flood-opacity="0" result="BackgroundImageFix"/>
<feColorMatrix in="SourceAlpha" type="matrix" values="0 0 0 0 0 0 0 0 0 0 0 0 0 0 0 0 0 0 127 0" result="hardAlpha"/>
<feOffset dx="-0.975115"/>
<feColorMatrix type="matrix" values="0 0 0 0 0.126476 0 0 0 0 0.136879 0 0 0 0 0.195833 0 0 0 1 0"/>
<feBlend mode="normal" in2="BackgroundImageFix" result="effect1_dropShadow_3194_66456"/>
<feBlend mode="normal" in="SourceGraphic" in2="effect1_dropShadow_3194_66456" result="shape"/>
</filter>
<filter id="filter1_d_3194_66456" x="125.447" y="126.762" width="20.6997" height="19.7461" filterUnits="userSpaceOnUse" color-interpolation-filters="sRGB">
<feFlood flood-opacity="0" result="BackgroundImageFix"/>
<feColorMatrix in="SourceAlpha" type="matrix" values="0 0 0 0 0 0 0 0 0 0 0 0 0 0 0 0 0 0 127 0" result="hardAlpha"/>
<feOffset dx="-0.975115"/>
<feColorMatrix type="matrix" values="0 0 0 0 0.126476 0 0 0 0 0.136879 0 0 0 0 0.195833 0 0 0 1 0"/>
<feBlend mode="normal" in2="BackgroundImageFix" result="effect1_dropShadow_3194_66456"/>
<feBlend mode="normal" in="SourceGraphic" in2="effect1_dropShadow_3194_66456" result="shape"/>
</filter>
<filter id="filter2_d_3194_66456" x="52.6362" y="53.8711" width="20.6997" height="19.7461" filterUnits="userSpaceOnUse" color-interpolation-filters="sRGB">
<feFlood flood-opacity="0" result="BackgroundImageFix"/>
<feColorMatrix in="SourceAlpha" type="matrix" values="0 0 0 0 0 0 0 0 0 0 0 0 0 0 0 0 0 0 127 0" result="hardAlpha"/>
<feOffset dx="-0.975115"/>
<feColorMatrix type="matrix" values="0 0 0 0 0.126476 0 0 0 0 0.136879 0 0 0 0 0.195833 0 0 0 1 0"/>
<feBlend mode="normal" in2="BackgroundImageFix" result="effect1_dropShadow_3194_66456"/>
<feBlend mode="normal" in="SourceGraphic" in2="effect1_dropShadow_3194_66456" result="shape"/>
</filter>
<filter id="filter3_d_3194_66456" x="52.6362" y="126.762" width="20.6997" height="19.7461" filterUnits="userSpaceOnUse" color-interpolation-filters="sRGB">
<feFlood flood-opacity="0" result="BackgroundImageFix"/>
<feColorMatrix in="SourceAlpha" type="matrix" values="0 0 0 0 0 0 0 0 0 0 0 0 0 0 0 0 0 0 127 0" result="hardAlpha"/>
<feOffset dx="-0.975115"/>
<feColorMatrix type="matrix" values="0 0 0 0 0.126476 0 0 0 0 0.136879 0 0 0 0 0.195833 0 0 0 1 0"/>
<feBlend mode="normal" in2="BackgroundImageFix" result="effect1_dropShadow_3194_66456"/>
<feBlend mode="normal" in="SourceGraphic" in2="effect1_dropShadow_3194_66456" result="shape"/>
</filter>
<filter id="filter4_i_3194_66456" x="79" y="50" width="41" height="26" filterUnits="userSpaceOnUse" color-interpolation-filters="sRGB">
<feFlood flood-opacity="0" result="BackgroundImageFix"/>
<feBlend mode="normal" in="SourceGraphic" in2="BackgroundImageFix" result="shape"/>
<feColorMatrix in="SourceAlpha" type="matrix" values="0 0 0 0 0 0 0 0 0 0 0 0 0 0 0 0 0 0 127 0" result="hardAlpha"/>
<feOffset dx="1.0335" dy="1.0335"/>
<feComposite in2="hardAlpha" operator="arithmetic" k2="-1" k3="1"/>
<feColorMatrix type="matrix" values="0 0 0 0 0.627451 0 0 0 0 0.698039 0 0 0 0 0.92549 0 0 0 0.4 0"/>
<feBlend mode="normal" in2="shape" result="effect1_innerShadow_3194_66456"/>
</filter>
<filter id="filter5_i_3194_66456" x="79" y="50" width="41" height="26" filterUnits="userSpaceOnUse" color-interpolation-filters="sRGB">
<feFlood flood-opacity="0" result="BackgroundImageFix"/>
<feBlend mode="normal" in="SourceGraphic" in2="BackgroundImageFix" result="shape"/>
<feColorMatrix in="SourceAlpha" type="matrix" values="0 0 0 0 0 0 0 0 0 0 0 0 0 0 0 0 0 0 127 0" result="hardAlpha"/>
<feOffset dx="1.0335" dy="1.0335"/>
<feComposite in2="hardAlpha" operator="arithmetic" k2="-1" k3="1"/>
<feColorMatrix type="matrix" values="0 0 0 0 0.627451 0 0 0 0 0.698039 0 0 0 0 0.92549 0 0 0 0.4 0"/>
<feBlend mode="normal" in2="shape" result="effect1_innerShadow_3194_66456"/>
</filter>
</defs>
</svg>
