<svg width="200" height="200" viewBox="0 0 200 200" fill="none" xmlns="http://www.w3.org/2000/svg">
<path d="M126.555 190.433C102.169 188.558 77.2629 179.807 57.1415 166.553C17.6171 140.514 6.8969 84.4146 31.4003 43.3044C42.9296 23.9631 64.1277 9.60145 86.9828 10.7521C103.897 11.6018 117.074 22.3574 124.989 36.5679C131.664 48.5536 134.074 62.2857 139.714 74.7078C148.336 93.6998 164.747 105.504 176.39 122.144C182.773 131.266 187.844 143.75 185.62 155.201C183.51 166.071 176.116 175.806 166.769 181.776C154.973 189.311 140.432 191.501 126.555 190.433Z" fill="#A0B2EC" fill-opacity="0.16"/>
<path fill-rule="evenodd" clip-rule="evenodd" d="M87.1727 52.6943C115.071 47.7624 147.978 33.3984 167.963 53.4034C188.648 74.1096 182.869 109.913 171.034 136.639C161.424 158.339 137.071 166.528 114.507 174.109C96.3615 180.206 77.6825 181.061 59.9004 173.98C40.1281 166.106 19.3027 154.754 14.1975 134.164C9.02326 113.295 21.43 92.8083 35.798 76.7678C49.0535 61.9693 67.5678 56.1601 87.1727 52.6943Z" fill="#A0B2EC" fill-opacity="0.16"/>
<path d="M113.084 86.6607C113.135 75.2739 111.815 63.9184 113.31 52.5675C113.851 48.4631 114.804 43.999 117.726 40.8924C121.064 37.3465 127.432 37.869 131.306 40.1307C133.451 41.3816 135.221 37.975 133.094 36.7312C128.46 34.0249 122.195 33.7516 117.447 36.2963C113.135 38.6095 111.185 43.7793 110.166 48.2649C107.309 60.8739 109.308 74.1022 109.247 86.8669C109.238 89.343 113.074 89.1294 113.084 86.6607Z" fill="#A0B2EC"/>
<path d="M137.316 34.7748C136.758 34.6518 136.205 34.6972 135.699 34.8724C135.522 34.805 135.34 34.7433 135.148 34.7039L132.285 34.0798C130.245 33.6345 128.229 34.9295 127.784 36.9694C127.339 39.0093 128.63 41.0264 130.674 41.4707L133.536 42.0948C133.729 42.1379 133.917 42.1588 134.109 42.1703C134.496 42.537 134.98 42.8103 135.539 42.9333C137.163 43.2884 138.764 42.2587 139.12 40.6342L139.616 38.3592C139.968 36.7357 138.937 35.1309 137.316 34.7748Z" fill="#262939"/>
<path d="M153.811 96.2501C159.046 84.6955 165.976 73.7337 168.952 61.2745C170.064 56.6179 170.287 51.4642 167.696 47.2504C164.837 42.5986 158.273 40.2239 153.03 40.7435C150.578 40.9857 150.765 44.8242 153.235 44.5771C157.655 44.1398 163.217 46.198 165.098 50.5034C166.786 54.3703 165.666 59.0372 164.555 62.8994C161.35 74.0485 155.164 83.9691 150.409 94.4666C149.394 96.7105 152.791 98.5033 153.811 96.2501Z" fill="#A0B2EC"/>
<path d="M150.009 37.2035C150.567 37.3265 151.051 37.5961 151.437 37.9628C151.626 37.9753 151.817 37.9953 152.011 38.0383L154.873 38.6624C156.913 39.1077 158.208 41.1238 157.763 43.1637C157.317 45.2036 155.301 46.4986 153.258 46.0543L150.395 45.4302C150.202 45.3872 150.02 45.3291 149.844 45.2617C149.342 45.4359 148.784 45.4786 148.23 45.3583C146.606 45.0032 145.58 43.4011 145.931 41.7776L146.428 39.5026C146.783 37.8781 148.384 36.8484 150.009 37.2035Z" fill="#262939"/>
<rect x="84" y="63.54" width="4.81143" height="5.50313" transform="rotate(-47.3796 84 63.54)" fill="#A0B2EC"/>
<path d="M86.7483 62.4413C82.5029 67.0771 75.307 67.3962 70.6734 63.1543C66.0375 58.9088 65.7184 51.713 69.9604 47.0793C74.2024 42.4457 81.4017 42.1244 86.0354 46.3664C90.6724 50.6062 90.9915 57.8021 86.7483 62.4413Z" fill="#A0B2EC"/>
<path d="M84.5631 60.4415C81.4244 63.8726 76.1 64.1088 72.6731 60.9676C69.242 57.829 69.0058 52.5046 72.1444 49.0735C75.2831 45.6424 80.6074 45.4062 84.0344 48.5475C87.4655 51.6861 87.7017 57.0105 84.5631 60.4415Z" fill="#A0B2EC"/>
<path fill-rule="evenodd" clip-rule="evenodd" d="M73.9613 59.5593L73.9627 59.5606C76.6114 61.9885 80.7275 61.8068 83.1548 59.1533C85.5822 56.4998 85.3993 52.3826 82.7462 49.9557L82.7448 49.9544C80.0961 47.5266 75.98 47.7082 73.5527 50.3617C71.1253 53.0153 71.3082 57.1324 73.9613 59.5593ZM72.6731 60.9676C69.242 57.829 69.0058 52.5046 72.1444 49.0735C75.2831 45.6424 80.6074 45.4062 84.0344 48.5475C87.4655 51.6861 87.7017 57.0105 84.5631 60.4415C81.4244 63.8726 76.1 64.1088 72.6731 60.9676Z" fill="#0C419A"/>
<path d="M79.0289 55.3766C78.6885 55.7487 78.1084 55.7743 77.7362 55.4339C77.3641 55.0935 77.3368 54.5144 77.6789 54.1412C78.0193 53.769 78.5995 53.7435 78.9716 54.0839C79.3421 54.4254 79.3693 55.0044 79.0289 55.3766Z" fill="#0C419A"/>
<path fill-rule="evenodd" clip-rule="evenodd" d="M65.9545 118.111C64.0535 119.962 62.4472 121.527 61.3124 122.721C60.853 123.205 60.2856 124.231 59.823 125.939C59.375 127.592 59.083 129.67 59.0101 132.021C58.864 136.731 59.604 142.294 61.4791 147.352C63.358 152.42 66.298 156.782 70.4107 159.405C74.4474 161.98 79.9216 163.078 87.3521 161.085C106.812 155.864 119.683 140.221 123.036 120.58L127.965 121.421C124.319 142.78 110.188 160.135 88.6477 165.914C80.0783 168.213 73.1184 167.063 67.7218 163.62C62.4012 160.227 58.9087 154.803 56.7909 149.09C54.6694 143.367 53.8485 137.154 54.0125 131.866C54.0946 129.219 54.4252 126.741 54.997 124.631C55.5542 122.575 56.4037 120.629 57.6876 119.277C59.006 117.889 60.7643 116.177 62.7868 114.207C68.4235 108.716 76.1125 101.226 82.0533 93.1995C86.0717 87.7701 89.0486 82.3897 90.0262 77.5442C90.9695 72.8686 89.7477 68.9353 86 65.5L89.6897 61.6572C94.9418 66.4714 96.156 72.4433 94.9275 78.5331C93.7331 84.4529 90.2413 90.5411 86.0723 96.1741C79.8598 104.568 71.6052 112.607 65.9545 118.111Z" fill="#0C419A"/>
<path d="M149.291 94.3006C146.237 99.7306 143.77 105.466 140.311 110.664C137.366 115.085 132.856 119.862 127.092 119.264C111.894 117.686 115.897 97.9215 114.539 87.501C114.062 83.847 108.306 84.1207 108.786 87.8135C109.701 94.8277 108.885 101.93 110.208 108.918C111.657 116.564 116.132 122.399 123.806 124.504C139.092 128.695 147.173 110.88 152.73 100.085C153.269 99.0438 153.817 98.0077 154.392 96.9841C156.216 93.7331 151.105 91.0719 149.291 94.3006Z" fill="#0C419A"/>
<path d="M79.368 153.049C75.8227 150.259 72.3425 147.57 68.9167 144.815C59.8413 137.521 50.9072 130.056 42.8839 121.659C39.6146 118.236 36.3996 114.643 33.8824 110.693C29.548 103.883 29.098 96.2997 31.274 88.6951C33.8846 79.5626 39.6472 72.9598 49.0487 69.8429C59.1631 66.488 70.3361 70.1572 77.0921 78.8466C77.866 79.842 78.5507 80.9028 79.3985 82.1054C79.7484 81.5838 80.0506 81.1341 80.3549 80.6845C84.4894 74.551 90.115 70.4257 97.6036 69.0898C106.422 67.5139 113.974 70.1594 120.241 76.2404C128.697 84.4453 131.138 98.2511 126.045 108.767C124.038 112.908 120.965 116.342 117.819 119.686C108.646 129.44 98.3448 138.01 87.8804 146.4C85.1219 148.609 82.3069 150.754 79.368 153.049Z" fill="#E11A81"/>
<path opacity="0.2" fill-rule="evenodd" clip-rule="evenodd" d="M80.7142 92.0005C81.4919 91.9808 82.1666 92.5339 82.2999 93.3004L86.1234 115.286L88.7353 109.409C88.9961 108.822 89.5881 108.453 90.2298 108.478C90.8715 108.503 91.4334 108.916 91.6481 109.521L94.9317 118.775L98.2895 113.868C98.582 113.44 99.0666 113.185 99.5846 113.185H107.431C108.297 113.185 109 113.887 109 114.754C109 115.621 108.297 116.323 107.431 116.323H100.412L95.7797 123.094C95.4463 123.581 94.8675 123.84 94.2819 123.764C93.6964 123.688 93.2032 123.289 93.0057 122.732L90.0057 114.278L86.8955 121.276C86.615 121.907 85.9546 122.281 85.269 122.196C84.5834 122.111 84.0339 121.588 83.9155 120.907L81.0249 104.286L77.9961 129.067C77.9025 129.833 77.2663 130.417 76.4954 130.445C75.7246 130.473 75.0476 129.937 74.8987 129.18L71.0784 109.76L68.4266 115.063C68.1608 115.595 67.6175 115.931 67.0231 115.931H59.5692C58.7026 115.931 58 115.228 58 114.362C58 113.495 58.7026 112.792 59.5692 112.792H66.0532L70.3272 104.244C70.6274 103.644 71.2763 103.301 71.9415 103.391C72.6067 103.481 73.1409 103.985 73.2705 104.643L76.0762 118.906L79.1962 93.3789C79.2906 92.6067 79.9365 92.0202 80.7142 92.0005Z" fill="#262939"/>
<path fill-rule="evenodd" clip-rule="evenodd" d="M79.7142 91.0005C80.4919 90.9808 81.1666 91.5339 81.2999 92.3004L85.1234 114.286L87.7353 108.409C87.9961 107.822 88.5881 107.453 89.2298 107.478C89.8715 107.503 90.4334 107.916 90.6481 108.521L93.9317 117.775L97.2895 112.868C97.582 112.44 98.0666 112.185 98.5846 112.185H106.431C107.297 112.185 108 112.887 108 113.754C108 114.621 107.297 115.323 106.431 115.323H99.4123L94.7797 122.094C94.4463 122.581 93.8675 122.84 93.2819 122.764C92.6964 122.688 92.2032 122.289 92.0057 121.732L89.0057 113.278L85.8955 120.276C85.615 120.907 84.9546 121.281 84.269 121.196C83.5834 121.111 83.0339 120.588 82.9155 119.907L80.0249 103.286L76.9961 128.067C76.9025 128.833 76.2663 129.417 75.4954 129.445C74.7246 129.473 74.0476 128.937 73.8987 128.18L70.0784 108.76L67.4266 114.063C67.1608 114.595 66.6175 114.931 66.0231 114.931H58.5692C57.7026 114.931 57 114.228 57 113.362C57 112.495 57.7026 111.792 58.5692 111.792H65.0532L69.3272 103.244C69.6274 102.644 70.2763 102.301 70.9415 102.391C71.6067 102.481 72.1409 102.985 72.2705 103.643L75.0762 117.906L78.1962 92.3789C78.2906 91.6067 78.9365 91.0202 79.7142 91.0005Z" fill="white"/>
<path fill-rule="evenodd" clip-rule="evenodd" d="M38.8935 112.208C37.7919 109.161 37.1914 105.875 37.1914 102.448C37.1914 86.5849 50.0592 73.7256 65.9324 73.7256C66.1909 73.7256 66.4486 73.729 66.7054 73.7358C64.1345 72.8322 61.3693 72.3408 58.4893 72.3408C44.8154 72.3408 33.7305 83.4185 33.7305 97.0834C33.7305 102.78 35.6566 108.026 38.8935 112.208Z" fill="white" fill-opacity="0.3"/>
</svg>
