<svg width="200" height="200" viewBox="0 0 200 200" fill="none" xmlns="http://www.w3.org/2000/svg">
<path d="M162.561 129.348C143.58 141.54 120.389 148.965 98.2118 150.413C54.6467 153.256 15.5399 117.958 10.6845 74.0809C8.40099 53.4373 16.0009 31.0757 33.4529 19.2023C46.3674 10.4139 62.0458 10.9921 75.7768 17.0398C87.3577 22.141 96.7728 30.9008 107.835 36.8992C124.747 46.0709 143.387 45.6211 161.213 51.381C170.985 54.5383 181.662 60.8988 186.399 70.5594C190.897 79.7295 190.876 91.0057 187.324 100.599C182.84 112.707 173.363 122.41 162.561 129.348Z" fill="#A0B2EC" fill-opacity="0.16"/>
<path d="M162.624 83.3062C156.544 75.8128 146.804 71.5775 136.805 70.7124C130.457 70.1636 123.799 70.9235 117.997 73.7912C108.484 78.4937 102.641 87.9655 95.2343 95.4645C86.3785 104.432 75.0757 110.706 65.1694 118.578C55.2645 126.449 46.2872 136.948 45.3382 149.053C44.7726 156.246 47.1728 163.348 51.2263 169.201C59.1237 180.605 73.1656 187.298 87.6196 188.081C128.51 190.298 165.837 152.527 169.904 114.73C171.092 103.689 169.584 91.8841 162.624 83.3062Z" fill="#A0B2EC" fill-opacity="0.16"/>
<g filter="url(#filter0_d_3194_68471)">
<path d="M54 175H134.901C139.319 175 142.901 171.419 142.901 167V43C142.901 38.5817 139.319 35 134.901 35H54C49.5817 35 46 38.5817 46 43V167C46 171.419 49.5817 175 54 175Z" fill="white"/>
</g>
<rect x="102" y="50" width="31" height="8" rx="4" fill="#A05BB6"/>
<rect x="102" y="68" width="31" height="6" rx="3" fill="#F2DCF9"/>
<rect x="102" y="84" width="16" height="6" rx="3" fill="#F2DCF9"/>
<path d="M96 70C96 81.0457 87.0457 90 76 90C64.9543 90 56 81.0457 56 70C56 58.9543 64.9543 50 76 50C87.0457 50 96 58.9543 96 70Z" fill="#F9FAFF"/>
<path d="M69.5625 63.7895C69.5625 60.592 72.2208 58 75.5 58C78.7792 58 81.4375 60.592 81.4375 63.7895C81.4375 66.9869 78.7792 69.5789 75.5 69.5789C72.2208 69.5789 69.5625 66.9869 69.5625 63.7895ZM75.5 67.2632C77.4675 67.2632 79.0625 65.7079 79.0625 63.7895C79.0625 61.871 77.4675 60.3158 75.5 60.3158C73.5325 60.3158 71.9375 61.871 71.9375 63.7895C71.9375 65.7079 73.5325 67.2632 75.5 67.2632Z" fill="#A05BB6"/>
<path d="M68.7825 73.45C67.2896 74.9056 66.3449 76.7959 66.0779 78.8159C65.992 79.466 66.5317 80 67.1875 80C67.8433 80 68.3645 79.4643 68.4788 78.8185C68.7273 77.4145 69.4148 76.1084 70.4619 75.0875C71.7981 73.7846 73.6103 73.0526 75.5 73.0526C77.3897 73.0526 79.2019 73.7846 80.5381 75.0875C81.5852 76.1084 82.2727 77.4145 82.5212 78.8185C82.6355 79.4643 83.1567 80 83.8125 80C84.4683 80 85.008 79.466 84.9221 78.8159C84.6551 76.7959 83.7104 74.9056 82.2175 73.45C80.4359 71.7128 78.0196 70.7368 75.5 70.7368C72.9804 70.7368 70.5641 71.7128 68.7825 73.45Z" fill="#A05BB6"/>
<rect x="56" y="100" width="12" height="8" rx="4" fill="#A05BB6"/>
<rect x="56" y="116" width="12" height="8" rx="4" fill="#A05BB6"/>
<rect x="73" y="101" width="60" height="6" rx="3" fill="#F2DCF9"/>
<rect x="73" y="117" width="31" height="6" rx="3" fill="#F2DCF9"/>
<path d="M56 136.541C56 135.138 57.1378 134 58.5413 134L130.459 134C131.862 134 133 135.138 133 136.541L133 160.459C133 161.862 131.862 163 130.459 163L58.5413 163C57.1378 163 56 161.862 56 160.459L56 136.541Z" fill="#F9FAFF"/>
<path fill-rule="evenodd" clip-rule="evenodd" d="M96.8027 142.1L91.7709 152.019C91.3875 152.775 90.6119 153.252 89.7643 153.252H86.8743L85.2546 157.967C84.5872 159.911 81.8783 160.016 81.0619 158.13L76.0648 146.589L73.648 151.929C73.2837 152.734 72.4818 153.252 71.5982 153.252H64C63.3096 153.252 62.75 152.692 62.75 152.002C62.75 151.311 63.3096 150.752 64 150.752H71.4369L74.02 145.044C74.8251 143.265 77.3588 143.286 78.1346 145.078L83.0998 156.545L84.5679 152.271C84.88 151.362 85.7349 150.752 86.6959 150.752H89.6108L94.8302 140.463C95.7157 138.717 98.2539 138.856 98.9428 140.689L104.231 154.752L105.461 152.065C105.828 151.265 106.627 150.752 107.507 150.752H111.593L113.651 146.694C114.484 145.051 116.831 145.051 117.664 146.694L119.722 150.752H125C125.69 150.752 126.25 151.311 126.25 152.002C126.25 152.692 125.69 153.252 125 153.252H119.569C118.721 153.252 117.946 152.775 117.562 152.019L115.658 148.265L113.753 152.019C113.369 152.775 112.594 153.252 111.746 153.252H107.667L106.254 156.339C105.421 158.157 102.806 158.066 102.102 156.194L96.8027 142.1Z" fill="#A05BB6"/>
<g filter="url(#filter1_d_3194_68471)">
<path d="M69 160H149.901C154.319 160 157.901 156.419 157.901 152V28C157.901 23.5817 154.319 20 149.901 20H69C64.5817 20 61 23.5817 61 28V152C61 156.419 64.5817 160 69 160Z" fill="white"/>
</g>
<rect x="117" y="35" width="31" height="8" rx="4" fill="#A05BB6"/>
<rect x="117" y="53" width="31" height="6" rx="3" fill="#BDCCF8"/>
<rect x="117" y="69" width="16" height="6" rx="3" fill="#BDCCF8"/>
<circle cx="91" cy="55" r="20" fill="#F9FAFF"/>
<path d="M84.5625 48.7895C84.5625 45.592 87.2208 43 90.5 43C93.7792 43 96.4375 45.592 96.4375 48.7895C96.4375 51.9869 93.7792 54.5789 90.5 54.5789C87.2208 54.5789 84.5625 51.9869 84.5625 48.7895ZM90.5 52.2632C92.4675 52.2632 94.0625 50.7079 94.0625 48.7895C94.0625 46.871 92.4675 45.3158 90.5 45.3158C88.5325 45.3158 86.9375 46.871 86.9375 48.7895C86.9375 50.7079 88.5325 52.2632 90.5 52.2632Z" fill="#A05BB6"/>
<path d="M83.7825 58.45C82.2896 59.9056 81.3449 61.7959 81.0779 63.8159C80.992 64.466 81.5317 65 82.1875 65C82.8433 65 83.3645 64.4643 83.4788 63.8185C83.7273 62.4145 84.4148 61.1084 85.4619 60.0875C86.7981 58.7846 88.6103 58.0526 90.5 58.0526C92.3897 58.0526 94.2019 58.7846 95.5381 60.0875C96.5852 61.1084 97.2727 62.4145 97.5212 63.8185C97.6355 64.4643 98.1567 65 98.8125 65C99.4683 65 100.008 64.466 99.9221 63.8159C99.6551 61.7959 98.7104 59.9056 97.2175 58.45C95.4359 56.7128 93.0196 55.7368 90.5 55.7368C87.9804 55.7368 85.5641 56.7128 83.7825 58.45Z" fill="#A05BB6"/>
<rect x="71" y="85" width="12" height="8" rx="4" fill="#A05BB6"/>
<rect x="71" y="101" width="12" height="8" rx="4" fill="#A05BB6"/>
<rect x="88" y="86" width="60" height="6" rx="3" fill="#BDCCF8"/>
<rect x="88" y="102" width="31" height="6" rx="3" fill="#BDCCF8"/>
<path d="M71 121.541C71 120.138 72.1378 119 73.5413 119L145.459 119C146.862 119 148 120.138 148 121.541L148 145.459C148 146.862 146.862 148 145.459 148L73.5413 148C72.1378 148 71 146.862 71 145.459L71 121.541Z" fill="#F9FAFF"/>
<path fill-rule="evenodd" clip-rule="evenodd" d="M111.803 127.1L106.771 137.019C106.388 137.775 105.612 138.252 104.764 138.252H101.874L100.255 142.967C99.5872 144.911 96.8783 145.016 96.0619 143.13L91.0648 131.589L88.648 136.929C88.2837 137.734 87.4818 138.252 86.5982 138.252H79C78.3096 138.252 77.75 137.692 77.75 137.002C77.75 136.311 78.3096 135.752 79 135.752H86.4369L89.02 130.044C89.8251 128.265 92.3588 128.286 93.1346 130.078L98.0998 141.545L99.5679 137.271C99.88 136.362 100.735 135.752 101.696 135.752H104.611L109.83 125.463C110.716 123.717 113.254 123.856 113.943 125.689L119.231 139.752L120.461 137.065C120.828 136.265 121.627 135.752 122.507 135.752H126.593L128.651 131.694C129.484 130.051 131.831 130.051 132.664 131.694L134.722 135.752H140C140.69 135.752 141.25 136.311 141.25 137.002C141.25 137.692 140.69 138.252 140 138.252H134.569C133.721 138.252 132.946 137.775 132.562 137.019L130.658 133.265L128.753 137.019C128.369 137.775 127.594 138.252 126.746 138.252H122.667L121.254 141.339C120.421 143.157 117.806 143.066 117.102 141.194L111.803 127.1Z" fill="#A05BB6"/>
<defs>
<filter id="filter0_d_3194_68471" x="31.041" y="27.5205" width="126.818" height="169.918" filterUnits="userSpaceOnUse" color-interpolation-filters="sRGB">
<feFlood flood-opacity="0" result="BackgroundImageFix"/>
<feColorMatrix in="SourceAlpha" type="matrix" values="0 0 0 0 0 0 0 0 0 0 0 0 0 0 0 0 0 0 127 0" result="hardAlpha"/>
<feOffset dy="7.47951"/>
<feGaussianBlur stdDeviation="7.47951"/>
<feColorMatrix type="matrix" values="0 0 0 0 0.0470588 0 0 0 0 0.254902 0 0 0 0 0.603922 0 0 0 0.1 0"/>
<feBlend mode="normal" in2="BackgroundImageFix" result="effect1_dropShadow_3194_68471"/>
<feBlend mode="normal" in="SourceGraphic" in2="effect1_dropShadow_3194_68471" result="shape"/>
</filter>
<filter id="filter1_d_3194_68471" x="46.041" y="12.5205" width="126.818" height="169.918" filterUnits="userSpaceOnUse" color-interpolation-filters="sRGB">
<feFlood flood-opacity="0" result="BackgroundImageFix"/>
<feColorMatrix in="SourceAlpha" type="matrix" values="0 0 0 0 0 0 0 0 0 0 0 0 0 0 0 0 0 0 127 0" result="hardAlpha"/>
<feOffset dy="7.47951"/>
<feGaussianBlur stdDeviation="7.47951"/>
<feColorMatrix type="matrix" values="0 0 0 0 0.0470588 0 0 0 0 0.254902 0 0 0 0 0.603922 0 0 0 0.1 0"/>
<feBlend mode="normal" in2="BackgroundImageFix" result="effect1_dropShadow_3194_68471"/>
<feBlend mode="normal" in="SourceGraphic" in2="effect1_dropShadow_3194_68471" result="shape"/>
</filter>
</defs>
</svg>
