<svg width="56" height="57" viewBox="0 0 56 57" fill="none" xmlns="http://www.w3.org/2000/svg">
<path d="M29.11 23.9337C29.1266 20.1291 28.6962 16.335 29.1839 12.5424C29.3601 11.171 29.6711 9.67945 30.6242 8.64149C31.7129 7.45672 33.7901 7.6313 35.0538 8.38697C35.7535 8.80493 36.331 7.66671 35.6371 7.25112C34.1257 6.3469 32.0819 6.25558 30.5331 7.10581C29.1266 7.87871 28.4905 9.60605 28.1581 11.1048C27.2261 15.3177 27.8783 19.7376 27.8583 24.0026C27.8556 24.8299 29.1066 24.7585 29.11 23.9337Z" fill="#A0B2EC"/>
<path d="M37.0141 6.59819C36.8319 6.55709 36.6516 6.57226 36.4864 6.63079C36.4289 6.60827 36.3694 6.58764 36.3067 6.57449L35.373 6.36598C34.7076 6.21719 34.05 6.64988 33.9047 7.33145C33.7594 8.01301 34.1807 8.68698 34.8473 8.83544L35.7809 9.04395C35.844 9.05834 35.9051 9.06533 35.968 9.06919C36.0941 9.1917 36.2521 9.28302 36.4343 9.32412C36.9642 9.44276 37.4865 9.09871 37.6023 8.55594L37.7644 7.79582C37.879 7.25337 37.5428 6.71715 37.0141 6.59819Z" fill="#262939"/>
<path d="M42.3954 27.1377C44.1027 23.2771 46.3634 19.6145 47.3343 15.4516C47.6968 13.8957 47.7697 12.1738 46.9245 10.7658C45.992 9.21156 43.8509 8.41811 42.1406 8.59175C41.3407 8.67267 41.4016 9.95519 42.2075 9.87262C43.6491 9.72651 45.4635 10.4142 46.077 11.8527C46.6277 13.1447 46.2622 14.7041 45.8998 15.9945C44.8544 19.7197 42.8366 23.0344 41.2856 26.5418C40.9545 27.2915 42.0625 27.8906 42.3954 27.1377Z" fill="#A0B2EC"/>
<path d="M41.1551 7.40616C41.3373 7.44726 41.4949 7.53736 41.621 7.65986C41.6827 7.66406 41.7451 7.67072 41.8081 7.6851L42.7418 7.89361C43.4072 8.0424 43.8296 8.71604 43.6843 9.39761C43.5391 10.0792 42.8814 10.5119 42.2148 10.3634L41.2812 10.1549C41.2181 10.1405 41.1589 10.1211 41.1014 10.0986C40.9375 10.1568 40.7556 10.1711 40.5749 10.1309C40.045 10.0122 39.7104 9.47691 39.825 8.93447L39.9871 8.17434C40.1029 7.63157 40.6252 7.28752 41.1551 7.40616Z" fill="#262939"/>
<rect width="1.57685" height="1.83042" transform="matrix(0.673962 -0.750206 0.721652 0.680207 19.623 16.207)" fill="#A0B2EC"/>
<path d="M20.5189 15.8426C19.134 17.3916 16.7868 17.4982 15.2753 16.0808C13.7631 14.6624 13.659 12.2581 15.0428 10.7099C16.4265 9.16165 18.7748 9.0543 20.2863 10.4716C21.7989 11.8883 21.903 14.2926 20.5189 15.8426Z" fill="#A0B2EC"/>
<path d="M19.8073 15.1693C18.7835 16.3157 17.0468 16.3946 15.9289 15.3451C14.8097 14.2964 14.7327 12.5174 15.7565 11.371C16.7803 10.2246 18.517 10.1457 19.6349 11.1952C20.7541 12.2439 20.8311 14.0229 19.8073 15.1693Z" fill="#A0B2EC"/>
<path fill-rule="evenodd" clip-rule="evenodd" d="M16.3491 14.8745L16.3496 14.875C17.2135 15.6862 18.5562 15.6255 19.348 14.7389C20.1398 13.8523 20.0801 12.4766 19.2147 11.6657L19.2142 11.6653C18.3503 10.8541 17.0076 10.9148 16.2158 11.8014C15.424 12.688 15.4837 14.0636 16.3491 14.8745ZM15.9289 15.3451C14.8097 14.2964 14.7327 12.5174 15.7565 11.371C16.7803 10.2246 18.517 10.1457 19.6349 11.1952C20.7541 12.2439 20.8311 14.0229 19.8073 15.1693C18.7835 16.3157 17.0468 16.3946 15.9289 15.3451Z" fill="#0C419A"/>
<path d="M18.0016 13.4838C17.8906 13.6081 17.7013 13.6167 17.58 13.5029C17.4586 13.3892 17.4497 13.1957 17.5613 13.071C17.6723 12.9467 17.8615 12.9381 17.9829 13.0519C18.1038 13.166 18.1127 13.3594 18.0016 13.4838Z" fill="#0C419A"/>
<path fill-rule="evenodd" clip-rule="evenodd" d="M13.737 34.4444C13.1169 35.063 12.5929 35.5857 12.2228 35.9848C12.0729 36.1464 11.8878 36.4894 11.7369 37.0599C11.5908 37.6123 11.4955 38.3064 11.4718 39.0921C11.4241 40.6659 11.6655 42.5246 12.2772 44.2145C12.89 45.9079 13.849 47.3652 15.1906 48.2417C16.5073 49.102 18.293 49.469 20.7168 48.8029C27.0644 47.0585 31.2631 41.8319 32.3566 35.2693L33.9643 35.5503C32.7752 42.6868 28.1658 48.4855 21.1394 50.4164C18.3441 51.1846 16.0738 50.8002 14.3135 49.6501C12.5779 48.5162 11.4387 46.704 10.7479 44.7953C10.0558 42.8832 9.7881 40.8073 9.84158 39.0404C9.86836 38.1557 9.97622 37.3281 10.1627 36.623C10.3445 35.9358 10.6216 35.2857 11.0404 34.8341C11.4704 34.3705 12.044 33.7982 12.7037 33.1399C14.5424 31.3054 17.0505 28.803 18.9883 26.121C20.2991 24.3069 21.2702 22.5092 21.589 20.8902C21.8967 19.328 21.4982 18.0138 20.2757 16.866L21.4793 15.582C23.1925 17.1906 23.5886 19.1859 23.1878 21.2206C22.7982 23.1986 21.6592 25.2328 20.2993 27.1149C18.2728 29.9194 15.5802 32.6056 13.737 34.4444Z" fill="#0C419A"/>
<path d="M40.9204 26.4854C39.9242 28.2997 39.1197 30.2158 37.9911 31.9529C37.0305 33.43 35.5595 35.026 33.6795 34.8264C28.7218 34.2989 30.0274 27.6952 29.5846 24.2135C29.4289 22.9926 27.5515 23.0841 27.708 24.3179C28.0065 26.6615 27.7404 29.0346 28.172 31.3694C28.6444 33.9241 30.1044 35.8736 32.6073 36.577C37.5935 37.9773 40.2297 32.0251 42.0422 28.4182C42.218 28.0702 42.3968 27.724 42.5845 27.382C43.1795 26.2958 41.5122 25.4066 40.9204 26.4854Z" fill="#0C419A"/>
<path d="M18.1133 46.1261C16.9568 45.194 15.8216 44.2955 14.7041 43.3752C11.7438 40.9378 8.82957 38.4436 6.21242 35.638C5.14599 34.4945 4.09729 33.2941 3.27619 31.974C1.86233 29.6986 1.71555 27.165 2.42532 24.6242C3.2769 21.5728 5.15663 19.3667 8.22332 18.3252C11.5226 17.2043 15.1672 18.4302 17.3709 21.3336C17.6233 21.6661 17.8467 22.0206 18.1232 22.4224C18.2374 22.2481 18.336 22.0979 18.4352 21.9476C19.7839 19.8983 21.6189 18.5199 24.0616 18.0736C26.9383 17.5471 29.4016 18.431 31.4458 20.4628C34.204 23.2042 35.0003 27.817 33.339 31.3308C32.6845 32.7143 31.6819 33.8615 30.6559 34.9787C27.6637 38.238 24.3034 41.1012 20.89 43.9046C19.9902 44.6427 19.072 45.3596 18.1133 46.1261Z" fill="#E11A81"/>
<path opacity="0.2" fill-rule="evenodd" clip-rule="evenodd" d="M18.5518 25.7267C18.8055 25.7202 19.0256 25.905 19.069 26.161L20.3163 33.5068L21.1682 31.5432C21.2533 31.3472 21.4464 31.224 21.6557 31.2323C21.8651 31.2405 22.0483 31.3786 22.1184 31.5808L23.1895 34.6728L24.2848 33.0331C24.3802 32.8902 24.5383 32.8048 24.7072 32.8048H27.2666C27.5493 32.8048 27.7785 33.0396 27.7785 33.3291C27.7785 33.6187 27.5493 33.8534 27.2666 33.8534H24.9772L23.4661 36.1157C23.3573 36.2785 23.1685 36.365 22.9775 36.3395C22.7865 36.3141 22.6256 36.1809 22.5612 35.995L21.5826 33.1701L20.5681 35.5083C20.4766 35.7192 20.2612 35.844 20.0376 35.8157C19.8139 35.7873 19.6347 35.6125 19.5961 35.3851L18.6532 29.8317L17.6652 38.1116C17.6347 38.3674 17.4271 38.5626 17.1757 38.5719C16.9242 38.5813 16.7034 38.4021 16.6548 38.1492L15.4087 31.6605L14.5437 33.4325C14.457 33.6102 14.2797 33.7224 14.0859 33.7224H11.6545C11.3718 33.7224 11.1426 33.4876 11.1426 33.198C11.1426 32.9085 11.3718 32.6737 11.6545 32.6737H13.7695L15.1636 29.8177C15.2616 29.6171 15.4732 29.5025 15.6902 29.5326C15.9072 29.5627 16.0815 29.7309 16.1237 29.951L17.0389 34.7164L18.0567 26.1873C18.0874 25.9293 18.2981 25.7333 18.5518 25.7267Z" fill="#262939"/>
<path fill-rule="evenodd" clip-rule="evenodd" d="M18.2266 25.3908C18.4803 25.3842 18.7004 25.569 18.7439 25.8251L19.9911 33.1708L20.843 31.2073C20.9281 31.0112 21.1212 30.888 21.3306 30.8963C21.5399 30.9046 21.7231 31.0427 21.7932 31.2449L22.8643 34.3368L23.9596 32.6971C24.055 32.5543 24.2131 32.4689 24.382 32.4689H26.9414C27.2241 32.4689 27.4533 32.7036 27.4533 32.9932C27.4533 33.2828 27.2241 33.5175 26.9414 33.5175H24.652L23.1409 35.7798C23.0321 35.9426 22.8433 36.0291 22.6523 36.0036C22.4613 35.9781 22.3004 35.845 22.236 35.659L21.2574 32.8341L20.2429 35.1723C20.1514 35.3832 19.936 35.508 19.7124 35.4797C19.4887 35.4514 19.3095 35.2766 19.2709 35.0492L18.328 29.4957L17.34 37.7756C17.3095 38.0315 17.1019 38.2266 16.8505 38.236C16.599 38.2453 16.3782 38.0661 16.3296 37.8132L15.0835 31.3246L14.2185 33.0966C14.1318 33.2742 13.9545 33.3864 13.7607 33.3864H11.3293C11.0466 33.3864 10.8174 33.1517 10.8174 32.8621C10.8174 32.5725 11.0466 32.3378 11.3293 32.3378H13.4443L14.8384 29.4817C14.9364 29.2811 15.148 29.1665 15.365 29.1967C15.582 29.2268 15.7563 29.3949 15.7985 29.615L16.7137 34.3805L17.7315 25.8513C17.7622 25.5933 17.9729 25.3974 18.2266 25.3908Z" fill="white"/>
<path fill-rule="evenodd" clip-rule="evenodd" d="M4.91282 32.4784C4.55276 31.4593 4.35646 30.3601 4.35646 29.2139C4.35646 23.9138 8.55384 19.6172 13.7316 19.6172C13.8142 19.6172 13.8965 19.6183 13.9785 19.6205C13.1414 19.3198 12.2412 19.1562 11.3037 19.1562C6.84336 19.1562 3.22754 22.8575 3.22754 27.4233C3.22754 29.3272 3.85628 31.0808 4.91282 32.4784Z" fill="white" fill-opacity="0.3"/>
</svg>
