<svg width="24" height="24" viewBox="0 0 24 24" fill="none" xmlns="http://www.w3.org/2000/svg">
<path d="M4.12343 16.0101C3.98717 16.5453 3.55228 17 3 17C2.44772 17 1.99127 16.5489 2.08226 16.0042C2.55661 13.1644 5.02554 11 8 11C11.1276 11 13.2509 12.3128 13.4795 15.2464C13.5046 15.5683 13.2934 15.8562 12.9872 15.9583C12.5015 16.1201 12.0041 15.7496 11.8522 15.2607C11.3806 13.7435 9.8345 13 8 13C6.13252 13 4.56394 14.2798 4.12343 16.0101ZM8 10C5.79086 10 4 8.20914 4 6C4 3.79086 5.79086 2 8 2C10.2091 2 12 3.79086 12 6C11.9972 8.208 10.208 9.99725 8 10ZM8 4C6.9074 4.00111 6.01789 4.87885 6.00223 5.97134C5.98658 7.06383 6.85057 7.9667 7.94269 7.99912C9.03481 8.03153 9.95083 7.1815 10 6.09V6.49V6C10 4.89543 9.10457 4 8 4Z" fill="#495574"/>
</svg>
