<svg width="200" height="200" viewBox="0 0 200 200" fill="none" xmlns="http://www.w3.org/2000/svg">
<path d="M41.0994 107.799C55.2711 93.1913 74.1196 81.9082 93.3048 76.0828C130.992 64.6418 172.594 87.6231 185.866 125.171C192.11 142.838 190.024 164.042 177.13 178.055C167.589 188.427 153.697 191.138 140.394 188.644C129.173 186.54 119.103 180.777 108.154 177.779C91.4146 173.193 75.1312 177.415 58.2898 176.014C49.057 175.247 38.3712 171.851 32.2265 164.337C26.3926 157.205 24.0963 147.294 25.2479 138.138C26.7009 126.581 33.0344 116.111 41.0994 107.799Z" fill="#A0B2EC" fill-opacity="0.16"/>
<path fill-rule="evenodd" clip-rule="evenodd" d="M105.017 110.475C86.6885 125.302 68.5109 149.014 45.9013 142.496C22.4992 135.748 12.2881 107.349 10.1434 83.1213C8.40195 63.4489 22.8376 47.6785 36.2147 33.0708C46.9729 21.323 60.2305 13.1778 76.031 11.1728C93.6 8.94341 113.337 8.82255 125.347 21.7604C137.519 34.8734 136.735 54.7879 132.733 72.2548C129.04 88.3694 117.898 100.056 105.017 110.475Z" fill="#A0B2EC" fill-opacity="0.16"/>
<path d="M141.161 130.855L166.849 156.098C168.583 157.802 168.596 160.592 166.876 162.312L162.539 166.649C160.855 168.333 158.132 168.36 156.414 166.709L130.034 141.347L135.898 137.407C136.299 137.138 136.653 136.804 136.945 136.418L141.161 130.855Z" fill="#0C419A"/>
<path fill-rule="evenodd" clip-rule="evenodd" d="M159.002 100C159.002 132.585 132.587 159 100.002 159C67.4172 159 41.002 132.585 41.002 100C41.002 67.4152 67.4172 41 100.002 41C132.587 41 159.002 67.4152 159.002 100ZM150.959 99.9983C150.959 128.139 128.147 150.952 100.006 150.952C71.8653 150.952 49.0527 128.139 49.0527 99.9983C49.0527 71.8575 71.8653 49.0449 100.006 49.0449C128.147 49.0449 150.959 71.8575 150.959 99.9983Z" fill="#0C419A"/>
<path d="M100.268 45.9997C130.239 45.9997 154.537 70.297 154.537 100.267C154.537 130.238 130.239 154.535 100.268 154.535C70.3 154.535 46.002 130.238 46.002 100.267C46.0019 70.297 70.3 45.9997 100.268 45.9997Z" fill="white" fill-opacity="0.5"/>
<path d="M100 51C127.062 51 149.002 72.9388 149.002 100C149.002 127.061 127.062 149 100 149C72.9414 149 51.002 127.061 51.002 100C51.0019 72.9388 72.9414 51 100 51Z" fill="#A0B2EC" fill-opacity="0.4"/>
<path fill-rule="evenodd" clip-rule="evenodd" d="M66.4935 93.8159C61.8231 108.955 65.3844 124.865 75.1466 135.42C60.2974 125.057 53.3393 106.435 57.7469 88.8307L66.4935 93.8159ZM70.3798 84.7343C81.143 65.4471 103.838 56.8018 122.795 65.4029C131.116 69.1785 137.411 75.6855 141.226 83.5579C137.241 73.1967 129.349 64.3402 118.454 59.3966C97.0035 49.6641 71.811 58.678 61.2306 79.5197L70.3798 84.7343Z" fill="white"/>
</svg>
