<svg width="160" height="160" viewBox="0 0 160 160" fill="none" xmlns="http://www.w3.org/2000/svg">
<path d="M130.49 139.858C116.417 147.658 99.571 151.866 83.7237 151.864C52.5939 151.859 26.4118 124.893 24.9996 93.4133C24.3359 78.6025 30.7844 63.0285 43.7546 55.3844C53.3527 49.7264 64.4813 50.8689 73.9697 55.8165C81.9723 59.9899 88.2635 66.6682 95.8552 71.4564C107.461 78.7775 120.746 79.3258 133.16 84.2594C139.966 86.9637 147.268 91.9919 150.189 99.0939C152.962 105.835 152.422 113.866 149.448 120.534C145.694 128.95 138.499 135.419 130.49 139.858Z" fill="#A0B2EC" fill-opacity="0.16"/>
<path fill-rule="evenodd" clip-rule="evenodd" d="M38.743 28.9243C54.717 19.3207 71.5481 2.73805 88.5295 10.3308C106.106 18.1896 110.981 41.5645 110 60.7846C109.203 76.3908 96.173 87.1617 84.0988 97.1377C74.3885 105.161 63.1173 110.086 50.5298 109.921C36.5335 109.737 21.072 107.662 13.0919 96.2047C5.00362 84.5919 7.80347 69.0736 12.8539 55.8268C17.5133 43.6057 27.5175 35.673 38.743 28.9243Z" fill="#A0B2EC" fill-opacity="0.16"/>
<circle cx="55.2916" cy="27.2916" r="9.29158" fill="#A05BB6"/>
<circle cx="55.2916" cy="27.2916" r="9.78935" stroke="white" stroke-opacity="0.6" stroke-width="0.995527"/>
<path fill-rule="evenodd" clip-rule="evenodd" d="M51.6875 28.8646C51.6875 30.9263 53.3485 32.5976 55.3974 32.5976C57.4463 32.5976 59.1073 30.9263 59.1073 28.8646C59.1073 26.065 55.3974 22.332 55.3974 22.332C55.3974 22.332 51.6875 26.065 51.6875 28.8646ZM56.8938 29.9205C57.0461 29.7213 57.33 29.684 57.528 29.8371C57.726 29.9903 57.7632 30.2759 57.6109 30.4751L57.5486 30.5566C56.4624 31.9777 54.3324 31.9777 53.2462 30.5566L53.1839 30.4751C53.0317 30.2759 53.0688 29.9903 53.2668 29.8371C53.4648 29.684 53.7488 29.7213 53.901 29.9205L53.9633 30.002C54.6874 30.9494 56.1074 30.9494 56.8315 30.002L56.8938 29.9205Z" fill="white"/>
<circle cx="27.7327" cy="46.7327" r="12.7327" fill="#0C419A"/>
<circle cx="27.7327" cy="46.7327" r="13.3296" stroke="white" stroke-opacity="0.6" stroke-width="1.19369"/>
<path fill-rule="evenodd" clip-rule="evenodd" d="M21.3969 40.5208C21.1777 40.6474 21.1026 40.9277 21.2292 41.1469L21.9167 42.3377C22.0432 42.5569 22.3235 42.632 22.5428 42.5055L22.9397 42.2763L23.4606 43.1785C23.2765 43.3937 23.2381 43.7099 23.3878 43.9691L29.4178 54.4133C30.0506 55.5094 31.4522 55.885 32.5482 55.2521C33.6443 54.6193 34.0199 53.2177 33.387 52.1217L27.3571 41.6775C27.2074 41.4182 26.9144 41.2934 26.636 41.3452L26.1151 40.443L26.512 40.2138C26.7313 40.0872 26.8064 39.8069 26.6798 39.5877L25.9923 38.3969C25.8657 38.1777 25.5854 38.1026 25.3662 38.2292L21.3969 40.5208ZM24.3494 42.8847L23.7335 41.818L25.3213 40.9013L25.9371 41.9681C26.0868 42.2273 26.3798 42.3522 26.6583 42.3004L27.7807 44.2445L25.3991 45.6195L24.2767 43.6754C24.4607 43.4601 24.4991 43.144 24.3494 42.8847Z" fill="white"/>
<path d="M96.299 90.0225L96.299 132.379C96.299 134.692 94.4237 136.568 92.1105 136.568L27.1885 136.568C24.8753 136.568 23 134.692 23 132.379L23 81.6455C23 79.3323 24.8753 77.457 27.1885 77.457L43.9159 77.457C46.2292 77.457 48.1044 79.3323 48.1044 81.6455L48.1044 83.7398C48.1044 84.8964 49.0421 85.834 50.1987 85.834L92.1105 85.834C94.4237 85.834 96.299 87.7093 96.299 90.0225Z" fill="#0C419A"/>
<path d="M96.299 90.0225L96.299 132.379C96.299 134.692 94.4237 136.568 92.1105 136.568L27.1885 136.568C24.8753 136.568 23 134.692 23 132.379L23 81.6455C23 79.3323 24.8753 77.457 27.1885 77.457L43.9159 77.457C46.2292 77.457 48.1044 79.3323 48.1044 81.6455L48.1044 83.7398C48.1044 84.8964 49.0421 85.834 50.1987 85.834L92.1105 85.834C94.4237 85.834 96.299 87.7093 96.299 90.0225Z" fill="black" fill-opacity="0.3"/>
<g filter="url(#filter0_d_35738_7961)">
<path d="M27.8873 82.1482C27.0229 80.6511 27.5359 78.7368 29.0329 77.8725L52.3941 64.3849L54.7328 68.4356C55.5971 69.9327 57.5114 70.4456 59.0085 69.5813L63.0592 67.2426L84.9782 105.207C85.8425 106.704 85.3296 108.619 83.8325 109.483L56.4206 125.309C54.9236 126.174 53.0093 125.661 52.145 124.164L27.8873 82.1482Z" fill="white"/>
</g>
<path d="M57.1836 70.6515L63.0713 67.2522L52.4062 64.3945L55.8055 70.2822C56.0841 70.7647 56.7011 70.9301 57.1836 70.6515Z" fill="#BDCCF8"/>
<rect x="33.623" y="84.2617" width="14.8676" height="3.13001" rx="1.56501" transform="rotate(-30 33.623 84.2617)" fill="#0C419A"/>
<rect x="37.1445" y="90.3633" width="30.1264" height="2.34751" rx="1.17376" transform="rotate(-30 37.1445 90.3633)" fill="#BDCCF8"/>
<rect x="40.291" y="95.7695" width="30.1264" height="2.34751" rx="1.17376" transform="rotate(-30 40.291 95.7695)" fill="#BDCCF8"/>
<rect x="49.1543" y="97.8711" width="23.4751" height="2.34751" rx="1.17376" transform="rotate(-30 49.1543 97.8711)" fill="#BDCCF8"/>
<rect x="43.207" y="100.859" width="4.69502" height="3.13001" rx="1.56501" transform="rotate(-30 43.207 100.859)" fill="#0C419A"/>
<rect x="46.3418" y="106.281" width="4.69502" height="3.13001" rx="1.56501" transform="rotate(-30 46.3418 106.281)" fill="#0C419A"/>
<rect width="4.69502" height="3.13002" rx="1.56501" transform="matrix(0.866025 -0.5 0.5 0.866026 49.4785 111.707)" fill="#0C419A"/>
<rect x="52.3105" y="103.281" width="23.4751" height="2.34751" rx="1.17376" transform="rotate(-30 52.3105 103.281)" fill="#BDCCF8"/>
<rect x="55.4258" y="108.715" width="12.1288" height="2.34751" rx="1.17376" transform="rotate(-30 55.4258 108.715)" fill="#BDCCF8"/>
<g filter="url(#filter1_d_35738_7961)">
<path d="M50.7725 121.419L81.3465 113.227C83.0163 112.779 84.0072 111.063 83.5598 109.393L71.0031 62.5312C70.5557 60.8614 68.8394 59.8705 67.1696 60.3179L36.5956 68.5102C34.9259 68.9576 33.935 70.6739 34.3824 72.3437L46.9391 119.206C47.3865 120.876 49.1028 121.867 50.7725 121.419Z" fill="white"/>
</g>
<path d="M56.1648 68.4726C55.9411 67.6377 56.4366 66.7796 57.2714 66.5559L65.9636 64.2268C66.7985 64.0031 67.6566 64.4986 67.8804 65.3335C68.1041 66.1683 67.6086 67.0265 66.7737 67.2502L58.0816 69.5792C57.2467 69.803 56.3885 69.3075 56.1648 68.4726Z" fill="#0C419A"/>
<path d="M57.7823 74.5166C57.6145 73.8904 57.9861 73.2468 58.6123 73.079L68.0603 70.5474C68.6864 70.3797 69.3301 70.7512 69.4978 71.3774C69.6656 72.0036 69.294 72.6472 68.6679 72.815L59.2199 75.3465C58.5937 75.5143 57.9501 75.1427 57.7823 74.5166Z" fill="#BDCCF8"/>
<path d="M59.3136 80.1728C59.1458 79.5467 59.5174 78.9031 60.1435 78.7353L62.0331 78.229C62.6593 78.0612 63.3029 78.4328 63.4707 79.0589C63.6385 79.6851 63.2669 80.3287 62.6407 80.4965L60.7511 81.0028C60.1249 81.1706 59.4813 80.799 59.3136 80.1728Z" fill="#BDCCF8"/>
<path d="M55.5171 75.1133C56.6356 79.2877 54.1583 83.5785 49.9839 84.697C45.8096 85.8155 41.5188 83.3383 40.4003 79.1639C39.2817 74.9895 41.759 70.6987 45.9334 69.5802C50.1078 68.4617 54.3986 70.9389 55.5171 75.1133Z" fill="#F9FAFF"/>
<path d="M44.8968 75.4357C44.573 74.2274 45.3152 72.9786 46.5544 72.6465C47.7937 72.3145 49.0608 73.0249 49.3846 74.2332C49.7084 75.4416 48.9662 76.6904 47.727 77.0225C46.4877 77.3545 45.2206 76.6441 44.8968 75.4357ZM47.4925 76.1473C48.236 75.948 48.6813 75.1988 48.4871 74.4737C48.2928 73.7487 47.5325 73.3225 46.789 73.5217C46.0454 73.721 45.6001 74.4702 45.7944 75.1952C45.9886 75.9203 46.7489 76.3465 47.4925 76.1473Z" fill="#0C419A"/>
<path d="M45.5803 79.1656C45.1635 79.8669 44.9979 80.677 45.1015 81.4674C45.1349 81.7218 45.3929 81.8689 45.6408 81.8025C45.8886 81.7361 46.0313 81.4809 46.0091 81.2253C45.9609 80.6695 46.0884 80.1063 46.3808 79.6144C46.7538 78.9867 47.3646 78.5266 48.0787 78.3352C48.7929 78.1439 49.5519 78.237 50.1888 78.5941C50.6879 78.8739 51.08 79.2978 51.3161 79.8033C51.4247 80.0358 51.6759 80.1854 51.9237 80.119C52.1716 80.0526 52.3215 79.7962 52.2231 79.5592C51.9177 78.8228 51.3693 78.2041 50.6577 77.8051C49.8084 77.329 48.7964 77.2049 47.8442 77.46C46.892 77.7152 46.0777 78.3287 45.5803 79.1656Z" fill="#0C419A"/>
<path d="M43.8426 91.9961C43.6188 91.1612 44.1143 90.303 44.9492 90.0793L46.4609 89.6743C47.2957 89.4506 48.1539 89.946 48.3776 90.7809C48.6013 91.6158 48.1058 92.4739 47.271 92.6976L45.7593 93.1027C44.9244 93.3264 44.0663 92.8309 43.8426 91.9961Z" fill="#0C419A"/>
<path d="M45.4676 98.0547C45.2438 97.2198 45.7393 96.3616 46.5742 96.1379L48.0859 95.7329C48.9207 95.5092 49.7789 96.0046 50.0026 96.8395C50.2263 97.6744 49.7309 98.5325 48.896 98.7562L47.3843 99.1613C46.5494 99.385 45.6913 98.8895 45.4676 98.0547Z" fill="#0C419A"/>
<path d="M50.2628 90.29C50.095 89.6639 50.4666 89.0202 51.0927 88.8525L71.5004 83.3842C72.1266 83.2165 72.7702 83.588 72.938 84.2142C73.1058 84.8404 72.7342 85.484 72.108 85.6518L51.7003 91.12C51.0742 91.2878 50.4306 90.9162 50.2628 90.29Z" fill="#BDCCF8"/>
<path d="M51.8975 96.3525C51.7298 95.7264 52.1014 95.0827 52.7275 94.915L62.1755 92.3834C62.8017 92.2156 63.4453 92.5872 63.6131 93.2133C63.7809 93.8395 63.4093 94.4831 62.7831 94.6509L53.3351 97.1825C52.7089 97.3503 52.0653 96.9787 51.8975 96.3525Z" fill="#BDCCF8"/>
<path d="M47.1538 104.32C47.0117 103.789 47.3265 103.244 47.8569 103.102L75.0359 95.8194C75.5664 95.6773 76.1116 95.9921 76.2537 96.5225L78.6756 105.561C78.8178 106.092 78.503 106.637 77.9726 106.779L50.7935 114.062C50.2631 114.204 49.7179 113.889 49.5758 113.359L47.1538 104.32Z" fill="#F9FAFF"/>
<path fill-rule="evenodd" clip-rule="evenodd" d="M63.1188 102.269L62.2216 106.527C62.1533 106.852 61.9084 107.11 61.5881 107.196L60.4959 107.489L60.3613 109.435C60.3058 110.237 59.2928 110.551 58.7933 109.921L55.7361 106.066L55.3635 108.328C55.3073 108.67 55.0567 108.946 54.7227 109.036L51.8512 109.805C51.5903 109.875 51.3221 109.72 51.2522 109.459C51.1823 109.198 51.3372 108.93 51.5981 108.86L54.4086 108.107L54.8068 105.689C54.931 104.935 55.8906 104.686 56.3653 105.285L59.4029 109.116L59.5249 107.352C59.5508 106.977 59.8121 106.659 60.1753 106.562L61.2769 106.267L62.2075 101.85C62.3654 101.101 63.3387 100.896 63.7846 101.519L67.2071 106.298L67.4 105.158C67.4575 104.819 67.7076 104.544 68.0401 104.455L69.5843 104.041L69.9513 102.299C70.0999 101.594 70.9867 101.356 71.468 101.893L72.6567 103.218L74.6512 102.683C74.9121 102.613 75.1803 102.768 75.2502 103.029C75.3201 103.29 75.1653 103.558 74.9044 103.628L72.8519 104.178C72.5316 104.264 72.1902 104.162 71.9688 103.916L70.8687 102.689L70.5291 104.301C70.4607 104.626 70.2158 104.884 69.8955 104.97L68.354 105.383L68.1323 106.693C68.0017 107.465 67.0043 107.695 66.5486 107.059L63.1188 102.269Z" fill="#0C419A"/>
<g filter="url(#filter2_d_35738_7961)">
<path d="M51.9348 113.187H83.825C85.5667 113.187 86.9785 111.775 86.9785 110.033V61.1535C86.9785 59.4119 85.5667 58 83.825 58H51.9348C50.1931 58 48.7812 59.4119 48.7812 61.1535V110.033C48.7812 111.775 50.1931 113.187 51.9348 113.187Z" fill="white"/>
</g>
<rect x="52.7188" y="98.4023" width="30.5498" height="2.38486" rx="1.19243" fill="#BDCCF8"/>
<rect x="52.7285" y="104.816" width="30.5497" height="2.38485" rx="1.19242" fill="#BDCCF8"/>
<path d="M52.709 78.9424C52.709 78.122 53.1575 77.457 53.7107 77.457H82.0599C82.6131 77.457 83.0616 78.122 83.0616 78.9424V92.9219C83.0616 93.7422 82.6131 94.4072 82.0599 94.4072H53.7107C53.1575 94.4072 52.709 93.7422 52.709 92.9219V78.9424Z" fill="#F9FAFF"/>
<path fill-rule="evenodd" clip-rule="evenodd" d="M68.8725 78.0258L66.889 81.9358C66.7378 82.2338 66.4321 82.4215 66.098 82.4215H64.9588L64.3203 84.2804C64.0572 85.0464 62.9894 85.088 62.6676 84.3447L60.6978 79.7952L59.7451 81.9003C59.6015 82.2176 59.2854 82.4215 58.9371 82.4215H55.942C55.6698 82.4215 55.4492 82.2009 55.4492 81.9288C55.4492 81.6566 55.6698 81.436 55.942 81.436H58.8735L59.8917 79.1861C60.2091 78.4849 61.2079 78.4931 61.5137 79.1994L63.4709 83.7198L64.0496 82.0349C64.1727 81.6766 64.5096 81.436 64.8884 81.436H66.0375L68.0949 77.3803C68.444 76.6921 69.4445 76.7471 69.7161 77.4693L71.8005 83.0128L72.2855 81.9537C72.43 81.6383 72.745 81.436 73.0919 81.436H74.7026L75.5139 79.8366C75.8424 79.1891 76.7674 79.1891 77.0959 79.8366L77.9072 81.436H79.9876C80.2597 81.436 80.4803 81.6566 80.4803 81.9288C80.4803 82.2009 80.2597 82.4215 79.9876 82.4215H77.8467C77.5126 82.4215 77.2069 82.2338 77.0557 81.9358L76.3049 80.4557L75.5541 81.9358C75.4029 82.2338 75.0972 82.4215 74.7631 82.4215H73.1552L72.5979 83.6384C72.2696 84.3553 71.2389 84.3194 70.9613 83.5812L68.8725 78.0258Z" fill="#0C419A"/>
<rect x="59.416" y="71.0234" width="23.79" height="2.3867" rx="1.19335" fill="#BDCCF8"/>
<rect x="59.4375" y="64.2461" width="23.6514" height="2.3867" rx="1.19335" fill="#BDCCF8"/>
<rect x="52.7285" y="63.8555" width="4.73028" height="3.15352" rx="1.57676" fill="#0C419A"/>
<rect x="52.7285" y="70.7031" width="4.73028" height="3.15352" rx="1.57676" fill="#0C419A"/>
<path d="M23.0038 90.0186L23.0038 132.375C23.0038 134.688 24.879 136.564 27.1923 136.564L92.1142 136.564C94.4275 136.564 96.3027 134.688 96.3027 132.375L96.3027 81.6416C96.3027 79.3284 94.4275 77.4531 92.1142 77.4531L81.3102 77.4531C80.1994 77.4531 79.134 77.8944 78.3485 78.6799L71.8117 85.2167C71.4189 85.6095 70.8863 85.8301 70.3308 85.8301L27.1923 85.8301C24.879 85.8301 23.0038 87.7054 23.0038 90.0186Z" fill="#0C419A"/>
<path d="M57.7755 117.22H61.964C62.7972 117.22 63.5962 116.889 64.1853 116.3C64.7744 115.711 65.1054 114.912 65.1054 114.079C65.1054 113.246 64.7744 112.447 64.1853 111.857C63.5962 111.268 62.7972 110.937 61.964 110.937H54.6341C54.3564 110.937 54.0901 111.048 53.8937 111.244C53.6973 111.44 53.587 111.707 53.587 111.984C53.587 112.262 53.6973 112.529 53.8937 112.725C54.0901 112.921 54.3564 113.032 54.6341 113.032H61.964C62.2417 113.032 62.5081 113.142 62.7044 113.338C62.9008 113.535 63.0111 113.801 63.0111 114.079C63.0111 114.356 62.9008 114.623 62.7044 114.819C62.5081 115.016 62.2417 115.126 61.964 115.126H57.7755C56.9424 115.126 56.1433 115.457 55.5542 116.046C54.9651 116.635 54.6341 117.434 54.6341 118.267C54.6341 119.1 54.9651 119.899 55.5542 120.489C56.1433 121.078 56.9424 121.409 57.7755 121.409H61.964C62.2417 121.409 62.5081 121.298 62.7044 121.102C62.9008 120.906 63.0111 120.639 63.0111 120.361C63.0111 120.084 62.9008 119.817 62.7044 119.621C62.5081 119.425 62.2417 119.314 61.964 119.314H57.7755C57.4978 119.314 57.2314 119.204 57.0351 119.008C56.8387 118.811 56.7284 118.545 56.7284 118.267C56.7284 117.99 56.8387 117.723 57.0351 117.527C57.2314 117.33 57.4978 117.22 57.7755 117.22Z" fill="#BDCCF8"/>
<path d="M60.3933 108.843C61.2788 108.843 62.1414 108.562 62.8572 108.041C63.5731 107.52 64.1054 106.785 64.3776 105.943C64.5008 105.569 64.7385 105.243 65.0571 105.012C65.3756 104.781 65.7589 104.656 66.1525 104.655H75.5033C75.2515 106.399 74.3793 107.995 73.0465 109.149C71.7137 110.303 70.0097 110.938 68.2468 110.937C67.969 110.937 67.7027 111.048 67.5063 111.244C67.31 111.44 67.1996 111.707 67.1996 111.984C67.1996 112.262 67.31 112.529 67.5063 112.725C67.7027 112.921 67.969 113.032 68.2468 113.032C70.7462 113.032 73.1433 112.039 74.9106 110.271C76.678 108.504 77.6709 106.107 77.6709 103.607C77.6709 103.33 77.5606 103.063 77.3642 102.867C77.1678 102.671 76.9015 102.56 76.6238 102.56H66.1525C65.2671 102.561 64.4045 102.841 63.6886 103.363C62.9728 103.884 62.4405 104.618 62.1682 105.461C62.0451 105.835 61.8073 106.16 61.4888 106.392C61.1702 106.623 60.7869 106.748 60.3933 106.749H58.2991C57.9055 106.748 57.5222 106.623 57.2036 106.392C56.885 106.16 56.6473 105.835 56.5242 105.461C56.2519 104.618 55.7196 103.884 55.0038 103.363C54.2879 102.841 53.4253 102.561 52.5399 102.56H42.0686C41.7909 102.56 41.5246 102.671 41.3282 102.867C41.1318 103.063 41.0215 103.33 41.0215 103.607C41.0215 106.107 42.0144 108.504 43.7818 110.271C45.5491 112.039 47.9462 113.032 50.4456 113.032C50.7233 113.032 50.9897 112.921 51.1861 112.725C51.3824 112.529 51.4927 112.262 51.4927 111.984C51.4927 111.707 51.3824 111.44 51.1861 111.244C50.9897 111.048 50.7233 110.937 50.4456 110.937C48.6827 110.938 46.9787 110.303 45.6459 109.149C44.3131 107.995 43.4409 106.399 43.189 104.655H52.5399C52.9335 104.656 53.3168 104.781 53.6353 105.012C53.9539 105.243 54.1916 105.569 54.3148 105.943C54.587 106.785 55.1193 107.52 55.8352 108.041C56.551 108.562 57.4136 108.843 58.2991 108.843H60.3933Z" fill="#BDCCF8"/>
<path d="M59.3462 126.644C59.0685 126.644 58.8021 126.534 58.6058 126.338C58.4094 126.141 58.2991 125.875 58.2991 125.597V100.466C58.2991 100.188 58.4094 99.922 58.6058 99.7257C58.8021 99.5293 59.0685 99.419 59.3462 99.419C59.6239 99.419 59.8902 99.5293 60.0866 99.7257C60.283 99.922 60.3933 100.188 60.3933 100.466V125.597C60.3933 125.875 60.283 126.141 60.0866 126.338C59.8902 126.534 59.6239 126.644 59.3462 126.644Z" fill="#BDCCF8"/>
<path d="M59.3462 100.466C58.8284 100.466 58.3223 100.313 57.8918 100.025C57.4613 99.7373 57.1258 99.3284 56.9276 98.8501C56.7295 98.3717 56.6777 97.8454 56.7787 97.3376C56.8797 96.8298 57.129 96.3633 57.4951 95.9972C57.8612 95.6311 58.3277 95.3818 58.8355 95.2808C59.3433 95.1798 59.8696 95.2316 60.348 95.4297C60.8263 95.6279 61.2352 95.9634 61.5228 96.3939C61.8105 96.8244 61.964 97.3305 61.964 97.8483C61.964 98.5426 61.6882 99.2084 61.1973 99.6994C60.7063 100.19 60.0405 100.466 59.3462 100.466ZM59.3462 96.7264C59.1243 96.7264 58.9074 96.7922 58.7229 96.9154C58.5384 97.0387 58.3946 97.2139 58.3097 97.4189C58.2248 97.6239 58.2025 97.8495 58.2458 98.0672C58.2891 98.2848 58.396 98.4847 58.5529 98.6416C58.7098 98.7985 58.9097 98.9054 59.1273 98.9486C59.3449 98.9919 59.5705 98.9697 59.7755 98.8848C59.9805 98.7999 60.1558 98.6561 60.279 98.4716C60.4023 98.2871 60.4681 98.0702 60.4681 97.8483C60.4681 97.5507 60.3499 97.2654 60.1395 97.055C59.9291 96.8446 59.6437 96.7264 59.3462 96.7264Z" fill="#BDCCF8"/>
<path fill-rule="evenodd" clip-rule="evenodd" d="M68.5868 35.8727C68.2143 35.5717 67.6682 35.6297 67.3672 36.0023C67.0662 36.3748 67.1243 36.9208 67.4968 37.2218L71.3827 40.3613L70.8653 40.3375L70.8373 40.3362L70.8093 40.3368C64.4007 40.4569 53.2469 43.151 46.2777 51.822C45.9777 52.1953 46.0371 52.7412 46.4104 53.0413C46.7837 53.3413 47.3296 53.2819 47.6297 52.9086C54.1527 44.7926 64.7 42.1934 70.8141 42.0715L71.3151 42.0945L67.4155 45.1787C67.0398 45.4758 66.9761 46.0212 67.2732 46.3969C67.5704 46.7725 68.1158 46.8362 68.4914 46.5391L74.3602 41.8975C74.5669 41.734 74.6881 41.4853 74.6894 41.2218C74.6908 40.9582 74.5722 40.7083 74.3672 40.5427L68.5868 35.8727Z" fill="#0C419A"/>
<g filter="url(#filter3_d_35738_7961)">
<path d="M86.4351 101.614H131.285C133.734 101.614 135.72 99.6282 135.72 97.1787V28.4351C135.72 25.9856 133.734 24 131.285 24L86.4351 24C83.9856 24 82 25.9856 82 28.4351V97.1787C82 99.6282 83.9856 101.614 86.4351 101.614Z" fill="white"/>
</g>
<rect x="113.053" y="32.3242" width="17.1859" height="4.43506" rx="2.21753" fill="#A05BB6"/>
<rect x="113.053" y="42.3086" width="17.1859" height="3.3263" rx="1.66315" fill="#BDCCF8"/>
<rect x="113.053" y="51.1797" width="8.87012" height="3.3263" rx="1.66315" fill="#BDCCF8"/>
<circle cx="98.6404" cy="43.4119" r="11.0877" fill="#F9FAFF"/>
<path d="M95.0805 39.9674C95.0805 38.1948 96.5542 36.7578 98.3721 36.7578C100.19 36.7578 101.664 38.1948 101.664 39.9674C101.664 41.74 100.19 43.177 98.3721 43.177C96.5542 43.177 95.0805 41.74 95.0805 39.9674ZM98.3721 41.8932C99.4629 41.8932 100.347 41.031 100.347 39.9674C100.347 38.9038 99.4629 38.0416 98.3721 38.0416C97.2814 38.0416 96.3971 38.9038 96.3971 39.9674C96.3971 41.031 97.2814 41.8932 98.3721 41.8932Z" fill="#A05BB6"/>
<path d="M94.648 45.323C93.8204 46.13 93.2967 47.178 93.1487 48.2978C93.101 48.6582 93.4002 48.9542 93.7638 48.9542C94.1274 48.9542 94.4163 48.6573 94.4796 48.2993C94.6174 47.5209 94.9986 46.7968 95.5791 46.2308C96.3198 45.5085 97.3245 45.1027 98.3721 45.1027C99.4197 45.1027 100.424 45.5085 101.165 46.2308C101.746 46.7968 102.127 47.5209 102.265 48.2993C102.328 48.6573 102.617 48.9542 102.98 48.9542C103.344 48.9542 103.643 48.6582 103.596 48.2978C103.448 47.178 102.924 46.13 102.096 45.323C101.108 44.3599 99.7689 43.8189 98.3721 43.8189C96.9753 43.8189 95.6357 44.3599 94.648 45.323Z" fill="#A05BB6"/>
<rect x="87.5527" y="60.043" width="6.6526" height="4.43506" rx="2.21753" fill="#A05BB6"/>
<rect x="87.5527" y="68.9141" width="6.6526" height="4.43507" rx="2.21753" fill="#A05BB6"/>
<rect x="96.9805" y="60.6016" width="33.263" height="3.3263" rx="1.66315" fill="#BDCCF8"/>
<rect x="96.9805" y="69.4688" width="17.1859" height="3.3263" rx="1.66315" fill="#BDCCF8"/>
<path d="M87.5527 80.2995C87.5527 79.5214 88.1835 78.8906 88.9616 78.8906H128.831C129.609 78.8906 130.24 79.5214 130.24 80.2995V93.5589C130.24 94.337 129.609 94.9677 128.831 94.9677H88.9616C88.1835 94.9677 87.5527 94.337 87.5527 93.5589V80.2995Z" fill="#F9FAFF"/>
<path fill-rule="evenodd" clip-rule="evenodd" d="M110.171 83.3879L107.382 88.8869C107.169 89.3059 106.739 89.5699 106.269 89.5699H104.667L103.769 92.1842C103.399 93.2616 101.897 93.32 101.445 92.2746L98.6745 85.8764L97.3346 88.8369C97.1327 89.2832 96.6881 89.5699 96.1982 89.5699H91.9859C91.6032 89.5699 91.293 89.2597 91.293 88.877C91.293 88.4942 91.6032 88.184 91.9859 88.184H96.1088L97.5409 85.0198C97.9872 84.0335 99.3918 84.045 99.8219 85.0384L102.575 91.3958L103.388 89.0261C103.561 88.5223 104.035 88.184 104.568 88.184H106.184L109.078 82.48C109.569 81.5122 110.976 81.5895 111.358 82.6053L114.289 90.4016L114.971 88.912C115.174 88.4684 115.618 88.184 116.105 88.184H118.371L119.512 85.9346C119.974 85.0239 121.274 85.0239 121.736 85.9346L122.878 88.184H125.803C126.186 88.184 126.496 88.4942 126.496 88.877C126.496 89.2597 126.186 89.5699 125.803 89.5699H122.792C122.323 89.5699 121.893 89.3059 121.68 88.8869L120.624 86.8053L119.568 88.8869C119.356 89.3059 118.926 89.5699 118.456 89.5699H116.194L115.411 91.2813C114.949 92.2896 113.499 92.239 113.109 91.2009L110.171 83.3879Z" fill="#A05BB6"/>
<defs>
<filter id="filter0_d_35738_7961" x="24.0684" y="62.6875" width="64.7284" height="68.1405" filterUnits="userSpaceOnUse" color-interpolation-filters="sRGB">
<feFlood flood-opacity="0" result="BackgroundImageFix"/>
<feColorMatrix in="SourceAlpha" type="matrix" values="0 0 0 0 0 0 0 0 0 0 0 0 0 0 0 0 0 0 127 0" result="hardAlpha"/>
<feOffset dy="1.69918"/>
<feGaussianBlur stdDeviation="1.69918"/>
<feColorMatrix type="matrix" values="0 0 0 0 0.0470588 0 0 0 0 0.254902 0 0 0 0 0.603922 0 0 0 0.1 0"/>
<feBlend mode="normal" in2="BackgroundImageFix" result="effect1_dropShadow_35738_7961"/>
<feBlend mode="normal" in="SourceGraphic" in2="effect1_dropShadow_35738_7961" result="shape"/>
</filter>
<filter id="filter1_d_35738_7961" x="30.877" y="58.5118" width="56.1893" height="68.1131" filterUnits="userSpaceOnUse" color-interpolation-filters="sRGB">
<feFlood flood-opacity="0" result="BackgroundImageFix"/>
<feColorMatrix in="SourceAlpha" type="matrix" values="0 0 0 0 0 0 0 0 0 0 0 0 0 0 0 0 0 0 127 0" result="hardAlpha"/>
<feOffset dy="1.69918"/>
<feGaussianBlur stdDeviation="1.69918"/>
<feColorMatrix type="matrix" values="0 0 0 0 0.0470588 0 0 0 0 0.254902 0 0 0 0 0.603922 0 0 0 0.1 0"/>
<feBlend mode="normal" in2="BackgroundImageFix" result="effect1_dropShadow_35738_7961"/>
<feBlend mode="normal" in="SourceGraphic" in2="effect1_dropShadow_35738_7961" result="shape"/>
</filter>
<filter id="filter2_d_35738_7961" x="46.1095" y="56.6641" width="43.5408" height="60.531" filterUnits="userSpaceOnUse" color-interpolation-filters="sRGB">
<feFlood flood-opacity="0" result="BackgroundImageFix"/>
<feColorMatrix in="SourceAlpha" type="matrix" values="0 0 0 0 0 0 0 0 0 0 0 0 0 0 0 0 0 0 127 0" result="hardAlpha"/>
<feOffset dy="1.33588"/>
<feGaussianBlur stdDeviation="1.33588"/>
<feColorMatrix type="matrix" values="0 0 0 0 0.0470588 0 0 0 0 0.254902 0 0 0 0 0.603922 0 0 0 0.1 0"/>
<feBlend mode="normal" in2="BackgroundImageFix" result="effect1_dropShadow_35738_7961"/>
<feBlend mode="normal" in="SourceGraphic" in2="effect1_dropShadow_35738_7961" result="shape"/>
</filter>
<filter id="filter3_d_35738_7961" x="75.7802" y="20.8901" width="66.1603" height="90.0528" filterUnits="userSpaceOnUse" color-interpolation-filters="sRGB">
<feFlood flood-opacity="0" result="BackgroundImageFix"/>
<feColorMatrix in="SourceAlpha" type="matrix" values="0 0 0 0 0 0 0 0 0 0 0 0 0 0 0 0 0 0 127 0" result="hardAlpha"/>
<feOffset dy="3.10989"/>
<feGaussianBlur stdDeviation="3.10989"/>
<feColorMatrix type="matrix" values="0 0 0 0 0.0470588 0 0 0 0 0.254902 0 0 0 0 0.603922 0 0 0 0.1 0"/>
<feBlend mode="normal" in2="BackgroundImageFix" result="effect1_dropShadow_35738_7961"/>
<feBlend mode="normal" in="SourceGraphic" in2="effect1_dropShadow_35738_7961" result="shape"/>
</filter>
</defs>
</svg>
