<svg width="80" height="80" viewBox="0 0 80 80" fill="none" xmlns="http://www.w3.org/2000/svg">
    <g clip-path="url(#clip0_12499_124559)">
        <path
            d="M26.1377 73.2035C33.9329 75.9804 42.8365 76.7071 50.8819 75.3856C66.6859 72.7888 77.7302 56.9523 75.8226 40.8944C74.9248 33.3395 70.3525 25.9907 63.1303 23.2009C57.7857 21.1357 52.231 22.6416 47.8263 25.9377C44.1114 28.7178 41.4741 32.6238 38.0191 35.681C32.7371 40.3554 26.0385 41.7401 20.1469 45.2728C16.9169 47.2094 13.6294 50.364 12.7385 54.2036C11.8925 57.8484 12.8362 61.87 14.9022 64.9984C17.5096 68.9469 21.7017 71.6234 26.1377 73.2035Z"
            fill="#A0B2EC" fill-opacity="0.16" />
        <path fill-rule="evenodd" clip-rule="evenodd"
            d="M48.4353 23.4919C52.6882 32.6216 60.6443 42.6084 55.595 51.3023C50.3687 60.301 37.5245 61.5924 27.2474 59.9731C18.9028 58.6583 13.8546 51.0442 9.17927 43.989C5.41926 38.315 3.41348 31.9784 4.2195 25.2236C5.11574 17.7128 7.11175 9.52208 13.7261 5.88479C20.43 2.19824 28.6133 4.58456 35.4471 8.05122C41.7519 11.2495 45.4466 17.0762 48.4353 23.4919Z"
            fill="#A0B2EC" fill-opacity="0.16" />
        <defs>
            <filter id="filter0_d_12499_124559" x="5.8398" y="6.9199" width="68.6778"
                height="85.9181" filterUnits="userSpaceOnUse" color-interpolation-filters="sRGB">
                <feFlood flood-opacity="0" result="BackgroundImageFix" />
                <feColorMatrix in="SourceAlpha" type="matrix"
                    values="0 0 0 0 0 0 0 0 0 0 0 0 0 0 0 0 0 0 127 0" result="hardAlpha" />
                <feOffset dy="7.47951" />
                <feGaussianBlur stdDeviation="7.47951" />
                <feColorMatrix type="matrix"
                    values="0 0 0 0 0.0470588 0 0 0 0 0.254902 0 0 0 0 0.603922 0 0 0 0.1 0" />
                <feBlend mode="normal" in2="BackgroundImageFix"
                    result="effect1_dropShadow_12499_124559" />
                <feBlend mode="normal" in="SourceGraphic" in2="effect1_dropShadow_12499_124559"
                    result="shape" />
            </filter>
            <linearGradient id="paint0_linear_12499_124559" x1="40.1585" y1="35.1309" x2="40.1585"
                y2="49.6584" gradientUnits="userSpaceOnUse">
                <stop stop-color="#07CBA2" stop-opacity="0" />
                <stop offset="0.229005" stop-color="#07CBA2" stop-opacity="0.1" />
                <stop offset="0.65625" stop-color="#07CBA2" stop-opacity="0.5" />
                <stop offset="0.65635" stop-color="#07CBA2" />
                <stop offset="1" stop-color="#07CBA2" />
            </linearGradient>
            <clipPath id="clip0_12499_124559">
                <rect width="80" height="80" fill="white" />
            </clipPath>
        </defs>
        <g filter="url(#filter0_d_12499_124559)">
            <path
                d="M23.9988 70.3995H56.3591C58.1264 70.3995 59.5591 68.9669 59.5591 67.1995V17.5994C59.5591 15.8321 58.1264 14.3994 56.3591 14.3994H23.9988C22.2315 14.3994 20.7988 15.8321 20.7988 17.5994V67.1995C20.7988 68.9668 22.2315 70.3995 23.9988 70.3995Z"
                fill="white" />
        </g>
        <rect x="43.1992" y="18.3994" width="12.4" height="3.2" rx="1.6" fill="#0C419A" />
        <rect x="43.1992" y="25.1992" width="12.4" height="2.4" rx="1.2" fill="#BBF4ED" />
        <rect x="43.1992" y="31.1992" width="4.4" height="2.4" rx="1.2" fill="#BBF4ED" />
        <ellipse cx="32.7988" cy="26.3994" rx="8" ry="8" fill="#F9FAFF" />
        <path
            d="M30.2238 23.9154C30.2238 22.6364 31.2872 21.5996 32.5988 21.5996C33.9105 21.5996 34.9738 22.6364 34.9738 23.9154C34.9738 25.1944 33.9105 26.2312 32.5988 26.2312C31.2872 26.2312 30.2238 25.1944 30.2238 23.9154ZM32.5988 25.3049C33.3858 25.3049 34.0238 24.6828 34.0238 23.9154C34.0238 23.148 33.3858 22.5259 32.5988 22.5259C31.8118 22.5259 31.1738 23.148 31.1738 23.9154C31.1738 24.6828 31.8118 25.3049 32.5988 25.3049Z"
            fill="#0C419A" />
        <path
            d="M29.9118 27.7796C29.3147 28.3619 28.9368 29.118 28.83 29.926C28.7956 30.186 29.0115 30.3996 29.2738 30.3996V30.3996C29.5362 30.3996 29.7446 30.1853 29.7903 29.927C29.8897 29.3654 30.1647 28.843 30.5836 28.4346C31.1181 27.9134 31.843 27.6207 32.5988 27.6207C33.3547 27.6207 34.0796 27.9134 34.6141 28.4346C35.0329 28.843 35.3079 29.3654 35.4073 29.927C35.453 30.1853 35.6615 30.3996 35.9238 30.3996V30.3996C36.1862 30.3996 36.402 30.186 36.3677 29.926C36.2609 29.118 35.883 28.3619 35.2858 27.7796C34.5732 27.0847 33.6067 26.6943 32.5988 26.6943C31.591 26.6943 30.6245 27.0847 29.9118 27.7796Z"
            fill="#0C419A" />
        <rect x="24.7988" y="38.3994" width="4.8" height="3.2" rx="1.6" fill="#0C419A" />
        <rect x="24.7988" y="44.7998" width="4.8" height="3.2" rx="1.6" fill="#0C419A" />
        <rect x="31.5996" y="38.7998" width="24" height="2.4" rx="1.2" fill="#BBF4ED" />
        <rect x="31.5996" y="45.1992" width="12.4" height="2.4" rx="1.2" fill="#BDCCF8" />
        <rect x="24.7988" y="51.999" width="30.8" height="11.6" rx="2.54129" fill="#F9FAFF" />
        <path
            d="M27.998 59.199H30.6503C31.043 59.199 31.3994 58.9691 31.5613 58.6113L31.9028 57.8568C32.2606 57.0661 33.3867 57.0753 33.7315 57.8717L34.6665 60.0311C35.0294 60.8692 36.2333 60.8223 36.5299 59.9586L36.5589 59.8742C36.6977 59.4703 37.0776 59.199 37.5047 59.199H37.9354C38.3121 59.199 38.6568 58.9874 38.8272 58.6514L40.1592 56.0256C40.5528 55.2498 41.6808 55.3118 41.987 56.1261L43.3118 59.6493C43.5832 60.3711 44.5911 60.4063 44.9122 59.7052V59.7052C45.0534 59.3968 45.3615 59.199 45.7007 59.199H46.7282C47.1048 59.199 47.4496 58.9874 47.62 58.6514L47.7693 58.3571C48.1397 57.6269 49.1825 57.6269 49.5529 58.3571L49.7022 58.6514C49.8727 58.9874 50.2174 59.199 50.5941 59.199H52.398"
            stroke="#0C419A" stroke-width="2.5" stroke-linecap="round" />
        <g style="mix-blend-mode:lighten">
            <rect width="46.8" height="34" transform="matrix(1 0 0 -1 17.5996 45.5996)"
                fill="#07CBA2" />
        </g>
        <rect x="14.3691" y="35.1309" width="51.5787" height="10.6535"
            fill="url(#paint0_linear_12499_124559)" />
        <path
            d="M62.6152 12.5626C62.6152 12.1079 62.9838 11.7393 63.4386 11.7393H68.1776V11.7393C68.1776 12.6487 67.4404 13.3859 66.531 13.3859H63.4386C62.9838 13.3859 62.6152 13.0173 62.6152 12.5626V12.5626Z"
            fill="#0C419A" />
        <path
            d="M67.3543 17.3016C66.8996 17.3016 66.531 16.933 66.531 16.4783L66.531 13.3859C66.531 12.4765 67.2682 11.7393 68.1776 11.7393V11.7393V16.4783C68.1776 16.933 67.809 17.3016 67.3543 17.3016V17.3016Z"
            fill="#0C419A" />
        <path
            d="M12.4229 17.3018C11.9682 17.3018 11.5996 16.9331 11.5996 16.4784L11.5996 11.7394V11.7394C12.509 11.7394 13.2463 12.4766 13.2463 13.386L13.2463 16.4784C13.2463 16.9331 12.8776 17.3018 12.4229 17.3018V17.3018Z"
            fill="#0C419A" />
        <path
            d="M17.162 12.5627C17.162 13.0174 16.7934 13.386 16.3387 13.386L13.2463 13.386C12.3368 13.386 11.5996 12.6488 11.5996 11.7394V11.7394L16.3387 11.7394C16.7934 11.7394 17.162 12.108 17.162 12.5627V12.5627Z"
            fill="#0C419A" />
        <path
            d="M17.1621 67.539C17.1621 67.9937 16.7935 68.3623 16.3388 68.3623L11.5997 68.3623V68.3623C11.5997 67.4529 12.337 66.7157 13.2464 66.7157L16.3388 66.7157C16.7935 66.7157 17.1621 67.0843 17.1621 67.539V67.539Z"
            fill="#0C419A" />
        <path
            d="M12.423 62.7999C12.8778 62.7999 13.2464 63.1685 13.2464 63.6232L13.2464 66.7157C13.2464 67.6251 12.5091 68.3623 11.5997 68.3623V68.3623L11.5997 63.6232C11.5997 63.1685 11.9683 62.7999 12.423 62.7999V62.7999Z"
            fill="#0C419A" />
        <path
            d="M67.1396 62.7998C67.5943 62.7998 67.9629 63.1684 67.9629 63.6231L67.9629 68.3622V68.3622C67.0535 68.3622 66.3162 67.625 66.3162 66.7155L66.3162 63.6231C66.3162 63.1684 66.6849 62.7998 67.1396 62.7998V62.7998Z"
            fill="#0C419A" />
        <path
            d="M62.4005 67.5389C62.4005 67.0842 62.7691 66.7155 63.2238 66.7155L66.3162 66.7155C67.2257 66.7155 67.9629 67.4528 67.9629 68.3622V68.3622L63.2238 68.3622C62.7691 68.3622 62.4005 67.9936 62.4005 67.5389V67.5389Z"
            fill="#0C419A" />
    </g>
</svg>
