<svg width="360" height="258" viewBox="0 0 360 258" fill="none" xmlns="http://www.w3.org/2000/svg">
    <g clip-path="url(#clip0_35419_37928)">
        <g clip-path="url(#clip1_35419_37928)">
            <path d="M44.8705 255.181C42.7006 253.803 40.5483 252.351 38.4134 250.825C12.2874 232.14 -5.98189 205.15 -12.199 176.052C-14.3606 165.94 -15.0736 155.31 -11.4982 145.513C-7.38682 134.252 2.05877 125.04 12.643 117.742C34.4632 102.696 61.5176 94.5852 88.728 89.8977C105.526 87.0042 122.606 85.3104 139.169 81.5099C192.948 69.1907 217.275 20.0447 268.313 4.31463C302.548 -6.23523 339.759 5.12462 375.371 11.2026C420.171 18.8498 468.42 18.5156 507.645 39.0209C532.38 51.9561 551.047 72.0164 569.093 91.721C580.697 104.393 592.837 118.429 592.998 134.695C593.221 157.057 572.173 177.182 556.948 193.404C508.892 244.604 568.5 297.215 459.686 295.687C405.358 294.917 351.116 286.294 297.822 277.687C213.966 264.151 119.542 302.64 44.8705 255.181Z" fill="#F1F5FF"/>
            <path d="M361.521 29.9062H326.777V51.062H361.521V29.9062Z" fill="#BBBFE1" fill-opacity="0.3"/>
            <path d="M358.809 32.1152H329.492V48.8564H358.809V32.1152Z" fill="#F7F8FF"/>
            <path d="M329.367 48.889C329.367 48.889 335.728 47.7922 337.269 47.4991C338.81 47.206 340.982 46.9131 342.453 47.023C343.924 47.1329 345.956 47.609 345.956 47.609C345.956 47.609 353.521 45.8878 355.133 45.8694C356.744 45.8511 359.134 46.6674 359.134 46.6674V48.889H329.367Z" fill="#BBBFE1" fill-opacity="0.3"/>
            <path d="M334.823 37.6164C335.871 37.6164 336.72 36.7671 336.72 35.7193C336.72 34.6716 335.871 33.8223 334.823 33.8223C333.775 33.8223 332.926 34.6716 332.926 35.7193C332.926 36.7671 333.775 37.6164 334.823 37.6164Z" fill="#BBBFE1" fill-opacity="0.3"/>
            <rect x="353.242" y="39.3965" width="4.81872" height="4.81872" transform="rotate(45 353.242 39.3965)" fill="#BBBFE1" fill-opacity="0.3"/>
            <rect x="346.773" y="42.8926" width="3.2624" height="3.2624" transform="rotate(45 346.773 42.8926)" fill="#BBBFE1" fill-opacity="0.3"/>
            <path d="M346.527 53.059L346.527 78.2246L361.851 78.2246L361.851 53.059L346.527 53.059Z" fill="#BBBFE1" fill-opacity="0.3"/>
            <path d="M348.125 55.0256L348.125 76.2598L360.251 76.2598L360.251 55.0256L348.125 55.0256Z" fill="#F7F8FF"/>
            <path d="M352.557 59.1728C352.557 58.4139 351.942 57.7987 351.183 57.7987C350.424 57.7987 349.809 58.4139 349.809 59.1728C349.809 59.9317 350.424 60.5469 351.183 60.5469C351.942 60.5469 352.557 59.9317 352.557 59.1728Z" fill="#BBBFE1" fill-opacity="0.3"/>
            <path d="M358.92 64.1769C358.92 62.4657 357.532 61.0785 355.821 61.0785C354.11 61.0785 352.723 62.4657 352.723 64.1769C352.723 65.8882 354.11 67.2754 355.821 67.2754C357.532 67.2754 358.92 65.8882 358.92 64.1769Z" fill="#BBBFE1" fill-opacity="0.3"/>
            <path d="M354.181 71.2843C354.181 69.875 353.039 68.7326 351.63 68.7326C350.221 68.7326 349.078 69.875 349.078 71.2843C349.078 72.6935 350.221 73.8359 351.63 73.8359C353.039 73.8359 354.181 72.6935 354.181 71.2843Z" fill="#BBBFE1" fill-opacity="0.3"/>
            <path d="M63.1524 130.812C63.0934 148.423 131.995 162.999 217.047 163.364C302.099 163.729 371.095 149.744 371.152 132.138C371.209 114.531 302.78 102.087 217.726 101.731C132.672 101.374 63.2114 113.206 63.1524 130.812Z" fill="#E7ECFA"/>
            <path fill-rule="evenodd" clip-rule="evenodd" d="M121.707 123.049C121.707 122.812 121.507 122.619 121.26 122.619L110.543 122.619C110.297 122.619 110.097 122.812 110.097 123.049C110.097 123.287 110.297 123.479 110.543 123.479L121.26 123.479C121.507 123.479 121.707 123.287 121.707 123.049Z" fill="#E7ECFA"/>
            <path fill-rule="evenodd" clip-rule="evenodd" d="M316.793 125.834C316.793 126.071 316.993 126.264 317.24 126.264L327.957 126.264C328.203 126.264 328.403 126.071 328.403 125.834C328.403 125.596 328.203 125.403 327.957 125.403L317.24 125.403C316.993 125.403 316.793 125.596 316.793 125.834Z" fill="#E7ECFA"/>
            <path fill-rule="evenodd" clip-rule="evenodd" d="M117.355 126.309C117.355 126.071 117.156 125.879 116.909 125.879L106.192 125.879C105.945 125.879 105.745 126.071 105.745 126.309C105.745 126.547 105.945 126.739 106.192 126.739L116.909 126.739C117.156 126.739 117.355 126.547 117.355 126.309Z" fill="#E7ECFA"/>
            <path fill-rule="evenodd" clip-rule="evenodd" d="M321.152 122.572C321.152 122.809 321.352 123.002 321.599 123.002L332.316 123.002C332.563 123.002 332.763 122.809 332.763 122.572C332.763 122.334 332.563 122.142 332.316 122.142L321.599 122.142C321.352 122.142 321.152 122.334 321.152 122.572Z" fill="#E7ECFA"/>
            <path fill-rule="evenodd" clip-rule="evenodd" d="M114.453 129.575C114.453 129.337 114.253 129.145 114.007 129.145L103.289 129.145C103.043 129.145 102.843 129.337 102.843 129.575C102.843 129.812 103.043 130.005 103.289 130.005L114.007 130.005C114.253 130.005 114.453 129.812 114.453 129.575Z" fill="#E7ECFA"/>
            <path fill-rule="evenodd" clip-rule="evenodd" d="M324.055 119.31C324.055 119.548 324.255 119.74 324.501 119.74L335.218 119.74C335.465 119.74 335.665 119.548 335.665 119.31C335.665 119.073 335.465 118.88 335.218 118.88L324.501 118.88C324.255 118.88 324.055 119.073 324.055 119.31Z" fill="#E7ECFA"/>
            <path fill-rule="evenodd" clip-rule="evenodd" d="M115.422 132.832C115.422 132.595 115.222 132.402 114.975 132.402L105.709 132.402C105.463 132.402 105.263 132.595 105.263 132.832C105.263 133.07 105.463 133.263 105.709 133.263L114.975 133.263C115.222 133.263 115.422 133.07 115.422 132.832Z" fill="#E7ECFA"/>
            <path fill-rule="evenodd" clip-rule="evenodd" d="M323.086 116.048C323.086 116.286 323.286 116.479 323.532 116.479L332.798 116.479C333.045 116.479 333.245 116.286 333.245 116.048C333.245 115.811 333.045 115.618 332.798 115.618L323.532 115.618C323.286 115.618 323.086 115.811 323.086 116.048Z" fill="#E7ECFA"/>
            <path fill-rule="evenodd" clip-rule="evenodd" d="M118.805 136.1C118.805 135.863 118.605 135.67 118.358 135.67L109.092 135.67C108.846 135.67 108.646 135.863 108.646 136.1C108.646 136.338 108.846 136.53 109.092 136.53L118.358 136.53C118.605 136.53 118.805 136.338 118.805 136.1Z" fill="#E7ECFA"/>
            <path fill-rule="evenodd" clip-rule="evenodd" d="M319.699 112.787C319.699 113.024 319.899 113.217 320.146 113.217L329.412 113.217C329.658 113.217 329.858 113.024 329.858 112.787C329.858 112.549 329.658 112.357 329.412 112.357L320.146 112.357C319.899 112.357 319.699 112.549 319.699 112.787Z" fill="#E7ECFA"/>
            <path fill-rule="evenodd" clip-rule="evenodd" d="M61.707 123.049C61.707 122.812 61.5071 122.619 61.2605 122.619L50.5433 122.619C50.2967 122.619 50.0967 122.812 50.0967 123.049C50.0967 123.287 50.2967 123.479 50.5433 123.479L61.2605 123.479C61.5071 123.479 61.707 123.287 61.707 123.049Z" fill="#E7ECFA"/>
            <path fill-rule="evenodd" clip-rule="evenodd" d="M57.3555 126.309C57.3555 126.071 57.1555 125.879 56.9089 125.879L46.1917 125.879C45.9451 125.879 45.7452 126.071 45.7452 126.309C45.7452 126.547 45.9451 126.739 46.1917 126.739L56.9089 126.739C57.1555 126.739 57.3555 126.547 57.3555 126.309Z" fill="#E7ECFA"/>
            <path fill-rule="evenodd" clip-rule="evenodd" d="M54.4531 129.575C54.4531 129.337 54.2532 129.145 54.0066 129.145L43.2894 129.145C43.0428 129.145 42.8428 129.337 42.8428 129.575C42.8428 129.812 43.0428 130.005 43.2894 130.005L54.0066 130.005C54.2532 130.005 54.4531 129.812 54.4531 129.575Z" fill="#E7ECFA"/>
            <path fill-rule="evenodd" clip-rule="evenodd" d="M55.4219 132.832C55.4219 132.595 55.2219 132.402 54.9753 132.402L45.7094 132.402C45.4628 132.402 45.2629 132.595 45.2629 132.832C45.2629 133.07 45.4628 133.263 45.7094 133.263L54.9753 133.263C55.2219 133.263 55.4219 133.07 55.4219 132.832Z" fill="#E7ECFA"/>
            <path fill-rule="evenodd" clip-rule="evenodd" d="M58.8047 136.1C58.8047 135.863 58.6048 135.67 58.3581 135.67L49.0922 135.67C48.8456 135.67 48.6457 135.863 48.6457 136.1C48.6457 136.338 48.8456 136.53 49.0922 136.53L58.3581 136.53C58.6048 136.53 58.8047 136.338 58.8047 136.1Z" fill="#E7ECFA"/>
            <path d="M275.412 79.0799C275.423 78.8562 275.495 78.6393 275.62 78.4506C275.745 78.2619 275.92 78.108 276.126 78.0041L276.535 77.7987C277.808 77.1628 279.183 76.7356 280.602 76.5346C281.142 76.4754 281.666 76.3242 282.151 76.0879C282.74 75.7511 285.184 73.889 287.155 72.3671C288.162 71.815 289.589 71.0434 290.882 70.3779C291.895 70.0086 292.202 70.295 292.147 70.816C292.122 71.0088 292.053 71.1938 291.945 71.358C291.837 71.5221 291.693 71.6614 291.523 71.7659C290.669 72.2992 289.981 73.0459 289.533 73.9263C289.27 74.4241 288.958 74.896 288.6 75.3353C288.095 75.9513 287.545 76.6499 287.038 77.3071L284.392 83.4546L285.962 86.4615L279.665 88.2271C278.715 85.3735 276.977 81.7181 276.768 81.5124C276.03 80.7825 275.37 79.8903 275.412 79.0799Z" fill="#E0876B"/>
            <path d="M323.864 89.1496C324.09 89.1043 324.325 89.1172 324.545 89.1869C324.765 89.2567 324.961 89.3809 325.115 89.547L325.421 89.871C326.373 90.8921 327.143 92.0586 327.699 93.323C327.891 93.8079 328.17 94.2565 328.523 94.6485C329.016 95.1116 331.484 96.9002 333.496 98.3549C334.298 99.1499 335.426 100.279 336.413 101.31C337.032 102.157 336.825 102.512 336.291 102.592C336.093 102.618 335.891 102.6 335.7 102.541C335.509 102.482 335.334 102.383 335.188 102.25C334.442 101.593 333.525 101.143 332.535 100.948C331.969 100.83 331.417 100.659 330.886 100.438C330.144 100.122 329.311 99.7878 328.527 99.4837L321.745 98.5696L319.139 100.776L315.801 95.3819C318.411 93.792 321.623 91.2641 321.78 91.0097C322.32 90.1571 323.046 89.3224 323.864 89.1496Z" fill="#E0876B"/>
            <path d="M226.571 89.0862L225.057 86.612C225.057 86.612 220.422 86.2338 219.058 88.1663C217.782 89.9738 219.403 93.7535 219.403 93.7535C219.403 93.7535 220.758 95.6039 221.129 97.7864C221.499 99.9689 224.421 98.276 224.734 97.7864C225.047 97.2967 229.451 92.5294 229.358 92.3965L226.571 89.0862Z" fill="#E0876B"/>
            <path d="M185.465 96.5247C183.892 97.6198 180.084 107.176 180.084 107.176L200.302 122.963L207.461 114.829C207.461 114.829 187.038 95.4297 185.465 96.5247Z" fill="#314B80"/>
            <path d="M185.456 98.0307C183.961 99.071 180.154 107.407 180.154 107.407L199.551 123.147L206.352 115.42C206.352 115.42 186.95 96.9904 185.456 98.0307Z" fill="#DDDEE0"/>
            <path d="M219.347 103.806C219.347 103.806 217.551 114.416 217.356 114.276C217.161 114.135 201.854 110.921 201.854 110.921C201.854 110.921 200.24 113.779 203.57 114.669C206.9 115.559 221.05 121.083 221.28 120.552C221.511 120.021 225.118 113.15 225.579 111.822C226.04 110.493 227.244 104.525 227.156 104.521C227.067 104.517 219.736 103.432 219.736 103.432L219.347 103.806Z" fill="#C4735A"/>
            <path d="M207.684 114.665L190.661 97.2394C190.554 97.139 190.426 97.0614 190.285 97.0115C190.144 96.9616 189.994 96.9406 189.844 96.9498C189.693 96.9591 189.547 96.9984 189.413 97.0651C189.279 97.1319 189.162 97.2247 189.068 97.3375L180.454 106.678C180.259 106.913 180.166 107.21 180.195 107.507C180.223 107.805 180.371 108.079 180.607 108.275L198.305 122.883C198.566 123.097 198.903 123.208 199.247 123.193C199.592 123.178 199.918 123.038 200.16 122.802L207.266 115.843L207.684 114.665Z" fill="#233862"/>
            <path d="M301.799 109.143L285.316 83.7313L277.706 85.2337L287.246 116.609L291.911 117.242L301.799 109.143Z" fill="#939BE4"/>
            <path d="M220.902 97.4414C220.902 97.4414 218.183 106.739 217.792 109.798C219.482 110.461 220.628 110.357 222.457 110.006V99.1711L220.902 97.4414Z" fill="#9F4FB9"/>
            <path d="M254.721 110.921C254.721 110.921 254.332 103.432 265.217 103.432C275.324 103.432 292.817 113.167 292.817 113.167L317.133 93.9902C317.133 93.9902 320.185 96.3967 321.156 99.6021C321.156 99.6021 307.2 121.405 301.806 123.572C296.412 125.74 267.549 127.022 258.267 123.572C248.986 120.123 254.721 110.921 254.721 110.921Z" fill="#B0B7F9"/>
            <path d="M260.165 103.806C260.165 103.806 257.898 107.491 243.532 102.94C234.071 97.6792 235.251 93.3681 226.345 92.1977C226.345 92.1977 220.928 95.9422 221.291 98.5634C221.654 101.185 221.355 111.86 223.391 113.215C225.426 114.571 236.036 122.835 244.826 123.939C253.616 125.043 261.72 125.15 261.72 125.15C261.72 125.15 267.162 110.172 260.165 103.806Z" fill="#9335B1"/>
            <path d="M193.914 110.411C193.911 110.381 193.911 110.352 193.914 110.322C193.959 109.572 194.152 109.445 194.292 109.42C194.245 109.319 194.225 109.207 194.235 109.096C194.377 108.012 194.854 108.675 194.854 108.675C196.132 109.901 199.563 110.777 199.563 110.777C199.563 110.777 200.231 111.045 200.652 110.796C200.848 110.681 201.08 109.945 201.074 109.05C201.066 108.016 199.907 107.177 200.685 107.552C201.462 107.926 202.179 107.916 202.629 108.675C203.527 110.192 204.502 113.436 204.572 113.543C204.676 113.704 204.173 114.437 203.795 115.041C203.416 115.644 202.668 116.429 202.628 116.539C202.628 116.539 198.958 115.469 198.018 114.935C196.921 114.366 195.193 113.44 194.485 112.922C194.287 112.792 194.129 112.613 194.025 112.405C193.921 112.197 193.876 111.966 193.894 111.736C193.544 111.301 193.699 110.787 193.914 110.411Z" fill="#E0876B"/>
            <path d="M193.921 110.352C194.03 110.63 194.19 110.887 194.394 111.111C194.595 111.335 194.822 111.536 195.07 111.71C195.317 111.881 195.581 112.028 195.858 112.149C195.996 112.211 196.141 112.257 196.283 112.312C196.425 112.367 196.575 112.394 196.723 112.43C196.443 112.312 196.167 112.198 195.901 112.06C195.636 111.926 195.382 111.774 195.139 111.606C194.896 111.435 194.67 111.245 194.461 111.037C194.252 110.831 194.071 110.601 193.921 110.352Z" fill="#CD7F67"/>
            <path d="M193.888 111.736C194.02 112.003 194.201 112.245 194.422 112.45C194.64 112.659 194.883 112.842 195.145 112.996C195.408 113.15 195.686 113.277 195.975 113.376C196.119 113.429 196.266 113.463 196.412 113.505C196.558 113.547 196.71 113.566 196.859 113.591C196.574 113.494 196.288 113.401 196.012 113.285C195.741 113.17 195.478 113.038 195.224 112.89C194.969 112.74 194.727 112.57 194.501 112.382C194.27 112.191 194.065 111.975 193.888 111.736Z" fill="#CD7F67"/>
            <path d="M194.29 109.43C194.4 109.708 194.561 109.965 194.765 110.189C194.965 110.413 195.192 110.614 195.441 110.789C195.688 110.959 195.952 111.106 196.229 111.227C196.369 111.29 196.515 111.335 196.654 111.388C196.794 111.441 196.948 111.472 197.094 111.508C196.816 111.388 196.54 111.276 196.274 111.138C196.01 111.002 195.756 110.851 195.512 110.684C195.269 110.513 195.042 110.322 194.832 110.115C194.623 109.908 194.442 109.678 194.29 109.43Z" fill="#CD7F67"/>
            <path d="M233.93 107.65C233.93 107.65 230.23 122.53 228.95 124.068C227.671 125.606 226.731 125.526 224.399 125.526C222.066 125.526 218.705 124.068 218.705 124.068L202.629 116.539L204.21 113.369C204.21 113.369 221.068 119.16 222.455 119.16C223.842 119.16 225.954 104.182 225.954 104.182L233.93 107.65Z" fill="#E0876B"/>
            <path d="M233.455 96.9389C234.208 100.384 235.713 108.443 234.437 112.852C234.437 112.852 227.241 114.906 221.56 112.643C221.56 112.643 222.13 100.65 222.55 98.0852C222.887 96.0273 225.98 89.1715 231.022 93.1391C232.303 94.1637 233.148 95.4835 233.455 96.9389Z" fill="#9F4FB9"/>
            <path d="M227.983 79.241C228.399 81.6971 227.902 84.4045 225.802 85.774C225.356 86.0675 224.864 86.2896 224.345 86.4318C223.918 86.515 223.513 86.6788 223.153 86.9139C222.792 87.149 222.484 87.4506 222.245 87.8014C222.103 88.0645 222.017 88.3521 221.992 88.6477C221.969 89.3323 222.006 90.0176 222.103 90.6964C222.195 92.1589 221.815 93.6131 221.015 94.8595C220.32 95.9917 219.304 96.91 218.087 97.5072C217.425 97.8358 216.71 98.0559 215.973 98.1584C214.92 98.317 213.844 98.258 212.817 97.9853C211.79 97.7127 210.834 97.2326 210.014 96.577C209.079 95.818 208.87 94.7579 207.664 94.5972C206.751 94.4732 205.268 93.9747 205.875 92.3917C206.081 91.8671 206.15 91.3019 206.076 90.7457C206.003 90.1895 205.788 89.6592 205.453 89.2011C204.803 88.1868 203.9 87.3354 203.238 86.3257C202.21 84.5755 201.754 82.5668 201.931 80.563C202.108 78.5591 202.91 76.6535 204.23 75.0959C206.923 71.9913 210.76 70.013 214.936 69.577C216.325 69.3174 217.754 69.3385 219.134 69.6389C220.299 69.9894 221.385 70.5472 222.336 71.2836C225.201 73.1474 227.221 75.9931 227.983 79.241Z" fill="#E0876B"/>
            <path d="M223.166 91.9427C223.179 93.1704 221.764 96.6739 221.291 97.8143L220.514 95.5676C219.818 96.6998 219.297 96.8589 218.08 97.4561C217.417 97.7847 216.703 98.0048 215.966 98.1073C217.426 97.218 218.667 96.0311 219.6 94.6302C219.909 94.1813 220.182 93.7106 220.418 93.2223C221.308 91.491 221.657 89.548 221.424 87.6292C221.57 87.9892 221.804 88.2896 221.997 88.592C222.734 89.5668 223.143 90.7366 223.166 91.9427Z" fill="#C4735A"/>
            <path d="M200.875 78.6396C211.63 71.0666 220.875 97.9101 230.293 88.8994C230.275 88.3489 230.03 86.8881 230.008 86.3255C229.84 84.7545 229.854 84.8542 229.683 83.2711C229.565 81.1505 229.155 79.0544 228.463 77.038C227.696 75.1752 226.498 73.5048 224.962 72.1531C223.426 70.8014 221.59 69.8038 219.595 69.2356C217.583 68.7025 215.482 68.5607 213.413 68.8185C211.344 69.0763 209.348 69.7285 207.544 70.737C203.88 72.7521 202.358 74.9003 200.875 78.6396Z" fill="#1D1715"/>
            <path d="M216.433 81.555C216.589 81.188 216.825 80.8578 217.125 80.587C217.425 80.3162 217.783 80.1112 218.173 79.9863C218.566 79.8691 218.981 79.8353 219.389 79.8871C219.796 79.9389 220.188 80.0752 220.536 80.2865C221.365 80.8852 221.934 81.759 222.132 82.7386C222.442 83.8728 222.478 85.0601 222.238 86.2098C222.127 86.9268 221.814 87.6008 221.335 88.1593C221.092 88.4323 220.78 88.6395 220.429 88.7604C220.078 88.8813 219.701 88.9116 219.334 88.8483C218.939 88.707 218.579 88.488 218.277 88.2052C217.975 87.9224 217.738 87.5821 217.58 87.206C217.04 86.2575 216.629 85.2467 216.355 84.1979C216.103 83.3295 216.131 82.4082 216.433 81.555Z" fill="#E0876B"/>
            <path d="M202.082 76.6086L202.444 76.0889C202.606 75.781 202.842 75.5143 203.131 75.3102C203.42 75.1062 203.755 74.9706 204.109 74.9145C204.517 74.9632 204.903 75.1214 205.222 75.3712C213.636 79.536 212.613 81.6209 214.898 85.8158C213.483 84.6614 211.845 83.7877 210.078 83.2448C210.565 84.0071 211.067 84.7657 211.558 85.5425C211.08 85.0184 210.497 84.594 209.843 84.2953C209.189 83.9966 208.479 83.8301 207.755 83.806C206.316 83.7504 204.881 83.6072 203.461 83.3773C202.751 83.2505 202.09 82.9445 201.543 82.4906C200.997 82.0367 200.586 81.4512 200.351 80.794C200.275 80.0141 200.392 79.2279 200.693 78.5002C200.994 77.7725 201.47 77.1242 202.082 76.6086Z" fill="#1D1715"/>
            <path d="M212.887 78.4247L213.377 78.2039C213.631 78.0517 213.918 77.9591 214.216 77.9335C214.513 77.908 214.813 77.9503 215.09 78.057C215.36 78.2609 215.564 78.5337 215.68 78.8442C219.819 85.3041 218.159 86.3672 217.913 90.3069C217.42 88.8965 216.642 87.5938 215.624 86.4738C215.631 87.2195 215.65 87.9689 215.653 88.7265C215.547 88.1548 215.32 87.61 214.987 87.1258C214.654 86.6416 214.222 86.2282 213.717 85.9111C212.715 85.2744 211.756 84.5773 210.845 83.8241C210.396 83.4395 210.061 82.9469 209.874 82.3966C209.687 81.8463 209.656 81.2581 209.782 80.6921C210.076 80.1042 210.511 79.592 211.051 79.1977C211.591 78.8035 212.22 78.5385 212.887 78.4247Z" fill="#1D1715"/>
            <path d="M108.754 123.402V127.58L91.1914 121.413V117.205L108.754 123.402Z" fill="#FDF4D7"/>
            <path d="M140.615 116.023V120.518L108.754 127.954V123.198L140.615 116.023Z" fill="#FFC743"/>
            <path d="M140.615 116.024L121.594 110.877L91.1914 117.036L108.754 123.198L140.615 116.024Z" fill="#D7A227"/>
            <path d="M108.754 123.199V123.804L91.1914 117.494V117.037L108.754 123.199Z" fill="#AC821D"/>
            <path d="M108.754 127.347V127.954L91.1914 121.642V121.188L108.754 127.347Z" fill="#AC821D"/>
            <path d="M108.754 124.571C103.134 122.429 96.9037 120.209 91.1914 118.312C96.8089 120.454 103.042 122.674 108.754 124.571Z" fill="#E4DFBF"/>
            <path d="M108.754 125.295C103.134 123.154 96.9037 120.931 91.1914 119.039C96.8089 121.178 103.042 123.401 108.754 125.295Z" fill="#E4DFBF"/>
            <path d="M108.754 126.019C103.134 123.881 96.9037 121.658 91.1914 119.764C96.8089 121.905 103.042 124.123 108.754 126.019Z" fill="#E4DFBF"/>
            <path d="M108.754 126.742C103.134 124.603 96.9037 122.383 91.1914 120.486C96.8089 122.628 103.042 124.848 108.754 126.742Z" fill="#E4DFBF"/>
            <path d="M108.754 117.523V121.701L91.1914 115.535V111.326L108.754 117.523Z" fill="#FDF4D7"/>
            <path d="M140.615 110.145V114.639L108.754 122.076V117.319L140.615 110.145Z" fill="#4A9A91"/>
            <path d="M140.615 110.145L121.594 104.998L91.1914 111.16L108.754 117.319L140.615 110.145Z" fill="#4EC4B6"/>
            <path d="M108.754 117.32V117.925L91.1914 111.615V111.16L108.754 117.32Z" fill="#309084"/>
            <path d="M108.754 121.468V122.076L91.1914 115.763V115.309L108.754 121.468Z" fill="#309084"/>
            <path d="M108.754 118.692C103.134 116.551 96.9037 114.33 91.1914 112.434C96.8089 114.575 103.042 116.795 108.754 118.692Z" fill="#E4DFBF"/>
            <path d="M108.754 119.416C103.134 117.277 96.9037 115.054 91.1914 113.16C96.8089 115.299 103.042 117.519 108.754 119.416Z" fill="#E4DFBF"/>
            <path d="M108.754 120.139C103.134 118.001 96.9037 115.778 91.1914 113.889C96.8089 116.03 103.042 118.248 108.754 120.144V120.139Z" fill="#E4DFBF"/>
            <path d="M108.754 120.866C103.134 118.724 96.9037 116.504 91.1914 114.607C96.8089 116.749 103.042 118.969 108.754 120.866Z" fill="#E4DFBF"/>
            <g filter="url(#filter0_d_35419_37928)">
                <rect width="26.097" height="40.2151" transform="matrix(1.04684 0.354539 -1.04684 0.354539 181.773 123.631)" fill="white"/>
            </g>
            <rect width="17.1128" height="0.64173" rx="0.320865" transform="matrix(1.04684 0.354539 -1.04684 0.354539 171.473 130.152)" fill="#BDCCF8"/>
            <rect width="17.1128" height="0.64173" rx="0.320865" transform="matrix(1.04684 0.354539 -1.04684 0.354539 168.336 131.215)" fill="#BDCCF8"/>
            <rect width="17.1128" height="0.64173" rx="0.320865" transform="matrix(1.04684 0.354539 -1.04684 0.354539 165.203 132.277)" fill="#BDCCF8"/>
            <rect width="8.5564" height="0.64173" rx="0.320865" transform="matrix(1.04684 0.354539 -1.04684 0.354539 166.539 134.855)" fill="#BDCCF8"/>
            <rect width="5.56166" height="0.64173" rx="0.320865" transform="matrix(1.04684 0.354539 -1.04684 0.354539 168.336 139.406)" fill="#BDCCF8"/>
            <g filter="url(#filter1_d_35419_37928)">
                <rect width="26.097" height="40.2151" transform="matrix(1.05629 0.357737 -1.05629 0.357737 177.922 125.705)" fill="white"/>
                <g clip-path="url(#clip2_35419_37928)">
                    <path d="M172.074 122.52L173.447 123.053L173.802 122.915L172.062 122.24L169.271 123.324L171.01 123.999L171.365 123.861L169.992 123.328L171.154 122.877L172.534 123.413L172.889 123.275L171.509 122.74L172.074 122.52Z" fill="#E11A81"/>
                    <path d="M173.957 124.486C174.365 124.328 174.436 124.122 174.168 123.874C173.874 123.591 173.907 123.545 174.082 123.477C174.209 123.428 174.412 123.39 174.659 123.486C174.858 123.563 174.867 123.627 174.691 123.72L174.605 123.765L175.028 123.879L175.109 123.834C175.415 123.664 175.385 123.486 175.024 123.346C174.633 123.194 174.085 123.195 173.691 123.347C173.505 123.42 173.401 123.514 173.402 123.612C173.406 123.692 173.448 123.757 173.587 123.903C173.715 124.03 173.758 124.092 173.764 124.155C173.764 124.235 173.694 124.301 173.551 124.356C173.247 124.474 172.781 124.47 172.465 124.348C172.155 124.228 172.121 124.06 172.386 123.957L172.691 123.838L172.332 123.699L172.027 123.817C171.579 123.991 171.611 124.297 172.096 124.485C172.609 124.685 173.443 124.686 173.957 124.486Z" fill="#E11A81"/>
                    <path d="M174.674 124.784L175.325 125.036C175.836 125.235 176.79 125.24 177.287 125.047C177.52 124.957 177.674 124.8 177.67 124.657C177.665 124.588 177.627 124.519 177.556 124.45C177.478 124.369 177.379 124.305 177.262 124.259L176.277 123.877L173.485 124.961L173.851 125.103L174.674 124.784ZM176.288 124.157L176.9 124.395C177.279 124.542 177.288 124.76 176.921 124.903C176.57 125.039 176.034 125.036 175.673 124.896L175.029 124.646L176.288 124.157Z" fill="#E11A81"/>
                    <path d="M183.295 128.492L181.922 127.959L183.083 127.508L184.463 128.044L184.818 127.906L183.438 127.37L184.003 127.151L185.376 127.684L185.732 127.546L183.992 126.871L181.2 127.955L182.94 128.63L183.295 128.492Z" fill="#E11A81"/>
                    <path d="M181.194 127.49C180.629 127.454 180.367 127.411 180.114 127.312C179.636 127.127 179.54 126.858 179.82 126.635C179.83 126.627 179.838 126.62 179.848 126.612C179.849 126.611 179.85 126.611 179.85 126.611C179.923 126.559 180.016 126.51 180.13 126.466C180.244 126.422 180.37 126.386 180.502 126.358C180.504 126.357 180.504 126.357 180.505 126.357C180.525 126.353 180.545 126.349 180.564 126.346C181.138 126.237 181.833 126.275 182.31 126.46C182.563 126.558 182.674 126.66 182.767 126.879L182.79 126.935L183.291 126.897L183.269 126.845C183.165 126.59 183.003 126.448 182.672 126.319C182.671 126.319 182.67 126.319 182.668 126.318C182.289 126.171 181.775 126.09 181.224 126.092C180.673 126.093 180.158 126.176 179.775 126.325C179.774 126.325 179.771 126.326 179.77 126.327C179.768 126.327 179.766 126.328 179.765 126.329C179.381 126.478 179.168 126.677 179.164 126.891C179.16 127.105 179.367 127.304 179.747 127.452C179.748 127.452 179.75 127.453 179.751 127.453C180.081 127.582 180.449 127.644 181.105 127.685L181.24 127.694L181.337 127.499L181.194 127.49Z" fill="#E11A81"/>
                    <path d="M179.786 125.183C179.136 124.93 178.023 124.935 177.357 125.194L175.722 125.829L176.088 125.971L177.143 125.561L178.791 126.201L177.735 126.61L178.105 126.754L179.707 126.131C180.403 125.861 180.438 125.436 179.786 125.183ZM177.497 125.424L177.723 125.336C178.209 125.147 178.956 125.142 179.424 125.324C179.895 125.506 179.858 125.786 179.337 125.988L179.144 126.063L177.497 125.424Z" fill="#E11A81"/>
                    <path d="M182.725 128.971L183.075 128.947L182.601 128.763L182.26 128.791L181.485 128.49L178.693 129.574L180.432 130.249L180.788 130.111L179.415 129.578L180.576 129.127L181.956 129.663L182.311 129.525L180.931 128.989L181.496 128.77L182.876 129.306L183.231 129.168L182.725 128.971Z" fill="#E11A81"/>
                    <path d="M177.876 127.032C177.225 126.78 176.113 126.785 175.447 127.043L173.812 127.678L174.178 127.82L175.813 127.186C176.299 126.997 177.046 126.991 177.514 127.173C177.985 127.356 177.948 127.635 177.427 127.837L175.825 128.46L176.194 128.603L177.797 127.981C178.492 127.711 178.528 127.285 177.876 127.032Z" fill="#E11A81"/>
                    <path d="M178.645 127.663L179.565 128.02L177.128 128.967L177.501 129.112L179.939 128.165L180.88 128.531L181.235 128.393L179 127.525L178.645 127.663Z" fill="#E11A81"/>
                    <path d="M175.052 125.937C174.401 125.684 173.289 125.689 172.623 125.948L170.988 126.582L171.354 126.725L172.409 126.315L174.056 126.954L173.001 127.364L173.37 127.507L174.973 126.885C175.668 126.615 175.704 126.19 175.052 125.937ZM174.41 126.817L172.763 126.178L172.989 126.09C173.475 125.901 174.221 125.896 174.689 126.077C175.161 126.26 175.124 126.539 174.603 126.742L174.41 126.817L174.41 126.817Z" fill="#E11A81"/>
                    <path d="M171.464 126.109C171.872 125.95 171.943 125.744 171.675 125.497C171.381 125.214 171.413 125.168 171.589 125.1C171.716 125.051 171.918 125.012 172.165 125.108C172.365 125.186 172.374 125.249 172.198 125.342L172.112 125.388L172.535 125.501L172.615 125.456C172.922 125.286 172.891 125.109 172.531 124.969C172.14 124.817 171.591 124.817 171.198 124.97C171.012 125.043 170.908 125.136 170.909 125.235C170.912 125.315 170.954 125.38 171.094 125.526C171.221 125.653 171.264 125.714 171.271 125.777C171.271 125.857 171.201 125.923 171.058 125.979C170.754 126.097 170.288 126.093 169.972 125.97C169.662 125.85 169.628 125.682 169.893 125.579L170.197 125.461L169.84 125.322L169.535 125.44C169.087 125.614 169.118 125.92 169.603 126.108C170.115 126.308 170.95 126.308 171.464 126.109Z" fill="#E11A81"/>
                    <path d="M176.861 123.802C177.246 123.952 177.764 124.033 178.32 124.032C178.875 124.03 179.395 123.946 179.783 123.795C180.167 123.646 180.378 123.446 180.378 123.23C180.377 123.015 180.163 122.813 179.776 122.663C178.986 122.356 177.647 122.359 176.851 122.668C176.062 122.974 176.067 123.494 176.861 123.802ZM179.417 122.805C180.034 123.044 180.036 123.419 179.421 123.657C178.8 123.898 177.833 123.901 177.22 123.663C176.601 123.423 176.598 123.047 177.213 122.809C177.834 122.568 178.803 122.566 179.417 122.805Z" fill="#0C419A"/>
                    <path d="M186.635 127.843C187.048 127.683 187.048 127.422 186.635 127.262L181.657 125.323L182.912 124.836C183.607 124.566 183.442 124.063 182.79 123.81C182.139 123.557 181.027 123.562 180.361 123.821L178.726 124.456L179.092 124.598L180.727 123.963C181.213 123.774 181.96 123.769 182.428 123.95C182.899 124.133 183.063 124.491 182.542 124.693L180.931 125.318L186.29 127.395C186.504 127.478 186.483 127.618 186.269 127.701L183.406 128.813L183.772 128.955L186.635 127.843Z" fill="#0C419A"/>
                    <path d="M166.132 124.423C165.918 124.34 165.929 124.204 166.143 124.121L173.921 121.101C174.262 120.969 174.731 120.966 175.062 121.095C175.431 121.238 175.437 121.451 175.076 121.591L173.21 122.316L173.58 122.459L175.449 121.734C175.676 121.645 175.821 121.619 176.067 121.62C176.307 121.622 176.533 121.66 176.707 121.728C177.05 121.861 177.034 122.067 176.671 122.208L174.802 122.934L175.169 123.076L177.07 122.338C177.588 122.137 177.591 121.787 177.078 121.587C176.826 121.49 176.453 121.431 176.082 121.429C175.987 121.428 175.911 121.43 175.825 121.437C175.836 121.412 175.842 121.389 175.843 121.358L175.843 121.356C175.839 121.287 175.811 121.219 175.761 121.158L175.759 121.155C175.688 121.083 175.577 121.016 175.428 120.959C174.895 120.751 174.065 120.762 173.498 120.982L168.97 122.74L165.777 123.979C165.364 124.139 165.364 124.4 165.777 124.561L168.56 125.641L168.915 125.503L166.132 124.423Z" fill="#0C419A"/>
                </g>
                <rect width="17.1128" height="0.64173" rx="0.320865" transform="matrix(1.05629 0.357737 -1.05629 0.357737 167.621 132.227)" fill="#BDCCF8"/>
                <rect width="17.1128" height="0.64173" rx="0.320865" transform="matrix(1.05629 0.357737 -1.05629 0.357737 164.488 133.289)" fill="#BDCCF8"/>
                <rect width="17.1128" height="0.64173" rx="0.320865" transform="matrix(1.05629 0.357737 -1.05629 0.357737 161.355 134.35)" fill="#BDCCF8"/>
                <rect width="8.5564" height="0.64173" rx="0.320865" transform="matrix(1.05629 0.357737 -1.05629 0.357737 162.695 136.93)" fill="#BDCCF8"/>
                <rect width="5.56166" height="0.64173" rx="0.320865" transform="matrix(1.05629 0.357737 -1.05629 0.357737 164.488 141.48)" fill="#BDCCF8"/>
            </g>
            <path d="M134.889 139.912L161.801 131.744L160.922 130.836L134.423 138.258C133.362 138.605 133.712 139.731 134.889 139.912Z" fill="#006F89"/>
            <g filter="url(#filter2_d_35419_37928)">
                <path d="M154.547 146.688L134.188 139.685L161.836 129.952C161.932 129.92 162.038 129.92 162.134 129.952L181.35 136.419L154.547 146.688Z" fill="#006F89"/>
            </g>
            <path d="M154.547 146.491L180.991 136.28L180.982 135.043L154.547 145.357V146.491Z" fill="#BDC6E3"/>
            <path d="M154.547 146.465L135.395 139.938C134.905 139.77 134.072 139.334 134.103 138.816C134.139 138.209 134.716 138.424 135.292 138.618L154.547 145.131L154.547 146.465Z" fill="#E8ECFF"/>
            <path d="M154.547 145.327L134.188 138.315L161.836 128.591C161.932 128.558 162.038 128.558 162.134 128.591L181.35 135.057L154.547 145.327Z" fill="#07C3F0"/>
            <path d="M155.906 136.205L158.847 137.238L168.157 133.39L165.409 132.445L155.906 136.205Z" fill="white"/>
            <path d="M156.46 133.39L165.878 137.28L168.647 136.205L158.984 132.445L156.46 133.39Z" fill="white"/>
            <path d="M158.524 143.77L138.633 136.736L141.207 135.828L161.098 142.862L158.524 143.77Z" fill="white"/>
        </g>
    </g>
    <defs>
        <filter id="filter0_d_35419_37928" x="139.676" y="123.631" width="69.418" height="24.059" filterUnits="userSpaceOnUse" color-interpolation-filters="sRGB">
            <feFlood flood-opacity="0" result="BackgroundImageFix"/>
            <feColorMatrix in="SourceAlpha" type="matrix" values="0 0 0 0 0 0 0 0 0 0 0 0 0 0 0 0 0 0 127 0" result="hardAlpha"/>
            <feOffset dy="0.549202"/>
            <feComposite in2="hardAlpha" operator="out"/>
            <feColorMatrix type="matrix" values="0 0 0 0 0.466667 0 0 0 0 0.580392 0 0 0 0 0.905882 0 0 0 0.3 0"/>
            <feBlend mode="normal" in2="BackgroundImageFix" result="effect1_dropShadow_35419_37928"/>
            <feBlend mode="normal" in="SourceGraphic" in2="effect1_dropShadow_35419_37928" result="shape"/>
        </filter>
        <filter id="filter1_d_35419_37928" x="135.441" y="120.086" width="70.0469" height="29.891" filterUnits="userSpaceOnUse" color-interpolation-filters="sRGB">
            <feFlood flood-opacity="0" result="BackgroundImageFix"/>
            <feColorMatrix in="SourceAlpha" type="matrix" values="0 0 0 0 0 0 0 0 0 0 0 0 0 0 0 0 0 0 127 0" result="hardAlpha"/>
            <feOffset dy="0.549202"/>
            <feComposite in2="hardAlpha" operator="out"/>
            <feColorMatrix type="matrix" values="0 0 0 0 0.466667 0 0 0 0 0.580392 0 0 0 0 0.905882 0 0 0 0.3 0"/>
            <feBlend mode="normal" in2="BackgroundImageFix" result="effect1_dropShadow_35419_37928"/>
            <feBlend mode="normal" in="SourceGraphic" in2="effect1_dropShadow_35419_37928" result="shape"/>
        </filter>
        <filter id="filter2_d_35419_37928" x="134.188" y="129.928" width="47.1641" height="17.1267" filterUnits="userSpaceOnUse" color-interpolation-filters="sRGB">
            <feFlood flood-opacity="0" result="BackgroundImageFix"/>
            <feColorMatrix in="SourceAlpha" type="matrix" values="0 0 0 0 0 0 0 0 0 0 0 0 0 0 0 0 0 0 127 0" result="hardAlpha"/>
            <feOffset dy="0.366947"/>
            <feComposite in2="hardAlpha" operator="out"/>
            <feColorMatrix type="matrix" values="0 0 0 0 0.466667 0 0 0 0 0.580392 0 0 0 0 0.905882 0 0 0 0.3 0"/>
            <feBlend mode="normal" in2="BackgroundImageFix" result="effect1_dropShadow_35419_37928"/>
            <feBlend mode="normal" in="SourceGraphic" in2="effect1_dropShadow_35419_37928" result="shape"/>
        </filter>
        <clipPath id="clip0_35419_37928">
            <rect width="360" height="258" fill="white"/>
        </clipPath>
        <clipPath id="clip1_35419_37928">
            <rect width="360" height="258" fill="white"/>
        </clipPath>
        <clipPath id="clip2_35419_37928">
            <rect width="17.2513" height="9.88943" fill="white" transform="matrix(1.01564 0.394258 -1.01564 0.394258 173.695 120.086)"/>
        </clipPath>
    </defs>
</svg>
