<svg width="360" height="258" viewBox="0 0 360 258" fill="none" xmlns="http://www.w3.org/2000/svg">
    <g clip-path="url(#clip0_35419_38875)">
        <g clip-path="url(#clip1_35419_38875)">
            <path d="M40.8705 255.181C38.7006 253.803 36.5482 252.351 34.4134 250.825C8.2874 232.14 -9.98189 205.15 -16.199 176.052C-18.3606 165.94 -19.0736 155.31 -15.4982 145.513C-11.3868 134.251 -1.94123 125.04 8.64301 117.742C30.4631 102.696 57.5176 94.5852 84.728 89.8977C101.526 87.0042 118.606 85.3103 135.169 81.5099C188.948 69.1907 213.275 20.0447 264.313 4.31463C298.548 -6.23523 335.759 5.12462 371.371 11.2026C416.171 18.8498 464.42 18.5156 503.644 39.0209C528.38 51.9561 547.047 72.0164 565.093 91.721C576.697 104.393 588.837 118.429 588.998 134.695C589.221 157.057 568.173 177.182 552.948 193.404C504.892 244.604 564.5 297.215 455.686 295.687C401.358 294.917 347.116 286.294 293.822 277.687C209.966 264.151 115.542 302.64 40.8705 255.181Z" fill="#F1F5FF"/>
            <path d="M67.1563 148.066C67.0973 165.677 135.999 180.253 221.051 180.618C306.102 180.983 375.099 166.998 375.156 149.392C375.213 131.785 306.784 119.341 221.73 118.984C136.676 118.628 67.2153 130.46 67.1563 148.066Z" fill="#E7ECFA"/>
            <path fill-rule="evenodd" clip-rule="evenodd" d="M64.3984 139.627C64.3984 139.39 64.1985 139.197 63.9519 139.197L53.2347 139.197C52.9881 139.197 52.7882 139.39 52.7882 139.627C52.7882 139.865 52.9881 140.058 53.2347 140.058L63.9519 140.058C64.1985 140.058 64.3984 139.865 64.3984 139.627Z" fill="#E7ECFA"/>
            <path fill-rule="evenodd" clip-rule="evenodd" d="M60.0469 142.887C60.0469 142.65 59.8469 142.457 59.6003 142.457L48.8831 142.457C48.6365 142.457 48.4366 142.65 48.4366 142.887C48.4366 143.125 48.6365 143.317 48.8831 143.317L59.6003 143.317C59.8469 143.317 60.0469 143.125 60.0469 142.887Z" fill="#E7ECFA"/>
            <path fill-rule="evenodd" clip-rule="evenodd" d="M57.1445 146.153C57.1445 145.915 56.9446 145.723 56.698 145.723L45.9808 145.723C45.7342 145.723 45.5342 145.915 45.5342 146.153C45.5342 146.39 45.7342 146.583 45.9808 146.583L56.698 146.583C56.9446 146.583 57.1445 146.39 57.1445 146.153Z" fill="#E7ECFA"/>
            <path fill-rule="evenodd" clip-rule="evenodd" d="M58.1133 149.411C58.1133 149.173 57.9134 148.98 57.6667 148.98L48.4008 148.98C48.1542 148.98 47.9543 149.173 47.9543 149.411C47.9543 149.648 48.1542 149.841 48.4008 149.841L57.6667 149.841C57.9134 149.841 58.1133 149.648 58.1133 149.411Z" fill="#E7ECFA"/>
            <path fill-rule="evenodd" clip-rule="evenodd" d="M61.4961 152.676C61.4961 152.439 61.2962 152.246 61.0495 152.246L51.7836 152.246C51.537 152.246 51.3371 152.439 51.3371 152.676C51.3371 152.914 51.537 153.106 51.7836 153.106L61.0495 153.106C61.2962 153.106 61.4961 152.914 61.4961 152.676Z" fill="#E7ECFA"/>
            <path d="M226.588 140.333C224.648 104.097 247.477 81.8556 269.352 59.0729C288.799 50.0914 320.727 63.1111 351.55 67.3429C352.261 67.4145 352.949 67.6827 353.562 68.1272C354.175 68.5717 354.697 69.1807 355.088 69.908C355.479 70.6352 355.729 71.4615 355.818 72.324C355.907 73.1864 355.834 74.0623 355.603 74.885C347.37 104.412 340.204 146.441 315.201 148.65L226.588 140.333Z" fill="#63CFE9"/>
            <path d="M355.603 74.8859C355.724 74.4485 355.803 73.9951 355.837 73.5352C316.416 125.066 226.586 140.334 226.586 140.334L315.194 148.651C340.204 146.442 347.371 104.413 355.603 74.8859Z" fill="#87DEF2"/>
            <path d="M161.277 188.9C175.736 181.977 189.227 167.103 209.169 155.562C215.505 150.561 216.686 149.419 222.047 158.835C223.473 162.886 221.057 168.639 217.496 170.718C194.984 183.844 176.588 189.637 163.775 196.317C161.205 197.658 158.575 190.531 161.277 188.9Z" fill="#172E78"/>
            <path d="M213.81 152.831C211.532 155.808 211.724 158.256 211.401 160.688C215.062 165.766 222.691 174.751 223.913 170.065C225.441 164.207 253.131 153.164 262.885 146.648C270.688 141.434 273.606 129.669 270.44 125.679C267.274 121.688 243.799 130.432 243.799 130.432C232.281 138.933 214.561 151.85 213.81 152.831Z" fill="#172E78"/>
            <path d="M251.705 78.9039L248.435 115.005C248.287 116.644 249.379 118.24 251.006 118.76L251.985 119.078C254.602 119.917 257.226 118.466 257.748 115.896L265.958 75.4004L251.705 78.9039Z" fill="#FB9E81"/>
            <path d="M278.296 132.878C278.296 133.084 278.234 133.285 278.12 133.456C278.005 133.627 277.843 133.76 277.653 133.838C277.462 133.917 277.253 133.937 277.051 133.897C276.85 133.857 276.664 133.757 276.519 133.612C276.374 133.466 276.275 133.281 276.235 133.079C276.195 132.877 276.215 132.668 276.294 132.478C276.373 132.288 276.506 132.125 276.677 132.011C276.849 131.897 277.05 131.836 277.255 131.836C277.392 131.836 277.528 131.863 277.654 131.915C277.78 131.968 277.895 132.044 277.992 132.141C278.088 132.238 278.165 132.353 278.217 132.479C278.269 132.606 278.296 132.741 278.296 132.878Z" fill="#FAAA91"/>
            <path d="M293.011 81.5235H260.52C256.488 81.5235 253.219 77.5713 253.219 72.6963C256.552 67.7007 257.333 65.3564 260.52 63.8674C260.52 63.8674 267.883 60.6678 276.088 59.8864C284.293 59.105 292.498 64.1843 292.498 64.1843C295.496 66.8454 298.358 68.6848 298.358 73.5614C298.358 78.4364 297.049 81.5235 293.011 81.5235Z" fill="#FAAA91"/>
            <path d="M276.457 71.7031L275.654 71.9179C273.181 72.575 267.205 71.77 266.486 69.0715C270.228 66.1388 266.132 58.1399 263.171 49.5529C262.452 46.8481 265.463 43.597 267.931 42.9383L268.736 42.7235C271.207 42.0648 275.347 44.1195 276.064 46.8179C278.565 53.4224 281.625 58.491 283.512 64.9667C284.231 67.6651 278.925 71.0444 276.457 71.7031Z" fill="#FAAA91"/>
            <path d="M267.102 63.7948L267.492 61.0598L276.088 55.9805C272.181 58.3248 272.962 63.0133 267.102 63.7948Z" fill="#E37B66"/>
            <path d="M275.588 53.5106C275.588 53.5106 285.547 45.8929 282.427 39.4135C279.308 32.9342 277.219 32.8942 277.219 32.8942L275.057 35.4655L275.588 53.5106Z" fill="#869AC0"/>
            <path d="M257.046 49.5911L256.331 48.6656C256.249 48.5584 256.294 48.4017 256.421 48.3554L263.209 45.8872C263.44 45.8031 263.589 46.1297 263.375 46.2498L257.302 49.6435C257.215 49.6919 257.106 49.6696 257.046 49.5911Z" fill="#0F1F59"/>
            <path d="M259.221 52.5304L256.763 41.7605C255.632 35.2212 259.605 31.2945 265.355 30.3048L265.953 30.5308C271.71 29.5347 277.135 31.5061 278.266 38.0453L277.805 49.6267C278.701 54.7531 263.791 71.1967 259.221 52.5304Z" fill="#FAAA91"/>
            <path d="M280.899 44.7694C280.926 42.7468 279.91 41.0935 278.631 41.0768C277.352 41.06 276.293 42.6861 276.267 44.7088C276.24 46.7314 277.256 48.3847 278.535 48.4014C279.814 48.4182 280.873 46.7921 280.899 44.7694Z" fill="#FAAA91"/>
            <path d="M266.584 33.9757C266.584 33.9757 269.721 37.5267 272.064 38.5091C273.615 39.1568 275.057 42.0906 276.123 44.9009C276.755 46.5716 279.204 46.345 279.505 44.5847C280.414 39.3631 280.43 31.9973 274.756 27.9508C269.761 24.3897 265.539 27.6465 265.539 27.6465L266.584 33.9757Z" fill="#869AC0"/>
            <path d="M252.731 44.5299C252.776 44.8537 252.92 45.1554 253.145 45.3932C253.369 45.631 253.662 45.793 253.982 45.8568C254.303 45.9206 254.635 45.8829 254.934 45.7491C255.232 45.6153 255.481 45.3919 255.647 45.11C256.823 43.0572 258.628 40.8461 261.228 39.9826C266.62 38.2029 269.66 36.0666 269.309 33.5173C269.309 33.5173 270.229 29.3006 269.393 28.4128C268.558 27.525 263.59 23.909 257.097 30.0275C252.445 34.4135 252.176 40.3945 252.731 44.5299Z" fill="#8EA3CB"/>
            <path d="M272.527 46.804L271.008 46.8016L272.515 46.9924C272.571 46.9995 272.621 46.9556 272.621 46.8987C272.621 46.8465 272.579 46.8041 272.527 46.804Z" fill="#E37B66"/>
            <path d="M272.503 47.6836L271.115 47.0674L272.416 47.851C272.465 47.8803 272.528 47.8603 272.551 47.8083C272.572 47.7606 272.551 47.7047 272.503 47.6836Z" fill="#E37B66"/>
            <path d="M272.369 45.8707L271.07 46.658L272.457 46.0379C272.509 46.0147 272.529 45.9512 272.499 45.9025C272.472 45.8579 272.414 45.8436 272.369 45.8707Z" fill="#E37B66"/>
            <path d="M258.595 49.6324L259.235 49.4618L258.543 49.4375L258.595 49.6324Z" fill="#E37B66"/>
            <path d="M258.504 49.1465L259.057 49.2335L258.535 48.9473L258.504 49.1465Z" fill="#E37B66"/>
            <path d="M258.829 50.0165L259.212 49.6168L258.684 49.877L258.829 50.0165Z" fill="#E37B66"/>
            <path d="M258.504 43.833C259.596 43.5262 260.715 43.3975 261.857 43.3975C262.099 43.3975 262.344 43.3287 262.583 43.3007C262.96 43.2566 263.342 43.2273 263.706 43.1144C264.296 42.9312 264.934 42.6261 265.428 42.2555C265.852 41.9378 266.369 41.7337 266.822 41.457C267.152 41.2557 267.524 41.1328 267.911 41.1328" stroke="#E37B66" stroke-opacity="0.7" stroke-width="0.2" stroke-linecap="round"/>
            <path d="M259.285 43.1515C260.102 42.9222 260.938 42.8259 261.792 42.8259C261.973 42.8259 262.156 42.7745 262.335 42.7536C262.617 42.7206 262.902 42.6987 263.174 42.6143C263.615 42.4773 264.093 42.2493 264.462 41.9721C264.779 41.7346 265.165 41.5821 265.504 41.3752C265.75 41.2247 266.029 41.1328 266.318 41.1328" stroke="#E37B66" stroke-opacity="0.7" stroke-width="0.149524" stroke-linecap="round"/>
            <circle cx="260.254" cy="48.6946" r="2.82571" transform="rotate(3.55868 260.254 48.6946)" fill="#E8E2E2" fill-opacity="0.5" stroke="#0F1F59" stroke-width="0.6"/>
            <path d="M270.994 47.4041C270.884 49.1771 269.357 50.525 267.584 50.4147C265.811 50.3044 264.463 48.7778 264.573 47.0048C264.684 45.2319 266.21 43.884 267.983 43.9943C269.756 44.1045 271.104 45.6312 270.994 47.4041Z" fill="#E8E2E2" fill-opacity="0.5" stroke="#0F1F59" stroke-width="0.6"/>
            <path d="M262.841 48.073C262.875 47.4879 264.19 47.0955 264.631 47.5911" stroke="#0F1F59" stroke-width="0.629991" stroke-linecap="round"/>
            <path d="M270.327 46.4661L269.613 45.5406C269.53 45.4334 269.575 45.2767 269.703 45.2304L276.49 42.7622C276.721 42.6781 276.871 43.0047 276.656 43.1248L270.583 46.5185C270.496 46.5669 270.388 46.5446 270.327 46.4661Z" fill="#0F1F59"/>
            <path d="M294.496 115.16L293.843 108.467L260.997 111.055L244.353 126.33C241.799 129.512 248.246 132.233 247.334 136.096C244.405 148.506 250.675 153.521 263.695 153.521C276.715 153.521 291.731 149.726 294.441 136.091C295.224 132.174 295.593 118.368 294.496 115.16Z" fill="#122870"/>
            <path d="M294.548 89.3278C292.1 84.6771 291.314 78.1681 289.035 74.8635C288.197 73.6447 286.622 73.5158 285.648 74.5946L274.988 83.46C273.309 85.3183 271.689 85.3183 270.012 83.46L265.133 74.5946C264.159 73.5158 262.587 73.6399 261.745 74.8635C259.467 78.1681 258.438 81.3667 257.725 84.8925C257.424 86.3947 257.395 87.8318 257.725 89.3278C258.056 90.8239 257.99 91.8622 258.896 93.0975L260.9 97.6507L274.639 97.1113L291.937 97.3245C291.937 97.3245 296.004 92.0899 294.548 89.3278Z" fill="#AF67C7"/>
            <path d="M263.307 74.5516L264.58 62.7619C264.58 62.7619 253.036 60.6677 250.301 85.6733C253.839 89.1016 254.989 89.1898 258.115 89.1898L263.307 74.5516Z" fill="#AF67C7"/>
            <path d="M270.849 124.72C271.216 124.72 271.514 124.075 271.514 123.28C271.514 122.485 271.216 121.84 270.849 121.84C270.481 121.84 270.184 122.485 270.184 123.28C270.184 124.075 270.481 124.72 270.849 124.72Z" fill="#E38A78"/>
            <path d="M232.325 152.876C231.075 153.189 228.418 156.392 228.808 160.69C229.199 164.988 236.174 173.994 238.049 169.306C240.393 163.445 272.959 158.346 283.899 152.876C292.651 148.5 295.23 136.466 294.448 132.168C293.667 127.87 265.535 132.95 265.535 132.95C252.512 140.243 233.575 152.563 232.325 152.876Z" fill="#122870"/>
            <path d="M250.441 104.98L239.453 127.278L246.214 130.512C246.214 130.512 259.639 116.352 258.234 108.715L250.441 104.98Z" fill="#FB9E81"/>
            <path d="M281.165 58.7148C269.057 74.4552 265.481 68.6144 267.49 61.4498L261.401 63.1729C261.401 63.1729 260.06 73.7567 257.935 80.28C257.05 82.9976 261.484 81.3948 261.996 85.2834C262.528 89.3072 260.585 93.0977 260.585 96.3164C260.585 96.3164 261.06 102.616 259.285 105.21C257.509 107.804 256.55 113.415 257.722 114.978C258.895 116.541 267.099 118.494 291.714 115.368C291.714 115.368 299.243 91.8359 299.786 88.4851C301.466 78.121 281.165 58.7148 281.165 58.7148Z" fill="#AF67C7"/>
            <path d="M301.093 88.8005L294.354 115.09C294.066 116.24 292.662 116.84 291.051 116.512L290.082 116.312C287.49 115.775 285.482 113.717 285.673 111.788L288.2 82.549C288.2 82.549 288.085 72.1803 299.007 76.9169C300.312 78.2511 301.093 88.8005 301.093 88.8005Z" fill="#FAAA91"/>
            <path d="M281.164 58.7148C283.123 61.2733 286.219 65.0726 285.815 69.5706L287.339 77.1711L286.243 88.4091C292.188 89.8649 297.013 90.9964 301.872 89.1905C301.872 89.1905 301.872 72.2057 296.011 66.5291C291.454 62.1155 281.164 58.7148 281.164 58.7148Z" fill="#AF67C7"/>
            <path d="M223.207 135.704C223.207 135.704 225.511 129.957 227.185 129.55C228.858 129.142 224.548 136.509 223.207 135.704Z" fill="#E37B66"/>
            <path d="M223.887 131.272C223.887 131.272 232.26 124.405 232.17 129.476C232.17 129.476 224.757 133.162 223.887 131.272Z" fill="#E37B66"/>
            <path d="M220.781 136.937C220.781 136.937 223.298 131.094 225.015 130.959C226.732 130.824 222.013 137.546 220.781 136.937Z" fill="#E37B66"/>
            <path d="M233.966 122.334L225.852 126.647C225.852 126.647 221.269 131.121 219.448 134.165C218.867 135.135 217.594 136.376 217.989 136.699C218.568 137.177 223.462 132.434 223.462 132.434C223.462 132.434 229.401 128.889 229.568 129.019C229.638 129.073 230.294 128.935 230.533 129.337C230.727 129.675 230.797 130.071 230.729 130.455C230.662 130.839 230.462 131.187 230.163 131.438L228.299 133.045C228.299 133.045 225.266 136.173 226.591 136.983C226.795 137.108 229.427 134.596 229.427 134.596L233.358 131.816C234.183 131.233 234.943 130.563 235.626 129.818L237.021 128.295C237.641 127.619 238.01 126.75 238.065 125.834C238.12 124.918 237.859 124.011 237.325 123.264L237.252 123.163C236.891 122.658 236.362 122.298 235.761 122.146C235.159 121.994 234.523 122.061 233.966 122.334Z" fill="#FAAA91"/>
            <path d="M179.382 196.465C194.083 187.616 207.859 170.595 228.147 156.309C234.603 150.384 233.929 150.992 239.521 160.771C239.521 160.771 241.305 167.093 236.457 171.144C214.921 189.145 194.879 195.493 181.853 203.907C179.233 205.591 176.631 198.47 179.382 196.465Z" fill="#122870"/>
            <path d="M164.455 186.96L142.121 188.672C142.121 188.672 134.607 188.549 144.545 196.653C149.252 200.493 161.248 202.574 161.248 202.574C167.181 204.36 168.296 200.324 168.762 193.62C168.766 193.624 163.312 192.887 164.455 186.96Z" fill="#213378"/>
            <path d="M164.661 187.296L161.536 187.834C161.257 187.893 160.993 188.009 160.761 188.175C160.528 188.34 160.332 188.552 160.185 188.796C160.038 189.04 159.942 189.313 159.905 189.595C159.867 189.878 159.888 190.166 159.966 190.44C160.234 191.376 160.815 192.191 161.612 192.75C162.409 193.309 163.373 193.577 164.344 193.51L168.148 193.612L164.661 187.296Z" fill="#FB9E81"/>
            <path d="M180.388 195.921L171.627 199.527C171.498 199.587 171.382 199.672 171.288 199.778C171.193 199.884 171.121 200.008 171.077 200.143C171.032 200.278 171.016 200.421 171.029 200.562C171.042 200.704 171.084 200.841 171.153 200.966L172.941 204.229C173.056 204.437 173.238 204.599 173.457 204.689C173.677 204.779 173.92 204.791 174.148 204.722C179.95 204.27 183.753 202.965 186.416 201.175L180.388 195.921Z" fill="#FAAA91"/>
            <path d="M293.607 116.219C288.439 124.149 263.461 131.988 263.461 131.988L256.578 129.74L287.222 107.275L293.607 116.219Z" fill="#FAAA91"/>
            <path d="M176.948 196.984L154.742 202.987C154.742 202.987 147.027 204.423 159.25 210.584C161.982 211.962 166.277 212.605 170.049 212.9C174.269 213.23 177.836 213.124 177.836 213.124C184.359 213.703 187.158 208.338 185.935 201.439C185.935 201.439 177.286 203.239 176.948 196.984Z" fill="#122870"/>
            <path d="M248.226 149.939L212.842 144.284C210.471 143.904 210.016 142.693 211.83 141.579L229.013 131.1C230.827 129.995 234.25 129.4 236.62 129.778L272.01 135.434C274.381 135.813 274.836 137.025 273.022 138.139L255.839 148.618C254.019 149.724 250.596 150.317 248.226 149.939Z" fill="#7E95C2"/>
            <path d="M259.288 127.518L249.556 131.275C249.243 131.395 248.965 131.594 248.749 131.851C247.846 132.934 245.196 136.115 242.43 139.547C242.091 139.967 242.215 141.831 243.702 140.527C243.702 140.527 242.759 141.75 243.717 143.284C243.831 143.469 243.947 143.65 244.062 143.825C244.751 144.886 246.094 145.184 246.98 144.461C249.697 142.272 255.074 138.054 256.359 137.881C260.229 137.359 262.957 134.296 263.457 133.744C263.457 133.744 264.978 131.181 263.543 129.046L263.447 128.904C262.474 127.467 260.709 126.875 259.288 127.518Z" fill="#FAAA91"/>
            <path d="M251.877 150.207L212.617 146.916C209.986 146.695 207.01 144.194 206.002 141.357L196.455 114.468C195.446 111.631 196.773 109.491 199.405 109.711L238.653 113.001C241.283 113.222 244.26 115.723 245.269 118.559L254.815 145.448C255.837 148.288 254.507 150.428 251.877 150.207Z" fill="#D3D8FF"/>
            <path d="M249.933 150.045L210.673 146.753C208.043 146.533 205.067 144.032 204.059 141.195L194.513 114.306C193.506 111.469 194.831 109.328 197.464 109.549L236.716 112.842C239.348 113.062 242.324 115.563 243.332 118.4L252.878 145.289C253.892 148.124 252.563 150.266 249.933 150.045Z" fill="#7E95C2"/>
            <path d="M222.931 131.084C222.374 131.603 221.3 131.356 220.534 130.533C219.767 129.709 219.597 128.621 220.155 128.102C220.712 127.583 221.786 127.83 222.552 128.653C223.319 129.477 223.489 130.565 222.931 131.084Z" stroke="#DCDEFF" stroke-width="0.950192" stroke-linecap="round" stroke-linejoin="round"/>
            <g filter="url(#filter0_d_35419_38875)">
                <rect width="26.097" height="40.2151" transform="matrix(1.04684 0.354539 -1.04684 0.354539 156.273 140.533)" fill="white"/>
            </g>
            <rect width="17.1128" height="0.64173" rx="0.320865" transform="matrix(1.04684 0.354539 -1.04684 0.354539 145.973 147.055)" fill="#BDCCF8"/>
            <rect width="17.1128" height="0.64173" rx="0.320865" transform="matrix(1.04684 0.354539 -1.04684 0.354539 142.836 148.117)" fill="#BDCCF8"/>
            <rect width="17.1128" height="0.64173" rx="0.320865" transform="matrix(1.04684 0.354539 -1.04684 0.354539 139.703 149.18)" fill="#BDCCF8"/>
            <rect width="8.5564" height="0.64173" rx="0.320865" transform="matrix(1.04684 0.354539 -1.04684 0.354539 141.039 151.758)" fill="#BDCCF8"/>
            <rect width="5.56166" height="0.64173" rx="0.320865" transform="matrix(1.04684 0.354539 -1.04684 0.354539 142.836 156.309)" fill="#BDCCF8"/>
            <g filter="url(#filter1_d_35419_38875)">
                <rect width="26.097" height="40.2151" transform="matrix(1.04684 0.354539 -1.04684 0.354539 152.426 140.078)" fill="white"/>
                <g clip-path="url(#clip2_35419_38875)">
                    <path d="M150.179 142.5L151.595 142.979L151.961 142.855L150.168 142.248L147.29 143.223L149.083 143.83L149.449 143.706L148.034 143.227L149.231 142.821L150.654 143.303L151.02 143.179L149.597 142.697L150.179 142.5Z" fill="#E11A81"/>
                    <path d="M152.123 144.266C152.544 144.124 152.617 143.938 152.341 143.716C152.038 143.461 152.071 143.42 152.253 143.359C152.383 143.314 152.592 143.28 152.847 143.366C153.053 143.436 153.062 143.493 152.88 143.577L152.791 143.618L153.227 143.72L153.31 143.68C153.627 143.527 153.595 143.367 153.224 143.241C152.82 143.104 152.255 143.105 151.85 143.242C151.657 143.307 151.551 143.391 151.551 143.48C151.555 143.552 151.598 143.611 151.743 143.742C151.874 143.856 151.918 143.911 151.925 143.968C151.924 144.04 151.852 144.099 151.705 144.149C151.392 144.255 150.911 144.252 150.586 144.142C150.267 144.034 150.231 143.882 150.504 143.79L150.818 143.684L150.448 143.558L150.134 143.665C149.673 143.821 149.705 144.096 150.205 144.265C150.734 144.445 151.594 144.445 152.123 144.266Z" fill="#E11A81"/>
                    <path d="M152.863 144.534L153.534 144.761C154.061 144.94 155.044 144.945 155.556 144.771C155.797 144.69 155.955 144.549 155.951 144.42C155.946 144.358 155.907 144.296 155.833 144.234C155.753 144.161 155.651 144.103 155.53 144.062L154.516 143.719L151.637 144.694L152.015 144.821L152.863 144.534ZM154.527 143.971L155.157 144.184C155.548 144.317 155.557 144.513 155.179 144.641C154.817 144.764 154.265 144.761 153.893 144.635L153.229 144.41L154.527 143.971Z" fill="#E11A81"/>
                    <path d="M161.75 147.87L160.335 147.391L161.532 146.985L162.954 147.467L163.32 147.343L161.898 146.861L162.48 146.664L163.896 147.143L164.262 147.019L162.469 146.412L159.591 147.387L161.384 147.994L161.75 147.87Z" fill="#E11A81"/>
                    <path d="M159.579 146.97C158.998 146.937 158.727 146.899 158.466 146.81C157.974 146.644 157.875 146.401 158.164 146.201C158.174 146.194 158.182 146.187 158.193 146.18C158.193 146.18 158.194 146.179 158.195 146.179C158.27 146.133 158.366 146.089 158.483 146.049C158.6 146.009 158.73 145.977 158.867 145.952C158.868 145.952 158.869 145.951 158.87 145.951C158.89 145.947 158.91 145.944 158.931 145.941C159.522 145.844 160.238 145.877 160.73 146.044C160.991 146.132 161.105 146.224 161.201 146.421L161.225 146.471L161.741 146.437L161.719 146.39C161.611 146.161 161.444 146.033 161.103 145.917C161.102 145.917 161.101 145.917 161.099 145.916C160.708 145.784 160.179 145.711 159.61 145.712C159.043 145.714 158.512 145.788 158.117 145.922C158.116 145.923 158.113 145.923 158.112 145.924C158.11 145.924 158.108 145.925 158.106 145.926C157.711 146.06 157.492 146.239 157.487 146.431C157.483 146.624 157.697 146.803 158.088 146.936C158.089 146.936 158.091 146.937 158.092 146.937C158.433 147.052 158.811 147.109 159.488 147.146L159.627 147.153L159.727 146.978L159.579 146.97Z" fill="#E11A81"/>
                    <path d="M158.132 144.896C157.461 144.668 156.314 144.673 155.628 144.906L153.943 145.476L154.32 145.604L155.408 145.236L157.105 145.811L156.018 146.179L156.399 146.308L158.05 145.749C158.767 145.506 158.804 145.123 158.132 144.896ZM155.773 145.112L156.005 145.033C156.506 144.864 157.276 144.859 157.758 145.022C158.244 145.187 158.206 145.438 157.669 145.62L157.47 145.687L155.773 145.112Z" fill="#E11A81"/>
                    <path d="M161.159 148.3L161.52 148.278L161.032 148.113L160.679 148.137L159.881 147.867L157.003 148.842L158.796 149.449L159.162 149.325L157.747 148.845L158.944 148.44L160.366 148.921L160.732 148.797L159.31 148.316L159.893 148.119L161.315 148.6L161.681 148.476L161.159 148.3Z" fill="#E11A81"/>
                    <path d="M156.163 146.558C155.492 146.331 154.346 146.335 153.659 146.568L151.974 147.138L152.351 147.266L154.036 146.696C154.537 146.526 155.307 146.521 155.789 146.684C156.275 146.849 156.237 147.1 155.7 147.282L154.048 147.841L154.429 147.97L156.081 147.411C156.798 147.168 156.835 146.785 156.163 146.558Z" fill="#E11A81"/>
                    <path d="M156.958 147.124L157.907 147.445L155.394 148.296L155.779 148.426L158.292 147.576L159.262 147.904L159.628 147.78L157.324 147L156.958 147.124Z" fill="#E11A81"/>
                    <path d="M153.253 145.571C152.582 145.344 151.435 145.349 150.749 145.581L149.064 146.152L149.441 146.28L150.529 145.912L152.226 146.487L151.139 146.855L151.52 146.984L153.172 146.424C153.888 146.182 153.925 145.799 153.253 145.571ZM152.591 146.363L150.894 145.788L151.126 145.709C151.627 145.54 152.397 145.535 152.879 145.698C153.365 145.862 153.327 146.113 152.79 146.295L152.591 146.363L152.591 146.363Z" fill="#E11A81"/>
                    <path d="M149.556 145.727C149.976 145.584 150.05 145.399 149.773 145.176C149.471 144.922 149.504 144.881 149.685 144.819C149.816 144.775 150.025 144.741 150.279 144.827C150.485 144.897 150.494 144.954 150.313 145.037L150.224 145.078L150.66 145.18L150.743 145.14C151.059 144.987 151.027 144.827 150.656 144.701C150.253 144.565 149.687 144.565 149.282 144.703C149.09 144.768 148.983 144.852 148.984 144.941C148.988 145.013 149.031 145.071 149.175 145.202C149.306 145.317 149.35 145.372 149.358 145.429C149.357 145.501 149.285 145.56 149.137 145.61C148.824 145.716 148.344 145.712 148.018 145.602C147.699 145.494 147.664 145.343 147.937 145.251L148.251 145.144L147.882 145.019L147.568 145.126C147.106 145.282 147.139 145.557 147.638 145.726C148.166 145.906 149.027 145.906 149.556 145.727Z" fill="#E11A81"/>
                    <path d="M155.117 143.652C155.514 143.786 156.048 143.859 156.621 143.858C157.193 143.857 157.728 143.781 158.129 143.646C158.525 143.512 158.742 143.331 158.742 143.138C158.741 142.944 158.52 142.762 158.121 142.627C157.308 142.352 155.927 142.354 155.106 142.632C154.293 142.907 154.298 143.375 155.117 143.652ZM157.752 142.755C158.388 142.97 158.389 143.307 157.756 143.522C157.115 143.738 156.119 143.741 155.487 143.527C154.849 143.311 154.846 142.973 155.479 142.759C156.12 142.542 157.118 142.54 157.752 142.755Z" fill="#0C419A"/>
                    <path d="M165.192 147.286C165.618 147.142 165.618 146.908 165.192 146.763L160.062 145.02L161.355 144.582C162.071 144.34 161.901 143.887 161.229 143.659C160.559 143.432 159.412 143.437 158.725 143.669L157.04 144.24L157.418 144.368L159.103 143.797C159.604 143.627 160.373 143.622 160.856 143.786C161.341 143.95 161.511 144.271 160.974 144.453L159.313 145.016L164.837 146.884C165.058 146.958 165.035 147.084 164.815 147.159L161.864 148.158L162.241 148.286L165.192 147.286Z" fill="#0C419A"/>
                    <path d="M144.058 144.211C143.838 144.136 143.849 144.014 144.07 143.939L152.087 141.224C152.438 141.105 152.921 141.102 153.262 141.217C153.642 141.346 153.649 141.538 153.277 141.664L151.354 142.315L151.735 142.444L153.661 141.792C153.895 141.713 154.045 141.689 154.299 141.69C154.545 141.692 154.779 141.726 154.958 141.787C155.311 141.907 155.295 142.092 154.921 142.219L152.995 142.871L153.373 142.999L155.332 142.335C155.866 142.155 155.869 141.84 155.34 141.661C155.081 141.573 154.697 141.52 154.314 141.518C154.216 141.518 154.138 141.52 154.049 141.526C154.06 141.503 154.066 141.482 154.068 141.455L154.068 141.453C154.064 141.391 154.035 141.329 153.983 141.274L153.981 141.272C153.908 141.207 153.793 141.147 153.64 141.095C153.091 140.909 152.235 140.918 151.651 141.116L146.984 142.697L143.693 143.811C143.267 143.956 143.267 144.19 143.693 144.334L146.561 145.306L146.927 145.182L144.058 144.211Z" fill="#0C419A"/>
                </g>
                <rect width="17.1128" height="0.64173" rx="0.320865" transform="matrix(1.04684 0.354539 -1.04684 0.354539 142.125 146.6)" fill="#BDCCF8"/>
                <rect width="17.1128" height="0.64173" rx="0.320865" transform="matrix(1.04684 0.354539 -1.04684 0.354539 138.992 147.662)" fill="#BDCCF8"/>
                <rect width="17.1128" height="0.64173" rx="0.320865" transform="matrix(1.04684 0.354539 -1.04684 0.354539 135.859 148.723)" fill="#BDCCF8"/>
                <rect width="8.5564" height="0.64173" rx="0.320865" transform="matrix(1.04684 0.354539 -1.04684 0.354539 137.195 151.303)" fill="#BDCCF8"/>
                <rect width="5.56166" height="0.64173" rx="0.320865" transform="matrix(1.04684 0.354539 -1.04684 0.354539 138.992 155.854)" fill="#BDCCF8"/>
            </g>
            <path d="M109.389 154.285L136.301 146.117L135.422 145.209L108.923 152.631C107.862 152.978 108.212 154.104 109.389 154.285Z" fill="#006F89"/>
            <g filter="url(#filter2_d_35419_38875)">
                <path d="M129.047 161.061L108.688 154.058L136.336 144.325C136.432 144.293 136.538 144.293 136.634 144.325L155.85 150.792L129.047 161.061Z" fill="#006F89"/>
            </g>
            <path d="M129.047 160.864L155.491 150.653L155.482 149.416L129.047 159.73V160.864Z" fill="#BDC6E3"/>
            <path d="M129.047 160.838L109.895 154.311C109.405 154.144 108.572 153.707 108.603 153.189C108.639 152.582 109.216 152.797 109.792 152.992L129.047 159.505L129.047 160.838Z" fill="#E8ECFF"/>
            <path d="M129.047 159.7L108.688 152.688L136.336 142.964C136.432 142.931 136.538 142.931 136.634 142.964L155.85 149.43L129.047 159.7Z" fill="#07C3F0"/>
            <path d="M130.406 150.578L133.347 151.611L142.657 147.763L139.909 146.818L130.406 150.578Z" fill="white"/>
            <path d="M130.96 147.763L140.378 151.653L143.147 150.578L133.484 146.818L130.96 147.763Z" fill="white"/>
            <path d="M133.024 158.143L113.133 151.109L115.707 150.201L135.598 157.235L133.024 158.143Z" fill="white"/>
            <path d="M381.467 13.9355H346.723V35.0913H381.467V13.9355Z" fill="#BBBFE1" fill-opacity="0.3"/>
            <path d="M378.754 16.1445H349.438V32.8857H378.754V16.1445Z" fill="#F7F8FF"/>
            <path d="M349.312 32.9183C349.312 32.9183 355.673 31.8215 357.214 31.5284C358.755 31.2353 360.927 30.9424 362.398 31.0523C363.869 31.1622 365.901 31.6383 365.901 31.6383C365.901 31.6383 373.467 29.9171 375.078 29.8987C376.689 29.8804 379.08 30.6967 379.08 30.6967V32.9183H349.312Z" fill="#BBBFE1" fill-opacity="0.3"/>
            <path d="M354.768 21.6457C355.816 21.6457 356.665 20.7964 356.665 19.7486C356.665 18.7009 355.816 17.8516 354.768 17.8516C353.72 17.8516 352.871 18.7009 352.871 19.7486C352.871 20.7964 353.72 21.6457 354.768 21.6457Z" fill="#BBBFE1" fill-opacity="0.3"/>
        </g>
    </g>
    <defs>
        <filter id="filter0_d_35419_38875" x="114.176" y="140.533" width="69.418" height="24.059" filterUnits="userSpaceOnUse" color-interpolation-filters="sRGB">
            <feFlood flood-opacity="0" result="BackgroundImageFix"/>
            <feColorMatrix in="SourceAlpha" type="matrix" values="0 0 0 0 0 0 0 0 0 0 0 0 0 0 0 0 0 0 127 0" result="hardAlpha"/>
            <feOffset dy="0.549202"/>
            <feComposite in2="hardAlpha" operator="out"/>
            <feColorMatrix type="matrix" values="0 0 0 0 0.466667 0 0 0 0 0.580392 0 0 0 0 0.905882 0 0 0 0.3 0"/>
            <feBlend mode="normal" in2="BackgroundImageFix" result="effect1_dropShadow_35419_38875"/>
            <feBlend mode="normal" in="SourceGraphic" in2="effect1_dropShadow_35419_38875" result="shape"/>
        </filter>
        <filter id="filter1_d_35419_38875" x="110.328" y="140.078" width="69.418" height="24.059" filterUnits="userSpaceOnUse" color-interpolation-filters="sRGB">
            <feFlood flood-opacity="0" result="BackgroundImageFix"/>
            <feColorMatrix in="SourceAlpha" type="matrix" values="0 0 0 0 0 0 0 0 0 0 0 0 0 0 0 0 0 0 127 0" result="hardAlpha"/>
            <feOffset dy="0.549202"/>
            <feComposite in2="hardAlpha" operator="out"/>
            <feColorMatrix type="matrix" values="0 0 0 0 0.466667 0 0 0 0 0.580392 0 0 0 0 0.905882 0 0 0 0.3 0"/>
            <feBlend mode="normal" in2="BackgroundImageFix" result="effect1_dropShadow_35419_38875"/>
            <feBlend mode="normal" in="SourceGraphic" in2="effect1_dropShadow_35419_38875" result="shape"/>
        </filter>
        <filter id="filter2_d_35419_38875" x="108.688" y="144.301" width="47.1641" height="17.1267" filterUnits="userSpaceOnUse" color-interpolation-filters="sRGB">
            <feFlood flood-opacity="0" result="BackgroundImageFix"/>
            <feColorMatrix in="SourceAlpha" type="matrix" values="0 0 0 0 0 0 0 0 0 0 0 0 0 0 0 0 0 0 127 0" result="hardAlpha"/>
            <feOffset dy="0.366947"/>
            <feComposite in2="hardAlpha" operator="out"/>
            <feColorMatrix type="matrix" values="0 0 0 0 0.466667 0 0 0 0 0.580392 0 0 0 0 0.905882 0 0 0 0.3 0"/>
            <feBlend mode="normal" in2="BackgroundImageFix" result="effect1_dropShadow_35419_38875"/>
            <feBlend mode="normal" in="SourceGraphic" in2="effect1_dropShadow_35419_38875" result="shape"/>
        </filter>
        <clipPath id="clip0_35419_38875">
            <rect width="360" height="258" fill="white"/>
        </clipPath>
        <clipPath id="clip1_35419_38875">
            <rect width="360" height="258" fill="white"/>
        </clipPath>
        <clipPath id="clip2_35419_38875">
            <rect width="17.2512" height="9.88943" fill="white" transform="matrix(1.04684 0.354539 -1.04684 0.354539 151.852 140.311)"/>
        </clipPath>
    </defs>
</svg>
