<svg width="360" height="258" viewBox="0 0 360 258" fill="none" xmlns="http://www.w3.org/2000/svg">
    <g clip-path="url(#clip0_35419_37672)">
        <g clip-path="url(#clip1_35419_37672)">
            <path d="M-10.1295 257.213C-12.2994 255.834 -14.4517 254.382 -16.5866 252.856C-42.7126 234.171 -60.9819 207.181 -67.199 178.083C-69.3606 167.971 -70.0736 157.341 -66.4982 147.544C-62.3868 136.283 -52.9412 127.071 -42.357 119.773C-20.5368 104.727 6.5176 96.6164 33.728 91.929C50.5258 89.0355 67.6056 87.3416 84.1686 83.5411C137.948 71.2219 162.275 22.076 213.313 6.34588C247.548 -4.20398 284.759 7.15587 320.371 13.2339C365.171 20.881 413.42 20.5468 452.645 41.0522C477.38 53.9873 496.047 74.0476 514.093 93.7522C525.697 106.424 537.837 120.46 537.998 136.726C538.221 159.089 517.173 179.214 501.948 195.435C453.892 246.635 513.5 299.246 404.686 297.718C350.358 296.948 296.116 288.325 242.822 279.718C158.966 266.183 64.5417 304.671 -10.1295 257.213Z" fill="#F1F5FF"/>
            <path d="M39.3353 122.705C44.8248 144.732 67.3358 153.228 82.7776 144.732C94.0199 138.543 103.498 118.445 97.5742 103.761C91.6503 89.0764 79.8156 79.0333 67.3753 77.4863C51.3806 76.7128 35.9915 95.2391 38.1768 115.883C38.3707 118.186 38.7715 120.469 39.3748 122.705" fill="#D5E0F7" fill-opacity="0.2"/>
            <path fill-rule="evenodd" clip-rule="evenodd" d="M77.4995 117.061C75.86 118.279 73.7758 118.901 71.6545 118.806L71.0976 118.789C70.2753 120.403 69.0849 121.734 67.5944 122.664C68.7494 126.022 68.8371 129.043 67.8486 131.701C67.1154 133.706 65.7379 135.454 63.9107 136.733C67.8151 137.487 71.8941 136.968 75.4196 135.263C72.6887 132.335 74.4073 125.474 74.4947 125.125L74.4981 125.111L75.7224 125.467C75.6434 125.681 73.9452 132.117 76.5386 134.681C78.1344 133.759 79.4616 132.505 80.4089 131.024C81.9491 128.733 81.2777 125.349 80.5931 123.176C80.5931 123.176 81.5147 122.832 81.8438 122.76C82.2017 123.659 82.611 124.926 82.7433 126.338C83.6784 126.426 84.6243 126.363 85.5363 126.15C86.5607 125.912 87.5215 125.49 88.3617 124.91C89.5106 123.95 90.2315 122.646 90.389 121.241H91.7055C91.5314 122.977 90.6496 124.593 89.2306 125.777C87.5858 126.994 85.4977 127.616 83.3725 127.522L82.7828 127.535C82.7407 128.91 82.38 130.358 81.4357 131.701C80.4524 133.212 79.1021 134.503 77.4864 135.477C78.4847 136.052 79.6335 136.379 80.817 136.427C87.5176 137.127 89.071 132.354 89.1368 132.14L90.3742 132.449C89.8605 133.824 88.9225 135.038 87.6703 135.949C86.418 136.859 84.9036 137.429 83.305 137.59C82.4301 137.679 81.547 137.679 80.6721 137.59C79.0917 137.493 77.5773 136.981 76.3147 136.118C74.114 137.335 71.6016 138.018 69.0217 138.101L69.4561 179.064L67.0076 179.195L66.8891 138.231C65.6509 138.203 64.4197 138.056 63.2162 137.792C62.9558 137.739 62.698 137.678 62.4433 137.609L62.3854 137.638L62.3568 137.585C60.206 136.991 58.2762 135.864 56.792 134.325H56.7131H55.9232C54.2913 134.32 52.6948 133.896 51.3196 133.103C49.9445 132.311 48.8474 131.182 48.1562 129.849L49.2489 129.433C49.8282 130.55 50.7464 131.497 51.8973 132.163C53.0482 132.829 54.3846 133.188 55.7521 133.197C54.5191 131.531 53.6892 129.65 53.3167 127.676L54.6331 127.545C54.9842 129.563 55.8893 131.469 57.266 133.09C58.2913 132.952 59.2265 132.484 59.8988 131.772C60.8473 130.52 61.2761 129.007 61.1099 127.498L62.4264 127.367C62.6302 129.186 62.1023 131.011 60.9388 132.508C60.2515 133.251 59.3351 133.792 58.306 134.064C59.4251 135.059 60.7642 135.822 62.2295 136.306C64.2503 135.136 65.7715 133.374 66.5321 131.31C67.4027 128.978 67.3441 126.301 66.3686 123.31C65.0731 123.883 63.6482 124.183 62.2016 124.185C60.7732 124.192 59.3625 123.9 58.0808 123.331C56.7991 122.763 55.6816 121.933 54.8164 120.908L55.909 120.16C57.0744 121.524 58.7434 122.466 60.613 122.814C62.4255 123.152 64.3099 122.911 65.9444 122.135C65.5168 121.051 64.9753 119.93 64.3205 118.771L65.5448 118.201C66.1746 119.314 66.7051 120.397 67.1359 121.448C69.5171 119.789 70.9391 116.851 71.0085 113.345H72.3908C72.3632 114.895 72.0884 116.35 71.5956 117.659C72.3211 117.674 73.0469 117.599 73.7526 117.435C74.777 117.196 75.7378 116.774 76.578 116.194C77.724 115.234 78.4405 113.929 78.5921 112.525H79.9744C79.8142 114.265 78.93 115.885 77.4995 117.061Z" fill="#A8BCEB" fill-opacity="0.2"/>
            <path d="M-15.6039 76.6872C-6.28764 114.034 31.8656 128.453 57.9546 114.034C77.0228 103.555 93.142 69.4858 83.0885 44.604C73.0349 19.7221 52.9278 2.62285 31.9159 0.0393947C4.80478 -1.26848 -21.2842 30.1851 -17.5811 65.1424C-17.2448 69.0443 -16.5666 72.9117 -15.5537 76.7034" fill="#A9BCE3" fill-opacity="0.15"/>
            <path fill-rule="evenodd" clip-rule="evenodd" d="M41.4466 111.852C39.5226 110.475 38.0753 108.552 37.3215 106.335C35.92 102.332 36.6942 97.5168 39.6052 92.041L40.8205 92.6452C38.086 97.7906 37.3411 102.256 38.6153 105.919C39.3979 108.18 40.9885 110.097 43.099 111.33C44.731 110.7 46.2251 109.765 47.4918 108.571C46.2303 108.226 45.1089 107.516 44.2781 106.538C42.8614 104.608 42.2221 102.247 42.4793 99.8966L44.0262 100.07C43.8173 102.021 44.3312 103.981 45.4772 105.603C46.2889 106.52 47.4177 107.123 48.655 107.301C50.3199 105.199 51.4123 102.729 51.8328 100.116L53.3678 100.289C52.9355 102.851 51.9288 105.291 50.4178 107.439C52.0769 107.428 53.6986 106.964 55.0952 106.102C56.4917 105.239 57.6058 104.013 58.3084 102.565L59.6874 103.119C58.8437 104.839 57.512 106.294 55.8463 107.316C54.1806 108.338 52.2488 108.885 50.2739 108.895H49.3026H49.2067C47.1671 111.149 44.4382 112.722 41.412 113.388C39.9523 113.719 38.4619 113.908 36.9631 113.954L36.8192 167.008L33.8573 166.835L34.3729 113.781C31.2435 113.671 28.196 112.788 25.523 111.217C23.9946 112.332 22.16 112.991 20.2466 113.111C19.183 113.232 18.1084 113.232 17.0448 113.111C15.1179 112.889 13.2965 112.143 11.7931 110.961C10.2898 109.778 9.16657 108.209 8.55469 106.434L10.0537 106.03C10.1256 106.296 12.0083 112.487 20.1387 111.586C21.5792 111.525 22.9773 111.099 24.1919 110.35C22.2339 109.088 20.5947 107.418 19.3952 105.464C16.6851 101.375 17.9442 96.489 18.9155 93.9131C19.2993 94.0286 20.4265 94.4675 20.4265 94.4675C19.5871 97.286 18.7836 101.664 20.6543 104.621C21.7948 106.543 23.4041 108.168 25.3431 109.357C28.473 106.042 26.4224 97.7018 26.3384 97.4362L27.8134 96.9741C27.8374 97.0434 30.0918 106.238 26.7102 110.119C31.1135 112.404 36.235 113.049 41.1002 111.933C41.2162 111.907 41.3317 111.88 41.4466 111.852Z" fill="#7388CB" fill-opacity="0.2"/>
            <path d="M63.9168 111.036C70.1172 135.877 95.5112 145.451 112.835 135.877C125.513 128.903 136.189 106.255 129.515 89.707C122.84 73.1588 109.492 61.8097 95.4849 60.0851C77.4629 59.2101 60.1123 80.1205 62.5741 103.351C62.7818 105.945 63.2222 108.516 63.8905 111.036" fill="#BACEF6" fill-opacity="0.2"/>
            <path fill-rule="evenodd" clip-rule="evenodd" d="M106.988 104.124C105.142 105.589 102.796 106.339 100.406 106.229C100.2 106.229 99.9901 106.226 99.7756 106.219C98.8493 108.158 97.51 109.759 95.8331 110.881C97.1378 114.908 97.2285 118.54 96.114 121.725C95.2836 124.164 93.7151 126.291 91.6318 127.844C96.0102 128.745 100.586 128.122 104.54 126.075C101.394 122.474 103.487 113.927 103.514 113.863L104.83 114.295C104.751 114.536 102.842 122.283 105.752 125.365C107.554 124.267 109.05 122.761 110.109 120.977C111.847 118.213 111.096 114.155 110.32 111.53C110.32 111.53 111.36 111.124 111.728 111.023C112.13 112.093 112.588 113.601 112.742 115.284C113.825 115.403 114.922 115.33 115.979 115.067C117.135 114.779 118.218 114.271 119.166 113.571C120.459 112.418 121.269 110.848 121.443 109.159H122.997C122.814 111.254 121.818 113.206 120.206 114.624C118.359 116.088 116.013 116.838 113.624 116.729C113.504 116.729 113.384 116.727 113.263 116.725C113.108 116.722 112.952 116.72 112.794 116.721C112.755 118.392 112.353 120.156 111.281 121.789C110.176 123.605 108.66 125.157 106.844 126.329C107.973 127.023 109.271 127.421 110.609 127.482C118.059 128.308 119.853 122.723 119.978 122.335L119.982 122.321L121.364 122.689C120.797 124.338 119.752 125.797 118.353 126.893C116.953 127.99 115.258 128.678 113.466 128.877C112.482 128.985 111.488 128.985 110.504 128.877C108.723 128.756 107.017 128.139 105.594 127.102C103.112 128.57 100.277 129.391 97.3659 129.486L97.853 178.788L95.0885 178.953L94.9568 129.651C93.5645 129.61 92.1797 129.436 90.8232 129.131C88.011 128.509 85.476 127.044 83.5829 124.946H83.4776H82.5824C80.744 124.935 78.9463 124.423 77.3971 123.47C75.848 122.516 74.6107 121.16 73.8281 119.557L75.1577 119.024C75.8115 120.369 76.8471 121.508 78.1447 122.309C79.4424 123.11 80.949 123.541 82.4902 123.551C81.0877 121.554 80.1533 119.287 79.7521 116.907L81.1738 116.742C81.5583 119.173 82.5724 121.471 84.1226 123.425C85.2719 123.256 86.3192 122.693 87.0714 121.84C88.1179 120.323 88.5834 118.503 88.3879 116.691L89.8096 116.539C90.0563 118.725 89.4614 120.923 88.1377 122.715C87.3695 123.619 86.3308 124.275 85.1626 124.591C86.4455 125.818 87.9899 126.751 89.6815 127.331C92.0085 125.925 93.7531 123.772 94.6001 121.243C95.5725 118.451 95.512 115.246 94.4266 111.672C92.9729 112.349 91.3779 112.704 89.7588 112.709C88.1493 112.709 86.5613 112.353 85.1168 111.669C83.6722 110.986 82.4096 109.992 81.4258 108.765L82.6632 107.852C83.9735 109.496 85.8533 110.633 87.9603 111.054C89.9948 111.461 92.1104 111.175 93.9475 110.249C93.4625 108.934 92.8462 107.572 92.0988 106.166L93.4811 105.481C94.207 106.828 94.8166 108.139 95.3101 109.412C97.9964 107.412 99.6037 103.875 99.6847 99.6606H101.238C101.206 101.497 100.905 103.223 100.365 104.779C101.168 104.795 101.97 104.706 102.75 104.511C103.907 104.224 104.99 103.712 105.935 103.009C107.229 101.855 108.039 100.285 108.213 98.5957L109.779 98.6718C109.582 100.759 108.587 102.702 106.988 104.124Z" fill="#7388CB" fill-opacity="0.2"/>
            <path d="M57.055 171.594C57.1959 171.006 57.2672 170.405 57.2675 169.802C57.2675 163.013 48.2631 157.51 37.1555 157.51C26.0479 157.51 17.043 163.013 17.043 169.802C17.0431 170.405 17.1146 171.006 17.2561 171.594H57.055Z" fill="#4A9A91"/>
            <path d="M79.8167 168.573C79.9582 167.737 80.0293 166.892 80.0292 166.046C80.0292 156.47 71.0242 148.709 59.9166 148.709C48.809 148.709 39.8047 156.47 39.8047 166.046C39.8046 166.892 39.8757 167.737 40.0172 168.573H79.8167Z" fill="#50BFA5"/>
            <path d="M72.4508 179.197C72.3097 178.567 72.2385 177.925 72.2383 177.28C72.2383 170.02 81.2433 164.137 92.3508 164.137C103.458 164.137 112.463 170.02 112.463 177.28C112.463 177.925 112.391 178.567 112.25 179.197H72.4508Z" fill="#50BFA5"/>
            <path d="M59.8411 159.334C52.8036 159.334 46.5165 161.796 42.3672 165.655C40.1593 165.289 37.9228 165.107 35.6825 165.11C23.1877 165.11 13.0586 170.614 13.0586 177.403C13.0591 178.007 13.1395 178.609 13.2977 179.194H82.2259C82.3849 178.361 82.465 177.515 82.465 176.667C82.465 167.095 72.3359 159.334 59.8411 159.334Z" fill="#96D9C9"/>
            <path d="M179.179 152.16L170.174 151.596C168.519 151.497 166.524 151.22 165.342 152.339C165.147 153.458 169.742 153.646 171.932 155.002C173.924 156.105 176.155 156.746 178.449 156.874C181.626 157.201 184.617 158.072 187.856 158.023C191.094 157.973 197.714 156.607 197.591 155.696C196.371 154.534 194.847 153.713 193.181 153.319C191.611 152.972 190.01 152.773 188.4 152.725L179.179 152.16Z" fill="#04123E"/>
            <path d="M199.115 184.343H184.63C184.208 182.105 185.339 180.095 186.285 177.807C185.75 174.639 185.134 163.786 185.709 159.716C185.925 158.082 186.268 156.467 186.737 154.883C186.733 154.857 186.733 154.83 186.737 154.804H187.056L194.653 154.428L194.139 158.597L191.795 177.57C193.985 179.847 199.341 180.065 199.115 184.343Z" fill="#FFAD87"/>
            <path d="M175.827 158.597C171.304 161.815 160.098 168.163 160.098 168.163C160.026 171.253 163.779 174.837 160.571 177.808L150.055 168.193C151.34 166.291 154.228 164.865 156.552 163.836C158.155 161.182 164.303 156.518 166.739 154.517C168.375 153.128 170.168 151.922 172.085 150.923C172.267 150.83 172.461 150.76 172.661 150.715L174.563 151.883L180.289 155.419L175.827 158.597Z" fill="#FFAD87"/>
            <path d="M161.386 179.304L149.574 167.421C150.243 166.603 150.961 165.823 151.723 165.084C152.35 164.411 153.061 163.816 153.84 163.312C155.231 162.592 156.543 161.739 157.757 160.767C158.21 160.084 158.508 160.509 158.271 161.272C157.798 162.906 157.243 165.589 161.355 165.47C163.411 165.411 164.049 166.57 163.545 167.025C162.517 167.916 161.797 168.362 161.489 169.659C161.283 170.422 161.797 171.947 162.301 173.373C162.713 174.296 162.993 175.268 163.134 176.264C163.066 176.857 162.877 177.431 162.577 177.953C162.277 178.475 161.872 178.934 161.386 179.304Z" fill="white"/>
            <path d="M153.594 171.45L149.574 167.42C150.243 166.602 150.961 165.822 151.723 165.083C152.35 164.41 153.061 163.814 153.84 163.311C154.785 165.963 154.698 168.856 153.594 171.45Z" fill="#A05BB6"/>
            <path d="M161.386 179.303L157.078 174.995C158.713 173.53 160.676 172.837 162.28 173.441C162.692 174.364 162.972 175.337 163.113 176.332C162.964 177.502 162.343 178.569 161.386 179.303Z" fill="#A05BB6"/>
            <path d="M148.946 171.579C148.75 171.76 148.52 171.903 148.267 171.999C148.014 172.094 147.744 172.14 147.473 172.135C147.201 172.129 146.934 172.072 146.685 171.966C146.437 171.861 146.213 171.709 146.026 171.519C145.839 171.331 145.692 171.11 145.594 170.867C145.495 170.625 145.448 170.366 145.454 170.106C145.459 169.845 145.518 169.589 145.627 169.35C145.736 169.112 145.892 168.897 146.088 168.717C146.282 168.536 146.511 168.394 146.763 168.298C147.014 168.203 147.283 168.156 147.553 168.16C147.823 168.165 148.09 168.221 148.338 168.325C148.585 168.429 148.809 168.579 148.997 168.766C149.186 168.954 149.335 169.175 149.435 169.418C149.535 169.661 149.584 169.921 149.58 170.183C149.575 170.444 149.516 170.702 149.407 170.942C149.299 171.181 149.142 171.398 148.946 171.579Z" fill="#0A1751"/>
            <path d="M148.133 170.797C148.046 170.881 147.943 170.948 147.829 170.993C147.715 171.039 147.593 171.062 147.47 171.062C147.347 171.062 147.225 171.039 147.111 170.993C146.997 170.948 146.894 170.881 146.807 170.797C146.719 170.713 146.65 170.614 146.603 170.504C146.556 170.394 146.531 170.277 146.531 170.158C146.531 170.039 146.556 169.922 146.603 169.812C146.65 169.703 146.719 169.603 146.807 169.519C146.894 169.435 146.997 169.368 147.111 169.323C147.225 169.277 147.347 169.254 147.47 169.254C147.593 169.254 147.715 169.277 147.829 169.323C147.943 169.368 148.046 169.435 148.133 169.519C148.307 169.69 148.404 169.919 148.404 170.158C148.404 170.397 148.307 170.626 148.133 170.797Z" fill="white"/>
            <path d="M148.247 170.877C148.151 170.974 148.035 171.052 147.907 171.105C147.779 171.158 147.641 171.185 147.501 171.185C147.362 171.185 147.224 171.158 147.096 171.105C146.968 171.052 146.852 170.974 146.756 170.877C146.657 170.784 146.577 170.674 146.523 170.551C146.469 170.429 146.441 170.297 146.441 170.164C146.441 170.031 146.469 169.899 146.523 169.776C146.577 169.654 146.657 169.543 146.756 169.451C146.852 169.353 146.968 169.276 147.096 169.223C147.224 169.17 147.362 169.143 147.501 169.143C147.641 169.143 147.779 169.17 147.907 169.223C148.035 169.276 148.151 169.353 148.247 169.451C148.346 169.543 148.425 169.654 148.479 169.776C148.533 169.899 148.561 170.031 148.561 170.164C148.561 170.297 148.533 170.429 148.479 170.551C148.425 170.674 148.346 170.784 148.247 170.877Z" fill="white"/>
            <path d="M152.645 175.284C152.45 175.465 152.219 175.608 151.966 175.704C151.713 175.799 151.444 175.845 151.172 175.84C150.901 175.834 150.633 175.777 150.385 175.671C150.136 175.566 149.912 175.414 149.725 175.224C149.538 175.036 149.391 174.815 149.293 174.572C149.195 174.33 149.147 174.071 149.153 173.811C149.159 173.55 149.217 173.294 149.326 173.055C149.435 172.817 149.592 172.602 149.787 172.422C149.981 172.241 150.211 172.099 150.462 172.003C150.713 171.908 150.982 171.861 151.252 171.866C151.522 171.87 151.789 171.926 152.037 172.03C152.285 172.134 152.509 172.284 152.696 172.471C152.886 172.659 153.035 172.88 153.135 173.123C153.234 173.366 153.284 173.626 153.279 173.888C153.274 174.149 153.215 174.407 153.107 174.647C152.998 174.886 152.841 175.103 152.645 175.284Z" fill="#0A1751"/>
            <path d="M151.867 174.501C151.78 174.585 151.677 174.652 151.563 174.697C151.449 174.743 151.327 174.766 151.204 174.766C151.081 174.766 150.959 174.743 150.845 174.697C150.731 174.652 150.628 174.585 150.541 174.501C150.453 174.419 150.382 174.32 150.334 174.211C150.286 174.102 150.262 173.985 150.262 173.867C150.262 173.749 150.286 173.632 150.334 173.523C150.382 173.414 150.453 173.316 150.541 173.233C150.627 173.15 150.729 173.083 150.842 173.038C150.955 172.992 151.076 172.969 151.199 172.969C151.321 172.969 151.442 172.992 151.555 173.038C151.668 173.083 151.771 173.15 151.857 173.233C152.031 173.401 152.13 173.628 152.132 173.865C152.134 174.102 152.039 174.331 151.867 174.501Z" fill="white"/>
            <path d="M151.95 174.58C151.854 174.677 151.738 174.755 151.61 174.808C151.482 174.861 151.344 174.888 151.204 174.888C151.065 174.888 150.927 174.861 150.799 174.808C150.671 174.755 150.555 174.677 150.459 174.58C150.36 174.487 150.28 174.377 150.226 174.254C150.172 174.132 150.145 174 150.145 173.867C150.145 173.734 150.172 173.602 150.226 173.48C150.28 173.357 150.36 173.246 150.459 173.154C150.555 173.057 150.671 172.979 150.799 172.926C150.927 172.873 151.065 172.846 151.204 172.846C151.344 172.846 151.482 172.873 151.61 172.926C151.738 172.979 151.854 173.057 151.95 173.154C152.049 173.246 152.128 173.357 152.182 173.48C152.237 173.602 152.264 173.734 152.264 173.867C152.264 174 152.237 174.132 152.182 174.254C152.128 174.377 152.049 174.487 151.95 174.58Z" fill="white"/>
            <path d="M156.36 178.986C156.164 179.167 155.934 179.31 155.681 179.406C155.428 179.501 155.158 179.547 154.887 179.542C154.616 179.536 154.348 179.479 154.1 179.373C153.851 179.268 153.627 179.116 153.44 178.926C153.253 178.738 153.106 178.517 153.008 178.274C152.91 178.032 152.862 177.773 152.868 177.513C152.873 177.252 152.932 176.996 153.041 176.757C153.15 176.519 153.306 176.304 153.502 176.124C153.693 175.94 153.919 175.794 154.169 175.694C154.419 175.594 154.686 175.543 154.956 175.543C155.227 175.543 155.494 175.594 155.744 175.694C155.993 175.794 156.22 175.94 156.411 176.124C156.608 176.312 156.764 176.537 156.869 176.785C156.973 177.032 157.025 177.298 157.02 177.565C157.015 177.833 156.954 178.096 156.841 178.341C156.727 178.585 156.564 178.804 156.36 178.986Z" fill="#0A1751"/>
            <path d="M155.566 178.205C155.479 178.289 155.375 178.356 155.262 178.401C155.148 178.447 155.026 178.47 154.903 178.47C154.779 178.47 154.657 178.447 154.544 178.401C154.43 178.356 154.326 178.289 154.24 178.205C154.153 178.122 154.083 178.023 154.036 177.914C153.989 177.806 153.965 177.689 153.965 177.571C153.965 177.453 153.989 177.336 154.036 177.228C154.083 177.119 154.153 177.02 154.24 176.937C154.326 176.853 154.43 176.786 154.544 176.741C154.657 176.695 154.779 176.672 154.903 176.672C155.026 176.672 155.148 176.695 155.262 176.741C155.375 176.786 155.479 176.853 155.566 176.937C155.739 177.106 155.836 177.334 155.836 177.571C155.836 177.808 155.739 178.036 155.566 178.205Z" fill="white"/>
            <path d="M155.649 178.313C155.553 178.41 155.437 178.488 155.309 178.541C155.181 178.594 155.043 178.621 154.904 178.621C154.764 178.621 154.626 178.594 154.498 178.541C154.37 178.488 154.254 178.41 154.158 178.313C154.059 178.221 153.98 178.11 153.926 177.987C153.872 177.865 153.844 177.733 153.844 177.6C153.844 177.467 153.872 177.335 153.926 177.213C153.98 177.09 154.059 176.979 154.158 176.887C154.254 176.791 154.369 176.715 154.496 176.663C154.624 176.611 154.76 176.584 154.899 176.584C155.037 176.584 155.173 176.611 155.301 176.663C155.428 176.715 155.543 176.791 155.639 176.887C155.739 176.979 155.819 177.089 155.874 177.211C155.929 177.333 155.957 177.465 155.958 177.598C155.959 177.731 155.932 177.863 155.879 177.986C155.826 178.109 155.748 178.22 155.649 178.313Z" fill="white"/>
            <path d="M160.05 182.691C159.855 182.873 159.624 183.015 159.371 183.111C159.119 183.206 158.849 183.253 158.577 183.247C158.306 183.242 158.038 183.184 157.79 183.079C157.542 182.973 157.317 182.821 157.13 182.631C156.939 182.448 156.788 182.229 156.684 181.989C156.581 181.748 156.527 181.491 156.527 181.23C156.527 180.97 156.581 180.712 156.684 180.472C156.788 180.231 156.939 180.013 157.13 179.829C157.325 179.647 157.555 179.503 157.807 179.407C158.06 179.31 158.329 179.263 158.601 179.268C158.872 179.272 159.14 179.329 159.389 179.434C159.637 179.538 159.862 179.69 160.05 179.879C160.243 180.063 160.396 180.282 160.5 180.523C160.604 180.764 160.658 181.023 160.658 181.285C160.658 181.546 160.604 181.805 160.5 182.046C160.396 182.288 160.243 182.507 160.05 182.691Z" fill="#0A1751"/>
            <path d="M159.269 181.908C159.182 181.992 159.079 182.059 158.965 182.104C158.851 182.15 158.729 182.173 158.606 182.173C158.483 182.173 158.361 182.15 158.247 182.104C158.133 182.059 158.03 181.992 157.943 181.908C157.856 181.825 157.787 181.726 157.739 181.618C157.692 181.509 157.668 181.392 157.668 181.274C157.668 181.156 157.692 181.04 157.739 180.931C157.787 180.822 157.856 180.723 157.943 180.64C158.03 180.556 158.133 180.49 158.247 180.444C158.361 180.398 158.483 180.375 158.606 180.375C158.729 180.375 158.851 180.398 158.965 180.444C159.079 180.49 159.182 180.556 159.269 180.64C159.442 180.809 159.539 181.037 159.539 181.274C159.539 181.512 159.442 181.739 159.269 181.908Z" fill="white"/>
            <path d="M159.348 181.987C159.252 182.084 159.137 182.162 159.008 182.215C158.88 182.268 158.742 182.295 158.603 182.295C158.463 182.295 158.325 182.268 158.197 182.215C158.069 182.162 157.954 182.084 157.858 181.987C157.758 181.894 157.679 181.784 157.625 181.661C157.571 181.539 157.543 181.407 157.543 181.274C157.543 181.141 157.571 181.009 157.625 180.886C157.679 180.764 157.758 180.653 157.858 180.561C157.953 180.465 158.068 180.389 158.196 180.337C158.323 180.285 158.46 180.258 158.598 180.258C158.736 180.258 158.873 180.285 159 180.337C159.127 180.389 159.242 180.465 159.338 180.561C159.438 180.653 159.518 180.763 159.573 180.885C159.628 181.007 159.657 181.139 159.658 181.272C159.659 181.405 159.632 181.537 159.579 181.66C159.525 181.782 159.447 181.894 159.348 181.987Z" fill="white"/>
            <path d="M160.47 183.492L145.152 168.153C145.303 168.019 145.479 167.914 145.672 167.846C145.864 167.778 146.069 167.748 146.274 167.757C146.479 167.767 146.68 167.815 146.865 167.9C147.05 167.985 147.216 168.105 147.352 168.252L160.47 181.373C160.766 181.645 160.937 182.019 160.947 182.412C160.956 182.806 160.803 183.187 160.521 183.472L160.47 183.492Z" fill="white"/>
            <path d="M149.584 167.439L149.378 167.984L149.779 168.38L147.559 169.499L149.09 171.034L151.373 169.935L159.072 177.639L157.829 179.55L159.196 180.917L160.306 178.827L161.396 179.263L149.584 167.439Z" fill="white"/>
            <path d="M186.807 108.748C185.337 108.867 184.206 109.609 184.268 110.411C184.33 111.214 185.584 111.778 187.044 111.659C188.503 111.54 189.655 110.808 189.583 110.005C189.511 109.203 188.277 108.639 186.807 108.748Z" fill="#1D1715"/>
            <path d="M183.301 109.431C181.882 109.827 180.936 110.778 181.162 111.55C181.388 112.322 182.735 112.629 184.154 112.233C185.573 111.837 186.518 110.877 186.282 110.104C186.045 109.332 184.709 108.995 183.301 109.431Z" fill="#1D1715"/>
            <path d="M180.002 110.254C178.728 110.61 177.864 111.472 178.08 112.175C178.296 112.878 179.499 113.165 180.773 112.779C182.048 112.393 182.922 111.561 182.706 110.868C182.49 110.175 181.236 109.887 180.002 110.254Z" fill="#1D1715"/>
            <path d="M176.733 111.135C175.612 111.541 174.903 112.373 175.139 112.987C175.376 113.601 176.486 113.759 177.606 113.353C178.727 112.947 179.436 112.115 179.2 111.501C178.963 110.887 177.853 110.719 176.733 111.135Z" fill="#1D1715"/>
            <path d="M173.968 112.135C172.94 112.491 172.344 113.224 172.56 113.769C172.775 114.313 173.742 114.452 174.739 114.096C175.736 113.739 176.353 113.006 176.137 112.462C175.921 111.917 174.955 111.768 173.968 112.135Z" fill="#1D1715"/>
            <path d="M171.921 112.322C170.893 112.322 169.999 112.768 169.988 113.313C169.978 113.857 170.831 114.372 171.88 114.392C172.929 114.412 173.802 113.946 173.813 113.402C173.823 112.857 172.97 112.342 171.921 112.322Z" fill="#1D1715"/>
            <path d="M169.507 111.966C168.581 111.778 167.739 112.035 167.636 112.54C167.533 113.045 168.181 113.61 169.106 113.798C170.031 113.986 170.874 113.729 170.987 113.224C171.1 112.718 170.432 112.154 169.507 111.966Z" fill="#1D1715"/>
            <path d="M157.18 110.824C158.016 109.922 159.061 109.222 160.228 108.783C161.396 108.344 162.654 108.176 163.9 108.295C165.154 108.42 166.36 108.831 167.419 109.493C168.478 110.154 169.362 111.049 169.997 112.103C168.484 112.904 166.707 113.101 165.047 112.651C163.758 112.178 162.502 111.624 161.287 110.993C160.66 110.668 159.964 110.485 159.253 110.456C158.542 110.426 157.834 110.552 157.18 110.824Z" fill="#1D1715"/>
            <path d="M158.781 112.49C159.274 112.074 159.849 111.76 160.471 111.567C161.094 111.373 161.751 111.305 162.402 111.365C163.698 111.486 164.972 111.769 166.191 112.208C167.413 112.647 168.695 112.906 169.996 112.978C168.347 113.733 166.464 113.865 164.719 113.348C163.721 113.052 162.801 112.549 161.804 112.253C161.313 112.073 160.788 112.001 160.265 112.042C159.742 112.083 159.235 112.236 158.781 112.49Z" fill="#1D1715"/>
            <path d="M161.961 107.535C163.179 107.386 164.417 107.567 165.527 108.059C168.066 109.163 169.856 110.966 169.997 112.114C167.737 110.627 165.203 109.543 162.521 108.916C160.678 108.769 158.828 109.106 157.18 109.89C158.433 108.611 160.123 107.779 161.961 107.535Z" fill="#1D1715"/>
            <path d="M192.689 124.508C193.519 128.284 202.384 129.292 202.686 129.289C202.686 129.289 208.969 128.324 212.378 127.436C213.553 127.126 214.666 126.798 215.574 126.478C216.216 126.908 216.734 127.074 216.933 127.787C217 128.024 216.958 128.238 217.016 128.47C217.074 128.701 217.081 129.056 217.322 129.121C217.492 129.135 217.663 129.099 217.811 129.017C217.96 128.936 218.079 128.813 218.153 128.664C218.664 127.801 218.217 127.067 218.647 126.125C218.841 125.769 219.107 125.454 219.431 125.2C219.754 124.946 220.127 124.758 220.528 124.647C221.307 124.384 221.286 124.274 222.081 124.023C222.827 123.819 223.517 123.456 224.099 122.963C224.317 122.783 224.51 122.394 224.306 122.208C224.229 122.154 224.14 122.117 224.046 122.1C223.952 122.083 223.856 122.086 223.763 122.11C221.422 122.387 219.915 122.583 217.631 122.971L217.359 123.018C216.374 123.274 215.358 123.404 214.337 123.405C213.24 123.346 204.066 123.096 202.985 122.963C201.13 122.721 195.053 117.056 193.821 116.907L192.689 124.508Z" fill="#F09971"/>
            <path d="M185.179 120.559C186.433 122.13 195.079 127.204 196.3 127.811L196.425 127.604L197.184 126.363L200.209 121.381L200.31 121.312C198.868 120.017 192.861 114.683 191.412 114.707L185.179 120.559Z" fill="#F8C859"/>
            <path d="M187.92 137.516C186.44 137.971 187.201 138.555 185.864 138.506C181.865 138.387 178.473 136.228 175.43 132.802L175.265 132.624L175.132 132.465C174.751 132.01 174.371 131.535 173.98 131.049C175.901 128.239 177.619 125.304 179.121 122.266C179.665 121.078 180.149 119.879 180.673 118.721C182.595 114.344 182.729 111.442 187.355 110.799L194.459 114.661C198.314 124.662 190.881 130.524 187.92 137.516Z" fill="#F8C859"/>
            <path d="M201.385 184.622H184.351C184.203 183.591 184.117 182.553 184.094 181.513C184.017 180.609 184.066 179.7 184.238 178.809C184.662 177.343 184.934 175.841 185.05 174.323C184.844 173.541 185.369 173.63 185.78 174.323C186.674 175.789 188.268 178.047 191.074 175.076C192.421 173.64 193.767 173.967 193.747 174.64C193.747 175.937 193.541 176.779 194.271 177.918C194.703 178.591 196.194 179.284 197.612 179.898C198.59 180.25 199.511 180.733 200.347 181.334C200.737 181.789 201.03 182.313 201.208 182.878C201.386 183.442 201.447 184.035 201.385 184.622Z" fill="white"/>
            <path d="M190.139 184.621H184.351C184.203 183.591 184.117 182.552 184.094 181.512C184.017 180.609 184.066 179.7 184.238 178.809C186.87 179.994 188.967 182.06 190.139 184.621Z" fill="#A05BB6"/>
            <path d="M201.387 184.621H195.219C195.219 182.463 196.093 180.661 197.655 179.928C198.633 180.279 199.554 180.762 200.39 181.364C201.156 182.28 201.514 183.451 201.387 184.621Z" fill="#A05BB6"/>
            <path d="M187.014 187.928C187.014 188.453 186.798 188.957 186.412 189.328C186.027 189.7 185.504 189.908 184.958 189.908C184.413 189.908 183.89 189.7 183.505 189.328C183.119 188.957 182.902 188.453 182.902 187.928C182.902 187.402 183.119 186.899 183.505 186.527C183.89 186.156 184.413 185.947 184.958 185.947C185.504 185.947 186.027 186.156 186.412 186.527C186.798 186.899 187.014 187.402 187.014 187.928Z" fill="#0A1751"/>
            <path d="M185.883 187.928C185.883 188.167 185.784 188.397 185.609 188.566C185.433 188.735 185.195 188.83 184.947 188.83C184.699 188.83 184.461 188.735 184.286 188.566C184.11 188.397 184.012 188.167 184.012 187.928C184.012 187.689 184.11 187.46 184.286 187.291C184.461 187.122 184.699 187.027 184.947 187.027C185.195 187.027 185.433 187.122 185.609 187.291C185.784 187.46 185.883 187.689 185.883 187.928Z" fill="white"/>
            <path d="M185.997 187.928C185.997 188.19 185.889 188.442 185.696 188.628C185.504 188.814 185.242 188.918 184.969 188.918C184.697 188.918 184.435 188.814 184.243 188.628C184.05 188.442 183.941 188.19 183.941 187.928C183.941 187.665 184.05 187.413 184.243 187.228C184.435 187.042 184.697 186.938 184.969 186.938C185.242 186.938 185.504 187.042 185.696 187.228C185.889 187.413 185.997 187.665 185.997 187.928Z" fill="white"/>
            <path d="M190.293 189.918C191.434 189.918 192.359 189.027 192.359 187.928C192.359 186.829 191.434 185.938 190.293 185.938C189.152 185.938 188.227 186.829 188.227 187.928C188.227 189.027 189.152 189.918 190.293 189.918Z" fill="#0A1751"/>
            <path d="M190.295 188.83C190.812 188.83 191.23 188.426 191.23 187.928C191.23 187.431 190.812 187.027 190.295 187.027C189.778 187.027 189.359 187.431 189.359 187.928C189.359 188.426 189.778 188.83 190.295 188.83Z" fill="white"/>
            <path d="M190.291 188.938C190.87 188.938 191.339 188.486 191.339 187.928C191.339 187.37 190.87 186.918 190.291 186.918C189.712 186.918 189.242 187.37 189.242 187.928C189.242 188.486 189.712 188.938 190.291 188.938Z" fill="white"/>
            <path d="M197.686 187.928C197.686 188.453 197.47 188.957 197.084 189.328C196.699 189.7 196.176 189.908 195.63 189.908C195.085 189.908 194.562 189.7 194.176 189.328C193.791 188.957 193.574 188.453 193.574 187.928C193.574 187.402 193.791 186.899 194.176 186.527C194.562 186.156 195.085 185.947 195.63 185.947C196.176 185.947 196.699 186.156 197.084 186.527C197.47 186.899 197.686 187.402 197.686 187.928Z" fill="#0A1751"/>
            <path d="M195.627 188.83C196.144 188.83 196.562 188.426 196.562 187.928C196.562 187.431 196.144 187.027 195.627 187.027C195.11 187.027 194.691 187.431 194.691 187.928C194.691 188.426 195.11 188.83 195.627 188.83Z" fill="white"/>
            <path d="M195.627 188.938C196.206 188.938 196.675 188.486 196.675 187.928C196.675 187.37 196.206 186.918 195.627 186.918C195.048 186.918 194.578 187.37 194.578 187.928C194.578 188.486 195.048 188.938 195.627 188.938Z" fill="white"/>
            <path d="M203.018 187.928C203.018 188.453 202.802 188.957 202.416 189.328C202.031 189.7 201.508 189.908 200.962 189.908C200.417 189.908 199.894 189.7 199.508 189.328C199.123 188.957 198.906 188.453 198.906 187.928C198.906 187.402 199.123 186.899 199.508 186.527C199.894 186.156 200.417 185.947 200.962 185.947C201.508 185.947 202.031 186.156 202.416 186.527C202.802 186.899 203.018 187.402 203.018 187.928Z" fill="#0A1751"/>
            <path d="M200.963 188.83C201.48 188.83 201.898 188.426 201.898 187.928C201.898 187.431 201.48 187.027 200.963 187.027C200.446 187.027 200.027 187.431 200.027 187.928C200.027 188.426 200.446 188.83 200.963 188.83Z" fill="white"/>
            <path d="M200.963 188.938C201.542 188.938 202.011 188.486 202.011 187.928C202.011 187.37 201.542 186.918 200.963 186.918C200.384 186.918 199.914 187.37 199.914 187.928C199.914 188.486 200.384 188.938 200.963 188.938Z" fill="white"/>
            <path d="M203.923 188.216H181.82C181.826 188.019 181.871 187.825 181.955 187.645C182.039 187.465 182.158 187.302 182.308 187.167C182.457 187.032 182.632 186.926 182.824 186.856C183.015 186.787 183.219 186.754 183.424 186.761H202.319C202.727 186.747 203.125 186.889 203.425 187.156C203.725 187.423 203.904 187.793 203.923 188.187V188.216Z" fill="white"/>
            <path d="M184.352 184.621L184.619 185.136H185.195L184.485 187.453H186.706L187.466 185.106H198.569L199.134 187.295H201.098L200.306 185.077L201.386 184.621H184.352Z" fill="white"/>
            <path d="M197.581 155.706C195.525 154.923 193.181 155.706 191.001 156.211C186.228 157.306 181.227 157.037 176.609 155.438C172.888 154.131 169.269 151.953 165.301 152.339C165.812 151.761 166.289 151.156 166.73 150.527C168.159 148.435 169.103 146.07 169.495 143.595C169.732 142.08 169.742 140.525 169.958 138.99C170.548 136.064 171.915 133.334 173.926 131.068C174.419 131.346 174.954 131.613 175.406 131.9C180.289 134.673 182.376 137.129 187.876 137.535C191.495 143.04 196.08 149.358 197.581 155.706Z" fill="#A05BB6"/>
            <path d="M188.441 111.65C187.053 114.878 192.892 119.453 195.144 116.423L196.449 114.938L197.313 113.997L197.611 113.67C197.508 113.324 197.395 112.987 197.282 112.68C196.254 109.64 194.702 107.491 192.142 107.422L191.114 108.64L188.441 111.65Z" fill="#FFAD87"/>
            <path d="M187.475 104.44C187.907 106.371 189.089 108.233 191.052 108.659C191.47 108.751 191.9 108.778 192.327 108.738C192.667 108.68 193.016 108.688 193.353 108.761C193.69 108.834 194.009 108.971 194.291 109.164C194.475 109.318 194.625 109.507 194.733 109.718C194.955 110.218 195.134 110.735 195.267 111.263C195.639 112.37 196.357 113.338 197.323 114.036C198.178 114.678 199.205 115.073 200.284 115.175C200.872 115.232 201.466 115.196 202.042 115.066C202.867 114.889 203.645 114.545 204.322 114.057C204.999 113.568 205.56 112.947 205.969 112.233C206.431 111.412 206.267 110.57 207.11 110.114C207.747 109.768 208.693 108.985 207.768 107.985C207.458 107.655 207.237 107.257 207.124 106.825C207.011 106.394 207.01 105.942 207.12 105.51C207.295 104.579 207.706 103.698 207.891 102.767C208.125 101.186 207.857 99.5749 207.123 98.1437C206.389 96.7124 205.224 95.528 203.779 94.7458C200.855 93.2034 197.425 92.813 194.208 93.6565C193.104 93.8524 192.054 94.2672 191.124 94.8745C190.369 95.4586 189.734 96.1741 189.253 96.9837C187.697 99.1608 187.061 101.827 187.475 104.44Z" fill="#FFAD87"/>
            <g style="mix-blend-mode:multiply" opacity="0.4">
                <path d="M194.857 112.482C195.217 113.393 195.758 114.227 196.45 114.938L197.313 113.997C198.168 114.64 199.195 115.035 200.274 115.136C200.862 115.194 201.456 115.157 202.032 115.027C200.685 114.778 199.411 114.247 198.3 113.473C197.937 113.227 197.593 112.956 197.272 112.661C196.094 111.63 195.251 110.292 194.846 108.809C194.846 109.116 194.764 109.403 194.713 109.68C194.461 110.606 194.511 111.585 194.857 112.482Z" fill="#FFAE80"/>
            </g>
            <path d="M207.685 97.2021C197.827 93.5184 196.449 115.928 187.31 110.877C187.207 110.452 187.084 109.283 186.981 108.847C186.775 107.61 186.786 107.689 186.58 106.441C186.219 104.792 186.088 103.103 186.189 101.421C186.382 99.8406 186.944 98.3233 187.835 96.9835C188.725 95.6437 189.92 94.5164 191.33 93.6868C192.759 92.8808 194.34 92.3572 195.982 92.1464C197.623 91.9356 199.292 92.0418 200.89 92.4589C204.128 93.2808 205.753 94.6275 207.685 97.2021Z" fill="#1D1715"/>
            <path d="M196.706 102.926C196.481 102.699 196.207 102.52 195.904 102.404C195.6 102.288 195.274 102.236 194.948 102.253C194.623 102.276 194.306 102.367 194.02 102.519C193.735 102.671 193.487 102.881 193.293 103.134C192.861 103.808 192.703 104.613 192.851 105.392C192.964 106.317 193.294 107.204 193.817 107.987C194.115 108.485 194.549 108.896 195.072 109.175C195.333 109.309 195.626 109.375 195.921 109.366C196.217 109.358 196.505 109.275 196.758 109.125C197.007 108.911 197.207 108.648 197.345 108.355C197.483 108.062 197.556 107.744 197.559 107.422C197.673 106.571 197.673 105.709 197.559 104.857C197.484 104.146 197.186 103.472 196.706 102.926Z" fill="#FFAD87"/>
            <path d="M206.217 95.2422L205.899 94.9649C205.743 94.7926 205.547 94.658 205.328 94.572C205.108 94.486 204.87 94.451 204.634 94.4698C204.381 94.5643 204.16 94.7256 203.997 94.9352C201.832 97.2734 200.3 100.09 199.535 103.134C200.25 102.175 201.155 101.36 202.198 100.738C202.013 101.302 201.817 101.867 201.632 102.441C201.851 102.031 202.154 101.668 202.524 101.376C202.893 101.083 203.321 100.866 203.781 100.738C204.695 100.479 205.591 100.165 206.464 99.7973C206.898 99.606 207.271 99.3072 207.546 98.9314C207.82 98.5556 207.986 98.1163 208.027 97.6584C207.945 97.1463 207.739 96.6602 207.424 96.2401C207.11 95.82 206.696 95.478 206.217 95.2422Z" fill="#1D1715"/>
            <g style="mix-blend-mode:multiply" opacity="0.5">
                <path d="M184.362 118.176C182.614 120.889 179.109 126.048 177.361 128.771C176.714 129.762 176.045 130.821 175.449 131.881C174.956 131.594 174.421 131.326 173.969 131.049C175.892 128.236 177.609 125.298 179.109 122.256C180.98 121.046 182.738 119.681 184.362 118.176Z" fill="#CFBA89"/>
            </g>
            <g style="mix-blend-mode:multiply" opacity="0.5">
                <path d="M175.45 131.88C175.337 132.078 175.224 132.266 175.121 132.464C174.443 133.676 173.902 134.954 173.507 136.276C172.787 138.762 172.746 141.436 171.718 143.822C170.839 145.625 169.689 147.293 168.305 148.773L166.773 150.566C168.203 148.474 169.146 146.11 169.539 143.634C169.775 142.119 169.786 140.564 170.001 139.029C170.591 136.103 171.958 133.373 173.97 131.107C174.463 131.325 174.956 131.593 175.45 131.88Z" fill="#742E8A"/>
            </g>
            <path d="M182.676 121.751L173.074 125.475L161.273 132.703C159.802 134.575 160.563 137.011 160.131 137.14C158.744 137.348 158.867 136.783 158.353 134.525C155.269 135.902 151.794 136.684 152.545 135.011C151.414 135.634 150.941 134.387 151.743 133.921C151.249 133.783 151.013 132.981 152.103 132.476C152.103 131.673 153.377 131.485 153.377 131.485C155.341 130.931 156.091 129.832 158.672 129.673L169.209 119.89C169.373 119.721 184.629 111.77 184.629 111.77C188.299 112.126 187.765 119.523 182.676 121.751Z" fill="#FFAD87"/>
            <path d="M185.143 111.441C188.843 111.778 188.463 119.363 183.374 121.631L175.798 125.028L171.758 118.096C175.993 115.759 185.143 111.441 185.143 111.441Z" fill="#F8C859"/>
            <g clip-path="url(#clip2_35419_37672)">
                <path d="M260.225 106.851C260.225 106.851 258.163 107.45 257.257 107.298C256.351 107.146 250.819 105.947 249.974 106.788C249.129 107.628 243.087 112.22 243.718 113.095C244.349 113.97 244.95 113.64 245.358 113.291C245.766 112.942 250.345 110.069 250.853 110.075C250.853 110.075 246.663 113.622 247.14 114.877C247.617 116.133 248.792 116.054 249.448 116.355C250.105 116.657 251.134 117.624 252.432 117.243C253.729 116.861 259.047 112.497 260.275 111.929C261.503 111.361 263.914 110.655 263.993 110.396C264.072 110.137 260.225 106.851 260.225 106.851Z" fill="#E5B397"/>
                <path d="M292.879 71.2955C292.879 71.2955 290.851 76.2222 289.74 79.8489C288.484 83.9662 287.253 88.0283 286.984 88.9399C286.44 90.7933 283.265 92.454 281.919 93.4234C280.68 94.3155 257.785 107.129 257.485 107.167C257.186 107.204 262.297 112.986 262.297 112.986C262.297 112.986 293.664 99.1622 294.785 97.5642C295.905 95.9661 298.723 89.2216 299.872 86.4537C300.967 83.8096 302.586 79.5148 303.537 77.6065C304.601 75.4715 306.241 68.6301 301.449 66.5221C295.332 63.8279 293.671 69.2212 292.879 71.2955Z" fill="#A05BB6"/>
                <path d="M292.645 98.8442L286.926 89.5215L295.284 97.5729L292.645 98.8442Z" fill="#632885"/>
                <path d="M333.999 182.596L336.893 185.011C336.893 185.011 342.023 180.114 342.02 180.026C342.016 179.938 338.333 176.525 338.333 176.525L333.999 182.596Z" fill="#EEA886"/>
                <path d="M306.404 186.98L309.297 191.003C309.297 191.003 314.321 188.639 315.244 188.149C315.324 188.107 313.467 183.193 313.467 183.193L306.404 186.98Z" fill="#EEA886"/>
                <path d="M315.735 187.346C315.735 187.346 310.572 188.143 310.341 188.01C310.11 187.877 307.912 187.523 307.11 188.033C306.307 188.542 306.695 189.588 305.93 190.171C305.165 190.754 299.406 195.748 298.722 196.682C298.038 197.616 292.861 197.994 292.525 199.475C292.19 200.956 292.724 204.236 300.185 202.204C307.646 200.173 316.536 199.921 318.016 198.785C319.496 197.648 316.833 189.028 315.735 187.346Z" fill="#0F1F59"/>
                <path d="M342.124 179C342.124 179 338.584 182.71 338.323 182.735C338.062 182.759 336.098 183.795 335.794 184.683C335.491 185.571 336.469 186.144 336.239 187.068C336.01 187.992 334.751 193.331 334.269 194.649C333.873 195.726 330.099 198.222 329.404 200.112C328.88 201.542 331.919 205.027 338.001 200.082C343.926 195.268 350.834 188.392 351.264 186.606C351.694 184.819 344.069 179.666 342.124 179Z" fill="#0F1F59"/>
                <path d="M309.041 114.364C309.041 114.364 293.633 131.01 290.87 135.612C288.107 140.213 281.599 149.305 281.899 150.712C282.199 152.12 279.846 151.644 286 156.623C292.154 161.601 314.445 173.399 316.637 174.451C318.917 175.547 334.22 183.18 334.22 183.18L338.842 176.198C338.842 176.198 312.851 158.217 309.205 156.032C305.559 153.846 302.995 152.185 303.642 150.242C304.289 148.298 312.136 144.015 333.662 121.927C335.813 119.72 342.05 114.062 341.416 110.217C340.275 103.266 335.091 96.0904 326.358 95.7316C317.625 95.3727 309.041 114.364 309.041 114.364Z" fill="#05154A"/>
                <path d="M240.22 93.6428C240.22 93.6428 237.811 93.7435 236.872 93.3376C235.933 92.9316 230.276 90.1583 229.118 90.8451C227.96 91.532 220.088 94.9045 220.521 96.0216C220.954 97.1387 221.701 96.9406 222.244 96.6711C222.787 96.4015 228.579 94.5034 229.128 94.6446C229.128 94.6446 223.566 97.3774 223.722 98.8663C223.879 100.355 225.177 100.583 225.802 101.084C226.428 101.586 227.267 102.909 228.784 102.841C230.301 102.773 237.322 99.4541 238.817 99.1651C240.313 98.8761 243.131 98.751 243.291 98.4912C243.451 98.2315 240.22 93.6428 240.22 93.6428Z" fill="#E5B397"/>
                <path d="M274.407 60.3725C275.208 61.0604 275.966 61.7929 276.678 62.5661C277.984 61.2233 281.204 55.3633 281.258 55.2383C280.204 56.271 274.407 60.3725 274.407 60.3725Z" fill="#BB8062"/>
                <path d="M288.407 89.377C288.407 89.377 304.639 101.631 307.836 107.481C311.034 113.332 325.133 97.679 325.133 97.679L288.407 89.377Z" fill="#EDDCC5"/>
                <path d="M307.626 107.113L308.132 108.696L308.747 110.807C309.007 110.673 325.641 102.19 327.025 101.954C328.409 101.719 322.845 99.0898 322.845 99.0898L307.626 107.113Z" fill="#323657"/>
                <path d="M308.748 110.803C308.748 110.803 291.434 123.63 287.34 127.18C283.245 130.729 276.215 136.922 274.573 139.1C273.7 140.259 271.016 144.586 275.279 151.148C279.542 157.709 296.195 175.859 297.589 177.907C298.983 179.954 305.973 187.347 305.973 187.347L314.049 183.366C314.049 183.366 299.123 158.159 296.35 154.998C293.577 151.836 291.857 147.96 293.086 146.301C294.315 144.641 303.173 142.898 330.719 128.284C333.471 126.823 339.843 124.684 341.844 119.443C342.953 115.323 343.809 104.799 335.607 101.873C327.405 98.9467 308.748 110.803 308.748 110.803Z" fill="#122870"/>
                <path d="M272.304 59.1197C272.531 59.1893 272.853 59.4193 273.237 59.7611C273.923 60.3959 274.571 61.069 275.176 61.7768C277.366 64.2719 279.866 67.6099 279.866 67.6099C279.866 67.6099 286.381 54.6268 284.624 54.5723C281.705 54.4842 280.661 51.9951 280.661 51.9951C280.661 51.9951 270.732 58.6328 272.304 59.1197Z" fill="#E5B397"/>
                <path d="M272.894 59.5862C273.693 60.2754 274.451 61.0084 275.163 61.7816C276.445 60.4592 279.584 54.6686 279.637 54.5449C278.602 55.5615 272.894 59.5862 272.894 59.5862Z" fill="#BB8062"/>
                <path d="M259.416 38.4963C259.416 38.4963 258.883 43.7918 260.11 46.8507C260.816 48.6153 258.955 53.6398 260.051 54.1458C261.147 54.6517 262.838 55.2908 262.919 55.533C263.001 55.7752 268.017 62.4247 269.795 61.9077C271.574 61.3908 279.539 56.4912 282.024 52.0874C283.89 47.6936 283.509 42.7353 283.522 41.0437C283.536 39.3522 269.223 28.0588 259.416 38.4963Z" fill="#E5B397"/>
                <path fill-rule="evenodd" clip-rule="evenodd" d="M286.399 40.4119C286.862 40.6841 286.651 41.0374 284.831 41.4549C285.329 42.849 283.051 47.4212 280.863 48.3138C279.674 46.0694 278.871 46.1832 278.115 46.057C277.336 46.0507 276.31 46.0317 274.647 50.4992C273.526 49.4864 275.357 47.753 274.601 45.284C273.032 40.1456 275.534 43.8954 270.752 40.7285C271.061 41.3774 271.43 41.902 271.177 42.0024C270.383 42.3216 266.988 40.1243 265.247 37.8544C264.034 39.353 262.922 40.202 261.854 40.3624C258.244 40.1283 257.634 44.908 257.325 43.8809C255.897 39.1748 258.366 37.0508 258.366 37.0508C257.933 37.3533 257.485 37.5891 257.107 37.9281C256.423 38.5415 258.842 31.486 262.756 31.8916C262.756 31.8916 262.263 31.5036 260.718 31.2242C260.15 31.121 262.25 30.3421 264.019 30.7893C264.333 30.1231 265.723 27.4942 268.237 27.4026C269.402 27.3607 271.159 27.6848 270.905 27.7267C269.648 27.9283 269.038 28.6269 269.038 28.6269C270.63 28.2129 270.66 28.1298 272.43 28.2517C272.43 28.2517 275.054 28.2542 276.486 28.7479C275.547 28.8385 274.799 29.2359 276.166 29.6393C278.979 30.8666 280.293 32.2001 281.675 34.0856C282.892 35.7475 282.753 34.8712 284.646 37.1796C282.091 36.7146 284.839 39.7076 286.399 40.4119Z" fill="#0F1F59"/>
                <path d="M277.444 54.072C277.444 54.072 287 52.2699 284.223 40.9499C281.485 34.2127 279.002 38.2896 279.002 38.2896C279.002 38.2896 273.476 46.3721 276.147 45.2659C278.818 44.1596 279.457 45.6693 279.995 47.554C279.995 47.554 280.394 49.4377 278.49 50.5503C277.047 51.3927 277.444 54.072 277.444 54.072Z" fill="#0F1F59"/>
                <path d="M284.458 54.2773C284.458 54.2773 302.834 56.0413 312.803 68.3641C322.771 80.687 340.446 102.254 341.941 105.057C341.941 105.057 317.976 104.518 308.49 111.386C308.49 111.386 290.882 91.875 284.777 88.08C278.673 84.285 277.874 69.7009 277.874 69.7009C277.874 69.7009 279.263 60.1701 284.458 54.2773Z" fill="#A05BB6"/>
                <path d="M285.846 63.7656C285.846 63.7656 282.232 68.5702 279.987 72.2089C277.443 76.3413 274.942 80.4201 274.389 81.3375C273.266 83.2031 269.345 84.1595 267.607 84.8529C266.008 85.491 237.493 93.2962 237.157 93.2572C236.822 93.2183 240.707 100.851 240.707 100.851C240.707 100.851 278.702 94.2055 280.376 92.7701C282.05 91.3348 287.043 84.7684 289.083 82.0714C291.029 79.4946 294.018 75.2664 295.598 73.4495C297.364 71.4166 301.106 64.4313 296.513 60.8689C290.65 56.3176 287.301 61.7262 285.846 63.7656Z" fill="#A05BB6"/>
                <path d="M298.603 65.7773C299.487 72.2513 290.29 82.5407 285.016 87.3389C299.401 75.729 300.902 67.7841 299.835 65.1453C299.806 65.0755 299.758 65.0191 299.697 64.9751C299.309 64.6944 298.539 65.3025 298.603 65.7773Z" fill="#632885"/>
            </g>
        </g>
    </g>
    <defs>
        <clipPath id="clip0_35419_37672">
            <rect width="360" height="258" fill="white"/>
        </clipPath>
        <clipPath id="clip1_35419_37672">
            <rect width="360" height="258" fill="white"/>
        </clipPath>
        <clipPath id="clip2_35419_37672">
            <rect width="131.004" height="176.851" fill="white" transform="matrix(-1 0 0 1 351.504 25.834)"/>
        </clipPath>
    </defs>
</svg>
