<svg width="360" height="258" viewBox="0 0 360 258" fill="none" xmlns="http://www.w3.org/2000/svg">
    <g clip-path="url(#clip0_35419_38343)">
        <g clip-path="url(#clip1_35419_38343)">
            <path d="M40.8705 255.181C38.7006 253.803 36.5482 252.351 34.4134 250.825C8.2874 232.14 -9.98189 205.15 -16.199 176.052C-18.3606 165.94 -19.0736 155.31 -15.4982 145.513C-11.3868 134.251 -1.94123 125.04 8.64301 117.742C30.4631 102.696 57.5176 94.5852 84.728 89.8977C101.526 87.0042 118.606 85.3103 135.169 81.5099C188.948 69.1907 213.275 20.0447 264.313 4.31463C298.548 -6.23523 335.759 5.12462 371.371 11.2026C416.171 18.8498 464.42 18.5156 503.644 39.0209C528.38 51.9561 547.047 72.0164 565.093 91.721C576.697 104.393 588.837 118.429 588.998 134.695C589.221 157.057 568.173 177.182 552.948 193.404C504.892 244.604 564.5 297.215 455.686 295.687C401.358 294.917 347.116 286.294 293.822 277.687C209.966 264.151 115.542 302.64 40.8705 255.181Z" fill="#F1F5FF"/>
            <path d="M364.424 26.832H329.68V47.9878H364.424V26.832Z" fill="#BBBFE1" fill-opacity="0.3"/>
            <path d="M361.711 29.041H332.395V45.7822H361.711V29.041Z" fill="#F7F8FF"/>
            <path d="M332.27 45.8148C332.27 45.8148 338.63 44.718 340.171 44.4249C341.712 44.1318 343.884 43.8388 345.355 43.9488C346.826 44.0587 348.858 44.5348 348.858 44.5348C348.858 44.5348 356.424 42.8135 358.035 42.7952C359.646 42.7769 362.037 43.5932 362.037 43.5932V45.8148H332.27Z" fill="#BBBFE1" fill-opacity="0.3"/>
            <path d="M337.725 34.5422C338.773 34.5422 339.622 33.6928 339.622 32.6451C339.622 31.5974 338.773 30.748 337.725 30.748C336.677 30.748 335.828 31.5974 335.828 32.6451C335.828 33.6928 336.677 34.5422 337.725 34.5422Z" fill="#BBBFE1" fill-opacity="0.3"/>
            <rect x="356.145" y="36.3223" width="4.81872" height="4.81872" transform="rotate(45 356.145 36.3223)" fill="#BBBFE1" fill-opacity="0.3"/>
            <rect x="349.676" y="39.8184" width="3.2624" height="3.2624" transform="rotate(45 349.676 39.8184)" fill="#BBBFE1" fill-opacity="0.3"/>
            <path d="M349.43 49.9848L349.43 75.1504L364.753 75.1504L364.753 49.9848L349.43 49.9848Z" fill="#BBBFE1" fill-opacity="0.3"/>
            <path d="M351.027 51.9513L351.027 73.1855L363.153 73.1855L363.153 51.9513L351.027 51.9513Z" fill="#F7F8FF"/>
            <path d="M355.459 56.0986C355.459 55.3397 354.844 54.7245 354.085 54.7245C353.326 54.7245 352.711 55.3397 352.711 56.0986C352.711 56.8575 353.326 57.4727 354.085 57.4727C354.844 57.4727 355.459 56.8575 355.459 56.0986Z" fill="#BBBFE1" fill-opacity="0.3"/>
            <path d="M361.822 61.1027C361.822 59.3915 360.435 58.0043 358.723 58.0043C357.012 58.0043 355.625 59.3915 355.625 61.1027C355.625 62.8139 357.012 64.2012 358.723 64.2012C360.435 64.2012 361.822 62.8139 361.822 61.1027Z" fill="#BBBFE1" fill-opacity="0.3"/>
            <path d="M357.084 68.21C357.084 66.8008 355.941 65.6584 354.532 65.6584C353.123 65.6584 351.98 66.8008 351.98 68.21C351.98 69.6193 353.123 70.7617 354.532 70.7617C355.941 70.7617 357.084 69.6193 357.084 68.21Z" fill="#BBBFE1" fill-opacity="0.3"/>
            <path d="M355.488 138.744C355.547 156.355 286.646 170.93 201.594 171.296C116.542 171.661 47.5454 157.676 47.4883 140.069C47.4312 122.463 115.861 110.019 200.914 109.662C285.968 109.305 355.429 121.138 355.488 138.744Z" fill="#E7ECFA"/>
            <path fill-rule="evenodd" clip-rule="evenodd" d="M296.93 130.981C296.93 130.743 297.13 130.551 297.376 130.551L308.093 130.551C308.34 130.551 308.54 130.743 308.54 130.981C308.54 131.218 308.34 131.411 308.093 131.411L297.376 131.411C297.13 131.411 296.93 131.218 296.93 130.981Z" fill="#E7ECFA"/>
            <path fill-rule="evenodd" clip-rule="evenodd" d="M101.844 133.765C101.844 134.003 101.644 134.195 101.397 134.195L90.68 134.195C90.4334 134.195 90.2335 134.003 90.2335 133.765C90.2335 133.528 90.4334 133.335 90.68 133.335L101.397 133.335C101.644 133.335 101.844 133.528 101.844 133.765Z" fill="#E7ECFA"/>
            <path fill-rule="evenodd" clip-rule="evenodd" d="M301.281 134.241C301.281 134.003 301.481 133.811 301.728 133.811L312.445 133.811C312.692 133.811 312.892 134.003 312.892 134.241C312.892 134.478 312.692 134.671 312.445 134.671L301.728 134.671C301.481 134.671 301.281 134.478 301.281 134.241Z" fill="#E7ECFA"/>
            <path fill-rule="evenodd" clip-rule="evenodd" d="M97.4883 130.503C97.4883 130.741 97.2884 130.934 97.0417 130.934L86.3245 130.934C86.0779 130.934 85.878 130.741 85.878 130.503C85.878 130.266 86.0779 130.073 86.3245 130.073L97.0417 130.073C97.2884 130.073 97.4883 130.266 97.4883 130.503Z" fill="#E7ECFA"/>
            <path fill-rule="evenodd" clip-rule="evenodd" d="M304.187 137.506C304.187 137.269 304.387 137.076 304.634 137.076L315.351 137.076C315.598 137.076 315.798 137.269 315.798 137.506C315.798 137.744 315.598 137.936 315.351 137.936L304.634 137.936C304.387 137.936 304.187 137.744 304.187 137.506Z" fill="#E7ECFA"/>
            <path fill-rule="evenodd" clip-rule="evenodd" d="M94.5859 127.242C94.5859 127.479 94.386 127.672 94.1394 127.672L83.4222 127.672C83.1756 127.672 82.9757 127.479 82.9757 127.242C82.9757 127.004 83.1756 126.812 83.4222 126.812L94.1394 126.812C94.386 126.812 94.5859 127.004 94.5859 127.242Z" fill="#E7ECFA"/>
            <path fill-rule="evenodd" clip-rule="evenodd" d="M303.219 140.764C303.219 140.527 303.419 140.334 303.665 140.334L312.931 140.334C313.178 140.334 313.378 140.527 313.378 140.764C313.378 141.002 313.178 141.194 312.931 141.194L303.665 141.194C303.419 141.194 303.219 141.002 303.219 140.764Z" fill="#E7ECFA"/>
            <path fill-rule="evenodd" clip-rule="evenodd" d="M95.5547 123.98C95.5547 124.218 95.3548 124.41 95.1081 124.41L85.8422 124.41C85.5956 124.41 85.3957 124.218 85.3957 123.98C85.3957 123.742 85.5956 123.55 85.8422 123.55L95.1081 123.55C95.3548 123.55 95.5547 123.742 95.5547 123.98Z" fill="#E7ECFA"/>
            <path fill-rule="evenodd" clip-rule="evenodd" d="M299.832 144.032C299.832 143.794 300.032 143.602 300.279 143.602L309.544 143.602C309.791 143.602 309.991 143.794 309.991 144.032C309.991 144.269 309.791 144.462 309.544 144.462L300.279 144.462C300.032 144.462 299.832 144.269 299.832 144.032Z" fill="#E7ECFA"/>
            <path fill-rule="evenodd" clip-rule="evenodd" d="M98.9414 120.718C98.9414 120.956 98.7415 121.148 98.4949 121.148L89.229 121.148C88.9823 121.148 88.7824 120.956 88.7824 120.718C88.7824 120.481 88.9823 120.288 89.229 120.288L98.4949 120.288C98.7415 120.288 98.9414 120.481 98.9414 120.718Z" fill="#E7ECFA"/>
            <path fill-rule="evenodd" clip-rule="evenodd" d="M355.93 130.981C355.93 130.743 356.13 130.551 356.376 130.551L367.093 130.551C367.34 130.551 367.54 130.743 367.54 130.981C367.54 131.218 367.34 131.411 367.093 131.411L356.376 131.411C356.13 131.411 355.93 131.218 355.93 130.981Z" fill="#E7ECFA"/>
            <path fill-rule="evenodd" clip-rule="evenodd" d="M358.832 144.032C358.832 143.794 359.032 143.602 359.279 143.602L368.544 143.602C368.791 143.602 368.991 143.794 368.991 144.032C368.991 144.269 368.791 144.462 368.544 144.462L359.279 144.462C359.032 144.462 358.832 144.269 358.832 144.032Z" fill="#E7ECFA"/>
            <g filter="url(#filter0_d_35419_38343)">
                <rect width="26.0972" height="40.2154" transform="matrix(1.04684 0.354539 -1.04684 0.354539 313.777 129.27)" fill="white"/>
            </g>
            <rect width="17.1129" height="0.641735" rx="0.320868" transform="matrix(1.04684 0.354539 -1.04684 0.354539 303.477 135.791)" fill="#BDCCF8"/>
            <rect width="17.1129" height="0.641735" rx="0.320868" transform="matrix(1.04684 0.354539 -1.04684 0.354539 300.34 136.854)" fill="#BDCCF8"/>
            <rect width="17.1129" height="0.641735" rx="0.320868" transform="matrix(1.04684 0.354539 -1.04684 0.354539 297.207 137.916)" fill="#BDCCF8"/>
            <rect width="8.55647" height="0.641735" rx="0.320868" transform="matrix(1.04684 0.354539 -1.04684 0.354539 298.543 140.494)" fill="#BDCCF8"/>
            <rect width="5.5617" height="0.641735" rx="0.320868" transform="matrix(1.04684 0.354539 -1.04684 0.354539 300.34 145.045)" fill="#BDCCF8"/>
            <g filter="url(#filter1_d_35419_38343)">
                <rect width="26.0972" height="40.2154" transform="matrix(1.04684 0.354539 -1.04684 0.354539 309.93 128.814)" fill="white"/>
                <g clip-path="url(#clip2_35419_38343)">
                    <path d="M303.679 126.236L305.095 126.716L305.461 126.592L303.668 125.984L300.79 126.959L302.583 127.566L302.949 127.442L301.534 126.963L302.731 126.557L304.154 127.039L304.52 126.915L303.097 126.433L303.679 126.236Z" fill="#E11A81"/>
                    <path d="M305.623 128.002C306.044 127.86 306.117 127.675 305.841 127.452C305.538 127.198 305.571 127.156 305.753 127.095C305.883 127.051 306.092 127.016 306.347 127.103C306.553 127.172 306.562 127.23 306.38 127.313L306.291 127.354L306.727 127.456L306.81 127.416C307.127 127.263 307.095 127.103 306.724 126.977C306.32 126.841 305.755 126.841 305.35 126.978C305.157 127.044 305.051 127.128 305.051 127.216C305.055 127.288 305.098 127.347 305.243 127.478C305.374 127.592 305.418 127.648 305.425 127.704C305.424 127.776 305.352 127.836 305.205 127.886C304.892 127.992 304.411 127.988 304.086 127.878C303.767 127.77 303.731 127.619 304.004 127.526L304.318 127.42L303.948 127.295L303.634 127.401C303.173 127.557 303.205 127.832 303.705 128.002C304.234 128.182 305.094 128.182 305.623 128.002Z" fill="#E11A81"/>
                    <path d="M306.363 128.27L307.034 128.498C307.561 128.676 308.544 128.681 309.056 128.508C309.297 128.426 309.455 128.285 309.451 128.156C309.446 128.095 309.407 128.032 309.333 127.97C309.253 127.897 309.151 127.84 309.03 127.799L308.016 127.455L305.137 128.43L305.515 128.558L306.363 128.27ZM308.027 127.707L308.657 127.921C309.048 128.053 309.057 128.249 308.679 128.378C308.317 128.5 307.765 128.497 307.393 128.371L306.729 128.146L308.027 127.707Z" fill="#E11A81"/>
                    <path d="M315.25 131.606L313.835 131.127L315.032 130.721L316.454 131.203L316.82 131.079L315.398 130.597L315.98 130.4L317.396 130.88L317.762 130.756L315.969 130.148L313.091 131.123L314.884 131.73L315.25 131.606Z" fill="#E11A81"/>
                    <path d="M313.079 130.706C312.498 130.674 312.227 130.635 311.966 130.547C311.474 130.38 311.375 130.138 311.664 129.937C311.674 129.93 311.682 129.924 311.693 129.917C311.693 129.916 311.694 129.916 311.695 129.916C311.77 129.869 311.866 129.825 311.983 129.786C312.1 129.746 312.23 129.713 312.367 129.688C312.368 129.688 312.369 129.688 312.37 129.687C312.39 129.684 312.41 129.681 312.431 129.677C313.022 129.58 313.738 129.613 314.23 129.78C314.491 129.868 314.605 129.96 314.701 130.157L314.725 130.207L315.241 130.173L315.219 130.126C315.111 129.897 314.944 129.769 314.603 129.654C314.602 129.653 314.601 129.653 314.599 129.652C314.208 129.52 313.679 129.448 313.11 129.449C312.543 129.45 312.012 129.525 311.617 129.658C311.616 129.659 311.613 129.66 311.612 129.66C311.61 129.661 311.608 129.662 311.606 129.662C311.211 129.796 310.992 129.975 310.987 130.168C310.983 130.361 311.197 130.539 311.588 130.672C311.589 130.672 311.591 130.673 311.592 130.673C311.933 130.789 312.311 130.845 312.988 130.882L313.127 130.889L313.227 130.715L313.079 130.706Z" fill="#E11A81"/>
                    <path d="M311.632 128.632C310.961 128.405 309.814 128.409 309.128 128.642L307.443 129.213L307.82 129.34L308.908 128.972L310.605 129.547L309.518 129.915L309.899 130.044L311.55 129.485C312.267 129.242 312.304 128.859 311.632 128.632ZM309.273 128.849L309.505 128.77C310.006 128.6 310.776 128.595 311.258 128.758C311.744 128.923 311.706 129.174 311.169 129.356L310.97 129.423L309.273 128.849Z" fill="#E11A81"/>
                    <path d="M314.659 132.036L315.02 132.014L314.532 131.849L314.179 131.874L313.381 131.603L310.503 132.578L312.296 133.185L312.662 133.061L311.247 132.582L312.444 132.176L313.866 132.658L314.232 132.534L312.81 132.052L313.393 131.855L314.815 132.337L315.181 132.213L314.659 132.036Z" fill="#E11A81"/>
                    <path d="M309.663 130.294C308.992 130.067 307.846 130.071 307.159 130.304L305.474 130.875L305.851 131.003L307.536 130.432C308.037 130.262 308.807 130.257 309.289 130.421C309.775 130.585 309.737 130.836 309.2 131.018L307.548 131.577L307.929 131.706L309.581 131.147C310.298 130.904 310.335 130.522 309.663 130.294Z" fill="#E11A81"/>
                    <path d="M310.458 130.86L311.407 131.181L308.894 132.032L309.279 132.163L311.792 131.312L312.762 131.641L313.128 131.517L310.824 130.736L310.458 130.86Z" fill="#E11A81"/>
                    <path d="M306.753 129.308C306.082 129.081 304.935 129.085 304.249 129.318L302.564 129.888L302.941 130.016L304.029 129.648L305.726 130.223L304.639 130.591L305.02 130.72L306.672 130.161C307.388 129.918 307.425 129.535 306.753 129.308ZM306.091 130.099L304.394 129.524L304.626 129.446C305.127 129.276 305.897 129.271 306.379 129.434C306.865 129.599 306.827 129.85 306.29 130.032L306.091 130.099L306.091 130.099Z" fill="#E11A81"/>
                    <path d="M303.056 129.463C303.476 129.321 303.55 129.135 303.273 128.912C302.971 128.658 303.004 128.617 303.185 128.556C303.316 128.511 303.525 128.477 303.779 128.563C303.985 128.633 303.994 128.69 303.813 128.774L303.724 128.815L304.16 128.917L304.243 128.876C304.559 128.723 304.527 128.564 304.156 128.438C303.753 128.301 303.187 128.302 302.782 128.439C302.59 128.504 302.483 128.588 302.484 128.677C302.488 128.749 302.531 128.808 302.675 128.939C302.806 129.053 302.85 129.108 302.858 129.165C302.857 129.237 302.785 129.296 302.637 129.346C302.324 129.452 301.844 129.449 301.518 129.339C301.199 129.231 301.164 129.079 301.437 128.987L301.751 128.88L301.382 128.756L301.068 128.862C300.606 129.018 300.639 129.293 301.138 129.463C301.666 129.642 302.527 129.642 303.056 129.463Z" fill="#E11A81"/>
                    <path d="M308.617 127.388C309.014 127.523 309.548 127.596 310.121 127.595C310.693 127.593 311.228 127.518 311.629 127.382C312.025 127.248 312.242 127.068 312.242 126.874C312.241 126.68 312.02 126.499 311.621 126.363C310.808 126.088 309.427 126.09 308.606 126.368C307.793 126.644 307.798 127.111 308.617 127.388ZM311.252 126.491C311.888 126.706 311.889 127.043 311.256 127.258C310.615 127.475 309.619 127.477 308.987 127.263C308.349 127.047 308.346 126.709 308.979 126.495C309.62 126.278 310.618 126.277 311.252 126.491Z" fill="#0C419A"/>
                    <path d="M318.692 131.023C319.118 130.879 319.118 130.644 318.692 130.5L313.562 128.756L314.855 128.319C315.571 128.076 315.401 127.623 314.729 127.396C314.059 127.168 312.912 127.173 312.225 127.406L310.54 127.976L310.918 128.104L312.603 127.533C313.104 127.364 313.873 127.359 314.356 127.522C314.841 127.687 315.011 128.008 314.474 128.19L312.813 128.752L318.337 130.62C318.558 130.695 318.535 130.821 318.315 130.895L315.364 131.895L315.741 132.022L318.692 131.023Z" fill="#0C419A"/>
                    <path d="M297.558 127.947C297.338 127.872 297.349 127.75 297.57 127.675L305.587 124.96C305.938 124.841 306.421 124.838 306.762 124.954C307.142 125.083 307.149 125.275 306.777 125.401L304.854 126.052L305.235 126.181L307.161 125.528C307.395 125.449 307.545 125.425 307.799 125.426C308.045 125.428 308.279 125.463 308.458 125.523C308.811 125.643 308.795 125.829 308.421 125.955L306.495 126.608L306.873 126.735L308.832 126.072C309.366 125.891 309.369 125.576 308.84 125.397C308.581 125.309 308.197 125.256 307.814 125.255C307.716 125.254 307.638 125.256 307.549 125.262C307.56 125.24 307.566 125.218 307.568 125.191L307.568 125.189C307.564 125.127 307.535 125.066 307.483 125.011L307.481 125.008C307.408 124.943 307.293 124.884 307.14 124.832C306.591 124.645 305.735 124.654 305.151 124.852L300.484 126.433L297.193 127.548C296.767 127.692 296.767 127.926 297.193 128.071L300.061 129.042L300.427 128.918L297.558 127.947Z" fill="#0C419A"/>
                </g>
                <rect width="17.1129" height="0.641735" rx="0.320868" transform="matrix(1.04684 0.354539 -1.04684 0.354539 299.629 135.336)" fill="#BDCCF8"/>
                <rect width="17.1129" height="0.641735" rx="0.320868" transform="matrix(1.04684 0.354539 -1.04684 0.354539 296.492 136.398)" fill="#BDCCF8"/>
                <rect width="17.1129" height="0.641735" rx="0.320868" transform="matrix(1.04684 0.354539 -1.04684 0.354539 293.359 137.459)" fill="#BDCCF8"/>
                <rect width="8.55647" height="0.641735" rx="0.320868" transform="matrix(1.04684 0.354539 -1.04684 0.354539 294.699 140.039)" fill="#BDCCF8"/>
                <rect width="5.5617" height="0.641735" rx="0.320868" transform="matrix(1.04684 0.354539 -1.04684 0.354539 296.492 144.59)" fill="#BDCCF8"/>
            </g>
            <path d="M266.893 143.022L293.805 134.853L292.926 133.945L266.427 141.367C265.365 141.715 265.716 142.84 266.893 143.022Z" fill="#006F89"/>
            <g filter="url(#filter2_d_35419_38343)">
                <path d="M286.551 149.797L266.191 142.794L293.839 133.061C293.936 133.029 294.041 133.029 294.138 133.061L313.354 139.528L286.551 149.797Z" fill="#006F89"/>
            </g>
            <path d="M286.551 149.601L312.994 139.39L312.986 138.152L286.551 148.466V149.601Z" fill="#BDC6E3"/>
            <path d="M286.551 149.574L267.399 143.047C266.909 142.88 266.076 142.443 266.107 141.926C266.143 141.319 266.719 141.533 267.296 141.728L286.551 148.241L286.551 149.574Z" fill="#E8ECFF"/>
            <path d="M286.551 148.436L266.191 141.424L293.839 131.7C293.936 131.668 294.041 131.668 294.138 131.7L313.354 138.167L286.551 148.436Z" fill="#07C3F0"/>
            <path d="M287.91 139.315L290.85 140.348L300.161 136.499L297.413 135.555L287.91 139.315Z" fill="white"/>
            <path d="M288.464 136.499L297.881 140.389L300.651 139.315L290.988 135.555L288.464 136.499Z" fill="white"/>
            <path d="M290.528 146.879L270.637 139.845L273.211 138.938L293.102 145.972L290.528 146.879Z" fill="white"/>
            <path fill-rule="evenodd" clip-rule="evenodd" d="M45.9102 131.698C45.9102 131.46 45.7102 131.268 45.4636 131.268L34.7464 131.268C34.4998 131.268 34.2999 131.46 34.2999 131.698C34.2999 131.935 34.4998 132.128 34.7464 132.128L45.4636 132.128C45.7102 132.128 45.9102 131.935 45.9102 131.698Z" fill="#E7ECFA"/>
            <path fill-rule="evenodd" clip-rule="evenodd" d="M41.5547 134.956C41.5547 134.718 41.3548 134.525 41.1081 134.525L30.391 134.525C30.1443 134.525 29.9444 134.718 29.9444 134.956C29.9444 135.193 30.1443 135.386 30.391 135.386L41.1081 135.386C41.3548 135.386 41.5547 135.193 41.5547 134.956Z" fill="#E7ECFA"/>
            <path fill-rule="evenodd" clip-rule="evenodd" d="M38.6523 138.223C38.6523 137.986 38.4524 137.793 38.2058 137.793L27.4886 137.793C27.242 137.793 27.0421 137.986 27.0421 138.223C27.0421 138.461 27.242 138.653 27.4886 138.653L38.2058 138.653C38.4524 138.653 38.6523 138.461 38.6523 138.223Z" fill="#E7ECFA"/>
            <path fill-rule="evenodd" clip-rule="evenodd" d="M39.6211 141.481C39.6211 141.243 39.4212 141.051 39.1745 141.051L29.9086 141.051C29.662 141.051 29.4621 141.243 29.4621 141.481C29.4621 141.718 29.662 141.911 29.9086 141.911L39.1745 141.911C39.4212 141.911 39.6211 141.718 39.6211 141.481Z" fill="#E7ECFA"/>
            <path fill-rule="evenodd" clip-rule="evenodd" d="M43.0039 144.747C43.0039 144.509 42.804 144.316 42.5574 144.316L33.2915 144.316C33.0448 144.316 32.8449 144.509 32.8449 144.747C32.8449 144.984 33.0448 145.177 33.2915 145.177L42.5574 145.177C42.804 145.177 43.0039 144.984 43.0039 144.747Z" fill="#E7ECFA"/>
            <path d="M206.303 121.736C204.448 99.8689 218.289 85.8227 239.21 72.0742C257.809 66.6542 296.337 75.1354 325.816 77.6892C326.497 77.7324 327.155 77.8942 327.741 78.1625C328.328 78.4307 328.827 78.7982 329.201 79.2371C329.575 79.676 329.813 80.1746 329.899 80.6951C329.984 81.2155 329.914 81.7441 329.693 82.2406C321.819 100.059 314.966 125.422 291.052 126.755L206.303 121.736Z" fill="#FFDF95"/>
            <path d="M329.721 82.7293C329.832 82.4584 329.904 82.1775 329.935 81.8926C293.711 113.815 258.602 125.417 258.602 125.417L292.588 128.425C315.57 127.057 322.156 101.021 329.721 82.7293Z" fill="#FFEBBB"/>
            <path d="M209.216 68.3178C210.515 67.2386 210.42 70.2617 211.029 70.5389C212.071 71.0152 211.632 72.8672 212.181 73.3959C212.73 73.9247 215.535 77.1126 215.55 77.1164C216.794 77.4689 223.824 101.484 224.849 101.908C225.874 102.332 236.93 100.709 236.93 100.709L239.566 109.948C239.566 109.948 219.211 113.546 217.6 111.288C216.546 109.813 213.977 96.0497 212.323 86.0402C211.823 83.6966 211.173 81.4423 210.424 80.6964C208.667 78.9505 207.816 77.4689 207.541 75.9874C207.347 74.9401 207.624 69.6397 209.216 68.3178Z" fill="#FCC5BE"/>
            <path d="M160.781 115.767L159.108 125.5C159.108 125.5 160.781 132.483 159.945 132.908C159.108 133.333 132.327 133.12 132.327 133.12C132.327 133.12 127.306 130.793 130.868 129.946C134.431 129.099 148.513 125.859 149.488 124.163C150.464 122.467 151.581 113.439 151.581 113.439L160.781 115.767Z" fill="#FCC5BE"/>
            <path d="M110.863 132.772L100.619 133.273C100.619 133.273 93.9894 136.476 93.3671 135.744C92.7448 135.011 86.7945 108.014 86.7945 108.014C86.7945 108.014 87.8839 103.075 89.5667 106.397C91.2496 109.718 97.7988 122.896 99.7426 123.484C101.686 124.072 111.082 123.176 111.082 123.176L110.863 132.772Z" fill="#FCC5BE"/>
            <path d="M218.02 113.193C218.02 113.193 213.72 112.762 210.425 110.511C197.72 101.841 171.708 77.7592 164.515 80.9586C163.756 81.2958 162.201 82.0353 161.44 82.7569C153.118 90.6488 146.277 119.47 146.277 119.47L159.236 125.395L167.589 99.3695L192.232 124.606L218.02 113.193Z" fill="#939BE4"/>
            <path d="M229.867 110.842L210.543 110.389C210.543 110.389 161.342 115.946 155.417 118.968C149.493 121.99 103.244 122.038 103.244 122.038L105.576 134.341L169.926 133.334L209.306 134.341L229.867 110.842Z" fill="#B0B7F9"/>
            <path d="M263.277 91.6777C263.277 91.6777 254.449 91.6777 248.408 93.1708C242.368 94.6638 234.317 96.1543 234.317 96.1543L236.64 107.942C236.64 107.942 249.187 105.852 249.806 105.852C250.425 105.852 263.277 91.6777 263.277 91.6777Z" fill="#9856AD"/>
            <path d="M274.126 93.0498C274.126 93.0498 277.96 96.0717 276.566 106.142C275.173 116.213 269.117 126.971 256.919 131.671C244.72 136.371 209.306 134.34 209.306 134.34L210.534 110.001C210.534 110.001 228.447 110.177 232.279 109.841C235.313 109.576 243.169 94.1316 259.444 91.3984C263.732 90.6768 268.604 91.6526 274.126 93.0498Z" fill="#AF67C7"/>
            <path d="M273.055 85.6552C273.055 85.6552 275.94 83.3525 278.014 82.4565C280.088 81.5605 283.755 78.1807 285.022 73.1886C286.288 68.1965 283.232 64.9283 281.374 63.6129C279.517 62.2975 271.717 59.4651 268.623 59.7415C265.528 60.018 263.09 70.0566 263.09 70.0566L264.328 78.9419L273.055 85.6552Z" fill="#E7704B"/>
            <path d="M263.417 83.9392L259.497 91.3227C259.497 91.3227 259.153 94.1951 259.93 95.4531C261.265 97.6244 270.537 92.3253 270.537 92.3253L274.637 79.6465L263.417 83.9392Z" fill="#FBBFB2"/>
            <path d="M273.433 83.381C269.72 87.6533 264.081 88.2919 261.411 87.7235L263.419 83.9392L274.637 79.6465L273.433 83.381Z" fill="#CDA197"/>
            <path d="M261.665 78.7593C258.94 77.4245 258.171 73.6149 259.948 70.2504C261.724 66.8858 265.373 65.2404 268.098 66.5753C270.822 67.9101 271.591 71.7197 269.815 75.0842C268.038 78.4487 264.389 80.0941 261.665 78.7593Z" fill="#153467"/>
            <path d="M277.286 63.8303C273.648 60.6449 267.829 61.4456 265.234 65.3579C263.874 67.4017 262.653 69.5258 261.58 71.7172C258.674 77.6827 259.248 84.902 262.132 86.1024C265.015 87.3027 274.791 86.7235 279.038 78.3067C281.661 73.1116 281.109 67.1678 277.286 63.8303Z" fill="#FBBFB2"/>
            <path d="M276.268 77.825C275.662 79.1867 276.083 80.6882 277.219 81.1773C278.356 81.6664 279.767 80.9588 280.378 79.597C280.988 78.2353 280.561 76.7338 279.427 76.2447C278.292 75.7557 276.877 76.4633 276.268 77.825Z" fill="#FBBFB2"/>
            <path d="M278.877 76.6451C278.877 76.6451 280.553 74.1299 281.332 71.3942C282.111 68.6585 281.308 64.124 278.745 62.543C276.182 60.962 269.286 59.6071 269.121 57.5958C268.955 55.5846 268.888 55.7561 268.707 55.3844C268.292 54.5388 263.404 55.6268 261.812 60.16C260.22 64.6932 264.375 66.0399 265.12 66.4593C265.865 66.8787 274.271 66.6023 276.43 67.5487C278.588 68.4951 278.877 76.6451 278.877 76.6451Z" fill="#E7704B"/>
            <path d="M270.551 123.738L257.191 136.047L250.918 125.864L261.955 115.457L270.551 123.738Z" fill="#FCC5BE"/>
            <path d="M213.396 128.788C213.396 128.788 239.745 126.823 248.293 125.709C256.84 124.595 260.438 127.056 261.014 128.905C261.455 130.332 260.109 136.736 250.427 138.321C240.746 139.907 215.544 133.334 215.153 134.505C214.762 135.676 210.221 136.814 209.852 136.859C207.61 137.139 203.756 133.389 203.756 133.389C203.756 133.389 198.619 135.914 197.855 134.881C197.491 134.387 204.371 129.272 206.773 129.016C209.176 128.761 213.396 128.788 213.396 128.788Z" fill="#FCC5BE"/>
            <g clip-path="url(#clip3_35419_38343)">
                <path d="M249.675 139.035C243.051 139.29 210.424 138.058 205.242 137.501C205.242 137.501 203.719 133.767 207.575 128.14C207.575 128.14 239.451 125.144 253.353 122.346C261.059 122.731 259.373 134.488 258.705 135.797C258.037 137.105 257.017 138.754 249.675 139.035Z" fill="#F9F9F9"/>
                <path d="M227.562 138.679C227.588 138.608 230.291 131.434 229.993 125.981L230.536 125.961C230.833 131.473 228.11 138.702 228.084 138.775L227.562 138.679Z" fill="#DDDDDD"/>
                <path d="M226.625 137.128C225.07 135.256 222.193 130.612 223.126 127.018M221.96 128.89C220.664 130.762 218.073 135.106 218.073 137.502" stroke="#DDDDDD" stroke-width="0.5"/>
                <path d="M217.295 135.629C216.517 133.632 215.507 129.263 217.684 127.766M216.129 128.515C213.537 129.263 208.354 132.034 208.354 137.127" stroke="#DDDDDD" stroke-width="0.5"/>
                <path d="M232.452 138.123C232.587 137.682 235.799 127.282 237.664 125.319L238.168 125.586C236.375 127.471 233.086 138.114 233.053 138.227L232.452 138.123Z" fill="#DDDDDD"/>
                <path d="M236.915 126.559L237.449 126.475C238.443 130.931 240.439 135.18 243.332 139L242.882 139.256C239.948 135.384 237.924 131.076 236.915 126.559Z" fill="#DDDDDD"/>
                <path d="M247.674 139.14C247.56 138.654 244.882 127.234 246.052 123.78L246.578 123.876C245.436 127.224 248.181 138.933 248.207 139.05L247.674 139.14Z" fill="#DDDDDD"/>
                <path d="M253.356 138.592C253.373 138.483 255.189 127.656 255.019 122.746L255.558 122.725C255.73 127.671 253.913 138.538 253.892 138.648L253.356 138.592Z" fill="#DDDDDD"/>
            </g>
            <path d="M256.553 119.398C256.553 119.398 261.355 91.513 274.127 93.0495C276.592 93.3458 277.959 94.9449 278.558 97.3307C281.067 107.308 268.708 129.696 268.708 129.696C268.708 129.696 257.256 121.411 256.553 119.398Z" fill="#9856AD"/>
            <path d="M214.238 75.4015L213.322 72.6108C212.924 72.5367 212.594 72.5559 212.394 72.7385C211.642 73.4768 213.736 75.1959 214.238 75.4015Z" fill="#13375B"/>
            <path d="M213.811 75.56L214.241 75.3965C214.241 75.3965 215.169 76.9713 215.459 77.606C215.75 78.2408 213.427 78.9458 212.768 78.7696C212.109 78.5933 213.811 75.56 213.811 75.56Z" fill="#F47458"/>
            <g clip-path="url(#clip4_35419_38343)">
                <path d="M210.485 78.8613L216.15 78.6584C216.435 78.6494 217.04 77.9084 216.951 77.5878L212.174 62.2655C212.073 61.8958 211.731 61.5711 211.415 61.5442L205.484 60.297C205.136 60.2667 204.541 61.2653 204.661 61.6546L209.739 78.2741C209.786 78.4345 209.883 78.5767 210.016 78.6816C210.149 78.7866 210.313 78.8492 210.485 78.8613Z" fill="black"/>
                <path d="M211.068 78.1528L216.734 77.9499C217.017 77.9401 217.178 77.6694 217.09 77.3488L212.755 61.5562C212.654 61.1865 212.313 60.8619 211.996 60.8349L205.662 60.2886C205.313 60.2583 205.127 60.5536 205.244 60.9437L210.323 77.5656C210.37 77.726 210.466 77.8682 210.599 77.9732C210.733 78.0781 210.896 78.1408 211.068 78.1528Z" fill="#CBCDE3"/>
            </g>
            <path d="M216.904 77.5877C216.515 77.9622 216.904 78.7111 214.96 78.7111L215.427 78.973C216.005 79.9958 217.181 81.3323 217.181 81.3323C217.181 81.3323 219.341 74.6235 216.748 73.8915C216.748 73.8915 214.83 73.4329 213.662 73.5952C213.261 73.6519 212.956 73.7751 212.83 74.0112C212.363 74.9454 214.933 75.9002 215.478 75.9344L215.491 75.9297L216.707 75.9344L216.904 77.5877Z" fill="#FCC5BE"/>
            <path d="M206.188 73.606C206.188 73.606 204.893 73.0033 205.105 72.0758C205.217 71.5864 208.997 69.8846 209.472 70.2026C210.771 71.076 207.385 72.6654 206.188 73.606Z" fill="#FCC5BE"/>
            <path d="M205.848 75.5695C205.848 75.5695 204.953 74.9684 204.9 74.2059C204.861 73.6423 209.412 71.0979 210.259 71.5103C211.71 72.2159 207.314 74.4425 205.848 75.5695Z" fill="#FCC5BE"/>
            <path d="M205.877 75.4541C205.877 75.4541 209.845 72.5758 210.717 72.9224C211.589 73.2691 209.547 74.9356 209.547 74.9356L209.861 79.6676C209.861 79.6676 205.59 76.6432 205.877 75.4541Z" fill="#FCC5BE"/>
            <path d="M209.897 76.2198C209.897 76.2198 210.037 76.6349 210.295 77.7675C210.893 80.3806 210.673 80.4554 210.476 80.5758C210.278 80.6962 209.99 79.2941 209.802 79.2251C209.615 79.1562 208.081 76.7086 208.393 75.5735C208.704 74.4384 209.274 74.5997 209.274 74.5997L209.897 76.2198Z" fill="#FCC5BE"/>
            <path d="M274.543 82.895C272.006 81.7757 271.543 77.9661 273.507 74.386C275.472 70.806 279.121 68.8111 281.657 69.9304C284.194 71.0497 284.657 74.8593 282.693 78.4393C280.728 82.0194 277.079 84.0143 274.543 82.895Z" fill="#153467"/>
            <path d="M276.512 82.5492C274.479 81.6523 274.272 78.3007 276.049 75.0632C277.827 71.8257 280.915 69.9283 282.948 70.8252C284.981 71.7221 285.188 75.0737 283.411 78.3112C281.634 81.5487 278.545 83.4461 276.512 82.5492Z" fill="#0C419A"/>
            <path d="M282.395 72.1072C282.474 71.9835 282.523 71.8461 282.538 71.7082C282.876 68.432 282.144 65.3088 280.456 62.8184C279.046 60.7434 277.151 59.4075 275.629 59.4142C275.421 59.4156 275.209 59.5015 275.039 59.6528C274.869 59.8042 274.755 60.0087 274.722 60.2214C274.689 60.434 274.741 60.6374 274.865 60.7868C274.988 60.9362 275.175 61.0193 275.383 61.0179C276.27 61.0137 277.834 61.9893 279.108 63.8635C280.613 66.0885 281.265 68.876 280.967 71.8004C280.948 71.977 280.988 72.1453 281.079 72.2791C281.171 72.4129 281.309 72.5046 281.473 72.5399C281.636 72.5752 281.816 72.552 281.983 72.4741C282.15 72.3961 282.296 72.2678 282.398 72.1091L282.395 72.1072Z" fill="#0C419A"/>
        </g>
    </g>
    <defs>
        <filter id="filter0_d_35419_38343" x="271.68" y="129.27" width="69.418" height="24.059" filterUnits="userSpaceOnUse" color-interpolation-filters="sRGB">
            <feFlood flood-opacity="0" result="BackgroundImageFix"/>
            <feColorMatrix in="SourceAlpha" type="matrix" values="0 0 0 0 0 0 0 0 0 0 0 0 0 0 0 0 0 0 127 0" result="hardAlpha"/>
            <feOffset dy="0.549202"/>
            <feComposite in2="hardAlpha" operator="out"/>
            <feColorMatrix type="matrix" values="0 0 0 0 0.466667 0 0 0 0 0.580392 0 0 0 0 0.905882 0 0 0 0.3 0"/>
            <feBlend mode="normal" in2="BackgroundImageFix" result="effect1_dropShadow_35419_38343"/>
            <feBlend mode="normal" in="SourceGraphic" in2="effect1_dropShadow_35419_38343" result="shape"/>
        </filter>
        <filter id="filter1_d_35419_38343" x="267.832" y="124.047" width="69.418" height="28.8265" filterUnits="userSpaceOnUse" color-interpolation-filters="sRGB">
            <feFlood flood-opacity="0" result="BackgroundImageFix"/>
            <feColorMatrix in="SourceAlpha" type="matrix" values="0 0 0 0 0 0 0 0 0 0 0 0 0 0 0 0 0 0 127 0" result="hardAlpha"/>
            <feOffset dy="0.549202"/>
            <feComposite in2="hardAlpha" operator="out"/>
            <feColorMatrix type="matrix" values="0 0 0 0 0.466667 0 0 0 0 0.580392 0 0 0 0 0.905882 0 0 0 0.3 0"/>
            <feBlend mode="normal" in2="BackgroundImageFix" result="effect1_dropShadow_35419_38343"/>
            <feBlend mode="normal" in="SourceGraphic" in2="effect1_dropShadow_35419_38343" result="shape"/>
        </filter>
        <filter id="filter2_d_35419_38343" x="266.191" y="133.037" width="47.1641" height="17.1267" filterUnits="userSpaceOnUse" color-interpolation-filters="sRGB">
            <feFlood flood-opacity="0" result="BackgroundImageFix"/>
            <feColorMatrix in="SourceAlpha" type="matrix" values="0 0 0 0 0 0 0 0 0 0 0 0 0 0 0 0 0 0 127 0" result="hardAlpha"/>
            <feOffset dy="0.366947"/>
            <feComposite in2="hardAlpha" operator="out"/>
            <feColorMatrix type="matrix" values="0 0 0 0 0.466667 0 0 0 0 0.580392 0 0 0 0 0.905882 0 0 0 0.3 0"/>
            <feBlend mode="normal" in2="BackgroundImageFix" result="effect1_dropShadow_35419_38343"/>
            <feBlend mode="normal" in="SourceGraphic" in2="effect1_dropShadow_35419_38343" result="shape"/>
        </filter>
        <clipPath id="clip0_35419_38343">
            <rect width="360" height="258" fill="white"/>
        </clipPath>
        <clipPath id="clip1_35419_38343">
            <rect width="360" height="258" fill="white"/>
        </clipPath>
        <clipPath id="clip2_35419_38343">
            <rect width="17.2514" height="9.88951" fill="white" transform="matrix(1.04684 0.354539 -1.04684 0.354539 305.352 124.047)"/>
        </clipPath>
        <clipPath id="clip3_35419_38343">
            <rect width="59.7775" height="16.9197" fill="white" transform="matrix(0.999264 -0.0383557 -0.0413328 -0.999145 199.934 140.973)"/>
        </clipPath>
        <clipPath id="clip4_35419_38343">
            <rect width="16.9823" height="22.1924" fill="white" transform="matrix(-0.465101 0.885258 0.898882 0.438191 204.934 56.9883)"/>
        </clipPath>
    </defs>
</svg>
