<svg width="360" height="258" viewBox="0 0 360 258" fill="none" xmlns="http://www.w3.org/2000/svg">
    <g clip-path="url(#clip0_35419_38609)">
        <g clip-path="url(#clip1_35419_38609)">
            <path d="M38.8705 264.916C36.7006 263.484 34.5483 261.977 32.4134 260.393C6.28741 240.995 -11.9819 212.976 -18.199 182.768C-20.3606 172.27 -21.0736 161.234 -17.4982 151.063C-13.3868 139.373 -3.94123 129.81 6.64301 122.234C28.4632 106.613 55.5176 98.1932 82.728 93.3269C99.5258 90.3231 116.606 88.5646 133.169 84.6191C186.948 71.83 211.275 20.8093 262.313 4.47921C296.548 -6.47308 333.759 5.3201 369.371 11.6299C414.171 19.5688 462.42 19.2219 501.645 40.5094C526.38 53.938 545.047 74.7635 563.093 95.2197C574.697 108.375 586.837 122.947 586.998 139.833C587.221 163.049 566.173 183.941 550.948 200.781C502.892 253.935 562.5 308.552 453.686 306.966C399.358 306.167 345.116 297.215 291.822 288.28C207.966 274.228 113.542 314.184 38.8705 264.916Z" fill="#F1F5FF"/>
            <path d="M56 160.182C55.941 178.464 124.842 193.596 209.894 193.975C294.946 194.354 363.943 179.836 364 161.558C364.057 143.279 295.628 130.361 210.574 129.991C125.52 129.62 56.059 141.904 56 160.182Z" fill="#E7ECFA"/>
            <path fill-rule="evenodd" clip-rule="evenodd" d="M114.559 152.124C114.559 151.878 114.359 151.678 114.112 151.678L103.395 151.678C103.148 151.678 102.948 151.878 102.948 152.124C102.948 152.371 103.148 152.571 103.395 152.571L114.112 152.571C114.359 152.571 114.559 152.371 114.559 152.124Z" fill="#E7ECFA"/>
            <path fill-rule="evenodd" clip-rule="evenodd" d="M309.645 155.012C309.645 155.259 309.844 155.459 310.091 155.459L320.808 155.459C321.055 155.459 321.255 155.259 321.255 155.012C321.255 154.766 321.055 154.566 320.808 154.566L310.091 154.566C309.844 154.566 309.645 154.766 309.645 155.012Z" fill="#E7ECFA"/>
            <path fill-rule="evenodd" clip-rule="evenodd" d="M110.203 155.507C110.203 155.26 110.003 155.061 109.757 155.061L99.0394 155.061C98.7928 155.061 98.5928 155.26 98.5928 155.507C98.5928 155.754 98.7928 155.954 99.0394 155.954L109.757 155.954C110.003 155.954 110.203 155.754 110.203 155.507Z" fill="#E7ECFA"/>
            <path fill-rule="evenodd" clip-rule="evenodd" d="M314 151.628C314 151.874 314.2 152.074 314.447 152.074L325.164 152.074C325.41 152.074 325.61 151.874 325.61 151.628C325.61 151.381 325.41 151.181 325.164 151.181L314.447 151.181C314.2 151.181 314 151.381 314 151.628Z" fill="#E7ECFA"/>
            <path fill-rule="evenodd" clip-rule="evenodd" d="M107.301 158.898C107.301 158.651 107.101 158.451 106.854 158.451L96.137 158.451C95.8904 158.451 95.6905 158.651 95.6905 158.898C95.6905 159.144 95.8904 159.344 96.137 159.344L106.854 159.344C107.101 159.344 107.301 159.144 107.301 158.898Z" fill="#E7ECFA"/>
            <path fill-rule="evenodd" clip-rule="evenodd" d="M316.902 148.241C316.902 148.488 317.102 148.687 317.349 148.687L328.066 148.687C328.313 148.687 328.513 148.488 328.513 148.241C328.513 147.994 328.313 147.794 328.066 147.794L317.349 147.794C317.102 147.794 316.902 147.994 316.902 148.241Z" fill="#E7ECFA"/>
            <path fill-rule="evenodd" clip-rule="evenodd" d="M108.27 162.281C108.27 162.034 108.07 161.834 107.823 161.834L98.5571 161.834C98.3105 161.834 98.1105 162.034 98.1105 162.281C98.1105 162.527 98.3105 162.727 98.5571 162.727L107.823 162.727C108.07 162.727 108.27 162.527 108.27 162.281Z" fill="#E7ECFA"/>
            <path fill-rule="evenodd" clip-rule="evenodd" d="M315.934 144.854C315.934 145.101 316.134 145.301 316.38 145.301L325.646 145.301C325.893 145.301 326.093 145.101 326.093 144.854C326.093 144.608 325.893 144.408 325.646 144.408L316.38 144.408C316.134 144.408 315.934 144.608 315.934 144.854Z" fill="#E7ECFA"/>
            <path fill-rule="evenodd" clip-rule="evenodd" d="M111.652 165.671C111.652 165.425 111.452 165.225 111.206 165.225L101.94 165.225C101.693 165.225 101.493 165.425 101.493 165.671C101.493 165.918 101.693 166.118 101.94 166.118L111.206 166.118C111.452 166.118 111.652 165.918 111.652 165.671Z" fill="#E7ECFA"/>
            <path fill-rule="evenodd" clip-rule="evenodd" d="M312.547 141.468C312.547 141.714 312.747 141.914 312.993 141.914L322.259 141.914C322.506 141.914 322.706 141.714 322.706 141.468C322.706 141.221 322.506 141.021 322.259 141.021L312.993 141.021C312.747 141.021 312.547 141.221 312.547 141.468Z" fill="#E7ECFA"/>
            <path d="M214.451 149.799C212.315 110.628 237.456 86.5858 261.546 61.9581C282.963 52.2493 318.124 66.3233 352.069 70.8978C352.852 70.9752 353.61 71.2651 354.285 71.7456C354.96 72.2261 355.535 72.8845 355.966 73.6706C356.396 74.4568 356.671 75.35 356.769 76.2823C356.868 77.2146 356.787 78.1614 356.533 79.0508C347.465 110.969 339.574 156.401 312.038 158.789L214.451 149.799Z" fill="#A05BB6"/>
            <path d="M356.533 79.0519C356.667 78.5791 356.753 78.089 356.79 77.5918C313.377 133.295 214.449 149.8 214.449 149.8L312.032 158.791C339.574 156.403 347.467 110.97 356.533 79.0519Z" fill="#BA67D5"/>
            <path d="M171.587 203.476C185.179 195.13 196.991 179.017 215.532 165.534C221.283 159.93 222.334 158.677 228.613 167.441C230.443 171.302 228.647 177.245 225.338 179.67C204.419 194.987 186.814 202.622 174.826 210.557C172.422 212.15 169.082 205.369 171.587 203.476Z" fill="#0F1F59"/>
            <path d="M202.436 155.806C200.169 158.768 200.36 161.203 200.039 163.623C203.682 168.675 211.271 177.614 212.488 172.952C214.008 167.124 241.558 156.137 251.262 149.653C259.026 144.466 261.929 132.761 258.779 128.79C255.629 124.82 232.273 133.519 232.273 133.519C220.814 141.978 203.183 154.829 202.436 155.806Z" fill="#0F1F59"/>
            <path d="M240.138 82.2514L236.884 118.17C236.737 119.801 237.823 121.388 239.443 121.906L240.416 122.223C243.02 123.057 245.631 121.613 246.15 119.057L254.318 78.7656L240.138 82.2514Z" fill="#E0876B"/>
            <path d="M266.594 135.953C266.594 136.158 266.533 136.358 266.419 136.528C266.305 136.698 266.143 136.83 265.954 136.908C265.765 136.986 265.557 137.007 265.356 136.967C265.155 136.926 264.971 136.828 264.826 136.683C264.681 136.538 264.583 136.353 264.543 136.153C264.503 135.952 264.524 135.744 264.602 135.555C264.681 135.366 264.813 135.204 264.984 135.09C265.154 134.977 265.354 134.916 265.559 134.916C265.695 134.916 265.83 134.943 265.955 134.995C266.081 135.047 266.195 135.124 266.291 135.22C266.387 135.316 266.464 135.43 266.516 135.556C266.568 135.682 266.594 135.817 266.594 135.953Z" fill="#FAAA91"/>
            <path d="M282.009 84.8585H249.682C245.671 84.8585 242.418 80.9263 242.418 76.0759C242.418 71.2239 245.671 67.2917 249.682 67.2917L264.997 62.1152L282.014 67.2917C286.027 67.2917 289.28 71.2239 289.28 76.0759C289.28 80.9263 286.027 84.8585 282.009 84.8585Z" fill="#E0876B"/>
            <path d="M263.784 55.1331C263.784 55.1331 271.783 49.7252 269.062 41.5617C266.341 34.6209 265.407 34.6209 265.407 34.6209L263.256 37.1792L263.784 55.1331Z" fill="#0F1F59"/>
            <path d="M265.565 74.8742L264.765 75.0879C262.305 75.7417 256.36 74.9407 255.644 72.2559C260.054 69.7484 256.861 60.8708 253.915 52.3272C253.2 49.6361 254.626 46.9101 257.081 46.2548L257.882 46.041C260.341 45.3857 264.105 47.7238 264.819 50.4086C267.308 56.9797 270.209 62.2955 272.087 68.7384C272.802 71.4232 268.02 74.2188 265.565 74.8742Z" fill="#E0876B"/>
            <path d="M256.965 61.9251L257.555 64.6954C260.58 62.7897 262.831 59.8729 263.908 56.4637L265.016 54.3203L256.965 61.9251Z" fill="#C4735A"/>
            <path d="M243.36 48.7153L243.217 47.9523C243.198 47.847 243.265 47.7448 243.369 47.7206L252.405 45.6306L243.626 48.8661C243.51 48.9089 243.383 48.837 243.36 48.7153Z" fill="#0F1F59"/>
            <path d="M247.995 54.1133L244.971 43.5463C243.494 37.1108 247.229 32.9952 252.888 31.7016L253.495 31.8937C259.16 30.5935 264.657 32.259 266.134 38.6946L266.3 50.2253C267.467 55.27 253.542 72.4113 247.995 54.1133Z" fill="#E0876B"/>
            <path d="M269.18 45.9576C269.207 43.9451 268.196 42.3002 266.924 42.2836C265.651 42.2669 264.597 43.8848 264.571 45.8972C264.545 47.9096 265.555 49.5545 266.828 49.5712C268.101 49.5878 269.154 47.97 269.18 45.9576Z" fill="#E0876B"/>
            <path d="M261.284 43.976C261.265 43.6861 261.185 43.2736 260.897 43.1175C260.583 42.9474 264.425 42.2958 266.943 41.892C267.183 41.8536 267.265 42.1878 267.035 42.2682L261.576 44.1818C261.439 44.2297 261.294 44.1205 261.284 43.976Z" fill="#0F1F59"/>
            <path d="M246.905 46.6153L245.35 47.7815L244.961 48.9477L246.127 50.8914L247.682 52.4464L249.626 52.8351L250.792 52.0576L251.958 50.114L252.347 48.559L251.57 47.004L248.46 46.2266L246.905 46.6153Z" fill="#D9D9D9" fill-opacity="0.5"/>
            <path d="M254.706 45.4031L253.901 47.003L254.35 48.3659L255.845 49.7242L258.177 50.5017L259.732 49.7242L260.435 48.3659L260.8 46.2065L260.435 44.6457L258.955 43.5044L255.912 44.3469L254.706 45.4031Z" fill="#D9D9D9" fill-opacity="0.5"/>
            <path d="M261.584 42.8712C261.707 43.1956 261.84 43.7279 261.859 43.9681C261.837 44.0169 261.791 44.0385 261.748 44.0578C261.58 44.1319 261.436 44.2445 261.281 44.3405C261.177 44.4084 261.085 44.4959 261.006 44.5998C260.925 44.7012 260.869 44.8281 260.844 44.9682C260.818 45.1223 260.817 45.2832 260.841 45.443C260.98 46.4497 260.88 47.4325 260.605 48.3957C260.54 48.6186 260.459 48.8334 260.363 49.0381C260.087 49.639 259.647 50.0668 259.074 50.3575C258.419 50.6801 257.68 50.7602 256.949 50.5878C255.92 50.3323 255.054 49.7904 254.352 48.962C254.259 48.8521 254.173 48.7367 254.081 48.6259C253.971 48.4928 253.862 48.3586 253.747 48.2306C253.673 48.1511 253.595 48.0768 253.514 48.0082C253.399 47.9075 253.266 47.876 253.12 47.9064C252.995 47.9323 252.877 47.9751 252.799 48.0871C252.77 48.1254 252.746 48.1687 252.728 48.2159C252.688 48.3297 252.654 48.4466 252.626 48.5662C252.591 48.7274 252.564 48.8912 252.54 49.056C252.499 49.3581 252.44 49.6549 252.364 49.9441C252.232 50.426 252.021 50.8681 251.754 51.2829C251.55 51.6066 251.312 51.8969 251.043 52.1477C250.797 52.3741 250.525 52.5622 250.234 52.7076C249.945 52.8519 249.637 52.9472 249.318 52.991C248.73 53.0745 248.161 52.9937 247.62 52.7151C247.478 52.6397 247.34 52.5505 247.209 52.4485C246.929 52.2348 246.665 51.9908 246.421 51.72C245.966 51.2153 245.58 50.6604 245.279 50.0461C245.21 49.9016 245.15 49.755 245.086 49.6073C245.027 49.465 244.95 49.3331 244.856 49.2168C244.766 49.107 244.654 49.0245 244.532 48.9777C244.399 48.9219 244.261 48.8911 244.123 48.8863C243.941 48.8835 243.76 48.8579 243.578 48.8768C243.553 48.8771 243.528 48.8746 243.503 48.8694C243.487 48.8614 243.472 48.849 243.461 48.8332C243.449 48.8174 243.441 48.7988 243.437 48.7792C243.338 48.4608 243.248 48.14 243.176 47.8144C243.173 47.7958 243.174 47.7771 243.177 47.7592C243.204 47.7084 243.248 47.7038 243.288 47.6934C243.544 47.6253 243.8 47.5578 244.056 47.4907C244.232 47.4441 244.409 47.4039 244.584 47.3588C244.814 47.3003 245.032 47.2047 245.234 47.0747C245.511 46.897 245.795 46.7322 246.086 46.5803C246.334 46.4507 246.588 46.3346 246.849 46.2348C246.914 46.21 246.981 46.1905 247.049 46.1734C247.34 46.1001 247.634 46.0453 247.932 46.0066C248.229 45.9689 248.53 45.9532 248.832 45.9598C249.104 45.9648 249.377 45.9739 249.649 46.006C249.946 46.0416 250.242 46.1028 250.535 46.1889C250.893 46.2935 251.251 46.4007 251.608 46.5103C251.825 46.5806 252.046 46.6267 252.267 46.6479C252.66 46.6793 252.809 46.6413 253.134 46.4175C253.31 46.2935 253.474 46.1488 253.623 45.9854C253.879 45.7135 254.136 45.4426 254.394 45.1728C254.654 44.8981 254.937 44.6556 255.241 44.4486C255.602 44.2067 255.971 43.9798 256.367 43.8001C256.532 43.7249 256.698 43.6514 256.87 43.5945C256.95 43.5684 257.029 43.5411 257.107 43.5117C257.383 43.4113 257.67 43.348 257.963 43.3229C258.414 43.2806 258.868 43.2698 259.324 43.2907C259.401 43.2944 259.478 43.2948 259.555 43.2963C259.731 43.3005 259.905 43.2812 260.074 43.2389C260.203 43.2063 260.331 43.1706 260.459 43.1349C260.782 43.0466 261.104 42.9575 261.428 42.8702C261.474 42.8613 261.52 42.8385 261.584 42.8712ZM247.5 46.6673C247.38 46.7044 247.259 46.7391 247.141 46.7787C246.915 46.8538 246.705 46.9658 246.493 47.072C246.295 47.1714 246.11 47.2987 245.941 47.4513C245.848 47.5356 245.761 47.6273 245.679 47.7261C245.546 47.8802 245.469 48.0909 245.462 48.3193C245.454 48.6821 245.491 49.041 245.609 49.3885C245.635 49.4641 245.666 49.5382 245.693 49.6121C245.801 49.9138 245.942 50.2013 246.11 50.4676C246.234 50.6622 246.364 50.8529 246.495 51.0419C246.657 51.2737 246.855 51.4709 247.048 51.6733C247.267 51.9036 247.519 52.0854 247.789 52.2083C248.146 52.3708 248.513 52.4886 248.904 52.5C249.001 52.5029 249.099 52.4994 249.197 52.4954C249.463 52.4821 249.721 52.4158 249.961 52.2992C250.301 52.1393 250.583 51.8968 250.832 51.6162C251.143 51.2655 251.391 50.8448 251.563 50.3751C251.667 50.0932 251.746 49.8021 251.77 49.4979C251.82 48.8742 251.724 48.2744 251.463 47.701C251.329 47.3978 251.112 47.1499 250.849 47.0009C250.562 46.8309 250.258 46.7099 249.948 46.6421C249.686 46.5867 249.423 46.5467 249.16 46.5221C248.816 46.4866 248.473 46.4949 248.137 46.5468C247.923 46.5795 247.712 46.6225 247.5 46.6673ZM260.236 45.3294C260.174 45.0656 260.054 44.8285 259.93 44.5897C259.789 44.3185 259.579 44.1388 259.298 44.0455C259.142 43.9943 258.985 43.9588 258.826 43.9392C258.446 43.8902 258.072 43.9226 257.699 43.977C257.381 44.0232 257.076 44.1262 256.775 44.2375C256.585 44.3042 256.4 44.3856 256.221 44.4812C255.811 44.7131 255.427 44.9967 255.074 45.3274C254.847 45.5385 254.655 45.7957 254.506 46.0885C254.406 46.2815 254.347 46.4853 254.348 46.7072C254.348 46.736 254.349 46.765 254.35 46.7938C254.358 47.0094 254.387 47.2255 254.437 47.4377C254.485 47.6274 254.548 47.8129 254.626 47.9918C254.779 48.3665 254.997 48.7058 255.263 48.9873C255.506 49.2406 255.773 49.4586 256.058 49.6361C256.478 49.9031 256.931 50.0781 257.392 50.1518C257.616 50.1905 257.84 50.1954 258.06 50.1663C258.309 50.1292 258.55 50.0616 258.773 49.936C258.955 49.8325 259.138 49.7289 259.29 49.5806C259.416 49.4577 259.54 49.3319 259.651 49.196C259.817 48.9937 259.965 48.7755 260.054 48.5233C260.183 48.1594 260.281 47.7835 260.323 47.3951C260.35 47.1377 260.367 46.8784 260.377 46.6192C260.392 46.1833 260.334 45.7541 260.236 45.3294Z" fill="#0F1F59"/>
            <path fill-rule="evenodd" clip-rule="evenodd" d="M267.671 34.6976C268.152 34.8032 268.08 35.2029 266.649 36.1824C267.913 37.8766 266.743 39.7974 266.246 42.271C266.138 42.7985 265.273 43.603 265.224 48.332C263.952 47.7435 264.527 44.8035 263.12 42.7308C262.406 41.6787 261.826 40.4393 260.345 39.3834C260.324 39.6736 261.197 40.4847 260.862 40.6369C259.576 41.2184 256.005 40.5105 254.359 40.0477C254.824 40.5568 255.302 40.9299 255.116 41.1058C254.534 41.6616 250.948 40.6961 248.758 39.1284C248.179 40.9264 247.488 42.0821 246.622 42.5776C243.456 43.5237 244.405 48.2058 243.824 47.3419C241.151 43.3872 242.613 40.5968 242.613 40.5968C242.335 41.0203 242.024 41.3864 241.804 41.8266C241.407 42.6229 241.307 35.2214 244.787 34.3379C244.787 34.3379 244.245 34.1332 242.835 34.3699C242.316 34.4564 243.876 33.0475 245.529 32.8958C245.593 32.1693 245.976 29.2534 248.101 28.3558C249.087 27.9401 250.693 27.6767 250.488 27.7983C249.472 28.3934 249.165 29.2457 249.165 29.2457C250.402 28.3433 250.402 28.2557 251.957 27.7983C251.957 27.7983 254.206 26.9533 255.585 26.9539C254.808 27.3425 254.289 27.957 255.586 27.8937C258.374 28.1371 259.911 28.9638 261.675 30.287C263.23 31.4532 262.841 30.6758 265.174 32.2307C262.841 32.6194 266.118 34.5403 267.671 34.6976Z" fill="#0F1F59"/>
            <path d="M282.713 118.326L282.062 111.666L249.382 114.242L232.822 129.439C230.281 132.605 236.696 135.312 235.789 139.155C232.874 151.503 239.113 156.492 252.067 156.492C265.021 156.492 279.961 152.717 282.657 139.15C283.436 135.253 283.803 121.517 282.713 118.326Z" fill="#0F1F59"/>
            <path d="M271.902 64.2168C259.855 79.8776 254.547 72.1002 256.547 64.9719L249.784 66.6008C249.784 66.6008 248.449 77.1311 246.335 83.6215C245.454 86.3253 249.866 84.7306 250.376 88.5995C250.905 92.603 246.928 97.8686 248.972 99.5767L250.376 114.247C254.77 120.275 269.584 115.513 281.338 113.23C281.338 113.23 287.434 95.1189 287.974 91.7851C289.646 81.4733 271.902 64.2168 271.902 64.2168Z" fill="#F0B323"/>
            <path d="M282.763 92.6227C280.327 87.9955 279.545 81.5194 277.278 78.2314C276.444 77.0188 274.877 76.8906 273.908 77.9639L263.302 86.7845C261.632 88.6335 260.02 88.6335 258.352 86.7845L253.496 77.9639C252.528 76.8906 250.964 77.0141 250.126 78.2314C247.859 81.5194 246.836 84.7018 246.127 88.2097C245.827 89.7044 245.798 91.1342 246.127 92.6227C246.456 94.1112 246.39 95.1443 247.292 96.3733L249.286 100.903L262.955 100.367L280.166 100.579C280.166 100.579 284.212 95.3708 282.763 92.6227Z" fill="#F0B323"/>
            <path d="M251.679 77.9228L252.946 66.1926C252.946 66.1926 238.857 65.143 236.773 88.6873C240.293 92.0982 243.403 92.4869 246.513 92.4869L251.679 77.9228Z" fill="#F0B323"/>
            <path d="M259.185 127.836C259.551 127.836 259.847 127.195 259.847 126.403C259.847 125.612 259.551 124.971 259.185 124.971C258.82 124.971 258.523 125.612 258.523 126.403C258.523 127.195 258.82 127.836 259.185 127.836Z" fill="#E38A78"/>
            <path d="M220.858 155.85C219.614 156.161 216.97 159.349 217.359 163.625C217.748 167.901 227.155 179.563 229.021 174.899C231.354 169.068 261.286 161.293 272.171 155.85C280.879 151.497 283.445 139.523 282.667 135.247C281.89 130.971 253.9 136.025 253.9 136.025C240.942 143.281 222.102 155.539 220.858 155.85Z" fill="#0F1F59"/>
            <path d="M238.882 108.197L227.949 130.382L234.675 133.6C234.675 133.6 248.033 119.511 246.635 111.913L238.882 108.197Z" fill="#E0876B"/>
            <path d="M287.977 91.7786L282.567 118.253C282.281 119.398 280.885 119.994 279.281 119.668L278.317 119.469C275.738 118.935 273.741 116.887 273.93 114.968L277.73 85.972C277.73 85.972 276.33 75.5605 287.198 80.2732C291.834 82.2741 287.977 91.7786 287.977 91.7786Z" fill="#E0876B"/>
            <path d="M271.902 64.2168C273.851 66.7623 274.478 68.491 274.076 72.9662L275.592 80.5282L276.655 91.888C282.569 93.3364 284.446 94.4208 289.281 92.6241C289.281 92.6241 292.605 74.7898 287.608 69.9568C283.074 65.5655 271.902 64.2168 271.902 64.2168Z" fill="#F0B323"/>
            <path d="M234.704 154.037L199.499 148.411C197.14 148.033 196.688 146.828 198.492 145.72L215.589 135.294C217.394 134.194 220.799 133.602 223.157 133.979L258.368 139.606C260.727 139.983 261.18 141.189 259.375 142.298L242.279 152.723C240.468 153.824 237.063 154.414 234.704 154.037Z" fill="#7E95C2"/>
            <path d="M248.464 129.843L238.781 133.58C238.469 133.701 238.193 133.898 237.978 134.154C237.079 135.232 234.443 138.396 231.69 141.811C231.353 142.229 231.477 144.084 232.957 142.786C232.957 142.786 232.018 144.003 232.971 145.529C233.085 145.713 233.201 145.893 233.315 146.067C234 147.123 235.336 147.419 236.218 146.701C238.922 144.522 244.271 140.326 245.55 140.153C249.4 139.634 252.115 136.587 252.612 136.037C252.612 136.037 254.125 133.487 252.697 131.363L252.602 131.222C251.633 129.792 249.878 129.203 248.464 129.843Z" fill="#E0876B"/>
            <path d="M211.781 138.764C211.781 138.764 214.073 133.046 215.739 132.641C217.404 132.236 213.116 139.565 211.781 138.764Z" fill="#E37B66"/>
            <path d="M212.461 134.355C212.461 134.355 220.792 127.523 220.702 132.568C220.702 132.568 213.327 136.236 212.461 134.355Z" fill="#E37B66"/>
            <path d="M209.371 139.99C209.371 139.99 211.875 134.178 213.583 134.043C215.292 133.908 210.596 140.597 209.371 139.99Z" fill="#E37B66"/>
            <path d="M222.49 125.461L214.417 129.753C214.417 129.753 209.858 134.204 208.045 137.233C207.468 138.198 206.201 139.433 206.594 139.754C207.17 140.229 212.039 135.51 212.039 135.51C212.039 135.51 217.949 131.983 218.115 132.113C218.185 132.167 218.837 132.029 219.074 132.43C219.268 132.766 219.337 133.159 219.27 133.541C219.203 133.923 219.004 134.269 218.707 134.519L216.852 136.118C216.852 136.118 213.834 139.23 215.153 140.036C215.356 140.161 217.974 137.662 217.974 137.662L221.886 134.896C222.706 134.315 223.462 133.649 224.141 132.908L225.53 131.393C226.147 130.72 226.513 129.855 226.569 128.944C226.624 128.032 226.364 127.13 225.832 126.387L225.759 126.286C225.4 125.784 224.874 125.426 224.276 125.275C223.677 125.124 223.045 125.19 222.49 125.461Z" fill="#FAAA91"/>
            <path d="M238.337 154.304L199.276 151.031C196.658 150.811 193.697 148.322 192.694 145.5L183.196 118.747C182.192 115.924 183.512 113.795 186.131 114.013L225.18 117.287C227.797 117.507 230.759 119.996 231.763 122.817L241.261 149.57C242.277 152.395 240.954 154.525 238.337 154.304Z" fill="#D3D8FF"/>
            <path d="M151.238 182.725C167.299 176.938 184.04 162.995 206.606 152.984C214.055 148.451 213.279 148.914 216.842 159.541C216.842 159.541 217.358 166.056 211.842 169.071C187.339 182.466 166.55 184.779 152.208 190.467C149.325 191.603 148.165 184.15 151.238 182.725Z" fill="#0F1F59"/>
            <path d="M152.414 182.303L127.357 185.64C127.357 185.64 119.591 186.011 130.946 193.619C136.326 197.223 148.982 198.551 148.982 198.551C155.346 199.98 157.073 195.746 156.639 188.879C156.643 188.883 152.045 188.422 152.414 182.303Z" fill="#213378"/>
            <path d="M152.77 182.228L149.729 183.067C149.458 183.153 149.208 183.294 148.994 183.48C148.78 183.667 148.607 183.895 148.485 184.152C148.363 184.408 148.296 184.687 148.286 184.971C148.276 185.254 148.325 185.537 148.43 185.801C148.786 186.701 149.441 187.452 150.285 187.927C151.128 188.402 152.109 188.574 153.064 188.413L155.784 188.794L152.77 182.228Z" fill="#C4735A"/>
            <path d="M174.332 200.899L163.234 204.394C163.099 204.436 162.974 204.506 162.867 204.598C162.76 204.691 162.674 204.805 162.613 204.932C162.552 205.06 162.518 205.199 162.513 205.34C162.508 205.481 162.532 205.622 162.584 205.754L163.938 209.2C164.024 209.419 164.184 209.602 164.389 209.719C164.594 209.835 164.833 209.877 165.066 209.839C170.85 210.124 174.767 209.316 177.621 207.885L174.332 200.899Z" fill="#E0876B"/>
            <path d="M281.826 119.379C276.684 127.268 251.832 135.068 251.832 135.068L244.984 132.831L275.473 110.48L281.826 119.379Z" fill="#E0876B"/>
            <path d="M236.405 154.143L197.344 150.867C194.727 150.649 191.765 148.16 190.763 145.338L181.265 118.585C180.263 115.762 181.582 113.632 184.202 113.852L223.255 117.128C225.873 117.347 228.835 119.835 229.837 122.658L239.335 149.411C240.344 152.232 239.022 154.363 236.405 154.143Z" fill="#7E95C2"/>
            <path d="M209.539 135.279C208.985 135.796 207.917 135.55 207.154 134.731C206.391 133.911 206.222 132.828 206.777 132.312C207.332 131.796 208.4 132.041 209.162 132.861C209.925 133.68 210.094 134.763 209.539 135.279Z" stroke="#DCDEFF" stroke-width="0.950192" stroke-linecap="round" stroke-linejoin="round"/>
            <path d="M168.804 202.554L146.132 205.679C146.132 205.679 138.337 206.124 149.623 213.745C152.146 215.45 156.303 216.626 159.989 217.393C164.112 218.25 167.646 218.595 167.646 218.595C174.01 219.99 177.449 215.047 177.113 208.084C177.113 208.084 168.349 208.77 168.804 202.554Z" fill="#122870"/>
            <g filter="url(#filter0_d_35419_38609)">
                <rect width="32.6684" height="50.3415" transform="matrix(0.836265 0.294025 -0.836265 0.294025 145.117 152.361)" fill="white"/>
            </g>
            <rect width="21.4219" height="0.803322" rx="0.401661" transform="matrix(0.836265 0.294025 -0.836265 0.294025 134.816 159.133)" fill="#BDCCF8"/>
            <rect width="21.4219" height="0.803322" rx="0.401661" transform="matrix(0.836265 0.294025 -0.836265 0.294025 131.68 160.234)" fill="#BDCCF8"/>
            <rect width="21.4219" height="0.803322" rx="0.401661" transform="matrix(0.836265 0.294025 -0.836265 0.294025 128.547 161.336)" fill="#BDCCF8"/>
            <rect width="10.711" height="0.803322" rx="0.401661" transform="matrix(0.836265 0.294025 -0.836265 0.294025 129.887 164.014)" fill="#BDCCF8"/>
            <rect width="6.96212" height="0.803322" rx="0.401661" transform="matrix(0.836265 0.294025 -0.836265 0.294025 131.68 168.738)" fill="#BDCCF8"/>
            <g filter="url(#filter1_d_35419_38609)">
                <rect width="32.6684" height="50.3415" transform="matrix(0.836265 0.294025 -0.836265 0.294025 141.27 151.891)" fill="white"/>
                <g clip-path="url(#clip2_35419_38609)">
                    <path d="M142.654 155.555L143.784 155.952L144.077 155.849L142.645 155.346L140.346 156.154L141.778 156.658L142.07 156.555L140.94 156.157L141.896 155.821L143.033 156.221L143.325 156.118L142.189 155.718L142.654 155.555Z" fill="#E11A81"/>
                    <path d="M144.207 157.019C144.543 156.9 144.601 156.747 144.38 156.562C144.139 156.351 144.165 156.317 144.31 156.266C144.414 156.229 144.581 156.201 144.784 156.272C144.949 156.33 144.956 156.377 144.812 156.447L144.74 156.481L145.089 156.565L145.155 156.532C145.408 156.405 145.382 156.273 145.086 156.168C144.764 156.055 144.312 156.055 143.988 156.169C143.834 156.223 143.749 156.293 143.75 156.367C143.753 156.426 143.787 156.475 143.903 156.584C144.007 156.678 144.043 156.724 144.048 156.771C144.048 156.831 143.99 156.88 143.872 156.922C143.622 157.009 143.238 157.007 142.978 156.915C142.723 156.826 142.695 156.7 142.913 156.624L143.164 156.535L142.869 156.432L142.618 156.52C142.249 156.649 142.275 156.878 142.674 157.018C143.097 157.167 143.784 157.167 144.207 157.019Z" fill="#E11A81"/>
                    <path d="M144.797 157.243L145.333 157.431C145.754 157.579 146.539 157.583 146.948 157.439C147.14 157.372 147.267 157.255 147.264 157.148C147.26 157.097 147.229 157.045 147.17 156.994C147.106 156.933 147.024 156.885 146.928 156.851L146.117 156.566L143.818 157.375L144.119 157.481L144.797 157.243ZM146.126 156.775L146.629 156.952C146.942 157.062 146.949 157.225 146.647 157.331C146.358 157.433 145.917 157.431 145.62 157.326L145.09 157.14L146.126 156.775Z" fill="#E11A81"/>
                    <path d="M151.894 160.008L150.764 159.61L151.72 159.274L152.857 159.674L153.149 159.571L152.013 159.171L152.478 159.008L153.609 159.405L153.901 159.302L152.469 158.799L150.17 159.607L151.602 160.111L151.894 160.008Z" fill="#E11A81"/>
                    <path d="M150.165 159.261C149.7 159.234 149.484 159.202 149.276 159.129C148.883 158.99 148.803 158.789 149.034 158.623C149.042 158.618 149.049 158.612 149.057 158.606C149.058 158.606 149.059 158.605 149.059 158.605C149.119 158.567 149.196 158.531 149.289 158.497C149.383 158.464 149.487 158.437 149.596 158.417C149.597 158.416 149.597 158.416 149.598 158.416C149.614 158.413 149.631 158.41 149.647 158.408C150.119 158.327 150.691 158.355 151.084 158.493C151.293 158.566 151.384 158.642 151.46 158.806L151.48 158.847L151.892 158.819L151.874 158.78C151.788 158.59 151.655 158.484 151.382 158.388C151.381 158.388 151.381 158.387 151.379 158.387C151.067 158.277 150.644 158.217 150.19 158.218C149.736 158.219 149.313 158.281 148.997 158.392C148.996 158.392 148.994 158.393 148.993 158.394C148.991 158.394 148.99 158.395 148.988 158.395C148.673 158.506 148.497 158.655 148.494 158.814C148.49 158.974 148.661 159.123 148.974 159.233C148.975 159.233 148.976 159.233 148.977 159.234C149.249 159.329 149.552 159.376 150.092 159.407L150.203 159.413L150.283 159.268L150.165 159.261Z" fill="#E11A81"/>
                    <path d="M149.008 157.541C148.472 157.352 147.556 157.356 147.008 157.549L145.661 158.022L145.963 158.129L146.832 157.823L148.188 158.3L147.319 158.605L147.623 158.712L148.943 158.248C149.515 158.047 149.545 157.73 149.008 157.541ZM147.123 157.721L147.309 157.655C147.709 157.514 148.324 157.51 148.709 157.646C149.097 157.782 149.067 157.99 148.638 158.141L148.479 158.197L147.123 157.721Z" fill="#E11A81"/>
                    <path d="M151.425 160.364L151.714 160.346L151.323 160.209L151.042 160.229L150.404 160.005L148.105 160.813L149.537 161.317L149.83 161.214L148.7 160.816L149.656 160.48L150.792 160.88L151.084 160.777L149.948 160.377L150.414 160.214L151.55 160.613L151.842 160.51L151.425 160.364Z" fill="#E11A81"/>
                    <path d="M147.434 158.918C146.898 158.729 145.982 158.733 145.433 158.926L144.087 159.399L144.389 159.505L145.735 159.032C146.135 158.891 146.75 158.887 147.135 159.023C147.523 159.159 147.493 159.367 147.064 159.518L145.744 159.982L146.049 160.089L147.368 159.625C147.941 159.424 147.97 159.107 147.434 158.918Z" fill="#E11A81"/>
                    <path d="M148.067 159.39L148.825 159.656L146.818 160.362L147.125 160.47L149.132 159.764L149.908 160.037L150.2 159.934L148.359 159.287L148.067 159.39Z" fill="#E11A81"/>
                    <path d="M145.109 158.101C144.574 157.913 143.658 157.917 143.109 158.11L141.763 158.583L142.064 158.689L142.933 158.384L144.29 158.86L143.421 159.166L143.725 159.273L145.044 158.809C145.617 158.608 145.646 158.29 145.109 158.101ZM144.581 158.758L143.225 158.281L143.411 158.216C143.811 158.075 144.426 158.071 144.811 158.206C145.199 158.343 145.169 158.551 144.74 158.702L144.581 158.758L144.581 158.758Z" fill="#E11A81"/>
                    <path d="M142.155 158.229C142.491 158.111 142.55 157.957 142.329 157.773C142.087 157.562 142.114 157.528 142.258 157.477C142.363 157.44 142.529 157.411 142.733 157.483C142.897 157.541 142.905 157.588 142.76 157.657L142.689 157.691L143.037 157.776L143.103 157.743C143.356 157.616 143.331 157.483 143.034 157.379C142.712 157.266 142.26 157.266 141.936 157.38C141.783 157.434 141.698 157.504 141.698 157.577C141.701 157.637 141.736 157.686 141.851 157.794C141.956 157.889 141.991 157.935 141.997 157.982C141.996 158.042 141.939 158.091 141.821 158.132C141.571 158.22 141.187 158.217 140.927 158.126C140.672 158.036 140.643 157.911 140.862 157.834L141.113 157.746L140.818 157.642L140.567 157.731C140.198 157.86 140.224 158.088 140.623 158.229C141.045 158.378 141.732 158.378 142.155 158.229Z" fill="#E11A81"/>
                    <path d="M146.599 156.509C146.916 156.621 147.343 156.682 147.801 156.681C148.258 156.679 148.685 156.617 149.005 156.504C149.322 156.393 149.495 156.244 149.495 156.083C149.494 155.922 149.318 155.772 148.999 155.66C148.349 155.431 147.247 155.433 146.591 155.664C145.941 155.892 145.945 156.279 146.599 156.509ZM148.704 155.765C149.212 155.944 149.213 156.223 148.707 156.401C148.196 156.581 147.4 156.583 146.895 156.406C146.385 156.226 146.383 155.947 146.889 155.769C147.401 155.589 148.198 155.587 148.704 155.765Z" fill="#0C419A"/>
                    <path d="M154.646 159.524C154.986 159.404 154.986 159.209 154.646 159.09L150.548 157.644L151.581 157.281C152.153 157.08 152.017 156.704 151.481 156.515C150.945 156.327 150.029 156.331 149.48 156.524L148.134 156.997L148.436 157.103L149.782 156.63C150.182 156.489 150.797 156.485 151.182 156.62C151.57 156.757 151.705 157.023 151.276 157.174L149.95 157.64L154.362 159.189C154.539 159.251 154.521 159.356 154.345 159.418L151.988 160.247L152.289 160.352L154.646 159.524Z" fill="#0C419A"/>
                    <path d="M137.764 156.972C137.587 156.91 137.596 156.809 137.773 156.747L144.177 154.495C144.458 154.396 144.844 154.394 145.116 154.49C145.42 154.596 145.425 154.756 145.128 154.86L143.592 155.4L143.896 155.507L145.435 154.966C145.622 154.9 145.742 154.88 145.944 154.881C146.141 154.883 146.328 154.912 146.471 154.962C146.753 155.061 146.74 155.215 146.441 155.32L144.903 155.861L145.204 155.967L146.77 155.417C147.196 155.267 147.199 155.006 146.776 154.857C146.569 154.784 146.262 154.74 145.957 154.739C145.878 154.739 145.816 154.74 145.745 154.745C145.754 154.727 145.759 154.709 145.76 154.686L145.76 154.685C145.756 154.633 145.733 154.582 145.692 154.537L145.69 154.535C145.632 154.481 145.54 154.431 145.418 154.388C144.979 154.234 144.296 154.241 143.829 154.406L140.1 155.716L137.472 156.641C137.131 156.76 137.131 156.955 137.472 157.075L139.763 157.88L140.055 157.777L137.764 156.972Z" fill="#0C419A"/>
                </g>
                <rect width="21.4219" height="0.803322" rx="0.401661" transform="matrix(0.836265 0.294025 -0.836265 0.294025 130.969 158.66)" fill="#BDCCF8"/>
                <rect width="21.4219" height="0.803322" rx="0.401661" transform="matrix(0.836265 0.294025 -0.836265 0.294025 127.836 159.764)" fill="#BDCCF8"/>
                <rect width="21.4219" height="0.803322" rx="0.401661" transform="matrix(0.836265 0.294025 -0.836265 0.294025 124.703 160.865)" fill="#BDCCF8"/>
                <rect width="10.711" height="0.803322" rx="0.401661" transform="matrix(0.836265 0.294025 -0.836265 0.294025 126.043 163.543)" fill="#BDCCF8"/>
                <rect width="6.96212" height="0.803322" rx="0.401661" transform="matrix(0.836265 0.294025 -0.836265 0.294025 127.836 168.268)" fill="#BDCCF8"/>
            </g>
            <path d="M98.2371 166.639L125.149 158.159L124.27 157.217L97.7708 164.922C96.7092 165.282 97.0594 166.451 98.2371 166.639Z" fill="#006F89"/>
            <g filter="url(#filter2_d_35419_38609)">
                <path d="M117.894 173.675L97.5352 166.405L125.183 156.3C125.28 156.267 125.385 156.267 125.482 156.3L144.698 163.014L117.894 173.675Z" fill="#006F89"/>
            </g>
            <path d="M117.895 173.471L144.338 162.87L144.33 161.586L117.895 172.293V173.471Z" fill="#BDC6E3"/>
            <path d="M117.895 173.441L98.7534 166.669C98.2559 166.493 97.4239 166.034 97.4501 165.507C97.4812 164.88 98.0718 165.096 98.6638 165.304L117.895 172.057L117.895 173.441Z" fill="#E8ECFF"/>
            <path d="M117.894 172.261L97.5352 164.982L125.183 154.886C125.28 154.853 125.385 154.853 125.482 154.886L144.698 161.6L117.894 172.261Z" fill="#07C3F0"/>
            <path d="M119.254 162.792L122.194 163.864L131.505 159.869L128.757 158.889L119.254 162.792Z" fill="white"/>
            <path d="M119.808 159.869L129.225 163.907L131.995 162.792L122.331 158.889L119.808 159.869Z" fill="white"/>
            <path d="M121.872 170.643L101.98 163.341L104.555 162.398L124.446 169.701L121.872 170.643Z" fill="white"/>
            <path d="M369.947 16.7656H335.203V37.9214H369.947V16.7656Z" fill="#BBBFE1" fill-opacity="0.3"/>
            <path d="M367.234 18.9746H337.918V35.7158H367.234V18.9746Z" fill="#F7F8FF"/>
            <path d="M337.793 35.7484C337.793 35.7484 344.154 34.6516 345.695 34.3585C347.236 34.0654 349.408 33.7724 350.879 33.8824C352.35 33.9923 354.382 34.4684 354.382 34.4684C354.382 34.4684 361.947 32.7471 363.558 32.7288C365.17 32.7105 367.56 33.5268 367.56 33.5268V35.7484H337.793Z" fill="#BBBFE1" fill-opacity="0.3"/>
            <path d="M343.249 24.4758C344.296 24.4758 345.146 23.6264 345.146 22.5787C345.146 21.531 344.296 20.6816 343.249 20.6816C342.201 20.6816 341.352 21.531 341.352 22.5787C341.352 23.6264 342.201 24.4758 343.249 24.4758Z" fill="#BBBFE1" fill-opacity="0.3"/>
            <rect x="361.668" y="26.2559" width="4.81872" height="4.81872" transform="rotate(45 361.668 26.2559)" fill="#BBBFE1" fill-opacity="0.3"/>
            <rect x="355.199" y="29.752" width="3.2624" height="3.2624" transform="rotate(45 355.199 29.752)" fill="#BBBFE1" fill-opacity="0.3"/>
            <path d="M354.953 39.9184L354.953 65.084L370.277 65.084L370.277 39.9184L354.953 39.9184Z" fill="#BBBFE1" fill-opacity="0.3"/>
            <path d="M356.551 41.8849L356.551 63.1191L368.677 63.1191L368.677 41.8849L356.551 41.8849Z" fill="#F7F8FF"/>
            <path d="M360.983 46.0322C360.983 45.2733 360.367 44.6581 359.608 44.6581C358.85 44.6581 358.234 45.2733 358.234 46.0322C358.234 46.7911 358.85 47.4062 359.608 47.4062C360.367 47.4062 360.983 46.7911 360.983 46.0322Z" fill="#BBBFE1" fill-opacity="0.3"/>
            <path d="M362.607 58.1436C362.607 56.7344 361.465 55.592 360.056 55.592C358.646 55.592 357.504 56.7344 357.504 58.1436C357.504 59.5529 358.646 60.6953 360.056 60.6953C361.465 60.6953 362.607 59.5529 362.607 58.1436Z" fill="#BBBFE1" fill-opacity="0.3"/>
        </g>
    </g>
    <defs>
        <filter id="filter0_d_35419_38609" x="103.02" y="152.361" width="69.418" height="24.9555" filterUnits="userSpaceOnUse" color-interpolation-filters="sRGB">
            <feFlood flood-opacity="0" result="BackgroundImageFix"/>
            <feColorMatrix in="SourceAlpha" type="matrix" values="0 0 0 0 0 0 0 0 0 0 0 0 0 0 0 0 0 0 127 0" result="hardAlpha"/>
            <feOffset dy="0.549202"/>
            <feComposite in2="hardAlpha" operator="out"/>
            <feColorMatrix type="matrix" values="0 0 0 0 0.466667 0 0 0 0 0.580392 0 0 0 0 0.905882 0 0 0 0.3 0"/>
            <feBlend mode="normal" in2="BackgroundImageFix" result="effect1_dropShadow_35419_38609"/>
            <feBlend mode="normal" in="SourceGraphic" in2="effect1_dropShadow_35419_38609" result="shape"/>
        </filter>
        <filter id="filter1_d_35419_38609" x="99.1719" y="151.891" width="69.418" height="24.9555" filterUnits="userSpaceOnUse" color-interpolation-filters="sRGB">
            <feFlood flood-opacity="0" result="BackgroundImageFix"/>
            <feColorMatrix in="SourceAlpha" type="matrix" values="0 0 0 0 0 0 0 0 0 0 0 0 0 0 0 0 0 0 127 0" result="hardAlpha"/>
            <feOffset dy="0.549202"/>
            <feComposite in2="hardAlpha" operator="out"/>
            <feColorMatrix type="matrix" values="0 0 0 0 0.466667 0 0 0 0 0.580392 0 0 0 0 0.905882 0 0 0 0.3 0"/>
            <feBlend mode="normal" in2="BackgroundImageFix" result="effect1_dropShadow_35419_38609"/>
            <feBlend mode="normal" in="SourceGraphic" in2="effect1_dropShadow_35419_38609" result="shape"/>
        </filter>
        <filter id="filter2_d_35419_38609" x="97.5352" y="156.275" width="47.1641" height="17.7673" filterUnits="userSpaceOnUse" color-interpolation-filters="sRGB">
            <feFlood flood-opacity="0" result="BackgroundImageFix"/>
            <feColorMatrix in="SourceAlpha" type="matrix" values="0 0 0 0 0 0 0 0 0 0 0 0 0 0 0 0 0 0 127 0" result="hardAlpha"/>
            <feOffset dy="0.366947"/>
            <feComposite in2="hardAlpha" operator="out"/>
            <feColorMatrix type="matrix" values="0 0 0 0 0.466667 0 0 0 0 0.580392 0 0 0 0 0.905882 0 0 0 0.3 0"/>
            <feBlend mode="normal" in2="BackgroundImageFix" result="effect1_dropShadow_35419_38609"/>
            <feBlend mode="normal" in="SourceGraphic" in2="effect1_dropShadow_35419_38609" result="shape"/>
        </filter>
        <clipPath id="clip0_35419_38609">
            <rect width="360" height="258" fill="white"/>
        </clipPath>
        <clipPath id="clip1_35419_38609">
            <rect width="360" height="258" fill="white"/>
        </clipPath>
        <clipPath id="clip2_35419_38609">
            <rect width="21.5952" height="12.3797" fill="white" transform="matrix(0.836265 0.294025 -0.836265 0.294025 143.215 152.732)"/>
        </clipPath>
    </defs>
</svg>
