<svg width="360" height="258" viewBox="0 0 360 258" fill="none" xmlns="http://www.w3.org/2000/svg">
    <g clip-path="url(#clip0_35419_37670)">
        <path d="M27.8705 264.916C25.7006 263.484 23.5482 261.977 21.4134 260.393C-4.71259 240.995 -22.9819 212.976 -29.199 182.768C-31.3606 172.269 -32.0736 161.234 -28.4982 151.063C-24.3868 139.373 -14.9412 129.81 -4.35699 122.234C17.4632 106.613 44.5176 98.1932 71.728 93.3269C88.5258 90.3231 105.606 88.5646 122.169 84.6191C175.948 71.83 200.275 20.8093 251.313 4.47921C285.548 -6.47308 322.759 5.3201 358.371 11.6299C403.171 19.5688 451.421 19.2219 490.645 40.5094C515.38 53.938 534.047 74.7635 552.093 95.2197C563.697 108.375 575.837 122.947 575.998 139.833C576.221 163.049 555.173 183.941 539.948 200.781C491.892 253.935 551.5 308.552 442.686 306.966C388.358 306.167 334.116 297.215 280.822 288.28C196.966 274.228 102.542 314.184 27.8705 264.916Z" fill="#F1F5FF"/>
        <path d="M46.1563 142.25C46.0973 160.533 114.999 175.664 200.051 176.044C285.102 176.423 354.099 161.904 354.156 143.626C354.213 125.348 285.784 112.429 200.73 112.059C115.676 111.689 46.2153 123.972 46.1563 142.25Z" fill="#E7ECFA"/>
        <path fill-rule="evenodd" clip-rule="evenodd" d="M104.711 134.193C104.711 133.946 104.511 133.746 104.264 133.746L93.5472 133.746C93.3006 133.746 93.1007 133.946 93.1007 134.193C93.1007 134.439 93.3006 134.639 93.5472 134.639L104.264 134.639C104.511 134.639 104.711 134.439 104.711 134.193Z" fill="#E7ECFA"/>
        <path fill-rule="evenodd" clip-rule="evenodd" d="M299.797 137.081C299.797 137.327 299.997 137.527 300.243 137.527L310.961 137.527C311.207 137.527 311.407 137.327 311.407 137.081C311.407 136.834 311.207 136.634 310.961 136.634L300.243 136.634C299.997 136.634 299.797 136.834 299.797 137.081Z" fill="#E7ECFA"/>
        <path fill-rule="evenodd" clip-rule="evenodd" d="M100.359 137.575C100.359 137.329 100.159 137.129 99.9128 137.129L89.1956 137.129C88.949 137.129 88.7491 137.329 88.7491 137.575C88.7491 137.822 88.949 138.022 89.1956 138.022L99.9128 138.022C100.159 138.022 100.359 137.822 100.359 137.575Z" fill="#E7ECFA"/>
        <path fill-rule="evenodd" clip-rule="evenodd" d="M304.156 133.696C304.156 133.943 304.356 134.143 304.603 134.143L315.32 134.143C315.567 134.143 315.767 133.943 315.767 133.696C315.767 133.449 315.567 133.249 315.32 133.249L304.603 133.249C304.356 133.249 304.156 133.449 304.156 133.696Z" fill="#E7ECFA"/>
        <path fill-rule="evenodd" clip-rule="evenodd" d="M97.457 140.966C97.457 140.719 97.2571 140.52 97.0105 140.52L86.2933 140.52C86.0467 140.52 85.8467 140.719 85.8467 140.966C85.8467 141.213 86.0467 141.413 86.2933 141.413L97.0105 141.413C97.2571 141.413 97.457 141.213 97.457 140.966Z" fill="#E7ECFA"/>
        <path fill-rule="evenodd" clip-rule="evenodd" d="M307.059 130.309C307.059 130.556 307.259 130.756 307.505 130.756L318.222 130.756C318.469 130.756 318.669 130.556 318.669 130.309C318.669 130.063 318.469 129.863 318.222 129.863L307.505 129.863C307.259 129.863 307.059 130.063 307.059 130.309Z" fill="#E7ECFA"/>
        <path fill-rule="evenodd" clip-rule="evenodd" d="M98.4258 144.349C98.4258 144.102 98.2259 143.902 97.9792 143.902L88.7133 143.902C88.4667 143.902 88.2668 144.102 88.2668 144.349C88.2668 144.596 88.4667 144.795 88.7133 144.795L97.9792 144.795C98.2259 144.795 98.4258 144.596 98.4258 144.349Z" fill="#E7ECFA"/>
        <path fill-rule="evenodd" clip-rule="evenodd" d="M306.09 126.923C306.09 127.169 306.29 127.369 306.536 127.369L315.802 127.369C316.049 127.369 316.249 127.169 316.249 126.923C316.249 126.676 316.049 126.476 315.802 126.476L306.536 126.476C306.29 126.476 306.09 126.676 306.09 126.923Z" fill="#E7ECFA"/>
        <path fill-rule="evenodd" clip-rule="evenodd" d="M101.809 147.74C101.809 147.493 101.609 147.293 101.362 147.293L92.0961 147.293C91.8495 147.293 91.6496 147.493 91.6496 147.74C91.6496 147.986 91.8495 148.186 92.0961 148.186L101.362 148.186C101.609 148.186 101.809 147.986 101.809 147.74Z" fill="#E7ECFA"/>
        <path fill-rule="evenodd" clip-rule="evenodd" d="M302.703 123.536C302.703 123.782 302.903 123.982 303.15 123.982L312.416 123.982C312.662 123.982 312.862 123.782 312.862 123.536C312.862 123.289 312.662 123.089 312.416 123.089L303.15 123.089C302.903 123.089 302.703 123.289 302.703 123.536Z" fill="#E7ECFA"/>
        <path fill-rule="evenodd" clip-rule="evenodd" d="M291.307 46.832C288.237 47.1636 283.532 51.9097 283.532 51.9097C283.532 51.9097 285.804 54.6123 286.575 57.0691C289.553 57.2564 292.21 52.6565 293.988 49.656L293.506 48.0654C293.374 47.7427 293.164 47.4579 292.895 47.2365L291.301 46.8387L291.307 46.832Z" fill="#862A0E"/>
        <g clip-path="url(#clip1_35419_37670)">
            <path fill-rule="evenodd" clip-rule="evenodd" d="M223.592 140.555L220.438 135.951L223.026 132.971L239.978 135.951L237.77 139.892L224.745 136.958L226.216 139.21L223.592 140.555Z" fill="#0C419A"/>
            <path d="M276.648 39.7012C276.648 39.7012 276.38 43.3877 277.042 45.7814C277.424 47.1622 275.219 51.1818 275.972 51.6282C276.726 52.0747 277.898 52.6559 277.94 52.8446C277.981 53.0332 279.959 55.9576 281.278 55.6654C282.598 55.3732 292.34 54.4228 292.152 51.4506C291.963 48.4784 292.103 41.7927 292.235 40.5082C292.367 39.2236 284.475 32.3252 276.648 39.7012Z" fill="#AE4626"/>
            <g clip-path="url(#clip2_35419_37670)">
                <path d="M269.516 35.4182C268.899 35.4278 268.689 34.6134 268.766 34.0225C268.965 32.542 269.67 31.1698 270.77 30.1213C270.754 29.6878 270.867 29.2596 271.097 28.8876C271.327 28.5157 271.663 28.2158 272.067 28.0236C272.251 27.5639 272.592 27.1781 273.033 26.9278C273.474 26.6774 273.991 26.5771 274.501 26.6428C274.395 26.2104 274.72 25.7982 275.046 25.4842C276.11 24.4628 277.416 23.7045 278.854 23.2735C278.942 22.9146 279.146 22.5921 279.436 22.3514C279.727 22.1108 280.089 21.9642 280.472 21.9323C280.825 21.0216 282.132 20.6056 282.99 21.1318C282.7 20.7512 283.348 20.3728 283.829 20.3045L290.066 19.4735C290.747 19.3834 291.68 19.4541 291.809 20.1037C292.634 19.6079 293.875 19.9472 294.31 20.7885C295.185 20.6986 296.071 20.8 296.903 21.0852C297.734 21.3705 298.488 21.8321 299.109 22.4355C299.936 22.0624 301.06 22.6603 301.176 23.5322C301.944 23.1066 303.075 23.8997 302.886 24.7344C303.333 24.8414 303.732 25.0846 304.024 25.4274C304.316 25.7702 304.484 26.1941 304.504 26.6353C305.028 26.407 305.457 27.097 305.598 27.6428L306.376 30.6855C306.774 31.1617 307.031 31.7314 307.121 32.3345C307.211 32.9377 307.131 33.5519 306.887 34.1125C307.752 35.0203 307.666 36.6088 306.722 37.418C307.489 38.2839 307.193 39.8018 306.153 40.3304C306.384 40.5539 306.519 40.8524 306.53 41.166C306.542 41.4797 306.43 41.7853 306.217 42.0215C306.029 42.2143 305.777 42.343 305.596 42.5404C305.25 42.9126 305.209 43.454 305.046 43.9292C304.883 44.4045 304.444 44.8935 303.942 44.7736C304.284 45.0833 304.115 45.6789 303.73 45.9371C303.346 46.1952 302.847 46.2125 302.378 46.2214C302.802 46.7004 302.019 47.2949 301.398 47.4634L297.846 48.4289C297.752 48.9635 297.228 49.3467 296.677 49.4674C296.467 49.5032 296.253 49.5082 296.041 49.4824L296.043 49.5557C295.742 49.4222 295.46 49.2532 295.202 49.0526C294.712 48.6973 294.219 48.343 293.73 47.9709C292.706 47.2035 291.703 46.404 290.629 45.7002C289.694 45.0886 288.687 44.593 287.696 44.0746C286.705 43.5562 285.757 43.0686 284.769 42.5972C282.985 41.7512 281.137 40.9977 279.21 40.5146C279.535 40.9684 279.797 41.4609 279.988 41.9796C280.236 42.6648 280.334 43.4349 280.11 44.1363C280.037 44.3571 279.929 44.5656 279.79 44.7546C279.783 44.7319 279.777 44.7107 279.77 44.6896C278.282 44.4351 276.878 43.8417 275.675 42.9591C275.306 42.688 274.926 42.3182 274.968 41.877C274.472 42.0041 273.945 41.9675 273.471 41.773C272.998 41.5786 272.605 41.2375 272.355 40.8044L272.327 40.796C272.039 40.7011 271.786 40.5292 271.596 40.3008C271.406 40.0724 271.288 39.7969 271.256 39.5071L271.254 39.4995C271.242 39.3589 271.248 39.2175 271.271 39.0784C271.165 39.0419 271.061 38.9986 270.961 38.9489C270.769 38.8524 270.598 38.7205 270.459 38.5608C270.332 38.4204 270.254 38.2463 270.234 38.0621C270.213 37.878 270.253 37.6927 270.346 37.5315C269.955 37.3446 269.651 37.0222 269.497 36.6297C269.343 36.2372 269.35 35.8041 269.516 35.4182Z" fill="#3B1105"/>
                <path d="M292.988 47.6465C292.956 47.8274 292.942 48.0124 292.948 48.1984C292.951 48.2909 292.951 48.3823 292.955 48.4744C292.959 48.5665 292.96 48.6579 292.966 48.7528C293.014 48.5751 293.035 48.3899 293.03 48.2029C293.027 48.0173 293.013 47.8315 292.988 47.6465Z" fill="#161111"/>
                <path d="M287.381 48.4419C287.468 48.6031 287.523 48.7794 287.542 48.9597C287.567 49.1393 287.579 49.3208 287.598 49.5037C287.613 49.6902 287.655 49.8747 287.724 50.0505C287.761 50.1393 287.816 50.22 287.884 50.2873C287.92 50.3186 287.961 50.3414 288 50.3687C288.041 50.3873 288.084 50.4036 288.127 50.4175C288.046 50.3815 287.973 50.3279 287.914 50.2604C287.854 50.193 287.809 50.1134 287.781 50.0276C287.727 49.8548 287.693 49.6772 287.679 49.4983C287.657 49.3178 287.643 49.1352 287.604 48.9526C287.573 48.7674 287.496 48.5913 287.381 48.4419Z" fill="#161111"/>
                <path fill-rule="evenodd" clip-rule="evenodd" d="M293.78 42.4041C293.093 35.9375 288.764 30.89 284.117 31.1509C279.471 31.4118 275.227 36.6599 276.947 43.3317C279.933 54.9079 277.333 56.8093 286.61 54.586C291.256 54.3264 294.468 48.8707 293.78 42.4041Z" fill="#AE4626"/>
                <path d="M275.031 30.6814L275.091 29.4618C276.775 28.4684 278.617 27.7465 280.546 27.3247C283.736 26.5897 287.083 26.5028 290.343 26.8155C291.905 26.9657 293.421 27.2634 294.844 27.9182C296.167 28.5331 297.35 29.3946 298.324 30.4524C299.319 31.5421 300.088 32.8041 300.589 34.1695C301.139 35.6052 301.397 37.1274 301.349 38.6531C301.278 39.8919 300.92 41.0981 300.302 42.1842C299.997 42.2159 299.691 42.238 299.386 42.2402C299.193 42.5586 298.901 42.8103 298.551 42.9599C298.2 43.1095 297.809 43.1494 297.432 43.0741C296.819 43.8475 295.44 43.8842 294.775 43.1439C294.937 43.5918 294.205 43.7753 293.723 43.704L287.49 42.7736C286.809 42.6729 285.935 42.347 286.006 41.6905C285.067 41.937 283.979 41.2751 283.807 40.3364C282.943 40.1803 282.125 39.8392 281.414 39.3383C280.704 38.8375 280.119 38.1899 279.703 37.4438C278.798 37.5724 277.897 36.6898 278.048 35.8248C277.184 36.0191 276.337 34.9485 276.768 34.202C276.371 33.9765 276.061 33.6338 275.883 33.2255C275.705 32.8172 275.67 32.3654 275.783 31.9382C275.207 32.0136 275.003 31.2387 275.031 30.6814Z" fill="#3B1105"/>
                <path fill-rule="evenodd" clip-rule="evenodd" d="M295.675 48.8662C297.616 46.5394 296.9 43.7942 295.506 42.9071C292.932 41.2664 291.543 43.3045 291.341 44.208C290.578 47.6329 291.113 49.2819 291.451 49.4683C293.468 50.5717 295.239 49.3882 295.675 48.8662Z" fill="#AE4626"/>
            </g>
        </g>
        <path fill-rule="evenodd" clip-rule="evenodd" d="M297.578 56.7718C296.341 53.7879 295.097 50.9317 294.177 48.8346C290.258 47.8035 287.584 51.8533 286.345 55.8617L286.418 56.0955C286.655 56.9393 286.552 57.861 286.274 58.8987C289.623 67.6317 293.962 63.8023 297.578 56.7718Z" fill="#993A1D"/>
        <path fill-rule="evenodd" clip-rule="evenodd" d="M275.671 76.8016L267.321 87.3233C267.321 87.3233 260.196 84.6991 254.5 76.8016V70.963L244.221 68.0156C244.221 68.0156 247.557 74.5836 250.35 77.2989C251.276 78.1974 253.44 84.6262 258.29 90.7084C262.522 96.0131 264.246 97.8698 266.334 97.9759C268.281 98.0753 274.051 94.7632 279.237 90.7084C284.424 86.6536 286.574 78.6666 286.574 78.6666C286.574 78.6666 282.462 74.1708 280.311 74.5107C278.16 74.8505 275.679 76.795 275.679 76.795L275.671 76.8016Z" fill="#9E4F37"/>
        <path fill-rule="evenodd" clip-rule="evenodd" d="M287.552 61.5016C284.436 63.8593 279.11 72.4338 274.793 76.7126C273.953 77.5462 275.579 79.1847 280.433 83.4959C285.287 87.8071 290.67 59.144 287.552 61.5016Z" fill="#9856AD"/>
        <path fill-rule="evenodd" clip-rule="evenodd" d="M289.395 139.612C294.991 140.288 306.006 139.95 309.119 139.939C312.233 139.928 314.816 138.527 310.129 137.016C305.442 135.505 302.61 135.333 301.041 133.257C299.472 131.181 298.266 127.33 294.893 128.142C290.579 129.181 283.804 138.935 289.395 139.612Z" fill="#41C1A7"/>
        <path fill-rule="evenodd" clip-rule="evenodd" d="M300.351 129.286C301.186 128.745 301.943 128.092 302.601 127.344C306.349 123.054 304.723 113.441 304.723 113.441L281.052 112.836C281.052 112.836 271.096 114.948 261.87 117.791C252.644 120.634 243.408 121.358 242.045 131.476C240.682 141.593 247.81 140.925 257.235 141.216C266.659 141.508 284.4 140.683 290.195 140.79C295.99 140.898 295.744 141.238 296.045 139.729C296.397 137.987 296.498 136.204 296.344 134.433C288.418 133.297 293.744 131.683 295.295 131.306C295.443 131.262 295.585 131.198 295.716 131.116L295.937 131.073C297.592 130.667 299.016 130.111 300.138 129.402C300.206 129.358 300.277 129.319 300.351 129.286Z" fill="#122870"/>
        <path fill-rule="evenodd" clip-rule="evenodd" d="M295.716 131.12C291.504 132.132 285.8 132.245 279.526 131.605C269.129 130.546 259.84 130.594 259.84 130.594C259.84 130.594 265.481 132.769 271.053 133.744C275.114 134.453 286.618 134.649 295.702 134.453L296.336 134.438C296.263 133.312 296.051 132.198 295.707 131.123L295.716 131.12Z" fill="#020629"/>
        <path fill-rule="evenodd" clip-rule="evenodd" d="M284.583 113.877C288.771 114.136 294.509 114.57 299.127 114.799C306.049 115.144 306.33 115.321 306.332 111.85C306.332 95.0173 303.245 74.0337 302.08 69.0671C301.455 66.3965 299.525 61.4416 297.577 56.7734C294.661 57.9604 290.649 59.0943 286.273 58.9003C285.737 60.9476 284.527 63.4425 283.969 66.6436C283.483 69.4435 282.46 76.9132 281.42 84.9118C280.788 89.7706 280.149 94.8235 279.622 99.1452C279.622 99.1452 285.898 112.739 284.584 113.877H284.583Z" fill="#A05BB6"/>
        <path fill-rule="evenodd" clip-rule="evenodd" d="M279.619 99.1446L279.334 101.439C277.959 112.808 276.821 113.646 279.799 113.65C280.791 113.65 282.492 113.739 284.58 113.877C301.718 98.992 294.932 68.2891 294.932 68.2891L279.619 99.1379V99.1446Z" fill="#9856AD"/>
        <path fill-rule="evenodd" clip-rule="evenodd" d="M280.78 84.9201C278.515 94.1802 271.582 105.297 266.056 112.997C261.024 120.009 264.131 119.776 267.287 118.622C270.444 117.468 278.49 109.819 285.103 101.393C287.915 97.804 290.036 93.6779 291.574 89.7259C289.123 83.6519 285.288 82.523 280.782 84.9184L280.78 84.9201Z" fill="#B4573A"/>
        <path fill-rule="evenodd" clip-rule="evenodd" d="M253.295 115.404L251.389 113.876C251.389 113.876 254.743 109.031 259.737 112.368C264.73 115.705 260.17 120.691 253.885 121.73L257.928 124.463L253.885 127.931L245.242 122.42C245.242 122.42 254.67 117.733 256.492 116.782C258.314 115.832 256.35 113.26 253.29 115.407L253.295 115.404Z" fill="#F0B323"/>
        <path fill-rule="evenodd" clip-rule="evenodd" d="M274.67 111.541C274.589 111.09 266.279 112.574 266.188 113.008C265.951 114.131 263.758 115.896 262.682 115.851C260.155 115.745 255.769 116.911 253.569 119.359C252.96 120.003 252.417 120.708 251.949 121.461C251.208 122.577 251.58 123.315 252.942 121.95C253.046 121.846 251.711 123.407 252.353 123.499C252.437 123.508 252.521 123.498 252.601 123.47C252.68 123.441 252.751 123.394 252.809 123.333C253.18 122.955 254.25 121.899 253.306 123.333C253.023 123.759 253.519 124.064 254.011 123.601C254.53 123.104 255.013 122.275 255.925 121.632C257.195 120.738 258.505 120.599 258.6 120.619C258.6 120.619 257.642 121.334 256.5 122.832C255.415 124.258 256.411 124.536 257.162 123.542C257.931 122.522 258.475 122.08 258.927 121.813C259.443 121.511 260.495 121.521 261.816 121.017C263.232 120.475 266.975 119.674 269.106 117.867C271.191 116.094 274.979 113.149 274.683 111.535L274.67 111.541Z" fill="#B4573A"/>
        <path fill-rule="evenodd" clip-rule="evenodd" d="M238.684 52.5868L240.427 56.9662L248.487 54.2718L244.041 60.5874L244.849 63.2141C244.849 63.2141 251.362 58.732 252.762 63.2141C254.161 67.6961 244.041 67.5239 244.041 67.5239V72.3925C244.041 72.3925 251.787 73.29 256.007 70.6304C260.227 67.9708 260.586 63.932 258.982 60.5947C257.377 57.2574 252.278 57.4809 252.278 57.4809L255.342 53.248L251.58 47.8281L238.689 52.5904L238.684 52.5868Z" fill="#E11A81"/>
        <path fill-rule="evenodd" clip-rule="evenodd" d="M292.437 87.3626C293.942 82.958 294.726 78.9728 294.976 76.4713C295.492 71.3422 296.152 63.0088 290.048 62.2147C283.411 61.3593 280.926 84.309 280.784 84.9257C284.038 87.1471 287.748 88.7385 291.576 89.7331C291.874 88.9706 292.15 88.2157 292.404 87.4686L292.44 87.3659L292.437 87.3626Z" fill="#AF67C7"/>
        <path fill-rule="evenodd" clip-rule="evenodd" d="M222.353 113.657L225.776 112.496L238.565 120.654L233.723 123.261L229.857 120.654L221.93 123.008L222.357 113.65L222.353 113.657ZM225.101 119.127L225.776 115.87L228.105 118.005L225.101 119.127Z" fill="#B255BC"/>
        <path fill-rule="evenodd" clip-rule="evenodd" d="M212.577 127.537C213.815 127.585 215.343 128.493 215.649 126.526C215.955 124.558 216.607 120.047 215.464 120.061C214.321 120.074 213.452 123.676 212.167 123.6C210.882 123.524 211.34 127.494 212.577 127.542V127.537Z" fill="#41C1A7"/>
        <path fill-rule="evenodd" clip-rule="evenodd" d="M198.349 128.472C201.705 128.55 209.684 128.353 211.762 128.192C212.903 128.102 212.887 128.318 212.832 125.561C212.778 122.804 213.195 122.829 211.29 122.693C209.386 122.557 198.349 119.875 198.349 119.875C198.349 119.875 194.992 128.396 198.349 128.475V128.472Z" fill="#9450AA"/>
        <path fill-rule="evenodd" clip-rule="evenodd" d="M199.308 113.114C201.93 112.748 207.596 111.415 214.833 104.973C217.315 102.76 220.151 101.079 219.373 99.9995C218.595 98.9203 217.939 99.9995 217.939 99.9995C217.939 99.9995 219.295 98.123 218.82 97.7334C218.346 97.3438 217.623 98.9535 216.422 99.9995C212.914 103.051 203.171 106.71 198.565 106.584C193.959 106.458 196.686 113.479 199.308 113.111V113.114Z" fill="#D68A72"/>
        <path fill-rule="evenodd" clip-rule="evenodd" d="M209.008 137.899C211.937 138.328 213.574 139.18 214.285 136.821C214.996 134.463 216.136 132.191 215.021 131.979C213.906 131.767 213.813 133.471 212.131 133.377C210.449 133.282 209.008 133.118 209.008 133.118C209.008 133.118 206.08 137.47 209.008 137.899Z" fill="#41C1A7"/>
        <path fill-rule="evenodd" clip-rule="evenodd" d="M181.674 122.216C179.937 125.394 176.6 133.186 183.107 135.312C189.613 137.439 205.486 138.349 207.375 138.628C209.265 138.906 208.899 139.263 209.895 136.055C211.131 132.067 211.475 132.521 209.01 131.803C206.545 131.085 199.494 130.298 196.933 125.54C194.372 120.782 183.404 119.04 181.667 122.225L181.674 122.216Z" fill="#A05BB6"/>
        <path fill-rule="evenodd" clip-rule="evenodd" d="M203.278 92.8992C203.278 92.8992 207.197 90.7441 205.781 87.5944C204.365 84.4447 202.595 85.9499 200.89 83.7236C199.184 81.4972 192.876 81.1442 190.137 85.7875C190.137 85.7875 185.245 85.3698 184.054 90.0131C182.863 94.6564 186.242 94.0446 185.341 96.7849C184.439 99.5251 184.826 106.363 193.387 104.041C201.948 101.718 203.275 92.9075 203.275 92.9075L203.278 92.8992Z" fill="#3B1105"/>
        <path fill-rule="evenodd" clip-rule="evenodd" d="M198.086 107.652L197.936 107.111C197.816 106.713 198.7 104.608 199.635 103.298C200.569 101.989 194.377 98.0499 193.833 100.659C193.547 102.028 192.915 103.534 191.798 105.301C191.964 113.639 194.412 114.007 198.084 107.655L198.086 107.652Z" fill="#E08D73"/>
        <path fill-rule="evenodd" clip-rule="evenodd" d="M200.108 115.74C199.92 112.15 199.481 108.181 198.555 104.811C196.715 104.927 194.265 104.559 192.269 102.457C191.266 104.062 189.863 105.88 187.967 108.007C183.549 112.955 180.614 122.347 180.614 122.347C180.614 122.347 185.956 126.008 193.706 126.433C191.34 120.853 198.007 112.508 200.113 115.74H200.108Z" fill="#FFC743"/>
        <path fill-rule="evenodd" clip-rule="evenodd" d="M200.109 115.742C197.997 112.504 194.445 107.818 191.944 108.307C187.07 109.26 191.337 120.854 193.702 126.434C195.845 126.558 197.996 126.417 200.104 126.013C200.288 122.59 200.288 119.159 200.104 115.735L200.109 115.742Z" fill="#ECB73A"/>
        <path d="M189.481 97.9396C190.479 99.399 190.653 100.987 192.353 100.706C192.715 100.643 193.065 100.527 193.393 100.363C193.643 100.203 193.922 100.096 194.214 100.046C194.506 99.996 194.805 100.005 195.094 100.072C195.296 100.136 195.481 100.245 195.634 100.392C195.98 100.73 196.295 101.099 196.575 101.493C197.244 102.287 198.14 102.856 199.142 103.125C200.04 103.374 200.989 103.368 201.883 103.108C202.37 102.959 202.83 102.736 203.249 102.447C203.845 102.033 204.346 101.498 204.721 100.877C205.095 100.256 205.334 99.5623 205.421 98.8422C205.512 98.0131 205.101 97.3738 205.619 96.72C206 96.234 206.53 95.2768 205.421 94.7533C205.071 94.5815 204.767 94.328 204.535 94.0143C204.303 93.7005 204.15 93.3356 204.088 92.9503C203.911 92.1266 203.94 91.261 203.782 90.4376C203.433 89.0624 202.683 87.8222 201.627 86.875C200.571 85.9278 199.257 85.3165 197.852 85.1192C195.012 84.799 193.547 85.1491 191.269 86.875C190.473 87.3943 189.79 88.0685 189.261 88.8573C188.833 89.5875 188.55 90.393 188.426 91.23C187.916 93.5194 188.292 95.9171 189.481 97.9396Z" fill="#E0876B"/>
        <path fill-rule="evenodd" clip-rule="evenodd" d="M201.845 85.8434C201.845 85.8434 200.191 91.2642 193.964 88.7925C193.964 88.7925 198.301 90.4635 196.611 94.2879C195.434 96.9403 200.235 101.159 195.618 102.175C191.001 103.192 189.97 101.227 189.97 101.227L187.086 96.1848L186.733 88.7925L193.97 84.252L201.852 85.8451L201.845 85.8434Z" fill="#3B1105"/>
        <path fill-rule="evenodd" clip-rule="evenodd" d="M192.07 107.164C189.226 107.401 189.717 115.134 194.288 122.153C196.626 125.741 201.026 129.779 201.026 129.779C201.026 129.779 201.65 131.256 203.85 131.674C206.182 132.115 207.086 131.011 204.745 129.422C202.404 127.834 203.024 128.547 201.919 126.074C200.814 123.601 196.946 106.76 192.07 107.176V107.164Z" fill="#D68A72"/>
        <path d="M172.023 154.177C172.424 153.349 172.702 152.464 172.853 151.542C171.667 151.043 170.513 150.509 169.391 149.94C165.66 148.064 162.181 145.719 159.068 142.982C156.62 145.859 154.345 150.211 153.321 156.775C154.836 157.957 156.578 158.84 158.417 159.358C160.256 159.875 162.146 160.014 163.944 159.765C165.742 159.515 167.402 158.883 168.801 157.915C170.2 156.948 171.302 155.67 172.023 154.177Z" fill="#41C1A7"/>
        <path d="M162.219 140.26C161.488 140.862 160.809 141.514 160.185 142.214C163.352 145.029 167.691 148.053 173.465 150.529C173.694 148.167 173.093 145.7 171.751 143.487C170.408 141.274 168.393 139.43 165.998 138.221C165.885 138.163 165.77 138.108 165.655 138.053C164.414 138.664 163.263 139.404 162.219 140.26Z" fill="#FFC743"/>
        <path d="M158.951 140.484C159.397 140.936 159.876 141.397 160.387 141.868C161.028 141.152 161.725 140.484 162.474 139.867C163.417 139.092 164.446 138.41 165.547 137.828C164.025 137.212 162.426 136.87 160.841 136.822C159.255 136.773 157.716 137.02 156.309 137.546C157.139 138.563 158.02 139.543 158.951 140.484Z" fill="#0C419A"/>
        <path d="M159.939 142.686C159.372 142.193 158.818 141.689 158.279 141.174C157.23 140.171 156.238 139.124 155.307 138.039C153.496 138.787 151.974 139.935 150.867 141.384C149.761 142.834 149.103 144.544 148.948 146.369C148.794 148.195 149.148 150.084 149.981 151.876C150.813 153.668 152.1 155.312 153.732 156.668C154.096 154.446 154.673 152.278 155.459 150.188C156.573 147.274 158.075 144.765 159.939 142.686Z" fill="#E11A81"/>
        <path d="M159.434 142.882C162.575 145.63 166.084 147.984 169.849 149.869C170.982 150.439 172.146 150.976 173.342 151.478C173.375 151.271 173.402 151.063 173.423 150.855C167.515 148.347 163.069 145.286 159.827 142.439C160.467 141.735 161.163 141.078 161.913 140.472C162.982 139.61 164.162 138.866 165.433 138.252C165.172 138.13 164.91 138.017 164.647 137.911C163.51 138.496 162.447 139.183 161.473 139.964C160.699 140.585 159.978 141.259 159.316 141.982C158.789 141.504 158.296 141.036 157.836 140.576C156.879 139.622 155.973 138.627 155.121 137.597C154.921 137.668 154.726 137.746 154.533 137.827C155.415 138.901 156.355 139.936 157.348 140.928C157.858 141.439 158.383 141.937 158.922 142.425C157.147 144.471 155.72 146.946 154.662 149.819C153.915 151.881 153.365 154.019 153.019 156.212C153.218 156.385 153.423 156.555 153.634 156.718C154.667 150.132 156.963 145.767 159.434 142.882Z" fill="#CAD9FF"/>
        <g opacity="0.4">
            <path opacity="0.4" d="M159.017 157.905C161.694 158.544 164.313 158.294 166.409 157.118C168.006 156.221 169.278 154.856 169.918 153.219C170.02 152.962 170.49 153.214 170.388 153.475C169.704 155.21 168.322 156.652 166.613 157.582C164.43 158.773 161.706 159.002 158.941 158.342C158.612 158.263 158.685 157.825 159.012 157.904L159.017 157.905Z" fill="white"/>
        </g>
        <g filter="url(#filter0_d_35419_37670)">
            <rect width="28.9588" height="44.6251" transform="matrix(0.943389 0.331689 -0.943389 0.331689 107.273 128.73)" fill="white"/>
        </g>
        <rect width="18.9894" height="0.712103" rx="0.356051" transform="matrix(0.943389 0.331689 -0.943389 0.331689 96.9727 135.502)" fill="#BDCCF8"/>
        <rect width="18.9894" height="0.712103" rx="0.356051" transform="matrix(0.943389 0.331689 -0.943389 0.331689 93.8359 136.604)" fill="#BDCCF8"/>
        <rect width="18.9894" height="0.712103" rx="0.356051" transform="matrix(0.943389 0.331689 -0.943389 0.331689 90.7031 137.705)" fill="#BDCCF8"/>
        <rect width="9.49471" height="0.712103" rx="0.356051" transform="matrix(0.943389 0.331689 -0.943389 0.331689 92.043 140.383)" fill="#BDCCF8"/>
        <rect width="6.17156" height="0.712103" rx="0.356051" transform="matrix(0.943389 0.331689 -0.943389 0.331689 93.8359 145.107)" fill="#BDCCF8"/>
        <g filter="url(#filter1_d_35419_37670)">
            <rect width="28.9588" height="44.6251" transform="matrix(0.943389 0.331689 -0.943389 0.331689 103.426 128.26)" fill="white"/>
            <g clip-path="url(#clip3_35419_37670)">
                <path d="M104.245 131.644L105.52 132.092L105.85 131.976L104.234 131.408L101.641 132.32L103.257 132.888L103.587 132.772L102.311 132.324L103.39 131.944L104.673 132.395L105.002 132.279L103.72 131.828L104.245 131.644Z" fill="#E11A81"/>
                <path d="M105.997 133.297C106.376 133.164 106.442 132.991 106.193 132.782C105.92 132.544 105.95 132.506 106.113 132.448C106.231 132.407 106.419 132.375 106.648 132.455C106.834 132.521 106.842 132.574 106.679 132.652L106.599 132.691L106.992 132.786L107.066 132.748C107.351 132.605 107.323 132.456 106.988 132.338C106.625 132.21 106.115 132.211 105.75 132.339C105.577 132.4 105.481 132.479 105.481 132.562C105.485 132.629 105.524 132.684 105.654 132.807C105.772 132.913 105.812 132.965 105.818 133.018C105.818 133.086 105.753 133.141 105.62 133.188C105.338 133.287 104.904 133.284 104.611 133.181C104.323 133.08 104.291 132.938 104.538 132.852L104.821 132.752L104.487 132.635L104.204 132.735C103.788 132.881 103.817 133.138 104.268 133.297C104.744 133.465 105.52 133.465 105.997 133.297Z" fill="#E11A81"/>
                <path d="M106.663 133.548L107.268 133.76C107.743 133.927 108.628 133.932 109.09 133.77C109.307 133.694 109.449 133.562 109.446 133.441C109.442 133.384 109.406 133.325 109.34 133.267C109.267 133.199 109.176 133.145 109.067 133.107L108.152 132.785L105.559 133.697L105.899 133.817L106.663 133.548ZM108.162 133.021L108.73 133.221C109.083 133.345 109.091 133.528 108.75 133.648C108.424 133.763 107.926 133.76 107.591 133.642L106.993 133.432L108.162 133.021Z" fill="#E11A81"/>
                <path d="M114.669 136.669L113.393 136.22L114.472 135.841L115.754 136.291L116.084 136.175L114.802 135.725L115.327 135.54L116.602 135.989L116.932 135.873L115.316 135.305L112.723 136.216L114.339 136.785L114.669 136.669Z" fill="#E11A81"/>
                <path d="M112.716 135.825C112.192 135.794 111.948 135.758 111.713 135.675C111.269 135.519 111.18 135.293 111.44 135.105C111.449 135.099 111.457 135.092 111.466 135.086C111.467 135.086 111.468 135.085 111.468 135.085C111.536 135.042 111.622 135.001 111.728 134.963C111.833 134.926 111.951 134.896 112.074 134.872C112.075 134.872 112.076 134.872 112.077 134.871C112.094 134.868 112.113 134.865 112.131 134.862C112.664 134.771 113.309 134.802 113.753 134.958C113.988 135.041 114.091 135.127 114.177 135.311L114.199 135.358L114.664 135.326L114.644 135.282C114.547 135.068 114.396 134.948 114.089 134.84C114.088 134.84 114.087 134.839 114.086 134.839C113.733 134.715 113.256 134.647 112.744 134.648C112.232 134.65 111.754 134.719 111.398 134.844C111.397 134.845 111.395 134.846 111.393 134.846C111.392 134.847 111.39 134.847 111.388 134.848C111.032 134.973 110.835 135.141 110.831 135.321C110.827 135.501 111.019 135.669 111.372 135.793C111.373 135.793 111.375 135.794 111.376 135.794C111.683 135.902 112.024 135.955 112.633 135.989L112.759 135.996L112.849 135.833L112.716 135.825Z" fill="#E11A81"/>
                <path d="M111.412 133.884C110.807 133.672 109.774 133.676 109.155 133.894L107.637 134.428L107.977 134.547L108.957 134.203L110.487 134.74L109.507 135.085L109.85 135.206L111.339 134.682C111.984 134.455 112.017 134.097 111.412 133.884ZM109.286 134.087L109.495 134.013C109.947 133.854 110.64 133.85 111.075 134.003C111.513 134.156 111.479 134.391 110.995 134.561L110.815 134.625L109.286 134.087Z" fill="#E11A81"/>
                <path d="M114.14 137.07L114.465 137.05L114.025 136.895L113.707 136.918L112.988 136.665L110.394 137.577L112.01 138.145L112.34 138.029L111.065 137.58L112.144 137.201L113.425 137.652L113.755 137.536L112.474 137.085L112.999 136.901L114.28 137.351L114.61 137.235L114.14 137.07Z" fill="#E11A81"/>
                <path d="M109.635 135.439C109.03 135.226 107.997 135.231 107.378 135.448L105.859 135.982L106.199 136.102L107.718 135.568C108.17 135.409 108.863 135.404 109.298 135.557C109.735 135.711 109.701 135.946 109.218 136.116L107.729 136.64L108.072 136.76L109.561 136.237C110.207 136.01 110.24 135.652 109.635 135.439Z" fill="#E11A81"/>
                <path d="M110.354 135.969L111.208 136.27L108.944 137.066L109.291 137.188L111.555 136.392L112.43 136.7L112.76 136.584L110.684 135.854L110.354 135.969Z" fill="#E11A81"/>
                <path d="M107.013 134.517C106.409 134.304 105.376 134.309 104.757 134.526L103.238 135.06L103.578 135.18L104.558 134.835L106.088 135.373L105.108 135.718L105.451 135.839L106.94 135.315C107.586 135.088 107.619 134.73 107.013 134.517ZM106.417 135.258L104.887 134.72L105.097 134.646C105.548 134.487 106.242 134.483 106.677 134.635C107.114 134.789 107.08 135.024 106.596 135.194L106.417 135.257L106.417 135.258Z" fill="#E11A81"/>
                <path d="M103.679 134.662C104.058 134.529 104.124 134.355 103.875 134.147C103.603 133.909 103.633 133.871 103.796 133.813C103.914 133.772 104.102 133.74 104.331 133.82C104.517 133.885 104.525 133.939 104.362 134.017L104.281 134.055L104.674 134.151L104.749 134.113C105.034 133.97 105.006 133.821 104.671 133.703C104.307 133.575 103.798 133.576 103.433 133.704C103.259 133.765 103.163 133.844 103.164 133.927C103.167 133.994 103.206 134.049 103.336 134.171C103.454 134.278 103.494 134.33 103.501 134.383C103.5 134.451 103.435 134.506 103.302 134.553C103.02 134.652 102.587 134.649 102.294 134.546C102.006 134.445 101.974 134.303 102.22 134.217L102.503 134.117L102.171 134L101.888 134.1C101.472 134.246 101.501 134.503 101.951 134.662C102.427 134.83 103.202 134.83 103.679 134.662Z" fill="#E11A81"/>
                <path d="M108.696 132.723C109.053 132.849 109.534 132.917 110.051 132.916C110.566 132.915 111.049 132.844 111.409 132.717C111.766 132.592 111.962 132.423 111.962 132.242C111.961 132.06 111.762 131.891 111.403 131.764C110.67 131.507 109.426 131.509 108.686 131.769C107.953 132.027 107.958 132.464 108.696 132.723ZM111.07 131.884C111.643 132.085 111.644 132.4 111.073 132.601C110.496 132.804 109.598 132.806 109.029 132.606C108.454 132.404 108.451 132.088 109.022 131.887C109.599 131.685 110.499 131.683 111.07 131.884Z" fill="#0C419A"/>
                <path d="M117.772 136.121C118.156 135.986 118.156 135.767 117.772 135.632L113.148 134.001L114.314 133.591C114.96 133.364 114.806 132.941 114.201 132.728C113.596 132.515 112.563 132.52 111.944 132.737L110.426 133.271L110.766 133.391L112.285 132.857C112.736 132.698 113.43 132.694 113.864 132.846C114.302 133 114.454 133.301 113.971 133.471L112.474 133.997L117.452 135.744C117.651 135.814 117.631 135.932 117.432 136.002L114.773 136.937L115.113 137.056L117.772 136.121Z" fill="#0C419A"/>
                <path d="M98.7278 133.242C98.529 133.173 98.5393 133.058 98.7382 132.988L105.963 130.448C106.279 130.337 106.715 130.334 107.022 130.442C107.365 130.563 107.371 130.742 107.036 130.86L105.303 131.469L105.646 131.59L107.382 130.98C107.593 130.905 107.728 130.883 107.956 130.884C108.179 130.886 108.389 130.918 108.551 130.975C108.869 131.087 108.855 131.26 108.517 131.379L106.782 131.989L107.122 132.109L108.887 131.488C109.368 131.319 109.371 131.024 108.895 130.857C108.661 130.775 108.315 130.725 107.97 130.724C107.882 130.723 107.811 130.725 107.732 130.731C107.741 130.71 107.747 130.69 107.748 130.664L107.748 130.662C107.744 130.604 107.718 130.547 107.672 130.495L107.67 130.493C107.604 130.432 107.501 130.376 107.362 130.328C106.868 130.153 106.097 130.162 105.57 130.347L101.364 131.826L98.3985 132.869C98.0145 133.004 98.0145 133.223 98.3985 133.358L100.983 134.267L101.313 134.151L98.7278 133.242Z" fill="#0C419A"/>
            </g>
            <rect width="18.9894" height="0.712103" rx="0.356051" transform="matrix(0.943389 0.331689 -0.943389 0.331689 93.125 135.029)" fill="#BDCCF8"/>
            <rect width="18.9894" height="0.712103" rx="0.356051" transform="matrix(0.943389 0.331689 -0.943389 0.331689 89.9922 136.133)" fill="#BDCCF8"/>
            <rect width="18.9894" height="0.712103" rx="0.356051" transform="matrix(0.943389 0.331689 -0.943389 0.331689 86.8594 137.234)" fill="#BDCCF8"/>
            <rect width="9.49471" height="0.712103" rx="0.356051" transform="matrix(0.943389 0.331689 -0.943389 0.331689 88.1992 139.912)" fill="#BDCCF8"/>
            <rect width="6.17156" height="0.712103" rx="0.356051" transform="matrix(0.943389 0.331689 -0.943389 0.331689 89.9922 144.637)" fill="#BDCCF8"/>
        </g>
        <path d="M60.3934 143.009L87.3051 134.528L86.4263 133.586L59.927 141.291C58.8655 141.652 59.2156 142.82 60.3934 143.009Z" fill="#006F89"/>
        <g filter="url(#filter2_d_35419_37670)">
            <path d="M80.0507 150.044L59.6914 142.774L87.3395 132.67C87.4363 132.636 87.5415 132.636 87.6383 132.67L106.854 139.383L80.0507 150.044Z" fill="#006F89"/>
        </g>
        <path d="M80.0508 149.84L106.494 139.24L106.486 137.955L80.0508 148.662V149.84Z" fill="#BDC6E3"/>
        <path d="M80.0509 149.81L60.9096 143.038C60.4122 142.862 59.5801 142.403 59.6063 141.876C59.6375 141.249 60.228 141.466 60.82 141.673L80.0509 148.426L80.0509 149.81Z" fill="#E8ECFF"/>
        <path d="M80.0507 148.63L59.6914 141.351L87.3395 131.256C87.4363 131.222 87.5415 131.222 87.6383 131.256L106.854 137.969L80.0507 148.63Z" fill="#07C3F0"/>
        <path d="M81.4102 139.161L84.3504 140.234L93.6613 136.238L90.9133 135.258L81.4102 139.161Z" fill="white"/>
        <path d="M81.9641 136.238L91.3815 140.276L94.1513 139.161L84.4877 135.258L81.9641 136.238Z" fill="white"/>
        <path d="M84.028 147.012L64.1367 139.71L66.7109 138.768L86.6021 146.07L84.028 147.012Z" fill="white"/>
        <path fill-rule="evenodd" clip-rule="evenodd" d="M46.7109 133.193C46.7109 132.946 46.511 132.746 46.2644 132.746L35.5472 132.746C35.3006 132.746 35.1007 132.946 35.1007 133.193C35.1007 133.439 35.3006 133.639 35.5472 133.639L46.2644 133.639C46.511 133.639 46.7109 133.439 46.7109 133.193Z" fill="#E7ECFA"/>
        <path fill-rule="evenodd" clip-rule="evenodd" d="M42.3594 136.575C42.3594 136.329 42.1594 136.129 41.9128 136.129L31.1956 136.129C30.949 136.129 30.7491 136.329 30.7491 136.575C30.7491 136.822 30.949 137.022 31.1956 137.022L41.9128 137.022C42.1594 137.022 42.3594 136.822 42.3594 136.575Z" fill="#E7ECFA"/>
        <path fill-rule="evenodd" clip-rule="evenodd" d="M39.457 139.966C39.457 139.719 39.2571 139.52 39.0105 139.52L28.2933 139.52C28.0467 139.52 27.8467 139.719 27.8467 139.966C27.8467 140.213 28.0467 140.413 28.2933 140.413L39.0105 140.413C39.2571 140.413 39.457 140.213 39.457 139.966Z" fill="#E7ECFA"/>
        <path fill-rule="evenodd" clip-rule="evenodd" d="M40.4258 143.349C40.4258 143.102 40.2259 142.902 39.9792 142.902L30.7133 142.902C30.4667 142.902 30.2668 143.102 30.2668 143.349C30.2668 143.596 30.4667 143.795 30.7133 143.795L39.9792 143.795C40.2259 143.795 40.4258 143.596 40.4258 143.349Z" fill="#E7ECFA"/>
        <path fill-rule="evenodd" clip-rule="evenodd" d="M43.8086 146.74C43.8086 146.493 43.6087 146.293 43.362 146.293L34.0961 146.293C33.8495 146.293 33.6496 146.493 33.6496 146.74C33.6496 146.986 33.8495 147.186 34.0961 147.186L43.362 147.186C43.6087 147.186 43.8086 146.986 43.8086 146.74Z" fill="#E7ECFA"/>
    </g>
    <defs>
        <filter id="filter0_d_35419_37670" x="65.1758" y="128.73" width="69.418" height="24.9555" filterUnits="userSpaceOnUse" color-interpolation-filters="sRGB">
            <feFlood flood-opacity="0" result="BackgroundImageFix"/>
            <feColorMatrix in="SourceAlpha" type="matrix" values="0 0 0 0 0 0 0 0 0 0 0 0 0 0 0 0 0 0 127 0" result="hardAlpha"/>
            <feOffset dy="0.549202"/>
            <feComposite in2="hardAlpha" operator="out"/>
            <feColorMatrix type="matrix" values="0 0 0 0 0.466667 0 0 0 0 0.580392 0 0 0 0 0.905882 0 0 0 0.3 0"/>
            <feBlend mode="normal" in2="BackgroundImageFix" result="effect1_dropShadow_35419_37670"/>
            <feBlend mode="normal" in="SourceGraphic" in2="effect1_dropShadow_35419_37670" result="shape"/>
        </filter>
        <filter id="filter1_d_35419_37670" x="61.3281" y="128.26" width="69.418" height="24.9555" filterUnits="userSpaceOnUse" color-interpolation-filters="sRGB">
            <feFlood flood-opacity="0" result="BackgroundImageFix"/>
            <feColorMatrix in="SourceAlpha" type="matrix" values="0 0 0 0 0 0 0 0 0 0 0 0 0 0 0 0 0 0 127 0" result="hardAlpha"/>
            <feOffset dy="0.549202"/>
            <feComposite in2="hardAlpha" operator="out"/>
            <feColorMatrix type="matrix" values="0 0 0 0 0.466667 0 0 0 0 0.580392 0 0 0 0 0.905882 0 0 0 0.3 0"/>
            <feBlend mode="normal" in2="BackgroundImageFix" result="effect1_dropShadow_35419_37670"/>
            <feBlend mode="normal" in="SourceGraphic" in2="effect1_dropShadow_35419_37670" result="shape"/>
        </filter>
        <filter id="filter2_d_35419_37670" x="59.6914" y="132.645" width="47.1641" height="17.7673" filterUnits="userSpaceOnUse" color-interpolation-filters="sRGB">
            <feFlood flood-opacity="0" result="BackgroundImageFix"/>
            <feColorMatrix in="SourceAlpha" type="matrix" values="0 0 0 0 0 0 0 0 0 0 0 0 0 0 0 0 0 0 127 0" result="hardAlpha"/>
            <feOffset dy="0.366947"/>
            <feComposite in2="hardAlpha" operator="out"/>
            <feColorMatrix type="matrix" values="0 0 0 0 0.466667 0 0 0 0 0.580392 0 0 0 0 0.905882 0 0 0 0.3 0"/>
            <feBlend mode="normal" in2="BackgroundImageFix" result="effect1_dropShadow_35419_37670"/>
            <feBlend mode="normal" in="SourceGraphic" in2="effect1_dropShadow_35419_37670" result="shape"/>
        </filter>
        <clipPath id="clip0_35419_37670">
            <rect width="360" height="258" fill="white"/>
        </clipPath>
        <clipPath id="clip1_35419_37670">
            <rect width="132.022" height="127.08" fill="white" transform="matrix(-1 0 0 1 311.281 19.6055)"/>
        </clipPath>
        <clipPath id="clip2_35419_37670">
            <rect width="53.3671" height="47.415" fill="white" transform="matrix(-0.95341 0.268869 0.300448 0.963469 309.23 10.0312)"/>
        </clipPath>
        <clipPath id="clip3_35419_37670">
            <rect width="19.143" height="10.9739" fill="white" transform="matrix(0.943389 0.331689 -0.943389 0.331689 105.371 129.102)"/>
        </clipPath>
    </defs>
</svg>
