<svg width="120" height="120" viewBox="0 0 120 120" fill="none" xmlns="http://www.w3.org/2000/svg">
<path d="M97.5365 77.6094C86.1478 84.9249 72.2334 89.3796 58.9269 90.2487C32.7878 91.9546 9.32374 70.7753 6.41052 44.4493C5.0404 32.0632 9.60034 18.6462 20.0716 11.5221C27.8203 6.24914 37.2273 6.59605 45.4659 10.2247C52.4144 13.2854 58.0635 18.5412 64.7007 22.1403C74.8478 27.6433 86.0323 27.3734 96.7273 30.8294C102.591 32.7237 108.997 36.5401 111.839 42.3364C114.538 47.8385 114.525 54.6042 112.394 60.3601C109.704 67.6249 104.018 73.4467 97.5365 77.6094Z" fill="#A0B2EC" fill-opacity="0.16"/>
<path d="M97.5741 49.9841C93.9261 45.4881 88.0822 42.9469 82.0826 42.4278C78.2742 42.0986 74.2795 42.5545 70.7978 44.2751C65.0902 47.0966 61.5844 52.7797 57.1404 57.2791C51.827 62.6594 45.0453 66.4239 39.1016 71.1472C33.1586 75.87 27.7722 82.1693 27.2028 89.4321C26.8635 93.7481 28.3036 98.0093 30.7357 101.521C35.4741 108.364 43.8992 112.379 52.5717 112.849C77.1061 114.179 99.502 91.5164 101.943 68.8382C102.655 62.2138 101.75 55.1309 97.5741 49.9841Z" fill="#A0B2EC" fill-opacity="0.16"/>
<path d="M29.3398 92.2793H47.1418L38.862 101.249C38.2193 101.945 37.315 102.341 36.3675 102.341H32.7346C30.8597 102.341 29.3398 100.821 29.3398 98.9466V92.2793Z" fill="#0C419A"/>
<path d="M91.2607 92.2793H73.4587L81.7386 101.249C82.3812 101.945 83.2856 102.341 84.2331 102.341H87.866C89.7409 102.341 91.2607 100.821 91.2607 98.9466V92.2793Z" fill="#0C419A"/>
<rect x="21.6001" y="18" width="77.4" height="77.4" rx="5.38484" fill="#07C3F0"/>
<path fill-rule="evenodd" clip-rule="evenodd" d="M84.16 31.139H36.4418C35.5011 31.139 34.7386 31.9015 34.7386 32.8422V80.5604C34.7386 81.5011 35.5012 82.2637 36.4418 82.2637H84.16C85.1007 82.2637 85.8633 81.5011 85.8633 80.5604V32.8422C85.8633 31.9015 85.1007 31.139 84.16 31.139ZM36.4418 29.6113C34.6575 29.6113 33.2109 31.0579 33.2109 32.8422V80.5604C33.2109 82.3448 34.6575 83.7913 36.4418 83.7913H84.16C85.9444 83.7913 87.3909 82.3448 87.3909 80.5604V32.8422C87.3909 31.0579 85.9444 29.6113 84.16 29.6113H36.4418Z" fill="#0C419A"/>
<path d="M31.5874 42.9694C31.5874 41.5905 32.7052 40.4727 34.0842 40.4727C35.4631 40.4727 36.581 41.5905 36.581 42.9694V45.4662C36.581 46.8451 35.4631 47.963 34.0842 47.963C32.7052 47.963 31.5874 46.8451 31.5874 45.4662V42.9694Z" fill="#0C419A"/>
<path fill-rule="evenodd" clip-rule="evenodd" d="M36.0717 45.4662V42.9694C36.0717 41.8717 35.1819 40.9819 34.0842 40.9819C32.9865 40.9819 32.0966 41.8717 32.0966 42.9694V45.4662C32.0966 46.5639 32.9865 47.4538 34.0842 47.4538C35.1819 47.4538 36.0717 46.5639 36.0717 45.4662ZM34.0842 40.4727C32.7052 40.4727 31.5874 41.5905 31.5874 42.9694V45.4662C31.5874 46.8451 32.7052 47.963 34.0842 47.963C35.4631 47.963 36.581 46.8451 36.581 45.4662V42.9694C36.581 41.5905 35.4631 40.4727 34.0842 40.4727Z" fill="#0C419A"/>
<path d="M31.5874 67.9362C31.5874 66.5573 32.7052 65.4395 34.0842 65.4395C35.4631 65.4395 36.581 66.5573 36.581 67.9362V70.433C36.581 71.8119 35.4631 72.9298 34.0842 72.9298C32.7052 72.9298 31.5874 71.8119 31.5874 70.433V67.9362Z" fill="#0C419A"/>
<path fill-rule="evenodd" clip-rule="evenodd" d="M36.0717 70.433V67.9362C36.0717 66.8385 35.1819 65.9487 34.0842 65.9487C32.9865 65.9487 32.0966 66.8385 32.0966 67.9362V70.433C32.0966 71.5307 32.9865 72.4206 34.0842 72.4206C35.1819 72.4206 36.0717 71.5307 36.0717 70.433ZM34.0842 65.4395C32.7052 65.4395 31.5874 66.5573 31.5874 67.9362V70.433C31.5874 71.8119 32.7052 72.9298 34.0842 72.9298C35.4631 72.9298 36.581 71.8119 36.581 70.433V67.9362C36.581 66.5573 35.4631 65.4395 34.0842 65.4395Z" fill="#0C419A"/>
<path d="M80.4009 57C80.4009 60.3138 77.7152 63 74.4009 63C71.0866 63 68.4009 60.3138 68.4009 57C68.4009 53.6862 71.0866 51 74.4009 51C77.7152 51 80.4009 53.6862 80.4009 57Z" fill="white"/>
<path d="M74.2933 61.2008C71.9772 61.2008 70.0933 59.3169 70.0933 56.9999C70.0933 54.6829 71.9772 52.8008 74.2933 52.8008C76.6093 52.8008 78.4933 54.6847 78.4933 56.9999C78.4933 59.3151 76.6093 61.2008 74.2933 61.2008Z" fill="#0C419A"/>
<rect x="73.2007" y="56.4004" width="2.4" height="12.6" rx="1.2" fill="white"/>
<path d="M63.784 57.1632C63.784 63.8141 58.3919 69.2053 51.7418 69.2053C45.0918 69.2053 39.6997 63.8141 39.6997 57.1632C39.6997 50.5124 45.0905 45.1211 51.7418 45.1211C58.3932 45.1211 63.784 50.5124 63.784 57.1632Z" fill="white"/>
<path d="M51.74 65.5284C56.3597 65.5284 60.1046 61.7834 60.1046 57.1636C60.1046 52.5439 56.3597 48.7988 51.74 48.7988C47.1204 48.7988 43.3755 52.5439 43.3755 57.1636C43.3755 61.7834 47.1204 65.5284 51.74 65.5284Z" fill="#07C3F0"/>
<path d="M51.7449 61.8508C49.1605 61.8508 47.0566 59.7482 47.0566 57.1634C47.0566 54.5785 49.1592 52.4746 51.7449 52.4746C54.3306 52.4746 56.4332 54.5772 56.4332 57.1634C56.4332 59.747 54.3293 61.8508 51.7449 61.8508Z" fill="white"/>
<path d="M52.1793 50.998C52.1793 51.193 52.0208 51.3525 51.8255 51.3525C51.6302 51.3525 51.4717 51.1942 51.4717 50.998V49.7587C51.4717 49.5638 51.6302 49.4043 51.8255 49.4043C52.0208 49.4043 52.1793 49.5625 52.1793 49.7587V50.998Z" fill="#0C419A"/>
<path d="M49.037 51.6017C49.1346 51.7713 49.0763 51.9878 48.9077 52.0852C48.739 52.1827 48.5221 52.1245 48.4245 51.9561L47.8057 50.8827C47.708 50.713 47.7663 50.4966 47.935 50.3991C48.1049 50.3016 48.3205 50.3586 48.4182 50.5282L49.037 51.6017Z" fill="#0C419A"/>
<path d="M46.619 53.6984C46.7876 53.7958 46.846 54.0123 46.7483 54.1819C46.6507 54.3515 46.4338 54.4098 46.2652 54.311L45.1923 53.692C45.0237 53.5946 44.9653 53.3781 45.063 53.2085C45.1606 53.0388 45.3775 52.9806 45.5461 53.0794L46.619 53.6984Z" fill="#0C419A"/>
<path d="M45.5728 56.7207C45.768 56.7207 45.9266 56.8788 45.9266 57.0748C45.9266 57.2696 45.768 57.4289 45.5728 57.4289H44.3338C44.1385 57.4289 43.98 57.2709 43.98 57.0748C43.98 56.8801 44.1385 56.722 44.3338 56.722L45.5728 56.7207Z" fill="#0C419A"/>
<path d="M46.1771 59.8617C46.347 59.7642 46.5626 59.8225 46.6602 59.9908C46.7579 60.1605 46.6995 60.3769 46.5309 60.4744L45.458 61.0934C45.2881 61.1909 45.0725 61.1326 44.9749 60.963C44.8772 60.7934 44.9343 60.5782 45.1042 60.4795L46.1771 59.8617Z" fill="#0C419A"/>
<path d="M48.2754 62.2802C48.373 62.1106 48.5899 62.0536 48.7585 62.1511C48.9285 62.2485 48.9855 62.465 48.8879 62.6346L48.269 63.7068C48.1714 63.8764 47.9545 63.9334 47.7846 63.8359C47.6159 63.7384 47.5576 63.522 47.6553 63.3523L48.2754 62.2802Z" fill="#0C419A"/>
<path d="M51.3003 63.3258C51.3003 63.1309 51.4588 62.9727 51.6541 62.9727C51.8494 62.9727 52.0079 63.1309 52.0079 63.3258V64.5651C52.0079 64.76 51.8494 64.9183 51.6541 64.9183C51.4588 64.9183 51.3003 64.76 51.3003 64.5638V63.3258Z" fill="#0C419A"/>
<path d="M54.4355 62.7242C54.3379 62.5546 54.3962 62.3381 54.5649 62.2406C54.7348 62.1432 54.9504 62.2014 55.048 62.3697L55.6669 63.4419C55.7645 63.6115 55.7062 63.8267 55.5363 63.9255C55.3676 64.023 55.1508 63.966 55.0531 63.7951L54.4355 62.7242Z" fill="#0C419A"/>
<path d="M56.8532 60.6295C56.6833 60.5321 56.6263 60.3156 56.7239 60.146C56.8215 59.9763 57.0384 59.9181 57.2071 60.0169L58.2799 60.6359C58.4485 60.7333 58.5069 60.9498 58.4092 61.1194C58.3116 61.2878 58.096 61.3473 57.9261 61.2485L56.8532 60.6295Z" fill="#0C419A"/>
<path d="M57.9012 57.6047C57.7059 57.6047 57.5474 57.4466 57.5474 57.2506C57.5474 57.0558 57.7059 56.8965 57.9012 56.8965H59.1401C59.3354 56.8965 59.4939 57.0546 59.4939 57.2506C59.4939 57.4454 59.3354 57.6047 59.1401 57.6035L57.9012 57.6047Z" fill="#0C419A"/>
<path d="M57.2949 54.4638C57.125 54.5612 56.9094 54.503 56.8118 54.3334C56.7141 54.1638 56.7712 53.9473 56.9411 53.8498L58.014 53.2308C58.1826 53.1333 58.3995 53.1916 58.4971 53.3612C58.5948 53.5308 58.5377 53.746 58.3665 53.8448L57.2949 54.4638Z" fill="#0C419A"/>
<path d="M55.2007 52.0464C55.103 52.216 54.8862 52.273 54.7175 52.1755C54.5476 52.078 54.4905 51.8616 54.5882 51.6919L55.2083 50.6197C55.3059 50.4514 55.5228 50.3932 55.6914 50.4906C55.8601 50.5881 55.9184 50.8046 55.8208 50.9742L55.2007 52.0464Z" fill="#0C419A"/>
<path d="M52.3569 47.7057C52.2149 48.1908 51.5277 48.1908 51.3858 47.7057L50.3713 44.2399C50.2765 43.916 50.5193 43.5918 50.8568 43.5918H52.8858C53.2233 43.5918 53.4662 43.916 53.3714 44.2399L52.3569 47.7057Z" fill="#D81E7E"/>
</svg>
