<svg width="161" height="161" viewBox="0 0 161 161" fill="none" xmlns="http://www.w3.org/2000/svg">
<g clip-path="url(#clip0_48665_67404)">
<path d="M130.536 103.656C115.351 113.41 96.7982 119.35 79.0561 120.509C44.2041 122.783 12.9186 94.5442 9.03434 59.4428C7.20751 42.928 13.2874 25.0387 27.2491 15.5399C37.5806 8.50928 50.1234 8.97181 61.1082 13.81C70.3729 17.891 77.9049 24.8987 86.7546 29.6975C100.284 37.0348 115.197 36.675 129.457 41.2829C137.274 43.8087 145.816 48.8972 149.606 56.6256C153.204 63.9617 153.188 72.9826 150.346 80.6572C146.759 90.3436 139.177 98.106 130.536 103.656Z" fill="#A0B2EC" fill-opacity="0.16"/>
<path d="M130.583 66.8243C125.719 60.8296 117.927 57.4414 109.927 56.7493C104.849 56.3103 99.523 56.9181 94.8809 59.2124C87.2706 62.9743 82.5963 70.5517 76.671 76.551C69.5864 83.7247 60.5442 88.7441 52.6191 95.0417C44.6952 101.339 37.5133 109.738 36.7542 119.422C36.3017 125.176 38.2218 130.858 41.4647 135.54C47.7826 144.664 59.0161 150.017 70.5793 150.644C103.292 152.418 133.153 122.201 136.407 91.9631C137.357 83.1306 136.151 73.6867 130.583 66.8243Z" fill="#A0B2EC" fill-opacity="0.16"/>
<path d="M81.7891 146.35H111.044L109.975 156.865H82.9574L81.7891 146.35Z" fill="#BDCCF8"/>
<rect x="55.8633" y="119.239" width="35.1954" height="2.54043" rx="1.27021" fill="#BDCCF8"/>
<path d="M111.58 141.675H81.2031L81.7873 146.349H111.042L111.58 141.675Z" fill="#A0B2EC"/>
<path d="M32.0703 126.534H162.585V133.629C162.585 138.077 158.979 141.683 154.531 141.683H40.1242C35.6762 141.683 32.0703 138.077 32.0703 133.629V126.534Z" fill="#BDCCF8"/>
<rect x="66.0898" y="100.979" width="14.4" height="2.4" rx="1.2" fill="#A0B2EC"/>
<path d="M35.9141 51.9927H159.962V126.534H35.9141V51.9927Z" fill="#F9FAFF"/>
<path d="M34.1758 52.8096H160.492V62.2833H34.1758V52.8096Z" fill="white"/>
<path d="M125.483 98.9722C126.444 98.9722 127.223 99.7512 127.223 100.712L127.223 120.287C127.223 121.248 126.444 122.027 125.483 122.027L73.9362 122.027C72.9753 122.027 72.1962 121.248 72.1962 120.287L72.1962 100.712C72.1962 99.7512 72.9752 98.9722 73.9362 98.9722L125.483 98.9722Z" fill="white"/>
<rect x="108.738" y="103.54" width="13.8838" height="13.8838" rx="1.63339" fill="#E7ECFA"/>
<rect x="76.2773" y="113.862" width="17.8947" height="1.57895" rx="0.789474" fill="#B7BCCA"/>
<rect x="76.2773" y="109.994" width="27.187" height="1.57895" rx="0.789474" fill="#B7BCCA"/>
<path d="M159.6 98.9722C160.561 98.9722 161.34 99.7512 161.34 100.712L161.34 120.287C161.34 121.248 160.561 122.027 159.6 122.027L133.317 122.027C132.356 122.027 131.577 121.248 131.577 120.287L131.577 100.712C131.577 99.7512 132.356 98.9722 133.317 98.9722L159.6 98.9722Z" fill="white"/>
<rect x="135.93" y="112.17" width="27.187" height="1.57895" rx="0.789474" fill="#B7BCCA"/>
<path d="M66.1155 99.125C67.0765 99.125 67.8555 99.904 67.8555 100.865L67.8555 120.543C67.8555 121.504 67.0765 122.283 66.1155 122.283L38.5428 122.283C37.5818 122.283 36.8028 121.504 36.8028 120.543L36.8028 100.865C36.8028 99.904 37.5818 99.125 38.5428 99.125L66.1155 99.125Z" fill="white"/>
<rect x="49.3633" y="103.54" width="13.8838" height="13.8838" rx="1.63339" fill="#F6EFF8"/>
<path d="M36.2773 109.994H43.5702C44.0062 109.994 44.3597 110.347 44.3597 110.783V110.783C44.3597 111.219 44.0062 111.573 43.5702 111.573H36.2773V109.994Z" fill="#B7BCCA"/>
<rect x="102.648" y="66.9985" width="58.2888" height="22.837" rx="3.47993" fill="#E7ECFA"/>
<rect x="55.8203" y="58.1089" width="9.78731" height="2.10526" rx="1.05263" fill="#0C419A"/>
<rect x="69.8203" y="58.1089" width="9.78731" height="2.10526" rx="1.05263" fill="#B7BCCA"/>
<rect x="83.8164" y="58.1089" width="9.78731" height="2.10526" rx="1.05263" fill="#B7BCCA"/>
<rect x="97.8164" y="58.1089" width="9.78731" height="2.10526" rx="1.05263" fill="#B7BCCA"/>
<rect x="148.695" y="58.1089" width="6.52487" height="0.815609" rx="0.407804" fill="#B7BCCA"/>
<path d="M35.3677 44.9879L35.4113 44.9224H35.2668L35.2252 44.9879H34.9883V45.8756H35.5206V45.7627H35.1002V45.3936H35.5226V45.2807H35.1002V45.1008H35.5226V44.9879H35.3677Z" fill="#E11A81"/>
<path d="M34.2305 45.1007H34.5123V45.8754H34.6268V45.1007H34.9151V44.9878H34.2305V45.1007Z" fill="#E11A81"/>
<path d="M33.8599 44.9648C33.6607 44.9648 33.4922 45.144 33.4922 45.3556V45.8754H33.6041V45.3556C33.6041 45.2008 33.7161 45.0798 33.8592 45.0798C34.0037 45.0798 34.1079 45.2001 34.1079 45.3657V45.8754H34.2211V45.3657C34.2224 45.1447 34.0597 44.9648 33.8599 44.9648Z" fill="#E11A81"/>
<path d="M32.9966 44.9648C32.7975 44.9648 32.6289 45.144 32.6289 45.3556V45.8754H32.7408V45.5395H33.2452V45.8754H33.3585V45.3657C33.3585 45.1447 33.1958 44.9648 32.9966 44.9648ZM33.2452 45.4272H32.7408V45.3556C32.7408 45.2008 32.8528 45.0798 32.996 45.0798C33.1404 45.0798 33.2446 45.2001 33.2446 45.3657V45.4272H33.2452Z" fill="#E11A81"/>
<path d="M32.5161 45.6061C32.5161 45.4763 32.4458 45.3803 32.3072 45.3214C32.151 45.2525 32.138 45.2282 32.138 45.1727C32.138 45.1328 32.1536 45.0848 32.2297 45.0848C32.2909 45.0848 32.3176 45.1092 32.3273 45.1754L32.3319 45.2079L32.4412 45.1869L32.436 45.1558C32.4159 45.0375 32.341 44.9692 32.231 44.9692C32.1113 44.9692 32.0273 45.0564 32.0273 45.1815C32.0273 45.241 32.0488 45.2958 32.0872 45.3356C32.1191 45.3681 32.1516 45.3877 32.2304 45.4256C32.3 45.4573 32.3306 45.4756 32.3566 45.5006C32.3879 45.5337 32.4035 45.5716 32.4035 45.6169C32.4035 45.7135 32.3306 45.7859 32.2336 45.7859C32.1386 45.7859 32.067 45.7223 32.067 45.6385V45.5418H31.957V45.6392C31.957 45.7818 32.0826 45.9021 32.231 45.9021C32.3885 45.9021 32.5161 45.7696 32.5161 45.6061Z" fill="#E11A81"/>
<path d="M35.2746 44.7017H34.8541V44.3319H35.2772V44.219H34.8541V44.0392H35.2746V43.9263H34.7422V44.8146H35.2746V44.7017Z" fill="#E11A81"/>
<path d="M33.4263 43.9033C33.2272 43.9033 33.0586 44.0825 33.0586 44.2941V44.8139H33.1705V44.4779H33.6749V44.8139H33.7882V44.3042C33.7882 44.0831 33.6261 43.9033 33.4263 43.9033ZM33.1705 44.3664V44.2947C33.1705 44.1399 33.2825 44.0189 33.4257 44.0189C33.5701 44.0189 33.6743 44.1393 33.6743 44.3049V44.3664H33.1705Z" fill="#E11A81"/>
<path d="M34.5518 44.6255C34.451 44.7005 34.3943 44.7249 34.3169 44.7249C34.1705 44.7249 34.0494 44.6296 34.0045 44.4937C34.0032 44.4889 34.0013 44.4849 34 44.4802V44.4795C33.9908 44.447 33.9856 44.4119 33.9856 44.376C33.9856 44.3395 33.9908 44.3051 34 44.2726V44.2719C34.0013 44.2672 34.0032 44.2625 34.0045 44.2577C34.0494 44.1219 34.1705 44.0272 34.3169 44.0272C34.3943 44.0272 34.4516 44.0516 34.5518 44.1266L34.5772 44.1455L34.6391 44.0502L34.615 44.032C34.4985 43.9441 34.4178 43.9116 34.3163 43.9116C34.3156 43.9116 34.3156 43.9116 34.3149 43.9116C34.1985 43.9116 34.0885 43.9603 34.0045 44.0489C33.9206 44.1367 33.875 44.253 33.875 44.3747C33.875 44.3754 33.875 44.376 33.875 44.3767C33.875 44.3774 33.875 44.3781 33.875 44.3788C33.875 44.5004 33.9212 44.616 34.0045 44.7046C34.0885 44.7932 34.1985 44.8418 34.3149 44.8418C34.3156 44.8418 34.3156 44.8418 34.3163 44.8418C34.4178 44.8418 34.4985 44.8094 34.615 44.7215L34.6391 44.7032L34.5772 44.6079L34.5518 44.6255Z" fill="#E11A81"/>
<path d="M32.4876 44.5525H32.6867C32.8436 44.5525 32.9913 44.4031 32.9913 44.2449C32.9913 44.1705 32.9529 44.0819 32.8956 44.0238C32.8677 43.9961 32.8345 43.9738 32.7967 43.9569C32.7531 43.9359 32.7128 43.9258 32.6763 43.9258H32.375V44.8141H32.4869V44.5525H32.4876ZM32.4876 44.0394H32.675C32.7909 44.0394 32.8787 44.1272 32.8787 44.2442C32.8787 44.3557 32.7954 44.4396 32.6848 44.4396H32.4876V44.0394Z" fill="#E11A81"/>
<path d="M32.2622 44.5445C32.2622 44.4147 32.1919 44.3187 32.0533 44.2599C31.8971 44.191 31.8841 44.1666 31.8841 44.1112C31.8841 44.0713 31.8997 44.0233 31.9758 44.0233C32.037 44.0233 32.0637 44.0477 32.0734 44.1139L32.078 44.1464L32.1873 44.1254L32.1821 44.0943C32.1619 43.976 32.0871 43.9077 31.9771 43.9077C31.8574 43.9077 31.7734 43.9949 31.7734 44.12C31.7734 44.1795 31.7949 44.2342 31.8333 44.2741C31.8652 44.3066 31.8977 44.3262 31.9765 44.364C32.0461 44.3958 32.0767 44.4141 32.1027 44.4391C32.134 44.4722 32.1496 44.5101 32.1496 44.5553C32.1496 44.652 32.0767 44.7243 31.9797 44.7243C31.8847 44.7243 31.8131 44.6608 31.8131 44.577V44.4803H31.7031V44.577C31.7031 44.7196 31.8287 44.8399 31.9771 44.8399C32.134 44.8406 32.2622 44.7074 32.2622 44.5445Z" fill="#E11A81"/>
<path d="M31.1979 44.0392H31.6183V43.9263H31.0859V44.8146H31.6183V44.7017H31.1979V44.3319H31.6209V44.219H31.1979V44.0392Z" fill="#E11A81"/>
<path d="M35.5238 43.9044C35.5238 43.7732 35.421 43.6657 35.2941 43.6657L33.7679 43.663V43.2642C33.7679 43.0431 33.5441 42.8633 33.3443 42.8633C33.1451 42.8633 32.9766 43.0424 32.9766 43.254V43.7739H33.0885V43.254C33.0885 43.0992 33.2004 42.9782 33.3436 42.9782C33.4881 42.9782 33.6541 43.0985 33.6541 43.2642V43.7766L35.2935 43.7752C35.3592 43.7752 35.4106 43.8361 35.4106 43.9044V44.815H35.5225V43.9044H35.5238Z" fill="#0C419A"/>
<path d="M32.4334 43.8033C32.5512 43.8033 32.6625 43.7539 32.7471 43.6653C32.8317 43.5768 32.8779 43.4598 32.8779 43.3361C32.8779 43.2138 32.8311 43.0982 32.7465 43.0103C32.6612 42.9217 32.5493 42.873 32.4302 42.873C32.1887 42.873 31.9844 43.0873 31.9844 43.3409C31.985 43.591 32.1907 43.8033 32.4334 43.8033ZM32.4315 42.988C32.6202 42.988 32.7686 43.1414 32.7686 43.3368C32.7686 43.5342 32.6215 43.689 32.4341 43.689C32.2447 43.689 32.0963 43.5355 32.0963 43.3402C32.0957 43.1428 32.2434 42.988 32.4315 42.988Z" fill="#0C419A"/>
<path d="M31.037 45.7636C30.9713 45.7636 30.9199 45.7061 30.9199 45.6379V43.1643C30.9199 43.0561 30.9908 42.9804 31.0917 42.9804C31.2049 42.9804 31.2902 43.067 31.2902 43.1819V43.7754H31.4034V43.1812C31.4034 43.1089 31.4151 43.0751 31.4535 43.0365C31.4913 42.9993 31.5414 42.9791 31.5941 42.9791C31.6989 42.9791 31.7783 43.0663 31.7783 43.1812V43.7754H31.8902V43.1711C31.8902 43.0068 31.7523 42.8628 31.5954 42.8628C31.5186 42.8628 31.4379 42.8979 31.3807 42.9561C31.3657 42.971 31.3553 42.9838 31.3449 43.0007C31.3364 42.9885 31.3279 42.9784 31.3162 42.9655L31.3149 42.9642C31.2869 42.9365 31.2557 42.9128 31.2245 42.8959L31.2232 42.8952C31.1841 42.877 31.1405 42.8675 31.095 42.8675C30.9316 42.8675 30.8086 43.0034 30.8086 43.1839V44.6238V45.6392C30.8086 45.7704 30.9114 45.8779 31.0383 45.8779H31.8902V45.765L31.037 45.7636Z" fill="#0C419A"/>
<circle cx="146.657" cy="58.5178" r="1.22341" fill="#0C419A"/>
<path d="M36.8008 104.388L40.485 104.388C41.0663 104.388 41.5376 104.859 41.5376 105.441V105.441C41.5376 106.022 41.0663 106.493 40.485 106.493H36.8008V104.388Z" fill="#A05BB6"/>
<rect x="76.2773" y="104.138" width="24.0672" height="2.10526" rx="1.05263" fill="#0C419A"/>
<rect x="136.027" y="104.138" width="22.0616" height="2.10526" rx="1.05263" fill="#D81E7E"/>
<rect x="136.027" y="107.146" width="14.3734" height="2.10526" rx="1.05263" fill="#D81E7E"/>
<rect x="43.5938" y="82.8062" width="31.1019" height="5.65489" rx="1.73997" fill="#A05BB6"/>
<rect x="76.332" y="82.8062" width="31.1019" height="5.65489" rx="1.73997" fill="#0C419A"/>
<rect x="43.4883" y="72.0718" width="27.187" height="1.57895" rx="0.789474" fill="#B7BCCA"/>
<rect x="43.4883" y="66.3467" width="13.4847" height="2.10526" rx="1.05263" fill="#E11A81"/>
<rect x="43.4883" y="75.2993" width="15.0072" height="1.57895" rx="0.789474" fill="#B7BCCA"/>
<path d="M34.4141 52.9453H37.7567V123.862H34.4141V52.9453Z" fill="#0C419A"/>
<path fill-rule="evenodd" clip-rule="evenodd" d="M154.714 52.8098H40.1242C37.4202 52.8098 35.2282 55.0018 35.2282 57.7057V123.375H159.61V57.7057C159.61 55.0018 157.418 52.8098 154.714 52.8098ZM40.1242 49.6519C35.6762 49.6519 32.0703 53.2577 32.0703 57.7057V126.533H162.768V57.7057C162.768 53.2577 159.162 49.6519 154.714 49.6519H40.1242Z" fill="#262939"/>
<g filter="url(#filter0_d_48665_67404)">
<mask id="path-51-inside-1_48665_67404" fill="white">
<path d="M144.952 75.9126C141.1 75.9126 137.978 79.035 137.978 82.8867V92.0392H137.324V98.4685H137.978V99.4498H137.324V105.879H137.978V153.5C137.978 157.352 141.1 160.474 144.952 160.474H171.912C175.764 160.474 178.887 157.352 178.887 153.5V98.5775H179.431V92.1482H178.887V82.8867C178.887 79.035 175.764 75.9126 171.912 75.9126H144.952Z"/>
</mask>
<g filter="url(#filter1_ii_48665_67404)">
<path d="M144.952 75.9126C141.1 75.9126 137.978 79.035 137.978 82.8867V92.0392H137.324V98.4685H137.978V99.4498H137.324V105.879H137.978V153.5C137.978 157.352 141.1 160.474 144.952 160.474H171.912C175.764 160.474 178.887 157.352 178.887 153.5V98.5775H179.431V92.1482H178.887V82.8867C178.887 79.035 175.764 75.9126 171.912 75.9126H144.952Z" fill="#262939"/>
</g>
<path d="M137.978 92.0392V94.7557H140.694V92.0392H137.978ZM137.324 92.0392V89.3228H134.608V92.0392H137.324ZM137.324 98.4685H134.608V101.185H137.324V98.4685ZM137.978 98.4685H140.694V95.7521H137.978V98.4685ZM137.978 99.4498V102.166H140.694V99.4498H137.978ZM137.324 99.4498V96.7333H134.608V99.4498H137.324ZM137.324 105.879H134.608V108.596H137.324V105.879ZM137.978 105.879H140.694V103.163H137.978V105.879ZM178.887 98.5775V95.861H176.17V98.5775H178.887ZM179.431 98.5775V101.294H182.147V98.5775H179.431ZM179.431 92.1482H182.147V89.4317H179.431V92.1482ZM178.887 92.1482H176.17V94.8647H178.887V92.1482ZM140.694 82.8867C140.694 80.5353 142.601 78.6291 144.952 78.6291V73.1961C139.6 73.1961 135.262 77.5348 135.262 82.8867H140.694ZM140.694 92.0392V82.8867H135.262V92.0392H140.694ZM137.324 94.7557H137.978V89.3228H137.324V94.7557ZM140.041 98.4685V92.0392H134.608V98.4685H140.041ZM137.978 95.7521H137.324V101.185H137.978V95.7521ZM140.694 99.4498V98.4685H135.262V99.4498H140.694ZM137.978 96.7333H137.324V102.166H137.978V96.7333ZM134.608 99.4498V105.879H140.041V99.4498H134.608ZM137.324 108.596H137.978V103.163H137.324V108.596ZM140.694 153.5V105.879H135.262V153.5H140.694ZM144.952 157.758C142.601 157.758 140.694 155.851 140.694 153.5H135.262C135.262 158.852 139.6 163.191 144.952 163.191V157.758ZM171.912 157.758H144.952V163.191H171.912V157.758ZM176.17 153.5C176.17 155.851 174.264 157.758 171.912 157.758V163.191C177.264 163.191 181.603 158.852 181.603 153.5H176.17ZM176.17 98.5775V153.5H181.603V98.5775H176.17ZM179.431 95.861H178.887V101.294H179.431V95.861ZM176.714 92.1482V98.5775H182.147V92.1482H176.714ZM178.887 94.8647H179.431V89.4317H178.887V94.8647ZM176.17 82.8867V92.1482H181.603V82.8867H176.17ZM171.912 78.6291C174.264 78.6291 176.17 80.5353 176.17 82.8867H181.603C181.603 77.5348 177.264 73.1961 171.912 73.1961V78.6291ZM144.952 78.6291H171.912V73.1961H144.952V78.6291Z" fill="#262939" mask="url(#path-51-inside-1_48665_67404)"/>
<g clip-path="url(#clip1_48665_67404)">
<rect x="139.434" y="77.0186" width="38.2211" height="81.4737" rx="6.11205" fill="#F9FAFF"/>
<g filter="url(#filter2_d_48665_67404)">
<path d="M139.441 77.0161H178.169V83.901H139.441V77.0161Z" fill="white"/>
</g>
<path d="M141.891 134.731C141.891 133.698 142.728 132.86 143.762 132.86H173.703C174.737 132.86 175.575 133.698 175.575 134.731V157.304C175.575 158.338 174.737 159.176 173.703 159.176H143.762C142.728 159.176 141.891 158.338 141.891 157.304V134.731Z" fill="white"/>
</g>
<rect x="153.969" y="124.903" width="8.65263" height="1.70697" rx="0.853484" fill="#B7BCCA"/>
<rect x="148.707" y="120.39" width="19.1813" height="1.70697" rx="0.853484" fill="#B7BCCA"/>
<rect x="141.777" y="103.517" width="33.4503" height="6.08186" rx="1.87134" fill="#A05BB6"/>
<rect x="141.777" y="111.002" width="33.4503" height="6.08186" rx="1.87134" fill="#0C419A"/>
<rect x="149.848" y="96.397" width="18.2077" height="1.70697" rx="0.853484" fill="#B7BCCA"/>
<rect x="152.121" y="88.3115" width="13.6557" height="2.27596" rx="1.13798" fill="#E11A81"/>
<rect x="154.398" y="92.8701" width="9.10383" height="1.70697" rx="0.853484" fill="#B7BCCA"/>
<path d="M112.82 61.68L112.862 61.6187H112.723L112.682 61.68H112.453V62.5107H112.968V62.405H112.561V62.0596H112.97V61.954H112.561V61.7857H112.97V61.68H112.82Z" fill="#E11A81"/>
<path d="M111.719 61.7858H111.991V62.5109H112.102V61.7858H112.381V61.6802H111.719V61.7858Z" fill="#E11A81"/>
<path d="M111.36 61.6587C111.167 61.6587 111.004 61.8263 111.004 62.0244V62.5109H111.112V62.0244C111.112 61.8795 111.221 61.7662 111.359 61.7662C111.499 61.7662 111.6 61.8789 111.6 62.0339V62.5109H111.709V62.0339C111.71 61.827 111.553 61.6587 111.36 61.6587Z" fill="#E11A81"/>
<path d="M110.528 61.6587C110.335 61.6587 110.172 61.8263 110.172 62.0244V62.5109H110.28V62.1965H110.768V62.5109H110.878V62.0339C110.878 61.827 110.72 61.6587 110.528 61.6587ZM110.768 62.0914H110.28V62.0244C110.28 61.8795 110.388 61.7662 110.527 61.7662C110.667 61.7662 110.768 61.8789 110.768 62.0339V62.0914H110.768Z" fill="#E11A81"/>
<path d="M110.06 62.2581C110.06 62.1366 109.992 62.0468 109.858 61.9917C109.707 61.9272 109.695 61.9044 109.695 61.8525C109.695 61.8152 109.71 61.7703 109.783 61.7703C109.843 61.7703 109.868 61.7931 109.878 61.8551L109.882 61.8854L109.988 61.8658L109.983 61.8367C109.963 61.726 109.891 61.6621 109.785 61.6621C109.669 61.6621 109.588 61.7437 109.588 61.8608C109.588 61.9164 109.608 61.9677 109.645 62.005C109.676 62.0354 109.708 62.0537 109.784 62.0892C109.851 62.1189 109.881 62.136 109.906 62.1594C109.936 62.1904 109.951 62.2258 109.951 62.2682C109.951 62.3587 109.881 62.4264 109.787 62.4264C109.695 62.4264 109.626 62.3669 109.626 62.2884V62.198H109.52V62.2891C109.52 62.4226 109.641 62.5352 109.785 62.5352C109.937 62.5352 110.06 62.4112 110.06 62.2581Z" fill="#E11A81"/>
<path d="M112.718 61.4122H112.311V61.0661H112.721V60.9605H112.311V60.7922H112.718V60.6865H112.203V61.5178H112.718V61.4122Z" fill="#E11A81"/>
<path d="M110.934 60.6655C110.741 60.6655 110.578 60.8332 110.578 61.0312V61.5177H110.686V61.2033H111.174V61.5177H111.284V61.0407C111.284 60.8338 111.127 60.6655 110.934 60.6655ZM110.686 61.0989V61.0318C110.686 60.887 110.795 60.7737 110.933 60.7737C111.073 60.7737 111.174 60.8863 111.174 61.0413V61.0989H110.686Z" fill="#E11A81"/>
<path d="M112.026 61.3414C111.928 61.4117 111.874 61.4344 111.799 61.4344C111.657 61.4344 111.54 61.3452 111.496 61.2181C111.495 61.2136 111.493 61.2098 111.492 61.2054V61.2048C111.483 61.1744 111.478 61.1415 111.478 61.108C111.478 61.0738 111.483 61.0415 111.492 61.0112V61.0105C111.493 61.0061 111.495 61.0017 111.496 60.9973C111.54 60.8701 111.657 60.7815 111.799 60.7815C111.874 60.7815 111.929 60.8043 112.026 60.8745L112.051 60.8922L112.11 60.803L112.087 60.786C111.974 60.7037 111.896 60.6733 111.798 60.6733C111.797 60.6733 111.797 60.6733 111.797 60.6733C111.684 60.6733 111.578 60.7189 111.496 60.8018C111.415 60.884 111.371 60.9928 111.371 61.1067C111.371 61.1073 111.371 61.108 111.371 61.1086C111.371 61.1092 111.371 61.1099 111.371 61.1105C111.371 61.2244 111.416 61.3326 111.496 61.4155C111.578 61.4983 111.684 61.5439 111.797 61.5439C111.797 61.5439 111.797 61.5439 111.798 61.5439C111.896 61.5439 111.974 61.5135 112.087 61.4313L112.11 61.4142L112.051 61.325L112.026 61.3414Z" fill="#E11A81"/>
<path d="M110.027 61.2725H110.22C110.371 61.2725 110.514 61.1327 110.514 60.9847C110.514 60.9151 110.477 60.8322 110.422 60.7778C110.395 60.7518 110.363 60.731 110.326 60.7151C110.284 60.6955 110.245 60.686 110.21 60.686H109.918V61.5174H110.026V61.2725H110.027ZM110.027 60.7923H110.208C110.32 60.7923 110.405 60.8746 110.405 60.984C110.405 61.0884 110.325 61.1669 110.218 61.1669H110.027V60.7923Z" fill="#E11A81"/>
<path d="M109.807 61.2659C109.807 61.1444 109.739 61.0546 109.604 60.9995C109.453 60.935 109.441 60.9122 109.441 60.8604C109.441 60.823 109.456 60.7781 109.529 60.7781C109.589 60.7781 109.614 60.8009 109.624 60.8629L109.628 60.8933L109.734 60.8736L109.729 60.8445C109.71 60.7338 109.637 60.6699 109.531 60.6699C109.415 60.6699 109.334 60.7515 109.334 60.8686C109.334 60.9243 109.354 60.9755 109.392 61.0128C109.422 61.0432 109.454 61.0615 109.53 61.097C109.597 61.1267 109.627 61.1438 109.652 61.1672C109.682 61.1982 109.698 61.2336 109.698 61.276C109.698 61.3665 109.627 61.4342 109.533 61.4342C109.441 61.4342 109.372 61.3747 109.372 61.2963V61.2058H109.266V61.2963C109.266 61.4297 109.387 61.5424 109.531 61.5424C109.682 61.543 109.807 61.4184 109.807 61.2659Z" fill="#E11A81"/>
<path d="M108.776 60.7922H109.183V60.6865H108.668V61.5178H109.183V61.4122H108.776V61.0661H109.186V60.9605H108.776V60.7922Z" fill="#E11A81"/>
<path d="M112.968 60.6657C112.968 60.543 112.869 60.4424 112.746 60.4424L111.27 60.4398V60.0666C111.27 59.8597 111.053 59.6914 110.86 59.6914C110.667 59.6914 110.504 59.8591 110.504 60.0571V60.5436H110.612V60.0571C110.612 59.9122 110.721 59.799 110.859 59.799C110.999 59.799 111.159 59.9116 111.159 60.0666V60.5461L112.746 60.5449C112.809 60.5449 112.859 60.6018 112.859 60.6657V61.5179H112.967V60.6657H112.968Z" fill="#0C419A"/>
<path d="M109.981 60.5712C110.095 60.5712 110.203 60.525 110.285 60.4422C110.367 60.3593 110.411 60.2498 110.411 60.1341C110.411 60.0195 110.366 59.9114 110.284 59.8291C110.202 59.7462 110.093 59.7007 109.978 59.7007C109.745 59.7007 109.547 59.9012 109.547 60.1385C109.548 60.3726 109.746 60.5712 109.981 60.5712ZM109.979 59.8082C110.162 59.8082 110.306 59.9518 110.306 60.1347C110.306 60.3194 110.163 60.4643 109.982 60.4643C109.799 60.4643 109.655 60.3207 109.655 60.1379C109.655 59.9531 109.797 59.8082 109.979 59.8082Z" fill="#0C419A"/>
<path d="M108.627 62.4057C108.564 62.4057 108.514 62.3519 108.514 62.288V59.9731C108.514 59.8719 108.583 59.801 108.68 59.801C108.79 59.801 108.872 59.882 108.872 59.9895V60.545H108.982V59.9889C108.982 59.9212 108.993 59.8896 109.03 59.8535C109.067 59.8187 109.115 59.7997 109.166 59.7997C109.268 59.7997 109.344 59.8813 109.344 59.9889V60.545H109.453V59.9794C109.453 59.8257 109.319 59.6909 109.168 59.6909C109.093 59.6909 109.015 59.7238 108.96 59.7782C108.945 59.7921 108.935 59.8042 108.925 59.82C108.917 59.8086 108.909 59.7991 108.897 59.7871L108.896 59.7858C108.869 59.7599 108.839 59.7377 108.809 59.7219L108.807 59.7213C108.77 59.7042 108.727 59.6953 108.683 59.6953C108.525 59.6953 108.406 59.8225 108.406 59.9914V61.339V62.2893C108.406 62.412 108.506 62.5126 108.629 62.5126H109.453V62.4069L108.627 62.4057Z" fill="#0C419A"/>
<rect x="151.133" y="136.031" width="14.9321" height="14.9321" rx="1.75672" fill="#E7ECFA"/>
<rect x="147.859" y="155.213" width="20.8187" height="2.27596" rx="1.13798" fill="#0C419A"/>
</g>
</g>
<defs>
<filter id="filter0_d_48665_67404" x="108.402" y="59.473" width="77.5656" height="107.321" filterUnits="userSpaceOnUse" color-interpolation-filters="sRGB">
<feFlood flood-opacity="0" result="BackgroundImageFix"/>
<feColorMatrix in="SourceAlpha" type="matrix" values="0 0 0 0 0 0 0 0 0 0 0 0 0 0 0 0 0 0 127 0" result="hardAlpha"/>
<feOffset dx="3.26913" dy="3.05119"/>
<feGaussianBlur stdDeviation="1.63456"/>
<feColorMatrix type="matrix" values="0 0 0 0 0.0470588 0 0 0 0 0.254902 0 0 0 0 0.603922 0 0 0 0.05 0"/>
<feBlend mode="normal" in2="BackgroundImageFix" result="effect1_dropShadow_48665_67404"/>
<feBlend mode="normal" in="SourceGraphic" in2="effect1_dropShadow_48665_67404" result="shape"/>
</filter>
<filter id="filter1_ii_48665_67404" x="137.324" y="75.8036" width="42.1055" height="84.7795" filterUnits="userSpaceOnUse" color-interpolation-filters="sRGB">
<feFlood flood-opacity="0" result="BackgroundImageFix"/>
<feBlend mode="normal" in="SourceGraphic" in2="BackgroundImageFix" result="shape"/>
<feColorMatrix in="SourceAlpha" type="matrix" values="0 0 0 0 0 0 0 0 0 0 0 0 0 0 0 0 0 0 127 0" result="hardAlpha"/>
<feOffset dy="0.108971"/>
<feGaussianBlur stdDeviation="0.217942"/>
<feComposite in2="hardAlpha" operator="arithmetic" k2="-1" k3="1"/>
<feColorMatrix type="matrix" values="0 0 0 0 1 0 0 0 0 1 0 0 0 0 1 0 0 0 0.2 0"/>
<feBlend mode="normal" in2="shape" result="effect1_innerShadow_48665_67404"/>
<feColorMatrix in="SourceAlpha" type="matrix" values="0 0 0 0 0 0 0 0 0 0 0 0 0 0 0 0 0 0 127 0" result="hardAlpha"/>
<feOffset dy="-0.108971"/>
<feGaussianBlur stdDeviation="0.217942"/>
<feComposite in2="hardAlpha" operator="arithmetic" k2="-1" k3="1"/>
<feColorMatrix type="matrix" values="0 0 0 0 1 0 0 0 0 1 0 0 0 0 1 0 0 0 0.6 0"/>
<feBlend mode="normal" in2="effect1_innerShadow_48665_67404" result="effect2_innerShadow_48665_67404"/>
</filter>
<filter id="filter2_d_48665_67404" x="135.999" y="75.2949" width="45.6115" height="13.7697" filterUnits="userSpaceOnUse" color-interpolation-filters="sRGB">
<feFlood flood-opacity="0" result="BackgroundImageFix"/>
<feColorMatrix in="SourceAlpha" type="matrix" values="0 0 0 0 0 0 0 0 0 0 0 0 0 0 0 0 0 0 127 0" result="hardAlpha"/>
<feOffset dy="1.72123"/>
<feGaussianBlur stdDeviation="1.72123"/>
<feColorMatrix type="matrix" values="0 0 0 0 0.905882 0 0 0 0 0.92549 0 0 0 0 0.980392 0 0 0 0.5 0"/>
<feBlend mode="normal" in2="BackgroundImageFix" result="effect1_dropShadow_48665_67404"/>
<feBlend mode="normal" in="SourceGraphic" in2="effect1_dropShadow_48665_67404" result="shape"/>
</filter>
<clipPath id="clip0_48665_67404">
<rect width="160" height="160" fill="white" transform="translate(0.488281 0.177734)"/>
</clipPath>
<clipPath id="clip1_48665_67404">
<rect x="139.434" y="77.0186" width="38.2211" height="81.4737" rx="6.11205" fill="white"/>
</clipPath>
</defs>
</svg>
