<svg width="200" height="200" viewBox="0 0 200 200" fill="none" xmlns="http://www.w3.org/2000/svg">
<path d="M162.561 129.348C143.58 141.54 120.389 148.965 98.2118 150.413C54.6467 153.256 15.5399 117.958 10.6845 74.0809C8.40099 53.4373 16.0009 31.0757 33.4529 19.2023C46.3674 10.4139 62.0458 10.9921 75.7768 17.0398C87.3577 22.141 96.7728 30.9008 107.835 36.8992C124.747 46.0709 143.387 45.6211 161.213 51.381C170.985 54.5383 181.662 60.8988 186.399 70.5594C190.897 79.7295 190.876 91.0057 187.324 100.599C182.84 112.707 173.363 122.41 162.561 129.348Z" fill="#A0B2EC" fill-opacity="0.16"/>
<path d="M162.624 83.3081C156.544 75.8147 146.804 71.5795 136.805 70.7143C130.457 70.1655 123.799 70.9254 117.997 73.7932C108.484 78.4956 102.641 87.9674 95.2343 95.4665C86.3785 104.434 75.0757 110.708 65.1694 118.58C55.2645 126.451 46.2872 136.95 45.3382 149.055C44.7726 156.248 47.1728 163.35 51.2263 169.203C59.1237 180.607 73.1656 187.299 87.6196 188.083C128.51 190.3 165.837 152.529 169.904 114.732C171.092 103.691 169.584 91.886 162.624 83.3081Z" fill="#A0B2EC" fill-opacity="0.16"/>
<path d="M77.2305 138.862H105.022L104.007 148.852H78.3404L77.2305 138.862Z" fill="#BDCCF8"/>
<rect x="69.2129" y="148.825" width="43.9943" height="3.17553" rx="1.58776" fill="#BDCCF8"/>
<path d="M105.534 134.422H76.6758L77.2307 138.862H105.022L105.534 134.422Z" fill="#A0B2EC"/>
<path d="M30 120.037H153.989V126.778C153.989 131.003 150.563 134.429 146.338 134.429H37.6512C33.4256 134.429 30 131.003 30 126.777V120.037Z" fill="#BDCCF8"/>
<rect x="82" y="126" width="18" height="3" rx="1.5" fill="#A0B2EC"/>
<path d="M33 49H151C151.552 49 152 49.4477 152 50V120H33V49Z" fill="#F9FAFF"/>
<path d="M32 50H152V59H32V50Z" fill="white"/>
<path d="M118.744 93.8545C119.656 93.8545 120.396 94.5946 120.396 95.5075L120.396 114.103C120.396 115.016 119.656 115.756 118.744 115.756L69.7744 115.756C68.8614 115.756 68.1214 115.016 68.1214 114.103L68.1214 95.5075C68.1214 94.5946 68.8614 93.8545 69.7744 93.8545L118.744 93.8545Z" fill="white"/>
<rect x="102.834" y="98.1934" width="13.1896" height="13.1896" rx="1.55172" fill="#E7ECFA"/>
<rect x="72" y="108" width="17" height="1.5" rx="0.75" fill="#B7BCCA"/>
<rect x="72" y="104.325" width="25.8276" height="1.5" rx="0.75" fill="#B7BCCA"/>
<path d="M151.156 93.8545C152.069 93.8545 152.809 94.5946 152.809 95.5075L152.809 114.103C152.809 115.016 152.069 115.756 151.156 115.756L126.186 115.756C125.274 115.756 124.533 115.016 124.533 114.103L124.533 95.5075C124.533 94.5946 125.274 93.8545 126.186 93.8545L151.156 93.8545Z" fill="white"/>
<rect x="128.666" y="106.393" width="25.8276" height="1.5" rx="0.75" fill="#B7BCCA"/>
<path d="M62.347 94C63.2599 94 64 94.7401 64 95.653L64 114.347C64 115.26 63.2599 116 62.347 116L36.153 116C35.2401 116 34.5 115.26 34.5 114.347L34.5 95.653C34.5 94.7401 35.2401 94 36.153 94L62.347 94Z" fill="white"/>
<rect x="46.4297" y="98.1934" width="13.1896" height="13.1896" rx="1.55172" fill="#F6EFF8"/>
<path d="M33.999 104.325H40.9272C41.3414 104.325 41.6772 104.661 41.6772 105.075V105.075C41.6772 105.489 41.3414 105.825 40.9272 105.825H33.999V104.325Z" fill="#B7BCCA"/>
<rect x="97.0508" y="63.4795" width="55.3744" height="21.6952" rx="3.30593" fill="#E7ECFA"/>
<rect x="52.5625" y="55.0342" width="9.29794" height="2" rx="1" fill="#0C419A"/>
<rect x="65.8613" y="55.0342" width="9.29794" height="2" rx="1" fill="#B7BCCA"/>
<rect x="79.1602" y="55.0342" width="9.29794" height="2" rx="1" fill="#B7BCCA"/>
<rect x="92.459" y="55.0342" width="9.29794" height="2" rx="1" fill="#B7BCCA"/>
<rect x="140.797" y="55.0342" width="6.19863" height="0.774828" rx="0.387414" fill="#B7BCCA"/>
<path d="M43.6012 56.0123L43.6557 55.9303H43.4751L43.4231 56.0123H43.127V57.1218H43.7924V56.9807H43.2669V56.5193H43.7948V56.3782H43.2669V56.1534H43.7948V56.0123H43.6012Z" fill="#E11A81"/>
<path d="M42.1758 56.1533H42.528V57.1217H42.6712V56.1533H43.0316V56.0122H42.1758V56.1533Z" fill="#E11A81"/>
<path d="M41.717 55.9835C41.468 55.9835 41.2573 56.2075 41.2573 56.4719V57.1218H41.3972V56.4719C41.3972 56.2784 41.5372 56.1272 41.7161 56.1272C41.8967 56.1272 42.0269 56.2776 42.0269 56.4846V57.1218H42.1685V56.4846C42.1701 56.2083 41.9667 55.9835 41.717 55.9835Z" fill="#E11A81"/>
<path d="M40.6376 55.9835C40.3887 55.9835 40.178 56.2075 40.178 56.4719V57.1218H40.3179V56.7018H40.9484V57.1218H41.0899V56.4846C41.0899 56.2083 40.8865 55.9835 40.6376 55.9835ZM40.9484 56.5615H40.3179V56.4719C40.3179 56.2784 40.4578 56.1272 40.6368 56.1272C40.8174 56.1272 40.9476 56.2776 40.9476 56.4846V56.5615H40.9484Z" fill="#E11A81"/>
<path d="M40.0355 56.7846C40.0355 56.6224 39.9476 56.5024 39.7743 56.4288C39.5791 56.3427 39.5628 56.3122 39.5628 56.2429C39.5628 56.1931 39.5824 56.1331 39.6775 56.1331C39.754 56.1331 39.7874 56.1635 39.7996 56.2463L39.8053 56.2869L39.9419 56.2607L39.9354 56.2218C39.9102 56.0739 39.8166 55.9886 39.6792 55.9886C39.5295 55.9886 39.4245 56.0976 39.4245 56.2539C39.4245 56.3283 39.4514 56.3967 39.4994 56.4466C39.5392 56.4872 39.5799 56.5117 39.6783 56.559C39.7654 56.5987 39.8036 56.6215 39.8362 56.6528C39.8752 56.6942 39.8947 56.7415 39.8947 56.7981C39.8947 56.919 39.8036 57.0094 39.6824 57.0094C39.5636 57.0094 39.4742 56.9299 39.4742 56.8252V56.7043H39.3367V56.826C39.3367 57.0043 39.4937 57.1547 39.6792 57.1547C39.876 57.1547 40.0355 56.9891 40.0355 56.7846Z" fill="#E11A81"/>
<path d="M43.4743 55.6548H42.9488V55.1926H43.4775V55.0514H42.9488V54.8267H43.4743V54.6855H42.8088V55.7959H43.4743V55.6548Z" fill="#E11A81"/>
<path d="M41.172 54.6568C40.9231 54.6568 40.7124 54.8807 40.7124 55.1452V55.7951H40.8523V55.3751H41.4828V55.7951H41.6244V55.1579C41.6244 54.8816 41.4218 54.6568 41.172 54.6568ZM40.8523 55.2356V55.1461C40.8523 54.9526 40.9923 54.8013 41.1712 54.8013C41.3518 54.8013 41.482 54.9517 41.482 55.1587V55.2356H40.8523Z" fill="#E11A81"/>
<path d="M42.5785 55.5593C42.4524 55.6531 42.3816 55.6835 42.2848 55.6835C42.1018 55.6835 41.9504 55.5644 41.8943 55.3945C41.8927 55.3886 41.8902 55.3835 41.8886 55.3776V55.3768C41.8772 55.3362 41.8707 55.2923 41.8707 55.2475C41.8707 55.2018 41.8772 55.1587 41.8886 55.1182V55.1173C41.8902 55.1114 41.8927 55.1055 41.8943 55.0996C41.9504 54.9297 42.1018 54.8114 42.2848 54.8114C42.3816 54.8114 42.4532 54.8419 42.5785 54.9356L42.6102 54.9593L42.6875 54.8402L42.6574 54.8173C42.5118 54.7075 42.4109 54.6669 42.284 54.6669C42.2832 54.6669 42.2832 54.6669 42.2824 54.6669C42.1367 54.6669 41.9993 54.7278 41.8943 54.8385C41.7894 54.9483 41.7324 55.0937 41.7324 55.2458C41.7324 55.2466 41.7324 55.2475 41.7324 55.2483C41.7324 55.2492 41.7324 55.25 41.7324 55.2508C41.7324 55.403 41.7902 55.5474 41.8943 55.6581C41.9993 55.7688 42.1367 55.8297 42.2824 55.8297C42.2832 55.8297 42.2832 55.8297 42.284 55.8297C42.4109 55.8297 42.5118 55.7891 42.6574 55.6793L42.6875 55.6565L42.6102 55.5373L42.5785 55.5593Z" fill="#E11A81"/>
<path d="M39.9965 55.468H40.2454C40.4414 55.468 40.6261 55.2813 40.6261 55.0835C40.6261 54.9906 40.5781 54.8799 40.5065 54.8072C40.4715 54.7726 40.4301 54.7447 40.3829 54.7236C40.3284 54.6974 40.2779 54.6847 40.2324 54.6847H39.8557V55.7951H39.9956V55.468H39.9965ZM39.9965 54.8267H40.2307C40.3755 54.8267 40.4854 54.9365 40.4854 55.0827C40.4854 55.2221 40.3812 55.3269 40.2429 55.3269H39.9965V54.8267Z" fill="#E11A81"/>
<path d="M39.7125 55.4587C39.7125 55.2965 39.6246 55.1765 39.4513 55.103C39.2561 55.0168 39.2398 54.9864 39.2398 54.9171C39.2398 54.8672 39.2594 54.8072 39.3545 54.8072C39.431 54.8072 39.4644 54.8376 39.4766 54.9205L39.4823 54.961L39.6189 54.9348L39.6124 54.8959C39.5872 54.7481 39.4936 54.6627 39.3562 54.6627C39.2065 54.6627 39.1015 54.7717 39.1015 54.9281C39.1015 55.0024 39.1284 55.0709 39.1764 55.1207C39.2162 55.1613 39.2569 55.1858 39.3553 55.2331C39.4424 55.2728 39.4806 55.2956 39.5132 55.3269C39.5522 55.3683 39.5717 55.4156 39.5717 55.4723C39.5717 55.5931 39.4806 55.6835 39.3594 55.6835C39.2406 55.6835 39.1512 55.6041 39.1512 55.4993V55.3785H39.0137V55.4993C39.0137 55.6776 39.1707 55.828 39.3562 55.828C39.5522 55.8289 39.7125 55.6624 39.7125 55.4587Z" fill="#E11A81"/>
<path d="M38.3826 54.8267H38.9081V54.6855H38.2427V55.7959H38.9081V55.6548H38.3826V55.1926H38.9114V55.0514H38.3826V54.8267Z" fill="#E11A81"/>
<path d="M43.794 54.6577C43.794 54.4937 43.6654 54.3594 43.5068 54.3594L41.5991 54.356V53.8574C41.5991 53.5811 41.3192 53.3563 41.0695 53.3563C40.8206 53.3563 40.6099 53.5803 40.6099 53.8447V54.4946H40.7498V53.8447C40.7498 53.6512 40.8897 53.5 41.0687 53.5C41.2493 53.5 41.4567 53.6504 41.4567 53.8574V54.498L43.506 54.4963C43.5881 54.4963 43.6524 54.5723 43.6524 54.6577V55.7959H43.7923V54.6577H43.794Z" fill="#0C419A"/>
<path d="M39.9314 54.5309C40.0787 54.5309 40.2178 54.4692 40.3236 54.3585C40.4293 54.2478 40.4871 54.1016 40.4871 53.947C40.4871 53.7941 40.4285 53.6496 40.3227 53.5397C40.2162 53.429 40.0762 53.3682 39.9274 53.3682C39.6256 53.3682 39.3701 53.636 39.3701 53.9529C39.3709 54.2656 39.628 54.5309 39.9314 54.5309ZM39.929 53.5118C40.1649 53.5118 40.3504 53.7036 40.3504 53.9479C40.3504 54.1946 40.1665 54.3881 39.9323 54.3881C39.6955 54.3881 39.51 54.1963 39.51 53.9521C39.5092 53.7053 39.6939 53.5118 39.929 53.5118Z" fill="#0C419A"/>
<path d="M38.184 56.9815C38.1018 56.9815 38.0375 56.9097 38.0375 56.8243V53.7324C38.0375 53.5971 38.1262 53.5025 38.2523 53.5025C38.3939 53.5025 38.5004 53.6107 38.5004 53.7543V54.4963H38.642V53.7535C38.642 53.6631 38.6566 53.6208 38.7046 53.5726C38.7518 53.5262 38.8145 53.5008 38.8803 53.5008C39.0113 53.5008 39.1106 53.6098 39.1106 53.7535V54.4963H39.2505V53.7408C39.2505 53.5355 39.078 53.3555 38.882 53.3555C38.786 53.3555 38.6851 53.3994 38.6135 53.4721C38.5948 53.4907 38.5818 53.5067 38.5688 53.5279C38.5582 53.5126 38.5476 53.5 38.533 53.4839L38.5314 53.4822C38.4964 53.4476 38.4573 53.418 38.4183 53.3969L38.4166 53.396C38.3678 53.3732 38.3133 53.3614 38.2564 53.3614C38.0522 53.3614 37.8984 53.5312 37.8984 53.7569V55.5568V56.826C37.8984 56.9899 38.027 57.1243 38.1856 57.1243H39.2505V56.9832L38.184 56.9815Z" fill="#0C419A"/>
<circle cx="138.858" cy="55.423" r="1.16224" fill="#0C419A"/>
<path d="M34.5 99L38 99C38.5523 99 39 99.4477 39 100V100C39 100.552 38.5523 101 38 101H34.5V99Z" fill="#A05BB6"/>
<rect x="72" y="98.7617" width="22.8638" height="2" rx="1" fill="#0C419A"/>
<rect x="128.76" y="98.7617" width="20.9585" height="2" rx="1" fill="#E11A81"/>
<rect x="128.76" y="101.62" width="13.6548" height="2" rx="1" fill="#E11A81"/>
<rect x="40.9473" y="78.4971" width="29.5468" height="5.37214" rx="1.65297" fill="#A05BB6"/>
<rect x="72.0508" y="78.4971" width="29.5468" height="5.37214" rx="1.65297" fill="#0C419A"/>
<rect x="40.8496" y="68.2988" width="25.8276" height="1.5" rx="0.75" fill="#B7BCCA"/>
<rect x="40.8496" y="62.8604" width="12.8105" height="2" rx="1" fill="#E11A81"/>
<rect x="40.8496" y="71.3652" width="14.2568" height="1.5" rx="0.75" fill="#B7BCCA"/>
<path d="M32.2246 50.1289H35.4001V117.5H32.2246V50.1289Z" fill="#0C419A"/>
<path fill-rule="evenodd" clip-rule="evenodd" d="M146.512 50H37.6512C35.0824 50 33 52.0824 33 54.6512V117.037H151.163V54.6512C151.163 52.0824 149.081 50 146.512 50ZM37.6512 47C33.4255 47 30 50.4255 30 54.6512V120.037H154.163V54.6512C154.163 50.4255 150.738 47 146.512 47H37.6512Z" fill="#262939"/>
<mask id="path-51-inside-1_5416_62555" fill="white">
<path fill-rule="evenodd" clip-rule="evenodd" d="M137.247 71.9502C133.587 71.9502 130.621 74.9165 130.621 78.5756V87.2705H130V93.3783H130.621V94.3105H130V100.418H130.621V145.658C130.621 149.317 133.587 152.284 137.247 152.284H162.859C166.518 152.284 169.484 149.317 169.484 145.658V93.4818H170.001V87.374H169.484V78.5756C169.484 74.9165 166.518 71.9502 162.859 71.9502H137.247Z"/>
</mask>
<g filter="url(#filter0_ii_5416_62555)">
<path fill-rule="evenodd" clip-rule="evenodd" d="M137.247 71.9502C133.587 71.9502 130.621 74.9165 130.621 78.5756V87.2705H130V93.3783H130.621V94.3105H130V100.418H130.621V145.658C130.621 149.317 133.587 152.284 137.247 152.284H162.859C166.518 152.284 169.484 149.317 169.484 145.658V93.4818H170.001V87.374H169.484V78.5756C169.484 74.9165 166.518 71.9502 162.859 71.9502H137.247Z" fill="#262939"/>
</g>
<path d="M130.621 87.2705V89.8512H133.202V87.2705H130.621ZM130 87.2705V84.6899H127.419V87.2705H130ZM130 93.3783H127.419V95.959H130V93.3783ZM130.621 93.3783H133.202V90.7977H130.621V93.3783ZM130.621 94.3105V96.8912H133.202V94.3105H130.621ZM130 94.3105V91.7299H127.419V94.3105H130ZM130 100.418H127.419V102.999H130V100.418ZM130.621 100.418H133.202V97.8377H130.621V100.418ZM169.484 93.4818V90.9012H166.904V93.4818H169.484ZM170.001 93.4818V96.0625H172.582V93.4818H170.001ZM170.001 87.374H172.582V84.7934H170.001V87.374ZM169.484 87.374H166.904V89.9547H169.484V87.374ZM133.202 78.5756C133.202 76.3417 135.013 74.5308 137.247 74.5308V69.3696C132.162 69.3696 128.04 73.4912 128.04 78.5756H133.202ZM133.202 87.2705V78.5756H128.04V87.2705H133.202ZM130 89.8512H130.621V84.6899H130V89.8512ZM132.581 93.3783V87.2705H127.419V93.3783H132.581ZM130.621 90.7977H130V95.959H130.621V90.7977ZM133.202 94.3105V93.3783H128.04V94.3105H133.202ZM130.621 91.7299H130V96.8912H130.621V91.7299ZM127.419 94.3105V100.418H132.581V94.3105H127.419ZM130 102.999H130.621V97.8377H130V102.999ZM133.202 145.658V100.418H128.04V145.658H133.202ZM137.247 149.703C135.013 149.703 133.202 147.892 133.202 145.658H128.04C128.04 150.743 132.162 154.864 137.247 154.864V149.703ZM162.859 149.703H137.247V154.864H162.859V149.703ZM166.904 145.658C166.904 147.892 165.093 149.703 162.859 149.703V154.864C167.943 154.864 172.065 150.743 172.065 145.658H166.904ZM166.904 93.4818V145.658H172.065V93.4818H166.904ZM170.001 90.9012H169.484V96.0625H170.001V90.9012ZM167.42 87.374V93.4818H172.582V87.374H167.42ZM169.484 89.9547H170.001V84.7934H169.484V89.9547ZM166.904 78.5756V87.374H172.065V78.5756H166.904ZM162.859 74.5308C165.093 74.5308 166.904 76.3418 166.904 78.5756H172.065C172.065 73.4913 167.943 69.3696 162.859 69.3696V74.5308ZM137.247 74.5308H162.859V69.3696H137.247V74.5308Z" fill="#262939" mask="url(#path-51-inside-1_5416_62555)"/>
<rect x="132" y="73" width="36" height="78" rx="5" fill="white"/>
<g filter="url(#filter1_d_5416_62555)">
<path d="M132 79C132 75.6863 134.686 73 138 73H162C165.314 73 168 75.6863 168 79V79H132V79Z" fill="white"/>
</g>
<rect x="145.811" y="118.49" width="8.22" height="1.62162" rx="0.81081" fill="#B7BCCA"/>
<rect x="140.811" y="114.202" width="18.2222" height="1.62162" rx="0.81081" fill="#B7BCCA"/>
<rect x="134.227" y="98.1729" width="31.7777" height="5.77777" rx="1.77778" fill="#A05BB6"/>
<rect x="134.227" y="105.284" width="31.7777" height="5.77777" rx="1.77778" fill="#0C419A"/>
<rect x="141.891" y="91.4092" width="17.2973" height="1.62162" rx="0.81081" fill="#B7BCCA"/>
<rect x="144.053" y="83.7275" width="12.973" height="2.16216" rx="1.08108" fill="#E11A81"/>
<rect x="146.215" y="88.0586" width="8.64864" height="1.62162" rx="0.81081" fill="#B7BCCA"/>
<path d="M140.41 76.879L140.463 76.8022H140.288L140.238 76.879H139.951V77.9173H140.595V77.7852H140.087V77.3535H140.597V77.2214H140.087V77.011H140.597V76.879H140.41Z" fill="#E11A81"/>
<path d="M139.031 77.011H139.372V77.9173H139.51V77.011H139.859V76.879H139.031V77.011Z" fill="#E11A81"/>
<path d="M138.587 76.8521C138.346 76.8521 138.143 77.0616 138.143 77.3091V77.9173H138.278V77.3091C138.278 77.128 138.413 76.9865 138.586 76.9865C138.761 76.9865 138.887 77.1273 138.887 77.321V77.9173H139.024V77.321C139.026 77.0624 138.829 76.8521 138.587 76.8521Z" fill="#E11A81"/>
<path d="M137.543 76.8521C137.302 76.8521 137.098 77.0616 137.098 77.3091V77.9173H137.233V77.5243H137.843V77.9173H137.98V77.321C137.98 77.0624 137.783 76.8521 137.543 76.8521ZM137.843 77.393H137.233V77.3091C137.233 77.128 137.369 76.9865 137.542 76.9865C137.717 76.9865 137.842 77.1273 137.842 77.321V77.393H137.843Z" fill="#E11A81"/>
<path d="M136.96 77.6018C136.96 77.4499 136.875 77.3376 136.708 77.2688C136.519 77.1882 136.503 77.1597 136.503 77.0949C136.503 77.0482 136.522 76.992 136.614 76.992C136.688 76.992 136.72 77.0205 136.732 77.098L136.738 77.136L136.87 77.1115L136.863 77.0751C136.839 76.9367 136.749 76.8568 136.616 76.8568C136.471 76.8568 136.369 76.9588 136.369 77.1051C136.369 77.1747 136.395 77.2388 136.442 77.2854C136.48 77.3234 136.52 77.3463 136.615 77.3906C136.699 77.4278 136.736 77.4491 136.767 77.4784C136.805 77.5172 136.824 77.5614 136.824 77.6144C136.824 77.7275 136.736 77.8121 136.619 77.8121C136.504 77.8121 136.417 77.7378 136.417 77.6397V77.5266H136.284V77.6405C136.284 77.8074 136.436 77.9482 136.616 77.9482C136.806 77.9482 136.96 77.7932 136.96 77.6018Z" fill="#E11A81"/>
<path d="M140.287 76.5444H139.779V76.1118H140.291V75.9798H139.779V75.7694H140.287V75.6373H139.644V76.6765H140.287V76.5444Z" fill="#E11A81"/>
<path d="M138.06 75.6105C137.819 75.6105 137.615 75.82 137.615 76.0676V76.6757H137.75V76.2827H138.36V76.6757H138.497V76.0794C138.497 75.8208 138.301 75.6105 138.06 75.6105ZM137.75 76.1522V76.0684C137.75 75.8873 137.886 75.7457 138.059 75.7457C138.234 75.7457 138.36 75.8865 138.36 76.0802V76.1522H137.75Z" fill="#E11A81"/>
<path d="M139.421 76.455C139.299 76.5428 139.23 76.5713 139.136 76.5713C138.959 76.5713 138.813 76.4598 138.759 76.3008C138.757 76.2953 138.755 76.2906 138.753 76.285V76.2842C138.742 76.2463 138.736 76.2051 138.736 76.1632C138.736 76.1205 138.742 76.0802 138.753 76.0422V76.0414C138.755 76.0359 138.757 76.0304 138.759 76.0248C138.813 75.8659 138.959 75.7552 139.136 75.7552C139.23 75.7552 139.299 75.7836 139.421 75.8714L139.451 75.8936L139.526 75.7821L139.497 75.7607C139.356 75.6579 139.258 75.6199 139.136 75.6199C139.135 75.6199 139.135 75.6199 139.134 75.6199C138.993 75.6199 138.86 75.6769 138.759 75.7805C138.657 75.8833 138.602 76.0193 138.602 76.1617C138.602 76.1624 138.602 76.1632 138.602 76.164C138.602 76.1648 138.602 76.1656 138.602 76.1664C138.602 76.3087 138.658 76.444 138.759 76.5476C138.86 76.6512 138.993 76.7081 139.134 76.7081C139.135 76.7081 139.135 76.7081 139.136 76.7081C139.258 76.7081 139.356 76.6702 139.497 76.5673L139.526 76.546L139.451 76.4345L139.421 76.455Z" fill="#E11A81"/>
<path d="M136.923 76.3696H137.163C137.353 76.3696 137.532 76.1949 137.532 76.0098C137.532 75.9228 137.485 75.8192 137.416 75.7512C137.382 75.7188 137.342 75.6927 137.296 75.6729C137.244 75.6484 137.195 75.6365 137.151 75.6365H136.786V76.6757H136.922V76.3696H136.923ZM136.923 75.7694H137.149C137.289 75.7694 137.396 75.8722 137.396 76.009C137.396 76.1395 137.295 76.2376 137.161 76.2376H136.923V75.7694Z" fill="#E11A81"/>
<path d="M136.648 76.3609C136.648 76.2091 136.563 76.0968 136.395 76.028C136.206 75.9473 136.19 75.9189 136.19 75.854C136.19 75.8073 136.209 75.7512 136.301 75.7512C136.375 75.7512 136.408 75.7797 136.42 75.8572L136.425 75.8951L136.557 75.8706L136.551 75.8342C136.527 75.6958 136.436 75.616 136.303 75.616C136.158 75.616 136.057 75.718 136.057 75.8643C136.057 75.9339 136.083 75.9979 136.129 76.0446C136.168 76.0826 136.207 76.1055 136.302 76.1498C136.386 76.1869 136.423 76.2083 136.455 76.2376C136.493 76.2763 136.512 76.3206 136.512 76.3736C136.512 76.4867 136.423 76.5713 136.306 76.5713C136.191 76.5713 136.105 76.4969 136.105 76.3989V76.2858H135.972V76.3989C135.972 76.5658 136.124 76.7065 136.303 76.7065C136.493 76.7073 136.648 76.5515 136.648 76.3609Z" fill="#E11A81"/>
<path d="M135.361 75.7694H135.869V75.6373H135.226V76.6765H135.869V76.5444H135.361V76.1118H135.873V75.9798H135.361V75.7694Z" fill="#E11A81"/>
<path d="M140.597 75.6112C140.597 75.4578 140.472 75.3321 140.319 75.3321L138.473 75.3289V74.8623C138.473 74.6037 138.202 74.3934 137.961 74.3934C137.72 74.3934 137.516 74.6029 137.516 74.8505V75.4586H137.651V74.8505C137.651 74.6694 137.787 74.5278 137.96 74.5278C138.135 74.5278 138.335 74.6686 138.335 74.8623V75.4618L140.318 75.4602C140.397 75.4602 140.46 75.5314 140.46 75.6112V76.6765H140.595V75.6112H140.597Z" fill="#0C419A"/>
<path d="M136.859 75.4926C137.002 75.4926 137.137 75.4349 137.239 75.3313C137.341 75.2277 137.397 75.0909 137.397 74.9461C137.397 74.803 137.34 74.6678 137.238 74.565C137.135 74.4614 137 74.4044 136.856 74.4044C136.564 74.4044 136.316 74.6551 136.316 74.9517C136.317 75.2443 136.566 75.4926 136.859 75.4926ZM136.857 74.5389C137.085 74.5389 137.265 74.7184 137.265 74.9469C137.265 75.1778 137.087 75.3589 136.86 75.3589C136.631 75.3589 136.452 75.1794 136.452 74.9509C136.451 74.72 136.63 74.5389 136.857 74.5389Z" fill="#0C419A"/>
<path d="M135.169 77.786C135.089 77.786 135.027 77.7188 135.027 77.6389V74.7453C135.027 74.6188 135.113 74.5302 135.235 74.5302C135.372 74.5302 135.475 74.6314 135.475 74.7658V75.4602H135.612V74.7651C135.612 74.6804 135.626 74.6409 135.673 74.5958C135.718 74.5523 135.779 74.5286 135.843 74.5286C135.969 74.5286 136.065 74.6306 136.065 74.7651V75.4602H136.201V74.7532C136.201 74.561 136.034 74.3926 135.844 74.3926C135.751 74.3926 135.654 74.4337 135.584 74.5017C135.566 74.5191 135.554 74.5341 135.541 74.5539C135.531 74.5397 135.521 74.5278 135.507 74.5128L135.505 74.5112C135.471 74.4788 135.433 74.4511 135.396 74.4313L135.394 74.4305C135.347 74.4092 135.294 74.3981 135.239 74.3981C135.041 74.3981 134.893 74.5571 134.893 74.7682V76.4527V77.6405C134.893 77.7939 135.017 77.9197 135.17 77.9197H136.201V77.7876L135.169 77.786Z" fill="#0C419A"/>
<circle cx="164.371" cy="76.2191" r="1.63516" fill="#0C419A"/>
<rect x="143.113" y="129.062" width="14.1855" height="14.1855" rx="1.66889" fill="#E7ECFA"/>
<rect x="140.002" y="147.284" width="19.7778" height="2.16216" rx="1.08108" fill="#0C419A"/>
<defs>
<filter id="filter0_ii_5416_62555" x="130" y="71.8467" width="40.001" height="80.5405" filterUnits="userSpaceOnUse" color-interpolation-filters="sRGB">
<feFlood flood-opacity="0" result="BackgroundImageFix"/>
<feBlend mode="normal" in="SourceGraphic" in2="BackgroundImageFix" result="shape"/>
<feColorMatrix in="SourceAlpha" type="matrix" values="0 0 0 0 0 0 0 0 0 0 0 0 0 0 0 0 0 0 127 0" result="hardAlpha"/>
<feOffset dy="0.103522"/>
<feGaussianBlur stdDeviation="0.207045"/>
<feComposite in2="hardAlpha" operator="arithmetic" k2="-1" k3="1"/>
<feColorMatrix type="matrix" values="0 0 0 0 1 0 0 0 0 1 0 0 0 0 1 0 0 0 0.2 0"/>
<feBlend mode="normal" in2="shape" result="effect1_innerShadow_5416_62555"/>
<feColorMatrix in="SourceAlpha" type="matrix" values="0 0 0 0 0 0 0 0 0 0 0 0 0 0 0 0 0 0 127 0" result="hardAlpha"/>
<feOffset dy="-0.103522"/>
<feGaussianBlur stdDeviation="0.207045"/>
<feComposite in2="hardAlpha" operator="arithmetic" k2="-1" k3="1"/>
<feColorMatrix type="matrix" values="0 0 0 0 1 0 0 0 0 1 0 0 0 0 1 0 0 0 0.6 0"/>
<feBlend mode="normal" in2="effect1_innerShadow_5416_62555" result="effect2_innerShadow_5416_62555"/>
</filter>
<filter id="filter1_d_5416_62555" x="128.73" y="71.3648" width="42.5407" height="12.5407" filterUnits="userSpaceOnUse" color-interpolation-filters="sRGB">
<feFlood flood-opacity="0" result="BackgroundImageFix"/>
<feColorMatrix in="SourceAlpha" type="matrix" values="0 0 0 0 0 0 0 0 0 0 0 0 0 0 0 0 0 0 127 0" result="hardAlpha"/>
<feOffset dy="1.63516"/>
<feGaussianBlur stdDeviation="1.63516"/>
<feColorMatrix type="matrix" values="0 0 0 0 0.905882 0 0 0 0 0.92549 0 0 0 0 0.980392 0 0 0 0.5 0"/>
<feBlend mode="normal" in2="BackgroundImageFix" result="effect1_dropShadow_5416_62555"/>
<feBlend mode="normal" in="SourceGraphic" in2="effect1_dropShadow_5416_62555" result="shape"/>
</filter>
</defs>
</svg>
