<svg width="32" height="32" viewBox="0 0 32 32" fill="none" xmlns="http://www.w3.org/2000/svg">
<g id="MHS">
<rect id="Rectangle 1169" width="32" height="32" rx="16" fill="#5E74B8"/>
<g id="Vector">
<path d="M22.4565 10.9582L23.7063 9.70834C24.0969 9.31778 24.0969 8.68349 23.7063 8.29293C23.3157 7.90236 22.6814 7.90236 22.2909 8.29293L21.0411 9.54274C20.6505 9.93331 20.6505 10.5676 21.0411 10.9582C21.4316 11.3487 22.0659 11.3487 22.4565 10.9582Z" fill="white"/>
<path d="M9.70834 23.7063L13.7078 19.7069C14.0983 19.3163 14.0983 18.682 13.7078 18.2915C13.3172 17.9009 12.6829 17.9009 12.2923 18.2915L8.29293 22.2909C7.90236 22.6814 7.90236 23.3157 8.29293 23.7063C8.68349 24.0969 9.31778 24.0969 9.70834 23.7063Z" fill="white"/>
<path d="M12.0236 15.1107C12.2174 13.3641 13.7015 12.0018 15.5012 12.0018C17.4353 12.0018 19.0007 13.5672 19.0007 15.5012C19.0007 16.4167 18.6508 17.2479 18.0759 17.8728C17.5447 18.4477 17.001 19.2819 17.001 20.3099V20.5005C17.001 21.3285 15.8281 22 15.0001 22C14.4471 22 14.0002 22.4468 14.0002 22.9999C14.0002 23.5529 14.4471 23.9997 15.0001 23.9997C16.9342 23.9997 19.0007 22.4346 19.0007 20.5005V20.313C19.0007 20.0037 19.1695 19.635 19.5444 19.2288C20.4474 18.2477 21.0004 16.9385 21.0004 15.5012C21.0004 12.4642 18.5383 10.0021 15.5012 10.0021C12.6704 10.0021 10.3395 12.1424 10.0364 14.892C9.97705 15.4388 10.3739 15.9356 10.9207 15.9949C11.4675 16.0543 11.9643 15.6606 12.0236 15.1107Z" fill="white"/>
</g>
<path id="Vector_2" d="M16.0443 14.7405C15.6152 14.3916 14.9867 14.4565 14.6378 14.8856C14.3757 15.2081 13.9054 15.2566 13.5829 14.9945C13.2604 14.7324 13.2119 14.2621 13.474 13.9396C14.3452 12.868 15.9188 12.7056 16.9904 13.5767C18.062 14.4479 18.2244 16.0214 17.3533 17.0931C17.0911 17.4155 16.6208 17.4641 16.2984 17.2019C15.9759 16.9398 15.9274 16.4695 16.1895 16.147C16.5383 15.7179 16.4735 15.0894 16.0443 14.7405Z" fill="white"/>
</g>
</svg>
