<svg width="200" height="200" viewBox="0 0 200 200" fill="none" xmlns="http://www.w3.org/2000/svg">
<path d="M162.561 129.348C143.58 141.54 120.389 148.965 98.2118 150.413C54.6467 153.256 15.5399 117.958 10.6845 74.0809C8.40099 53.4373 16.0009 31.0757 33.4529 19.2023C46.3674 10.4139 62.0458 10.9921 75.7768 17.0398C87.3577 22.141 96.7728 30.9008 107.835 36.8992C124.747 46.0709 143.387 45.6211 161.213 51.381C170.985 54.5383 181.662 60.8988 186.399 70.5594C190.897 79.7295 190.876 91.0057 187.324 100.599C182.84 112.707 173.363 122.41 162.561 129.348Z" fill="#A0B2EC" fill-opacity="0.16"/>
<path d="M162.624 83.3062C156.544 75.8128 146.804 71.5775 136.805 70.7124C130.457 70.1636 123.799 70.9235 117.997 73.7912C108.484 78.4937 102.641 87.9655 95.2343 95.4645C86.3785 104.432 75.0757 110.706 65.1694 118.578C55.2645 126.449 46.2872 136.948 45.3382 149.053C44.7726 156.246 47.1728 163.348 51.2263 169.201C59.1237 180.605 73.1656 187.298 87.6196 188.081C128.51 190.298 165.837 152.527 169.904 114.73C171.092 103.689 169.584 91.8841 162.624 83.3062Z" fill="#A0B2EC" fill-opacity="0.16"/>
<path d="M103.46 86.4635C104.989 74.2654 105.044 61.9235 108.116 49.9508C109.227 45.6215 110.827 40.9601 114.361 38.0088C118.397 34.6403 125.155 36.0248 129.014 38.9504C131.152 40.569 133.49 37.1469 131.371 35.5383C126.755 32.0377 120.075 30.9336 114.657 33.0463C109.735 34.9674 106.976 40.2561 105.303 44.932C100.608 58.0768 101.038 72.514 99.3201 86.1878C98.9905 88.8406 103.129 89.1082 103.46 86.4635Z" fill="#A0B2EC"/>
<path d="M136.154 33.987C135.571 33.7828 134.972 33.7599 134.407 33.8821C134.227 33.787 134.039 33.6972 133.838 33.6301L130.851 32.5907C128.722 31.8493 126.394 32.9763 125.652 35.105C124.911 37.2338 126.034 39.563 128.167 40.3038L131.154 41.3433C131.355 41.4144 131.554 41.4611 131.759 41.4985C132.126 41.9415 132.609 42.2972 133.192 42.5013C134.887 43.0922 136.737 42.1959 137.328 40.5007L138.155 38.1266C138.742 36.432 137.845 34.5784 136.154 33.987Z" fill="#262939"/>
<path d="M145.873 102.01C152.979 90.3031 161.826 79.4512 166.63 66.4824C168.424 61.6353 169.331 56.1403 167.099 51.2884C164.637 45.9323 157.909 42.5371 152.222 42.4153C149.562 42.3574 149.266 46.4957 151.946 46.5508C156.739 46.6542 162.435 49.5805 163.893 54.4386C165.202 58.8019 163.397 63.6589 161.706 67.6547C156.827 79.1897 148.913 89.022 142.457 99.6579C141.079 101.932 144.487 104.293 145.873 102.01Z" fill="#A0B2EC"/>
<path d="M149.441 38.2312C150.023 38.4354 150.506 38.787 150.873 39.23C151.075 39.2679 151.277 39.3141 151.478 39.3852L154.465 40.4247C156.594 41.1661 157.721 43.4947 156.98 45.6235C156.238 47.7522 153.91 48.8792 151.777 48.1384L148.79 47.0989C148.588 47.0278 148.401 46.942 148.221 46.847C147.66 46.9686 147.057 46.9422 146.479 46.7415C144.783 46.1506 143.891 44.3005 144.478 42.6059L145.305 40.2319C145.896 38.5367 147.745 37.6403 149.441 38.2312Z" fill="#262939"/>
<rect x="75.541" y="57.2695" width="5.19452" height="5.9413" transform="rotate(-40.492 75.541 57.2695)" fill="#A0B2EC"/>
<path d="M78.3702 57.0948C73.2196 61.5139 65.4655 60.9243 61.0483 55.7777C56.6291 50.6271 57.2187 42.8731 62.3654 38.4558C67.512 34.0385 75.27 34.6262 79.6873 39.7729C84.1085 44.9176 83.5189 52.6717 78.3702 57.0948Z" fill="#A0B2EC"/>
<path d="M76.2856 54.6672C72.4773 57.9384 66.7399 57.5022 63.4735 53.6917C60.2023 49.8834 60.6385 44.146 64.4468 40.8748C68.2551 37.6037 73.9925 38.0398 77.2589 41.8504C80.5301 45.6587 80.0939 51.3961 76.2856 54.6672Z" fill="#A0B2EC"/>
<path fill-rule="evenodd" clip-rule="evenodd" d="M65.0365 52.3491L65.0379 52.3506C67.5625 55.2958 71.9978 55.634 74.943 53.1042C77.8883 50.5743 78.2253 46.1377 75.6959 43.193L75.6945 43.1914C73.1699 40.2463 68.7346 39.908 65.7894 42.4379C62.8441 44.9677 62.5071 49.4043 65.0365 52.3491ZM77.2589 41.8504C73.9925 38.0398 68.2551 37.6037 64.4468 40.8748C60.6385 44.146 60.2023 49.8834 63.4735 53.6917C66.7399 57.5022 72.4773 57.9384 76.2856 54.6672C80.0939 51.3961 80.5301 45.6587 77.2589 41.8504Z" fill="#0C419A"/>
<path d="M71.0052 48.5197C70.5922 48.8745 69.967 48.8268 69.6122 48.4138C69.2574 48.0007 69.3032 47.3766 69.7182 47.0208C70.1312 46.666 70.7563 46.7137 71.1111 47.1268C71.464 47.5407 71.4182 48.1649 71.0052 48.5197Z" fill="#0C419A"/>
<path fill-rule="evenodd" clip-rule="evenodd" d="M78.4671 73.1251C80.8016 68.4679 80.455 62.8487 77.3975 59.9716L81.3514 55.77C86.9445 61.0332 86.6214 69.7324 83.6249 75.7105C80.6698 81.6059 75.4687 85.8473 70.9884 89.5007L70.8329 89.6275C58.5807 99.6335 46.6825 109.955 41.3666 123.834C38.7746 130.601 38.4196 138.553 40.3628 145.519C42.3022 152.47 46.4424 158.186 52.6257 160.983C58.0467 163.434 64.503 163.489 70.8384 162.226L70.8409 162.225C89.0182 158.616 104.879 144.194 109.381 126.299L114.976 127.707C109.901 147.881 92.2063 163.865 71.9644 167.884C64.981 169.276 57.1757 169.372 50.2488 166.24L50.2483 166.24C42.1394 162.572 37.0827 155.231 34.8056 147.069C32.5323 138.92 32.9413 129.701 35.9789 121.77C41.9221 106.254 55.0776 95.0454 67.1836 85.1589L67.1851 85.1577C71.8882 81.322 76.1259 77.7961 78.4671 73.1251Z" fill="#0C419A"/>
<path d="M141.273 99.337C137.297 104.762 133.911 110.589 129.53 115.714C125.801 120.071 120.349 124.607 114.249 123.22C98.1627 119.56 105.012 98.8945 104.906 87.5496C104.867 83.5714 98.6629 83.1196 98.699 87.1398C98.7718 94.7762 96.9779 102.283 97.4913 109.944C98.0535 118.327 102.095 125.16 110.047 128.41C125.889 134.881 136.857 116.834 144.21 105.982C144.923 104.936 145.645 103.896 146.394 102.874C148.77 99.6255 143.636 96.1113 141.273 99.337Z" fill="#0C419A"/>
</svg>
