<svg width="160" height="160" viewBox="0 0 160 160" fill="none" xmlns="http://www.w3.org/2000/svg">
<path d="M130.047 103.478C114.862 113.232 96.3099 119.171 78.5678 120.33C43.7158 122.605 12.4303 94.3655 8.54605 59.2641C6.71923 42.7493 12.7992 24.86 26.7608 15.3612C37.0924 8.33057 49.6351 8.7931 60.6199 13.6312C69.8846 17.7122 77.4167 24.72 86.2663 29.5188C99.7958 36.8561 114.708 36.4963 128.968 41.1042C136.786 43.63 145.328 48.7185 149.118 56.4469C152.716 63.783 152.699 72.8039 149.857 80.4785C146.27 90.1649 138.689 97.9273 130.047 103.478Z" fill="#A0B2EC" fill-opacity="0.16"/>
<path d="M130.094 66.6451C125.23 60.6504 117.438 57.2622 109.439 56.5701C104.361 56.1311 99.0347 56.739 94.3926 59.0332C86.7824 62.7951 82.108 70.3726 76.1827 76.3718C69.0981 83.5455 60.0559 88.5649 52.1308 94.8625C44.2069 101.16 37.025 109.559 36.2659 119.242C35.8134 124.997 37.7336 130.679 40.9764 135.361C47.2943 144.484 58.5278 149.838 70.091 150.465C102.804 152.239 132.665 122.022 135.919 91.7839C136.869 82.9514 135.662 73.5075 130.094 66.6451Z" fill="#A0B2EC" fill-opacity="0.16"/>
<g filter="url(#filter0_d_49807_68218)">
<path d="M79.9969 127.201C106.065 127.201 127.197 106.069 127.197 80.0008C127.197 53.9329 106.065 32.8008 79.9969 32.8008C53.929 32.8008 32.7969 53.9329 32.7969 80.0008C32.7969 106.069 53.929 127.201 79.9969 127.201Z" fill="white"/>
</g>
<path d="M79.958 120.726C102.471 120.726 120.721 102.475 120.721 79.9629C120.721 57.4503 102.471 39.2002 79.958 39.2002C57.4454 39.2002 39.1953 57.4503 39.1953 79.9629C39.1953 102.475 57.4454 120.726 79.958 120.726Z" fill="#1E7B6F"/>
<path fill-rule="evenodd" clip-rule="evenodd" d="M90.297 72.6015C89.4977 71.8021 88.2017 71.8021 87.4023 72.6015L76.2687 83.7351L72.2871 79.7535C71.4878 78.9542 70.1918 78.9542 69.3925 79.7535C68.5931 80.5528 68.5931 81.8488 69.3925 82.6481L74.8157 88.0714C75.5397 88.7953 76.671 88.8636 77.4718 88.2762C77.5697 88.208 77.6629 88.1302 77.7502 88.0429L90.297 75.4961C91.0963 74.6968 91.0963 73.4008 90.297 72.6015Z" fill="white"/>
<defs>
<filter id="filter0_d_49807_68218" x="32.7969" y="32.8008" width="94.3984" height="96.5057" filterUnits="userSpaceOnUse" color-interpolation-filters="sRGB">
<feFlood flood-opacity="0" result="BackgroundImageFix"/>
<feColorMatrix in="SourceAlpha" type="matrix" values="0 0 0 0 0 0 0 0 0 0 0 0 0 0 0 0 0 0 127 0" result="hardAlpha"/>
<feOffset dy="2.10526"/>
<feComposite in2="hardAlpha" operator="out"/>
<feColorMatrix type="matrix" values="0 0 0 0 0 0 0 0 0 0 0 0 0 0 0 0 0 0 0.1 0"/>
<feBlend mode="normal" in2="BackgroundImageFix" result="effect1_dropShadow_49807_68218"/>
<feBlend mode="normal" in="SourceGraphic" in2="effect1_dropShadow_49807_68218" result="shape"/>
</filter>
</defs>
</svg>
