<svg width="64" height="64" viewBox="0 0 64 64" fill="none" xmlns="http://www.w3.org/2000/svg">
<path d="M57.9216 37.29C54.4277 43.5588 49.0375 49.1221 43.0345 52.8572C31.242 60.1937 14.975 56.1628 7.02731 44.5849C3.28827 39.1375 2.06347 31.7248 5.17629 25.7749C7.47947 21.3715 11.9638 19.1804 16.7228 18.8157C20.7368 18.5082 24.6923 19.552 28.6954 19.5741C34.8155 19.6081 39.9764 16.684 45.8406 15.6241C49.0554 15.0429 53.005 15.2242 55.7837 17.2228C58.4217 19.1197 60.1083 22.2857 60.5518 25.5096C61.1116 29.5786 59.9099 33.7227 57.9216 37.29Z" fill="#A0B2EC" fill-opacity="0.16"/>
<path fill-rule="evenodd" clip-rule="evenodd" d="M14.056 35.1365C12.2679 27.0181 7.65312 17.5468 13.2729 11.4423C19.0897 5.1238 29.6572 6.37885 37.6377 9.52094C44.1176 12.0722 46.817 19.1114 49.3165 25.6334C51.3265 30.8785 51.8063 36.3443 49.9484 41.6444C47.8826 47.5377 44.81 53.7824 38.836 55.5317C32.781 57.3046 26.6228 53.9186 21.7439 49.903C17.2428 46.1983 15.3126 40.8417 14.056 35.1365Z" fill="#A0B2EC" fill-opacity="0.16"/>
<rect x="16.7646" y="14.8457" width="30.6475" height="39.7283" rx="2.27019" fill="#0C419A"/>
<g filter="url(#filter0_d_8174_80975)">
<rect x="19.3184" y="17.9668" width="25.5396" height="34.0528" rx="2.27019" fill="white"/>
</g>
<g filter="url(#filter1_d_8174_80975)">
<rect x="19.8857" y="16.832" width="24.4045" height="34.0528" rx="2.27019" fill="white"/>
</g>
<g filter="url(#filter2_d_8174_80975)">
<rect x="20.4131" y="15.6973" width="23.3505" height="34.0528" rx="2.27019" fill="white"/>
</g>
<path d="M33.6006 20.591C33.6006 20.0823 34.013 19.6699 34.5216 19.6699H39.8176C40.3263 19.6699 40.7387 20.0823 40.7387 20.591C40.7387 21.0996 40.3263 21.512 39.8176 21.512H34.5216C34.013 21.512 33.6006 21.0996 33.6006 20.591Z" fill="#0C419A"/>
<path d="M33.5996 24.2748C33.5996 23.8933 33.9089 23.584 34.2904 23.584H40.0469C40.4284 23.584 40.7377 23.8933 40.7377 24.2748C40.7377 24.6563 40.4284 24.9656 40.0469 24.9656H34.2904C33.9089 24.9656 33.5996 24.6563 33.5996 24.2748Z" fill="#BDCCF8"/>
<path d="M33.5986 27.7298C33.5986 27.3483 33.9079 27.0391 34.2894 27.0391H35.4407C35.8222 27.0391 36.1315 27.3483 36.1315 27.7298C36.1315 28.1114 35.8222 28.4206 35.4407 28.4206H34.2894C33.9079 28.4206 33.5986 28.1114 33.5986 27.7298Z" fill="#BDCCF8"/>
<path d="M32.2192 24.2751C32.2192 26.8185 30.1574 28.8804 27.614 28.8804C25.0706 28.8804 23.0088 26.8185 23.0088 24.2751C23.0088 21.7318 25.0706 19.6699 27.614 19.6699C30.1574 19.6699 32.2192 21.7318 32.2192 24.2751Z" fill="#F9FAFF"/>
<path d="M26.1316 22.8448C26.1316 22.1086 26.7437 21.5117 27.4988 21.5117C28.2538 21.5117 28.8659 22.1086 28.8659 22.8448C28.8659 23.5811 28.2538 24.1779 27.4988 24.1779C26.7437 24.1779 26.1316 23.5811 26.1316 22.8448ZM27.4988 23.6447C27.9518 23.6447 28.3191 23.2866 28.3191 22.8448C28.3191 22.4031 27.9518 22.045 27.4988 22.045C27.0457 22.045 26.6785 22.4031 26.6785 22.8448C26.6785 23.2866 27.0457 23.6447 27.4988 23.6447Z" fill="#0C419A"/>
<path d="M25.952 25.0692C25.6082 25.4044 25.3907 25.8397 25.3292 26.3048C25.3094 26.4545 25.4337 26.5775 25.5847 26.5775C25.7357 26.5775 25.8557 26.4541 25.882 26.3054C25.9393 25.9821 26.0976 25.6814 26.3387 25.4463C26.6464 25.1463 27.0637 24.9778 27.4988 24.9778C27.9339 24.9778 28.3512 25.1463 28.6589 25.4463C28.9 25.6814 29.0583 25.9821 29.1155 26.3054C29.1418 26.4541 29.2618 26.5775 29.4128 26.5775C29.5638 26.5775 29.6881 26.4545 29.6683 26.3048C29.6068 25.8397 29.3893 25.4044 29.0456 25.0692C28.6353 24.6692 28.0789 24.4445 27.4988 24.4445C26.9186 24.4445 26.3622 24.6692 25.952 25.0692Z" fill="#0C419A"/>
<path d="M23.0078 32.1046C23.0078 31.596 23.4202 31.1836 23.9289 31.1836H24.8499C25.3586 31.1836 25.7709 31.596 25.7709 32.1046C25.7709 32.6133 25.3586 33.0257 24.8499 33.0257H23.9289C23.4202 33.0257 23.0078 32.6133 23.0078 32.1046Z" fill="#0C419A"/>
<path d="M23.0088 35.7882C23.0088 35.2796 23.4212 34.8672 23.9298 34.8672H24.8509C25.3596 34.8672 25.7719 35.2796 25.7719 35.7882C25.7719 36.2969 25.3596 36.7093 24.8509 36.7093H23.9298C23.4212 36.7093 23.0088 36.2969 23.0088 35.7882Z" fill="#0C419A"/>
<path d="M26.9229 32.1029C26.9229 31.7214 27.2321 31.4121 27.6136 31.4121H40.0477C40.4292 31.4121 40.7385 31.7214 40.7385 32.1029C40.7385 32.4844 40.4292 32.7937 40.0477 32.7937H27.6136C27.2321 32.7937 26.9229 32.4844 26.9229 32.1029Z" fill="#BDCCF8"/>
<path d="M26.9219 35.7884C26.9219 35.4069 27.2311 35.0977 27.6127 35.0977H33.3692C33.7507 35.0977 34.06 35.4069 34.06 35.7884C34.06 36.1699 33.7507 36.4792 33.3692 36.4792H27.6127C27.2311 36.4792 26.9219 36.1699 26.9219 35.7884Z" fill="#BDCCF8"/>
<path d="M23.0078 39.5969C23.0078 39.2737 23.2698 39.0117 23.593 39.0117H40.1528C40.4759 39.0117 40.7379 39.2737 40.7379 39.5969V45.1041C40.7379 45.4273 40.4759 45.6893 40.1528 45.6893H23.593C23.2698 45.6893 23.0078 45.4273 23.0078 45.1041V39.5969Z" fill="#F9FAFF"/>
<path fill-rule="evenodd" clip-rule="evenodd" d="M32.4025 40.8776L31.2439 43.1616C31.1556 43.3356 30.977 43.4453 30.7819 43.4453H30.1164L29.7435 44.5311C29.5898 44.9786 28.966 45.0029 28.778 44.5687L27.6274 41.9112L27.0709 43.1408C26.987 43.3262 26.8024 43.4453 26.5989 43.4453H24.8493C24.6904 43.4453 24.5615 43.3164 24.5615 43.1575C24.5615 42.9985 24.6904 42.8697 24.8493 42.8697H26.5618L27.1566 41.5554C27.342 41.1458 27.9254 41.1506 28.104 41.5632L29.2473 44.2037L29.5853 43.2195C29.6572 43.0102 29.8541 42.8697 30.0753 42.8697H30.7465L31.9483 40.5005C32.1522 40.0986 32.7367 40.1307 32.8953 40.5526L34.1129 43.7907L34.3962 43.172C34.4806 42.9878 34.6646 42.8697 34.8673 42.8697H35.8081L36.2821 41.9354C36.474 41.5571 37.0143 41.5571 37.2061 41.9354L37.6801 42.8697H38.8953C39.0542 42.8697 39.1831 42.9985 39.1831 43.1575C39.1831 43.3164 39.0542 43.4453 38.8953 43.4453H37.6447C37.4496 43.4453 37.271 43.3356 37.1827 43.1616L36.7441 42.297L36.3055 43.1616C36.2172 43.3356 36.0386 43.4453 35.8435 43.4453H34.9042L34.5787 44.1561C34.3869 44.5749 33.7848 44.5539 33.6227 44.1227L32.4025 40.8776Z" fill="#0C419A"/>
<path fill-rule="evenodd" clip-rule="evenodd" d="M29.4088 14.0106C29.162 13.5689 29.0214 13.0598 29.0214 12.5179C29.0214 10.8253 30.3935 9.45312 32.0861 9.45312C33.7787 9.45312 35.1509 10.8253 35.1509 12.5179C35.1509 13.0598 35.0102 13.5689 34.7634 14.0106H38.2162C39.0625 14.0106 39.7486 14.6967 39.7486 15.543V17.0754H24.4248V15.543C24.4248 14.6967 25.1109 14.0106 25.9572 14.0106H29.4088ZM30.9294 14.0106C30.4935 13.6595 30.2145 13.1213 30.2145 12.518C30.2145 11.4601 31.0721 10.6025 32.13 10.6025C33.1878 10.6025 34.0454 11.4601 34.0454 12.518C34.0454 13.1213 33.7665 13.6595 33.3305 14.0106H30.9294Z" fill="#F0B323"/>
<defs>
<filter id="filter0_d_8174_80975" x="15.0734" y="15.8443" width="34.03" height="42.5427" filterUnits="userSpaceOnUse" color-interpolation-filters="sRGB">
<feFlood flood-opacity="0" result="BackgroundImageFix"/>
<feColorMatrix in="SourceAlpha" type="matrix" values="0 0 0 0 0 0 0 0 0 0 0 0 0 0 0 0 0 0 127 0" result="hardAlpha"/>
<feOffset dy="2.12249"/>
<feGaussianBlur stdDeviation="2.12249"/>
<feColorMatrix type="matrix" values="0 0 0 0 0.0470588 0 0 0 0 0.254902 0 0 0 0 0.603922 0 0 0 0.1 0"/>
<feBlend mode="normal" in2="BackgroundImageFix" result="effect1_dropShadow_8174_80975"/>
<feBlend mode="normal" in="SourceGraphic" in2="effect1_dropShadow_8174_80975" result="shape"/>
</filter>
<filter id="filter1_d_8174_80975" x="15.6408" y="14.7095" width="32.8943" height="42.5427" filterUnits="userSpaceOnUse" color-interpolation-filters="sRGB">
<feFlood flood-opacity="0" result="BackgroundImageFix"/>
<feColorMatrix in="SourceAlpha" type="matrix" values="0 0 0 0 0 0 0 0 0 0 0 0 0 0 0 0 0 0 127 0" result="hardAlpha"/>
<feOffset dy="2.12249"/>
<feGaussianBlur stdDeviation="2.12249"/>
<feColorMatrix type="matrix" values="0 0 0 0 0.0470588 0 0 0 0 0.254902 0 0 0 0 0.603922 0 0 0 0.1 0"/>
<feBlend mode="normal" in2="BackgroundImageFix" result="effect1_dropShadow_8174_80975"/>
<feBlend mode="normal" in="SourceGraphic" in2="effect1_dropShadow_8174_80975" result="shape"/>
</filter>
<filter id="filter2_d_8174_80975" x="16.1681" y="13.5748" width="31.8405" height="42.5427" filterUnits="userSpaceOnUse" color-interpolation-filters="sRGB">
<feFlood flood-opacity="0" result="BackgroundImageFix"/>
<feColorMatrix in="SourceAlpha" type="matrix" values="0 0 0 0 0 0 0 0 0 0 0 0 0 0 0 0 0 0 127 0" result="hardAlpha"/>
<feOffset dy="2.12249"/>
<feGaussianBlur stdDeviation="2.12249"/>
<feColorMatrix type="matrix" values="0 0 0 0 0.0470588 0 0 0 0 0.254902 0 0 0 0 0.603922 0 0 0 0.1 0"/>
<feBlend mode="normal" in2="BackgroundImageFix" result="effect1_dropShadow_8174_80975"/>
<feBlend mode="normal" in="SourceGraphic" in2="effect1_dropShadow_8174_80975" result="shape"/>
</filter>
</defs>
</svg>
