<svg width="81" height="81" viewBox="0 0 81 81" fill="none" xmlns="http://www.w3.org/2000/svg">
    <g clip-path="url(#clip0_31021_158852)">
<path d="M72.9037 47.1193C68.5364 54.9553 61.7986 61.9094 54.2949 66.5783C39.5543 75.7489 19.2204 70.7104 9.28585 56.238C4.61204 49.4288 3.08105 40.1628 6.97207 32.7255C9.85105 27.2213 15.4564 24.4823 21.4052 24.0264C26.4227 23.6421 31.3671 24.9468 36.371 24.9744C44.0211 25.017 50.4723 21.3618 57.8025 20.0369C61.821 19.3104 66.758 19.5371 70.2314 22.0353C73.5289 24.4065 75.6371 28.3639 76.1915 32.3938C76.8913 37.4801 75.3891 42.6602 72.9037 47.1193Z" fill="#A0B2EC" fill-opacity="0.16"/>
<path fill-rule="evenodd" clip-rule="evenodd" d="M18.0712 44.4265C15.8361 34.2784 10.0676 22.4393 17.0924 14.8087C24.3634 6.91059 37.5728 8.47941 47.5484 12.407C55.6483 15.5961 59.0225 24.3951 62.1468 32.5476C64.6594 39.104 65.2591 45.9362 62.9367 52.5613C60.3544 59.928 56.5137 67.7339 49.0462 69.9205C41.4775 72.1367 33.7797 67.9041 27.6811 62.8846C22.0547 58.2538 19.6419 51.558 18.0712 44.4265Z" fill="#A0B2EC" fill-opacity="0.16"/>
<rect x="21.457" y="19.0605" width="38.3092" height="49.6607" rx="3.2" fill="#0C419A"/>
<g filter="url(#filter0_d_31021_158852)">
<rect x="24.6484" y="22.9668" width="31.9244" height="42.5663" rx="2.83774" fill="white"/>
</g>
<g filter="url(#filter1_d_31021_158852)">
<rect x="25.3584" y="21.5449" width="30.5055" height="42.5663" rx="2.83774" fill="white"/>
</g>
<g filter="url(#filter2_d_31021_158852)">
<rect x="26.0156" y="20.125" width="29.188" height="42.5663" rx="2.83774" fill="white"/>
</g>
<path d="M42.499 26.247C42.499 25.6112 43.0145 25.0957 43.6503 25.0957H50.2703C50.9061 25.0957 51.4216 25.6112 51.4216 26.247C51.4216 26.8829 50.9061 27.3983 50.2703 27.3983H43.6503C43.0145 27.3983 42.499 26.8829 42.499 26.247Z" fill="#0C419A"/>
<path d="M42.499 30.8518C42.499 30.3749 42.8856 29.9883 43.3625 29.9883H50.5581C51.035 29.9883 51.4216 30.3749 51.4216 30.8518C51.4216 31.3287 51.035 31.7152 50.5581 31.7152H43.3625C42.8856 31.7152 42.499 31.3287 42.499 30.8518Z" fill="#BDCCF8"/>
<path d="M42.4961 35.1701C42.4961 34.6932 42.8827 34.3066 43.3596 34.3066H44.7987C45.2756 34.3066 45.6622 34.6932 45.6622 35.1701C45.6622 35.647 45.2756 36.0336 44.7987 36.0336H43.3596C42.8827 36.0336 42.4961 35.647 42.4961 35.1701Z" fill="#BDCCF8"/>
<path d="M40.7718 30.8523C40.7718 34.0315 38.1945 36.6088 35.0153 36.6088C31.8361 36.6088 29.2588 34.0315 29.2588 30.8523C29.2588 27.673 31.8361 25.0957 35.0153 25.0957C38.1945 25.0957 40.7718 27.673 40.7718 30.8523Z" fill="#F9FAFF"/>
<path d="M33.1628 29.0668C33.1628 28.1465 33.9279 27.4004 34.8717 27.4004C35.8156 27.4004 36.5807 28.1465 36.5807 29.0668C36.5807 29.9871 35.8156 30.7331 34.8717 30.7331C33.9279 30.7331 33.1628 29.9871 33.1628 29.0668ZM34.8717 30.0666C35.438 30.0666 35.8971 29.619 35.8971 29.0668C35.8971 28.5146 35.438 28.0669 34.8717 28.0669C34.3054 28.0669 33.8464 28.5146 33.8464 29.0668C33.8464 29.619 34.3054 30.0666 34.8717 30.0666Z" fill="#0C419A"/>
<path d="M32.9383 31.8473C32.5086 32.2663 32.2367 32.8104 32.1598 33.3918C32.1351 33.5789 32.2904 33.7326 32.4792 33.7326C32.668 33.7326 32.818 33.5784 32.8508 33.3925C32.9224 32.9884 33.1203 32.6125 33.4216 32.3186C33.8062 31.9436 34.3278 31.733 34.8717 31.733C35.4156 31.733 35.9372 31.9436 36.3218 32.3186C36.6232 32.6125 36.8211 32.9884 36.8926 33.3925C36.9255 33.5784 37.0755 33.7326 37.2643 33.7326C37.453 33.7326 37.6084 33.5789 37.5837 33.3918C37.5068 32.8104 37.2349 32.2663 36.8052 31.8473C36.2924 31.3473 35.5969 31.0664 34.8717 31.0664C34.1465 31.0664 33.4511 31.3473 32.9383 31.8473Z" fill="#0C419A"/>
<path d="M29.2578 40.6396C29.2578 40.0037 29.7733 39.4883 30.4091 39.4883H31.5604C32.1963 39.4883 32.7117 40.0037 32.7117 40.6396C32.7117 41.2754 32.1963 41.7909 31.5604 41.7909H30.4091C29.7733 41.7909 29.2578 41.2754 29.2578 40.6396Z" fill="#0C419A"/>
<path d="M29.2588 45.2451C29.2588 44.6092 29.7742 44.0938 30.4101 44.0938H31.5614C32.1972 44.0938 32.7127 44.6092 32.7127 45.2451C32.7127 45.8809 32.1972 46.3964 31.5614 46.3964H30.4101C29.7742 46.3964 29.2588 45.8809 29.2588 45.2451Z" fill="#0C419A"/>
<path d="M34.1523 40.6408C34.1523 40.1639 34.5389 39.7773 35.0158 39.7773H50.5584C51.0352 39.7773 51.4218 40.1639 51.4218 40.6408C51.4218 41.1177 51.0352 41.5043 50.5584 41.5043H35.0158C34.5389 41.5043 34.1523 41.1177 34.1523 40.6408Z" fill="#BDCCF8"/>
<path d="M34.1514 45.2463C34.1514 44.7694 34.538 44.3828 35.0148 44.3828H42.2105C42.6873 44.3828 43.0739 44.7694 43.0739 45.2463C43.0739 45.7232 42.6873 46.1098 42.2105 46.1098H35.0148C34.538 46.1098 34.1514 45.7232 34.1514 45.2463Z" fill="#BDCCF8"/>
<path d="M29.2578 50.0068C29.2578 49.6029 29.5853 49.2754 29.9893 49.2754H50.6889C51.0928 49.2754 51.4203 49.6029 51.4203 50.0068V56.891C51.4203 57.2949 51.0928 57.6224 50.6889 57.6224H29.9893C29.5853 57.6224 29.2578 57.2949 29.2578 56.891V50.0068Z" fill="#F9FAFF"/>
<path fill-rule="evenodd" clip-rule="evenodd" d="M41.0014 51.6034L39.5531 54.4584C39.4428 54.6759 39.2195 54.813 38.9756 54.813H38.1438L37.6776 56.1703C37.4855 56.7297 36.7058 56.76 36.4708 56.2173L35.0325 52.8954L34.3369 54.4324C34.232 54.6641 34.0013 54.813 33.7469 54.813H31.56C31.3613 54.813 31.2002 54.6519 31.2002 54.4532C31.2002 54.2545 31.3613 54.0934 31.56 54.0934H33.7005L34.444 52.4506C34.6757 51.9386 35.405 51.9446 35.6283 52.4603L37.0574 55.761L37.4799 54.5307C37.5698 54.2691 37.8158 54.0934 38.0924 54.0934H38.9314L40.4337 51.132C40.6885 50.6295 41.4191 50.6697 41.6174 51.1971L43.1393 55.2448L43.4935 54.4714C43.599 54.2411 43.829 54.0934 44.0823 54.0934H45.2584L45.8508 52.9256C46.0907 52.4527 46.766 52.4527 47.0059 52.9256L47.5983 54.0934H49.1173C49.316 54.0934 49.4771 54.2545 49.4771 54.4532C49.4771 54.6519 49.316 54.813 49.1173 54.813H47.5541C47.3102 54.813 47.0869 54.6759 46.9766 54.4584L46.4283 53.3776L45.8801 54.4584C45.7697 54.6759 45.5465 54.813 45.3026 54.813H44.1285L43.7216 55.7015C43.4819 56.225 42.7293 56.1988 42.5266 55.6598L41.0014 51.6034Z" fill="#0C419A"/>
<path fill-rule="evenodd" clip-rule="evenodd" d="M37.2643 18.0241C36.9548 17.4713 36.7783 16.8338 36.7783 16.1552C36.7783 14.0394 38.4935 12.3242 40.6092 12.3242C42.725 12.3242 44.4402 14.0394 44.4402 16.1552C44.4402 16.8338 44.2637 17.4713 43.9542 18.0241L48.2704 18.0241C49.3283 18.0241 50.1859 18.8817 50.1859 19.9396L50.1859 21.8551L31.0312 21.8551L31.0312 19.9396C31.0312 18.8817 31.8888 18.0241 32.9467 18.0241L37.2643 18.0241ZM39.1637 18.0241C38.619 17.5852 38.2705 16.9126 38.2705 16.1587C38.2705 14.8363 39.3425 13.7643 40.6648 13.7643C41.9872 13.7643 43.0592 14.8363 43.0592 16.1587C43.0592 16.9126 42.7107 17.5852 42.166 18.0241L39.1637 18.0241Z" fill="#F0B323"/>
<g filter="url(#filter3_d_31021_158852)">
<ellipse cx="11.3131" cy="11.3131" rx="11.3131" ry="11.3131" transform="matrix(0.707103 0.707111 -0.707103 0.707111 56.501 48.5078)" fill="white"/>
</g>
<g filter="url(#filter4_d_31021_158852)">
<ellipse cx="9.6" cy="9.6" rx="9.6" ry="9.6" transform="matrix(0.707103 0.707111 -0.707103 0.707111 56.501 50.9277)" fill="#F0B323"/>
</g>
<path fill-rule="evenodd" clip-rule="evenodd" d="M52.4125 62.8772C52.9022 61.1029 54.5285 59.8008 56.4574 59.8008C58.1768 59.8008 59.6562 60.8352 60.3042 62.3184C60.3373 62.3941 60.3866 62.5315 60.4328 62.6677C60.4546 62.7321 60.4737 62.7906 60.4875 62.8329L60.5035 62.8826L60.5076 62.8957L60.5089 62.8996C60.5185 62.9303 60.5303 62.9598 60.544 62.988L59.1978 62.6273C58.9086 62.5498 58.6114 62.7214 58.5339 63.0106C58.4564 63.2998 58.628 63.597 58.9172 63.6745L61.6231 64.3995C61.6482 64.4106 61.6744 64.4199 61.7017 64.4272C61.8587 64.4692 62.018 64.4379 62.1432 64.3543C62.2523 64.2839 62.3365 64.1744 62.3727 64.0392C62.3797 64.0134 62.3846 63.9876 62.3876 63.9619L63.1137 61.2521C63.1912 60.963 63.0196 60.6657 62.7304 60.5882C62.4412 60.5107 62.144 60.6823 62.0665 60.9715L61.6929 62.3656C61.6818 62.3319 61.6692 62.2939 61.6555 62.2537C61.61 62.1192 61.545 61.9338 61.4872 61.8015C60.6411 59.8651 58.7082 58.5098 56.4574 58.5098C53.9329 58.5098 51.8082 60.2141 51.168 62.5337C51.0732 62.8774 51.2749 63.2329 51.6185 63.3277C51.9622 63.4226 52.3176 63.2209 52.4125 62.8772ZM61.1245 62.7055L61.6459 62.541L61.646 62.5409L61.1245 62.7055ZM60.7231 65.8819C60.2334 67.6562 58.607 68.9584 56.6782 68.9584C54.9587 68.9584 53.4794 67.9239 52.8314 66.4407C52.7983 66.365 52.7489 66.2276 52.7028 66.0914C52.681 66.027 52.6618 65.9686 52.6481 65.9262L52.6321 65.8765L52.6279 65.8635L52.6267 65.8596C52.6176 65.8308 52.6067 65.8031 52.5942 65.7766L53.9345 66.1357C54.2236 66.2132 54.5209 66.0416 54.5984 65.7524C54.6759 65.4632 54.5042 65.166 54.2151 65.0885L51.5092 64.3635C51.4841 64.3524 51.4579 64.3432 51.4305 64.3358C51.2736 64.2938 51.1143 64.3251 50.989 64.4088C50.88 64.4791 50.7958 64.5886 50.7595 64.7238C50.7526 64.7496 50.7477 64.7754 50.7447 64.8011L50.0186 67.5109C49.9411 67.8001 50.1127 68.0973 50.4019 68.1748C50.6911 68.2523 50.9883 68.0807 51.0658 67.7915L51.4414 66.3898C51.4528 66.4245 51.4659 66.4637 51.48 66.5054C51.5255 66.6399 51.5906 66.8253 51.6484 66.9576C52.4944 68.894 54.4273 70.2494 56.6782 70.2494C59.2026 70.2494 61.3273 68.545 61.9675 66.2254C62.0624 65.8817 61.8607 65.5263 61.517 65.4314C61.1734 65.3366 60.8179 65.5383 60.7231 65.8819ZM51.4872 66.2189L51.4872 66.219L52.0111 66.0536C51.7218 66.1448 51.5685 66.1932 51.4872 66.2189Z" fill="white"/>
</g>
<defs>
<filter id="filter0_d_31021_158852" x="19.3422" y="20.3137" width="42.5373" height="53.1789" filterUnits="userSpaceOnUse" color-interpolation-filters="sRGB">
<feFlood flood-opacity="0" result="BackgroundImageFix"/>
<feColorMatrix in="SourceAlpha" type="matrix" values="0 0 0 0 0 0 0 0 0 0 0 0 0 0 0 0 0 0 127 0" result="hardAlpha"/>
<feOffset dy="2.65311"/>
<feGaussianBlur stdDeviation="2.65311"/>
<feColorMatrix type="matrix" values="0 0 0 0 0.0470588 0 0 0 0 0.254902 0 0 0 0 0.603922 0 0 0 0.1 0"/>
<feBlend mode="normal" in2="BackgroundImageFix" result="effect1_dropShadow_31021_158852"/>
<feBlend mode="normal" in="SourceGraphic" in2="effect1_dropShadow_31021_158852" result="shape"/>
</filter>
<filter id="filter1_d_31021_158852" x="20.0522" y="18.8918" width="41.1183" height="53.1789" filterUnits="userSpaceOnUse" color-interpolation-filters="sRGB">
<feFlood flood-opacity="0" result="BackgroundImageFix"/>
<feColorMatrix in="SourceAlpha" type="matrix" values="0 0 0 0 0 0 0 0 0 0 0 0 0 0 0 0 0 0 127 0" result="hardAlpha"/>
<feOffset dy="2.65311"/>
<feGaussianBlur stdDeviation="2.65311"/>
<feColorMatrix type="matrix" values="0 0 0 0 0.0470588 0 0 0 0 0.254902 0 0 0 0 0.603922 0 0 0 0.1 0"/>
<feBlend mode="normal" in2="BackgroundImageFix" result="effect1_dropShadow_31021_158852"/>
<feBlend mode="normal" in="SourceGraphic" in2="effect1_dropShadow_31021_158852" result="shape"/>
</filter>
<filter id="filter2_d_31021_158852" x="20.7094" y="17.4719" width="39.7999" height="53.1789" filterUnits="userSpaceOnUse" color-interpolation-filters="sRGB">
<feFlood flood-opacity="0" result="BackgroundImageFix"/>
<feColorMatrix in="SourceAlpha" type="matrix" values="0 0 0 0 0 0 0 0 0 0 0 0 0 0 0 0 0 0 127 0" result="hardAlpha"/>
<feOffset dy="2.65311"/>
<feGaussianBlur stdDeviation="2.65311"/>
<feColorMatrix type="matrix" values="0 0 0 0 0.0470588 0 0 0 0 0.254902 0 0 0 0 0.603922 0 0 0 0.1 0"/>
<feBlend mode="normal" in2="BackgroundImageFix" result="effect1_dropShadow_31021_158852"/>
<feBlend mode="normal" in="SourceGraphic" in2="effect1_dropShadow_31021_158852" result="shape"/>
</filter>
<filter id="filter3_d_31021_158852" x="38.3629" y="49.7811" width="36.2761" height="36.2761" filterUnits="userSpaceOnUse" color-interpolation-filters="sRGB">
<feFlood flood-opacity="0" result="BackgroundImageFix"/>
<feColorMatrix in="SourceAlpha" type="matrix" values="0 0 0 0 0 0 0 0 0 0 0 0 0 0 0 0 0 0 127 0" result="hardAlpha"/>
<feOffset dy="3.41228"/>
<feGaussianBlur stdDeviation="3.41228"/>
<feColorMatrix type="matrix" values="0 0 0 0 0.0470588 0 0 0 0 0.254902 0 0 0 0 0.603922 0 0 0 0.1 0"/>
<feBlend mode="normal" in2="BackgroundImageFix" result="effect1_dropShadow_31021_158852"/>
<feBlend mode="normal" in="SourceGraphic" in2="effect1_dropShadow_31021_158852" result="shape"/>
</filter>
<filter id="filter4_d_31021_158852" x="40.0768" y="51.492" width="32.8483" height="32.8483" filterUnits="userSpaceOnUse" color-interpolation-filters="sRGB">
<feFlood flood-opacity="0" result="BackgroundImageFix"/>
<feColorMatrix in="SourceAlpha" type="matrix" values="0 0 0 0 0 0 0 0 0 0 0 0 0 0 0 0 0 0 127 0" result="hardAlpha"/>
<feOffset dy="3.41228"/>
<feGaussianBlur stdDeviation="3.41228"/>
<feColorMatrix type="matrix" values="0 0 0 0 0.0470588 0 0 0 0 0.254902 0 0 0 0 0.603922 0 0 0 0.1 0"/>
<feBlend mode="normal" in2="BackgroundImageFix" result="effect1_dropShadow_31021_158852"/>
<feBlend mode="normal" in="SourceGraphic" in2="effect1_dropShadow_31021_158852" result="shape"/>
</filter>
<clipPath id="clip0_31021_158852">
<rect width="79.9996" height="80.0004" fill="white" transform="translate(0.5 0.5)"/>
</clipPath>
</defs>
</svg>
