<svg width="64" height="64" viewBox="0 0 64 64" fill="none" xmlns="http://www.w3.org/2000/svg">
    <defs>
        <filter id="filter0_d_8174_81028" x="9.93284" y="8.80773" width="40.5816" height="54.3746"
            filterUnits="userSpaceOnUse" color-interpolation-filters="sRGB">
            <feFlood flood-opacity="0" result="BackgroundImageFix" />
            <feColorMatrix in="SourceAlpha" type="matrix"
                values="0 0 0 0 0 0 0 0 0 0 0 0 0 0 0 0 0 0 127 0" result="hardAlpha" />
            <feOffset dy="2.39344" />
            <feGaussianBlur stdDeviation="2.39344" />
            <feColorMatrix type="matrix"
                values="0 0 0 0 0.0470588 0 0 0 0 0.254902 0 0 0 0 0.603922 0 0 0 0.1 0" />
            <feBlend mode="normal" in2="BackgroundImageFix"
                result="effect1_dropShadow_8174_81028" />
            <feBlend mode="normal" in="SourceGraphic" in2="effect1_dropShadow_8174_81028"
                result="shape" />
        </filter>
        <filter id="filter1_d_8174_81028" x="14.7336" y="4.00695" width="40.5816" height="54.3746"
            filterUnits="userSpaceOnUse" color-interpolation-filters="sRGB">
            <feFlood flood-opacity="0" result="BackgroundImageFix" />
            <feColorMatrix in="SourceAlpha" type="matrix"
                values="0 0 0 0 0 0 0 0 0 0 0 0 0 0 0 0 0 0 127 0" result="hardAlpha" />
            <feOffset dy="2.39344" />
            <feGaussianBlur stdDeviation="2.39344" />
            <feColorMatrix type="matrix"
                values="0 0 0 0 0.0470588 0 0 0 0 0.254902 0 0 0 0 0.603922 0 0 0 0.1 0" />
            <feBlend mode="normal" in2="BackgroundImageFix"
                result="effect1_dropShadow_8174_81028" />
            <feBlend mode="normal" in="SourceGraphic" in2="effect1_dropShadow_8174_81028"
                result="shape" />
        </filter>
    </defs>
    <path
        d="M11.6976 17.7306C17.5357 13.9805 24.6686 11.6969 31.4898 11.2514C44.8893 10.3769 56.9176 21.2339 58.4109 34.7292C59.1133 41.0786 56.7758 47.9565 51.408 51.6085C47.4358 54.3115 42.6135 54.1337 38.3902 52.2736C34.8283 50.7046 31.9324 48.0103 28.53 46.1653C23.3284 43.3444 17.5949 43.4827 12.1124 41.7111C9.10679 40.74 5.82266 38.7837 4.36561 35.8123C2.98219 32.9918 2.98868 29.5236 4.08137 26.573C5.46036 22.8489 8.37526 19.8645 11.6976 17.7306Z"
        fill="#A0B2EC" fill-opacity="0.16" />
    <path
        d="M57.8791 15.8836C55.7435 13.2515 52.3223 11.7638 48.81 11.4599C46.5804 11.2672 44.2418 11.5341 42.2036 12.5414C38.8622 14.1931 36.8098 17.5202 34.2082 20.1543C31.0975 23.304 27.1273 25.5079 23.6477 28.273C20.1685 31.0379 17.0152 34.7257 16.6819 38.9775C16.4832 41.5042 17.3263 43.9989 18.7501 46.0547C21.5241 50.0605 26.4564 52.4112 31.5335 52.6864C45.8966 53.4652 59.0078 40.1977 60.4365 26.9213C60.8536 23.0432 60.3239 18.8966 57.8791 15.8836Z"
        fill="#A0B2EC" fill-opacity="0.16" />
    <g filter="url(#filter0_d_8174_81028)">
        <path
            d="M14.7197 13.7612C14.7197 12.3473 15.8659 11.2012 17.2797 11.2012H39.3424V15.0267C39.3424 16.4406 40.4885 17.5867 41.9024 17.5867H45.7279V53.4413C45.7279 54.8551 44.5818 56.0013 43.1679 56.0013H17.2797C15.8659 56.0013 14.7197 54.8551 14.7197 53.4413V13.7612Z"
            fill="white" />
    </g>
    <path
        d="M40.7628 17.5867H45.7273L39.3418 11.2012V16.1657C39.3418 16.9505 39.978 17.5867 40.7628 17.5867Z"
        fill="#BDCCF8" />
    <rect x="32.6396" y="21.4414" width="9.92" height="1.92" rx="0.96" fill="#0C419A" />
    <rect x="32.6396" y="26.5625" width="5.12" height="1.92" rx="0.96" fill="#BDCCF8" />
    <circle cx="24.3199" cy="22.0816" r="6.4" fill="#F9FAFF" />
    <path
        d="M22.2601 20.0948C22.2601 19.0716 23.1108 18.2422 24.1601 18.2422C25.2095 18.2422 26.0601 19.0716 26.0601 20.0948C26.0601 21.118 25.2095 21.9475 24.1601 21.9475C23.1108 21.9475 22.2601 21.118 22.2601 20.0948ZM24.1601 21.2064C24.7897 21.2064 25.3001 20.7087 25.3001 20.0948C25.3001 19.4809 24.7897 18.9832 24.1601 18.9832C23.5305 18.9832 23.0201 19.4809 23.0201 20.0948C23.0201 20.7087 23.5305 21.2064 24.1601 21.2064Z"
        fill="#BDCCF8" />
    <path
        d="M22.0105 23.1862C21.5328 23.652 21.2305 24.2569 21.145 24.9033C21.1175 25.1113 21.2902 25.2822 21.5001 25.2822C21.71 25.2822 21.8767 25.1108 21.9133 24.9041C21.9928 24.4548 22.2128 24.0369 22.5479 23.7102C22.9755 23.2933 23.5554 23.059 24.1601 23.059C24.7648 23.059 25.3447 23.2933 25.7723 23.7102C26.1074 24.0369 26.3274 24.4548 26.4069 24.9041C26.4435 25.1108 26.6102 25.2822 26.8201 25.2822C27.03 25.2822 27.2027 25.1113 27.1752 24.9033C27.0898 24.2569 26.7875 23.652 26.3097 23.1862C25.7396 22.6303 24.9664 22.318 24.1601 22.318C23.3539 22.318 22.5806 22.6303 22.0105 23.1862Z"
        fill="#BDCCF8" />
    <rect x="17.9199" y="32.002" width="24.64" height="1.92" rx="0.96" fill="#BDCCF8" />
    <rect x="17.9199" y="37.1211" width="24.64" height="1.92" rx="0.96" fill="#BDCCF8" />
    <rect x="23.3604" y="37.1211" width="9.92" height="1.92" rx="0.96" fill="#BDCCF8" />
    <path
        d="M17.9199 43.3757C17.9199 42.9266 18.284 42.5625 18.7331 42.5625L41.7467 42.5625C42.1958 42.5625 42.5599 42.9266 42.5599 43.3757L42.5599 51.0293C42.5599 51.4784 42.1958 51.8425 41.7467 51.8425L18.7331 51.8425C18.284 51.8425 17.9199 51.4784 17.9199 51.0293L17.9199 43.3757Z"
        fill="#F9FAFF" />
    <path
        d="M20.4795 48.3221H22.9109C23.0366 48.3221 23.1506 48.2485 23.2024 48.134L24.0503 46.2606C24.1648 46.0076 24.5252 46.0105 24.6355 46.2654L26.3064 50.1244C26.4225 50.3926 26.8077 50.3776 26.9027 50.1012L27.4395 48.5382C27.4839 48.4089 27.6055 48.3221 27.7422 48.3221H28.7241C28.8446 48.3221 28.9549 48.2544 29.0095 48.1469L30.7019 44.8106C30.8278 44.5623 31.1888 44.5822 31.2868 44.8428L33.0465 49.5228C33.1466 49.7891 33.5185 49.8021 33.637 49.5434L34.1107 48.5089C34.1628 48.3951 34.2765 48.3221 34.4017 48.3221H35.7583C35.8789 48.3221 35.9892 48.2544 36.0437 48.1469L36.7246 46.8047C36.8431 46.571 37.1768 46.571 37.2953 46.8047L37.9762 48.1469C38.0307 48.2544 38.141 48.3221 38.2616 48.3221H39.9995"
        stroke="#BDCCF8" stroke-width="0.8" stroke-linecap="round" />
    <g filter="url(#filter1_d_8174_81028)">
        <path
            d="M19.5205 8.96039C19.5205 7.54654 20.6667 6.40039 22.0805 6.40039H44.1432V10.2259C44.1432 11.6398 45.2893 12.7859 46.7032 12.7859H50.5287V48.6405C50.5287 50.0543 49.3826 51.2005 47.9687 51.2005H22.0805C20.6667 51.2005 19.5205 50.0543 19.5205 48.6405V8.96039Z"
            fill="white" />
    </g>
    <path
        d="M45.5636 12.7859H50.5281L44.1426 6.40039V11.3649C44.1426 12.1497 44.7788 12.7859 45.5636 12.7859Z"
        fill="#BDCCF8" />
    <rect x="37.4385" y="16.6387" width="9.92" height="1.92" rx="0.96" fill="#BDCCF8" />
    <rect x="37.4385" y="21.7598" width="9.92" height="1.92" rx="0.96" fill="#BDCCF8" />
    <circle cx="29.1187" cy="17.2789" r="6.4" fill="#F9FAFF" />
    <path
        d="M27.0589 15.2921C27.0589 14.2689 27.9096 13.4395 28.9589 13.4395C30.0083 13.4395 30.8589 14.2689 30.8589 15.2921C30.8589 16.3153 30.0083 17.1447 28.9589 17.1447C27.9096 17.1447 27.0589 16.3153 27.0589 15.2921ZM28.9589 16.4037C29.5886 16.4037 30.0989 15.906 30.0989 15.2921C30.0989 14.6782 29.5886 14.1805 28.9589 14.1805C28.3293 14.1805 27.8189 14.6782 27.8189 15.2921C27.8189 15.906 28.3293 16.4037 28.9589 16.4037Z"
        fill="#A05BB6" />
    <path
        d="M26.8093 18.3834C26.3316 18.8493 26.0293 19.4542 25.9439 20.1005C25.9164 20.3086 26.0891 20.4795 26.2989 20.4795C26.5088 20.4795 26.6756 20.308 26.7121 20.1014C26.7917 19.6521 27.0117 19.2342 27.3467 18.9074C27.7743 18.4905 28.3543 18.2563 28.9589 18.2563C29.5636 18.2563 30.1436 18.4905 30.5711 18.9074C30.9062 19.2342 31.1262 19.6521 31.2057 20.1014C31.2423 20.308 31.4091 20.4795 31.6189 20.4795C31.8288 20.4795 32.0015 20.3086 31.974 20.1005C31.8886 19.4542 31.5863 18.8493 31.1086 18.3834C30.5384 17.8275 29.7652 17.5152 28.9589 17.5152C28.1527 17.5152 27.3795 17.8275 26.8093 18.3834Z"
        fill="#A05BB6" />
    <rect x="22.7188" y="27.1992" width="24.64" height="1.92" rx="0.96" fill="#BDCCF8" />
    <rect x="22.7188" y="32.3184" width="24.64" height="1.92" rx="0.96" fill="#BDCCF8" />
    <rect x="28.1592" y="32.3184" width="9.92" height="1.92" rx="0.96" fill="#BDCCF8" />
    <path
        d="M22.7188 38.573C22.7188 38.1239 23.0828 37.7598 23.532 37.7598L46.5455 37.7598C46.9947 37.7598 47.3587 38.1239 47.3587 38.573L47.3587 46.2266C47.3587 46.6757 46.9947 47.0398 46.5455 47.0398L23.532 47.0398C23.0828 47.0398 22.7188 46.6757 22.7188 46.2266L22.7188 38.573Z"
        fill="#F9FAFF" />
    <path fill-rule="evenodd" clip-rule="evenodd"
        d="M35.7758 40.35L34.1656 43.5241C34.0429 43.766 33.7947 43.9184 33.5235 43.9184H32.5987L32.0804 45.4274C31.8668 46.0493 31 46.083 30.7387 45.4796L29.1396 41.7864L28.3663 43.4953C28.2497 43.7529 27.9931 43.9184 27.7103 43.9184H25.2789C25.058 43.9184 24.8789 43.7393 24.8789 43.5184C24.8789 43.2975 25.058 43.1184 25.2789 43.1184H27.6587L28.4853 41.2919C28.7429 40.7227 29.5537 40.7293 29.802 41.3027L31.3908 44.9723L31.8606 43.6045C31.9605 43.3137 32.2341 43.1184 32.5416 43.1184H33.4744L35.1446 39.8259C35.4279 39.2673 36.2401 39.312 36.4606 39.8983L38.1527 44.3984L38.5465 43.5386C38.6637 43.2826 38.9195 43.1184 39.2011 43.1184H40.5086L41.1672 41.82C41.4339 41.2943 42.1848 41.2943 42.4515 41.82L43.1101 43.1184H44.7989C45.0198 43.1184 45.1989 43.2975 45.1989 43.5184C45.1989 43.7393 45.0198 43.9184 44.7989 43.9184H43.061C42.7898 43.9184 42.5416 43.766 42.4189 43.5241L41.8094 42.3226L41.1998 43.5241C41.0771 43.766 40.8289 43.9184 40.5577 43.9184H39.2524L38.8 44.9062C38.5335 45.4882 37.6968 45.459 37.4715 44.8598L35.7758 40.35Z"
        fill="#BDCCF8" />
    <path
        d="M42.5592 29.762C42.5592 34.0036 39.1208 37.442 34.8792 37.442C30.6377 37.442 27.1992 34.0036 27.1992 29.762C27.1992 25.5205 30.6377 22.082 34.8792 22.082C39.1208 22.082 42.5592 25.5205 42.5592 29.762Z"
        fill="#A05BB6" />
    <path fill-rule="evenodd" clip-rule="evenodd"
        d="M44.0951 29.7609C44.0951 34.8508 39.9689 38.9769 34.8791 38.9769C29.7892 38.9769 25.6631 34.8508 25.6631 29.7609C25.6631 24.6711 29.7892 20.5449 34.8791 20.5449C39.9689 20.5449 44.0951 24.6711 44.0951 29.7609ZM34.8791 37.4409C39.1206 37.4409 42.5591 34.0025 42.5591 29.7609C42.5591 25.5194 39.1206 22.0809 34.8791 22.0809C30.6375 22.0809 27.1991 25.5194 27.1991 29.7609C27.1991 34.0025 30.6375 37.4409 34.8791 37.4409Z"
        fill="white" />
    <rect x="37.0713" y="28.127" width="1.152" height="4.22304" rx="0.576"
        transform="rotate(45 37.0713 28.127)" fill="white" />
    <rect width="1.152" height="4.22294" rx="0.576"
        transform="matrix(-0.707107 0.707107 0.707107 0.707107 32.7363 28.127)" fill="white" />
    <rect x="34.3242" y="25.1523" width="1.152" height="6.528" rx="0.576" fill="white" />
    <rect x="37.3965" y="32.832" width="1.152" height="4.992" rx="0.576"
        transform="rotate(90 37.3965 32.832)" fill="white" />
</svg>
