<svg width="24" height="24" viewBox="0 0 24 24" fill="none" xmlns="http://www.w3.org/2000/svg">
<path d="M17.1181 7.87775C16.9127 7.87895 16.7117 7.8188 16.5405 7.70497C16.3694 7.59114 16.2359 7.42879 16.1572 7.23861C16.0784 7.04844 16.0579 6.83905 16.0983 6.63716C16.1387 6.43527 16.2382 6.25001 16.384 6.10501L19.3204 3.17116C19.5182 3.00132 19.7727 2.91257 20.0329 2.92265C20.2931 2.93273 20.5399 3.04089 20.7241 3.22552C20.9082 3.41015 21.0161 3.65765 21.0262 3.91856C21.0362 4.17947 20.9477 4.43458 20.7783 4.6329L17.8522 7.56675C17.7564 7.6647 17.6423 7.74263 17.5162 7.79602C17.3902 7.8494 17.2549 7.87719 17.1181 7.87775Z" fill="#262939"/>
<path d="M22.9484 7.87936C22.8124 7.88015 22.6775 7.854 22.5515 7.80241C22.4255 7.75082 22.3109 7.6748 22.2143 7.57872L16.3932 1.71102C16.2238 1.5127 16.1353 1.25759 16.1453 0.996683C16.1554 0.735772 16.2632 0.488272 16.4474 0.303642C16.6315 0.119012 16.8784 0.010851 17.1386 0.000773149C17.3988 -0.00930473 17.6532 0.0794427 17.851 0.249281L23.7032 6.11698C23.8468 6.26377 23.9436 6.45004 23.9813 6.65212C24.019 6.85419 23.9959 7.06295 23.915 7.25185C23.8341 7.44075 23.699 7.60127 23.5269 7.71301C23.3548 7.82474 23.1535 7.88265 22.9484 7.87936Z" fill="#262939"/>
<path d="M1.03997 23.9989C0.834601 24 0.633528 23.9399 0.462388 23.8261C0.291248 23.7122 0.157794 23.5499 0.0790407 23.3597C0.000287559 23.1695 -0.0201967 22.9601 0.0201997 22.7583C0.060596 22.5564 0.160043 22.3711 0.305861 22.2261L3.23196 19.2923C3.42976 19.1224 3.68419 19.0337 3.94441 19.0437C4.20463 19.0538 4.45148 19.162 4.63562 19.3466C4.81976 19.5312 4.92764 19.7787 4.93769 20.0397C4.94774 20.3006 4.85923 20.5557 4.68984 20.754L1.76374 23.6982C1.57115 23.8897 1.31122 23.9977 1.03997 23.9989Z" fill="#262939"/>
<path d="M1.03997 23.9989C0.834601 24 0.633528 23.9399 0.462388 23.8261C0.291248 23.7122 0.157794 23.5499 0.0790407 23.3597C0.000287559 23.1695 -0.0201967 22.9601 0.0201997 22.7583C0.060596 22.5564 0.160043 22.3711 0.305861 22.2261L3.23196 19.2923C3.42976 19.1224 3.68419 19.0337 3.94441 19.0437C4.20463 19.0538 4.45148 19.162 4.63562 19.3466C4.81976 19.5312 4.92764 19.7787 4.93769 20.0397C4.94774 20.3006 4.85923 20.5557 4.68984 20.754L1.76374 23.6982C1.57115 23.8897 1.31122 23.9977 1.03997 23.9989Z" fill="#262939"/>
<path d="M6.15862 21.9804C5.34015 21.9811 4.5399 21.7382 3.85917 21.2826C3.17844 20.827 2.64784 20.1791 2.33454 19.421C2.02124 18.6629 1.93933 17.8286 2.09918 17.0238C2.25903 16.2189 2.65346 15.4798 3.23252 14.8998L14.2028 3.91084C14.3965 3.71775 14.6586 3.60937 14.9317 3.60938C15.2049 3.60937 15.467 3.71775 15.6607 3.91084L20.0447 8.30643C20.2372 8.50067 20.3453 8.76342 20.3453 9.0373C20.3453 9.31118 20.2372 9.57393 20.0447 9.76817L9.08471 20.7675C8.70034 21.1525 8.24409 21.4577 7.74202 21.6659C7.23995 21.874 6.7019 21.9809 6.15862 21.9804ZM14.9266 6.10863L4.6904 16.3719C4.30237 16.761 4.08438 17.2886 4.08438 17.8388C4.08438 18.3891 4.30237 18.9167 4.6904 19.3058C5.07842 19.6948 5.6047 19.9134 6.15345 19.9134C6.7022 19.9134 7.22847 19.6948 7.61649 19.3058L17.8527 9.04248L14.9266 6.10863Z" fill="#262939"/>
<path d="M17.1181 7.87775C16.9127 7.87895 16.7117 7.8188 16.5405 7.70497C16.3694 7.59114 16.2359 7.42879 16.1572 7.23861C16.0784 7.04844 16.0579 6.83905 16.0983 6.63716C16.1387 6.43527 16.2382 6.25001 16.384 6.10501L19.3204 3.17116C19.5182 3.00132 19.7727 2.91257 20.0329 2.92265C20.2931 2.93273 20.5399 3.04089 20.7241 3.22552C20.9082 3.41015 21.0161 3.65765 21.0262 3.91856C21.0362 4.17947 20.9477 4.43458 20.7783 4.6329L17.8522 7.56675C17.7564 7.6647 17.6423 7.74263 17.5162 7.79602C17.3902 7.8494 17.2549 7.87719 17.1181 7.87775Z" fill="#262939"/>
<path d="M22.9484 7.87936C22.8124 7.88015 22.6775 7.854 22.5515 7.80241C22.4255 7.75082 22.3109 7.6748 22.2143 7.57872L16.3932 1.71102C16.2238 1.5127 16.1353 1.25759 16.1453 0.996683C16.1554 0.735772 16.2632 0.488272 16.4474 0.303642C16.6315 0.119012 16.8784 0.010851 17.1386 0.000773149C17.3988 -0.00930473 17.6532 0.0794427 17.851 0.249281L23.7032 6.11698C23.8468 6.26377 23.9436 6.45004 23.9813 6.65212C24.019 6.85419 23.9959 7.06295 23.915 7.25185C23.8341 7.44075 23.699 7.60127 23.5269 7.71301C23.3548 7.82474 23.1535 7.88265 22.9484 7.87936Z" fill="#262939"/>
<path d="M13.6437 10.3257C13.5076 10.3265 13.3727 10.3003 13.2467 10.2488C13.1208 10.1972 13.0062 10.1211 12.9096 10.0251L11.8756 8.98837C11.7062 8.79004 11.6177 8.53494 11.6278 8.27403C11.6378 8.01312 11.7457 7.76562 11.9298 7.58099C12.114 7.39636 12.3608 7.28819 12.621 7.27812C12.8813 7.26804 13.1357 7.35679 13.3335 7.52663L14.3675 8.56332C14.5092 8.70822 14.6053 8.89163 14.644 9.09081C14.6827 9.28999 14.6623 9.49619 14.5852 9.68383C14.5082 9.87148 14.3779 10.0323 14.2105 10.1464C14.0431 10.2605 13.8461 10.3229 13.6437 10.3257ZM11.2759 13.1351C11.4685 12.9409 11.5766 12.6782 11.5766 12.4043C11.5766 12.1304 11.4685 11.8676 11.2759 11.6734L10.242 10.6367C10.0442 10.4669 9.78974 10.3781 9.52951 10.3882C9.26929 10.3983 9.02245 10.5064 8.8383 10.6911C8.65416 10.8757 8.54629 11.1232 8.53624 11.3841C8.52618 11.645 8.6147 11.9001 8.78409 12.0985L9.81804 13.1351C10.0118 13.3282 10.2738 13.4366 10.547 13.4366C10.8201 13.4366 11.0822 13.3282 11.2759 13.1351ZM8.17405 16.2452C8.36663 16.051 8.47472 15.7882 8.47472 15.5144C8.47472 15.2405 8.36663 14.9777 8.17405 14.7835L7.1401 13.7468C6.9423 13.577 6.68787 13.4882 6.42764 13.4983C6.16742 13.5084 5.92058 13.6165 5.73643 13.8012C5.55229 13.9858 5.44442 14.2333 5.43436 14.4942C5.42431 14.7551 5.51283 15.0102 5.68222 15.2085L6.71617 16.2452C6.9099 16.4383 7.17196 16.5467 7.44511 16.5467C7.71827 16.5467 7.98033 16.4383 8.17405 16.2452Z" fill="#262939"/>
</svg>
