<svg width="160" height="161" viewBox="0 0 160 161" fill="none" xmlns="http://www.w3.org/2000/svg">
<path d="M12.6014 106.392C18.7331 120.229 28.9831 132.949 40.8717 141.948C64.2262 159.623 99.1642 154.287 118.082 131.501C126.982 120.78 130.98 105.448 125.587 92.3536C121.597 82.6629 112.601 77.1988 102.677 75.5175C94.306 74.0998 85.7981 75.5311 77.3869 74.8075C64.5274 73.7019 54.2513 66.5684 42.1398 63.2145C35.5001 61.3756 27.1707 60.9968 20.9507 64.6596C15.0457 68.136 10.8948 74.4604 9.34337 81.1458C7.385 89.5835 9.11177 98.5175 12.6014 106.392Z" fill="#A0B2EC" fill-opacity="0.16"/>
<path fill-rule="evenodd" clip-rule="evenodd" d="M74.1808 22.5318C95.1748 15.7696 119.032 1.20144 136.567 14.5114C154.717 28.2879 154.057 56.5148 147.762 78.3828C142.651 96.1388 124.737 105.037 108.139 113.277C94.7898 119.904 80.4738 122.544 66.0081 118.968C49.9233 114.992 32.6575 108.445 26.5365 93.1056C20.3327 77.5583 27.7292 60.4422 37.1098 46.547C45.7642 33.7277 59.4276 27.2839 74.1808 22.5318Z" fill="#A0B2EC" fill-opacity="0.16"/>
<path d="M46.8715 39.724L137.359 119.472L133.241 124.144L42.7535 44.3965L46.8715 39.724Z" fill="#F3EFE3"/>
<path d="M60.5132 59.9772L133.289 124.115L125.411 133.055L52.6349 68.9165L60.5132 59.9772Z" fill="white"/>
<path fill-rule="evenodd" clip-rule="evenodd" d="M41.4589 35.0631C41.4338 35.0265 41.4052 34.9931 41.3731 34.9632C40.452 34.1051 36.9517 36.3651 33.5548 40.0111C30.1742 43.6396 28.1702 47.2734 29.0589 48.154L29.0028 48.2137C29.0028 48.2137 65.8007 80.6137 62.7578 77.877C59.715 75.1403 72.2026 62.2134 75.0026 64.6134C77.7385 66.9585 43.0493 36.4613 41.4589 35.0631Z" fill="#F0B323"/>
<path d="M29.0184 48.2255C29.9395 49.0836 33.4531 46.8093 36.8664 43.1457C40.2796 39.4821 42.3 35.8165 41.3789 34.9584C40.4579 34.1003 36.9442 36.3746 33.531 40.0382C30.1177 43.7018 28.0974 47.3674 29.0184 48.2255Z" fill="#F0B323"/>
<path opacity="0.2" d="M75.0037 64.6118C76.7642 66.1334 42.6068 36.207 41.4057 35.0096C40.2047 33.8123 35.8056 37.8121 35.8056 37.8121C35.8056 37.8121 68.7626 67.1911 69.0038 67.4114C69.0052 67.4127 69.0055 67.413 69.0047 67.4123C69.0044 67.412 69.0041 67.4117 69.0038 67.4114C68.8858 67.2742 73.2473 63.0937 75.0037 64.6118Z" fill="white"/>
<ellipse cx="9.24129" cy="2.87164" rx="9.24129" ry="2.87164" transform="matrix(-0.681666 0.731663 0.731663 0.681666 135.203 117.09)" fill="#495574"/>
</svg>
