<svg width="200" height="200" viewBox="0 0 200 200" fill="none" xmlns="http://www.w3.org/2000/svg">
<path d="M162.561 129.348C143.58 141.54 120.389 148.965 98.2118 150.413C54.6467 153.256 15.5399 117.958 10.6845 74.0809C8.40099 53.4373 16.0009 31.0757 33.4529 19.2023C46.3674 10.4139 62.0458 10.9921 75.7768 17.0398C87.3577 22.141 96.7728 30.9008 107.835 36.8992C124.747 46.0709 143.387 45.6211 161.213 51.381C170.985 54.5383 181.662 60.8988 186.399 70.5594C190.897 79.7295 190.876 91.0057 187.324 100.599C182.84 112.707 173.363 122.41 162.561 129.348Z" fill="#A0B2EC" fill-opacity="0.16"/>
<path d="M162.624 83.3062C156.544 75.8128 146.804 71.5775 136.805 70.7124C130.457 70.1636 123.799 70.9235 117.997 73.7912C108.484 78.4937 102.641 87.9655 95.2343 95.4645C86.3785 104.432 75.0757 110.706 65.1694 118.578C55.2645 126.449 46.2872 136.948 45.3382 149.053C44.7726 156.246 47.1728 163.348 51.2263 169.201C59.1237 180.605 73.1656 187.298 87.6196 188.081C128.51 190.298 165.837 152.527 169.904 114.73C171.092 103.689 169.584 91.8841 162.624 83.3062Z" fill="#A0B2EC" fill-opacity="0.16"/>
<g filter="url(#filter0_d_3194_66573)">
<path fill-rule="evenodd" clip-rule="evenodd" d="M72.04 23C70.991 23 70.1406 23.8504 70.1406 24.8994V153.95L64.6211 164.299H72.04H74.8645H82.2834L76.764 153.95V24.8994C76.764 23.8504 75.9135 23 74.8645 23H72.04Z" fill="#F9FAFF"/>
</g>
<path d="M65.1191 173.059H77.7029V174.731C77.7029 175.148 77.431 175.517 77.0325 175.639L70.123 177.765C70.0325 177.793 69.9383 177.807 69.8437 177.807H66.0689C65.5443 177.807 65.1191 177.382 65.1191 176.857V173.059Z" fill="#0C419A"/>
<path d="M135.877 173.059H123.293V174.731C123.293 175.148 123.565 175.517 123.964 175.639L130.873 177.765C130.964 177.793 131.058 177.807 131.152 177.807H134.927C135.452 177.807 135.877 177.382 135.877 176.857V173.059Z" fill="#0C419A"/>
<path d="M58 166.407C58 165.358 58.8504 164.508 59.8994 164.508H141.101C142.15 164.508 143 165.358 143 166.407V171.156C143 172.205 142.15 173.055 141.101 173.055H59.8994C58.8504 173.055 58 172.205 58 171.156V166.407Z" fill="#A0B2EC"/>
<path d="M73.0039 94.7734H73.782C74.1391 94.7734 74.4285 95.0629 74.4285 95.4199C74.4285 95.7769 74.1391 96.0663 73.782 96.0663H73.0039V94.7734Z" fill="#0C419A"/>
<path d="M73.0039 31.4219H73.782C74.1391 31.4219 74.4285 31.7113 74.4285 32.0683C74.4285 32.4254 74.1391 32.7148 73.782 32.7148H73.0039V31.4219Z" fill="#0C419A"/>
<path d="M73.0039 103.824H73.782C74.1391 103.824 74.4285 104.114 74.4285 104.471C74.4285 104.828 74.1391 105.117 73.782 105.117H73.0039V103.824Z" fill="#0C419A"/>
<path d="M73.0039 40.4727H73.782C74.1391 40.4727 74.4285 40.7621 74.4285 41.1191C74.4285 41.4761 74.1391 41.7656 73.782 41.7656H73.0039V40.4727Z" fill="#0C419A"/>
<path d="M73.0039 112.875H73.782C74.1391 112.875 74.4285 113.164 74.4285 113.521C74.4285 113.878 74.1391 114.168 73.782 114.168H73.0039V112.875Z" fill="#0C419A"/>
<path d="M73.0039 67.6211H73.782C74.1391 67.6211 74.4285 67.9105 74.4285 68.2675C74.4285 68.6246 74.1391 68.914 73.782 68.914H73.0039V67.6211Z" fill="#0C419A"/>
<path d="M73.0039 140.023H73.782C74.1391 140.023 74.4285 140.313 74.4285 140.67C74.4285 141.027 74.1391 141.316 73.782 141.316H73.0039V140.023Z" fill="#0C419A"/>
<path d="M73.0039 49.5195H73.782C74.1391 49.5195 74.4285 49.809 74.4285 50.166C74.4285 50.523 74.1391 50.8124 73.782 50.8124H73.0039V49.5195Z" fill="#0C419A"/>
<path d="M73.0039 121.926H73.782C74.1391 121.926 74.4285 122.215 74.4285 122.572C74.4285 122.929 74.1391 123.219 73.782 123.219H73.0039V121.926Z" fill="#0C419A"/>
<path d="M73.0039 76.6719H73.782C74.1391 76.6719 74.4285 76.9613 74.4285 77.3183C74.4285 77.6754 74.1391 77.9648 73.782 77.9648H73.0039V76.6719Z" fill="#0C419A"/>
<path d="M73.0039 149.074H73.782C74.1391 149.074 74.4285 149.364 74.4285 149.721C74.4285 150.078 74.1391 150.367 73.782 150.367H73.0039V149.074Z" fill="#0C419A"/>
<path d="M73.0039 58.5703H73.782C74.1391 58.5703 74.4285 58.8597 74.4285 59.2168C74.4285 59.5738 74.1391 59.8632 73.782 59.8632H73.0039V58.5703Z" fill="#0C419A"/>
<path d="M73.0039 130.973H73.782C74.1391 130.973 74.4285 131.262 74.4285 131.619C74.4285 131.976 74.1391 132.266 73.782 132.266H73.0039V130.973Z" fill="#0C419A"/>
<path d="M73.0039 85.7227H73.782C74.1391 85.7227 74.4285 86.0121 74.4285 86.3691C74.4285 86.7261 74.1391 87.0156 73.782 87.0156H73.0039V85.7227Z" fill="#0C419A"/>
<path d="M73.0039 158.125H73.782C74.1391 158.125 74.4285 158.414 74.4285 158.771C74.4285 159.128 74.1391 159.418 73.782 159.418H73.0039V158.125Z" fill="#0C419A"/>
<path d="M73.0039 26.8945H75.2066C75.5636 26.8945 75.8531 27.184 75.8531 27.541C75.8531 27.898 75.5636 28.1874 75.2066 28.1874H73.0039V26.8945Z" fill="#0C419A"/>
<path d="M73.0039 99.2969H75.2066C75.5636 99.2969 75.8531 99.5863 75.8531 99.9433C75.8531 100.3 75.5636 100.59 75.2066 100.59H73.0039V99.2969Z" fill="#0C419A"/>
<path d="M73.0039 35.9453H75.2066C75.5636 35.9453 75.8531 36.2347 75.8531 36.5918C75.8531 36.9488 75.5636 37.2382 75.2066 37.2382H73.0039V35.9453Z" fill="#0C419A"/>
<path d="M73.0039 108.348H75.2066C75.5636 108.348 75.8531 108.637 75.8531 108.994C75.8531 109.351 75.5636 109.641 75.2066 109.641H73.0039V108.348Z" fill="#0C419A"/>
<path d="M73.0039 44.9961H75.2066C75.5636 44.9961 75.8531 45.2855 75.8531 45.6425C75.8531 45.9996 75.5636 46.289 75.2066 46.289H73.0039V44.9961Z" fill="#0C419A"/>
<path d="M73.0039 117.398H75.2066C75.5636 117.398 75.8531 117.688 75.8531 118.045C75.8531 118.402 75.5636 118.691 75.2066 118.691H73.0039V117.398Z" fill="#0C419A"/>
<path d="M73.0039 72.1484H75.2066C75.5636 72.1484 75.8531 72.4379 75.8531 72.7949C75.8531 73.1519 75.5636 73.4413 75.2066 73.4413H73.0039V72.1484Z" fill="#0C419A"/>
<path d="M73.0039 144.551H75.2066C75.5636 144.551 75.8531 144.84 75.8531 145.197C75.8531 145.554 75.5636 145.844 75.2066 145.844H73.0039V144.551Z" fill="#0C419A"/>
<path d="M73.0039 54.0469H75.2066C75.5636 54.0469 75.8531 54.3363 75.8531 54.6933C75.8531 55.0504 75.5636 55.3398 75.2066 55.3398H73.0039V54.0469Z" fill="#0C419A"/>
<path d="M73.0039 126.449H75.2066C75.5636 126.449 75.8531 126.739 75.8531 127.096C75.8531 127.453 75.5636 127.742 75.2066 127.742H73.0039V126.449Z" fill="#0C419A"/>
<path d="M73.0039 81.1992H75.2066C75.5636 81.1992 75.8531 81.4886 75.8531 81.8457C75.8531 82.2027 75.5636 82.4921 75.2066 82.4921H73.0039V81.1992Z" fill="#0C419A"/>
<path d="M73.0039 153.602H75.2066C75.5636 153.602 75.8531 153.891 75.8531 154.248C75.8531 154.605 75.5636 154.894 75.2066 154.894H73.0039V153.602Z" fill="#0C419A"/>
<path d="M73.0039 63.0977H75.2066C75.5636 63.0977 75.8531 63.3871 75.8531 63.7441C75.8531 64.1011 75.5636 64.3906 75.2066 64.3906H73.0039V63.0977Z" fill="#0C419A"/>
<path d="M73.0039 135.5H75.2066C75.5636 135.5 75.8531 135.789 75.8531 136.146C75.8531 136.503 75.5636 136.793 75.2066 136.793H73.0039V135.5Z" fill="#0C419A"/>
<path d="M73.0039 90.2461H75.2066C75.5636 90.2461 75.8531 90.5355 75.8531 90.8925C75.8531 91.2496 75.5636 91.539 75.2066 91.539H73.0039V90.2461Z" fill="#0C419A"/>
<path d="M73.0039 162.652H75.2066C75.5636 162.652 75.8531 162.942 75.8531 163.299C75.8531 163.656 75.5636 163.945 75.2066 163.945H73.0039V162.652Z" fill="#0C419A"/>
<rect x="72.5273" y="26.8945" width="0.47486" height="137.049" fill="#0C419A"/>
<path d="M66.1113 43.3994C66.1113 42.3504 66.9617 41.5 68.0108 41.5H77.8425C78.8915 41.5 79.7419 42.3504 79.7419 43.3994V55.7797H68.0108C66.9617 55.7797 66.1113 54.9292 66.1113 53.8802V43.3994Z" fill="#A0B2EC"/>
<path d="M79.7419 45.719L107.052 50.4753C107.962 50.6337 108.626 51.4233 108.626 52.3466V53.8802C108.626 54.9292 107.775 55.7797 106.726 55.7797H79.7419V45.719Z" fill="#A0B2EC"/>
<defs>
<filter id="filter0_d_3194_66573" x="64.6211" y="23" width="19.8699" height="141.297" filterUnits="userSpaceOnUse" color-interpolation-filters="sRGB">
<feFlood flood-opacity="0" result="BackgroundImageFix"/>
<feColorMatrix in="SourceAlpha" type="matrix" values="0 0 0 0 0 0 0 0 0 0 0 0 0 0 0 0 0 0 127 0" result="hardAlpha"/>
<feOffset dx="2.20779"/>
<feComposite in2="hardAlpha" operator="out"/>
<feColorMatrix type="matrix" values="0 0 0 0 0.792157 0 0 0 0 0.85098 0 0 0 0 1 0 0 0 1 0"/>
<feBlend mode="normal" in2="BackgroundImageFix" result="effect1_dropShadow_3194_66573"/>
<feBlend mode="normal" in="SourceGraphic" in2="effect1_dropShadow_3194_66573" result="shape"/>
</filter>
</defs>
</svg>
