<svg width="80" height="80" viewBox="0 0 80 80" fill="none" xmlns="http://www.w3.org/2000/svg">
    <defs>
        <clipPath id="clip0_13712_129969">
            <rect x="35.8125" y="33.3965" width="11.2806" height="7.59923" rx="1.08078"
                transform="rotate(15 35.8125 33.3965)" fill="white" />
        </clipPath>
    </defs>
    <path
        d="M6.30071 53.0889C9.36657 60.0075 14.4916 66.3677 20.4359 70.867C32.1131 79.7048 49.5821 77.0365 59.041 65.6434C63.491 60.2829 65.49 52.6168 62.7935 46.0698C60.7985 41.2245 56.3005 38.4925 51.3383 37.6518C47.153 36.943 42.899 37.6586 38.6935 37.2968C32.2637 36.744 27.1257 33.1772 21.0699 31.5003C17.7501 30.5808 13.5854 30.3915 10.4753 32.2228C7.52287 33.9611 5.44738 37.1233 4.67168 40.466C3.6925 44.6848 4.55588 49.1518 6.30071 53.0889Z"
        fill="#A0B2EC" fill-opacity="0.16" />
    <path fill-rule="evenodd" clip-rule="evenodd"
        d="M37.0904 11.1599C47.5874 7.77882 59.5158 0.494761 68.2835 7.14975C77.3585 14.038 77.0284 28.1515 73.8812 39.0854C71.3257 47.9635 62.3686 52.4125 54.0693 56.5325C47.3949 59.8459 40.2369 61.166 33.004 59.3781C24.9617 57.39 16.3287 54.1166 13.2683 46.4469C10.1663 38.6732 13.8646 30.1151 18.5549 23.1675C22.8821 16.7579 29.7138 13.536 37.0904 11.1599Z"
        fill="#A0B2EC" fill-opacity="0.16" />
    <path fill-rule="evenodd" clip-rule="evenodd"
        d="M37.879 10.3453C35.7333 9.77043 33.5279 11.0437 32.953 13.1894L31.6493 18.0548C31.4141 18.0383 31.1925 18.19 31.1292 18.4263L30.1532 22.0685C30.0899 22.3048 30.206 22.547 30.4179 22.6503L30.2179 23.3967C29.9827 23.3802 29.7611 23.5319 29.6978 23.7682L28.7219 27.4104C28.6586 27.6467 28.7746 27.8889 28.9866 27.9922L20.5411 59.5112C19.9662 61.6568 21.2395 63.8623 23.3851 64.4372L41.8771 69.3921C44.0227 69.967 46.2282 68.6937 46.8031 66.5481L56.68 29.6868C56.9149 29.7027 57.1359 29.5512 57.1991 29.3152L58.175 25.673C58.2383 25.437 58.1227 25.1953 57.9113 25.0916L59.215 20.2263C59.7899 18.0806 58.5166 15.8752 56.3709 15.3003L37.879 10.3453Z"
        fill="#262939" />
    <path
        d="M33.6347 13.7762C34.1492 11.8557 36.1233 10.716 38.0437 11.2306L55.7832 15.9838C57.7037 16.4984 58.8434 18.4724 58.3288 20.3929L46.2235 65.5703C45.7089 67.4907 43.7349 68.6304 41.8145 68.1158L24.075 63.3626C22.1545 62.848 21.0148 60.874 21.5294 58.9535L33.6347 13.7762Z"
        fill="#0C419A" />
    <path fill-rule="evenodd" clip-rule="evenodd"
        d="M55.6797 16.3702L37.9402 11.6169C36.2331 11.1595 34.4784 12.1726 34.021 13.8797L21.9158 59.057C21.4584 60.7641 22.4714 62.5188 24.1785 62.9762L41.918 67.7295C43.6251 68.1869 45.3797 67.1738 45.8372 65.4667L57.9424 20.2894C58.3998 18.5823 57.3867 16.8276 55.6797 16.3702ZM38.0437 11.2306C36.1233 10.716 34.1492 11.8557 33.6347 13.7762L21.5294 58.9535C21.0148 60.874 22.1545 62.848 24.075 63.3626L41.8145 68.1158C43.7349 68.6304 45.7089 67.4907 46.2235 65.5703L58.3288 20.3929C58.8434 18.4724 57.7037 16.4984 55.7832 15.9838L38.0437 11.2306Z"
        fill="black" />
    <path
        d="M48.7031 36.3029C48.8563 35.7311 48.517 35.1434 47.9452 34.9902L35.3306 31.6101C34.7588 31.4569 34.1711 31.7962 34.0179 32.368L31.7745 40.7402C31.6213 41.312 31.9606 41.8997 32.5324 42.0529L45.147 45.433C45.7188 45.5862 46.3065 45.2469 46.4597 44.6751L48.7031 36.3029Z"
        fill="white" />
    <path
        d="M33.2541 42.0714L37.9044 43.3174L33.6287 44.7058C33.1189 44.8713 32.6286 44.4059 32.7673 43.8882L33.2541 42.0714Z"
        fill="white" />
    <g clip-path="url(#clip0_13712_129969)">
        <path
            d="M36.5555 36.8786L37.4008 37.1051L37.4594 36.8865L36.3887 36.5996L35.9282 38.3182L36.9989 38.6051L37.0574 38.3865L36.2122 38.16L36.4038 37.4449L37.2536 37.6726L37.3122 37.4541L36.4623 37.2264L36.5555 36.8786Z"
            fill="#D81E7E" />
        <path
            d="M38.4326 38.4302C38.4999 38.179 38.408 37.9558 38.1596 37.7672C37.8809 37.5492 37.8669 37.4958 37.8959 37.3875C37.9168 37.3095 37.9736 37.2254 38.1257 37.2661C38.2486 37.2991 38.2891 37.361 38.2744 37.4941L38.267 37.5593L38.498 37.5781L38.5034 37.5149C38.5244 37.2747 38.4092 37.103 38.1874 37.0435C37.9466 36.979 37.7329 37.1032 37.6681 37.3453C37.6373 37.4601 37.6513 37.5775 37.7087 37.6765C37.7566 37.7561 37.8108 37.8122 37.9499 37.9271C38.0734 38.0263 38.1258 38.0784 38.1652 38.1404C38.2114 38.221 38.2223 38.3029 38.1987 38.391C38.1486 38.5779 37.9645 38.6793 37.7701 38.6272C37.5795 38.5761 37.4685 38.4149 37.5122 38.2518L37.5625 38.0642L37.3416 38.005L37.2914 38.1926C37.2175 38.4683 37.4073 38.7688 37.7058 38.8488C38.0221 38.9342 38.3479 38.7464 38.4326 38.4302Z"
            fill="#D81E7E" />
        <path
            d="M38.885 38.5676L39.2856 38.675C39.6004 38.7593 39.9757 38.5501 40.0577 38.2441C40.0962 38.1005 40.0652 37.9083 39.9804 37.7653C39.9389 37.6972 39.8836 37.6359 39.8157 37.5827C39.7383 37.519 39.6626 37.4767 39.5902 37.4573L38.9844 37.2949L38.5238 39.0139L38.7492 39.0743L38.885 38.5676ZM39.1511 37.5742L39.5276 37.6751C39.7612 37.7377 39.8914 37.9551 39.8308 38.1812C39.773 38.3972 39.5621 38.5148 39.3399 38.4552L38.9435 38.349L39.1511 37.5742Z"
            fill="#D81E7E" />
        <path
            d="M44.4012 40.3553L43.5559 40.1288L43.7475 39.4137L44.597 39.6413L44.6556 39.4227L43.8061 39.1951L43.8993 38.8473L44.7446 39.0738L44.8031 38.8553L43.7324 38.5684L43.2719 40.287L44.3426 40.5739L44.4012 40.3553Z"
            fill="#D81E7E" />
        <path
            d="M42.9996 39.8197C42.7585 39.9107 42.6311 39.9266 42.4752 39.8848C42.1812 39.806 41.9872 39.5568 41.9673 39.2696C41.9668 39.2597 41.9655 39.2503 41.965 39.2404C41.9648 39.2396 41.965 39.239 41.9651 39.2386C41.9634 39.1704 41.9717 39.1005 41.9901 39.0303C42.0089 38.9602 42.0371 38.8953 42.0726 38.8374C42.0731 38.8368 42.0732 38.8365 42.0734 38.8358C42.0784 38.8274 42.0844 38.8195 42.09 38.8116C42.251 38.5733 42.5435 38.4541 42.8374 38.5329C42.9934 38.5746 43.0957 38.6521 43.2591 38.8514L43.3006 38.9024L43.4742 38.7517L43.4353 38.7039C43.2466 38.4712 43.1007 38.3646 42.8971 38.31C42.8965 38.3099 42.8958 38.3097 42.8948 38.3094C42.6613 38.2468 42.4142 38.2817 42.1997 38.4074C41.9856 38.5329 41.8329 38.7322 41.7697 38.9681C41.7695 38.9691 41.7691 38.9704 41.7689 38.9714C41.7686 38.9723 41.7682 38.9737 41.768 38.9746C41.7048 39.2105 41.7375 39.4591 41.86 39.6752C41.9828 39.8916 42.1791 40.045 42.413 40.1076C42.4137 40.1078 42.4146 40.1081 42.4153 40.1082C42.6189 40.1628 42.7986 40.1431 43.0783 40.0362L43.1359 40.0143L43.061 39.797L42.9996 39.8197Z"
            fill="#D81E7E" />
        <path
            d="M41.112 37.8171C40.7114 37.7098 40.2802 37.9656 40.1703 38.3757L39.9007 39.3821L40.1261 39.4425L40.3001 38.793L41.3141 39.0647L41.14 39.7142L41.3674 39.7751L41.6318 38.7886C41.7464 38.3606 41.5132 37.9247 41.112 37.8171ZM40.3585 38.5751L40.3958 38.4361C40.4759 38.1369 40.7641 37.9631 41.0522 38.0403C41.3422 38.118 41.49 38.4069 41.404 38.7276L41.3721 38.8467L40.3585 38.5751Z"
            fill="#D81E7E" />
        <path
            d="M44.4576 40.9642L44.5803 40.8611L44.2887 40.7829L44.1711 40.8874L43.6945 40.7597L43.2339 42.4787L44.3046 42.7655L44.3633 42.5466L43.518 42.3202L43.7096 41.605L44.5588 41.8326L44.6174 41.614L43.7682 41.3865L43.8614 41.0387L44.7106 41.2662L44.7691 41.0477L44.4576 40.9642Z"
            fill="#D81E7E" />
        <path
            d="M41.4381 40.1062C41.0375 39.9989 40.6064 40.2547 40.4965 40.6647L40.2268 41.6712L40.4523 41.7316L40.7219 40.7251C40.8021 40.426 41.0903 40.2522 41.3783 40.3293C41.6684 40.4071 41.8161 40.696 41.7302 41.0166L41.4659 42.0032L41.6933 42.0641L41.9576 41.0776C42.0723 40.6496 41.8394 40.2137 41.4381 40.1062Z"
            fill="#D81E7E" />
        <path
            d="M42.1074 40.5682L42.6738 40.7199L42.2718 42.2203L42.5018 42.2819L42.9038 40.7816L43.4835 40.9369L43.5421 40.7183L42.166 40.3496L42.1074 40.5682Z"
            fill="#D81E7E" />
        <path
            d="M39.7018 39.6414C39.3012 39.534 38.8701 39.7898 38.7602 40.1999L38.4905 41.2063L38.7159 41.2667L38.89 40.6172L39.9039 40.8889L39.7299 41.5384L39.9573 41.5993L40.2216 40.6128C40.3363 40.1848 40.1031 39.7489 39.7018 39.6414ZM39.9623 40.671L38.9484 40.3993L38.9856 40.2603C39.0658 39.9611 39.354 39.7873 39.642 39.8645C39.932 39.9422 40.0798 40.2311 39.9939 40.5518L39.962 40.6709L39.9623 40.671Z"
            fill="#D81E7E" />
        <path
            d="M38.4007 40.6234C38.468 40.3722 38.3761 40.149 38.1277 39.9604C37.849 39.7424 37.835 39.6889 37.864 39.5806C37.8849 39.5027 37.9417 39.4186 38.0937 39.4593C38.2167 39.4923 38.2572 39.5542 38.2425 39.6873L38.2351 39.7525L38.4661 39.7713L38.4715 39.7081C38.4925 39.4679 38.3773 39.2961 38.1555 39.2367C37.9147 39.1722 37.701 39.2964 37.6362 39.5385C37.6054 39.6533 37.6194 39.7707 37.6768 39.8696C37.7247 39.9493 37.7789 40.0054 37.918 40.1203C38.0415 40.2195 38.0939 40.2716 38.1333 40.3336C38.1795 40.4141 38.1904 40.4961 38.1668 40.5842C38.1167 40.7711 37.9326 40.8725 37.7381 40.8204C37.5476 40.7693 37.4366 40.6081 37.4803 40.445L37.5306 40.2574L37.3104 40.1984L37.2601 40.386C37.1863 40.6616 37.376 40.9621 37.6745 41.0421C37.9902 41.1274 38.316 40.9395 38.4007 40.6234Z"
            fill="#D81E7E" />
        <path
            d="M39.168 37.0892C39.4048 37.1526 39.6544 37.1177 39.8705 36.991C40.0862 36.8646 40.2402 36.6632 40.3043 36.424C40.3676 36.1875 40.3336 35.9385 40.2084 35.7221C40.0829 35.5053 39.8824 35.3508 39.6439 35.2869C39.1581 35.1568 38.637 35.4612 38.5056 35.9515C38.3756 36.437 38.6789 36.9581 39.168 37.0892ZM39.5865 35.5103C39.9662 35.6121 40.1843 35.9884 40.0829 36.3668C39.9804 36.7491 39.6046 36.9694 39.2272 36.8683C38.8461 36.7662 38.6271 36.3897 38.7285 36.0112C38.8312 35.629 39.208 35.4089 39.5865 35.5103Z"
            fill="#0C419A" />
        <path
            d="M45.3284 38.9493C45.3966 38.6948 45.2452 38.4326 44.9907 38.3644L41.9232 37.5372L42.1301 36.765C42.2448 36.337 41.8882 35.868 41.487 35.7605C41.0864 35.6531 40.6552 35.909 40.5453 36.319L40.2757 37.3255L40.5011 37.3859L40.7708 36.3794C40.8509 36.0803 41.1391 35.9065 41.4272 35.9836C41.7172 36.0614 41.9886 36.3834 41.9027 36.7041L41.6369 37.6958L44.9339 38.5765C45.0657 38.6118 45.1386 38.7575 45.1033 38.889L44.6311 40.6513L44.8562 40.7116L45.3284 38.9493Z"
            fill="#0C419A" />
        <path
            d="M35.341 40.1294C35.2092 40.0941 35.1346 39.9549 35.1699 39.8231L36.4528 35.0352C36.509 34.8255 36.6902 34.7167 36.8938 34.7712C37.1209 34.8321 37.2473 35.0453 37.1878 35.2675L36.8801 36.4158L37.1075 36.4768L37.4157 35.3265C37.4532 35.1865 37.4943 35.1269 37.591 35.0727C37.6859 35.0212 37.7967 35.0086 37.9037 35.0373C38.1144 35.0937 38.2282 35.3047 38.1683 35.5281L37.8601 36.6784L38.0855 36.7388L38.3991 35.5686C38.4847 35.2503 38.2825 34.8972 37.9667 34.8125C37.8117 34.771 37.632 34.7956 37.4863 34.8775C37.4486 34.8982 37.4203 34.9176 37.3909 34.9439C37.3805 34.9163 37.369 34.8912 37.3521 34.8605L37.3506 34.858C37.3091 34.7898 37.2584 34.7273 37.2036 34.6773L37.201 34.6752C37.1314 34.6181 37.0495 34.5766 36.9578 34.552C36.6297 34.4637 36.3118 34.6611 36.2182 35.0101L35.4714 37.7975L34.9448 39.7627C34.8766 40.0172 35.028 40.2795 35.2825 40.3476L36.9955 40.8067L37.0541 40.5881L35.341 40.1294Z"
            fill="#0C419A" />
    </g>
    <ellipse cx="46.4181" cy="15.7568" rx="1.01664" ry="1.01664"
        transform="rotate(15 46.4181 15.7568)" fill="#E7ECFA" />
    <defs>
        <clipPath id="clip0_13712_129969">
            <rect x="35.8125" y="33.3965" width="11.2806" height="7.59923" rx="1.08078"
                transform="rotate(15 35.8125 33.3965)" fill="white" />
        </clipPath>
    </defs>
</svg>
