<svg width="160" height="160" viewBox="0 0 160 160" fill="none" xmlns="http://www.w3.org/2000/svg">
<path d="M145.042 99.9798C136.26 115.738 122.71 129.723 107.619 139.113C77.9756 157.555 37.0835 147.422 17.1048 118.318C7.70561 104.624 4.62674 85.9901 12.4517 71.0335C18.2414 59.9642 29.5141 54.4562 41.4773 53.5393C51.5675 52.7665 61.511 55.3903 71.5739 55.4457C86.9586 55.5314 99.9321 48.1808 114.673 45.5163C122.755 44.0552 132.683 44.5111 139.668 49.5351C146.3 54.3036 150.539 62.2621 151.654 70.3665C153.062 80.5952 150.041 91.0124 145.042 99.9798Z" fill="#A0B2EC" fill-opacity="0.16"/>
<path fill-rule="evenodd" clip-rule="evenodd" d="M49.4465 97.2407C36.0069 81.2383 14.6947 65.515 20.1031 45.3703C25.7012 24.5196 50.7037 15.0065 72.1413 12.7103C89.548 10.8459 103.76 23.3824 116.925 34.9999C127.512 44.3428 134.948 55.9598 136.982 69.9306C139.245 85.4651 139.674 102.955 128.404 113.81C116.98 124.813 99.3181 124.443 83.7723 121.18C69.4302 118.17 58.891 108.486 49.4465 97.2407Z" fill="#A0B2EC" fill-opacity="0.16"/>
<path fill-rule="evenodd" clip-rule="evenodd" d="M75.758 20.6919C71.4667 19.5421 67.0558 22.0887 65.906 26.38L63.2986 36.1108C62.8281 36.0779 62.385 36.3812 62.2583 36.8538L60.3065 44.1382C60.1799 44.6109 60.4119 45.0951 60.8359 45.3019L60.4359 46.7946C59.9654 46.7617 59.5223 47.065 59.3956 47.5377L57.4438 54.8221C57.3171 55.2947 57.5492 55.7789 57.9731 55.9857L41.0822 119.024C39.9323 123.315 42.479 127.726 46.7702 128.876L83.7541 138.785C88.0454 139.935 92.4563 137.389 93.6061 133.097L113.36 59.3748C113.83 59.4067 114.272 59.1035 114.398 58.6316L116.35 51.3472C116.477 50.8753 116.245 50.3918 115.823 50.1845L118.43 40.4537C119.58 36.1625 117.033 31.7516 112.742 30.6017L75.758 20.6919Z" fill="#262939"/>
<path d="M67.2693 27.5528C68.2985 23.7118 72.2465 21.4325 76.0875 22.4616L111.566 31.9682C115.407 32.9974 117.687 36.9454 116.658 40.7863L92.4471 131.141C91.4179 134.982 87.4699 137.261 83.6289 136.232L48.15 126.726C44.3091 125.696 42.0297 121.748 43.0589 117.907L67.2693 27.5528Z" fill="#0C419A"/>
<path fill-rule="evenodd" clip-rule="evenodd" d="M111.359 32.7409L75.8804 23.2344C72.4662 22.3196 68.9569 24.3457 68.0421 27.7599L43.8316 118.115C42.9168 121.529 44.9429 125.038 48.3571 125.953L83.836 135.459C87.2501 136.374 90.7595 134.348 91.6743 130.934L115.885 40.5793C116.8 37.1651 114.773 33.6557 111.359 32.7409ZM76.0875 22.4616C72.2465 21.4325 68.2985 23.7118 67.2693 27.5528L43.0589 117.907C42.0297 121.748 44.3091 125.696 48.15 126.726L83.6289 136.232C87.4699 137.261 91.4179 134.982 92.4471 131.141L116.658 40.7863C117.687 36.9454 115.407 32.9974 111.566 31.9682L76.0875 22.4616Z" fill="black"/>
<path d="M93.6797 83.3631C91.5383 90.6491 83.8958 94.8197 76.6097 92.6783C69.3237 90.5369 65.1531 82.8944 67.2945 75.6083C69.4359 68.3223 77.0784 64.1517 84.3645 66.2931C91.6505 68.4345 95.8211 76.077 93.6797 83.3631Z" fill="#D81E7E"/>
<path fill-rule="evenodd" clip-rule="evenodd" d="M96.314 84.138C93.7443 92.8812 84.5734 97.8859 75.8301 95.3162C67.0868 92.7465 62.0822 83.5756 64.6519 74.8323C67.2215 66.089 76.3925 61.0844 85.1358 63.6541C93.879 66.2237 98.8837 75.3947 96.314 84.138ZM76.6056 92.6777C83.8916 94.8191 91.5341 90.6486 93.6755 83.3625C95.8169 76.0764 91.6464 68.434 84.3603 66.2926C77.0742 64.1512 69.4318 68.3217 67.2904 75.6078C65.149 82.8938 69.3195 90.5363 76.6056 92.6777Z" fill="white"/>
<path fill-rule="evenodd" clip-rule="evenodd" d="M86.1473 77.8722C85.2386 78.0924 84.3249 77.6993 83.8415 76.9585L77.5587 78.481C77.5588 78.5014 77.5586 78.5219 77.5581 78.5424C77.5478 78.9692 77.4137 79.364 77.1911 79.6931L81.7215 84.447C82.529 84.0851 83.5106 84.2488 84.1559 84.9259C84.9745 85.7848 84.9418 87.1448 84.0828 87.9634C83.2238 88.7821 81.8638 88.7493 81.0452 87.8904C80.3997 87.213 80.2835 86.2242 80.6844 85.4349L76.0282 80.5491C75.8165 80.6126 75.5914 80.6443 75.3585 80.6387C74.1722 80.6101 73.2337 79.6253 73.2623 78.4391C73.2908 77.2528 74.2756 76.3143 75.4618 76.3428C76.1113 76.3585 76.6865 76.6607 77.0694 77.1257L83.5032 75.5667C83.5928 74.6856 84.2257 73.9164 85.1353 73.696C86.2885 73.4165 87.45 74.1249 87.7294 75.2781C88.0089 76.4313 87.3005 77.5927 86.1473 77.8722Z" fill="white"/>
<circle cx="92.8362" cy="31.5142" r="2.03327" transform="rotate(15 92.8362 31.5142)" fill="#E7ECFA"/>
</svg>
