<svg width="56" height="56" viewBox="0 0 56 56" fill="none" xmlns="http://www.w3.org/2000/svg">
<path d="M49.8524 14.4946C51.8286 20.754 52.1452 27.8318 50.861 34.1696C48.3376 46.619 35.4443 54.9085 22.7538 52.9264C16.7832 51.9936 11.0837 48.1546 9.08041 42.3489C7.5974 38.0526 8.95517 33.6943 11.7002 30.2999C14.0156 27.437 17.1932 25.4612 19.7209 22.8125C23.5857 18.7631 24.8807 13.4946 27.8571 8.92865C29.4887 6.42545 32.0889 3.91226 35.1627 3.31866C38.0805 2.7549 41.2451 3.62059 43.6679 5.34957C46.7259 7.53168 48.7278 10.9326 49.8524 14.4946Z" fill="#A0B2EC" fill-opacity="0.16"/>
<path fill-rule="evenodd" clip-rule="evenodd" d="M19.8325 36.9597C13.4932 32.7615 4.43577 29.4723 4.24616 21.8857C4.04989 14.0331 11.7933 8.13607 19.0368 5.12478C24.9183 2.67971 31.1699 5.58887 36.9612 8.28534C41.6186 10.4539 45.4106 13.7409 47.5609 18.406C49.9519 23.5932 51.9047 29.6517 49.0912 34.6013C46.2396 39.618 40.0386 41.3098 34.2778 41.7742C28.9631 42.2026 24.2873 39.9099 19.8325 36.9597Z" fill="#A0B2EC" fill-opacity="0.16"/>
<path fill-rule="evenodd" clip-rule="evenodd" d="M24.8995 7.24174C23.3975 6.8393 21.8537 7.73062 21.4513 9.23256L20.5387 12.6383C20.374 12.6268 20.2189 12.733 20.1746 12.8984L19.4915 15.448C19.4471 15.6134 19.5284 15.7829 19.6767 15.8552L19.5367 16.3777C19.3721 16.3662 19.217 16.4723 19.1726 16.6378L18.4895 19.1873C18.4452 19.3527 18.5264 19.5222 18.6748 19.5946L12.7629 41.6578C12.3605 43.1598 13.2518 44.7036 14.7538 45.106L27.6981 48.5745C29.2001 48.9769 30.7439 48.0856 31.1463 46.5836L38.0602 20.7808C38.2246 20.7919 38.3793 20.6858 38.4236 20.5206L39.1067 17.9711C39.151 17.8059 39.07 17.6367 38.9221 17.5641L39.8347 14.1584C40.2371 12.6564 39.3458 11.1126 37.8438 10.7102L24.8995 7.24174Z" fill="#262939"/>
<path d="M21.9288 9.64311C22.289 8.29878 23.6709 7.50099 25.0152 7.86121L37.4328 11.1885C38.7771 11.5487 39.5749 12.9305 39.2147 14.2749L30.741 45.899C30.3808 47.2433 28.999 48.0411 27.6547 47.6809L15.2371 44.3536C13.8927 43.9934 13.095 42.6116 13.4552 41.2673L21.9288 9.64311Z" fill="#0C419A"/>
<path fill-rule="evenodd" clip-rule="evenodd" d="M37.3603 11.459L24.9427 8.13167C23.7478 7.81148 22.5195 8.52062 22.1993 9.71558L13.7256 41.3397C13.4054 42.5347 14.1146 43.763 15.3095 44.0831L27.7272 47.4104C28.9221 47.7306 30.1504 47.0215 30.4706 45.8265L38.9442 14.2024C39.2644 13.0074 38.5553 11.7791 37.3603 11.459ZM25.0152 7.86121C23.6709 7.50099 22.289 8.29878 21.9288 9.64311L13.4552 41.2673C13.095 42.6116 13.8927 43.9934 15.2371 44.3536L27.6547 47.6809C28.999 48.0411 30.3808 47.2433 30.741 45.899L39.2147 14.2749C39.5749 12.9305 38.7771 11.5487 37.4328 11.1885L25.0152 7.86121Z" fill="black"/>
<path d="M32.4767 25.4122C32.584 25.012 32.3464 24.6006 31.9462 24.4933L23.116 22.1273C22.7157 22.02 22.3043 22.2575 22.1971 22.6578L20.6267 28.5183C20.5195 28.9186 20.757 29.33 21.1573 29.4372L29.9875 31.8033C30.3877 31.9105 30.7991 31.673 30.9064 31.2728L32.4767 25.4122Z" fill="white"/>
<path d="M21.6625 29.4502L24.9177 30.3224L21.9246 31.2942C21.5678 31.4101 21.2246 31.0843 21.3217 30.722L21.6625 29.4502Z" fill="white"/>
<g clip-path="url(#clip0_56233_5686)">
<path d="M23.9752 25.8144L24.5669 25.973L24.6079 25.82L23.8584 25.6191L23.536 26.8222L24.2855 27.023L24.3265 26.87L23.7348 26.7114L23.869 26.2109L24.4639 26.3703L24.5049 26.2173L23.91 26.0579L23.9752 25.8144Z" fill="#D81E7E"/>
<path d="M25.2882 26.8998C25.3353 26.724 25.271 26.5677 25.0971 26.4357C24.902 26.2831 24.8922 26.2457 24.9125 26.1699C24.9271 26.1153 24.9669 26.0564 25.0733 26.0849C25.1594 26.108 25.1877 26.1513 25.1774 26.2445L25.1723 26.2901L25.334 26.3033L25.3377 26.2591C25.3524 26.0909 25.2718 25.9707 25.1165 25.9291C24.948 25.8839 24.7984 25.9709 24.753 26.1403C24.7315 26.2207 24.7413 26.3029 24.7814 26.3722C24.815 26.4279 24.8529 26.4672 24.9503 26.5476C25.0367 26.617 25.0734 26.6535 25.101 26.6969C25.1333 26.7533 25.141 26.8107 25.1245 26.8723C25.0894 27.0032 24.9605 27.0741 24.8244 27.0377C24.691 27.0019 24.6133 26.8891 24.6439 26.7749L24.6791 26.6436L24.5245 26.6022L24.4893 26.7335C24.4376 26.9264 24.5704 27.1368 24.7794 27.1928C25.0008 27.2526 25.2289 27.1211 25.2882 26.8998Z" fill="#D81E7E"/>
<path d="M25.6052 26.9964L25.8857 27.0715C26.106 27.1305 26.3687 26.9841 26.4261 26.7699C26.4531 26.6694 26.4313 26.5348 26.372 26.4347C26.3429 26.387 26.3043 26.3441 26.2567 26.3069C26.2026 26.2623 26.1496 26.2327 26.0989 26.2191L25.6748 26.1055L25.3524 27.3087L25.5102 27.351L25.6052 26.9964ZM25.7915 26.301L26.0551 26.3716C26.2186 26.4154 26.3097 26.5676 26.2673 26.7259C26.2268 26.877 26.0792 26.9594 25.9237 26.9177L25.6462 26.8433L25.7915 26.301Z" fill="#D81E7E"/>
<path d="M29.4672 28.2489L28.8755 28.0903L29.0096 27.5898L29.6043 27.7491L29.6453 27.5961L29.0506 27.4368L29.1158 27.1933L29.7075 27.3519L29.7485 27.1989L28.999 26.998L28.6767 28.2011L29.4262 28.4019L29.4672 28.2489Z" fill="#D81E7E"/>
<path d="M28.4859 27.8736C28.317 27.9373 28.2279 27.9484 28.1188 27.9191C27.913 27.864 27.7772 27.6896 27.7632 27.4886C27.7629 27.4816 27.7619 27.475 27.7616 27.4681C27.7615 27.4675 27.7616 27.4671 27.7617 27.4669C27.7605 27.4191 27.7663 27.3702 27.7792 27.321C27.7924 27.2719 27.8121 27.2265 27.8369 27.186C27.8373 27.1856 27.8374 27.1853 27.8375 27.1849C27.841 27.179 27.8452 27.1735 27.8491 27.1679C27.9619 27.0011 28.1666 26.9177 28.3723 26.9728C28.4815 27.002 28.5531 27.0562 28.6675 27.1958L28.6966 27.2315L28.8181 27.126L28.7908 27.0925C28.6588 26.9296 28.5566 26.855 28.4141 26.8168C28.4137 26.8167 28.4132 26.8166 28.4125 26.8164C28.249 26.7726 28.076 26.797 27.9259 26.885C27.7761 26.9729 27.6692 27.1124 27.6249 27.2775C27.6248 27.2782 27.6245 27.2791 27.6243 27.2798C27.6241 27.2804 27.6239 27.2814 27.6237 27.282C27.5795 27.4472 27.6024 27.6212 27.6881 27.7724C27.7741 27.924 27.9115 28.0313 28.0752 28.0751C28.0757 28.0753 28.0764 28.0755 28.0768 28.0756C28.2193 28.1138 28.3452 28.1 28.5409 28.0252L28.5813 28.0098L28.5288 27.8577L28.4859 27.8736Z" fill="#D81E7E"/>
<path d="M27.1657 26.4726C26.8853 26.3974 26.5835 26.5765 26.5065 26.8636L26.3178 27.5681L26.4756 27.6103L26.5974 27.1557L27.3072 27.3459L27.1853 27.8005L27.3445 27.8432L27.5295 27.1526C27.6098 26.853 27.4466 26.5478 27.1657 26.4726ZM26.6383 27.0031L26.6643 26.9058C26.7204 26.6964 26.9222 26.5748 27.1238 26.6288C27.3268 26.6832 27.4303 26.8854 27.3701 27.1099L27.3478 27.1932L26.6383 27.0031Z" fill="#D81E7E"/>
<path d="M29.5064 28.6734L29.5924 28.6012L29.3882 28.5465L29.3059 28.6196L28.9723 28.5302L28.6499 29.7335L29.3994 29.9343L29.4404 29.7811L28.8487 29.6225L28.9829 29.122L29.5773 29.2812L29.6183 29.1282L29.0239 28.969L29.0891 28.7255L29.6835 28.8848L29.7245 28.7318L29.5064 28.6734Z" fill="#D81E7E"/>
<path d="M27.3932 28.0741C27.1128 27.999 26.811 28.1781 26.7341 28.4651L26.5453 29.1696L26.7031 29.2119L26.8919 28.5074C26.948 28.298 27.1497 28.1763 27.3514 28.2303C27.5544 28.2847 27.6578 28.487 27.5977 28.7115L27.4126 29.402L27.5718 29.4447L27.7568 28.7541C27.8371 28.4545 27.6741 28.1494 27.3932 28.0741Z" fill="#D81E7E"/>
<path d="M27.8613 28.3971L28.2578 28.5034L27.9764 29.5536L28.1374 29.5968L28.4188 28.5465L28.8246 28.6552L28.8656 28.5022L27.9023 28.2441L27.8613 28.3971Z" fill="#D81E7E"/>
<path d="M26.1774 27.7499C25.897 27.6748 25.5952 27.8539 25.5183 28.1409L25.3295 28.8454L25.4873 28.8877L25.6091 28.433L26.3189 28.6232L26.197 29.0779L26.3562 29.1205L26.5413 28.4299C26.6215 28.1303 26.4583 27.8252 26.1774 27.7499ZM26.3597 28.4707L25.65 28.2805L25.6761 28.1832C25.7322 27.9738 25.9339 27.8521 26.1355 27.9061C26.3386 27.9605 26.442 28.1628 26.3819 28.3872L26.3595 28.4706L26.3597 28.4707Z" fill="#D81E7E"/>
<path d="M25.2672 28.4368C25.3143 28.2609 25.25 28.1047 25.0761 27.9727C24.881 27.82 24.8712 27.7827 24.8915 27.7068C24.9062 27.6523 24.9459 27.5934 25.0523 27.6219C25.1384 27.645 25.1667 27.6883 25.1564 27.7815L25.1513 27.8271L25.313 27.8403L25.3168 27.7961C25.3315 27.6279 25.2509 27.5077 25.0956 27.4661C24.927 27.4209 24.7774 27.5079 24.732 27.6773C24.7105 27.7577 24.7203 27.8399 24.7605 27.9091C24.794 27.9649 24.8319 28.0042 24.9293 28.0846C25.0157 28.154 25.0525 28.1905 25.08 28.2339C25.1124 28.2903 25.12 28.3477 25.1035 28.4093C25.0684 28.5402 24.9395 28.6111 24.8034 28.5746C24.6701 28.5389 24.5924 28.4261 24.623 28.3119L24.6581 28.1806L24.504 28.1393L24.4688 28.2706C24.4171 28.4635 24.5499 28.6739 24.7589 28.7299C24.9798 28.7896 25.2079 28.6581 25.2672 28.4368Z" fill="#D81E7E"/>
<path d="M25.8037 25.9608C25.9695 26.0053 26.1442 25.9809 26.2955 25.8922C26.4465 25.8036 26.5543 25.6626 26.5991 25.4953C26.6435 25.3297 26.6197 25.1554 26.532 25.0039C26.4442 24.8521 26.3038 24.744 26.1369 24.6993C25.7968 24.6082 25.4321 24.8213 25.3401 25.1645C25.249 25.5043 25.4614 25.8691 25.8037 25.9608ZM26.0967 24.8557C26.3625 24.9269 26.5151 25.1903 26.4441 25.4552C26.3724 25.7228 26.1094 25.877 25.8451 25.8062C25.5784 25.7348 25.4251 25.4712 25.4961 25.2063C25.568 24.9387 25.8318 24.7847 26.0967 24.8557Z" fill="#0C419A"/>
<path d="M30.1164 27.2653C30.1642 27.0872 30.0582 26.9036 29.88 26.8559L27.7327 26.2768L27.8776 25.7363C27.9579 25.4367 27.7083 25.1084 27.4274 25.0331C27.147 24.958 26.8452 25.1371 26.7683 25.4241L26.5795 26.1286L26.7373 26.1709L26.9261 25.4664C26.9822 25.257 27.1839 25.1353 27.3855 25.1893C27.5886 25.2437 27.7786 25.4691 27.7184 25.6936L27.5324 26.3879L29.8403 27.0043C29.9325 27.029 29.9835 27.131 29.9589 27.2231L29.6283 28.4567L29.7859 28.4989L30.1164 27.2653Z" fill="#0C419A"/>
<path d="M23.1248 28.0908C23.0325 28.066 22.9803 27.9686 23.0051 27.8763L23.9031 24.5249C23.9424 24.378 24.0693 24.3019 24.2118 24.3401C24.3707 24.3826 24.4592 24.5319 24.4176 24.6874L24.2022 25.4913L24.3614 25.5339L24.5771 24.7287C24.6034 24.6307 24.6322 24.589 24.6998 24.5511C24.7663 24.5151 24.8438 24.5062 24.9187 24.5263C25.0662 24.5658 25.1459 24.7135 25.1039 24.8699L24.8882 25.6751L25.046 25.7174L25.2655 24.8982C25.3254 24.6754 25.1839 24.4282 24.9628 24.369C24.8543 24.3399 24.7286 24.3571 24.6266 24.4145C24.6002 24.4289 24.5804 24.4425 24.5598 24.461C24.5525 24.4416 24.5444 24.424 24.5326 24.4025L24.5316 24.4008C24.5025 24.3531 24.467 24.3093 24.4287 24.2743L24.4268 24.2728C24.3781 24.2329 24.3208 24.2038 24.2566 24.1866C24.0269 24.1248 23.8044 24.263 23.7389 24.5073L23.2161 26.4584L22.8475 27.8341C22.7998 28.0122 22.9057 28.1958 23.0839 28.2435L24.283 28.5649L24.324 28.4119L23.1248 28.0908Z" fill="#0C419A"/>
</g>
<path d="M31.5646 11.214C31.4629 11.5936 31.0727 11.8189 30.693 11.7172C30.3134 11.6155 30.0881 11.2252 30.1898 10.8456C30.2916 10.466 30.6818 10.2407 31.0614 10.3424C31.4411 10.4441 31.6664 10.8343 31.5646 11.214Z" fill="#E7ECFA"/>
<path d="M33.0907 38.4924H31.7246V36.4245C31.7246 33.3927 34.1194 30.9258 37.0634 30.9258C40.0073 30.9258 42.4021 33.3927 42.4021 36.4245V38.4924H41.0361V36.4245C41.0361 34.1456 39.2541 32.2918 37.0637 32.2918C34.8734 32.2918 33.0914 34.1456 33.0914 36.4245V38.4924H33.0907Z" fill="#A0B2EC"/>
<mask id="mask0_56233_5686" style="mask-type:alpha" maskUnits="userSpaceOnUse" x="31" y="30" width="12" height="9">
<path d="M33.0907 38.4924H31.7246V36.4245C31.7246 33.3927 34.1194 30.9258 37.0634 30.9258C40.0073 30.9258 42.4021 33.3927 42.4021 36.4245V38.4924H41.0361V36.4245C41.0361 34.1456 39.2541 32.2918 37.0637 32.2918C34.8734 32.2918 33.0914 34.1456 33.0914 36.4245V38.4924H33.0907Z" fill="#A0B2EC"/>
</mask>
<g mask="url(#mask0_56233_5686)">
<path opacity="0.2" d="M42.6868 36.3556C42.6868 33.3618 40.2946 30.9258 37.3535 30.9258C39.5417 30.9258 42.0018 33.1413 42.0018 36.3556V37.3441C42.0018 38.1349 41.3527 38.1716 41.0281 38.1716H42.6868V36.3556Z" fill="#495574"/>
</g>
<path d="M29.96 39.496C29.96 38.7647 30.5528 38.1719 31.2841 38.1719H42.8701C43.6014 38.1719 44.1942 38.7647 44.1942 39.496V47.1097C44.1942 47.841 43.6014 48.4338 42.8701 48.4338H31.2841C30.5528 48.4338 29.96 47.841 29.96 47.1097V39.496Z" fill="#F0B323"/>
<path opacity="0.5" d="M38.6043 42.4397C38.6043 41.6466 37.9621 41.0039 37.17 41.0039C36.3779 41.0039 35.7354 41.6466 35.7354 42.4397C35.7354 42.9847 36.0391 43.3725 36.486 43.6154L36.3055 45.6567H38.0893L37.8913 43.7021C38.3386 43.4588 38.6043 42.9847 38.6043 42.4397Z" fill="#F9FAFF"/>
<path opacity="0.3" d="M38.3861 42.4042C38.3861 41.6307 37.7593 41.0039 36.9862 41.0039C36.2131 41.0039 35.5859 41.6307 35.5859 42.4042C35.5859 42.9356 35.9037 43.4337 36.3399 43.6705L36.1612 45.667H37.8108L37.6534 43.6352C38.09 43.398 38.3861 42.9356 38.3861 42.4042Z" fill="#495574"/>
<path d="M38.4964 42.4042C38.4964 41.6307 37.8697 41.0039 37.0965 41.0039C36.3234 41.0039 35.6963 41.6307 35.6963 42.4042C35.6963 42.9356 35.9927 43.3984 36.429 43.6352L36.2715 45.667H37.9212L37.7637 43.6352C38.2003 43.398 38.4964 42.9356 38.4964 42.4042Z" fill="#262939"/>
<path opacity="0.2" d="M31.7246 38.1719V36.5352C31.7246 37.4179 31.9821 38.1719 33.0855 38.1719H31.7246Z" fill="#495574"/>
<path opacity="0.2" d="M42.9076 38.1719H42.0617C42.7532 38.1719 43.68 38.227 43.68 39.4592C43.68 42.1565 43.5881 45.0683 43.5881 46.9257C43.5881 48.7832 34.3928 48.3602 33.5469 48.4338H42.7789C43.7536 48.4338 44.195 47.6981 44.195 47.128V39.496C44.195 38.6316 43.441 38.1719 42.9076 38.1719Z" fill="#495574"/>
<path opacity="0.3" d="M31.3492 38.4364L32.9492 38.418C31.1653 38.5835 30.8343 39.0432 30.7423 39.6501L30.209 43.457V39.6501C30.209 38.9586 30.7975 38.4364 31.3492 38.4364Z" fill="white"/>
<path opacity="0.7" d="M32.5177 33.6661C32.7972 33.1511 33.4924 32.4094 33.6579 32.25C33.0694 32.8973 32.1634 34.4385 31.9844 35.0454C32.0579 34.6776 32.2382 34.181 32.5177 33.6661Z" fill="#BDCCF8"/>
<path d="M39.6874 37.7947L40.4472 37.7115C40.553 37.6999 40.5781 37.5572 40.4826 37.5101L39.7927 37.1706C39.7287 37.139 39.6523 37.1783 39.6407 37.2487L39.5708 37.6716C39.5593 37.7411 39.6174 37.8024 39.6874 37.7947Z" fill="#0C419A"/>
<path d="M42.9967 35.9352L42.7942 36.6722C42.766 36.7749 42.8894 36.8508 42.9684 36.7793L43.5382 36.263C43.5911 36.2151 43.5827 36.1297 43.5215 36.0929L43.1541 35.8722C43.0937 35.8359 43.0153 35.8673 42.9967 35.9352Z" fill="#0C419A"/>
<path d="M39.8334 36.3062L40.3892 36.8307C40.4667 36.9038 40.5916 36.8305 40.5655 36.7272L40.377 35.9818C40.3594 35.9126 40.2801 35.8799 40.2189 35.9167L39.8516 36.1375C39.7912 36.1739 39.7821 36.2578 39.8334 36.3062Z" fill="#0C419A"/>
<path d="M43.7663 37.2362L43.0431 37.4832C42.9423 37.5177 42.9489 37.6624 43.0525 37.6874L43.7998 37.8683C43.8692 37.8851 43.9351 37.8302 43.9311 37.7589L43.907 37.331C43.9031 37.2606 43.833 37.2134 43.7663 37.2362Z" fill="#0C419A"/>
<defs>
<clipPath id="clip0_56233_5686">
<rect x="23.4541" y="23.377" width="7.89644" height="5.31946" rx="1.08078" transform="rotate(15 23.4541 23.377)" fill="white"/>
</clipPath>
</defs>
</svg>
