<svg width="80" height="80" viewBox="0 0 80 80" fill="none" xmlns="http://www.w3.org/2000/svg">
<path d="M72.5212 49.9899C68.1298 57.8691 61.3549 64.8617 53.8097 69.5563C38.9878 78.7775 18.5418 73.7111 8.55239 59.1589C3.85281 52.3121 2.31337 42.995 6.22585 35.5167C9.12071 29.9821 14.757 27.2281 20.7387 26.7697C25.7837 26.3832 30.7555 27.6951 35.787 27.7229C43.4793 27.7657 49.966 24.0904 57.3367 22.7582C61.3774 22.0276 66.3416 22.2556 69.8342 24.7675C73.1498 27.1518 75.2697 31.1311 75.8271 35.1832C76.5308 40.2976 75.0203 45.5062 72.5212 49.9899Z" fill="#A0B2EC" fill-opacity="0.16"/>
<path fill-rule="evenodd" clip-rule="evenodd" d="M24.7233 48.6196C18.0034 40.6184 7.34735 32.7567 10.0516 22.6844C12.8506 12.2591 25.3519 7.50251 36.0707 6.35443C44.774 5.42222 51.8802 11.6905 58.4626 17.4992C63.7562 22.1707 67.4738 27.9792 68.4912 34.9646C69.6224 42.7318 69.837 51.4768 64.2018 56.9044C58.4902 62.4055 49.659 62.2206 41.8862 60.5894C34.7151 59.0845 29.4455 54.2423 24.7233 48.6196Z" fill="#A0B2EC" fill-opacity="0.16"/>
<path fill-rule="evenodd" clip-rule="evenodd" d="M37.879 10.3453C35.7333 9.77043 33.5279 11.0437 32.953 13.1894L31.6493 18.0548C31.4141 18.0383 31.1925 18.19 31.1292 18.4263L30.1532 22.0685C30.0899 22.3048 30.206 22.547 30.4179 22.6503L30.2179 23.3967C29.9827 23.3802 29.7611 23.5319 29.6978 23.7682L28.7219 27.4104C28.6586 27.6467 28.7746 27.8889 28.9866 27.9922L20.5411 59.5112C19.9662 61.6568 21.2395 63.8623 23.3851 64.4372L41.8771 69.3921C44.0227 69.967 46.2282 68.6937 46.8031 66.5481L56.68 29.6868C56.9149 29.7027 57.1359 29.5512 57.1991 29.3152L58.175 25.673C58.2383 25.437 58.1227 25.1953 57.9113 25.0916L59.215 20.2263C59.7899 18.0806 58.5166 15.8752 56.3709 15.3003L37.879 10.3453Z" fill="#262939"/>
<path d="M33.6347 13.7762C34.1492 11.8557 36.1233 10.716 38.0437 11.2306L55.7832 15.9838C57.7037 16.4984 58.8434 18.4724 58.3288 20.3929L46.2235 65.5703C45.7089 67.4907 43.7349 68.6304 41.8145 68.1158L24.075 63.3626C22.1545 62.848 21.0148 60.874 21.5294 58.9535L33.6347 13.7762Z" fill="#0C419A"/>
<path fill-rule="evenodd" clip-rule="evenodd" d="M55.6797 16.3702L37.9402 11.6169C36.2331 11.1595 34.4784 12.1726 34.021 13.8797L21.9158 59.057C21.4584 60.7641 22.4714 62.5188 24.1785 62.9762L41.918 67.7295C43.6251 68.1869 45.3797 67.1738 45.8372 65.4667L57.9424 20.2894C58.3998 18.5823 57.3867 16.8276 55.6797 16.3702ZM38.0437 11.2306C36.1233 10.716 34.1492 11.8557 33.6347 13.7762L21.5294 58.9535C21.0148 60.874 22.1545 62.848 24.075 63.3626L41.8145 68.1158C43.7349 68.6304 45.7089 67.4907 46.2235 65.5703L58.3288 20.3929C58.8434 18.4724 57.7037 16.4984 55.7832 15.9838L38.0437 11.2306Z" fill="black"/>
<path d="M48.7031 36.3029C48.8563 35.7311 48.517 35.1434 47.9452 34.9902L35.3306 31.6101C34.7588 31.4569 34.1711 31.7962 34.0179 32.368L31.7745 40.7402C31.6213 41.312 31.9606 41.8997 32.5324 42.0529L45.147 45.433C45.7188 45.5862 46.3065 45.2469 46.4597 44.6751L48.7031 36.3029Z" fill="white"/>
<path d="M33.2541 42.0714L37.9044 43.3174L33.6287 44.7058C33.1189 44.8713 32.6286 44.4059 32.7673 43.8882L33.2541 42.0714Z" fill="white"/>
<path d="M35.1103 34.7671C35.1961 34.447 35.5251 34.257 35.8452 34.3428L43.8408 36.4852C44.1609 36.571 44.3509 36.9 44.2651 37.2201C44.1793 37.5401 43.8503 37.7301 43.5303 37.6443L35.5346 35.5019C35.2145 35.4161 35.0246 35.0871 35.1103 34.7671Z" fill="#D81E7E"/>
<path d="M34.458 37.1909C34.5438 36.8708 34.8728 36.6809 35.1928 36.7666L45.3426 39.4862C45.6626 39.572 45.8526 39.901 45.7668 40.2211C45.6811 40.5412 45.3521 40.7311 45.032 40.6453L34.8823 37.9257C34.5622 37.84 34.3722 37.511 34.458 37.1909Z" fill="#A0B2EC"/>
<path d="M33.8096 39.6147C33.8953 39.2946 34.2243 39.1047 34.5444 39.1904L44.6941 41.9101C45.0142 41.9958 45.2042 42.3248 45.1184 42.6449C45.0326 42.965 44.7036 43.1549 44.3835 43.0692L34.2338 40.3496C33.9137 40.2638 33.7238 39.9348 33.8096 39.6147Z" fill="#A0B2EC"/>
<ellipse cx="46.4181" cy="15.7568" rx="1.01664" ry="1.01664" transform="rotate(15 46.4181 15.7568)" fill="#E7ECFA"/>
</svg>
