<svg width="160" height="161" viewBox="0 0 160 161" fill="none" xmlns="http://www.w3.org/2000/svg">
<path d="M34.9881 104.219C34.5287 87.8362 38.6149 70.6248 46.0379 56.2866C60.6209 28.1219 97.255 17.0462 126.369 30.4946C140.066 36.8224 151.123 49.9427 151.958 65.2544C152.577 76.5858 146.333 86.1209 137.417 92.3917C129.898 97.6803 120.915 100.249 113.032 104.878C100.98 111.955 94.2629 123.718 83.9899 132.643C78.3582 137.537 70.3943 141.791 62.6074 141.112C55.2153 140.467 48.2094 136.222 43.5759 130.411C37.7275 123.078 35.2493 113.542 34.9881 104.219Z" fill="#A0B2EC" fill-opacity="0.16"/>
<path fill-rule="evenodd" clip-rule="evenodd" d="M86.6655 37.0453C101.068 49.4134 122.487 60.373 120.602 79.2275C118.651 98.7429 97.6374 110.95 78.7574 116.162C63.4274 120.394 48.8421 111.247 35.3313 102.769C24.4657 95.9515 16.0913 86.6314 12.2116 74.4065C7.89783 60.8134 4.93984 45.1976 13.4462 33.8082C22.0677 22.2645 37.9557 19.9975 52.3718 20.6348C65.6716 21.2228 76.5444 28.3539 86.6655 37.0453Z" fill="#A0B2EC" fill-opacity="0.16"/>
<g filter="url(#filter0_d_8477_8418)">
<path d="M129.835 130.398C131.125 129.108 131.125 127.016 129.835 125.726L116.597 112.489L111.926 117.161L125.163 130.398C126.453 131.688 128.544 131.688 129.835 130.398Z" fill="white"/>
<path d="M89.9286 74.9188L44.9613 29.9516C40.6609 25.6512 33.6886 25.6512 29.3882 29.9516C25.0879 34.2519 25.0879 41.2242 29.3882 45.5246L74.3555 90.4919L89.9286 74.9188Z" fill="white"/>
<path d="M116.597 112.489L89.9286 74.9188L74.3555 90.4919L111.926 117.161L116.597 112.489Z" fill="white"/>
<path d="M89.9274 74.9176L44.9602 29.9504C40.6598 25.65 33.6875 25.65 29.3871 29.9504C25.0867 34.2508 25.0867 41.2231 29.3871 45.5235L74.3543 90.4907L89.9274 74.9176Z" fill="#07C3F0"/>
<path d="M116.596 112.488L89.9274 74.9176L74.3543 90.4907L111.924 117.16L116.596 112.488Z" fill="#07C3F0"/>
<path d="M89.9258 74.9189L44.9585 29.9517C40.6582 25.6513 33.6858 25.6513 29.3855 29.9517C25.0851 34.2521 25.0851 41.2244 29.3855 45.5248L74.3527 90.492L89.9258 74.9189Z" fill="white"/>
<path fill-rule="evenodd" clip-rule="evenodd" d="M75.8257 88.2446L74.4529 89.6174C74.3454 89.7249 74.1711 89.7249 74.0636 89.6174L29.875 45.4288C25.5746 41.1284 25.5746 34.1561 29.875 29.8557C30.0888 29.642 30.3091 29.4388 30.5354 29.2463C27.0189 33.4076 27.2218 39.6407 31.144 43.5629L75.8257 88.2446Z" fill="#E7ECFA" fill-opacity="0.5"/>
<rect width="29.1813" height="13.2142" rx="6.6071" transform="matrix(-0.707107 -0.707107 -0.707107 0.707107 82.3398 73.5557)" fill="#E7ECFA" fill-opacity="0.7"/>
<path d="M63.2862 61.5828C63.0725 61.7966 62.8223 61.9098 62.5357 61.9227C62.249 61.9356 61.9539 61.8464 61.6503 61.6551L61.6363 61.6691C61.8939 61.9954 62.0307 62.3007 62.0466 62.5849C62.0641 62.8676 61.9598 63.1221 61.7336 63.3483C61.4044 63.6774 61.0216 63.8079 60.5852 63.7396C60.1503 63.6697 59.6987 63.4006 59.2302 62.9322C58.8377 62.5396 58.5513 62.1299 58.371 61.7032L58.9864 61.0878C59.0595 61.2951 59.1592 61.5039 59.2853 61.7143C59.4114 61.9246 59.5569 62.1123 59.7219 62.2772C59.9742 62.5296 60.2012 62.6754 60.4027 62.7147C60.6042 62.754 60.7947 62.6839 60.9741 62.5045C61.1348 62.3438 61.1794 62.1607 61.1079 61.9551C61.0364 61.7494 60.849 61.4949 60.5455 61.1914L60.2708 60.9167L60.8254 60.3622L61.105 60.6418C61.3854 60.9222 61.6242 61.0924 61.8215 61.1524C62.022 61.2125 62.2065 61.1583 62.375 60.9898C62.634 60.7309 62.5919 60.4298 62.2488 60.0868C62.1301 59.968 61.9901 59.8655 61.829 59.7792C61.6695 59.6946 61.4686 59.6233 61.2265 59.5652L61.3711 58.713C61.9256 58.8182 62.4313 59.0993 62.8882 59.5562C63.2627 59.9306 63.4861 60.2976 63.5587 60.6572C63.6329 61.0185 63.5421 61.327 63.2862 61.5828Z" fill="#495574"/>
<path d="M62.566 63.268C63.243 62.591 63.8978 62.2381 64.5303 62.2092C65.1646 62.182 65.7835 62.4702 66.3872 63.0739C66.5934 63.2801 66.7433 63.4534 66.837 63.5939L66.2591 64.1719C66.1435 63.9939 66.0139 63.8331 65.8704 63.6896C65.6081 63.4274 65.3563 63.2504 65.1148 63.1587C64.875 63.0686 64.6405 63.0557 64.4114 63.1198C64.1823 63.184 63.9254 63.3436 63.6407 63.5986L63.6728 63.6308C64.1013 63.5289 64.4954 63.6577 64.8549 64.0173C65.1782 64.3406 65.3355 64.6897 65.3267 65.0647C65.3179 65.4396 65.1442 65.7964 64.8057 66.1349C64.4407 66.4999 64.0424 66.6805 63.611 66.6764C63.1811 66.6709 62.7732 66.4751 62.3872 66.0891C62.12 65.8219 61.9451 65.5301 61.8625 65.2135C61.7816 64.8985 61.799 64.5743 61.9148 64.2408C62.0322 63.909 62.2493 63.5847 62.566 63.268ZM62.9504 65.4963C63.1136 65.6596 63.2905 65.7335 63.4809 65.718C63.6728 65.7009 63.8647 65.5964 64.0566 65.4045C64.2235 65.2376 64.3133 65.0653 64.326 64.8877C64.3419 64.7101 64.2674 64.5389 64.1024 64.3739C63.9474 64.2189 63.767 64.1337 63.5613 64.1184C63.3573 64.1046 63.1921 64.161 63.0658 64.2873C62.8801 64.473 62.7745 64.6809 62.7488 64.9111C62.7248 65.1429 62.792 65.338 62.9504 65.4963Z" fill="#495574"/>
<path d="M65.4682 68.0703C65.0673 68.2996 64.5485 68.5281 63.9119 68.7557L63.3676 68.2114C63.8897 67.9036 64.3646 67.5954 64.7921 67.2866L65.4849 67.9794L65.4682 68.0703Z" fill="#495574"/>
<path d="M66.9303 67.6324C67.6074 66.9554 68.2622 66.6024 68.8947 66.5736C69.5289 66.5463 70.1479 66.8346 70.7516 67.4383C70.9577 67.6444 71.1077 67.8178 71.2014 67.9583L70.6234 68.5363C70.5078 68.3583 70.3783 68.1975 70.2348 68.054C69.9725 67.7917 69.7206 67.6148 69.4792 67.5231C69.2394 67.433 69.0049 67.42 68.7758 67.4842C68.5467 67.5484 68.2898 67.708 68.005 67.963L68.0372 67.9952C68.4657 67.8933 68.8597 68.0221 69.2193 68.3817C69.5426 68.705 69.6998 69.0541 69.691 69.4291C69.6822 69.804 69.5086 70.1608 69.1701 70.4993C68.805 70.8643 68.4068 71.0448 67.9754 71.0408C67.5455 71.0352 67.1376 70.8395 66.7516 70.4535C66.4844 70.1863 66.3095 69.8944 66.2269 69.5778C66.146 69.2629 66.1634 68.9387 66.2792 68.6052C66.3966 68.2733 66.6137 67.9491 66.9303 67.6324ZM67.3147 69.8607C67.478 70.024 67.6548 70.0979 67.8452 70.0823C68.0372 70.0652 68.2291 69.9607 68.421 69.7689C68.5879 69.6019 68.6777 69.4297 68.6904 69.252C68.7063 69.0745 68.6317 68.9033 68.4668 68.7383C68.3117 68.5833 68.1314 68.4981 67.9257 68.4827C67.7217 68.469 67.5565 68.5253 67.4301 68.6517C67.2445 68.8373 67.1389 69.0453 67.1132 69.2754C67.0892 69.5073 67.1564 69.7024 67.3147 69.8607Z" fill="#495574"/>
<path d="M71.082 69.3692C71.2255 69.2257 71.3976 69.1295 71.5983 69.0805C71.7989 69.0316 72.0019 69.0365 72.2072 69.0951C72.4124 69.1537 72.5926 69.2606 72.7477 69.4156C72.8994 69.5674 73.0054 69.7451 73.0656 69.9488C73.1274 70.1542 73.1331 70.358 73.0826 70.5602C73.0338 70.7641 72.9376 70.9378 72.7941 71.0813C72.649 71.2264 72.4745 71.3233 72.2706 71.3722C72.07 71.4211 71.8685 71.4147 71.6664 71.3529C71.4642 71.2912 71.2865 71.1836 71.1331 71.0302C70.8939 70.791 70.7682 70.5109 70.7561 70.1899C70.7471 69.869 70.8558 69.5954 71.082 69.3692ZM71.5545 69.8418C71.4547 69.9416 71.406 70.0629 71.4083 70.2057C71.4124 70.3501 71.4688 70.4767 71.5777 70.5856C71.6865 70.6945 71.8139 70.7501 71.9599 70.7526C72.1059 70.7551 72.2273 70.7079 72.324 70.6112C72.4223 70.5129 72.4701 70.3892 72.4676 70.24C72.4667 70.0925 72.4126 69.9651 72.3054 69.8579C72.1998 69.7523 72.0732 69.6975 71.9256 69.6934C71.7796 69.6909 71.6559 69.7404 71.5545 69.8418Z" fill="#495574"/>
<path d="M75.2242 73.0996C74.9356 72.811 74.6091 72.6904 74.2449 72.738C73.8822 72.784 73.5175 72.9903 73.1509 73.3569C72.3881 74.1198 72.3093 74.8038 72.9147 75.4092C73.1687 75.6632 73.5364 75.9107 74.0177 76.1519L73.4093 76.7602C72.9954 76.5803 72.6054 76.3073 72.2392 75.9411C71.7131 75.415 71.4611 74.862 71.4835 74.2822C71.5073 73.7008 71.8016 73.1277 72.3664 72.563C72.722 72.2073 73.1017 71.9646 73.5054 71.8347C73.9106 71.7033 74.312 71.6944 74.7096 71.8081C75.1104 71.9219 75.4832 72.1512 75.8279 72.4959C76.1793 72.8472 76.4519 73.2806 76.6459 73.7959L75.8088 74.1381C75.7344 73.942 75.6513 73.7529 75.5597 73.5708C75.468 73.3886 75.3562 73.2316 75.2242 73.0996Z" fill="#495574"/>
<path fill-rule="evenodd" clip-rule="evenodd" d="M67.2499 75.839C67.227 75.8169 67.2043 75.7945 67.1817 75.7719L57.7113 66.3015C55.547 64.1372 55.547 60.6282 57.7113 58.4639C59.1182 57.057 61.0934 56.5646 62.898 56.9869C61.8187 57.0833 60.7565 57.4966 59.8592 58.2405C57.5029 60.1939 57.1763 63.6877 59.1297 66.044L67.2499 75.839Z" fill="white" fill-opacity="0.6"/>
<path fill-rule="evenodd" clip-rule="evenodd" d="M67.3251 60.1027C67.3468 60.1238 67.3685 60.1451 67.39 60.1666L76.8604 69.637C79.0247 71.8013 79.0247 75.3103 76.8604 77.4746C75.5888 78.7462 73.853 79.2707 72.1984 79.048C73.1376 78.8943 74.0496 78.4965 74.8352 77.8453C77.1915 75.8918 77.5181 72.398 75.5647 70.0417L67.3251 60.1027Z" fill="#0C419A" fill-opacity="0.1"/>
<rect width="11.0118" height="10.4612" rx="5.23062" transform="matrix(-0.707107 -0.707107 -0.707107 0.707107 46.7148 39.8789)" fill="#07C3F0"/>
<rect width="11.0118" height="10.4612" rx="5.23062" transform="matrix(-0.707107 -0.707107 -0.707107 0.707107 46.7148 39.8789)" fill="white" fill-opacity="0.2"/>
<path d="M42.2324 42.7989C43.845 41.1862 43.845 38.5716 42.2324 36.959L41.8431 36.5696C40.2304 34.957 37.6158 34.957 36.0032 36.5696C34.3905 38.1823 34.3905 40.7969 36.0032 42.4095L36.3925 42.7989C38.0051 44.4115 40.6197 44.4115 42.2324 42.7989Z" fill="#07B5DF"/>
<path d="M116.597 112.489L115.952 111.577L111.015 116.514L111.925 117.161L116.597 112.489Z" fill="white"/>
<path fill-rule="evenodd" clip-rule="evenodd" d="M130.639 127.822C130.494 128.171 130.28 128.498 129.996 128.782C128.953 129.826 127.299 129.941 126.12 129.053L118.751 123.504C118.882 123.718 119.04 123.919 119.224 124.104L125.125 130.005C126.387 131.267 128.432 131.267 129.694 130.005C130.299 129.4 130.614 128.615 130.639 127.822Z" fill="#BDCCF8"/>
<path d="M115.426 111.32L110.851 115.895L75.033 90.5885L76.6311 88.9904C76.6311 88.9904 107.193 114.293 110.851 113.307C114.509 112.321 115.426 111.32 115.426 111.32Z" fill="black" fill-opacity="0.07"/>
</g>
<defs>
<filter id="filter0_d_8477_8418" x="26.1602" y="26.7256" width="105.441" height="105.44" filterUnits="userSpaceOnUse" color-interpolation-filters="sRGB">
<feFlood flood-opacity="0" result="BackgroundImageFix"/>
<feColorMatrix in="SourceAlpha" type="matrix" values="0 0 0 0 0 0 0 0 0 0 0 0 0 0 0 0 0 0 127 0" result="hardAlpha"/>
<feOffset dx="0.8" dy="0.8"/>
<feComposite in2="hardAlpha" operator="out"/>
<feColorMatrix type="matrix" values="0 0 0 0 0 0 0 0 0 0 0 0 0 0 0 0 0 0 0.08 0"/>
<feBlend mode="normal" in2="BackgroundImageFix" result="effect1_dropShadow_8477_8418"/>
<feBlend mode="normal" in="SourceGraphic" in2="effect1_dropShadow_8477_8418" result="shape"/>
</filter>
</defs>
</svg>
