<svg xmlns="http://www.w3.org/2000/svg" width="160" height="160" fill="none"><path fill="#A0B2EC" fill-opacity=".16" d="M137.861 19.04c-7.908-7.694-19.535-11.198-31.005-10.84-7.28.227-14.739 1.982-20.944 6.016-10.17 6.614-15.536 18.152-22.941 27.66-8.854 11.369-20.847 20.008-31.04 30.274-10.193 10.265-18.98 23.389-18.435 37.261.322 8.243 3.999 15.986 9.386 22.089 10.495 11.891 27.336 17.608 43.854 16.56 46.727-2.962 84.049-50.853 83.603-94.315-.131-12.696-3.426-25.898-12.478-34.705Z"/><path fill="#A0B2EC" fill-opacity=".16" d="M130.609 139.047c6.615-7.553 9.246-18.286 8.375-28.693-.553-6.606-2.503-13.3-6.465-18.747-6.495-8.929-17.236-13.255-26.229-19.532C95.537 64.569 87.115 54.08 77.3 45.306c-9.814-8.774-22.16-16.134-34.74-14.979-7.477.685-14.338 4.395-19.628 9.581C12.626 50.013 8.232 65.59 9.97 80.552c4.916 42.325 50.215 73.963 89.693 71.488 11.531-.724 23.372-4.346 30.946-12.992Z"/><path fill="#0C419A" d="M81.174 134.107c26.064-.48 46.803-21.998 46.323-48.061-.48-26.064-21.997-46.803-48.06-46.323-26.064.48-46.804 21.997-46.324 48.06.48 26.064 21.998 46.804 48.061 46.324Z"/><path fill="#fff" d="M81.06 127.669c22.508-.414 40.419-18.997 40.005-41.506-.415-22.509-18.998-40.42-41.507-40.005-22.508.414-40.42 18.997-40.005 41.506.415 22.509 18.998 40.42 41.506 40.005Z"/><path fill="#BDCCF8" d="M50.333 87.202v.662a.722.722 0 0 1-.72.722h-6.157a.722.722 0 0 1-.722-.722v-.662c0-.398.323-.722.722-.722h6.156c.398 0 .721.324.721.722ZM80.59 116.88h.663c.398 0 .722.323.722.722v6.156a.722.722 0 0 1-.722.722h-.662a.722.722 0 0 1-.722-.722v-6.156c0-.399.323-.722.722-.722ZM110.268 86.622v-.662c0-.398.323-.722.722-.722h6.156c.398 0 .721.323.721.722v.662a.721.721 0 0 1-.721.722h-6.156a.722.722 0 0 1-.722-.722ZM64.004 59.85a.64.64 0 0 1-.88-.218l-1.59-2.642a.64.64 0 0 1 1.097-.661l1.591 2.642a.64.64 0 0 1-.218.88ZM52.658 71.624a.64.64 0 0 1-.87.25l-2.7-1.492a.64.64 0 0 1 .62-1.122l2.7 1.493a.64.64 0 0 1 .25.87ZM108.082 71.624a.64.64 0 0 0 .871.25l2.699-1.492a.64.64 0 0 0-.62-1.122l-2.699 1.493a.64.64 0 0 0-.251.87ZM53.24 103.208a.642.642 0 0 1-.22.88l-2.642 1.591a.64.64 0 1 1-.66-1.098l2.642-1.591a.64.64 0 0 1 .88.218ZM65.013 114.558a.64.64 0 0 1 .25.87l-1.493 2.699a.64.64 0 1 1-1.121-.62l1.493-2.699a.64.64 0 0 1 .87-.25ZM96.594 113.976a.64.64 0 0 1 .879.218l1.591 2.642a.642.642 0 0 1-1.097.661l-1.592-2.642a.64.64 0 0 1 .219-.879ZM107.944 102.201a.64.64 0 0 1 .87-.251l2.699 1.493a.64.64 0 1 1-.62 1.121l-2.699-1.493a.639.639 0 0 1-.25-.87Z"/><path fill="#E11A81" d="M101.991 56.66c-4.4-3.2-10.8-7.2-21.6-7.2v38.291l21.6-31.09Z"/><path fill="#0C419A" fill-rule="evenodd" d="M47.776 43.86a1.6 1.6 0 1 0 1.6 2.771l10.393-6a1.6 1.6 0 0 0-1.6-2.77l-10.393 6Zm9.279-.4-3.464 2 2.4 4.157 3.464-2-2.4-4.157ZM111.765 43.86a1.6 1.6 0 0 1-1.6 2.771l-10.393-6a1.6 1.6 0 0 1 1.6-2.77l10.393 6Zm-9.376-.4 3.465 2-2.4 4.157-3.465-2 2.4-4.157ZM73.191 26.661a4.4 4.4 0 0 0 0 8.8h13.6a4.4 4.4 0 1 0 0-8.8h-13.6Zm9.997 10.4h-6.4v3.2h6.4v-3.2Z" clip-rule="evenodd"/><path fill="#26293A" d="M80.98 92.27a5.31 5.31 0 1 0-.196-10.617 5.31 5.31 0 0 0 .195 10.618Z"/><path fill="#E11A81" d="M83.832 86.905a2.95 2.95 0 1 1-5.898.11 2.95 2.95 0 0 1 5.898-.11Z"/><path fill="#26293A" d="m81.592 82.16 18.164-24.955a1.77 1.77 0 0 1 2.862 2.083L84.454 84.243l-2.862-2.083Z"/><path fill="#fff" d="M80.913 88.729a1.77 1.77 0 1 0-.065-3.54 1.77 1.77 0 0 0 .065 3.54Z"/></svg>