<svg width="200" height="200" viewBox="0 0 200 200" fill="none" xmlns="http://www.w3.org/2000/svg">
<path d="M15.7508 132.725C23.4154 150.022 36.2279 165.922 51.0887 177.17C80.2818 199.265 123.954 192.594 147.601 164.111C158.727 150.71 163.724 131.545 156.983 115.178C151.995 103.064 140.75 96.2341 128.345 94.1325C117.881 92.3604 107.247 94.1494 96.7327 93.245C80.6583 91.863 67.8132 82.946 52.6738 78.7537C44.3742 76.455 33.9624 75.9816 26.1874 80.56C18.8062 84.9056 13.6175 92.8111 11.6782 101.168C9.23027 111.715 11.3887 122.883 15.7508 132.725Z" fill="#A0B2EC" fill-opacity="0.16"/>
<path fill-rule="evenodd" clip-rule="evenodd" d="M92.726 27.9018C118.968 19.449 148.79 1.23885 170.709 17.8763C193.396 35.0969 192.571 70.3806 184.703 97.7155C178.314 119.911 155.922 131.033 135.173 141.333C118.487 149.617 100.592 152.917 82.5101 148.447C62.4042 143.477 40.8218 135.293 33.1707 116.119C25.4158 96.6849 34.6615 75.2898 46.3873 57.9208C57.2052 41.8966 74.2845 33.8419 92.726 27.9018Z" fill="#A0B2EC" fill-opacity="0.16"/>
<path d="M68 114C68 114 68 151.801 68 156.904C68 162.007 69.4676 167.866 79.2518 167.866C89.036 167.866 90.5036 162.007 90.5036 156.904C90.5036 151.801 90.5036 148.588 90.5036 144.241C90.5036 139.893 91.7266 133.845 101.266 133.845C110.806 133.845 113.252 139.326 113.252 144.241C113.252 149.155 113.252 152.368 113.252 156.904C113.252 161.44 113.252 169 124.259 169C135.266 169 135.511 162.574 135.755 156.904C136 151.234 136 128.315 136 128.315" stroke="#26293A" stroke-width="5.87501"/>
<rect x="102.855" y="59.3594" width="67.143" height="67.1082" rx="4.19644" fill="#26293A"/>
<mask id="mask0_3194_67792" style="mask-type:alpha" maskUnits="userSpaceOnUse" x="102" y="59" width="68" height="68">
<rect x="102.855" y="59.3594" width="67.143" height="67.1082" rx="4.19644" fill="#26293A"/>
</mask>
<g mask="url(#mask0_3194_67792)">
<rect x="98.6602" y="57.2617" width="78.0537" height="6.29139" fill="#07C3F0"/>
<rect x="98.6602" y="122.273" width="78.0537" height="6.29141" fill="#07C3F0"/>
</g>
<g filter="url(#filter0_d_3194_67792)">
<path d="M120.48 67.7523C120.48 63.117 124.238 59.3594 128.873 59.3594H165.802C168.12 59.3594 169.998 61.2382 169.998 63.5558V122.271C169.998 124.589 168.12 126.468 165.802 126.468H128.873C124.238 126.468 120.48 122.71 120.48 118.075V67.7523Z" fill="#07C3F0"/>
</g>
<path d="M124.676 67.7511C124.676 65.4335 126.555 63.5547 128.872 63.5547H169.997V122.274H128.872C126.555 122.274 124.676 120.396 124.676 118.078V67.7511Z" fill="#26293A"/>
<g filter="url(#filter1_d_3194_67792)">
<path d="M29 42.5893C29 35.6364 34.6364 30 41.5893 30H94.8841C101.837 30 107.473 35.6364 107.473 42.5893V95.8434C107.473 102.796 101.837 108.433 94.8841 108.433H41.5893C34.6364 108.433 29 102.796 29 95.8434V42.5893Z" fill="#07C3F0"/>
<rect x="34.0352" y="34.6133" width="68.8216" height="68.7859" rx="7.02261" fill="#26293A"/>
<rect x="44.1055" y="45.0977" width="48.259" height="38.5872" rx="3.14733" fill="#E7ECFA"/>
<path d="M56.4602 61.1953H54.7427V54.3469C54.7427 54.1189 54.7451 53.8908 54.7499 53.6628C54.7548 53.4348 54.7596 53.2116 54.7645 52.9933C54.7742 52.7749 54.7863 52.5663 54.8009 52.3674C54.699 52.479 54.5728 52.6003 54.4224 52.7313C54.2769 52.8623 54.1216 52.9981 53.9567 53.1388L52.734 54.114L51.8752 53.0296L55.0338 50.5552H56.4602V61.1953ZM66.7583 52.986C66.7583 53.4663 66.6612 53.8836 66.4672 54.2378C66.2731 54.5919 66.0062 54.8831 65.6666 55.1111C65.3318 55.3343 64.9437 55.4944 64.5022 55.5914V55.6424C65.3512 55.7491 65.9917 56.016 66.4235 56.4429C66.8602 56.8699 67.0785 57.4351 67.0785 58.1386C67.0785 58.7548 66.9305 59.3055 66.6346 59.7907C66.3386 60.271 65.8849 60.6495 65.2736 60.926C64.6623 61.2026 63.8763 61.3409 62.9156 61.3409C62.3382 61.3409 61.8021 61.2948 61.3072 61.2026C60.8172 61.1104 60.3514 60.9624 59.9099 60.7586V59.2376C60.3611 59.4608 60.8414 59.633 61.3509 59.7543C61.8603 59.8756 62.3431 59.9363 62.7992 59.9363C63.6871 59.9363 64.3202 59.7713 64.6987 59.4414C65.0771 59.1066 65.2663 58.6457 65.2663 58.0586C65.2663 57.6801 65.1669 57.3696 64.9679 57.127C64.7739 56.8844 64.4706 56.7025 64.0582 56.5812C63.6507 56.4599 63.1242 56.3993 62.4789 56.3993H61.5401V55.0238H62.4862C63.1024 55.0238 63.5973 54.951 63.9709 54.8054C64.3445 54.655 64.6138 54.4488 64.7787 54.1868C64.9485 53.9248 65.0334 53.6191 65.0334 53.2698C65.0334 52.8137 64.8855 52.4596 64.5895 52.2073C64.2935 51.9501 63.8544 51.8215 63.2722 51.8215C62.9132 51.8215 62.5857 51.8628 62.2897 51.9453C61.9986 52.0277 61.7293 52.1321 61.4819 52.2582C61.2344 52.3843 60.9991 52.5202 60.7759 52.6658L59.9536 51.4795C60.3563 51.1787 60.8366 50.9239 61.3946 50.7153C61.9525 50.5067 62.6027 50.4024 63.345 50.4024C64.4367 50.4024 65.2785 50.6377 65.8704 51.1083C66.4623 51.5741 66.7583 52.2 66.7583 52.986ZM76.0811 58.8591H74.6401V61.1953H72.9517V58.8591H68.1119V57.5637L72.9735 50.5261H74.6401V57.44H76.0811V58.8591ZM72.9517 57.44V54.7981C72.9517 54.5798 72.9541 54.3591 72.9589 54.1359C72.9687 53.9078 72.9784 53.6895 72.9881 53.4809C72.9978 53.2722 73.0075 53.0806 73.0172 52.9059C73.0269 52.7264 73.0342 52.5784 73.039 52.462H72.9808C72.8886 52.6561 72.7867 52.855 72.6751 53.0588C72.5635 53.2577 72.4447 53.4518 72.3185 53.641L69.6985 57.44H72.9517Z" fill="#495574"/>
<path d="M63.3669 68.2846C63.9831 68.2846 64.5386 68.3817 65.0335 68.5758C65.5284 68.765 65.9214 69.0488 66.2125 69.4273C66.5036 69.8057 66.6492 70.2739 66.6492 70.8319C66.6492 71.2637 66.5594 71.6397 66.3799 71.9599C66.2052 72.2801 65.9675 72.5616 65.6667 72.8041C65.3658 73.0419 65.0286 73.2529 64.655 73.4373C65.0723 73.6411 65.4556 73.8764 65.8049 74.1433C66.1591 74.4053 66.443 74.7133 66.6564 75.0675C66.8748 75.4217 66.9839 75.8366 66.9839 76.312C66.9839 76.9088 66.8311 77.4255 66.5254 77.8622C66.2246 78.294 65.8049 78.6288 65.2664 78.8665C64.7278 79.0994 64.0995 79.2159 63.3814 79.2159C62.61 79.2159 61.9526 79.1018 61.4092 78.8738C60.8657 78.6458 60.4533 78.3207 60.1719 77.8986C59.8905 77.4716 59.7498 76.9622 59.7498 76.3703C59.7498 75.8802 59.8469 75.4557 60.0409 75.0966C60.235 74.7376 60.4946 74.4271 60.8197 74.1651C61.1496 73.9031 61.511 73.6823 61.904 73.5028C61.5693 73.3039 61.2636 73.0807 60.987 72.8333C60.7105 72.581 60.4897 72.2923 60.3248 71.9672C60.1647 71.6373 60.0846 71.2564 60.0846 70.8246C60.0846 70.2715 60.2326 69.8081 60.5285 69.4345C60.8245 69.0561 61.2199 68.7698 61.7148 68.5758C62.2146 68.3817 62.7652 68.2846 63.3669 68.2846ZM61.38 76.3048C61.38 76.7705 61.545 77.1538 61.8749 77.4546C62.2049 77.7555 62.6973 77.9059 63.3523 77.9059C64.0025 77.9059 64.4974 77.7579 64.837 77.4619C65.1766 77.166 65.3464 76.7754 65.3464 76.2902C65.3464 75.9797 65.2591 75.7056 65.0844 75.4678C64.9146 75.2301 64.6842 75.019 64.393 74.8346C64.1068 74.6454 63.789 74.4708 63.4397 74.3106L63.2068 74.216C62.8283 74.3761 62.5032 74.5581 62.2315 74.7619C61.9598 74.9608 61.7488 75.1864 61.5984 75.4387C61.4528 75.691 61.38 75.9797 61.38 76.3048ZM63.3523 69.6019C62.8817 69.6019 62.4935 69.7184 62.1879 69.9513C61.8871 70.1793 61.7367 70.5092 61.7367 70.941C61.7367 71.2467 61.8094 71.5087 61.955 71.727C62.1054 71.9454 62.3067 72.1346 62.559 72.2947C62.8113 72.45 63.0903 72.5955 63.396 72.7314C63.692 72.6004 63.9588 72.4572 64.1965 72.302C64.4391 72.1419 64.6308 71.9526 64.7715 71.7343C64.917 71.5111 64.9898 71.2443 64.9898 70.9338C64.9898 70.5068 64.837 70.1793 64.5313 69.9513C64.2305 69.7184 63.8375 69.6019 63.3523 69.6019ZM75.8992 76.7341H74.4582V79.0703H72.7698V76.7341H67.93V75.4387L72.7916 68.4011H74.4582V75.315H75.8992V76.7341ZM72.7698 75.315V72.6731C72.7698 72.4548 72.7722 72.2341 72.777 72.0109C72.7867 71.7828 72.7965 71.5645 72.8062 71.3559C72.8159 71.1472 72.8256 70.9556 72.8353 70.7809C72.845 70.6014 72.8522 70.4534 72.8571 70.337H72.7989C72.7067 70.5311 72.6048 70.73 72.4932 70.9338C72.3816 71.1327 72.2627 71.3268 72.1366 71.516L69.5166 75.315H72.7698Z" fill="#495574"/>
<path d="M82.0537 56.2641C82.0537 56.4333 82.0126 56.5761 81.9303 56.6926C81.848 56.809 81.7277 56.8975 81.5693 56.9581C81.4125 57.0171 81.22 57.0466 80.9918 57.0466C80.8117 57.0466 80.6564 57.0334 80.526 57.007C80.3971 56.9821 80.2752 56.9433 80.1603 56.8905V56.4178C80.283 56.4752 80.4204 56.5249 80.5726 56.5668C80.7263 56.6087 80.8714 56.6297 81.0081 56.6297C81.1882 56.6297 81.3178 56.6018 81.397 56.5459C81.4762 56.4884 81.5158 56.4123 81.5158 56.3176C81.5158 56.2617 81.4995 56.2121 81.4669 56.1686C81.4358 56.1236 81.3768 56.0778 81.2899 56.0312C81.2045 55.9831 81.0787 55.9256 80.9126 55.8588C80.7496 55.7936 80.6122 55.7284 80.5004 55.6632C80.3886 55.598 80.304 55.5196 80.2465 55.428C80.1891 55.3348 80.1603 55.2161 80.1603 55.0717C80.1603 54.8434 80.2504 54.6703 80.4305 54.5523C80.6122 54.4328 80.852 54.373 81.1501 54.373C81.3085 54.373 81.4575 54.3893 81.5973 54.4219C81.7386 54.453 81.8767 54.4988 82.0118 54.5593L81.8395 54.9715C81.723 54.9203 81.6058 54.8784 81.4878 54.8458C81.3714 54.8116 81.2526 54.7945 81.1315 54.7945C80.9902 54.7945 80.8823 54.8163 80.8078 54.8598C80.7348 54.9032 80.6983 54.9653 80.6983 55.0461C80.6983 55.1066 80.7162 55.1578 80.7519 55.1998C80.7876 55.2417 80.8489 55.2836 80.9359 55.3255C81.0244 55.3674 81.147 55.4195 81.3038 55.4816C81.4575 55.5406 81.5903 55.6027 81.7021 55.6679C81.8154 55.7315 81.9024 55.8099 81.9629 55.9031C82.0235 55.9962 82.0537 56.1166 82.0537 56.2641ZM82.2563 54.4219H82.8525L83.3812 55.8938C83.4045 55.9605 83.4255 56.0265 83.4441 56.0917C83.4643 56.1554 83.4813 56.2183 83.4953 56.2804C83.5108 56.3425 83.5233 56.4046 83.5326 56.4667H83.5466C83.5621 56.3859 83.5838 56.2959 83.6118 56.1965C83.6413 56.0956 83.6739 55.9947 83.7096 55.8938L84.2173 54.4219H84.8065L83.7003 57.354C83.6366 57.5217 83.5582 57.6645 83.465 57.7825C83.3734 57.9021 83.2648 57.9921 83.139 58.0527C83.0132 58.1148 82.8696 58.1458 82.7082 58.1458C82.6305 58.1458 82.563 58.1412 82.5055 58.1318C82.4481 58.1241 82.3992 58.1155 82.3588 58.1062V57.6684C82.3914 57.6762 82.4326 57.6831 82.4822 57.6894C82.5319 57.6956 82.5832 57.6987 82.636 57.6987C82.7338 57.6987 82.8184 57.6793 82.8898 57.6404C82.9612 57.6016 83.0218 57.5465 83.0715 57.4751C83.1211 57.4052 83.1623 57.3253 83.1949 57.2352L83.2857 56.993L82.2563 54.4219ZM86.9304 56.2641C86.9304 56.4333 86.8893 56.5761 86.807 56.6926C86.7247 56.809 86.6044 56.8975 86.446 56.9581C86.2892 57.0171 86.0967 57.0466 85.8685 57.0466C85.6884 57.0466 85.5331 57.0334 85.4027 57.007C85.2738 56.9821 85.1519 56.9433 85.037 56.8905V56.4178C85.1597 56.4752 85.2971 56.5249 85.4493 56.5668C85.603 56.6087 85.7481 56.6297 85.8848 56.6297C86.0649 56.6297 86.1945 56.6018 86.2737 56.5459C86.3529 56.4884 86.3925 56.4123 86.3925 56.3176C86.3925 56.2617 86.3762 56.2121 86.3435 56.1686C86.3125 56.1236 86.2535 56.0778 86.1666 56.0312C86.0812 55.9831 85.9554 55.9256 85.7893 55.8588C85.6263 55.7936 85.4888 55.7284 85.3771 55.6632C85.2653 55.598 85.1807 55.5196 85.1232 55.428C85.0658 55.3348 85.037 55.2161 85.037 55.0717C85.037 54.8434 85.1271 54.6703 85.3072 54.5523C85.4888 54.4328 85.7287 54.373 86.0268 54.373C86.1852 54.373 86.3342 54.3893 86.474 54.4219C86.6153 54.453 86.7534 54.4988 86.8885 54.5593L86.7162 54.9715C86.5997 54.9203 86.4825 54.8784 86.3645 54.8458C86.2481 54.8116 86.1293 54.7945 86.0082 54.7945C85.8669 54.7945 85.759 54.8163 85.6845 54.8598C85.6115 54.9032 85.575 54.9653 85.575 55.0461C85.575 55.1066 85.5929 55.1578 85.6286 55.1998C85.6643 55.2417 85.7256 55.2836 85.8126 55.3255C85.9011 55.3674 86.0237 55.4195 86.1805 55.4816C86.3342 55.5406 86.467 55.6027 86.5788 55.6679C86.6921 55.7315 86.7791 55.8099 86.8396 55.9031C86.9002 55.9962 86.9304 56.1166 86.9304 56.2641Z" fill="#495574"/>
<path d="M81.3178 75.4138C81.0104 75.4138 80.7635 75.302 80.5772 75.0784C80.3925 74.8533 80.3001 74.5218 80.3001 74.084C80.3001 73.6415 80.394 73.3069 80.5819 73.0802C80.7713 72.8535 81.0205 72.7402 81.3294 72.7402C81.4599 72.7402 81.574 72.7581 81.6718 72.7938C81.7696 72.8279 81.8534 72.8745 81.9233 72.9335C81.9947 72.9925 82.0553 73.0585 82.105 73.1315H82.1306C82.1228 73.0833 82.1135 73.0142 82.1026 72.9242C82.0933 72.8326 82.0887 72.748 82.0887 72.6703V71.7434H82.6383V75.3672H82.2098L82.112 75.0155H82.0887C82.0421 75.09 81.9831 75.1576 81.9117 75.2181C81.8418 75.2771 81.758 75.3245 81.6602 75.3602C81.5639 75.3959 81.4498 75.4138 81.3178 75.4138ZM81.4715 74.9689C81.706 74.9689 81.8713 74.9014 81.9676 74.7663C82.0638 74.6313 82.1135 74.4286 82.1166 74.1585V74.0863C82.1166 73.7975 82.07 73.5763 81.9769 73.4226C81.8837 73.2673 81.7137 73.1897 81.4669 73.1897C81.2697 73.1897 81.1191 73.2696 81.015 73.4296C80.9126 73.5879 80.8613 73.8092 80.8613 74.0933C80.8613 74.3774 80.9126 74.5948 81.015 74.7454C81.1191 74.8944 81.2712 74.9689 81.4715 74.9689ZM83.9704 72.7891V75.3672H83.4231V72.7891H83.9704ZM83.7003 71.8017C83.7841 71.8017 83.8563 71.8242 83.9168 71.8692C83.9789 71.9142 84.01 71.9919 84.01 72.1021C84.01 72.2108 83.9789 72.2884 83.9168 72.335C83.8563 72.38 83.7841 72.4025 83.7003 72.4025C83.6133 72.4025 83.5396 72.38 83.479 72.335C83.42 72.2884 83.3905 72.2108 83.3905 72.1021C83.3905 71.9919 83.42 71.9142 83.479 71.8692C83.5396 71.8242 83.6133 71.8017 83.7003 71.8017ZM85.766 72.7402C86.092 72.7402 86.3381 72.8124 86.5042 72.9568C86.6719 73.1012 86.7558 73.3263 86.7558 73.6322V75.3672H86.3668L86.262 75.0016H86.2434C86.1704 75.0947 86.0951 75.1716 86.0175 75.2321C85.9399 75.2927 85.8498 75.3377 85.7474 75.3672C85.6464 75.3982 85.523 75.4138 85.3771 75.4138C85.2234 75.4138 85.0859 75.3858 84.9648 75.3299C84.8437 75.2725 84.7483 75.1855 84.6784 75.0691C84.6085 74.9526 84.5736 74.8051 84.5736 74.6266C84.5736 74.3611 84.6722 74.1616 84.8694 74.0281C85.0681 73.8946 85.3677 73.8208 85.7683 73.8068L86.2155 73.7905V73.6555C86.2155 73.4769 86.1735 73.3496 86.0897 73.2735C86.0074 73.1974 85.891 73.1594 85.7404 73.1594C85.6115 73.1594 85.4865 73.178 85.3654 73.2153C85.2443 73.2526 85.1263 73.2984 85.0114 73.3527L84.8344 72.9661C84.9602 72.8993 85.103 72.845 85.2629 72.8031C85.4244 72.7612 85.5921 72.7402 85.766 72.7402ZM86.2131 74.1352L85.8801 74.1468C85.6068 74.1562 85.4151 74.2027 85.3049 74.2866C85.1946 74.3704 85.1395 74.4853 85.1395 74.6313C85.1395 74.7586 85.1776 74.8517 85.2536 74.9107C85.3297 74.9682 85.4298 74.9969 85.5541 74.9969C85.7435 74.9969 85.9003 74.9433 86.0245 74.8362C86.1503 74.7275 86.2131 74.5684 86.2131 74.3588V74.1352Z" fill="#495574"/>
<rect x="44.1055" y="87.4609" width="16.3661" height="8.38852" rx="4.19426" fill="#4E5C7F"/>
<rect x="71.3828" y="87.4609" width="8.39287" height="8.38852" rx="4.19426" fill="#4E5C7F"/>
<path d="M73.6924 92.0188C73.4125 91.8573 73.4125 91.4533 73.6924 91.2918L76.2099 89.8391C76.4897 89.6777 76.8393 89.8796 76.8393 90.2026L76.8393 93.1081C76.8393 93.4311 76.4897 93.633 76.2099 93.4715L73.6924 92.0188Z" fill="white"/>
<rect x="83.9727" y="87.4609" width="8.39287" height="8.38852" rx="4.19426" fill="#4E5C7F"/>
<path d="M90.0576 91.2898C90.3375 91.4513 90.3375 91.8552 90.0576 92.0167L87.5401 93.4695C87.2603 93.6309 86.9107 93.429 86.9107 93.106L86.9107 90.2005C86.9107 89.8775 87.2603 89.6756 87.5401 89.8371L90.0576 91.2898Z" fill="white"/>
<path d="M60.4727 108.434H75.5798V110.109C75.5798 112.427 73.701 114.306 71.3834 114.306H64.6691C62.3515 114.306 60.4727 112.427 60.4727 110.109V108.434Z" fill="#4E5C7F"/>
</g>
<path d="M128.875 126.469H143.982V128.144C143.982 130.462 142.103 132.341 139.786 132.341H133.071C130.754 132.341 128.875 130.462 128.875 128.144V126.469Z" fill="#4E5C7F"/>
<defs>
<filter id="filter0_d_3194_67792" x="118.802" y="59.3594" width="51.1981" height="67.1094" filterUnits="userSpaceOnUse" color-interpolation-filters="sRGB">
<feFlood flood-opacity="0" result="BackgroundImageFix"/>
<feColorMatrix in="SourceAlpha" type="matrix" values="0 0 0 0 0 0 0 0 0 0 0 0 0 0 0 0 0 0 127 0" result="hardAlpha"/>
<feOffset dx="-1.67857"/>
<feColorMatrix type="matrix" values="0 0 0 0 0 0 0 0 0 0 0 0 0 0 0 0 0 0 0.1 0"/>
<feBlend mode="normal" in2="BackgroundImageFix" result="effect1_dropShadow_3194_67792"/>
<feBlend mode="normal" in="SourceGraphic" in2="effect1_dropShadow_3194_67792" result="shape"/>
</filter>
<filter id="filter1_d_3194_67792" x="29" y="30" width="78.4727" height="85.9833" filterUnits="userSpaceOnUse" color-interpolation-filters="sRGB">
<feFlood flood-opacity="0" result="BackgroundImageFix"/>
<feColorMatrix in="SourceAlpha" type="matrix" values="0 0 0 0 0 0 0 0 0 0 0 0 0 0 0 0 0 0 127 0" result="hardAlpha"/>
<feOffset dy="1.67857"/>
<feColorMatrix type="matrix" values="0 0 0 0 0.14902 0 0 0 0 0.160784 0 0 0 0 0.227451 0 0 0 0.1 0"/>
<feBlend mode="normal" in2="BackgroundImageFix" result="effect1_dropShadow_3194_67792"/>
<feBlend mode="normal" in="SourceGraphic" in2="effect1_dropShadow_3194_67792" result="shape"/>
</filter>
</defs>
</svg>
