<svg width="160" height="160" viewBox="0 0 160 160" fill="none" xmlns="http://www.w3.org/2000/svg">
<path d="M101.243 152.347C81.7339 150.846 61.8088 143.846 45.7116 133.242C14.0921 112.411 5.51596 67.5314 25.1187 34.6433C34.3421 19.1703 51.3006 7.68096 69.5847 8.60145C83.1159 9.28124 93.6573 17.8858 99.9896 29.2541C105.33 38.8427 107.258 49.8283 111.77 59.766C118.667 74.9596 131.796 84.4034 141.11 97.7151C146.217 105.013 150.273 115 148.494 124.16C146.807 132.857 140.891 140.645 133.414 145.421C123.977 151.449 112.344 153.201 101.243 152.347Z" fill="#A0B2EC" fill-opacity="0.16"/>
<path fill-rule="evenodd" clip-rule="evenodd" d="M69.7366 42.1554C92.055 38.2099 118.38 26.7187 134.369 42.7227C150.917 59.2877 146.294 87.9303 136.825 109.311C129.137 126.671 109.655 133.222 91.6044 139.287C77.0876 144.165 62.1444 144.849 47.9187 139.184C32.1009 132.885 15.4406 123.804 11.3565 107.331C7.21705 90.6356 17.1424 74.2466 28.6369 61.4142C39.2413 49.5754 54.0526 44.9281 69.7366 42.1554Z" fill="#A0B2EC" fill-opacity="0.16"/>
<g filter="url(#filter0_d_13772_83559)">
<path d="M47.9625 136H112.683C116.218 136 119.083 133.135 119.083 129.6V30.4C119.083 26.8654 116.218 24 112.683 24H47.9625C44.4279 24 41.5625 26.8654 41.5625 30.4V129.6C41.5625 133.135 44.4279 136 47.9625 136Z" fill="white"/>
</g>
<rect x="49.6016" y="105.601" width="42.4" height="4.8" rx="2.4" fill="#BDCCF8"/>
<rect x="49.6016" y="119.2" width="42.4" height="4.8" rx="2.4" fill="#BDCCF8"/>
<path d="M49.5313 66.452C49.5313 64.7871 50.4415 63.4375 51.5643 63.4375L109.098 63.4375C110.221 63.4375 111.131 64.7871 111.131 66.452L111.131 94.823C111.131 96.4879 110.221 97.8375 109.098 97.8375L51.5643 97.8375C50.4415 97.8375 49.5313 96.4879 49.5313 94.823L49.5313 66.452Z" fill="#F9FAFF"/>
<path fill-rule="evenodd" clip-rule="evenodd" d="M82.3711 74.5332L78.3457 82.4685C78.0389 83.0732 77.4184 83.4542 76.7404 83.4542H74.4284L73.1326 87.2267C72.5986 88.7814 70.4316 88.8657 69.7784 87.3572L65.7807 78.1242L63.8473 82.3964C63.5558 83.0404 62.9144 83.4542 62.2074 83.4542H56.1289C55.5766 83.4542 55.1289 83.0065 55.1289 82.4542C55.1289 81.9019 55.5766 81.4542 56.1289 81.4542H62.0784L64.1449 76.8881C64.789 75.4649 66.8159 75.4815 67.4366 76.915L71.4087 86.089L72.5832 82.6695C72.8329 81.9424 73.5168 81.4542 74.2856 81.4542H76.6176L80.793 73.2231C81.5015 71.8265 83.532 71.9381 84.0831 73.4039L88.3134 84.6543L89.2978 82.5047C89.5909 81.8646 90.2303 81.4542 90.9343 81.4542H94.2032L95.8498 78.2082C96.5165 76.894 98.3936 76.894 99.0603 78.2082L100.707 81.4542H104.929C105.481 81.4542 105.929 81.9019 105.929 82.4542C105.929 83.0065 105.481 83.4542 104.929 83.4542H100.584C99.9061 83.4542 99.2856 83.0732 98.9788 82.4685L97.455 79.4646L95.9312 82.4685C95.6245 83.0732 95.004 83.4542 94.326 83.4542H91.0627L89.9318 85.9237C89.2654 87.3788 87.1737 87.3058 86.6104 85.8078L82.3711 74.5332Z" fill="#BDCCF8"/>
<line x1="55.9289" y1="81.0369" x2="104.729" y2="81.0369" stroke="#D81E7E" stroke-width="1.6" stroke-linecap="round" stroke-dasharray="1.6 3.2"/>
<line x1="59.5289" y1="72.6371" x2="101.129" y2="72.6371" stroke="#BDCCF8" stroke-width="0.8" stroke-linecap="round" stroke-dasharray="1.6 5.6"/>
<line x1="59.5289" y1="90.2377" x2="101.129" y2="90.2377" stroke="#BDCCF8" stroke-width="0.8" stroke-linecap="round" stroke-dasharray="1.6 5.6"/>
<rect x="63.1289" y="50.4688" width="48.2812" height="4.84375" rx="2.42188" fill="#BDCCF8"/>
<rect x="63.2031" y="36.7383" width="48" height="4.84375" rx="2.42188" fill="#BDCCF8"/>
<rect x="50.0456" y="36.3816" width="8.71184" height="5.51184" rx="2.75592" fill="#D81E7E" stroke="#D81E7E" stroke-width="0.888156"/>
<rect x="50.0456" y="50.2878" width="8.71184" height="5.51184" rx="2.75592" fill="#D81E7E" stroke="#D81E7E" stroke-width="0.888156"/>
<g filter="url(#filter1_d_13772_83559)">
<circle cx="107.369" cy="119.756" r="28.0326" fill="#F0F3FD"/>
</g>
<g opacity="0.4">
<circle cx="107.353" cy="119.68" r="23.5628" fill="#F9FAFF"/>
<circle cx="107.353" cy="119.68" r="23.5628" fill="#A0B2EC" fill-opacity="0.1"/>
<circle cx="107.353" cy="119.68" r="23.5628" stroke="#BDCCF8" stroke-width="0.798738"/>
</g>
<path opacity="0.4" fill-rule="evenodd" clip-rule="evenodd" d="M95.8484 138.02C106.35 144.649 119.901 142.044 126.114 132.201C126.56 131.494 126.956 130.77 127.303 130.031C126.821 131.431 126.173 132.792 125.354 134.089C119.14 143.935 105.393 146.419 94.6501 139.638C83.9074 132.857 80.2367 119.379 86.4515 109.533C87.7655 107.451 89.4162 105.699 91.3041 104.293C90.091 105.43 89.0059 106.732 88.0828 108.195C81.8696 118.038 85.3464 131.391 95.8484 138.02Z" fill="#BDCCF8"/>
<path fill-rule="evenodd" clip-rule="evenodd" d="M90.7377 104.322C96.8956 99.3419 105.169 97.368 113.134 99.7607C120.686 102.029 126.305 107.724 128.909 114.742C127.121 107.086 121.476 100.608 113.506 98.2142C105.152 95.7049 96.4571 98.3481 90.7377 104.322Z" fill="#F9FAFF"/>
<path fill-rule="evenodd" clip-rule="evenodd" d="M108.02 114.932C107.803 114.902 107.581 114.887 107.355 114.887C106.7 114.887 106.075 115.018 105.506 115.256L106.844 117.573C106.988 117.543 107.138 117.528 107.291 117.528L107.325 117.528L108.02 114.932ZM102.767 118.289C102.634 118.729 102.562 119.196 102.562 119.679C102.562 120.379 102.712 121.043 102.982 121.642L105.16 120.384C105.101 120.183 105.068 119.971 105.068 119.75C105.068 119.539 105.098 119.334 105.153 119.141L102.767 118.289ZM103.725 122.808C104.218 123.38 104.845 123.835 105.557 124.123L106.209 121.692C106.119 121.641 106.032 121.585 105.95 121.523L103.725 122.808ZM106.899 124.45C107.049 124.464 107.201 124.472 107.355 124.472C107.953 124.472 108.525 124.362 109.053 124.162L107.761 121.923C107.697 121.937 107.633 121.948 107.568 121.956L106.899 124.45ZM110.26 123.491C111.407 122.615 112.147 121.234 112.147 119.679C112.147 119.125 112.053 118.594 111.881 118.099L109.497 119.475C109.508 119.565 109.514 119.657 109.514 119.75C109.514 120.317 109.302 120.834 108.953 121.226L110.26 123.491ZM111.241 116.874C110.757 116.205 110.105 115.666 109.346 115.319L108.633 117.979C108.731 118.052 108.821 118.134 108.905 118.222L111.241 116.874Z" fill="#262939"/>
<path fill-rule="evenodd" clip-rule="evenodd" d="M106.92 118.225L108.127 118.548L107.911 119.355L108.717 119.571L108.394 120.779L107.588 120.563L107.372 121.366L106.165 121.042L106.386 120.218L103.883 119.547L104.088 118.781L106.591 119.451L106.92 118.225Z" fill="#262939"/>
<path d="M149.824 114.322C146.135 102.946 140.311 93.2465 132.333 84.7213C131.538 83.8717 132.469 82.5671 133.538 83.0273C143.103 87.1475 153.153 103.397 151.885 114.141C151.751 115.267 150.173 115.399 149.824 114.322Z" fill="#D81E7E"/>
<path d="M131.322 91.2329C137.717 94.8425 143.579 104.902 143.762 112.307C143.792 113.493 142.113 113.78 141.707 112.665C140.386 109.035 138.887 105.57 136.873 102.312C134.863 99.062 132.735 95.9216 130 92.8611C129.188 91.9535 130.26 90.6334 131.322 91.2329Z" fill="#D81E7E"/>
<defs>
<filter id="filter0_d_13772_83559" x="29.5953" y="18.0164" width="101.454" height="135.934" filterUnits="userSpaceOnUse" color-interpolation-filters="sRGB">
<feFlood flood-opacity="0" result="BackgroundImageFix"/>
<feColorMatrix in="SourceAlpha" type="matrix" values="0 0 0 0 0 0 0 0 0 0 0 0 0 0 0 0 0 0 127 0" result="hardAlpha"/>
<feOffset dy="5.98361"/>
<feGaussianBlur stdDeviation="5.98361"/>
<feColorMatrix type="matrix" values="0 0 0 0 0.0470588 0 0 0 0 0.254902 0 0 0 0 0.603922 0 0 0 0.1 0"/>
<feBlend mode="normal" in2="BackgroundImageFix" result="effect1_dropShadow_13772_83559"/>
<feBlend mode="normal" in="SourceGraphic" in2="effect1_dropShadow_13772_83559" result="shape"/>
</filter>
<filter id="filter1_d_13772_83559" x="76.141" y="91.7236" width="62.4563" height="62.4553" filterUnits="userSpaceOnUse" color-interpolation-filters="sRGB">
<feFlood flood-opacity="0" result="BackgroundImageFix"/>
<feColorMatrix in="SourceAlpha" type="matrix" values="0 0 0 0 0 0 0 0 0 0 0 0 0 0 0 0 0 0 127 0" result="hardAlpha"/>
<feOffset dy="3.19495"/>
<feGaussianBlur stdDeviation="1.59748"/>
<feComposite in2="hardAlpha" operator="out"/>
<feColorMatrix type="matrix" values="0 0 0 0 0.14902 0 0 0 0 0.160784 0 0 0 0 0.223529 0 0 0 0.16 0"/>
<feBlend mode="normal" in2="BackgroundImageFix" result="effect1_dropShadow_13772_83559"/>
<feBlend mode="normal" in="SourceGraphic" in2="effect1_dropShadow_13772_83559" result="shape"/>
</filter>
</defs>
</svg>
