<svg width="160" height="161" viewBox="0 0 160 161" fill="none" xmlns="http://www.w3.org/2000/svg">
<path d="M26.1045 79.4724C38.1468 67.0598 54.1633 57.472 70.4659 52.522C102.491 42.8 137.841 62.3283 149.12 94.2348C154.425 109.247 152.653 127.265 141.696 139.173C133.589 147.986 121.784 150.289 110.479 148.17C100.945 146.382 92.3882 141.486 83.0841 138.938C68.8597 135.041 55.023 138.629 40.712 137.438C32.8665 136.786 23.7863 133.901 18.5648 127.516C13.6075 121.455 11.6562 113.034 12.6347 105.253C13.8694 95.4322 19.2513 86.5358 26.1045 79.4724Z" fill="#A0B2EC" fill-opacity="0.16"/>
<path fill-rule="evenodd" clip-rule="evenodd" d="M93.8376 93.74C82.1091 109.98 72.4834 133.474 52.4907 133.163C31.7973 132.842 17.0994 111.828 9.945 92.4371C4.13589 76.6926 12.4617 60.5453 20.1784 45.5873C26.3844 33.5577 35.4423 23.9259 47.9529 18.7629C61.8637 13.0221 78.0217 8.52762 90.7517 16.4626C103.654 24.505 107.446 41.0104 108.054 56.2255C108.614 70.2625 102.08 82.3273 93.8376 93.74Z" fill="#A0B2EC" fill-opacity="0.16"/>
<path d="M41.8367 56.6942C74.5965 48.1758 116.377 51.9953 133.113 54.2016L136.555 67.7328C93.3503 60.7109 52.2027 65.9566 38.3945 70.2254L41.8367 56.6942Z" fill="#F0B323"/>
<path d="M41.8367 56.6942C74.5965 48.1758 116.377 51.9953 133.113 54.2016L136.555 67.7328C93.3503 60.7109 52.2027 65.9566 38.3945 70.2254L41.8367 56.6942Z" fill="black" fill-opacity="0.2"/>
<path d="M130.057 90.633C130.62 94.9297 127.27 104.207 126.702 105.002C128.844 95.6869 39.1933 75.4186 38.3672 70.2269C38.3696 70.2197 41.7173 56.7147 41.7173 56.71C41.7173 58.6352 50.1565 61.313 52.1031 61.9895H52.1079C52.4735 62.1082 57.9097 63.9029 61.6106 64.9308H61.6153C66.5792 66.4406 85.2594 71.6062 92.4214 73.7688H92.4262C97.4446 75.2406 101.566 76.5581 101.931 76.6697H101.936C104.096 77.3629 130.038 85.3226 130.038 90.5594C130.048 90.5831 130.05 90.6069 130.057 90.633Z" fill="#F0B323"/>
<path d="M111.084 79.7296C111.262 79.7928 111.359 79.9793 111.314 80.1622L110.137 84.9261C110.089 85.1222 109.891 85.2418 109.695 85.1933C109.499 85.1448 109.379 84.9467 109.428 84.7507L110.606 79.9851C110.658 79.7758 110.881 79.6572 111.084 79.7296Z" fill="#262939"/>
<path d="M118.185 82.457C118.32 82.5138 118.392 82.6608 118.356 82.8032L117.634 85.7187C117.595 85.8774 117.434 85.9742 117.275 85.9349C117.117 85.8956 117.02 85.7352 117.059 85.5766L117.778 82.6626C117.822 82.484 118.015 82.3859 118.185 82.457Z" fill="#262939"/>
<path d="M115.775 81.4808C115.914 81.5352 115.989 81.6838 115.953 81.8286L115.219 84.7912C115.18 84.9515 115.017 85.0488 114.857 85.008C114.698 84.9675 114.602 84.8067 114.642 84.6479L115.377 81.6861C115.42 81.5117 115.608 81.4153 115.775 81.4808Z" fill="#262939"/>
<path d="M113.464 80.5971C113.605 80.6504 113.68 80.8002 113.643 80.946L112.911 83.8942C112.872 84.0528 112.712 84.1495 112.553 84.1102C112.394 84.0708 112.298 83.9103 112.337 83.7516L113.068 80.8052C113.111 80.6316 113.297 80.5337 113.464 80.5971Z" fill="#262939"/>
<path d="M99.2746 75.8274C99.4641 75.8864 99.5727 76.0844 99.5219 76.2763L98.2571 81.0585C98.2047 81.2564 98.0017 81.3744 97.8038 81.322C97.6058 81.2696 97.4879 81.0665 97.5404 80.8686L98.8094 76.0853C98.8631 75.8827 99.0744 75.765 99.2746 75.8274Z" fill="#262939"/>
<path d="M108.854 78.9442C109.002 78.9958 109.085 79.152 109.045 79.3034L108.419 81.6602C108.377 81.8199 108.213 81.9149 108.053 81.8722C107.894 81.8296 107.8 81.6665 107.842 81.5073L108.464 79.1495C108.508 78.9806 108.689 78.8866 108.854 78.9442Z" fill="#262939"/>
<path d="M106.469 78.1368C106.62 78.1865 106.705 78.3445 106.664 78.4983L105.995 81.017C105.952 81.1776 105.787 81.2732 105.627 81.2306C105.466 81.188 105.37 81.0233 105.413 80.8627L106.08 78.3449C106.124 78.1769 106.304 78.0825 106.469 78.1368Z" fill="#262939"/>
<path d="M104.073 77.3468C104.224 77.3958 104.31 77.5542 104.269 77.7077L103.564 80.3733C103.521 80.533 103.357 80.628 103.198 80.5853C103.039 80.5428 102.944 80.3796 102.986 80.2205L103.691 77.5547C103.735 77.3887 103.909 77.2937 104.073 77.3468Z" fill="#262939"/>
<path d="M101.675 76.582C101.826 76.6297 101.913 76.7876 101.873 76.9411L101.139 79.7321C101.096 79.8929 100.932 79.9888 100.771 79.9462C100.61 79.9036 100.515 79.7391 100.557 79.5787L101.295 76.7898C101.339 76.625 101.512 76.5307 101.675 76.582Z" fill="#262939"/>
<path d="M87.3358 72.2695C87.5314 72.3262 87.6449 72.5279 87.5927 72.7247L86.3537 77.3905C86.3006 77.5904 86.0959 77.7098 85.8957 77.6575C85.6946 77.6049 85.5745 77.3989 85.6277 77.198L86.8634 72.534C86.9177 72.3292 87.1323 72.2106 87.3358 72.2695Z" fill="#262939"/>
<path d="M96.9733 75.1209C97.1318 75.1685 97.2237 75.3336 97.1812 75.4936L96.5382 77.9106C96.4949 78.0733 96.328 78.1701 96.1653 78.1268C96.0028 78.0835 95.906 77.9168 95.9491 77.7542L96.5903 75.3362C96.6346 75.169 96.8077 75.0712 96.9733 75.1209Z" fill="#262939"/>
<path d="M94.5653 74.3939C94.7243 74.4416 94.8174 74.6066 94.7748 74.767L94.111 77.2666C94.0676 77.4298 93.9002 77.527 93.737 77.4838C93.5737 77.4405 93.4764 77.2731 93.5197 77.1098L94.182 74.608C94.2261 74.4411 94.4 74.3443 94.5653 74.3939Z" fill="#262939"/>
<path d="M92.1534 73.6771C92.3106 73.7245 92.4029 73.8887 92.361 74.0475L91.6808 76.6248C91.6378 76.788 91.4704 76.8853 91.3073 76.8421C91.1441 76.7988 91.047 76.6314 91.0904 76.4683L91.7769 73.8899C91.8208 73.725 91.99 73.6278 92.1534 73.6771Z" fill="#262939"/>
<path d="M89.7411 72.9685C89.9004 73.0149 89.9953 73.1801 89.9529 73.3404L89.2551 75.9818C89.212 76.1451 89.0446 76.2424 88.8814 76.1991C88.7182 76.1559 88.621 75.9885 88.6643 75.8254L89.3661 73.1813C89.4096 73.0173 89.5782 72.9209 89.7411 72.9685Z" fill="#262939"/>
<path d="M75.3488 68.8579C75.5537 68.9156 75.6731 69.1305 75.6128 69.3346L74.1977 74.1208C74.1377 74.3237 73.9244 74.4394 73.7216 74.379C73.5193 74.3188 73.404 74.1061 73.464 73.9037L74.8819 69.1183C74.9412 68.918 75.1478 68.8013 75.3488 68.8579Z" fill="#262939"/>
<path d="M85.016 71.6043C85.181 71.652 85.2767 71.8251 85.228 71.9899L84.3739 74.8789C84.3256 75.0423 84.1539 75.1355 83.9905 75.087C83.8274 75.0385 83.7345 74.8671 83.7828 74.704L84.6398 71.811C84.6874 71.6503 84.855 71.5577 85.016 71.6043Z" fill="#262939"/>
<path d="M82.6032 70.9135C82.7695 70.9616 82.8642 71.1361 82.8151 71.3022L81.969 74.1646C81.9204 74.3289 81.7478 74.4229 81.5834 74.3744C81.4187 74.3259 81.3247 74.153 81.3734 73.9884L82.2215 71.1233C82.2697 70.9604 82.44 70.8663 82.6032 70.9135Z" fill="#262939"/>
<path d="M80.1836 70.228C80.3487 70.2743 80.4431 70.4459 80.3945 70.6104L79.5549 73.451C79.5063 73.6153 79.3337 73.7093 79.1693 73.6608C79.0047 73.6122 78.9106 73.4393 78.9594 73.2748L79.7999 70.4371C79.848 70.2745 80.0203 70.1821 80.1836 70.228Z" fill="#262939"/>
<path d="M77.7637 69.5418C77.9297 69.5884 78.0252 69.7624 77.9762 69.9277L77.1437 72.7367C77.0952 72.9001 76.9234 72.9933 76.7601 72.9447C76.5969 72.8963 76.5039 72.7248 76.5521 72.5617L77.3819 69.7545C77.4303 69.591 77.5995 69.4957 77.7637 69.5418Z" fill="#262939"/>
<path d="M63.3724 65.4428C63.5828 65.504 63.704 65.7279 63.6372 65.9366L61.9989 71.0564C61.9339 71.2598 61.7167 71.3724 61.5129 71.3085C61.3076 71.244 61.194 71.0248 61.2596 70.8198L62.8989 65.6982C62.9629 65.4983 63.1708 65.3841 63.3724 65.4428Z" fill="#262939"/>
<path d="M71.5801 71.7817C71.5273 71.9471 71.6187 72.124 71.7842 72.1765C71.9491 72.2289 72.1253 72.1379 72.1781 71.9731L73.2599 68.5968C73.3135 68.4294 73.22 68.2505 73.052 68.1988C72.8871 68.1481 72.7122 68.2396 72.6596 68.404L71.5801 71.7817Z" fill="#262939"/>
<path d="M70.6202 67.5225C70.7898 67.5712 70.8859 67.7502 70.8321 67.9183L69.7804 71.2077C69.7273 71.3737 69.5493 71.4649 69.3836 71.4109C69.219 71.3574 69.1286 71.1808 69.1814 71.016L70.2346 67.7276C70.2863 67.5663 70.4574 67.4758 70.6202 67.5225Z" fill="#262939"/>
<path d="M68.203 66.8338C68.3741 66.8826 68.4732 67.0635 68.4188 67.2329L67.3892 70.4415C67.3363 70.6063 67.1601 70.6972 66.9952 70.6448C66.8297 70.5923 66.7383 70.4154 66.7912 70.2499L67.8176 67.0402C67.8694 66.8783 68.0396 66.7871 68.203 66.8338Z" fill="#262939"/>
<path d="M65.7907 66.1414C65.9594 66.1914 66.0549 66.3697 66.0012 66.5372L64.9967 69.6741C64.9437 69.8397 64.7661 69.9305 64.6008 69.8765C64.437 69.823 64.3471 69.6472 64.3996 69.483L65.4029 66.3451C65.4547 66.183 65.6276 66.0931 65.7907 66.1414Z" fill="#262939"/>
<path d="M52.2189 62.0174C52.5633 62.129 52.7469 62.5038 52.6281 62.8457L51.0634 67.3468C50.9942 67.5458 50.7766 67.6509 50.5776 67.5813C50.3793 67.512 50.2745 67.2951 50.3435 67.0966L52.1166 61.99C52.1174 61.9878 52.1194 61.9863 52.1218 61.9863C52.1223 61.9863 52.1229 61.9864 52.1234 61.9866C52.1552 61.9968 52.1871 62.007 52.2189 62.0174Z" fill="#262939"/>
<path d="M61.3114 64.838C61.4814 64.8876 61.5775 65.0697 61.5193 65.237L60.503 68.16C60.4471 68.3206 60.2718 68.4055 60.1113 68.3498C59.9506 68.294 59.8656 68.1186 59.9214 67.9579L60.9381 65.031C60.9915 64.8773 61.1552 64.7924 61.3114 64.838Z" fill="#262939"/>
<path d="M59.0932 64.1783C59.2611 64.2283 59.354 64.4082 59.2963 64.5737L58.3117 67.3979C58.2558 67.5583 58.0805 67.6432 57.92 67.5875C57.7593 67.5317 57.6742 67.3561 57.7301 67.1954L58.7109 64.3732C58.7654 64.2164 58.9341 64.131 59.0932 64.1783Z" fill="#262939"/>
<path d="M56.8752 63.5043C57.0424 63.556 57.1361 63.7369 57.0786 63.9022L56.1267 66.6369C56.0707 66.7978 55.8951 66.883 55.734 66.8273C55.5725 66.7715 55.487 66.5952 55.5431 66.4338L56.4947 63.6989C56.5494 63.5416 56.7161 63.4551 56.8752 63.5043Z" fill="#262939"/>
<path d="M54.6766 62.8143C54.8407 62.8665 54.9313 63.0438 54.8748 63.2064L53.9469 65.8774C53.891 66.0383 53.7153 66.1235 53.5543 66.0679C53.3928 66.0121 53.3073 65.8358 53.3635 65.6745L54.2927 63.006C54.3476 62.8483 54.5176 62.7636 54.6766 62.8143Z" fill="#262939"/>
<path d="M44.8573 59.2123C45.014 59.2868 45.091 59.475 45.022 59.6342L43.4113 63.3501C43.3402 63.514 43.1495 63.589 42.9859 63.5173C42.8231 63.4461 42.7485 63.2566 42.8192 63.0935L44.429 59.3775C44.5015 59.2101 44.6925 59.134 44.8573 59.2123Z" fill="#262939"/>
<path d="M51.1124 61.6421C51.2373 61.6838 51.2998 61.8235 51.2474 61.9443L50.29 64.153C50.2406 64.2671 50.1082 64.3197 49.9938 64.2708C49.8788 64.2214 49.8258 64.0879 49.8757 63.9731L50.8356 61.7656C50.882 61.6589 51.0021 61.6053 51.1124 61.6421Z" fill="#262939"/>
<path d="M49.5208 61.0832C49.646 61.1273 49.709 61.2693 49.656 61.3911L48.7448 63.4831C48.6953 63.5967 48.5632 63.649 48.4494 63.5999C48.335 63.5506 48.2824 63.4179 48.332 63.3036L49.2417 61.2069C49.2887 61.0987 49.4095 61.044 49.5208 61.0832Z" fill="#262939"/>
<path d="M47.9469 60.5044C48.0673 60.5508 48.1258 60.6884 48.0744 60.8067L47.2017 62.8169C47.1523 62.9307 47.02 62.9831 46.9061 62.934C46.7919 62.8847 46.7392 62.7522 46.7885 62.638L47.6571 60.6265C47.7054 60.5145 47.833 60.4606 47.9469 60.5044Z" fill="#262939"/>
<path d="M46.3873 59.8872C46.5045 59.9358 46.5587 60.0715 46.5082 60.1879L45.6586 62.1495C45.6093 62.2634 45.477 62.3159 45.363 62.2667C45.2489 62.2175 45.1962 62.085 45.2456 61.9709L46.0935 60.008C46.1427 59.8942 46.2728 59.8397 46.3873 59.8872Z" fill="#262939"/>
<path d="M43.8625 58.7123C43.9451 58.7567 43.9843 58.8586 43.947 58.9446L43.0147 61.0944C42.9747 61.1865 42.8681 61.2293 42.7756 61.1902C42.6819 61.1506 42.6385 61.0422 42.6789 60.9489L43.6103 58.8007C43.6529 58.7025 43.7683 58.6615 43.8625 58.7123Z" fill="#262939"/>
<path d="M42.9187 58.1554C42.9894 58.2038 43.0204 58.298 42.9863 58.3767L41.999 60.6574C41.9591 60.7495 41.8524 60.7923 41.7599 60.7532C41.6662 60.7136 41.6228 60.6053 41.6632 60.512L42.6492 58.2344C42.6949 58.1288 42.8238 58.0904 42.9187 58.1554Z" fill="#262939"/>
<path d="M42.1348 57.5179C42.1827 57.5674 42.2056 57.6471 42.1782 57.7103L41.2304 59.8959C41.1577 60.0636 40.9629 60.1409 40.795 60.0687C40.7767 60.0609 40.7683 60.0396 40.7763 60.0214L40.8685 59.8124L40.8733 59.8005L41.8401 57.5679C41.8905 57.4515 42.0467 57.4268 42.1348 57.5179Z" fill="#262939"/>
<path d="M41.7444 56.8592C41.7453 56.8635 41.7449 56.8683 41.7431 56.8723L41.582 57.2435L41.6904 56.8546C41.697 56.8312 41.7395 56.8353 41.7444 56.8592Z" fill="#262939"/>
<path d="M120.276 83.3648C120.449 83.4428 120.54 83.6362 120.489 83.8185L119.235 88.3203C119.186 88.4967 119.003 88.5998 118.827 88.5506C118.651 88.5014 118.548 88.3186 118.597 88.1423L119.88 83.5519C119.928 83.3807 120.115 83.2898 120.276 83.3648Z" fill="#262939"/>
<path d="M129.362 89.1999C129.524 89.4192 129.563 89.7004 129.49 89.9624L128.43 93.7675C128.381 93.9432 128.199 94.0463 128.024 93.9979C127.847 93.9493 127.743 93.7663 127.792 93.5897L128.996 89.2754C129.043 89.1082 129.258 89.0614 129.362 89.1999Z" fill="#262939"/>
<path d="M122.163 84.2482C122.303 84.3223 122.377 84.4794 122.334 84.632L121.532 87.5072C121.492 87.6491 121.346 87.7321 121.204 87.6929C121.061 87.6535 120.978 87.5058 121.017 87.3634L121.849 84.3906C121.886 84.2564 122.039 84.1859 122.163 84.2482Z" fill="#262939"/>
<path d="M124.041 85.2092C124.18 85.2895 124.25 85.4513 124.207 85.6062L123.438 88.3614C123.399 88.5033 123.252 88.5864 123.11 88.5471C122.967 88.5077 122.884 88.3601 122.924 88.2177L123.725 85.345C123.763 85.2081 123.917 85.1399 124.041 85.2092Z" fill="#262939"/>
<path d="M125.883 86.2821C126.026 86.3707 126.09 86.5431 126.045 86.7056L125.235 89.6122C125.196 89.7541 125.049 89.8373 124.907 89.798C124.764 89.7586 124.681 89.611 124.72 89.4687L125.577 86.4024C125.614 86.2697 125.766 86.2091 125.883 86.2821Z" fill="#262939"/>
<path d="M127.673 87.5409C127.815 87.6485 127.875 87.8333 127.827 88.0049L127.166 90.3757C127.126 90.5186 126.978 90.6024 126.835 90.5632C126.691 90.5238 126.607 90.3747 126.647 90.2308L127.371 87.6406C127.408 87.5093 127.569 87.4537 127.673 87.5409Z" fill="#262939"/>
<g filter="url(#filter0_i_8477_8414)">
<path d="M129.286 88.259C129.616 87.4089 130.572 86.9867 131.422 87.3161L140.962 91.0123C141.812 91.3416 142.234 92.2978 141.905 93.1479L136.166 107.961C135.837 108.811 134.88 109.233 134.03 108.903L124.49 105.207C123.64 104.878 123.218 103.922 123.547 103.072L129.286 88.259Z" fill="#A0B2EC"/>
</g>
<path d="M136.556 67.6137C135.733 72.7698 116.761 81.228 43.8344 99.0038C43.3406 99.1248 38.1845 100.371 37.6836 100.492C36.8005 97.0382 36.3448 92.656 34.5977 85.8168C35.0962 85.7004 40.2547 84.4589 40.7532 84.3449C59.507 80.0031 77.5177 75.5544 97.3778 69.6196H97.3825C102.738 67.965 113.518 64.7626 122.935 60.8766H122.94C125.122 59.9626 133.219 56.5751 133.114 54.2012C133.672 56.2119 135.794 64.8813 136.556 67.6137Z" fill="#F0B323"/>
<g filter="url(#filter1_i_8477_8414)">
<path d="M22.7264 87.6901C22.5453 86.7966 23.1228 85.9254 24.0162 85.7443L33.908 83.7392C34.8015 83.558 35.6727 84.1355 35.8538 85.029L38.9708 100.406C39.152 101.3 38.5745 102.171 37.681 102.352L27.7892 104.357C26.8957 104.538 26.0246 103.961 25.8435 103.067L22.7264 87.6901Z" fill="#A0B2EC"/>
</g>
<path d="M41.0946 90.1459C41.1323 90.3082 41.0313 90.4704 40.869 90.5081C40.7091 90.5453 40.5487 90.4479 40.5081 90.2888L39.2005 85.1661C39.1505 84.9702 39.2716 84.7717 39.4688 84.7271C39.6625 84.6834 39.8555 84.8041 39.9004 84.9974L41.0946 90.1459Z" fill="#262939"/>
<path d="M53.3107 87.2432C53.3563 87.44 53.2335 87.6364 53.0367 87.6817C52.8402 87.7269 52.6443 87.6044 52.5988 87.408L51.421 82.3195C51.3759 82.1247 51.4944 81.9299 51.6889 81.8836C51.8873 81.8363 52.0871 81.9598 52.1331 82.1584L53.3107 87.2432Z" fill="#262939"/>
<path d="M43.0139 87.6074C43.0509 87.7672 42.9509 87.9266 42.7909 87.9628C42.6323 87.9987 42.4744 87.8998 42.4374 87.7414L41.6896 84.5328C41.6519 84.3711 41.7536 84.2096 41.9155 84.1729C42.0746 84.1368 42.2323 84.2362 42.2692 84.3952L43.0139 87.6074Z" fill="#262939"/>
<path d="M45.4564 87.0383C45.4933 87.1974 45.3945 87.3563 45.2355 87.3936C45.0759 87.431 44.9163 87.3317 44.8793 87.172L44.1375 83.9677C44.1005 83.8077 44.1999 83.6481 44.3601 83.6117C44.5185 83.5756 44.6767 83.6745 44.7134 83.8328L45.4564 87.0383Z" fill="#262939"/>
<path d="M47.9058 86.4707C47.9426 86.6298 47.8438 86.7886 47.6848 86.8259C47.5252 86.8634 47.3655 86.764 47.3286 86.6042L46.586 83.3924C46.5493 83.234 46.6474 83.0765 46.8058 83.0395C46.9651 83.0022 47.1266 83.1002 47.1634 83.2597L47.9058 86.4707Z" fill="#262939"/>
<path d="M50.3514 85.9016C50.3885 86.0607 50.2897 86.2198 50.1306 86.2571C49.9711 86.2945 49.8116 86.1953 49.7745 86.0358L49.0274 82.8199C48.9908 82.6622 49.0892 82.5052 49.2469 82.4682C49.4055 82.431 49.5657 82.5285 49.6027 82.6872L50.3514 85.9016Z" fill="#262939"/>
<path d="M65.5166 84.1995C65.5651 84.3955 65.4455 84.5937 65.2495 84.6422C65.0535 84.6908 64.8553 84.5712 64.8067 84.3752L63.5606 79.3428C63.5119 79.1462 63.6294 78.9473 63.8258 78.8977C64.0221 78.8481 64.2217 78.9682 64.2704 79.1647L65.5166 84.1995Z" fill="#262939"/>
<path d="M55.2199 84.7163C55.2593 84.8744 55.1637 85.0347 55.0059 85.0751C54.8464 85.1159 54.6843 85.0191 54.6446 84.8594L53.8534 81.6723C53.8135 81.5118 53.9098 81.3492 54.0705 81.3103C54.2282 81.2721 54.3869 81.3695 54.4261 81.527L55.2199 84.7163Z" fill="#262939"/>
<path d="M56.5151 80.7157C56.6744 80.6764 56.8353 80.7736 56.8747 80.9328L57.6606 84.1129C57.6998 84.2715 57.6031 84.4319 57.4445 84.4712C57.2858 84.5106 57.1252 84.4138 57.0859 84.2551L56.2981 81.0755C56.2586 80.9162 56.3558 80.7551 56.5151 80.7157Z" fill="#262939"/>
<path d="M60.1002 83.5083C60.1397 83.6671 60.0435 83.8279 59.885 83.8684C59.7249 83.9092 59.5623 83.8119 59.5225 83.6516L58.7356 80.478C58.6962 80.3187 58.7953 80.1573 58.9546 80.118C59.1136 80.0787 59.273 80.1759 59.3124 80.3349L60.1002 83.5083Z" fill="#262939"/>
<path d="M62.5354 82.9053C62.5747 83.064 62.478 83.2245 62.3194 83.2638C62.1607 83.3031 62.0002 83.2064 61.9609 83.0478L61.1726 79.8686C61.1334 79.7102 61.2298 79.5499 61.3882 79.5108C61.5471 79.4716 61.708 79.5684 61.7474 79.7273L62.5354 82.9053Z" fill="#262939"/>
<path d="M77.6576 81.071C77.7101 81.2689 77.5922 81.4719 77.3942 81.5244C77.1963 81.5768 76.9933 81.4588 76.9409 81.2609L75.6055 76.2125C75.5538 76.0169 75.6706 75.817 75.8661 75.7651C76.063 75.713 76.2666 75.829 76.3189 76.0259L77.6576 81.071Z" fill="#262939"/>
<path d="M67.3657 81.7109C67.4078 81.87 67.3132 82.0333 67.1542 82.0758C66.9946 82.1185 66.8307 82.0235 66.7883 81.8639L65.9418 78.6743C65.8987 78.512 65.9972 78.3455 66.1598 78.3036C66.318 78.2628 66.4783 78.3578 66.5201 78.5157L67.3657 81.7109Z" fill="#262939"/>
<path d="M69.7945 81.0664C69.8371 81.227 69.7414 81.3917 69.5808 81.4344C69.4202 81.477 69.2554 81.3813 69.2128 81.2207L68.3714 78.0515C68.3284 77.8894 68.4286 77.7231 68.5909 77.681C68.75 77.6398 68.911 77.7348 68.9531 77.8936L69.7945 81.0664Z" fill="#262939"/>
<path d="M72.2249 80.4252C72.267 80.5843 72.1725 80.7475 72.0135 80.79C71.8539 80.8327 71.69 80.7377 71.6477 80.578L70.8111 77.4161C70.7687 77.2558 70.8651 77.0908 71.0256 77.0491C71.1846 77.0077 71.345 77.1039 71.387 77.2627L72.2249 80.4252Z" fill="#262939"/>
<path d="M74.6521 79.7788C74.6947 79.9394 74.5991 80.1041 74.4386 80.1466C74.278 80.1893 74.1133 80.0935 74.0708 79.9328L73.2359 76.7737C73.1939 76.6151 73.2868 76.4527 73.4454 76.4108C73.6058 76.3683 73.7717 76.4635 73.8142 76.6238L74.6521 79.7788Z" fill="#262939"/>
<path d="M89.8499 77.9006C89.9031 78.1015 89.783 78.3074 89.5819 78.36C89.3818 78.4123 89.1771 78.2929 89.124 78.093L87.7436 72.8881C87.6908 72.6889 87.8074 72.4839 88.0056 72.4277C88.2076 72.3705 88.4163 72.4907 88.4701 72.6936L89.8499 77.9006Z" fill="#262939"/>
<path d="M79.5279 78.4573C79.571 78.6198 79.4743 78.7866 79.3118 78.8299C79.1491 78.8732 78.9822 78.7764 78.9389 78.6137L78.1064 75.4833C78.0628 75.3191 78.1606 75.1502 78.3247 75.1063C78.4874 75.0627 78.6532 75.1603 78.6964 75.323L79.5279 78.4573Z" fill="#262939"/>
<path d="M81.956 77.8129C81.9991 77.9762 81.9019 78.1435 81.7387 78.1868C81.5754 78.23 81.408 78.1328 81.3647 77.9695L80.5311 74.823C80.488 74.6604 80.5847 74.4937 80.7469 74.4493C80.9105 74.4044 81.0797 74.5011 81.1231 74.6651L81.956 77.8129Z" fill="#262939"/>
<path d="M84.39 77.1701C84.4334 77.3333 84.3362 77.5007 84.173 77.544C84.0098 77.5872 83.8425 77.49 83.7993 77.3267L82.9587 74.1489C82.9166 73.9898 83.0107 73.8266 83.1694 73.7828C83.3329 73.7376 83.5028 73.8337 83.5464 73.9976L84.39 77.1701Z" fill="#262939"/>
<path d="M86.8116 76.5268C86.8548 76.69 86.7575 76.8573 86.5944 76.9005C86.4311 76.9438 86.2636 76.8465 86.2205 76.6831L85.3741 73.4821C85.3313 73.3203 85.4266 73.1542 85.5878 73.1092C85.7517 73.0635 85.9211 73.1607 85.9647 73.3252L86.8116 76.5268Z" fill="#262939"/>
<path d="M102.014 74.6045C102.074 74.8068 101.958 75.0194 101.756 75.0797C101.553 75.1401 101.34 75.0243 101.28 74.8214L99.6766 69.3888C99.6176 69.1892 99.7319 68.9787 99.9309 68.9177C100.133 68.8557 100.346 68.9713 100.406 69.1744L102.014 74.6045Z" fill="#262939"/>
<path d="M91.6947 75.4065C91.7429 75.5697 91.6499 75.741 91.4869 75.7895C91.3235 75.838 91.1517 75.7448 91.1034 75.5813L90.092 72.1569C90.0436 71.9929 90.1387 71.8208 90.3028 71.7729C90.4643 71.7257 90.6335 71.8178 90.6812 71.9792L91.6947 75.4065Z" fill="#262939"/>
<path d="M94.1062 74.6911C94.1549 74.8557 94.0609 75.0287 93.8962 75.0772C93.7318 75.1257 93.5592 75.0318 93.5106 74.8674L92.5023 71.4586C92.4536 71.2939 92.5497 71.1205 92.715 71.0735C92.8793 71.0268 93.0491 71.1215 93.0976 71.2853L94.1062 74.6911Z" fill="#262939"/>
<path d="M96.5155 73.976C96.5642 74.1405 96.4702 74.3134 96.3056 74.3619C96.1412 74.4104 95.9686 74.3164 95.9201 74.152L94.9159 70.7496C94.8674 70.585 94.9612 70.4114 95.1255 70.3619C95.2884 70.3128 95.458 70.4071 95.5063 70.5702L96.5155 73.976Z" fill="#262939"/>
<path d="M98.9227 73.2651C98.971 73.4283 98.8779 73.5997 98.7148 73.6482C98.5514 73.6967 98.3797 73.6036 98.3313 73.4402L97.3212 70.0314C97.2731 69.8692 97.3664 69.6981 97.5281 69.6482C97.6925 69.5974 97.8655 69.6909 97.9143 69.856L98.9227 73.2651Z" fill="#262939"/>
<path d="M113.999 70.8339C114.065 71.0386 113.952 71.2576 113.747 71.3226C113.543 71.3874 113.325 71.2748 113.259 71.0708L111.507 65.5959C111.443 65.3943 111.554 65.1774 111.754 65.1082C111.958 65.0374 112.178 65.1493 112.244 65.3552L113.999 70.8339Z" fill="#262939"/>
<path d="M103.676 71.7973C103.729 71.9627 103.637 72.1396 103.472 72.1921C103.307 72.2445 103.13 72.1535 103.078 71.9887L101.996 68.6124C101.942 68.4451 102.036 68.2661 102.204 68.2144C102.369 68.1637 102.544 68.2552 102.596 68.4196L103.676 71.7973Z" fill="#262939"/>
<path d="M106.071 71.0315C106.124 71.1964 106.034 71.3729 105.869 71.4265C105.703 71.4804 105.525 71.3893 105.472 71.2233L104.395 67.8548C104.343 67.6915 104.434 67.5165 104.597 67.4637C104.763 67.4101 104.94 67.5012 104.993 67.6673L106.071 71.0315Z" fill="#262939"/>
<path d="M108.466 70.2665C108.519 70.4319 108.428 70.6089 108.262 70.6615C108.097 70.7138 107.921 70.6229 107.868 70.4582L106.787 67.0882C106.734 66.9241 106.825 66.748 106.989 66.6944C107.155 66.6399 107.333 66.7313 107.387 66.8981L108.466 70.2665Z" fill="#262939"/>
<path d="M110.858 69.502C110.91 69.6662 110.82 69.8419 110.657 69.8954C110.491 69.9494 110.314 69.8586 110.261 69.693L109.176 66.3028C109.124 66.1393 109.215 65.9639 109.378 65.9103C109.544 65.8557 109.721 65.9468 109.775 66.1131L110.858 69.502Z" fill="#262939"/>
<path d="M124.915 67.11C124.984 67.3085 124.879 67.5253 124.681 67.5947C124.482 67.6643 124.264 67.5592 124.195 67.3601L122.289 61.878C122.173 61.544 122.338 61.1779 122.665 61.0434C122.705 61.0268 122.746 61.0102 122.786 60.9936C122.787 60.9933 122.787 60.9932 122.788 60.9932C122.79 60.9932 122.792 60.9946 122.793 60.9967L124.915 67.11Z" fill="#262939"/>
<path d="M115.342 67.9705C115.398 68.1312 115.313 68.3066 115.152 68.3624C114.991 68.4181 114.816 68.3332 114.76 68.1726L113.586 64.798C113.53 64.6371 113.617 64.4611 113.778 64.4047C113.939 64.3484 114.114 64.4331 114.17 64.594L115.342 67.9705Z" fill="#262939"/>
<path d="M117.522 67.2102C117.578 67.3709 117.493 67.5465 117.332 67.6022C117.172 67.6579 116.997 67.5731 116.941 67.4126L115.761 64.025C115.705 63.8653 115.789 63.6909 115.948 63.6338C116.109 63.5758 116.288 63.6602 116.344 63.8223L117.522 67.2102Z" fill="#262939"/>
<path d="M119.709 66.4498C119.765 66.6111 119.68 66.7874 119.519 66.8432C119.357 66.8988 119.182 66.8135 119.126 66.6526L117.935 63.223C117.88 63.065 117.962 62.8912 118.119 62.8318C118.281 62.7703 118.46 62.8556 118.517 63.0195L119.709 66.4498Z" fill="#262939"/>
<path d="M121.897 65.6904C121.953 65.8518 121.868 66.0281 121.706 66.0839C121.545 66.1395 121.37 66.0543 121.314 65.8934L120.098 62.3979C120.044 62.2408 120.125 62.0682 120.28 62.0076C120.442 61.9444 120.622 62.0286 120.679 62.1925L121.897 65.6904Z" fill="#262939"/>
<path d="M132.121 62.087C132.192 62.2501 132.118 62.4396 131.955 62.5108C131.791 62.5825 131.6 62.5075 131.529 62.3435L129.655 58.0185C129.591 57.8709 129.652 57.6962 129.79 57.6133C129.957 57.513 130.171 57.5838 130.248 57.7624L132.121 62.087Z" fill="#262939"/>
<path d="M125.069 62.9668C125.119 63.0816 125.066 63.2151 124.951 63.2644C124.836 63.3134 124.704 63.2607 124.654 63.1465L123.667 60.8668C123.618 60.7532 123.671 60.6213 123.785 60.5733C123.9 60.5252 124.031 60.5777 124.081 60.6914L125.069 62.9668Z" fill="#262939"/>
<path d="M126.613 62.2986C126.663 62.4128 126.61 62.5455 126.496 62.5947C126.382 62.6438 126.25 62.5915 126.2 62.4778L125.205 60.1891C125.156 60.077 125.207 59.947 125.318 59.8964C125.434 59.8437 125.573 59.8947 125.623 60.0117L126.613 62.2986Z" fill="#262939"/>
<path d="M128.151 61.6284C128.201 61.7426 128.148 61.8751 128.034 61.9244C127.92 61.9735 127.788 61.9212 127.738 61.8074L126.727 59.4791C126.678 59.3679 126.727 59.2379 126.835 59.1842C126.952 59.1266 127.092 59.1792 127.144 59.2988L128.151 61.6284Z" fill="#262939"/>
<path d="M129.692 60.9631C129.742 61.0772 129.689 61.2098 129.575 61.259C129.461 61.3081 129.329 61.2556 129.279 61.1417L128.231 58.7196C128.185 58.6117 128.232 58.4851 128.336 58.4299C128.451 58.3686 128.592 58.4191 128.643 58.5387L129.692 60.9631Z" fill="#262939"/>
<path d="M131.983 59.3945C132.023 59.4878 131.98 59.5962 131.886 59.6358C131.793 59.6749 131.687 59.6321 131.647 59.54L130.653 57.2468C130.619 57.1675 130.649 57.0739 130.721 57.0257C130.815 56.9625 130.943 56.9992 130.988 57.1031L131.983 59.3945Z" fill="#262939"/>
<path d="M132.992 58.9546C133.032 59.0479 132.989 59.1563 132.895 59.1959C132.803 59.2349 132.696 59.1922 132.656 59.1L131.561 56.5721C131.53 56.4993 131.553 56.4131 131.615 56.363C131.708 56.2869 131.85 56.3196 131.898 56.4302L132.992 58.9546Z" fill="#262939"/>
<path d="M133.825 58.3303C133.866 58.4233 133.823 58.5314 133.73 58.572C133.637 58.6127 133.528 58.5699 133.488 58.4766L132.347 55.8435C132.319 55.7793 132.335 55.701 132.382 55.6485C132.47 55.5489 132.631 55.5745 132.684 55.6965L133.825 58.3303Z" fill="#262939"/>
<path d="M133.962 57.7339L132.835 55.1243C132.818 55.0857 132.823 55.0369 132.842 54.9993C132.903 54.8771 133.118 54.8692 133.172 54.9948L133.25 55.1772L133.962 57.7339Z" fill="#262939"/>
<path d="M91.4509 88.5049L112.46 80.1963L88.2461 87.5554L91.4509 88.5049Z" fill="black" fill-opacity="0.2"/>
<path d="M61.6595 79.3648L87.7723 72.4805L56.793 77.8217L61.6595 79.3648Z" fill="black" fill-opacity="0.2"/>
<defs>
<filter id="filter0_i_8477_8414" x="123.434" y="87.2041" width="18.582" height="21.8115" filterUnits="userSpaceOnUse" color-interpolation-filters="sRGB">
<feFlood flood-opacity="0" result="BackgroundImageFix"/>
<feBlend mode="normal" in="SourceGraphic" in2="BackgroundImageFix" result="shape"/>
<feColorMatrix in="SourceAlpha" type="matrix" values="0 0 0 0 0 0 0 0 0 0 0 0 0 0 0 0 0 0 127 0" result="hardAlpha"/>
<feOffset dx="-0.23739" dy="0.23739"/>
<feComposite in2="hardAlpha" operator="arithmetic" k2="-1" k3="1"/>
<feColorMatrix type="matrix" values="0 0 0 0 0 0 0 0 0 0 0 0 0 0 0 0 0 0 0.25 0"/>
<feBlend mode="normal" in2="shape" result="effect1_innerShadow_8477_8414"/>
</filter>
<filter id="filter1_i_8477_8414" x="22.6914" y="83.7061" width="16.3125" height="20.6846" filterUnits="userSpaceOnUse" color-interpolation-filters="sRGB">
<feFlood flood-opacity="0" result="BackgroundImageFix"/>
<feBlend mode="normal" in="SourceGraphic" in2="BackgroundImageFix" result="shape"/>
<feColorMatrix in="SourceAlpha" type="matrix" values="0 0 0 0 0 0 0 0 0 0 0 0 0 0 0 0 0 0 127 0" result="hardAlpha"/>
<feOffset dx="-0.23739" dy="0.23739"/>
<feComposite in2="hardAlpha" operator="arithmetic" k2="-1" k3="1"/>
<feColorMatrix type="matrix" values="0 0 0 0 0 0 0 0 0 0 0 0 0 0 0 0 0 0 0.25 0"/>
<feBlend mode="normal" in2="shape" result="effect1_innerShadow_8477_8414"/>
</filter>
</defs>
</svg>
