<svg width="64" height="64" viewBox="0 0 64 64" fill="none" xmlns="http://www.w3.org/2000/svg">
    <defs>
        <linearGradient id="paint0_linear_14450_124291" x1="45.0704" y1="29.8679" x2="35.4815"
            y2="46.7548" gradientUnits="userSpaceOnUse">
            <stop stop-color="white" />
            <stop offset="1" stop-color="#F9FAFF" />
        </linearGradient>
    </defs>
    <path fill-rule="evenodd" clip-rule="evenodd"
        d="M5.95537 40.049C4.58854 32.7707 0.731585 24.2067 5.93456 18.9348C11.3199 13.4781 20.7382 14.9 27.7879 17.9271C33.5121 20.385 35.7252 26.7287 37.7742 32.6064C39.4221 37.3334 39.6945 42.2126 37.8802 46.8769C35.8629 52.0633 32.9348 57.5335 27.5399 58.9184C22.072 60.322 16.6596 57.1303 12.4098 53.4151C8.4891 49.9876 6.91589 45.1637 5.95537 40.049Z"
        fill="#A0B2EC" fill-opacity="0.16" />
    <path
        d="M53.6087 9.96279C57.2873 14.6313 59.7455 20.5599 60.5559 26.3995C62.1473 37.8709 53.2601 49.3071 41.393 51.9153C35.8097 53.1421 29.5728 51.7988 26.0098 47.5264C23.3726 44.3649 23.2363 40.1883 24.6271 36.3638C25.8003 33.1382 28.0112 30.377 29.4387 27.262C31.6213 22.4997 31.1493 17.5683 32.3851 12.6664C33.0624 9.97903 34.5957 6.95514 37.1398 5.4078C39.5547 3.93871 42.6283 3.60505 45.3094 4.25885C48.6933 5.08392 51.5153 7.30604 53.6087 9.96279Z"
        fill="#A0B2EC" fill-opacity="0.16" />
    <path
        d="M48.0499 19.2416L35.052 14.2253L33.4969 18.2546L29.9155 18.8032C28.8136 18.972 27.8863 19.7177 27.4849 20.7577L18.5939 43.7952C17.9754 45.3977 18.7731 47.1981 20.3756 47.8165L36.2357 53.9376C37.8382 54.556 39.6386 53.7583 40.257 52.1558L49.1506 29.1118C49.5506 28.0753 49.3674 26.9041 48.6698 26.0393L46.4761 23.3197L48.0499 19.2416Z"
        fill="#0C419A" />
    <path
        d="M26.6602 22.7627L42.904 29.0318C44.1005 29.4936 44.696 30.8378 44.2343 32.0342L39.5314 44.2197C39.0697 45.4162 37.7255 46.0117 36.5291 45.55L20.2852 39.2809L26.6602 22.7627Z"
        fill="url(#paint0_linear_14450_124291)" />
    <path fill-rule="evenodd" clip-rule="evenodd"
        d="M28.4372 27.4009C28.6864 26.7868 29.3863 26.4909 30.0004 26.7401L34.6481 28.6261C35.2622 28.8753 35.5581 29.5751 35.3089 30.1892C35.0597 30.8033 34.3598 31.0992 33.7457 30.85L29.098 28.964C28.4839 28.7148 28.188 28.015 28.4372 27.4009Z"
        fill="#BDCCF8" />
    <path fill-rule="evenodd" clip-rule="evenodd"
        d="M39.7115 36.779C39.4732 37.3974 38.8151 37.7197 38.2415 37.4989L27.4389 33.3402C26.8654 33.1194 26.5935 32.4391 26.8318 31.8206C27.07 31.2022 27.7282 30.8799 28.3018 31.1007L39.1043 35.2594C39.6779 35.4802 39.9497 36.1605 39.7115 36.779Z"
        fill="#BDCCF8" />
    <path
        d="M48.8633 20.4629L33.699 14.6104L35.3712 10.2778C35.8329 9.08138 37.1771 8.48581 38.3736 8.94755L49.2052 13.1279C50.4016 13.5896 50.9972 14.9338 50.5354 16.1303L48.8633 20.4629Z"
        fill="#0C419A" />
    <path
        d="M48.8633 20.4629L33.699 14.6104L35.3712 10.2778C35.8329 9.08138 37.1771 8.48581 38.3736 8.94755L49.2052 13.1279C50.4016 13.5896 50.9972 14.9338 50.5354 16.1303L48.8633 20.4629Z"
        fill="black" fill-opacity="0.5" />
    <path opacity="0.3"
        d="M47.7835 20.0437L48.9063 20.477L50.5772 16.1475C51.0387 14.9519 50.4384 13.6067 49.2366 13.1428L38.3558 8.94354C38.0353 8.81985 37.7044 8.77133 37.3827 8.78934L44.9717 11.7182C46.1681 12.18 46.7637 13.5242 46.302 14.7206L44.6928 18.8901L43.5751 18.4587L42.2428 21.9107L44.4366 24.6304C45.1341 25.4952 45.3174 26.6663 44.9174 27.7029L36.0238 50.7469C35.5575 51.9551 34.4193 52.7058 33.2007 52.737L36.2893 53.929C37.899 54.5503 39.705 53.7558 40.323 52.1545L49.2102 29.1269C49.6099 28.0911 49.4239 26.9196 48.7221 26.0537L46.5151 23.3302L47.7835 20.0437Z"
        fill="#262939" />
    <path opacity="0.4"
        d="M23.7468 37.4287C23.1558 36.6049 22.9778 35.5119 23.3687 34.499L28.5232 21.1432C28.923 20.1074 29.8478 19.3647 30.9494 19.1947L32.4125 18.9689L31.2405 19.5374C30.4297 19.8967 30.2228 20.5079 29.9633 21.2748C29.901 21.4588 29.8357 21.6517 29.7583 21.8523L23.7468 37.4287Z"
        fill="#F9FAFF" />
    <path
        d="M25.2619 14.1234C26.2326 13.0699 26.1655 11.4289 25.1119 10.4582C24.0584 9.48749 22.4174 9.55464 21.4467 10.6082L19.0032 13.2602L22.8184 16.7755L25.2619 14.1234Z"
        fill="#F9FAFF" />
    <path
        d="M16.5584 15.9117C15.5877 16.9653 15.6548 18.6063 16.7084 19.577C17.7619 20.5477 19.4029 20.4805 20.3736 19.427L22.8171 16.775L19.0019 13.2597L16.5584 15.9117Z"
        fill="#0C419A" />
    <path fill-rule="evenodd" clip-rule="evenodd"
        d="M25.7821 12.6741C25.7995 12.5823 25.6753 12.5496 25.628 12.6302C25.5193 12.8152 25.3894 12.9915 25.2382 13.1557L22.3576 16.282L19.477 19.4084C19.3253 19.5731 19.1597 19.7173 18.9836 19.841C18.9071 19.8947 18.9498 20.0158 19.0399 19.9909C19.4911 19.8663 19.914 19.6182 20.2545 19.2486L22.6981 16.5966L25.1416 13.9445C25.4819 13.5752 25.6946 13.1337 25.7821 12.6741Z"
        fill="#001944" fill-opacity="0.2" />
    <path fill-rule="evenodd" clip-rule="evenodd"
        d="M16.2943 16.759C16.1863 17.0245 16.552 17.0866 16.724 16.8574C16.7838 16.7777 16.8482 16.7002 16.9172 16.6254L17.4664 16.0294C17.5611 15.9266 17.5545 15.7665 17.4517 15.6718L17.4306 15.6523C17.3278 15.5576 17.1677 15.5642 17.073 15.667L16.8015 15.9616C16.5794 16.2027 16.4104 16.4735 16.2943 16.759Z"
        fill="#BDCCF8" fill-opacity="0.7" />
    <rect width="0.548298" height="4.04897" rx="0.274149"
        transform="matrix(-0.735426 -0.677605 -0.677605 0.735426 20.5898 12.6582)" fill="#BDCCF8"
        fill-opacity="0.7" />
    <path
        d="M12.5972 32.1518C11.385 30.416 11.8095 28.0261 13.5454 26.814C15.2812 25.6018 17.6711 26.0263 18.8832 27.7622L21.9346 32.1318L15.6485 36.5214L12.5972 32.1518Z"
        fill="white" />
    <path
        d="M12.5972 32.1518C11.385 30.416 11.8095 28.0261 13.5454 26.814C15.2812 25.6018 17.6711 26.0263 18.8832 27.7622L21.9346 32.1318L15.6485 36.5214L12.5972 32.1518Z"
        fill="#F2DCF9" fill-opacity="0.2" />
    <path
        d="M24.9849 36.5015C26.197 38.2373 25.7725 40.6272 24.0366 41.8393C22.3008 43.0515 19.911 42.627 18.6988 40.8911L15.6475 36.5215L21.9335 32.1319L24.9849 36.5015Z"
        fill="#D81E7E" />
    <path fill-rule="evenodd" clip-rule="evenodd"
        d="M12.1252 29.9254C12.118 29.7874 12.3063 29.7643 12.3596 29.8918C12.4821 30.1848 12.6375 30.4693 12.8267 30.7404L16.4238 35.8915L20.0209 41.0427C20.2103 41.3139 20.4242 41.558 20.6573 41.774C20.7587 41.8679 20.6721 42.0368 20.5451 41.9825C19.909 41.7104 19.3387 41.2627 18.9134 40.6537L15.8621 36.2841L12.8107 31.9145C12.3855 31.3056 12.1617 30.6162 12.1252 29.9254Z"
        fill="#001944" fill-opacity="0.2" />
    <path opacity="0.7" fill-rule="evenodd" clip-rule="evenodd"
        d="M25.204 37.7893C25.3101 38.1993 24.7621 38.2183 24.5552 37.8487C24.4843 37.722 24.4063 37.5975 24.3213 37.4757L23.635 36.4928C23.5167 36.3235 23.5581 36.0903 23.7275 35.9721L23.7614 35.9484C23.9307 35.8302 24.1639 35.8716 24.2821 36.0409L24.6212 36.5264C24.8973 36.9219 25.0904 37.35 25.204 37.7893Z"
        fill="#F8D8E8" />
    <rect opacity="0.7" x="19.7305" y="30.9346" width="0.810339" height="5.98404" rx="0.405169"
        transform="rotate(-34.927 19.7305 30.9346)" fill="#F8D8E8" />
    <circle cx="49.1982" cy="39.3594" r="4.45811" transform="rotate(30 49.1982 39.3594)"
        fill="#07CBA2" />
    <path opacity="0.5" fill-rule="evenodd" clip-rule="evenodd"
        d="M45.8266 41.5071C45.6265 40.3856 45.8348 39.1169 46.499 37.9664C47.3209 36.5428 48.6485 35.6333 50.0015 35.4112C48.3718 35.1304 46.6675 35.869 45.7924 37.3847C45.0283 38.7082 45.0934 40.2829 45.8266 41.5071Z"
        fill="#BBF4ED" />
    <g opacity="0.2">
        <path
            d="M52.2931 40.6096C52.5152 40.7378 52.5913 41.0219 52.4631 41.244L45.8445 37.4228C45.9728 37.2007 46.2568 37.1245 46.479 37.2528L52.2931 40.6096Z"
            fill="#BBF4ED" />
        <path
            d="M52.4631 41.244C52.3348 41.4662 52.0507 41.5423 51.8286 41.4141L46.0145 38.0573C45.7924 37.929 45.7162 37.645 45.8445 37.4228L52.4631 41.244Z"
            fill="#262939" />
    </g>
    <circle cx="42.8711" cy="41.6474" r="3.56445" transform="rotate(30 42.8711 41.6474)"
        fill="#A05BB6" />
    <path opacity="0.5" fill-rule="evenodd" clip-rule="evenodd"
        d="M40.1741 43.3643C40.0144 42.4678 40.181 41.4538 40.7119 40.5342C41.3693 39.3956 42.4314 38.6683 43.5136 38.4911C42.2103 38.266 40.847 38.8565 40.1471 40.0687C39.5363 41.1267 39.5882 42.3855 40.1741 43.3643Z"
        fill="#F2DCF9" />
    <g opacity="0.2">
        <path
            d="M43.8573 39.1165C43.9598 38.9389 44.187 38.8781 44.3646 38.9806L41.3093 44.2724C41.1317 44.1699 41.0709 43.9428 41.1734 43.7651L43.8573 39.1165Z"
            fill="#F2DCF9" />
        <path
            d="M44.3646 38.9806C44.5422 39.0832 44.6031 39.3103 44.5005 39.4879L41.8166 44.1365C41.7141 44.3141 41.487 44.375 41.3093 44.2724L44.3646 38.9806Z"
            fill="#262939" />
    </g>

</svg>
