<svg width="69" height="68" viewBox="0 0 69 68" fill="none" xmlns="http://www.w3.org/2000/svg">
    <path d="M63.5456 23.4979C65.1132 29.4934 65.0772 36.1823 63.567 42.098C60.5999 53.7183 48.0524 60.9272 36.1815 58.4601C30.5965 57.2991 25.4044 53.4105 23.7899 47.8416C22.5947 43.7205 24.0807 39.6748 26.8292 36.6034C29.1474 34.013 32.2365 32.2997 34.7448 29.9212C38.5798 26.2849 40.0496 21.378 43.0715 17.2129C44.7281 14.9294 47.2982 12.6821 50.2242 12.2672C53.0018 11.8731 55.9445 12.8386 58.147 14.5831C60.927 16.7849 62.6537 20.0861 63.5456 23.4979Z" fill="#A0B2EC" fill-opacity="0.16"/>
    <path fill-rule="evenodd" clip-rule="evenodd" d="M34.7935 22.7639C37.9041 29.0033 43.5993 35.7664 40.2475 41.8794C36.7782 48.2066 27.8882 49.3422 20.7288 48.4148C14.9155 47.6618 11.2796 42.4863 7.91208 37.6907C5.20389 33.834 3.70138 29.4855 4.14265 24.7947C4.63331 19.5789 5.87523 13.8717 10.4013 11.2295C14.9887 8.55151 20.7088 10.0493 25.5113 12.3203C29.942 14.4154 32.6076 18.3791 34.7935 22.7639Z" fill="#A0B2EC" fill-opacity="0.16"/>
    <g filter="url(#filter0_d_31035_155448)">
        <path d="M27.6979 13.4101C27.6979 11.9216 28.9046 10.7148 30.3932 10.7148H38.3834C39.8719 10.7148 41.0786 11.9216 41.0786 13.4101V55.1867C41.0786 56.6753 39.8719 57.882 38.3834 57.882H30.3932C28.9046 57.882 27.6979 56.6753 27.6979 55.1867V13.4101Z" fill="#C7414F"/>
        <path d="M55.2766 27.608C56.7651 27.608 57.9718 28.8148 57.9718 30.3033V38.2935C57.9718 39.7821 56.7651 40.9888 55.2766 40.9888L13.5 40.9888C12.0114 40.9888 10.8047 39.7821 10.8047 38.2935L10.8047 30.3033C10.8047 28.8148 12.0114 27.608 13.5 27.608L55.2766 27.608Z" fill="#C7414F"/>
    </g>
    <defs>
        <filter id="filter0_d_31035_155448" x="5.76487" y="8.19493" width="57.2476" height="57.2476" filterUnits="userSpaceOnUse" color-interpolation-filters="sRGB">
            <feFlood flood-opacity="0" result="BackgroundImageFix"/>
            <feColorMatrix in="SourceAlpha" type="matrix" values="0 0 0 0 0 0 0 0 0 0 0 0 0 0 0 0 0 0 127 0" result="hardAlpha"/>
            <feOffset dy="2.51991"/>
            <feGaussianBlur stdDeviation="2.51991"/>
            <feColorMatrix type="matrix" values="0 0 0 0 0.0470588 0 0 0 0 0.254902 0 0 0 0 0.603922 0 0 0 0.1 0"/>
            <feBlend mode="normal" in2="BackgroundImageFix" result="effect1_dropShadow_31035_155448"/>
            <feBlend mode="normal" in="SourceGraphic" in2="effect1_dropShadow_31035_155448" result="shape"/>
        </filter>
    </defs>
</svg>
