<svg width="64" height="64" viewBox="0 0 64 64" fill="none" xmlns="http://www.w3.org/2000/svg">
<path fill-rule="evenodd" clip-rule="evenodd" d="M5.95537 40.549C4.58854 33.2707 0.731585 24.7067 5.93456 19.4348C11.3199 13.9781 20.7382 15.4 27.7879 18.4271C33.5121 20.885 35.7252 27.2287 37.7742 33.1064C39.4221 37.8334 39.6945 42.7126 37.8802 47.3769C35.8629 52.5633 32.9348 58.0335 27.5399 59.4184C22.072 60.822 16.6596 57.6303 12.4098 53.9151C8.4891 50.4876 6.91589 45.6637 5.95537 40.549Z" fill="#A0B2EC" fill-opacity="0.16"/>
<path d="M53.6087 10.4628C57.2873 15.1312 59.7455 21.0599 60.5559 26.8995C62.1473 38.3709 53.2601 49.8071 41.393 52.4153C35.8097 53.6421 29.5728 52.2988 26.0098 48.0264C23.3726 44.8649 23.2363 40.6883 24.6271 36.8638C25.8003 33.6382 28.0112 30.877 29.4387 27.762C31.6213 22.9997 31.1493 18.0682 32.3851 13.1663C33.0624 10.479 34.5957 7.45513 37.1398 5.90779C39.5547 4.4387 42.6283 4.10503 45.3094 4.75884C48.6933 5.58391 51.5153 7.80603 53.6087 10.4628Z" fill="#A0B2EC" fill-opacity="0.16"/>
<path d="M31.3672 26.6172L37.1634 32.4134L26.6248 42.952C25.1698 44.407 22.8106 44.407 21.3555 42.952L20.8286 42.425C19.3735 40.97 19.3735 38.6108 20.8286 37.1558L31.3672 26.6172Z" fill="#0C419A"/>
<path opacity="0.3" fill-rule="evenodd" clip-rule="evenodd" d="M20.4612 41.9997C20.5708 42.1481 20.6928 42.2902 20.8272 42.4246L21.3541 42.9516C22.8092 44.4066 25.1683 44.4066 26.6234 42.9516L39.0062 30.5687L37.689 29.2515L25.3063 41.6342C23.9854 42.9551 21.9195 43.0769 20.4612 41.9997Z" fill="#262939"/>
<path d="M39.0078 18.9766L44.804 24.7728L37.1636 32.4132L31.3673 26.617L39.0078 18.9766Z" fill="#F9FAFF"/>
<path d="M33.2109 24.7734L39.0072 30.5697L37.1629 32.4139L31.3667 26.6177L33.2109 24.7734Z" fill="#262939"/>
<path d="M48.097 9.88543C48.3153 9.66717 48.6691 9.66717 48.8874 9.88543L53.8932 14.8913C54.1115 15.1095 54.1115 15.4634 53.8932 15.6816C53.6749 15.8999 53.3211 15.8999 53.1028 15.6816L48.097 10.6758C47.8787 10.4576 47.8787 10.1037 48.097 9.88543Z" fill="#F9FAFF"/>
<path d="M49.0195 11.5977L52.1811 14.7592L37.6906 29.2498L34.529 26.0882L49.0195 11.5977Z" fill="#F9FAFF"/>
<path d="M40.3242 20.293L43.4858 23.4545L37.6896 29.2508L34.528 26.0892L40.3242 20.293Z" fill="#BDCCF8"/>
<rect x="50.3359" y="12.916" width="0.74519" height="20.4927" transform="rotate(45 50.3359 12.916)" fill="#262939" fill-opacity="0.1"/>
<path d="M38.0853 17.2624C38.3035 17.0441 38.6574 17.0441 38.8757 17.2624L46.5161 24.9029C46.7344 25.1211 46.7344 25.475 46.5161 25.6932C46.2979 25.9115 45.944 25.9115 45.7257 25.6932L38.0853 18.0528C37.867 17.8345 37.867 17.4806 38.0853 17.2624Z" fill="#F9FAFF"/>
<path d="M20.0391 44.2695L11.8717 52.4369L12.1293 51.1254L19.5121 43.7426L20.0391 44.2695Z" fill="#495574"/>
<path d="M20.5664 42.1621L21.6203 43.216L20.5664 44.2698L19.5125 43.216L20.5664 42.1621Z" fill="#E7ECFA"/>
<path d="M18.194 46.6393L17.1401 45.5854L19.5113 41.6335L22.1459 44.2681L18.194 46.6393Z" fill="#F9FAFF"/>
<path d="M19.5117 41.1074L22.6733 44.269L21.8829 45.0594L18.7213 41.8978L19.5117 41.1074Z" fill="#F9FAFF"/>
<rect opacity="0.5" x="31.1055" y="27.9336" width="1.11778" height="11.923" rx="0.558892" transform="rotate(45 31.1055 27.9336)" fill="white"/>
<rect opacity="0.5" x="22.1484" y="36.8906" width="1.11778" height="2.60816" rx="0.558892" transform="rotate(45 22.1484 36.8906)" fill="white"/>
<rect opacity="0.2" x="41.9062" y="18.7129" width="4.47114" height="1.11778" transform="rotate(45 41.9062 18.7129)" fill="#262939"/>
<path d="M44.3346 38.9993C44.3346 41.8758 42.0028 44.2077 39.1263 44.2077C36.2498 44.2077 33.918 41.8758 33.918 38.9993C33.918 36.1229 36.2498 33.791 39.1263 33.791C42.0028 33.791 44.3346 36.1229 44.3346 38.9993Z" fill="#0C419A"/>
<path fill-rule="evenodd" clip-rule="evenodd" d="M45.375 39C45.375 42.4518 42.5768 45.25 39.125 45.25C35.6732 45.25 32.875 42.4518 32.875 39C32.875 35.5482 35.6732 32.75 39.125 32.75C42.5768 32.75 45.375 35.5482 45.375 39ZM39.125 44.2083C42.0015 44.2083 44.3333 41.8765 44.3333 39C44.3333 36.1235 42.0015 33.7917 39.125 33.7917C36.2485 33.7917 33.9167 36.1235 33.9167 39C33.9167 41.8765 36.2485 44.2083 39.125 44.2083Z" fill="white"/>
<rect x="38.6914" y="36.3965" width="0.868057" height="5.20833" rx="0.434029" fill="white"/>
<rect x="41.7305" y="38.5664" width="0.868057" height="5.20833" rx="0.434029" transform="rotate(90 41.7305 38.5664)" fill="white"/>
</svg>
