<svg width="121" height="120" viewBox="0 0 121 120" fill="none" xmlns="http://www.w3.org/2000/svg">
<path d="M106.176 16.0803C100.245 10.3099 91.5251 7.68202 82.9228 7.95025C77.4621 8.12084 71.8685 9.43709 67.2151 12.4625C59.5866 17.4232 55.5626 26.0767 50.0088 33.2074C43.3684 41.7339 34.3735 48.2131 26.7284 55.9127C19.0844 63.6115 12.4944 73.4548 12.9028 83.8586C13.1441 90.0413 15.902 95.8482 19.9422 100.425C27.8139 109.343 40.4447 113.631 52.8326 112.846C87.8783 110.624 115.87 74.7062 115.535 42.109C115.436 32.5874 112.966 22.6858 106.176 16.0803Z" fill="#A0B2EC" fill-opacity="0.16"/>
<path d="M100.737 106.086C105.699 100.421 107.672 92.3711 107.019 84.5661C106.604 79.6116 105.141 74.5909 102.17 70.5059C97.2989 63.8093 89.2431 60.5643 82.4984 55.8564C74.4335 50.2276 68.117 42.3614 60.7558 35.7801C53.3953 29.1999 44.1361 23.6794 34.7006 24.5459C29.0933 25.0595 23.9473 27.8422 19.98 31.7319C12.25 39.3101 8.95448 50.993 10.2581 62.2137C13.9453 93.9573 47.9198 117.686 77.5279 115.83C86.1764 115.287 95.0573 112.57 100.737 106.086Z" fill="#A0B2EC" fill-opacity="0.16"/>
<path d="M60.75 38.3297L71.6179 49.1976L49.5528 71.2627C48.0977 72.7178 45.7386 72.7178 44.2835 71.2627L38.6849 65.6641C37.2298 64.2091 37.2298 61.8499 38.6849 60.3948L60.75 38.3297Z" fill="#0C419A"/>
<path opacity="0.3" fill-rule="evenodd" clip-rule="evenodd" d="M38.6665 65.6468C38.6723 65.6527 38.6781 65.6585 38.6839 65.6643L44.2826 71.263C45.7376 72.718 48.0968 72.718 49.5518 71.263L75.0749 45.7399L72.605 43.2699L47.082 68.793C45.6269 70.248 43.2678 70.2481 41.8127 68.793L38.6665 65.6468Z" fill="#262939"/>
<path d="M75.0742 24.0037L85.9421 34.8716L71.6163 49.1974L60.7483 38.3295L75.0742 24.0037Z" fill="#F9FAFF"/>
<path d="M64.207 34.8716L75.0749 45.7395L71.617 49.1975L60.7491 38.3296L64.207 34.8716Z" fill="#262939"/>
<path d="M92.1184 6.96048C92.5276 6.55124 93.1911 6.55124 93.6004 6.96048L102.986 16.3464C103.396 16.7556 103.396 17.4191 102.986 17.8284C102.577 18.2376 101.914 18.2376 101.504 17.8284L92.1184 8.44246C91.7091 8.03322 91.7091 7.36972 92.1184 6.96048Z" fill="#F9FAFF"/>
<path d="M93.8477 10.1714L99.7756 16.0993L72.6058 43.2691L66.6779 37.3411L93.8477 10.1714Z" fill="#F9FAFF"/>
<path d="M77.5469 26.4733L83.4748 32.4012L72.6069 43.2691L66.679 37.3412L77.5469 26.4733Z" fill="#BDCCF8"/>
<rect x="96.3164" y="12.6414" width="1.39723" height="38.4238" transform="rotate(45 96.3164 12.6414)" fill="#262939" fill-opacity="0.1"/>
<path d="M73.3489 20.7925C73.7581 20.3833 74.4216 20.3833 74.8308 20.7925L89.1567 35.1184C89.5659 35.5276 89.5659 36.1911 89.1567 36.6004C88.7475 37.0096 88.084 37.0096 87.6747 36.6004L73.3489 22.2745C72.9396 21.8652 72.9396 21.2017 73.3489 20.7925Z" fill="#F9FAFF"/>
<path d="M39.5078 71.4268L24.1939 86.7406L24.6771 84.2815L38.5198 70.4388L39.5078 71.4268Z" fill="#495574"/>
<path d="M40.4961 67.4747L42.4721 69.4507L40.4961 71.4267L38.5201 69.4507L40.4961 67.4747Z" fill="#E7ECFA"/>
<path d="M36.0493 75.8729L34.0733 73.8969L38.5192 66.487L43.4592 71.4269L36.0493 75.8729Z" fill="#F9FAFF"/>
<path d="M38.5195 65.4989L44.4475 71.4268L42.9655 72.9088L37.0375 66.9809L38.5195 65.4989Z" fill="#F9FAFF"/>
<rect opacity="0.5" x="60.2578" y="40.7994" width="2.09585" height="22.3557" rx="1.04792" transform="rotate(45 60.2578 40.7994)" fill="white"/>
<rect opacity="0.5" x="43.4609" y="57.5952" width="2.09585" height="4.89031" rx="1.04792" transform="rotate(45 43.4609 57.5952)" fill="white"/>
<rect opacity="0.2" x="80.5117" y="23.5095" width="8.38338" height="2.09584" transform="rotate(45 80.5117 23.5095)" fill="#262939"/>
<path d="M92.3429 70.1991L76.4965 68.8287L69.4918 86.9762C68.985 88.2893 69.6387 89.7647 70.9519 90.2715L83.9484 95.2873C85.2616 95.7941 86.7369 95.1404 87.2437 93.8273L94.5315 74.9439C94.8593 74.0945 94.7091 73.1348 94.1376 72.4261L92.3399 70.1975L92.3429 70.1991Z" fill="#0C419A"/>
<path d="M76.1016 69.7411L88.8209 74.6499C90.1281 75.1545 90.7788 76.6231 90.2743 77.9303L86.8773 86.7323C86.3728 88.0395 84.9041 88.6903 83.5969 88.1858L70.8776 83.2769L76.1016 69.7411Z" fill="url(#paint0_linear_48598_6277)"/>
<path d="M75.0377 75.0832L73.8118 74.6182L72.8819 77.07L74.1077 77.535L75.0377 75.0832ZM83.6134 81.1406C84.2904 81.3974 85.0474 81.0567 85.3042 80.3797C85.5611 79.7026 85.2204 78.9456 84.5433 78.6888L83.6134 81.1406ZM74.1077 77.535L83.6134 81.1406L84.5433 78.6888L75.0377 75.0832L74.1077 77.535Z" fill="#BDCCF8"/>
<path d="M74.0573 78.6889L72.8314 78.2239L71.9014 80.6757L73.1273 81.1407L74.0573 78.6889ZM82.6329 84.7463C83.3099 85.0031 84.067 84.6624 84.3238 83.9854C84.5806 83.3084 84.2399 82.5513 83.5629 82.2945L82.6329 84.7463ZM73.1273 81.1407L82.6329 84.7463L83.5629 82.2945L74.0573 78.6889L73.1273 81.1407Z" fill="#BDCCF8"/>
<path d="M76.3405 71.8013L75.111 71.346L74.2004 73.805L75.4299 74.2603L76.3405 71.8013ZM79.8374 75.8924C80.5164 76.1439 81.2707 75.7972 81.5222 75.1182C81.7736 74.4391 81.427 73.6848 80.748 73.4334L79.8374 75.8924ZM75.4299 74.2603L79.8374 75.8924L80.748 73.4334L76.3405 71.8013L75.4299 74.2603Z" fill="#BDCCF8"/>
<path d="M94.2969 67.8561L81.8705 63.0603L83.0124 60.1016C83.5169 58.7944 84.9856 58.1437 86.2928 58.6482L93.9853 61.617C95.2925 62.1215 95.9432 63.5902 95.4387 64.8974L94.2969 67.8561Z" fill="#0C419A"/>
<path d="M94.2969 67.8561L81.8705 63.0603L83.0124 60.1016C83.5169 58.7944 84.9856 58.1437 86.2928 58.6482L93.9853 61.617C95.2925 62.1215 95.9432 63.5902 95.4387 64.8974L94.2969 67.8561Z" fill="black" fill-opacity="0.5"/>
<path opacity="0.3" d="M93.4112 67.5123L94.3313 67.8674L95.7006 64.3196C96.0787 63.3399 95.5868 62.2375 94.6019 61.8574L85.6857 58.4163C85.4231 58.315 85.1519 58.2752 84.8883 58.29L91.1071 60.69C92.0875 61.0684 92.5756 62.1699 92.1972 63.1503L90.8786 66.567L89.9627 66.2135L88.8709 69.0423L90.6686 71.2709C91.2402 71.9795 91.3904 72.9393 91.0626 73.7886L83.7748 92.672C83.3927 93.6621 82.46 94.2773 81.4613 94.3029L83.9923 95.2797C85.3114 95.7888 86.7913 95.1377 87.2977 93.8255L94.5804 74.9555C94.9079 74.1068 94.7555 73.1468 94.1804 72.4372L92.3719 70.2055L93.4112 67.5123Z" fill="#262939"/>
<path opacity="0.4" d="M73.711 81.7589C73.2267 81.0839 73.0809 80.1882 73.4012 79.3582L77.6251 68.4138C77.9526 67.565 78.7105 66.9564 79.6131 66.8171L80.8121 66.6321L79.8517 67.0979C79.1873 67.3923 79.0178 67.8932 78.8051 68.5216C78.7541 68.6724 78.7005 68.8305 78.6371 68.9949L73.711 81.7589Z" fill="#F9FAFF"/>
<defs>
<linearGradient id="paint0_linear_48598_6277" x1="91.1878" y1="75.5634" x2="83.3302" y2="89.4014" gradientUnits="userSpaceOnUse">
<stop stop-color="white"/>
<stop offset="1" stop-color="#F9FAFF"/>
</linearGradient>
</defs>
</svg>
