<svg width="80" height="80" viewBox="0 0 80 80" fill="none" xmlns="http://www.w3.org/2000/svg">
<path d="M69.3405 18.5019C73.4373 25.4434 75.7736 33.8227 75.9892 41.7591C76.4118 57.3491 63.2706 70.8288 47.5317 71.9651C40.1267 72.4994 32.2426 69.4823 28.2389 63.091C25.2755 58.3614 25.6955 52.7725 28.0426 47.9533C30.0224 43.8887 33.2796 40.647 35.5728 36.7798C39.0792 30.8676 39.1722 24.2073 41.4724 17.9227C42.7331 14.4773 45.1505 10.7523 48.6657 9.19269C52.0025 7.71185 56.0301 7.87278 59.4084 9.27145C63.6724 11.0366 67.0093 14.5516 69.3405 18.5019Z" fill="#A0B2EC" fill-opacity="0.16"/>
<path fill-rule="evenodd" clip-rule="evenodd" d="M31.2388 55.0583C21.9569 54.0087 10.2091 55.4711 5.76161 47.282C1.15827 38.8059 6.33447 28.0335 12.5765 20.6955C17.6449 14.7373 26.1105 14.4265 33.9536 14.1403C40.2612 13.9101 46.2469 15.3861 51.2067 19.2858C56.7216 23.6219 62.2442 29.1554 61.9322 36.1385C61.6161 43.2162 55.7771 48.5293 49.7339 52.2545C44.1586 55.6911 37.7615 55.7959 31.2388 55.0583Z" fill="#A0B2EC" fill-opacity="0.16"/>
<path d="M39.9668 25.5547L47.2121 32.8L32.0629 47.9492C31.3353 48.6767 30.1558 48.6767 29.4282 47.9492L24.8176 43.3385C24.0901 42.611 24.0901 41.4314 24.8176 40.7039L39.9668 25.5547Z" fill="#0C419A"/>
<path opacity="0.3" fill-rule="evenodd" clip-rule="evenodd" d="M27.7809 46.3031L29.4274 47.9496C30.1549 48.6771 31.3345 48.6771 32.062 47.9496L49.5165 30.4951L47.8701 28.8486L30.4155 46.3031C29.688 47.0306 28.5084 47.0306 27.7809 46.3031Z" fill="#262939"/>
<path d="M49.5176 16.0039L56.7628 23.2492L47.2123 32.7998L39.967 25.5545L49.5176 16.0039Z" fill="#F9FAFF"/>
<path d="M42.2715 23.25L49.5168 30.4953L47.2114 32.8006L39.9662 25.5553L42.2715 23.25Z" fill="#262939"/>
<path d="M60.881 4.64048C61.1538 4.36765 61.5962 4.36765 61.869 4.64048L68.1263 10.8978C68.3991 11.1706 68.3991 11.6129 68.1263 11.8858C67.8534 12.1586 67.4111 12.1586 67.1383 11.8858L60.881 5.62847C60.6082 5.35564 60.6082 4.91331 60.881 4.64048Z" fill="#F9FAFF"/>
<path d="M62.0332 6.78125L65.9852 10.7332L47.872 28.8464L43.92 24.8944L62.0332 6.78125Z" fill="#F9FAFF"/>
<path d="M51.166 17.6484L55.118 21.6004L47.8727 28.8457L43.9207 24.8937L51.166 17.6484Z" fill="#BDCCF8"/>
<rect x="63.6816" y="8.42773" width="0.931487" height="25.6159" transform="rotate(45 63.6816 8.42773)" fill="#262939" fill-opacity="0.1"/>
<path d="M48.3673 13.8612C48.6402 13.5884 49.0825 13.5884 49.3553 13.8612L58.9059 23.4118C59.1787 23.6846 59.1787 24.1269 58.9059 24.3998C58.6331 24.6726 58.1907 24.6726 57.9179 24.3998L48.3673 14.8492C48.0945 14.5763 48.0945 14.134 48.3673 13.8612Z" fill="#F9FAFF"/>
<path d="M25.8066 47.6191L15.5974 57.8284L15.9195 56.189L25.148 46.9605L25.8066 47.6191Z" fill="#495574"/>
<path d="M26.4668 44.9844L27.7841 46.3017L26.4668 47.619L25.1495 46.3017L26.4668 44.9844Z" fill="#E7ECFA"/>
<path d="M23.5022 50.5823L22.1849 49.265L25.1489 44.325L28.4422 47.6183L23.5022 50.5823Z" fill="#F9FAFF"/>
<path d="M25.1484 43.666L29.1004 47.618L28.1124 48.606L24.1604 44.654L25.1484 43.666Z" fill="#F9FAFF"/>
<rect opacity="0.5" x="39.6387" y="27.1992" width="1.39723" height="14.9038" rx="0.698615" transform="rotate(45 39.6387 27.1992)" fill="white"/>
<rect opacity="0.5" x="28.4434" y="38.3965" width="1.39723" height="3.2602" rx="0.698615" transform="rotate(45 28.4434 38.3965)" fill="white"/>
<rect opacity="0.2" x="53.1426" y="15.6738" width="5.58892" height="1.39723" transform="rotate(45 53.1426 15.6738)" fill="#262939"/>
</svg>
